<svg width="52" height="52" xmlns="http://www.w3.org/2000/svg" viewBox="0 0 51.87 50.64"><title>2</title><path d="M39.22,2.52,42.47,9.1l.21.42.47.07,7.27,1.06-5.26,5.13-.34.33.08.47,1.24,7.24-6.5-3.42-.42-.22-.42.22-6.5,3.42,1.24-7.24.08-.47-.34-.33L28,10.65,35.29,9.6l.47-.07L36,9.1Z" transform="translate(-0.48 -0.48)" fill="none" stroke="#fff" stroke-width="1.8"/><path d="M12.31,24.68A11.7,11.7,0,1,1,24,13,11.72,11.72,0,0,1,12.31,24.68Zm0-21.4A9.7,9.7,0,1,0,22,13,9.71,9.71,0,0,0,12.31,3.27Z" transform="translate(-0.48 -0.48)" fill="#fff" stroke="#fff" stroke-width="0.25"/><path d="M12.31,51A11.7,11.7,0,1,1,24,39.3,11.72,11.72,0,0,1,12.31,51Zm0-21.4A9.7,9.7,0,1,0,22,39.3,9.71,9.71,0,0,0,12.31,29.6Z" transform="translate(-0.48 -0.48)" fill="#fff" stroke="#fff" stroke-width="0.25"/><path d="M39.22,51a11.7,11.7,0,1,1,11.7-11.7A11.72,11.72,0,0,1,39.22,51Zm0-21.4a9.7,9.7,0,1,0,9.7,9.7A9.71,9.71,0,0,0,39.22,29.6Z" transform="translate(-0.48 -0.48)" fill="#fff" stroke="#fff" stroke-width="0.25"/></svg>