<svg xmlns="http://www.w3.org/2000/svg" width="202" height="40" fill="none" viewBox="0 0 202 40">
    <mask id="a" width="241" height="57" x="-14" y="-8" maskUnits="userSpaceOnUse">
        <path fill="#fff" d="M-14-7.771h240v56H-14z"/>
    </mask>
    <g mask="url(#a)">
        <path fill="#EF3124" fill-rule="evenodd" d="M194.851 7.75l-6.885 7.469V7.75h-4.983v18.854h4.983v-7.937l7.369 7.937h6.435l-9.064-9.88 8.407-8.974h-6.262zM174.198 14.783h-6.884V7.751h-4.983v18.854h4.983V19.17h6.884v7.435h4.983V7.75h-4.983v7.032zM29.581 17.965c-.119 3.515-.588 4.22-2.629 4.22v4.42h.761c5.092 0 6.317-2.546 6.505-8.205l.207-6.262H39.2v14.466h4.982V7.751H29.927l-.346 10.213zM56.184 22.452h-3.217v-4.789h3.217c1.73 0 2.768.737 2.768 2.31 0 1.709-1.003 2.48-2.768 2.48zm.38-8.975h-3.597V7.751h-4.982v18.853h8.65c5.431 0 7.368-3.415 7.368-6.63 0-4.152-2.698-6.497-7.438-6.497zM80.23 22.486v-10.65c2.768.37 4.498 2.378 4.498 5.325s-1.73 4.957-4.498 5.325zm-4.982 0c-2.768-.368-4.498-2.378-4.498-5.325s1.73-4.956 4.498-5.324v10.65zm4.982-15.17v-7h-4.982v7c-5.709.469-9.55 4.387-9.55 9.845 0 5.492 3.842 9.41 9.55 9.88v7.1h4.982v-7.1c5.709-.436 9.55-4.388 9.55-9.88 0-5.492-3.841-9.41-9.55-9.845zM103.48 19.572c0 2.177-1.591 3.416-3.668 3.416-1.798 0-3.217-.636-3.217-2.512 0-1.842 1.557-2.143 2.906-2.143h3.979v1.239zm4.982 1.24v-6.33c0-4.621-3.044-7.535-8.165-7.535-5.293 0-8.096 3.081-8.338 6.296h5.051c.173-.703.934-1.909 3.287-1.909 1.938 0 3.183.87 3.183 3.148h-4.947c-4.43 0-7.059 2.244-7.059 5.994 0 3.919 2.877 6.598 7.024 6.598 3.041 0 4.729-1.392 5.466-2.445.658 1.272 2.111 1.976 4.014 1.976h1.729V22.25c-.899 0-1.245-.402-1.245-1.44zM129.567 21.85h-5.328v-6.832h5.328c2.768 0 4.325 1.24 4.325 3.416 0 2.244-1.557 3.416-4.325 3.416zm.242-11.42h-5.57V5.105h12.905V.316h-18.129v26.289h10.794c5.985 0 9.411-2.88 9.411-8.171 0-4.99-3.426-8.004-9.411-8.004zM153.301 19.572c0 2.177-1.591 3.416-3.667 3.416-1.799 0-3.218-.636-3.218-2.512 0-1.842 1.557-2.143 2.906-2.143h3.979v1.239zm4.982 1.24v-6.33c0-4.621-3.044-7.535-8.165-7.535-5.293 0-8.096 3.081-8.338 6.296h5.051c.173-.703.935-1.909 3.287-1.909 1.938 0 3.183.87 3.183 3.148h-4.947c-4.429 0-7.058 2.244-7.058 5.994 0 3.919 2.876 6.598 7.023 6.598 3.041 0 4.729-1.392 5.466-2.445.658 1.272 2.111 1.976 4.014 1.976h1.73V22.25c-.9 0-1.246-.402-1.246-1.44z" clip-rule="evenodd"/>
        <mask id="b" width="202" height="40" x="0" y="0" maskUnits="userSpaceOnUse">
            <path fill="#fff" d="M0 40h201.77V0H0v40z"/>
        </mask>
        <g fill="#EF3124" fill-rule="evenodd" clip-rule="evenodd" mask="url(#b)">
            <path d="M0 40h26.64v-5.358H0V40zM9.514 16.659l3.737-10.75h.138l3.53 10.75H9.513zm8.649-12.735C17.403 1.732 16.528 0 13.528 0S9.596 1.725 8.797 3.924L.554 26.604H6.02l1.903-5.391H18.44l1.764 5.392h5.813l-7.855-22.68z"/>
        </g>
    </g>
</svg>
