<svg xmlns="http://www.w3.org/2000/svg" viewBox="0 0 120 40"><path d="M110.13 0H7.52a13.21 13.21 0 0 0-2 .18 6.67 6.67 0 0 0-1.9.63A6.44 6.44 0 0 0 2 2 6.26 6.26 0 0 0 .82 3.62a6.6 6.6 0 0 0-.62 1.9 13 13 0 0 0-.18 2V32.48a13 13 0 0 0 .18 2 6.59 6.59 0 0 0 .63 1.9A6.21 6.21 0 0 0 2 38a6.27 6.27 0 0 0 1.62 1.18 6.7 6.7 0 0 0 1.9.63 13.45 13.45 0 0 0 2 .18h104.62a13.28 13.28 0 0 0 2-.18 6.8 6.8 0 0 0 1.91-.63 6.28 6.28 0 0 0 1.62-1.18 6.39 6.39 0 0 0 1.18-1.61 6.6 6.6 0 0 0 .62-1.9 13.51 13.51 0 0 0 .19-2v-.92V9.54 8.45v-.92a13.51 13.51 0 0 0-.19-2 6.62 6.62 0 0 0-.62-1.9A6.47 6.47 0 0 0 116 .82a6.77 6.77 0 0 0-1.91-.63 13 13 0 0 0-2-.18h-2z" fill="#a6a6a6"/><path d="M8.44 39.12h-.9A12.69 12.69 0 0 1 5.67 39 5.88 5.88 0 0 1 4 38.4a5.41 5.41 0 0 1-1.4-1 5.32 5.32 0 0 1-1-1.4 5.72 5.72 0 0 1-.54-1.66 12.41 12.41 0 0 1-.17-1.87V8.44v-.89a12.37 12.37 0 0 1 .17-1.87A5.76 5.76 0 0 1 1.6 4a5.37 5.37 0 0 1 1-1.4 5.57 5.57 0 0 1 1.4-1 5.82 5.82 0 0 1 1.65-.54A12.59 12.59 0 0 1 7.54.89h104.59a12.38 12.38 0 0 1 1.86.16 5.94 5.94 0 0 1 1.67.55 5.59 5.59 0 0 1 2.41 2.4 5.76 5.76 0 0 1 .54 1.65 13 13 0 0 1 .17 1.89v24.93a12.73 12.73 0 0 1-.17 1.85 5.74 5.74 0 0 1-.54 1.67 5.48 5.48 0 0 1-1 1.39 5.41 5.41 0 0 1-1.4 1A5.86 5.86 0 0 1 114 39a12.54 12.54 0 0 1-1.87.16H8.44z"/><path d="M24.77 20.3a5 5 0 0 1 2.36-4.15 5.07 5.07 0 0 0-4-2.16c-1.68-.18-3.31 1-4.16 1s-2.19-1-3.61-1a5.32 5.32 0 0 0-4.47 2.73C9 20.11 10.4 25 12.25 27.74c.93 1.33 2 2.81 3.43 2.75s1.91-.88 3.58-.88 2.14.88 3.59.85 2.43-1.33 3.32-2.67a11 11 0 0 0 1.52-3.09 4.78 4.78 0 0 1-2.92-4.4zM22 12.21a4.87 4.87 0 0 0 1.11-3.49 5 5 0 0 0-3.21 1.66 4.64 4.64 0 0 0-1.14 3.36A4.1 4.1 0 0 0 22 12.21zM42.3 27.14h-4.73l-1.14 3.36h-2l4.48-12.42H41l4.48 12.42h-2zm-4.24-1.55h3.75L40 20.14h-.05zm17.1.38c0 2.81-1.51 4.62-3.78 4.62A3.07 3.07 0 0 1 48.53 29v4.48h-1.9v-12h1.8v1.51a3.21 3.21 0 0 1 2.88-1.6c2.34-.04 3.85 1.77 3.85 4.61zm-1.91 0c0-1.83-.95-3-2.39-3s-2.37 1.23-2.37 3 1 3 2.38 3 2.38-1.15 2.38-2.97zm11.87 0c0 2.81-1.51 4.62-3.78 4.62A3.07 3.07 0 0 1 58.5 29v4.48h-1.9v-12h1.8v1.51a3.21 3.21 0 0 1 2.88-1.6c2.33-.04 3.84 1.77 3.84 4.61zm-1.91 0c0-1.83-.95-3-2.39-3s-2.37 1.23-2.37 3 1 3 2.38 3 2.38-1.15 2.38-2.97zm8.5 1.03c.14 1.23 1.33 2 3 2s2.69-.81 2.69-1.92-.68-1.54-2.29-1.94l-1.61-.39c-2.28-.55-3.34-1.62-3.34-3.35 0-2.14 1.87-3.61 4.52-3.61s4.42 1.47 4.48 3.61h-1.9c-.11-1.24-1.14-2-2.63-2s-2.52.76-2.52 1.86c0 .88.65 1.39 2.25 1.79l1.37.34c2.55.6 3.61 1.63 3.61 3.44 0 2.32-1.85 3.78-4.79 3.78-2.75 0-4.61-1.42-4.73-3.67zm11.64-7.7v2.14h1.72v1.47h-1.72v5c0 .78.34 1.14 1.1 1.14a5.81 5.81 0 0 0 .61 0v1.46a5.1 5.1 0 0 1-1 .09c-1.83 0-2.55-.69-2.55-2.44v-5.25h-1.35v-1.47h1.32V19.3zm2.72 6.7c0-2.85 1.68-4.64 4.29-4.64s4.29 1.79 4.29 4.64-1.65 4.61-4.29 4.61-4.29-1.78-4.29-4.61zm6.7 0c0-2-.9-3.11-2.4-3.11S88 24 88 26s.89 3.11 2.4 3.11 2.4-1.14 2.4-3.11zm3.43-4.53H98V23a2.16 2.16 0 0 1 2.18-1.64 2.87 2.87 0 0 1 .64.07v1.74A2.6 2.6 0 0 0 100 23a1.87 1.87 0 0 0-2 2.13v5.37h-1.81zm13.2 6.39c-.25 1.64-1.85 2.77-3.9 2.77-2.63 0-4.27-1.76-4.27-4.6s1.64-4.68 4.19-4.68 4.08 1.72 4.08 4.47v.64h-6.39v.11a2.36 2.36 0 0 0 2.14 2.56h.29a2 2 0 0 0 2.09-1.27zm-6.28-2.7h4.53a2.18 2.18 0 0 0-2.05-2.29h-.17a2.29 2.29 0 0 0-2.31 2.28l-.02-.02zM36.74 11.25h.8a1 1 0 0 0 1.12-.87v-.08c0-.55-.41-.91-1.12-.91a1.06 1.06 0 0 0-1.2.91h-.88a1.87 1.87 0 0 1 2-1.76h.13c1.17 0 2 .66 2 1.6a1.39 1.39 0 0 1-1.08 1.36v.07a1.39 1.39 0 0 1 1.33 1.44 2 2 0 0 1-2.19 1.78 2 2 0 0 1-2.23-1.7v-.07h.89c.05.57.58.94 1.35.94s1.28-.41 1.28-1-.48-1-1.31-1h-.82zm4.09 2.17c0-.81.6-1.28 1.67-1.34l1.22-.08v-.39c0-.48-.31-.74-.92-.74s-.84.18-.94.5H41c.09-.77.82-1.27 1.84-1.27s1.77.56 1.77 1.51v3.09h-.86v-.63h-.07a1.52 1.52 0 0 1-1.35.71 1.36 1.36 0 0 1-1.49-1.21s-.01-.1-.01-.15zm2.89-.42v-.38l-1.1.07c-.62 0-.9.25-.9.65s.35.64.83.64a1.06 1.06 0 0 0 1.16-.95zM47 10.94v3.76h-.89v-4.5h3v.75zm7.46 1.5c0 1.43-.72 2.33-1.86 2.33a1.47 1.47 0 0 1-1.42-.77h-.07v2.18h-.89v-6h.86v.74h.07a1.56 1.56 0 0 1 1.41-.82c1.15.02 1.87.9 1.87 2.34zm-.91 0c0-1-.45-1.53-1.2-1.53s-1.22.59-1.22 1.53.43 1.56 1.18 1.56 1.21-.6 1.21-1.56zm2.1 3.87v-.77h.29a.77.77 0 0 0 .81-.63l.07-.22-1.63-4.52h1l1.13 3.58h.07l1.13-3.58h.94l-1.68 4.69c-.38 1.1-.81 1.45-1.73 1.45zm4.47-2.89H61c.09.4.46.6 1 .6s1-.26 1-.67-.33-.64-1-.64h-.67V12h.66c.54 0 .81-.21.81-.58s-.26-.58-.81-.58-.86.21-.92.57h-.86a1.58 1.58 0 0 1 1.77-1.32c1.07 0 1.68.48 1.68 1.24a.93.93 0 0 1-.71.92v.07a1 1 0 0 1 .88 1c0 .86-.73 1.42-1.84 1.42s-1.83-.41-1.91-1.32zm5 1.28v-4.5H66v3.1l2.08-3.1H69v4.5h-.88v-3.12H68l-2.05 3.12zm8.76-3.75h-1.47v3.75h-.89v-3.76H70.1v-.75h3.73zm4.79 2.54a1.83 1.83 0 0 1-2 1.3 2 2 0 0 1-2.08-2.32 2.08 2.08 0 0 1 1.78-2.33h.29c1.25 0 2 .86 2 2.27v.31h-3.17A1.19 1.19 0 0 0 76.57 14h.12a1.08 1.08 0 0 0 1.07-.55zM75.49 12h2.27a1.09 1.09 0 0 0-1-1.16h-.1A1.15 1.15 0 0 0 75.49 12zm6.89-1.84h2c.88 0 1.4.45 1.4 1.15a1 1 0 0 1-.76 1v.07a1 1 0 0 1 1 1c0 .79-.59 1.3-1.58 1.3h-2.06zm.88.68V12h.88c.54 0 .79-.21.79-.59s-.22-.58-.7-.58zm0 1.82V14h1.05c.53 0 .81-.23.81-.66s-.32-.66-.92-.66z" fill="#fff"/></svg>