<?xml version="1.0" standalone="no"?>
<!DOCTYPE svg PUBLIC "-//W3C//DTD SVG 1.1//EN" "http://www.w3.org/Graphics/SVG/1.1/DTD/svg11.dtd" >
<svg xmlns="http://www.w3.org/2000/svg">
<metadata></metadata>
<defs>
<font id="magistralcregular" horiz-adv-x="1349" >
<font-face units-per-em="2048" ascent="1638" descent="-410" />
<missing-glyph horiz-adv-x="477" />
<glyph horiz-adv-x="0" />
<glyph unicode="&#xd;" horiz-adv-x="477" />
<glyph unicode=" "  horiz-adv-x="477" />
<glyph unicode="&#x09;" horiz-adv-x="477" />
<glyph unicode="&#xa0;" horiz-adv-x="477" />
<glyph unicode="!" horiz-adv-x="528" d="M123 1434l18 -1035h246l19 1035h-283zM139 0h250v254h-250v-254z" />
<glyph unicode="&#x22;" horiz-adv-x="796" d="M123 1434l12 -510h201l10 510h-223zM451 1434l12 -510h201l10 510h-223z" />
<glyph unicode="#" horiz-adv-x="1789" d="M82 369h270l-145 -369h203l147 369h385l-147 -369h204l148 369h272l72 176h-272l145 360h272l72 176h-272l141 353h-205l-141 -353h-385l141 353h-205l-141 -353h-272l-72 -176h272l-145 -360h-272zM629 545l145 360h385l-145 -360h-385z" />
<glyph unicode="$" horiz-adv-x="1372" d="M82 1094q0 -49 8 -107.5t41 -114.5q41 -68 90 -93t107 -44l274 -88v-432h-467v-215h467v-139h160v139h135q35 0 74 1t77.5 7t75.5 19.5t68 38.5q35 27 54.5 60.5t29.5 70t12 75.5t2 78q0 70 -9 128.5t-54 117.5q-51 68 -109.5 92.5t-113.5 42.5l-242 78v410h438v215h-438 v139h-160v-139h-166q-35 0 -72.5 -3.5t-75.5 -12.5t-74 -28.5t-64 -52.5q-45 -51 -56.5 -115.5t-11.5 -127.5zM360 1047q0 31 7.5 68.5t29.5 60.5q18 18 55 30.5t95 12.5h55v-359l-135 43q-14 4 -32.5 12.5t-35 24.5t-28 42t-11.5 65zM762 215v381l102 -33q90 -29 119 -81 t29 -111q0 -43 -12.5 -73t-30.5 -46q-27 -23 -76 -30t-82 -7h-49z" />
<glyph unicode="%" horiz-adv-x="1673" d="M123 1102q0 -35 2 -72t10 -72.5t23.5 -69.5t44.5 -61q49 -47 114.5 -58t122.5 -11q55 0 121 11t115 58q27 27 43 61t24.5 70.5t11.5 73.5t3 70q0 31 -3 68.5t-11.5 74.5t-25 71t-42.5 60q-49 47 -115 58.5t-121 11.5q-57 0 -122.5 -11.5t-114.5 -58.5 q-29 -27 -44.5 -61.5t-23.5 -71.5t-10 -73.5t-2 -67.5zM291 1102q0 68 9 105.5t26 58.5q23 29 54.5 36t59.5 7q27 0 57.5 -7.5t55.5 -35.5q29 -33 33 -81t4 -83t-4 -83t-33 -81q-25 -29 -55.5 -36t-57.5 -7q-29 0 -60.5 7t-53.5 36q-16 20 -25.5 58t-9.5 106zM385 0h180 l731 1434h-180zM915 332q0 -35 2.5 -72t10.5 -72.5t23.5 -69.5t43.5 -61q49 -47 115 -58t123 -11q55 0 120.5 11t114.5 58q27 27 43.5 61t24.5 70.5t11 73.5t3 70q0 31 -3 68.5t-11 74.5t-24.5 71t-43.5 60q-49 47 -114.5 58.5t-120.5 11.5q-57 0 -123 -11.5t-115 -58.5 q-29 -27 -44 -61.5t-23 -71.5t-10.5 -74t-2.5 -67zM1083 332q0 68 9.5 105.5t25.5 58.5q23 29 54.5 36t60.5 7q27 0 57.5 -7.5t55.5 -35.5q29 -33 32.5 -81t3.5 -83t-4 -83t-32 -81q-25 -29 -55.5 -36t-57.5 -7q-29 0 -60.5 7t-54.5 36q-16 20 -25.5 58t-9.5 106z" />
<glyph unicode="&#x26;" horiz-adv-x="1525" d="M123 401q0 -72 12 -149.5t70 -145.5q33 -41 71.5 -62t78.5 -31.5t78 -11.5t73 -1h477q20 0 50 1t61.5 6t62.5 16.5t53 33.5q41 41 50.5 102.5t9.5 112.5v349h215v192h-858q-14 0 -37 1t-47.5 5t-48 13.5t-41.5 25.5t-28.5 40t-17 48.5t-7.5 46t-1 33.5q0 70 14.5 107.5 t37.5 54.5q25 18 70.5 25.5t86.5 7.5h645v213h-749q-78 0 -153 -13.5t-134 -72.5q-33 -33 -51.5 -72t-27.5 -78t-11 -77t-2 -66q0 -66 13.5 -130.5t56.5 -119.5q31 -41 67.5 -60.5t77.5 -23.5v-4q-66 -10 -105.5 -40t-58.5 -54q-39 -53 -46 -113.5t-7 -108.5zM397 412v24 q0 18 2 40t7.5 43.5t13.5 35.5q10 16 41 39.5t98 23.5h447v-329q0 -16 -2.5 -32.5t-12.5 -27.5q-10 -10 -31.5 -13t-50.5 -3h-321q-35 0 -82 8t-76 45q-4 6 -18.5 38t-14.5 108z" />
<glyph unicode="'" horiz-adv-x="471" d="M123 1434l12 -510h201l12 510h-225z" />
<glyph unicode="(" horiz-adv-x="759" d="M123 326q0 -68 2 -130.5t16 -127.5q16 -74 45 -129.5t88 -110.5q51 -49 105.5 -80t106 -47t100.5 -21.5t92 -5.5v172q-115 4 -197 53.5t-121 112.5q-41 66 -47 138.5t-6 132.5v555q0 63 6 134.5t47 137.5t122 114t196 50v172q-143 -2 -244.5 -49t-159.5 -101 q-55 -51 -84.5 -107t-46.5 -122q-16 -72 -18 -138.5t-2 -131.5v-471z" />
<glyph unicode=")" horiz-adv-x="761" d="M82 -154v-172q86 -2 193.5 27t213.5 127q59 55 87 110.5t45 129.5q14 70 16 130t2 128v471q0 70 -2 133t-19 137q-18 78 -48.5 131t-80.5 98q-72 66 -178 107t-229 43v-172q113 -2 196.5 -50t122.5 -114q54 -88 54 -272v-555q0 -104 -15.5 -168t-38.5 -103 q-39 -66 -122.5 -114t-196.5 -52z" />
<glyph unicode="*" horiz-adv-x="1040" d="M82 922l78 -136l286 166v-334h148v334l287 -166l77 136l-290 168l290 167l-73 127l-291 -167v335h-148v-335l-290 167l-74 -127l291 -167z" />
<glyph unicode="+" horiz-adv-x="1185" d="M123 549h377v-377h186v377h377v174h-377v377h-186v-377h-377v-174z" />
<glyph unicode="," horiz-adv-x="569" d="M0 -129l182 -109l264 408l-196 117z" />
<glyph unicode="-" horiz-adv-x="894" d="M82 446h731v211h-731v-211z" />
<glyph unicode="." horiz-adv-x="495" d="M123 0h250v264h-250v-264z" />
<glyph unicode="/" horiz-adv-x="1038" d="M0 -340h141l897 1856h-141z" />
<glyph unicode="0" horiz-adv-x="1318" d="M82 518q0 -45 5 -107.5t22.5 -127t51.5 -124t93 -100.5q43 -31 97.5 -45t109.5 -19t106 -5h92h91q53 0 108 5t109.5 19.5t97.5 44.5q31 20 61.5 56.5t55 91.5t40 132t15.5 179v412q0 88 -14.5 154.5t-36 116.5t-48 84t-51.5 56q-43 37 -93 58.5t-105 33t-113.5 13.5 t-116.5 2q-59 0 -116.5 -2t-112.5 -13.5t-105.5 -33t-93.5 -58.5q-25 -23 -51 -56.5t-47.5 -83.5t-36 -116.5t-14.5 -154.5v-412zM352 549v369q0 25 2 58.5t11.5 68t28 68.5t50.5 61q41 35 104.5 47t110.5 12t111 -12.5t104 -46.5q33 -27 51.5 -61t28 -68.5t11.5 -68.5 t2 -58v-369q0 -63 -9.5 -141t-52.5 -129q-25 -29 -55.5 -43.5t-63 -21.5t-65.5 -8t-62 -1t-61.5 1t-66 8t-64.5 21.5t-55 43.5q-33 39 -46.5 104.5t-13.5 165.5z" />
<glyph unicode="1" horiz-adv-x="618" d="M0 1219h158q16 0 29.5 -3.5t23.5 -19.5q10 -14 12 -35.5t2 -40.5v-1120h271v1253q0 33 -8.5 72t-45.5 70q-49 39 -133 39h-309v-215z" />
<glyph unicode="2" horiz-adv-x="1284" d="M82 172q0 -63 19.5 -98t46 -51.5t51 -19.5t34.5 -3h908v215h-713q-10 0 -13 4t-3 8q0 8 9 14.5t13 10.5l578 401q33 23 64.5 48.5t60.5 66.5q47 70 56 147.5t9 137.5q0 80 -13 158.5t-73 138.5q-29 29 -60.5 45t-63 25.5t-62.5 11.5t-56 2h-696v-215h572q106 0 145 -50 q16 -23 22.5 -58.5t6.5 -88.5q0 -61 -13.5 -112.5t-76.5 -94.5l-664 -455q-33 -23 -60.5 -62.5t-27.5 -125.5z" />
<glyph unicode="3" horiz-adv-x="1267" d="M82 0h766q63 0 125.5 14.5t118.5 69.5q63 63 78.5 142t15.5 169q0 29 -2 64t-9.5 70.5t-23.5 69.5t-45 63q-27 25 -67 43t-89 20v6q53 4 90 27.5t58 46.5q47 53 57 120.5t10 131.5q0 57 -10 133t-57 137q-31 39 -66 60.5t-71.5 32t-71.5 12.5t-64 2h-719v-215h613 q31 0 65.5 -7.5t63.5 -35.5q27 -29 33 -69t6 -79q0 -37 -6.5 -79t-32.5 -70q-31 -35 -75 -41.5t-77 -6.5h-577v-215h594q20 0 61 -5t74 -29q43 -33 51 -78t8 -94q0 -47 -9 -94.5t-54 -75.5q-29 -18 -74 -21.5t-113 -3.5h-575v-215z" />
<glyph unicode="4" horiz-adv-x="1419" d="M41 440q0 -61 15.5 -98t33.5 -57q33 -33 65.5 -38t61.5 -5h688v-242h271v242h182v215h-182v837q0 27 -3.5 54.5t-31.5 56.5q-29 29 -64 37t-65 8q-35 0 -91.5 -13.5t-107.5 -68.5l-692 -741q-53 -57 -66.5 -101.5t-13.5 -85.5zM299 481q0 8 8 17.5t17 17.5l548 608 q12 14 16.5 17.5t8.5 3.5q8 0 8 -8v-680h-569q-25 0 -31 9t-6 15z" />
<glyph unicode="5" horiz-adv-x="1265" d="M82 887q0 -18 2 -46t9 -58.5t23.5 -60.5t47.5 -50q20 -16 48 -24.5t55.5 -11.5t54 -4t47.5 -1h381q57 0 85.5 -18.5t38.5 -34.5q20 -29 25.5 -72t5.5 -72q0 -41 -7 -87t-24 -71q-29 -43 -71.5 -52t-73.5 -9h-639v-215h723q29 0 62.5 1t70.5 9t73 24.5t66 47.5 q33 33 53.5 76t30 90t12.5 97t3 99q0 74 -10.5 150t-63.5 143q-53 68 -115.5 88.5t-128.5 20.5h-395q-23 0 -51.5 5t-44.5 21q-16 18 -19.5 45t-3.5 50v178q0 12 1 28.5t12 26.5q8 10 23 14.5t32 4.5h717v215h-865q-10 0 -27.5 -1t-38 -6.5t-41 -15.5t-38.5 -29 q-16 -16 -30.5 -47.5t-14.5 -85.5v-362z" />
<glyph unicode="6" horiz-adv-x="1308" d="M123 395q0 -98 24.5 -183t102.5 -142q41 -31 101.5 -50.5t133.5 -19.5h359q43 0 88 6t88 21.5t81 44t64 75.5q20 37 32.5 81t19 89t8.5 84t2 64q0 35 -3 79t-13.5 89t-34 89t-62.5 79q-61 55 -130 66.5t-130 11.5h-461v153q0 20 6.5 62.5t40.5 76.5q35 35 80 41.5t74 6.5 h561v215h-657q-49 0 -120 -12.5t-130 -59.5q-18 -16 -41 -41t-41.5 -61.5t-30.5 -86t-12 -112.5v-666zM393 408v256h338q41 0 87 -8.5t81 -45.5q35 -35 42 -79t7 -82q0 -37 -6 -88.5t-41 -90.5t-77 -47t-70 -8h-174q-66 0 -98.5 14.5t-49.5 30.5q-14 14 -21.5 35.5t-11.5 42 t-5 39t-1 31.5z" />
<glyph unicode="7" horiz-adv-x="1101" d="M-20 1219h804q12 0 27.5 -3.5t15.5 -23.5q0 -10 -4 -20.5t-18 -32.5l-739 -1139h301l706 1118q25 39 37 77t12 89q0 27 -5 54.5t-22.5 48t-48 34t-81.5 13.5h-985v-215z" />
<glyph unicode="8" horiz-adv-x="1296" d="M82 379q0 -68 10 -131.5t53 -122.5q35 -47 77 -71.5t87 -37t92.5 -14.5t92.5 -2h309q45 0 92 2t92 14.5t87 37t77 71.5q47 59 55 120.5t8 133.5q0 33 -2 70.5t-10 76.5t-25.5 75t-48.5 65q-25 23 -63.5 39t-79.5 22v4q68 8 119 64q57 59 67.5 122.5t10.5 120.5 q0 29 -2 70t-11.5 84t-29 85t-56.5 75q-31 29 -70.5 45t-83.5 24.5t-89 10.5t-86 2h-213q-29 0 -72 -2t-89 -9.5t-91 -24t-78 -46.5q-35 -31 -54.5 -74t-28.5 -87t-11 -85t-2 -68q0 -57 10 -120.5t68 -122.5q51 -55 118 -64v-4q-35 -4 -74.5 -19.5t-68.5 -41.5 q-31 -29 -48.5 -65t-25.5 -75t-10 -76.5t-2 -70.5zM360 422q0 29 9.5 78t50.5 84q31 25 69.5 29.5t59.5 4.5h199q20 0 59 -5t70 -29q41 -35 50 -84t9 -78t-6 -77t-31 -77q-16 -18 -50 -35.5t-93 -17.5h-215q-59 0 -93 17.5t-51 35.5q-25 29 -31 77t-6 77zM393 1024 q0 33 6.5 80t44.5 80q31 27 67 31t71 4h131q35 0 72.5 -4.5t66.5 -30.5q35 -31 43 -80t8 -80q0 -96 -29 -137t-67.5 -47t-71.5 -6h-174q-29 0 -70.5 6t-70.5 47q-27 39 -27 137z" />
<glyph unicode="9" horiz-adv-x="1263" d="M82 995q0 -90 12 -176t72 -155q31 -37 66.5 -58.5t70.5 -32t64.5 -13.5t48.5 -3h495v-121q0 -35 -7 -87t-42 -87t-80 -41t-80 -6h-555v-215h646q33 0 77.5 3t92 19.5t92.5 52.5t78 101q33 66 41 141.5t8 153.5v578q0 53 -11.5 119.5t-52.5 125.5q-33 49 -76 77t-90 41 t-95 17.5t-89 4.5h-289q-68 0 -146.5 -14.5t-142.5 -71.5q-39 -37 -60 -82t-32.5 -93.5t-13.5 -94.5t-2 -83zM360 989q0 76 17.5 118t40.5 62q20 20 54 35t89 15h166q53 0 87 -15.5t52 -34.5q33 -33 39 -74.5t6 -66.5v-256h-331q-14 0 -36 1t-45.5 6t-46 13.5t-38.5 22.5 q-29 29 -41.5 78t-12.5 96z" />
<glyph unicode=":" horiz-adv-x="495" d="M123 0h250v258h-250v-258zM123 827h250v258h-250v-258z" />
<glyph unicode=";" horiz-adv-x="579" d="M0 -129l182 -109l264 408l-196 117zM207 827h250v258h-250v-258z" />
<glyph unicode="&#x3c;" horiz-adv-x="1189" d="M123 827l944 -475v189l-608 286l608 287v189z" />
<glyph unicode="=" horiz-adv-x="1187" d="M123 403h942v175h-942v-175zM123 713h942v174h-942v-174z" />
<glyph unicode="&#x3e;" horiz-adv-x="1189" d="M123 352l944 475l-944 476v-189l608 -287l-608 -286v-189z" />
<glyph unicode="?" horiz-adv-x="991" d="M41 1219h416q35 0 69.5 -3.5t69.5 -35.5q31 -31 37 -68t6 -74q0 -47 -8 -77.5t-23.5 -52t-36 -37t-47.5 -29.5l-133 -80q-31 -18 -61.5 -44t-53.5 -54q-25 -35 -32.5 -70t-7.5 -76v-119h249v113q0 18 3.5 37.5t17.5 38.5q10 12 30.5 30.5t38.5 28.5l158 96q61 37 96 77 t52.5 83t22.5 87t5 91q0 59 -12 133t-59 129q-29 33 -65 51.5t-70.5 27t-67.5 10.5t-55 2h-539v-215zM236 0h249v254h-249v-254z" />
<glyph unicode="@" horiz-adv-x="2080" d="M123 573q0 -123 5 -230t20.5 -200.5t42 -170t71.5 -138.5q59 -82 134 -128t148.5 -69.5t139.5 -28.5t109 -5h653v172h-621q-119 0 -200.5 24.5t-135 64.5t-84 91t-49.5 104q-16 51 -26.5 118t-15.5 134.5t-6 126t-1 94.5q0 121 4 204t11.5 138.5t15.5 88t18 55.5 q35 84 93.5 133t128 74.5t143.5 33t139 7.5h412q47 0 104.5 -4.5t115.5 -20.5t111.5 -52t92.5 -99q12 -20 26.5 -54.5t24.5 -86.5t17.5 -126.5t7.5 -177.5q0 -94 -2.5 -157.5t-6.5 -106.5t-10 -69.5t-14 -47.5q-39 -98 -125 -98q-20 0 -48 7t-52.5 28.5t-42 62.5t-17.5 111 v510q0 33 -3 67.5t-36 69.5q-33 33 -70.5 39t-74.5 6h-297q-141 0 -233.5 -58.5t-137.5 -144.5q-23 -45 -41 -122.5t-18 -219.5q0 -131 17.5 -215t47.5 -137q35 -59 82 -94t97.5 -53.5t97.5 -23.5t84 -5q39 0 88 5t100 25.5t99.5 57.5t82.5 102q12 -49 40 -86t67 -59.5 t83 -33.5t89 -11q106 0 171.5 45t104.5 125q43 88 53.5 202.5t10.5 258.5q0 72 -2 142.5t-11.5 139t-30 134t-56.5 126.5q-59 98 -139.5 152.5t-163 81t-160.5 32t-131 5.5h-398q-78 0 -158.5 -6.5t-159.5 -29t-151.5 -67.5t-134.5 -123q-49 -63 -76.5 -132.5t-42 -147.5 t-17.5 -167t-3 -192zM748 526q0 74 12 150t65 131q25 25 51.5 39t52 21t48 9.5t39.5 2.5h153q16 0 36 -5.5t32 -17.5q18 -18 18 -51v-293q0 -49 -12 -114.5t-59 -121.5q-31 -35 -82 -63.5t-129 -28.5q-59 0 -107.5 20.5t-81.5 82.5q-27 49 -31.5 111.5t-4.5 127.5z" />
<glyph unicode="A" horiz-adv-x="1429" d="M-61 0h284l146 362h690l147 -362h285l-541 1288q-39 90 -91 126t-144 36q-96 0 -146.5 -36t-89.5 -126zM438 555l236 584q6 16 16 37.5t25 21.5q14 0 24.5 -21.5t16.5 -37.5l233 -584h-551z" />
<glyph unicode="B" horiz-adv-x="1478" d="M123 203q0 -61 19.5 -97t29.5 -49q43 -49 92 -53t103 -4h686q33 0 66.5 1t66.5 10t65.5 27.5t63.5 53.5q61 70 71.5 150t10.5 151q0 31 -1 63.5t-7.5 66.5t-20.5 66t-39 60q-27 29 -66.5 50.5t-91.5 25.5v8q41 4 73 20.5t63 53.5q47 57 57 115.5t10 117.5q0 35 -3 76 t-12 82t-26.5 80t-48.5 70q-29 29 -61.5 46t-67.5 26.5t-68.5 11.5t-62.5 2h-705q-35 0 -76.5 -10.5t-74.5 -49.5q-23 -29 -34 -67.5t-11 -79.5v-1024zM393 322v294h549q66 0 99.5 -21.5t45.5 -37.5q20 -29 25.5 -72t5.5 -73q0 -35 -7 -76t-30 -70q-31 -37 -78 -44t-79 -7 h-426q-16 0 -44 2t-44 21q-8 10 -12.5 29.5t-4.5 54.5zM393 831v308q0 12 3 30.5t16 32.5q12 14 28.5 15.5t32.5 1.5h442q35 0 70 -4.5t64 -32.5q35 -33 41 -79t6 -75q0 -74 -11.5 -104.5t-19.5 -40.5q-29 -39 -68 -45.5t-79 -6.5h-525z" />
<glyph unicode="C" d="M82 696q0 -59 4 -127.5t18.5 -138.5t43 -137.5t79.5 -124.5q49 -55 107.5 -89t119 -51.5t120 -22.5t110.5 -5h604v215h-485q-127 0 -223.5 26.5t-151.5 110.5q-10 16 -22.5 43t-22.5 68t-16.5 99.5t-6.5 137.5q0 160 24 249t56 136q31 45 71 72t88 41t103.5 17.5 t114.5 3.5h449v215h-576q-39 0 -96 -4.5t-122.5 -22.5t-131.5 -54t-119 -100q-45 -53 -72.5 -117.5t-42 -137t-19.5 -149.5t-5 -153z" />
<glyph unicode="D" horiz-adv-x="1533" d="M123 182q0 -59 19.5 -93t39.5 -50q8 -6 44 -22.5t116 -16.5h582q84 0 149.5 16.5t114.5 43t82 57t55 59.5q43 57 68.5 130t39 148.5t16.5 147.5t3 131q0 63 -3 133t-17.5 139.5t-44 135t-80.5 123.5q-66 72 -168.5 121t-251.5 49h-561q-66 0 -102 -22.5t-52 -39.5 q-35 -41 -42 -84t-7 -84v-1022zM393 313v820q0 23 8.5 42t20.5 29q14 10 32.5 12.5t30.5 2.5h281q37 0 78 -4.5t82 -15.5t78.5 -31.5t68.5 -53.5q33 -35 53.5 -79t30.5 -91t13.5 -96t3.5 -94q0 -182 -23 -273.5t-49 -132.5q-47 -76 -122 -104.5t-187 -28.5h-312 q-18 0 -36.5 2t-32.5 19q-16 16 -17.5 35.5t-1.5 41.5z" />
<glyph unicode="E" horiz-adv-x="1333" d="M123 213q0 -41 8 -87t45 -81q35 -35 76 -40t88 -5h932v215h-766q-33 0 -56.5 3t-35.5 15q-20 16 -21 56v336h850v215h-850v288q0 16 3 35t20 35q16 14 35.5 17.5t37.5 3.5h775v215h-920q-41 0 -89 -8.5t-83 -47.5q-23 -27 -36 -66.5t-13 -82.5v-1016z" />
<glyph unicode="F" horiz-adv-x="1271" d="M123 0h270v618h635v216h-635v311q0 14 2 29.5t15 27.5q12 14 24 15.5t27 1.5h803v215h-934q-37 0 -77 -8.5t-77 -43.5q-33 -31 -43 -66.5t-10 -70.5v-1245z" />
<glyph unicode="G" horiz-adv-x="1488" d="M82 709q0 -76 5 -158t23.5 -161t56.5 -150.5t103 -126.5q49 -41 131 -77t203 -36h610q31 0 71 10t69 33q20 16 36.5 51t16.5 90v518h-270v-391q0 -16 -3.5 -36.5t-19.5 -36.5t-34.5 -19.5t-37.5 -3.5h-350q-86 0 -157.5 29.5t-116.5 120.5q-8 16 -18.5 43.5t-18.5 70.5 t-14.5 101.5t-6.5 136.5t6.5 135t14.5 98t18.5 69t20.5 44q41 76 121 116t196 40h637v215h-712q-211 0 -347 -88q-80 -51 -126 -124t-69.5 -158t-30.5 -176t-7 -179z" />
<glyph unicode="H" horiz-adv-x="1531" d="M123 0h270v631h746v-631h270v1434h-270v-588h-746v588h-270v-1434z" />
<glyph unicode="I" horiz-adv-x="516" d="M123 0h270v1434h-270v-1434z" />
<glyph unicode="J" horiz-adv-x="911" d="M-41 0h367q66 0 119 12.5t95 31.5t73.5 44t54.5 47q16 16 37.5 45t40 73t30.5 105.5t12 143.5v932h-270v-861q0 -92 -16.5 -163.5t-75.5 -122.5q-53 -47 -119.5 -59.5t-111.5 -12.5h-236v-215z" />
<glyph unicode="K" horiz-adv-x="1433" d="M123 0h270v1434h-270v-1434zM473 737q0 -37 18.5 -87t71.5 -99l590 -551h342l-678 604q-29 27 -56.5 57.5t-27.5 77.5q0 37 21.5 60.5t46.5 46.5l618 588h-334l-542 -537q-29 -29 -49.5 -74t-20.5 -86z" />
<glyph unicode="L" horiz-adv-x="1224" d="M123 156q0 -47 17.5 -76t33.5 -43q25 -20 61.5 -28.5t71.5 -8.5h959v215h-787q-33 0 -47 6t-20 10q-16 14 -17.5 32t-1.5 30v1141h-270v-1278z" />
<glyph unicode="M" horiz-adv-x="2031" d="M123 0h270l-6 1116q0 4 3 23.5t20 19.5q10 0 20 -17.5t14 -29.5l367 -956q12 -35 26.5 -66t37 -54.5t56.5 -37.5t85 -14q47 0 79.5 11t55.5 33.5t38 54.5t32 73l366 956q4 12 14.5 29.5t20.5 17.5q6 0 15.5 -7t9.5 -36l-9 -1116h271v1262q0 98 -65.5 143t-166.5 45 q-39 0 -73.5 -6t-67.5 -25.5t-60.5 -55.5t-50.5 -97l-370 -957q-10 -23 -19.5 -38t-19.5 -15t-19.5 15.5t-19.5 37.5l-371 957q-14 37 -32.5 70.5t-46 59t-69.5 40t-104 14.5q-16 0 -54 -3t-77 -21.5t-69.5 -56.5t-30.5 -107v-1262z" />
<glyph unicode="N" horiz-adv-x="1617" d="M123 0h262v1053q0 23 10.5 32t18.5 9q4 0 10 -6.5t22 -28.5l605 -955q47 -76 106.5 -98t124.5 -22q88 0 150.5 47t62.5 155v1248h-262v-1057q0 -8 -3 -21.5t-20 -13.5q-14 0 -19 12.5t-13 22.5l-609 960q-29 47 -80 80t-147 33q-102 0 -160.5 -51t-58.5 -144v-1255z" />
<glyph unicode="O" horiz-adv-x="1636" d="M82 717q0 -61 3 -137t18.5 -155t49 -154.5t95.5 -135.5q59 -57 132 -88t149.5 -45t151.5 -16t138 -2q61 0 137 2t153 16t149.5 45t132.5 88q55 53 87.5 125t49 149.5t21.5 156.5t5 151q0 70 -4 149.5t-21.5 157.5t-50 149.5t-87.5 124.5q-59 57 -132 88t-150 45.5 t-152 16.5t-138 2q-66 0 -140.5 -2t-150 -16.5t-148.5 -45t-132 -88.5q-59 -55 -92 -125.5t-49.5 -147.5t-20.5 -155.5t-4 -152.5zM360 717q0 166 24 257t65 144q63 78 159.5 97.5t208.5 19.5q111 0 209 -19.5t162 -97.5q16 -20 32.5 -51t29 -78t19.5 -113.5t7 -158.5 q0 -86 -7 -151.5t-19.5 -112.5t-28 -80t-33.5 -56q-33 -41 -74 -64.5t-89 -35.5t-100.5 -15t-107.5 -3t-108.5 3t-100.5 15t-88 35.5t-71 64.5q-18 23 -34 54.5t-28 80t-19.5 113t-7.5 152.5z" />
<glyph unicode="P" horiz-adv-x="1490" d="M123 0h270v508h672q63 0 120.5 18.5t98.5 51.5q43 35 67.5 84t37 103t16.5 108.5t4 97.5q0 45 -3 96t-14.5 102.5t-33 97.5t-58.5 81q-33 33 -70.5 50t-75.5 25.5t-74 9.5t-64 1h-682q-37 0 -82 -10.5t-80 -45.5q-37 -37 -43 -77.5t-6 -81.5v-1219zM393 723v410 q0 18 2 35.5t17 31.5q16 16 32.5 17.5t30.5 1.5h436q35 0 84 -7.5t84 -42.5t43 -92t8 -104q0 -20 -1 -47t-6 -53.5t-14 -52t-26 -44.5q-35 -41 -83 -47t-93 -6h-514z" />
<glyph unicode="Q" horiz-adv-x="1650" d="M82 713q0 -59 2 -133t18.5 -152t50 -153.5t99.5 -139.5q45 -43 98 -69.5t122 -41t154 -19.5t193 -5h783v223l-205 -8v8q37 35 60.5 69t37.5 62q43 90 51 192.5t8 184.5q0 117 -10 205t-30.5 155.5t-51 116.5t-71.5 90q-47 45 -102.5 74t-124 46.5t-155 24.5t-190.5 7 q-209 0 -345 -32t-226 -120q-59 -57 -92 -126.5t-49.5 -145.5t-20.5 -155.5t-4 -157.5zM360 719q0 92 8.5 157.5t20.5 111.5t27.5 77t32.5 51q33 41 72.5 64.5t86.5 36t100.5 15.5t108.5 3q57 0 110.5 -3t100.5 -15.5t87 -36t73 -64.5q41 -53 64.5 -143t23.5 -254 q0 -94 -9.5 -162t-22.5 -114t-28.5 -73.5t-27.5 -43.5q-31 -39 -72 -61.5t-88 -33t-100.5 -13.5t-110.5 -3q-55 0 -108.5 3t-100.5 13.5t-87 33t-72 61.5q-16 18 -32 47.5t-28 76t-20.5 112t-8.5 157.5z" />
<glyph unicode="R" horiz-adv-x="1503" d="M123 0h270v1116q0 23 3 42.5t26 37.5q16 16 32.5 19.5t39.5 3.5h438q33 0 76 -5.5t75 -37.5q23 -23 37.5 -68t14.5 -131q0 -18 -1 -45t-4.5 -54.5t-10.5 -54t-17 -43.5q-29 -43 -71 -53t-77 -10h-270q-59 0 -90 -27.5t-31 -71.5v-32q0 -31 22.5 -65t45.5 -56l471 -465 h340l-545 506v10h184q61 0 106.5 13.5t77 35t52 47t35.5 52.5q43 80 52 162.5t9 160.5t-10 160t-62 156q-31 47 -68.5 73.5t-78.5 38.5t-82 15.5t-78 3.5h-680q-41 0 -87 -10.5t-85 -47.5q-43 -41 -51 -91t-8 -95v-1190z" />
<glyph unicode="S" d="M61 1087q0 -31 2.5 -65.5t10.5 -70.5t22.5 -70.5t38.5 -63.5q20 -27 47 -45t51.5 -31.5t44 -20.5t27.5 -9l565 -179q47 -14 75 -33.5t42 -41t18.5 -44t4.5 -42.5q0 -18 -3 -45t-16.5 -51.5t-40 -42t-76.5 -17.5h-794v-215h881q72 0 137 16.5t119 85.5q45 57 58 128 t13 139q0 25 -3 59.5t-12 72.5t-27.5 75.5t-51.5 68.5t-83 55.5t-122 47.5l-524 165q-86 29 -109.5 72t-23.5 90q0 20 5 53t32 58q25 23 54.5 28t57.5 5h733v215h-825q-53 0 -116.5 -13.5t-118.5 -66.5q-61 -57 -77 -129t-16 -138z" />
<glyph unicode="T" d="M-20 1219h559v-1219h270v1219h561v215h-1390v-215z" />
<glyph unicode="U" horiz-adv-x="1490" d="M123 504q0 -92 21.5 -187.5t103.5 -179.5q53 -55 119.5 -86t134 -46t131 -18t112.5 -3t113 3t131.5 18t134 46t119.5 86q82 84 103.5 179.5t21.5 187.5v930h-270v-893q0 -27 -1 -59.5t-8.5 -65.5t-20.5 -66t-38 -59q-29 -31 -65.5 -49.5t-75.5 -27.5t-77 -12t-67 -3 q-31 0 -68.5 3t-75.5 12t-73.5 27.5t-64.5 49.5q-51 55 -60.5 122.5t-9.5 127.5v893h-270v-930z" />
<glyph unicode="V" horiz-adv-x="1380" d="M-61 1434l520 -1295q20 -53 50 -83.5t62.5 -47t63.5 -20.5t55 -4q55 0 94 14t67 37.5t44 51.5t27 52l520 1295h-293l-428 -1158q-4 -8 -10 -19t-21 -11q-14 0 -20 11t-11 19l-428 1158h-292z" />
<glyph unicode="W" horiz-adv-x="2050" d="M-61 1434l344 -1250q33 -119 90 -159.5t143 -40.5q63 0 103 17t65 45t38 59.5t21 62.5l254 928q4 10 9.5 24.5t17.5 14.5q18 0 29 -39l252 -928q10 -37 25.5 -69.5t41 -58.5t64.5 -41t98 -15q63 0 103 18t66 47t39 65t23 70l346 1250h-274l-285 -1104q-6 -27 -16 -35 t-16 -8q-10 0 -18.5 12t-12.5 23l-266 981q-6 25 -18.5 50t-35 46.5t-57.5 36t-88 14.5q-57 0 -93 -15.5t-57.5 -38t-32 -48t-16.5 -45.5l-266 -981q-4 -10 -12 -22.5t-19 -12.5q-16 0 -21 16t-9 27l-285 1104h-274z" />
<glyph unicode="X" horiz-adv-x="1286" d="M-61 0h321l383 537l383 -537h322l-551 727l534 707h-321l-367 -516l-367 516h-321l534 -707z" />
<glyph unicode="Y" horiz-adv-x="1359" d="M-61 1434l606 -996v-438h270v438l606 996h-291l-450 -752l-451 752h-290z" />
<glyph unicode="Z" horiz-adv-x="1255" d="M4 147q0 -53 21.5 -82.5t52.5 -44t64.5 -17.5t58.5 -3h1028v215h-848q-10 0 -17.5 4t-7.5 19q0 12 6.5 20t14.5 16l792 836q31 33 56.5 70t25.5 106q0 43 -14 71.5t-36.5 46t-51.5 24t-59 6.5h-1031v-215h801q25 0 32 -10.5t7 -16.5q0 -10 -7 -21.5t-18 -21.5l-782 -809 q-31 -33 -59.5 -80t-28.5 -113z" />
<glyph unicode="[" horiz-adv-x="757" d="M123 -326h553v172h-369v1428h369v172h-553v-1772z" />
<glyph unicode="\" horiz-adv-x="1038" d="M0 1516l897 -1856h141l-897 1856h-141z" />
<glyph unicode="]" horiz-adv-x="761" d="M82 -154v-172h557v1772h-557v-172h373v-1428h-373z" />
<glyph unicode="^" horiz-adv-x="1208" d="M123 1206l121 -139l305 297q10 10 24.5 19.5t32.5 9.5t32.5 -9.5t25.5 -19.5l303 -297l118 139l-370 346q-23 23 -49.5 35t-61.5 12t-61.5 -12t-48.5 -35z" />
<glyph unicode="_" horiz-adv-x="1171" d="M82 0h1008v211h-1008v-211z" />
<glyph unicode="`" horiz-adv-x="616" d="M82 1417l332 -270l121 151l-330 273z" />
<glyph unicode="a" horiz-adv-x="1136" d="M53 348q0 -31 2 -69.5t11.5 -79.5t29 -79t51.5 -67q47 -41 99.5 -47t97.5 -6h518q39 0 80 7t70 36t36 70t7 69v563q0 92 -22.5 157t-57.5 99q-37 39 -96.5 61.5t-128.5 22.5h-617v-184h535q29 0 60.5 -8t55.5 -39q20 -25 25.5 -51.5t5.5 -50.5v-76h-471q-43 0 -95 -9.5 t-104 -54.5q-61 -53 -76.5 -122.5t-15.5 -141.5zM301 338q0 59 10.5 83.5t16.5 33.5q20 27 47.5 32t40.5 5h399v-250q0 -12 -2 -23.5t-14 -21.5t-27.5 -11.5t-26.5 -1.5h-333q-23 0 -44.5 10.5t-33.5 22.5q-23 23 -28 59.5t-5 61.5z" />
<glyph unicode="b" horiz-adv-x="1142" d="M82 182q0 -33 8 -68.5t41 -66.5q37 -35 81 -41t91 -6h342q47 0 99.5 6t102.5 25.5t95 54.5t78 92q33 55 51.5 140t18.5 219q0 104 -13.5 199t-58.5 171q-35 59 -80 94t-95 53.5t-102.5 24.5t-101.5 6h-317v349h-240v-1252zM322 274v627h264q27 0 58.5 -4t61 -17.5t55 -37 t44.5 -60.5q6 -12 21.5 -69.5t15.5 -186.5q0 -109 -13.5 -159t-23.5 -72q-20 -41 -50 -62.5t-60.5 -33t-61.5 -13.5t-55 -2h-175q-18 0 -35.5 3t-29.5 16q-14 16 -15 35.5t-1 35.5z" />
<glyph unicode="c" horiz-adv-x="1050" d="M53 528q0 -117 15.5 -216t83.5 -179q37 -43 80.5 -69.5t86.5 -41t84 -18.5t72 -4h522v184h-389q-37 0 -76.5 3t-76.5 15.5t-68 35t-51 61.5q-10 20 -17.5 50t-11.5 60.5t-5 60.5t-1 54q0 12 1 38t2 55.5t5 59.5t10 52q20 70 83 121t184 51h387v184h-465q-74 0 -128 -12 t-94 -29.5t-66.5 -38t-43.5 -36.5q-45 -47 -69.5 -103.5t-37 -115t-14.5 -115.5t-2 -107z" />
<glyph unicode="d" horiz-adv-x="1144" d="M53 559q0 -135 16.5 -216t36.5 -128q31 -72 73 -114t89 -64.5t95.5 -29.5t89.5 -7h428q37 0 78.5 8t70.5 47q16 23 24.5 62t8.5 73v1244h-240v-349h-321q-33 0 -79 -4t-96.5 -19t-100.5 -48t-89 -90q-55 -80 -69.5 -179.5t-14.5 -185.5zM301 551q0 111 14.5 168t32.5 86 q39 63 96.5 79.5t104.5 16.5h274v-625q0 -12 -2 -37.5t-16 -37.5q-12 -12 -33.5 -14.5t-30.5 -2.5h-192q-27 0 -57.5 4.5t-60.5 16.5t-56.5 36.5t-44.5 65.5q-6 14 -17.5 65.5t-11.5 178.5z" />
<glyph unicode="e" horiz-adv-x="1153" d="M53 532q0 -109 12.5 -213t65.5 -182q33 -47 74 -74.5t84 -42t88 -17.5t86 -3h602v184h-530q-33 0 -67 4.5t-64.5 17.5t-53 38.5t-35.5 68.5q-6 25 -10 70t-4 80h631q33 0 62.5 8t54.5 33q35 35 43 79t8 85q0 51 -6.5 101t-23.5 96t-47 85t-77 70q-76 47 -169 58.5 t-189 11.5q-39 0 -90.5 -2.5t-106.5 -11.5t-109.5 -29.5t-99.5 -59.5t-70.5 -86t-39 -103.5t-16.5 -123t-3 -142.5zM301 647q2 53 7 99.5t42 87.5q25 27 54.5 42t60.5 21t59.5 7t53.5 1q51 0 105 -7t99 -42q27 -20 48.5 -57t21.5 -88q0 -23 -9 -43.5t-44 -20.5h-498z" />
<glyph unicode="f" horiz-adv-x="720" d="M16 901h152v-901h240v901h297v184h-297v12q0 57 18 90q20 36 43 52q33 23 88 28t148 5v176q-23 1 -49.5 1t-55.5 -1q-57 -2 -115.5 -11.5t-112 -28.5t-91.5 -50q-35 -29 -56.5 -65t-34 -73.5t-17.5 -73.5t-5 -63h-152v-182z" />
<glyph unicode="g" horiz-adv-x="1173" d="M53 559q0 -289 84 -420q31 -49 71 -76.5t83 -41t87 -17.5t87 -4h385q-10 -78 -64 -125q-43 -35 -102 -42t-98 -7h-457v-184h512q29 0 75 4t97 17t102.5 39t88.5 71q53 66 70.5 155.5t17.5 194.5v762q0 35 -11.5 79t-52.5 78q-39 31 -84 37t-92 6h-350q-41 0 -84 -3 t-86 -14t-84 -34.5t-80 -66.5q-72 -78 -93.5 -178.5t-21.5 -229.5zM301 541q0 18 1 56t7 81t19.5 85t38.5 71q29 33 78 50t108 17h205q16 0 31.5 -3t31.5 -13q20 -14 25.5 -30.5t5.5 -39.5v-631h-285q-53 0 -108.5 8.5t-96.5 55.5q-10 10 -20 30.5t-19.5 54.5t-15.5 84 t-6 124z" />
<glyph unicode="h" horiz-adv-x="1150" d="M82 0h240v901h280q35 0 84 -9t90 -54q18 -20 28.5 -46t16.5 -51.5t7 -49t1 -40.5v-651h240v715q0 113 -36 184.5t-81 108.5q-59 47 -136 62t-169 15h-325v349h-240v-1434z" />
<glyph unicode="i" horiz-adv-x="403" d="M82 0h240v1085h-240v-1085zM82 1243h240v191h-240v-191z" />
<glyph unicode="j" horiz-adv-x="563" d="M-82 -180v-185q36 -1 70 -1q108 0 186 14q102 20 168 67q18 14 42 38t45.5 60.5t36.5 89t15 124.5v1058h-239v-1009q0 -88 -21.5 -134t-62.5 -75q-41 -31 -92 -40q-41 -7 -114 -7h-34zM242 1243h239v191h-239v-191z" />
<glyph unicode="k" horiz-adv-x="1099" d="M82 0h240v1434h-240v-1434zM393 561q0 -57 25.5 -98t48.5 -66l375 -397h286l-444 469q-20 23 -35.5 48.5t-15.5 51.5q0 27 10 44.5t25 33.5l407 438h-278l-328 -360q-23 -27 -49.5 -64.5t-26.5 -99.5z" />
<glyph unicode="l" horiz-adv-x="403" d="M82 0h240v1434h-240v-1434z" />
<glyph unicode="m" horiz-adv-x="1710" d="M82 0h240v827q0 31 3 42.5t7 15.5t15 10t38 6h350v-901h240v901h223q33 0 74 -8t71 -43q29 -33 37.5 -76t8.5 -78v-696h239v733q0 82 -25.5 151.5t-72.5 114.5q-59 53 -138 69.5t-139 16.5h-977q-37 0 -85 -11t-78 -54q-20 -29 -25.5 -64.5t-5.5 -58.5v-897z" />
<glyph unicode="n" horiz-adv-x="1157" d="M82 0h240v844q0 10 1 22.5t11 22.5t20.5 11t20.5 1h243q66 0 106 -15.5t67 -49.5q29 -39 37 -89.5t8 -103.5v-643h239v715q0 113 -31.5 178t-74.5 104q-66 59 -141.5 73.5t-161.5 14.5h-383q-35 0 -83 -5t-83 -44q-25 -27 -30 -59.5t-5 -56.5v-920z" />
<glyph unicode="o" horiz-adv-x="1261" d="M53 539q0 -41 4 -97.5t17.5 -117t41 -117.5t77.5 -103q45 -41 100 -64.5t114.5 -34.5t117 -14t106.5 -3q47 0 104.5 3t117.5 14t116.5 34.5t99.5 64.5q59 57 99 163t40 280q0 43 -4 100.5t-18.5 116.5t-42 117.5t-74.5 101.5q-45 41 -100.5 64.5t-114.5 35t-116.5 13.5 t-106.5 2t-106.5 -2t-117 -13.5t-114.5 -35t-100 -64.5q-47 -43 -75 -101.5t-42.5 -119t-18.5 -119.5t-4 -104zM301 541q0 27 1 63.5t7 76.5t20.5 79t39.5 67q25 29 58.5 46.5t68 26.5t70.5 11t65 2q33 0 67.5 -2t68.5 -11t65.5 -26.5t58.5 -46.5q29 -31 43 -68.5 t20.5 -76.5t6.5 -76v-65q0 -72 -9.5 -145.5t-62.5 -133.5q-53 -59 -122 -74.5t-136 -15.5q-66 0 -136.5 15.5t-123.5 74.5q-51 59 -60.5 135t-9.5 144z" />
<glyph unicode="p" horiz-adv-x="1144" d="M82 -348h240v348h303q41 0 91 3t102 18.5t100.5 47t87.5 87.5q29 41 46 90t26 102t11.5 108.5t2.5 108.5q0 45 -2.5 97.5t-13.5 105.5t-34.5 104.5t-64.5 94.5q-39 41 -84 64.5t-89 35.5t-82 15t-65 3h-378q-31 0 -68 -6t-68 -28q-20 -16 -40.5 -48t-20.5 -85v-1266z M322 184v666q0 20 16 37q6 4 15 9t18 5h235q80 0 133.5 -35t75.5 -88q10 -23 19.5 -73t9.5 -160q0 -121 -14.5 -178.5t-30.5 -81.5q-20 -33 -67.5 -67t-137.5 -34h-272z" />
<glyph unicode="q" horiz-adv-x="1144" d="M53 522q0 -111 13.5 -206t72.5 -175q33 -47 73 -74.5t80 -43t78 -19.5t66 -4h387v-348h240v1231q0 31 -4 70.5t-27 68.5t-62.5 46t-86.5 17h-439q-31 0 -68.5 -5t-75.5 -18t-75 -38t-67 -63q-37 -49 -58.5 -106.5t-32 -116t-12.5 -115t-2 -101.5zM301 537q0 86 5 142 t22 97q33 78 93 101.5t138 23.5h176q16 0 33.5 -2t32.5 -14q16 -14 19 -30.5t3 -27.5v-643h-293q-23 0 -52 3t-58 17.5t-55.5 42t-42.5 75.5q-14 41 -17.5 95t-3.5 120z" />
<glyph unicode="r" horiz-adv-x="681" d="M82 0h240v612q0 61 10 116.5t45 96.5q43 51 100.5 63.5t104.5 12.5h100v184h-162q-31 0 -71.5 -2t-85 -11t-88.5 -28.5t-80 -52.5q-70 -59 -91.5 -142t-21.5 -173v-676z" />
<glyph unicode="s" horiz-adv-x="1079" d="M53 807q0 -41 9.5 -90t41.5 -94q33 -45 92.5 -77t145.5 -54l209 -58q57 -16 92 -26.5t56.5 -18.5t31.5 -13t17 -11q20 -18 25 -39t5 -43q0 -12 -2 -32t-18 -36q-16 -20 -39 -25.5t-41 -5.5h-610v-184h694q39 0 86 7t88 38q31 25 60.5 79t29.5 152q0 45 -12.5 99.5 t-52.5 99.5q-41 43 -107 68.5t-164 54.5l-233 66q-10 2 -28.5 8t-38 13t-38 15.5t-30.5 18.5q-25 20 -30 40.5t-5 43.5t4 42t26 36q20 16 42 18t42 2h576v184h-612q-35 0 -71 -2t-70 -11t-64.5 -28.5t-55.5 -52.5q-33 -45 -42 -94t-9 -90z" />
<glyph unicode="t" horiz-adv-x="698" d="M0 901h150v-547q0 -104 27.5 -167.5t80.5 -106.5q51 -41 115.5 -60.5t175.5 -19.5h149v184h-59q-33 0 -89 6.5t-97 40.5q-27 20 -40.5 50t-18.5 61t-5 61v62v436h303v184h-303v349h-239v-349h-150v-184z" />
<glyph unicode="u" horiz-adv-x="1167" d="M82 401q0 -100 21.5 -180t89.5 -139q55 -47 121.5 -64.5t160.5 -17.5h383q43 0 89 6t81 35q41 33 49 79t8 75v890h-239v-813q0 -16 -2 -32.5t-19 -32.5q-23 -23 -69 -23h-199q-66 0 -114 12.5t-81 57.5q-23 31 -31.5 75t-8.5 115v641h-240v-684z" />
<glyph unicode="v" horiz-adv-x="1062" d="M-49 1085l414 -1001q14 -37 36.5 -56.5t46 -28.5t46 -10t38.5 -1q23 0 46.5 2t45 11t41 28.5t33.5 54.5l414 1001h-248l-303 -804q-4 -12 -12 -27.5t-17 -15.5q-8 0 -16 15t-12 28l-305 804h-248z" />
<glyph unicode="w" horiz-adv-x="1572" d="M-49 1085l258 -950q6 -23 15 -48.5t28.5 -47t53.5 -36.5t89 -15q47 0 80 11t54.5 28.5t33.5 39t19 42.5l188 679q2 6 5 20.5t11 14.5t11.5 -14t5.5 -21l188 -679q12 -41 35 -66t49.5 -37t53 -15t49.5 -3q31 0 58.5 5t52 20.5t44 45t31.5 76.5l258 950h-229l-207 -802 q-4 -10 -9.5 -21.5t-13.5 -11.5t-12 12t-6 19l-201 716q-10 33 -28.5 53.5t-41 31t-46 13.5t-42.5 3q-16 0 -38.5 -2t-45 -12.5t-43 -30t-30.5 -56.5l-199 -716q-2 -4 -6 -17.5t-14 -13.5q-8 0 -13.5 12t-7.5 21l-209 802h-229z" />
<glyph unicode="x" horiz-adv-x="1009" d="M-49 0h280l273 401l274 -401h281l-416 557l387 528h-272l-254 -372l-254 372h-273l390 -528z" />
<glyph unicode="y" horiz-adv-x="1110" d="M-49 1085l483 -1081l-166 -354h244l647 1431h-244l-368 -829l-348 833h-248z" />
<glyph unicode="z" horiz-adv-x="952" d="M4 145q0 -53 18.5 -81.5t44 -43t51 -17.5t40.5 -3h784v184h-618h-13q-6 0 -6 11q0 10 17 26l563 580q23 23 43 54.5t20 92.5q0 66 -39 101.5t-102 35.5h-768v-184h592q12 0 16 -6t4 -10t-3 -9.5t-13 -15.5l-557 -559q-29 -29 -51.5 -61.5t-22.5 -94.5z" />
<glyph unicode="{" horiz-adv-x="647" d="M41 518q53 -4 79.5 -36.5t26.5 -78.5v-227q0 -12 1.5 -31.5t2.5 -40t2 -39t1 -26.5q2 -33 10 -71t27.5 -74.5t52 -70.5t86.5 -59q53 -25 117.5 -35t117.5 -8v173q-49 -4 -89 9t-68 34q-47 35 -61.5 90t-14.5 96v258q0 27 -2 55.5t-12.5 54t-30 48t-51.5 34.5v17 q33 12 52 34.5t29.5 48t12.5 54.5t2 55v258q0 41 14 96.5t62 90.5q29 20 68.5 33.5t88.5 9.5v172q-53 2 -117.5 -8.5t-117.5 -34.5q-53 -25 -86 -58.5t-52.5 -70.5t-27.5 -75t-10 -71q0 -8 -1 -26.5t-2 -39t-2.5 -40t-1.5 -31.5v-227q0 -45 -26.5 -78t-79.5 -37v-127z" />
<glyph unicode="|" horiz-adv-x="389" d="M123 -340h143v1856h-143v-1856z" />
<glyph unicode="}" horiz-adv-x="647" d="M82 -106v-173q53 -2 117.5 8.5t117.5 34.5q53 25 86 59t52.5 70.5t26.5 74.5t12 71q0 8 1 26.5t2 39t2 40t1 31.5v227q0 45 26.5 78t79.5 37v127q-53 4 -79.5 37t-26.5 78v227q0 12 -1 31.5t-2 40t-2 39t-1 26.5q-4 33 -11.5 71t-27 75t-52 70.5t-86.5 58.5 q-53 25 -117.5 35t-117.5 8v-172q49 4 89 -9.5t69 -33.5q47 -35 61 -90.5t14 -96.5v-258q0 -27 2 -55.5t12.5 -54t29 -48t53.5 -34.5v-17q-35 -12 -53.5 -34.5t-29 -48t-12.5 -54t-2 -55.5v-258q0 -41 -14 -96.5t-61 -89.5q-29 -20 -69 -34t-89 -9z" />
<glyph unicode="~" horiz-adv-x="1296" d="M123 721l121 -109q16 23 42.5 54.5t51.5 48.5q23 14 50.5 23.5t57.5 9.5q27 0 63 -7.5t79 -31.5l94 -56q27 -16 68 -30.5t94 -14.5q55 0 98 17.5t80 46.5t78 71.5t74 90.5l-123 106q-16 -27 -37 -54.5t-43 -47.5q-55 -49 -127 -50q-47 0 -83 13.5t-54 23.5l-111 64 q-35 20 -75 30.5t-77 10.5q-41 0 -84 -14.5t-81 -38.5q-45 -29 -86 -72t-70 -84z" />
<glyph horiz-adv-x="1148" d="M0 0h270v1124q0 20 1 41t12 33q14 16 42.5 18.5t51.5 2.5h772v215h-959q-47 0 -82.5 -16.5t-58.5 -39.5q-35 -35 -42 -72.5t-7 -78.5v-1227zM326 1667l120 -151l332 270l-123 153z" />
<glyph horiz-adv-x="1372" d="M0 0h270v1434h-270v-1434zM342 735q0 -29 17.5 -77t80.5 -107l590 -551h342l-678 604q-31 29 -61.5 62.5t-30.5 68.5q0 23 20.5 49.5t55.5 61.5l618 588h-333l-543 -537q-53 -53 -65.5 -96t-12.5 -66zM367 1667l120 -151l332 270l-123 153z" />
<glyph horiz-adv-x="1667" d="M-20 1219h350v-1219h270v637h567q27 0 56.5 -4t52.5 -25q27 -23 33 -49.5t6 -52.5v-506h270v545q0 53 -12 114.5t-78 114.5q-49 39 -102.5 47t-104.5 8h-688v390h602v215h-1222v-215z" />
<glyph horiz-adv-x="1523" d="M123 172q0 -35 6 -68.5t41 -64.5q33 -29 68.5 -34t66.5 -5h322v-346h270v346h322q31 0 66.5 5t68.5 34q35 31 41 64.5t6 68.5v1262h-271v-1143q0 -14 1.5 -24.5t-11.5 -28.5q-14 -20 -25.5 -21.5t-29.5 -1.5h-606q-16 0 -29.5 1t-26.5 22q-8 14 -9 25t-1 28v1143h-270 v-1262z" />
<glyph horiz-adv-x="1228" d="M0 1208h160v-1208h239v901h281q43 0 89 -10t85 -55q35 -41 44 -90.5t9 -79.5v-351q0 -53 -5 -105t-19 -108q-10 -35 -26.5 -85t-49.5 -111q-16 -31 -35.5 -63.5t-42 -66.5t-45 -66t-43.5 -58h266q47 59 75 105t50 93q18 35 30.5 63t22 53.5t17.5 53t16 64.5 q14 57 21.5 106.5t7.5 114.5v377q0 45 -3 89t-15.5 86t-37 80t-67.5 73q-51 41 -112.5 58t-157.5 17h-355v123h318v135h-318v91h-239v-91h-160v-135z" />
<glyph horiz-adv-x="1052" d="M82 0h240v1085h-240v-1085zM365 1300l120 -151l332 270l-123 154zM369 559q0 -41 21.5 -73.5t39.5 -53.5l395 -432h289l-463 483q-12 12 -25.5 36t-13.5 40q0 27 18.5 50.5t33.5 37.5l411 438h-284l-347 -385q-23 -27 -49 -63.5t-26 -77.5z" />
<glyph horiz-adv-x="1228" d="M0 1208h160v-1208h239v901h281q39 0 85 -9t87 -54q39 -45 47 -99.5t8 -91.5v-647h240v715q0 63 -12.5 112.5t-30 84t-37.5 58t-39 38.5q-59 47 -132 62t-171 15h-326v123h318v135h-318v91h-239v-91h-160v-135z" />
<glyph unicode="&#xa1;" horiz-adv-x="1482" d="M0 1434l612 -1117l-174 -317h293l752 1434h-295l-436 -869l-453 869h-299zM338 1780q16 -53 51 -114.5t88 -100.5q47 -35 114.5 -52.5t149.5 -17.5q164 0 263 70q47 33 84.5 90t56.5 125h-197q-8 -27 -23.5 -50.5t-33.5 -39.5q-35 -29 -72 -36t-78 -7q-39 0 -75.5 6 t-73.5 37q-25 20 -39 43.5t-21 46.5h-194z" />
<glyph unicode="&#xa2;" horiz-adv-x="1169" d="M-20 1085l483 -1081l-166 -352h244l649 1433h-244l-366 -823l-347 823h-253zM205 1419q14 -57 45 -113.5t72 -93.5q59 -53 129.5 -66t132.5 -13q57 0 128.5 13t133.5 66q41 35 71.5 92.5t45.5 114.5h-187q-4 -18 -16 -41.5t-35 -46.5q-33 -31 -66.5 -40t-74.5 -9t-75 9 t-67 40q-23 23 -35 46.5t-16 41.5h-186z" />
<glyph unicode="&#xa3;" horiz-adv-x="911" d="M-41 0h367q66 0 119 12.5t95 31.5t73.5 44t54.5 47q16 16 37.5 45t40 73t30.5 105.5t12 143.5v932h-270v-861q0 -92 -16.5 -163.5t-75.5 -122.5q-53 -47 -119.5 -59.5t-111.5 -12.5h-236v-215z" />
<glyph unicode="&#xa4;" horiz-adv-x="1228" d="M123 334l145 -146l131 131q59 -35 114.5 -47t100.5 -12t100.5 12.5t114.5 46.5l132 -131l145 146l-131 131q16 29 38.5 82t22.5 133t-22.5 133t-38.5 82l131 131l-145 145l-132 -131q-59 35 -114.5 47.5t-100.5 12.5t-100 -12.5t-115 -47.5l-131 131l-145 -145l131 -131 q-16 -29 -38.5 -82t-22.5 -133t22.5 -133t38.5 -82zM397 680q0 92 62.5 154.5t154.5 62.5t154.5 -62.5t62.5 -154.5t-62.5 -154.5t-154.5 -62.5t-154.5 62.5t-62.5 154.5z" />
<glyph unicode="&#xa5;" horiz-adv-x="1249" d="M143 0h271v1130q0 53 10 72q10 16 21.5 17.5t25.5 1.5h668q23 0 59.5 6t63.5 39q20 25 24 56.5t4 41.5v326h-270v-177q0 -20 -2 -36.5t-10 -26.5q-12 -14 -27.5 -15t-34.5 -1h-608q-41 0 -79 -8.5t-69 -43.5q-25 -29 -36 -67.5t-11 -79.5v-1235z" />
<glyph unicode="&#xa6;" horiz-adv-x="307" d="M82 -129h143v614h-143v-614zM82 901h143v615h-143v-615z" />
<glyph unicode="&#xa7;" horiz-adv-x="1075" d="M123 586q0 -53 22.5 -116.5t92.5 -123.5l376 -321q31 -27 52.5 -51.5t21.5 -49.5q0 -29 -15.5 -43t-37 -20t-43.5 -6h-37h-328v-209h379q53 0 106.5 8t102.5 41q35 23 67.5 69t32.5 123q0 43 -12 79t-29.5 64.5t-39 51t-39.5 39.5l-129 110q37 0 84 8.5t84 30.5 q43 25 80.5 78t37.5 144q0 102 -41 162.5t-86 99.5l-379 321q-23 18 -42 43t-19 47q0 23 9 35t23.5 17.5t31 6.5t30.5 1h369v209h-406q-59 0 -113.5 -12.5t-103.5 -59.5q-31 -31 -49 -72t-18 -94q0 -82 29.5 -129t64.5 -76l143 -123q-41 -4 -86 -17t-80 -40 q-47 -35 -76.5 -93.5t-29.5 -131.5zM350 569q0 39 22.5 74t63.5 51q29 10 71 13.5t71 1.5l104 -82q27 -20 35 -48t8 -53q0 -59 -30.5 -85.5t-73.5 -39.5q-8 -2 -45.5 -10t-90.5 -4l-86 72q-29 25 -39 56.5t-10 53.5z" />
<glyph unicode="&#xa8;" horiz-adv-x="1353" d="M123 213q0 -41 8 -87t45 -81q35 -35 76 -40t88 -5h932v215h-766q-33 0 -56.5 3t-35.5 15q-20 16 -21 56v336h850v215h-850v288q0 16 3 35t20 35q16 14 35.5 17.5t37.5 3.5h775v215h-920q-41 0 -89 -8.5t-83 -47.5q-23 -27 -36 -66.5t-13 -82.5v-1016zM352 1575h230v197 h-230v-197zM823 1575h230v197h-230v-197z" />
<glyph unicode="&#xa9;" horiz-adv-x="1767" d="M123 719q0 -84 8 -173t35 -172t78 -157t135 -129q57 -37 121.5 -58.5t131 -31.5t130 -12t123.5 -2q57 0 121.5 2t129 12t129 31.5t124.5 58.5q76 49 125 113.5t78.5 143.5t41 173t11.5 201q0 104 -11.5 197.5t-40 173t-79 144t-125.5 114.5q-57 37 -122 57t-131.5 30.5 t-130 12.5t-120.5 2t-122 -2t-131.5 -12.5t-131 -31t-121.5 -56.5q-86 -55 -136 -129t-77 -158t-35 -172t-8 -170zM315 719q0 66 5.5 133.5t23.5 129.5t53 116.5t95 93.5q18 12 49.5 27.5t79 29t113 22.5t151.5 9t149.5 -9t110.5 -22.5t78.5 -29t52.5 -27.5q59 -39 94 -93.5 t53.5 -116.5t23.5 -130t5 -133q0 -68 -6 -138.5t-24.5 -137t-53.5 -123t-92 -97.5q-20 -14 -51 -29.5t-78 -28.5t-111.5 -22.5t-150.5 -9.5t-151.5 9.5t-113 22.5t-78 28.5t-50.5 29.5q-59 41 -94.5 97.5t-53.5 123t-23.5 137t-5.5 138.5zM489 719q0 -78 12.5 -149.5 t57.5 -131.5q53 -74 115.5 -90t128.5 -16h379v164h-305q-41 0 -81 7t-69 50q-10 14 -19.5 47t-9.5 105q0 96 13.5 136t17.5 46q16 27 35.5 40t41 18t42.5 5h41h266v164h-338q-59 0 -130 -18.5t-126 -87.5q-51 -66 -61.5 -145t-10.5 -144z" />
<glyph unicode="&#xaa;" horiz-adv-x="1361" d="M82 729q0 -109 7 -199t27.5 -163.5t55.5 -133t90 -106.5q20 -16 53 -38.5t82 -42t116 -33t153 -13.5h614v215h-500q-18 0 -52 2t-74 8t-82 19.5t-74 36.5q-61 41 -102.5 124.5t-35.5 225.5h873v200h-873q0 80 29 163t76 130q49 47 126 71t161 24h510v215h-596 q-35 0 -86.5 -4.5t-109.5 -18.5t-118.5 -43t-111.5 -80q-55 -55 -87 -122.5t-47.5 -141.5t-19.5 -149.5t-4 -145.5z" />
<glyph unicode="&#xab;" horiz-adv-x="1099" d="M123 575q0 -45 14.5 -74.5t28.5 -49.5l280 -392l164 123l-231 332q-10 12 -17.5 28.5t-7.5 32.5q0 20 9.5 36t15.5 26l231 332l-164 123l-280 -392q-14 -20 -28.5 -49.5t-14.5 -75.5zM545 575q0 -31 15 -59.5t28 -44.5l225 -313l164 123l-170 245q-6 10 -15.5 22.5 t-9.5 26.5q0 18 25 50l170 221l-164 123l-225 -289q-16 -23 -29.5 -50.5t-13.5 -54.5z" />
<glyph unicode="&#xac;" horiz-adv-x="1093" d="M123 561h663v-291h185v465h-848v-174z" />
<glyph unicode="&#xad;" horiz-adv-x="894" d="M82 446h731v211h-731v-211z" />
<glyph unicode="&#xae;" horiz-adv-x="1165" d="M123 995q0 -82 13.5 -169t68.5 -156q37 -47 83 -73t95 -38t97 -14t91 -2t91.5 2t97.5 11t94 29.5t82 55.5q35 35 56.5 81t32.5 96t14 100.5t3 95.5t-3 94t-15 98t-35.5 94.5t-62.5 79.5q-70 61 -160 73.5t-180 12.5q-35 0 -83 -1t-99.5 -11t-101.5 -32.5t-87 -63.5 q-35 -37 -53.5 -86t-27.5 -99.5t-10 -97.5t-1 -80zM246 1014q0 27 1 62.5t8 72.5t22.5 71.5t41.5 61.5q27 27 62 42t71.5 22.5t71.5 8.5t66 1t67.5 -2t73.5 -10.5t71 -26t58 -49.5q8 -10 18.5 -27.5t19.5 -48.5t15.5 -78t6.5 -115q0 -35 -3.5 -73.5t-12.5 -77.5t-28.5 -74 t-50.5 -59q-6 -4 -22.5 -14.5t-47 -20.5t-77 -18.5t-109.5 -8.5q-119 0 -184.5 35t-93.5 76q-25 37 -35 96.5t-10 153.5zM350 778h125v338q0 31 8 37q4 4 15.5 5t17.5 1h105q12 0 25 -2t24 -12q14 -14 14 -35v-47q0 -8 -3 -17.5t-9 -13.5q-8 -8 -51 -8h-46q-35 0 -40 -19.5 t-5 -33.5q0 -10 2.5 -24.5t12.5 -26.5l123 -142h153l-153 166h43q18 0 36.5 5t33 20.5t23.5 45t9 77.5q0 41 -6 76.5t-37 64.5q-29 25 -55.5 27t-50.5 2h-213q-20 0 -45 -3.5t-41 -21.5q-10 -10 -12.5 -24.5t-2.5 -26.5v-408z" />
<glyph unicode="&#xaf;" horiz-adv-x="909" d="M123 1556h237v226h-237v-226zM319 0h271v1434h-271v-1434zM549 1556h237v226h-237v-226z" />
<glyph unicode="&#xb0;" horiz-adv-x="696" d="M123 1358q0 -47 17.5 -88t48 -72t71.5 -48t88 -17q45 0 86 17t72 48t49 72t18 88q0 45 -18 86t-49 71.5t-72 49t-86 18.5q-47 0 -88 -18.5t-71.5 -49t-48 -71.5t-17.5 -86zM225 1358q0 51 36 87t87 36t87 -36t36 -87t-36 -87t-87 -36t-87 36t-36 87z" />
<glyph unicode="&#xb1;" horiz-adv-x="1187" d="M123 137h942v174h-942v-174zM123 782h379v-376h186v376h377v174h-377v377h-186v-377h-379v-174z" />
<glyph unicode="&#xb2;" horiz-adv-x="516" d="M123 0h270v1434h-270v-1434z" />
<glyph unicode="&#xb3;" horiz-adv-x="403" d="M82 0h240v1085h-240v-1085zM82 1243h240v191h-240v-191z" />
<glyph unicode="&#xb4;" horiz-adv-x="937" d="M82 0h240v846q0 10 1 28.5t7 24.5t23.5 9t27.5 3h446q29 0 63 5.5t56 27.5q23 23 28 53.5t5 55.5v295h-234v-205v-21q0 -8 -12 -20q-12 -10 -23.5 -13.5t-27.5 -3.5h-459q-25 0 -51.5 -5t-54.5 -33q-29 -29 -32 -56.5t-3 -56.5v-934z" />
<glyph unicode="&#xb5;" horiz-adv-x="1245" d="M123 -365h229v498q29 -49 65 -77.5t72.5 -44t69.5 -19.5t57 -4q90 0 160 40t115 119v-147h231v1085h-239v-675q0 -35 -11.5 -64t-26 -51.5t-27.5 -36.5t-17 -18q-39 -37 -82 -53.5t-101 -16.5q-78 0 -122.5 25.5t-67.5 48.5q-27 29 -46.5 73.5t-19.5 98.5v669h-239v-1450 z" />
<glyph unicode="&#xb6;" horiz-adv-x="1488" d="M123 1001q0 -27 2 -61.5t10 -72.5t23.5 -76.5t40.5 -73.5q31 -41 66.5 -65.5t73.5 -38t77 -17.5t76 -4h194v-940h221v1571h137v-1571h222v1571h141v211h-877q-63 0 -135.5 -10.5t-138.5 -63.5q-43 -35 -68.5 -78t-40 -91t-19.5 -97.5t-5 -92.5zM350 1014q0 35 6 78t35 77 q33 41 70 47.5t74 6.5h151v-420h-151q-43 0 -86 11t-72 63q-10 16 -18.5 46.5t-8.5 90.5z" />
<glyph unicode="&#xb7;" horiz-adv-x="495" d="M123 512h250v264h-250v-264z" />
<glyph unicode="&#xb8;" horiz-adv-x="1153" d="M53 532q0 -109 12.5 -213t65.5 -182q33 -47 74 -74.5t84 -42t88 -17.5t86 -3h602v184h-530q-33 0 -67 4.5t-64.5 17.5t-53 38.5t-35.5 68.5q-6 25 -10 70t-4 80h631q33 0 62.5 8t54.5 33q35 35 43 79t8 85q0 51 -6.5 101t-23.5 96t-47 85t-77 70q-76 47 -169 58.5 t-189 11.5q-39 0 -90.5 -2.5t-106.5 -11.5t-109.5 -29.5t-99.5 -59.5t-70.5 -86t-39 -103.5t-16.5 -123t-3 -142.5zM244 1247h221v201h-221v-201zM301 647q2 53 7 99.5t42 87.5q25 27 54.5 42t60.5 21t59.5 7t53.5 1q51 0 105 -7t99 -42q27 -20 48.5 -57t21.5 -88 q0 -23 -9 -43.5t-44 -20.5h-498zM684 1247h221v201h-221v-201z" />
<glyph unicode="&#xb9;" horiz-adv-x="2187" d="M123 0h246v1053q0 10 2 25.5t18 15.5q10 0 16.5 -12.5t10.5 -22.5l528 -955q25 -43 53.5 -66.5t58 -35.5t58.5 -15t53 -3q16 0 49 4t65 24.5t56.5 60.5t24.5 113v1248h-246v-1057q0 -8 -1 -21.5t-13 -13.5q-4 0 -11.5 7t-17.5 28l-534 960q-20 37 -47 59.5t-55.5 34 t-57.5 15.5t-53 4q-74 0 -115 -24.5t-60.5 -56.5t-23.5 -64.5t-4 -49.5v-1255zM1513 580h551v127h-551v-127zM1513 1051q0 -43 7.5 -94.5t46.5 -88.5q20 -18 47.5 -28.5t58.5 -16.5t60.5 -7t54.5 -1q68 0 128 10.5t95 42.5q39 37 46 88.5t7 94.5v161q0 43 -7 94.5t-46 88.5 q-35 33 -95.5 43t-127.5 10q-25 0 -54.5 -1t-60.5 -7t-58.5 -16.5t-47.5 -28.5q-39 -37 -46.5 -88.5t-7.5 -94.5v-161zM1681 1081v105q0 23 4.5 51.5t22.5 46.5q16 16 40 20.5t40 4.5q20 0 42.5 -4.5t39.5 -20.5q18 -18 22 -47t4 -51v-105q0 -23 -4 -51.5t-22 -46.5 q-10 -10 -28.5 -17.5t-53.5 -7.5q-16 0 -40 4.5t-40 20.5q-18 18 -22.5 47t-4.5 51z" />
<glyph unicode="&#xba;" horiz-adv-x="1071" d="M53 567q0 -102 10.5 -175t25.5 -123t31.5 -81.5t31.5 -50.5q39 -51 86 -78.5t98 -41t100 -15.5t92 -2h490v184h-467q-98 0 -145.5 31t-69.5 74q-16 35 -26.5 88t-8.5 102h688v172h-688q0 39 10.5 87t30.5 81q18 29 43 46.5t52.5 27.5t55 13t52.5 3h459v176h-535 q-29 0 -68 -4t-80.5 -16t-83.5 -35.5t-77 -64.5t-56.5 -91.5t-33 -103.5t-14.5 -106.5t-3 -96.5z" />
<glyph unicode="&#xbb;" horiz-adv-x="1099" d="M123 281l164 -123l225 313q12 16 27.5 45t15.5 59q0 27 -13.5 54.5t-29.5 50.5l-225 289l-164 -123l170 -221q25 -31 24 -50q0 -14 -9 -26t-15 -23zM489 182l164 -123l281 392q14 20 28.5 49.5t14.5 74.5t-14.5 75t-28.5 50l-281 392l-164 -123l232 -332q6 -10 15 -25.5 t9 -36.5q0 -16 -7 -32.5t-17 -28.5z" />
<glyph unicode="&#xbc;" horiz-adv-x="563" d="M-82 -180v-185q154 -6 256 13.5t168 66.5q18 14 42 38t45.5 60.5t36.5 89t15 124.5v1058h-239v-1009q0 -88 -21.5 -134t-62.5 -75q-41 -31 -91.5 -40t-148.5 -7zM242 1243h239v191h-239v-191z" />
<glyph unicode="&#xbd;" d="M61 1087q0 -31 2.5 -65.5t10.5 -70.5t22.5 -70.5t38.5 -63.5q20 -27 47 -45t51.5 -31.5t44 -20.5t27.5 -9l565 -179q47 -14 75 -33.5t42 -41t18.5 -44t4.5 -42.5q0 -18 -3 -45t-16.5 -51.5t-40 -42t-76.5 -17.5h-794v-215h881q72 0 137 16.5t119 85.5q45 57 58 128 t13 139q0 25 -3 59.5t-12 72.5t-27.5 75.5t-51.5 68.5t-83 55.5t-122 47.5l-524 165q-86 29 -109.5 72t-23.5 90q0 20 5 53t32 58q25 23 54.5 28t57.5 5h733v215h-825q-53 0 -116.5 -13.5t-118.5 -66.5q-61 -57 -77 -129t-16 -138z" />
<glyph unicode="&#xbe;" horiz-adv-x="1079" d="M53 807q0 -41 9.5 -90t41.5 -94q33 -45 92.5 -77t145.5 -54l209 -58q57 -16 92 -26.5t56.5 -18.5t31.5 -13t17 -11q20 -18 25 -39t5 -43q0 -12 -2 -32t-18 -36q-16 -20 -39 -25.5t-41 -5.5h-610v-184h694q39 0 86 7t88 38q31 25 60.5 79t29.5 152q0 45 -12.5 99.5 t-52.5 99.5q-41 43 -107 68.5t-164 54.5l-233 66q-10 2 -28.5 8t-38 13t-38 15.5t-30.5 18.5q-25 20 -30 40.5t-5 43.5t4 42t26 36q20 16 42 18t42 2h576v184h-612q-35 0 -71 -2t-70 -11t-64.5 -28.5t-55.5 -52.5q-33 -45 -42 -94t-9 -90z" />
<glyph unicode="&#xbf;" horiz-adv-x="518" d="M-41 1229h205v221h-205v-221zM139 0h240v1085h-240v-1085zM354 1229h205v221h-205v-221z" />
<glyph unicode="&#xc0;" horiz-adv-x="1429" d="M-61 0h284l146 362h690l147 -362h285l-541 1288q-39 90 -91 126t-144 36q-96 0 -146.5 -36t-89.5 -126zM438 555l236 584q6 16 16 37.5t25 21.5q14 0 24.5 -21.5t16.5 -37.5l233 -584h-551z" />
<glyph unicode="&#xc1;" horiz-adv-x="1484" d="M123 190q0 -31 6 -66.5t33 -66.5q20 -23 54 -40t89 -17h774q53 0 94 10t71 24.5t49.5 31t31.5 28.5q31 35 54.5 108.5t23.5 213.5q0 100 -16.5 179t-57.5 132q-29 35 -61.5 56.5t-66.5 32.5t-66.5 14.5t-59.5 3.5h-682v296q0 14 2 36t19 36q14 10 34.5 13.5t40.5 3.5h840 v215h-1012q-57 0 -92 -17.5t-53 -36.5q-33 -35 -41 -76.5t-8 -78.5v-1035zM393 322v296h547q35 0 73 -5t66 -33q33 -31 39 -73t6 -83q0 -33 -4 -83t-39 -85q-31 -31 -67.5 -36t-73.5 -5h-434q-23 0 -54.5 2t-48.5 25q-4 4 -7 18t-3 62z" />
<glyph unicode="&#xc2;" horiz-adv-x="1478" d="M123 203q0 -61 19.5 -97t29.5 -49q43 -49 92 -53t103 -4h686q33 0 66.5 1t66.5 10t65.5 27.5t63.5 53.5q61 70 71.5 150t10.5 151q0 31 -1 63.5t-7.5 66.5t-20.5 66t-39 60q-27 29 -66.5 50.5t-91.5 25.5v8q41 4 73 20.5t63 53.5q47 57 57 115.5t10 117.5q0 35 -3 76 t-12 82t-26.5 80t-48.5 70q-29 29 -61.5 46t-67.5 26.5t-68.5 11.5t-62.5 2h-705q-35 0 -76.5 -10.5t-74.5 -49.5q-23 -29 -34 -67.5t-11 -79.5v-1024zM393 322v294h549q66 0 99.5 -21.5t45.5 -37.5q20 -29 25.5 -72t5.5 -73q0 -35 -7 -76t-30 -70q-31 -37 -78 -44t-79 -7 h-426q-16 0 -44 2t-44 21q-8 10 -12.5 29.5t-4.5 54.5zM393 831v308q0 12 3 30.5t16 32.5q12 14 28.5 15.5t32.5 1.5h442q35 0 70 -4.5t64 -32.5q35 -33 41 -79t6 -75q0 -74 -11.5 -104.5t-19.5 -40.5q-29 -39 -68 -45.5t-79 -6.5h-525z" />
<glyph unicode="&#xc3;" horiz-adv-x="1251" d="M123 0h270v1124q0 20 1 41t12 33q14 16 42.5 18.5t51.5 2.5h772v215h-959q-47 0 -82.5 -16.5t-58.5 -39.5q-35 -35 -42 -72.5t-7 -78.5v-1227z" />
<glyph unicode="&#xc4;" horiz-adv-x="1624" d="M-20 0h1665v215h-121l-482 1083q-35 78 -84 115t-145 37q-55 0 -92 -12.5t-63.5 -33t-43 -48t-30.5 -58.5l-484 -1083h-120v-215zM377 215l401 930q4 10 13.5 27.5t21.5 17.5t20.5 -17.5t12.5 -27.5l401 -930h-870z" />
<glyph unicode="&#xc5;" horiz-adv-x="1333" d="M123 213q0 -41 8 -87t45 -81q35 -35 76 -40t88 -5h932v215h-766q-33 0 -56.5 3t-35.5 15q-20 16 -21 56v336h850v215h-850v288q0 16 3 35t20 35q16 14 35.5 17.5t37.5 3.5h775v215h-920q-41 0 -89 -8.5t-83 -47.5q-23 -27 -36 -66.5t-13 -82.5v-1016z" />
<glyph unicode="&#xc6;" horiz-adv-x="2187" d="M-41 0h344l488 547q66 74 80 124t14 66q0 51 -25.5 94t-48.5 70l-451 533h-327l526 -588q23 -23 41 -48.5t18 -58.5q0 -39 -26.5 -75.5t-48.5 -59.5zM958 0h271v1434h-271v-1434zM1303 737q0 -59 32.5 -108t61.5 -82l487 -547h344l-583 604q-23 23 -49.5 59.5t-26.5 75.5 q0 33 18.5 58.5t40.5 48.5l526 588h-327l-451 -533q-23 -29 -48 -71t-25 -93z" />
<glyph unicode="&#xc7;" horiz-adv-x="1361" d="M102 0h742q74 0 160 9t147 48q45 29 70.5 69t39 84t16.5 89t3 84q0 88 -10 143.5t-31 89.5q-29 49 -79 76t-109 31v8q70 16 120 64q57 53 69.5 117.5t12.5 134.5q0 80 -14 158.5t-74 140.5q-35 33 -72.5 51t-76.5 26.5t-78 9.5t-74 1h-753v-215h692q33 0 65.5 -4.5 t59.5 -26.5q37 -31 42 -76t5 -86q0 -33 -4 -77t-31 -72q-23 -25 -71 -35.5t-117 -10.5h-621v-215h655q86 0 120 -15t44 -23q37 -33 44 -80t7 -82q0 -23 -2 -47.5t-8 -48t-20.5 -44t-38.5 -34.5q-16 -10 -41 -15.5t-50.5 -7.5t-48 -3t-30.5 -1h-660v-215z" />
<glyph unicode="&#xc8;" horiz-adv-x="1609" d="M123 229q0 -31 4 -72.5t23.5 -80.5t62.5 -65.5t121 -26.5q55 0 92 12t61.5 31.5t42 43t31.5 48.5l590 952q16 25 28.5 45.5t24.5 20.5q14 0 17.5 -15.5t3.5 -31.5l-8 -1090h270v1192q0 27 -4 71t-24.5 85t-65.5 71.5t-125 30.5q-74 0 -128.5 -33t-111.5 -127l-577 -946 q-10 -16 -18.5 -30.5t-20.5 -14.5q-20 0 -22.5 20.5t-2.5 45.5l6 1069h-270v-1205z" />
<glyph unicode="&#xc9;" horiz-adv-x="1609" d="M123 229q0 -31 4 -72.5t23.5 -80.5t62.5 -65.5t121 -26.5q55 0 92 12t61.5 31.5t42 43t31.5 48.5l590 952q16 25 28.5 45.5t24.5 20.5q14 0 17.5 -15.5t3.5 -31.5l-8 -1090h270v1192q0 27 -4 71t-24.5 85t-65.5 71.5t-125 30.5q-74 0 -128.5 -33t-111.5 -127l-577 -946 q-10 -16 -18.5 -30.5t-20.5 -14.5q-20 0 -22.5 20.5t-2.5 45.5l6 1069h-270v-1205zM397 1759q16 -53 51 -114.5t89 -100.5q47 -35 114.5 -52t147.5 -17q66 0 138.5 14t125.5 55q53 39 88 100.5t51 114.5h-194q-8 -27 -23.5 -50t-34.5 -40q-35 -29 -74.5 -36t-76.5 -7 q-35 0 -75 7t-75 36q-18 16 -33.5 40t-23.5 50h-195z" />
<glyph unicode="&#xca;" horiz-adv-x="1433" d="M123 0h270v1434h-270v-1434zM465 735q0 -29 17.5 -77t80.5 -107l590 -551h342l-678 604q-31 29 -61.5 62.5t-30.5 68.5q0 23 20.5 49.5t55.5 61.5l618 588h-334l-542 -537q-53 -53 -65.5 -96t-12.5 -66z" />
<glyph unicode="&#xcb;" horiz-adv-x="1423" d="M-61 0h286l453 1145q4 12 11 26.5t24 14.5q16 0 22 -13.5t10 -27.5l453 -1145h287l-553 1315q-10 25 -24.5 49.5t-39 42.5t-61.5 30.5t-94 12.5t-94 -12.5t-62 -30.5t-39 -43t-24 -49z" />
<glyph unicode="&#xcc;" horiz-adv-x="2031" d="M123 0h270l-6 1116q0 4 3 23.5t20 19.5q10 0 20 -17.5t14 -29.5l367 -956q18 -51 37.5 -84t42 -52.5t53.5 -27.5t72 -8q45 0 75.5 9t53 28.5t40 52t36.5 82.5l366 956q4 12 14.5 29.5t20.5 17.5q6 0 15.5 -7t9.5 -36l-9 -1116h271v1262q0 98 -65.5 143t-166.5 45 q-39 0 -74.5 -6t-67.5 -25.5t-59.5 -56.5t-50.5 -96l-370 -957q-10 -23 -19.5 -38t-19.5 -15t-19.5 15.5t-19.5 37.5l-371 957q-23 59 -50.5 96t-59 56.5t-67.5 25.5t-75 6q-16 0 -54 -3t-77 -21.5t-69.5 -56.5t-30.5 -107v-1262z" />
<glyph unicode="&#xcd;" horiz-adv-x="1531" d="M123 0h270v631h746v-631h270v1434h-270v-588h-746v588h-270v-1434z" />
<glyph unicode="&#xce;" horiz-adv-x="1634" d="M82 717q0 -61 3 -137t18.5 -155t49 -154.5t95.5 -135.5q59 -57 132 -88t149.5 -45t151.5 -16t138 -2q61 0 136 2t153 16t151.5 45t131.5 88q57 57 89.5 134t49 157t19.5 156.5t3 134.5q0 70 -5 149.5t-21.5 157.5t-48 149.5t-86.5 124.5q-59 57 -132 88t-150 45.5 t-153 16.5t-137 2q-66 0 -140.5 -2t-150 -16.5t-148.5 -45t-132 -88.5q-59 -55 -92 -125.5t-49.5 -147.5t-20.5 -155.5t-4 -152.5zM360 717q0 164 25 254t68 143q35 43 78.5 67.5t92 37t97.5 14.5t96 2q45 0 94.5 -2t98.5 -14.5t94 -37t80 -67.5q41 -53 65.5 -144t24.5 -253 q0 -160 -24.5 -252t-65.5 -143q-35 -45 -79 -70t-93 -37t-99.5 -14t-95.5 -2q-123 0 -212 20.5t-152 102.5q-45 57 -69 149t-24 246z" />
<glyph unicode="&#xcf;" horiz-adv-x="1521" d="M123 0h270v1133q0 18 4 37.5t15 29.5q14 16 31.5 17.5t33.5 1.5h570q14 0 32.5 -1t32.5 -18q14 -14 15 -32.5t1 -34.5v-1133h271v1239q0 37 -9.5 74t-41.5 69q-37 37 -78 44.5t-84 7.5h-848q-49 0 -86 -7.5t-76 -44.5q-35 -35 -44 -69.5t-9 -73.5v-1239z" />
<glyph unicode="&#xd0;" horiz-adv-x="1490" d="M123 0h270v508h672q63 0 120.5 18.5t98.5 51.5q43 35 67.5 84t37 103t16.5 108.5t4 97.5q0 45 -3 96t-14.5 102.5t-33 97.5t-58.5 81q-33 33 -70.5 50t-75.5 25.5t-74 9.5t-64 1h-682q-37 0 -82 -10.5t-80 -45.5q-37 -37 -43 -77.5t-6 -81.5v-1219zM393 723v410 q0 18 2 35.5t17 31.5q16 16 32.5 17.5t30.5 1.5h436q35 0 84 -7.5t84 -42.5t43 -92t8 -104q0 -20 -1 -47t-6 -53.5t-14 -52t-26 -44.5q-35 -41 -83 -47t-93 -6h-514z" />
<glyph unicode="&#xd1;" d="M82 696q0 -59 4 -127.5t18.5 -138.5t43 -137.5t79.5 -124.5q49 -55 107.5 -89t119 -51.5t120 -22.5t110.5 -5h604v215h-485q-127 0 -223.5 26.5t-151.5 110.5q-10 16 -22.5 43t-22.5 68t-16.5 99.5t-6.5 137.5q0 160 24 249t56 136q31 45 71 72t88 41t103.5 17.5 t114.5 3.5h449v215h-576q-39 0 -96 -4.5t-122.5 -22.5t-131.5 -54t-119 -100q-45 -53 -72.5 -117.5t-42 -137t-19.5 -149.5t-5 -153z" />
<glyph unicode="&#xd2;" d="M-20 1219h559v-1219h270v1219h561v215h-1390v-215z" />
<glyph unicode="&#xd3;" horiz-adv-x="1400" d="M-41 1434l612 -1117l-174 -317h293l752 1434h-295l-436 -869l-453 869h-299z" />
<glyph unicode="&#xd4;" horiz-adv-x="1908" d="M82 735q0 -111 14.5 -223.5t67.5 -202.5q66 -104 167 -137t234 -33h254v-139h271v139h253q133 0 234.5 33t167.5 137q53 90 67.5 203t14.5 223q0 115 -16.5 224.5t-79.5 201.5q-68 96 -171.5 126t-267.5 30h-202v117h-271v-117h-205q-82 0 -147.5 -6t-118.5 -23.5 t-95 -47.5t-75 -79q-63 -92 -79.5 -201.5t-16.5 -224.5zM360 735q0 59 4.5 101.5t9.5 72t11 47t12 27.5q20 39 50 62.5t65 36t73 16.5t74 4h160v-748h-121q-41 0 -85 3t-87 15.5t-78.5 39t-56.5 75.5q-10 23 -20.5 75t-10.5 173zM1090 354v748h159q78 0 148.5 -20.5 t111.5 -98.5q20 -39 29.5 -95.5t9.5 -152.5q0 -109 -8 -163t-22 -85q-23 -49 -58 -75.5t-78 -39t-88 -15.5t-84 -3h-120z" />
<glyph unicode="&#xd5;" horiz-adv-x="1323" d="M-41 0h320l383 537l382 -537h320l-549 727l533 707h-320l-366 -516l-367 516h-320l533 -707z" />
<glyph unicode="&#xd6;" horiz-adv-x="1574" d="M123 209q0 -41 10 -87t51 -81q37 -31 80 -36t88 -5h1243v215h-196v1219h-271v-1219h-643q-16 0 -40.5 3t-38.5 20q-14 16 -13.5 42.5t0.5 47.5v1106h-270v-1225z" />
<glyph unicode="&#xd7;" horiz-adv-x="1466" d="M102 967q0 -72 11.5 -127.5t46.5 -104.5q31 -45 69.5 -69.5t75.5 -37t66.5 -15.5t44.5 -3h657v-610h270v1434h-270v-609h-510q-31 0 -78 7.5t-75 35.5q-29 29 -33 68t-4 80v418h-271v-467z" />
<glyph unicode="&#xd8;" horiz-adv-x="2138" d="M123 182q0 -35 6 -68.5t41 -66.5q33 -31 69.5 -39t69.5 -8h1520q20 0 63 6t78 41q33 33 39 73t6 62v1252h-270v-1129q0 -16 -1 -33.5t-11 -33.5q-12 -16 -28.5 -19.5t-33.5 -3.5h-467v1219h-270v-1219h-465q-16 0 -33.5 3t-29.5 20q-10 16 -11.5 33.5t-1.5 33.5v1129 h-270v-1252z" />
<glyph unicode="&#xd9;" horiz-adv-x="2191" d="M123 182q0 -31 8 -67.5t39 -67.5t68.5 -39t70.5 -8h1903v215h-197v1219h-270v-1219h-541v1219h-270v-1219h-467q-16 0 -32.5 3t-28.5 20q-10 16 -11.5 33.5t-1.5 33.5v1129h-270v-1252z" />
<glyph unicode="&#xda;" horiz-adv-x="1622" d="M-20 1219h198q43 0 62 -23q4 -6 10 -22.5t6 -53.5v-903q0 -41 8 -83t37 -77q12 -14 43 -35.5t86 -21.5h762q66 0 114 14.5t82.5 34t55 41t31.5 35.5q4 6 14 24.5t21.5 54.5t20.5 90t9 130t-12 153.5t-41 131.5q-27 49 -65 75.5t-77.5 41t-76.5 17.5t-62 3h-680v381 q0 59 -15 96t-32 55q-35 39 -79 47.5t-68 8.5h-352v-215zM526 303v328h541q37 0 73 -2t64 -25q41 -31 49.5 -78t8.5 -94q0 -45 -6.5 -95t-45.5 -83q-16 -14 -40.5 -22.5t-47 -11.5t-42 -4t-27.5 -1h-437q-23 0 -44 3t-33 20q-10 12 -11.5 33.5t-1.5 31.5z" />
<glyph unicode="&#xdb;" horiz-adv-x="1955" d="M123 217q0 -41 8 -83t37 -77q12 -14 43 -35.5t86 -21.5h762q66 0 114 14.5t82.5 34t55 41t30.5 35.5q4 6 14.5 24.5t22 54.5t20.5 90t9 130t-12.5 153.5t-40.5 131.5q-27 49 -65 75.5t-78 41t-76.5 17.5t-61.5 3h-680v588h-270v-1217zM393 303v328h541q37 0 72.5 -2 t64.5 -25q41 -31 49 -78t8 -94q0 -45 -6 -95t-45 -83q-16 -14 -40.5 -22.5t-47 -11.5t-42 -4t-27.5 -1h-437q-23 0 -44 3t-33 20q-10 12 -11.5 33.5t-1.5 31.5zM1563 0h270v1434h-270v-1434z" />
<glyph unicode="&#xdc;" horiz-adv-x="1488" d="M123 217q0 -41 8 -83t37 -77q12 -14 43 -35.5t86 -21.5h762q66 0 114 14.5t82.5 34t55 41t30.5 35.5q4 6 14.5 24.5t22 54.5t20.5 90t9 130t-12.5 153.5t-40.5 131.5q-27 49 -65 75.5t-78 41t-76.5 17.5t-61.5 3h-680v588h-270v-1217zM393 303v328h541q37 0 72.5 -2 t64.5 -25q41 -31 49 -78t8 -94q0 -45 -6 -95t-45 -83q-16 -14 -40.5 -22.5t-47 -11.5t-42 -4t-27.5 -1h-437q-23 0 -44 3t-33 20q-10 12 -11.5 33.5t-1.5 31.5z" />
<glyph unicode="&#xdd;" horiz-adv-x="1363" d="M82 0h614q43 0 93.5 5t104.5 18.5t107.5 38t100.5 65.5q109 94 144.5 241.5t35.5 360.5q0 74 -4 149.5t-20.5 148.5t-48 139.5t-85.5 119.5q-53 51 -112.5 81t-117.5 44t-110.5 18.5t-87.5 4.5h-594v-215h508q102 0 173 -29t114 -70q59 -59 80.5 -134t26.5 -150h-873 v-215h873q-2 -121 -29 -201t-109 -135q-49 -35 -115.5 -52.5t-166.5 -17.5h-502v-215z" />
<glyph unicode="&#xde;" horiz-adv-x="2125" d="M123 0h270v625h180q-2 -61 6.5 -129t29 -133.5t52 -125t76.5 -102.5q59 -57 132 -88t150 -45t151.5 -16t138.5 -2q63 0 138 2t151.5 16t149.5 45t132 88q57 55 90 126t49.5 147.5t20.5 156.5t4 152q0 186 -31 335.5t-133 245.5q-61 57 -133 88t-147.5 45.5t-150.5 16.5 t-140 2q-66 0 -140.5 -2t-150.5 -16.5t-148.5 -45t-132.5 -88.5q-43 -41 -74.5 -95t-51 -114.5t-29 -125t-9.5 -123.5h-180v594h-270v-1434zM852 717q0 162 24.5 253t65.5 144q35 43 79 67.5t93 37t98.5 14.5t96.5 2t96 -2t97 -14.5t92 -37t79 -67.5q43 -53 67.5 -143 t24.5 -254q0 -154 -23.5 -246t-68.5 -149q-63 -82 -153 -102.5t-211 -20.5q-55 0 -107.5 3t-99.5 15t-87 37t-73 68q-41 53 -65.5 144t-24.5 251z" />
<glyph unicode="&#xdf;" horiz-adv-x="1513" d="M61 0h349l479 469q41 41 51 72.5t10 52.5v33q0 33 -15 50t-35.5 25.5t-41 10.5t-31.5 2h-282q-49 0 -84 21.5t-51 49.5q-16 25 -22.5 68t-6.5 119q0 53 7 107.5t42 90.5q33 35 70 41.5t69 6.5h451q20 0 37.5 -3.5t34.5 -19.5q18 -16 23 -35.5t5 -36.5v-1124h271v1208 q0 49 -8.5 89t-49.5 79q-39 37 -81 47.5t-76 10.5h-703q-92 0 -170 -22.5t-133 -108.5q-25 -39 -39 -81t-20.5 -84t-7.5 -82t-1 -75q0 -90 10.5 -178t53.5 -162q37 -63 100.5 -102t149.5 -39h186v-8z" />
<glyph unicode="&#xe0;" horiz-adv-x="1136" d="M53 348q0 -31 2 -69.5t11.5 -79.5t29 -79t51.5 -67q47 -41 99.5 -47t97.5 -6h518q39 0 80 7t70 36t36 70t7 69v563q0 92 -22.5 157t-57.5 99q-37 39 -96.5 61.5t-128.5 22.5h-617v-184h535q29 0 60.5 -8t55.5 -39q20 -25 25.5 -51.5t5.5 -50.5v-76h-471q-43 0 -95 -9.5 t-104 -54.5q-61 -53 -76.5 -122.5t-15.5 -141.5zM301 338q0 59 10.5 83.5t16.5 33.5q20 27 47.5 32t40.5 5h399v-250q0 -12 -2 -23.5t-14 -21.5t-27.5 -11.5t-26.5 -1.5h-333q-23 0 -44.5 10.5t-33.5 22.5q-23 23 -28 59.5t-5 61.5z" />
<glyph unicode="&#xe1;" horiz-adv-x="1175" d="M82 444q0 -72 7 -141.5t48 -140.5q39 -66 94.5 -100.5t117 -51t126 -19.5t121.5 -3q61 0 123.5 3t123 18.5t113 48t91.5 94.5q29 43 44 95t22 103t8 98.5t1 83.5q0 88 -11 181.5t-60 167.5q-41 63 -128 111t-237 48h-364q-2 47 15 90.5t42 65.5q43 39 102.5 46t104.5 7 h473v185h-584q-76 0 -132 -16.5t-96 -42t-65.5 -54.5t-40.5 -53q-39 -66 -49 -135.5t-10 -122.5v-566zM322 422v434h311q84 0 127 -29.5t59 -50.5q27 -35 41 -95t14 -165q0 -33 -2 -71.5t-9 -76.5t-22.5 -72t-39.5 -58q-35 -33 -94.5 -49.5t-114.5 -16.5q-76 0 -130 21.5 t-85 56.5q-23 25 -39 66.5t-16 105.5z" />
<glyph unicode="&#xe2;" horiz-adv-x="1128" d="M82 160q0 -27 6 -62t35 -59q29 -27 68.5 -33t74.5 -6h516q47 0 108.5 9t110.5 59q27 27 41.5 59.5t21.5 65t9 62.5t2 52q0 43 -7 91t-40 89q-18 23 -53 44.5t-82 27.5v4q41 4 73.5 21.5t55.5 42.5q33 37 41 87t8 93q0 39 -8 96.5t-49 104.5q-25 29 -56.5 44t-64.5 23 t-65.5 9t-59.5 1h-492q-35 0 -72.5 -7t-72.5 -36t-42 -63.5t-7 -63.5v-755zM322 250v219h374q20 0 50 -5t53 -30q20 -23 24 -50.5t4 -51.5q0 -27 -5 -59.5t-27 -55.5q-23 -23 -53.5 -28t-57.5 -5h-299q-14 0 -27.5 2t-23.5 15q-6 10 -9 23.5t-3 25.5zM322 653v195 q0 10 2 20.5t12 20.5t22.5 11t22.5 1h315q25 0 49.5 -4t45.5 -23q23 -20 27.5 -46.5t4.5 -51.5q0 -23 -5 -46t-25 -44q-23 -23 -50.5 -28t-50.5 -5h-370z" />
<glyph unicode="&#xe3;" horiz-adv-x="948" d="M82 0h240v815q0 20 1 35.5t15 30.5q8 8 20.5 14t28.5 6h602v184h-756q-35 0 -69.5 -9t-59.5 -48q-16 -27 -19 -57.5t-3 -63.5v-907z" />
<glyph unicode="&#xe4;" horiz-adv-x="1181" d="M-20 0h1222v184h-96l-340 807q-16 41 -52 74t-122 33q-84 0 -121 -31t-55 -76l-338 -807h-98v-184zM311 184l258 674q4 10 10.5 19.5t12.5 9.5q10 0 13 -10.5t7 -18.5l260 -674h-561z" />
<glyph unicode="&#xe5;" horiz-adv-x="1153" d="M53 532q0 -109 12.5 -213t65.5 -182q33 -47 74 -74.5t84 -42t88 -17.5t86 -3h602v184h-530q-33 0 -67 4.5t-64.5 17.5t-53 38.5t-35.5 68.5q-6 25 -10 70t-4 80h631q33 0 62.5 8t54.5 33q35 35 43 79t8 85q0 51 -6.5 101t-23.5 96t-47 85t-77 70q-76 47 -169 58.5 t-189 11.5q-39 0 -90.5 -2.5t-106.5 -11.5t-109.5 -29.5t-99.5 -59.5t-70.5 -86t-39 -103.5t-16.5 -123t-3 -142.5zM301 647q2 53 7 99.5t42 87.5q25 27 54.5 42t60.5 21t59.5 7t53.5 1q51 0 105 -7t99 -42q27 -20 48.5 -57t21.5 -88q0 -23 -9 -43.5t-44 -20.5h-498z" />
<glyph unicode="&#xe6;" horiz-adv-x="1648" d="M-41 0h283l354 430q20 23 41.5 54.5t21.5 68.5q0 35 -23.5 74t-51.5 73l-310 385h-278l373 -444q12 -14 28.5 -40t16.5 -40q0 -16 -17.5 -42.5t-27.5 -41.5zM709 0h231v1085h-231v-1085zM989 553q0 -37 21.5 -68.5t42.5 -54.5l354 -430h283l-410 477q-12 14 -28.5 41 t-16.5 43q0 8 7 26.5t38 53.5l371 444h-279l-307 -385q-29 -35 -52.5 -73.5t-23.5 -73.5z" />
<glyph unicode="&#xe7;" horiz-adv-x="1085" d="M82 0h641q53 0 110.5 9t106.5 54q31 29 57.5 86.5t26.5 153.5q0 76 -16.5 121t-38.5 70q-18 23 -48 41t-75 22v6q43 4 73.5 22.5t49.5 41.5q18 23 33.5 65.5t15.5 116.5q0 49 -13.5 107.5t-58.5 101.5q-47 47 -106.5 57t-118.5 10h-619v-184h529q14 0 46 -4t56 -25 q14 -12 25.5 -34.5t11.5 -61.5t-11 -61.5t-24 -34.5q-23 -23 -46 -26t-52 -3h-524v-184h516q18 0 48 -4t54 -23q31 -23 38 -51.5t7 -56.5q0 -47 -11 -75t-26 -42q-23 -23 -52.5 -27t-59.5 -4h-545v-184z" />
<glyph unicode="&#xe8;" horiz-adv-x="1226" d="M82 141q0 -23 5 -49t21.5 -49t47 -39t84.5 -16q61 0 94 21.5t61 64.5l477 698q12 18 18.5 23.5t10.5 5.5q12 0 12 -8v-21l-8 -772h240v932q0 61 -20.5 94t-46 49.5t-52.5 19.5t-39 3q-37 0 -76 -13.5t-71 -60.5l-484 -711q-6 -10 -12 -19t-16 -9q-12 0 -14.5 7t-2.5 21 l11 772h-240v-944z" />
<glyph unicode="&#xe9;" horiz-adv-x="1226" d="M82 141q0 -23 5 -49t21.5 -49t47 -39t84.5 -16q61 0 94 21.5t61 64.5l477 698q12 18 18.5 23.5t10.5 5.5q12 0 12 -8v-21l-8 -772h240v932q0 61 -20.5 94t-46 49.5t-52.5 19.5t-39 3q-37 0 -76 -13.5t-71 -60.5l-484 -711q-6 -10 -12 -19t-16 -9q-12 0 -14.5 7t-2.5 21 l11 772h-240v-944zM238 1419q16 -59 47.5 -116.5t68.5 -90.5q59 -53 133 -66t129 -13t129 13t134 66q37 33 68.5 90.5t47.5 116.5h-186q-6 -20 -20.5 -45.5t-30.5 -42.5q-31 -31 -69 -40t-73 -9t-72.5 9t-68.5 40q-16 16 -30.5 42t-20.5 46h-186z" />
<glyph unicode="&#xea;" horiz-adv-x="1052" d="M82 0h240v1085h-240v-1085zM369 559q0 -41 21.5 -73.5t39.5 -53.5l395 -432h289l-463 483q-12 12 -25.5 36t-13.5 40q0 27 18.5 50.5t33.5 37.5l411 438h-284l-347 -385q-23 -27 -49 -63.5t-26 -77.5z" />
<glyph unicode="&#xeb;" horiz-adv-x="1159" d="M-20 0h245l334 838q4 8 8 19t13 11q8 0 12 -11t8 -19l334 -838h246l-441 1008q-23 47 -66.5 68.5t-92.5 21.5t-93.5 -21.5t-66.5 -68.5z" />
<glyph unicode="&#xec;" horiz-adv-x="1515" d="M82 0h240l-11 786q0 4 1 11.5t12 7.5q6 0 10 -9.5t6 -13.5l278 -704q12 -33 43 -61.5t97 -28.5t96.5 28.5t42.5 61.5l277 704q4 6 9 15.5t9 9.5t8 -5t4 -16l-10 -786h240v942q0 80 -56.5 118t-130.5 38q-68 0 -112.5 -25.5t-71.5 -91.5l-275 -690q-4 -8 -13 -25.5 t-17 -17.5t-17.5 17.5t-13.5 25.5l-274 690q-27 66 -72 91.5t-113 25.5q-74 0 -130 -38t-56 -118v-942z" />
<glyph unicode="&#xed;" horiz-adv-x="1161" d="M82 0h240v467h518v-467h239v1085h-239v-434h-518v434h-240v-1085z" />
<glyph unicode="&#xee;" horiz-adv-x="1261" d="M53 539q0 -41 4 -97.5t17.5 -117t41 -117.5t77.5 -103q45 -41 100 -64.5t114.5 -34.5t117 -14t106.5 -3q47 0 104.5 3t117.5 14t116.5 34.5t99.5 64.5q59 57 99 163t40 280q0 43 -4 100.5t-18.5 116.5t-42 117.5t-74.5 101.5q-45 41 -100.5 64.5t-114.5 35t-116.5 13.5 t-106.5 2t-106.5 -2t-117 -13.5t-114.5 -35t-100 -64.5q-47 -43 -75 -101.5t-42.5 -119t-18.5 -119.5t-4 -104zM301 541q0 27 1 63.5t7 76.5t20.5 79t39.5 67q25 29 58.5 46.5t68 26.5t70.5 11t65 2q33 0 67.5 -2t68.5 -11t65.5 -26.5t58.5 -46.5q29 -31 43 -68.5 t20.5 -76.5t6.5 -76v-65q0 -72 -9.5 -145.5t-62.5 -133.5q-53 -59 -122 -74.5t-136 -15.5q-66 0 -136.5 15.5t-123.5 74.5q-51 59 -60.5 135t-9.5 144z" />
<glyph unicode="&#xef;" horiz-adv-x="1163" d="M82 0h240v838q0 14 4 28.5t12 22.5q12 12 41 12h405q10 0 22.5 -3t20.5 -9q10 -10 12.5 -25.5t2.5 -25.5v-838h239v905q0 35 -5 67t-29 60q-31 37 -70 45t-80 8h-631q-35 0 -73.5 -6t-73.5 -47q-29 -35 -33 -66.5t-4 -60.5v-905z" />
<glyph unicode="&#xf0;" horiz-adv-x="1144" d="M82 -348h240v348h303q41 0 91 3t102 18.5t100.5 47t87.5 87.5q29 41 46 90t26 102t11.5 108.5t2.5 108.5q0 45 -2.5 97.5t-13.5 105.5t-34.5 104.5t-64.5 94.5q-39 41 -84 64.5t-89 35.5t-82 15t-65 3h-378q-31 0 -68 -6t-68 -28q-20 -16 -40.5 -48t-20.5 -85v-1266z M322 184v666q0 20 16 37q6 4 15 9t18 5h235q80 0 133.5 -35t75.5 -88q10 -23 19.5 -73t9.5 -160q0 -121 -14.5 -178.5t-30.5 -81.5q-20 -33 -67.5 -67t-137.5 -34h-272z" />
<glyph unicode="&#xf1;" horiz-adv-x="1050" d="M53 528q0 -117 15.5 -216t83.5 -179q37 -43 80.5 -69.5t86.5 -41t84 -18.5t72 -4h522v184h-389q-37 0 -76.5 3t-76.5 15.5t-68 35t-51 61.5q-10 20 -17.5 50t-11.5 60.5t-5 60.5t-1 54q0 12 1 38t2 55.5t5 59.5t10 52q20 70 83 121t184 51h387v184h-465q-74 0 -128 -12 t-94 -29.5t-66.5 -38t-43.5 -36.5q-45 -47 -69.5 -103.5t-37 -115t-14.5 -115.5t-2 -107z" />
<glyph unicode="&#xf2;" horiz-adv-x="1054" d="M0 901h408v-901h239v901h408v184h-1055v-184z" />
<glyph unicode="&#xf3;" horiz-adv-x="1169" d="M-20 1085l483 -1081l-166 -352h244l649 1433h-244l-366 -823l-347 823h-253z" />
<glyph unicode="&#xf4;" horiz-adv-x="1648" d="M53 530q0 -102 15.5 -202.5t74.5 -180.5q39 -53 84 -82.5t91.5 -44t91.5 -17.5t82 -3h213v-348h239v348h213q39 0 84 3t91 17.5t90 44t83 82.5q61 86 75.5 179.5t14.5 203.5q0 92 -9 192.5t-66 192.5q-35 55 -78 89t-90 51.5t-95.5 23.5t-91.5 6h-221v349h-239v-349h-222 q-43 0 -90 -6t-95 -23.5t-92 -51t-77 -89.5q-27 -43 -42 -93t-22.5 -100t-9.5 -99.5t-2 -92.5zM301 528q0 119 12.5 184.5t38.5 102.5q23 31 52.5 47.5t60.5 25.5t61.5 11t55.5 2h123v-717h-119q-98 0 -154.5 21.5t-87.5 75.5q-31 51 -37 114.5t-6 132.5zM944 184v717h123 q25 0 56.5 -2t62.5 -11t59.5 -25.5t50.5 -47.5q31 -43 41.5 -113.5t10.5 -173.5q0 -70 -6.5 -133t-36.5 -114q-31 -53 -87.5 -75t-154.5 -22h-119z" />
<glyph unicode="&#xf5;" horiz-adv-x="1069" d="M-20 0h282l273 401l272 -401h283l-416 557l389 528h-275l-253 -372l-254 372h-275l391 -528z" />
<glyph unicode="&#xf6;" horiz-adv-x="1210" d="M82 152q0 -31 6 -60t39 -57q29 -25 59.5 -30t59.5 -5h985v184h-154v901h-239v-901h-435q-12 0 -32.5 2t-32.5 15q-10 10 -13 27.5t-3 33.5v823h-240v-933z" />
<glyph unicode="&#xf7;" horiz-adv-x="1136" d="M61 762q0 -49 8.5 -109.5t43.5 -107.5q23 -31 51.5 -48.5t58 -26.5t59 -12t54.5 -3h479v-455h240v1085h-240v-446h-362q-33 0 -70 8t-61 45q-16 27 -18.5 59.5t-2.5 61.5v272h-240v-323z" />
<glyph unicode="&#xf8;" horiz-adv-x="1677" d="M82 164q0 -35 6 -65.5t33 -57.5q31 -31 70.5 -36t80.5 -5h1133q41 0 79 5t72 36q29 29 34 57.5t5 65.5v921h-239v-829q0 -14 -1 -28.5t-9 -24.5q-10 -12 -22.5 -15.5t-23.5 -3.5h-342v901h-239v-901h-340q-10 0 -23.5 3t-23.5 16q-8 10 -9 24.5t-1 28.5v829h-240v-921z " />
<glyph unicode="&#xf9;" horiz-adv-x="1751" d="M82 164q0 -29 5 -62.5t34 -62.5q33 -33 71.5 -36t79.5 -3h1479v184h-156v901h-239v-901h-398v901h-239v-901h-342q-14 0 -25.5 2t-21.5 17q-8 10 -8 53v829h-240v-921z" />
<glyph unicode="&#xfa;" horiz-adv-x="1257" d="M0 901h139q14 0 27.5 -2t23.5 -16q8 -10 9.5 -24.5t1.5 -27.5v-665q0 -33 5 -65.5t36 -61.5q29 -29 60.5 -34t59.5 -5h551q51 0 106.5 8t102.5 49q29 27 45.5 62t24.5 71.5t10 72.5t2 63q0 66 -11 137.5t-60 128.5q-45 51 -98.5 66.5t-104.5 15.5h-490v258q0 23 -7 58.5 t-36 62.5q-18 16 -44.5 24t-49.5 8h-303v-184zM440 260v229h389q20 0 48 -5t51 -29q23 -25 25.5 -59t2.5 -56q0 -29 -4 -63.5t-24 -57.5q-23 -25 -51.5 -30t-55.5 -5h-313q-14 0 -28.5 3t-24.5 14q-12 12 -13.5 29.5t-1.5 29.5z" />
<glyph unicode="&#xfb;" horiz-adv-x="1536" d="M82 166q0 -33 5 -65.5t36 -61.5q29 -29 60.5 -34t60.5 -5h551q51 0 106 8t103 49q29 27 45 62t24 71.5t10 72.5t2 63q0 66 -11 137.5t-60 128.5q-45 51 -98.5 66.5t-104.5 15.5h-489v411h-240v-919zM322 260v229h389q20 0 47.5 -5t50.5 -29q23 -25 26 -59t3 -56 q0 -29 -4.5 -63.5t-24.5 -57.5q-23 -25 -51.5 -30t-55.5 -5h-313q-14 0 -28.5 3t-24.5 14q-12 12 -13 29.5t-1 29.5zM1214 0h240v1085h-240v-1085z" />
<glyph unicode="&#xfc;" horiz-adv-x="1138" d="M82 166q0 -33 5 -65.5t36 -61.5q29 -29 60.5 -34t60.5 -5h551q51 0 106 8t103 49q29 27 45 62t24 71.5t10 72.5t2 63q0 66 -11 137.5t-60 128.5q-45 51 -98.5 66.5t-104.5 15.5h-489v411h-240v-919zM322 260v229h389q20 0 47.5 -5t50.5 -29q23 -25 26 -59t3 -56 q0 -29 -4.5 -63.5t-24.5 -57.5q-23 -25 -51.5 -30t-55.5 -5h-313q-14 0 -28.5 3t-24.5 14q-12 12 -13 29.5t-1 29.5z" />
<glyph unicode="&#xfd;" horiz-adv-x="1069" d="M53 0h490q55 0 108.5 4t101.5 18.5t90 41t77 71.5q47 63 71.5 165.5t24.5 262.5q0 152 -25.5 249t-79.5 157q-18 20 -43.5 40.5t-63.5 37t-87 27.5t-113 11h-536v-184h415q23 0 53.5 -2t63.5 -10t64.5 -23.5t54.5 -42.5q27 -33 39 -79t10 -85h-686v-184h688q0 -43 -8 -93 t-25 -83q-33 -63 -99.5 -89t-158.5 -26h-426v-184z" />
<glyph unicode="&#xfe;" horiz-adv-x="1673" d="M82 0h240v467h159q-2 -33 1 -78t17.5 -94t41 -99.5t73.5 -91.5q45 -41 98.5 -64.5t111 -34.5t114.5 -14t111 -3q49 0 107 3t117.5 14t114 34.5t97.5 64.5q66 63 100.5 179t34.5 270q0 168 -39 273.5t-96 158.5q-43 39 -97.5 62.5t-112.5 34t-117.5 13.5t-108.5 3 q-53 0 -110.5 -3t-115 -13.5t-111 -34t-98.5 -62.5q-74 -66 -101.5 -154t-31.5 -180h-159v434h-240v-1085zM729 530q0 33 2 74t8 82t17.5 78t29.5 61q25 33 59 50.5t70.5 25.5t71.5 10t62 2t61.5 -2t71.5 -10t71.5 -25.5t59.5 -50.5q6 -8 16 -26.5t19.5 -50t16.5 -82 t7 -119.5q0 -72 -7 -121t-16.5 -82t-19.5 -51.5t-18 -28.5q-25 -33 -58.5 -51t-68.5 -27.5t-71 -11.5t-64 -2q-31 0 -66 2t-70.5 11.5t-67.5 27.5t-57 51t-42 93t-17 173z" />
<glyph unicode="&#xff;" horiz-adv-x="1163" d="M41 0h281l337 385q16 18 28.5 44t12.5 67q0 33 -12 51t-29.5 27.5t-35 11.5t-27.5 2h-145q-31 0 -57.5 5t-47.5 34q-10 16 -16 42.5t-6 80.5q0 29 4 60.5t22 53.5q14 16 39 26.5t53 10.5h314q16 0 36.5 -2t32.5 -14t14.5 -37t2.5 -31v-817h239v887q0 27 -7 76t-44 84 q-31 29 -69.5 33.5t-65.5 4.5h-553q-68 0 -113 -20.5t-73 -48.5q-53 -53 -66.5 -124t-13.5 -130q0 -55 10 -129t51 -129q23 -31 69 -61.5t128 -30.5h57q6 0 13.5 -1t7.5 -12q0 -10 -15 -24z" />
<glyph unicode="&#x152;" horiz-adv-x="2471" d="M123 0h270v631h725v-414q0 -43 7.5 -83t39.5 -77q31 -35 64 -46t61 -11h752q66 0 115 14.5t82.5 34t54 41t30.5 35.5q23 31 36.5 68.5t19.5 77.5t8 78t2 71q0 72 -8 145.5t-45 141.5q-14 27 -36 52t-54.5 44.5t-77.5 31t-107 11.5h-673v588h-271v-588h-725v588h-270 v-1434zM1389 303v328h542q39 0 71 -2t54 -19q20 -14 31.5 -35.5t16.5 -47t6 -52t1 -49.5q0 -35 -5 -87t-44 -85q-16 -14 -41.5 -22.5t-51 -11.5t-45 -4t-23.5 -1h-422h-43q-20 0 -35 23q-6 10 -9 29.5t-3 35.5z" />
<glyph unicode="&#x153;" horiz-adv-x="1896" d="M82 0h240v471h518v-305q0 -8 1 -23.5t5 -34t11 -37t22 -32.5q29 -29 64.5 -34t57.5 -5h562q49 0 100 6t98 51q29 27 45.5 63t24.5 72.5t10 71.5t2 62q0 61 -12 132.5t-68 127.5q-29 29 -72.5 49t-111.5 20h-500v430h-239v-430h-518v430h-240v-1085zM1079 260v211h387 q27 0 53.5 -4t47.5 -25q20 -23 24 -50t4 -56q0 -31 -4 -62.5t-26 -54.5q-23 -25 -49.5 -30t-49.5 -5h-321q-8 0 -25.5 2t-27.5 15q-4 4 -8.5 17t-4.5 42z" />
<glyph unicode="&#x178;" horiz-adv-x="1161" d="M82 143q0 -23 5 -51.5t28 -52.5q27 -29 56.5 -34t61.5 -5h226v-360h246v360h225q35 0 62.5 5t54.5 34q23 25 27.5 52.5t4.5 51.5v942h-239v-839q0 -14 -1 -28.5t-10 -22.5q-8 -8 -18 -9.5t-20 -1.5h-418q-10 0 -21.5 1t-19.5 10q-8 8 -9 22t-1 29v839h-240v-942z" />
<glyph unicode="&#x2c6;" horiz-adv-x="4" d="M-782 1298l120 -151l332 270l-123 154z" />
<glyph unicode="&#x2dc;" horiz-adv-x="4" d="M-940 1667l121 -151l332 270l-123 153z" />
<glyph unicode="&#x2000;" horiz-adv-x="969" />
<glyph unicode="&#x2001;" horiz-adv-x="1939" />
<glyph unicode="&#x2002;" horiz-adv-x="969" />
<glyph unicode="&#x2003;" horiz-adv-x="1939" />
<glyph unicode="&#x2004;" horiz-adv-x="646" />
<glyph unicode="&#x2005;" horiz-adv-x="484" />
<glyph unicode="&#x2006;" horiz-adv-x="323" />
<glyph unicode="&#x2007;" horiz-adv-x="323" />
<glyph unicode="&#x2008;" horiz-adv-x="242" />
<glyph unicode="&#x2009;" horiz-adv-x="387" />
<glyph unicode="&#x200a;" horiz-adv-x="107" />
<glyph unicode="&#x2010;" horiz-adv-x="894" d="M82 446h731v211h-731v-211z" />
<glyph unicode="&#x2011;" horiz-adv-x="894" d="M82 446h731v211h-731v-211z" />
<glyph unicode="&#x2012;" horiz-adv-x="894" d="M82 446h731v211h-731v-211z" />
<glyph unicode="&#x2013;" horiz-adv-x="1171" d="M82 446h1008v211h-1008v-211z" />
<glyph unicode="&#x2014;" horiz-adv-x="2226" d="M123 446h1980v211h-1980v-211z" />
<glyph unicode="&#x2018;" horiz-adv-x="595" d="M123 1403l258 -412l194 119l-274 401z" />
<glyph unicode="&#x2019;" horiz-adv-x="534" d="M0 1100l178 -109l275 402l-195 118z" />
<glyph unicode="&#x201a;" horiz-adv-x="575" d="M0 -129l178 -109l275 402l-193 119z" />
<glyph unicode="&#x201c;" horiz-adv-x="1013" d="M20 1403l259 -412l192 119l-272 401zM438 1403l260 -412l193 119l-275 401z" />
<glyph unicode="&#x201d;" horiz-adv-x="1013" d="M20 1100l179 -109l274 402l-192 118zM440 1100l176 -109l275 402l-193 118z" />
<glyph unicode="&#x201e;" horiz-adv-x="993" d="M0 -129l178 -109l273 402l-193 119zM418 -129l178 -109l274 402l-192 119z" />
<glyph unicode="&#x2022;" horiz-adv-x="1009" d="M123 715q0 -78 29.5 -147.5t82 -122t122 -83t149.5 -30.5q78 0 147.5 30.5t121.5 83t82 122t30 147.5q0 80 -30 148.5t-82 120.5t-121.5 82t-147.5 30q-80 0 -149.5 -30t-122 -82t-82 -121.5t-29.5 -147.5z" />
<glyph unicode="&#x2026;" horiz-adv-x="1359" d="M123 0h250v264h-250v-264zM555 0h250v264h-250v-264zM987 0h250v264h-250v-264z" />
<glyph unicode="&#x202f;" horiz-adv-x="387" />
<glyph unicode="&#x2039;" horiz-adv-x="733" d="M123 575q0 -45 14.5 -74.5t28.5 -49.5l280 -390l164 121l-231 332q-10 12 -17.5 28.5t-7.5 32.5q0 20 9.5 36t15.5 26l231 332l-164 123l-280 -392q-14 -20 -28.5 -49.5t-14.5 -75.5z" />
<glyph unicode="&#x203a;" horiz-adv-x="733" d="M123 182l164 -121l280 390q14 20 28.5 49.5t14.5 74.5t-14 75t-29 50l-280 392l-164 -123l231 -332q6 -10 15.5 -25.5t9.5 -36.5q0 -16 -7 -32.5t-18 -28.5z" />
<glyph unicode="&#x205f;" horiz-adv-x="484" />
<glyph unicode="&#x20ac;" horiz-adv-x="1693" d="M-20 1219h350v-1219h270v637h584q25 0 57.5 -7t56.5 -36q29 -35 32 -86t3 -90q0 -55 -5 -96t-23 -64q-27 -33 -69 -38t-77 -5h-217v-215h365q59 0 122.5 15.5t110.5 76.5q27 35 41 86t21.5 102.5t8.5 93.5t1 58q0 125 -21.5 190.5t-44.5 98.5q-27 37 -59.5 58.5 t-66.5 32.5t-66.5 14t-59.5 3h-694v390h602v215h-1222v-215z" />
<glyph unicode="&#x2122;" horiz-adv-x="2127" d="M0 1272h311v-662h183v662h311v164h-805v-164zM913 610h174v615q0 16 6.5 19t10.5 3q6 0 12 -8t10 -16l199 -529q25 -66 60.5 -79t72.5 -13q68 0 92.5 25.5t40.5 66.5l201 529q4 8 10 16t13 8q4 0 10 -3t6 -19v-615h174v738q0 43 -35 70.5t-121 27.5q-51 0 -99 -16.5 t-69 -69.5l-202 -545q-4 -6 -9.5 -16.5t-11.5 -10.5t-11 10.5t-9 16.5l-203 545q-16 41 -53 63.5t-115 22.5q-76 0 -115 -28.5t-39 -69.5v-738z" />
<glyph unicode="&#x25fc;" horiz-adv-x="1085" d="M0 0v1085h1085v-1085h-1085z" />
</font>
</defs>
</svg>
