<svg width="52" height="52" viewBox="0 0 52 52" fill="none" xmlns="http://www.w3.org/2000/svg">
<path d="M50.6885 18.648L48.9954 18.6565L49.0038 16.7749C49.0038 16.5836 48.9279 16.398 48.7929 16.263C48.6579 16.128 48.4751 16.0521 48.2838 16.0521H48.281L46.3994 16.0633L46.4079 14.1789C46.4079 13.9877 46.3319 13.8021 46.1969 13.6671C46.0619 13.5321 45.8791 13.4561 45.6879 13.4561H45.6851L43.8007 13.4674L43.8091 11.583C43.8091 11.3918 43.7332 11.2061 43.5982 11.0711C43.4632 10.9361 43.2804 10.863 43.0863 10.8602L41.2019 10.8686L41.2104 8.98424C41.2104 8.79018 41.1344 8.60736 40.9994 8.47236C40.8644 8.33736 40.6816 8.26142 40.4904 8.26142H40.4875L38.606 8.27267L38.6144 6.38829C38.6144 6.19423 38.5385 6.01141 38.4035 5.87641C38.2685 5.74141 38.08 5.66266 37.8916 5.66547L36.0072 5.67391L36.0156 3.78953C36.0156 3.59828 35.9397 3.41265 35.8047 3.27765C35.6697 3.14265 35.4869 3.06671 35.2956 3.06671H35.2928L33.4056 3.07234L33.4113 1.37357C33.4928 1.12325 33.4366 0.836385 33.2369 0.636721C32.9556 0.355468 32.5 0.355468 32.2187 0.636721L13.2374 19.5986C12.8127 18.1558 11.879 16.9436 10.5824 16.1646C9.21272 15.3462 7.60676 15.1099 6.05992 15.498C2.86772 16.3024 0.9243 19.5537 1.72588 22.7456C2.114 24.2924 3.0843 25.5946 4.45122 26.4131C4.88716 26.6718 5.3456 26.8687 5.82088 27.0093L0.539028 32.2912C0.263404 32.5724 0.263404 33.0252 0.544652 33.3036C0.744337 33.5033 1.03403 33.5624 1.2815 33.478L2.97465 33.4696L2.96621 35.3512C2.96621 35.5424 3.04215 35.728 3.17715 35.863C3.31215 35.998 3.49497 36.074 3.68621 36.074H3.68903L5.5706 36.0627L5.56217 37.9471C5.56217 38.1412 5.6381 38.324 5.7731 38.459C5.9081 38.594 6.0881 38.6418 6.28498 38.6699L8.16656 38.6615L8.15812 40.5459C8.15812 40.7371 8.23406 40.9227 8.36906 41.0577C8.50406 41.1927 8.68687 41.2687 8.87812 41.2687H8.88093L10.7653 41.2603V43.1502C10.7653 43.3443 10.8413 43.5271 10.9763 43.6621C11.1113 43.7971 11.2941 43.8731 11.4853 43.8731H11.4881L13.3725 43.8618L13.3641 45.7462C13.3641 45.9374 13.44 46.1231 13.575 46.2581C13.71 46.3931 13.8928 46.469 14.0841 46.469H14.0869L15.9713 46.4606L15.9628 48.3478C15.9628 48.539 16.0388 48.7246 16.1738 48.8596C16.3088 48.9946 16.4916 49.0706 16.6828 49.0706H16.6856L18.5728 49.065L18.57 50.775C18.4997 51.0168 18.5644 51.2868 18.7613 51.4809C18.8963 51.6187 19.0791 51.6862 19.2647 51.6862C19.4419 51.6862 19.6219 51.6215 19.7625 51.5006L19.7794 51.4837C19.785 51.4781 19.7878 51.4753 19.7935 51.4697L51.4231 19.8401C51.7043 19.5588 51.7043 19.1032 51.4231 18.8219C51.2262 18.6222 50.9393 18.566 50.689 18.6475L50.6885 18.648ZM3.12391 22.3971C2.51359 19.9755 3.99014 17.5061 6.41171 16.8958C6.78296 16.803 7.15137 16.758 7.51706 16.758C9.54206 16.758 11.3955 18.1305 11.913 20.1836C12.5233 22.6052 11.0468 25.0746 8.62521 25.6849C6.19802 26.2952 3.73425 24.8214 3.12398 22.3971L3.12391 22.3971ZM20.0158 49.2113L20.0186 48.3451C20.0186 48.1538 19.9427 47.9682 19.8077 47.8332C19.6727 47.6982 19.4899 47.6223 19.2986 47.6223H19.2958L17.4086 47.6279L17.4171 45.7407C17.4171 45.5494 17.3411 45.3638 17.2061 45.2288C17.0711 45.0938 16.8883 45.0179 16.6971 45.0179H16.6943L14.8099 45.0263L14.8183 43.1419C14.8183 42.9479 14.7424 42.7651 14.6074 42.6301C14.4724 42.4951 14.2896 42.4191 14.0983 42.4191H14.0955L12.2111 42.4304L12.2196 40.546C12.2196 40.3547 12.1436 40.1691 12.0086 40.0341C11.8736 39.8991 11.6908 39.8232 11.4996 39.8232H11.4967L9.61236 39.8316L9.6208 37.9472C9.6208 37.7532 9.54486 37.5703 9.40986 37.4353C9.27486 37.3003 9.09204 37.2244 8.9008 37.2244H8.89798L7.01641 37.2328L7.02485 35.3485C7.02485 35.1544 6.94891 34.9716 6.81391 34.8366C6.67891 34.7016 6.49609 34.6256 6.30485 34.6256H6.30203L4.42046 34.6369L4.42889 32.7525C4.42889 32.5613 4.35296 32.3756 4.21796 32.2406C4.08296 32.1056 3.90014 32.0297 3.70889 32.0297H3.70327L2.84546 32.0353L7.61827 27.2625C8.07108 27.2541 8.5295 27.2006 8.9795 27.0853C10.5264 26.6972 11.8285 25.7269 12.647 24.36C13.1927 23.4459 13.4739 22.4278 13.488 21.3928L31.9603 2.92048L31.9575 3.78671C31.9575 3.97796 32.0334 4.16359 32.1684 4.29859C32.3034 4.43359 32.4863 4.50953 32.6775 4.50953H32.6803L34.5675 4.5039L34.5591 6.39109C34.5591 6.58234 34.635 6.76797 34.77 6.90297C34.905 7.03797 35.0878 7.11391 35.2791 7.11391H35.2819L37.1663 7.10547L37.1578 8.98985C37.1578 9.18391 37.2338 9.36673 37.3688 9.50173C37.5038 9.63673 37.6866 9.71267 37.8778 9.71267H37.8806L39.7622 9.70142L39.7538 11.5858C39.7538 11.7799 39.8297 11.9627 39.9647 12.0977C40.0997 12.2327 40.2882 12.303 40.4766 12.3086L42.361 12.3002L42.3525 14.1846C42.3525 14.3758 42.4285 14.5614 42.5635 14.6964C42.6985 14.8314 42.8813 14.9074 43.0725 14.9074H43.0754L44.9597 14.8961L44.9513 16.7805C44.9513 16.9718 45.0272 17.1574 45.1622 17.2924C45.2972 17.4274 45.4801 17.5033 45.6713 17.5033H45.6741L47.5557 17.4921L47.5473 19.3765C47.5473 19.5677 47.6232 19.7533 47.7582 19.8883C47.8932 20.0233 48.0873 20.0852 48.2729 20.0993L49.1307 20.0936L20.0158 49.2113Z" fill="white"/>
<path d="M15.7369 35.2334C15.4557 34.9521 15.0001 34.9521 14.7188 35.2334C14.4375 35.5146 14.4375 35.9702 14.7188 36.2515L20.8134 42.3462C20.9541 42.4868 21.1369 42.5572 21.3225 42.5572C21.5081 42.5572 21.6909 42.4868 21.8316 42.3462C22.1128 42.065 22.1128 41.6094 21.8316 41.3281L15.7369 35.2334Z" fill="white"/>
<path d="M10.8834 30.3823C10.6021 30.1011 10.1465 30.1011 9.86523 30.3823C9.58399 30.6636 9.58399 31.1192 9.86523 31.4005L11.9043 33.4395C12.0449 33.5801 12.2277 33.6505 12.4133 33.6505C12.599 33.6505 12.7818 33.5801 12.9224 33.4395C13.2036 33.1583 13.2036 32.7027 12.9224 32.4214L10.8834 30.3823Z" fill="white"/>
<path d="M19.8365 31.1387C19.5553 30.8574 19.0997 30.8574 18.8184 31.1387C18.5371 31.4199 18.5371 31.8755 18.8184 32.1568L24.913 38.2515C25.0536 38.3921 25.2365 38.4624 25.4221 38.4624C25.6077 38.4624 25.7905 38.3921 25.9311 38.2515C26.2124 37.9702 26.2124 37.5146 25.9311 37.2333L19.8365 31.1387Z" fill="white"/>
<path d="M16.513 29.5528C16.6986 29.5528 16.8814 29.4825 17.0221 29.3419C17.3033 29.0606 17.3033 28.605 17.0221 28.3237L14.983 26.2847C14.7018 26.0034 14.2462 26.0034 13.9649 26.2847C13.6836 26.5659 13.6836 27.0215 13.9649 27.3028L16.0039 29.3419C16.1445 29.4825 16.3273 29.5528 16.513 29.5528H16.513Z" fill="white"/>
<path d="M23.9303 27.0405C23.649 26.7593 23.1934 26.7593 22.9121 27.0405C22.6309 27.3218 22.6309 27.7774 22.9121 28.0587L29.0068 34.1533C29.1474 34.294 29.3302 34.3643 29.5158 34.3643C29.7015 34.3643 29.8843 34.294 30.0249 34.1533C30.3061 33.8721 30.3061 33.4165 30.0249 33.1352L23.9303 27.0405Z" fill="white"/>
<path d="M20.0996 25.2437C20.2403 25.3843 20.4231 25.4547 20.6087 25.4547C20.7943 25.4547 20.9771 25.3843 21.1178 25.2437C21.399 24.9625 21.399 24.5069 21.1178 24.2256L19.0787 22.1865C18.7975 21.9053 18.3419 21.9053 18.0606 22.1865C17.7793 22.4678 17.7793 22.9234 18.0606 23.2047L20.0996 25.2437Z" fill="white"/>
<path d="M28.0289 22.9429C27.7477 22.6616 27.2921 22.6616 27.0108 22.9429C26.7295 23.2241 26.7295 23.6797 27.0108 23.961L33.1054 30.0557C33.246 30.1963 33.4288 30.2666 33.6145 30.2666C33.8001 30.2666 33.9829 30.1963 34.1235 30.0557C34.4048 29.7744 34.4048 29.3188 34.1235 29.0375L28.0289 22.9429Z" fill="white"/>
<path d="M24.1953 21.149C24.336 21.2896 24.5188 21.3599 24.7044 21.3599C24.89 21.3599 25.0728 21.2896 25.2135 21.149C25.4947 20.8677 25.4947 20.4121 25.2135 20.1308L23.1744 18.0918C22.8932 17.8105 22.4376 17.8105 22.1563 18.0918C21.875 18.373 21.875 18.8286 22.1563 19.1099L24.1953 21.149Z" fill="white"/>
<path d="M32.1266 18.8477C31.8453 18.5664 31.3897 18.5664 31.1084 18.8477C30.8271 19.1289 30.8272 19.5845 31.1084 19.8658L37.2031 25.9605C37.3437 26.1011 37.5265 26.1714 37.7121 26.1714C37.8978 26.1714 38.0806 26.1011 38.2212 25.9605C38.5024 25.6792 38.5024 25.2236 38.2212 24.9423L32.1266 18.8477Z" fill="white"/>
<path d="M28.2939 17.0508C28.4346 17.1915 28.6174 17.2618 28.803 17.2618C28.9886 17.2618 29.1714 17.1915 29.3121 17.0508C29.5933 16.7696 29.5933 16.314 29.3121 16.0327L27.273 13.9936C26.9918 13.7124 26.5362 13.7124 26.2549 13.9936C25.9736 14.2749 25.9736 14.7305 26.2549 15.0118L28.2939 17.0508Z" fill="white"/>
<path d="M36.2223 14.75C35.941 14.4688 35.4854 14.4688 35.2041 14.75C34.9228 15.0312 34.9229 15.4868 35.2041 15.7681L41.2988 21.8628C41.4394 22.0034 41.6222 22.0737 41.8078 22.0737C41.9935 22.0737 42.1763 22.0034 42.3169 21.8628C42.5981 21.5816 42.5981 21.126 42.3169 20.8447L36.2223 14.75Z" fill="white"/>
<path d="M32.3897 12.9556C32.5303 13.0963 32.7131 13.1666 32.8987 13.1666C33.0844 13.1666 33.2672 13.0963 33.4078 12.9556C33.689 12.6744 33.689 12.2188 33.4078 11.9375L31.3688 9.89843C31.0875 9.61719 30.6319 9.61719 30.3506 9.89843C30.0693 10.1797 30.0694 10.6353 30.3506 10.9166L32.3897 12.9556Z" fill="white"/>
<path d="M4.40752 12.835C5.29348 13.3665 6.28629 13.6365 7.29314 13.6365C7.75438 13.6365 8.22129 13.5803 8.67972 13.465C10.1113 13.105 11.3179 12.2162 12.0941 10.9674C12.9463 11.4512 13.8969 11.7156 14.8673 11.7156C15.3285 11.7156 15.7926 11.6593 16.251 11.544C17.7135 11.1756 18.9426 10.2616 19.7188 8.9678C20.4923 7.67403 20.7144 6.15533 20.346 4.6928C19.9776 3.23026 19.0635 2.00122 17.7698 1.2278C16.476 0.454372 14.9601 0.229372 13.4948 0.600611C12.0688 0.957796 10.8538 1.8578 10.0832 3.09246C8.8654 2.40058 7.38882 2.15308 5.92355 2.52434C2.90574 3.28372 1.06916 6.35776 1.82855 9.37557C2.19698 10.8296 3.11389 12.0615 4.40759 12.835L4.40752 12.835ZM13.846 1.99248C14.9316 1.71686 16.0622 1.8856 17.0298 2.45936C17.9944 3.03592 18.6751 3.95278 18.9479 5.04121C19.2235 6.12963 19.0548 7.26025 18.4811 8.22497C17.9045 9.18963 16.9876 9.87032 15.8992 10.1431C14.7995 10.4216 13.652 10.2387 12.6902 9.65375C12.9939 8.67498 13.0305 7.63156 12.7745 6.6106C12.5102 5.56436 11.9645 4.66156 11.2417 3.9584C11.8099 2.98244 12.7436 2.26806 13.8461 1.99244L13.846 1.99248ZM3.69256 5.83433C4.26912 4.86967 5.18599 4.18898 6.27441 3.91618C6.61753 3.82899 6.96066 3.78961 7.30099 3.78961C9.17975 3.78961 10.8982 5.06365 11.3763 6.96777C11.652 8.05619 11.4832 9.18681 10.9095 10.1515C10.3329 11.1162 9.41603 11.7969 8.32761 12.0697C7.23918 12.3425 6.10857 12.1766 5.14384 11.6028C4.17918 11.0262 3.49849 10.1094 3.22568 9.02096C2.95006 7.92692 3.11881 6.79631 3.69256 5.83438V5.83433Z" fill="white"/>
<path d="M48.3683 34.1591C47.142 33.2929 45.6514 32.9525 44.1692 33.2057C42.687 33.4588 41.3933 34.2716 40.5242 35.5007C39.7002 36.6623 39.3598 38.0629 39.5427 39.4663C39.4105 39.4804 39.2755 39.4916 39.1433 39.5141C37.6611 39.7672 36.3673 40.5801 35.4983 41.8091C34.6292 43.0353 34.2917 44.526 34.5449 46.0081C35.0117 48.7475 37.3995 50.6881 40.0883 50.6881C40.4033 50.6881 40.7183 50.6628 41.0361 50.6066C44.0145 50.0975 46.0423 47.3216 45.6627 44.3488C45.7948 44.3347 45.927 44.3207 46.062 44.2982C47.5442 44.045 48.838 43.2322 49.707 42.0032C50.5761 40.7769 50.9136 39.2863 50.6605 37.8041C50.4073 36.3219 49.5945 35.0281 48.3683 34.1591V34.1591ZM40.7968 49.1833C38.5214 49.5687 36.353 48.0358 35.9649 45.7605C35.7765 44.6581 36.0296 43.5499 36.6737 42.6359C37.3205 41.7218 38.2824 41.1171 39.3849 40.9287C39.5593 40.9006 39.7336 40.8837 39.9108 40.8781C40.3102 41.8596 40.9768 42.7118 41.8627 43.339C42.5742 43.8425 43.3786 44.1687 44.2167 44.3037C44.2195 44.3205 44.2111 44.3346 44.2139 44.3515C44.6048 46.6268 43.0721 48.7953 40.7967 49.1833L40.7968 49.1833ZM48.531 41.1705C47.8841 42.0845 46.9222 42.6892 45.8198 42.8777C44.7201 43.0661 43.6091 42.813 42.6951 42.1689C41.7811 41.522 41.1763 40.5601 40.9879 39.4577C40.7995 38.3552 41.0526 37.247 41.6967 36.333C42.3435 35.419 43.3054 34.8142 44.4079 34.6258C44.647 34.5836 44.886 34.5639 45.1223 34.5639C45.9801 34.5639 46.8182 34.8283 47.5326 35.3346C48.4467 35.9814 49.0514 36.9433 49.2398 38.0458C49.4282 39.1483 49.1779 40.2564 48.5311 41.1704L48.531 41.1705Z" fill="white"/>
</svg>
