<svg width="52" height="52" viewBox="0 0 60 55" fill="none" xmlns="http://www.w3.org/2000/svg">
<path d="M59.1402 10.1035L59.0518 10.1918L59.1402 10.1035C58.9933 9.95666 58.7944 9.87402 58.5864 9.87402H1.31841C0.887139 9.87402 0.535156 10.2228 0.535156 10.6573V22.8402C0.535156 23.2747 0.887139 23.6235 1.31841 23.6235H58.5864C58.7944 23.6235 58.9933 23.5408 59.1402 23.394C59.287 23.2472 59.3696 23.0483 59.3696 22.8402V10.6573C59.3696 10.4492 59.287 10.2503 59.1402 10.1035ZM57.8031 11.4405V22.057H2.10166V11.4405H57.8031Z" fill="white" stroke="white" stroke-width="0.25"/>
<path d="M56.7054 53.8506C56.852 53.7038 56.9344 53.5051 56.9344 53.2972V22.8399C56.9344 22.6318 56.8518 22.4329 56.705 22.2861C56.5582 22.1393 56.3593 22.0566 56.1512 22.0566H3.75298C3.32139 22.0566 2.96973 22.4083 2.96973 22.8399V53.2972C2.96973 53.7317 3.32171 54.0805 3.75298 54.0805H56.1512C56.3579 54.0805 56.5575 54.0013 56.7054 53.8506ZM56.7054 53.8506C56.7056 53.8504 56.7057 53.8503 56.7059 53.8501L56.6166 53.7626L56.705 53.851C56.7051 53.8509 56.7053 53.8507 56.7054 53.8506ZM55.3679 23.6231V52.514H4.53623V23.6231H55.3679Z" fill="white" stroke="white" stroke-width="0.25"/>
<path d="M29.8941 53.8505C30.0407 53.7037 30.1231 53.505 30.1231 53.2971V1.51372C30.1231 1.08213 29.7715 0.730469 29.3399 0.730469C28.9083 0.730469 28.5566 1.08213 28.5566 1.51372V53.2971C28.5566 53.7316 28.9086 54.0804 29.3399 54.0804C29.5466 54.0804 29.7462 54.0012 29.8941 53.8505ZM29.8941 53.8505C29.8943 53.8503 29.8944 53.8501 29.8946 53.85L29.8053 53.7625L29.8937 53.8509C29.8938 53.8508 29.894 53.8506 29.8941 53.8505Z" fill="white" stroke="white" stroke-width="0.25"/>
<path d="M29.3402 11.4409H29.4316L29.4337 11.4345C29.7103 11.3993 29.9495 11.2195 30.0596 10.9582C30.1822 10.6698 30.1177 10.3332 29.8971 10.1096L23.4072 3.52705L23.4074 3.5268L23.4003 3.52057C23.0912 3.25133 22.6264 3.26654 22.3357 3.55401C22.0446 3.83923 22.0236 4.30401 22.2866 4.61593L22.2863 4.61618L22.2932 4.62312L28.7829 11.2054C28.7829 11.2054 28.783 11.2054 28.783 11.2055C28.9296 11.3551 29.1313 11.4409 29.3402 11.4409Z" fill="white" stroke="white" stroke-width="0.25"/>
<path d="M28.6176 10.9536C28.7259 11.2203 28.9697 11.4005 29.2497 11.4346L29.2505 11.4368L29.2897 11.4384L29.335 11.4403C29.3353 11.4404 29.3356 11.4404 29.336 11.4404C29.553 11.4493 29.7661 11.3668 29.9215 11.2144L29.9216 11.2144L36.6226 4.63183L36.6226 4.63185L36.6247 4.62973C36.9292 4.31604 36.9266 3.8155 36.6122 3.50716L36.6122 3.50716C36.3007 3.20175 35.7979 3.20784 35.4926 3.51832L28.7924 10.1001L28.7922 10.1002C28.5655 10.3238 28.4985 10.6605 28.6176 10.9536ZM29.3403 11.3155L29.3403 11.3155L29.3403 11.3155Z" fill="white" stroke="white" stroke-width="0.25"/>
</svg>
