<svg width="52" height="52" xmlns="http://www.w3.org/2000/svg" viewBox="0 0 43.26 43.11"><title>4</title><path d="M26.62,6.26c-.07.15-.15.37-.37.45a.65.65,0,0,1-.52.07,15.19,15.19,0,0,0-14.93,3.94A15.36,15.36,0,0,0,6.86,25.65a.65.65,0,0,1-.07.52.5.5,0,0,1-.45.3H6.19a.71.71,0,0,1-.67-.52A16.52,16.52,0,0,1,9.83,9.68,16.86,16.86,0,0,1,26.1,5.37a1,1,0,0,1,.45.37A1.26,1.26,0,0,1,26.62,6.26Z" fill="#fff"/><path d="M26.91,1.65a1,1,0,0,1-.37.45.65.65,0,0,1-.52.07,20.44,20.44,0,0,0-5.2-.74A19.34,19.34,0,0,0,2.18,25.95a.65.65,0,0,1-.07.52.76.76,0,0,1-.45.37H1.43a.71.71,0,0,1-.67-.52A20.71,20.71,0,0,1,6,6.11,21.06,21.06,0,0,1,26.47.76a1.55,1.55,0,0,1,.45.3A1.6,1.6,0,0,1,26.91,1.65ZM33.6,33.45a16.83,16.83,0,0,1-11.81,4.9,17.9,17.9,0,0,1-4.46-.59c-.15-.07-.37-.15-.45-.37a1.26,1.26,0,0,1-.07-.52,1.55,1.55,0,0,1,.3-.45,1.26,1.26,0,0,1,.52-.07,15.09,15.09,0,0,0,4.09.59,15.67,15.67,0,0,0,10.85-4.46A15.36,15.36,0,0,0,36.5,17.55a.65.65,0,0,1,.07-.52.5.5,0,0,1,.45-.3.65.65,0,0,1,.52.07.76.76,0,0,1,.37.45A16.77,16.77,0,0,1,33.6,33.45Z" fill="#fff"/><path d="M43.26,22.38A20.67,20.67,0,0,1,22.53,43.11,20.53,20.53,0,0,1,17,42.36a.69.69,0,0,1-.45-.89A.76.76,0,0,1,17.4,41,19.38,19.38,0,0,0,41.25,17.11a.65.65,0,0,1,.07-.52.76.76,0,0,1,.45-.37.81.81,0,0,1,.89.52v.07A28.4,28.4,0,0,1,43.26,22.38ZM32,16.36v-.15a.76.76,0,0,0-.74-.74c-3.71,0-4.23-2.75-4.31-2.9a.7.7,0,0,0-.67-.59H17.18a.65.65,0,0,0-.67.59,3.62,3.62,0,0,1-.74,1.49,4.63,4.63,0,0,1-3.57,1.41.8.8,0,0,0-.52.22.67.67,0,0,0-.22.52v.22a15.86,15.86,0,0,0,10,15.9c.07,0,.15.07.3.07a.45.45,0,0,0,.3-.07A16.11,16.11,0,0,0,32,16.36ZM21.71,30.85a14.44,14.44,0,0,1-8.84-14,5.39,5.39,0,0,0,4.83-3.42h8a5.29,5.29,0,0,0,4.83,3.42A14.44,14.44,0,0,1,21.71,30.85Z" fill="#fff"/></svg>