<svg width="47" height="47" viewBox="0 0 47 47" fill="none" xmlns="http://www.w3.org/2000/svg">
<path d="M12.5217 44.8914H12.0217V45.3914V46.1739C12.0217 46.3298 11.8949 46.4565 11.7391 46.4565C11.5833 46.4565 11.4565 46.3298 11.4565 46.1739V44.6087C11.4565 44.4529 11.5833 44.3261 11.7391 44.3261H33.6521C33.8079 44.3261 33.9347 44.4528 33.9347 44.6088C33.9347 44.7646 33.808 44.8914 33.6521 44.8914H12.5217Z" fill="black" stroke="#003E70"/>
<path d="M17.9999 19.8478C17.8465 19.8478 17.7212 19.7249 17.7174 19.5724V19.5652V14.8696C17.7174 14.7137 17.8441 14.587 18 14.587H21.1304C21.2862 14.587 21.4129 14.7137 21.4129 14.8696V19.5652C21.4129 19.721 21.2862 19.8478 21.1304 19.8478H17.9999ZM18.7825 15.1522H18.2825V15.6522V18.7826V19.2826H18.7825H20.3478H20.8478V18.7826V15.6522V15.1522H20.3478H18.7825Z" fill="black" stroke="#003E70"/>
<path d="M1.56516 10.4565H1.06516V10.9565V25.8261C1.06516 25.9819 0.938399 26.1087 0.782578 26.1087C0.626757 26.1087 0.5 25.9819 0.5 25.8261V10.1739C0.5 10.0181 0.626757 9.8913 0.782578 9.8913H10.1739C10.3297 9.8913 10.4565 10.018 10.4565 10.174C10.4565 10.3298 10.3297 10.4565 10.1739 10.4565H1.56516Z" fill="black" stroke="#003E70"/>
<path d="M39.1304 33.9348H38.6304V34.4348V37.5652V38.0652H39.1304H40.6957H41.1957V37.5652V34.4348V33.9348H40.6957H39.1304ZM38.3478 38.6304C38.1919 38.6304 38.0652 38.5036 38.0652 38.3478V33.6521C38.0652 33.4963 38.1919 33.3696 38.3478 33.3696H41.4782C41.634 33.3696 41.7607 33.4963 41.7607 33.6521V38.3478C41.7607 38.5036 41.634 38.6304 41.4782 38.6304H38.3478Z" fill="black" stroke="#003E70"/>
<path d="M3.6304 42.1818V41.7735L3.23037 41.6919C1.6744 41.3744 0.5 39.9948 0.5 38.3478L0.5 38.3478L0.500007 38.3454L0.500039 38.3386L0.500225 38.3142C0.500417 38.2933 0.500764 38.2633 0.501381 38.2248C0.502615 38.1477 0.504927 38.0368 0.509234 37.8968C0.517851 37.6168 0.534435 37.2212 0.566277 36.7488C0.630086 35.8023 0.754629 34.5563 0.996561 33.3186C1.24009 32.0728 1.59538 30.8745 2.10223 30C2.60996 29.1239 3.20411 28.6739 3.91307 28.6739C4.62201 28.6739 5.21615 29.1239 5.72386 30C6.23069 30.8745 6.58598 32.0728 6.8295 33.3186C7.07142 34.5563 7.19595 35.8023 7.25974 36.7488C7.29158 37.2211 7.30815 37.6168 7.31676 37.8968C7.32106 38.0367 7.32337 38.1477 7.3246 38.2247C7.32521 38.2633 7.32556 38.2933 7.32575 38.3142L7.32593 38.3385C7.32596 38.3446 7.32597 38.3473 7.32597 38.3473V38.3478C7.32597 39.9948 6.15157 41.3744 4.5956 41.6919L4.19556 41.7735V42.1818V46.1739C4.19556 46.3297 4.06881 46.4565 3.91298 46.4565C3.75716 46.4565 3.6304 46.3297 3.6304 46.1739V42.1818ZM4.69556 42.1818C6.47908 41.8179 7.82597 40.2378 7.82597 38.3478C7.82606 38.2461 7.78149 28.1739 3.91307 28.1739C0.044572 28.1739 0 38.2461 0 38.3478C0 40.2378 1.34688 41.8179 3.1304 42.1818V46.1739C3.1304 46.6059 3.48102 46.9565 3.91298 46.9565C4.34495 46.9565 4.69556 46.6059 4.69556 46.1739V42.1818ZM1.06525 38.3478C1.06525 39.9183 2.34251 41.1956 3.91307 41.1956C5.48364 41.1956 6.7609 39.9183 6.7609 38.3478C6.7609 36.3605 6.49482 34.1666 6.05924 32.4578C5.8423 31.6067 5.57654 30.8487 5.265 30.2918C5.1095 30.0138 4.92989 29.7627 4.71998 29.5757C4.50812 29.387 4.23611 29.239 3.91307 29.239C3.59004 29.239 3.31803 29.387 3.10617 29.5757C2.89626 29.7627 2.71665 30.0138 2.56115 30.2918C2.24961 30.8487 1.98385 31.6067 1.76691 32.4578C1.33133 34.1666 1.06525 36.3605 1.06525 38.3478Z" fill="black" stroke="#003E70"/>
<path d="M6.26083 24.5435H5.76083V25.0435V25.8261C5.76083 25.9819 5.63408 26.1087 5.47826 26.1087C5.32244 26.1087 5.19568 25.9819 5.19568 25.8261V24.2608C5.19568 24.105 5.32244 23.9783 5.47826 23.9783H8.60875C8.76456 23.9783 8.89127 24.105 8.89124 24.2608V24.2609V28.9566C8.89124 29.1124 8.76448 29.2392 8.60866 29.2392C8.45284 29.2392 8.32608 29.1124 8.32608 28.9566V25.0435V24.5435H7.82608H6.26083Z" fill="black" stroke="#003E70"/>
<path d="M39.1304 15.1523H38.6304V15.6523V18.7827V19.2827H39.1304H40.6957H41.1957V18.7827V15.6523V15.1523H40.6957H39.1304ZM41.4782 19.8479H38.3478C38.1919 19.8479 38.0652 19.7211 38.0652 19.5653V14.8697C38.0652 14.7139 38.1919 14.5871 38.3478 14.5871H41.4782C41.634 14.5871 41.7607 14.7139 41.7607 14.8697V19.5653C41.7607 19.7211 41.634 19.8479 41.4782 19.8479Z" fill="black" stroke="#003E70"/>
<path d="M8.89124 14.8694V14.8696V19.5652C8.89124 19.721 8.76448 19.8478 8.60866 19.8478H5.47826C5.32244 19.8478 5.19568 19.721 5.19568 19.5652V14.8696C5.19568 14.7137 5.32244 14.587 5.47826 14.587H8.60875C8.7646 14.587 8.89127 14.7137 8.89124 14.8694ZM5.76093 18.7826V19.2826H6.26093H7.82608H7.82617H8.32617V18.7826V15.6522V15.1522H7.82617H6.26093H5.76093V15.6522V18.7826Z" fill="black" stroke="#003E70"/>
<path d="M26.6086 15.1522H26.1086V15.6522V18.7826V19.2826H26.6086H28.1739H28.6739V18.7826V15.6522V15.1522H28.1739H26.6086ZM25.826 19.8478C25.6702 19.8478 25.5435 19.721 25.5435 19.5652V14.8696C25.5435 14.7137 25.6702 14.587 25.826 14.587H28.9564C29.1123 14.587 29.239 14.7137 29.239 14.8696V19.5652C29.239 19.721 29.1123 19.8478 28.9564 19.8478H25.826Z" fill="black" stroke="#003E70"/>
<path d="M39.4711 43.3602L39.4713 43.3595C39.6887 42.4211 40.5149 41.7609 41.4782 41.7609C42.4415 41.7609 43.2678 42.4211 43.4852 43.3595L43.4853 43.3602C43.5059 43.4497 43.5688 43.5233 43.6534 43.5574L43.6539 43.5576C43.7387 43.592 43.8363 43.5831 43.9144 43.533C44.7658 42.9846 45.8913 43.6428 45.8913 44.6087V44.6088C45.8912 45.3161 45.316 45.8913 44.6086 45.8913H38.3477C37.6404 45.8913 37.0652 45.3161 37.0652 44.6087C37.0652 43.9013 37.6404 43.3261 38.3477 43.3261C38.5985 43.3261 38.8341 43.3993 39.0423 43.5331M39.4711 43.3602L39.0423 43.5331M39.4711 43.3602C39.4505 43.4497 39.3876 43.5233 39.3031 43.5574L39.4904 44.021M39.4711 43.3602L39.4904 44.021M39.0423 43.5331C39.1201 43.583 39.2171 43.5921 39.3031 43.5574L39.4904 44.021M39.0423 43.5331L39.4904 44.021M45.8913 10.9565V10.4565H45.3913H36.7826C36.6268 10.4565 36.5 10.3297 36.5 10.1739C36.5 10.0181 36.6268 9.8913 36.7826 9.8913H46.1739C46.3297 9.8913 46.4565 10.0181 46.4565 10.1739V44.6087C46.4565 45.627 45.6269 46.4565 44.6086 46.4565H38.3479C37.3296 46.4565 36.5001 45.627 36.5001 44.6087C36.5001 43.5904 37.3296 42.7609 38.3479 42.7609C38.4544 42.7609 38.5598 42.7701 38.6628 42.7884L39.0141 42.8508L39.1873 42.5387C39.6405 41.7224 40.502 41.1956 41.4783 41.1956C42.4546 41.1956 43.3162 41.7224 43.7693 42.5387L43.9425 42.8508L44.2939 42.7884C44.3969 42.7701 44.5022 42.7609 44.6087 42.7609C44.816 42.7609 45.0192 42.803 45.2233 42.8758L45.8913 43.1142V42.4049V10.9565Z" fill="black" stroke="#003E70"/>
<path d="M26.6086 5.7609H26.1086V6.2609V9.3913V9.8913H26.6086H28.1739H28.6739V9.3913V6.2609V5.7609H28.1739H26.6086ZM28.9564 10.4565H25.826C25.6702 10.4565 25.5435 10.3298 25.5435 10.174V5.47832C25.5435 5.3225 25.6702 5.19574 25.826 5.19574H28.9564C29.1123 5.19574 29.239 5.3225 29.239 5.47832V10.174C29.239 10.3298 29.1123 10.4565 28.9564 10.4565Z" fill="black" stroke="#003E70"/>
<path d="M26.6086 24.5435H26.1086V25.0435V28.1739V28.6739H26.6086H28.1739H28.6739V28.1739V25.0435V24.5435H28.1739H26.6086ZM25.826 29.2391C25.6702 29.2391 25.5435 29.1123 25.5435 28.9565V24.2608C25.5435 24.105 25.6702 23.9783 25.826 23.9783H28.9564C29.1123 23.9783 29.239 24.105 29.239 24.2608V28.9565C29.239 29.1123 29.1123 29.2391 28.9564 29.2391H25.826Z" fill="black" stroke="#003E70"/>
<path d="M17.7174 10.1741V10.174V5.47832C17.7174 5.3225 17.8442 5.19574 18 5.19574H21.1304C21.2862 5.19574 21.413 5.3225 21.413 5.47832V10.174C21.413 10.3298 21.2862 10.4565 21.1304 10.4565H18C17.844 10.4565 17.7174 10.3298 17.7174 10.1741ZM18.7826 5.7609H18.2826V6.2609V9.3913V9.8913H18.7826H20.3478H20.8478V9.3913V6.2609V5.7609H20.3478H18.7826Z" fill="black" stroke="#003E70"/>
<path d="M23.1956 38.3479C23.1956 38.2836 23.2241 38.2051 23.2783 38.144C23.3813 38.052 23.5751 38.052 23.6781 38.144C23.7324 38.2052 23.7609 38.2837 23.7609 38.3479C23.7609 38.4115 23.733 38.4889 23.6801 38.5497C23.6191 38.6027 23.5417 38.6306 23.4782 38.6306C23.4146 38.6306 23.3372 38.6027 23.2765 38.5498C23.2234 38.4888 23.1956 38.4114 23.1956 38.3479Z" fill="black" stroke="#003E70"/>
<path d="M17.9999 29.2391C17.8465 29.2391 17.7212 29.1162 17.7174 28.9637V28.9565V24.2608C17.7174 24.105 17.8441 23.9783 18 23.9783H21.1304C21.2862 23.9783 21.4129 24.105 21.4129 24.2608V28.9565C21.4129 29.1123 21.2862 29.2391 21.1304 29.2391H17.9999ZM18.7825 24.5435H18.2825V25.0435V28.1739V28.6739H18.7825H20.3478H20.8478V28.1739V25.0435V24.5435H20.3478H18.7825Z" fill="black" stroke="#003E70"/>
<path d="M19.2826 34.4347V33.9347H18.7826H16.4348C16.279 33.9347 16.1522 33.808 16.1522 33.6521C16.1522 33.4963 16.279 33.3696 16.4348 33.3696H30.5217C30.6775 33.3696 30.8042 33.4963 30.8042 33.6521C30.8042 33.808 30.6775 33.9347 30.5217 33.9347H28.1738H27.6738V34.4347V41.4782C27.6738 41.634 27.5471 41.7608 27.3913 41.7608C27.2354 41.7608 27.1087 41.634 27.1087 41.4782V34.4347V33.9347H26.6087H20.3478H19.8478V34.4347V41.4782C19.8478 41.634 19.721 41.7608 19.5652 41.7608C19.4094 41.7608 19.2826 41.634 19.2826 41.4782V34.4347Z" fill="black" stroke="#003E70"/>
<path d="M39.1304 24.5435H38.6304V25.0435V28.1739V28.6739H39.1304H40.6957H41.1957V28.1739V25.0435V24.5435H40.6957H39.1304ZM38.3478 29.2391C38.1919 29.2391 38.0652 29.1123 38.0652 28.9565V24.2608C38.0652 24.105 38.1919 23.9783 38.3478 23.9783H41.4782C41.634 23.9783 41.7607 24.105 41.7607 24.2608V28.9565C41.7607 29.1123 41.634 29.2391 41.4782 29.2391H38.3478Z" fill="black" stroke="#003E70"/>
<path d="M14.0869 1.06516H13.5869V1.56516V41.4782C13.5869 41.634 13.4601 41.7608 13.3043 41.7608C13.1485 41.7608 13.0217 41.634 13.0217 41.4782V0.782578C13.0217 0.626758 13.1485 0.5 13.3043 0.5H33.6521C33.808 0.5 33.9347 0.626792 33.9347 0.782472V0.782578V41.4782C33.9347 41.634 33.8079 41.7608 33.6521 41.7608C33.4963 41.7608 33.3695 41.634 33.3695 41.4782V1.56516V1.06516H32.8695H14.0869Z" fill="black" stroke="#003E70"/>
</svg>
