<svg width="47" height="47" viewBox="0 0 47 47" fill="none" xmlns="http://www.w3.org/2000/svg">
<mask id="path-1-inside-1" fill="white">
<path d="M38.7219 15.0134H42.3938C42.9008 15.0134 43.3118 14.6023 43.3118 14.0954V13.1842H46.082C46.5889 13.1842 47 12.7732 47 12.2663V8.59439C47 8.08749 46.5889 7.67642 46.082 7.67642H43.3118V6.76525C43.3118 6.25834 42.9008 5.84728 42.3938 5.84728H38.7219C38.215 5.84728 37.804 6.25834 37.804 6.76525V7.67642H35.877V3.67188C35.877 3.41264 35.7674 3.16543 35.5752 2.99148L32.5344 0.23757C32.1847 -0.0791289 31.6519 -0.0792207 31.302 0.237479L28.8839 2.42702L26.4665 0.23757C26.1168 -0.0791289 25.5841 -0.0792207 25.2341 0.237479L22.8159 2.42702L20.3986 0.23757C20.0488 -0.0791289 19.5161 -0.0792207 19.1662 0.237479L16.7479 2.42693L14.3307 0.23757C13.9809 -0.0791289 13.4482 -0.0792207 13.0983 0.237479L10.6799 2.42693L8.26264 0.23757C7.91289 -0.0791289 7.38019 -0.0792207 7.03026 0.237479L3.98857 2.99138C3.79635 3.16543 3.68675 3.41264 3.68675 3.67188V7.67642H0.917969C0.411066 7.67642 0 8.08749 0 8.59439V12.2663C0 12.7732 0.411066 13.1842 0.917969 13.1842H3.68675V34.7565H0.917969C0.411066 34.7565 0 35.1676 0 35.6745V39.3463C0 39.8533 0.411066 40.2643 0.917969 40.2643H3.68675V43.3281C3.68675 43.5874 3.79635 43.8347 3.98857 44.0086L7.03026 46.7625C7.20514 46.9209 7.42582 47 7.6464 47C7.86699 47 8.08776 46.9208 8.26264 46.7624L10.68 44.5731L13.0984 46.7625C13.2733 46.9209 13.494 47 13.7145 47C13.9352 47 14.1559 46.9209 14.3308 46.7624L16.748 44.5731L19.1663 46.7625C19.3411 46.9209 19.5618 47 19.7824 47C20.003 47 20.2238 46.9208 20.3986 46.7624L22.816 44.573L25.2342 46.7625C25.4091 46.9209 25.6298 47 25.8504 47C26.071 47 26.2917 46.9208 26.4666 46.7624L28.884 44.573L31.3022 46.7625C31.4771 46.9209 31.6977 47 31.9183 47C32.1389 47 32.3597 46.9209 32.5346 46.7624L35.5754 44.0085C35.7676 43.8345 35.8772 43.5874 35.8772 43.3281V40.2643H37.8042V41.1755C37.8042 41.6824 38.2152 42.0935 38.7221 42.0935H42.394C42.901 42.0935 43.312 41.6824 43.312 41.1755V40.2643H46.082C46.5889 40.2643 47 39.8533 47 39.3463V35.6745C47 35.1676 46.5889 34.7565 46.082 34.7565H43.3118V33.8453C43.3118 33.3384 42.9008 32.9274 42.3938 32.9274H38.7219C38.215 32.9274 37.804 33.3384 37.804 33.8453V34.7565H35.877V13.1842H37.804V14.0954C37.804 14.6023 38.215 15.0134 38.7219 15.0134ZM43.3118 9.51236H45.1641V11.3483H43.3118V9.51236ZM39.6399 7.68321H41.4758V13.1774H39.6399V7.68321ZM3.68675 39.0562C3.66683 38.8463 3.66178 38.6373 3.66664 38.4284H1.83594V36.5924H3.68675V39.0562ZM3.68675 11.3483H1.83594V9.51236H3.68675V11.3483ZM9.7547 42.9341L7.64631 44.8437L5.52268 42.921V4.07909L7.64631 2.15631L9.7547 4.06587V42.9341ZM15.8227 42.9342L13.7145 44.8437L11.6051 42.9341V4.06587L13.7145 2.15631L15.8227 4.06578V42.9342ZM21.8906 42.9341L19.7822 44.8437L17.673 42.9341V4.06587L19.7822 2.15631L21.8906 4.06587V42.9341ZM27.9587 42.9341L25.8502 44.8437L23.741 42.934V4.06596L25.8502 2.15631L27.9587 4.06587V42.9341ZM34.041 42.921L31.918 44.8437L29.8089 42.934V4.06596L31.918 2.15631L34.041 4.07899V42.921ZM43.3118 36.5924H45.1641V38.4284H43.3118V36.5924ZM39.6399 34.7633H41.4758V40.2575H39.6399V34.7633ZM37.804 36.5924V38.4284H35.877V36.5924H37.804ZM35.877 11.3483V9.51236H37.804V11.3483H35.877Z"/>
</mask>
<path d="M38.7219 15.0134H42.3938C42.9008 15.0134 43.3118 14.6023 43.3118 14.0954V13.1842H46.082C46.5889 13.1842 47 12.7732 47 12.2663V8.59439C47 8.08749 46.5889 7.67642 46.082 7.67642H43.3118V6.76525C43.3118 6.25834 42.9008 5.84728 42.3938 5.84728H38.7219C38.215 5.84728 37.804 6.25834 37.804 6.76525V7.67642H35.877V3.67188C35.877 3.41264 35.7674 3.16543 35.5752 2.99148L32.5344 0.23757C32.1847 -0.0791289 31.6519 -0.0792207 31.302 0.237479L28.8839 2.42702L26.4665 0.23757C26.1168 -0.0791289 25.5841 -0.0792207 25.2341 0.237479L22.8159 2.42702L20.3986 0.23757C20.0488 -0.0791289 19.5161 -0.0792207 19.1662 0.237479L16.7479 2.42693L14.3307 0.23757C13.9809 -0.0791289 13.4482 -0.0792207 13.0983 0.237479L10.6799 2.42693L8.26264 0.23757C7.91289 -0.0791289 7.38019 -0.0792207 7.03026 0.237479L3.98857 2.99138C3.79635 3.16543 3.68675 3.41264 3.68675 3.67188V7.67642H0.917969C0.411066 7.67642 0 8.08749 0 8.59439V12.2663C0 12.7732 0.411066 13.1842 0.917969 13.1842H3.68675V34.7565H0.917969C0.411066 34.7565 0 35.1676 0 35.6745V39.3463C0 39.8533 0.411066 40.2643 0.917969 40.2643H3.68675V43.3281C3.68675 43.5874 3.79635 43.8347 3.98857 44.0086L7.03026 46.7625C7.20514 46.9209 7.42582 47 7.6464 47C7.86699 47 8.08776 46.9208 8.26264 46.7624L10.68 44.5731L13.0984 46.7625C13.2733 46.9209 13.494 47 13.7145 47C13.9352 47 14.1559 46.9209 14.3308 46.7624L16.748 44.5731L19.1663 46.7625C19.3411 46.9209 19.5618 47 19.7824 47C20.003 47 20.2238 46.9208 20.3986 46.7624L22.816 44.573L25.2342 46.7625C25.4091 46.9209 25.6298 47 25.8504 47C26.071 47 26.2917 46.9208 26.4666 46.7624L28.884 44.573L31.3022 46.7625C31.4771 46.9209 31.6977 47 31.9183 47C32.1389 47 32.3597 46.9209 32.5346 46.7624L35.5754 44.0085C35.7676 43.8345 35.8772 43.5874 35.8772 43.3281V40.2643H37.8042V41.1755C37.8042 41.6824 38.2152 42.0935 38.7221 42.0935H42.394C42.901 42.0935 43.312 41.6824 43.312 41.1755V40.2643H46.082C46.5889 40.2643 47 39.8533 47 39.3463V35.6745C47 35.1676 46.5889 34.7565 46.082 34.7565H43.3118V33.8453C43.3118 33.3384 42.9008 32.9274 42.3938 32.9274H38.7219C38.215 32.9274 37.804 33.3384 37.804 33.8453V34.7565H35.877V13.1842H37.804V14.0954C37.804 14.6023 38.215 15.0134 38.7219 15.0134ZM43.3118 9.51236H45.1641V11.3483H43.3118V9.51236ZM39.6399 7.68321H41.4758V13.1774H39.6399V7.68321ZM3.68675 39.0562C3.66683 38.8463 3.66178 38.6373 3.66664 38.4284H1.83594V36.5924H3.68675V39.0562ZM3.68675 11.3483H1.83594V9.51236H3.68675V11.3483ZM9.7547 42.9341L7.64631 44.8437L5.52268 42.921V4.07909L7.64631 2.15631L9.7547 4.06587V42.9341ZM15.8227 42.9342L13.7145 44.8437L11.6051 42.9341V4.06587L13.7145 2.15631L15.8227 4.06578V42.9342ZM21.8906 42.9341L19.7822 44.8437L17.673 42.9341V4.06587L19.7822 2.15631L21.8906 4.06587V42.9341ZM27.9587 42.9341L25.8502 44.8437L23.741 42.934V4.06596L25.8502 2.15631L27.9587 4.06587V42.9341ZM34.041 42.921L31.918 44.8437L29.8089 42.934V4.06596L31.918 2.15631L34.041 4.07899V42.921ZM43.3118 36.5924H45.1641V38.4284H43.3118V36.5924ZM39.6399 34.7633H41.4758V40.2575H39.6399V34.7633ZM37.804 36.5924V38.4284H35.877V36.5924H37.804ZM35.877 11.3483V9.51236H37.804V11.3483H35.877Z" fill="black" stroke="#003E70" stroke-width="2" mask="url(#path-1-inside-1)"/>
</svg>
