<svg xmlns="http://www.w3.org/2000/svg" xmlns:xlink="http://www.w3.org/1999/xlink" viewBox="0 0 569.07 451.73"><defs><linearGradient id="a" x1="127.18" y1="302.56" x2="146.12" y2="302.56" gradientTransform="matrix(1 0 0 -1 0 415.42)" gradientUnits="userSpaceOnUse"><stop offset="0" stop-color="#e3edfe"/><stop offset="1" stop-color="#bfd5fb"/></linearGradient><linearGradient id="j" x1="165.18" y1="302.56" x2="184.12" y2="302.56" xlink:href="#a"/><linearGradient id="k" x1="88.82" y1="302.56" x2="107.77" y2="302.56" xlink:href="#a"/><linearGradient id="l" x1="456.31" y1="255.68" x2="475.26" y2="255.68" xlink:href="#a"/><linearGradient id="m" x1="494.33" y1="255.68" x2="513.27" y2="255.68" xlink:href="#a"/><linearGradient id="n" x1="417.96" y1="255.68" x2="436.9" y2="255.68" xlink:href="#a"/><linearGradient id="b" x1="83.88" y1="361.28" x2="108.66" y2="361.28" gradientTransform="matrix(1 0 0 -1 0 415.42)" gradientUnits="userSpaceOnUse"><stop offset="0" stop-color="#e3edfe"/><stop offset="1" stop-color="#d9e6fc"/></linearGradient><linearGradient id="o" x1="98.2" y1="350.49" x2="122.98" y2="350.49" xlink:href="#b"/><linearGradient id="p" x1="112.63" y1="269.71" x2="145.13" y2="269.71" xlink:href="#b"/><linearGradient id="q" x1="109.86" y1="222.82" x2="142.36" y2="222.82" xlink:href="#b"/><linearGradient id="r" x1="65.17" y1="239.55" x2="97.67" y2="239.55" xlink:href="#b"/><linearGradient id="s" x1="494.06" y1="160.13" x2="526.56" y2="160.13" xlink:href="#b"/><linearGradient id="t" x1="449.33" y1="176.85" x2="481.83" y2="176.85" xlink:href="#b"/><linearGradient id="u" x1="114.42" y1="361.28" x2="139.2" y2="361.28" xlink:href="#b"/><linearGradient id="v" x1="472.85" y1="320.33" x2="497.64" y2="320.33" xlink:href="#b"/><linearGradient id="w" x1="487.18" y1="309.55" x2="511.97" y2="309.55" xlink:href="#b"/><linearGradient id="x" x1="503.4" y1="320.33" x2="528.19" y2="320.33" xlink:href="#b"/><linearGradient id="y" x1="397.64" y1="365.57" x2="422.42" y2="365.57" xlink:href="#b"/><linearGradient id="z" x1="413.85" y1="376.35" x2="438.64" y2="376.35" xlink:href="#b"/><linearGradient id="A" x1="181.97" y1="418.52" x2="413.06" y2="383.79" gradientTransform="matrix(1 0 0 -1 0 415.42)" gradientUnits="userSpaceOnUse"><stop offset="0" stop-color="#3667bd"/><stop offset=".37" stop-color="#3e6ec3"/><stop offset=".76" stop-color="#5685d8"/><stop offset="1" stop-color="#5685d7"/></linearGradient><linearGradient id="B" x1="409.6" y1="399.84" x2="416.37" y2="399.84" gradientTransform="matrix(1 0 0 -1 0 415.42)" gradientUnits="userSpaceOnUse"><stop offset="0" stop-color="#3457b4"/><stop offset=".22" stop-color="#3a5eb9"/><stop offset=".55" stop-color="#4c72c8"/><stop offset=".95" stop-color="#6893df"/><stop offset="1" stop-color="#6c98e3"/></linearGradient><linearGradient id="c" x1="159.68" y1="341.94" x2="406.56" y2="307.06" gradientTransform="matrix(1 0 0 -1 0 415.42)" gradientUnits="userSpaceOnUse"><stop offset="0" stop-color="#26c6da"/><stop offset="1" stop-color="#32e0ed"/></linearGradient><linearGradient id="C" x1="329.31" y1="297.34" x2="489.39" y2="391.45" gradientTransform="matrix(1 0 0 -1 0 415.42)" gradientUnits="userSpaceOnUse"><stop offset="0" stop-color="#3667bd"/><stop offset=".22" stop-color="#3e6ec3"/><stop offset=".55" stop-color="#4574c7"/><stop offset=".95" stop-color="#568ae5"/></linearGradient><linearGradient id="D" x1="350.66" y1="351.18" x2="375.29" y2="351.18" xlink:href="#c"/><linearGradient id="d" x1="434.54" y1="150.21" x2="317.02" y2="221.26" gradientTransform="matrix(1 0 0 -1 0 415.42)" gradientUnits="userSpaceOnUse"><stop offset="0" stop-color="#eef4fe"/><stop offset=".47" stop-color="#f8fbff"/><stop offset="1" stop-color="#fff"/></linearGradient><linearGradient id="E" x1="338.12" y1="197.42" x2="354.88" y2="195.05" xlink:href="#c"/><linearGradient id="e" x1="228.67" y1="280.85" x2="348.76" y2="252.71" gradientTransform="matrix(1 0 0 -1 0 415.42)" gradientUnits="userSpaceOnUse"><stop offset="0" stop-color="#e9f1fe"/><stop offset="1" stop-color="#fff"/></linearGradient><linearGradient id="F" x1="229.76" y1="288.89" x2="351.27" y2="274.66" gradientTransform="matrix(1 0 0 -1 0 415.42)" gradientUnits="userSpaceOnUse"><stop offset="0" stop-color="#3768be"/><stop offset=".22" stop-color="#3b6cc1"/><stop offset=".55" stop-color="#507fd2"/><stop offset=".95" stop-color="#5685d7"/></linearGradient><linearGradient id="G" x1="199.67" y1="332.93" x2="216.83" y2="330.28" xlink:href="#d"/><linearGradient id="H" x1="220.95" y1="154.19" x2="129.85" y2="211.75" gradientTransform="matrix(1 0 0 -1 0 415.42)" gradientUnits="userSpaceOnUse"><stop offset="0" stop-color="#3b6bc1"/><stop offset=".22" stop-color="#3e6ec3"/><stop offset=".55" stop-color="#4676c9"/><stop offset=".95" stop-color="#6893df"/><stop offset="1" stop-color="#5488e2"/></linearGradient><linearGradient id="I" x1="126.67" y1="174.74" x2="221.44" y2="174.74" xlink:href="#c"/><linearGradient id="J" x1="249.45" y1="190.2" x2="289.44" y2="180.54" xlink:href="#e"/><linearGradient id="K" x1="253" y1="169.82" x2="279.48" y2="207.24" gradientTransform="matrix(1 0 0 -1 0 415.42)" gradientUnits="userSpaceOnUse"><stop offset="0" stop-color="#396ac0"/><stop offset="1" stop-color="#4577cd"/></linearGradient><linearGradient id="L" x1="89.48" y1="11.97" x2="112.22" y2="6.88" xlink:href="#e"/><linearGradient id="f" x1="86.53" y1="3.66" x2="136.99" y2="-7.63" gradientTransform="matrix(1 0 0 -1 0 415.42)" gradientUnits="userSpaceOnUse"><stop offset="0" stop-color="#6c98e3"/><stop offset=".27" stop-color="#5d85d5"/><stop offset=".8" stop-color="#3756b1"/><stop offset="1" stop-color="#2842a2"/></linearGradient><linearGradient id="g" x1="93.13" y1="91.59" x2="144.43" y2="91.59" gradientTransform="matrix(1 0 0 -1 0 415.42)" gradientUnits="userSpaceOnUse"><stop offset="0" stop-color="#6092e9"/><stop offset=".44" stop-color="#3c6ec6"/><stop offset="1" stop-color="#2d60bc"/></linearGradient><linearGradient id="M" x1="109.4" y1="3.54" x2="132.71" y2="3.54" xlink:href="#e"/><linearGradient id="N" x1="108.4" y1="-5.1" x2="160.58" y2="-5.1" xlink:href="#f"/><linearGradient id="O" x1="103.31" y1="88.25" x2="153.08" y2="88.25" xlink:href="#g"/><linearGradient id="P" x1="121.24" y1="280.68" x2="150.63" y2="319.9" gradientTransform="matrix(1 0 0 -1 0 415.42)" gradientUnits="userSpaceOnUse"><stop offset="0" stop-color="#111c3a"/><stop offset=".26" stop-color="#1c2f61"/><stop offset=".59" stop-color="#29458e"/><stop offset=".85" stop-color="#3152aa"/><stop offset="1" stop-color="#3457b4"/></linearGradient><linearGradient id="Q" x1="142.32" y1="274.83" x2="115.56" y2="264.2" xlink:href="#f"/><linearGradient id="h" x1="387.31" y1="86.75" x2="485.25" y2="86.75" gradientTransform="matrix(1 0 0 -1 0 415.42)" gradientUnits="userSpaceOnUse"><stop offset="0" stop-color="#e3edfe"/><stop offset="1" stop-color="#b3cdfa"/></linearGradient><linearGradient id="R" x1="404.31" y1="89.43" x2="485.69" y2="89.43" xlink:href="#h"/><linearGradient id="S" x1="440.59" y1="106.44" x2="487.14" y2="106.44" xlink:href="#h"/><linearGradient id="T" x1="463.62" y1="101.09" x2="489.72" y2="101.09" xlink:href="#h"/><linearGradient id="i" x1="492.18" y1="55.12" x2="488.87" y2="157.38" gradientTransform="matrix(1 0 0 -1 0 415.42)" gradientUnits="userSpaceOnUse"><stop offset="0" stop-color="#b3cdfa"/><stop offset="1" stop-color="#e3edfe"/></linearGradient><linearGradient id="U" x1="482.46" y1="97.07" x2="517.5" y2="97.07" xlink:href="#i"/><linearGradient id="V" x1="485.37" y1="92.23" x2="565.79" y2="92.23" xlink:href="#i"/><linearGradient id="W" x1="419.57" y1="72.57" x2="485.75" y2="72.57" xlink:href="#h"/><linearGradient id="X" x1="459.15" y1="44.02" x2="512.79" y2="44.02" xlink:href="#h"/><linearGradient id="Y" x1="455.67" y1="70.48" x2="516.35" y2="70.48" xlink:href="#h"/></defs><g opacity=".24"><path d="M255.79 363.91c70 0 126.76-9 126.76-20s-56.75-20-126.76-20-126.76 9-126.76 20 56.76 20 126.76 20z" fill="#fbfcfe" opacity=".02" style="isolation:isolate"/><path d="M255.79 363.36c68.45 0 123.92-8.68 123.92-19.47s-55.47-19.47-123.92-19.47-123.92 8.68-123.92 19.48 55.47 19.46 123.92 19.46z" fill="#f8fafe" opacity=".05" style="isolation:isolate"/><path d="M255.79 363c66.8 0 121-8.5 121-19.1s-54.19-19.1-121-19.1-121 8.5-121 19.1 54.2 19.1 121 19.1z" fill="#f4f7fd" opacity=".07" style="isolation:isolate"/><path d="M255.79 362.45c65.25 0 118.07-8.32 118.07-18.55s-52.82-18.55-118.07-18.55-118.08 8.31-118.08 18.55 52.83 18.55 118.08 18.55z" fill="#f1f5fc" opacity=".1" style="isolation:isolate"/><path d="M255.79 362.1c63.61 0 115.15-8.13 115.15-18.19s-51.54-18.19-115.15-18.19-115.15 8.13-115.15 18.19 51.54 18.19 115.15 18.19z" fill="#edf2fc" opacity=".12" style="isolation:isolate"/><path d="M255.79 361.54c62 0 112.22-7.86 112.22-17.64s-50.3-17.64-112.22-17.64-112.22 7.84-112.22 17.64 50.26 17.64 112.22 17.64z" fill="#e9f0fb" opacity=".15" style="isolation:isolate"/><path d="M255.79 361.17c60.41 0 109.39-7.68 109.39-17.18s-49-17.18-109.39-17.18-109.39 7.68-109.39 17.18 48.98 17.18 109.39 17.18z" fill="#e6edfa" opacity=".17" style="isolation:isolate"/><path d="M255.79 360.71c58.76 0 106.47-7.49 106.47-16.82s-47.71-16.79-106.47-16.79-106.47 7.49-106.47 16.82 47.62 16.79 106.47 16.79z" fill="#e2ebfa" opacity=".2" style="isolation:isolate"/><path d="M255.79 360.16c57.21 0 103.54-7.31 103.54-16.27S313 327.62 255.79 327.62s-103.54 7.31-103.54 16.27 46.33 16.27 103.54 16.27z" fill="#dfe8f9" opacity=".22" style="isolation:isolate"/><path d="M255.79 359.8c55.56 0 100.62-7.13 100.62-15.9S311.36 328 255.79 328s-100.62 7.1-100.62 15.9 45.06 15.9 100.62 15.9z" fill="#dbe6f8" opacity=".24" style="isolation:isolate"/><path d="M255.79 359.25c54 0 97.79-6.85 97.79-15.35s-43.77-15.35-97.79-15.35S158 335.4 158 343.9s43.78 15.35 97.79 15.35z" fill="#d8e3f7" opacity=".27" style="isolation:isolate"/><path d="M255.79 358.89c52.37 0 94.86-6.67 94.86-15s-42.5-15-94.86-15-94.86 6.67-94.86 15 42.49 15 94.86 15z" fill="#d4e1f7" opacity=".29" style="isolation:isolate"/><path d="M255.79 358.34c50.81 0 91.94-6.49 91.94-14.44s-41.12-14.44-91.94-14.44-91.94 6.49-91.94 14.44 41.13 14.44 91.94 14.44z" fill="#d0def6" opacity=".32" style="isolation:isolate"/><path d="M255.79 357.88c49.17 0 89-6.31 89-14s-39.85-14-89-14-89 6.31-89 14 39.83 14 89 14z" fill="#cddcf5" opacity=".34" style="isolation:isolate"/><path d="M255.79 357.51c47.52 0 86.09-6.12 86.09-13.62s-38.57-13.62-86.09-13.62-86.08 6.13-86.08 13.63 38.56 13.61 86.08 13.61z" fill="#c9d9f5" opacity=".37" style="isolation:isolate"/><path d="M255.79 356.97c46 0 83.25-5.85 83.25-13.07s-37.33-13.07-83.25-13.07-83.25 5.85-83.25 13.07 37.28 13.07 83.25 13.07z" fill="#c6d7f4" opacity=".39" style="isolation:isolate"/><path d="M255.79 356.6c44.32 0 80.33-5.67 80.33-12.7s-35.92-12.7-80.33-12.7-80.33 5.67-80.33 12.7 35.92 12.7 80.33 12.7z" fill="#c2d4f3" opacity=".41" style="isolation:isolate"/><path d="M255.79 356.1c42.77 0 77.41-5.39 77.41-12.15s-34.64-12.15-77.41-12.15-77.41 5.3-77.41 12.1 34.64 12.2 77.41 12.2z" fill="#bed2f3" opacity=".44" style="isolation:isolate"/><path d="M255.79 355.69c41.12 0 74.48-5.3 74.48-11.7s-33.36-11.7-74.48-11.7-74.48 5.3-74.48 11.7 33.4 11.7 74.48 11.7z" fill="#bbcff2" opacity=".46" style="isolation:isolate"/><path d="M255.79 355.1c39.57 0 71.65-5 71.65-11.24s-32.08-11.24-71.65-11.24-71.65 5-71.65 11.24 32.08 11.24 71.65 11.24z" fill="#b7cdf1" opacity=".49" style="isolation:isolate"/><path d="M255.79 354.68c37.93 0 68.72-4.84 68.72-10.78s-30.8-10.8-68.72-10.8-68.72 4.84-68.72 10.78 30.79 10.8 68.72 10.8z" fill="#b4caf1" opacity=".51" style="isolation:isolate"/><path d="M255.79 354.32c36.28 0 65.8-4.66 65.8-10.42s-29.43-10.42-65.8-10.42-65.8 4.66-65.8 10.42 29.43 10.42 65.8 10.42z" fill="#b0c8f0" opacity=".54" style="isolation:isolate"/><path d="M255.79 353.77c34.73 0 62.87-4.39 62.87-9.87s-28.15-9.87-62.87-9.87-62.87 4.39-62.87 9.87 28.14 9.87 62.87 9.87z" fill="#adc5ef" opacity=".56" style="isolation:isolate"/><path d="M315.65 343.9c0 5.21-26.78 9.5-59.86 9.5s-59.86-4.3-59.86-9.5 26.78-9.5 59.86-9.5 59.86 4.29 59.86 9.5z" fill="#a9c3ef" opacity=".59" style="isolation:isolate"/><path d="M255.79 352.85c31.53 0 57.12-4 57.12-9s-25.59-9-57.12-9-57.12 4-57.12 9 25.59 9 57.12 9z" fill="#a5c0ee" opacity=".61" style="isolation:isolate"/><path d="M255.79 352.49c29.88 0 54.19-3.84 54.19-8.5s-24.22-8.5-54.19-8.5-54.19 3.84-54.19 8.5 24.21 8.5 54.19 8.5z" fill="#a2beed" opacity=".63" style="isolation:isolate"/><path d="M306.97 343.9c0 4.39-22.94 8-51.27 8s-51.27-3.56-51.27-8 22.94-8 51.27-8 51.27 3.52 51.27 8z" fill="#9ebbed" opacity=".66" style="isolation:isolate"/><path d="M255.79 351.48c26.69 0 48.25-3.38 48.25-7.59s-21.66-7.59-48.25-7.59-48.25 3.38-48.25 7.59 21.56 7.59 48.25 7.59z" fill="#9bb9ec" opacity=".68" style="isolation:isolate"/><path d="M255.79 351.1c25 0 45.33-3.2 45.33-7.22s-20.29-7.22-45.33-7.22-45.33 3.2-45.33 7.22 20.25 7.22 45.33 7.22z" fill="#97b6eb" opacity=".71" style="isolation:isolate"/><path d="M298.29 343.9c0 3.75-19.1 6.67-42.59 6.67s-42.59-2.92-42.59-6.67 19.1-6.67 42.59-6.67 42.59 2.92 42.59 6.67z" fill="#93b4eb" opacity=".73" style="isolation:isolate"/><path d="M255.79 350.2c21.84 0 39.66-2.83 39.66-6.31s-17.73-6.31-39.66-6.31-39.66 2.83-39.66 6.31 17.73 6.31 39.66 6.31z" fill="#90b1ea" opacity=".76" style="isolation:isolate"/><path d="M255.79 349.66c20.29 0 36.65-2.56 36.65-5.76s-16.45-5.8-36.65-5.8-36.65 2.56-36.65 5.76 16.36 5.8 36.65 5.8z" fill="#8cafe9" opacity=".78" style="isolation:isolate"/><path d="M289.51 343.9c0 2.92-15.08 5.3-33.72 5.3s-33.72-2.38-33.72-5.3 15.08-5.3 33.72-5.3 33.72 2.37 33.72 5.3z" fill="#89ace8" opacity=".8" style="isolation:isolate"/><path d="M255.79 348.74c17.09 0 31-2.19 31-4.84s-13.89-4.84-31-4.84-31 2.19-31 4.84 13.92 4.84 31 4.84z" fill="#85aae8" opacity=".83" style="isolation:isolate"/><path d="M255.79 348.28c15.44 0 28.06-2 28.06-4.39s-12.52-4.39-28.06-4.39-28.06 2-28.06 4.39 12.52 4.39 28.06 4.39z" fill="#82a7e7" opacity=".85" style="isolation:isolate"/><path d="M280.83 343.9c0 2.1-11.24 4-25 4s-25-1.74-25-4c0-2.1 11.24-4 25-4s25 1.71 25 4z" fill="#7ea5e6" opacity=".88" style="isolation:isolate"/><path d="M255.79 347.37c12.25 0 22.12-1.55 22.12-3.47s-10-3.47-22.12-3.47-22.08 1.55-22.08 3.47 9.83 3.47 22.08 3.47z" fill="#7aa2e6" opacity=".9" style="isolation:isolate"/><path d="M255.79 347c10.6 0 19.19-1.37 19.19-3.11s-8.59-3.11-19.19-3.11-19.19 1.37-19.19 3.11 8.59 3.11 19.19 3.11z" fill="#77a0e5" opacity=".93" style="isolation:isolate"/><path d="M272.15 343.9c0 1.46-7.31 2.56-16.45 2.56s-16.45-1.19-16.45-2.56 7.31-2.56 16.45-2.56 16.45 1.1 16.45 2.56z" fill="#739de4" opacity=".95" style="isolation:isolate"/><path d="M255.79 346.1c7.4 0 13.43-.91 13.43-2.1s-6-2.1-13.43-2.1-13.43.91-13.43 2.1 5.94 2.1 13.43 2.1z" fill="#709be4" opacity=".98" style="isolation:isolate"/><path d="M255.79 345.54c5.85 0 10.51-.73 10.51-1.64s-4.75-1.64-10.51-1.64-10.51.73-10.51 1.64 4.66 1.64 10.51 1.64z" fill="#6c98e3" opacity=".5" style="isolation:isolate"/></g><path d="M510.31 283.76H70.55a20 20 0 0 1-20-20V40.4a20 20 0 0 1 20-20h439.76a20 20 0 0 1 20 20v223.44a20.11 20.11 0 0 1-20 19.92z" fill="#e3edfe"/><g opacity=".5"><path d="M152.25 93.59h-31.71v38.84h31.71z" fill="#b3cdfa" opacity=".5" style="isolation:isolate"/><path d="M120.44 93.59v.64h31v38.2h.82V93.59z" fill="#cadcfb" opacity=".5" style="isolation:isolate"/><path d="M146.14 101.25h-18.92v23.21h18.92z" transform="translate(-.29 .1)" opacity=".5" fill="url(#a)" style="isolation:isolate"/><path d="M142.38 105.65h-12.16v15h12.15zM190.27 93.59h-31.72v38.84h31.71z" fill="#b3cdfa" opacity=".5" style="isolation:isolate"/><path d="M158.46 93.59v.64h31v38.2h.82V93.59z" fill="#cadcfb" opacity=".5" style="isolation:isolate"/><path d="M184.16 101.25h-18.92v23.21h18.92z" transform="translate(-.29 .1)" opacity=".5" fill="url(#j)" style="isolation:isolate"/><path d="M180.4 105.65h-12.16v15h12.15zM113.96 93.59H82.15v38.84h31.71V93.59z" fill="#b3cdfa" opacity=".5" style="isolation:isolate"/><path d="M82.15 93.59v.64h31v38.2h.64V93.59z" fill="#cadcfb" opacity=".5" style="isolation:isolate"/><path d="M107.85 101.25H88.93v23.21h18.92z" transform="translate(-.29 .1)" opacity=".5" fill="url(#k)" style="isolation:isolate"/><path d="M104.09 105.65H91.93v15h12.15v-15z" fill="#b3cdfa" opacity=".5" style="isolation:isolate"/></g><g opacity=".5"><path d="M481.34 140.47h-31.72v38.84h31.71z" fill="#b3cdfa" opacity=".5" style="isolation:isolate"/><path d="M449.62 140.47v.63h31.09v38.2h.64v-38.83z" fill="#cadcfb" opacity=".5" style="isolation:isolate"/><path d="M475.23 148.14h-18.92v23.21h18.92z" transform="translate(-.29 .1)" opacity=".5" fill="url(#l)" style="isolation:isolate"/><path d="M471.65 152.35h-12.16v15h12.15zM519.35 140.47h-31.71v38.84h31.71z" fill="#b3cdfa" opacity=".5" style="isolation:isolate"/><path d="M487.64 140.47v.63h31v38.2h.82v-38.83z" fill="#cadcfb" opacity=".5" style="isolation:isolate"/><path d="M513.25 148.14h-18.92v23.21h18.92z" transform="translate(-.29 .1)" opacity=".5" fill="url(#m)" style="isolation:isolate"/><path d="M509.48 152.35h-12.15v15h12.15zM443.04 140.47h-31.71v38.84h31.71z" fill="#b3cdfa" opacity=".5" style="isolation:isolate"/><path d="M411.33 140.47v.63h31v38.2h.64v-38.83z" fill="#cadcfb" opacity=".5" style="isolation:isolate"/><path d="M436.94 148.14H418v23.21h18.92z" transform="translate(-.29 .1)" opacity=".5" fill="url(#n)" style="isolation:isolate"/><path d="M433.17 152.35h-12.15v15h12.15z" fill="#b3cdfa" opacity=".5" style="isolation:isolate"/></g><path d="M108.67 50.35H83.81v7.59h24.86v-7.59z" transform="translate(-.29 .1)" fill="url(#b)"/><path d="M123 61.13H98.25v7.59h24.86v-7.59z" transform="translate(-.29 .1)" fill="url(#o)"/><path d="M145.23 140.73h-32.54v10h32.53z" transform="translate(-.29 .1)" fill="url(#p)"/><path d="M142.39 187.62h-32.53v10h32.53z" transform="translate(-.29 .1)" fill="url(#q)"/><path d="M97.7 170.89H65.17v10H97.7z" transform="translate(-.29 .1)" fill="url(#r)"/><path d="M526.59 250.31h-32.53v10h32.53z" transform="translate(-.29 .1)" fill="url(#s)"/><path d="M481.9 233.58h-32.53v10h32.53z" transform="translate(-.29 .1)" fill="url(#t)"/><path d="M139.19 50.35h-24.85v7.59h24.86z" transform="translate(-.29 .1)" fill="url(#u)"/><path d="M497.71 91.29h-24.86v7.59h24.86z" transform="translate(-.29 .1)" fill="url(#v)"/><path d="M512 102.08h-24.89v7.59H512z" transform="translate(-.29 .1)" fill="url(#w)"/><path d="M528.23 91.29h-24.85v7.59h24.86z" transform="translate(-.29 .1)" fill="url(#x)"/><path d="M422.41 46.06h-24.86v7.59h24.86z" transform="translate(-.29 .1)" fill="url(#y)"/><path d="M438.67 35.27h-24.85v7.59h24.86z" transform="translate(-.29 .1)" fill="url(#z)"/><path d="M358.51 300.95h-211.8a10.19 10.19 0 0 1-10.18-11.85L179.85 9.6A11.6 11.6 0 0 1 190.9 0h216.81a8.2 8.2 0 0 1 8.32 9.6l-43.32 279.1a14.42 14.42 0 0 1-14.2 12.25z" fill="#1449a8"/><path d="M412.16 1.19a7.89 7.89 0 0 1 .37 4.39l-43.23 279.1a14.35 14.35 0 0 1-14.17 12.15H143.29a10.45 10.45 0 0 1-6-1.83 10.45 10.45 0 0 0 9.32 6h211.81a14.42 14.42 0 0 0 14.17-12.15L415.9 9.78a8 8 0 0 0-3.74-8.59z" fill="#274187"/><path d="M413.63 27.32L416.47 9a7.48 7.48 0 0 0-7.59-9H190.46a10.73 10.73 0 0 0-10.24 9l-2.82 18.32z" transform="translate(-.29 .1)" fill="url(#A)"/><path d="M409.61 27.32l3.56 2.56 1.46-10 1.47-10.11a8.15 8.15 0 0 0-3.84-8.5 7.89 7.89 0 0 1 .37 4.39z" transform="translate(-.29 .1)" fill="url(#B)"/><path d="M201.51 13.71a3.39 3.39 0 0 1-3.2 2.83 2.28 2.28 0 0 1-2.38-2.83 3.39 3.39 0 0 1 3.2-2.83 2.35 2.35 0 0 1 2.38 2.83zM214.12 13.71a3.39 3.39 0 0 1-3.2 2.83 2.28 2.28 0 0 1-2.38-2.83 3.39 3.39 0 0 1 3.2-2.83 2.31 2.31 0 0 1 2.38 2.83zM226.82 13.71a3.39 3.39 0 0 1-3.2 2.83 2.28 2.28 0 0 1-2.38-2.83 3.39 3.39 0 0 1 3.2-2.83 2.49 2.49 0 0 1 2.38 2.83z" fill="#e3edfe"/><g opacity=".7" fill="#111c3a"><path d="M183.96 89.75a2.09 2.09 0 0 0-2.1 1.83 1.65 1.65 0 0 0 1.46 1.83l-28.79 201.6h.37L183.71 93.4a2.44 2.44 0 0 0 2-1.83 1.61 1.61 0 0 0-1.75-1.82zM221.98 98.43a2.09 2.09 0 0 0-2.1 1.83 1.65 1.65 0 0 0 1.46 1.83l-27.63 192.92h.37l27.69-192.83a2.44 2.44 0 0 0 2-1.83 1.85 1.85 0 0 0-1.79-1.92zM266.3 61.6a2.09 2.09 0 0 0-2.1 1.83 1.65 1.65 0 0 0 1.46 1.83l-32.81 229.75h.37l32.81-229.75a2.44 2.44 0 0 0 2-1.83 1.61 1.61 0 0 0-1.73-1.83zM307.42 47.98a2.09 2.09 0 0 0-2.1 1.83 1.65 1.65 0 0 0 1.46 1.83L272.06 295.1h.37l34.72-243.46a2.44 2.44 0 0 0 2-1.83 1.7 1.7 0 0 0-1.73-1.83zM342.79 75.1a2.09 2.09 0 0 0-2.1 1.83 1.65 1.65 0 0 0 1.46 1.83L311.17 295.1h.37l31-216.22a2.44 2.44 0 0 0 2-1.83 1.73 1.73 0 0 0-1.75-1.95zM384.71 67.91a1.55 1.55 0 0 0-1.62-1.81 2.09 2.09 0 0 0-2.1 1.83 1.65 1.65 0 0 0 1.46 1.83L350.29 295.1h.37l32.16-225.37a2.14 2.14 0 0 0 1.89-1.82z" opacity=".3" style="isolation:isolate"/></g><path d="M401.55 78.32a104 104 0 0 0-16.18 9.5c-5 3.56-9.5 8-14.53 11.7-9.87 7.31-19.92 7.86-29.24 2.28-18.64-11.23-26.77-40.29-55.89-29.6-28.7 10.51-40.39 45.05-69.09 54.92-16.45 5.57-24.95-3.11-35.73-11.24-5.3-3.84-10.69-5.76-16.54-5.21l-.27 2.1c11.24-.82 17.73 8 27.23 14 8.32 5.3 18.19 5.48 28.24 1.37 28.15-11.33 40-46.33 69.36-54.92 32.26-9.6 36.28 32.26 63.79 34.54 10.42.82 18.64-5.85 26.69-12.7a112.82 112.82 0 0 1 22-14.44z" fill="#111c3a" opacity=".2" style="isolation:isolate"/><path d="M409.25 67.26a105.84 105.84 0 0 0-22.12 12c-5 3.56-9.5 8-14.53 11.7-9.87 7.31-19.92 7.86-29.24 2.28C324.71 82 316.58 52.91 287.43 63.6c-28.7 10.51-40.39 45.05-69.09 54.92-16.45 5.57-24.95-3.11-35.73-11.24-8.13-6-16.27-7-26.78-2.38a1 1 0 1 0 .82 1.74c17.36-7.59 24.58 4 36.28 11.51 8.32 5.3 18.19 5.48 28.24 1.37 28.15-11.33 40-46.33 69.36-54.92 32.26-9.6 36.28 32.26 63.79 34.54C364.74 100 373 93.3 381 86.45a104.63 104.63 0 0 1 27.87-17.09c4.49-1.55 4.76-3.75.38-2.1z" transform="translate(-.29 .1)" fill="url(#c)"/><path d="M342.35 115.05a12.83 12.83 0 0 1-12.79-12.79l9.23-61.6v-.09a12.83 12.83 0 0 1 12.79-12.79h123.83a12.83 12.83 0 0 1 12.79 12.79l-9.2 61.51c-1.37 6.31-5.3 13-12.79 13z" transform="translate(-.29 .1)" fill="url(#C)"/><path d="M482.71 30.44a12.45 12.45 0 0 1 2.56 7.59l-9.23 61.5c-1.37 6.31-5.3 13-12.79 13H339.41a12.06 12.06 0 0 1-7.59-2.56 12.77 12.77 0 0 0 10.24 5.21h123.83c7.49 0 11.61-6.76 12.79-13l9.23-61.5a12.51 12.51 0 0 0-5.2-10.24z" fill="#2a4d8c"/><path d="M353.68 74.29a2.94 2.94 0 0 1-2.92-2.92l2.1-14.44a2.94 2.94 0 0 1 2.93-2.93h16.54a2.94 2.94 0 0 1 2.92 2.92l-2.1 14.44c-.27 1.46-1.19 3.11-2.92 3.11h-16.55z" transform="translate(-.29 .1)" fill="url(#D)"/><path d="M343.07 90.94a.86.86 0 0 1-.91-.91l.64-4.11a.86.86 0 0 1 .91-.91h20a.86.86 0 0 1 .91.91l-.64 4.11c-.09.37-.37.91-.91.91zM369.29 90.94a.86.86 0 0 1-.91-.91l.64-4.11a.86.86 0 0 1 .91-.91h53.1a.86.86 0 0 1 .91.91l-.64 4.11c-.09.37-.37.91-.91.91zM428.71 90.94a.86.86 0 0 1-.91-.91l.64-4.11a.86.86 0 0 1 .91-.91h33.27a.86.86 0 0 1 .91.91l-.64 4.11c-.09.37-.37.91-.91.91zM340.05 104.28a.86.86 0 0 1-.91-.91l.64-4.11a.86.86 0 0 1 .91-.91h70.28a.86.86 0 0 1 .91.91l-.64 4.11c-.09.37-.37.91-.91.91z" fill="#b3cdfa"/><path d="M433.37 264H314.2a2.28 2.28 0 0 1-2.38-2.83l8.41-59.77a3.31 3.31 0 0 1 3.2-2.83H442.7a2.28 2.28 0 0 1 2.38 2.83l-8.41 59.77a3.34 3.34 0 0 1-3.3 2.83z" transform="translate(-.29 .1)" fill="url(#d)"/><path d="M442.86 198.86l-8.41 59.77a3.31 3.31 0 0 1-3.2 2.83H311.71a2.38 2.38 0 0 0 2.38 2.65h119a3.24 3.24 0 0 0 3.2-2.83l8.42-59.76a2.17 2.17 0 0 0-1.85-2.66z" fill="#b3cdfa"/><path d="M332.71 207.82h-7.31l.55-3.75h7.22z" fill="#e3edfe"/><path d="M435.19 213.67h-55.66l.37-3.75h55.75zM433.71 224.1h-55.64l.37-3.75h55.75zM432.26 234.41h-55.65l.37-3.56h55.73zM407.04 244.83h-31.9l.37-3.56h32z" fill="#b3cdfa"/><path d="M331.28 217.97h-7.31l.55-3.75h7.31zM329.81 228.1h-7.22l.55-3.75h7.22zM328.35 238.25h-7.22l.55-3.56h7.22zM326.98 248.4h-7.27l.55-3.56h7.22zM325.52 258.54h-7.31l.55-3.56h7.31z" fill="#e3edfe"/><path d="M356.77 210.75l-2.38 17.09 10.24 12a20 20 0 0 0 6.67-12c1.47-9.33-5.02-17.09-14.53-17.09z" fill="#2a5ab0"/><path d="M343.45 215.76a20 20 0 0 0-6.67 12h17.09l2.38-17.09a19.65 19.65 0 0 0-12.8 5.09z" transform="translate(-.29 .1)" fill="url(#E)"/><path d="M353.39 228.75H336.3c-1.37 9.5 5.21 17.09 14.71 17.09a19.65 19.65 0 0 0 12.79-4.93z" fill="#6c98e3"/><path d="M342.53 168.79H230.22a4.89 4.89 0 0 1-4.84-5.48l3.47-29.31a6.43 6.43 0 0 1 6-5.48h112.34A4.89 4.89 0 0 1 352 134l-3.47 29.34a6.12 6.12 0 0 1-6 5.45z" transform="translate(-.29 .1)" fill="url(#e)"/><path d="M349.28 129.41a5.83 5.83 0 0 1 .55 2.83l-3.47 29.34a6.43 6.43 0 0 1-6 5.48H228.01a6 6 0 0 1-2.28-.55 4.92 4.92 0 0 0 4.3 2.56h112.3a6.19 6.19 0 0 0 6-5.48l3.47-29.34c.13-2.15-.78-4.15-2.52-4.84z" fill="#b3cdfa"/><path d="M346.92 128.58H235.24a6.51 6.51 0 0 0-6.4 5.76l-.37 3.75h123.1l.37-3.75a5 5 0 0 0-5.02-5.76z" transform="translate(-.29 .1)" fill="url(#F)"/><path d="M349.28 129.5a4.4 4.4 0 0 1 .37 2.65l-.64 6.12 2.1.82.27-1.74.27-2.83a5 5 0 0 0-2.37-5.02z" fill="#2a4d8c"/><path d="M339.87 148.1h-80.16l.27-2.56h80.15zM338.86 155.36h-80.05l.27-2.56h80.06zM287.96 162.77h-30l.27-2.56h30.16z" fill="#c2d7fb"/><path d="M239.89 133.52a1.38 1.38 0 0 1-1.37 1.19 1 1 0 0 1-1.1-1.19 1.38 1.38 0 0 1 1.37-1.19c.73 0 1.28.55 1.1 1.19zM245.1 133.52a1.38 1.38 0 0 1-1.37 1.19 1 1 0 0 1-1.1-1.19 1.38 1.38 0 0 1 1.37-1.19 1 1 0 0 1 1.1 1.19zM250.31 133.52a1.38 1.38 0 0 1-1.37 1.19 1.08 1.08 0 0 1-1.1-1.19 1.38 1.38 0 0 1 1.37-1.19 1 1 0 0 1 1.1 1.19z" fill="#e3edfe"/><path d="M217 83.8a10.71 10.71 0 0 1-10.14 8.77c-4.84 0-8.13-3.84-7.49-8.77a10.71 10.71 0 0 1 10.1-8.8 7.31 7.31 0 0 1 7.53 8.8z" transform="translate(-.29 .1)" fill="url(#G)"/><path d="M213.11 76.04a7.49 7.49 0 0 1 2.6 7.06 10.71 10.71 0 0 1-10.14 8.77 7.35 7.35 0 0 1-3.75-.91 7.54 7.54 0 0 0 4.89 1.71 10.62 10.62 0 0 0 10.14-8.77 7.7 7.7 0 0 0-3.74-7.86z" fill="#b3cdfa"/><path d="M205.98 88.29l-3.38-4 1.74-1.46 1.83 2.27 5.85-5 1.46 1.74z" fill="#3457b4"/><path d="M220.53 263.92h-96.32a3.85 3.85 0 0 1-3.84-4.39l7.63-52.45a5.35 5.35 0 0 1 5-4.39h96.3a3.85 3.85 0 0 1 3.84 4.39l-7.59 52.46a5.05 5.05 0 0 1-5.02 4.38z" transform="translate(-.29 .1)" fill="url(#H)"/><path d="M231.12 203.25a9.93 9.93 0 0 1 .09 1.64l-7.59 52.46a5.35 5.35 0 0 1-5 4.39h-96.44a4.34 4.34 0 0 1-2-.55 3.69 3.69 0 0 0 3.75 2.83h96.32a5.2 5.2 0 0 0 5-4.39l7.59-52.46a3.69 3.69 0 0 0-1.72-3.92z" fill="#2a4d8c"/><path d="M179.48 213.3h-42.31l.55-3.75h42.31zM157.18 221.35h-21.2l.55-3.75h21.18z" fill="#e3edfe"/><path d="M126.67 254.6c4-4.57 8.5-10.24 13-14.44 1.64-1.46 3.29-2.92 5.3-3.2 2.83-.37 5 1.74 6.76 3.56 2.1 2.28 4.57 4.57 7.77 5.21 4 .82 8.32-1.19 12.25-3.2 3.47-1.74 6.95-3.56 9.6-6.4 2.56-2.65 4.3-6.31 7.31-8.32a7.47 7.47 0 0 1 1.74-.82 3.45 3.45 0 0 1 2.65 1.19c1.64 2 2 4.84 2.56 7.31s2 5.21 4.57 5.85c3.47.82 7-2.28 9.32-5.48s4.11-6.76 7.59-8.5c1.1-.55 2.38-.91 3.2-.27s.91 2 .91 3.2c-.27 5-.55 10.14-.82 15.17-.09 2.1-.64 7.22-2.1 8.77z" transform="translate(-.29 .1)" fill="url(#I)"/><path d="M264.2 252.97c-3.11-2.38-16.63-14.71-10.69-40.12 0-.09.27-.37.37-.27l.91.27c5.76 1.65 12.52.09 18.28-4l1.83-1.37a1.5 1.5 0 0 1 1.74 0l2 2c3.84 3.84 10.14 5 16.45 3.11a.4.4 0 0 1 .55.37c-6.31 24.67-25.86 37.38-30.16 39.85a1.15 1.15 0 0 1-1.28.16z" fill="#b3cdfa"/><path d="M263.3 252.87c-3.11-2.38-16.63-14.71-10.69-40.12 0-.09.27-.37.37-.27l.91.27c5.76 1.65 12.52.09 18.28-4l1.83-1.37a1.5 1.5 0 0 1 1.74 0l2 2c3.84 3.84 10.14 5 16.45 3.11a.4.4 0 0 1 .55.37c-6.31 24.67-25.86 37.38-30.16 39.85a1.14 1.14 0 0 1-1.28.16z" transform="translate(-.29 .1)" fill="url(#J)"/><path d="M264 250.86a30 30 0 0 1-6.95-8.68c-4.3-7.77-5.3-16.91-3.29-27.33a20 20 0 0 0 4 .37 26.6 26.6 0 0 0 15.08-5l1.37-.91 1.19 1.19a17 17 0 0 0 12.25 4.66 20 20 0 0 0 4-.37c-6.14 21.63-22.96 33.14-27.65 36.07z" transform="translate(-.29 .1)" fill="url(#K)"/><path d="M256.98 242.37c-4.3-7.77-5.3-16.91-3.29-27.33a20 20 0 0 0 4 .37 26.6 26.6 0 0 0 15.08-5l1.37-.91 1.19 1.19a17 17 0 0 0 12.25 4.66 18.79 18.79 0 0 0 3.84-.37c0-.09 0-.09.09-.27a20 20 0 0 1-4 .37 17.37 17.37 0 0 1-12.25-4.66l-1.19-1.19-1.36.87a27.07 27.07 0 0 1-15.08 5 20 20 0 0 1-4-.37c-2 10.42-.91 19.47 3.29 27.33.82 1.46 1.74 2.83 2.56 4a24.2 24.2 0 0 1-2.5-3.69z" fill="#274187"/><path d="M265.71 236.24l-4.11-5.48 3.84-3.11 1.74 2.38 8-6.58 2.38 3.11z" fill="#fff"/><path d="M274.07 209.47l-1.46.82a29.72 29.72 0 0 1-11 4.66l14.17 26.41a60.12 60.12 0 0 0 9-11.51zM266.21 249.31a57.76 57.76 0 0 0 6-4.66l-15.6-29.34a11.58 11.58 0 0 1-3.11-.37 51.13 51.13 0 0 0-.91 8.77z" fill="#fff" opacity=".1" style="isolation:isolate"/><g opacity=".5"><path d="M126.71 451.74c70 0 126.76-8.86 126.76-19.92s-56.76-19.93-126.76-19.93S0 420.76 0 431.81s56.71 19.93 126.71 19.93z" fill="#fbfcfe" opacity=".02" style="isolation:isolate"/><path d="M126.71 451.28c68.36 0 123.83-8.68 123.83-19.47s-55.43-19.46-123.83-19.46S2.92 421.03 2.92 431.81s55.38 19.47 123.79 19.47z" fill="#f8fafe" opacity=".05" style="isolation:isolate"/><path d="M126.71 450.91c66.71 0 120.91-8.5 120.91-19.1s-54.1-19.1-120.91-19.1-120.87 8.5-120.87 19.1 54.11 19.1 120.87 19.1z" fill="#f4f7fd" opacity=".07" style="isolation:isolate"/><path d="M244.64 431.81c0 10.24-52.82 18.55-118 18.55S8.77 442.1 8.77 431.81s52.82-18.55 118-18.55 117.87 8.32 117.87 18.55z" fill="#f1f5fc" opacity=".1" style="isolation:isolate"/><path d="M241.81 431.81c0 10-51.54 18.19-115.15 18.19s-115.15-8.13-115.15-18.19 51.54-18.19 115.15-18.19 115.15 8.23 115.15 18.19z" fill="#edf2fc" opacity=".12" style="isolation:isolate"/><path d="M238.88 431.81c0 9.78-50.17 17.64-112.22 17.64-61.87 0-112.22-7.86-112.22-17.64s50.17-17.64 112.22-17.64 112.22 7.93 112.22 17.64z" fill="#e9f0fb" opacity=".15" style="isolation:isolate"/><path d="M235.96 431.81c0 9.5-49 17.18-109.3 17.18s-109.3-7.77-109.3-17.18 49-17.18 109.3-17.18 109.3 7.77 109.3 17.18z" fill="#e6edfa" opacity=".17" style="isolation:isolate"/><path d="M233.03 431.81c0 9.23-47.61 16.63-106.38 16.63s-106.37-7.49-106.37-16.63 47.61-16.63 106.38-16.63c58.76-.18 106.37 7.49 106.37 16.63z" fill="#e2ebfa" opacity=".2" style="isolation:isolate"/><path d="M230.2 431.81c0 9-46.33 16.27-103.36 16.27s-103.36-7.31-103.36-16.27 46.33-16.27 103.36-16.27 103.36 7.23 103.36 16.27z" fill="#dfe8f9" opacity=".22" style="isolation:isolate"/><path d="M126.71 447.71c55.56 0 100.62-7.13 100.62-15.9s-45.02-15.9-100.62-15.9-100.62 7.13-100.62 15.9 45.1 15.9 100.62 15.9z" fill="#dbe6f8" opacity=".24" style="isolation:isolate"/><path d="M224.35 431.81c0 8.5-43.77 15.35-97.69 15.35s-97.69-6.95-97.69-15.35 43.74-15.35 97.69-15.35 97.69 6.85 97.69 15.35z" fill="#d8e3f7" opacity=".27" style="isolation:isolate"/><path d="M221.43 431.81c0 8.32-42.4 14.9-94.68 14.9s-94.68-6.67-94.68-14.9 42.4-15 94.68-15 94.68 6.78 94.68 15z" fill="#d4e1f7" opacity=".29" style="isolation:isolate"/><path d="M218.5 431.81c0 8-41.12 14.44-91.75 14.44S35 439.67 35 431.81c0-8 41.12-14.44 91.75-14.44s91.75 6.49 91.75 14.44z" fill="#d0def6" opacity=".32" style="isolation:isolate"/><path d="M215.71 431.81c0 7.77-39.75 14-89 14-49.08 0-89-6.31-89-14s39.75-14 89-14 89 6.29 89 14z" fill="#cddcf5" opacity=".34" style="isolation:isolate"/><path d="M212.71 431.81c0 7.49-38.57 13.62-86.09 13.62s-86.09-6-86.09-13.62 38.57-13.62 86.09-13.62 86.09 6.13 86.09 13.62z" fill="#c9d9f5" opacity=".37" style="isolation:isolate"/><path d="M209.82 431.81c0 7.22-37.19 13.07-83.07 13.07s-83.04-5.85-83.04-13.07 37.2-13.07 83.07-13.07 83.04 5.85 83.04 13.07z" fill="#c6d7f4" opacity=".39" style="isolation:isolate"/><path d="M126.71 444.52c44.32 0 80.15-5.67 80.15-12.7s-35.88-12.72-80.15-12.72-80.15 5.67-80.15 12.7 35.87 12.72 80.15 12.72z" fill="#c2d4f3" opacity=".41" style="isolation:isolate"/><path d="M126.71 443.97c42.77 0 77.41-5.39 77.41-12.15s-34.6-12.16-77.41-12.16-77.37 5.44-77.37 12.15 34.64 12.16 77.37 12.16z" fill="#bed2f3" opacity=".44" style="isolation:isolate"/><path d="M201.14 431.81c0 6.4-33.36 11.7-74.48 11.7s-74.48-5.21-74.48-11.7 33.35-11.71 74.48-11.71 74.48 5.22 74.48 11.71z" fill="#bbcff2" opacity=".46" style="isolation:isolate"/><path d="M198.22 431.81c0 6.31-32 11.24-71.47 11.24s-71.47-5-71.47-11.24 32-11.24 71.47-11.24 71.47 5.03 71.47 11.24z" fill="#b7cdf1" opacity=".49" style="isolation:isolate"/><path d="M195.29 431.81c0 6-30.71 10.78-68.54 10.78s-68.54-4.84-68.54-10.78 30.71-10.78 68.5-10.78 68.58 4.84 68.58 10.78z" fill="#b4caf1" opacity=".51" style="isolation:isolate"/><path d="M192.46 431.81c0 5.76-29.52 10.42-65.8 10.42s-65.8-4.66-65.8-10.42 29.52-10.42 65.8-10.42 65.8 4.71 65.8 10.42z" fill="#b0c8f0" opacity=".54" style="isolation:isolate"/><path d="M189.53 431.81c0 5.48-28.15 9.87-62.87 9.87s-62.87-4.39-62.87-9.87 28.15-9.87 62.87-9.87 62.87 4.39 62.87 9.87z" fill="#adc5ef" opacity=".56" style="isolation:isolate"/><path d="M186.61 431.81c0 5.21-26.78 9.5-59.86 9.5s-59.86-4.3-59.86-9.5 26.78-9.5 59.86-9.5 59.86 4.29 59.86 9.5z" fill="#a9c3ef" opacity=".59" style="isolation:isolate"/><path d="M183.71 431.81c0 4.93-25.5 9-56.93 9s-56.93-4-56.93-9 25.5-9 56.93-9 56.93 4.07 56.93 9z" fill="#a5c0ee" opacity=".61" style="isolation:isolate"/><path d="M180.85 431.81c0 4.66-24.31 8.5-54 8.5s-54.19-3.84-54.19-8.5 24.31-8.5 54.19-8.5 54 3.84 54 8.5z" fill="#a2beed" opacity=".63" style="isolation:isolate"/><path d="M177.93 431.81c0 4.39-22.94 8-51.27 8s-51.27-3.56-51.27-8 22.94-8 51.27-8 51.27 3.53 51.27 8z" fill="#9ebbed" opacity=".66" style="isolation:isolate"/><path d="M175 431.81c0 4.11-21.57 7.59-48.25 7.59s-48.25-3.47-48.25-7.59 21.57-7.59 48.25-7.59 48.25 3.39 48.25 7.59z" fill="#9bb9ec" opacity=".68" style="isolation:isolate"/><path d="M172.08 431.81c0 4-20.29 7.22-45.33 7.22s-45.33-3.2-45.33-7.22 20.29-7.22 45.29-7.22 45.37 3.2 45.37 7.22z" fill="#97b6eb" opacity=".71" style="isolation:isolate"/><path d="M169.15 431.81c0 3.75-19.1 6.67-42.4 6.67-23.49 0-42.4-2.92-42.4-6.67s19.1-6.71 42.36-6.71 42.44 3 42.44 6.71z" fill="#93b4eb" opacity=".73" style="isolation:isolate"/><path d="M166.32 431.81c0 3.47-17.73 6.31-39.66 6.31S87 435.29 87 431.81s17.73-6.31 39.66-6.31 39.66 2.84 39.66 6.31z" fill="#90b1ea" opacity=".76" style="isolation:isolate"/><path d="M163.4 431.81c0 3.2-16.45 5.76-36.65 5.76s-36.65-2.56-36.65-5.76 16.45-5.71 36.61-5.71 36.69 2.51 36.69 5.71z" fill="#8cafe9" opacity=".78" style="isolation:isolate"/><path d="M160.47 431.81c0 2.92-15.08 5.3-33.72 5.3s-33.72-2.38-33.72-5.3 15.08-5.3 33.72-5.3 33.72 2.38 33.72 5.3z" fill="#89ace8" opacity=".8" style="isolation:isolate"/><path d="M157.55 431.81c0 2.65-13.89 4.84-30.8 4.84-17.09 0-30.8-2.1-30.8-4.84s13.89-4.84 30.8-4.84 30.8 2.19 30.8 4.84z" fill="#85aae8" opacity=".83" style="isolation:isolate"/><path d="M154.71 431.81c0 2.38-12.52 4.39-28.06 4.39s-28.06-2-28.06-4.39 12.52-4.39 28.06-4.39 28.06 2.02 28.06 4.39z" fill="#82a7e7" opacity=".85" style="isolation:isolate"/><path d="M151.79 431.81c0 2.1-11.24 4-25 4s-25-1.74-25-4c0-2.1 11.24-4 25-4s25 1.72 25 4z" fill="#7ea5e6" opacity=".88" style="isolation:isolate"/><path d="M148.87 431.81c0 1.83-9.87 3.47-22.12 3.47s-22.12-1.65-22.12-3.47 9.87-3.47 22.12-3.47 22.12 1.46 22.12 3.47z" fill="#7aa2e6" opacity=".9" style="isolation:isolate"/><path d="M145.94 431.81c0 1.74-8.68 3.11-19.19 3.11-10.69 0-19.19-1.37-19.19-3.11s8.68-3.11 19.19-3.11 19.19 1.4 19.19 3.11z" fill="#77a0e5" opacity=".93" style="isolation:isolate"/><path d="M143.11 431.81c0 1.46-7.31 2.56-16.45 2.56s-16.45-1.19-16.45-2.56 7.31-2.56 16.45-2.56 16.45 1.1 16.45 2.56z" fill="#739de4" opacity=".95" style="isolation:isolate"/><path d="M140.18 431.81c0 1.19-6 2.1-13.43 2.1s-13.43-.91-13.43-2.1 6-2.1 13.43-2.1 13.43.92 13.43 2.1z" fill="#709be4" opacity=".98" style="isolation:isolate"/><path d="M137.26 431.81c0 .91-4.66 1.64-10.51 1.64s-10.51-.64-10.51-1.64 4.66-1.65 10.51-1.65 10.51.74 10.51 1.65z" fill="#6c98e3" opacity=".5" style="isolation:isolate"/></g><path d="M123.64 235.1s-22-10.69-39.2-19.37a12.09 12.09 0 0 1-4.57-17.63l31.71-39.75a12.87 12.87 0 1 1 19 17.27l-25.13 24.31a2.55 2.55 0 0 0 .55 4l24.71 20.34z" fill="#fff"/><path d="M117.25 173.92c-.91.91-1.83 2-2.83 2.92-4.57 4.11-10.69 6-15.72 9.6-4.39 3.2-16.27 16.82-7 20.93 1.74.82 3.56.91 5.21 1.74 2 .91 3.56 2.83 5.3 4.11 2.56 1.83 5.57 3.11 7.86 5.21 1.46 1.46 2.65 3.2 4 4.84 2.83 3.29 8.5 6.4 13 6.4l3.56-5.57-24.72-20.3a2.55 2.55 0 0 1-.55-4l25-24.31a12.83 12.83 0 0 0 3.2-13.34c-2.1 1.46-4.11 3.11-6 4.66-1.83 1.74-2.56 1.83-4.84 2.56a19 19 0 0 0-5.47 4.55z" fill="#6c98e3" opacity=".1" style="isolation:isolate"/><path d="M108.95 393.6s-4.84 7.31 2.92 16.45l-2.65 12-22.66-5s7.77-15.72 8-26.59z" transform="translate(-.29 .1)" fill="url(#L)"/><path d="M110.5 407.22s4.84 10.69 11 13.89c0 0 2.38 1.37 5.48 2.83 2.1 1.1 4.57.09 6.58.91a3.67 3.67 0 0 1 2.28 4.3l-.27 1.37-9.78-.09L84.45 421l5.48-16.82 1.83.55s12.8 21.13 18.74 2.49z" transform="translate(-.29 .1)" fill="url(#f)"/><path d="M132.71 433l-6.67.55-41.22-9.23a3.39 3.39 0 0 1-2.56-4 1.53 1.53 0 0 1 2-1.19l43.45 11.31 4.93-.27c1.1-.27 1.83 0 2.56-.55l.64-.27-.37 1.83a2.37 2.37 0 0 1-2.76 1.82z" fill="#fff"/><path d="M144.59 258.44l-13.71 79.23L109 395.8l-15.9-3.56a252.31 252.31 0 0 0 8.5-35.18c2.92-17.46 8.41-21.84 7.77-24.31-3.2-11.33-2.56-41.76-2.56-41.76a54.84 54.84 0 0 0-.91-8.68l-1.46-7.77-3.29-22.66z" transform="translate(-.29 .1)" fill="url(#g)"/><path d="M100.98 253.42l3.2 21.2 1.46 7.77a56 56 0 0 1 .91 8.68s-.09 9.23.09 19.37a112.84 112.84 0 0 1 6.58 11.7c8.5 18.83 6 42.31-6.58 58.67-2.1 2.92-4.66 5.76-5.76 9.23a15.22 15.22 0 0 0-.55 4l8.38 1.86 21.84-58.12 13.71-79.23-42.4-6.4a15.51 15.51 0 0 0-.88 1.27z" fill="#6c98e3" opacity=".2" style="isolation:isolate"/><path d="M126.31 398s-3.11 8.32 6.4 15.35v12.43H109.4s4.66-17.78 2.29-27.78z" transform="translate(-.29 .1)" fill="url(#M)"/><path d="M130.7 410.88s6.95 9.32 13.71 11.24a131.24 131.24 0 0 0 13 3.11 3.64 3.64 0 0 1 3.2 3.56v1.37H108.4l1.74-17.64 1.83.09c.03-.09 17.17 17.82 18.73-1.73z" transform="translate(-.29 .1)" fill="url(#N)"/><path d="M158.46 433.18h-49.07a3.28 3.28 0 0 1-3.29-3.29 1.7 1.7 0 0 1 1.64-1.65l50 1.74a3 3 0 0 0 2.38-.64l.64-.37v1.83a2.23 2.23 0 0 1-2.3 2.38z" fill="#fff"/><path d="M106.3 251.77a33.87 33.87 0 0 0 1.83 31.71 33.86 33.86 0 0 1 4.66 15.44c.91 12.25.37 25.59 3.38 44 0 0-2.92 12.52-2.56 20.93.82 13.71-.55 20.84-3.2 38.66h16.91l13-60.41a21 21 0 0 0 .55-2.56c.91-6.67 7.31-46.79 11.24-68.82 1.46-8.68 1.19-7.77.91-11.51z" transform="translate(-.29 .1)" fill="url(#O)"/><path d="M140.46 339.79c.91-6.67 7.31-46.79 11.24-68.82 1.46-8.68 1.19-7.77.91-11.51l-44.6-7.22c-.37.82-.82 1.64-1.1 2.38-2.56 6.95 0 14.71 3.84 20.93s8.77 11.7 12.15 18.28c5.48 11 5.57 23.58 5.57 35.92 0 13.43 0 27-3.2 40-1.46 6-3.75 11.88-4.3 17.91a49.49 49.49 0 0 0 1.46 15.08H127l13-60.41c.18-.81.28-1.72.46-2.54z" fill="#5082da" opacity=".2" style="isolation:isolate"/><path d="M144.3 128.86s-8.68 5.76-5.21 20.65c1.46 6.12-23.21-9.23-23.21-9.23s3.29-6.95 2.1-10.51l18.55-5.3z" fill="#ffcebd"/><path d="M144.3 128.86s-3.56 2.38-5.21 8.13l-4.3-2.92-14-6.31 15.72-3.47z" fill="#a58877" opacity=".4" style="isolation:isolate"/><path d="M139.27 94.04s5 1.37 6 3.47l1.46 3.38a24.61 24.61 0 0 1 2 8.5l4.98 10.24a1.45 1.45 0 0 1-.82 2l-2.38.37.64 10.42a4.26 4.26 0 0 1-6.58 4l-9.32-4.66-17.18-2s.55-8.77-3.29-12.15c-.07-.08-9.78-24.02 24.49-23.57z" fill="#ffcebd"/><path d="M112.87 101.53a5.78 5.78 0 0 1 1.1-2.1c2.92-4 8.5-2.92 12.79-3.75 4-.82 7.77-2.65 11.61-3.47 4-.91 8.5-.82 11.61 1.83a4.65 4.65 0 0 1 1.37 5 7.67 7.67 0 0 1-2 2.83 5.56 5.56 0 0 1-1.46 1.46 14.12 14.12 0 0 1-2 1.1c-1.74.82-7.22 1.46-8.13 3.47-1.1 2.28 2.28 7 2.65 9.32.55 3.2.91 6.58 1.37 9.87a1.6 1.6 0 0 0 .37 1.1 2 2 0 0 0 2.1.27c.27-1.37.55-2.56.82-3.75a4.11 4.11 0 0 1 1.64-2.83c1.83-1.19 4.84-.55 5.76 1.46a8.54 8.54 0 0 1 .55 3.11c0 2.83.09 5.57.09 8.32 0 1.19 0 2.65-.82 3.56-.91 1.1-2.56 1.19-3.84 1.19-2.56 0-4.84-1.37-7.22-2.1a32.84 32.84 0 0 1-5.85-3.2 10.79 10.79 0 0 1-3.47-3.56 4.28 4.28 0 0 1 .27-4.84c1.19-1.46 3.84-1.83 4.57-3.84.64-1.83-.55-4.39-1.46-5.85-.64-.91-1.64-2-2.83-2a2.81 2.81 0 0 0-2.28 1.37c-1.46 2.28-1.37 6.12-1.74 8.68s-1.1 5-3.56 6c-2.1.82-5 1.37-7.22 0-2-1.19-2.38-4.3-3.11-6.4a63.66 63.66 0 0 1-2.28-18.19 16.69 16.69 0 0 1 .6-4.06z" transform="translate(-.29 .1)" fill="url(#P)"/><path d="M155.08 265.3l.91-78.87c-1.1-28.06-16.27-38.93-27.05-43.23a18.32 18.32 0 0 0-19.1 3.38c-5 4.57-10.69 11.06-10.51 18.28.09 8.5 5.85 31.89 4.93 43.5-1.46 18.19-6.67 55.66-6.67 55.66 10.06 11.43 29.12-8.68 57.49 1.28z" fill="#fff"/><path d="M118.16 254.25c-2.83 3.11-3.56 7.31-4.3 11.51 0 .27-.09.55-.09.82 10.42-2.28 24.13-7.22 41.4-1.19l.91-78.87c-1.1-28.06-16.27-38.93-27.05-43.23a17.14 17.14 0 0 0-10.24-.91c-2.92 5.85-4.39 12.25-2 18.28 1.19 3.2 3.47 5.85 5.57 8.5 4 5 7.77 10.51 9.78 16.63s2.38 13.07-.27 18.92c-2.1 4.57-6 8.41-6.95 13.34s1.19 9.6 2.83 14.17 2.65 10 0 14.17c-2.55 3.38-6.94 4.84-9.59 7.86z" fill="#6c98e3" opacity=".1" style="isolation:isolate"/><path d="M135.25 161.1l22 25.77a2.41 2.41 0 0 0 3.84-.27l24.86-26.14-.55-3.84a8 8 0 0 1 1.74-6.12l4.66-5.76 15-10.69v.82a7.83 7.83 0 0 1-2.28 5.48l-5.76 5.57 3.56 7.22a10.61 10.61 0 0 1 .64 7.86 4.11 4.11 0 0 1-2.56 2.65l-5 2s-14.55 26.45-23.87 42.63a11.79 11.79 0 0 1-17.36 3.29l-36.65-33.08a12.58 12.58 0 0 1-1.1-17.46 12.36 12.36 0 0 1 18.83.07z" fill="#ffcebd"/><path d="M112.33 139.45a39.75 39.75 0 0 1 29.79 1.83 2 2 0 0 1 1.1 1.74l-.55 10.51s-17.91-12-28.7-9.32a1.26 1.26 0 0 1-1.46-.82l-.91-2.56c-.37-.46.09-1.28.73-1.38z" transform="translate(-.29 .1)" fill="url(#Q)"/><path d="M200.5 163.77a4.84 4.84 0 0 0 2.56-2.65 10.61 10.61 0 0 0-.64-7.86v-.09a44 44 0 0 0-7.22 9.6 26.15 26.15 0 0 1-3.47 5.57c-1.46 1.64-3.29 2.65-4.93 4-5.76 4.93-7.59 13.25-13 18.55-4.57 4.39-11.51 6.76-13.25 12.79-8.32-5.76-16.82-11.51-22.57-19.74-3.29-4.84-5.85-10.42-10.42-14.17a22.74 22.74 0 0 0-13.25-4.93 12.41 12.41 0 0 0 3.29 13.71l36.65 33.08a11.81 11.81 0 0 0 17.36-3.29c9.32-16.18 23.85-42.59 23.85-42.59z" fill="#a58877" opacity=".4" style="isolation:isolate"/><path d="M193.37 170.17s-12 21.38-21.57 37.93a12.24 12.24 0 0 1-17.91 3.47l-37.74-34a12.82 12.82 0 1 1 18.28-17.91l22.66 26.59a2.44 2.44 0 0 0 4-.27l21.75-23.49z" fill="#fff"/><path d="M191.18 168.43c-1.37 1.37-3.11 2.28-4.57 3.56-5.76 4.93-7.58 13.25-13 18.55-4.57 4.39-11.51 6.76-13.25 12.79-8.32-5.76-16.82-11.51-22.57-19.74-3.29-4.84-5.85-10.42-10.42-14.17-4.3-3.56-9.6-4.93-15.08-5a12.94 12.94 0 0 0 3.75 13l37.74 34a12.24 12.24 0 0 0 17.93-3.51c9.6-16.54 21.57-37.93 21.57-37.93z" fill="#6c98e3" opacity=".2" style="isolation:isolate"/><g opacity=".5"><path d="M489.65 411.8c43.87 0 79.42-5.57 79.42-12.52s-35.55-12.52-79.42-12.52-79.42 5.57-79.42 12.52 35.56 12.52 79.42 12.52z" fill="#fbfcfe" opacity=".02" style="isolation:isolate"/><path d="M489.65 411.43c42.77 0 77.5-5.39 77.5-12.15s-34.73-12.18-77.5-12.18-77.5 5.39-77.5 12.15 34.64 12.18 77.5 12.18z" fill="#f8fafe" opacity=".05" style="isolation:isolate"/><path d="M565.32 399.28c0 6.58-33.9 11.88-75.67 11.88s-75.67-5.3-75.67-11.88 33.9-11.88 75.67-11.88 75.67 5.3 75.67 11.88z" fill="#f4f7fd" opacity=".07" style="isolation:isolate"/><path d="M489.65 410.89c40.85 0 73.93-5.21 73.93-11.61s-33.08-11.61-73.93-11.61-73.94 5.21-73.94 11.61 33.09 11.61 73.94 11.61z" fill="#f1f5fc" opacity=".1" style="isolation:isolate"/><path d="M489.65 410.61c39.75 0 72-5.12 72-11.33s-32.26-11.33-72-11.33-72 5.12-72 11.33 32.25 11.33 72 11.33z" fill="#edf2fc" opacity=".12" style="isolation:isolate"/><path d="M559.84 399.28c0 6.12-31.53 11.06-70.19 11.06-38.84 0-70.19-4.93-70.19-11.06s31.53-11.06 70.19-11.06 70.19 4.94 70.19 11.06z" fill="#e9f0fb" opacity=".15" style="isolation:isolate"/><path d="M489.65 410.1c37.83 0 68.45-4.84 68.45-10.78s-30.62-10.78-68.45-10.78-68.45 4.84-68.45 10.78 30.62 10.78 68.45 10.78z" fill="#e6edfa" opacity=".17" style="isolation:isolate"/><path d="M489.65 409.79c36.74 0 66.53-4.75 66.53-10.51s-29.79-10.51-66.53-10.51-66.53 4.75-66.53 10.51 29.79 10.51 66.53 10.51z" fill="#e2ebfa" opacity=".2" style="isolation:isolate"/><path d="M489.65 409.42c35.82 0 64.8-4.57 64.8-10.14s-29.07-10.18-64.8-10.18-64.79 4.57-64.79 10.14 28.97 10.18 64.79 10.18z" fill="#dfe8f9" opacity=".22" style="isolation:isolate"/><path d="M489.65 409.1c34.82 0 63-4.39 63-9.87s-28.24-9.87-63-9.87-63 4.39-63 9.87 28.18 9.87 63 9.87z" fill="#dbe6f8" opacity=".24" style="isolation:isolate"/><path d="M489.65 408.87c33.72 0 61.14-4.3 61.14-9.6s-27.33-9.6-61.14-9.6-61.14 4.3-61.14 9.6 27.42 9.6 61.14 9.6z" fill="#d8e3f7" opacity=".27" style="isolation:isolate"/><path d="M548.87 399.28c0 5.21-26.59 9.32-59.4 9.32s-59.4-4.11-59.4-9.32 26.59-9.32 59.4-9.32 59.4 4.29 59.4 9.32z" fill="#d4e1f7" opacity=".29" style="isolation:isolate"/><path d="M547.13 399.28c0 4.93-25.77 9-57.48 9s-57.48-4-57.48-9 25.77-9 57.48-9 57.48 4.06 57.48 9z" fill="#d0def6" opacity=".32" style="isolation:isolate"/><path d="M545.31 399.28c0 4.84-24.95 8.77-55.66 8.77s-55.66-3.84-55.66-8.77 24.95-8.77 55.66-8.77 55.66 3.93 55.66 8.77z" fill="#cddcf5" opacity=".34" style="isolation:isolate"/><path d="M543.39 399.28c0 4.66-24.13 8.5-53.92 8.5s-53.92-3.75-53.92-8.5 24.13-8.5 53.92-8.5 53.92 3.84 53.92 8.5z" fill="#c9d9f5" opacity=".37" style="isolation:isolate"/><path d="M489.65 407.41c28.7 0 52-3.66 52-8.13s-23.3-8.13-52-8.13-52 3.66-52 8.13 23.21 8.13 52 8.13z" fill="#c6d7f4" opacity=".39" style="isolation:isolate"/><path d="M539.82 399.28c0 4.39-22.57 7.86-50.26 7.86s-50.26-3.56-50.26-7.86 22.57-7.86 50.26-7.86 50.26 3.47 50.26 7.86z" fill="#c2d4f3" opacity=".41" style="isolation:isolate"/><path d="M537.91 399.28c0 4.3-21.57 7.59-48.44 7.59s-48.44-3.47-48.44-7.59c0-4.3 21.57-7.59 48.44-7.59s48.44 3.48 48.44 7.59z" fill="#bed2f3" opacity=".44" style="isolation:isolate"/><path d="M536.17 399.28c0 4-20.84 7.31-46.52 7.31s-46.52-3.29-46.52-7.31 20.84-7.31 46.52-7.31 46.52 3.29 46.52 7.31z" fill="#bbcff2" opacity=".46" style="isolation:isolate"/><path d="M489.65 406.32c24.77 0 44.87-3.2 44.87-7s-20.11-7-44.87-7-44.87 3.2-44.87 7 20.11 7 44.87 7z" fill="#b7cdf1" opacity=".49" style="isolation:isolate"/><path d="M532.6 399.28c0 3.75-19.19 6.76-43 6.76s-43-3.11-43-6.76 19.19-6.76 43-6.76c23.63.09 43 3.01 43 6.76z" fill="#b4caf1" opacity=".51" style="isolation:isolate"/><path d="M530.78 399.28c0 3.56-18.37 6.58-41.12 6.58s-41.12-2.92-41.12-6.58 18.37-6.58 41.12-6.58c22.66.18 41.12 3.01 41.12 6.58z" fill="#b0c8f0" opacity=".54" style="isolation:isolate"/><path d="M528.86 399.28c0 3.47-17.64 6.12-39.39 6.12s-39.39-2.83-39.39-6.12c0-3.47 17.64-6.12 39.39-6.12s39.39 2.83 39.39 6.12z" fill="#adc5ef" opacity=".56" style="isolation:isolate"/><path d="M527.12 399.28c0 3.2-16.82 5.85-37.47 5.85s-37.47-2.65-37.47-5.85 16.82-5.85 37.47-5.85 37.47 2.67 37.47 5.85z" fill="#a9c3ef" opacity=".59" style="isolation:isolate"/><path d="M489.65 404.85c19.74 0 35.73-2.47 35.73-5.57s-16-5.57-35.73-5.57-35.73 2.47-35.73 5.57 15.99 5.57 35.73 5.57z" fill="#a5c0ee" opacity=".61" style="isolation:isolate"/><path d="M523.38 399.28c0 2.92-15.17 5.3-33.9 5.3s-33.9-2.38-33.9-5.3 15.17-5.3 33.9-5.3 33.9 2.37 33.9 5.3z" fill="#a2beed" opacity=".63" style="isolation:isolate"/><path d="M521.64 399.28c0 2.83-14.44 5-32 5-17.73 0-32-2.28-32-5s14.44-5 32-5 32 2.17 32 5z" fill="#9ebbed" opacity=".66" style="isolation:isolate"/><path d="M519.81 399.28c0 2.65-13.43 4.84-30.25 4.84s-30.34-2.19-30.34-4.84 13.43-4.84 30.25-4.84 30.34 2.28 30.34 4.84z" fill="#9bb9ec" opacity=".68" style="isolation:isolate"/><path d="M489.65 403.85c15.72 0 28.42-2 28.42-4.57s-12.7-4.57-28.42-4.57-28.42 2-28.42 4.57 12.7 4.57 28.42 4.57z" fill="#97b6eb" opacity=".71" style="isolation:isolate"/><path d="M516.15 399.28c0 2.28-11.88 4.11-26.59 4.11s-26.59-1.83-26.59-4.11 11.88-4.11 26.59-4.11 26.59 1.82 26.59 4.11z" fill="#93b4eb" opacity=".73" style="isolation:isolate"/><path d="M514.33 399.28c0 2.1-11.06 3.84-24.86 3.84s-24.86-1.74-24.86-3.84 11.06-3.84 24.86-3.84 24.86 1.74 24.86 3.84z" fill="#90b1ea" opacity=".76" style="isolation:isolate"/><path d="M512.59 399.28c0 2-10.24 3.56-22.94 3.56s-22.94-1.64-22.94-3.56 10.24-3.56 22.94-3.56 22.94 1.55 22.94 3.56z" fill="#8cafe9" opacity=".78" style="isolation:isolate"/><path d="M510.76 399.28c0 1.83-9.5 3.38-21.2 3.38s-21.2-1.46-21.2-3.38 9.5-3.29 21.2-3.29 21.2 1.46 21.2 3.29z" fill="#89ace8" opacity=".8" style="isolation:isolate"/><path d="M508.84 399.28c0 1.74-8.68 3.11-19.37 3.11s-19.37-1.37-19.37-3.11 8.68-3.11 19.37-3.11 19.37 1.46 19.37 3.11z" fill="#85aae8" opacity=".83" style="isolation:isolate"/><path d="M507.11 399.28c0 1.46-7.86 2.83-17.46 2.83s-17.46-1.19-17.46-2.83c0-1.46 7.86-2.83 17.46-2.83s17.46 1.37 17.46 2.83z" fill="#82a7e7" opacity=".85" style="isolation:isolate"/><path d="M505.28 399.28c0 1.37-7 2.56-15.72 2.56s-15.72-1.1-15.72-2.56 7-2.56 15.72-2.56 15.72 1.19 15.72 2.56z" fill="#7ea5e6" opacity=".88" style="isolation:isolate"/><path d="M503.54 399.28c0 1.19-6.31 2.1-13.89 2.1s-13.89-.91-13.89-2.1 6.31-2.1 13.89-2.1 13.89.92 13.89 2.1z" fill="#7aa2e6" opacity=".9" style="isolation:isolate"/><path d="M489.65 401.1c6.67 0 12-.82 12-1.83s-5.39-1.83-12-1.83-12 .82-12 1.83 5.33 1.83 12 1.83z" fill="#77a0e5" opacity=".93" style="isolation:isolate"/><path d="M499.8 399.28c0 .91-4.57 1.64-10.24 1.64s-10.24-.64-10.24-1.64 4.57-1.65 10.24-1.65 10.24.83 10.24 1.65z" fill="#739de4" opacity=".95" style="isolation:isolate"/><path d="M498.06 399.28c0 .64-3.75 1.37-8.41 1.37s-8.41-.55-8.41-1.37c0-.64 3.75-1.37 8.41-1.37s8.41.73 8.41 1.37z" fill="#709be4" opacity=".98" style="isolation:isolate"/><path d="M496.14 399.28c0 .55-2.92 1.1-6.58 1.1s-6.58-.37-6.58-1.1c0-.55 2.92-1.1 6.58-1.1s6.58.55 6.58 1.1z" fill="#6c98e3" opacity=".5" style="isolation:isolate"/></g><path d="M387.31 299.29s.37-.37 1.1-1.19c.37-.37.82-.82 1.46-1.37.27-.27.64-.55.91-.82s.82-.55 1.19-.82a27.49 27.49 0 0 1 6.4-3.57 40.81 40.81 0 0 1 9.23-2.65c.91-.09 1.74-.27 2.65-.36s1.83-.09 2.83-.27c1.83-.09 3.84-.09 5.85-.09h1.46c.55 0 1.1.09 1.64.09h.82l.82.09c.55 0 1.1.09 1.64.09a52 52 0 0 1 6.4 1.1 63.86 63.86 0 0 1 6.58 1.74c2.1.64 4.39 1.64 6.58 2.56a48.22 48.22 0 0 1 6.31 3.56l1.46 1.1a15.24 15.24 0 0 0 1.46 1.1l.37.27.37.27.27.27.37.27c.55.37.91.82 1.37 1.19a76.5 76.5 0 0 1 9 10.78 56.3 56.3 0 0 1 3.75 5.76 12.79 12.79 0 0 0 .91 1.46c.27.55.55.91.82 1.46.55.91 1.1 1.83 1.64 2.92a115.31 115.31 0 0 1 5.21 11.51 103.06 103.06 0 0 1 3.47 10.69c.37 1.74.91 3.29 1.19 4.84a20.73 20.73 0 0 0 .55 2.28c.09.64.27 1.46.37 2.1a33.57 33.57 0 0 1 .64 3.84 11.43 11.43 0 0 0 .27 1.74 10.3 10.3 0 0 0 .27 1.65c.27 2 .37 3.56.55 4.66a5.59 5.59 0 0 1 .09 1.64s-.09-.55-.37-1.64a8.16 8.16 0 0 0-.55-1.83 16.49 16.49 0 0 0-.82-2.56c-.09-.55-.27-.91-.37-1.46a11.57 11.57 0 0 0-.55-1.64 12.7 12.7 0 0 0-.55-1.74 7.27 7.27 0 0 0-.64-1.83c-.27-.64-.37-1.37-.64-2s-.55-1.46-.82-2.1c-.55-1.46-1.1-2.92-1.74-4.57-1.19-3.2-2.65-6.58-4.3-10s-3.47-7-5.57-10.78c-.55-.91-1.1-1.74-1.64-2.65-.27-.37-.55-.91-.82-1.37a11.9 11.9 0 0 0-.91-1.37 27.19 27.19 0 0 0-1.83-2.65c-.27-.37-.64-.91-.91-1.37s-.64-.91-.91-1.37a68.82 68.82 0 0 0-8.5-10 13 13 0 0 0-1.19-1.1l-.27-.27-.27-.27-.27-.27-.27-.27-1.19-.91-1.37-.91a40.9 40.9 0 0 0-5.48-3.2 68.62 68.62 0 0 0-11.83-4.33c-2-.55-4-.91-6-1.37a6 6 0 0 1-1.46-.27l-.64-.09-.64-.09c-.55 0-.91-.09-1.46-.09s-.91-.09-1.46-.09a60.14 60.14 0 0 0-10.69-.09 59.13 59.13 0 0 0-9 1.46 28.24 28.24 0 0 0-6.58 2.56c-.37.27-.82.37-1.19.64a11.65 11.65 0 0 1-1.1.64c-.64.37-1.19.82-1.64 1.1-1.37-.2-1.83.26-1.83.26z" transform="translate(-.29 .1)" fill="url(#h)"/><path d="M404.31 285.67s.55-.27 1.46-.64c.27-.09.55-.27.82-.37s.64-.27.91-.37a23.37 23.37 0 0 1 2.38-.82c.37-.09.91-.27 1.46-.37s1.1-.27 1.65-.37a11.43 11.43 0 0 1 1.74-.27 15.17 15.17 0 0 0 2-.27 49.16 49.16 0 0 1 9-.09 64.56 64.56 0 0 1 10.51 1.74 71.44 71.44 0 0 1 11.33 3.75c2 .82 3.84 1.64 5.85 2.65.91.55 1.83 1.1 2.93 1.74l.64.37.64.55.64.37.27.27.37.27a53.51 53.51 0 0 1 9.5 9.78c.64.91 1.37 1.83 2 2.65l.55.64.27.37.28.37.91 1.37c.55.91 1.19 1.74 1.74 2.83.55.91 1.1 2 1.64 2.92s.91 2 1.46 2.92.91 2 1.37 2.92c.27.55.37.91.64 1.46a8252.8 8252.8 0 0 0 1.64 4.39 84 84 0 0 1 3.2 11.51c.27 1.83.64 3.75.91 5.48a26 26 0 0 1 .27 2.65c0 .82.09 1.74.09 2.56.09 1.64.09 3.2.09 4.66v2.1a14.81 14.81 0 0 1-.09 2 58.87 58.87 0 0 1-.64 6.76c-.27 1.83-.64 3.29-.82 4.39a13.08 13.08 0 0 0-.36 1.46v-1.65c0-1.1.09-2.56 0-4.39s-.09-4.11-.28-6.76-.55-5.48-1.1-8.68c-.09-.82-.27-1.64-.37-2.38a22.27 22.27 0 0 0-.55-2.38 34.25 34.25 0 0 0-1.37-5 101.5 101.5 0 0 0-3.66-10.76 107.76 107.76 0 0 0-5.23-11c-1.1-1.74-2-3.47-3.2-5.3l-.91-1.37-.28-.37-.09-.27-.37-.64c-.64-.82-1.19-1.74-1.83-2.56a45.28 45.28 0 0 0-8.41-8.77l-.28-.27-.27-.27-.64-.55-.55-.37-.64-.37c-.82-.55-1.64-1.1-2.56-1.64-1.74-.91-3.47-1.83-5.21-2.65a91.59 91.59 0 0 0-20.38-6.76 51 51 0 0 0-8.5-.91h-3.56a9.93 9.93 0 0 0-1.64.09c-.55 0-.91.09-1.46.09-.91.09-1.74.27-2.38.37-.37 0-.64.09-1.1.09a2.53 2.53 0 0 1-.82.09 6.9 6.9 0 0 1-1.61 1.01z" transform="translate(-.29 .1)" fill="url(#R)"/><path d="M440.59 243.91s.37.37 1.19 1.1 2 1.65 3.47 2.92 3.2 2.92 5 4.84c.91.91 2 2 3.11 3.2s2.1 2.38 3.2 3.56a109.45 109.45 0 0 1 13 19.19l.37.64.09.09.09.27.09.37a5.1 5.1 0 0 1 .64 1.46c.37.91.91 2 1.37 2.92.91 2 1.74 4 2.56 6.12a122.07 122.07 0 0 1 4.3 12.7c1.37 4.3 2.38 8.68 3.47 12.79.55 2.1 1.1 4.3 1.64 6.31s.91 4.11 1.37 6.31a86.56 86.56 0 0 1 1.38 12.3c.09 3.84.09 7.49.09 10.78 0 1.74-.09 3.29-.09 4.84s-.27 2.92-.37 4.39c-.27 2.65-.64 5-.91 7a35.14 35.14 0 0 1-.91 4.39c-.27 1.1-.37 1.65-.37 1.65s0-.55.09-1.65a12.87 12.87 0 0 1 .09-1.83V368c0-2 0-4.3-.09-6.95s-.27-5.76-.55-9c-.09-1.64-.27-3.29-.37-5.21-.09-1.74-.37-3.56-.55-5.48a89.6 89.6 0 0 0-2-11.51l-1.64-6c-.55-2-1.19-4.11-1.74-6.31-1.19-4.11-2.38-8.41-3.56-12.7s-2.56-8.41-4-12.43c-.64-2-1.46-4-2.28-6-.37-.91-.82-1.83-1.19-2.83-.27-.55-.37-.91-.64-1.46l-.09-.37v-.09l-.09-.09-.27-.64a139.32 139.32 0 0 0-11.06-19.37 158.39 158.39 0 0 0-9.6-12.79c-1.19-1.46-2.1-2.65-2.92-3.47-.91-1.02-1.32-1.39-1.32-1.39z" transform="translate(-.29 .1)" fill="url(#S)"/><path d="M463.62 249.85l.27.27a3.3 3.3 0 0 1 .82.82 40.49 40.49 0 0 1 2.92 3.2 58.4 58.4 0 0 1 3.75 5.57 61.54 61.54 0 0 1 3.75 7.77 23.8 23.8 0 0 1 .91 2.28c.27.82.64 1.46.91 2.28s.64 1.65.91 2.38.64 1.65.91 2.56.64 1.74.91 2.56.64 1.74.91 2.65c.55 1.83 1.19 3.56 1.74 5.57 1.1 3.75 2.1 7.77 2.92 11.7.55 2 .82 4 1.19 6.12.09 1.1.37 2 .55 3.11l.55 3.11.37 3.11c.09 1.1.27 2.1.37 3.11.27 2.1.55 4.11.64 6.31.09 2 .27 4.11.37 6.12s.09 4 .09 6v8.59c0 .91-.09 1.83-.09 2.83s-.09 1.74-.09 2.65a11.56 11.56 0 0 1-.27 2.56c-.09 1.74-.27 3.29-.37 4.93-.27 1.64-.37 3.11-.55 4.57s-.37 2.83-.64 4c-.37 2.56-.82 4.66-1.19 6.58-.37 1.74-.64 3.2-.91 4.11a13.25 13.25 0 0 0-.37 1.46v-1.46c0-.91 0-2.38.09-4.3 0-.91.09-1.83.09-3.11 0-1.1 0-2.28.09-3.56v-15.74c0-.82 0-1.74-.09-2.65-.09-3.56-.27-7.22-.55-11.06-.09-1.83-.27-3.84-.37-5.85a15.84 15.84 0 0 0-.27-2.92c-.18-.91-.09-2-.27-3.11-.09-2-.55-4-.64-6-.09-1.1-.27-2-.37-3.11l-.37-3.11-.37-3.11c-.09-1.1-.37-2-.55-3.11-.37-2-.64-4-1.1-6-.09-.91-.37-2-.55-2.92s-.37-2-.55-2.92a58.71 58.71 0 0 0-1.37-5.76c-.37-1.83-.91-3.75-1.37-5.48s-.91-3.47-1.37-5.21c-.27-.82-.37-1.74-.64-2.56a13.22 13.22 0 0 1-.64-2.38c-.55-1.64-.91-3.2-1.37-4.66-.91-2.92-1.74-5.57-2.65-8a62.52 62.52 0 0 0-2.65-5.85 22.22 22.22 0 0 0-2.28-3.56 6.72 6.72 0 0 1-1.16-1.38z" transform="translate(-.29 .1)" fill="url(#T)"/><path d="M481.35 257.34s.27.27.82.91c.27.27.55.64.91 1.1.09.27.37.37.55.64a2.52 2.52 0 0 0 .64.82 41.52 41.52 0 0 1 2.83 4.57 46.13 46.13 0 0 1 2.83 6.31c.91 2.38 1.74 4.93 2.56 7.77s1.64 5.57 2.38 8.68a96.84 96.84 0 0 1 2 9.5 90.65 90.65 0 0 1 1.1 10.14 93.37 93.37 0 0 1-.27 10.14c-.09 1.65-.37 3.29-.55 4.93-.09.82-.27 1.64-.37 2.38s-.27 1.64-.37 2.28c-.55 3.11-1.1 6-1.74 8.77s-1.37 5.48-1.83 7.86c-.64 2.38-1.37 4.57-1.83 6.58-.64 1.83-1.19 3.56-1.74 4.93s-.91 2.38-1.19 3.2a6.1 6.1 0 0 0-.36 1.1s0-.37.09-1.19.27-1.83.37-3.29c.37-2.83.91-6.95 1.65-11.88.27-2.38.64-5 .91-7.86s.64-5.76.91-8.77c.09-1.46.27-3.11.36-4.66s.28-3.2.37-4.66c.09-3.2.27-6.31.09-9.5a28.82 28.82 0 0 0-.37-4.84 43.65 43.65 0 0 0-.55-4.84c-.27-1.64-.36-3.11-.64-4.66s-.55-3.11-.82-4.57c-.55-3.11-1.1-6-1.65-8.68-.55-2.83-1.1-5.3-1.64-7.77a63.28 63.28 0 0 0-3.57-11.24c-.27-.64-.55-1.19-.82-1.74s-.37-.91-.64-1.37c-.24-.63-.42-1.09-.42-1.09z" transform="translate(-.29 .1)" fill="url(#i)"/><path d="M517.54 260.18s0 .55-.09 1.37-.27 2.28-.37 3.84a44.53 44.53 0 0 1-.82 6c-.09 1.19-.37 2.38-.55 3.75s-.37 2.65-.64 4l-.82 4.39c-.27 1.46-.64 3.11-.91 4.66-.64 3.2-1.46 6.58-2.28 10.14-.37 1.74-.82 3.47-1.37 5.3-.37 1.74-.91 3.56-1.46 5.48-.91 3.56-2 7.31-3.11 11s-2.28 7.31-3.47 10.78c-.55 1.74-1.19 3.56-1.83 5.3s-1.19 3.47-1.83 5c-1.19 3.29-2.56 6.58-3.75 9.6-.64 1.46-1.19 2.92-1.83 4.39s-1.19 2.83-1.74 4.11-1.19 2.56-1.74 3.75-1.1 2.28-1.64 3.29c-.91 2.1-1.83 3.84-2.65 5.48-.82 1.46-1.37 2.65-1.74 3.47a6.72 6.72 0 0 1-.64 1.19s.09-.37.37-1.37c.27-.82.55-2.1 1.1-3.75.37-1.64 1.1-3.56 1.74-5.76s1.46-4.66 2.28-7.49c3.38-11 7.77-25.31 12.15-39.85s8.68-29.06 11.88-40c.82-2.65 1.65-5.21 2.28-7.49s1.37-4.11 1.74-5.76c.55-1.64.91-2.83 1.19-3.75z" transform="translate(-.29 .1)" fill="url(#U)"/><path d="M485.37 372.86s.09-.55.27-1.46.55-2.38.91-4.11c.27-.91.37-1.83.64-2.92s.55-2.28.91-3.47.82-2.56 1.19-3.84.91-2.83 1.37-4.3 1.1-3.11 1.64-4.66 1.19-3.2 1.83-4.93c1.37-3.29 2.92-6.76 4.66-10.24.91-1.74 1.74-3.56 2.83-5.3.91-1.74 2-3.56 3.11-5.3 2.1-3.56 4.57-7 7-10.42l1.83-2.56c.64-.82 1.37-1.64 2-2.38 1.37-1.74 2.83-3.2 4.11-4.84 1.46-1.46 2.83-3.11 4.3-4.39.82-.64 1.46-1.46 2.28-2.1s1.46-1.37 2.28-2c3.11-2.56 6-4.93 9-7 1.46-1.1 2.92-2 4.39-2.92a13.73 13.73 0 0 0 2.1-1.37l2.1-1.19c1.46-.64 2.83-1.46 4-2 1.37-.55 2.56-1.19 3.75-1.74s2.28-.91 3.38-1.37 2-.64 2.92-.91c1.74-.64 3.11-.91 4-1.19a13.25 13.25 0 0 1 1.46-.37 5.89 5.89 0 0 1-1.37.64c-.91.37-2.1 1.1-3.75 1.83a26.33 26.33 0 0 0-2.65 1.46c-.91.55-2 1.19-3.11 1.74s-2.1 1.37-3.38 2.1-2.38 1.65-3.56 2.38a86.24 86.24 0 0 0-7.86 6A97.78 97.78 0 0 0 532 297c-2.83 2.65-5.48 5.48-8.13 8.5-1.37 1.46-2.65 3.11-3.84 4.66-.64.82-1.19 1.46-1.83 2.38l-1.83 2.38c-2.38 3.2-4.66 6.67-6.95 10-2.1 3.38-4.11 6.76-6.12 10.14-1.83 3.29-3.56 6.67-5.21 9.78s-3.11 6.12-4.39 9c-.64 1.46-1.19 2.83-1.83 4a33.42 33.42 0 0 1-1.64 3.56c-1.1 2.28-1.83 4.3-2.65 6-.64 1.74-1.37 2.92-1.64 3.84a11.63 11.63 0 0 1-.57 1.62z" transform="translate(-.29 .1)" fill="url(#V)"/><path d="M485.83 372.22a4.22 4.22 0 0 0-.55-.91c-.37-.64-.82-1.46-1.46-2.65a13.77 13.77 0 0 0-1.1-1.83l-1.19-2.1c-.91-1.64-2-3.29-3.11-5.21s-2.38-3.84-3.84-6-2.92-4.3-4.57-6.4-3.29-4.39-5.21-6.67c-1.83-2.1-3.75-4.39-5.76-6.58l-.37-.37-.37-.37-.82-.82a11 11 0 0 0-1.46-1.46c-1.1-1.1-2-2-3.11-2.92-2.1-1.83-4.11-3.56-6.31-5.21a32 32 0 0 0-3.2-2.1c-.55-.27-1.1-.64-1.64-.91l-.37-.27h-.09l-.27-.09c-.27-.09-.55-.27-.82-.37-1.1-.55-2.1-.91-3.2-1.37s-2.1-.64-3.2-.91a28.24 28.24 0 0 0-10.24-.82 10.4 10.4 0 0 0-2.92.55 5.26 5.26 0 0 0-1.1.27 4.22 4.22 0 0 0 .91-.55c.27-.09.64-.37 1.19-.55a15.61 15.61 0 0 1 1.64-.64 31.05 31.05 0 0 1 4.66-1.19 24.54 24.54 0 0 1 6.4-.09 24 24 0 0 1 3.56.55 38.49 38.49 0 0 1 11.42 4.66c1.19.82 2.56 1.64 3.75 2.38 1.19.91 2.38 1.83 3.56 2.83a26.47 26.47 0 0 1 3.29 3.11l1.64 1.65.82.82.37.37.37.37c2 2.28 4 4.57 5.85 6.95.37.55.91 1.19 1.37 1.74a19 19 0 0 0 1.37 1.83c.82 1.19 1.64 2.38 2.38 3.56 1.46 2.38 2.92 4.84 4 7 .64 1.19 1.19 2.28 1.74 3.29s.91 2.1 1.46 3.2c.37 1.1.82 2 1.19 3.11a25.7 25.7 0 0 1 .91 2.83 23.38 23.38 0 0 0 .82 2.38c.27.82.37 1.46.55 2.1.37 1.19.55 2.28.82 2.92a3.87 3.87 0 0 1 .24.89z" transform="translate(-.29 .1)" fill="url(#W)"/><g opacity=".5" fill="#6c98e3"><path d="M564.13 274.44a10.55 10.55 0 0 0 1.37-.64 13.27 13.27 0 0 0-1.46.37 20.78 20.78 0 0 0-2.56.64c-2.65 1.37-5.21 2.65-7.86 4a115 115 0 0 0-14.9 9.6 91.73 91.73 0 0 0-13.25 12 59.56 59.56 0 0 0-10 14.53 2.72 2.72 0 0 1-.27.55.09.09 0 0 1-.09.09.09.09 0 0 1 .09-.09 47.89 47.89 0 0 1 3.75-6.31c.37-.55-.27.64.09.09a18.54 18.54 0 0 1 1.65-2.1c.55-.55-.28.64.27.09s2.1-2.56 2.65-2.92c.64-.64.55-.37 0 .09-.55.64-1.37 1.65-2 2.38.55-.55-.82 1.1-.82 1.1s.09.09.37-.09l1.64-1.64c.55-.37.09.09.09.09.91-.91 1.74-1.83 2.65-2.83 2-2.28 4.11-4.39 6.12-6.4 2.83-2.65 5.48-5 8.13-7.31s5.3-4.11 7.86-6c1.37-.82 2.56-1.74 3.57-2.38 1.19-.82 2.28-1.46 3.38-2.1s2.1-1.19 3.11-1.74 1.83-.91 2.65-1.46a27.57 27.57 0 0 0 3.77-1.61z" opacity=".5" style="isolation:isolate"/><path d="M517.25 306.34a59.63 59.63 0 0 1 4.57-5c1.65-1.65 3.38-3.11 4.94-4.57 2.83-2.56 5.85-5.21 9-7.77 2.56-2 4.93-4.11 7.31-6a12.8 12.8 0 0 0-1.46.91c-1.46.91-2.92 1.83-4.39 2.92a78.21 78.21 0 0 0-9 7c-.82.64-1.46 1.37-2.28 2s-1.46 1.37-2.28 2.1c-1.46 1.37-2.92 2.92-4.3 4.39-1.37 1.64-2.83 3.11-4.11 4.84-.64.82-1.37 1.64-2 2.38l-1.85 2.56c-1.65 2.28-3.2 4.57-4.66 6.76l.09-.09c.37-.55 2-3.11 2.56-3.75.64-.91.55-.55 0 .27s-1.37 2-2 2.92a11.61 11.61 0 0 0-.82 1.37c.09.09.09.09 2-2.28.37-.55.09.09.09.09 1.37-1.83 2.65-3.56 4.11-5.48 1.65-1.92 3.02-3.74 4.48-5.57zM504.27 322.7a2 2 0 0 1-.37.64 45.75 45.75 0 0 0-1.64 4.57 2.41 2.41 0 0 0-.09.64 48.67 48.67 0 0 1 2.1-5.85zM502.17 328.82v.09c-.09.1 0-.09 0-.09z" opacity=".5" style="isolation:isolate"/></g><path d="M509.94 288.97c-1.37 5.3-2.65 10.69-4.11 15.9s-2.83 10.51-4.3 15.72a2.06 2.06 0 0 0-.09.64c.37-1.19.64-2.38 1.1-3.47a23.38 23.38 0 0 0 .91-3.11c.09-.55-.09.64.09 0a14.75 14.75 0 0 1 .82-2.38c.27-.55 0 .64.27.09s1.1-2.92 1.37-3.47c.27-.91.27-.55 0 .09-.27.82-.64 1.83-.91 2.83.27-.55-.37 1.19-.37 1.19s.27.09 1.19-2.28c.27-.55.09 0 .28.09.64-1.74 1.37-3.47 2-5.3s1.19-3.56 1.83-5.48c1.19-3.75 2.1-7.49 2.92-11.06v-.09c0-.27.09-.37.09-.64.27-1.64.64-3.2.91-4.66l.82-4.39a40.11 40.11 0 0 0 .64-4c.09-1.37.37-2.56.55-3.75.37-2.28.55-4.3.82-6 .09-.91.27-1.83.27-2.56-1.1 3.29-2 6.67-2.92 10.14-1.53 5.35-2.9 10.74-4.18 15.95zM495.71 292.72a38.47 38.47 0 0 0-1.1-4.39c-.82-3.11-1.64-5.85-2.38-8.68-.55-2-1.19-4-1.83-5.85a49.83 49.83 0 0 0-4.3-7.59c-.91-1.46-2.38-3.84-3.29-5.21 0 .09.09.27.09.37l.37.64a2.84 2.84 0 0 1-.37-.55c0 .09.09.09.09.27a73.12 73.12 0 0 1 2.83 8.13 5.1 5.1 0 0 1 .64 1.46 62.59 62.59 0 0 1 3.29 8.68c.82 3.11 1.46 6.12 2.1 9.23a149.69 149.69 0 0 1 3.1 18.87 100.77 100.77 0 0 1 .27 18.92v.64c.27-2.92.55-5.76.55-7.86 0-.64 0 .64.09 0s0-2.1.09-2.92c.09-.64.09.64.27 0 0-.37.09-1.19.09-2.1v-2.1c0-1.1.09-.64.09.09v4.75c.09 0 .27 0 .55-2.92.09-.64.09 0 .27 0a82.79 82.79 0 0 0-.37-13.43 84.59 84.59 0 0 0-1.14-8.45z" fill="#6c98e3" opacity=".5" style="isolation:isolate"/><g opacity=".5" fill="#6c98e3"><path d="M485.9 319.77v.1c.1 0 0 0 0-.1zM482.07 300.67c1.64 6 2.65 12.25 3.84 18.37a2.41 2.41 0 0 1 .09.64c-.55-2.83-.91-5.57-1.37-7.77-.09-.64.27.64.09 0a26.59 26.59 0 0 1-.37-2.83c0-.64.27.64.27 0s-.55-3.56-.55-4.3c-.09-1.1 0-.64.09.09.09.91.37 2.28.55 3.29 0-.64.09 1.46.27 1.46s.27 0 0-2.92c0-.64.09 0 .27 0a73.38 73.38 0 0 0-2.54-13.07c-1.19-4.39-2.65-8.5-4.11-12.7-1.19-3.29-2.56-7-4.11-10.78a76.36 76.36 0 0 0-5.21-10.24c-.37-.55-.82-1.37-1.19-2a23 23 0 0 1 1.1 2.65 69.19 69.19 0 0 1 2.65 8c.37 1.46.91 3.11 1.37 4.66a13.22 13.22 0 0 1 .64 2.38c.27.82.37 1.74.64 2.56a5.15 5.15 0 0 0 .09.64c.37 1.19.91 2.56 1.37 3.75 1.1 2.92 2 6 3.11 9 1.09 3.09 2 6.11 3.01 9.12z" opacity=".5" style="isolation:isolate"/></g><g opacity=".5" fill="#6c98e3"><path d="M476.31 307.98c-1.1-2.65-2-5.21-2.65-7.22-.27-.64.27.64.09 0s-.64-2-.91-2.65c-.09-.64.37.64.27-.09s-1.1-3.29-1.19-4c-.27-1.1-.09-.64.09.09s.82 2.1 1.1 3.2c-.09-.64.37 1.37.37 1.37s.27-.09-.37-2.83c-.09-.64.09 0 .27-.09-.27-1.1-.55-2-.91-3.11a18.87 18.87 0 0 0-1.37-3.11c-.91-2-2.1-3.84-2.92-5.76-1.83-3.84-3.29-8-5.21-11.7-.82-1.64-1.74-3.29-2.65-4.93-1.1-1.65-2.1-3.2-3.29-4.84a75.77 75.77 0 0 0-7.77-8.32 18.46 18.46 0 0 0-2.38-2.1c2.1 2.65 4.57 5.85 7 9.6a139.32 139.32 0 0 1 11.06 19.37l.27.64.09.09v.09l.09.37c.27.55.37.91.64 1.46.37.91.82 1.83 1.19 2.83.37 1.19.91 2.28 1.37 3.47.09.09.09.27.27.37a23.6 23.6 0 0 1 2 4c.55 1.37 1.1 2.83 1.64 4.3 1.1 2.92 2.28 5.76 3.29 8.5.34.64.52.91.52 1z" opacity=".5" style="isolation:isolate"/><path d="M444.96 248.03c-.64-.64-1.37-1.19-2-1.74 3.2 3.47 6.31 6.95 9.32 10.51 4 4.66 7.86 9.32 11.51 14.17a82.43 82.43 0 0 1 5 7.49 73.94 73.94 0 0 1 3.84 8.13c1.1 2.83 2.28 5.48 3.47 8.32-.55-1.37-.91-2.83-1.46-4.11-.82-2.1-1.64-4.11-2.56-6.12-.37-.91-.91-2-1.37-2.92a5.1 5.1 0 0 1-.64-1.46l-.09-.37-.09-.27-.09-.09-.37-.64a104.66 104.66 0 0 0-13-19.19 31.3 31.3 0 0 0-3.2-3.56c-1.1-1-2-2.1-3.11-3.2a40.91 40.91 0 0 0-5.16-4.95z" opacity=".5" style="isolation:isolate"/></g><g opacity=".5" fill="#6c98e3"><path d="M471.01 310.54a.09.09 0 0 0 .1.1zM466.44 304.1c-.37-.55.55.55 0 0a2.35 2.35 0 0 0-.82-1.19c-.37-.37-.64-.82-.91-1.1-.37-.55.64.37.27-.27-.27-.27-.82-.91-1.46-1.65s-1.37-1.19-1.46-1.64c-.82-.82-.55-.55.09 0s1.74 1.64 2.38 2.38l.27.27c.27.37.64.82.64.64s.27-.09-1.64-2.38c-.55-.55.09-.09.09-.09a56.54 56.54 0 0 0-9.23-8.13c-.55-.27-1.1-.64-1.64-.91a42.32 42.32 0 0 0-5.85-2.65 71.45 71.45 0 0 0-11.33-3.75 68 68 0 0 0-10.51-1.74 58.81 58.81 0 0 0-9 .09 15.17 15.17 0 0 0-2 .27 9.86 9.86 0 0 0-1.74.27c-.55.09-1.1.27-1.65.37h-.09a13 13 0 0 1 3.29-.37 63.6 63.6 0 0 1 9.32.09c1.64.09 3.11.27 4.66.37a38.16 38.16 0 0 1 4.66.64 43.79 43.79 0 0 1 8.68 2.83 80.59 80.59 0 0 1 8.25 4.35c2.65 1.74 5.3 3.47 7.77 5.3a50.43 50.43 0 0 1 13 13.43 2 2 0 0 0 .37.64 71 71 0 0 0-4.41-6.07z" opacity=".5" style="isolation:isolate"/></g><g opacity=".5" fill="#6c98e3"><path d="M466.07 314.47l.1.1zM460.04 307.62c-.55-.55.64.55 0 0a13.92 13.92 0 0 0-2.28-2.38c-.55-.64.82.37.27-.27a15 15 0 0 0-1.74-1.74 12.31 12.31 0 0 1-1.83-1.64c-.91-.82-.64-.55.27 0a36.6 36.6 0 0 1 2.98 2.51c-.55-.64 1.19 1.19 1.19 1.1s.09-.09-.09-.37a11.94 11.94 0 0 0-2-2.1c-.55-.64.09-.09.09-.09a35.73 35.73 0 0 0-6.12-4.84 39.19 39.19 0 0 0-7-3.56 53.07 53.07 0 0 0-15.17-3.56c-4.11-.37-8.77-.82-13.34-.91a50.91 50.91 0 0 0-11.88 1.1 49.94 49.94 0 0 1 9.23-1.64 71.88 71.88 0 0 1 14.71.37 98.1 98.1 0 0 1 14.53 3.2 1.36 1.36 0 0 0 .55.09c-2.1-.64-4.39-1.37-6-1.74-.55-.09.55 0 0-.09a8 8 0 0 1-2.1-.64c-.55-.27.64 0 .09-.27-.09 0-.27-.09-.37-.09a14 14 0 0 1-2.28-.55c-2.1-.37-4.3-.82-6.4-1.1-.55 0-1.1-.09-1.65-.09l-.82-.09h-.82c-.55 0-1.1-.09-1.64-.09h-1.46c-2 0-4 0-5.85.09-.91.09-1.83.09-2.83.27s-1.83.27-2.65.37a53.11 53.11 0 0 0-9.23 2.65 29 29 0 0 0-6.4 3.56c-.37.27-.82.55-1.19.82a8.24 8.24 0 0 0-.91.82c-.55.55-1.1.91-1.46 1.37l-.55.55a1.17 1.17 0 0 0-.37.55l.09-.09a11.61 11.61 0 0 1 .91-1.1c-.37.37-.64.82-.91 1.1a4.29 4.29 0 0 0 .82-.55c.09-.09.27-.09.27-.27l.27-.27a10 10 0 0 1 1.64-1.37l-.09.09c-.09 0-.09.09-.27.27a4.22 4.22 0 0 0-.91.64l-.09.09c.09 0 .09-.09.27-.09.37-.37.91-.64 1.46-1.1-.55.37-.91.64-1.37.91.09-.09.27-.09.37-.27a8 8 0 0 0 1.1-.64c.37-.27.82-.37 1.19-.64a35.36 35.36 0 0 1 6.58-2.56 57.27 57.27 0 0 1 9-1.46 60 60 0 0 1 10.69.09c.55 0 .91.09 1.46.09s.91.09 1.46.09l.64.09.64.09a6 6 0 0 1 1.46.27c.27 0 .55.09.82.09 1.19.09 2.56.27 3.75.37a59.32 59.32 0 0 1 20.38 6.12 44.78 44.78 0 0 1 8.68 6.31 87.89 87.89 0 0 1 7.49 7.86c.27.27.37.55.55.64-1.99-2.08-4.09-4.45-5.83-6.37zm-68.63-11.7a11.42 11.42 0 0 0-1.1.82c.37-.37.91-.64 1.37-1.1a11.65 11.65 0 0 1 1.1-.64 3.79 3.79 0 0 1 1.19-.64v.09a9.66 9.66 0 0 0-2.56 1.47z" opacity=".5" style="isolation:isolate"/></g><g opacity=".5" fill="#6c98e3"><path d="M466.44 340.15l.37.37c-1.37-1.74-2.83-3.29-3.84-4.57-.37-.37.37.27.09-.09s-1.1-1.19-1.46-1.65.55.27.27-.27-1.83-2-2.1-2.56c-.55-.64-.27-.37.09 0 .55.55 1.19 1.37 1.74 1.83-.27-.37.64.82.82.82s.09-.09-1.19-2c-.27-.37.09-.09.09-.09-2.1-2.56-4.57-5-6.95-7.49-.91-.82-1.74-1.74-2.65-2.56l.82.55c2 1.46 4 2.92 6 4.3s4 2.92 5.85 4.39l.27.27c-.37-.55-.91-1.1-1.37-1.64l-.37-.37-.37-.37-.82-.82-1.64-1.64c-1.1-1.1-2.28-2.1-3.29-3.11-1.19-.91-2.28-2-3.56-2.83a20 20 0 0 0-3.75-2.38 47.25 47.25 0 0 0-7.59-3.56c-1.37-.37-2.56-.82-3.84-1.1s-2.38-.37-3.56-.55a29.45 29.45 0 0 0-6.4.09 31.05 31.05 0 0 0-4.66 1.19 1.94 1.94 0 0 0-.64.27 12.73 12.73 0 0 1 3.2-.37 28.51 28.51 0 0 1 5.57.27c-.91-.09-1.83-.09-2.65-.09s-2-.09-3.11 0a5.92 5.92 0 0 0-2.56.55 9.86 9.86 0 0 1 1.74-.27 8.77 8.77 0 0 0-2.56.64 7.3 7.3 0 0 0-2 1.1h.09c.27-.09.55-.27.82-.37a11.08 11.08 0 0 1 1.83-.64v.09a8.78 8.78 0 0 0-1.83.64c-.27.09-.37.27-.64.37.64-.09 1.64-.27 2.83-.37a28.12 28.12 0 0 1 10.24.82c1.1.27 2.1.55 3.2.91a24.06 24.06 0 0 1 3.2 1.37c.27.09.55.27.82.37l.27.09h.09l.37.27a15 15 0 0 1 3.47 1.65c.91.55 2 1.19 2.92 1.83a20.64 20.64 0 0 1 2.65 2.28c1.83 1.64 3.56 3.2 5.48 4.66a72.73 72.73 0 0 1 10.2 9.77zm-24-23c-.55-.46-.37-.27 0 0a1 1 0 0 1 .55.27c-.13-.21-.28-.21-.59-.32zm3.66 1.46a6.14 6.14 0 0 0-1.37-.55 1.41 1.41 0 0 0-.55-.37 9.12 9.12 0 0 1 2.28 1.19c.27.09.37.27.64.37a8.24 8.24 0 0 0-1.04-.67zM466.71 340.61c.1 0 .1.1 0 0 .1.09.1 0 0 0z" opacity=".5" style="isolation:isolate"/></g><path d="M500.63 399.73h-27.78a6.42 6.42 0 0 1-6.4-5.57l-7.31-51.09h53.64L507 393.88a6.45 6.45 0 0 1-6.37 5.85z" transform="translate(-.29 .1)" fill="url(#X)"/><path d="M507.93 383.83l4-35.73h-52.44l.55 3.84z" fill="#b3cdfa" opacity=".57" style="isolation:isolate"/><path d="M516.35 340.78h-60.68v8.32h60.68z" transform="translate(-.29 .1)" fill="url(#Y)"/><path d="M208.27 43.96l4.93 11.79h-5.76l.37-2h2l-2.19-5.48-4.11 5.48h2.2l-.37 2h-5.85z" fill="#26c6da"/><path d="M234.5 49.17l-1.19 6.58h-2.47l2.1-11.79 4.77 4.39 6.21-4.39-2.1 11.79h-2.56l1.19-6.58-3.29 2.38zM219.51 50.36l-3.75-4.57 2.1-1.83 3.38 4.3 4.84-4.3 1.37 1.83-5.3 4.75-1 5.21h-2.44zM192.46 46.61l-.46 2h3.29c.27 0 .64-.09.73-.27a.81.81 0 0 0 .46-.73 1.57 1.57 0 0 0-.09-.73 1.36 1.36 0 0 0-.73-.27zm-2-2.65h5.94a2.52 2.52 0 0 1 2.38 1.1 3 3 0 0 1 .64 2.47 3.46 3.46 0 0 1-1.46 2.47 4.2 4.2 0 0 1-2.74 1.1h-3.31l-.82 4.66h-2.47zM256.52 53.01a9.45 9.45 0 0 1 .27-1.1 3.33 3.33 0 0 0-2.38-3.93l2.47-3.56a4.77 4.77 0 0 1 2.74 4.2 5 5 0 0 1-.27 1.46 4 4 0 0 1-2.83 2.93z" fill="#fff"/><path d="M253.05 53.1l-1.83 2.47h.27c.46 0 .73.09 1.19.09a7.57 7.57 0 0 0 7-5.94 6 6 0 0 0 .09-1.28 5 5 0 0 1-.27 1.46 5.89 5.89 0 0 1-6.45 3.2z" fill="#8c97ae"/><path d="M253.62 51.55c-1.19 1.46-1.83 2.38-2.74 3.56a2.55 2.55 0 0 1-1.19-.64 4.92 4.92 0 0 0-1.1-.82 3.23 3.23 0 0 1-.82-1.55 17 17 0 0 1 .09-2v-.27a5.93 5.93 0 0 1 2.74-2.65 4 4 0 0 0-.09.46 3.67 3.67 0 0 0 3.11 3.91z" fill="#3df4f9"/><path d="M256.36 44.1l-1.83 2.38a6.32 6.32 0 0 0-6.4 3.29 7.6 7.6 0 0 0-.27 2.38 5.51 5.51 0 0 1-.09-2.1 5.73 5.73 0 0 1 1.19-2.74 7.43 7.43 0 0 1 7.4-3.21z" fill="#26c6da"/></svg>