<svg xmlns="http://www.w3.org/2000/svg" width="21.812" height="18.721" viewBox="0 0 21.812 18.721"><g transform="translate(0 0)"><path d="M20.591,42.691h-.519V39.574a2.311,2.311,0,0,0-2.308-2.308h-.479l0-1.159a1.558,1.558,0,0,0-1.557-1.557H1.892A1.893,1.893,0,0,0,0,36.415v15.3a1.558,1.558,0,0,0,1.557,1.557H17.768a2.311,2.311,0,0,0,2.308-2.308V47.84H20.6a1.218,1.218,0,0,0,1.217-1.217V43.908A1.225,1.225,0,0,0,20.591,42.691Zm-18.7-7.068h13.84a.483.483,0,0,1,.483.479l0,1.163H1.892a.821.821,0,0,1,0-1.642ZM19,50.958a1.237,1.237,0,0,1-1.235,1.235H1.552a.484.484,0,0,1-.483-.483V38.151a1.884,1.884,0,0,0,.823.188H17.764A1.237,1.237,0,0,1,19,39.574v3.118H15.335a1.218,1.218,0,0,0-1.217,1.217v2.715a1.218,1.218,0,0,0,1.217,1.217H19v3.118Zm1.736-4.335a.141.141,0,0,1-.143.143H15.339a.141.141,0,0,1-.143-.143V43.908a.144.144,0,0,1,.143-.143h5.252a.144.144,0,0,1,.143.143v2.715Z" transform="translate(0 -34.55)"/></g></svg>