<svg xmlns="http://www.w3.org/2000/svg" viewBox="0 0 109.26 76.45"><path d="M1.72 74.17H.13v-5.92h1.59v5.92zM.04 66.72a.78.78 0 0 1 .24-.59 1 1 0 0 1 1.3 0 .84.84 0 0 1 0 1.18 1 1 0 0 1-1.29 0 .78.78 0 0 1-.24-.59zm4.88.07v1.46h1v1.17h-1v3a.71.71 0 0 0 .13.47.63.63 0 0 0 .48.14 2.67 2.67 0 0 0 .47 0v1.2a3.24 3.24 0 0 1-1 .14 1.51 1.51 0 0 1-1.7-1.68V69.5h-.87v-1.17h.87v-1.46zm4.44 4.38a3.58 3.58 0 0 1 .62-2.21 2 2 0 0 1 1.7-.82 1.81 1.81 0 0 1 1.43.65v-3h1.59v8.41h-1.47v-.66a1.86 1.86 0 0 1-1.52.74 2 2 0 0 1-1.68-.82 3.7 3.7 0 0 1-.63-2.29zm1.58.11a2.34 2.34 0 0 0 .29 1.26.94.94 0 0 0 .84.45 1.06 1.06 0 0 0 1-.62v-2.35a1 1 0 0 0-1-.62q-1.14 0-1.14 1.86zm7.72 3a2.91 2.91 0 0 1-2.12-.8 2.84 2.84 0 0 1-.82-2.13v-.15a3.59 3.59 0 0 1 .35-1.6 2.52 2.52 0 0 1 1-1.08 2.74 2.74 0 0 1 1.44-.38 2.46 2.46 0 0 1 1.91.77 3.12 3.12 0 0 1 .7 2.18v.65h-3.79a1.47 1.47 0 0 0 .46.93 1.4 1.4 0 0 0 1 .35 1.71 1.71 0 0 0 1.43-.66l.78.87a2.38 2.38 0 0 1-1 .79 3.15 3.15 0 0 1-1.35.28zm-.18-4.87a1 1 0 0 0-.76.32 1.66 1.66 0 0 0-.37.91h2.2v-.1a1.18 1.18 0 0 0-.28-.82 1 1 0 0 0-.78-.29zm5.66 2.82l1.1-4h1.65l-2 5.92h-1.51l-2-5.92h1.65l1.1 4zm6.11 2a2.91 2.91 0 0 1-2.12-.8 2.84 2.84 0 0 1-.82-2.13v-.15a3.59 3.59 0 0 1 .35-1.6 2.52 2.52 0 0 1 1-1.08 2.74 2.74 0 0 1 1.44-.38 2.46 2.46 0 0 1 1.91.77 3.12 3.12 0 0 1 .7 2.18v.65h-3.77a1.47 1.47 0 0 0 .46.93 1.4 1.4 0 0 0 1 .35 1.71 1.71 0 0 0 1.43-.66l.78.87a2.38 2.38 0 0 1-1 .79 3.15 3.15 0 0 1-1.35.28zm-.18-4.87a1 1 0 0 0-.76.32 1.66 1.66 0 0 0-.37.91h2.2v-.05a1.18 1.18 0 0 0-.28-.82 1 1 0 0 0-.78-.29zm5.18 4.76h-1.59v-8.41h1.57v8.41zm1.05-3a3.51 3.51 0 0 1 .34-1.57 2.49 2.49 0 0 1 1-1.07 2.84 2.84 0 0 1 1.48-.38 2.7 2.7 0 0 1 2 .73 2.94 2.94 0 0 1 .85 2v.41a3.1 3.1 0 0 1-.76 2.19 2.95 2.95 0 0 1-4.09 0 3.15 3.15 0 0 1-.76-2.23v-.07zm1.58.11a2.2 2.2 0 0 0 .35 1.31 1.14 1.14 0 0 0 1.81 0 2.41 2.41 0 0 0 .32-1.41 2.18 2.18 0 0 0-.32-1.28 1 1 0 0 0-.91-.45 1 1 0 0 0-.9.45 2.45 2.45 0 0 0-.32 1.4zm10.35 0a3.56 3.56 0 0 1-.62 2.2 2 2 0 0 1-1.68.82 1.84 1.84 0 0 1-1.45-.62v2.79H42.9v-8.2h1.47l.06.58a1.86 1.86 0 0 1 1.5-.69 2 2 0 0 1 1.7.81 3.66 3.66 0 0 1 .61 2.23v.08zm-1.58-.12a2.33 2.33 0 0 0-.29-1.28 1 1 0 0 0-.85-.45 1 1 0 0 0-1 .57v2.43a1.05 1.05 0 0 0 1 .59q1.13 0 1.13-1.86zm4-2.9v.66a2.09 2.09 0 0 1 1.7-.77 1.58 1.58 0 0 1 1.57.9 2 2 0 0 1 1.78-.9 1.77 1.77 0 0 1 1.43.56 2.58 2.58 0 0 1 .47 1.69v3.78h-1.47v-3.79a1.13 1.13 0 0 0-.2-.74.87.87 0 0 0-.7-.23 1 1 0 0 0-1 .68v4.08h-1.58v-3.78a1.11 1.11 0 0 0-.2-.75.88.88 0 0 0-.69-.23 1 1 0 0 0-1 .56v4.2h-1.53v-5.92zm11 6a2.91 2.91 0 0 1-2.12-.8 2.84 2.84 0 0 1-.82-2.13v-.15a3.59 3.59 0 0 1 .35-1.6 2.52 2.52 0 0 1 1-1.08 2.74 2.74 0 0 1 1.44-.38 2.46 2.46 0 0 1 1.91.77 3.12 3.12 0 0 1 .7 2.18v.65h-3.78a1.47 1.47 0 0 0 .46.93 1.4 1.4 0 0 0 1 .35 1.71 1.71 0 0 0 1.43-.66l.78.87a2.38 2.38 0 0 1-1 .79 3.14 3.14 0 0 1-1.35.28zm-.18-4.87a1 1 0 0 0-.76.32 1.66 1.66 0 0 0-.37.91h2.2v-.03a1.18 1.18 0 0 0-.28-.82 1 1 0 0 0-.78-.29zm5-1.17l.05.68a2.06 2.06 0 0 1 1.7-.8 1.72 1.72 0 0 1 1.4.55 2.58 2.58 0 0 1 .47 1.65v3.83h-1.58v-3.8a1 1 0 0 0-.22-.73 1 1 0 0 0-.73-.23 1.09 1.09 0 0 0-1 .57v4.19h-1.58v-5.92zm6.72-1.46v1.46h1v1.17h-1v3a.71.71 0 0 0 .13.47.63.63 0 0 0 .48.14 2.67 2.67 0 0 0 .47 0v1.2a3.24 3.24 0 0 1-1 .14 1.51 1.51 0 0 1-1.7-1.68v-3.19h-.87v-1.17h.87v-1.46zm7.15 6.21a1 1 0 0 0 .71-.24.83.83 0 0 0 .28-.64h1.48a2 2 0 0 1-.33 1.11 2.16 2.16 0 0 1-.88.78 2.76 2.76 0 0 1-1.24.28 2.58 2.58 0 0 1-2-.81 3.2 3.2 0 0 1-.73-2.23v-.1a3.16 3.16 0 0 1 .73-2.19 2.54 2.54 0 0 1 2-.82 2.5 2.5 0 0 1 1.78.63 2.24 2.24 0 0 1 .68 1.69h-1.48a1.08 1.08 0 0 0-.28-.75 1.06 1.06 0 0 0-1.56.11 2.35 2.35 0 0 0-.28 1.31v.16a2.36 2.36 0 0 0 .28 1.32 1 1 0 0 0 .85.4zm6.12 1.28a2.91 2.91 0 0 1-2.12-.8 2.84 2.84 0 0 1-.82-2.13v-.15a3.59 3.59 0 0 1 .35-1.6 2.52 2.52 0 0 1 1-1.08 2.74 2.74 0 0 1 1.44-.38 2.46 2.46 0 0 1 1.91.77 3.12 3.12 0 0 1 .7 2.18v.65h-3.77a1.47 1.47 0 0 0 .46.93 1.4 1.4 0 0 0 1 .35 1.71 1.71 0 0 0 1.43-.66l.78.87a2.38 2.38 0 0 1-1 .79 3.15 3.15 0 0 1-1.35.28zm-.18-4.87a1 1 0 0 0-.76.32 1.66 1.66 0 0 0-.37.91h2.2v-.02a1.18 1.18 0 0 0-.28-.82 1 1 0 0 0-.78-.29zm5-1.17l.05.68a2.06 2.06 0 0 1 1.7-.8 1.72 1.72 0 0 1 1.4.55 2.58 2.58 0 0 1 .47 1.65v3.83h-1.67v-3.8a1 1 0 0 0-.22-.73 1 1 0 0 0-.73-.23 1.09 1.09 0 0 0-1 .57v4.19H89.7v-5.92zM98 66.7v1.46h1v1.17h-1v3a.71.71 0 0 0 .13.47.63.63 0 0 0 .48.14 2.67 2.67 0 0 0 .47 0v1.2a3.24 3.24 0 0 1-1 .14 1.51 1.51 0 0 1-1.7-1.68v-3.19h-.87v-1.17h.87v-1.46zm4.63 7.49a2.91 2.91 0 0 1-2.12-.8 2.84 2.84 0 0 1-.82-2.13v-.15a3.59 3.59 0 0 1 .35-1.6 2.52 2.52 0 0 1 1-1.08 2.74 2.74 0 0 1 1.44-.38 2.46 2.46 0 0 1 1.91.77 3.12 3.12 0 0 1 .7 2.18v.65h-3.86a1.47 1.47 0 0 0 .46.93 1.4 1.4 0 0 0 1 .35 1.71 1.71 0 0 0 1.43-.66l.78.87a2.38 2.38 0 0 1-1 .79 3.15 3.15 0 0 1-1.35.28zm-.18-4.87a1 1 0 0 0-.76.32 1.66 1.66 0 0 0-.37.91h2.2v-.01a1.18 1.18 0 0 0-.28-.82 1 1 0 0 0-.78-.29zm6.84.31a4.5 4.5 0 0 0-.57 0 1.16 1.16 0 0 0-1.18.61v3.88h-1.58V68.2h1.5v.7a1.47 1.47 0 0 1 1.32-.81 1.68 1.68 0 0 1 .49.07z" fill="#1a1a18" fill-rule="evenodd"/><path fill="#59b02f" d="M18.15 0h8.94v8.94h-8.94zM62.84 0h8.94v8.94h-8.94z"/><path fill="#45942b" d="M.27 17.88h8.94v8.94H.27z"/><path fill="#323231" d="M18.15 17.88h8.94v8.94h-8.94z"/><path fill="#1a1a18" d="M18.15 26.82h8.94v8.94h-8.94z"/><path fill="#59b02f" d="M36.03 17.88h8.94v8.94h-8.94z"/><path fill="#1a1a18" d="M62.84 17.88h8.94v8.94h-8.94z"/><path fill="#323231" d="M62.84 26.82h8.94v8.94h-8.94zM18.15 35.76h8.94v8.94h-8.94z"/><path fill="#2c2c2b" d="M18.15 44.69h8.94v8.94h-8.94z"/><path fill="#1a1a18" d="M27.09 35.76h8.94v8.94h-8.94zM44.96 35.76h8.94v8.94h-8.94z"/><path fill="#323231" d="M44.96 44.69h8.94v8.94h-8.94zM53.9 35.76h8.94v8.94H53.9z"/><path fill="#1a1a18" d="M62.84 35.76h8.94v8.94h-8.94z"/><path fill="#323231" d="M62.84 44.69h8.94v8.94h-8.94z"/><path fill="#1a1a18" d="M18.15 53.63h8.94v8.94h-8.94zM27.09 53.63h8.94v8.94h-8.94zM44.96 53.63h8.94v8.94h-8.94z"/><path fill="#323231" d="M53.9 53.63h8.94v8.94H53.9z"/><path fill="#1a1a18" d="M62.84 53.63h8.94v8.94h-8.94z"/><path fill="#59b02f" d="M89.66 0h8.94v8.94h-8.94zM80.72 8.94h8.94v8.94h-8.94zM98.6 17.88h8.94v8.94H98.6z"/><path fill="#1a1a18" d="M80.72 35.76h8.94v8.94h-8.94z"/><path fill="#323231" d="M80.72 44.69h8.94v8.94h-8.94zM89.66 35.76h8.94v8.94h-8.94z"/><path fill="#1a1a18" d="M98.6 35.76h8.94v8.94H98.6zM80.72 53.63h8.94v8.94h-8.94z"/><path fill="#323231" d="M89.66 53.63h8.94v8.94h-8.94z"/><path fill="#1a1a18" d="M98.6 53.63h8.94v8.94H98.6z"/><path fill="#3b3b3a" d="M0 34.84h9.21v9.21H0z"/><path fill="#3b3b3a" d="M0 44.05h9.21v9.21H0z"/><path fill="#1a1a18" d="M0 53.26h9.21v9.21H0z"/></svg>