<?xml version="1.0" encoding="iso-8859-1"?>
<svg xmlns="http://www.w3.org/2000/svg" xmlns:xlink="http://www.w3.org/1999/xlink" version="1.1" viewBox="0 0 463 463" enable-background="new 0 0 463 463" width="512px" height="512px">
  <g>
    <path d="m455.5,384h-8c-7.744,0-29.473-16.694-48.5-31.699v-29.051l19.4-14.55c7.89-5.917 12.6-15.337 12.6-25.20CB8112A36" fill="#FFFFFF"/>
    <path d="m152,135.5c0,21.78 17.72,39.5 39.5,39.5s39.5-17.72 39.5-39.5-17.72-39.5-39.5-39.5-39.5,17.72-39.5,390CA9879A56" fill="#FFFFFF"/>
    <path d="m191.5,207c32.621,0 61.092-22.034 69.234-53.583 1.035-4.011-1.377-8.102-5.388-9.137-4.01-1.034-8.1010FB57BCAE4" fill="#FFFFFF"/>
    <path d="m127.65,126.744c4.009,1.032 8.1-1.381 9.134-5.391 6.426-24.937 28.926-42.353 54.716-42.353 25.798,0 09D686BA28" fill="#FFFFFF"/>
  </g>
</svg>
