<?xml version="1.0" encoding="utf-8"?>
<!-- Generator: Adobe Illustrator 17.0.0, SVG Export Plug-In . SVG Version: 6.00 Build 0)  -->
<!DOCTYPE svg PUBLIC "-//W3C//DTD SVG 1.1//EN" "http://www.w3.org/Graphics/SVG/1.1/DTD/svg11.dtd">
<svg version="1.1" id="a490d581-c356-41e2-b0f0-0de4275777d8"
	 xmlns="http://www.w3.org/2000/svg" xmlns:xlink="http://www.w3.org/1999/xlink" x="0px" y="0px" width="1144px" height="652.52px"
	 viewBox="0 0 1144 652.52" enable-background="new 0 0 1144 652.52" xml:space="preserve">
<title>winners</title>
<path opacity="0.1" fill="#59B02F" enable-background="new    " d="M687.72,470.31c22.1-1.26,49.52-16.25,70.84-22.88
	c25.233-7.827,50.567-15.357,76-22.59c88.54-25.193,178.03-46.66,268.47-64.4c8.44-1.66,16.893-3.28,25.36-4.86
	c-13.188-28.498-33.622-53.038-59.26-71.17c0.657-6.239,0.99-12.507,1-18.78c0-99.14-79.23-179.51-177-179.51
	c-30.101-0.032-59.696,7.737-85.9,22.55C738.03,63.15,647.71,35.6,548.89,35.6C408.47,35.6,285.2,91.23,215.35,175l328.28,55.46
	l201.34,34c-229.53,6.85-459.77,13.66-688.64-2.42c-62.306,60.286-73.249,156.231-26.12,229l0,0c0,3.59,0.15,7.15,0.42,10.68
	c5.83,1.67,11.46,3.29,16.51,4.35c81.073,17.127,162.667,31.46,244.78,43c-60.51,37.31-134.2,42.59-204,58.39
	c33.8,27.9,79.7,45,130.28,45h753.12c81.55,0,147.65-56.77,147.65-126.81l0,0c12.238-20.18,20.392-42.567,24-65.89
	C992.07,474.33,839.29,461.68,687.72,470.31z"/>
<path opacity="0.1" fill="#59B02F" enable-background="new    " d="M1144,429.93c0.164-58.579-28.188-113.574-76-147.42
	c0.652-6.236,0.985-12.5,1-18.77c0-99.14-79.27-179.48-177-179.48c-30.103-0.032-59.701,7.733-85.91,22.54
	c-69.2-45.54-159.53-73.1-258.35-73.1c-160.74,0-299.1,72.95-360.46,177.56c-3.41-0.2-6.84-0.31-10.3-0.31
	c-97.74,0-177,80.37-177,179.51c-0.069,35.018,10.049,69.3,29.12,98.67l0,0c0,89.2,84.19,161.51,188,161.51h753.14
	c81.54,0,147.64-56.78,147.64-126.82l0,0C1135.03,495.51,1144.066,463.029,1144,429.93z"/>
<linearGradient id="SVGID_1_" gradientUnits="userSpaceOnUse" x1="468.5171" y1="320.9014" x2="468.5171" y2="723.2631" gradientTransform="matrix(1 0 0 -1 340 825.78)">
	<stop  offset="0" style="stop-color:#808080;stop-opacity:0.25"/>
	<stop  offset="0.54" style="stop-color:#808080;stop-opacity:0.12"/>
	<stop  offset="1" style="stop-color:#808080;stop-opacity:0.1"/>
</linearGradient>
<path fill="url(#SVGID_1_)" d="M934.28,319.95c-1.43-1.098-3.104-1.832-4.88-2.14c-1.87-0.43-3.78-0.7-5.68-1l-24.62-3.55
	c-2.485-0.461-5.02-0.596-7.54-0.4c-2.554,0.209-4.917,1.434-6.56,3.4c-0.734,0.905-1.136,2.035-1.14,3.2
	c0.137,1.173,0.519,2.304,1.12,3.32c0.238,0.475,0.442,0.966,0.61,1.47c0.236,1.131,0.529,2.249,0.88,3.35
	c0.109,0.238,0.25,0.46,0.42,0.66c0.004,0.057,0.004,0.113,0,0.17c-0.27,1.38,0.6,2.82,0.21,4.15c-0.34,1.14-1.45,1.83-2.15,2.78
	c-0.955,1.378-0.994,3.192-0.1,4.61c0.75,1.16,2.11,1.95,2.5,3.28c0.51,1.75-0.87,3.44-2.1,4.79c-2.263,2.485-4.354,5.121-6.26,7.89
	c-0.536,0.681-0.881,1.492-1,2.35c-0.11,1.74,1.56,3.27,1.27,5c-0.23,1.36-1.56,2.19-2.71,3c-4.25,2.8-7.66,7.3-8,12.39
	c-1.091-8.098-4.447-15.724-9.68-22c-1.43-1.72-3-3.45-3.59-5.63c-0.22-0.87-0.26-1.8-0.56-2.64c-1-2.65-4.18-3.79-5.57-6.23
	c-1-1.72-1-3.93-2.24-5.44s-3.19-1.85-4.26-3.31c-0.534-0.989-0.989-2.019-1.36-3.08c-0.449-0.865-1.08-1.623-1.85-2.22
	c-0.147-0.118-0.301-0.228-0.46-0.33c0.336-0.3,0.529-0.729,0.53-1.18c0-1.17-1.16-1.94-2.17-2.52c-1.3-0.74-2.57-1.54-3.81-2.37
	c1.352-0.63,2.525-1.589,3.41-2.79c1.11-1.791,1.569-3.91,1.3-6c-0.068-1.687-0.698-3.302-1.79-4.59c-0.63-0.67-1.42-1.15-2.08-1.78
	c-1.71-1.67-2.29-4.14-3-6.42c-0.94-3-2.41-6.15-5.15-7.74c-1.32-0.77-2.86-1.13-4.15-1.94s-2.37-2.34-1.92-3.81
	c0.3-1,1.23-1.69,1.86-2.54c1.565-2.287,0.999-5.408-1.27-7c-0.74-0.47-1.65-0.88-1.8-1.74c-1.181-0.307-2.083-1.263-2.32-2.46
	c-0.225-1.176-0.225-2.384,0-3.56c0.26-1.86,0.517-3.713,0.77-5.56c0.89,0.37,1.89,0.37,2.78,0c0.865,1.404,1.87,2.718,3,3.92
	c3.045,3.596,5.417,7.712,7,12.15c0.57,1.6,1.15,3.39,2.63,4.24c0.51,0.29,1.09,0.44,1.59,0.75c0.617,0.43,1.146,0.973,1.56,1.6
	c1.2,1.59,2.4,3.17,3.59,4.76l0.06,0.24c0.032,0.141,0.086,0.276,0.16,0.4c0.221,0.249,0.528,0.406,0.86,0.44
	c3.68,0.85,7.81,1.63,11-0.38c2.88-1.8,4.14-5.36,6.58-7.74c1.73-1.69,4.18-3,4.67-5.38c-0.584-0.18-1.158-0.39-1.72-0.63
	c0.5-0.5,1-1.08,1.68-1.74c0.988-0.967,1.879-2.029,2.66-3.17c0.844-1.408,1.516-2.912,2-4.48c1.927-5.493,3.86-10.99,5.8-16.49
	c0.92-2.6,1.84-5.22,3-7.75c1.2-2.74,2.62-5.37,3.93-8.06c3.381-6.996,5.99-14.339,7.78-21.9c0.317-1.032,0.423-2.117,0.31-3.19
	c-0.28-1.73-1.59-3.09-2.84-4.32c-1.257-1.361-2.689-2.548-4.26-3.53c-1.593-0.991-3.517-1.3-5.34-0.86c-2.56,0.75-4.17,3.37-4.76,6
	s-0.37,5.34-0.62,8c-0.36,3.85-1.68,7.57-2,11.43c-0.17,2.23,0,4.49-0.27,6.72c-0.492,2.918-1.508,5.724-3,8.28
	c-3.243,6.097-7.633,11.509-12.93,15.94c-0.61,0.51-1.24,1-1.84,1.55c0-0.43,0.07-0.87,0.13-1.3c-0.435,0.113-0.86,0.264-1.27,0.45
	c0.05-0.505-0.001-1.015-0.15-1.5c-0.8-2.39-4.36-3-5-5.43c-0.107-0.601-0.163-1.21-0.17-1.82c-0.21-2.13-1.66-3.93-2.16-6
	c-0.46-1.91-0.11-4-1-5.77c-0.758-1.107-1.652-2.115-2.66-3c-1.202-1.372-2.068-3.005-2.53-4.77c-0.13-0.49-0.25-1-0.39-1.49
	c0.152-1.11,0.028-2.24-0.36-3.29c-0.91-2.26-3.26-3.71-4.11-6c-0.66-1.78-0.37-4-1.62-5.38c-0.664-0.659-1.477-1.15-2.37-1.43
	c-4.577-1.782-9.38-2.917-14.27-3.37c-2.74-0.25-5.76-0.39-7.72-2.32c-2.29-2.24-2.4-6.27-5.08-8c-2.36-1.53-5.7-0.4-7.53,1.75
	c-0.275,0.316-0.529,0.65-0.76,1c-0.334-1.34-0.405-2.733-0.21-4.1c0-0.34,0.07-0.69,0.1-1c4.515-1.475,8.358-4.51,10.84-8.56
	c0,0,0,0,0,0.06l0.12,0.31c0.29,0.73,0.75,1.43,1.43,1.51l0,0c0.452-0.005,0.889-0.164,1.24-0.45c0.603-0.419,1.16-0.902,1.66-1.44
	c0.253-0.28,0.493-0.57,0.72-0.87c0.461-0.624,0.856-1.295,1.18-2c0.497-1.061,0.834-2.19,1-3.35c0.18-1.16,0.2-2.35,0.4-3.51
	c0.187-0.898,0.431-1.783,0.73-2.65c0.1-0.29,0.2-0.58,0.29-0.87s0.22-0.68,0.32-1c0.626-2.057,0.962-4.19,1-6.34
	c0-0.36,0-0.72,0-1.08c-0.074-2.834-1.285-5.519-3.36-7.45c-1.72-1.41-4-2-5.26-3.91c-0.82-1.28-1-2.93-1.48-4.43
	c-1.058-3.662-4.107-6.404-7.86-7.07c-2.215-0.243-4.44,0.369-6.22,1.71l0,0l-0.14,0.11l0,0c-0.992,0.757-1.833,1.693-2.48,2.76
	c-1.321-0.364-2.531-1.051-3.52-2c-1-0.93-1.77-2.1-2.78-3c-1.922-1.761-4.651-2.335-7.12-1.5c-2.533,1.015-4.426,3.183-5.09,5.83
	c-0.55,2.06-0.45,4.43-1.6,6.15c-0.89,1.34-2.35,2-3.37,3.22c-0.634,0.773-1.067,1.69-1.26,2.67l0,0
	c-0.121,0.548-0.178,1.109-0.17,1.67l0,0c0,0.25,0,0.5,0.06,0.74c0,0,0,0.08,0,0.12c0.035,0.274,0.092,0.545,0.17,0.81l0,0
	c0.284,1.014,0.794,1.95,1.49,2.74c0.66,0.756,1.484,1.351,2.41,1.74c0.379,0.147,0.766,0.271,1.16,0.37l1.19,0.27l0.42,0.1
	c-2.911,5.465-3.117,11.971-0.56,17.61c0,0.28-0.07,0.56-0.1,0.84c-0.163,3.938,0.011,7.882,0.52,11.79
	c0.14,1.55,0.22,3.26-0.73,4.49c-0.433,0.484-0.919,0.917-1.45,1.29c0.54-0.7,1.09-1.39,1.65-2.08c-1.41-1.42-3.64-1.6-5.64-1.46
	c-3.871,0.289-7.628,1.437-11,3.36c-2.24,1.29-4.54,3-7.1,2.7c-1.51-0.17-3-1-4.47-0.6c-0.826,0.338-1.598,0.796-2.29,1.36
	c-0.547,0.392-1.207,0.596-1.88,0.58c-1.57-1.93-4-3.24-5.88-4.81c-2.14-1.905-4.098-4.004-5.85-6.27
	c-3.24-3.91-6.47-7.83-9.65-11.78c-2.68-3.32-5.43-6.91-5.9-11.16c-0.048-0.422-0.071-0.846-0.07-1.27
	c0.065-2.019,0.32-4.028,0.76-6c0.119-0.476,0.119-0.974,0-1.45c-0.3-1-1.45-1.37-2.44-1.59l0,0c0.13-0.77,0.22-1.56,0.27-2.31
	c0.56-8.6-0.05-17.34,1.77-25.76c0.69-3.24,1.82-6.52,4.15-8.87c3.65-3.69,9.76-4.58,12.56-8.95c2.34-3.64,1.41-8.79-1.53-12
	s-7.47-4.52-11.78-4.36c-1.209-0.042-2.404,0.279-3.43,0.92c-0.959,0.852-1.677,1.942-2.08,3.16L701,117.04
	c-1.244,2.715-2.293,5.516-3.14,8.38c-1.2,4.38-1.47,9-2.42,13.42c0,3.4-2.19,7.64-3.39,10.77c-1.34,3.52-2.79,7-4,10.59
	c-0.3,0.9-1.35,3.57-2,6c-0.246,0.143-0.474,0.314-0.68,0.51c-0.522,0.669-0.997,1.374-1.42,2.11c-0.91,1.2-2.39,1.84-3.39,3
	s-1.21,3.29,0.18,3.87c0.282,0.095,0.574,0.159,0.87,0.19c0.182,0.015,0.363,0.045,0.54,0.09c1.5,0.42,2.09,2.31,1.87,3.87
	s-1,3-1.13,4.56c-0.27,2.76,1.35,5.33,2.91,7.65c1.615,2.515,3.399,4.917,5.34,7.19c1.41,1.58,3,3,4.42,4.52
	c5.41,5.56,9.71,12.06,14.57,18.1c1.748,2.28,3.736,4.365,5.93,6.22c1.432,1.12,2.932,2.152,4.49,3.09l8.36,5.3
	c0.948,0.695,2.021,1.201,3.16,1.49c0.372,0.05,0.748,0.05,1.12,0c0.05,0.25,0.09,0.49,0.15,0.74c0.65,2.62,2.08,5,2.24,7.67
	s-0.08,5.4,0.11,8.1c0.18,2.49,0.73,5,0.87,7.45c0.28,4.72-0.88,9.38-2,14c-1.69,6.76-2.71,13.66-6,19.79c-0.92,1.69-2,3.41-2,5.34
	c0,0.23,0,0.47,0.06,0.7l0,0l-1.5,0.85c-0.44,0.25-0.88,0.5-1.28,0.76c-1.9,1.24-3.93,2.61-4.71,4.75c-0.63,1.73-0.34,3.71-1.1,5.39
	c-0.036,0.075-0.076,0.149-0.12,0.22c-0.8,1.56-2.39,2.72-2.75,4.43l0,0c-0.27,1.31,0.25,2.7,0,4c0,0,0,0,0,0.05
	c-0.228,0.653-0.408,1.321-0.54,2c-0.011,0.222,0.009,0.444,0.06,0.66c0.191,0.758,0.61,1.438,1.2,1.95
	c0.36,0.346,0.752,0.657,1.17,0.93c0.427,0.28,0.867,0.54,1.32,0.78l0.26,0.14c0.38,0.2,0.76,0.39,1.15,0.57l0.26,0.11
	c0.45,0.2,0.91,0.38,1.37,0.54l0.32,0.1c0.36,0.12,0.73,0.23,1.1,0.32l0.25,0.08l0.23,0.05l1,0.21l0.37,0.07
	c0.44,0.073,0.89,0.133,1.35,0.18h0.4c0.34,0,0.67,0.05,1,0.06h0.47c0.35,0,0.69,0,1,0h0.36c0.47,0,0.94-0.07,1.41-0.13h0.15
	c0.42-0.06,0.84-0.13,1.26-0.22l0.32-0.07c0.39-0.09,0.78-0.18,1.17-0.3l0.21-0.06c0.47-0.14,0.94-0.29,1.4-0.47
	c1.592-0.654,3.136-1.419,4.62-2.29c1-0.55,2-1.11,3-1.62c0.742-0.374,1.503-0.708,2.28-1c1.891-0.808,3.949-1.151,6-1
	c1.012,0.138,2.014,0.342,3,0.61c0,0.11,0,0.22,0,0.33c0.813,4.8,1.617,9.6,2.41,14.4c1.309-0.942,2.694-1.775,4.14-2.49
	c-0.27,0.725-0.449,1.481-0.53,2.25c-0.06,0.595-0.06,1.195,0,1.79c0.09,0.95,0.29,2-0.28,2.75c-0.35,0.46-1,0.72-1.19,1.24
	c-0.139,0.532-0.173,1.085-0.1,1.63c-0.085,1.285-1.097,2.314-2.38,2.42c0.589,1.657-0.035,3.502-1.51,4.46
	c-0.418,0.201-0.808,0.457-1.16,0.76c-0.342,0.442-0.572,0.96-0.67,1.51c-1.322,4.952-4.04,9.42-7.83,12.87
	c-1.422,1.117-2.72,2.385-3.87,3.78c-0.711,1.081-1.298,2.238-1.75,3.45c-2.667,6.52-5.373,13.043-8.12,19.57
	c-1.52,3.65-3,7.36-3.48,11.29c-1.2,10.78-10.8,19.92-9,30.62c0.364,2.673,1.442,5.198,3.12,7.31c2,2.41,5,3.79,8,4.91
	c7.71,3,15.84,4.64,23.94,6.29l12.72,2.61c2.496,0.574,5.029,0.975,7.58,1.2c3.07,0.21,6.22-0.08,9.21,0.7
	c1.85,0.48,3.62,1.37,5.53,1.47c1.64,0.09,3.66-0.26,4.63,1.08s0.22,3.11,1.14,4.3c1.48,1.89,5.09,0,6.7,1.78
	c0.44,0.684,0.777,1.428,1,2.21c0.245,0.483,0.585,0.912,1,1.26c0.098,0.564,0.138,1.137,0.12,1.71
	c-0.209,2.322-0.692,4.612-1.44,6.82c-1.2,4.06-2.397,8.123-3.59,12.19c-0.456,1.436-0.79,2.908-1,4.4
	c-0.075,0.725-0.075,1.455,0,2.18c0.21,2.21,1.48,4.49,3.59,5.21c1.637,0.433,3.378,0.218,4.86-0.6c1.431-0.747,2.772-1.653,4-2.7
	c2.214-1.675,4.16-3.678,5.77-5.94c5-7.48,3.38-17.6,6.89-25.87c2.33-5.52,6.87-10,8.38-15.82c0.353-1.107,0.395-2.291,0.12-3.42
	c-0.63-2-2.76-3.14-4.75-3.86h-0.09c-1.635-0.582-3.305-1.06-5-1.43c-0.42-0.09-0.85-0.16-1.28-0.23
	c-0.952-0.774-1.708-1.76-2.21-2.88c-0.078-0.595-0.237-1.177-0.47-1.73c-0.323-0.484-0.859-0.781-1.44-0.8
	c-1-0.1-2.34,0.26-3.43,0.18c-2.23-0.16-3.71-2.35-5.71-3.36s-4.17-0.76-6.3-0.61c-0.762,0.104-1.537,0.057-2.28-0.14
	c-0.888-0.409-1.7-0.967-2.4-1.65c-2.495-1.942-5.758-2.597-8.81-1.77c-0.957,0.386-1.97,0.616-3,0.68
	c-1.95-0.11-3.33-1.85-4.77-3.17c-3.94-3.61-9.55-4.56-14.33-6.93c-0.732-0.272-1.342-0.797-1.72-1.48
	c-0.55-1.36,0.69-2.72,1.81-3.65l8.22-6.83c9-7.48,20.25-13.11,24.43-24.08c0.436-1.471,1.112-2.859,2-4.11
	c0.323-0.382,0.697-0.718,1.11-1c1.818-1.178,4.022-1.608,6.15-1.2c2.593,0.58,5.051,1.653,7.24,3.16c3.58,2.167,7.063,4.5,10.45,7
	c3.355,2.397,6.545,5.017,9.55,7.84c5.25,5,9.62,10.93,14.51,16.32s10.48,10.42,17.27,13s15,2.47,20.83-1.86
	c6.73-5,8.89-13.94,10.59-22.14c3.75-3.62,4.88-9.13,6.71-14c1.15-3.09,2.62-6,3.86-9.08c1.48-3.62,2.64-7.36,3.8-11.09
	c1.315-3.746,2.207-7.626,2.66-11.57c0.48-6.23-1.19-12.86,0.56-18.71c2.31-0.51,4.41-1.81,6.68-2.57c3.38-1.11,7-0.93,10.58-0.91
	h0.23c1.234,0.131,2.475-0.161,3.52-0.83c1.2-1,1.39-2.71,1.45-4.26C937.39,326.73,937.15,322.43,934.28,319.95z M789.39,149.37
	c-0.827,0.205-1.683,0.265-2.53,0.18L789.39,149.37z"/>
<path fill="#C1C1C1" d="M793.33,212.63c-1.211,1.028-2.63,1.782-4.16,2.21l-7.09,2.54c-3.85,1.38-7.87,2.77-11.93,2.27
	c-2.27-0.28-12-1.71-13.47-3.48c-2.24-2.74,5.61-6.77,8.29-9.08c0.607-0.437,1.17-0.932,1.68-1.48c1-1.22,0.87-2.93,0.73-4.47
	c-0.509-3.901-0.683-7.839-0.52-11.77c0.078-0.937,0.211-1.869,0.4-2.79c1-4.6,5.28-2.92,8.66-1.7
	c4.069,1.322,8.003,3.026,11.75,5.09c1.141,0.588,2.133,1.43,2.9,2.46c1.48,2.24,0.89,5.18,0.65,8c-0.21,2.19-0.2,4.29,1.17,5.88
	c0.689,0.608,1.322,1.277,1.89,2C794.937,209.803,794.553,211.55,793.33,212.63z"/>
<path fill="#C1C1C1" d="M695.39,140.56c1-4.43,1.22-9,2.42-13.39c0.847-2.854,1.896-5.645,3.14-8.35l4.41-10.29
	c0.403-1.215,1.121-2.302,2.08-3.15c1.028-0.637,2.221-0.957,3.43-0.92c4.31-0.16,8.84,1.18,11.78,4.35s3.87,8.3,1.53,11.93
	c-2.8,4.37-8.91,5.25-12.56,8.93c-2.33,2.35-3.46,5.62-4.15,8.85c-1.82,8.4-1.21,17.11-1.77,25.69c-0.18,2.67-0.7,5.72-3,7.1
	c-1.39,0.681-2.936,0.981-4.48,0.87l-6.56,0.11c-1.1,0-5.09,0.69-5.82-0.14c-1.28-1.45,1.64-8.67,2.17-10.28
	c1.18-3.57,2.63-7.05,4-10.56C693.2,148.18,695.39,143.95,695.39,140.56z"/>
<path fill="#3F3D56" d="M830.84,454.72c-1.51,5.78-6.05,10.28-8.38,15.79c-3.51,8.25-1.93,18.34-6.89,25.8
	c-1.609,2.266-3.555,4.272-5.77,5.95c-1.228,1.044-2.57,1.947-4,2.69c-1.482,0.818-3.223,1.033-4.86,0.6c-2.11-0.72-3.38-3-3.59-5.2
	c-0.075-0.721-0.075-1.449,0-2.17c0.21-1.489,0.545-2.957,1-4.39c1.2-4.047,2.397-8.1,3.59-12.16c0.747-2.202,1.23-4.484,1.44-6.8
	c0.13-2.52-1.47-5.8-0.79-8.15c0.31-1.06,1.47-2,2-2.89c0.752-1.281,1.331-2.656,1.72-4.09c0.82-2.79,1.38-5.77,3.1-8.12
	c1.122-1.394,2.435-2.622,3.9-3.65c1.081-0.948,2.348-1.66,3.72-2.09c1.331-0.234,2.697-0.169,4,0.19
	c1.696,0.362,3.367,0.837,5,1.42h0.09c2,0.72,4.12,1.83,4.75,3.85C831.176,452.421,831.166,453.605,830.84,454.72z"/>
<path fill="#3F3D56" d="M937.24,331.78c-0.06,1.55-0.25,3.28-1.45,4.25c-1.045,0.669-2.286,0.961-3.52,0.83H932
	c-3.57,0-7.2-0.2-10.58,0.91c-2.57,0.85-4.93,2.41-7.61,2.72c-3.69,0.42-7.16-1.6-10.43-3.36c-3.079-1.659-6.24-3.161-9.47-4.5
	c-2.12-0.87-6.45-1.43-7.47-3.75c-0.349-1.098-0.643-2.213-0.88-3.34c-0.168-0.504-0.372-0.995-0.61-1.47
	c-0.6-1.013-0.981-2.141-1.12-3.31c0.004-1.165,0.406-2.295,1.14-3.2c1.648-1.95,4.005-3.163,6.55-3.37
	c2.52-0.196,5.055-0.061,7.54,0.4l24.62,3.54c1.9,0.27,3.81,0.54,5.68,1c1.776,0.308,3.45,1.042,4.88,2.14
	C937.15,323.71,937.39,328,937.24,331.78z"/>
<path fill="#65617D" d="M915.6,338.18c-3,6.33-0.84,13.82-1.38,20.82c-0.453,3.934-1.346,7.805-2.66,11.54
	c-1.16,3.72-2.32,7.45-3.8,11.06c-1.24,3-2.71,6-3.86,9.06c-1.83,4.88-3,10.37-6.71,14c-1.7,8.18-3.86,17.12-10.59,22.08
	c-5.85,4.32-14,4.47-20.83,1.86s-12.38-7.61-17.27-13s-9.26-11.26-14.51-16.28c-3.009-2.824-6.206-5.44-9.57-7.83
	c-3.387-2.46-6.87-4.773-10.45-6.94c-2.192-1.5-4.649-2.569-7.24-3.15c-2.128-0.408-4.332,0.022-6.15,1.2
	c-0.413,0.282-0.786,0.618-1.11,1c-0.89,1.246-1.566,2.632-2,4.1c-4.2,10.94-15.47,16.56-24.47,24.02l-8.22,6.81
	c-1.12,0.93-2.36,2.29-1.81,3.64c0.378,0.683,0.988,1.208,1.72,1.48c4.78,2.36,10.39,3.31,14.33,6.91c1.44,1.32,2.82,3.06,4.77,3.16
	c1.03-0.06,2.043-0.287,3-0.67c3.05-0.825,6.311-0.174,8.81,1.76c0.7,0.683,1.512,1.241,2.4,1.65c0.743,0.197,1.518,0.244,2.28,0.14
	c2.13-0.15,4.39-0.34,6.3,0.61s3.48,3.19,5.71,3.35c1.09,0.08,2.39-0.28,3.43-0.18c0.581,0.018,1.117,0.316,1.44,0.8
	c0.233,0.55,0.391,1.128,0.47,1.72c0.41,1.41,1.79,2.27,2.69,3.43c1.38,1.78,1.58,4.2,1.44,6.45
	c-0.453,7.035-3.588,13.629-8.76,18.42c-1.468,1.501-3.341,2.543-5.39,3c-2.104,0.44-4.255-0.514-5.34-2.37
	c-0.223-0.779-0.56-1.52-1-2.2c-1.61-1.77-5.22,0.11-6.7-1.78c-0.92-1.18-0.26-3.07-1.14-4.29s-3-1-4.63-1.07
	c-1.91-0.1-3.68-1-5.53-1.47c-3-0.78-6.14-0.49-9.21-0.7c-2.551-0.225-5.084-0.626-7.58-1.2l-12.72-2.6
	c-8.1-1.65-16.23-3.32-23.94-6.27c-2.95-1.12-5.92-2.5-8-4.9c-1.677-2.109-2.754-4.631-3.12-7.3c-1.81-10.67,7.79-19.79,9-30.54
	c0.43-3.92,2-7.62,3.48-11.26c2.713-6.507,5.42-13.017,8.12-19.53c0.437-1.213,1.007-2.373,1.7-3.46
	c1.151-1.392,2.448-2.656,3.87-3.77c3.789-3.439,6.508-7.897,7.83-12.84c0.098-0.55,0.328-1.068,0.67-1.51
	c0.354-0.297,0.744-0.549,1.16-0.75c1.47-0.957,2.094-2.796,1.51-4.45c1.283-0.106,2.295-1.135,2.38-2.42
	c-0.073-0.541-0.039-1.092,0.1-1.62c0.24-0.52,0.84-0.78,1.19-1.24c0.57-0.75,0.37-1.8,0.28-2.74c-0.06-0.595-0.06-1.195,0-1.79
	c0.219-2.117,1.166-4.093,2.68-5.59c2.39-2.35,5.79-1.74,9.09-2.3c3.292-0.711,6.507-1.739,9.6-3.07
	c8.677-3.419,17.813-5.532,27.11-6.27c9.343-0.735,18.727,0.76,27.38,4.36c1.259,0.51,2.446,1.182,3.53,2
	c0.77,0.594,1.401,1.348,1.85,2.21c0.369,1.059,0.824,2.085,1.36,3.07c1.07,1.46,3.09,1.93,4.26,3.31s1.27,3.71,2.24,5.42
	c1.39,2.44,4.61,3.57,5.57,6.22c0.3,0.84,0.34,1.76,0.56,2.63c0.54,2.18,2.16,3.9,3.59,5.62c5.242,6.27,8.599,13.899,9.68,22
	c0.32-5.07,3.73-9.56,8-12.36c1.15-0.75,2.48-1.58,2.71-2.94c0.29-1.72-1.38-3.25-1.27-5c0.121-0.854,0.466-1.662,1-2.34
	c1.906-2.762,3.997-5.392,6.26-7.87c1.23-1.35,2.61-3,2.1-4.78c-0.39-1.33-1.75-2.11-2.5-3.27c-0.895-1.414-0.855-3.226,0.1-4.6
	c0.7-0.95,1.81-1.64,2.15-2.77c0.39-1.33-0.48-2.77-0.21-4.14c0.365-1.097,1.091-2.038,2.06-2.67c1.327-1.208,2.835-2.2,4.47-2.94
	c2.64-1,5.58-0.63,8.38-0.24c4.68,0.65,9.93,1.65,12.57,5.57C916,331.84,916.86,335.56,915.6,338.18z"/>
<path opacity="0.1" enable-background="new    " d="M937.24,331.78c-0.06,1.55-0.25,3.28-1.45,4.25
	c-1.045,0.669-2.286,0.961-3.52,0.83H932c0.41-2.08,2.94-3.27,3.38-5.38c0.152-1.31-0.246-2.625-1.1-3.63
	c-2.14-2.89-5.58-4.49-9-5.66c-9.662-3.313-20.013-4.087-30.06-2.25c-2.732,0.445-5.39,1.263-7.9,2.43
	c-0.832,0.52-1.633,1.088-2.4,1.7c-0.6-1.013-0.981-2.141-1.12-3.31c0.004-1.165,0.406-2.295,1.14-3.2
	c1.648-1.95,4.005-3.163,6.55-3.37c2.52-0.196,5.055-0.061,7.54,0.4l24.62,3.54c1.9,0.27,3.81,0.54,5.68,1
	c1.776,0.308,3.45,1.042,4.88,2.14C937.15,323.71,937.39,328,937.24,331.78z"/>
<path opacity="0.1" enable-background="new    " d="M830.84,454.72c-1.51,5.78-6.05,10.28-8.38,15.79
	c-3.51,8.25-1.93,18.34-6.89,25.8c-1.609,2.266-3.555,4.272-5.77,5.95c-1.228,1.044-2.57,1.947-4,2.69
	c-1.482,0.818-3.223,1.033-4.86,0.6c-2.11-0.72-3.38-3-3.59-5.2c-0.075-0.721-0.075-1.449,0-2.17l0.06,0.16
	c0.87,2.1,2.29,4.3,4.53,4.67c1.7,0.122,3.373-0.468,4.62-1.63c3.3-2.65,5.22-6.6,7.05-10.41c1.432-2.747,2.565-5.641,3.38-8.63
	c0.4-1.7,0.59-3.44,1-5.14c1.9-8.26,8.37-15,9.8-23.37c0.116-0.576,0.143-1.166,0.08-1.75c-0.189-0.762-0.478-1.495-0.86-2.18
	c-0.348-0.774-0.603-1.586-0.76-2.42c2,0.72,4.12,1.83,4.75,3.85C831.258,452.453,831.203,453.626,830.84,454.72z"/>
<path opacity="0.1" enable-background="new    " d="M815.74,440.38c-0.926,2.42-2.483,4.547-4.51,6.16
	c-2.847,2.169-6.18,3.611-9.71,4.2c-1.643,0.419-3.367,0.398-5-0.06c-2.22-0.77-3.82-2.85-6.09-3.45c-1.62-0.44-3.36-0.05-5-0.29
	c-2.95-0.41-5.24-2.66-7.62-4.46c-7.29-5.48-16.86-7.25-24.15-12.73c-0.325-0.199-0.593-0.478-0.78-0.81
	c-0.14-0.359-0.191-0.747-0.15-1.13c0.027-3.324,0.774-6.603,2.19-9.61c1.16-2.098,2.541-4.066,4.12-5.87
	c6.53-8,13.09-16.06,20.91-22.81c3.28-2.83,6.86-5.47,11-6.75c2.3-0.71,6.84-1.38,9.64-0.18c-0.413,0.282-0.786,0.618-1.11,1
	c-0.89,1.246-1.566,2.632-2,4.1c-4.21,10.95-15.48,16.57-24.48,24.03l-8.22,6.81c-1.12,0.93-2.36,2.29-1.81,3.64
	c0.378,0.683,0.988,1.208,1.72,1.48c4.78,2.36,10.39,3.31,14.33,6.91c1.44,1.32,2.82,3.06,4.77,3.16c1.03-0.06,2.043-0.287,3-0.67
	c3.05-0.825,6.311-0.174,8.81,1.76c0.7,0.683,1.512,1.241,2.4,1.65c0.743,0.197,1.518,0.244,2.28,0.14c2.13-0.15,4.39-0.34,6.3,0.61
	s3.48,3.19,5.71,3.35C813.4,440.64,814.7,440.26,815.74,440.38z"/>
<path fill="#3F3D56" d="M723.77,304.66c-1.9,1.22-3.92,2.6-4.7,4.72c-0.64,1.73-0.34,3.71-1.11,5.39s-2.5,2.85-2.88,4.65
	c-0.27,1.31,0.26,2.69,0,4c-0.226,0.681-0.41,1.376-0.55,2.08c-0.1,1.49,1.18,2.7,2.43,3.53c5.397,3.51,12.139,4.252,18.17,2
	c2.67-1,5.08-2.63,7.64-3.91c2.497-1.438,5.352-2.132,8.23-2c1.65,0.18,3.23,0.78,4.88,1c1.654,0.327,3.364-0.182,4.57-1.36
	c0.51-0.703,0.852-1.514,1-2.37c1.39-5.49,0.76-11.31-0.56-16.83s-3.32-10.83-4.73-16.32c-1-4.07-1.77-8.24-3.44-12.09
	s-4.48-7.43-8.41-8.9c-0.31-0.152-0.661-0.198-1-0.13c-0.252,0.105-0.475,0.27-0.65,0.48c-3.109,3.294-5.451,7.235-6.86,11.54
	c-1.57,4.79-2,9.87-3.44,14.68c-0.62,2-1.42,4.68-3,6.21S725.56,303.51,723.77,304.66z"/>
<path opacity="0.1" enable-background="new    " d="M761.48,322.36c-0.168,0.859-0.527,1.669-1.05,2.37
	c-1.204,1.182-2.917,1.689-4.57,1.35c-1.64-0.2-3.22-0.81-4.87-1c-2.878-0.133-5.734,0.561-8.23,2c-2.56,1.28-5,2.87-7.65,3.9
	c-3.877,1.47-8.112,1.711-12.13,0.69c-2.134-0.536-4.163-1.429-6-2.64c-1.26-0.82-2.53-2-2.43-3.53
	c0.14-0.701,0.324-1.392,0.55-2.07c0.26-1.31-0.26-2.69,0-4c0.38-1.8,2.12-3,2.88-4.66s0.47-3.65,1.1-5.38
	c0.78-2.13,2.81-3.5,4.71-4.73s4.16-2.17,5.68-3.66c0.196-0.232,0.374-0.479,0.53-0.74c1.096-1.691,1.901-3.553,2.38-5.51
	c1.47-4.82,1.87-9.89,3.43-14.69c1.415-4.301,3.76-8.238,6.87-11.53c0.166-0.215,0.387-0.38,0.64-0.48
	c0.338-0.069,0.688-0.027,1,0.12c3.92,1.48,6.73,5.06,8.41,8.91s2.39,8,3.44,12.08c1.4,5.49,3.41,10.82,4.73,16.33
	S762.87,316.86,761.48,322.36z"/>
<path opacity="0.1" enable-background="new    " d="M791.22,200.4c-9.738,3.094-20.242-1.649-24.36-11
	c0.078-0.937,0.211-1.869,0.4-2.79c1-4.6,5.28-2.92,8.66-1.7c4.069,1.322,8.003,3.026,11.75,5.09c1.141,0.588,2.133,1.43,2.9,2.46
	C792.05,194.67,791.46,197.61,791.22,200.4z"/>
<circle fill="#C1C1C1" cx="785.18" cy="180.34" r="20"/>
<path opacity="0.1" enable-background="new    " d="M839.45,329.8c0,1.66-2.25,2.19-3.92,2.1c-6-0.35-11.87-2-17.81-1.5
	c-7.51,0.68-14.41,4.83-21.94,5.21c-2.9,0.15-5.85-0.28-8.71,0.25c-3.7,0.69-7,2.94-10.77,3.26c-3.27,0.28-6.5-0.95-9.77-0.82
	c-2.286,0.136-4.515,0.771-6.53,1.86c0.219-2.117,1.166-4.093,2.68-5.59c2.39-2.35,5.79-1.74,9.09-2.3
	c3.292-0.711,6.507-1.739,9.6-3.07c8.677-3.419,17.813-5.532,27.11-6.27c9.337-0.743,18.718,0.741,27.37,4.33
	c1.259,0.51,2.446,1.182,3.53,2C839.435,329.435,839.458,329.617,839.45,329.8z"/>
<path fill="#E3E8F4" d="M775.93,216.86l-8.1-3l-3.42-1.26c-1.393-0.584-2.86-0.974-4.36-1.16c-3.92-0.3-7.61,2.31-9.7,5.64
	s-2.88,7.3-3.55,11.17c-0.92,5.293-1.7,10.607-2.34,15.94c-0.689,4.816-1.04,9.675-1.05,14.54c0.23,12.38,2.85,24.59,5.73,36.64
	c1.411,5.343,2.476,10.771,3.19,16.25c0.24,2.26,0.35,4.53,0.59,6.8c0.26,2.55,0.68,5.07,1.1,7.6l2.41,14.37
	c3-2.13,6.41-4,10.1-4.11c3.27-0.12,6.51,1.1,9.77,0.82c3.75-0.31,7.07-2.56,10.77-3.25c2.86-0.53,5.81-0.11,8.72-0.25
	c7.52-0.38,14.43-4.54,21.93-5.21c5.95-0.54,11.86,1.14,17.82,1.49c1.66,0.1,3.91-0.43,3.91-2.1c0-1.16-1.16-1.93-2.17-2.51
	c-4.761-2.867-9.291-6.1-13.55-9.67c-3.94-3.12-7.94-6.32-10.65-10.54c-6.53-10.15-4.29-23.88-9.86-34.59c-4.53-8.7,0-20.1,0-29.91
	c0-4.89,0-9.84-1.15-14.59c-0.719-2.657-1.614-5.262-2.68-7.8l-3.89-9.85c-0.081-0.288-0.24-0.548-0.46-0.75
	c-0.261-0.18-0.573-0.275-0.89-0.27c-2.336-0.14-4.64,0.598-6.46,2.07c-1.83,1.49-3,3.63-4.8,5.18
	C780.92,216.26,778.38,217.76,775.93,216.86z"/>
<path fill="#3F3D56" d="M789,211.18c0.64-2.74,1.33-5.59,3.16-7.73s5.17-3.27,7.53-1.74c2.68,1.74,2.79,5.76,5.08,8
	c2,1.92,5,2.07,7.72,2.32c4.891,0.445,9.695,1.576,14.27,3.36c0.892,0.277,1.705,0.764,2.37,1.42c1.25,1.42,1,3.6,1.62,5.37
	c0.85,2.28,3.2,3.73,4.11,6c1,2.52,0,5.34-0.84,7.93c-1.51,4.65-2.46,9.48-3.93,14.15s-3.56,9.27-7,12.79
	c-1.52,1.56-3.78,3-5.78,2.07l-0.77,5.55c-0.225,1.173-0.225,2.377,0,3.55c0.237,1.197,1.139,2.153,2.32,2.46
	c0.15,0.86,1.06,1.27,1.8,1.74c2.279,1.559,2.864,4.67,1.305,6.95c-0.012,0.017-0.023,0.034-0.035,0.05
	c-0.63,0.85-1.56,1.52-1.86,2.53c-0.45,1.46,0.62,3,1.92,3.8s2.83,1.17,4.15,1.94c2.74,1.58,4.21,4.69,5.15,7.71
	c0.7,2.28,1.28,4.75,3,6.41c0.66,0.63,1.45,1.11,2.08,1.77c1.09,1.288,1.72,2.904,1.79,4.59c0.274,2.09-0.185,4.211-1.3,6
	c-2,2.86-5.73,3.71-9,5c-5.31,2.18-9.68,6.08-14.36,9.4c-1.906,1.535-4.152,2.591-6.55,3.08c-3.24,0.43-6.43-1-9.69-1.13
	c-1.95,0.018-3.891,0.273-5.78,0.76l-6,1.3c0.32-4.65-2.24-9.31-3.67-13.74c-2.7-8.34-3.2-17.26-2.56-26s2.42-17.36,4.18-25.94
	c1.23-6,1.11-12.27,3-18.1c1.77-5.61,4.3-11,5.23-16.84C793.18,228.51,786.86,220.5,789,211.18z"/>
<path fill="#3F3D56" d="M834.49,229.67c0.552,1.016,0.94,2.113,1.15,3.25c0.462,1.762,1.329,3.391,2.53,4.76
	c1.006,0.887,1.899,1.895,2.66,3c0.92,1.74,0.57,3.86,1,5.76c0.5,2.07,1.95,3.87,2.16,6c0.006,0.61,0.063,1.219,0.17,1.82
	c0.65,2.42,4.21,3,5,5.42c0.53,1.57-0.38,3.28-0.21,4.93c0.124,0.51,0.155,1.039,0.09,1.56c-0.226,0.589-0.623,1.098-1.14,1.46
	c-3.31,3.162-5.601,7.239-6.58,11.71c-0.964,4.447-1.47,8.98-1.51,13.53l-3.91-5.17c-0.414-0.627-0.943-1.17-1.56-1.6
	c-0.5-0.3-1.08-0.45-1.59-0.75c-1.48-0.84-2.06-2.62-2.63-4.22c-1.583-4.429-3.955-8.535-7-12.12c-1.59-1.87-3.44-3.75-3.79-6.18
	c-0.105-1.116-0.044-2.242,0.18-3.34c1-6.55,2.07-13.26,5.26-19.07c1.49-2.72,3.42-5.18,4.85-7.94
	C830.58,230.65,831.93,225.89,834.49,229.67z"/>
<path fill="#3F3D56" d="M735.84,235.96c0.018,0.842-0.196,1.672-0.62,2.4c-0.78,0.903-2.002,1.29-3.16,1
	c-1.139-0.286-2.211-0.788-3.16-1.48c-2.787-1.76-5.573-3.523-8.36-5.29c-1.556-0.938-3.055-1.966-4.49-3.08
	c-2.193-1.852-4.181-3.934-5.93-6.21c-4.86-6-9.16-12.51-14.57-18c-1.47-1.5-3-2.94-4.42-4.51c-1.941-2.269-3.725-4.668-5.34-7.18
	c-1.56-2.31-3.18-4.87-2.91-7.63c0.16-1.56,0.91-3,1.13-4.55s-0.37-3.44-1.87-3.86c-0.177-0.045-0.358-0.075-0.54-0.09
	c-0.296-0.031-0.588-0.095-0.87-0.19c-1.39-0.58-1.18-2.73-0.18-3.86s2.48-1.76,3.39-3c0.423-0.736,0.898-1.441,1.42-2.11
	c0.67-0.574,1.47-0.976,2.33-1.17c5.768-1.7,11.87-1.93,17.75-0.67c1,0.22,2.14,0.62,2.44,1.59c0.12,0.473,0.12,0.967,0,1.44
	c-0.441,1.972-0.695,3.981-0.76,6c-0.002,0.421,0.022,0.842,0.07,1.26c0.47,4.24,3.22,7.83,5.9,11.14
	c3.18,3.94,6.41,7.85,9.65,11.75c1.752,2.26,3.711,4.352,5.85,6.25c2,1.66,4.59,3,6.15,5.13c1.27,1.72,0.86,4.07,1,6.14
	C736.205,223.43,736.239,229.705,735.84,235.96z"/>
<path fill="#C1C1C1" d="M862.84,277.68c0.988-0.96,1.879-2.015,2.66-3.15c0.841-1.406,1.512-2.906,2-4.47l5.8-16.45
	c0.92-2.6,1.84-5.21,3-7.74c1.2-2.73,2.62-5.36,3.93-8c3.369-6.948,5.975-14.24,7.77-21.75c0.316-1.032,0.421-2.117,0.31-3.19
	c-0.28-1.73-1.59-3.08-2.84-4.31c-1.257-1.358-2.69-2.541-4.26-3.52c-1.593-0.991-3.517-1.3-5.34-0.86c-2.56,0.75-4.17,3.37-4.76,6
	s-0.37,5.32-0.62,8c-0.36,3.84-1.68,7.55-2,11.4c-0.17,2.23,0,4.48-0.27,6.7c-0.492,2.915-1.509,5.717-3,8.27
	c-3.249,6.081-7.639,11.479-12.93,15.9c-1.449,1.07-2.754,2.324-3.88,3.73c-0.94,1.406-1.577,2.994-1.87,4.66
	c-0.664,2.538-0.376,5.23,0.81,7.57c1.63,2.78,4.76,4,7.75,4.62C859.14,281.93,860.07,280.55,862.84,277.68z"/>
<path fill="#3F3D56" d="M785.3,151.36c1.76-3.307,5.328-5.241,9.06-4.91c3.751,0.664,6.798,3.402,7.86,7.06
	c0.47,1.49,0.66,3.14,1.48,4.42c1.24,1.93,3.54,2.49,5.26,3.89c2.075,1.927,3.286,4.609,3.36,7.44
	c0.096,2.862-0.356,5.717-1.33,8.41c-0.413,1.149-0.747,2.325-1,3.52c-0.2,1.16-0.22,2.34-0.4,3.5
	c-0.448,3.039-2.103,5.768-4.59,7.57c-0.351,0.286-0.788,0.445-1.24,0.45c-0.78-0.09-1.26-1-1.55-1.82
	c-1.59-4.59-1.21-10.2-4.14-13.86c-1.333-1.476-2.944-2.676-4.74-3.53c-0.733-0.472-1.558-0.783-2.42-0.91
	c-1.268,0.068-2.487,0.514-3.5,1.28c-2.111,1.416-4.453,2.451-6.92,3.06c-2.494,0.591-5.121,0.025-7.15-1.54
	c-1.38-1.14-2.39-2.85-3.92-3.74s-3.13-0.84-4.64-1.45c-3.492-1.485-5.118-5.519-3.633-9.011c0.223-0.523,0.509-1.017,0.853-1.469
	c1-1.2,2.48-1.88,3.37-3.21c1.15-1.72,1.05-4.08,1.6-6.14c0.66-2.644,2.556-4.808,5.09-5.81c2.468-0.838,5.195-0.267,7.12,1.49
	c1,0.9,1.8,2.06,2.78,3c1.966,1.882,4.754,2.635,7.4,2"/>
<path opacity="0.1" enable-background="new    " d="M801.74,298.55c-1.191,1.061-1.612,2.743-1.06,4.24
	c0.22,0.47,10.54-1.52,11.63-1.67c2.72-0.39,7.49-0.2,9.32-2.69c3.26-4.41-6.84-3.43-8.69-3.27
	C809.42,295.46,804.42,295.94,801.74,298.55z"/>
<path fill="#3F3D56" d="M707.86,169.55c-0.441,1.972-0.695,3.981-0.76,6c-3,0.61-6.12-0.39-9-1.39l-8.27-2.82
	c-1.044-0.667-2.427-0.409-3.16,0.59c-1.33,1.38-3.16,4-5,5.55c-0.296-0.031-0.588-0.095-0.87-0.19c-1.39-0.58-1.18-2.73-0.18-3.86
	s2.48-1.76,3.39-3c0.423-0.736,0.898-1.441,1.42-2.11c0.67-0.574,1.47-0.976,2.33-1.17c5.768-1.7,11.87-1.93,17.75-0.67
	c1,0.22,2.14,0.62,2.44,1.59C708.047,168.563,708.016,169.073,707.86,169.55z"/>
<path opacity="0.1" enable-background="new    " d="M707.86,169.55c-0.441,1.972-0.695,3.981-0.76,6c-3,0.61-6.12-0.39-9-1.39
	l-8.27-2.82c-1.044-0.667-2.427-0.409-3.16,0.59c-1.33,1.38-3.16,4-5,5.55c-0.296-0.031-0.588-0.095-0.87-0.19
	c-1.39-0.58-1.18-2.73-0.18-3.86s2.48-1.76,3.39-3c0.423-0.736,0.898-1.441,1.42-2.11c0.67-0.574,1.47-0.976,2.33-1.17
	c5.768-1.7,11.87-1.93,17.75-0.67c1,0.22,2.14,0.62,2.44,1.59C708.047,168.563,708.016,169.073,707.86,169.55z"/>
<path opacity="0.1" enable-background="new    " d="M783.51,359.4c1.44,0.48,3,1.18,3.49,2.62l-11.58-2.94l-6-1.53
	c-1.06-0.27-4.86-0.58-5.56-1.41c-1-1.22,2.55-0.38,3.19-0.29c1.94,0.29,3.88,0.59,5.81,0.94C776.5,357.44,780,358.51,783.51,359.4z
	"/>
<path opacity="0.1" enable-background="new    " d="M788,369.65c-1-0.67-3.87-0.59-5.1-0.88c-1.8-0.43-3.57-1-5.34-1.55
	c-3.59-1.17-7.15-2.5-10.84-3.36c-0.68-0.15-3-0.19-2.89-1.05s2.32-1.16,2.87-1.2c3.27-0.24,7.35,1.29,10.39,2.38
	C780.964,365.378,784.634,367.282,788,369.65z"/>
<path opacity="0.1" enable-background="new    " d="M780.66,350.26c-3.67-1-7-3.28-10.78-3.72c-0.985,0.037-1.954-0.259-2.75-0.84
	c-0.444-0.437-0.753-0.992-0.89-1.6c2.53-0.13,5.47,0.94,7.77,1.95c1.266,0.543,2.483,1.192,3.64,1.94
	C778.49,348.5,779.75,349.97,780.66,350.26z"/>
<path fill="#3F3D56" d="M850.62,260.72c-1.283,8.594,3.939,16.827,12.26,19.33c-0.49,2.37-2.94,3.68-4.67,5.37
	c-2.44,2.37-3.7,5.92-6.58,7.72c-3.21,2-7.34,1.22-11,0.38c-0.333-0.037-0.64-0.198-0.86-0.45c-0.075-0.12-0.13-0.252-0.16-0.39
	c-1.21-4.43-2-9.16-0.76-13.6c1-3.78,3.4-7,5.32-10.34S846.27,261.82,850.62,260.72z"/>
<path fill="#3F3D56" d="M761.21,203.38c-3.871,0.282-7.629,1.426-11,3.35c-2.24,1.28-4.54,3-7.1,2.69c-1.51-0.17-3-1-4.47-0.6
	c-0.828,0.334-1.6,0.793-2.29,1.36c-0.711,0.567-1.668,0.718-2.52,0.4l-1,13.84c-0.38,5.26-0.75,10.63,0.51,15.76
	c0.65,2.62,2.08,5,2.24,7.66s-0.08,5.39,0.11,8.08c0.18,2.49,0.73,4.94,0.87,7.43c0.28,4.7-0.88,9.36-2,13.93
	c-1.69,6.74-2.71,13.63-6,19.73c-0.92,1.69-2,3.41-2,5.33c0,0.24,0,0.47,0.06,0.7c-1,0.55-1.93,1.07-2.78,1.61
	c-1.9,1.23-3.93,2.6-4.71,4.73c-0.63,1.73-0.34,3.71-1.1,5.38s-2.5,2.86-2.88,4.66c-0.27,1.31,0.25,2.69,0,4
	c-0.226,0.678-0.41,1.369-0.55,2.07c-0.1,1.5,1.17,2.71,2.43,3.53c1.837,1.211,3.866,2.104,6,2.64l5.97-23.7l0,0
	c5.443-10.064,9.971-20.596,13.53-31.47c1.018-3.554,2.326-7.019,3.91-10.36c1.132-1.89,2.134-3.854,3-5.88
	c0.91-2.52,1-5.25,1.44-7.91c0.522-3.105,1.309-6.159,2.35-9.13c1.08-3.21,2.33-6.41,2.55-9.78c0.33-4.82-1.42-9.91,0.44-14.37
	c0.79-1.669,1.817-3.215,3.05-4.59c2.58-3.16,4.93-6.47,7.51-9.63C765.44,203.41,763.21,203.26,761.21,203.38z"/>
<g opacity="0.1">
	<path d="M789.39,148.07l-1.25,0.09l-0.14,0.1C788.468,148.241,788.934,148.177,789.39,148.07z"/>
	<path d="M812.27,168.83c-0.209,1.988-0.638,3.947-1.28,5.84c-0.413,1.149-0.747,2.325-1,3.52c-0.2,1.16-0.22,2.34-0.4,3.5
		c-0.448,3.039-2.103,5.768-4.59,7.57c-0.351,0.286-0.788,0.445-1.24,0.45c-0.78-0.09-1.26-1-1.55-1.82
		c-1.59-4.59-1.21-10.2-4.14-13.86c-1.333-1.476-2.944-2.676-4.74-3.53c-0.733-0.472-1.558-0.783-2.42-0.91
		c-1.268,0.068-2.487,0.514-3.5,1.28c-2.111,1.416-4.453,2.451-6.92,3.06c-2.494,0.591-5.121,0.025-7.15-1.54
		c-1.38-1.14-2.39-2.85-3.92-3.74s-3.13-0.84-4.64-1.45c-1.911-0.816-3.346-2.458-3.9-4.46c-0.035-0.125-0.062-0.252-0.08-0.38
		c-0.25,1.116-0.222,2.277,0.08,3.38c0.554,2.002,1.989,3.644,3.9,4.46c1.51,0.61,3.21,0.62,4.64,1.45s2.54,2.6,3.92,3.74
		c2.029,1.565,4.656,2.131,7.15,1.54c2.467-0.609,4.809-1.644,6.92-3.06c1.013-0.766,2.232-1.212,3.5-1.28
		c0.862,0.127,1.687,0.438,2.42,0.91c1.774,0.871,3.36,2.08,4.67,3.56c2.93,3.66,2.55,9.27,4.14,13.86
		c0.29,0.83,0.77,1.73,1.55,1.82c0.48,0.002,0.945-0.168,1.31-0.48c2.498-1.807,4.157-4.549,4.6-7.6c0.18-1.16,0.2-2.34,0.4-3.5
		c0.253-1.195,0.587-2.371,1-3.52c0.974-2.693,1.426-5.548,1.33-8.41C812.31,169.11,812.29,168.97,812.27,168.83z"/>
</g>
<path fill="#59B02F" d="M749,249.07l-0.68,9.13c-0.1,1.24-2.47,30.76-19.95,65.26c-15,29.59-44.19,68.13-99.3,89.79
	c-4.3,1.7-8.763,3.287-13.39,4.76l-5.16-16.2c12.954-4.077,25.433-9.535,37.22-16.28c28.09-16.22,49.93-39.37,65.16-69.16
	c8.08-15.861,13.839-32.801,17.1-50.3h-62.7v-17H749z"/>
<path opacity="0.1" fill="#FFFFFF" enable-background="new    " d="M622.32,413.26c55.1-21.66,84.3-60.19,99.29-89.78
	c17.48-34.5,19.86-64,19.95-65.26l0.68-9.13h7l-0.68,9.13c-0.09,1.24-2.47,30.76-19.95,65.26c-15,29.59-44.19,68.12-99.29,89.78
	c-4.3,1.7-8.767,3.29-13.4,4.77l-0.68-2.13C617.653,415.04,620.013,414.16,622.32,413.26z"/>
<path fill="#59B02F" d="M512,401.81l-5.16,16.2c-4.633-1.48-9.1-3.07-13.4-4.77c-55.1-21.66-84.3-60.19-99.29-89.78
	c-17.48-34.5-19.86-64-19.95-65.26l-0.68-9.13h81.66v17h-62.71c3.278,17.502,9.054,34.441,17.15,50.3
	c15.23,29.79,37.06,52.94,65.15,69.15C486.558,392.272,499.041,397.734,512,401.81z"/>
<path opacity="0.1" fill="#FFFFFF" enable-background="new    " d="M500.18,413.26c-55.1-21.66-84.3-60.19-99.29-89.78
	c-17.48-34.5-19.86-64-19.95-65.26l-0.68-9.13h-7l0.68,9.13c0.09,1.24,2.47,30.76,19.95,65.26c15,29.59,44.19,68.12,99.29,89.78
	c4.3,1.7,8.767,3.29,13.4,4.77l0.68-2.13C504.853,415.04,502.493,414.16,500.18,413.26z"/>
<path fill="#59B02F" d="M655.59,558.41v91.67H466.92v-91.67l6-8c61.14-21.7,73.53-78.29,76-100.68
	c0.368-3.094,0.578-6.205,0.63-9.32h23.33c0.052,3.115,0.262,6.226,0.63,9.32c2.51,22.39,14.9,79,76,100.68L655.59,558.41z"/>
<rect x="466.92" y="558.41" opacity="0.1" enable-background="new    " width="188.67" height="11.5"/>
<path opacity="0.1" fill="#FFFFFF" enable-background="new    " d="M482.92,550.41c61.14-21.7,73.53-78.29,76-100.68
	c0.368-3.094,0.578-6.205,0.63-9.32h-10c-0.052,3.115-0.262,6.226-0.63,9.32c-2.51,22.39-14.9,79-76,100.68l-6,8v91.67h10v-91.67
	L482.92,550.41z"/>
<path opacity="0.1" enable-background="new    " d="M438.26,249.07h16.92v17h-15.42C439.153,260.47,438.653,254.803,438.26,249.07z"
	/>
<path opacity="0.1" enable-background="new    " d="M512,401.81l-5.16,16.2c-4.633-1.48-9.1-3.07-13.4-4.77
	c-7.073-8.638-13.324-17.918-18.67-27.72C486.558,392.272,499.041,397.734,512,401.81z"/>
<path opacity="0.1" enable-background="new    " d="M610.51,401.81c12.954-4.077,25.433-9.535,37.22-16.28
	c-5.349,9.803-11.599,19.086-18.67,27.73c-4.3,1.7-8.763,3.287-13.39,4.76L610.51,401.81z"/>
<path opacity="0.1" enable-background="new    " d="M684.24,249.07c-0.393,5.733-0.893,11.4-1.5,17h-15.41v-17H684.24z"/>
<path opacity="0.1" enable-background="new    " d="M573.55,449.73c-8.121,1.573-16.469,1.573-24.59,0
	c0.368-3.094,0.578-6.205,0.63-9.32h23.33C572.972,443.525,573.182,446.636,573.55,449.73z"/>
<path fill="#59B02F" d="M440.26,220.91c0.43,126.06,54.43,228,121,228s120.56-101.94,121-228L440.26,220.91z"/>
<path opacity="0.1" fill="#FFFFFF" enable-background="new    " d="M461.76,220.91h-21.5c0.43,126.06,54.43,228,121,228
	c3.602-0.007,7.198-0.311,10.75-0.91C510.47,437.72,462.17,340.11,461.76,220.91z"/>
<rect x="497.09" y="593.5" fill="#3F3D56" width="128.33" height="33"/>
<polygon opacity="0.1" fill="#FFFFFF" enable-background="new    " points="503.09,598 625.42,598 625.42,593.5 497.09,593.5 
	497.09,626.5 503.09,626.5 "/>
<linearGradient id="SVGID_2_" gradientUnits="userSpaceOnUse" x1="-189.4175" y1="414.1757" x2="32.8467" y2="414.1757" gradientTransform="matrix(1 0 0 -1 340 825.78)">
	<stop  offset="0" style="stop-color:#808080;stop-opacity:0.25"/>
	<stop  offset="0.54" style="stop-color:#808080;stop-opacity:0.12"/>
	<stop  offset="1" style="stop-color:#808080;stop-opacity:0.1"/>
</linearGradient>
<path fill="url(#SVGID_2_)" d="M371.82,342.62c-2.31-0.77-15.91-11.53-16.94-16.4s7.19-50.24,7.19-50.24s-0.76,0-2-0.15v-0.73
	l1.69-59.6c0,0,6.93-40-6.16-37.67s-4.88,37.67-4.88,37.67s-1.49,17.94-2.54,23.32c-1,5.19-5.58,26.33-2.46,32.9
	c0.114,0.233,0.241,0.46,0.38,0.68l0,0c0,0,0.52,22.55-5.13,25.63c-5.39,2.93-7.63,17.68-7.82,19l-0.29-0.12l0,0
	c-1.609-1.007-3.022-2.298-4.17-3.81c-0.12-0.15-0.21-0.31-0.32-0.47c7.63-8.584,7.374-21.594-0.59-29.87
	c-1.785-1.854-3.88-3.384-6.19-4.52c-0.067-1.911-0.52-3.788-1.33-5.52c-2.6-5.56-17-12.83-27.23-13c-4.72-0.14-8.59,1.2-10,4.89
	c-0.72,1.87-0.5,4-0.8,5.94c-0.6,4-3.17,7.13-6.47,9.62c-1.333-1.488-2.773-2.875-4.31-4.15c-3.34-2.56-10-11-10-11
	s-20.79-21.53-22.33-27.43s-22.31-41.33-26.93-35.16s15.91,33.06,15.91,33.06s3.9,9.77,6.9,13.07s26,36.7,26,36.7l1.1,2.28
	c-4.86,2.56-9.3,5.82-10.87,10.9c-2.3,7.48,2.73,15,6.21,22c6.78,13.66,7.75,31.08-1,43.56c-7.84,11.02-21.44,16.26-34.17,20.84
	c6.148,4.828,13.786,7.363,21.6,7.17c-2.94,8.52-13.36,11.34-22.24,12.92c4.66,4.48,11.33,6.11,17.73,7.1
	c3.135,0.534,6.311,0.785,9.49,0.75h0.78l0.78-0.06c1.084-0.072,2.163-0.209,3.23-0.41c4.62-0.94,9.11-3.46,11.47-7.54
	c2-3.49,2.7-8.25,6.33-10c0.945-0.427,1.964-0.668,3-0.71h-0.11c0.68,0,1.38,0,2.06,0l15.13,0.15c0.63,0,1.28,0,1.93,0
	c4.27-0.1,8.83-0.84,11-4.37c0.893-1.714,1.362-3.617,1.37-5.55c0.32-4.79,0-9.72,0.13-14.55c1.29,8.79,2.64,22.49-0.57,27.55
	c-2.608,3.834-5.769,7.261-9.38,10.17c-0.908,0.763-1.739,1.614-2.48,2.54c-0.49,0.35-0.78,0.54-0.78,0.54l-0.31,0.93
	c-1.14,1.729-1.966,3.645-2.44,5.66c-0.175,0.518-0.239,1.066-0.19,1.61c0.35,0.71-2.5,3.64-1.67,4.87c-7.12,8.35-8.47,21-8.47,21
	l-13,19.74c-6.68,17.55-16.68,19.35-16.68,19.35s-23.49-15.76-24.13-16.53s-9.62-4.62-9.62-4.62c-1.059-1.857-2.675-3.333-4.62-4.22
	c-3.08-1.28-3.34-6-3.34-6c-0.38-11.15-6.93-12-6.93-12c-5.28-0.45-9.31,0.49-12.41,2.21l-0.94,0.07c-4.54,0.37-10,0.78-16,1.18
	c-16.69,1.1-20.66,11.91-20.66,11.91s-2.05,2.31,0.64,4.81s19.91,0,20.64-0.06c-1.312,0.142-2.64,0.051-3.92-0.27
	c2.71-0.1,6.44-0.2,9.62-0.2h0.77c-0.2,1.686-0.297,3.382-0.29,5.08c0,3.2,8.85,5.25,8.85,5.25l26.95,24c0,0,16.94,7.57,27.72,18.46
	s20.31,1.49,20.31,1.49c11.41-2.82,44.24-42.51,44.27-42.55l0,0c0,1.16,0.69,39.76,2,47.51l0,0c0.052,0.393,0.149,0.779,0.29,1.15
	c1.54,3.33-0.52,12.43-1.41,16.27c-0.568,3.214-0.786,6.479-0.65,9.74c0,0-12.31,47-11.29,51.13s-6.67,23.32-6.67,23.32v16
	l1.34-0.07c-0.174,0.258-0.335,0.525-0.48,0.8l-0.09,0.17c0,0,8.21,1.79,13.73,1.28s15,4.25,15,4.25s3.21,1.52,13.09,2.16
	s9.88-4.36,9.88-4.36c-1.13-6.81-16.74-9.09-17.22-9.16c-1.26-0.79-2.44-1.65-3.41-2.39l-0.2-0.16c0.065-0.15,0.122-0.304,0.17-0.46
	c1.67-6.8-7.57-9.75-7.57-9.75v-1.66c6-3.08,7.19-24.22,7.19-24.22s9-26.14,10.26-30.5s0-10.89,0-10.89l0.9-5.64
	c0,0,1.93-3.84,1.93-4.61c0.25-1.952,1.001-3.805,2.18-5.38c1.41-1.67-1.54-5.64-1.54-5.64l2.57-6.66v-7.31l6-26.52
	c0,0,6.29-30.89,4.11-41s2.57-15.25,2.57-15.25c-0.428,0.225-0.869,0.425-1.32,0.6c0.601-1.388,1.118-2.811,1.55-4.26l13.5,1.67v0.2
	h4.87c0,0-1.54-19-1.54-26.66s5.19-35.15,5.19-35.15S374.13,343.39,371.82,342.62z M311.89,320.44c0,0.75-0.07,1.53-0.12,2.33
	l-0.27,0.41l-0.5-0.42l-0.61,0.95l-0.18,0.09c-1.32-0.68-2-4.57-2.95-3.73l-0.13,0.11c-0.21-0.24-0.42-0.31-0.64-0.11l-0.2,0.17
	c0-0.29,0-0.59,0-0.89c1.829,0.471,3.711,0.709,5.6,0.71C311.9,320.19,311.89,320.32,311.89,320.44z M356.79,408.92h0.29l-0.48,1.26
	C356.66,409.76,356.72,409.35,356.79,408.92z M307.5,635.69l-1.84-0.46l1-0.17l0.93,0.61l0.11,0.08L307.5,635.69z M326.3,633
	c-0.61-0.32-1.23-0.69-1.83-1.07C324.67,632.04,325.46,632.45,326.3,633z"/>
<polygon fill="#428942" points="363.43,390.03 351.32,421.59 354.26,421.59 342.87,430.67 363.43,433.23 "/>
<polygon fill="#428942" points="344.44,410.22 363.43,410.22 370.4,352.87 344.44,352.87 "/>
<path fill="#C4C4C4" d="M307.35,366.45l4.1-0.69l9.42-1.6c0,0,28.29-6.38,34.13-6.9c3.538-0.467,6.988-1.451,10.24-2.92
	c1.53-0.66,2.5-1.16,2.5-1.16l-10.19-18.61l-15.81-11.72c0,0-10-2.13-14.23-7.95c-1.918-2.545-2.412-5.89-1.31-8.88
	c2.58-8-15.41,7.65-15.41,7.65s0.17,3.75,0,8.53c0,0.94-0.09,1.92-0.16,2.92c0,0.66-0.09,1.32-0.16,2
	c-0.44,4.75-1.34,9.64-3.12,12.56C303,346.82,307.35,366.45,307.35,366.45z"/>
<path opacity="0.1" enable-background="new    " d="M310.79,322.6h0.4c0.72,0,1.3-1.53,2-1.6c5.63-0.54,10.77-1.72,14.34-5.71
	c-1.913-2.543-2.406-5.883-1.31-8.87c2.58-8-15.41,7.64-15.41,7.64S311,317.82,310.79,322.6z"/>
<path fill="#C4C4C4" d="M288.89,299.92c-0.006,12.101,9.799,21.914,21.9,21.92c0.007,0,0.013,0,0.02,0c0.72,0,1.43,0,2.14-0.1
	c12.048-1.182,20.857-11.907,19.675-23.955s-11.907-20.857-23.955-19.675C297.448,279.21,288.892,288.645,288.89,299.92
	L288.89,299.92z"/>
<path fill="#3F3D56" d="M282.16,266.65c-0.72,1.86-0.5,3.94-0.79,5.91c-1.07,7.11-8.3,11.37-14.84,14.35s-13.92,6.51-16,13.38
	c-2.28,7.43,2.7,14.88,6.16,21.85c6.74,13.58,7.7,30.9-1,43.32c-7.73,11-21.2,16.22-33.88,20.8c6.103,4.801,13.687,7.326,21.45,7.14
	c-2.91,8.47-13.26,11.28-22.08,12.84c4.63,4.46,11.26,6.08,17.61,7.06c4.63,0.72,9.38,1.19,14,0.26s9-3.44,11.38-7.5
	c2-3.47,2.68-8.2,6.29-9.95c1.63-0.641,3.385-0.898,5.13-0.75l15,0.16c4.67,0,10.2-0.36,12.61-4.35
	c0.889-1.705,1.355-3.598,1.36-5.52c0.65-9.84-1.24-20.24,2.81-29.22c1.22-2.71-6.61-7-5.79-9.87c2.82-9.87,3.53-17.64,3.5-27.91
	c0-7.95,5.17-14.8,9.44-21.51s7.84-15.18,4.47-22.38C315.19,266.73,286.65,255.06,282.16,266.65z"/>
<path fill="#FBBEBE" d="M302.13,632.81l3.82,2.53l0.59,0.39l0.11,0.07l4.53,3l10.58,1.78l9.3-0.64c0,0,2.68-5.6-1.53-5.47
	c-1.348-0.069-2.663-0.449-3.84-1.11l-0.58-0.29l0,0c-0.61-0.32-1.22-0.68-1.82-1.06l0,0c-1.25-0.79-2.43-1.65-3.38-2.38
	c-1.4-1.08-2.33-1.9-2.33-1.9L302.13,632.81z"/>
<path opacity="0.1" enable-background="new    " d="M306,635.34l0.59,0.39l0.11,0.07l4.53,3l10.58,1.78l9.3-0.64
	c0,0,2.68-5.6-1.53-5.47c-1.348-0.069-2.663-0.449-3.84-1.11c0.74,0.58,1.36,1.21,1.42,1.74c0.17,1.43-6.88,4-6.88,4l-9.94-2.63
	c0,0-1.69-0.48-4-1.08l-0.22-0.06L306,635.34z"/>
<path fill="#3F3D56" d="M289,637.78c0,0,8.15,1.78,13.63,1.27s14.92,4.21,14.92,4.21s3.19,1.5,13,2.14s9.81-4.34,9.81-4.34
	c-1.12-6.77-16.62-9-17.1-9.1l0,0l0,0l0,0c0.19,0.1,1,0.51,1.82,1.06l0,0c1.1,0.72,2.29,1.66,2.38,2.42c0.17,1.42-6.88,4-6.88,4
	l-9.94-2.62c0,0-1.69-0.49-4-1.09h-0.22c-3.425-0.933-6.905-1.651-10.42-2.15c-4.28-0.46-6.47,3.18-6.92,4
	C289.047,637.644,289.021,637.711,289,637.78z"/>
<path fill="#FBBEBE" d="M160.54,457.95l4.33,3.32c0,0,1.26-0.06,3.14-0.12h0.6c2.69-0.1,6.4-0.2,9.55-0.2
	c2.036-0.092,4.077,0.022,6.09,0.34c2.16,0.76,6-12.36,6-12.36l-4.34-1l-1.44-0.34l-1-0.24l-3.53-0.83l-10.7,1.22l-7.52,4.84
	L160.54,457.95z"/>
<path opacity="0.1" enable-background="new    " d="M160.54,457.95l4.33,3.32c0,0,1.26-0.06,3.14-0.12
	c-0.863-0.333-1.574-0.969-2-1.79c-2.8-7.77,11.09-11.09,11.09-11.09l6.47-0.28l1.26-0.06h1l-1.44-0.34l-1-0.24l-3.53-0.83
	l-10.7,1.22l-7.52,4.84L160.54,457.95z"/>
<path fill="#3F3D56" d="M152,461.46c2.62,2.42,19.78,0,20.5-0.06c-1.302,0.147-2.62,0.055-3.89-0.27
	c-1.273-0.228-2.375-1.018-3-2.15c-2.8-7.78,11.09-11.09,11.09-11.09l6.47-0.28l1.25-0.06l15.73-0.68l0.76-4.33
	c0,0-5.11,0.48-13.13,1.12c-4.51,0.37-10,0.78-15.93,1.17c-16.57,1.1-20.51,11.85-20.51,11.85S149.33,458.98,152,461.46z"/>
<path fill="#C4C4C4" d="M344.45,273.76c0.106,0.237,0.234,0.465,0.38,0.68l3.82,5.6l9.94,1l0.11-3.94l1.67-59.28
	c0,0,6.88-39.76-6.12-37.47s-4.84,37.47-4.84,37.47s-1.48,17.84-2.52,23.2C345.88,246.2,341.35,267.26,344.45,273.76z"/>
<path fill="#FBBEBE" d="M322.14,421l2.83,4.84l6.33,10.83c0,0,11.48,4.21,14.42,1c1.61-1.75,3.35-7.86,4.57-13
	c1-4.16,1.67-7.67,1.67-7.67L322.14,421z"/>
<path opacity="0.1" enable-background="new    " d="M322.14,421l2.83,4.84c0.177-0.153,0.338-0.324,0.48-0.51
	c3.2-4.08,17.29-0.87,24.84-0.61c1-4.16,1.67-7.67,1.67-7.67L322.14,421z"/>
<path opacity="0.1" enable-background="new    " d="M178.16,460.93c2.036-0.092,4.077,0.022,6.09,0.34c2.16,0.76,6-12.36,6-12.36
	l-5.78-1.36l15.73-0.68l0.76-4.33c0,0-5.11,0.48-13.13,1.12c-1.657,0.954-3.136,2.189-4.37,3.65l-0.24,0.3
	C179.87,451.72,178.63,457.02,178.16,460.93z"/>
<path opacity="0.1" enable-background="new    " d="M302.13,632.81l4.41,2.92c6.58-1.19,12.59-3.06,13.3-6
	c0.003-0.047,0.003-0.093,0-0.14c-1.4-1.08-2.33-1.9-2.33-1.9L302.13,632.81z"/>
<path opacity="0.1" enable-background="new    " d="M289.09,637.61c5.811-0.289,11.6-0.91,17.34-1.86
	c-3.428-0.94-6.911-1.665-10.43-2.17C291.73,633.12,289.54,636.76,289.09,637.61z"/>
<path fill="#3F3D56" d="M178.64,465.98c0,3.19,8.79,5.23,8.79,5.23l26.77,23.83c0,0,16.82,7.52,27.52,18.35s20.14,1.53,20.14,1.53
	c11.34-2.8,44-42.31,44-42.31s0.76,45.12,2.29,48.43s-0.51,12.36-1.4,16.19c-0.562,3.194-0.776,6.44-0.64,9.68
	c0,0-12.23,46.77-11.21,50.85s-6.63,23.2-6.63,23.2v15.93c0,0,29.95-1.15,31.6-7.9s-7.51-9.69-7.51-9.69v-1.66
	c6-3.06,7.13-24.08,7.13-24.08s8.93-26,10.2-30.33s0-10.84,0-10.84l0.89-5.6c0,0,1.91-3.83,1.91-4.59
	c0.25-1.941,0.997-3.784,2.17-5.35c1.4-1.66-1.53-5.61-1.53-5.61l2.55-6.63v-7.26l6-26.38c0,0,6.25-30.72,4.08-40.79
	s2.55-15.16,2.55-15.16c-10.23,5.36-15.39-6.57-17.08-11.7c-0.43-1.32-0.64-2.2-0.64-2.2s-14.05-5.18-27.13-3.94
	c-2.656,0.215-5.274,0.77-7.79,1.65c-14.53,5.23-16.82,26.89-16.82,26.89l-12.87,19.63c-6.63,17.46-16.57,19.24-16.57,19.24
	s-23.32-15.67-24-16.44s-9.56-4.59-9.56-4.59c-1.05-1.848-2.656-3.318-4.59-4.2c-3.06-1.28-3.31-6-3.31-6
	c-0.38-11.09-6.88-12-6.88-12C178.51,439.48,178.64,462.8,178.64,465.98z"/>
<rect x="308.38" y="360.98" fill="#4F993F" width="13.76" height="42.69"/>
<path opacity="0.1" enable-background="new    " d="M344.44,273.67c-0.002,0.03-0.002,0.06,0,0.09
	c0.106,0.237,0.234,0.465,0.38,0.68l3.82,5.6l9.94,1l0.11-3.94C355.59,276.86,348.53,276.01,344.44,273.67z"/>
<path fill="#57A54C" d="M344.83,274.44c0,0,0.51,22.42-5.1,25.48s-7.79,19-7.79,19s17,11.18,20.79,16.1s12.49,16.64,10.7,19.44
	s4.34,15.55,4.34,15.55s-11.22,22.94-8.67,31.61s2.8,31.6,2.8,31.6h4.85c0,0-1.53-18.86-1.53-26.51s5.09-34.92,5.09-34.92
	s2.3-26.76,0-27.52s-15.8-11.47-16.82-16.32s7.14-50,7.14-50S350.18,277.5,344.83,274.44z"/>
<path opacity="0.1" enable-background="new    " d="M308.12,357.02c0.465,3.12,1.601,6.102,3.33,8.74l9.42-1.6
	c0,0,28.29-6.38,34.13-6.9c3.538-0.467,6.988-1.451,10.24-2.92c-2.241-7.943-6.617-15.119-12.65-20.75l-3.59-3.33
	c-5.29-4.912-11.421-8.831-18.1-11.57c0.42,0.35,30.1,25.69,23.6,30.66s-24-7.13-24-7.13l-19.9-17.1l-0.72-0.62l-1.15,1.79
	c0.585,0.241,1.156,0.514,1.71,0.82c6.782,3.723,11.815,9.978,14,17.4C328.53,358.26,308.12,357.02,308.12,357.02z"/>
<path fill="#444053" d="M302,420.74c0,0,18.86,10.45,23.44,4.59c1-1.29,3.11-1.85,5.74-2c-0.43-1.32-0.64-2.2-0.64-2.2
	s-14.05-5.18-27.13-3.94C302.55,419.35,302,420.74,302,420.74z"/>
<path fill="#E8E8F0" d="M310.68,324.52l20.62,17.74c0,0,17.43,12.14,24,7.13s-23.61-30.67-23.61-30.67l0,0
	c6.664,2.748,12.789,6.655,18.09,11.54l3.59,3.33c9.44,8.75,11.57,8.75,11.89,21.61c0.08,3.17-1,7.72-1.83,8.54
	c-3.06,3-5.2,24.79-4.73,27.34s-5.7,24.56-3.7,30.68s-25-3.06-29.57,2.81S302,419.98,302,419.98s10.45-26.77,13-28.55
	s5.61-15.55,0-21.92s-6.11-12.49-6.11-12.49s20.4,1.26,16.31-12.49c-2.328-8.065-8.052-14.716-15.68-18.22L310.68,324.52z"/>
<path opacity="0.1" enable-background="new    " d="M338.2,369.64c0,0-7.91,14.91-18.14,18.78c-0.33,0.12-0.65,0.23-1,0.33
	C308.38,392,339,374.26,338.2,369.64z"/>
<path fill="#C4C4C4" d="M227.58,237.73c0,0,3.82,9.69,6.88,13s25.74,36.45,25.74,36.45l1.92,4l1.65,3.41l14.53-1.53l1-5.86
	l-0.56-0.68c-1.46-1.75-5.44-6.45-8.11-8.5c-3.31-2.54-9.94-10.95-9.94-10.95s-20.64-21.42-22.17-27.28s-22.18-41-26.76-34.92
	S227.58,237.73,227.58,237.73z"/>
<g opacity="0.1">
	<path d="M269.74,395.36c-1.744-0.151-3.5,0.102-5.13,0.74c-3.6,1.75-4.28,6.48-6.28,9.95c-2.34,4.06-6.8,6.57-11.39,7.5
		c-0.912,0.177-1.834,0.304-2.76,0.38c2.923,0.284,5.872,0.157,8.76-0.38c4.59-0.93,9.05-3.44,11.39-7.5c2-3.47,2.68-8.2,6.28-9.95
		c0.945-0.425,1.964-0.663,3-0.7L269.74,395.36z"/>
	<path d="M305.26,318.65c0-7.95,5.17-14.8,9.43-21.51s7.84-15.18,4.47-22.38c-2.88-6.15-20.24-14.4-30.26-12.77
		c9.81,1.27,21.9,7.73,24.26,12.77c3.37,7.2-0.21,15.67-4.47,22.38s-9.45,13.56-9.43,21.51c0,10.26-0.69,18-3.51,27.91
		c-0.81,2.85,7,7.16,5.8,9.86c-4.06,9-2.16,19.38-2.81,29.22c-0.014,1.922-0.483,3.814-1.37,5.52c-2,3.29-6.1,4.14-10.09,4.32h3.49
		c4.66,0,10.19-0.36,12.6-4.35c0.887-1.706,1.356-3.598,1.37-5.52c0.65-9.84-1.25-20.23,2.81-29.22c1.22-2.7-6.61-7-5.8-9.86
		C304.57,336.69,305.28,328.91,305.26,318.65z"/>
</g>
<path opacity="0.1" enable-background="new    " d="M262.12,291.16l1.65,3.41l14.53-1.53l1-5.86l-0.56-0.68
	C277.19,287.26,265.58,292.85,262.12,291.16z"/>
<path opacity="0.1" enable-background="new    " d="M315.77,329.49c0,0-3.57-5.6-5.61-4.08s-2.83-4.59-4-3.57s-4.58,3.86-6-0.11
	c-1.11-3.16-13.19-23.15-18.09-31.19c-1.26-2.08-2.05-3.36-2.05-3.36s-13.76,6.88-17.07,4.59v4.84l2.8,0.26l15,28
	c0,0,4.72,7.51,4.4,10.13s6.05,14.09,7.07,14.85s12,13.51,12,13.51s5.61,27.53,0.76,35.18s-13.25,13.25-13.25,13.25
	s-2.53,7.39-2.16,8.16s-2.94,4.08-1.41,5.1s3.57,8.15,3.57,8.15s7.14-11.47,11-13.25s8.8-25.24,8.8-25.24s1.41-13.82,1.52-22.74
	S312.71,329.49,315.77,329.49z"/>
<path fill="#57A54C" d="M315,329.49c0,0-3.56-5.6-5.6-4.08s-2.84-4.59-4-3.57s-4.57,3.86-6-0.11c-1.12-3.16-13.2-23.15-18.09-31.19
	l-2.05-3.36c0,0-13.76,6.88-17.08,4.59v4.84l2.81,0.26l15,28c0,0,4.73,7.51,4.4,10.13s6,14.09,7.07,14.85s12,13.51,12,13.51
	s5.61,27.53,0.77,35.18c-2.557,3.842-5.667,7.286-9.23,10.22c-2.993,2.469-5.099,5.846-6,9.62c-0.174,0.514-0.235,1.06-0.18,1.6
	c0.37,0.76-2.94,4.08-1.41,5.1s3.59,8.18,3.59,8.18s7.14-11.47,11-13.25s8.81-25.24,8.81-25.24s1.4-13.82,1.52-22.74
	S312,329.49,315,329.49z"/>
<path opacity="0.1" enable-background="new    " d="M280.08,445.47c0,0,10.71,2,15,5.09s-16.31-4.84-16.31-4.84L280.08,445.47z"/>
<path opacity="0.1" enable-background="new    " d="M305.83,472.61c0,0,11.17,9.31,9.17,17.72s-7.16,29.57-7.16,29.57L305.83,472.61
	z"/>
<path opacity="0.1" enable-background="new    " d="M208.14,454.71c0,0-15.74,1.72-14.72,3.76s14.72-1.88,14.72-1.88V454.71z"/>
<path opacity="0.1" enable-background="new    " d="M329,532.13c0,0,1,1.27-4.84,0s-1.53-5.19-1.53-5.19L329,532.13z"/>
<path opacity="0.1" enable-background="new    " d="M327,549.72c0,0-8,1.27-12.29,0S327,549.72,327,549.72z"/>
<path opacity="0.1" enable-background="new    " d="M310.54,618.54c0,0-1.4-1.53-8.41,1.27s-9.81,2.93-11.85,2
	S310.54,618.54,310.54,618.54z"/>
<path opacity="0.1" enable-background="new    " d="M318.32,452.54l-9.94,13.83C308.38,466.37,313.73,454.26,318.32,452.54z"/>
<path opacity="0.1" enable-background="new    " d="M299,325.41c0,0-0.43,4.59-6.84,6.38s-7.63,3.24-7.63,3.24"/>
<path opacity="0.1" enable-background="new    " d="M282.34,292.14c0,0-8.46,6-17.29,4.73"/>
<path opacity="0.1" enable-background="new    " d="M288.78,420.61c0,0,2.47,1.55,8.4-5.23"/>
<path opacity="0.1" enable-background="new    " d="M350.37,348.72c0.24-1.24-0.62-2.39-1.43-3.36l-1.66-2
	c-0.324-0.409-0.69-0.785-1.09-1.12c-1-0.77-2.28-1-3.32-1.69"/>
<path opacity="0.1" fill="#59B02F" enable-background="new    " d="M887.29,0.11c0,0-84.19-5.08-74.29,53.92c0,0-2,10.43,7.48,15.16
	c0,0,0.15-4.37,8.64-2.88c3.023,0.501,6.093,0.649,9.15,0.44c4.129-0.285,8.054-1.907,11.18-4.62l0,0c0,0,23.67-9.78,32.87-48.46
	c0,0,6.81-8.44,6.54-10.61l-14.21,6.07c0,0,4.86,10.25,1,18.77c0,0-0.46-18.4-3.19-18c-0.55,0.09-7.38,3.55-7.38,3.55
	s8.35,17.85,2.05,30.83c0,0,2.39-22-4.66-29.54l-10,5.84c0,0,9.76,18.44,3.14,33.49c0,0,1.7-23.08-5.25-32.07l-9.06,7.07
	c0,0,9.17,18.18,3.58,30.66c0,0-0.73-26.87-5.54-28.9c0,0-7.93,7-9.14,9.86c0,0,6.28,13.2,2.38,20.16c0,0-2.39-17.9-4.35-18
	c0,0-7.9,11.86-8.72,20c0,0,0.34-12.09,6.81-21.12c0,0-7.64,1.31-12.1,6.26c0,0,1.23-8.38,14.05-9.11c0,0,6.53-9,8.27-9.55
	c0,0-12.74-1.06-20.47,2.36c0,0,6.8-7.91,22.81-4.31l8.95-7.31c0,0-16.78-2.29-23.9,0.24c0,0,8.19-7,26.31-1.9l9.74-5.82
	c0,0-14.31-3.08-22.83-2c0,0,9-4.85,25.69,0.41l7-3.13c0,0-10.48-2.06-13.55-2.39s-3.23-1.17-3.23-1.17
	c6.64-1.107,13.456-0.349,19.69,2.19C872.75,6.5,887.55,1.04,887.29,0.11z"/>
<path opacity="0.1" fill="#59B02F" enable-background="new    " d="M783.45,15.12c0,0-38-2.3-33.55,24.36c0,0-0.89,4.72,3.37,6.86
	c0,0,0.07-2,3.91-1.31c1.364,0.23,2.75,0.297,4.13,0.2c1.866-0.127,3.64-0.861,5.05-2.09l0,0c0,0,10.7-4.41,14.86-21.89
	c0,0,3.07-3.82,2.95-4.8l-6.42,2.74c0,0,2.2,4.64,0.47,8.49c0,0-0.21-8.32-1.44-8.12c-0.25,0-3.34,1.6-3.34,1.6
	s3.78,8.07,0.93,13.94c0,0,1.08-9.94-2.11-13.35l-4.52,2.64c0,0,4.42,8.33,1.42,15.13c0,0,0.77-10.43-2.37-14.49l-4.09,3.23
	c0,0,4.14,8.22,1.62,13.85c0,0-0.33-12.14-2.51-13.05c0,0-3.58,3.16-4.13,4.46c0,0,2.84,6,1.08,9.1c0,0-1.08-8.09-2-8.12
	c0,0-3.56,5.36-3.94,9c0.178-3.397,1.24-6.689,3.08-9.55c-2.06,0.39-3.961,1.374-5.47,2.83c0,0,0.56-3.78,6.35-4.12
	c0,0,3-4.06,3.74-4.31c0,0-5.76-0.48-9.25,1.07c0,0,3.07-3.58,10.31-2l4-3.3c0,0-7.58-1-10.8,0.11c0,0,3.7-3.16,11.89-0.86l4.4-2.63
	c0,0-6.46-1.4-10.32-0.89c0,0,4.07-2.2,11.61,0.18l3.15-1.41c0,0-4.74-0.94-6.13-1.08s-1.46-0.53-1.46-0.53
	c3.002-0.499,6.084-0.153,8.9,1C776.82,18.01,783.57,15.54,783.45,15.12z"/>
<ellipse fill="#59B02F" cx="916.19" cy="643.96" rx="40.21" ry="6.8"/>
<path fill="#59B02F" d="M932.82,632.84c1.836-1.495,3.172-3.515,3.83-5.79c0.5-2.29-0.48-5-2.68-5.89
	c-2.46-0.94-5.09,0.77-7.08,2.49s-4.28,3.69-6.88,3.32c2.725-2.476,3.955-6.198,3.24-9.81c-0.114-0.736-0.425-1.427-0.9-2
	c-1.37-1.46-3.84-0.84-5.48,0.31c-5.2,3.66-6.65,10.73-6.68,17.08c-0.52-2.29-0.08-4.68-0.09-7s-0.66-5-2.65-6.23
	c-1.227-0.66-2.607-0.984-4-0.94c-2.33-0.09-4.94,0.15-6.53,1.86c-2,2.12-1.47,5.68,0.25,8s4.35,3.81,6.77,5.42
	c1.936,1.154,3.587,2.73,4.83,4.61c0.15,0.263,0.271,0.541,0.36,0.83h14.66C927.069,637.43,930.106,635.325,932.82,632.84z"/>
</svg>
