<svg xmlns="http://www.w3.org/2000/svg" width="455" height="450" fill="none" viewBox="0 0 455 450">
    <path fill="#3470D9" d="M446.817 343.558l-10.383-30.463-17.381 5.867-35.438-103.801-39.502 13.426.113.339-12.753 54.946-18.058 78.189 10.609 23.356 37.244-12.637 13.544-4.626 15.123-5.19 12.302 36.217 39.501-13.426-12.302-36.217 17.381-5.98zm-71.78-9.478l-8.916 3.047-17.155 5.867 11.738-58.106 1.129-4.852 17.832 52.465-4.628 1.579z"/>
    <path fill="#000" d="M429.436 349.538l12.302 36.104-25.055-10.718-40.178-144.644-14.785 49.756-6.772 28.32-23.362-24.371 12.753-54.947-.113-.338 39.502-13.426 35.325 103.8 17.381-5.867 10.383 30.351-17.381 5.98zM374.924 368.041l-13.543 4.626 2.032-27.981v-5.077l2.708-2.595 1.806-1.693 7.223-1.466c-.113.225-.564 20.76-.226 34.186z" opacity=".25"/>
    <path fill="#1C2F60" d="M13.656 288.365c-1.016 0-1.806 0-2.031-.226-.452-.113-1.58-.564-11.625-18.617l1.806-1.015c3.724 6.657 9.48 16.473 10.722 17.714 1.128.225 7.11-.226 12.414-.79l.226 2.031c-3.386.451-8.577.903-11.512.903z"/>
    <path fill="url(#a)" d="M50.223 297.052v.564s-.564 11.396-9.142 10.945h-.112c-5.305-.339-11.85-2.821-16.252-4.626-2.71-1.129-4.628-2.031-4.854-2.031-.564.113 6.434 29.335 6.434 30.914 0 .226-.113.452-.113.677-.452 1.58-2.258 3.498-3.273 3.611-.113 0-.339-.226-.677-.564-3.16-3.949-15.8-26.853-16.14-34.413-.338-8.236 3.838-13.2 9.48-14.103 4.177-.677 16.366 1.016 22.46 1.918 2.145.339 3.612.564 3.612.564l8.577 6.544z"/>
    <path fill="#000" d="M26.297 332.931c0 .226-.113.451-.113.677-.452 1.58-2.257 3.498-3.273 3.611-.113 0-.339-.226-.677-.565 4.514-6.318-7.224-37.007-4.628-37.12 1.242 0 4.063 2.144 7.223 4.401-2.708-1.129-4.627-2.031-4.853-2.031-.564.113 6.434 29.335 6.32 31.027z" opacity=".25"/>
    <path fill="#000" d="M50.223 297.052v.564s-.564 11.396-9.142 10.945c1.693-1.354 2.032-3.724 1.92-6.544-.114-3.272-3.161-9.027-4.967-11.96 2.145.338 3.612.564 3.612.564l8.577 6.431z" opacity=".13"/>
    <path fill="url(#b)" d="M32.053 259.594c-.339.451-.452.789-.452 1.128-.113-.226-.451-.79-.903-1.467-.79-1.241-1.806-2.708-2.483-2.933-1.015-.339-3.837 3.272-7.561 3.497h-.79c-4.176-.225-8.465-6.092-4.966-12.975 1.241 2.482 3.724 2.595 3.724 2.595s-1.58-.338-1.58-2.256c4.514.79 6.884-2.595 10.722-1.354 3.837 1.241 3.611 3.61 3.611 3.61s2.935-1.128 3.838 2.482c.677 3.047-2.032 5.98-3.16 7.673z"/>
    <path fill="url(#c)" d="M31.488 260.722c-.226.903-.79 1.918-1.467 2.821-.79 1.015-1.919 1.692-3.16 1.692-2.596-.113-5.192-3.61-6.433-5.416 3.724-.225 6.546-3.836 7.561-3.497.678.225 1.694 1.692 2.483 2.933.565.677.903 1.241 1.016 1.467z"/>
    <path fill="url(#d)" d="M35.325 261.06s-1.918 4.513-2.708 3.498c-.452-.564-1.58-.903-2.483-1.128.677-.79 1.128-1.805 1.467-2.821 0-.338.226-.677.452-1.128 1.354 1.241 3.273 1.579 3.273 1.579z"/>
    <path fill="#E3EDFE" d="M49.207 299.083c-3.16-.451-11.624-9.703-11.624-13.652 0-.564-.113-1.128-.113-1.918-.677-4.175-3.047-10.154-4.063-14.442-1.129-4.964.564-6.882.564-6.882 3.838-6.657 12.64 6.544 17.607 17.149 1.692 3.611 2.821 6.883 2.934 9.139.226 7.447-2.145 11.057-5.305 10.606z"/>
    <path fill="#2754A3" d="M49.207 299.083c-3.16-.451-11.624-9.703-11.624-13.652 0-.564-.113-1.128-.113-1.918v-1.805l3.047-16.134s4.289 5.077 4.966 14.103c.677 9.026 10.609 11.057 6.095-.451 1.692 3.61 2.821 6.882 2.934 9.139.226 7.559-2.145 11.169-5.305 10.718z" opacity=".25"/>
    <path fill="#E3EDFE" d="M42.549 279.113c-.113.113-.226.113-.452.225-1.467.452-5.756.339-7.449 0a.86.86 0 0 1-.564-.225c-1.129-.564 0-1.918-.339-4.288-.338-2.369-1.241-9.477 2.258-11.621 3.724-2.256 6.433 6.318 6.546 10.493.112 4.287.79 4.739 0 5.416z"/>
    <path fill="url(#e)" d="M42.21 279.338s-.226 10.38-2.144 15.345c-.565 1.579-1.468 2.482-2.483 2.482-4.289-.113-13.995-10.267-14.898-10.718-.903-.339-5.304.225-5.079-.339.113-.677 1.806-2.031 3.725-2.821 1.806-.677 1.58-.225 13.43 5.19-.113-1.015-.113-5.528 0-8.123v-1.016c1.693.339 5.982.339 7.449 0z"/>
    <path fill="#D1E1FC" d="M29.908 339.926c.339 1.806-12.189 14.555-11.512 11.17.677-3.385 4.515-13.877 4.515-13.877 1.015-.113 2.821-2.031 3.273-3.611 1.015 1.805 3.386 4.739 3.724 6.318z"/>
    <path stroke="#fff" stroke-miterlimit="10" stroke-width=".46" d="M41.081 301.001s-19.976-3.723-23.926-1.918c-3.95 1.805 7.223 33.397 7.223 33.397" opacity=".25"/>
    <path fill="#DBB2A1" d="M40.052 294.76c.339-2.031.678-8.124-.338-10.493-.677-1.58-3.386-3.047-4.966-3.723v-1.016c1.806.339 5.982.451 7.449 0 .113 0-.113 10.38-2.145 15.232z"/>
    <path fill="#E3EDFE" d="M363.201 223.961c-.451 1.58-1.129 3.611-2.144 6.206-1.468 3.836-3.725 9.139-7.111 16.36-.112 3.723-1.241 27.417-1.58 32.832 0 .677-.113 1.016-.113 1.129 0 .225-.902.677-1.805.902-.903.226-1.806.226-2.257-.225-.791-1.129-6.434-23.468-6.772-28.771-.226-5.303-.564-4.062 5.869-25.048-1.58.79-11.738.451-11.738.451s1.919 25.725 1.919 25.838v.225c-.113.339-.452 1.129-.903 1.58-.226.226-.339.339-.565.226-.112 0-.338-.226-.677-.564-1.918-2.031-7.336-9.027-10.27-15.571-3.386-7.672-4.289-13.087-1.016-18.39 3.273-5.416 19.638-5.755 19.638-5.755 1.016.339 3.386.565 5.756 1.129.677.113 1.354.338 2.031.564 3.612 1.241 10.384 2.708 11.964 1.805.338 1.128.451 2.482-.226 5.077z"/>
    <path fill="#2D2B2B" d="M376.744 206.135c-.677.338-8.239.112-13.317-1.806 0 .903.113 2.257.225 3.949.226 2.483.452 5.529.339 7.673 0 1.579-.226 2.707-.677 2.933-.79.451-3.047.226-5.643-.226-1.58-.338-3.386-.677-4.853-1.128-.565-.113-1.016-.338-1.467-.451-2.935-1.016-6.433-1.354-7.788-1.693-.338-.112-.564-.225-.564-.338 0-.564 1.241-1.692 1.806-2.821.113-.113.225-.338.225-.677a93.483 93.483 0 0 0 1.693-5.19c.226-.902.339-1.466.113-1.354-.564.339-4.176 6.996-4.627 6.996-.113 0-.903-.452-1.693-1.016-1.467-1.015-3.273-2.369-3.273-3.046 0-.113 0-.226.113-.226.79-.79 7.223-11.508 9.48-13.765 1.129-1.128 2.37-1.692 3.386-2.143 1.129-.452 2.031-.564 2.031-.564 1.355 0 2.709.112 4.063.451 4.628 1.128 8.804 4.062 11.174 5.528 3.047 1.806 5.191 1.354 5.981 1.806 1.242.451 3.95 6.769 3.273 7.108z"/>
    <path fill="#253E7F" d="M364.104 215.951c-4.289 0-13.769-.339-18.848-4.401a93.483 93.483 0 0 0 1.693-5.19s10.045 3.047 16.816 1.806c.226 2.595.452 5.528.339 7.785z"/>
    <path fill="#000" d="M356.655 191.693c-.113 1.805-.79 3.723-2.709 3.498-2.708-.226-3.273-2.483-3.385-3.498 1.128-.451 2.031-.564 2.031-.564 1.354 0 2.709.225 4.063.564z" opacity=".25"/>
    <path fill="#8C97AE" d="M355.526 187.857s-.451-1.918-1.354-2.821c-.79 1.241-3.611 1.805-5.869 2.031a8.265 8.265 0 0 1-2.483-.113c-1.58-6.093 3.386-8.8 6.095-8.913 2.709-.226 5.191 1.805 4.401 4.964 2.483 2.257-.79 4.852-.79 4.852z"/>
    <path fill="url(#f)" d="M355.526 187.857a9.208 9.208 0 0 1-.677 1.805c-.564 1.128-1.693 2.031-3.386 1.354-.112 0-.112 0-.225-.113-1.467-.677-2.258-2.031-2.709-3.046-.113-.339-.226-.677-.226-.903 2.258-.113 5.192-.79 5.869-2.031l.113.113c.79 1.015 1.241 2.821 1.241 2.821z"/>
    <path fill="url(#g)" d="M355.301 192.595c-.226 1.693-3.048 1.58-3.386.565-.113-.565-.339-1.129-.452-1.58l-.225-.677c.113 0 .113.113.225.113 1.806.677 2.822-.226 3.386-1.354-.225.338.339.903.452 1.805v1.128z"/>
    <path fill="#3470D9" d="M340.629 260.292c-.226 2.143-11.286 10.492-11.061 8.913.226-1.467 5.756-14.216 5.756-14.216.339.338.565.564.677.564.565.113 1.242-1.241 1.468-1.805 1.467 2.031 3.385 4.626 3.16 6.544zM348.191 298.54c-2.596-5.529 0-17.375 0-17.375.79 1.128 3.95-.226 4.062-.677 0 0 0-.452.113-1.129 0 0 .452 5.642.903 10.38.452 4.852-2.483 14.329-5.078 8.801z"/>
    <path fill="#000" d="M347.4 227.346c-1.58.79-11.737.451-11.737.451s1.918 25.725 1.918 25.838v.225c-.112.339-.451 1.129-.902 1.58-1.919-8.801-5.643-25.612-2.596-28.545 3.837-3.723 14.22-4.739 14.333-3.836 0 .789-1.016 4.287-1.016 4.287z" opacity=".25"/>
    <path fill="url(#h)" d="M340.064 215.274c-.112.338-.225.564-.225.789.225.903-1.016 11.622-.565 12.75.452 1.128.678 4.626.452 6.882-.226 2.257-4.853 3.611-4.853 1.693 0-1.918.564-6.431.79-8.124.226-1.692-1.58-14.216-1.129-15.908.339-1.129 1.467-3.047 2.257-4.175.452-.677.678-1.128.678-1.128.113 1.128 4.627 4.062 4.966 4.062 0-.113-1.806 1.918-2.371 3.159z"/>
    <path fill="#000" d="M363.201 223.961c-2.032-.112-4.289-1.015-5.982-2.595-1.805-1.805-4.966-3.61-7.674-4.851.677.113 1.354.338 2.031.564 3.612 1.241 10.384 2.708 11.964 1.805.225 1.128.338 2.482-.339 5.077zM361.057 230.28c-1.468 3.836-3.725 9.139-7.111 16.359-.112 3.724-1.241 27.417-1.58 32.833 0 .677-.113 1.016-.113 1.128 0 .226-.902.677-1.805.903.225-8.011-.113-25.386 1.241-30.463 1.693-6.206 8.916-19.971 9.368-20.76z" opacity=".25"/>
    <path fill="#000" d="M353.044 217.53c-.565-.113-1.016-.338-1.468-.451-2.934-1.016-6.433-1.354-7.787-1.693-.339-.112-.564-.225-.564-.338 0-.564 1.241-1.692 1.805-2.821.565-1.241 2.596-7.559 2.032-7.221-.564.339-4.176 6.996-4.627 6.996-.113 0-.903-.452-1.693-1.016.113-.113.225-.338.338-.451 2.257-3.272 5.869-7.334 6.433-10.831.452-2.596 1.242-1.129 1.129 2.256-.113 2.934-.226 12.073 4.402 15.57zM363.427 218.884c-.79.451-3.048.226-5.643-.226 4.514-4.513 2.031-16.698 2.708-16.134.79.79 2.822 1.805 2.822 1.805.226 3.272 1.58 13.652.113 14.555z" opacity=".25"/>
    <path fill="#DBB2A1" d="M342.435 212.002s-1.806 2.031-2.483 3.272c0-.226 0-.564-.113-.79-.113-1.354-2.145-4.175-3.16-5.529.451-.677.677-1.128.677-1.128.226 1.128 4.74 4.175 5.079 4.175zM354.285 185.149c-1.129 2.482-4.402 2.708-5.756 2.708-.113-.339-.226-.677-.226-.903 2.258-.113 5.192-.79 5.869-2.031 0 .113 0 .113.113.226zM355.301 191.354a5.541 5.541 0 0 1-.79.339c-1.468.338-2.483 0-3.048-.226l-.225-.677c.113 0 .113.113.225.113 1.806.677 2.822-.226 3.386-1.354-.225.451.226.903.452 1.805z" opacity=".25"/>
    <path stroke="#BAC7DB" stroke-miterlimit="10" stroke-width=".919" d="M370.086 0v230.28"/>
    <path fill="url(#i)" d="M379.792 202.863v.225c-.565 2.821-2.822 3.047-3.273 2.934-.452-.226-1.58-1.467-2.483-5.98 0-.113 0-.226-.113-.226 0 0-2.145-5.415-3.047-8.01-2.483-1.467-2.935-.903-3.273-2.483-.339-1.692.79-3.836 1.354-4.174.564-.339 3.386 2.256 3.724 3.272.339.902 7.562 11.508 7.111 14.442z"/>
    <path fill="#DBB2A1" d="M379.679 202.976c-.565 2.82-2.822 3.046-3.273 2.933-.452-.226-1.58-1.467-2.483-5.98.564 1.241 1.58 2.821 2.596 3.498 1.128.79 2.483.564 3.16-.451z" opacity=".25"/>
    <path fill="#2ED7E7" d="M297.615 348.635l-5.982-30.35c-4.402-22.453-12.866-38.813-25.507-49.193-12.527-10.267-28.102-13.652-46.611-10.042-18.509 3.611-31.601 12.524-39.276 26.74-7.787 14.217-9.367 32.607-4.966 55.06l5.982 30.463c4.401 22.34 12.866 38.7 25.394 49.08 5.304 4.4 11.173 7.446 17.493 9.364 8.69 2.596 18.396 2.821 29.118.677 5.53-1.128 10.609-2.707 15.236-4.738 10.609-4.739 18.623-12.073 24.04-22.002 7.9-14.216 9.48-32.494 5.079-55.059zm-37.132 40.73c-2.031 6.206-6.32 9.929-12.866 11.283-6.771 1.354-12.302-.564-16.59-5.754-2.935-3.498-5.418-8.688-7.449-15.683a136.867 136.867 0 0 1-2.596-10.718l-8.352-42.649c-1.918-11.17-1.918-19.858 0-25.95 1.919-6.093 6.208-9.816 12.866-11.057 5.079-1.016 9.481-.113 13.092 2.595 1.242.902 2.37 2.031 3.499 3.385 4.289 5.302 7.562 13.99 9.932 25.95l8.126 41.294c2.257 11.96 2.483 21.099.338 27.304z"/>
    <path fill="#000" d="M263.531 395.12c1.693 2.595 3.95 20.534 5.191 30.689-4.627 2.03-9.706 3.61-15.236 4.738-10.722 2.144-20.428 1.918-29.118-.677.338-.789.677-1.692 1.016-2.482 5.417-16.585-1.355-46.597-1.693-47.951 2.031 6.882 4.514 12.072 7.448 15.683 4.289 5.19 9.819 7.108 16.591 5.754 6.546-1.241 10.835-5.077 12.866-11.283 2.032-6.205 1.919-15.344-.338-27.304l-8.126-41.295c-2.37-11.959-5.643-20.647-9.932-25.95-1.129-1.354-2.257-2.482-3.499-3.385 13.092 2.595 23.814 43.213 28.215 62.732 4.402 19.406 4.741 28.545-3.385 40.731z" opacity=".25"/>
    <path stroke="#BAC7DB" stroke-miterlimit="10" stroke-width=".919" d="M225.271 0v269.205"/>
    <path fill="#3470D9" d="M158.587 226.953l-39.953-6.883-.113.339-88.145 99.175-1.806 24.822 12.641 2.143 21.895 3.724 29.344 5.077 2.821.451-2.144 12.185-1.016 5.642-3.047 18.955 25.958 4.513 13.882 2.369 6.32-36.556 17.494 3.047 5.304-30.802-17.493-3.046 18.058-105.155zm-49.885 50.885l-8.126 47.387-9.706-1.692-21.33-3.611 11.85-14.103 2.708-3.272 22.46-26.853 3.16-3.61-1.016 5.754z"/>
    <path fill="#000" d="M92.563 355.463l-29.344-5.078c3.499-11.395 7.787-27.191 6.433-30.576l21.33 3.611c1.355 2.256 2.484 5.416 2.71 9.703.45 7.672-.678 15.457-1.13 22.34zM140.529 331.995l17.493 3.046-5.191 30.802-17.607-3.047-6.32 36.669-13.882-2.482 24.491-152.768 19.074-17.262-18.058 105.042z" opacity=".25"/>
    <path stroke="#BAC7DB" stroke-miterlimit="10" stroke-width=".919" d="M128.662 0v238.178"/>
    <path fill="#6C98E3" d="M203.131 183.277c0 3.949-3.273 7.221-7.223 7.221-3.95 0-7.223-3.272-7.223-7.221 0-3.949 3.273-7.221 7.223-7.221 3.95 0 7.223 3.272 7.223 7.221z"/>
    <path fill="#2ED7E7" d="M454.174 274.893c0 3.949-3.273 7.221-7.223 7.221-3.95 0-7.223-3.272-7.223-7.221 0-3.949 3.273-7.221 7.223-7.221 3.95 0 7.223 3.272 7.223 7.221z"/>
    <path fill="#98C4F9" d="M76.993 222.315c0 3.949-3.273 7.221-7.224 7.221-3.95 0-7.223-3.272-7.223-7.221 0-3.949 3.273-7.221 7.223-7.221a7.2 7.2 0 0 1 7.224 7.221z"/>
    <path fill="#6C98E3" d="M195.908 442.779c0 3.949-3.273 7.221-7.223 7.221-3.95 0-7.223-3.272-7.223-7.221 0-3.949 3.273-7.221 7.223-7.221a7.2 7.2 0 0 1 7.223 7.221zM405.604 207.761a2.821 2.821 0 1 0 0-5.642 2.821 2.821 0 0 0 0 5.642z"/>
    <path fill="#98C4F9" d="M193.239 251.086a2.821 2.821 0 1 0 .002-5.642 2.821 2.821 0 0 0-.002 5.642z"/>
    <path fill="#2ED7E7" d="M112.77 210.694a2.794 2.794 0 0 1-2.822 2.821 2.794 2.794 0 0 1-2.822-2.821 2.794 2.794 0 0 1 2.822-2.82 2.794 2.794 0 0 1 2.822 2.82z"/>
    <defs>
        <linearGradient id="a" x1="1.158" x2="54.825" y1="291.428" y2="330.809" gradientUnits="userSpaceOnUse">
            <stop stop-color="#3467C1"/>
            <stop offset="1" stop-color="#80A6E8"/>
        </linearGradient>
        <linearGradient id="b" x1="7.722" x2="31.273" y1="241.305" y2="267.173" gradientUnits="userSpaceOnUse">
            <stop stop-color="#3355AF"/>
            <stop offset="1" stop-color="#192A56"/>
        </linearGradient>
        <linearGradient id="c" x1="25.518" x2="26.535" y1="264.956" y2="255.342" gradientUnits="userSpaceOnUse">
            <stop stop-color="#FFCEBD"/>
            <stop offset="1" stop-color="#FEE1D7"/>
        </linearGradient>
        <linearGradient id="d" x1="32.523" x2="33.26" y1="264.544" y2="258.955" gradientUnits="userSpaceOnUse">
            <stop stop-color="#FFCEBD"/>
            <stop offset="1" stop-color="#FEE1D7"/>
        </linearGradient>
        <linearGradient id="e" x1="28.925" x2="30.747" y1="296.608" y2="277.386" gradientUnits="userSpaceOnUse">
            <stop stop-color="#FFCEBD"/>
            <stop offset="1" stop-color="#FEE1D7"/>
        </linearGradient>
        <linearGradient id="f" x1="351.628" x2="352.406" y1="191.051" y2="184.258" gradientUnits="userSpaceOnUse">
            <stop stop-color="#FFCEBD"/>
            <stop offset="1" stop-color="#FEE1D7"/>
        </linearGradient>
        <linearGradient id="g" x1="353.108" x2="353.726" y1="193.768" y2="189.241" gradientUnits="userSpaceOnUse">
            <stop stop-color="#FFCEBD"/>
            <stop offset="1" stop-color="#FEE1D7"/>
        </linearGradient>
        <linearGradient id="h" x1="338.131" x2="351.241" y1="237.358" y2="210.957" gradientUnits="userSpaceOnUse">
            <stop stop-color="#FFCEBD"/>
            <stop offset="1" stop-color="#FEE1D7"/>
        </linearGradient>
        <linearGradient id="i" x1="373.188" x2="378.028" y1="205.39" y2="183.704" gradientUnits="userSpaceOnUse">
            <stop stop-color="#FFCEBD"/>
            <stop offset="1" stop-color="#FEE1D7"/>
        </linearGradient>
    </defs>
</svg>
