<svg xmlns="http://www.w3.org/2000/svg" width="507" height="320" fill="none" viewBox="0 0 507 320">
    <path fill="#E0EEFF" d="M501.584 228.22c5.462-17.564 6.747-36.306 2.784-54.298-6.104-28.166-25.702-62.222-82.356-77.001C314.81 69.076 277.541-12.423 177.3 13.494c0 0-53.869 9.746-79.25 98.849C72.56 201.446-27.251 202.945 7.126 280.482c5.569 12.637 20.776 26.452 42.41 39.518l406.747-1.392c28.059-33.735 36.84-62.972 45.301-90.388z" opacity=".35"/>
    <path fill="#CAE1FC" d="M405.627 164.605h-15.208v-16.707c0-8.353-5.89-15.421-13.708-17.242v-20.669h-5.569v20.348c-8.996.856-16.064 8.353-16.064 17.563v17.136h-15.315v19.17h-1.071v35.555l-27.63-.214v-42.517h-31.593v31.165H257.3v30.308h-26.774v80.107H450.5V217.51h-44.873v-52.905zM90.66 208.621v-39.839h14.993V147.47h5.569v21.312h13.816v39.839h15.421v23.882h24.632v-81.285h51.406v167.497H71.704V208.621H90.66z"/>
    <path fill="url(#a)" d="M371.356 318.286l-234.109.215a16.044 16.044 0 0 1-16.065-16.065l266.239-.214c0 8.889-7.176 16.064-16.065 16.064z"/>
    <path fill="#0047AB" d="M371.356 312.718l-234.109.214a16.077 16.077 0 0 1-15.101-10.496h-.964a16.044 16.044 0 0 0 16.065 16.065l234.109-.215c8.889 0 16.065-7.175 16.065-16.064h-.964a16.078 16.078 0 0 1-15.101 10.496z"/>
    <path fill="#0047AB" d="M269.402 307.684h-30.201c-2.999 0-5.355-2.356-5.355-5.355h41.018c-.107 2.892-2.464 5.355-5.462 5.355z"/>
    <path fill="url(#b)" d="M373.712 302.222l-238.822.214-.107-144.15c0-8.246 6.64-14.993 14.994-14.993l208.942-.214c8.246 0 14.993 6.64 14.993 14.993v144.15z"/>
    <path fill="#fff" d="M361.182 155.609H147.206v134.19h213.976v-134.19z" opacity=".1"/>
    <path fill="#005AB3" d="M361.289 277.055H147.313v12.851h213.976v-12.851z"/>
    <path fill="#CAE1FC" d="M361.182 155.609H147.206v134.297h213.976V155.609z"/>
    <path fill="#fff" d="M218.532 155.609l-71.326 71.432.107 62.865h.108l134.19-134.297h-63.079zM174.944 289.906h31.593L340.62 155.502l-31.593.107-134.083 134.297zM336.122 289.799l25.167-25.167-.107-47.657-75.502 72.824h50.442z" opacity=".16"/>
    <path fill="#3470D9" d="M205.103 215.24a33.147 33.147 0 0 1 3.248-.491 32.176 32.176 0 0 1 3.058-.151c2.87 0 5.4.441 7.59 1.322 2.216.856 4.066 2.039 5.551 3.549a14.611 14.611 0 0 1 3.399 5.325c.755 2.039 1.133 4.229 1.133 6.57 0 2.92-.516 5.589-1.549 8.006-1.032 2.391-2.467 4.455-4.304 6.192-1.813 1.712-3.99 3.046-6.533 4.003-2.518.957-5.274 1.435-8.27 1.435-1.737 0-3.398-.189-4.984-.566a24.33 24.33 0 0 1-4.456-1.435 26.653 26.653 0 0 1-3.814-2.153 25.362 25.362 0 0 1-3.172-2.53l3.21-4.38c.679-.931 1.561-1.397 2.643-1.397.68 0 1.347.201 2.001.604.655.403 1.398.856 2.228 1.359.831.479 1.8.919 2.908 1.322 1.108.403 2.454.604 4.04.604 1.637 0 3.059-.264 4.267-.793 1.209-.554 2.203-1.296 2.984-2.228.805-.956 1.397-2.077 1.774-3.36.403-1.31.604-2.707.604-4.192 0-2.845-.818-5.035-2.454-6.57-1.611-1.561-3.965-2.342-7.061-2.342-2.543 0-5.098.479-7.666 1.435l-6.457-1.812 4.607-26.962h27.49v4.381c0 .73-.113 1.397-.34 2.001-.201.579-.554 1.095-1.057 1.548-.478.428-1.108.768-1.888 1.02-.755.226-1.687.339-2.795.339h-14.16l-1.775 10.347zM275.043 222.981c0 4.783-.516 8.937-1.548 12.461-1.032 3.525-2.455 6.445-4.267 8.761-1.813 2.291-3.965 4.003-6.457 5.136-2.467 1.107-5.136 1.661-8.006 1.661s-5.538-.554-8.005-1.661c-2.467-1.133-4.594-2.845-6.382-5.136-1.787-2.316-3.197-5.236-4.229-8.761-1.007-3.524-1.511-7.678-1.511-12.461s.504-8.924 1.511-12.423c1.032-3.525 2.442-6.432 4.229-8.723 1.788-2.316 3.915-4.028 6.382-5.136 2.467-1.133 5.135-1.699 8.005-1.699 2.87 0 5.539.566 8.006 1.699 2.492 1.108 4.644 2.82 6.457 5.136 1.812 2.291 3.235 5.198 4.267 8.723 1.032 3.499 1.548 7.64 1.548 12.423zm-10.762 0c0-3.877-.277-7.074-.831-9.591-.528-2.518-1.233-4.506-2.114-5.967-.881-1.46-1.901-2.479-3.059-3.058-1.133-.579-2.303-.869-3.512-.869-1.208 0-2.379.29-3.512.869-1.107.579-2.102 1.598-2.983 3.058-.856 1.461-1.548 3.449-2.077 5.967-.528 2.517-.793 5.714-.793 9.591 0 3.902.265 7.112.793 9.629.529 2.518 1.221 4.506 2.077 5.967.881 1.46 1.876 2.479 2.983 3.058 1.133.579 2.304.869 3.512.869 1.209 0 2.379-.29 3.512-.869 1.158-.579 2.178-1.598 3.059-3.058.881-1.461 1.586-3.449 2.114-5.967.554-2.517.831-5.727.831-9.629zM313.716 240.842c1.133 0 2.014.315 2.644.944.654.63.982 1.46.982 2.493v6.117h-37.988v-3.399c0-.654.138-1.359.415-2.114.277-.781.743-1.486 1.397-2.115l16.238-16.275a62.666 62.666 0 0 0 3.662-3.965c1.058-1.284 1.939-2.53 2.644-3.738a16.527 16.527 0 0 0 1.586-3.739 14.65 14.65 0 0 0 .528-3.965c0-2.442-.629-4.292-1.888-5.551-1.258-1.283-3.033-1.925-5.324-1.925-1.007 0-1.938.151-2.794.453a8.077 8.077 0 0 0-2.266 1.17 8.11 8.11 0 0 0-1.699 1.775 7.252 7.252 0 0 0-1.058 2.228c-.453 1.259-1.07 2.102-1.85 2.53-.755.403-1.838.491-3.247.264l-5.514-.981c.403-2.669 1.158-5.01 2.266-7.024 1.108-2.014 2.492-3.688 4.154-5.022 1.661-1.335 3.562-2.329 5.702-2.983 2.14-.68 4.443-1.02 6.91-1.02 2.593 0 4.947.39 7.062 1.171 2.139.755 3.964 1.825 5.475 3.209 1.51 1.36 2.681 3.009 3.512 4.947.83 1.938 1.246 4.078 1.246 6.419 0 2.014-.29 3.877-.869 5.589a22.077 22.077 0 0 1-2.379 4.909 34.824 34.824 0 0 1-3.436 4.494 131.96 131.96 0 0 1-4.154 4.418l-11.63 11.895a30.565 30.565 0 0 1 3.814-.869 20.135 20.135 0 0 1 3.549-.34h12.31z"/>
    <path fill="#2A2727" d="M115.506 167.39l-4.712.214-2.784-.857c-1.286-.428-2.678.107-3.32 1.178l-.322.536 13.708 7.496 2.678-5.676-5.248-2.891z"/>
    <path fill="#2A2727" d="M118.077 176.064l-13.816-7.603.429-.857c.107-.214.321-.214.535-.107l13.494 7.389-.642 1.178z"/>
    <path fill="#FFCFBE" d="M120.754 170.281l3.641-6.211-3.641-6.426-5.248 9.746 5.248 2.891z"/>
    <path fill="#2A2727" d="M149.027 134.404s-19.491-5.569-21.312-.321c-1.821 5.248-13.28 28.487-13.28 28.487l8.461 4.391L135.64 144.9l17.135-1.5-3.748-8.996zM133.177 174.458l-3.856 2.463-2.784.535c-1.285.215-2.249 1.393-2.356 2.678v.642h15.636l-.429-6.211-6.211-.107z"/>
    <path fill="#2A2727" d="M139.817 180.884h-15.743v-.964c0-.214.107-.322.321-.322h15.422v1.286z"/>
    <path fill="#FFCFBE" d="M139.281 174.458l.536-10.388-6.212-.75-.428 11.138h6.104z"/>
    <path fill="#1F191A" d="M151.597 133.44l-18.313.857s-2.677.107-2.463 6.319c.214 6.211.107 31.057.107 31.057l8.782.322 1.713-26.024 18.313-.215c3.856 0 7.497-2.249 8.996-5.783.536-1.392.857-2.891.536-4.498l-17.671-2.035z"/>
    <path fill="#E1AD9D" d="M134.248 129.799c0 1.714-1.178 2.035-2.892 2.035-1.713 0-3.427-.214-3.427-2.035a3.108 3.108 0 0 1 3.106-3.106c1.821-.107 3.213 1.393 3.213 3.106z"/>
    <path fill="#E1AD9D" d="M136.497 131.513h-3.641c-.964 0-1.714-.75-1.714-1.714s.75-1.713 1.714-1.713h3.641a1.69 1.69 0 0 1 1.713 1.713c0 .964-.856 1.714-1.713 1.714z"/>
    <path fill="#0047AB" d="M136.283 131.941l-1.178-5.997 14.993-1.607 2.999-17.456c.321-1.607 2.57-3.534 4.176-3.213l-.428-.107c1.606.321 2.999 2.142 2.784 3.748l-2.891 20.884c-.214 1.178-1.071 2.035-2.142 2.249l-18.313 1.499z"/>
    <path fill="url(#c)" d="M166.269 103.989c.322 0 .643.107.857.214l.107.108c2.57.963 4.284 3.748 4.391 6.318l-2.356 24.846c-15.529-.107-17.671-1.927-17.671-1.927l1.285-25.382c.215-2.356 1.286-4.605 3.963-4.926l9.424.749z"/>
    <path fill="#FFCFBE" d="M149.134 131.727c.107 1.713-1.071 2.035-2.784 2.249-1.714.107-3.427 0-3.535-1.714-.107-1.713 1.178-3.212 2.892-3.32 1.821-.214 3.32 1.071 3.427 2.785z"/>
    <path fill="#FFCFBE" d="M151.49 133.333l-3.641.215c-.964.107-1.821-.643-1.821-1.607-.107-.964.643-1.82 1.607-1.82l3.641-.215c.964-.107 1.821.643 1.821 1.607s-.643 1.82-1.607 1.82z"/>
    <path fill="url(#d)" d="M151.383 133.762l-1.606-5.89 16.278-2.571-.964-15.207c.214-1.607 1.928-3.427 3.534-3.213 1.607.214 3.213 1.928 2.999 3.534l1.178 18.206c-.107 1.178-.964 2.142-2.035 2.463l-19.384 2.678z"/>
    <path fill="#091218" d="M123.11 113.521l17.778 1.713c.535.107 1.071.536 1.071 1.071l1.82 16.065a1.245 1.245 0 0 1-1.392 1.392l-18.099-1.714c-.643-.107-1.071-.535-1.071-1.071l-1.606-16.064c.107-.75.749-1.392 1.499-1.392z"/>
    <path fill="#1B2934" d="M122.039 113.521l17.778 1.713c.535.107 1.071.536 1.071 1.071l1.82 16.065a1.245 1.245 0 0 1-1.392 1.392l-18.099-1.714c-.643-.107-1.071-.535-1.071-1.071l-1.606-16.064c.107-.857.749-1.499 1.499-1.392z"/>
    <path fill="#091218" d="M143.458 132.477l12.209 1.178c.321 0 .642.321.642.749 0 .322-.321.643-.749.643l-12.852-1.178.75-1.392z"/>
    <path fill="#fff" d="M132.32 123.159c-.107 1.071-1.071 1.821-2.142 1.714-1.071-.107-1.82-1.071-1.713-2.142.107-1.071 1.071-1.821 2.142-1.714.963.215 1.82 1.071 1.713 2.142z"/>
    <path fill="#0047AB" d="M164.556 113.521l.428 11.459-15.207 2.892 13.387-4.177 1.392-10.174z"/>
    <path fill="#FFCFBE" d="M156.524 102.49l1.071 2.785c.321.963 1.285 1.713 2.356 1.713 2.034.107 3.427-1.928 2.677-3.748l-1.821-4.177-4.283 3.427z"/>
    <path fill="#F5B2A3" d="M157.38 104.846s5.034-.964 4.284-5.355c-.749-4.39-5.462-.964-5.462-.964l.429 4.391.749 1.928z"/>
    <path fill="#FFCFBE" d="M149.67 91.78c-1.821 3.963-.108 8.568 3.748 10.496 3.962 1.82 8.567.107 10.495-3.748 1.821-3.963.107-8.568-3.748-10.496a7.78 7.78 0 0 0-10.495 3.749z"/>
    <path fill="#1F191A" d="M159.736 96.6s-1.285 6.318 3.428 6.425c4.605.108 1.336-11.525 1.336-11.525l-6.477-7.644L150 86.5l-2.151 7.422s2.249-1.07 11.887-2.677V96.6z"/>
    <path fill="#1F191A" d="M155.131 91.673l3.642 5.462 3.212-3.534-6.854-1.928z"/>
    <path fill="#FFCFBE" d="M158.451 95.207c-.535 1.072 0 2.464 1.071 3 1.071.535 2.463 0 2.999-1.072.535-1.07 0-2.463-1.071-2.998-1.178-.536-2.463-.108-2.999 1.07z"/>
    <path fill="#FC0" d="M148.17 93.815s-1.713-6.211 2.356-10.067c3.32-3.212 8.782-2.998 11.674.536 1.392 1.606 2.463 4.177 2.57 7.818l-16.6 1.713z"/>
    <path stroke="#F1AB00" stroke-miterlimit="10" stroke-width=".28" d="M149.027 93.708v-3.855c0-.964.75-1.82 1.713-1.82.964 0 1.821.642 1.928 1.606l.429 3.855"/>
    <path stroke="#fff" stroke-linecap="round" stroke-linejoin="round" stroke-miterlimit="10" stroke-width="1.121" d="M164.77 92.209l-18.099 1.713"/>
    <path fill="#FFCFBE" d="M393.076 301.365l4.07 3.856-4.605 2.463-3.963-3.855 4.498-2.464z"/>
    <path fill="#2A2727" d="M364.589 272.021l2.677 11.995c.536 2.356 1.607 4.712 3.106 6.854l17.778 15.957 7.068-5.783-15.207-16.064-5.569-21.205-9.853 8.246zM392.434 307.577l-1.5 4.605-1.713 2.356c-.75 1.071-.75 2.463.107 3.534l.428.536 11.352-10.603-4.498-4.284-4.176 3.856z"/>
    <path fill="#2A2727" d="M401.216 308.112l-11.46 10.603-.963-.964 11.459-10.71.964 1.071z"/>
    <path fill="#FFCFBE" d="M354.201 308.648l-1.5 5.033-5.247-1.392 1.499-5.033 5.248 1.392z"/>
    <path fill="#1F191A" d="M361.162 258.742l-14.565 49.37 9.21 2.249 8.247-24.739 10.066-16.171c.536-.75.964-1.499 1.393-2.249.857-1.499 1.178-3.106 1.178-4.712v-3.213l-15.529-.535z"/>
    <path fill="#2A2727" d="M347.775 311.754l-4.605 1.713-2.892.107c-1.285 0-2.463.964-2.784 2.249l-.107.643 15.422 2.57.642-6.211-5.676-1.071z"/>
    <path fill="#2A2727" d="M352.809 319.036l-15.529-2.463.214-1.392 15.529 2.57-.214 1.285z"/>
    <path fill="#383535" d="M340.814 208.621l-5.89 9.103 2.784 2.035 6.105-9.746-2.999-1.392z"/>
    <path fill="#1F191A" d="M333.103 193.307s2.677 11.459 16.493 15.957c.428.107.749.428.749.856.215 1.286.215 4.177-2.891 5.034-.321.107-.643 0-.857-.107-2.142-1.285-12.53-7.39-22.597-5.676l9.103-16.064z"/>
    <path fill="#383535" d="M333.103 193.306s-2.57 11.353-8.996 16.065c0 0 .857-10.067 8.996-16.065z"/>
    <path fill="#FFCFBE" d="M332.996 217.189c-.428 2.142 1.285 4.605 3.427 5.033 2.142.429 4.177-.964 4.605-2.999.429-2.141-1.285-4.605-3.427-5.033-2.142-.428-4.177.857-4.605 2.999z"/>
    <path fill="#FFCFBE" d="M344.027 223.293l-4.07-4.284-2.677 3.32 6.747 4.927"/>
    <path fill="#E4E4E4" d="M343.384 219.331l-4.284 6.425 11.781 10.817c.75.214 1.499.321 2.249.214l15.636-2.035c2.463-.107 4.391-2.249 4.284-4.712-.108-2.463.321-5.997-2.142-5.89l-18.099 3.748-9.425-8.567z"/>
    <path fill="#fff" d="M378.404 234.11c.429-3.427-1.178-6.747-4.069-8.675-1.285-.857-2.571-1.392-3.534-1.285-3.106.535-6.319 1.928-7.711 6.104-2.356 7.176-2.999 28.273-2.999 28.273l16.707.536 1.606-24.953z"/>
    <path fill="#D2D2D2" d="M372.193 234.645l5.033 18.528 1.071-15.743-6.104-2.785z"/>
    <path fill="#FFCFBE" d="M392.755 271.165c1.606-1.393 1.714-4.498.214-6.105-1.392-1.606-3.855-1.713-5.462-.214-1.606 1.392-1.713 4.498-.214 6.104 1.392 1.5 3.856 1.607 5.462.215z"/>
    <path fill="#FFCFBE" d="M385.151 257.992l3.106 7.497 4.07-1.071-2.571-8.033"/>
    <path fill="#E4E4E4" d="M385.365 263.775l8.354-1.821-5.676-19.491c-.214-.75-.536-1.392-.964-2.035l-10.388-12.958c-1.392-2.035-3.749-1.607-5.783-.214-2.035 1.392-2.464 4.176-1.071 6.211l10.067 12.102 5.461 18.206z"/>
    <path fill="#FFCFBE" d="M366.945 221.687l.321 2.891c.108 1.071.857 1.928 1.821 2.249a2.703 2.703 0 0 0 3.534-2.998l-.749-4.605-4.927 2.463z"/>
    <path fill="#F5B2A3" d="M367.266 224.364s5.141-.214 5.569-4.605c.322-4.498-5.14-1.821-5.14-1.821l-.643 4.391.214 2.035z"/>
    <path fill="#FFCFBE" d="M362.379 209.676c-2.785 3.427-2.249 8.461 1.071 11.245 3.427 2.785 8.46 2.249 11.245-1.071 2.784-3.427 2.249-8.46-1.071-11.245-3.427-2.784-8.461-2.249-11.245 1.071z"/>
    <path fill="#1F191A" d="M371.053 217.066s-2.784 5.89 1.714 7.175c4.498 1.285 5.033-11.031 5.033-11.031l-5.354-9.103h-7.423l-3.5 6.893s-.001 1.782 9.852 2.639l-.322 3.427z"/>
    <path fill="#1F191A" d="M367.841 211.068l2.249 6.212 3.962-2.678-6.211-3.534z"/>
    <path fill="#FFCFBE" d="M370.197 215.245c-.75.964-.643 2.356.321 3.213.964.75 2.356.642 3.213-.321.749-.964.642-2.356-.322-3.213-.963-.75-2.463-.643-3.212.321z"/>
    <path fill="#FC0" d="M360.841 211.834s-.429-6.533 4.391-9.424c3.962-2.464 9.21-1.071 11.459 2.998 1.071 1.928 1.606 4.605.964 8.354l-16.814-1.928z"/>
    <path stroke="#F1AB00" stroke-miterlimit="10" stroke-width=".283" d="M361.697 211.834l.75-3.855c.214-.964 1.071-1.607 2.142-1.5.964.107 1.606 1.071 1.499 2.035l-.428 3.855"/>
    <path stroke="#fff" stroke-linecap="round" stroke-linejoin="round" stroke-miterlimit="10" stroke-width="1.133" d="M377.655 213.655l-18.207-2.035"/>
    <path fill="#0047AB" d="M423.806 259.831l-18.84 18.567 1.955 1.983 18.839-18.567-1.954-1.983zM423.845 240.004l-18.839 18.567 1.954 1.983 18.84-18.567-1.955-1.983zM423.809 220.1l-18.839 18.567 1.954 1.983 18.84-18.567-1.955-1.983zM423.849 200.272l-18.84 18.567 1.955 1.983 18.839-18.567-1.954-1.983zM423.813 180.368l-18.839 18.567 1.954 1.983 18.839-18.567-1.954-1.983zM423.853 160.541l-18.84 18.567 1.954 1.983 18.84-18.567-1.954-1.983zM423.816 140.637l-18.839 18.567 1.954 1.983 18.84-18.567-1.955-1.983zM423.856 120.81l-18.84 18.567 1.955 1.983 18.839-18.567-1.954-1.983zM423.82 100.906l-18.84 18.567 1.955 1.983 18.839-18.567-1.954-1.983zM423.859 81.078L405.02 99.645l1.954 1.983 18.84-18.567-1.955-1.983zM423.823 61.174l-18.839 18.567 1.954 1.984 18.84-18.567-1.955-1.984z"/>
    <path fill="#0047AB" d="M424.797 258.099h-18.849v2.785h18.849v-2.785zM424.797 238.287h-18.849v2.784h18.849v-2.784zM424.797 218.367h-18.849v2.784h18.849v-2.784zM424.797 198.554h-18.849v2.785h18.849v-2.785zM424.797 178.635h-18.849v2.784h18.849v-2.784zM424.797 158.822h-18.849v2.785h18.849v-2.785zM424.797 138.902h-18.849v2.785h18.849v-2.785zM424.797 119.09h-18.849v2.784h18.849v-2.784zM424.797 99.17h-18.849v2.785h18.849V99.17zM424.797 79.358h-18.849v2.784h18.849v-2.784z"/>
    <path fill="url(#e)" d="M407.34 65.328h-2.784v219.438h2.784V65.328z"/>
    <path fill="url(#f)" d="M426.189 65.328h-2.784v219.438h2.784V65.328z"/>
    <path fill="#0047AB" d="M433.9 279.411h-37.591v38.983H433.9v-38.983zM426.617 65.328h-22.918a4.571 4.571 0 0 1-4.605-4.605V32.77a4.571 4.571 0 0 1 4.605-4.605h22.918a4.57 4.57 0 0 1 4.605 4.605v27.952c0 2.57-2.141 4.605-4.605 4.605z"/>
    <path fill="url(#g)" d="M415.801 54.511h-13.923V37.162h13.923c1.927 0 3.534 1.606 3.534 3.534v10.388c0 1.928-1.607 3.427-3.534 3.427z"/>
    <path fill="#0047AB" d="M282.655 66.954l-2.228.767 15.094 43.844 2.228-.766-15.094-43.845zM270.134 61.472l-29.444 39.765 1.893 1.402 29.445-39.765-1.894-1.402z"/>
    <path fill="#FC0" d="M278.291 79.572l33.628 43.909c2.463 3.212 1.82 7.818-1.393 10.281l-43.909 33.628c-3.213 2.463-7.818 1.82-10.281-1.393l-33.628-43.909c-2.463-3.213-1.82-7.818 1.393-10.281l43.909-33.628c3.212-2.463 7.818-1.82 10.281 1.393z"/>
    <path fill="#1F191A" d="M263.083 161.071c-2.035 0-3.962-.857-5.247-2.57l-27.524-35.984c-1.071-1.393-1.499-3.106-1.285-4.82.214-1.713 1.178-3.319 2.57-4.39l35.984-27.524c2.892-2.249 7.068-1.606 9.21 1.178l27.524 35.984c1.071 1.392 1.499 3.106 1.285 4.819-.214 1.714-1.178 3.32-2.57 4.391l-35.984 27.524c-1.178.964-2.571 1.392-3.963 1.392zm8.461-75.395c-1.178 0-2.249.321-3.32 1.071L232.24 114.27c-1.178.857-1.928 2.142-2.035 3.535-.107 1.392.214 2.891 1.071 3.962l27.523 35.984c.857 1.178 2.142 1.928 3.535 2.035 1.392.214 2.891-.214 3.962-1.071l35.984-27.524c1.178-.856 1.928-2.141 2.035-3.534.107-1.392-.214-2.891-1.071-3.962L275.72 87.711c-.963-1.285-2.57-2.035-4.176-2.035z"/>
    <path fill="#1F191A" d="M269.83 137.617c-.749 5.89-9.745 4.712-8.996-1.178.857-5.997 9.853-4.712 8.996 1.178zm3.856-32.985l-3.535 24.846-7.496-.964c1.071-8.353 2.035-16.493 3.106-24.846l7.925.964z"/>
    <path fill="#0047AB" d="M277.22 71.111c6.979 0 12.637-5.658 12.637-12.637 0-6.98-5.658-12.637-12.637-12.637-6.98 0-12.637 5.658-12.637 12.637 0 6.98 5.657 12.637 12.637 12.637z"/>
    <path fill="url(#h)" d="M286.216 58.474a8.867 8.867 0 0 1-8.889 8.889 8.867 8.867 0 0 1-8.889-8.89 8.867 8.867 0 0 1 8.889-8.888c4.819 0 8.889 3.962 8.889 8.889z"/>
    <path fill="#0047AB" d="M328.09 1.5h-2.785v26.773h2.785V1.5zM304.101 1.5h-2.785v26.773h2.785V1.5zM351.972 1.5h-2.784v26.773h2.784V1.5zM378.532 1.5h-2.785v26.773h2.785V1.5zM403.271 1.5h-2.785v26.773h2.785V1.5zM428.973 1.5h-2.784v26.773h2.784V1.5zM454.248 1.5h-2.785v26.773h2.785V1.5z"/>
    <path fill="#0047AB" d="M325.668.47l-25.21 26.716 2.025 1.91 25.21-26.716-2.025-1.91zM350.852.509l-25.211 26.716 2.026 1.911 25.21-26.716-2.025-1.911zM376.109.47l-25.21 26.717 2.025 1.911 25.21-26.716L376.109.47zM401.292.51l-25.21 26.717 2.025 1.911 25.211-26.716L401.292.51zM426.55.473l-25.211 26.716 2.026 1.91 25.21-26.715L426.55.473zM451.807.434l-25.21 26.717 2.025 1.91 25.21-26.716-2.025-1.91z"/>
    <path fill="url(#i)" d="M482.949 29.558H277.327c-.536 0-1.071-.321-1.285-.75-.215-.535-.214-1.07.214-1.499L297.568.535c.321-.32.642-.535 1.071-.535h156.68c.321 0 .749.107.964.428l27.737 26.774c.429.428.536.964.322 1.5-.322.535-.857.856-1.393.856zm-202.731-2.784h199.197L454.676 2.892H299.174l-18.956 23.882z"/>
    <path fill="url(#j)" d="M277.22 59.866c-.75 0-1.393-.642-1.393-1.392V28.166c0-.75.643-1.392 1.393-1.392.749 0 1.392.642 1.392 1.392v30.308c.107.75-.535 1.392-1.392 1.392z"/>
    <path fill="#FC0" d="M155.57 316.527l14.351-37.162c.643-1.82 3.213-1.82 3.855 0l14.351 37.162H155.57z"/>
    <path fill="#FAFAFA" d="M176.838 287.29h-9.985l-3.07 7.926h16.113l-3.058-7.926zM182.552 302.284h-21.5l-3 7.925h27.5l-3-7.925z"/>
    <path fill="#E8C400" d="M191.126 316.527H153v3.106h38.126v-3.106z"/>
    <path fill="#FC0" d="M374.57 316.527l14.351-37.162c.643-1.82 3.213-1.82 3.855 0l14.351 37.162H374.57z"/>
    <path fill="#FAFAFA" d="M395.838 287.29h-9.985l-3.07 7.926h16.113l-3.058-7.926zM401.552 302.284h-21.5l-3 7.925h27.5l-3-7.925z"/>
    <path fill="#E8C400" d="M410.126 316.527H372v3.106h38.126v-3.106z"/>
    <defs>
        <linearGradient id="a" x1="288.549" x2="217.884" y1="245.127" y2="367.522" gradientUnits="userSpaceOnUse">
            <stop stop-color="#0B40A6"/>
            <stop offset="1" stop-color="#5299E6"/>
        </linearGradient>
        <linearGradient id="b" x1="134.747" x2="373.713" y1="222.745" y2="222.745" gradientUnits="userSpaceOnUse">
            <stop stop-color="#0B40A6"/>
            <stop offset="1" stop-color="#5299E6"/>
        </linearGradient>
        <linearGradient id="c" x1="151.64" x2="171.702" y1="119.301" y2="119.301" gradientUnits="userSpaceOnUse">
            <stop stop-color="#0B40A6"/>
            <stop offset="1" stop-color="#5299E6"/>
        </linearGradient>
        <linearGradient id="d" x1="149.737" x2="172.861" y1="120.284" y2="120.284" gradientUnits="userSpaceOnUse">
            <stop stop-color="#0B40A6"/>
            <stop offset="1" stop-color="#5299E6"/>
        </linearGradient>
        <linearGradient id="e" x1="404.58" x2="407.416" y1="175.084" y2="175.084" gradientUnits="userSpaceOnUse">
            <stop stop-color="#0B40A6"/>
            <stop offset="1" stop-color="#5299E6"/>
        </linearGradient>
        <linearGradient id="f" x1="423.44" x2="426.276" y1="175.084" y2="175.084" gradientUnits="userSpaceOnUse">
            <stop stop-color="#0B40A6"/>
            <stop offset="1" stop-color="#5299E6"/>
        </linearGradient>
        <linearGradient id="g" x1="401.94" x2="419.327" y1="45.837" y2="45.837" gradientUnits="userSpaceOnUse">
            <stop stop-color="#0B40A6"/>
            <stop offset="1" stop-color="#5299E6"/>
        </linearGradient>
        <linearGradient id="h" x1="268.351" x2="286.187" y1="58.455" y2="58.455" gradientUnits="userSpaceOnUse">
            <stop stop-color="#0B40A6"/>
            <stop offset="1" stop-color="#5299E6"/>
        </linearGradient>
        <linearGradient id="i" x1="275.85" x2="484.334" y1="14.815" y2="14.815" gradientUnits="userSpaceOnUse">
            <stop stop-color="#0B40A6"/>
            <stop offset="1" stop-color="#5299E6"/>
        </linearGradient>
        <linearGradient id="j" x1="275.85" x2="278.687" y1="43.318" y2="43.318" gradientUnits="userSpaceOnUse">
            <stop stop-color="#0B40A6"/>
            <stop offset="1" stop-color="#5299E6"/>
        </linearGradient>
    </defs>
</svg>
