<svg width="16" height="12" viewBox="0 0 16 12" fill="none" xmlns="http://www.w3.org/2000/svg">
<g id="check">
<path id="Path" fill-rule="evenodd" clip-rule="evenodd" d="M13.9074 1.00575C13.7891 1.02309 13.6783 1.08161 13.5949 1.17047C10.8157 4.02939 8.28368 6.85667 5.54457 9.69284L1.87854 6.68439C1.76662 6.59227 1.62406 6.55001 1.4815 6.56626C1.33895 6.58252 1.20802 6.65621 1.11825 6.77109C0.932409 7.01058 0.969366 7.35954 1.20272 7.55136L5.25747 10.8805C5.47288 11.055 5.78226 11.0366 5.97548 10.8372C8.86976 7.86034 11.4832 4.91349 14.3553 1.95941C14.5274 1.7936 14.5749 1.53242 14.4725 1.31461C14.3701 1.0957 14.142 0.97107 13.9076 1.00575H13.9074Z" fill="black" stroke="black"/>
</g>
</svg>
