<svg xmlns="http://www.w3.org/2000/svg" width="309" height="172" fill="none" viewBox="0 0 309 172">
    <rect width="308" height="171" x=".5" y=".5" fill="#fff" stroke="#DDE0E6" rx="7.5"/>
    <path stroke="#DDE0E6" d="M120 119.5h189"/>
    <path fill="#F3F7FE" stroke="#DDE0E6" d="M.5 8A7.5 7.5 0 0 1 8 .5h111.5v171H8A7.5 7.5 0 0 1 .5 164V8z"/>
    <path fill="#0458BD" d="M68.643 50.178L58.728 65.99h9.048c.603.004 1.091.49 1.098 1.087v15.296c.633-.05 1.265-.085 1.908-.085 4.954 0 9.536 1.476 13.269 3.974h7.168L68.643 50.178zM28 68.162v35.54h38.648v-35.54H28zM70.782 84.43c-.647 0-1.28.033-1.908.086v20.271a1.106 1.106 0 0 1-1.098 1.087H50.634C52.033 114.995 60.502 122 70.782 122c11.263 0 20.379-8.396 20.379-18.785 0-10.39-9.117-18.785-20.379-18.785z"/>
    <path fill="#76A9E7" d="M68.497 50L58.58 65.81h9.048c.604.004 1.091.49 1.099 1.087v15.297c.632-.05 1.264-.086 1.908-.086 4.954 0 9.536 1.477 13.268 3.975h7.169L68.497 50z"/>
    <path fill="#2B78D0" d="M70.782 84.43c-.647 0-1.279.033-1.908.087v20.271a1.106 1.106 0 0 1-1.098 1.086H50.635C52.033 114.995 60.502 122 70.781 122c11.263 0 20.38-8.395 20.38-18.785 0-10.389-9.117-18.784-20.38-18.784z"/>
    <rect width="80" height="14" x="144" y="27" fill="#E5E8ED" rx="1"/>
    <rect width="57" height="14" x="144" y="80" fill="#E5E8ED" rx="1"/>
    <rect width="57" height="14" x="212" y="80" fill="#E5E8ED" rx="1"/>
    <rect width="125" height="14" x="144" y="51" fill="#E5E8ED" rx="1"/>
    <rect width="57" height="14" x="144" y="138" fill="#E5E8ED" rx="1"/>
    <rect width="69" height="24" x="216" y="133" fill="#26C6DA" rx="1"/>
</svg>
