<svg xmlns="http://www.w3.org/2000/svg" width="309" height="172" fill="none" viewBox="0 0 309 172">
    <rect width="308" height="171" x=".5" y=".5" fill="#fff" stroke="#DDE0E6" rx="7.5"/>
    <path fill="#F3F7FE" stroke="#DDE0E6" d="M.5 8A7.5 7.5 0 0 1 8 .5h120.5v119H.5V8z"/>
    <path fill="#0458BD" d="M73.643 24.178L63.728 39.99h9.048c.603.004 1.091.49 1.098 1.087v15.296c.633-.05 1.265-.086 1.908-.086 4.954 0 9.536 1.477 13.269 3.975h7.168L73.643 24.178zM33 42.162v35.54h38.648v-35.54H33zM75.782 58.43c-.647 0-1.28.033-1.908.086v20.271a1.106 1.106 0 0 1-1.098 1.087H55.634C57.033 88.994 65.502 96 75.782 96c11.263 0 20.379-8.396 20.379-18.785 0-10.39-9.117-18.785-20.379-18.785z"/>
    <path fill="#76A9E7" d="M73.497 24L63.58 39.81h9.048c.604.005 1.091.49 1.099 1.087v15.297c.632-.05 1.264-.086 1.908-.086 4.954 0 9.536 1.477 13.268 3.975h7.169L73.497 24z"/>
    <path fill="#2B78D0" d="M75.782 58.43c-.647 0-1.279.033-1.908.087v20.27a1.106 1.106 0 0 1-1.098 1.087H55.635C57.033 88.995 65.502 96 75.781 96c11.263 0 20.38-8.395 20.38-18.784 0-10.39-9.117-18.785-20.38-18.785z"/>
    <path stroke="#DDE0E6" d="M129 119.5h180"/>
    <rect width="80" height="14" x="153" y="27" fill="#E5E8ED" rx="1"/>
    <rect width="57" height="14" x="153" y="80" fill="#E5E8ED" rx="1"/>
    <rect width="57" height="14" x="221" y="80" fill="#E5E8ED" rx="1"/>
    <rect width="125" height="14" x="153" y="51" fill="#E5E8ED" rx="1"/>
    <rect width="125" height="14" x="24" y="139" fill="#E5E8ED" rx="1"/>
    <rect width="90" height="24" x="195" y="134" fill="#26C6DA" rx="1"/>
</svg>
