<svg xmlns="http://www.w3.org/2000/svg" width="309" height="190" fill="none" viewBox="0 0 309 190">
    <rect width="308" height="189" x=".5" y=".5" fill="#fff" stroke="#DDE0E6" rx="7.5"/>
    <rect width="108" height="157" x="166.5" y="16.5" fill="#fff" stroke="#DDE0E6" rx="5.5"/>
    <path fill="#F3F7FE" stroke="#DDE0E6" d="M.5 8A7.5 7.5 0 0 1 8 .5h123.5v189H8A7.5 7.5 0 0 1 .5 182V8z"/>
    <path stroke="#DDE0E6" d="M0 143.5h132"/>
    <path fill="#0458BD" d="M74.127 16.158l-8.813 14.054h8.042c.537.004.97.436.977.966v13.597a21.41 21.41 0 0 1 1.696-.076c4.403 0 8.476 1.312 11.794 3.533h6.372L74.127 16.158zM38 32.144v31.59h34.354v-31.59H38zm38.028 14.46c-.575 0-1.137.03-1.695.077V64.7a.983.983 0 0 1-.977.966H58.12C59.362 73.773 66.891 80 76.03 80c10.011 0 18.114-7.463 18.114-16.698 0-9.234-8.103-16.697-18.115-16.697z"/>
    <path fill="#76A9E7" d="M73.997 16l-8.813 14.054h8.042c.536.003.97.435.977.966v13.597a21.405 21.405 0 0 1 1.695-.076c4.404 0 8.477 1.312 11.794 3.533h6.373L73.997 16z"/>
    <path fill="#2B78D0" d="M76.029 46.605c-.575 0-1.137.029-1.696.076v18.02a.983.983 0 0 1-.977.965H58.12C59.362 73.773 66.891 80 76.03 80c10.011 0 18.114-7.463 18.114-16.697 0-9.235-8.103-16.698-18.114-16.698z"/>
    <rect width="49" height="14" x="14" y="90" fill="#E5E8ED" rx="1"/>
    <rect width="78" height="14" x="181" y="40" fill="#E5E8ED" rx="1"/>
    <rect width="88" height="14" x="14" y="114" fill="#E5E8ED" rx="1"/>
    <rect width="68" height="14" x="14" y="160" fill="#E5E8ED" rx="1"/>
    <rect width="48" height="24" x="197" y="134" fill="#26C6DA" rx="1"/>
    <rect width="77" height="48" x="182" y="70" fill="#2B78D0" rx="1"/>
</svg>
