<svg width="180" height="180" viewBox="0 0 180 180" fill="none" xmlns="http://www.w3.org/2000/svg">
<mask id="mask0" mask-type="alpha" maskUnits="userSpaceOnUse" x="0" y="0" width="180" height="180">
<rect width="180" height="180" fill="#C4C4C4"/>
</mask>
<g mask="url(#mask0)">
<g opacity="0.5">
<g opacity="0.5">
<path opacity="0.5" d="M112.531 98.9737H116.405C117.827 98.9737 118.858 97.8007 118.822 96.4144L117.613 74.4478H111.358L110.149 96.4144C110.007 97.8362 111.109 98.9737 112.531 98.9737Z" fill="url(#paint0_linear)"/>
</g>
<path opacity="0.5" d="M116.048 96.4491L114.839 74.4824H116.652L117.861 96.4491C117.967 97.8709 116.865 99.0083 115.444 99.0083H113.631C114.982 98.9728 116.083 97.8354 116.048 96.4491Z" fill="#B3CDFA"/>
</g>
<path d="M81.713 26.1084C81.713 26.5705 81.3575 26.9615 80.8599 26.9615C80.3978 26.9615 80.0068 26.5705 80.0068 26.1084C80.0068 25.6464 80.3978 25.2554 80.8599 25.2554C81.3931 25.2554 81.713 25.6464 81.713 26.1084Z" fill="white"/>
<path d="M84.8399 26.1084C84.8399 26.5705 84.4845 26.9615 83.9869 26.9615C83.4892 26.9615 83.1338 26.5705 83.1338 26.1084C83.1338 25.6464 83.4892 25.2554 83.9869 25.2554C84.4845 25.2554 84.8399 25.6464 84.8399 26.1084Z" fill="white"/>
<path d="M87.9347 26.1084C87.9347 26.5705 87.5792 26.9615 87.0816 26.9615C86.584 26.9615 86.2285 26.5705 86.2285 26.1084C86.2285 25.6464 86.584 25.2554 87.0816 25.2554C87.5792 25.2554 87.9347 25.6464 87.9347 26.1084Z" fill="white"/>
<path d="M99.6284 38.3347H91.6664C91.3465 38.3347 91.0977 38.0503 91.0977 37.766C91.0977 37.4461 91.382 37.1973 91.6664 37.1973H99.6284C99.9483 37.1973 100.197 37.4816 100.197 37.766C100.233 38.0859 99.9483 38.3347 99.6284 38.3347Z" fill="#C2D7FB"/>
<path d="M112.957 38.3347H103.288C102.969 38.3347 102.72 38.0503 102.72 37.766C102.72 37.4461 103.004 37.1973 103.288 37.1973H112.957C113.277 37.1973 113.525 37.4816 113.525 37.766C113.525 38.0859 113.312 38.3347 112.957 38.3347Z" fill="#C2D7FB"/>
<path d="M126.253 38.3347H116.62C116.301 38.3347 116.052 38.0503 116.052 37.766C116.052 37.4461 116.336 37.1973 116.62 37.1973H126.289C126.609 37.1973 126.857 37.4816 126.857 37.766C126.822 38.0859 126.609 38.3347 126.253 38.3347Z" fill="#C2D7FB"/>
<path d="M109.508 56.1758H94.2236V71.4956H109.508V56.1758Z" fill="#C2D7FB"/>
<path d="M108.124 57.5654H95.6123V70.0772H108.124V57.5654Z" fill="#D1E1FC"/>
<path d="M123.407 74.4478H118.288V79.5662H123.407V74.4478Z" fill="#C2D7FB"/>
<path d="M97.4934 97.8008H90.5977V104.732H97.4934V97.8008Z" fill="#E1EBFD"/>
<path d="M105.207 97.8008H98.3115V104.732H105.207V97.8008Z" fill="#E1EBFD"/>
<path d="M112.958 97.8008H106.062V104.732H112.958V97.8008Z" fill="#E1EBFD"/>
<path d="M97.4934 105.266H90.5977V112.197H97.4934V105.266Z" fill="#E1EBFD"/>
<path d="M105.207 105.266H98.3115V112.197H105.207V105.266Z" fill="#E1EBFD"/>
<path d="M112.958 105.266H106.062V112.197H112.958V105.266Z" fill="#E1EBFD"/>
<path d="M97.4934 112.693H90.5977V119.624H97.4934V112.693Z" fill="#E1EBFD"/>
<path d="M105.207 112.693H98.3115V119.624H105.207V112.693Z" fill="#E1EBFD"/>
<path d="M112.958 112.693H106.062V119.624H112.958V112.693Z" fill="#E1EBFD"/>
<path d="M111.074 75.3333H91.0265C90.7777 75.3333 90.5645 75.1556 90.5645 74.8713C90.5645 74.6224 90.7422 74.4092 91.0265 74.4092H111.074C111.323 74.4092 111.536 74.5869 111.536 74.8713C111.536 75.1556 111.323 75.3333 111.074 75.3333Z" fill="#D1E1FC"/>
<path d="M127.673 86.2503H118.68C118.431 86.2503 118.218 86.0726 118.218 85.7883C118.218 85.5394 118.395 85.3262 118.68 85.3262H127.673C127.922 85.3262 128.135 85.5039 128.135 85.7883C128.135 86.0726 127.886 86.2503 127.673 86.2503Z" fill="#E9F1FF"/>
<path d="M122.021 88.8441H118.68C118.431 88.8441 118.218 88.6664 118.218 88.382C118.218 88.1332 118.395 87.9199 118.68 87.9199H122.021C122.27 87.9199 122.483 88.0976 122.483 88.382C122.483 88.6664 122.234 88.8441 122.021 88.8441Z" fill="#D1E1FC"/>
<path d="M111.074 78.4286H91.0265C90.7777 78.4286 90.5645 78.2508 90.5645 77.9665C90.5645 77.7177 90.7422 77.5044 91.0265 77.5044H111.074C111.323 77.5044 111.536 77.6821 111.536 77.9665C111.536 78.1797 111.323 78.4286 111.074 78.4286Z" fill="#D1E1FC"/>
<path d="M103.786 81.6981H90.9894C90.7406 81.6981 90.5273 81.5204 90.5273 81.236C90.5273 80.9872 90.7051 80.7739 90.9894 80.7739H103.786C104.034 80.7739 104.248 80.9517 104.248 81.236C104.248 81.4848 103.999 81.6981 103.786 81.6981Z" fill="#D1E1FC"/>
<path d="M103.467 93.8911H91.3464C90.9199 93.8911 90.5645 93.5001 90.5645 93.1091C90.5645 92.6826 90.9199 92.3271 91.3464 92.3271H103.467C103.894 92.3271 104.249 92.7181 104.249 93.1091C104.249 93.5357 103.858 93.8911 103.467 93.8911Z" fill="#D1E1FC"/>
<path d="M91.0982 72.064H57.0107V81.0213H91.0982V72.064Z" fill="#D1E1FC"/>
<path d="M91.0982 95.918H57.0107V100.397H91.0982V95.918Z" fill="#D1E1FC"/>
<path d="M87.3655 97.4092H64.4746V98.9021H87.3655V97.4092Z" fill="#C2D7FB"/>
<path d="M67.2463 38.3347H57.6136C57.2937 38.3347 57.0449 38.0503 57.0449 37.766C57.0449 37.4461 57.3293 37.1973 57.6136 37.1973H67.2818C67.6017 37.1973 67.8505 37.4816 67.8505 37.766C67.815 38.0859 67.6017 38.3347 67.2463 38.3347Z" fill="#C2D7FB"/>
<path d="M80.5387 38.3347H70.8705C70.5506 38.3347 70.3018 38.0503 70.3018 37.766C70.3018 37.4461 70.5861 37.1973 70.8705 37.1973H80.5387C80.8586 37.1973 81.1074 37.4816 81.1074 37.766C81.1074 38.0859 80.8941 38.3347 80.5387 38.3347Z" fill="#C2D7FB"/>
<path d="M90.492 38.3347H84.2005C83.8806 38.3347 83.6318 38.0503 83.6318 37.766C83.6318 37.4461 83.9162 37.1973 84.2005 37.1973H90.492C90.8119 37.1973 91.0607 37.4816 91.0607 37.766C91.0962 38.0859 90.8119 38.3347 90.492 38.3347Z" fill="#C2D7FB"/>
<path d="M64.4046 74.4478H59.2861V79.5662H64.4046V74.4478Z" fill="#C2D7FB"/>
<path d="M70.8361 75.7987H67.3527C67.1039 75.7987 66.8906 75.621 66.8906 75.3366C66.8906 75.0878 67.0683 74.8745 67.3527 74.8745H70.8361C71.0849 74.8745 71.2982 75.0522 71.2982 75.3366C71.3337 75.621 71.0849 75.7987 70.8361 75.7987Z" fill="#C2D7FB"/>
<path d="M76.9143 78.1781H67.3527C67.1039 78.1781 66.8906 78.0003 66.8906 77.716C66.8906 77.4672 67.0683 77.2539 67.3527 77.2539H76.9143C77.1631 77.2539 77.3763 77.4316 77.3763 77.716C77.3763 77.9293 77.1986 78.1781 76.9143 78.1781Z" fill="#C2D7FB"/>
<path d="M90.6364 83.9745H59.6769C59.4281 83.9745 59.2148 83.7967 59.2148 83.5124C59.2148 83.2636 59.3926 83.0503 59.6769 83.0503H90.6364C90.8853 83.0503 91.0985 83.228 91.0985 83.5124C91.0985 83.7967 90.8497 83.9745 90.6364 83.9745Z" fill="#D1E1FC"/>
<path d="M68.6698 86.2503H59.6769C59.4281 86.2503 59.2148 86.0726 59.2148 85.7883C59.2148 85.5394 59.3926 85.3262 59.6769 85.3262H68.6698C68.9186 85.3262 69.1318 85.5039 69.1318 85.7883C69.1318 86.0726 68.883 86.2503 68.6698 86.2503Z" fill="#D1E1FC"/>
<path d="M63.0181 88.8441H59.6769C59.4281 88.8441 59.2148 88.6664 59.2148 88.382C59.2148 88.1332 59.3926 87.9199 59.6769 87.9199H63.0181C63.267 87.9199 63.4802 88.0976 63.4802 88.382C63.4802 88.6664 63.2314 88.8441 63.0181 88.8441Z" fill="#D1E1FC"/>
<path d="M91.0982 104.375H57.0107V113.332H91.0982V104.375Z" fill="#D1E1FC"/>
<path d="M64.4046 106.758H59.2861V111.912H64.4046V106.758Z" fill="#C2D7FB"/>
<path d="M70.8361 108.109H67.3527C67.1039 108.109 66.8906 107.931 66.8906 107.647C66.8906 107.398 67.0683 107.185 67.3527 107.185H70.8361C71.0849 107.185 71.2982 107.362 71.2982 107.647C71.3337 107.931 71.0849 108.109 70.8361 108.109Z" fill="#C2D7FB"/>
<path d="M76.9143 110.489H67.3527C67.1039 110.489 66.8906 110.311 66.8906 110.027C66.8906 109.778 67.0683 109.564 67.3527 109.564H76.9143C77.1631 109.564 77.3763 109.742 77.3763 110.027C77.3763 110.275 77.1986 110.489 76.9143 110.489Z" fill="#C2D7FB"/>
<path d="M90.6364 116.284H59.6769C59.4281 116.284 59.2148 116.106 59.2148 115.821C59.2148 115.573 59.3926 115.359 59.6769 115.359H90.6364C90.8853 115.359 91.0985 115.537 91.0985 115.821C91.0985 116.106 90.8497 116.284 90.6364 116.284Z" fill="#D1E1FC"/>
<path d="M68.6698 118.594H59.6769C59.4281 118.594 59.2148 118.416 59.2148 118.132C59.2148 117.883 59.3926 117.669 59.6769 117.669H68.6698C68.9186 117.669 69.1318 117.847 69.1318 118.132C69.1318 118.416 68.883 118.594 68.6698 118.594Z" fill="#D1E1FC"/>
<path d="M63.0181 121.155H59.6769C59.4281 121.155 59.2148 120.977 59.2148 120.693C59.2148 120.444 59.3926 120.23 59.6769 120.23H63.0181C63.267 120.23 63.4802 120.408 63.4802 120.693C63.4802 120.977 63.2314 121.155 63.0181 121.155Z" fill="#D1E1FC"/>
<path d="M62.4493 98.1919C62.4493 98.7606 61.9872 99.2227 61.4185 99.2227C60.8498 99.2227 60.3877 98.7606 60.3877 98.1919C60.3877 97.6232 60.8498 97.1611 61.4185 97.1611C61.9872 97.1611 62.4493 97.6232 62.4493 98.1919Z" fill="#F4F8FF"/>
<path d="M99.1663 25.2554H97.709V25.6819H99.1663V25.2554Z" fill="#E3EDFE"/>
<path d="M99.1663 26.1396H97.709V26.5662H99.1663V26.1396Z" fill="#E3EDFE"/>
<path d="M99.1663 26.9966H97.709V27.4231H99.1663V26.9966Z" fill="#E3EDFE"/>
<path d="M107.378 146.284H56.9043C51.2171 146.284 46.6318 141.698 46.6318 135.976L62.8047 17.7535C62.8047 14.0213 65.826 11 69.5582 11H118.823C125.186 11 130.304 16.154 130.304 22.5165L114.131 139.566C113.634 143.298 111.11 146.284 107.378 146.284Z" fill="url(#paint1_linear)"/>
<path d="M104.853 143.584H53.4195C49.6873 143.584 46.666 140.562 46.666 136.83L62.8389 17.7906C62.8389 14.0584 65.8602 11.0371 69.5924 11.0371H121.026C124.758 11.0371 127.779 14.0584 127.779 17.7906L111.606 136.795C110.895 140.385 108.656 143.584 104.853 143.584Z" fill="#B3CDFA"/>
<path d="M53.4199 143.083C50.0076 143.083 47.1641 140.311 47.1641 136.827L63.3369 17.8232V17.7876C63.3369 14.3042 66.145 11.5317 69.5928 11.5317H121.026C124.438 11.5317 127.282 14.3042 127.282 17.7876L111.109 136.792C110.469 139.813 108.479 143.154 104.853 143.154H53.4199V143.083Z" fill="#1449A8"/>
<g opacity="0.15">
<path opacity="0.02439" d="M124.369 12.5635C125.435 13.2744 126.288 14.2341 126.786 15.4426C127.106 16.1535 127.283 17.0421 127.283 17.8597L119.215 77.2906L111.182 136.793C110.577 139.672 108.765 142.8 105.423 143.084C105.281 143.084 105.068 143.084 104.855 143.084H79.1558H53.4569C52.7105 143.084 51.893 142.942 51.2531 142.693C50.0091 142.195 48.8716 141.342 48.1963 140.169C48.5873 140.418 49.0494 140.631 49.547 140.774C50.1513 140.987 50.8622 141.093 51.502 141.093H77.2008H102.935C106.596 141.093 108.587 137.823 109.227 134.731L117.331 75.229L125.4 15.7981C125.4 15.1582 125.293 14.4829 125.08 13.8786C125.08 13.8786 125.08 13.8786 125.08 13.8431C124.866 13.4166 124.618 12.9545 124.369 12.5635Z" fill="white"/>
<path opacity="0.04878" d="M124.446 12.6016C125.512 13.3125 126.365 14.3077 126.827 15.4807C127.147 16.1916 127.289 17.0802 127.289 17.8977L119.22 77.2576L111.152 136.76C110.548 139.639 108.735 142.767 105.394 143.051C105.251 143.051 105.038 143.051 104.825 143.051H79.1259H53.5692C52.8228 143.051 52.0052 142.909 51.3654 142.66C50.1214 142.198 48.9839 141.309 48.3086 140.172C48.6996 140.421 49.1617 140.634 49.6593 140.776C50.2636 140.989 50.9745 141.096 51.6143 141.096H77.2776H103.012C106.673 141.096 108.664 137.826 109.303 134.734L117.372 75.2315L125.441 15.8361C125.441 15.2319 125.334 14.521 125.121 13.9167C125.121 13.9167 125.121 13.9167 125.121 13.8812C124.872 13.4546 124.694 12.9926 124.446 12.6016Z" fill="white"/>
<path opacity="0.073171" d="M124.479 12.6758C125.545 13.3867 126.327 14.3819 126.86 15.5549C127.18 16.2658 127.322 17.1544 127.322 17.972L119.253 77.2607L111.185 136.763C110.581 139.642 108.768 142.77 105.427 143.054C105.284 143.054 105.071 143.054 104.858 143.054H79.1589H53.6022C52.8913 143.054 52.0383 142.912 51.3985 142.663C50.1544 142.201 49.0169 141.348 48.2705 140.175C48.6615 140.424 49.1236 140.637 49.6212 140.779C50.1899 140.993 50.9364 141.099 51.5762 141.099H77.1684H102.903C106.564 141.099 108.554 137.865 109.194 134.737L117.334 75.2346L125.403 15.8748C125.403 15.2706 125.296 14.5241 125.154 13.9554C125.154 13.9554 125.154 13.9554 125.154 13.9198C124.941 13.5289 124.727 13.0668 124.479 12.6758Z" fill="white"/>
<path opacity="0.097561" d="M124.516 12.7114C125.583 13.4223 126.365 14.4176 126.827 15.6261C127.111 16.2659 127.218 17.2967 127.289 18.0431L119.22 77.2963L111.187 136.798C110.583 139.677 108.77 142.805 105.429 143.054C105.287 143.054 105.073 143.054 104.86 143.054H79.1611H53.6755C52.9646 143.054 52.076 142.912 51.4717 142.699C50.2276 142.237 49.0902 141.384 48.3438 140.282C48.7347 140.531 49.1968 140.744 49.6945 140.886C50.2632 141.099 51.0452 141.206 51.6494 141.206H77.2061H102.941C106.673 141.206 108.628 137.971 109.232 134.843L117.336 75.3414L125.405 16.0526C125.405 15.4484 125.298 14.7019 125.156 14.1688C125.156 14.1688 125.156 14.1688 125.156 14.1332C124.943 13.5645 124.765 13.1024 124.516 12.7114Z" fill="white"/>
<path opacity="0.122" d="M124.515 12.7476C125.582 13.4585 126.364 14.4537 126.826 15.6622C127.146 16.302 127.217 17.3328 127.217 18.0793L119.148 77.2614L111.115 136.799C110.511 139.678 108.698 142.806 105.357 143.055C105.214 143.055 105.001 143.055 104.788 143.055H79.1246H53.6745C52.9636 143.055 52.075 142.913 51.4707 142.699C50.2266 142.237 49.0892 141.455 48.3428 140.318C48.7338 140.567 49.1958 140.78 49.6935 140.887C50.2622 141.1 51.0442 141.135 51.6484 141.135H77.1341H102.869C106.601 141.135 108.556 137.901 109.231 134.737L117.3 75.2353L125.368 15.9821C125.368 15.3779 125.333 14.6314 125.12 14.0983C125.12 14.0983 125.12 14.0983 125.12 14.0627C124.977 13.6006 124.764 13.1741 124.515 12.7476Z" fill="white"/>
<path opacity="0.1463" d="M124.58 12.8125C125.575 13.5234 126.393 14.5187 126.855 15.7272C127.103 16.367 127.246 17.4333 127.246 18.1442L119.248 77.2908L111.179 136.793C110.575 139.672 108.762 142.8 105.421 143.049C105.279 143.049 105.066 143.049 104.852 143.049H79.189H53.7389C53.0991 143.049 52.1394 142.942 51.5352 142.693C50.2911 142.302 49.1537 141.449 48.4072 140.312C48.7982 140.561 49.3314 140.774 49.7579 140.88C50.2556 141.023 51.1086 141.129 51.7129 141.129H77.163H102.897C106.63 141.129 108.585 137.966 109.26 134.731L117.329 75.2292L125.397 15.976C125.397 15.4073 125.362 14.6253 125.184 14.0921C125.184 14.0921 125.184 14.0921 125.184 14.0566C125.006 13.6656 124.829 13.2035 124.58 12.8125Z" fill="white"/>
<path opacity="0.1707" d="M124.618 12.8477C125.613 13.5586 126.431 14.6249 126.822 15.7623C127.07 16.3666 127.177 17.4685 127.177 18.1794L119.179 77.2548L111.111 136.792C110.507 139.672 108.694 142.799 105.353 143.048C105.21 143.048 104.962 143.048 104.784 143.048H79.1205H53.777C53.1372 143.048 52.1775 142.942 51.5733 142.693C50.3292 142.302 49.1918 141.484 48.4453 140.382C48.9074 140.631 49.3695 140.773 49.796 140.951C50.2936 141.093 51.1467 141.2 51.751 141.2H77.13H102.864C106.632 141.2 108.552 138.036 109.227 134.802L117.296 75.2999L125.293 16.1178C125.293 15.5491 125.258 14.696 125.08 14.2339V14.1628C125.009 13.7718 124.867 13.3097 124.618 12.8477Z" fill="white"/>
<path opacity="0.1951" d="M124.687 12.9219C125.682 13.6683 126.499 14.6991 126.89 15.9076C127.139 16.5119 127.246 17.6138 127.246 18.3247L119.248 77.3646L111.18 136.867C110.575 139.746 108.763 142.874 105.421 143.122C105.279 143.122 105.03 143.122 104.853 143.122H79.1892H53.8458C53.206 143.122 52.1752 143.016 51.642 142.767C50.3979 142.376 49.2605 141.559 48.4785 140.492C48.9406 140.741 49.4027 140.883 49.8292 141.061C50.3268 141.203 51.251 141.31 51.7842 141.31H77.1632H102.898C106.665 141.31 108.585 138.182 109.26 134.912L117.329 75.3741L125.326 16.2275C125.326 15.6588 125.291 14.8057 125.113 14.3437V14.3081C125.078 13.8105 124.864 13.3484 124.687 12.9219Z" fill="white"/>
<path opacity="0.2195" d="M124.654 12.9551C125.649 13.7015 126.431 14.7323 126.822 15.9408C127.071 16.5451 127.142 17.7181 127.142 18.3579L119.144 77.2912L111.076 136.793C110.471 139.672 108.659 142.8 105.317 143.014C105.175 143.014 104.926 143.014 104.749 143.014H79.1564H53.9552C53.3509 143.014 52.2845 142.907 51.7514 142.694C50.5073 142.303 49.3699 141.521 48.5879 140.419C49.05 140.668 49.5121 140.81 49.9386 140.987C50.4362 141.13 51.3604 141.236 51.8936 141.236H77.2015H102.936C106.704 141.236 108.694 138.108 109.334 134.838L117.403 75.3362L125.4 16.2607C125.4 15.7631 125.365 14.839 125.187 14.3769V14.3413C125.08 13.8437 124.938 13.4172 124.654 12.9551Z" fill="white"/>
<path opacity="0.2439" d="M124.723 12.9922C125.718 13.7386 126.5 14.7694 126.891 15.978C127.14 16.5467 127.211 17.7552 127.211 18.395L119.213 77.2927L111.109 136.795C110.505 139.674 108.692 142.802 105.351 143.015C105.208 143.015 104.96 143.015 104.782 143.015H79.1896H53.9884C53.3841 143.015 52.3178 142.908 51.7846 142.695C50.5405 142.34 49.4031 141.522 48.6211 140.491C49.0832 140.705 49.5453 140.882 49.9718 140.989C50.4339 141.131 51.3936 141.238 51.9268 141.238H77.1636H102.898C106.737 141.238 108.656 138.11 109.296 134.769L117.365 75.2667L125.362 16.2268C125.362 15.7291 125.362 14.805 125.22 14.3429V14.3073C125.114 13.9164 124.971 13.4543 124.723 12.9922Z" fill="white"/>
<path opacity="0.2683" d="M124.756 13.0625C125.752 13.8089 126.462 14.8753 126.889 16.0483C127.138 16.617 127.209 17.8255 127.209 18.4653L119.211 77.292L111.107 136.794C110.503 139.673 108.69 142.801 105.349 143.014C105.207 143.014 104.958 143.014 104.851 143.014H79.259H54.0577C53.489 143.014 52.3515 142.908 51.8539 142.694C50.6099 142.339 49.4369 141.521 48.6904 140.526C49.1525 140.739 49.6146 140.917 50.0411 141.024C50.5032 141.166 51.4985 141.273 51.9961 141.273H77.1974H102.932C106.771 141.273 108.69 138.18 109.33 134.803L117.399 75.3015L125.396 16.2971C125.396 15.7994 125.396 14.8397 125.254 14.4132V14.3777C125.183 13.9511 124.97 13.5246 124.756 13.0625Z" fill="white"/>
<path opacity="0.2927" d="M124.828 13.0947C125.787 13.8412 126.534 14.9075 126.889 16.116C127.138 16.6137 127.138 17.9288 127.138 18.5331L119.176 77.3242L111.107 136.826C110.503 139.705 108.69 142.833 105.349 143.047C105.242 143.047 104.958 143.047 104.851 143.047H79.2592H54.129C53.5603 143.047 52.4228 142.94 51.9252 142.727C50.6811 142.371 49.5082 141.625 48.7617 140.558C49.2238 140.772 49.6859 140.949 50.1124 141.056C50.5745 141.198 51.5698 141.269 52.0674 141.269H77.1976H102.932C106.806 141.269 108.69 138.177 109.33 134.8L117.399 75.2981L125.396 16.3648C125.396 15.9028 125.396 14.9075 125.254 14.481V14.4454C125.183 14.0189 125.005 13.5568 124.828 13.0947Z" fill="white"/>
<path opacity="0.3171" d="M124.828 13.166C125.787 13.9125 126.534 14.9788 126.889 16.1873C127.102 16.685 127.138 18.0001 127.138 18.6044L119.176 77.3244L111.107 136.826C110.503 139.706 108.69 142.798 105.349 143.047C105.242 143.047 104.958 143.047 104.851 143.047H79.2947H54.1645C53.5958 143.047 52.4584 142.94 51.9963 142.727C50.7522 142.371 49.5792 141.625 48.7617 140.594C49.2238 140.807 49.6859 140.95 50.1124 141.092C50.5034 141.234 51.5698 141.305 52.0674 141.305H77.162H102.896C106.771 141.305 108.655 138.213 109.33 134.836L117.399 75.3339L125.396 16.4361C125.396 15.9741 125.396 14.9788 125.254 14.5523V14.5167C125.219 14.0546 125.076 13.5926 124.828 13.166Z" fill="white"/>
<path opacity="0.3415" d="M124.863 13.2031C125.823 13.9496 126.534 15.0159 126.889 16.2244C127.102 16.7221 127.102 18.1083 127.102 18.6415L119.105 77.326L111.036 136.828C110.432 139.707 108.619 142.8 105.278 142.977C105.171 142.977 104.887 142.977 104.78 142.977H79.2236H54.1645C53.6669 142.977 52.4584 142.871 51.9963 142.728C50.7522 142.409 49.5792 141.662 48.7617 140.667C49.2238 140.88 49.6859 141.022 50.1124 141.129C50.5034 141.271 51.6408 141.342 52.0674 141.342H77.1265H102.861C106.735 141.342 108.655 138.321 109.295 134.873L117.363 75.371L125.361 16.4732C125.361 16.0112 125.361 15.0159 125.254 14.5894V14.5538C125.219 14.1273 125.076 13.6652 124.863 13.2031Z" fill="white"/>
<path opacity="0.3659" d="M124.935 13.2407C125.895 14.0583 126.606 15.1246 126.89 16.3331C127.103 16.7952 127.103 18.217 127.103 18.7502L119.141 77.328L111.073 136.83C110.468 139.709 108.656 142.802 105.314 142.979C105.208 142.979 104.923 142.979 104.817 142.979H79.26H54.272C53.7743 142.979 52.4947 142.873 52.1037 142.73C50.8597 142.411 49.6867 141.664 48.8691 140.669C49.3312 140.882 49.7933 141.024 50.2909 141.131C50.6819 141.273 51.8194 141.344 52.2459 141.344H77.2339H102.968C106.914 141.38 108.762 138.323 109.402 134.84L117.471 75.3375L125.468 16.5108C125.468 16.1199 125.468 14.9824 125.362 14.627V14.5914C125.255 14.1649 125.113 13.7028 124.935 13.2407Z" fill="white"/>
<path opacity="0.3902" d="M124.97 13.3135C125.93 14.131 126.569 15.1974 126.925 16.4059C127.138 16.868 127.138 18.2897 127.138 18.8229L119.176 77.3652L111.107 136.867C110.503 139.746 108.69 142.839 105.349 143.016C105.242 143.016 104.958 143.016 104.851 143.016H79.2947H54.3423C53.8446 143.016 52.565 142.91 52.174 142.768C50.93 142.448 49.757 141.772 48.9395 140.742C49.4015 140.955 49.8636 141.097 50.3612 141.204C50.7167 141.31 51.8897 141.417 52.3162 141.417H77.3042H103.11C107.055 141.452 108.904 138.396 109.543 134.912L117.612 75.4102L125.467 16.6191C125.467 16.2282 125.503 15.0907 125.361 14.7353V14.6997C125.325 14.2021 125.183 13.7756 124.97 13.3135Z" fill="white"/>
<path opacity="0.4146" d="M124.971 13.3457C125.931 14.1632 126.57 15.2296 126.89 16.4381C127.104 16.9002 127.033 18.3575 127.033 18.8551L119.071 77.3263L111.002 136.828C110.398 139.707 108.585 142.8 105.244 142.978C105.137 142.978 104.853 142.978 104.746 142.978H79.2603H54.4145C53.9524 142.978 52.6373 142.871 52.2463 142.729C51.0022 142.409 49.8292 141.734 49.0117 140.774C49.4738 140.987 49.9359 141.129 50.4335 141.236C50.789 141.343 51.9975 141.449 52.3885 141.449H77.3409H103.111C107.056 141.485 108.905 138.463 109.545 134.944L117.613 75.4425L125.575 16.7225C125.575 16.3315 125.611 15.194 125.469 14.8386V14.803C125.326 14.2699 125.184 13.8078 124.971 13.3457Z" fill="white"/>
<path opacity="0.439" d="M125.007 13.4165C125.931 14.234 126.606 15.3004 126.926 16.5089C127.139 16.8999 127.068 18.4283 127.068 18.9259L119.142 77.3616L111.073 136.864C110.469 139.743 108.656 142.835 105.315 143.013C105.208 143.013 104.924 143.013 104.817 143.013H79.3314H54.4501C53.988 143.013 52.6728 142.906 52.2818 142.764C51.0378 142.515 49.8648 141.804 49.0117 140.809C49.4738 141.022 49.9359 141.165 50.4335 141.2C50.789 141.307 51.9975 141.413 52.3885 141.413H77.2698H103.004C106.985 141.449 108.798 138.428 109.509 134.909L117.578 75.4066L125.54 16.7222C125.54 16.3667 125.575 15.1937 125.504 14.8383V14.8028C125.362 14.3051 125.22 13.843 125.007 13.4165Z" fill="white"/>
<path opacity="0.4634" d="M125.077 13.4541C126.001 14.2716 126.641 15.3735 126.925 16.582C127.067 16.973 127.032 18.537 127.032 18.9991L119.105 77.3992L111.037 136.901C110.432 139.78 108.62 142.873 105.278 143.015C105.172 143.015 104.887 143.015 104.781 143.015H79.2951H54.5204C54.1294 143.015 52.7076 142.908 52.3522 142.802C51.1081 142.553 49.9351 141.842 49.082 140.882C49.5441 141.095 50.0062 141.238 50.5038 141.273C50.8593 141.38 52.0678 141.415 52.4588 141.415H77.3046H103.039C107.02 141.451 108.868 138.43 109.544 134.911L117.612 75.4087L125.574 16.7598C125.574 16.4043 125.61 15.1958 125.539 14.8759V14.8759C125.361 14.3783 125.255 13.9162 125.077 13.4541Z" fill="white"/>
<path opacity="0.4878" d="M125.112 13.5239C126.036 14.3415 126.676 15.4433 126.924 16.6519C127.067 17.0429 127.031 18.6068 127.031 19.0689L119.105 77.3979L111.036 136.9C110.432 139.779 108.619 142.871 105.278 143.014C105.171 143.014 104.816 143.014 104.78 143.014H79.2943H54.5907C54.1997 143.014 52.7779 142.978 52.4225 142.8C51.1784 142.552 50.0054 141.876 49.1523 140.917C49.6144 141.13 50.0765 141.236 50.5741 141.308C50.894 141.414 52.1737 141.45 52.5291 141.45H77.3038H103.109C107.09 141.485 108.939 138.535 109.614 134.874L117.683 75.3719L125.645 16.794C125.645 16.4386 125.68 15.2301 125.609 14.9102V14.8746C125.432 14.4125 125.254 13.9505 125.112 13.5239Z" fill="white"/>
<path opacity="0.5122" d="M125.112 13.5571C126.036 14.3747 126.676 15.4765 126.924 16.6851C127.067 17.0405 127.031 18.64 127.031 19.1021L119.105 77.3245L111.036 136.827C110.432 139.706 108.619 142.798 105.278 142.94C105.171 142.94 104.816 142.94 104.78 142.94H79.3299H54.5907C54.1997 142.94 52.7779 142.905 52.4225 142.727C51.1784 142.478 50.0054 141.803 49.1523 140.843C49.6144 141.056 50.0765 141.163 50.5741 141.234C50.894 141.341 52.1737 141.376 52.5291 141.376H77.2683H103.003C107.019 141.412 108.832 138.462 109.507 134.8L117.576 75.2985L125.538 16.7562C125.538 16.4363 125.574 15.1922 125.538 14.8723V14.8367C125.467 14.4813 125.325 14.0192 125.112 13.5571Z" fill="white"/>
<path opacity="0.5366" d="M125.187 13.5938C126.111 14.4113 126.715 15.5132 126.964 16.7217C127.106 17.0771 127 18.7477 127 19.1387L119.073 77.3256L111.004 136.828C110.4 139.707 108.587 142.799 105.246 142.941C105.14 142.941 104.784 142.941 104.749 142.941H79.2985H54.6659C54.3104 142.941 52.8531 142.906 52.4977 142.728C51.2536 142.479 50.0806 141.875 49.2275 140.915C49.6896 141.129 50.1517 141.235 50.6493 141.306C50.9692 141.413 52.2488 141.448 52.6043 141.448H77.3079H103.042C107.059 141.484 108.872 138.534 109.583 134.873L117.651 75.3706L125.613 16.8283C125.613 16.5084 125.72 15.2288 125.613 14.9445V14.9089C125.471 14.5179 125.365 14.0558 125.187 13.5938Z" fill="white"/>
<path opacity="0.561" d="M125.222 13.666C126.147 14.5191 126.751 15.5854 126.928 16.8295C127.071 17.185 126.964 18.8556 126.964 19.2466L119.038 77.3623L110.969 136.864C110.365 139.743 108.552 142.836 105.211 142.978C105.104 142.978 104.749 142.978 104.713 142.978H79.2629H54.6659C54.3104 142.978 52.8176 142.942 52.4977 142.765C51.2536 142.551 50.0806 141.912 49.2275 140.987C49.6896 141.13 50.1517 141.307 50.6493 141.343C50.8981 141.45 52.3199 141.485 52.6043 141.485H77.2368H102.971C106.988 141.521 108.872 138.606 109.512 134.909L117.58 75.4073L125.542 16.9361C125.542 16.6162 125.649 15.3366 125.542 15.0523V15.0167C125.542 14.5546 125.365 14.1281 125.222 13.666Z" fill="white"/>
<path opacity="0.5854" d="M125.256 13.7041C126.109 14.5572 126.713 15.6591 126.962 16.8676C127.104 17.1875 126.962 18.8936 126.962 19.2846L119.035 77.3648L110.967 136.867C110.362 139.746 108.549 142.838 105.208 142.909C105.173 142.909 104.746 142.909 104.711 142.909H79.2605H54.7702C54.4503 142.909 52.9219 142.874 52.602 142.767C51.3579 142.554 50.1849 141.95 49.2607 140.99C49.7228 141.132 50.1849 141.31 50.6825 141.345C50.9313 141.452 52.3531 141.488 52.6375 141.488H77.2345H102.969C107.057 141.523 108.869 138.609 109.509 134.912L117.578 75.4099L125.504 16.9742C125.504 16.7254 125.611 15.3747 125.504 15.0903V15.0548C125.54 14.6283 125.433 14.1662 125.256 13.7041Z" fill="white"/>
<path opacity="0.6098" d="M125.292 13.7744C126.145 14.6275 126.749 15.7294 126.963 16.9379C127.105 17.2578 126.963 18.9995 126.963 19.3549L119.107 77.3996L111.039 136.902C110.434 139.781 108.622 142.873 105.28 142.944C105.245 142.944 104.818 142.944 104.783 142.944H79.4037H54.9489C54.629 142.944 53.1006 142.909 52.7807 142.802C51.5366 142.589 50.3636 141.985 49.4395 141.096C49.9015 141.238 50.3636 141.416 50.8612 141.451C51.1101 141.558 52.5319 141.558 52.8162 141.558H77.3421H103.112C107.2 141.594 109.013 138.679 109.652 134.947L117.721 75.4446L125.648 17.1156C125.648 16.8668 125.754 15.5161 125.683 15.2318V15.1962C125.576 14.663 125.47 14.201 125.292 13.7744Z" fill="white"/>
<path opacity="0.6341" d="M125.326 13.8071C126.18 14.6602 126.784 15.7621 126.997 17.0417C127.104 17.2905 126.997 19.1033 126.997 19.4588L119.142 77.4323L111.073 136.934C110.469 139.813 108.656 142.906 105.315 142.977C105.279 142.977 104.853 142.977 104.817 142.977H79.4381H55.0544C54.7345 142.977 53.1349 142.941 52.8861 142.835C51.6421 142.621 50.4691 142.088 49.5449 141.164C50.007 141.306 50.4691 141.413 50.9667 141.52C51.18 141.555 52.6729 141.626 52.9217 141.626H77.4121H103.146C107.234 141.662 109.047 138.783 109.758 135.015L117.826 75.5129L125.753 17.1839C125.753 16.9351 125.86 15.5133 125.789 15.3V15.2645C125.611 14.7313 125.469 14.2692 125.326 13.8071Z" fill="white"/>
<path opacity="0.6585" d="M125.362 13.8447C126.215 14.6978 126.784 15.7997 126.962 17.0793C127.069 17.3281 126.926 19.212 126.926 19.4608L119.071 77.3988L111.002 136.901C110.398 139.78 108.585 142.872 105.244 142.943C105.208 142.943 104.782 142.943 104.746 142.943H79.3674H55.0192C54.7704 142.943 53.0998 142.908 52.851 142.801C51.6069 142.659 50.3984 142.055 49.5098 141.131C49.9718 141.273 50.4695 141.379 50.9316 141.451C51.1448 141.486 52.6377 141.557 52.8865 141.557H77.3414H103.111C107.235 141.593 109.012 138.714 109.723 134.946L117.791 75.4439L125.718 17.1504C125.718 16.9371 125.86 15.4798 125.753 15.2665V15.231C125.611 14.8044 125.54 14.3068 125.362 13.8447Z" fill="white"/>
<path opacity="0.6829" d="M125.433 13.9146C126.286 14.7676 126.855 15.9406 126.997 17.1491C127.104 17.3979 126.961 19.2818 126.961 19.5306L119.106 77.362L111.037 136.864C110.433 139.743 108.62 142.836 105.279 142.907C105.243 142.907 104.817 142.907 104.781 142.907H79.4024H55.1253C54.8765 142.907 53.2058 142.871 52.9926 142.764C51.7485 142.622 50.54 142.054 49.6514 141.165C50.1134 141.307 50.6111 141.414 51.0732 141.485C51.2864 141.52 52.7793 141.591 53.0281 141.591H77.4119H103.146C107.27 141.627 109.082 138.783 109.758 134.98L117.826 75.4781L125.753 17.2558C125.753 17.0425 125.895 15.5852 125.788 15.3719V15.3363C125.682 14.8743 125.575 14.3766 125.433 13.9146Z" fill="white"/>
<path opacity="0.7073" d="M125.435 13.9482C126.288 14.8013 126.857 15.9743 126.999 17.1828C127.106 17.3961 126.893 19.3155 126.893 19.5643L119.037 77.3602L110.969 136.791C110.364 139.67 108.551 142.763 105.21 142.798C105.175 142.798 104.748 142.798 104.713 142.798H79.3692H55.1276C54.8788 142.798 53.2082 142.763 52.9949 142.692C51.7509 142.549 50.5423 141.981 49.6182 141.128C50.0802 141.27 50.5779 141.376 51.04 141.447C51.2532 141.483 52.8172 141.554 52.9949 141.554H77.3431H103.113C107.236 141.59 109.049 138.782 109.724 134.943L117.793 75.4408L125.72 17.2539C125.72 17.0406 125.862 15.5833 125.826 15.37V15.3345C125.684 14.908 125.577 14.4103 125.435 13.9482Z" fill="white"/>
<path opacity="0.7317" d="M125.47 14.0229C126.288 14.9471 126.821 16.049 126.998 17.2931C127.105 17.5063 126.892 19.4613 126.892 19.6746L119.036 77.3993L110.968 136.83C110.363 139.709 108.551 142.802 105.209 142.837C105.174 142.837 104.747 142.837 104.712 142.837H79.3684H55.1979C54.9847 142.837 53.243 142.802 53.0652 142.731C51.8212 142.589 50.6126 142.02 49.6885 141.167C50.1506 141.309 50.6482 141.416 51.1103 141.487C51.2524 141.522 52.8875 141.593 53.0652 141.593H77.3423H103.112C107.307 141.629 109.048 138.821 109.759 134.982L117.828 75.4799L125.754 17.2931C125.754 17.0798 125.897 15.5869 125.861 15.4092V15.3737C125.719 14.9827 125.612 14.485 125.47 14.0229Z" fill="white"/>
<path opacity="0.7561" d="M125.54 14.0557C126.358 14.9798 126.891 16.0817 126.998 17.3258C127.104 17.5391 126.891 19.494 126.891 19.7073L119.071 77.3965L111.002 136.827C110.398 139.671 108.585 142.799 105.244 142.834C105.209 142.834 104.782 142.834 104.747 142.834H79.4032H55.2682C55.055 142.834 53.3133 142.799 53.1355 142.728C51.8915 142.621 50.683 142.088 49.7588 141.199C50.2209 141.342 50.7185 141.448 51.1806 141.448C51.3228 141.484 52.9578 141.555 53.1355 141.555H77.3771H103.112C107.306 141.59 109.048 138.782 109.758 134.908L117.827 75.406L125.754 17.2902C125.754 17.1481 125.896 15.5841 125.86 15.4064V15.3708C125.789 15.0154 125.683 14.5177 125.54 14.0557Z" fill="white"/>
<path opacity="0.7805" d="M125.576 14.1279C126.393 15.0521 126.891 16.1895 127.033 17.398C127.069 17.5402 126.891 19.6018 126.891 19.7796L119.071 77.3977L111.002 136.829C110.398 139.672 108.585 142.729 105.244 142.836C105.209 142.836 104.782 142.836 104.747 142.836H79.4032H55.2682C55.1261 142.836 53.3133 142.8 53.1355 142.729C51.8915 142.622 50.683 142.089 49.7588 141.272C50.2209 141.414 50.7185 141.52 51.1806 141.52C51.3228 141.556 52.9934 141.556 53.1355 141.556H77.3771H103.112C107.306 141.592 109.048 138.819 109.758 134.909L117.827 75.4072L125.754 17.327C125.754 17.1848 125.896 15.6208 125.896 15.4431V15.4075C125.789 15.0876 125.682 14.5545 125.576 14.1279Z" fill="white"/>
<path opacity="0.8049" d="M125.574 14.1655C126.391 15.0897 126.889 16.2271 126.996 17.4356C127.031 17.5778 126.853 19.6394 126.853 19.8172L119.033 77.3997L110.965 136.831C110.361 139.674 108.548 142.731 105.207 142.838C105.171 142.838 104.709 142.838 104.709 142.838H79.401H55.3727C55.2305 142.838 53.4178 142.802 53.24 142.731C51.996 142.624 50.7874 142.127 49.8633 141.274C50.3254 141.416 50.823 141.487 51.2851 141.523C51.3917 141.558 53.0979 141.558 53.24 141.558H77.4105H103.145C107.375 141.594 109.152 138.821 109.792 134.911L117.861 75.4092L125.716 17.3646C125.716 17.2224 125.929 15.6584 125.858 15.4807V15.4451C125.823 15.1252 125.716 14.6632 125.574 14.1655Z" fill="white"/>
<path opacity="0.8293" d="M125.612 14.1978C126.429 15.1219 126.927 16.2594 127.033 17.539C127.069 17.6811 126.82 19.7427 126.82 19.9205L119 77.3964L110.932 136.827C110.327 139.671 108.515 142.728 105.173 142.799C105.138 142.799 104.676 142.799 104.676 142.799H79.3678H55.3751C55.2329 142.799 53.349 142.799 53.2424 142.763C51.9983 142.657 50.7898 142.159 49.8301 141.342C50.2922 141.484 50.7898 141.555 51.2874 141.59C51.394 141.626 53.1002 141.626 53.2424 141.626H77.3773H103.112C107.342 141.661 109.119 138.96 109.83 134.979L117.898 75.477L125.754 17.5034C125.754 17.3968 125.967 15.7262 125.896 15.6195V15.584C125.825 15.1575 125.789 14.7309 125.612 14.1978Z" fill="white"/>
<path opacity="0.8537" d="M125.684 14.3052C126.502 15.2293 126.929 16.3668 127.035 17.6464C127.071 17.753 126.822 19.9213 126.822 20.0279L119.002 77.4683L110.933 136.899C110.329 139.707 108.516 142.8 105.175 142.871C105.14 142.871 104.677 142.871 104.677 142.871H79.3696H55.4835C55.3768 142.871 53.4574 142.871 53.3508 142.835C52.1067 142.8 50.8982 142.266 49.9385 141.484C50.4006 141.627 50.8982 141.698 51.3958 141.733C51.5025 141.769 53.2441 141.769 53.3508 141.769H77.4502H103.185C107.414 141.804 109.192 139.103 109.903 135.122L117.971 75.62L125.72 17.6464C125.72 17.5398 125.933 15.8691 125.862 15.7625V15.727C125.862 15.2293 125.791 14.7673 125.684 14.3052Z" fill="white"/>
<path opacity="0.878" d="M125.72 14.376C126.466 15.3001 126.964 16.5087 127.035 17.7172C127.071 17.8238 126.822 19.9921 126.822 20.0987L119.002 77.468L110.933 136.899C110.329 139.742 108.516 142.799 105.175 142.87H104.677H79.3696H55.4835C55.3768 142.87 53.4574 142.87 53.3508 142.835C52.1067 142.799 50.8982 142.266 49.9385 141.484C50.4006 141.591 50.8982 141.697 51.3958 141.697C51.4314 141.697 53.2441 141.733 53.3508 141.733H77.3791H103.114C107.379 141.769 109.121 139.067 109.831 135.015L117.9 75.513L125.756 17.6461C125.756 17.5395 125.969 15.8689 125.969 15.7622V15.7267C125.862 15.2646 125.827 14.8025 125.72 14.376Z" fill="white"/>
<path opacity="0.9024" d="M125.717 14.4141C126.463 15.3738 126.925 16.5468 127.032 17.7908C127.068 17.8264 126.783 20.0657 126.783 20.1723L118.963 77.5061L110.895 136.937C110.29 139.781 108.478 142.837 105.136 142.909H104.639H79.402H55.587C55.4803 142.909 53.5609 142.909 53.4543 142.873C52.2102 142.837 51.0017 142.375 50.042 141.558C50.5041 141.664 51.0017 141.771 51.4993 141.771C51.5349 141.771 53.3477 141.807 53.4543 141.807H77.447H103.181C107.447 141.842 109.189 139.176 109.899 135.089L117.968 75.5867L125.824 17.7553C125.824 17.7197 126.037 15.9425 126.037 15.8714V15.8359C125.93 15.3382 125.895 14.8761 125.717 14.4141Z" fill="white"/>
<path opacity="0.9268" d="M125.789 14.4463C126.535 15.406 126.997 16.579 127.033 17.823C127.033 17.8586 126.784 20.1335 126.784 20.2045L119.035 77.4672L110.967 136.898C110.362 139.742 108.55 142.799 105.208 142.87H104.711H79.4739H55.6944C55.6589 142.87 53.6328 142.87 53.5617 142.834C52.3176 142.799 51.1091 142.337 50.1494 141.59C50.6115 141.697 51.1091 141.803 51.6068 141.803C51.6423 141.803 53.5262 141.803 53.5617 141.803H77.5189H103.253C107.519 141.839 109.296 139.173 109.971 135.085L118.04 75.5834L125.86 17.752C125.86 17.7164 126.073 15.9392 126.073 15.8681V15.8325C125.966 15.3705 125.86 14.9084 125.789 14.4463Z" fill="white"/>
<path opacity="0.9512" d="M125.825 14.519C126.572 15.4788 127.034 16.6517 127.034 17.8958C127.034 17.9313 126.749 20.2062 126.749 20.2773L119 77.5045L110.932 136.935C110.328 139.743 108.515 142.836 105.174 142.836H104.676H79.4391H55.6952C55.6596 142.836 53.6336 142.836 53.5625 142.836C52.3184 142.836 51.1099 142.374 50.0791 141.592C50.5412 141.698 51.0388 141.734 51.5364 141.805C51.572 141.805 53.4559 141.805 53.4914 141.805H77.3775H103.112C107.448 141.841 109.155 139.175 109.865 135.087L117.934 75.585L125.79 17.7892C125.79 17.7536 126.038 15.9764 126.003 15.9053V15.8697C125.967 15.4077 125.932 14.9811 125.825 14.519Z" fill="white"/>
<path opacity="0.9756" d="M125.893 14.5557C126.639 15.5154 127.066 16.6884 127.102 17.9324L126.782 20.3139L119.033 77.47L110.964 136.901C110.36 139.744 108.547 142.801 105.206 142.801H104.708H79.4715H55.7987C55.7987 142.801 53.7371 142.801 53.666 142.801C52.4219 142.801 51.2134 142.339 50.1826 141.593C50.6447 141.699 51.1423 141.735 51.64 141.735C51.64 141.735 53.5594 141.735 53.5949 141.735H77.4099H103.144C107.481 141.771 109.187 139.176 109.898 135.017L117.967 75.515L125.822 17.7902C125.822 17.7902 126.071 15.9775 126.071 15.9064V15.9419C126.035 15.4798 125.964 15.0177 125.893 14.5557Z" fill="white"/>
<path opacity="0.15" d="M53.666 142.835C52.4219 142.835 51.2134 142.444 50.1826 141.662C50.6447 141.768 51.1423 141.804 51.64 141.804H77.3744H103.109C107.445 141.839 109.151 139.245 109.862 135.05L117.931 75.5482L126 16.0462V16.0107C126 15.513 125.964 15.0509 125.857 14.5889C126.604 15.5486 127.03 16.7571 127.03 18.0367L118.962 77.4676L110.893 136.899C110.289 139.742 108.476 142.799 105.135 142.799H79.4004H53.666V142.835Z" fill="white"/>
</g>
<path d="M101.654 16.9332H85.0896C84.7342 16.9332 84.5209 16.5777 84.6986 16.2933C84.8053 16.1512 84.9119 16.0801 85.0896 16.0801H101.654C102.009 16.0801 102.222 16.4355 102.045 16.7199C101.938 16.8976 101.831 16.9332 101.654 16.9332Z" fill="#4575C9"/>
<path d="M121.202 17.3279C120.954 18.7497 119.674 19.7094 118.43 19.4961C117.186 19.2473 116.297 17.9322 116.582 16.5104C116.83 15.0886 118.11 14.1289 119.354 14.3421C120.634 14.6265 121.451 15.9417 121.202 17.3279Z" fill="#4575C9"/>
<g opacity="0.24">
<path opacity="0.02439" d="M77 172.204C105.169 172.204 128 168.607 128 164.14C128 159.672 105.169 156.075 77 156.075C48.8307 156.075 26 159.672 26 164.14C26.0379 168.607 48.8686 172.204 77 172.204Z" fill="#FBFCFE"/>
<path opacity="0.04878" d="M77.0018 172.016C104.527 172.016 126.866 168.494 126.866 164.178C126.866 159.862 104.527 156.341 77.0018 156.341C49.4762 156.341 27.1377 159.862 27.1377 164.178C27.1756 168.494 49.4762 172.016 77.0018 172.016Z" fill="#F8FAFE"/>
<path opacity="0.073171" d="M77.0012 171.864C103.883 171.864 125.692 168.419 125.692 164.178C125.692 159.938 103.883 156.492 77.0012 156.492C50.1192 156.492 28.3486 159.9 28.3486 164.178C28.3486 168.419 50.1192 171.864 77.0012 171.864Z" fill="#F4F7FD"/>
<path opacity="0.097561" d="M76.9991 171.636C103.237 171.636 124.516 168.304 124.516 164.177C124.516 160.05 103.237 156.718 76.9991 156.718C50.7608 156.718 29.4824 160.05 29.4824 164.177C29.5203 168.304 50.7987 171.636 76.9991 171.636Z" fill="#F1F5FC"/>
<path opacity="0.122" d="M76.9994 171.485C102.594 171.485 123.305 168.229 123.305 164.178C123.305 160.127 102.556 156.871 76.9994 156.871C51.4427 156.871 30.6943 160.127 30.6943 164.178C30.6943 168.191 51.4427 171.485 76.9994 171.485Z" fill="#EDF2FC"/>
<path opacity="0.1463" d="M76.9976 171.258C101.911 171.258 122.129 168.078 122.129 164.178C122.129 160.278 101.911 157.098 76.9976 157.098C52.0845 157.098 31.8662 160.278 31.8662 164.178C31.8662 168.078 52.0845 171.258 76.9976 171.258Z" fill="#E9F0FB"/>
<path opacity="0.1707" d="M76.9995 171.106C101.307 171.106 120.995 168.002 120.995 164.178C120.995 160.354 101.307 157.249 76.9995 157.249C52.6921 157.249 33.0039 160.354 33.0039 164.178C33.0039 168.002 52.73 171.106 76.9995 171.106Z" fill="#E6EDFA"/>
<path opacity="0.1951" d="M76.9996 170.917C100.663 170.917 119.821 167.888 119.821 164.14C119.821 160.392 100.663 157.363 76.9996 157.363C53.3359 157.363 34.1777 160.392 34.1777 164.14C34.1777 167.888 53.3737 170.917 76.9996 170.917Z" fill="#E2EBFA"/>
<path opacity="0.2195" d="M77.0378 170.728C100.058 170.728 118.686 167.774 118.686 164.178C118.686 160.543 100.058 157.627 77.0378 157.627C54.0178 157.627 35.3897 160.581 35.3897 164.178C35.3518 167.774 54.0178 170.728 77.0378 170.728Z" fill="#DFE8F9"/>
<path opacity="0.2439" d="M77.0369 170.539C99.3754 170.539 117.511 167.661 117.511 164.14C117.511 160.619 99.3754 157.741 77.0369 157.741C54.6984 157.741 36.5625 160.619 36.5625 164.14C36.5625 167.699 54.6605 170.539 77.0369 170.539Z" fill="#DBE6F8"/>
<path opacity="0.2683" d="M77.0026 170.35C98.7353 170.35 116.341 167.586 116.341 164.178C116.341 160.771 98.7353 158.007 77.0026 158.007C55.2699 158.007 37.6641 160.771 37.6641 164.178C37.6641 167.586 55.3077 170.35 77.0026 170.35Z" fill="#D8E3F7"/>
<path opacity="0.2927" d="M77.0007 170.197C98.0898 170.197 115.166 167.509 115.166 164.177C115.166 160.845 98.0898 158.157 77.0007 158.157C55.9117 158.157 38.8359 160.845 38.8359 164.177C38.8359 167.509 55.9495 170.197 77.0007 170.197Z" fill="#D4E1F7"/>
<path opacity="0.3171" d="M76.9999 169.971C97.4074 169.971 113.991 167.358 113.991 164.178C113.991 160.959 97.4453 158.385 76.9999 158.385C56.5923 158.385 40.0088 160.997 40.0088 164.178C40.0467 167.358 56.5923 169.971 76.9999 169.971Z" fill="#D0DEF6"/>
<path opacity="0.3415" d="M76.999 169.819C96.7629 169.819 112.779 167.282 112.779 164.178C112.779 161.073 96.7629 158.536 76.999 158.536C57.2351 158.536 41.1816 161.073 41.1816 164.178C41.2195 167.282 57.2351 169.819 76.999 169.819Z" fill="#CDDCF5"/>
<path opacity="0.3659" d="M77.0003 169.63C96.1206 169.63 111.606 167.169 111.606 164.14C111.606 161.111 96.1206 158.65 77.0003 158.65C57.8801 158.65 42.3945 161.111 42.3945 164.14C42.3945 167.207 57.8801 169.63 77.0003 169.63Z" fill="#C9D9F5"/>
<path opacity="0.3902" d="M76.998 169.44C95.5125 169.44 110.506 167.093 110.506 164.177C110.506 161.262 95.5125 158.915 76.998 158.915C58.4835 158.915 43.4902 161.262 43.4902 164.177C43.5281 167.055 58.5214 169.44 76.998 169.44Z" fill="#C6D7F4"/>
<path opacity="0.4146" d="M77.0003 169.251C94.8333 169.251 109.297 166.979 109.297 164.14C109.297 161.338 94.8333 159.028 77.0003 159.028C59.1674 159.028 44.7041 161.3 44.7041 164.14C44.7041 166.979 59.1674 169.251 77.0003 169.251Z" fill="#C2D4F3"/>
<path opacity="0.439" d="M76.9994 169.061C94.1887 169.061 108.122 166.865 108.122 164.177C108.122 161.489 94.1887 159.293 76.9994 159.293C59.8101 159.293 45.877 161.489 45.877 164.177C45.877 166.865 59.8101 169.061 76.9994 169.061Z" fill="#BED2F3"/>
<path opacity="0.4634" d="M77.0015 168.873C93.5472 168.873 106.95 166.752 106.95 164.14C106.95 161.527 93.5472 159.407 77.0015 159.407C60.4559 159.407 47.0527 161.527 47.0527 164.14C47.0527 166.79 60.4937 168.873 77.0015 168.873Z" fill="#BBCFF2"/>
<path opacity="0.4878" d="M77.0385 168.684C92.9405 168.684 105.851 166.677 105.851 164.178C105.851 161.679 92.9405 159.672 77.0385 159.672C61.1365 159.672 48.2256 161.679 48.2256 164.178C48.2256 166.677 61.0986 168.684 77.0385 168.684Z" fill="#B7CDF1"/>
<path opacity="0.5122" d="M77.0377 168.532C92.2961 168.532 104.677 166.601 104.677 164.178C104.677 161.755 92.2961 159.824 77.0377 159.824C61.7794 159.824 49.3985 161.755 49.3985 164.178C49.3607 166.563 61.7415 168.532 77.0377 168.532Z" fill="#B4CAF1"/>
<path opacity="0.5366" d="M77.0006 168.342C91.6153 168.342 103.466 166.449 103.466 164.14C103.466 161.83 91.6153 159.937 77.0006 159.937C62.3859 159.937 50.5352 161.83 50.5352 164.14C50.573 166.487 62.4238 168.342 77.0006 168.342Z" fill="#B0C8F0"/>
<path opacity="0.561" d="M77.0388 168.154C91.0099 168.154 102.331 166.374 102.331 164.178C102.331 161.982 91.0099 160.203 77.0388 160.203C63.0678 160.203 51.7471 161.982 51.7471 164.178C51.7471 166.374 63.0678 168.154 77.0388 168.154Z" fill="#ADC5EF"/>
<path opacity="0.5854" d="M101.116 164.179C101.116 166.261 90.3258 168.003 77.0362 168.003C63.7467 168.003 52.9561 166.299 52.9561 164.179C52.9561 162.096 63.7467 160.354 77.0362 160.354C90.3258 160.354 101.116 162.058 101.116 164.179Z" fill="#A9C3EF"/>
<path opacity="0.6098" d="M76.9988 167.775C89.6825 167.775 99.981 166.147 99.981 164.178C99.981 162.171 89.6825 160.581 76.9988 160.581C64.315 160.581 54.0166 162.209 54.0166 164.178C54.0545 166.147 64.315 167.775 76.9988 167.775Z" fill="#A5C0EE"/>
<path opacity="0.6341" d="M76.9989 167.585C89.039 167.585 98.8074 166.033 98.8074 164.14C98.8074 162.247 89.039 160.694 76.9989 160.694C64.9588 160.694 55.1904 162.247 55.1904 164.14C55.2283 166.071 64.9967 167.585 76.9989 167.585Z" fill="#A2BEED"/>
<path opacity="0.6585" d="M97.6361 164.177C97.6361 165.957 88.3978 167.396 77.0393 167.396C65.6428 167.396 56.4424 165.957 56.4424 164.177C56.4424 162.398 65.6807 160.959 77.0393 160.959C88.3978 160.921 97.6361 162.398 97.6361 164.177Z" fill="#9EBBED"/>
<path opacity="0.6829" d="M76.9993 167.207C87.7143 167.207 96.4225 165.844 96.4225 164.141C96.4225 162.437 87.7143 161.074 76.9993 161.074C66.2844 161.074 57.5762 162.437 57.5762 164.141C57.5762 165.844 66.2844 167.207 76.9993 167.207Z" fill="#9BB9EC"/>
<path opacity="0.7073" d="M77.0014 167.056C87.0727 167.056 95.2508 165.769 95.2508 164.14C95.2508 162.55 87.0727 161.225 77.0014 161.225C66.9301 161.225 58.752 162.512 58.752 164.14C58.752 165.769 66.9301 167.056 77.0014 167.056Z" fill="#97B6EB"/>
<path opacity="0.7317" d="M94.1529 164.178C94.1529 165.692 86.467 166.866 77.0394 166.866C67.6118 166.866 59.9258 165.692 59.9258 164.178C59.9258 162.663 67.6118 161.49 77.0394 161.49C86.467 161.49 94.1529 162.701 94.1529 164.178Z" fill="#93B4EB"/>
<path opacity="0.7561" d="M77.0014 166.676C85.8232 166.676 92.9413 165.54 92.9413 164.139C92.9413 162.738 85.8232 161.603 77.0014 161.603C68.1796 161.603 61.0615 162.738 61.0615 164.139C61.0615 165.54 68.2174 166.676 77.0014 166.676Z" fill="#90B1EA"/>
<path opacity="0.7805" d="M77.0005 166.488C85.1408 166.488 91.7667 165.466 91.7667 164.178C91.7667 162.891 85.1408 161.869 77.0005 161.869C68.8602 161.869 62.2344 162.891 62.2344 164.178C62.2722 165.428 68.8602 166.488 77.0005 166.488Z" fill="#8CAFE9"/>
<path opacity="0.8049" d="M90.5921 164.178C90.5921 165.351 84.5342 166.336 76.9997 166.336C69.503 166.336 63.4072 165.351 63.4072 164.178C63.4072 163.004 69.4651 162.02 76.9997 162.02C84.5342 162.02 90.5921 162.966 90.5921 164.178Z" fill="#89ACE8"/>
<path opacity="0.8293" d="M77.0367 166.108C83.9275 166.108 89.4932 165.238 89.4932 164.178C89.4932 163.117 83.9275 162.247 77.0367 162.247C70.1458 162.247 64.5801 163.117 64.5801 164.178C64.5801 165.238 70.1458 166.108 77.0367 166.108Z" fill="#85AAE8"/>
<path opacity="0.8537" d="M77.0387 165.919C83.2481 165.919 88.3216 165.124 88.3216 164.14C88.3216 163.155 83.2859 162.36 77.0387 162.36C70.7915 162.36 65.7559 163.155 65.7559 164.14C65.7559 165.124 70.7915 165.919 77.0387 165.919Z" fill="#82A7E7"/>
<path opacity="0.878" d="M87.1069 164.178C87.1069 165.049 82.6014 165.806 76.9978 165.806C71.4321 165.806 66.8887 165.125 66.8887 164.178C66.8887 163.308 71.3942 162.55 76.9978 162.55C82.6014 162.55 87.1069 163.308 87.1069 164.178Z" fill="#7EA5E6"/>
<path opacity="0.9024" d="M77.0394 165.541C81.9615 165.541 85.937 164.897 85.937 164.14C85.937 163.383 81.9615 162.739 77.0394 162.739C72.1174 162.739 68.1419 163.383 68.1419 164.14C68.104 164.935 72.1174 165.541 77.0394 165.541Z" fill="#7AA2E6"/>
<path opacity="0.9268" d="M77.0373 165.389C81.3157 165.389 84.7611 164.821 84.7611 164.14C84.7611 163.458 81.3157 162.89 77.0373 162.89C72.7589 162.89 69.3135 163.458 69.3135 164.14C69.3135 164.821 72.7589 165.389 77.0373 165.389Z" fill="#77A0E5"/>
<path opacity="0.9512" d="M83.6271 164.178C83.6271 164.783 80.6739 165.2 77.0391 165.2C73.4044 165.2 70.4512 164.708 70.4512 164.178C70.4512 163.572 73.4044 163.155 77.0391 163.155C80.6739 163.155 83.6271 163.61 83.6271 164.178Z" fill="#739DE4"/>
<path opacity="0.9756" d="M77.0002 165.01C79.9913 165.01 82.4144 164.632 82.4144 164.139C82.4144 163.647 79.9913 163.269 77.0002 163.269C74.0091 163.269 71.5859 163.647 71.5859 164.139C71.5859 164.632 74.0091 165.01 77.0002 165.01Z" fill="#709BE4"/>
<path opacity="0.5" d="M77.0003 164.821C79.3477 164.821 81.2408 164.519 81.2408 164.178C81.2408 163.837 79.3477 163.534 77.0003 163.534C74.6529 163.534 72.7598 163.837 72.7598 164.178C72.7598 164.519 74.6907 164.821 77.0003 164.821Z" fill="#6C98E3"/>
</g>
<path d="M103.61 63.2525C101.157 63.2525 99.1309 61.2264 99.1309 58.7738L101.299 44.5914C101.299 42.1033 103.325 40.1128 105.778 40.1128H149C151.453 40.1128 153.479 42.1388 153.479 44.5914L151.311 58.7738C150.849 60.942 149.462 63.3236 146.832 63.3236H103.61V63.2525Z" fill="url(#paint2_linear)"/>
<path d="M151.916 41.1772C152.555 41.9948 153.017 42.99 153.017 44.0919L150.849 58.2743C150.387 60.4425 149.001 62.824 146.371 62.824H103.148C102.046 62.824 100.98 62.433 100.233 61.7221C101.051 62.6819 102.259 63.2861 103.61 63.2861H146.833C149.463 63.2861 150.849 60.9046 151.311 58.7364L153.48 44.554C153.48 43.2033 152.875 41.9948 151.916 41.1772Z" fill="#274187"/>
<path d="M118.715 49.458C118.573 49.458 118.396 49.3158 118.396 49.1381L118.609 47.6807C118.609 47.5386 118.751 47.3608 118.929 47.3608H149.177C149.319 47.3608 149.497 47.503 149.497 47.6807L149.284 49.1381C149.248 49.2803 149.142 49.458 148.964 49.458H118.715Z" fill="#B3CDFA"/>
<path d="M118.182 53.4419C118.04 53.4419 117.862 53.2997 117.862 53.122L118.076 51.6646C118.076 51.5224 118.218 51.3447 118.395 51.3447H148.609C148.751 51.3447 148.893 51.4869 148.893 51.6646L148.68 53.122C148.644 53.2641 148.537 53.4419 148.395 53.4419H118.182Z" fill="#B3CDFA"/>
<path d="M117.718 57.3872C117.576 57.3872 117.398 57.245 117.398 57.0673L117.612 55.6099C117.612 55.4678 117.754 55.29 117.932 55.29H136.557C136.699 55.29 136.877 55.4322 136.877 55.6099L136.664 57.0673C136.628 57.2095 136.522 57.3872 136.344 57.3872H117.718Z" fill="#B3CDFA"/>
<path d="M112.423 52.4467H113.525C113.738 52.4467 113.987 52.2334 114.023 52.0557L114.272 50.6339C114.307 50.4207 114.165 50.2429 113.916 50.2429H113.063C112.921 50.2429 112.814 50.1363 112.743 49.9941C112.743 49.8875 112.708 49.8519 112.708 49.7453C112.672 49.6031 112.708 49.4254 112.85 49.3543L113.561 48.75C113.774 48.6079 113.81 48.359 113.667 48.1813L112.85 47.1861C112.708 47.0439 112.459 47.0439 112.281 47.1861L111.535 47.7903C111.428 47.897 111.286 47.897 111.144 47.8259C111.037 47.7903 111.001 47.7192 110.895 47.7192C110.788 47.6837 110.682 47.5771 110.753 47.3993L110.895 46.5463C110.93 46.333 110.788 46.1553 110.539 46.1553H109.189C108.975 46.1553 108.727 46.3685 108.691 46.5463L108.549 47.3993C108.513 47.5415 108.407 47.6482 108.229 47.7192C108.122 47.7548 108.016 47.7548 107.98 47.8259C107.838 47.8614 107.66 47.8614 107.625 47.7903L107.127 47.1861C106.985 47.0439 106.736 47.0439 106.558 47.1861L105.385 48.1813C105.172 48.3235 105.137 48.5723 105.279 48.75L105.776 49.3543C105.883 49.4609 105.883 49.6031 105.776 49.7098C105.741 49.8164 105.67 49.923 105.634 49.9586C105.599 50.1007 105.421 50.1718 105.279 50.1718H104.426C104.212 50.1718 103.964 50.3851 103.928 50.5628L103.679 51.9846C103.644 52.1979 103.786 52.3756 104.035 52.3756H104.888C105.03 52.3756 105.137 52.4822 105.208 52.6244C105.208 52.7311 105.243 52.7666 105.243 52.8732C105.279 53.0154 105.243 53.1931 105.101 53.2642L104.39 53.8685C104.177 54.0107 104.141 54.2595 104.283 54.4372L105.101 55.4325C105.243 55.5746 105.492 55.5746 105.67 55.4325L106.416 54.8282C106.523 54.7216 106.665 54.7216 106.807 54.7927C106.914 54.8282 106.949 54.8993 107.056 54.8993C107.163 54.9348 107.269 55.0415 107.198 55.2192L107.056 56.0723C107.02 56.2855 107.163 56.4633 107.411 56.4633H108.833C109.046 56.4633 109.295 56.25 109.331 56.0723L109.473 55.2192C109.509 55.077 109.615 54.9704 109.793 54.8993C109.9 54.8638 109.935 54.8638 110.042 54.7927C110.184 54.7571 110.326 54.7571 110.397 54.8282L110.895 55.4325C111.037 55.5746 111.286 55.5746 111.464 55.4325L112.637 54.4372C112.85 54.295 112.885 54.0462 112.743 53.8685L112.246 53.2642C112.139 53.1576 112.139 53.0154 112.246 52.9088C112.281 52.7311 112.423 52.4822 112.423 52.4467ZM107.02 50.9894C107.483 49.7453 108.94 49.0344 110.006 49.4609C110.824 49.8164 111.215 50.7761 110.859 51.6647C110.397 52.9088 108.94 53.6197 107.874 53.1931C107.092 52.9088 106.665 51.9491 107.02 50.9894Z" fill="white"/>
<path d="M55.2343 132.813C52.4973 132.813 50.3291 130.645 50.3291 127.908L53.848 104.342V104.306C53.848 101.569 56.0518 99.4009 58.7532 99.4009H106.028C108.765 99.4009 110.897 101.569 110.897 104.306L107.379 127.837C106.881 130.218 105.317 132.777 102.509 132.777H55.2343V132.813V132.813Z" fill="url(#paint3_linear)"/>
<path d="M108.94 100.396C109.545 101.213 109.9 102.208 109.9 103.31L106.381 126.841C105.884 129.222 104.32 131.782 101.512 131.782H54.2369C53.135 131.782 52.1043 131.426 51.3223 130.822C52.2464 132.03 53.6327 132.777 55.2677 132.777H102.542C105.421 132.777 106.985 130.218 107.448 127.836L110.966 104.305C110.895 102.67 110.149 101.249 108.94 100.396Z" fill="#274187"/>
<path d="M59.5704 117.209C58.9662 117.209 58.3975 116.711 58.3975 116.036L59.215 110.527C59.215 109.887 59.7126 109.354 60.388 109.354H66.6794C67.2837 109.354 67.8524 109.851 67.8524 110.527L67.0349 116.036C66.9282 116.605 66.5372 117.209 65.8619 117.209H59.5704Z" fill="#2ACEE0"/>
<path d="M55.5869 123.497C55.3736 123.497 55.2314 123.355 55.2314 123.142L55.4803 121.542C55.4803 121.329 55.6224 121.187 55.8357 121.187H63.4778C63.6911 121.187 63.8333 121.329 63.8333 121.542L63.5845 123.142C63.5489 123.284 63.4423 123.497 63.229 123.497H55.5869Z" fill="#B3CDFA"/>
<path d="M65.6836 123.497C65.4703 123.497 65.3281 123.355 65.3281 123.142L65.5769 121.542C65.5769 121.329 65.7191 121.187 65.9324 121.187H86.1929C86.4062 121.187 86.5484 121.329 86.5484 121.542L86.2996 123.142C86.264 123.284 86.1574 123.497 85.9441 123.497H65.6836Z" fill="#B3CDFA"/>
<path d="M88.3262 123.497C88.1129 123.497 87.9707 123.355 87.9707 123.142L88.2195 121.542C88.2195 121.329 88.3617 121.187 88.575 121.187H101.264C101.478 121.187 101.62 121.329 101.62 121.542L101.371 123.142C101.336 123.284 101.229 123.497 101.016 123.497H88.3262Z" fill="#B3CDFA"/>
<path d="M54.4844 128.653C54.2711 128.653 54.1289 128.511 54.1289 128.298L54.3777 126.698C54.3777 126.485 54.5199 126.343 54.7332 126.343H81.605C81.8183 126.343 81.9605 126.485 81.9605 126.698L81.7117 128.298C81.6761 128.44 81.5695 128.653 81.3562 128.653H54.4844Z" fill="#B3CDFA"/>
<path d="M71.0146 86.8175C70.2682 89.9098 67.2469 92.3624 64.1545 92.3624C61.0976 92.3624 59.2137 89.8743 59.9602 86.8175C60.7066 83.7251 63.7279 81.2725 66.8203 81.2725C69.9127 81.2725 71.761 83.7961 71.0146 86.8175Z" fill="#E3EDFE"/>
<path d="M69.8411 82.374C70.7652 83.3693 71.0852 84.8622 70.7652 86.4972C70.0188 89.5896 66.9975 92.0422 63.9051 92.0422C62.6966 92.0422 61.6302 91.6512 60.8838 90.9403C61.6302 91.7934 62.8032 92.291 64.225 92.291C67.2819 92.291 70.3743 89.8029 71.0851 86.746C71.4406 85.0043 70.943 83.4048 69.8411 82.374Z" fill="white"/>
<path d="M64.1907 89.0929L62.7334 87.1735L64.0841 86.0716L64.7239 86.8891L67.5319 84.6143L68.3495 85.7161L64.1907 89.0929Z" fill="#3457B4"/>
<path d="M81.3923 74.7666H49.0821C46.4162 74.7666 44.6034 72.5983 44.9944 69.9325L51.5702 27.3854C51.9612 24.7195 54.4849 22.5513 57.1507 22.5513H89.461C92.1268 22.5513 93.9396 24.7195 93.5486 27.3854L87.0084 69.9325C86.5818 72.5983 84.0582 74.7666 81.3923 74.7666Z" fill="url(#paint4_linear)"/>
<path d="M91.9159 23.3335C92.5201 24.1866 92.7689 25.2885 92.6268 26.497L86.0865 69.0441C85.6955 71.71 83.1718 73.8782 80.506 73.8782H48.1958C47.236 73.8782 46.383 73.5583 45.7432 73.1318C46.4541 74.127 47.6626 74.8024 49.1555 74.8024H81.4301C84.096 74.8024 86.6197 72.6341 87.0107 69.9683L93.5509 27.4211C93.7997 25.715 93.1244 24.2221 91.9159 23.3335Z" fill="#B3CDFA"/>
<path d="M88.3235 29.2338C88.0747 30.9044 86.5107 32.2196 84.9112 32.2196C83.2406 32.2196 82.1387 30.9044 82.3876 29.2338C82.6364 27.5632 84.2003 26.248 85.7998 26.248C87.4704 26.2836 88.6079 27.6343 88.3235 29.2338Z" fill="url(#paint5_linear)"/>
<path d="M84.6984 30.7607L83.5254 29.41L84.1297 28.9123L84.7695 29.6588L86.7244 27.9526L87.222 28.5214L84.6984 30.7607Z" fill="white"/>
<path d="M57.4024 59.6266L56.2295 58.9868C56.2295 58.9868 56.1939 58.9868 56.1228 58.9868L54.7721 59.6266C54.7366 59.6621 54.6299 59.6266 54.6655 59.52L55.1276 58.0982C55.1276 58.0626 55.1276 58.0626 55.1276 58.0626L54.2745 57.1029C54.2389 57.0674 54.2745 56.9607 54.31 56.9607L55.7318 56.7475C55.7674 56.7475 55.7674 56.7475 55.7674 56.7119L56.5849 55.4679C56.6204 55.4323 56.7271 55.4323 56.7271 55.4679L57.1892 56.7119L57.2247 56.7475L58.5754 56.9607C58.611 56.9607 58.682 57.0674 58.611 57.1029L57.438 58.0982L57.4024 58.1337L57.438 59.5555C57.5446 59.5911 57.438 59.6266 57.4024 59.6266ZM63.3029 59.52L63.2673 58.0982C63.2673 58.0626 63.2673 58.0626 63.3029 58.0626L64.4758 57.0674C64.5114 57.0318 64.5114 56.9252 64.4403 56.9252L63.0896 56.7119C63.0541 56.7119 63.0541 56.7119 63.0541 56.6764L62.592 55.4323C62.592 55.3968 62.4853 55.3968 62.4498 55.4323L61.6323 56.6764L61.5967 56.7119L60.1749 56.9252C60.1394 56.9252 60.0683 57.0318 60.1394 57.0674L60.9925 58.0271V58.0626L60.5304 59.4844C60.5304 59.52 60.5659 59.5911 60.637 59.5911L61.9877 58.9513C62.0233 58.9513 62.0233 58.9513 62.0943 58.9513L63.2673 59.5911C63.1962 59.6266 63.3029 59.5911 63.3029 59.52ZM69.0256 59.52L68.99 58.0982C68.99 58.0626 68.99 58.0626 69.0256 58.0626L70.1986 57.0674C70.2341 57.0318 70.2341 56.9252 70.163 56.9252L68.8123 56.7119C68.7768 56.7119 68.7768 56.7119 68.7768 56.6764L68.2791 55.3968C68.2791 55.3612 68.1725 55.3612 68.137 55.3968L67.3194 56.6408L67.2839 56.6764L65.8621 56.8897C65.8265 56.8897 65.7555 56.9963 65.8266 57.0318L66.6796 57.9915V58.0271L66.2175 59.4489C66.2175 59.4844 66.2531 59.5555 66.3242 59.5555L67.6749 58.9157C67.7104 58.9157 67.7104 58.9157 67.7815 58.9157L68.9545 59.5555C68.9545 59.6266 69.0256 59.5911 69.0256 59.52ZM74.7838 59.52L74.7483 58.0982C74.7483 58.0626 74.7483 58.0626 74.7838 58.0626L75.9568 57.0674C75.9924 57.0318 75.9924 56.9252 75.9213 56.9252L74.5706 56.7119C74.535 56.7119 74.535 56.7119 74.535 56.6764L74.0729 55.4323C74.0729 55.3968 73.9663 55.3968 73.9308 55.4323L73.1132 56.6764L73.0777 56.7119L71.6559 56.9252C71.6204 56.9252 71.5493 57.0318 71.6204 57.0674L72.4734 58.0271V58.0626L72.0113 59.4844C72.0113 59.52 72.0469 59.5911 72.118 59.5911L73.4687 58.9513C73.5042 58.9513 73.5042 58.9513 73.5753 58.9513L74.7483 59.5911C74.6772 59.6266 74.7838 59.5911 74.7838 59.52ZM80.5421 59.52L80.5066 58.0982C80.5066 58.0626 80.5066 58.0626 80.5421 58.0626L81.7151 57.0674C81.7506 57.0318 81.7506 56.9252 81.6795 56.9252L80.3288 56.7119C80.2933 56.7119 80.2933 56.7119 80.2933 56.6764L79.8312 55.4323C79.8312 55.3968 79.7246 55.3968 79.689 55.4323L78.8715 56.6764L78.8359 56.7119L77.4142 56.9252C77.3786 56.9252 77.3075 57.0318 77.3786 57.0674L78.2317 58.0271V58.0626L77.7696 59.4844C77.7696 59.52 77.8051 59.5911 77.8762 59.5911L79.2269 58.9513C79.2625 58.9513 79.2625 58.9513 79.3336 58.9513L80.5066 59.5911C80.471 59.6266 80.5421 59.5911 80.5421 59.52Z" fill="#2ACEE0"/>
<path d="M71.371 70.4319H60.5298C58.8237 70.4319 57.6507 69.0812 57.8995 67.3395C58.1483 65.6333 59.7478 64.2471 61.4184 64.2471H72.2596C73.9657 64.2471 75.1387 65.5978 74.8899 67.3395C74.6411 69.0812 73.006 70.4319 71.371 70.4319Z" fill="url(#paint6_linear)"/>
<path d="M78.726 36.3448H65.5034V36.0605C65.5389 35.1363 64.828 34.4609 63.9038 34.4609H62.5887C62.2332 34.4609 61.9133 34.7453 61.8422 35.1007C61.7711 35.4562 62.02 35.7405 62.3754 35.7405H63.7261C64.046 35.7405 64.2593 35.9538 64.2593 36.2737L64.1882 43.205C64.1882 43.2405 64.1882 43.276 64.1882 43.3471V44.5912C64.1882 45.6931 64.9702 46.5106 66.0721 46.5106H74.9938C75.3493 46.5106 75.6692 46.2263 75.7403 45.8708C75.8113 45.5154 75.5625 45.231 75.2071 45.231H66.2853C65.7877 45.231 65.4323 44.8756 65.4678 44.4135V43.8803H75.8113C76.0957 43.8803 76.3801 43.667 76.5222 43.4182L79.2592 37.2334C79.3303 37.0557 79.3303 36.8424 79.2592 36.7003C79.117 36.4514 78.9393 36.3448 78.726 36.3448Z" fill="#1449A8"/>
<path d="M66.1824 46.8281C65.116 46.8281 64.0852 47.6812 63.8719 48.7831C63.6942 49.8494 64.4051 50.7381 65.4715 50.7381C66.5733 50.7381 67.5686 49.8494 67.7463 48.7831C67.9596 47.6812 67.2487 46.8281 66.1824 46.8281Z" fill="#1449A8"/>
<path d="M72.365 46.8281C71.2986 46.8281 70.2678 47.6812 70.0546 48.7831C69.8768 49.8494 70.5877 50.7381 71.6541 50.7381C72.7204 50.7381 73.7512 49.885 73.9645 48.7831C74.1778 47.6812 73.4313 46.8281 72.365 46.8281Z" fill="#1449A8"/>
<path d="M123.017 94.1023H80.576C79.4742 94.1023 78.6566 93.1782 78.7633 92.0407L80.0784 80.9508C80.2206 79.8489 81.2514 78.8892 82.3533 78.8892H124.829C125.931 78.8892 126.749 79.8133 126.642 80.9508L125.327 92.0407C125.185 93.1782 124.154 94.1023 123.017 94.1023Z" fill="url(#paint7_linear)"/>
<path d="M125.684 79.106C125.826 79.4259 125.933 79.8169 125.897 80.1723L124.582 91.2623C124.44 92.3642 123.409 93.3239 122.307 93.3239H79.8668C79.5824 93.3239 79.2625 93.2172 79.0137 93.1106C79.3336 93.6793 79.9378 94.0703 80.6132 94.0703H123.054C124.156 94.0703 125.222 93.1462 125.329 92.0087L126.644 80.9187C126.679 80.1012 126.288 79.4614 125.684 79.106Z" fill="#B3CDFA"/>
<path d="M124.651 78.8892H82.4948C81.2862 78.8892 80.1844 79.8489 80.0777 81.0574L79.9355 82.4792H126.428L126.57 81.0574C126.748 79.8489 125.859 78.8892 124.651 78.8892Z" fill="url(#paint8_linear)"/>
<path d="M125.68 79.21C125.822 79.5299 125.893 79.8498 125.822 80.2052L125.573 82.5156L126.391 82.8355L126.497 82.1957L126.604 81.1294C126.675 80.2763 126.32 79.5654 125.68 79.21Z" fill="#3457B4"/>
<path d="M121.913 86.6042H92.0551C91.9129 86.6042 91.8418 86.4976 91.8418 86.3554L91.9129 85.8223C91.9129 85.7156 92.0195 85.6445 92.1262 85.6445H121.984C122.126 85.6445 122.197 85.7512 122.197 85.8933L122.126 86.4265C122.09 86.5331 122.019 86.6042 121.913 86.6042Z" fill="#C2D7FB"/>
<path d="M121.558 89.3748H91.7006C91.5584 89.3748 91.4873 89.2681 91.4873 89.1259L91.5584 88.5928C91.5584 88.4861 91.665 88.415 91.7717 88.415H121.594C121.736 88.415 121.807 88.5217 121.807 88.6639L121.736 89.197C121.736 89.3037 121.665 89.3748 121.558 89.3748Z" fill="#C2D7FB"/>
<path d="M84.3419 80.6672C84.3064 80.916 84.0931 81.1292 83.8443 81.1292C83.5955 81.1292 83.3822 80.916 83.4533 80.6672C83.4889 80.4184 83.7021 80.2051 83.9509 80.2051C84.1998 80.2051 84.3419 80.4184 84.3419 80.6672Z" fill="#E3EDFE"/>
<path d="M86.3331 80.6657C86.2976 80.9145 86.0843 81.1278 85.8355 81.1278C85.5867 81.1278 85.3734 80.9145 85.4445 80.6657C85.4801 80.4169 85.6933 80.2036 85.9422 80.2036C86.1554 80.2036 86.3331 80.4169 86.3331 80.6657Z" fill="#E3EDFE"/>
<path d="M88.2892 80.6657C88.2537 80.9145 88.0404 81.1278 87.7916 81.1278C87.5428 81.1278 87.3295 80.9145 87.4006 80.6657C87.4717 80.4169 87.6494 80.2036 87.8982 80.2036C88.147 80.2036 88.3247 80.4169 88.2892 80.6657Z" fill="#E3EDFE"/>
<path d="M87.9694 86.3907H86.9031L86.9742 86.0353C87.1163 85.2888 86.6187 84.6846 85.9078 84.6846C85.1969 84.6846 84.486 85.2888 84.3438 86.0353L84.2728 86.3907H83.2064C83.0998 86.3907 83.0287 86.4618 82.9931 86.5685L82.2467 90.7983C82.2111 91.0826 82.3889 91.2959 82.6732 91.2959H86.7609C87.0452 91.2959 87.2941 91.0826 87.3652 90.7983L88.1116 86.5685C88.1471 86.4618 88.076 86.3907 87.9694 86.3907ZM84.7704 86.0353C84.877 85.5377 85.3391 85.1111 85.8367 85.1111C86.3343 85.1111 86.6543 85.5377 86.5476 86.0353L86.4765 86.3907H84.6993L84.7704 86.0353Z" fill="#1449A8"/>
</g>
<defs>
<linearGradient id="paint0_linear" x1="110.087" y1="86.7261" x2="118.784" y2="86.7261" gradientUnits="userSpaceOnUse">
<stop stop-color="#E3EDFE"/>
<stop offset="1" stop-color="#BFD5FB"/>
</linearGradient>
<linearGradient id="paint1_linear" x1="59.2208" y1="146.301" x2="122.67" y2="-1.01627" gradientUnits="userSpaceOnUse">
<stop offset="0.2738" stop-color="#B3CDFA"/>
<stop offset="0.4057" stop-color="#B9D1FA"/>
<stop offset="0.5742" stop-color="#C8DBFC"/>
<stop offset="0.762" stop-color="#E3EDFE"/>
<stop offset="0.7651" stop-color="#E3EDFE"/>
<stop offset="1" stop-color="#B3CDFA"/>
</linearGradient>
<linearGradient id="paint2_linear" x1="99.1774" y1="51.6816" x2="153.333" y2="51.6816" gradientUnits="userSpaceOnUse">
<stop stop-color="#6092E9"/>
<stop offset="0.442" stop-color="#3C6EC6"/>
<stop offset="1" stop-color="#2D60BC"/>
</linearGradient>
<linearGradient id="paint3_linear" x1="50.4108" y1="116.096" x2="110.74" y2="116.096" gradientUnits="userSpaceOnUse">
<stop stop-color="#6092E9"/>
<stop offset="0.442" stop-color="#3C6EC6"/>
<stop offset="1" stop-color="#2D60BC"/>
</linearGradient>
<linearGradient id="paint4_linear" x1="85.6113" y1="73.0135" x2="53.2506" y2="24.7753" gradientUnits="userSpaceOnUse">
<stop stop-color="#E9F1FE"/>
<stop offset="1" stop-color="white"/>
</linearGradient>
<linearGradient id="paint5_linear" x1="82.4535" y1="28.8022" x2="88.278" y2="29.6996" gradientUnits="userSpaceOnUse">
<stop stop-color="#3457B4"/>
<stop offset="1" stop-color="#6C98E3"/>
</linearGradient>
<linearGradient id="paint6_linear" x1="57.8729" y1="67.3498" x2="74.9217" y2="67.3498" gradientUnits="userSpaceOnUse">
<stop stop-color="#6092E9"/>
<stop offset="0.442" stop-color="#3C6EC6"/>
<stop offset="1" stop-color="#2D60BC"/>
</linearGradient>
<linearGradient id="paint7_linear" x1="80.0096" y1="81.1637" x2="125.392" y2="91.7809" gradientUnits="userSpaceOnUse">
<stop stop-color="#E9F1FE"/>
<stop offset="1" stop-color="white"/>
</linearGradient>
<linearGradient id="paint8_linear" x1="80.4166" y1="78.1289" x2="126.311" y2="83.4953" gradientUnits="userSpaceOnUse">
<stop stop-color="#3457B4"/>
<stop offset="0.2224" stop-color="#3A5EB9"/>
<stop offset="0.5521" stop-color="#4C72C8"/>
<stop offset="0.9471" stop-color="#6893DF"/>
<stop offset="1" stop-color="#6C98E3"/>
</linearGradient>
</defs>
</svg>
