<svg width="180" height="180" viewBox="0 0 180 180" fill="none" xmlns="http://www.w3.org/2000/svg">
<mask id="mask0" mask-type="alpha" maskUnits="userSpaceOnUse" x="0" y="0" width="180" height="180">
<rect width="180" height="180" fill="#C4C4C4"/>
</mask>
<g mask="url(#mask0)">
<path d="M83.7031 59.1999V68.0923C83.7031 69.2039 84.5765 70.1566 85.7674 70.1566H86.6805V72.2606V74.9998C86.6805 75.1983 86.9187 75.2777 87.1172 75.1586L92.2383 70.1963H98.2724C99.4237 70.1963 100.337 69.323 100.337 68.132V59.2396C100.337 58.0884 99.4634 57.1753 98.2724 57.1753H85.7674C84.5765 57.1753 83.7031 58.0884 83.7031 59.1999Z" fill="#26C6DA"/>
<path d="M96.8427 61.3041H87.0769C86.7196 61.3041 86.3623 60.9866 86.3623 60.5896C86.3623 60.2323 86.6799 59.875 87.0769 59.875H96.8427C97.1999 59.875 97.5572 60.1926 97.5572 60.5896C97.5572 61.0263 97.2396 61.3041 96.8427 61.3041Z" fill="white"/>
<path d="M96.8427 64.0034H87.0769C86.6402 64.0034 86.3623 63.7255 86.3623 63.2888C86.3623 62.8521 86.6402 62.5742 87.0769 62.5742H96.8427C97.2793 62.5742 97.5572 62.8521 97.5572 63.2888C97.5572 63.7255 97.2396 64.0034 96.8427 64.0034Z" fill="white"/>
<path d="M92.7941 66.7426H87.0378C86.6011 66.7426 86.3232 66.4647 86.3232 66.028C86.3232 65.5914 86.6011 65.3135 87.0378 65.3135H92.7941C93.2308 65.3135 93.5086 65.5914 93.5086 66.028C93.5086 66.425 93.2308 66.7426 92.7941 66.7426Z" fill="white"/>
<path d="M129.277 148.164H55.6761C50.8726 148.164 46.9822 144.274 46.9822 139.431L37.8516 92.428C37.8516 87.5848 41.742 83.6943 46.5455 83.6943H120.226C125.029 83.6943 128.92 87.5848 128.92 92.428L138.05 139.351C138.05 144.155 134.12 148.164 129.277 148.164Z" fill="#1449A8"/>
<path d="M45.0762 91.3557V100.05C45.0762 101.161 45.9495 102.035 47.0611 102.035H47.9741V104.059V106.719C47.9741 106.957 48.2123 107.037 48.3711 106.838L53.3731 101.995H59.2882C60.3997 101.995 61.2731 101.121 61.2731 100.01V91.316C61.2731 90.2044 60.3997 89.3311 59.2882 89.3311H47.1405C45.9892 89.4105 45.0762 90.2441 45.0762 91.3557Z" fill="white"/>
<path d="M57.9388 96.04H48.3318C47.9745 96.04 47.6172 95.7224 47.6172 95.3254C47.6172 94.9681 47.9348 94.6108 48.3318 94.6108H57.9388C58.2961 94.6108 58.6533 94.9284 58.6533 95.3254C58.6533 95.7224 58.3755 96.04 57.9388 96.04Z" fill="url(#paint0_linear)"/>
<path d="M57.9388 93.3803H48.3318C47.9745 93.3803 47.6172 93.0627 47.6172 92.6657C47.6172 92.3085 47.9348 91.9512 48.3318 91.9512H57.9388C58.2961 91.9512 58.6533 92.2688 58.6533 92.6657C58.6533 93.0627 58.3755 93.3803 57.9388 93.3803Z" fill="url(#paint1_linear)"/>
<path d="M54.0884 98.7798H48.4909C48.1337 98.7798 47.7764 98.4622 47.7764 98.0652C47.7764 97.7079 48.094 97.3506 48.4909 97.3506H54.0884C54.4457 97.3506 54.803 97.6682 54.803 98.0652C54.7236 98.5019 54.406 98.7798 54.0884 98.7798Z" fill="url(#paint2_linear)"/>
<path d="M55.7954 148.204H129.952C134.914 148.204 138.884 144.155 138.884 139.232L148.134 87.1876C148.134 82.2254 144.164 78.2158 139.202 78.2158H121.973C119.194 78.2158 116.574 79.5656 114.906 81.8681C113.08 84.4087 110.222 85.7982 107.125 85.7982H65.0451C60.0828 85.7982 57.1848 89.8474 56.113 94.77L46.8633 139.232C46.8633 144.194 50.8331 148.204 55.7954 148.204Z" fill="url(#paint3_linear)"/>
<path d="M139.955 131.133C139.955 136.096 135.985 140.105 131.023 140.105H56.9063C52.6189 140.105 49.0461 137.088 48.1727 132.999L46.9023 139.192C46.9023 144.154 50.8722 148.164 55.8345 148.164H129.991C134.953 148.164 138.923 144.115 138.923 139.192L148.173 87.1476C148.173 86.7109 148.133 86.2742 148.054 85.7979L139.955 131.133Z" fill="url(#paint4_linear)"/>
<path d="M48.0542 140.462L57.3039 96.0003C58.3758 91.038 61.2738 87.0285 66.2361 87.0285H108.316C111.413 87.0285 114.231 85.5597 116.097 83.0984C117.725 80.8356 120.385 79.4461 123.163 79.4461H140.393C142.497 79.4461 144.521 80.2004 146.109 81.4707C144.481 79.4858 141.98 78.1758 139.202 78.1758H121.973C119.194 78.1758 116.574 79.5255 114.906 81.828C113.08 84.3687 110.222 85.7582 107.125 85.7582H65.0451C60.0828 85.7582 57.1848 89.8074 56.113 94.73L46.8633 139.192C46.8633 141.971 48.1336 144.472 50.0788 146.1C48.8085 144.67 48.0542 142.686 48.0542 140.462Z" fill="#274187"/>
<path d="M77.7873 25.0595H43.2895C42.297 25.0595 41.4634 24.1862 41.4634 23.154V3.97974C41.4634 2.94758 42.3367 2.07422 43.2895 2.07422H77.7873C78.7798 2.07422 79.6135 2.94758 79.6135 3.97974V23.154C79.6135 24.2656 78.8592 25.0595 77.7873 25.0595Z" fill="#B3CDFA"/>
<path d="M76.9146 24.1068H43.2107C42.2183 24.1068 41.4243 23.3129 41.4243 22.3204V3.97978C41.4243 2.98733 42.2183 2.19336 43.2107 2.19336H76.9146C77.9071 2.19336 78.701 2.98733 78.701 3.97978V22.3204C78.7407 23.3526 77.9468 24.1068 76.9146 24.1068Z" fill="url(#paint5_linear)"/>
<path d="M75.8818 8.62402H59.3276V10.0532H75.8818V8.62402V8.62402Z" fill="#C2D7FB"/>
<path d="M75.8818 12.7129H59.3276V14.142H75.8818V12.7129V12.7129Z" fill="#C2D7FB"/>
<path d="M67.6646 16.9209H59.3677V18.35H67.6249V16.9209H67.6646Z" fill="#C2D7FB"/>
<path fill-rule="evenodd" clip-rule="evenodd" d="M52.1031 10.8869C51.8649 10.8869 51.7061 10.7678 51.7061 10.4899V7.15523H46.863C46.5851 7.15523 46.4263 7.39342 46.4263 7.59191V18.6677C46.4263 18.9456 46.6645 19.1044 46.863 19.1044H54.9217C55.1996 19.1044 55.3584 18.8662 55.3584 18.6677V10.8869H52.1031ZM48.2127 12.9909H52.7383V13.5467H48.2127V12.9909ZM49.5227 10.2914V10.8472H48.173V10.2914H49.5227ZM48.2127 14.3406H53.5323V14.8964H48.2127V14.3406ZM48.2127 15.6507H51.1504V16.2064H48.2127V15.6507ZM55.3981 10.2914H52.4604C52.3413 10.2914 52.1825 10.212 52.1825 10.0135V7.03613L55.3981 10.2914Z" fill="white"/>
<g opacity="0.24">
<path opacity="0.02439" d="M92.9136 175.588C124.553 175.588 150.198 171.539 150.198 166.537C150.198 161.535 124.553 157.485 92.9136 157.485C61.274 157.485 35.6289 161.535 35.6289 166.537C35.6289 171.539 61.274 175.588 92.9136 175.588Z" fill="#FBFCFE"/>
<path opacity="0.04878" d="M92.9137 175.39C123.839 175.39 148.928 171.46 148.928 166.577C148.928 161.734 123.839 157.764 92.9137 157.764C61.9888 157.764 36.8994 161.694 36.8994 166.577C36.8994 171.38 61.9888 175.39 92.9137 175.39Z" fill="#F8FAFE"/>
<path opacity="0.073171" d="M92.9138 175.191C123.164 175.191 147.618 171.301 147.618 166.576C147.618 161.852 123.124 157.962 92.9138 157.962C62.7033 157.962 38.2095 161.852 38.2095 166.576C38.2095 171.301 62.743 175.191 92.9138 175.191Z" fill="#F4F7FD"/>
<path opacity="0.097561" d="M92.9138 174.913C122.37 174.913 146.308 171.181 146.308 166.537C146.308 161.892 122.37 158.16 92.9138 158.16C63.4576 158.16 39.5195 161.892 39.5195 166.537C39.5195 171.181 63.4576 174.913 92.9138 174.913Z" fill="#F1F5FC"/>
<path opacity="0.122" d="M92.9136 174.794C121.695 174.794 144.958 171.102 144.958 166.576C144.958 162.05 121.655 158.358 92.9136 158.358C64.1721 158.358 40.8691 162.05 40.8691 166.576C40.9088 171.102 64.2118 174.794 92.9136 174.794Z" fill="#EDF2FC"/>
<path opacity="0.1463" d="M92.9141 174.516C120.941 174.516 143.649 170.943 143.649 166.537C143.649 162.13 120.941 158.558 92.9141 158.558C64.8871 158.558 42.1797 162.13 42.1797 166.537C42.1797 170.943 64.9268 174.516 92.9141 174.516Z" fill="#E9F0FB"/>
<path opacity="0.1707" d="M92.9137 174.318C120.226 174.318 142.378 170.824 142.378 166.537C142.378 162.249 120.226 158.756 92.9137 158.756C65.6012 158.756 43.4893 162.249 43.4893 166.537C43.4893 170.824 65.6409 174.318 92.9137 174.318Z" fill="#E6EDFA"/>
<path opacity="0.1951" d="M92.9138 174.159C119.512 174.159 141.068 170.784 141.068 166.537C141.068 162.289 119.512 158.915 92.9138 158.915C66.316 158.915 44.7598 162.289 44.7598 166.537C44.7598 170.784 66.316 174.159 92.9138 174.159Z" fill="#E2EBFA"/>
<path opacity="0.2195" d="M92.9134 173.921C118.757 173.921 139.757 170.626 139.757 166.537C139.757 162.448 118.797 159.153 92.9134 159.153C67.0698 159.153 46.0693 162.448 46.0693 166.537C46.1487 170.626 67.1095 173.921 92.9134 173.921Z" fill="#DFE8F9"/>
<path opacity="0.2439" d="M92.914 173.722C118.043 173.722 138.408 170.507 138.408 166.537C138.408 162.567 118.083 159.352 92.914 159.352C67.7453 159.352 47.4595 162.607 47.4595 166.537C47.4595 170.546 67.785 173.722 92.914 173.722Z" fill="#DBE6F8"/>
<path opacity="0.2683" d="M92.9139 173.524C117.328 173.524 137.138 170.388 137.138 166.577C137.138 162.766 117.368 159.629 92.9139 159.629C68.4597 159.629 48.6899 162.766 48.6899 166.577C48.7296 170.388 68.4994 173.524 92.9139 173.524Z" fill="#D8E3F7"/>
<path opacity="0.2927" d="M92.9139 173.326C116.574 173.326 135.828 170.308 135.828 166.577C135.828 162.845 116.653 159.828 92.9139 159.828C69.2537 159.828 50 162.845 50 166.577C50 170.308 69.2537 173.326 92.9139 173.326Z" fill="#D4E1F7"/>
<path opacity="0.3171" d="M92.9134 173.047C115.859 173.047 134.517 170.11 134.517 166.537C134.517 162.964 115.899 160.026 92.9134 160.026C69.9281 160.026 51.3096 162.964 51.3096 166.537C51.389 170.149 69.9678 173.047 92.9134 173.047Z" fill="#D0DEF6"/>
<path opacity="0.3415" d="M92.9136 172.928C115.105 172.928 133.128 170.109 133.128 166.576C133.128 163.083 115.105 160.225 92.9136 160.225C70.7223 160.225 52.6992 163.043 52.6992 166.576C52.6992 170.03 70.7223 172.928 92.9136 172.928Z" fill="#CDDCF5"/>
<path opacity="0.3659" d="M92.9141 172.729C114.431 172.729 131.818 169.95 131.818 166.576C131.818 163.202 114.391 160.423 92.9141 160.423C71.4373 160.423 54.0098 163.202 54.0098 166.576C54.0098 169.95 71.4373 172.729 92.9141 172.729Z" fill="#C9D9F5"/>
<path opacity="0.3902" d="M92.9133 172.452C113.715 172.452 130.547 169.832 130.547 166.537C130.547 163.242 113.676 160.622 92.9133 160.622C72.1511 160.622 55.2793 163.242 55.2793 166.537C55.2793 169.832 72.1511 172.452 92.9133 172.452Z" fill="#C6D7F4"/>
<path opacity="0.4146" d="M92.9138 172.293C112.961 172.293 129.238 169.712 129.238 166.537C129.238 163.361 113.001 160.78 92.9138 160.78C72.8662 160.78 56.5898 163.361 56.5898 166.537C56.6295 169.712 72.9059 172.293 92.9138 172.293Z" fill="#C2D4F3"/>
<path opacity="0.439" d="M92.9137 172.055C112.247 172.055 127.888 169.593 127.888 166.537C127.888 163.52 112.247 161.019 92.9137 161.019C73.5806 161.019 57.9395 163.48 57.9395 166.537C57.9395 169.593 73.6203 172.055 92.9137 172.055Z" fill="#BED2F3"/>
<path opacity="0.4634" d="M92.9137 171.856C111.492 171.856 126.578 169.474 126.578 166.576C126.578 163.678 111.492 161.296 92.9137 161.296C74.3349 161.296 59.2495 163.678 59.2495 166.576C59.2495 169.474 74.3746 171.856 92.9137 171.856Z" fill="#BBCFF2"/>
<path opacity="0.4878" d="M92.9134 171.619C110.778 171.619 125.307 169.356 125.307 166.577C125.307 163.798 110.817 161.535 92.9134 161.535C75.0491 161.535 60.5195 163.798 60.5195 166.577C60.5195 169.316 75.0491 171.619 92.9134 171.619Z" fill="#B7CDF1"/>
<path opacity="0.5122" d="M92.9138 171.459C110.064 171.459 123.998 169.276 123.998 166.576C123.998 163.877 110.064 161.693 92.9138 161.693C75.7642 161.693 61.8301 163.877 61.8301 166.576C61.9095 169.236 75.7642 171.459 92.9138 171.459Z" fill="#B4CAF1"/>
<path opacity="0.5366" d="M92.9137 171.261C109.309 171.261 122.648 169.157 122.648 166.576C122.648 163.956 109.309 161.892 92.9137 161.892C76.5183 161.892 63.1797 163.996 63.1797 166.576C63.2194 169.197 76.5183 171.261 92.9137 171.261Z" fill="#B0C8F0"/>
<path opacity="0.561" d="M92.9133 170.983C108.594 170.983 121.337 168.958 121.337 166.497C121.337 164.035 108.634 162.011 92.9133 162.011C77.1927 162.011 64.4893 164.035 64.4893 166.497C64.529 169.037 77.2324 170.983 92.9133 170.983Z" fill="#ADC5EF"/>
<path opacity="0.5854" d="M120.107 166.536C120.107 168.918 107.999 170.824 92.9929 170.824C77.9869 170.824 65.8789 168.918 65.8789 166.536C65.8789 164.155 77.9869 162.249 92.9929 162.249C107.999 162.249 120.107 164.194 120.107 166.536Z" fill="#A9C3EF"/>
<path opacity="0.6098" d="M92.9134 170.586C107.205 170.586 118.757 168.76 118.757 166.537C118.757 164.313 107.205 162.487 92.9134 162.487C78.622 162.487 67.0698 164.313 67.0698 166.537C67.1095 168.76 78.7014 170.586 92.9134 170.586Z" fill="#A5C0EE"/>
<path opacity="0.6341" d="M92.9138 170.427C106.451 170.427 117.408 168.72 117.408 166.537C117.408 164.353 106.451 162.646 92.9138 162.646C79.3767 162.646 68.4199 164.353 68.4199 166.537C68.4199 168.72 79.4164 170.427 92.9138 170.427Z" fill="#A2BEED"/>
<path opacity="0.6585" d="M116.137 166.537C116.137 168.521 105.736 170.189 92.9534 170.189C80.1705 170.189 69.7695 168.561 69.7695 166.537C69.7695 164.552 80.1705 162.884 92.9534 162.884C105.816 162.924 116.137 164.591 116.137 166.537Z" fill="#9EBBED"/>
<path opacity="0.6829" d="M92.9138 169.99C104.982 169.99 114.788 168.442 114.788 166.576C114.788 164.671 104.982 163.162 92.9138 163.162C80.8455 163.162 71.04 164.71 71.04 166.576C71.1194 168.482 80.8852 169.99 92.9138 169.99Z" fill="#9BB9EC"/>
<path opacity="0.7073" d="M92.9131 169.832C104.227 169.832 113.397 168.363 113.397 166.537C113.397 164.711 104.227 163.242 92.9131 163.242C81.599 163.242 72.4287 164.711 72.4287 166.537C72.4287 168.363 81.6387 169.832 92.9131 169.832Z" fill="#97B6EB"/>
<path opacity="0.7317" d="M112.207 166.537C112.207 168.204 103.593 169.554 92.9933 169.554C82.3938 169.554 73.7793 168.244 73.7793 166.537C73.7793 164.83 82.3938 163.52 92.9933 163.52C103.593 163.52 112.207 164.869 112.207 166.537Z" fill="#93B4EB"/>
<path opacity="0.7561" d="M92.9137 169.395C102.799 169.395 110.818 168.125 110.818 166.576C110.818 165.028 102.799 163.758 92.9137 163.758C83.0288 163.758 75.0098 165.028 75.0098 166.576C75.0098 168.125 83.0288 169.395 92.9137 169.395Z" fill="#90B1EA"/>
<path opacity="0.7805" d="M92.9132 169.117C102.084 169.117 109.507 167.966 109.507 166.536C109.507 165.107 102.084 163.956 92.9132 163.956C83.7429 163.956 76.3193 165.107 76.3193 166.536C76.359 167.966 83.7826 169.117 92.9132 169.117Z" fill="#8CAFE9"/>
<path opacity="0.8049" d="M108.276 166.537C108.276 167.847 101.448 168.958 93.0322 168.958C84.6162 168.958 77.7881 167.847 77.7881 166.537C77.7881 165.227 84.6162 164.115 93.0322 164.115C101.448 164.115 108.276 165.227 108.276 166.537Z" fill="#89ACE8"/>
<path opacity="0.8293" d="M92.9133 168.72C100.654 168.72 106.887 167.768 106.887 166.537C106.887 165.306 100.615 164.354 92.9133 164.354C85.1721 164.354 78.9395 165.306 78.9395 166.537C78.9395 167.768 85.2118 168.72 92.9133 168.72Z" fill="#85AAE8"/>
<path opacity="0.8537" d="M92.9138 168.522C99.9404 168.522 105.578 167.609 105.578 166.537C105.578 165.425 99.9404 164.552 92.9138 164.552C85.8872 164.552 80.25 165.465 80.25 166.537C80.25 167.648 85.9666 168.522 92.9138 168.522Z" fill="#82A7E7"/>
<path opacity="0.878" d="M104.347 166.537C104.347 167.49 99.3049 168.363 92.9929 168.363C86.7205 168.363 81.6392 167.569 81.6392 166.537C81.6392 165.584 86.6809 164.711 92.9929 164.711C99.3049 164.751 104.347 165.584 104.347 166.537Z" fill="#7EA5E6"/>
<path opacity="0.9024" d="M92.9132 168.125C98.4709 168.125 102.917 167.41 102.917 166.577C102.917 165.703 98.4312 165.028 92.9132 165.028C87.3554 165.028 82.9092 165.743 82.9092 166.577C82.9489 167.41 87.4348 168.125 92.9132 168.125Z" fill="#7AA2E6"/>
<path opacity="0.9268" d="M92.9137 167.926C97.7171 167.926 101.608 167.331 101.608 166.497C101.608 165.743 97.7171 165.068 92.9137 165.068C88.1102 165.068 84.2197 165.663 84.2197 166.497C84.2197 167.331 88.1499 167.926 92.9137 167.926Z" fill="#77A0E5"/>
<path opacity="0.9512" d="M100.337 166.537C100.337 167.212 97.0028 167.688 92.9138 167.688C88.8249 167.688 85.4902 167.132 85.4902 166.537C85.4902 165.862 88.8249 165.386 92.9138 165.386C97.0028 165.386 100.337 165.902 100.337 166.537Z" fill="#739DE4"/>
<path opacity="0.9756" d="M92.9133 167.53C96.2877 167.53 99.0269 167.093 99.0269 166.577C99.0269 166.021 96.2877 165.624 92.9133 165.624C89.539 165.624 86.7998 166.061 86.7998 166.577C86.8395 167.093 89.6184 167.53 92.9133 167.53Z" fill="#709BE4"/>
<path opacity="0.5" d="M92.9132 167.251C95.5333 167.251 97.677 166.934 97.677 166.537C97.677 166.14 95.573 165.822 92.9132 165.822C90.2931 165.822 88.1494 166.14 88.1494 166.537C88.1494 166.934 90.2931 167.251 92.9132 167.251Z" fill="#6C98E3"/>
</g>
<path d="M68.6572 65.7903H23.4805C22.8851 65.7903 22.4087 65.2742 22.4087 64.7184V37.7633C22.4087 37.1678 22.9248 36.6914 23.4805 36.6914H68.6572C69.2527 36.6914 69.7291 37.2075 69.7291 37.7633V64.7184C69.7291 65.3139 69.2924 65.7903 68.6572 65.7903Z" fill="#B3CDFA"/>
<path d="M68.816 41.3755H22.4087V37.5644C22.4087 37.088 22.9248 36.6514 23.4805 36.6514H67.7442C68.3396 36.6514 68.816 37.088 68.816 37.5644V41.3755Z" fill="url(#paint6_linear)"/>
<path d="M67.7442 64.7185H23.4805C22.8851 64.7185 22.4087 64.2024 22.4087 63.6069V41.4155H68.8557V63.6069C68.816 64.2421 68.3396 64.7185 67.7442 64.7185Z" fill="white"/>
<path d="M37.9705 52.7686H31.5791C31.7379 56.2223 34.5168 59.0012 37.9705 59.16V52.7686Z" fill="#6C98E3"/>
<path d="M38.5254 52.61V59.2C42.0982 59.0412 44.9168 56.0638 44.9168 52.4909C44.9168 50.7442 44.2419 49.1563 43.1701 47.9653L38.5254 52.61Z" fill="#26C6DA"/>
<path d="M38.129 52.1732L42.7737 47.5285C41.5827 46.4566 39.9948 45.7817 38.2481 45.7817C34.6752 45.7817 31.6979 48.64 31.5391 52.1732H38.129Z" fill="#2A5AB0"/>
<path d="M65.4017 50.7842H48.0933V52.1339H65.4017V50.7842Z" fill="#C2D7FB"/>
<path d="M65.4017 54.6748H48.0933V56.0246H65.4017V54.6748Z" fill="#C2D7FB"/>
<path d="M56.7084 58.5645H48.0542V59.9142H56.7084V58.5645Z" fill="#C2D7FB"/>
<path d="M28.4423 50.7842H25.7031V52.1339H28.4423V50.7842Z" fill="#C2D7FB"/>
<path d="M28.4423 46.854H25.7031V48.2037H28.4423V46.854Z" fill="#C2D7FB"/>
<path d="M28.4423 54.6738H25.7031V56.0236H28.4423V54.6738Z" fill="#C2D7FB"/>
<path d="M28.4423 58.5645H25.7031V59.9142H28.4423V58.5645Z" fill="#C2D7FB"/>
<path fill-rule="evenodd" clip-rule="evenodd" d="M52.4603 45.3457L54.1276 48.2834H52.7382V47.7673H53.2543L52.4603 46.4176L51.706 47.7673H52.2221V48.2834H50.793L52.4603 45.3457Z" fill="#26C6DA"/>
<path fill-rule="evenodd" clip-rule="evenodd" d="M59.1293 46.6558V48.2834H58.4941V45.3457L59.8836 46.4573L61.1936 45.3457V48.2834H60.5585V46.6558L59.8836 47.2512L59.1293 46.6558Z" fill="#1E2437"/>
<path fill-rule="evenodd" clip-rule="evenodd" d="M55.5175 46.9336L54.3662 45.8221L54.8029 45.3457L55.8351 46.4176L56.8275 45.3457L57.3039 45.8221L56.1129 46.9733V48.2834H55.5175V46.9336Z" fill="#1E2437"/>
<path fill-rule="evenodd" clip-rule="evenodd" d="M48.6889 45.9809V46.497H49.5225C49.6019 46.497 49.6416 46.4573 49.6813 46.4176C49.721 46.3779 49.7607 46.2985 49.7607 46.2588C49.7607 46.1794 49.721 46.1397 49.6813 46.1C49.6416 46.0603 49.5622 46.0206 49.5225 46.0206H48.6889V45.9809ZM48.0537 45.3457H49.5225C49.7607 45.3457 49.9989 45.4251 50.1577 45.5839C50.3165 45.7427 50.3959 45.9412 50.3959 46.2191C50.3959 46.497 50.3165 46.6955 50.1577 46.8542C49.9989 47.013 49.8004 47.0924 49.5225 47.0924H48.6889V48.204H48.0537V45.3457Z" fill="#1E2437"/>
<path fill-rule="evenodd" clip-rule="evenodd" d="M64.7273 47.6089C64.7273 47.5295 64.767 47.4501 64.767 47.3707C64.767 46.8943 64.4494 46.4973 64.0127 46.3782L64.4891 45.5049C64.9655 45.6637 65.2831 46.1004 65.3624 46.537C65.3624 46.6561 65.3624 46.7752 65.3624 46.8546C65.2831 47.2516 65.0449 47.4898 64.7273 47.6089Z" fill="#1E2437"/>
<path fill-rule="evenodd" clip-rule="evenodd" d="M63.8928 47.6093L63.5752 48.2047C63.6149 48.2047 63.6149 48.2047 63.6546 48.2047C63.734 48.2047 63.8134 48.2444 63.9325 48.2444C64.7264 48.2444 65.4013 47.5696 65.4013 46.7756C65.4013 46.6565 65.4013 46.5771 65.3616 46.458C65.3616 46.5771 65.3616 46.6962 65.3616 46.7756C65.2028 47.4108 64.5677 47.7284 63.8928 47.6093Z" fill="#8C97AE"/>
<path fill-rule="evenodd" clip-rule="evenodd" d="M63.902 47.2514C63.7035 47.6087 63.5844 47.8469 63.3859 48.1248C63.2668 48.0851 63.1874 48.0454 63.108 48.0057C63.0286 47.9263 62.9095 47.8866 62.8301 47.8072C62.711 47.6881 62.6316 47.569 62.5522 47.4499C62.5125 47.3308 62.4728 47.1323 62.5125 46.9338V46.8941C62.5919 46.6162 62.7904 46.378 63.0683 46.2192C63.0683 46.2589 63.0683 46.2986 63.0683 46.3383C63.0683 46.7353 63.4256 47.172 63.902 47.2514Z" fill="#3DF4F9"/>
<path fill-rule="evenodd" clip-rule="evenodd" d="M64.2988 45.3858L63.9812 45.9813C63.3063 45.9019 62.7108 46.2195 62.5521 46.7753C62.5124 46.9341 62.5521 47.2517 62.5918 47.3708C62.5124 47.212 62.4727 47.0135 62.4727 46.815C62.4727 46.5768 62.5521 46.3386 62.6314 46.1004C62.9093 45.5843 63.6239 45.2667 64.2988 45.3858Z" fill="#26C6DA"/>
<path d="M159.725 60.4703H120.305C119.749 60.4703 119.272 60.0336 119.272 59.4381V13.269C119.272 12.7132 119.709 12.2368 120.305 12.2368H159.725C160.281 12.2368 160.757 12.6735 160.757 13.269V59.4778C160.757 60.0336 160.321 60.4703 159.725 60.4703Z" fill="#B3CDFA"/>
<path d="M158.495 59.1602H120.345C119.789 59.1602 119.312 58.7236 119.312 58.1281V13.269C119.312 12.7132 119.749 12.2368 120.345 12.2368H158.495C159.051 12.2368 159.527 12.6735 159.527 13.269V58.1678C159.487 58.7236 159.051 59.1602 158.495 59.1602Z" fill="white"/>
<path d="M141.861 25.4961V26.3298H143.648C143.926 26.3298 144.124 26.5283 144.164 26.8062C144.124 28.1162 141.941 29.2674 141.861 29.3468V30.0614C141.861 30.2996 141.663 30.5378 141.385 30.5378H137.415C137.177 30.5378 136.939 30.3393 136.939 30.0614V29.3468C136.82 29.3071 134.676 28.1559 134.636 26.8062C134.676 26.5283 134.874 26.3298 135.152 26.3298H136.939V25.4961C136.82 25.4167 134.676 24.3052 134.636 22.9554C134.676 22.6775 134.874 22.479 135.152 22.479H136.939V21.6454C136.82 21.6057 134.676 20.4544 134.636 19.1047C134.676 18.8268 134.874 18.6283 135.152 18.6283H136.939V17.9534C136.939 17.7152 137.137 17.4771 137.415 17.4771H141.385C141.623 17.4771 141.861 17.6755 141.861 17.9534V18.6283H143.648C143.926 18.6283 144.124 18.8268 144.164 19.1047C144.124 20.4147 141.941 21.566 141.861 21.6454V22.479H143.648C143.926 22.479 144.124 22.6775 144.164 22.9554C144.084 24.3052 141.941 25.4564 141.861 25.4961ZM140.71 20.1765C140.71 19.462 140.115 18.8665 139.4 18.8665C138.685 18.8665 138.09 19.462 138.09 20.1765C138.09 20.8911 138.685 21.4866 139.4 21.4866C140.115 21.4866 140.71 20.8911 140.71 20.1765ZM140.71 24.0273C140.71 23.3127 140.115 22.7172 139.4 22.7172C138.685 22.7172 138.09 23.3127 138.09 24.0273C138.09 24.7418 138.685 25.3373 139.4 25.3373C140.115 25.3373 140.71 24.7418 140.71 24.0273ZM140.71 27.878C140.71 27.1634 140.115 26.568 139.4 26.568C138.685 26.568 138.09 27.1634 138.09 27.878C138.09 28.5926 138.685 29.1881 139.4 29.1881C140.115 29.1881 140.71 28.5926 140.71 27.878Z" fill="url(#paint7_linear)"/>
<path d="M144.8 54.6348H134.002C132.969 54.6348 132.136 53.8011 132.136 52.7689V51.3795C132.136 50.3473 132.969 49.5137 134.002 49.5137H144.8C145.832 49.5137 146.665 50.3473 146.665 51.3795V52.7292C146.705 53.8011 145.832 54.6348 144.8 54.6348Z" fill="#26C6DA"/>
<path d="M136.265 51.499C136.384 51.499 136.463 51.499 136.503 51.5387C136.582 51.5387 136.622 51.5784 136.662 51.6181C136.701 51.6578 136.741 51.6975 136.781 51.7372C136.82 51.7769 136.82 51.8563 136.82 51.896C136.82 51.9357 136.82 51.9754 136.82 52.0151C136.82 52.0548 136.781 52.0945 136.781 52.0945C136.741 52.1342 136.741 52.1342 136.701 52.1739C136.662 52.2136 136.622 52.2136 136.582 52.2136C136.781 52.2533 136.9 52.3724 136.9 52.5709C136.9 52.6503 136.9 52.69 136.86 52.7694C136.82 52.8091 136.781 52.8885 136.741 52.9282C136.701 52.9679 136.622 53.0076 136.582 53.0076C136.503 53.0473 136.423 53.0473 136.344 53.0473H135.749V51.499H136.265V51.499ZM136.026 51.6975V52.1342H136.265C136.344 52.1342 136.423 52.1342 136.503 52.0945C136.542 52.0548 136.582 52.0151 136.582 51.9357C136.582 51.8563 136.542 51.8166 136.503 51.7769C136.463 51.7372 136.384 51.7372 136.304 51.7372H136.026V51.6975ZM136.304 52.8091C136.344 52.8091 136.384 52.8091 136.423 52.8091C136.463 52.8091 136.503 52.7694 136.503 52.7694C136.542 52.7297 136.542 52.7297 136.542 52.69C136.542 52.6503 136.542 52.6503 136.542 52.6106C136.542 52.5709 136.542 52.5312 136.542 52.5312C136.542 52.4915 136.503 52.4915 136.503 52.4518C136.463 52.4518 136.463 52.4121 136.423 52.4121C136.384 52.4121 136.344 52.4121 136.304 52.4121H136.026V52.8488H136.304V52.8091Z" fill="white"/>
<path d="M138.607 52.2533C138.607 52.3724 138.607 52.4518 138.567 52.5709C138.528 52.6503 138.488 52.7694 138.409 52.8091C138.329 52.8885 138.25 52.9282 138.17 52.9679C138.091 53.0076 137.972 53.0076 137.853 53.0076C137.734 53.0076 137.615 53.0076 137.535 52.9679C137.456 52.9282 137.377 52.8885 137.297 52.8091C137.218 52.7297 137.178 52.6503 137.138 52.5709C137.099 52.4915 137.099 52.3724 137.099 52.2533C137.099 52.1342 137.099 52.0548 137.138 51.9357C137.178 51.8563 137.218 51.7372 137.297 51.6975C137.377 51.6181 137.456 51.5784 137.535 51.5387C137.615 51.499 137.734 51.499 137.853 51.499C137.932 51.499 138.012 51.499 138.091 51.5387C138.17 51.5387 138.21 51.5784 138.29 51.6181C138.329 51.6578 138.409 51.6975 138.448 51.7372C138.488 51.7769 138.528 51.8563 138.567 51.896C138.607 51.9357 138.607 52.0151 138.647 52.0945C138.607 52.0945 138.607 52.1739 138.607 52.2533ZM138.29 52.2533C138.29 52.1739 138.29 52.0945 138.25 52.0151C138.21 51.9357 138.21 51.896 138.17 51.8563C138.131 51.8166 138.091 51.7769 138.012 51.7372C137.932 51.6975 137.893 51.6975 137.813 51.6975C137.734 51.6975 137.654 51.6975 137.615 51.7372C137.535 51.7769 137.496 51.8166 137.456 51.8563C137.416 51.896 137.377 51.9754 137.377 52.0151C137.337 52.0945 137.337 52.1739 137.337 52.2533C137.337 52.3327 137.337 52.4121 137.377 52.4915C137.416 52.5709 137.416 52.6106 137.456 52.6503C137.496 52.69 137.535 52.7297 137.615 52.7694C137.694 52.8091 137.734 52.8091 137.813 52.8091C137.893 52.8091 137.972 52.8091 138.012 52.7694C138.051 52.7297 138.131 52.69 138.17 52.6503C138.21 52.6106 138.25 52.5312 138.25 52.4915C138.29 52.4121 138.29 52.3327 138.29 52.2533Z" fill="white"/>
<path d="M140.155 51.499V53.0473H139.877V52.0945C139.877 52.0548 139.877 52.0151 139.877 51.9754C139.877 51.9357 139.877 51.896 139.877 51.8563C139.877 51.896 139.838 51.9357 139.838 51.9754C139.838 52.0151 139.798 52.0548 139.798 52.0548L139.202 52.9679C139.202 52.9679 139.202 53.0076 139.163 53.0076C139.163 53.0076 139.163 53.0473 139.123 53.0473C139.083 53.0473 139.083 53.0473 139.083 53.087H139.044H138.845V51.5387H139.123V52.4915C139.123 52.5312 139.123 52.5709 139.123 52.6106C139.123 52.6503 139.123 52.69 139.123 52.7297C139.123 52.69 139.163 52.6503 139.163 52.6106C139.163 52.5709 139.202 52.5312 139.202 52.5312L139.798 51.6181C139.798 51.6181 139.798 51.5784 139.838 51.5784C139.838 51.5784 139.838 51.5387 139.877 51.5387C139.877 51.5387 139.917 51.5387 139.917 51.499H139.957H140.155ZM139.52 51.2608C139.56 51.2608 139.56 51.2608 139.599 51.2608C139.599 51.2608 139.639 51.2608 139.639 51.2211C139.639 51.2211 139.639 51.1814 139.679 51.1814C139.679 51.1417 139.679 51.1417 139.679 51.1021H139.838C139.838 51.1021 139.877 51.102 139.877 51.1417V51.1814C139.877 51.2211 139.877 51.2608 139.838 51.2608C139.838 51.3005 139.798 51.3005 139.758 51.3402C139.719 51.3402 139.679 51.3799 139.639 51.3799C139.599 51.3799 139.56 51.3799 139.48 51.3799C139.401 51.3799 139.361 51.3799 139.322 51.3799C139.282 51.3799 139.242 51.3402 139.202 51.3402C139.163 51.3402 139.163 51.3005 139.123 51.2608C139.123 51.2211 139.083 51.2211 139.083 51.1814V51.1417L139.123 51.1021H139.282C139.282 51.1417 139.282 51.1814 139.282 51.1814C139.282 51.2211 139.282 51.2211 139.322 51.2211L139.361 51.2608C139.48 51.2608 139.48 51.2608 139.52 51.2608Z" fill="white"/>
<path d="M141.544 51.7372H141.068V53.0473H140.79V51.7372H140.354V51.499H141.544V51.7372Z" fill="white"/>
<path d="M143.053 51.499V53.0473H142.775V52.0945C142.775 52.0548 142.775 52.0151 142.775 51.9754C142.775 51.9357 142.775 51.896 142.775 51.8563C142.775 51.896 142.736 51.9357 142.736 51.9754C142.736 52.0151 142.696 52.0548 142.696 52.0548L142.1 52.9679C142.1 52.9679 142.1 53.0076 142.061 53.0076C142.061 53.0076 142.061 53.0473 142.021 53.0473C142.021 53.0473 141.981 53.0473 141.981 53.087H141.942H141.743V51.5387H142.021V52.4915C142.021 52.5312 142.021 52.5709 142.021 52.6106C142.021 52.6503 142.021 52.69 142.021 52.7297C142.021 52.69 142.061 52.6503 142.061 52.6106C142.061 52.5709 142.1 52.5312 142.1 52.5312L142.696 51.6181C142.696 51.6181 142.696 51.5784 142.736 51.5784C142.736 51.5784 142.736 51.5387 142.775 51.5387C142.775 51.5387 142.815 51.5387 142.815 51.499H142.855H143.053Z" fill="white"/>
<path d="M151.746 34.3091H128.959C127.887 34.3091 127.054 35.3412 127.054 36.6116C127.054 37.8819 127.927 38.9141 128.959 38.9141H151.746C152.818 38.9141 153.652 37.8819 153.652 36.6116C153.691 35.3412 152.818 34.3091 151.746 34.3091Z" fill="url(#paint8_linear)"/>
<path d="M130.031 37.088C130.272 37.088 130.468 36.8747 130.468 36.6116C130.468 36.3485 130.272 36.1353 130.031 36.1353C129.79 36.1353 129.594 36.3485 129.594 36.6116C129.594 36.8747 129.79 37.088 130.031 37.088Z" fill="#1E2437"/>
<path d="M131.579 37.088C131.82 37.088 132.016 36.8747 132.016 36.6116C132.016 36.3485 131.82 36.1353 131.579 36.1353C131.338 36.1353 131.143 36.3485 131.143 36.6116C131.143 36.8747 131.338 37.088 131.579 37.088Z" fill="#1E2437"/>
<path d="M133.167 37.088C133.408 37.088 133.604 36.8747 133.604 36.6116C133.604 36.3485 133.408 36.1353 133.167 36.1353C132.926 36.1353 132.73 36.3485 132.73 36.6116C132.73 36.8747 132.926 37.088 133.167 37.088Z" fill="#1E2437"/>
<path d="M134.716 37.088C134.957 37.088 135.153 36.8747 135.153 36.6116C135.153 36.3485 134.957 36.1353 134.716 36.1353C134.475 36.1353 134.279 36.3485 134.279 36.6116C134.279 36.8747 134.475 37.088 134.716 37.088Z" fill="#1E2437"/>
<path d="M136.303 37.088C136.545 37.088 136.74 36.8747 136.74 36.6116C136.74 36.3485 136.545 36.1353 136.303 36.1353C136.062 36.1353 135.867 36.3485 135.867 36.6116C135.867 36.8747 136.062 37.088 136.303 37.088Z" fill="#1E2437"/>
<path d="M137.851 37.088C138.092 37.088 138.288 36.8747 138.288 36.6116C138.288 36.3485 138.092 36.1353 137.851 36.1353C137.61 36.1353 137.415 36.3485 137.415 36.6116C137.415 36.8747 137.61 37.088 137.851 37.088Z" fill="#1E2437"/>
<path d="M139.439 37.088C139.68 37.088 139.876 36.8747 139.876 36.6116C139.876 36.3485 139.68 36.1353 139.439 36.1353C139.198 36.1353 139.002 36.3485 139.002 36.6116C139.002 36.8747 139.198 37.088 139.439 37.088Z" fill="#1E2437"/>
<path d="M151.746 42.1294H128.959C127.887 42.1294 127.054 43.1616 127.054 44.4319C127.054 45.7022 127.927 46.7344 128.959 46.7344H151.746C152.818 46.7344 153.652 45.7022 153.652 44.4319C153.691 43.1219 152.818 42.1294 151.746 42.1294Z" fill="url(#paint9_linear)"/>
<path d="M130.031 44.8683C130.272 44.8683 130.468 44.655 130.468 44.3919C130.468 44.1288 130.272 43.9155 130.031 43.9155C129.79 43.9155 129.594 44.1288 129.594 44.3919C129.594 44.655 129.79 44.8683 130.031 44.8683Z" fill="#1E2437"/>
<path d="M131.579 44.8688C131.82 44.8688 132.016 44.6555 132.016 44.3924C132.016 44.1293 131.82 43.916 131.579 43.916C131.338 43.916 131.143 44.1293 131.143 44.3924C131.143 44.6555 131.338 44.8688 131.579 44.8688Z" fill="#1E2437"/>
<path d="M133.167 44.8688C133.408 44.8688 133.604 44.6555 133.604 44.3924C133.604 44.1293 133.408 43.916 133.167 43.916C132.926 43.916 132.73 44.1293 132.73 44.3924C132.73 44.6555 132.926 44.8688 133.167 44.8688Z" fill="#1E2437"/>
<path d="M134.716 44.8688C134.957 44.8688 135.153 44.6555 135.153 44.3924C135.153 44.1293 134.957 43.916 134.716 43.916C134.475 43.916 134.279 44.1293 134.279 44.3924C134.279 44.6555 134.475 44.8688 134.716 44.8688Z" fill="#1E2437"/>
<path d="M136.303 44.8688C136.545 44.8688 136.74 44.6555 136.74 44.3924C136.74 44.1293 136.545 43.916 136.303 43.916C136.062 43.916 135.867 44.1293 135.867 44.3924C135.867 44.6555 136.062 44.8688 136.303 44.8688Z" fill="#1E2437"/>
<path d="M137.851 44.8688C138.092 44.8688 138.288 44.6555 138.288 44.3924C138.288 44.1293 138.092 43.916 137.851 43.916C137.61 43.916 137.415 44.1293 137.415 44.3924C137.415 44.6555 137.61 44.8688 137.851 44.8688Z" fill="#1E2437"/>
<path d="M139.439 44.8688C139.68 44.8688 139.876 44.6555 139.876 44.3924C139.876 44.1293 139.68 43.916 139.439 43.916C139.198 43.916 139.002 44.1293 139.002 44.3924C139.002 44.6555 139.198 44.8688 139.439 44.8688Z" fill="#1E2437"/>
</g>
<defs>
<linearGradient id="paint0_linear" x1="47.6756" y1="95.3531" x2="58.6321" y2="95.3531" gradientUnits="userSpaceOnUse">
<stop stop-color="#6092E9"/>
<stop offset="0.442" stop-color="#3C6EC6"/>
<stop offset="1" stop-color="#2D60BC"/>
</linearGradient>
<linearGradient id="paint1_linear" x1="47.6756" y1="92.6782" x2="58.6321" y2="92.6782" gradientUnits="userSpaceOnUse">
<stop stop-color="#6092E9"/>
<stop offset="0.442" stop-color="#3C6EC6"/>
<stop offset="1" stop-color="#2D60BC"/>
</linearGradient>
<linearGradient id="paint2_linear" x1="47.734" y1="98.0791" x2="54.7496" y2="98.0791" gradientUnits="userSpaceOnUse">
<stop stop-color="#6092E9"/>
<stop offset="0.442" stop-color="#3C6EC6"/>
<stop offset="1" stop-color="#2D60BC"/>
</linearGradient>
<linearGradient id="paint3_linear" x1="46.8523" y1="113.195" x2="148.099" y2="113.195" gradientUnits="userSpaceOnUse">
<stop stop-color="#6092E9"/>
<stop offset="0.442" stop-color="#3C6EC6"/>
<stop offset="1" stop-color="#2D60BC"/>
</linearGradient>
<linearGradient id="paint4_linear" x1="46.9022" y1="117.005" x2="148.149" y2="117.005" gradientUnits="userSpaceOnUse">
<stop stop-color="#6092E9"/>
<stop offset="0.442" stop-color="#3C6EC6"/>
<stop offset="1" stop-color="#2D60BC"/>
</linearGradient>
<linearGradient id="paint5_linear" x1="41.4362" y1="13.136" x2="78.724" y2="13.136" gradientUnits="userSpaceOnUse">
<stop stop-color="#6092E9"/>
<stop offset="0.442" stop-color="#3C6EC6"/>
<stop offset="1" stop-color="#2D60BC"/>
</linearGradient>
<linearGradient id="paint6_linear" x1="22.4158" y1="39.0292" x2="68.8582" y2="39.0292" gradientUnits="userSpaceOnUse">
<stop stop-color="#6092E9"/>
<stop offset="0.442" stop-color="#3C6EC6"/>
<stop offset="1" stop-color="#2D60BC"/>
</linearGradient>
<linearGradient id="paint7_linear" x1="134.635" y1="24.0131" x2="144.155" y2="24.0131" gradientUnits="userSpaceOnUse">
<stop stop-color="#6092E9"/>
<stop offset="0.442" stop-color="#3C6EC6"/>
<stop offset="1" stop-color="#2D60BC"/>
</linearGradient>
<linearGradient id="paint8_linear" x1="127.062" y1="36.5929" x2="153.675" y2="36.5929" gradientUnits="userSpaceOnUse">
<stop stop-color="#E3EDFE"/>
<stop offset="0.0467179" stop-color="#E5EEFE"/>
<stop offset="0.5107" stop-color="#F0F5FE"/>
<stop offset="1" stop-color="#F4F8FF"/>
</linearGradient>
<linearGradient id="paint9_linear" x1="127.062" y1="44.4016" x2="153.675" y2="44.4016" gradientUnits="userSpaceOnUse">
<stop stop-color="#E3EDFE"/>
<stop offset="0.0467179" stop-color="#E5EEFE"/>
<stop offset="0.5107" stop-color="#F0F5FE"/>
<stop offset="1" stop-color="#F4F8FF"/>
</linearGradient>
</defs>
</svg>
