<svg xmlns="http://www.w3.org/2000/svg" width="72" height="72" fill="none" viewBox="0 0 72 72">
    <path fill="#1658B6" d="M49.38 8.136l10.654 10.721V63.93H11.07V8.136h38.31zm.41 2.324v8.125h8.126l-8.125-8.125zM12.436 62.498h46.303V19.95H48.425V9.5h-35.99v52.997zM22.882 37.57v-5.055h1.571V44.81h-1.571v-5.736h-6.077v5.736h-1.502V32.516h1.502v5.055h6.077zm2.937-3.55v-1.505h9.22v1.505h-3.823v10.788h-1.572V34.021H25.82zm16.732 7.101l2.798-8.603h2.049v12.293h-1.502V34.498L42.48 44.812h-1.366l-3.345-10.45v10.516h-1.502V32.586h2.39l2.732 8.672c.275.819.411 1.432.547 1.843.136-.477.342-1.09.614-1.979zm8.536-8.606v10.86h5.738v1.432h-7.309V32.516h1.571z"/>
</svg>
