<svg xmlns="http://www.w3.org/2000/svg" width="32" height="32" fill="none" viewBox="0 0 32 32">
    <path fill="#000" d="M27.163 5.357a.41.41 0 0 0-.024-.122l-.014-.034a.407.407 0 0 0-.08-.121l-.003-.001v-.002a.408.408 0 0 0-.155-.092.438.438 0 0 0-.133-.026l-.008-.002a.415.415 0 0 0-.116.017l-21.496 6.31a.415.415 0 0 0-.073.77l9.933 5.07 4.829 9.69c.07.142.215.23.372.23.011 0 .023 0 .034-.002a.416.416 0 0 0 .364-.292l6.554-21.258a.385.385 0 0 0 .018-.119l-.003-.016zm-1.86.872L15.226 16.307 6.371 11.79l18.933-5.56zm-5.2 19.283l-4.292-8.615L25.86 6.85l-5.755 18.662z"/>
</svg>
