<svg xmlns="http://www.w3.org/2000/svg" width="72" height="72" fill="none" viewBox="0 0 72 72">
    <path fill="#fff" d="M61.306 40.913a16.721 16.721 0 0 0-6.553-5.152c2.886-2.394 4.61-6.182 4.61-10.339 0-6.899-4.84-12.546-10.884-12.836-2.666-4.73-7.34-7.872-12.65-7.872-5.313 0-9.988 3.144-12.654 7.877-6.002.343-10.791 5.968-10.791 12.833 0 4.14 1.797 8.02 4.708 10.41a16.74 16.74 0 0 0-6.446 5.155 16.421 16.421 0 0 0-3.325 9.953v7.44c0 .581.473 1.054 1.055 1.054h5.614v6.806c0 .582.472 1.055 1.054 1.055h41.92c.583 0 1.056-.473 1.056-1.055v-6.806h5.613c.583 0 1.055-.473 1.055-1.055v-7.439a16.462 16.462 0 0 0-3.38-10.03l-.002.001zm-47.323 15.27v1.136l-4.556.002v-6.384c0-6.41 4.117-11.97 10.245-13.832a1.054 1.054 0 0 0 .194-1.938c-3.265-1.758-5.374-5.583-5.374-9.745 0-5.268 3.288-9.658 7.61-10.564a18.815 18.815 0 0 0-1.274 6.849c0 3.265.819 6.435 2.368 9.168 1.072 1.89 2.453 3.51 4.064 4.781a1.135 1.135 0 0 0-.078.363 22.248 22.248 0 0 0-8.78 6.944c-2.892 3.83-4.42 8.404-4.42 13.219h.001zm41.924 8.996H16.093v-8.997c0-8.826 5.67-16.481 14.107-19.046a1.054 1.054 0 0 0 .192-1.938c-4.531-2.438-7.459-7.734-7.459-13.494 0-8.207 5.783-14.884 12.89-14.884 7.106 0 12.889 6.677 12.889 14.884 0 5.701-2.883 10.974-7.346 13.438a1.057 1.057 0 0 0 .214 1.938C50.01 39.54 55.9 47.399 55.9 56.188l.005 8.991zm6.665-7.858h-4.559v-1.136c0-4.86-1.552-9.464-4.489-13.32a22.26 22.26 0 0 0-8.887-6.924 1.04 1.04 0 0 0-.133-.377c1.581-1.271 2.94-2.886 3.989-4.759 1.524-2.717 2.328-5.864 2.328-9.101 0-2.442-.458-4.765-1.28-6.866 4.371.86 7.71 5.277 7.71 10.584 0 4.12-2.079 7.928-5.293 9.703a1.056 1.056 0 0 0 .214 1.938c6.122 1.788 10.4 7.492 10.4 13.876v6.382z"/>
    <path fill="#fff" d="M35.758 47.692h2.198c1.956 0 3.209.956 3.209 2.836 0 2.373-1.66 2.879-3.615 2.879h-1.792v-5.715zm2.352 7.319c2.934 0 5.022-1.571 5.022-4.483 0-2.77-1.967-4.528-4.846-4.528h-4.45v7.802H32v1.209h1.835v2.12H32v1.21h1.835V61h1.923v-2.66h3.209v-1.208h-3.209V55.01h2.352z"/>
</svg>
