<svg xmlns="http://www.w3.org/2000/svg" width="72" height="72" fill="none" viewBox="0 0 72 72">
    <path stroke="#3667BD" stroke-linecap="round" stroke-linejoin="round" stroke-width="2.4" d="M50.094 8.482l4.062 8.23 9.081 1.321-6.573 6.406 1.553 9.043-8.123-4.27-8.124 4.27 1.553-9.043-6.573-6.406 9.083-1.321 4.06-8.23z"/>
    <path fill="#000" stroke="#000" stroke-width=".25" d="M20.623 35.38c-7.178 0-13.019-5.842-13.019-13.02s5.841-13.02 13.02-13.02c7.177 0 13.018 5.842 13.018 13.02 0 7.18-5.84 13.02-13.019 13.02zm0-23.783c-5.934 0-10.765 4.829-10.765 10.766 0 5.934 4.828 10.765 10.765 10.765 5.935 0 10.766-4.828 10.766-10.765S26.56 11.597 20.623 11.597zM7.71 51.34c0 7.176 5.84 13.017 13.019 13.017 7.178 0 13.017-5.84 13.019-13.016H7.709zm0 0c0-7.177 5.84-13.019 13.019-13.019m-13.02 13.02l13.02-13.02m0 0c7.178 0 13.019 5.842 13.019 13.02l-13.02-13.02zm10.765 13.02c-.002-5.937-4.83-10.766-10.765-10.766-5.935 0-10.766 4.829-10.766 10.766 0 5.934 4.829 10.763 10.766 10.763 5.934 0 10.765-4.829 10.765-10.763zM38.497 51.34c0-5.936 4.829-10.765 10.766-10.765s10.765 4.829 10.763 10.766H38.497zm0 0c0 5.935 4.829 10.764 10.766 10.764M38.497 51.34l10.766 10.763m0 0c5.934 0 10.763-4.829 10.763-10.763L49.263 62.104zM62.28 51.34c.002 7.175-5.84 13.016-13.017 13.016-7.178 0-13.02-5.84-13.02-13.016 0-7.178 5.842-13.02 13.02-13.02s13.017 5.842 13.017 13.02z"/>
</svg>
