<svg xmlns="http://www.w3.org/2000/svg" width="72" height="72" fill="none" viewBox="0 0 72 72">
    <path fill="#fff" d="M46.218 17.8H35.707a1.08 1.08 0 0 0 0 2.16h10.51a6.57 6.57 0 0 1 6.562 6.562v6.759l-1.704-1.702a1.08 1.08 0 1 0-1.528 1.527l3.547 3.547c.211.21.487.315.765.315.276 0 .554-.104.765-.315l3.547-3.547a1.08 1.08 0 1 0-1.527-1.527l-1.705 1.704v-6.758c0-4.812-3.912-8.724-8.721-8.724zM18.534 45.554v-6.758l1.704 1.704c.212.211.487.315.765.315a1.079 1.079 0 0 0 .765-1.842l-3.552-3.55a1.08 1.08 0 0 0-1.527 0l-3.546 3.547a1.08 1.08 0 1 0 1.527 1.528l1.704-1.702v6.758c0 4.81 3.912 8.722 8.722 8.722h10.51a1.08 1.08 0 0 0 0-2.16h-10.51a6.569 6.569 0 0 1-6.562-6.562zM18.138 4.337c-8.02 0-14.54 6.522-14.54 14.54 0 8.018 6.521 14.54 14.54 14.54 8.018 0 14.54-6.522 14.54-14.54 0-8.015-6.525-14.54-14.54-14.54zm0 26.924c-6.826 0-12.38-5.554-12.38-12.38 0-6.826 5.554-12.38 12.38-12.38 6.825 0 12.38 5.554 12.38 12.38 0 6.826-5.555 12.38-12.38 12.38zM53.86 38.579c-8.019 0-14.54 6.522-14.54 14.54 0 8.02 6.522 14.54 14.54 14.54 8.018 0 14.54-6.521 14.54-14.54 0-8.015-6.522-14.54-14.54-14.54zm0 26.924c-6.826 0-12.38-5.554-12.38-12.38 0-6.826 5.554-12.38 12.38-12.38 6.826 0 12.38 5.551 12.38 12.377 0 6.829-5.554 12.383-12.38 12.383z"/>
    <path fill="#fff" d="M19.05 19.7c2.408 0 3.85-1.302 3.85-3.5s-1.442-3.5-3.85-3.5H15.2v8.4h-1.4v1.4h1.4v2.8h1.4v-2.8h4.9v-1.4h-4.9v-1.4h2.45zm-2.45-5.6h2.45c1.652 0 2.45.686 2.45 2.1 0 1.414-.798 2.1-2.45 2.1H16.6v-4.2zM60.678 49.76L59.4 48.482l-7.128 7.128-3.312-3.33-1.278 1.278 4.59 4.59 8.406-8.388z"/>
</svg>
