<svg xmlns="http://www.w3.org/2000/svg" width="72" height="72" fill="none" viewBox="0 0 72 72">
    <path fill="#fff" d="M55.583 53.567a1.043 1.043 0 0 0 0 1.513l.937.936h-14.4c-.577 0-1.08.504-1.08 1.08 0 .577.503 1.08 1.08 1.08h14.326l-.936.937a1.043 1.043 0 0 0 0 1.513c.216.217.503.287.793.287.287 0 .577-.073.793-.287l3.527-3.527-3.527-3.527c-.433-.436-1.153-.436-1.513-.005zM47.303 42.263h9.144l-.864.937a1.043 1.043 0 0 0 0 1.513c.217.217.504.287.793.287.287 0 .577-.073.793-.287l3.527-3.527-3.527-3.527a1.044 1.044 0 0 0-1.513 0 1.044 1.044 0 0 0 0 1.514l.937.936-9.29-.006c-.576 0-1.08.504-1.08 1.08 0 .577.504 1.08 1.08 1.08zM42.623 35.497l.937.936c.216.217.503.287.793.287.287 0 .577-.073.793-.287a1.043 1.043 0 0 0 0-1.513l-3.527-3.527-3.526 3.527a1.043 1.043 0 0 0 0 1.513c.433.433 1.08.433 1.513 0l.936-.936v10.08c0 5.76-4.68 10.366-10.366 10.366H13.247c-.577 0-1.08.504-1.08 1.08 0 .577.503 1.08 1.08 1.08h16.777c6.913 0 12.526-5.616 12.526-12.526v-10.08h.073z"/>
    <path fill="#fff" d="M27 42.263h8.566c.577 0 1.08-.503 1.08-1.08 0-.576-.503-1.08-1.08-1.08H27c-7.417 0-13.463-6.047-13.463-13.463 0-7.416 6.047-13.463 13.463-13.463 7.416 0 13.463 6.047 13.463 13.463 0 .577.504 1.08 1.08 1.08.577 0 1.08-.503 1.08-1.08C42.623 18 35.64 11.017 27 11.017S11.377 18 11.377 26.64 18.433 42.263 27 42.263z"/>
    <path fill="#fff" d="M28.05 27.7c2.408 0 3.85-1.302 3.85-3.5s-1.442-3.5-3.85-3.5H24.2v8.4h-1.4v1.4h1.4v2.8h1.4v-2.8h4.9v-1.4h-4.9v-1.4h2.45zm-2.45-5.6h2.45c1.652 0 2.45.686 2.45 2.1 0 1.414-.798 2.1-2.45 2.1H25.6v-4.2z"/>
</svg>
