<svg xmlns="http://www.w3.org/2000/svg" width="72" height="72" fill="none" viewBox="0 0 72 72">
    <path fill="#fff" stroke="#fff" stroke-width=".5" d="M20.05 40.984H7.152a.75.75 0 0 0-.75.75v24.267c0 .413.337.75.75.75H20.05a.75.75 0 0 0 .751-.75l-.002-24.27a.75.75 0 0 0-.749-.747zm-.75 24.263H7.902V42.483H19.3v22.764zM42.449 27.92H29.55a.75.75 0 0 0-.751.75V66c0 .414.337.752.75.752h12.896a.75.75 0 0 0 .75-.751V28.67a.742.742 0 0 0-.747-.752zm-.751 37.33H30.302V29.419h11.396V65.25zM64.847 16.718H51.95a.753.753 0 0 0-.75.75v48.533c0 .413.334.75.75.75h12.898a.75.75 0 0 0 .751-.75V17.469a.753.753 0 0 0-.75-.751zm-.75 48.532H52.7V18.217h11.396V65.25zM16.056 21.811c.15 0 .296-.045.42-.127l14.34-9.621 2.093 3.116a.758.758 0 0 0 .65.332.743.743 0 0 0 .624-.38l4.97-8.76a.743.743 0 0 0-.028-.79.754.754 0 0 0-.72-.327l-9.99 1.28a.745.745 0 0 0-.588.433.741.741 0 0 0 .059.728l2.092 3.12-14.34 9.623a.751.751 0 0 0 .418 1.373zM29.81 7.87l7.302-.937-3.634 6.404-1.8-2.672a.266.266 0 0 0-.034-.062L29.81 7.87z"/>
</svg>
