<svg xmlns="http://www.w3.org/2000/svg" width="56" height="56" fill="none" viewBox="0 0 56 56">
    <path fill="#000" d="M35.947 13.845h-8.175a.84.84 0 0 0 0 1.68h8.175a5.11 5.11 0 0 1 5.103 5.103v5.257l-1.325-1.324a.84.84 0 1 0-1.188 1.188l2.758 2.759a.836.836 0 0 0 .596.245.84.84 0 0 0 .595-.245l2.758-2.759a.84.84 0 1 0-1.188-1.188l-1.325 1.326V20.63a6.791 6.791 0 0 0-6.784-6.785zM14.416 35.431v-5.256L15.74 31.5a.836.836 0 0 0 .595.245.84.84 0 0 0 .595-1.433l-2.763-2.76a.84.84 0 0 0-1.187 0l-2.759 2.758a.84.84 0 1 0 1.188 1.188l1.326-1.323v5.256a6.79 6.79 0 0 0 6.783 6.783h8.175a.84.84 0 0 0 0-1.68h-8.175a5.109 5.109 0 0 1-5.104-5.103zM14.107 3.373c-6.237 0-11.31 5.073-11.31 11.31 0 6.236 5.074 11.308 11.31 11.308 6.237 0 11.31-5.072 11.31-11.309 0-6.234-5.076-11.309-11.31-11.309zm0 20.941c-5.309 0-9.63-4.32-9.63-9.629 0-5.309 4.321-9.63 9.63-9.63 5.31 0 9.63 4.321 9.63 9.63 0 5.31-4.321 9.63-9.63 9.63zM41.89 30.006c-6.236 0-11.309 5.073-11.309 11.31 0 6.236 5.073 11.308 11.31 11.308 6.236 0 11.309-5.073 11.309-11.309 0-6.234-5.073-11.31-11.31-11.31zm0 20.941c-5.308 0-9.629-4.32-9.629-9.63 0-5.308 4.32-9.628 9.63-9.628 5.309 0 9.629 4.318 9.629 9.627 0 5.31-4.32 9.631-9.63 9.631z"/>
    <g clip-path="url(#a)">
        <path fill="#3667BD" d="M14.817 15.322c1.872 0 2.994-1.013 2.994-2.722 0-1.71-1.122-2.722-2.994-2.722h-2.995v6.533h-1.089V17.5h1.09v2.178h1.088V17.5h3.811V16.41h-3.81v-1.089h1.905zm-1.906-4.355h1.906c1.285 0 1.905.533 1.905 1.633s-.62 1.633-1.905 1.633H12.91v-3.266z"/>
    </g>
    <path fill="#3667BD" d="M47.194 38.702l-.994-.994-5.544 5.544-2.576-2.59-.994.995 3.57 3.57 6.538-6.525z"/>
    <defs>
        <clipPath id="a">
            <path fill="#fff" d="M0 0h10.889v10.889H0z" transform="translate(8.556 9.333)"/>
        </clipPath>
    </defs>
</svg>
