<svg xmlns="http://www.w3.org/2000/svg" width="72" height="72" fill="none" viewBox="0 0 72 72">
    <path stroke="#fff" stroke-linecap="round" stroke-linejoin="round" stroke-miterlimit="10" stroke-width="2" d="M36.48 51.84l-5.04 15.84-5.76-7.2-9.36 2.88 5.76-15.84M48.073 49.033L55.2 60.48l-8.64-.72-5.04 7.92-6.48-10.08"/>
    <path stroke="#fff" stroke-miterlimit="10" stroke-width="2" d="M59.52 28.08c0 13.123-10.637 23.76-23.76 23.76C22.636 51.84 12 41.203 12 28.08 12 14.957 22.636 4.32 35.76 4.32c13.123 0 23.76 10.637 23.76 23.76z"/>
    <path fill="#fff" d="M44.904 23.68L43.2 21.976l-9.505 9.504-4.415-4.44-1.705 1.704 6.12 6.12 11.21-11.184z"/>
</svg>
