<svg xmlns="http://www.w3.org/2000/svg" width="44" height="46" fill="none" viewBox="0 0 44 46">
    <path fill="#000" fill-rule="evenodd" stroke="#fff" stroke-width=".2" d="M13.235 9.076h18.806v1.496H13.235V9.076zM13.235 4.588h18.806v1.496H13.235V4.588z" clip-rule="evenodd"/>
    <path fill="#3667BD" fill-rule="evenodd" d="M28.015 22.309c0-2.73 2.208-4.948 4.918-4.948s4.916 2.219 4.916 4.948c0 2.727-2.205 4.946-4.916 4.946-2.712 0-4.918-2.219-4.918-4.946zm1.486 0c0 1.901 1.54 3.45 3.431 3.45 1.89 0 3.429-1.547 3.429-3.45 0-1.903-1.54-3.452-3.429-3.452-1.892 0-3.43 1.549-3.43 3.452z" clip-rule="evenodd"/>
    <path fill="#000" fill-rule="evenodd" d="M36.53 40.955a86.166 86.166 0 0 0 2.704-5.098c1.403-2.858 4.666-9.901 4.666-13.55 0-4.817-3.084-8.922-7.37-10.423V.1H8.28v19.176a3.987 3.987 0 0 0-1.559-.327c-2.354 0-4.27 2.033-4.27 4.532 0 .593.11 1.175.318 1.719C1.108 26.355.1 28.225.1 30.23c0 3.187 2.502 5.819 5.7 6.152v4.609H.842v1.496h29.611c1.613 2.524 2.134 2.742 2.595 2.742.462 0 .981-.218 2.561-2.742h6.606v-1.496h-5.684v-.037zM9.767 1.596h25.278v9.884a10.87 10.87 0 0 0-8.794 2.086l-13.024-.002v1.496H24.67c-.768.885-1.4 1.894-1.858 2.992h-9.586v1.497h9.084a11.091 11.091 0 0 0-.346 2.76c0 .04.003.083.006.127l.004.064v.023l.001.018h-8.749v1.496h8.928c.174.921.457 1.938.807 2.992h-9.725v1.496h10.252a60.88 60.88 0 0 0 1.22 2.992H13.234v9.475h-3.47V1.596h.002zm4.954 31.417v7.979h6.941v-7.98H14.72zm8.428 7.979v-7.98h2.227a91.53 91.53 0 0 0 4.16 7.98h-6.387zM4.081 26.142c-1.537.834-2.494 2.4-2.494 4.09 0 2.586 2.198 4.692 4.9 4.69a5.01 5.01 0 0 0 1.793-.339V20.971a2.614 2.614 0 0 0-1.558-.526c-1.534 0-2.782 1.363-2.782 3.037 0 .576.149 1.137.431 1.624l.39.67-.68.366zm3.206 10.223c.34-.042.67-.11.992-.2v4.829h-.992v-4.629zM23.45 22.31c0 5.088 7.603 19.174 9.597 21.268 1.95-2.098 9.367-16.168 9.37-21.268 0-5.261-4.255-9.54-9.484-9.54-5.23 0-9.484 4.279-9.484 9.54z" clip-rule="evenodd"/>
    <path fill="#fff" d="M39.234 35.857l-.09-.044.09.044zm-2.703 5.098l-.087-.05-.013.023v.026h.1zm0-29.072h-.1v.072l.067.023.033-.095zM36.53.1h.1V0h-.1v.1zM8.279.1V0h-.1v.1h.1zm0 19.176l-.04.092.14.06v-.152h-.1zM2.769 25.2l.057.082.064-.045-.028-.073-.094.036zM5.8 36.383h.1v-.09l-.09-.01-.01.1zm0 4.609v.1h.1v-.1h-.1zm-4.958 0v-.1h-.1v.1h.1zm0 1.496h-.1v.1h.1v-.1zm29.611 0l.085-.054-.03-.046h-.055v.1zm5.156 0v-.1h-.055l-.03.047.085.053zm6.606 0v.1h.1v-.1h-.1zm0-1.496h.1v-.1h-.1v.1zm-5.684 0h-.1l-.001.1h.1v-.1zM35.044 1.596h.1v-.1h-.1v.1zm-25.278 0l-.013.1h.013v-.1zm25.278 9.884l-.02.098.12.024v-.122h-.1zm-8.794 2.086v.1h.035l.027-.02-.062-.08zm-13.024-.002v-.1h-.1v.1h.1zm0 1.496h-.1v.1h.1v-.1zm11.444 0l.076.066.145-.166h-.22v.1zm-1.858 2.992v.1h.067l.025-.06-.092-.04zm-9.586 0v-.1h-.1v.1h.1zm0 1.497h-.1v.1h.1v-.1zm9.084 0l.097.024.032-.125h-.129v.1zm-.34 2.887l-.1.006.1-.006zm0 0l.1-.007-.1.007zm.004.064l.1-.004-.1.005zm0 .023l.101-.003v-.001l-.1.005zm.001.018v.1h.104l-.003-.104-.1.004zm-8.749 0v-.1h-.1v.1h.1zm0 1.496h-.1v.1h.1v-.1zm8.928 0l.098-.02-.015-.08h-.083v.1zm.807 2.992v.1h.14l-.045-.132-.095.032zm-9.725 0v-.1h-.1v.1h.1zm0 1.496h-.1v.1h.1v-.1zm10.252 0l.094-.036-.024-.065h-.07v.1zm1.22 2.992v.1h.153l-.061-.14-.092.04zm-11.474 0v-.1h-.1v.1h.1zm0 9.475v.1h.1v-.1h-.1zm-3.47 0h-.1v.1h.1v-.1zm0-39.396l.014-.1-.114-.014v.114h.1zm4.956 39.396h-.1v.1h.1v-.1zm0-7.98v-.1h-.1v.1h.1zm6.941 7.98v.1h.1v-.1h-.1zm0-7.98h.1v-.1h-.1v.1zm1.487 0v-.1h-.1v.1h.1zm0 7.98h-.1v.1h.1v-.1zm2.227-7.98l.09-.041-.026-.058h-.064v.1zm1.372 2.853l.09-.045-.09.045zm2.788 5.127v.1h.176l-.09-.151-.086.05zM1.587 30.232h.1-.1zm2.494-4.09l-.048-.088.048.088zm2.406 8.78v-.1.1zm1.793-.339l.036.094.065-.025v-.069h-.1zm0-13.612h.1v-.05l-.04-.03-.06.08zm-3.909 4.135l-.086.05.086-.05zm.39.67l.047.089.091-.05-.052-.09-.087.051zm3.518 10.389h.1v-.132l-.127.035.027.097zm-.992.2l-.012-.099-.088.011v.088h.1zm.992 4.629v.1h.1v-.1h-.1zm-.992 0h-.1v.1h.1v-.1zm25.759 2.583l-.073.07.03.03h.043v-.1zm0 0v.1h.044l.03-.032-.074-.068zm9.37-21.268h.1-.1zm-3.272 13.504a86.072 86.072 0 0 1-2.7 5.092l.174.1a86.264 86.264 0 0 0 2.706-5.104l-.18-.088zM43.8 22.307c0 1.803-.81 4.46-1.8 7.036-.99 2.57-2.155 5.042-2.856 6.47l.18.088c.702-1.43 1.87-3.908 2.863-6.486.99-2.574 1.813-5.263 1.813-7.108h-.2zm-7.302-10.329A10.948 10.948 0 0 1 43.8 22.307h.2c0-4.861-3.112-9.003-7.436-10.518l-.066.19zM36.43.1v11.784h.2V.1h-.2zM8.279.2H36.53V0H8.279v.2zm.1 19.076V.1h-.2v19.176h.2zm-1.659-.227c.537 0 1.046.12 1.52.32l.078-.186a4.09 4.09 0 0 0-1.598-.335v.2zm-4.169 4.433c0-2.45 1.876-4.433 4.17-4.433v-.2c-2.416 0-4.37 2.084-4.37 4.633h.2zm.311 1.682a4.685 4.685 0 0 1-.31-1.683H2.35c0 .605.11 1.2.324 1.755l.187-.072zM.201 30.23c0-1.972.99-3.812 2.625-4.95l-.115-.164C1.024 26.29.001 28.191.001 30.231h.2zm5.61 6.052C2.66 35.955.2 33.363.2 30.231H0c0 3.242 2.543 5.913 5.789 6.252l.02-.2zm.09 4.709v-4.61h-.2v4.61h.2zm-5.06.1h4.96v-.2H.84v.2zm.101 1.396v-1.496h-.2v1.496h.2zm29.511-.1H.842v.2h29.611v-.2zm2.595 2.742a.796.796 0 0 1-.334-.065 1.633 1.633 0 0 1-.462-.332c-.38-.361-.908-1.038-1.714-2.3l-.17.109c.808 1.263 1.347 1.957 1.745 2.337.2.19.369.304.522.37a.994.994 0 0 0 .413.082v-.2zm2.476-2.695c-.79 1.26-1.308 1.938-1.684 2.298-.187.18-.335.278-.459.332a.793.793 0 0 1-.333.065v.2a.994.994 0 0 0 .413-.081c.153-.066.32-.18.518-.37.395-.38.925-1.075 1.715-2.338l-.17-.106zm6.691-.047H35.61v.2h6.606v-.2zm-.1-1.396v1.496h.2v-1.496h-.2zm-5.584.1h5.684v-.2h-5.684v.2zm-.1-.138v.037l.2.001v-.037h-.2zM35.044 1.496H9.766v.2h25.278v-.2zm.1 9.984V1.596h-.2v9.884h.2zm-2.212-.106c.715 0 1.413.071 2.093.204l.038-.196a11.058 11.058 0 0 0-2.131-.209v.2zm-6.62 2.272a10.77 10.77 0 0 1 6.62-2.272v-.2c-2.537 0-4.874.864-6.743 2.313l.123.159zm-13.086.019l13.024.002v-.201l-13.024-.002v.2zm.1 1.395v-1.496h-.2v1.496h.2zm11.345-.1H13.226v.2H24.67v-.2zm-1.767 3.131a10.964 10.964 0 0 1 1.842-2.965l-.151-.131a11.16 11.16 0 0 0-1.876 3.019l.185.077zm-9.678.062h9.586v-.2h-9.586v.2zm.1 1.396v-1.497h-.2v1.497h.2zm8.984-.1h-9.084v.2h9.084v-.2zm-.246 2.86c0-.944.119-1.861.343-2.736l-.194-.05c-.229.891-.35 1.825-.35 2.786h.2zm.006.12c-.003-.045-.006-.084-.006-.12h-.2c0 .044.003.09.005.133l.2-.013zm0 0l-.2.014.2-.014zm.004.066l-.004-.066-.2.014.003.063.2-.01zm0 .024v-.023l-.2.01v.022l.2-.01zm.002.018l-.001-.017-.2.007v.017l.2-.007zm-8.85.104h8.75v-.2h-8.75v.2zm.1 1.396V22.54h-.2v1.496h.2zm8.828-.1h-8.928v.2h8.928v-.2zm.902 3.06c-.35-1.051-.63-2.064-.804-2.98l-.197.038c.175.927.46 1.949.81 3.005l.191-.063zm-9.82.132h9.725v-.2h-9.725v.2zm.1 1.396v-1.496h-.2v1.496h.2zm10.152-.1H13.236v.2h10.252v-.2zm1.312 3.052a60.726 60.726 0 0 1-1.218-2.988l-.188.07a60.942 60.942 0 0 0 1.222 2.998l.184-.08zm-11.566.14h11.474v-.2H13.234v.2zm.1 9.375v-9.475h-.2v9.475h.2zm-3.57.1h3.47v-.2h-3.47v.2zm-.1-39.496v39.396h.201V1.596h-.2zm.114-.1l-.026.2.026-.2zm5.042 39.496v-7.98h-.2v7.98h.2zm6.841-.1H14.72v.2h6.941v-.2zm-.1-7.88v7.98h.2v-7.98h-.2zm-6.841.101h6.941v-.2H14.72v.2zm8.328-.1v7.979h.2v-7.98h-.2zm2.327-.1h-2.227v.2h2.227v-.2zm1.462 2.907a91.803 91.803 0 0 1-1.371-2.85l-.182.085a91.875 91.875 0 0 0 1.374 2.855l.179-.09zm2.785 5.12a85.934 85.934 0 0 1-2.785-5.12l-.18.09a86.187 86.187 0 0 0 2.792 5.133l.173-.102zm-6.474.152h6.387v-.2h-6.387v.2zm-21.46-10.86c0-1.651.934-3.184 2.44-4.001l-.095-.177c-1.568.85-2.546 2.45-2.546 4.177h.2zm4.8 4.59c-2.652.002-4.8-2.063-4.8-4.59h-.201c0 2.646 2.246 4.792 5 4.79v-.2zm1.757-.333a4.91 4.91 0 0 1-1.758.333v.2a5.11 5.11 0 0 0 1.83-.345l-.072-.188zM8.18 20.971v13.612h.2V20.971h-.2zm-1.458-.426c.553 0 1.07.189 1.499.506l.119-.16a2.714 2.714 0 0 0-1.618-.546v.2zM4.04 23.482c0-1.627 1.212-2.937 2.682-2.937v-.2c-1.597 0-2.883 1.416-2.883 3.137h.2zm.418 1.574a3.136 3.136 0 0 1-.418-1.574h-.2c0 .593.153 1.172.445 1.675l.173-.101zm.39.67l-.39-.67-.173.1.389.67.173-.1zm-.72.505l.68-.366-.095-.177-.68.366.095.177zm4.124 9.837a6.834 6.834 0 0 1-.977.198l.025.199c.344-.044.68-.113 1.006-.204l-.054-.193zm.127 4.926v-4.83h-.2v4.83h.2zm-1.092.1h.992v-.2h-.992v.2zm-.1-4.729v4.629h.2v-4.629h-.2zm25.931 7.143c-.489-.514-1.333-1.777-2.327-3.473a90.91 90.91 0 0 1-3.201-6.013c-1.075-2.208-2.086-4.507-2.828-6.571-.744-2.068-1.213-3.888-1.213-5.142h-.2c0 1.291.48 3.14 1.224 5.21.746 2.073 1.76 4.38 2.836 6.59a91.12 91.12 0 0 0 3.21 6.028c.992 1.693 1.846 2.976 2.354 3.51l.145-.14zm-.072-.031v.2-.2zm9.269-21.168c0 1.257-.46 3.079-1.185 5.147-.725 2.064-1.711 4.363-2.76 6.57a91.491 91.491 0 0 1-3.125 6.01c-.97 1.695-1.794 2.958-2.272 3.473l.147.136c.496-.534 1.33-1.817 2.3-3.51a91.72 91.72 0 0 0 3.132-6.023c1.05-2.21 2.04-4.517 2.767-6.59.727-2.07 1.196-3.92 1.197-5.213h-.201zm-9.383-9.44c5.173 0 9.383 4.234 9.383 9.44h.2c0-5.316-4.297-9.641-9.583-9.641v.2zm-9.383 9.44c0-5.206 4.21-9.44 9.383-9.44v-.201c-5.286 0-9.584 4.325-9.584 9.641h.2z"/>
</svg>
