<svg xmlns="http://www.w3.org/2000/svg" width="72" height="72" fill="none" viewBox="0 0 72 72"><defs><style>.cls-1{fill:#fff;}</style></defs><title>icon_security</title><path class="cls-1" d="M42,17.62a.88.88,0,0,1-.44.54.78.78,0,0,1-.63.08A18.26,18.26,0,0,0,23,23a18.46,18.46,0,0,0-4.74,17.95.78.78,0,0,1-.08.63.6.6,0,0,1-.54.36h-.18a.85.85,0,0,1-.81-.63,19.86,19.86,0,0,1,5.18-19.56,20.27,20.27,0,0,1,19.56-5.18,1.2,1.2,0,0,1,.54.44A1.51,1.51,0,0,1,42,17.62Z" transform="translate(-9.99 -10.09)"/><path class="cls-1" d="M42.36,12.08a1.2,1.2,0,0,1-.44.54.78.78,0,0,1-.63.08A24.57,24.57,0,0,0,35,11.81,23.25,23.25,0,0,0,12.63,41.29a.78.78,0,0,1-.08.63.91.91,0,0,1-.54.44h-.28a.85.85,0,0,1-.81-.63,24.89,24.89,0,0,1,6.3-24.29A25.31,25.31,0,0,1,41.83,11a1.86,1.86,0,0,1,.54.36A1.92,1.92,0,0,1,42.36,12.08Zm8,38.22a20.23,20.23,0,0,1-14.2,5.89,21.52,21.52,0,0,1-5.36-.71A.88.88,0,0,1,30.3,55a1.51,1.51,0,0,1-.08-.63,1.86,1.86,0,0,1,.36-.54,1.51,1.51,0,0,1,.63-.08,18.14,18.14,0,0,0,4.92.71,18.84,18.84,0,0,0,13-5.36,18.46,18.46,0,0,0,4.72-17.95.78.78,0,0,1,.08-.63.6.6,0,0,1,.54-.36.78.78,0,0,1,.63.08.91.91,0,0,1,.44.54A20.16,20.16,0,0,1,50.4,50.3Z" transform="translate(-9.99 -10.09)"/><path class="cls-1" d="M62,37A24.85,24.85,0,0,1,37.24,61.91h-.14a24.68,24.68,0,0,1-6.65-.9.83.83,0,0,1-.55-1v0a.91.91,0,0,1,1-.56A23.3,23.3,0,0,0,59.59,30.66a.78.78,0,0,1,.08-.63.91.91,0,0,1,.54-.44,1,1,0,0,1,1.07.63v.08A34.14,34.14,0,0,1,62,37ZM48.47,29.76v-.18a.91.91,0,0,0-.89-.89c-4.46,0-5.08-3.31-5.18-3.49a.84.84,0,0,0-.81-.71H30.66a.78.78,0,0,0-.81.71A4.35,4.35,0,0,1,29,27a5.57,5.57,0,0,1-4.29,1.69A1,1,0,0,0,24,29a.81.81,0,0,0-.26.63v.26A19.06,19.06,0,0,0,35.81,49c.08,0,.18.08.36.08a.54.54,0,0,0,.36-.08A19.36,19.36,0,0,0,48.47,29.76ZM36.11,47.18A17.36,17.36,0,0,1,25.48,30.35a6.48,6.48,0,0,0,5.81-4.11H40.9a6.36,6.36,0,0,0,5.81,4.11A17.36,17.36,0,0,1,36.11,47.18Z" transform="translate(-9.99 -10.09)"/></svg>