<svg xmlns="http://www.w3.org/2000/svg" width="42" height="42" fill="none" viewBox="0 0 42 42">
    <path fill="#000" fill-rule="evenodd" d="M28.619 5.274h.097c3.419 0 6.544 1.368 8.889 3.81 2.441 2.54 3.809 5.86 3.711 9.474-.098 6.642-4.981 12.112-11.33 12.99l.293.587c.195.39.195.879 0 1.27-.293.488-.781.781-1.465.781h-.098v6.837c0 .293-.195.489-.488.489s-.489-.196-.489-.489v-6.837h-.195c-.586 0-1.172-.293-1.465-.781a1.45 1.45 0 0 1 0-1.27l.293-.586c-3.516-.488-6.642-2.54-8.595-5.47-.88.39-1.856.586-2.833.684l.293.586c.195.39.195.879 0 1.27-.293.488-.781.781-1.465.781h-.098v11.623c0 .293-.195.489-.488.489s-.488-.196-.488-.489V29.4h-.196c-.586 0-1.172-.293-1.465-.781a1.45 1.45 0 0 1 0-1.27l.293-.586C5.08 25.786.293 20.12.39 13.577.88 6.349 6.643.488 13.675.488h.098c4.102 0 8.01 2.15 10.353 5.568 1.466-.489 2.93-.782 4.494-.782zM13.967 26.08c.098-.195.196-.293.391-.293 1.074-.098 2.149-.293 3.126-.684-1.172-2.05-1.856-4.395-1.759-6.837.098-5.274 3.126-9.767 7.521-11.818-2.148-3.126-5.665-4.982-9.376-4.982h-.196c-6.446 0-11.818 5.372-11.916 12.112-.098 6.349 4.688 11.72 10.744 12.307.196 0 .293.097.391.293.098.195.098.293 0 .488l-.684 1.27c-.097.098-.097.195 0 .293.098.098.293.293.586.293h1.27c.293 0 .488-.098.586-.293.098-.098.098-.195 0-.293l-.684-1.27a.622.622 0 0 1 0-.586zm14.945 4.786c.097-.195.195-.293.39-.293 6.154-.39 11.038-5.665 11.135-12.014.098-3.32-1.172-6.446-3.418-8.79a11.302 11.302 0 0 0-8.205-3.517h-.098c-6.446 0-11.818 5.372-11.916 12.112-.098 6.349 4.688 11.72 10.744 12.307.195 0 .293.097.39.293.098.195.098.293 0 .488l-.683 1.27c-.098.098-.098.195 0 .293.098.098.293.293.586.293h1.27c.293 0 .488-.098.586-.293.098-.098.098-.195 0-.293l-.684-1.27c-.195-.195-.195-.39-.097-.586zM10.256 4.102C6.642 5.762 4.298 9.377 4.2 13.48c0 1.954.488 3.907 1.465 5.568.098.195.293.293.39.293.098 0 .196 0 .294-.098.195-.098.293-.489.195-.684-.879-1.465-1.367-3.223-1.367-5.079.195-3.712 2.246-7.032 5.567-8.498.293-.097.39-.39.293-.683-.195-.196-.488-.293-.781-.196zM25.2 8.888c-3.614 1.66-5.958 5.275-6.056 9.377 0 1.954.489 3.907 1.465 5.568.098.195.293.293.39.293.099 0 .196 0 .294-.098.195-.098.293-.488.195-.684-.879-1.465-1.367-3.223-1.367-5.079.098-3.614 2.149-6.935 5.47-8.4.293-.098.39-.39.293-.684-.098-.293-.391-.488-.684-.293z" clip-rule="evenodd"/>
    <path fill="#000" d="M41.61 18.558a12.958 12.958 0 0 0-3.81-9.572c-2.442-2.442-5.665-3.81-8.986-3.907h-.098a12.99 12.99 0 0 0-4.395.781C21.879 2.442 18.07.293 13.87.293h-.196C6.544.293.684 6.153.586 13.479c-.098 6.642 4.59 12.307 10.842 13.284l-.196.39c-.292.489-.292.977 0 1.466.293.488.88.879 1.563.879h.098v11.525c0 .391.293.684.684.684.39 0 .683-.293.683-.684V29.498c.586 0 1.172-.391 1.466-.88.292-.488.292-.976 0-1.464l-.196-.391c.88-.098 1.758-.39 2.54-.684a12.86 12.86 0 0 0 8.4 5.372l-.196.39c-.293.49-.293.978 0 1.466s.88.88 1.563.88h.098v6.836c0 .391.293.684.684.684.39 0 .683-.293.683-.684v-6.642c.586 0 1.172-.39 1.465-.879.293-.488.293-.976 0-1.465l-.195-.39c6.056-.88 10.94-6.447 11.037-13.089zm-27.154 7.13h-.098c-.195 0-.39.196-.488.391-.098.195-.098.488 0 .586l.683 1.172v.196c0 .097-.195.195-.39.195h-1.27c-.195 0-.39-.098-.39-.195v-.098-.098l.683-1.27a.623.623 0 0 0 0-.586c-.098-.195-.293-.293-.488-.39-6.056-.489-10.745-5.86-10.647-12.112 0-6.544 5.275-11.819 11.623-11.819h.098c3.614 0 7.033 1.856 9.181 4.787a13.299 13.299 0 0 0-7.325 11.916c0 2.442.586 4.786 1.758 6.74a15.57 15.57 0 0 1-2.93.585zm14.846 4.786c-.293 0-.488.196-.586.391-.098.196-.098.489 0 .586l.684 1.27v.195c0 .098-.195.196-.39.196h-1.27c-.196 0-.391-.098-.391-.196v-.097-.098l.683-1.27a.623.623 0 0 0 0-.586c-.097-.195-.293-.293-.488-.39-6.056-.489-10.744-5.861-10.646-12.112.097-6.642 5.372-11.916 11.72-11.916h.098c3.028 0 5.958 1.27 8.107 3.516 2.247 2.344 3.419 5.372 3.419 8.693 0 6.153-4.884 11.428-10.94 11.818z"/>
    <path fill="#000" d="M26.08 9.084c-.196-.293-.587-.489-.88-.293 0 0-.098 0-.098.097-3.614 1.66-5.86 5.373-5.958 9.377 0 2.051.489 4.005 1.563 5.665.098.196.293.293.586.293.098 0 .195 0 .293-.097.293-.196.39-.587.196-.88a9.786 9.786 0 0 1-1.368-4.98c.098-3.615 2.149-6.838 5.372-8.303.293-.196.39-.586.293-.88zM10.744 5.177C7.521 6.642 5.47 9.865 5.372 13.479c0 1.758.488 3.516 1.367 4.982.196.293.098.683-.195.879-.098.097-.195.097-.293.097-.195 0-.39-.098-.586-.293-1.074-1.66-1.563-3.614-1.563-5.665.098-4.005 2.442-7.716 5.958-9.377l.098-.097c.293-.196.684 0 .88.293.194.293.097.683-.294.879z"/>
</svg>
