<svg xmlns="http://www.w3.org/2000/svg" width="32" height="32" fill="none" viewBox="0 0 32 32">
    <path fill="#000" d="M28.84 13.094C25.425 9.65 20.854 7.76 16 7.76S6.575 9.651 3.16 13.094l-1.185-1.185c3.753-3.753 8.748-5.813 14.053-5.813 5.304 0 10.3 2.06 14.052 5.813l-1.24 1.185zm-2.54 2.54c-2.765-2.765-6.406-4.261-10.3-4.261a14.495 14.495 0 0 0-10.3 4.26l1.185 1.186a12.83 12.83 0 0 1 9.114-3.781 12.83 12.83 0 0 1 9.115 3.78l1.186-1.184zm-3.725 3.724A9.266 9.266 0 0 0 16 16.62c-2.484 0-4.825.96-6.575 2.738l1.185 1.185A7.577 7.577 0 0 1 16 18.314c2.031 0 3.95.79 5.39 2.229l1.185-1.185zM16 25.933l2.229-2.229a3.168 3.168 0 0 0-4.487 0L16 25.933z"/>
</svg>
