<svg xmlns="http://www.w3.org/2000/svg" width="56" height="56" fill="none" viewBox="0 0 56 56">
    <path fill="#000" stroke="#000" stroke-width=".7" d="M48.148 10.889H4.483a3.71 3.71 0 0 0-3.705 3.705v24.479a3.71 3.71 0 0 0 3.705 3.705h43.665a3.71 3.71 0 0 0 3.705-3.705v-24.48a3.71 3.71 0 0 0-3.705-3.704zM4.483 11.948h43.665a2.649 2.649 0 0 1 2.646 2.646v1.985H1.836v-1.985a2.649 2.649 0 0 1 2.647-2.646zm46.311 5.69V22.4H1.836v-4.764h48.958zm-2.646 24.081H4.483a2.649 2.649 0 0 1-2.647-2.646V23.459h48.958v15.614a2.649 2.649 0 0 1-2.646 2.646z"/>
    <path fill="#3667BD" stroke="#3667BD" stroke-width=".5" d="M33.312 35.996l-3.965-3.968a.81.81 0 0 0-1.117.002.79.79 0 0 0 .001 1.115l4.228 4.227.3.295c.299.298.817.298 1.116.002l9.108-9.108a.793.793 0 0 0 .001-1.117.813.813 0 0 0-1.117 0l-8.555 8.552z"/>
</svg>
