<?xml version="1.0" encoding="utf-8"?>
<!-- Generator: Adobe Illustrator 21.0.0, SVG Export Plug-In . SVG Version: 6.00 Build 0)  -->
<svg version="1.1" width="72" height="72" id="Слой_1" xmlns="http://www.w3.org/2000/svg" xmlns:xlink="http://www.w3.org/1999/xlink" x="0px" y="0px"
	 viewBox="0 0 72 72" style="enable-background:new 0 0 72 72;" xml:space="preserve">
<style type="text/css">
	.st0{fill:none;stroke:#3667BD;stroke-width:2.4;stroke-linecap:round;stroke-linejoin:round;}
	.st1{stroke:#000000;stroke-width:0.25;}
</style>
<title>icon_individual</title>
<path class="st0" d="M52.7,5.5l4.2,9l9.4,1.4l-6.8,7l1.6,9.8l-8.4-4.7l-8.4,4.7l1.6-9.8l-6.8-7l9.4-1.4L52.7,5.5L52.7,5.5z"/>
<path class="st1" d="M19.1,34.1c-8.1,0-14.7-6.6-14.7-14.7S11,4.6,19.1,4.6s14.7,6.6,14.7,14.7S27.2,34.1,19.1,34.1z M19.1,7.2
	c-6.7,0-12.2,5.5-12.2,12.2c0,6.7,5.5,12.2,12.2,12.2c6.7,0,12.2-5.5,12.2-12.2c0,0,0,0,0,0C31.3,12.6,25.8,7.1,19.1,7.2L19.1,7.2z
	 M19.1,66.9c-8.1,0-14.7-6.6-14.7-14.7S11,37.5,19.1,37.5S33.8,44,33.8,52.2l0,0C33.8,60.3,27.2,66.9,19.1,66.9z M19.1,40
	c-6.7,0-12.2,5.5-12.2,12.2c0,6.7,5.5,12.2,12.2,12.2c6.7,0,12.2-5.5,12.2-12.2c0,0,0,0,0,0C31.3,45.4,25.8,40,19.1,40z M53,66.9
	c-8.1,0-14.7-6.6-14.7-14.7S44.9,37.5,53,37.5S67.8,44,67.8,52.2l0,0C67.8,60.3,61.2,66.9,53,66.9L53,66.9z M53,40
	c-6.7,0-12.2,5.5-12.2,12.2c0,6.7,5.5,12.2,12.2,12.2c6.7,0,12.2-5.5,12.2-12.2c0,0,0,0,0,0C65.2,45.4,59.8,40,53,40L53,40z"/>
</svg>
