<svg xmlns="http://www.w3.org/2000/svg" width="72" height="72" fill="none" viewBox="0 0 72 72">
    <path fill="#fff" stroke="#fff" stroke-width=".25" d="M15.412 41.282a.802.802 0 0 1-.534-.547c-2.024-7.296.038-15.144 5.375-20.482 5.338-5.338 13.186-7.399 20.478-5.375a.8.8 0 0 1-.428 1.541c-6.734-1.868-13.987.035-18.918 4.963m-5.974 19.9l.89-.945c-1.883-6.783.032-14.08 4.995-19.043l.089.088m-5.974 19.9l-.03.037h.269c.071 0 .144-.01.217-.031m-.456-.006l.334-.007.088-.104.033.117h.001m5.518-19.906c-4.932 4.932-6.834 12.182-4.963 18.921m4.963-18.92l-4.963 18.92m-.555.985a.8.8 0 0 0 .555-.985m-.555.985h.001l-.035-.117.005-.005.584-.863"/>
    <path fill="#fff" stroke="#fff" stroke-width=".25" d="M40.508 10.515c-8.443-2.266-17.5.146-23.675 6.318C10.61 23.057 8.21 32.206 10.57 40.71a.8.8 0 0 1-1.54.428c-2.513-9.057.042-18.803 6.675-25.434l.088.089C22.39 9.194 32.086 6.65 41.104 9.15l-.596 1.365zm0 0l.202.055a.801.801 0 0 0 .984-.556l-.12-.034-1.066.535zM30.16 54.003h-.001l-.053-.015a.8.8 0 0 0-.428 1.541c1.855.515 3.744.764 5.62.764 5.501 0 10.88-2.157 14.861-6.139 5.338-5.338 7.397-13.185 5.375-20.48a.8.8 0 0 0-.985-.557l.034.12-.034-.12a.8.8 0 0 0-.556.985c1.871 6.74-.031 13.99-4.963 18.92a19.445 19.445 0 0 1-18.87 4.98z"/>
    <path fill="#fff" stroke="#fff" stroke-width=".25" d="M61.395 29.322c2.487 9.045-.07 18.77-6.687 25.384l-.089-.088.089.088c-4.948 4.945-11.626 7.624-18.46 7.624a26.09 26.09 0 0 1-6.976-.949.8.8 0 0 1-.557-.985.802.802 0 0 1 .984-.556c8.507 2.356 17.654-.045 23.878-6.265m7.818-24.253l-1.435.343c2.37 8.55-.042 17.742-6.295 23.998l-.088-.088m7.818-24.253l-.015-.052a.8.8 0 0 0-1.54.428l1.555-.376zm-7.819 24.253c6.221-6.224 8.622-15.37 6.264-23.877l-6.264 23.877zM35.205 48.576a.776.776 0 0 1-.268-.053l.268.053zm0 0v.125a.9.9 0 0 1-.312-.06l-.006-.003C22.965 43.444 22.163 32.95 22.372 28.687a5.47 5.47 0 0 1 .005-.14l.003-.071h.125a.685.685 0 0 1 .675-.694c4.887 0 5.599-3.658 5.625-3.814l6.4 24.608zm5.736-25.292l-11.471.003L35.206 48.7a.8.8 0 0 0 .318-.066c11.923-5.195 12.724-15.69 12.515-19.952a9.115 9.115 0 0 0-.004-.07c-.004-.068-.006-.108-.004-.129v-.005a.805.805 0 0 0-.225-.58.795.795 0 0 0-.575-.245c-2.387 0-3.752-.9-4.524-1.805-.775-.909-.965-1.835-.978-1.906a.8.8 0 0 0-.788-.659zm-16.989 5.941c4.154-.307 5.641-3.058 6.111-4.34h10.283c.468 1.283 1.955 4.033 6.111 4.34.104 4.154-.956 13.14-11.252 17.8-10.296-4.66-11.356-13.646-11.253-17.8z"/>
</svg>
