<svg xmlns="http://www.w3.org/2000/svg" width="56" height="56" fill="none" viewBox="0 0 56 56">
    <path fill="#3667BD" stroke="#3667BD" stroke-width=".8" d="M11.2 24.08H7.28c-.337 0-.56.223-.56.56 0 .337.223.56.56.56h3.92c.337 0 .56-.223.56-.56 0-.337-.223-.56-.56-.56zM47.6 24.08h-3.92c-.337 0-.56.223-.56.56 0 .337.223.56.56.56h3.92c.337 0 .56-.223.56-.56 0-.337-.223-.56-.56-.56zM28 8.4V4.48c0-.337-.223-.56-.56-.56-.337 0-.56.223-.56.56V8.4c0 .337.223.56.56.56A.56.56 0 0 0 28 8.4zM15.623 13.497c.111.112.28.168.391.168.112 0 .28-.056.392-.168a.542.542 0 0 0 0-.783L13.663 9.97a.542.542 0 0 0-.783 0 .542.542 0 0 0 0 .783l2.743 2.743zM39.257 35.56a.542.542 0 0 0-.783 0 .542.542 0 0 0 0 .783l2.743 2.743c.112.112.28.169.392.169.111 0 .28-.057.391-.169a.542.542 0 0 0 0-.783l-2.743-2.743zM41.217 9.969l-2.743 2.743a.542.542 0 0 0 0 .783c.112.111.28.168.392.168.111 0 .28-.057.391-.168L42 10.752a.542.542 0 0 0 0-.783.538.538 0 0 0-.783 0zM15.623 35.56l-2.743 2.743a.542.542 0 0 0 0 .783c.111.112.28.169.391.169.112 0 .28-.057.392-.169l2.743-2.743a.542.542 0 0 0 0-.783.542.542 0 0 0-.783 0z"/>
    <path fill="#000" stroke="#000" stroke-width=".8" d="M36.288 14.671c-2.631-2.463-6.048-3.694-9.688-3.471-6.383.391-11.537 5.488-12.04 11.817-.28 4.088 1.343 8.009 4.48 10.64 1.791 1.512 2.743 3.64 2.743 6.103l.057 3.92v1.12c0 3.303 2.857 6.16 6.103 6.16 3.194 0 5.657-2.689 5.657-6.16v-1.12l.057-5.04c0-2.463 1.68-4.48 2.688-5.432 2.575-2.408 3.975-5.711 3.975-9.24 0-3.528-1.457-6.831-4.032-9.297zM32.48 44.8c0 2.8-2.017 5.04-4.537 5.04-2.632 0-4.983-2.352-4.983-5.04v-.56h9.52v.56zm3.08-12.377c-1.96 1.903-3.08 4.088-3.08 6.217v4.48h-3.92l-.057-14.729a3.976 3.976 0 0 0 3.417-3.92c0-.337-.223-.56-.56-.56-.337 0-.56.223-.56.56a2.87 2.87 0 0 1-2.857 2.857 2.87 2.87 0 0 1-2.857-2.857c0-.337-.223-.56-.56-.56-.337 0-.56.223-.56.56 0 2.017 1.512 3.64 3.417 3.92l.057 14.729h-4.48l-.057-3.36c0-2.743-1.12-5.209-3.137-6.943-2.857-2.463-4.368-5.991-4.088-9.743.448-5.768 5.151-10.417 10.977-10.751 3.303-.223 6.44.897 8.848 3.191 2.352 2.24 3.697 5.263 3.697 8.457 0 3.247-1.288 6.213-3.64 8.453v-.001z"/>
</svg>
