<svg xmlns="http://www.w3.org/2000/svg" width="72" height="72" fill="none" viewBox="0 0 72 72">
    <path fill="#fff" stroke="#fff" stroke-width=".4" d="M64.437 4h-8a.667.667 0 0 0-.667.668V44.68a.652.652 0 0 0 .014.127c.005.025.013.048.02.073l4 12c.09.272.346.455.633.455a.664.664 0 0 0 .633-.455l4-12a.614.614 0 0 0 .02-.073c0-.002 0-.005.002-.007a.652.652 0 0 0 .013-.12V4.667A.666.666 0 0 0 64.436 4zm-7.332 6.668h6.667V44h-6.667V10.668zm0-5.335h6.667v4h-6.667v-4zm3.332 49.224l-3.075-9.224h6.15l-3.075 9.224zM40.971 57.332h-27.2a.667.667 0 1 0 0 1.335h27.2a.667.667 0 1 0 0-1.335z"/>
    <path fill="#fff" stroke="#fff" stroke-width=".4" d="M53.092 16.538v-.003a.798.798 0 0 0-.047-.142.753.753 0 0 0-.04-.078l-.018-.03a.867.867 0 0 0-.075-.092L42.245 5.525a.673.673 0 0 0-.093-.075c-.01-.007-.02-.012-.03-.017a.455.455 0 0 0-.078-.04l-.032-.015c-.035-.013-.07-.025-.108-.033H41.9a.89.89 0 0 0-.117-.012c-.002.002-.007 0-.01 0H7.105A.667.667 0 0 0 6.437 6v61.332c0 .368.298.668.668.668h45.332a.667.667 0 0 0 .667-.668V16.668c0-.005 0-.008-.002-.013 0-.04-.003-.08-.01-.117zM50.827 16h-8.39V7.61l8.39 8.39zM7.772 66.668v-60h33.333v10c0 .367.297.667.667.667h10v49.333h-44z"/>
    <path fill="#fff" stroke="#fff" stroke-width=".4" d="M45.772 41.333h-32a.667.667 0 1 0 0 1.334h32a.667.667 0 1 0 0-1.334zM13.771 48h27.353a.667.667 0 1 0 0-1.335l-27.353.002a.667.667 0 1 0 0 1.333zM45.772 52h-32a.667.667 0 1 0 0 1.335h32a.667.667 0 1 0 0-1.335zM13.771 37.333h27.2a.667.667 0 1 0 0-1.335l-27.2.002a.667.667 0 1 0 0 1.333zM13.771 26.668h27.353a.667.667 0 1 0 0-1.335H13.77a.667.667 0 1 0 0 1.335zM45.772 30.667h-32a.667.667 0 1 0 0 1.335h32a.667.667 0 1 0 0-1.335z"/>
</svg>
