<svg width="72" height="72" viewBox="0 0 72 72" fill="none" xmlns="http://www.w3.org/2000/svg">
<mask id="path-1-inside-1" fill="white">
<path d="M61.2756 18.1768H11.7763C9.90122 18.1768 8.39966 19.6783 8.39966 21.5534V30.5516C8.39966 32.4267 9.90122 33.9283 11.7763 33.9283H18.3391L15.153 52.8657C15.0577 53.1477 15.153 53.5212 15.4349 53.8032C15.6217 54.0852 15.9989 54.1768 16.2773 54.1768H56.7781C57.1516 54.1768 57.4336 53.99 57.6204 53.8032C57.8072 53.5212 57.9024 53.2392 57.9024 52.8657L54.7163 33.9283H61.2791C63.1541 33.9283 64.6557 32.4267 64.6557 30.5516V21.5497C64.652 19.6747 63.1505 18.1768 61.2754 18.1768H61.2756ZM17.5881 51.9282L21.7118 27.179H44.5859L48.7132 51.9282H17.5881ZM55.4629 51.9282H50.9619L46.8383 27.1753H51.3392L55.4629 51.9282ZM62.4029 30.5514C62.4029 31.2069 61.9341 31.6757 61.2785 31.6757H54.3386L53.5878 27.1747H59.0263C59.6819 27.1747 60.1506 26.7059 60.1506 26.0504C60.1506 25.3949 59.6818 24.9261 59.0263 24.9261H14.0244C13.3688 24.9261 12.9001 25.3949 12.9001 26.0504C12.9001 26.7059 13.3688 27.1747 14.0244 27.1747H19.4628L18.7121 31.6757H11.7758C11.1202 31.6757 10.6515 31.2069 10.6515 30.5514V21.5495C10.6515 20.8939 11.1203 20.4252 11.7758 20.4252H61.2789C61.9344 20.4252 62.4032 20.8939 62.4032 21.5495L62.4029 30.5514ZM30.3361 42.7394C30.2409 42.1754 29.7722 41.8018 29.2118 41.8018H22.6491C22.0851 41.8018 21.6163 42.1754 21.5248 42.7394L20.5872 48.3646C20.492 48.6466 20.5872 49.0202 20.8692 49.3022C21.056 49.5842 21.4332 49.6757 21.7115 49.6757H30.1494C30.523 49.6757 30.805 49.4889 30.9917 49.3022C31.1785 49.0202 31.2737 48.7382 31.2737 48.3646L30.3361 42.7394ZM23.0262 47.4271L23.5902 44.0504H28.2779L28.8419 47.4271H23.0262Z"/>
</mask>
<path d="M61.2756 18.1768H11.7763C9.90122 18.1768 8.39966 19.6783 8.39966 21.5534V30.5516C8.39966 32.4267 9.90122 33.9283 11.7763 33.9283H18.3391L15.153 52.8657C15.0577 53.1477 15.153 53.5212 15.4349 53.8032C15.6217 54.0852 15.9989 54.1768 16.2773 54.1768H56.7781C57.1516 54.1768 57.4336 53.99 57.6204 53.8032C57.8072 53.5212 57.9024 53.2392 57.9024 52.8657L54.7163 33.9283H61.2791C63.1541 33.9283 64.6557 32.4267 64.6557 30.5516V21.5497C64.652 19.6747 63.1505 18.1768 61.2754 18.1768H61.2756ZM17.5881 51.9282L21.7118 27.179H44.5859L48.7132 51.9282H17.5881ZM55.4629 51.9282H50.9619L46.8383 27.1753H51.3392L55.4629 51.9282ZM62.4029 30.5514C62.4029 31.2069 61.9341 31.6757 61.2785 31.6757H54.3386L53.5878 27.1747H59.0263C59.6819 27.1747 60.1506 26.7059 60.1506 26.0504C60.1506 25.3949 59.6818 24.9261 59.0263 24.9261H14.0244C13.3688 24.9261 12.9001 25.3949 12.9001 26.0504C12.9001 26.7059 13.3688 27.1747 14.0244 27.1747H19.4628L18.7121 31.6757H11.7758C11.1202 31.6757 10.6515 31.2069 10.6515 30.5514V21.5495C10.6515 20.8939 11.1203 20.4252 11.7758 20.4252H61.2789C61.9344 20.4252 62.4032 20.8939 62.4032 21.5495L62.4029 30.5514ZM30.3361 42.7394C30.2409 42.1754 29.7722 41.8018 29.2118 41.8018H22.6491C22.0851 41.8018 21.6163 42.1754 21.5248 42.7394L20.5872 48.3646C20.492 48.6466 20.5872 49.0202 20.8692 49.3022C21.056 49.5842 21.4332 49.6757 21.7115 49.6757H30.1494C30.523 49.6757 30.805 49.4889 30.9917 49.3022C31.1785 49.0202 31.2737 48.7382 31.2737 48.3646L30.3361 42.7394ZM23.0262 47.4271L23.5902 44.0504H28.2779L28.8419 47.4271H23.0262Z" fill="white"/>
<path d="M18.3391 33.9283L18.5363 33.9615L18.5756 33.7283H18.3391V33.9283ZM15.153 52.8657L15.3424 52.9296L15.3475 52.9146L15.3502 52.8988L15.153 52.8657ZM15.4349 53.8032L15.6017 53.6928L15.5906 53.676L15.5764 53.6618L15.4349 53.8032ZM57.6204 53.8032L57.7618 53.9446L57.7761 53.9304L57.7872 53.9136L57.6204 53.8032ZM57.9024 52.8657H58.1024V52.849L58.0996 52.8325L57.9024 52.8657ZM54.7163 33.9283V33.7283H54.4798L54.519 33.9615L54.7163 33.9283ZM64.6557 21.5497H64.8557V21.5494L64.6557 21.5497ZM17.5881 51.9282L17.3908 51.8953L17.352 52.1282H17.5881V51.9282ZM21.7118 27.179V26.979H21.5424L21.5145 27.1462L21.7118 27.179ZM44.5859 27.179L44.7832 27.1461L44.7553 26.979H44.5859V27.179ZM48.7132 51.9282V52.1282H48.9494L48.9105 51.8953L48.7132 51.9282ZM55.4629 51.9282V52.1282H55.699L55.6602 51.8954L55.4629 51.9282ZM50.9619 51.9282L50.7647 51.9611L50.7925 52.1282H50.9619V51.9282ZM46.8383 27.1753V26.9753H46.6022L46.641 27.2081L46.8383 27.1753ZM51.3392 27.1753L51.5365 27.1424L51.5086 26.9753H51.3392V27.1753ZM62.4029 30.5514L62.2029 30.5513V30.5514H62.4029ZM54.3386 31.6757L54.1413 31.7086L54.1692 31.8757H54.3386V31.6757ZM53.5878 27.1747V26.9747H53.3517L53.3906 27.2076L53.5878 27.1747ZM19.4628 27.1747L19.6601 27.2076L19.699 26.9747H19.4628V27.1747ZM18.7121 31.6757V31.8757H18.8815L18.9094 31.7086L18.7121 31.6757ZM62.4032 21.5495L62.6032 21.5495V21.5495H62.4032ZM30.3361 42.7394L30.5334 42.7065L30.5334 42.7061L30.3361 42.7394ZM21.5248 42.7394L21.722 42.7723L21.7222 42.7714L21.5248 42.7394ZM20.5872 48.3646L20.7767 48.4286L20.7819 48.4134L20.7845 48.3975L20.5872 48.3646ZM20.8692 49.3022L21.036 49.1917L21.0249 49.175L21.0106 49.1607L20.8692 49.3022ZM30.9917 49.3022L31.1332 49.4436L31.1474 49.4294L31.1585 49.4126L30.9917 49.3022ZM31.2737 48.3646H31.4737V48.3481L31.471 48.3317L31.2737 48.3646ZM23.0262 47.4271L22.829 47.3941L22.7901 47.6271H23.0262V47.4271ZM23.5902 44.0504V43.8504H23.4209L23.393 44.0175L23.5902 44.0504ZM28.2779 44.0504L28.4752 44.0175L28.4473 43.8504H28.2779V44.0504ZM28.8419 47.4271V47.6271H29.0781L29.0392 47.3941L28.8419 47.4271ZM61.2756 17.9768H11.7763V18.3768H61.2756V17.9768ZM11.7763 17.9768C9.79077 17.9768 8.19966 19.5679 8.19966 21.5534H8.59966C8.59966 19.7888 10.0117 18.3768 11.7763 18.3768V17.9768ZM8.19966 21.5534V30.5516H8.59966V21.5534H8.19966ZM8.19966 30.5516C8.19966 32.5372 9.79077 34.1283 11.7763 34.1283V33.7283C10.0117 33.7283 8.59966 32.3163 8.59966 30.5516H8.19966ZM11.7763 34.1283H18.3391V33.7283H11.7763V34.1283ZM18.1419 33.8951L14.9557 52.8325L15.3502 52.8988L18.5363 33.9615L18.1419 33.8951ZM14.9635 52.8017C14.8391 53.1701 14.9694 53.6205 15.2935 53.9446L15.5764 53.6618C15.3365 53.422 15.2764 53.1253 15.3424 52.9296L14.9635 52.8017ZM15.2682 53.9136C15.5109 54.28 15.9753 54.3768 16.2773 54.3768V53.9768C16.0226 53.9768 15.7326 53.8904 15.6017 53.6928L15.2682 53.9136ZM16.2773 54.3768H56.7781V53.9768H16.2773V54.3768ZM56.7781 54.3768C57.2231 54.3768 57.553 54.1535 57.7618 53.9446L57.479 53.6618C57.3143 53.8265 57.0802 53.9768 56.7781 53.9768V54.3768ZM57.7872 53.9136C57.9945 53.6007 58.1024 53.2806 58.1024 52.8657H57.7024C57.7024 53.1979 57.6199 53.4418 57.4537 53.6928L57.7872 53.9136ZM58.0996 52.8325L54.9135 33.8951L54.519 33.9615L57.7052 52.8988L58.0996 52.8325ZM54.7163 34.1283H61.2791V33.7283H54.7163V34.1283ZM61.2791 34.1283C63.2646 34.1283 64.8557 32.5372 64.8557 30.5516H64.4557C64.4557 32.3163 63.0437 33.7283 61.2791 33.7283V34.1283ZM64.8557 30.5516V21.5497H64.4557V30.5516H64.8557ZM64.8557 21.5494C64.8518 19.5639 63.2607 17.9768 61.2754 17.9768V18.3768C63.0402 18.3768 64.4523 19.7854 64.4557 21.5501L64.8557 21.5494ZM61.2754 18.3768H61.2756V17.9768H61.2754V18.3768ZM17.7854 51.9611L21.9091 27.2119L21.5145 27.1462L17.3908 51.8953L17.7854 51.9611ZM21.7118 27.379H44.5859V26.979H21.7118V27.379ZM44.3886 27.2119L48.516 51.9611L48.9105 51.8953L44.7832 27.1461L44.3886 27.2119ZM48.7132 51.7282H17.5881V52.1282H48.7132V51.7282ZM55.4629 51.7282H50.9619V52.1282H55.4629V51.7282ZM51.1592 51.8954L47.0355 27.1424L46.641 27.2081L50.7647 51.9611L51.1592 51.8954ZM46.8383 27.3753H51.3392V26.9753H46.8383V27.3753ZM51.1419 27.2081L55.2656 51.9611L55.6602 51.8954L51.5365 27.1424L51.1419 27.2081ZM62.2029 30.5514C62.2029 31.0964 61.8236 31.4757 61.2785 31.4757V31.8757C62.0445 31.8757 62.6029 31.3174 62.6029 30.5514H62.2029ZM61.2785 31.4757H54.3386V31.8757H61.2785V31.4757ZM54.5359 31.6427L53.7851 27.1418L53.3906 27.2076L54.1413 31.7086L54.5359 31.6427ZM53.5878 27.3747H59.0263V26.9747H53.5878V27.3747ZM59.0263 27.3747C59.7923 27.3747 60.3506 26.8164 60.3506 26.0504H59.9506C59.9506 26.5955 59.5714 26.9747 59.0263 26.9747V27.3747ZM60.3506 26.0504C60.3506 25.2844 59.7923 24.7261 59.0263 24.7261V25.1261C59.5714 25.1261 59.9506 25.5053 59.9506 26.0504H60.3506ZM59.0263 24.7261H14.0244V25.1261H59.0263V24.7261ZM14.0244 24.7261C13.2584 24.7261 12.7001 25.2844 12.7001 26.0504H13.1001C13.1001 25.5053 13.4793 25.1261 14.0244 25.1261V24.7261ZM12.7001 26.0504C12.7001 26.8164 13.2584 27.3747 14.0244 27.3747V26.9747C13.4793 26.9747 13.1001 26.5955 13.1001 26.0504H12.7001ZM14.0244 27.3747H19.4628V26.9747H14.0244V27.3747ZM19.2656 27.1418L18.5148 31.6427L18.9094 31.7086L19.6601 27.2076L19.2656 27.1418ZM18.7121 31.4757H11.7758V31.8757H18.7121V31.4757ZM11.7758 31.4757C11.2307 31.4757 10.8515 31.0964 10.8515 30.5514H10.4515C10.4515 31.3173 11.0098 31.8757 11.7758 31.8757V31.4757ZM10.8515 30.5514V21.5495H10.4515V30.5514H10.8515ZM10.8515 21.5495C10.8515 21.0044 11.2307 20.6252 11.7758 20.6252V20.2252C11.0098 20.2252 10.4515 20.7835 10.4515 21.5495H10.8515ZM11.7758 20.6252H61.2789V20.2252H11.7758V20.6252ZM61.2789 20.6252C61.824 20.6252 62.2032 21.0044 62.2032 21.5495H62.6032C62.6032 20.7835 62.0449 20.2252 61.2789 20.2252V20.6252ZM62.2032 21.5495L62.2029 30.5513L62.6029 30.5514L62.6032 21.5495L62.2032 21.5495ZM30.5334 42.7061C30.4211 42.0414 29.8651 41.6018 29.2118 41.6018V42.0018C29.6792 42.0018 30.0607 42.3094 30.1389 42.7727L30.5334 42.7061ZM29.2118 41.6018H22.6491V42.0018H29.2118V41.6018ZM22.6491 41.6018C21.9928 41.6018 21.4355 42.0409 21.3273 42.7074L21.7222 42.7714C21.7971 42.3099 22.1774 42.0018 22.6491 42.0018V41.6018ZM21.3275 42.7065L20.3899 48.3317L20.7845 48.3975L21.722 42.7723L21.3275 42.7065ZM20.3977 48.3006C20.2734 48.669 20.4036 49.1194 20.7278 49.4436L21.0106 49.1607C20.7708 48.9209 20.7107 48.6242 20.7767 48.4286L20.3977 48.3006ZM20.7025 49.4126C20.9451 49.779 21.4096 49.8757 21.7115 49.8757V49.4757C21.4568 49.4757 21.1668 49.3893 21.036 49.1917L20.7025 49.4126ZM21.7115 49.8757H30.1494V49.4757H21.7115V49.8757ZM30.1494 49.8757C30.5944 49.8757 30.9243 49.6525 31.1332 49.4436L30.8503 49.1607C30.6856 49.3254 30.4515 49.4757 30.1494 49.4757V49.8757ZM31.1585 49.4126C31.3658 49.0996 31.4737 48.7795 31.4737 48.3646H31.0737C31.0737 48.6968 30.9912 48.9407 30.825 49.1917L31.1585 49.4126ZM31.471 48.3317L30.5334 42.7065L30.1389 42.7723L31.0764 48.3975L31.471 48.3317ZM23.2235 47.46L23.7875 44.0834L23.393 44.0175L22.829 47.3941L23.2235 47.46ZM23.5902 44.2504H28.2779V43.8504H23.5902V44.2504ZM28.0807 44.0834L28.6446 47.46L29.0392 47.3941L28.4752 44.0175L28.0807 44.0834ZM28.8419 47.2271H23.0262V47.6271H28.8419V47.2271Z" fill="#3667BD" mask="url(#path-1-inside-1)"/>
</svg>
