<?xml version="1.0" encoding="utf-8"?>
<!-- Generator: Adobe Illustrator 21.0.0, SVG Export Plug-In . SVG Version: 6.00 Build 0)  -->
<svg version="1.1" id="Слой_1" width="72" height="72" xmlns="http://www.w3.org/2000/svg" xmlns:xlink="http://www.w3.org/1999/xlink" x="0px" y="0px"
	 viewBox="0 0 72 72" style="enable-background:new 0 0 72 72;" xml:space="preserve">
<style type="text/css">
	.st0{fill:#FFFFFF;}
</style>
<g>
	<title>icon_security</title>
	<path class="st0" d="M42,17.5c-0.1,0.2-0.2,0.4-0.4,0.5c-0.2,0.1-0.4,0.1-0.6,0.1c-6.4-1.8-13.3,0-17.9,4.8
		c-4.7,4.7-6.5,11.5-4.7,17.9c0.1,0.2,0,0.4-0.1,0.6c-0.1,0.2-0.3,0.4-0.5,0.4h-0.2c-0.4,0-0.7-0.3-0.8-0.6c-2-7,0-14.5,5.2-19.6
		c5.1-5.1,12.6-7.1,19.6-5.2c0.2,0.1,0.4,0.2,0.5,0.4C42,17.1,42,17.3,42,17.5z"/>
	<path class="st0" d="M42.4,12c-0.1,0.2-0.2,0.4-0.4,0.5c-0.2,0.1-0.4,0.1-0.6,0.1c-2-0.6-4.2-0.9-6.3-0.9
		c-12.8,0-23.2,10.4-23.2,23.3c0,2.1,0.3,4.2,0.9,6.2c0.1,0.2,0,0.4-0.1,0.6c-0.1,0.2-0.3,0.4-0.5,0.4h-0.3c-0.4,0-0.7-0.3-0.8-0.6
		c-2.4-8.6,0-17.9,6.3-24.3c6.5-6.4,15.8-8.9,24.6-6.4c0.2,0.1,0.4,0.2,0.5,0.4C42.4,11.5,42.4,11.8,42.4,12z M50.4,50.2
		c-3.8,3.8-8.9,5.9-14.2,5.9c-1.8,0-3.6-0.2-5.4-0.7c-0.2-0.1-0.4-0.3-0.5-0.5c-0.1-0.2-0.1-0.4-0.1-0.6c0.1-0.2,0.2-0.4,0.4-0.5
		c0.2-0.1,0.4-0.1,0.6-0.1c1.6,0.5,3.3,0.7,4.9,0.7c4.9,0,9.5-2,13-5.4c4.7-4.7,6.5-11.6,4.7-17.9c-0.1-0.2,0-0.4,0.1-0.6
		c0.1-0.2,0.3-0.4,0.5-0.4c0.2-0.1,0.4,0,0.6,0.1c0.2,0.1,0.4,0.3,0.4,0.5C57.5,37.6,55.5,45.1,50.4,50.2L50.4,50.2z"/>
	<path class="st0" d="M62,36.9c0,13.7-11,24.9-24.8,24.9h-0.1c-2.2,0-4.5-0.3-6.7-0.9c-0.4-0.1-0.7-0.6-0.5-1l0,0
		c0.2-0.4,0.6-0.6,1-0.6c12.4,3.5,25.2-3.8,28.7-16.2c1.2-4.1,1.1-8.5,0-12.6c-0.1-0.2,0-0.4,0.1-0.6c0.1-0.2,0.3-0.4,0.5-0.4
		c0.5-0.1,0.9,0.2,1.1,0.6v0.1C61.8,32.4,62,34.7,62,36.9z M48.5,29.7v-0.2c0-0.5-0.4-0.9-0.9-0.9c-4.5,0-5.1-3.3-5.2-3.5
		c-0.1-0.4-0.4-0.7-0.8-0.7H30.7c-0.4,0-0.8,0.3-0.8,0.7c-0.1,0.7-0.4,1.3-0.9,1.8c-1.1,1.2-2.7,1.8-4.3,1.7c-0.3,0-0.5,0.1-0.7,0.3
		c-0.2,0.2-0.3,0.4-0.3,0.6v0.3c-0.6,8.3,4.3,16.1,12.1,19.1c0.1,0,0.2,0.1,0.4,0.1c0.1,0,0.3,0,0.4-0.1
		C44.2,45.7,49.1,38,48.5,29.7z M36.1,47.1c-6.7-2.8-11-9.5-10.6-16.8c2.6-0.1,4.9-1.7,5.8-4.1h9.6c0.9,2.4,3.2,4.1,5.8,4.1
		C47.1,37.5,42.8,44.3,36.1,47.1z"/>
</g>
</svg>
