<svg width="516" height="361" viewBox="0 0 516 361" fill="none" xmlns="http://www.w3.org/2000/svg">
<path d="M407.156 269.046C410.733 265.538 414.26 261.848 417.836 258.341C418.605 257.546 418.494 256.4 417.882 255.583C417.088 254.816 415.939 254.927 415.121 255.538C411.545 259.046 408.018 262.736 404.442 266.244L407.156 269.046ZM422.4 253.392C422.767 253.294 423.133 253.196 423.267 252.964C427.112 248.992 430.456 245.351 433.616 241.759C434.385 240.965 434.274 239.818 433.48 239.05C432.685 238.283 431.537 238.394 430.768 239.189C427.741 242.549 424.214 246.239 420.553 250.161C419.784 250.956 419.895 252.102 420.69 252.87C421.02 253.37 421.851 253.539 422.4 253.392ZM437.716 236.542C438.083 236.444 438.4 236.163 438.717 235.882C442.146 231.826 445.209 227.868 448.04 223.776C448.625 223.031 448.465 221.701 447.537 221.165C446.791 220.581 445.459 220.742 444.923 221.67C442.043 225.579 439.164 229.488 435.735 233.544C434.966 234.338 435.077 235.485 436.055 236.203C436.519 236.471 437.167 236.69 437.716 236.542ZM451.309 218.39C451.675 218.292 452.176 217.961 452.444 217.497C453.432 216.056 454.237 214.664 455.225 213.223C457.019 210.389 458.763 207.373 460.324 204.405C460.861 203.477 460.383 202.428 459.454 201.893C458.526 201.357 457.475 201.835 456.939 202.763C455.378 205.73 453.768 208.515 451.974 211.348C451.169 212.741 450.181 214.182 449.193 215.623C448.656 216.551 448.95 217.649 449.696 218.234C450.295 218.269 450.942 218.488 451.309 218.39ZM462.249 198.399C462.798 198.252 463.299 197.921 463.518 197.274C465.554 192.415 467.407 187.605 468.893 182.893C469.197 181.83 468.537 180.831 467.657 180.478C466.594 180.175 465.593 180.835 465.239 181.714C463.936 186.378 462.035 191.005 460.133 195.632C459.78 196.511 460.123 197.792 461.003 198.145C461.467 198.412 461.882 198.497 462.249 198.399ZM469.437 176.864C470.17 176.668 470.622 176.154 470.841 175.507C471.997 170.296 472.603 165.231 473.027 160.215C473.148 159.202 472.304 158.252 471.29 158.131C470.276 158.011 469.324 158.854 469.203 159.867C468.914 164.651 468.258 169.533 467.237 174.512C466.932 175.574 467.593 176.574 468.607 176.694C468.888 177.011 469.254 176.913 469.437 176.864ZM377.397 182.898C377.764 182.8 378.081 182.518 378.398 182.237C381.644 178.23 384.56 173.723 386.596 168.864C386.949 167.985 386.606 166.704 385.543 166.401C384.663 166.048 383.381 166.392 383.076 167.454C381.126 171.898 378.527 176.124 375.416 179.899C374.647 180.693 374.758 181.84 375.736 182.559C376.017 182.875 376.848 183.045 377.397 182.898ZM370.021 184.678C370.937 184.433 371.522 183.688 371.46 182.724C371.398 181.76 370.555 180.809 369.407 180.921C364.997 181.318 360.146 180.069 355.832 177.891C354.903 177.356 353.853 177.833 353.317 178.761C352.78 179.69 353.257 180.738 354.186 181.274C359.197 183.853 364.646 185.138 369.837 184.727C369.837 184.727 369.837 184.727 370.021 184.678ZM471.641 154.312C472.557 154.066 473.143 153.321 473.081 152.357C472.931 148.868 472.598 145.427 472.082 142.036C471.824 140.34 471.383 138.694 470.942 137.047C470.648 135.95 469.719 135.414 468.62 135.709C467.704 135.954 466.984 136.931 467.278 138.029C467.719 139.676 467.928 141.188 468.369 142.835C468.836 146.043 469.303 149.252 469.453 152.741C469.515 153.705 470.359 154.655 471.507 154.544C471.275 154.41 471.458 154.361 471.641 154.312ZM349.15 177.133C349.516 177.035 349.833 176.753 349.968 176.521C350.736 175.727 350.625 174.58 349.831 173.813C349.55 173.496 349.036 173.045 348.755 172.729C345.808 169.792 343.497 166.294 341.77 162.05C341.342 161.185 340.23 160.698 339.314 160.944C338.447 161.372 337.959 162.483 338.205 163.398C340.212 167.958 342.671 172.006 345.899 175.259C346.412 175.709 346.693 176.026 347.207 176.477C348.001 177.244 348.6 177.28 349.15 177.133ZM387.739 162.871C388.288 162.724 388.923 162.162 389.142 161.515C390.58 156.619 391.32 151.323 391.462 145.99C391.583 144.977 390.74 144.027 389.592 144.138C388.578 144.018 387.625 144.861 387.736 146.008C387.496 150.975 386.841 155.856 385.538 160.519C385.233 161.582 385.894 162.581 386.957 162.884C387.189 163.018 387.372 162.969 387.739 162.871ZM467.273 132.148C468.323 131.67 468.86 130.742 468.566 129.644C466.876 124.803 464.453 120.158 461.713 115.794C461.101 114.977 460.038 114.674 459.171 115.102C458.353 115.713 458.049 116.775 458.526 117.824C461.217 122.005 463.408 126.516 465 130.992C465.428 131.858 466.357 132.393 467.273 132.148ZM338.249 157.7C339.165 157.454 339.884 156.477 339.59 155.379C338.891 152.037 338.375 148.646 338.36 144.924C338.383 143.545 338.406 142.167 338.429 140.788C338.551 139.775 337.707 138.824 336.693 138.704C335.679 138.583 334.727 139.427 334.605 140.44C334.582 141.819 334.425 143.43 334.402 144.808C334.466 148.713 334.848 152.336 335.828 155.995C336.171 157.276 337.284 157.762 338.249 157.7ZM389.759 140.368C390.675 140.122 391.261 139.377 391.199 138.413C390.853 134.192 390.092 129.886 388.965 125.678C388.72 124.763 388.523 124.032 388.278 123.117C387.984 122.019 386.872 121.533 385.956 121.778C384.857 122.073 384.369 123.184 384.615 124.099C384.811 124.83 385.056 125.745 385.252 126.477C386.33 130.502 386.993 134.442 387.29 138.48C387.352 139.444 388.379 140.346 389.344 140.283C389.576 140.417 389.576 140.417 389.759 140.368ZM456.274 112.349C456.457 112.3 456.823 112.202 456.958 111.97C457.775 111.358 457.848 110.162 457.236 109.346C453.996 105.312 450.438 101.559 446.562 98.0876C445.767 97.3201 444.619 97.4316 443.85 98.2259C443.082 99.0202 443.192 100.167 443.987 100.935C447.813 104.223 451.139 107.842 454.148 111.742C454.661 112.193 455.541 112.545 456.274 112.349ZM338.058 135.005C338.791 134.808 339.242 134.295 339.412 133.465C340.3 128.717 342.018 124.139 344.152 119.646C344.689 118.717 344.212 117.669 343.283 117.133C342.354 116.598 341.304 117.075 340.767 118.003C338.316 122.778 336.695 127.722 335.674 132.702C335.552 133.715 336.213 134.715 337.044 134.884C337.508 135.152 337.875 135.054 338.058 135.005ZM384.243 118.315L384.426 118.266C385.293 117.838 385.781 116.727 385.536 115.812C383.479 111.069 380.873 106.473 377.95 102.158C377.339 101.341 376.092 101.087 375.275 101.698C374.457 102.309 374.201 103.554 374.813 104.371C377.638 108.32 379.963 112.599 381.97 117.16C382.447 118.208 383.327 118.561 384.243 118.315ZM439.867 96.5481C440.233 96.45 440.734 96.1198 440.868 95.8877C441.404 94.9596 441.293 93.8127 440.365 93.2773C436.038 90.3188 431.577 87.5925 426.762 85.7451C425.882 85.3926 424.6 85.7362 424.295 86.7982C423.942 87.6773 424.285 88.958 425.348 89.2614C429.796 91.2069 434.159 93.5674 438.254 96.392C438.718 96.6597 439.317 96.6954 439.867 96.5481ZM346.823 114.224C347.189 114.126 347.69 113.796 347.958 113.331C350.605 109.289 353.717 105.514 357.293 102.006C358.062 101.212 358.134 100.016 357.34 99.2485C356.545 98.481 355.348 98.4096 354.579 99.2039C350.82 102.76 347.39 106.817 344.609 111.091C344.072 112.02 344.366 113.117 345.112 113.702C345.858 114.286 346.456 114.322 346.823 114.224ZM419.507 86.5127C420.056 86.3655 420.691 85.8032 420.727 85.2053C421.031 84.1432 420.554 83.0946 419.491 82.7912C414.359 81.225 409.191 80.2567 404.219 80.0203C403.205 79.8998 402.253 80.7432 402.132 81.7561C402.01 82.769 402.854 83.7195 403.868 83.8399C408.657 84.1255 413.593 84.9599 418.309 86.4413C418.957 86.6599 419.14 86.6109 419.507 86.5127ZM372.06 99.2261C372.426 99.1279 372.609 99.0788 372.927 98.7977C373.744 98.1863 373.768 96.8075 373.022 96.223C371.897 94.9557 370.821 93.8714 369.745 92.787C371.613 91.6982 373.665 90.5604 375.582 89.6545C376.449 89.2261 376.936 88.115 376.459 87.0664C376.031 86.2007 374.919 85.7144 373.868 86.1918C371.402 87.2449 369.033 88.664 366.848 90.0339C365.258 88.4989 363.486 87.013 361.762 85.71C360.968 84.9425 359.819 85.0541 359.1 86.0313C358.331 86.8256 358.442 87.9724 359.419 88.6908C360.911 89.8599 362.219 91.0781 363.527 92.2962C362.526 92.9567 361.525 93.6171 360.573 94.4605C359.755 95.0718 359.683 96.2677 360.294 97.0843C360.906 97.9009 362.103 97.9723 362.921 97.3609C364.056 96.4685 365.191 95.576 366.376 94.8665C366.608 95.0004 366.84 95.1342 366.938 95.5001C368.014 96.5845 369.09 97.6688 370.166 98.7531C370.679 99.2038 371.51 99.3733 372.06 99.2261ZM21.2273 186.564C21.5937 186.466 21.9111 186.185 22.2285 185.904C25.5234 182.08 28.8673 178.439 32.3944 174.748C33.1633 173.954 33.0524 172.807 32.2578 172.04C31.4631 171.272 30.3148 171.384 29.5459 172.178C26.0188 175.868 22.5407 179.742 19.2458 183.566C18.4769 184.36 18.5879 185.507 19.3826 186.274C20.0792 186.676 20.6777 186.712 21.2273 186.564ZM397.015 83.9114C397.931 83.666 398.517 82.9207 398.455 81.9569C398.393 80.9931 397.549 80.0426 396.401 80.1542C391.21 80.5648 386.166 81.5242 381.134 83.2645C380.035 83.559 379.547 84.6702 380.025 85.7188C380.319 86.8165 381.431 87.3029 382.481 86.8254C387.146 85.1832 392.007 84.2729 396.832 83.9605L397.015 83.9114ZM36.7756 169.849C37.142 169.75 37.3252 169.701 37.6425 169.42C41.2187 165.913 44.7459 162.223 48.3711 158.898C49.1399 158.104 49.2121 156.908 48.4174 156.14C47.6227 155.373 46.4256 155.302 45.6567 156.096C41.8974 159.652 38.3212 163.16 34.7941 166.85C34.0252 167.644 34.1361 168.791 34.7476 169.608C35.3952 169.826 36.0428 170.045 36.7756 169.849ZM355.116 84.3535C355.482 84.2554 355.799 83.9742 356.117 83.6931C356.703 82.9479 356.543 81.6182 355.797 81.0336C351.653 78.0261 347.375 75.2506 342.963 72.7071C342.034 72.1717 340.935 72.4662 340.398 73.3944C339.862 74.3225 340.156 75.4202 341.085 75.9557C345.265 78.3653 349.543 81.1407 353.503 84.1973C353.919 84.2821 354.566 84.5008 355.116 84.3535ZM53.1676 154.083C53.5339 153.985 53.7172 153.936 54.0345 153.655C57.6597 150.331 61.468 146.957 65.3254 143.766C66.1433 143.155 66.2156 141.959 65.6041 141.143C64.9926 140.326 63.7954 140.255 62.9775 140.866C59.1201 144.057 55.3117 147.43 51.5524 150.987C50.7835 151.781 50.7113 152.977 51.4569 153.561C51.7872 154.061 52.4348 154.28 53.1676 154.083ZM335.78 72.2788C336.33 72.1316 336.647 71.8505 336.915 71.3864C337.452 70.4582 336.975 69.4096 336.046 68.8741C331.5 66.5627 326.819 64.4834 322.004 62.636C320.941 62.3326 319.891 62.8101 319.538 63.6892C319.184 64.5682 319.711 65.7998 320.591 66.1523C325.173 67.8658 329.853 69.9451 334.351 72.0736C334.864 72.5243 335.23 72.4261 335.78 72.2788ZM70.4033 139.269C70.5865 139.219 70.9529 139.121 71.087 138.889C74.9444 135.699 78.985 132.459 82.8914 129.451C83.7093 128.84 83.9648 127.595 83.1701 126.828C82.5586 126.011 81.3124 125.757 80.5435 126.551C76.4539 129.608 72.4133 132.847 68.5559 136.038C67.7379 136.649 67.6657 137.845 68.2772 138.662C68.7906 139.112 69.6705 139.465 70.4033 139.269ZM88.4337 125.221C88.6169 125.172 88.8 125.123 89.1174 124.842C93.207 121.785 97.3456 118.911 101.484 116.038C102.302 115.426 102.558 114.181 101.946 113.365C101.335 112.548 100.088 112.294 99.2704 112.905C95.1318 115.779 90.9932 118.653 86.9036 121.709C86.0857 122.321 85.8303 123.566 86.4418 124.382C86.821 125.065 87.7009 125.417 88.4337 125.221ZM314.664 63.8186C315.213 63.6713 315.848 63.1091 315.884 62.5112C316.189 61.4491 315.711 60.4005 314.648 60.0971C309.932 58.6157 304.849 57.2324 299.681 56.2641C298.667 56.1437 297.666 56.8041 297.544 57.817C297.423 58.83 298.084 59.8295 299.098 59.9499C304.083 60.9673 308.933 62.2167 313.65 63.6981C313.931 64.0149 314.298 63.9168 314.664 63.8186ZM106.941 112.222C107.124 112.173 107.308 112.124 107.442 111.892C111.63 109.201 116 106.462 120.188 103.771C121.006 103.159 121.31 102.097 120.882 101.232C120.271 100.415 119.208 100.112 118.341 100.54C114.104 103.048 109.733 105.788 105.411 108.711C104.593 109.322 104.289 110.384 104.949 111.384C105.329 112.066 106.209 112.419 106.941 112.222ZM292.5 58.7764C293.233 58.5801 293.868 58.0178 293.855 57.2369C293.976 56.224 293.316 55.2245 292.302 55.104C287.366 54.2696 282.162 53.8993 276.957 53.5289C275.943 53.4085 274.991 54.2519 274.87 55.2648C274.749 56.2777 275.592 57.2282 276.606 57.3487C281.578 57.5851 286.648 58.1875 291.535 58.8389C291.951 58.9237 292.317 58.8255 292.5 58.7764ZM126.293 100.174C126.476 100.125 126.659 100.076 126.842 100.027C131.262 97.47 135.731 95.0961 140.017 92.7712C140.884 92.3428 141.322 91.0488 140.711 90.2322C140.283 89.3665 138.987 88.9292 138.169 89.5406C133.7 91.9145 129.281 94.4714 124.861 97.0283C123.994 97.4567 123.738 98.7017 124.167 99.5674C124.68 100.018 125.56 100.371 126.293 100.174ZM269.839 57.0051C270.571 56.8088 271.157 56.0636 271.327 55.2336C271.449 54.2207 270.422 53.3193 269.457 53.3818C264.534 53.3283 259.244 53.3729 254.236 53.7344C253.271 53.7969 252.319 54.6403 252.43 55.7871C252.492 56.7509 253.336 57.7014 254.484 57.5898C259.492 57.2283 264.598 57.2327 269.521 57.2863C269.472 57.1033 269.655 57.0542 269.839 57.0051ZM146.354 89.3085C146.537 89.2594 146.537 89.2594 146.72 89.2103C151.238 87.0193 155.756 84.8283 160.274 82.6373C161.141 82.2089 161.628 81.0978 161.151 80.0491C160.723 79.1835 159.611 78.6971 158.561 79.1746C153.994 81.1826 149.293 83.4227 144.824 85.7967C143.957 86.2251 143.469 87.3362 143.946 88.3848C144.558 89.2014 145.438 89.5539 146.354 89.3085ZM166.941 79.6743L167.124 79.6252C171.691 77.6171 176.49 75.7429 181.106 73.9178C181.973 73.4894 182.693 72.5122 182.216 71.4636C181.738 70.4149 180.81 69.8795 179.759 70.357C175.143 72.1821 170.344 74.0562 165.594 76.1134C164.727 76.5418 164.24 77.6529 164.668 78.5186C165.145 79.5672 166.025 79.9197 166.941 79.6743ZM247.13 57.9915C248.046 57.746 248.632 57.0008 248.57 56.037C248.508 55.0732 247.481 54.1718 246.565 54.4172C241.606 54.9616 236.464 55.5552 231.42 56.5146C230.455 56.5771 229.784 57.7373 229.846 58.7011C229.908 59.6649 231.069 60.3343 232.034 60.2718C237.127 59.4953 242.037 58.768 246.996 58.2235C246.947 58.0406 247.13 57.9915 247.13 57.9915ZM188.104 71.4546C193.135 69.7143 197.849 68.2551 202.563 66.7959C203.662 66.5014 204.15 65.3903 203.905 64.4755C203.611 63.3778 202.499 62.8914 201.583 63.1368C196.869 64.596 191.971 66.1043 187.123 67.7956C186.024 68.0901 185.536 69.2012 186.014 70.2498C186.259 71.1646 187.188 71.7 188.104 71.4546ZM224.693 61.4544C225.609 61.209 226.329 60.2317 226.084 59.3169C225.79 58.2192 224.861 57.6838 223.896 57.7463C219.035 58.6566 214.04 59.799 208.91 61.1734C207.811 61.4679 207.274 62.3961 207.569 63.4938C207.863 64.5915 208.792 65.1269 209.891 64.8324C214.837 63.5071 219.649 62.4138 224.693 61.4544Z" fill="#D1E1FC"/>
<path d="M510.407 198.304L318.942 314.854L314.145 272.691L510.407 198.304Z" fill="#909CAF"/>
<path d="M510.407 198.304L269.975 231.532L358.33 314.182L510.407 198.304Z" fill="#D1E1FC"/>
<path d="M510.407 198.304L324.587 282.589L318.942 314.854L301.633 261.213L510.407 198.304Z" fill="#BAC7DB"/>
</svg>
