<svg xmlns="http://www.w3.org/2000/svg" width="463" height="380" fill="none" viewBox="0 0 463 380">
    <path fill="url(#a)" d="M463 134.938c0 66.132-72.336 144.884-138.468 144.884-66.132 0-136.493-44.558-136.493-110.62 0-66.061 70.432-128.808 136.493-128.808C390.593 40.394 463 68.806 463 134.938z"/>
    <g opacity=".5">
        <path fill="#B3CDFA" d="M436.42 159.685h-18.119v22.208h18.119v-22.208z" opacity=".5"/>
        <path fill="#CADCFB" d="M418.301 159.685v.423h17.696v21.785h.353v-22.208h-18.049z" opacity=".5"/>
        <path fill="url(#b)" d="M432.684 164.197h-10.787v13.254h10.787v-13.254z" opacity=".5"/>
        <path fill="#B3CDFA" d="M430.78 166.523h-6.909v8.531h6.909v-8.531zM414.494 159.685h-18.119v22.208h18.119v-22.208z" opacity=".5"/>
        <path fill="#CADCFB" d="M396.375 159.685v.423h17.696v21.785h.423v-22.208h-18.119z" opacity=".5"/>
        <path fill="url(#c)" d="M410.828 164.197h-10.787v13.254h10.787v-13.254z" opacity=".5"/>
        <path fill="#B3CDFA" d="M408.854 166.523h-6.909v8.531h6.909v-8.531zM392.568 159.685h-18.12v22.208h18.12v-22.208z" opacity=".5"/>
        <path fill="#CADCFB" d="M374.448 159.685v.423h17.697v21.785h.423v-22.208h-18.12z" opacity=".5"/>
        <path fill="url(#d)" d="M388.831 164.197h-10.787v13.254h10.787v-13.254z" opacity=".5"/>
        <path fill="#B3CDFA" d="M386.927 166.523h-6.909v8.531h6.909v-8.531z" opacity=".5"/>
    </g>
    <g opacity=".5">
        <path fill="#B3CDFA" d="M343.356 207.909h-57.671v38.988h57.671v-38.988z" opacity=".5"/>
        <path fill="url(#e)" d="M339.972 210.94h-51.044v32.925h51.044V210.94z" opacity=".5"/>
        <path fill="#B3CDFA" d="M328.551 236.392l-21.01-13.889h21.01v13.889zM300.068 220.458l21.009 13.819h-21.009v-13.819z" opacity=".5"/>
    </g>
    <g opacity=".5">
        <path fill="#B3CDFA" d="M360.207 61.826h-20.305v24.888h20.305V61.826z" opacity=".5"/>
        <path fill="#CADCFB" d="M339.902 61.826v.494h19.811v24.394h.494V61.826h-20.305z" opacity=".5"/>
        <path fill="url(#f)" d="M356.118 66.832h-12.127v14.876h12.127V66.832z" opacity=".5"/>
        <path fill="#B3CDFA" d="M353.932 69.511h-7.755V79.1h7.755V69.51zM335.672 61.826h-20.305v24.888h20.305V61.826z" opacity=".5"/>
        <path fill="#CADCFB" d="M315.367 61.826v.494h19.811v24.394h.423V61.826h-20.234z" opacity=".5"/>
        <path fill="url(#g)" d="M331.583 66.832h-12.127v14.876h12.127V66.832z" opacity=".5"/>
        <path fill="#B3CDFA" d="M329.397 69.511h-7.755V79.1h7.755V69.51zM311.137 61.826h-20.305v24.888h20.305V61.826z" opacity=".5"/>
        <path fill="#CADCFB" d="M290.832 61.826v.494h19.741v24.394h.493V61.826h-20.234z" opacity=".5"/>
        <path fill="url(#h)" d="M307.048 66.832h-12.127v14.876h12.127V66.832z" opacity=".5"/>
        <path fill="#B3CDFA" d="M304.792 69.511h-7.756V79.1h7.756V69.51z" opacity=".5"/>
    </g>
    <path fill="url(#i)" d="M240.14 98.347h-14.171v4.371h14.171v-4.371z"/>
    <path fill="url(#j)" d="M248.319 104.551h-14.171v4.371h14.171v-4.371z"/>
    <path fill="url(#k)" d="M372.827 247.249h-18.542v5.711h18.542v-5.711z"/>
    <path fill="url(#l)" d="M345.683 264.452h-18.542v5.711h18.542v-5.711z"/>
    <path fill="url(#m)" d="M441.144 124.222h-18.542v5.71h18.542v-5.71z"/>
    <path fill="url(#n)" d="M440.157 101.308h-18.542v5.711h18.542v-5.711z"/>
    <path fill="url(#o)" d="M257.625 98.347h-14.171v4.371h14.171v-4.371z"/>
    <path fill="url(#p)" d="M399.829 75.998h-14.171v4.37h14.171v-4.37z"/>
    <path fill="url(#q)" d="M382.415 93.905h-14.171v4.371h14.171v-4.37z"/>
    <path fill="url(#r)" d="M417.244 75.998h-14.171v4.37h14.171v-4.37z"/>
    <g opacity=".16">
        <path fill="#FBFCFE" d="M341.233 379.638c52.317 0 94.729-6.677 94.729-14.914s-42.412-14.914-94.729-14.914-94.728 6.677-94.728 14.914 42.411 14.914 94.728 14.914z" opacity=".024"/>
        <path fill="#F8FAFE" d="M341.233 379.285c51.097 0 92.52-6.519 92.52-14.561s-41.423-14.561-92.52-14.561c-51.097 0-92.52 6.519-92.52 14.561s41.423 14.561 92.52 14.561z" opacity=".049"/>
        <path fill="#F4F7FD" d="M341.233 378.932c49.926 0 90.399-6.361 90.399-14.208s-40.473-14.208-90.399-14.208c-49.925 0-90.398 6.361-90.398 14.208s40.473 14.208 90.398 14.208z" opacity=".073"/>
        <path fill="#F1F5FC" d="M341.234 378.579c48.705 0 88.189-6.203 88.189-13.855s-39.484-13.855-88.189-13.855c-48.706 0-88.19 6.203-88.19 13.855s39.484 13.855 88.19 13.855z" opacity=".098"/>
        <path fill="#EDF2FC" d="M341.233 378.226c47.486 0 85.98-6.045 85.98-13.502 0-7.457-38.494-13.502-85.98-13.502-47.485 0-85.98 6.045-85.98 13.502 0 7.457 38.495 13.502 85.98 13.502z" opacity=".122"/>
        <path fill="#E9F0FB" d="M341.233 377.873c46.314 0 83.859-5.887 83.859-13.149s-37.545-13.149-83.859-13.149c-46.314 0-83.859 5.887-83.859 13.149s37.545 13.149 83.859 13.149z" opacity=".146"/>
        <path fill="#E6EDFA" d="M341.233 377.52c45.095 0 81.651-5.729 81.651-12.796 0-7.067-36.556-12.796-81.651-12.796-45.094 0-81.65 5.729-81.65 12.796 0 7.067 36.556 12.796 81.65 12.796z" opacity=".171"/>
        <path fill="#E2EBFA" d="M341.233 377.255c43.923 0 79.53-5.61 79.53-12.531s-35.607-12.531-79.53-12.531-79.529 5.61-79.529 12.531 35.606 12.531 79.529 12.531z" opacity=".195"/>
        <path fill="#DFE8F9" d="M418.554 364.724c0 6.707-34.64 12.178-77.321 12.178s-77.32-5.471-77.32-12.178c0-6.707 34.639-12.178 77.32-12.178 42.681 0 77.321 5.383 77.321 12.178z" opacity=".22"/>
        <path fill="#DBE6F8" d="M341.233 376.549c41.532 0 75.2-5.294 75.2-11.825s-33.668-11.826-75.2-11.826c-41.531 0-75.199 5.295-75.199 11.826 0 6.531 33.668 11.825 75.199 11.825z" opacity=".244"/>
        <path fill="#D8E3F7" d="M341.233 376.197c40.312 0 72.991-5.137 72.991-11.473 0-6.336-32.679-11.472-72.991-11.472-40.311 0-72.99 5.136-72.99 11.472 0 6.336 32.679 11.473 72.99 11.473z" opacity=".268"/>
        <path fill="#D4E1F7" d="M341.233 375.844c39.092 0 70.781-4.979 70.781-11.12 0-6.141-31.689-11.119-70.781-11.119-39.091 0-70.781 4.978-70.781 11.119s31.69 11.12 70.781 11.12z" opacity=".293"/>
        <path fill="#D0DEF6" d="M341.233 375.491c37.92 0 68.661-4.821 68.661-10.767s-30.741-10.766-68.661-10.766-68.66 4.82-68.66 10.766 30.74 10.767 68.66 10.767z" opacity=".317"/>
        <path fill="#CDDCF5" d="M341.233 375.138c36.7 0 66.452-4.663 66.452-10.414 0-5.751-29.752-10.413-66.452-10.413s-66.451 4.662-66.451 10.413 29.751 10.414 66.451 10.414z" opacity=".342"/>
        <path fill="#C9D9F5" d="M341.233 374.873c35.529 0 64.33-4.544 64.33-10.149 0-5.605-28.801-10.149-64.33-10.149-35.529 0-64.331 4.544-64.331 10.149 0 5.605 28.802 10.149 64.331 10.149z" opacity=".366"/>
        <path fill="#C6D7F4" d="M341.233 374.52c34.309 0 62.122-4.386 62.122-9.796 0-5.41-27.813-9.796-62.122-9.796s-62.122 4.386-62.122 9.796c0 5.41 27.813 9.796 62.122 9.796z" opacity=".39"/>
        <path fill="#C2D4F3" d="M401.146 364.724c0 5.207-26.864 9.443-60.001 9.443-33.138 0-60.001-4.236-60.001-9.443s26.863-9.443 60.001-9.443c33.226 0 60.001 4.236 60.001 9.443z" opacity=".415"/>
        <path fill="#BED2F3" d="M341.233 373.814c31.918 0 57.792-4.07 57.792-9.09s-25.874-9.09-57.792-9.09c-31.917 0-57.791 4.07-57.791 9.09s25.874 9.09 57.791 9.09z" opacity=".439"/>
        <path fill="#BBCFF2" d="M341.233 373.461c30.746 0 55.671-3.912 55.671-8.737s-24.925-8.737-55.671-8.737-55.671 3.912-55.671 8.737 24.925 8.737 55.671 8.737z" opacity=".463"/>
        <path fill="#B7CDF1" d="M341.233 373.108c29.526 0 53.462-3.754 53.462-8.384 0-4.63-23.936-8.384-53.462-8.384-29.526 0-53.461 3.754-53.461 8.384 0 4.63 23.935 8.384 53.461 8.384z" opacity=".488"/>
        <path fill="#B4CAF1" d="M341.233 372.755c28.306 0 51.253-3.596 51.253-8.031 0-4.435-22.947-8.031-51.253-8.031s-51.252 3.596-51.252 8.031c0 4.435 22.946 8.031 51.252 8.031z" opacity=".512"/>
        <path fill="#B0C8F0" d="M341.233 372.402c27.135 0 49.132-3.438 49.132-7.678s-21.997-7.678-49.132-7.678c-27.135 0-49.132 3.438-49.132 7.678s21.997 7.678 49.132 7.678z" opacity=".537"/>
        <path fill="#ADC5EF" d="M341.233 372.137c25.915 0 46.923-3.319 46.923-7.413s-21.008-7.413-46.923-7.413c-25.914 0-46.922 3.319-46.922 7.413s21.008 7.413 46.922 7.413z" opacity=".561"/>
        <path fill="#A9C3EF" d="M385.946 364.724c0 3.883-20.059 7.06-44.801 7.06-24.743 0-44.802-3.177-44.802-7.06 0-3.883 20.059-7.06 44.802-7.06 24.831 0 44.801 3.089 44.801 7.06z" opacity=".585"/>
        <path fill="#A5C0EE" d="M383.825 364.724c0 3.707-19.087 6.707-42.592 6.707s-42.592-3-42.592-6.707c0-3.706 19.087-6.707 42.592-6.707s42.592 3.001 42.592 6.707z" opacity=".61"/>
        <path fill="#A2BEED" d="M341.233 371.078c22.352 0 40.472-2.845 40.472-6.354s-18.12-6.354-40.472-6.354-40.471 2.845-40.471 6.354 18.119 6.354 40.471 6.354z" opacity=".634"/>
        <path fill="#9EBBED" d="M379.496 364.724c0 3.354-17.143 6.001-38.263 6.001-21.119 0-38.262-2.736-38.262-6.001 0-3.353 17.143-6.001 38.262-6.001 21.12 0 38.263 2.648 38.263 6.001z" opacity=".658"/>
        <path fill="#9BB9EC" d="M341.233 370.372c19.96 0 36.142-2.529 36.142-5.648 0-3.119-16.182-5.648-36.142-5.648-19.96 0-36.141 2.529-36.141 5.648 0 3.119 16.181 5.648 36.141 5.648z" opacity=".683"/>
        <path fill="#97B6EB" d="M375.165 364.724c0 2.912-15.198 5.295-33.932 5.295s-33.932-2.383-33.932-5.295 15.198-5.295 33.932-5.295c18.734-.088 33.932 2.295 33.932 5.295z" opacity=".707"/>
        <path fill="#93B4EB" d="M372.957 364.724c0 2.736-14.227 5.03-31.724 5.03-17.496 0-31.723-2.206-31.723-5.03 0-2.736 14.227-5.03 31.723-5.03 17.497 0 31.724 2.206 31.724 5.03z" opacity=".732"/>
        <path fill="#90B1EA" d="M341.234 369.401c16.349 0 29.602-2.094 29.602-4.677 0-2.583-13.253-4.677-29.602-4.677-16.35 0-29.603 2.094-29.603 4.677 0 2.583 13.253 4.677 29.603 4.677z" opacity=".756"/>
        <path fill="#8CAFE9" d="M368.627 364.724c0 2.383-12.283 4.324-27.394 4.324-15.11 0-27.393-1.941-27.393-4.324s12.283-4.324 27.393-4.324c15.111 0 27.394 1.941 27.394 4.324z" opacity=".78"/>
        <path fill="#89ACE8" d="M341.233 368.695c13.958 0 25.273-1.778 25.273-3.971s-11.315-3.971-25.273-3.971c-13.957 0-25.273 1.778-25.273 3.971s11.316 3.971 25.273 3.971z" opacity=".805"/>
        <path fill="#85AAE8" d="M364.297 364.724c0 2.03-10.339 3.618-23.064 3.618s-23.064-1.588-23.064-3.618 10.339-3.618 23.064-3.618 23.064 1.588 23.064 3.618z" opacity=".829"/>
        <path fill="#82A7E7" d="M362.088 364.724c0 1.853-9.367 3.265-20.943 3.265s-20.943-1.5-20.943-3.265c0-1.765 9.367-3.265 20.943-3.265 11.576-.088 20.943 1.412 20.943 3.265z" opacity=".854"/>
        <path fill="#7EA5E6" d="M341.233 367.636c10.346 0 18.734-1.303 18.734-2.912 0-1.608-8.388-2.912-18.734-2.912-10.346 0-18.733 1.304-18.733 2.912 0 1.609 8.387 2.912 18.733 2.912z" opacity=".878"/>
        <path fill="#7AA2E6" d="M357.758 364.724c0 1.412-7.423 2.648-16.525 2.648-9.19 0-16.524-1.148-16.524-2.648 0-1.412 7.423-2.647 16.524-2.647 9.102 0 16.525 1.147 16.525 2.647z" opacity=".902"/>
        <path fill="#77A0E5" d="M355.637 364.724c0 1.236-6.451 2.294-14.403 2.294-7.953 0-14.404-.97-14.404-2.294 0-1.235 6.451-2.295 14.404-2.295 7.952 0 14.403.971 14.403 2.295z" opacity=".927"/>
        <path fill="#739DE4" d="M353.428 364.724c0 1.059-5.479 1.942-12.194 1.942-6.716 0-12.195-.883-12.195-1.942s5.479-1.941 12.195-1.941c6.715 0 12.194.794 12.194 1.941z" opacity=".951"/>
        <path fill="#709BE4" d="M351.218 364.724c0 .883-4.507 1.589-10.073 1.589-5.567 0-10.074-.706-10.074-1.589 0-.882 4.507-1.588 10.074-1.588 5.566 0 10.073.706 10.073 1.588z" opacity=".976"/>
        <path fill="#6C98E3" d="M341.233 365.96c4.344 0 7.865-.554 7.865-1.236 0-.682-3.521-1.235-7.865-1.235-4.343 0-7.864.553-7.864 1.235s3.521 1.236 7.864 1.236z" opacity=".32"/>
    </g>
    <path fill="#D1E1FC" d="M54.883 151.836l.543-.976-.544.976c-2.5-1.411-4.999-2.93-7.498-4.341-.544-.326-.652-.977-.435-1.52.326-.542.978-.651 1.522-.434 2.5 1.411 4.999 2.931 7.498 4.342l-1.087 1.953zm-10.76-6.403c-.217 0-.434 0-.543-.109a180.58 180.58 0 0 1-7.39-4.667c-.543-.325-.652-.977-.326-1.519.326-.543.978-.651 1.521-.326 2.174 1.411 4.674 2.931 7.282 4.559.543.325.652.976.326 1.519-.109.326-.544.543-.87.543zm-10.976-7.055c-.218 0-.435-.109-.652-.217-2.5-1.737-4.782-3.473-6.956-5.318-.434-.326-.543-1.086-.108-1.52.326-.434 1.086-.542 1.521-.108 2.174 1.736 4.347 3.473 6.847 5.209.543.326.652.977.217 1.52-.217.217-.543.434-.87.434zm-10.216-8.032c-.217 0-.543-.108-.76-.325-.761-.651-1.413-1.303-2.174-1.954a73.821 73.821 0 0 1-4.13-4.124c-.435-.434-.326-1.086.109-1.52.434-.434 1.086-.325 1.521.109a70.32 70.32 0 0 0 4.021 4.016c.652.651 1.413 1.302 2.174 1.953.435.434.435 1.086.108 1.52-.326.108-.652.325-.869.325zm-9.02-9.442c-.326 0-.652-.109-.87-.434-1.847-2.388-3.586-4.776-5.107-7.164-.327-.542-.11-1.194.326-1.519.543-.326 1.195-.109 1.521.325 1.413 2.388 3.152 4.667 4.89 6.947.327.434.327 1.194-.108 1.519-.218.217-.435.326-.652.326zM6.738 110.05c-.435 0-.76-.217-.978-.542-1.413-2.714-2.5-5.427-3.478-8.141-.217-.542.109-1.193.652-1.41.544-.218 1.196.108 1.413.651a59.626 59.626 0 0 0 3.26 7.814c.327.543.11 1.194-.434 1.411-.109.217-.326.217-.435.217zm51.84-10.31c-.218 0-.435-.11-.652-.218-2.391-1.736-4.674-3.798-6.521-6.186-.326-.434-.326-1.194.217-1.52.435-.325 1.196-.325 1.522.217a30.595 30.595 0 0 0 6.086 5.753c.543.325.652.977.217 1.52-.109.216-.543.433-.87.433zm4.347-.11c-.544 0-.978-.325-1.087-.867-.109-.543.217-1.194.87-1.303 2.499-.434 4.999-1.845 7.064-3.69.434-.434 1.086-.326 1.521.109.435.434.326 1.085-.109 1.519-2.39 2.17-5.216 3.69-8.15 4.233h-.11zM2.174 97.895c-.544 0-.979-.325-1.087-.868a54.935 54.935 0 0 1-.978-5.86C0 90.187 0 89.21 0 88.234c0-.652.435-1.086 1.087-1.086.543 0 1.087.434 1.087 1.086 0 .976.108 1.845.108 2.822.218 1.845.435 3.69.87 5.643.108.543-.218 1.194-.87 1.303.109-.109 0-.109-.108-.109zm71.184-5.535a.83.83 0 0 1-.544-.217c-.543-.326-.652-.977-.326-1.52.11-.217.326-.542.435-.76 1.196-2.061 1.956-4.34 2.282-6.946.11-.542.653-.976 1.196-.976.543.108.978.65.978 1.194-.435 2.821-1.196 5.426-2.5 7.706-.217.325-.326.542-.543.868-.326.542-.652.651-.978.651zm-23.475-2.17c-.326 0-.76-.218-.978-.543-1.521-2.497-2.717-5.319-3.586-8.25a.963.963 0 0 1 .76-1.302.965.965 0 0 1 1.305.76c.87 2.714 1.956 5.319 3.369 7.706.326.543.108 1.194-.435 1.52-.109.108-.217.108-.435.108zm-48.579-5.21s-.109 0 0 0C.652 84.87.217 84.435.217 83.784c.218-2.93.87-5.861 1.74-8.683.217-.543.76-.868 1.303-.76.544.217.87.76.761 1.411a36.954 36.954 0 0 0-1.63 8.249c-.109.542-.543.977-1.087.977zm293.323-1.086c-.326 0-.652-.108-.87-.434a97.013 97.013 0 0 0-5.433-6.62c-.435-.435-.327-1.086.108-1.52.435-.434 1.087-.326 1.522.108 1.956 2.28 3.803 4.559 5.542 6.73.326.434.218 1.194-.217 1.52-.109.108-.435.216-.652.216zM76.509 79.986c-.543 0-1.086-.434-1.086-1.085-.109-1.954-.326-3.908-.87-5.97l-.652-2.28c-.217-.542.109-1.193.652-1.41.544-.217 1.196.109 1.413.651.218.76.544 1.628.76 2.388.544 2.17.87 4.233.87 6.403 0 .76-.543 1.194-1.087 1.303zm-31.081-1.954c-.544 0-.979-.325-1.087-.868a41.428 41.428 0 0 1-.652-7.38v-1.52c0-.651.543-1.085 1.087-1.085.651 0 1.086.542 1.086 1.085v1.411c0 2.388.218 4.667.652 6.946.109.543-.326 1.194-.87 1.303-.108.108-.108.108-.216.108zm240.831-4.124c-.326 0-.544-.109-.761-.326a160.372 160.372 0 0 0-6.086-6.078 1.048 1.048 0 0 1 0-1.52 1.051 1.051 0 0 1 1.521 0 165.865 165.865 0 0 1 6.195 6.187 1.048 1.048 0 0 1 0 1.52c-.326.217-.652.217-.869.217zM4.456 72.388c-.109 0-.326 0-.435-.108-.543-.217-.76-.868-.543-1.411a54.342 54.342 0 0 1 4.238-7.815c.326-.542.978-.65 1.522-.325.543.325.652.977.326 1.52-1.63 2.387-2.935 4.883-4.021 7.488-.218.326-.652.651-1.087.651zm68.793-4.992c-.434 0-.76-.217-.978-.651-1.195-2.497-2.826-4.776-4.673-6.947-.435-.434-.326-1.085.109-1.52.434-.433 1.086-.325 1.521.11 2.065 2.279 3.695 4.775 5 7.38.217.543 0 1.194-.435 1.41-.218.218-.435.218-.544.218zM45.21 65.008h-.108c-.544-.108-.979-.651-.979-1.194.435-2.93 1.196-5.86 2.174-8.683.217-.542.87-.868 1.413-.65.543.216.87.867.652 1.41-.978 2.605-1.63 5.318-2.065 8.14-.109.651-.543.977-1.087.977zm231.702-.108c-.217 0-.543-.109-.76-.326-2.065-1.845-4.348-3.799-6.63-5.535-.434-.326-.543-1.086-.108-1.52.326-.434 1.086-.543 1.521-.108a178.77 178.77 0 0 1 6.629 5.643 1.16 1.16 0 0 1 .109 1.52 1.173 1.173 0 0 1-.761.326zM11.194 61.21c-.218 0-.544-.11-.652-.218-.435-.434-.544-1.085-.109-1.52 1.956-2.279 4.021-4.45 6.412-6.186.435-.325 1.196-.325 1.522.217.326.434.326 1.194-.218 1.52-2.173 1.736-4.238 3.69-6.086 5.86-.217.218-.543.326-.87.326zm54.122-4.017c-.218 0-.544-.108-.761-.325a39.022 39.022 0 0 0-6.847-4.884c-.543-.326-.76-.977-.434-1.52.325-.542.978-.76 1.521-.434 2.608 1.411 5.108 3.148 7.281 5.101.435.434.435 1.086.11 1.52-.327.434-.653.542-.87.542zm201.489-.65c-.217 0-.434-.11-.652-.218-2.282-1.736-4.564-3.473-6.955-5.1-.544-.327-.652-.978-.218-1.52.326-.543.978-.652 1.522-.218 2.391 1.737 4.782 3.474 7.064 5.21.435.326.543 1.085.217 1.52-.326.217-.652.325-.978.325zm-245.83-3.908c-.326 0-.76-.217-.87-.543-.326-.542-.217-1.194.326-1.52 2.609-1.627 5.326-2.93 8.043-3.798.543-.217 1.195.109 1.413.651.217.543-.11 1.194-.652 1.411-2.609.869-5.217 2.062-7.608 3.582-.326.217-.435.217-.652.217zm28.148 0c-.218 0-.326 0-.544-.108-.543-.218-.76-.977-.434-1.412.434-.868.869-1.628 1.304-2.387-1.196-.326-2.5-.651-3.695-.869a1.126 1.126 0 0 1-.87-1.302 1.127 1.127 0 0 1 1.304-.868c1.522.217 3.043.65 4.456 1.085a32.293 32.293 0 0 1 2.174-3.147c.326-.543.978-.652 1.521-.218.544.326.652.977.218 1.52-.653.868-1.196 1.736-1.74 2.605.653.217 1.305.434 1.957.76.543.217.76.868.543 1.41-.217.543-.87.76-1.413.543-.76-.325-1.521-.651-2.282-.868-.108.108-.217.217-.217.434l-1.304 2.28c-.218.325-.652.542-.978.542zm207.14-3.69c-.217 0-.434-.109-.652-.217a166.051 166.051 0 0 0-7.281-4.667c-.543-.326-.652-.977-.326-1.52.326-.542.978-.651 1.521-.325 2.5 1.52 5 3.147 7.391 4.775.543.326.652.977.326 1.52-.326.325-.652.434-.979.434zM33.038 47.859c-.543 0-.978-.325-1.087-.868-.108-.542.218-1.194.87-1.302 2.934-.543 5.869-.76 8.912-.543.652 0 1.086.543.978 1.194 0 .651-.544 1.085-1.196.977-2.825-.217-5.651 0-8.368.542h-.109zM245.178 42c-.217 0-.326 0-.543-.109-2.5-1.411-4.999-2.93-7.499-4.233-.543-.325-.761-.977-.435-1.52.326-.542.978-.76 1.522-.434a172.4 172.4 0 0 1 7.607 4.342c.544.325.652.977.435 1.52-.326.216-.652.434-1.087.434zM56.295 41.89c-.217 0-.434-.109-.652-.217-.434-.326-.543-1.085-.217-1.52a83.582 83.582 0 0 1 5.869-6.512 1.052 1.052 0 0 1 1.521 0 1.048 1.048 0 0 1 0 1.52c-1.956 1.953-3.912 4.124-5.651 6.403-.218.109-.544.326-.87.326zm177.472-6.187c-.217 0-.326 0-.543-.108a170.01 170.01 0 0 0-7.716-3.799c-.544-.217-.761-.868-.544-1.41.217-.543.87-.76 1.413-.543a131.308 131.308 0 0 1 7.825 3.907c.543.325.761.977.434 1.41-.108.326-.434.544-.869.544zM65.207 32.34c-.326 0-.543-.109-.76-.326-.436-.434-.327-1.085.108-1.52a84.614 84.614 0 0 1 6.847-5.534c.543-.326 1.195-.218 1.521.216.326.435.218 1.194-.217 1.52-2.282 1.628-4.565 3.473-6.738 5.318-.218.326-.435.326-.761.326zm156.823-2.28c-.109 0-.326 0-.435-.108a251.53 251.53 0 0 0-7.933-3.473c-.544-.217-.87-.868-.544-1.411.218-.543.87-.868 1.413-.543 2.717 1.086 5.434 2.28 8.042 3.473.544.218.761.869.544 1.411-.218.326-.652.652-1.087.652zm-12.064-5.1c-.108 0-.217 0-.434-.11-2.717-1.084-5.434-2.061-8.151-3.038-.543-.217-.87-.868-.652-1.411.217-.543.869-.868 1.413-.651 2.717.977 5.434 1.953 8.151 3.039.543.217.869.868.652 1.41-.109.435-.544.76-.979.76zM75.64 24.524c-.326 0-.76-.217-.87-.542-.325-.543-.217-1.194.327-1.52 2.39-1.52 4.999-3.039 7.716-4.341.543-.217 1.195 0 1.413.542.217.543 0 1.194-.544 1.411a83.573 83.573 0 0 0-7.499 4.233c-.108.217-.326.217-.543.217zm122.155-4.015c-.109 0-.218 0-.327-.109-2.716-.868-5.542-1.737-8.259-2.605-.543-.217-.87-.76-.761-1.302.218-.543.761-.869 1.304-.76 2.717.76 5.543 1.628 8.369 2.605.543.217.869.76.652 1.41-.109.435-.544.76-.978.76zM87.16 18.446c-.435 0-.87-.217-.978-.65-.217-.544 0-1.195.543-1.412 2.609-1.194 5.434-2.17 8.26-3.147.543-.217 1.195.108 1.413.65.217.543-.109 1.195-.652 1.412-2.717.868-5.434 1.953-8.043 3.039-.217.108-.434.108-.543.108zm98.137-1.736h-.327c-2.825-.76-5.651-1.411-8.368-2.062-.543-.109-.978-.76-.76-1.303.108-.543.76-.977 1.304-.76 2.825.652 5.651 1.411 8.477 2.171.543.109.869.76.76 1.303-.217.325-.652.65-1.086.65zm-85.856-2.605c-.435 0-.87-.326-1.087-.76-.218-.543.217-1.194.76-1.302 2.718-.76 5.652-1.52 8.478-2.062.543-.109 1.195.217 1.304.868.108.543-.218 1.194-.87 1.302-2.825.543-5.651 1.303-8.368 2.063 0-.11-.109-.11-.217-.11zm73.14-.434h-.217l-8.477-1.628a1.127 1.127 0 0 1-.87-1.303 1.128 1.128 0 0 1 1.305-.868c2.825.434 5.76.977 8.585 1.628.544.109.978.651.87 1.303-.218.542-.652.868-1.196.868zm-12.824-2.28h-.109c-2.825-.434-5.76-.76-8.585-1.085-.544-.108-1.087-.543-.978-1.194.108-.65.543-1.085 1.195-.977 2.826.326 5.76.652 8.694 1.086.544.108.979.651.87 1.194-.109.65-.543.977-1.087.977zm-47.601-.108c-.543 0-.978-.326-1.087-.868-.108-.543.326-1.194.87-1.194 2.825-.434 5.76-.868 8.694-1.086.543-.108 1.087.435 1.195.977.109.543-.434 1.086-.978 1.194-2.934.326-5.76.651-8.585 1.086 0-.109-.109-.109-.109-.109zm34.668-1.302s-.108 0 0 0c-3.043-.218-5.868-.326-8.694-.435a1.089 1.089 0 0 1-1.087-1.085c0-.651.544-1.085 1.087-1.085 2.826.108 5.76.217 8.694.434.652 0 1.087.543.979 1.194a.974.974 0 0 1-.979.977zm-21.735-.109c-.544 0-1.087-.434-1.087-.977 0-.651.435-1.085.978-1.194 2.826-.217 5.76-.325 8.803-.325.652 0 1.087.434 1.087 1.085s-.435 1.085-1.087 1.085c-2.934 0-5.76.109-8.694.326z"/>
    <path fill="#2D2B2B" fill-rule="evenodd" d="M322.281 262.989c-1.342 3.886-3.22 8.308-6.709 9.38-2.415.804-10.333-4.02-11.943-6.03-1.744-1.876-10.869-94.88-8.454-100.509 3.221-7.638 38.646 2.948 39.317 16.082.94 16.885-1.207 34.709-4.428 51.46-2.013 10.051-4.562 19.968-7.783 29.617z" clip-rule="evenodd"/>
    <path fill="#E5B1A3" d="M383.874 339.107a25.08 25.08 0 0 1-10.735 2.814c-1.208-4.154-2.415-8.442-3.623-12.597-.134-.536-.268-1.072-.134-1.608.134-.804.939-1.34 1.61-1.742 2.684-1.474 6.978-3.216 8.32.402a483.299 483.299 0 0 0 4.562 12.731zM315.438 349.292c-3.757.536-7.514.268-11.137-.938.134-4.423.402-8.711.536-13.133 0-.536 0-1.072.403-1.608.403-.671 1.342-.939 2.013-1.073 2.952-.536 7.648-.67 7.783 3.083.268 4.556.268 9.112.402 13.669z"/>
    <path fill="#2D2B2B" fill-rule="evenodd" d="M302.556 252.268c3.757-7.773 14.627-12.999 21.47.402 10.467 20.369-7.649 58.697-7.514 83.355h-12.748c-.671-2.412-3.221-79.469-1.208-83.757z" clip-rule="evenodd"/>
    <path fill="#231F20" fill-rule="evenodd" d="M350.998 188.478c-3.087 2.412-7.112 2.814-11.004 2.814-31.534 0-45.489-7.504-45.489-24.658 0-15.545 32.741-12.463 47.502-7.638 3.221 1.072 7.783 2.01 9.93 4.958 3.086 4.288 6.575 18.628-.939 24.524z" clip-rule="evenodd"/>
    <path fill="#E5B1A3" d="M307.789 86.63c-1.073 14.473-3.891 29.348-12.077 41.275-1.744 2.546-4.294 5.226-7.38 4.958-1.879-.134-3.355-1.474-4.428-2.948-.94-1.608-1.476-3.35-1.745-5.092-2.683-14.206 1.745-28.545 6.039-42.348 1.744-5.628 4.16-15.68 9.93-18.761 6.038-3.217 8.99 6.7 9.527 10.586.537 4.155.403 8.175.134 12.33z"/>
    <path fill="#66BCD5" fill-rule="evenodd" d="M308.46 65.992c-.268-2.413-.939-5.227-3.086-6.299-2.416-1.072-4.831.536-6.709 2.144-11.138 9.917-15.298 23.988-17.31 38.998l26.568 1.608c1.745-11.927 2.013-24.256.537-36.451z" clip-rule="evenodd"/>
    <path fill="#231F20" fill-rule="evenodd" d="M348.314 262.989c-1.073 3.886-2.684 8.308-6.173 9.38-2.415.804-7.514-9.112-9.393-10.989-1.878-1.876-19.457-74.912-17.31-80.54 2.818-7.639 9.661-12.463 16.773-13.67 10.333-1.608 22.276 1.609 23.752 14.742 1.878 16.885.671 34.709-1.61 51.46-1.477 10.051-3.489 19.968-6.039 29.617z" clip-rule="evenodd"/>
    <path fill="#FFCEBD" d="M271.558 125.761c-.805 1.608 0 3.752 1.342 4.958 1.342 1.206 10.735 5.629 19.86 1.608 4.563-2.01 5.368-6.432 3.758-10.72-2.282-5.897-24.154 2.144-24.96 4.154z"/>
    <path fill="#231F20" fill-rule="evenodd" d="M330.467 255.082c.268-8.309 9.393-17.958 20.396-6.701 17.713 17.958 22.812 52.399 29.656 77.861l-11.943 4.154c-1.61-1.876-38.243-70.758-38.109-75.314z" clip-rule="evenodd"/>
    <path fill="url(#s)" fill-rule="evenodd" d="M357.305 118.658c4.294-13.803 9.527-30.823 7.246-45.296-5.905-7.102-17.847-23.72-41.464-23.72-16.64 0-29.119 16.752-31.937 21.04-3.221 4.69-2.013 11.525-1.208 17.02 1.745 11.659 6.844 57.624 2.416 89.653h67.094c-.269-15.143-6.441-44.76-2.147-58.697z" clip-rule="evenodd"/>
    <path fill="#E5B1A3" d="M372.736 101.907c-3.355-12.731-10.467-24.256-20.128-33.101-1.745-1.608-4.16-3.216-6.307-2.278-1.208.536-2.013 1.742-2.281 2.948-.403 1.206-.269 2.546-.269 3.886.537 15.01 3.355 29.751 6.039 44.492.805 4.556 1.744 9.113 3.623 13.267 2.013 4.155 5.233 7.907 9.527 9.515 2.282.804 5.905 1.34 8.052-.268 1.61-1.34 2.012-4.69 2.415-6.567 1.476-6.7 2.013-13.669 1.476-20.503-.403-3.753-1.073-7.639-2.147-11.391z"/>
    <path fill="#18898D" fill-rule="evenodd" d="M376.493 106.731v.272c.136-.136 0-.272 0-.272z" clip-rule="evenodd"/>
    <path fill="#1449A8" fill-rule="evenodd" d="M343.349 65.992c.135-2.413.537-5.227 2.684-6.299 2.281-1.072 6.575.938 8.454 2.546 11.674 9.917 18.249 23.452 21.202 38.462l-29.522 1.608c-2.549-11.793-3.489-24.122-2.818-36.317z" clip-rule="evenodd"/>
    <path fill="#E5B1A3" d="M316.377 33.159c1.611-7.103 6.978-8.845 10.199-7.103 2.013 13.401 4.025 19.298 9.393 26.668-6.575 4.155-17.713 3.35-20.128 0-.134-1.072-.269-15.813.536-19.565z"/>
    <path fill="#FFCEBD" d="M316.78 16.407c-6.441-4.422-15.834-.536-17.176 7.639-1.208 7.639 6.441 20.638 10.064 22.782 6.307 3.752 14.895-5.227 15.163-9.38.403-6.3-2.684-17.288-8.051-21.04z"/>
    <path fill="#8C97AE" fill-rule="evenodd" d="M321.342 18.015c.537-.402 1.208-.268 1.745 0a5.98 5.98 0 0 1 1.476 1.073c1.476 1.34 3.086 2.814 4.294 4.556 1.208 1.742 2.013 3.618 2.013 5.763 0 1.34-.403 2.68.134 4.02.402 1.072 1.476 2.144 1.208 3.35-.269.804-1.208 1.34-2.147 1.206-.94-.134-1.611-.67-2.282-1.34-.536-.67-.939-1.474-1.342-2.278-1.476-2.546-3.757-4.557-5.233-7.103-1.61-2.546-2.415-5.762-1.073-8.442l1.207-.805z" clip-rule="evenodd"/>
    <path fill="#8C97AE" fill-rule="evenodd" d="M291.284 21.366c1.342-.536 2.818-1.072 4.16-1.742-.671.804-1.342 1.608-1.61 2.68-.269 1.072 0 2.144.939 2.68.671.402 1.61.268 2.281-.134s1.208-.938 1.879-1.474c-.269.536-.537 1.072-.537 1.742 0 .67.403 1.206.939 1.34.537 0 .94-.268 1.342-.536 1.879-1.474 3.758-2.948 5.77-4.556-.134.536-.268 1.206-.134 1.742s.403 1.206 1.074 1.474c.939.402 2.013-.536 2.549-1.34.537-.938 1.208-1.876 2.281-2.144 1.208-.134 2.147.938 2.818 1.876.135.134.269.402.403.536l4.026 5.227c.402.536.805 1.072 1.342 1.474.536.402 1.341.536 1.878.268 1.074-.402 12.748-17.556-2.147-22.782-2.147-.804-5.233.134-7.38.804-2.147.67-4.294 1.742-6.441 2.144-1.745.268-3.623.134-5.368.402-5.099.536-9.93 5.093-10.064 10.319z" clip-rule="evenodd"/>
    <path fill="#FFCEBD" d="M328.186 24.984c.671 1.742.671 3.618 0 5.227-2.013 4.824-6.709.536-6.843-2.949-.269-4.154 5.098-6.834 6.843-2.278z"/>
    <path fill="#2D2B2B" fill-rule="evenodd" d="M280.683 355.724c-.134-1.876 1.61-3.35 3.355-3.752 1.744-.402 3.623-.134 5.502-.134 5.233 0 10.198-3.216 12.613-7.773.269-.67.671-1.34 1.208-1.742.805-.402 1.879-.134 2.684.536.671.67 1.207 1.475 1.878 2.145 1.208 1.206 2.952 1.876 4.563 1.876 1.476 0 3.086-1.072 4.428-.402 1.208.67 1.476 2.278 1.879 3.484.536 2.01 1.073 4.154 1.476 6.164.134.402.268.938.268 1.341h-9.93c-.402-.671-.805-2.547-1.073-3.351 0 .804-.403 2.68-.806 3.351h-27.24c-.402-.537-.671-1.073-.805-1.743zM370.858 350.498c-.671-1.742-.403-3.35.134-4.02.537-.67.671-3.887.805-8.711 0-2.144 3.757-4.02 6.844-1.474.939.804 1.878 1.34 2.549 1.072.537-.268.939-1.474 1.745-1.072.671.402 1.342 2.01 1.878 3.082.94 1.876 1.745 3.752 2.684 5.629.134.402.403.804.537 1.34l-16.237 5.628c-.403-.268-.671-.804-.939-1.474z" clip-rule="evenodd"/>
    <path fill="#fff" d="M324.697 145.326H284.44c-2.415 0-4.83-1.876-5.501-4.288l-17.713-63.254c-.671-2.412.671-4.288 3.086-4.288h40.257c2.415 0 4.83 1.876 5.501 4.288l17.713 63.254c.671 2.412-.671 4.288-3.086 4.288z"/>
    <path fill="#BAC7DB" d="M327.783 141.038L310.07 77.784c-.671-2.412-3.087-4.288-5.502-4.288h-4.294c2.415 0 4.831 1.876 5.502 4.288l17.713 63.254c.67 2.412-.671 4.288-3.087 4.288h4.294c2.416 0 3.758-1.876 3.087-4.288z"/>
    <path fill="#FFCEBD" d="M322.013 126.565c-2.013 1.34-2.281 4.154-1.342 6.298.94 2.145 35.292 10.453 43.477 10.319 2.55 0 5.368-.268 6.844-2.278 1.342-1.876.939-4.288.268-6.432-1.207-3.619-3.22-7.639-6.172-10.051-1.879-1.742-41.733 1.34-43.075 2.144z"/>
    <path fill="#FFCEBD" d="M309.668 120.534c-.805-1.206-1.611-2.68-.805-3.886.536-.804 1.61-.938 2.549-.67.939.268 1.61.938 2.415 1.474.94.804 2.013 1.608 3.355 1.742 1.208.134 2.684-.536 2.952-1.742.269-1.34-.671-3.082.269-4.02.536-.536 1.342-.536 2.013-.134.67.402 1.073.938 1.476 1.474 2.281 3.082 4.696 6.298 5.635 10.051.94 3.752 0 8.174-3.086 10.453-2.818 2.01-6.978 1.742-9.661-.402-2.282-1.877-3.221-4.423-3.489-7.237-.269-2.948-1.745-4.422-3.623-7.103zM269.412 117.318c.134-.402.402-7.371.805-7.639.671-.536 3.086 7.639 2.549 8.309 1.745-.134 2.281-.268 4.026-.402 1.342-.134 2.952 0 3.355 1.206.268.938-.537 1.876-1.074 2.814-.939 1.608.403 10.587-.268 11.391-2.818 2.814-8.857-2.144-9.93-4.824-1.476-4.021-.805-7.103.537-10.855z"/>
    <path fill="#909CAF" d="M109.568 9.38l92.303 30.618-2.081-18.293L109.568 9.38z"/>
    <path fill="#D1E1FC" d="M109.568 9.38L214.453 0l-29.3 43.552L109.568 9.38z"/>
    <path fill="#BAC7DB" d="M109.568 9.38l86.772 17.527 5.531 13.09 2.091-24.364-94.394-6.252z"/>
    <path stroke="#E5B1A3" stroke-linecap="round" d="M310.256 41.254c1.74.035 5.376-.456 5.996-2.705"/>
    <defs>
        <linearGradient id="a" x1="197.209" x2="455.336" y1="212.883" y2="103.954" gradientUnits="userSpaceOnUse">
            <stop stop-color="#E3EDFE"/>
            <stop offset=".047" stop-color="#E5EEFE"/>
            <stop offset=".511" stop-color="#F0F5FE"/>
            <stop offset="1" stop-color="#F4F8FF"/>
        </linearGradient>
        <linearGradient id="b" x1="421.926" x2="432.751" y1="170.809" y2="170.809" gradientUnits="userSpaceOnUse">
            <stop stop-color="#E3EDFE"/>
            <stop offset="1" stop-color="#BFD5FB"/>
        </linearGradient>
        <linearGradient id="c" x1="400.005" x2="410.83" y1="170.809" y2="170.809" gradientUnits="userSpaceOnUse">
            <stop stop-color="#E3EDFE"/>
            <stop offset="1" stop-color="#BFD5FB"/>
        </linearGradient>
        <linearGradient id="d" x1="378.086" x2="388.911" y1="170.809" y2="170.809" gradientUnits="userSpaceOnUse">
            <stop stop-color="#E3EDFE"/>
            <stop offset="1" stop-color="#BFD5FB"/>
        </linearGradient>
        <linearGradient id="e" x1="288.94" x2="339.952" y1="227.407" y2="227.407" gradientUnits="userSpaceOnUse">
            <stop stop-color="#E3EDFE"/>
            <stop offset="1" stop-color="#BFD5FB"/>
        </linearGradient>
        <linearGradient id="f" x1="343.988" x2="356.118" y1="74.285" y2="74.285" gradientUnits="userSpaceOnUse">
            <stop stop-color="#E3EDFE"/>
            <stop offset="1" stop-color="#BFD5FB"/>
        </linearGradient>
        <linearGradient id="g" x1="319.424" x2="331.555" y1="74.285" y2="74.285" gradientUnits="userSpaceOnUse">
            <stop stop-color="#E3EDFE"/>
            <stop offset="1" stop-color="#BFD5FB"/>
        </linearGradient>
        <linearGradient id="h" x1="294.863" x2="306.993" y1="74.285" y2="74.285" gradientUnits="userSpaceOnUse">
            <stop stop-color="#E3EDFE"/>
            <stop offset="1" stop-color="#BFD5FB"/>
        </linearGradient>
        <linearGradient id="i" x1="225.978" x2="240.136" y1="100.53" y2="100.53" gradientUnits="userSpaceOnUse">
            <stop stop-color="#E3EDFE"/>
            <stop offset="1" stop-color="#D9E6FC"/>
        </linearGradient>
        <linearGradient id="j" x1="234.152" x2="248.31" y1="106.734" y2="106.734" gradientUnits="userSpaceOnUse">
            <stop stop-color="#E3EDFE"/>
            <stop offset="1" stop-color="#D9E6FC"/>
        </linearGradient>
        <linearGradient id="k" x1="354.261" x2="372.833" y1="250.071" y2="250.071" gradientUnits="userSpaceOnUse">
            <stop stop-color="#E3EDFE"/>
            <stop offset="1" stop-color="#D9E6FC"/>
        </linearGradient>
        <linearGradient id="l" x1="327.112" x2="345.685" y1="267.294" y2="267.294" gradientUnits="userSpaceOnUse">
            <stop stop-color="#E3EDFE"/>
            <stop offset="1" stop-color="#D9E6FC"/>
        </linearGradient>
        <linearGradient id="m" x1="422.557" x2="441.13" y1="127.095" y2="127.095" gradientUnits="userSpaceOnUse">
            <stop stop-color="#E3EDFE"/>
            <stop offset="1" stop-color="#D9E6FC"/>
        </linearGradient>
        <linearGradient id="n" x1="421.607" x2="440.18" y1="104.125" y2="104.125" gradientUnits="userSpaceOnUse">
            <stop stop-color="#E3EDFE"/>
            <stop offset="1" stop-color="#D9E6FC"/>
        </linearGradient>
        <linearGradient id="o" x1="243.42" x2="257.578" y1="100.53" y2="100.53" gradientUnits="userSpaceOnUse">
            <stop stop-color="#E3EDFE"/>
            <stop offset="1" stop-color="#D9E6FC"/>
        </linearGradient>
        <linearGradient id="p" x1="385.602" x2="399.759" y1="78.218" y2="78.218" gradientUnits="userSpaceOnUse">
            <stop stop-color="#E3EDFE"/>
            <stop offset="1" stop-color="#D9E6FC"/>
        </linearGradient>
        <linearGradient id="q" x1="368.243" x2="382.401" y1="96.098" y2="96.098" gradientUnits="userSpaceOnUse">
            <stop stop-color="#E3EDFE"/>
            <stop offset="1" stop-color="#D9E6FC"/>
        </linearGradient>
        <linearGradient id="r" x1="403.054" x2="417.212" y1="78.218" y2="78.218" gradientUnits="userSpaceOnUse">
            <stop stop-color="#E3EDFE"/>
            <stop offset="1" stop-color="#D9E6FC"/>
        </linearGradient>
        <linearGradient id="s" x1="288.959" x2="365.131" y1="113.573" y2="113.573" gradientUnits="userSpaceOnUse">
            <stop stop-color="#2842A2"/>
            <stop offset="1" stop-color="#6C98E3"/>
        </linearGradient>
    </defs>
</svg>
