<svg width="338" height="697" viewBox="0 0 338 697" fill="none" xmlns="http://www.w3.org/2000/svg">
<path fill-rule="evenodd" clip-rule="evenodd" d="M49.1835 0C22.0202 0 0 22.0202 0 49.1835V647.036C0 674.2 22.0202 696.22 49.1835 696.22H288.816C315.98 696.22 338 674.2 338 647.036V49.1835C338 22.0202 315.98 0 288.816 0H49.1835ZM48.0907 15.3015C29.9818 15.3015 15.3016 29.9816 15.3016 48.0905V648.129C15.3016 666.238 29.9818 680.918 48.0907 680.918H289.91C308.018 680.918 322.699 666.238 322.699 648.129V48.0905C322.699 29.9816 308.018 15.3015 289.91 15.3015H48.0907Z" fill="white"/>
<path d="M86.3442 14.7551H251.929V20.2199C251.929 30.4816 243.61 38.8003 233.348 38.8003H104.925C94.663 38.8003 86.3442 30.4816 86.3442 20.2199V14.7551Z" fill="white"/>
</svg>
