<svg width="87" height="128" viewBox="0 0 87 128" fill="none" xmlns="http://www.w3.org/2000/svg">
<path d="M13.44 5.67V20H11.5V13.48H3.77V20H1.83V5.67H3.77V12.06H11.5V5.67H13.44ZM21.8805 15.44C21.0605 15.4667 20.3605 15.5333 19.7805 15.64C19.2071 15.74 18.7371 15.8733 18.3705 16.04C18.0105 16.2067 17.7471 16.4033 17.5805 16.63C17.4205 16.8567 17.3405 17.11 17.3405 17.39C17.3405 17.6567 17.3838 17.8867 17.4705 18.08C17.5571 18.2733 17.6738 18.4333 17.8205 18.56C17.9738 18.68 18.1505 18.77 18.3505 18.83C18.5571 18.8833 18.7771 18.91 19.0105 18.91C19.3238 18.91 19.6105 18.88 19.8705 18.82C20.1305 18.7533 20.3738 18.66 20.6005 18.54C20.8338 18.42 21.0538 18.2767 21.2605 18.11C21.4738 17.9433 21.6805 17.7533 21.8805 17.54V15.44ZM16.1305 11.3C16.6905 10.76 17.2938 10.3567 17.9405 10.09C18.5871 9.82333 19.3038 9.69 20.0905 9.69C20.6571 9.69 21.1605 9.78333 21.6005 9.97C22.0405 10.1567 22.4105 10.4167 22.7105 10.75C23.0105 11.0833 23.2371 11.4867 23.3905 11.96C23.5438 12.4333 23.6205 12.9533 23.6205 13.52V20H22.8305C22.6571 20 22.5238 19.9733 22.4305 19.92C22.3371 19.86 22.2638 19.7467 22.2105 19.58L22.0105 18.62C21.7438 18.8667 21.4838 19.0867 21.2305 19.28C20.9771 19.4667 20.7105 19.6267 20.4305 19.76C20.1505 19.8867 19.8505 19.9833 19.5305 20.05C19.2171 20.1233 18.8671 20.16 18.4805 20.16C18.0871 20.16 17.7171 20.1067 17.3705 20C17.0238 19.8867 16.7205 19.72 16.4605 19.5C16.2071 19.28 16.0038 19.0033 15.8505 18.67C15.7038 18.33 15.6305 17.93 15.6305 17.47C15.6305 17.07 15.7405 16.6867 15.9605 16.32C16.1805 15.9467 16.5371 15.6167 17.0305 15.33C17.5238 15.0433 18.1671 14.81 18.9605 14.63C19.7538 14.4433 20.7271 14.3367 21.8805 14.31V13.52C21.8805 12.7333 21.7105 12.14 21.3705 11.74C21.0305 11.3333 20.5338 11.13 19.8805 11.13C19.4405 11.13 19.0705 11.1867 18.7705 11.3C18.4771 11.4067 18.2205 11.53 18.0005 11.67C17.7871 11.8033 17.6005 11.9267 17.4405 12.04C17.2871 12.1467 17.1338 12.2 16.9805 12.2C16.8605 12.2 16.7571 12.17 16.6705 12.11C16.5838 12.0433 16.5105 11.9633 16.4505 11.87L16.1305 11.3ZM40.4319 20H39.1919C38.8719 20 38.6252 19.95 38.4519 19.85C38.2852 19.75 38.1552 19.5933 38.0619 19.38L36.0919 16.23C35.7652 15.71 35.2952 15.45 34.6819 15.45H33.6619V20.01H31.9319V15.45H30.9219C30.6219 15.45 30.3485 15.5167 30.1019 15.65C29.8619 15.7833 29.6652 15.9767 29.5119 16.23L27.5419 19.38C27.4419 19.5933 27.3052 19.75 27.1319 19.85C26.9652 19.95 26.7219 20 26.4019 20H25.1719L27.8319 15.81C28.0052 15.5167 28.2019 15.28 28.4219 15.1C28.6419 14.92 28.9119 14.7833 29.2319 14.69C28.9785 14.61 28.7619 14.4933 28.5819 14.34C28.4085 14.18 28.2452 13.9767 28.0919 13.73L25.4519 9.87H26.8519C27.0252 9.87 27.1819 9.91667 27.3219 10.01C27.4619 10.0967 27.5719 10.2167 27.6519 10.37L29.8019 13.57C29.9485 13.79 30.1252 13.96 30.3319 14.08C30.5385 14.1933 30.7819 14.25 31.0619 14.25H31.9319V9.87H33.6619V14.25H34.5119C35.0785 14.25 35.5052 14.0233 35.7919 13.57L37.9419 10.37C38.0219 10.2167 38.1319 10.0967 38.2719 10.01C38.4185 9.91667 38.5785 9.87 38.7519 9.87H40.1519L37.5119 13.73C37.3585 13.9767 37.1919 14.18 37.0119 14.34C36.8385 14.4933 36.6252 14.61 36.3719 14.69C36.6919 14.7833 36.9619 14.92 37.1819 15.1C37.4019 15.28 37.5985 15.5167 37.7719 15.81L40.4319 20ZM53.3836 9.84V20H51.7736V13.27C51.7736 13.0833 51.7836 12.8767 51.8036 12.65C51.8303 12.4167 51.8636 12.2 51.9036 12L48.3836 18.17C48.3303 18.27 48.2603 18.35 48.1736 18.41C48.0869 18.47 47.9869 18.5 47.8736 18.5H47.6736C47.5603 18.5 47.4569 18.47 47.3636 18.41C47.2769 18.35 47.2069 18.27 47.1536 18.17L43.5736 11.98C43.6069 12.18 43.6369 12.4 43.6636 12.64C43.6903 12.8733 43.7036 13.0833 43.7036 13.27V20H42.0936V9.84H43.5236C43.6503 9.84 43.7736 9.87 43.8936 9.93C44.0136 9.98333 44.1169 10.0867 44.2036 10.24L47.3636 15.52C47.5169 15.8267 47.6536 16.15 47.7736 16.49C47.8869 16.1367 48.0203 15.8133 48.1736 15.52L51.2736 10.24C51.3603 10.08 51.4636 9.97333 51.5836 9.92C51.7036 9.86667 51.8269 9.84 51.9536 9.84H53.3836ZM64.8852 9.87V20H63.1052V13.12C63.1052 12.9867 63.1118 12.8433 63.1252 12.69C63.1385 12.5367 63.1552 12.3833 63.1752 12.23C63.1152 12.3633 63.0552 12.4867 62.9952 12.6C62.9352 12.7133 62.8718 12.8167 62.8052 12.91L57.9152 19.56C57.8418 19.6667 57.7485 19.77 57.6352 19.87C57.5285 19.9633 57.4085 20.01 57.2752 20.01H56.1952V9.88H57.9852V16.76C57.9852 16.8867 57.9785 17.0267 57.9652 17.18C57.9518 17.3267 57.9352 17.4767 57.9152 17.63C57.9752 17.5033 58.0352 17.3867 58.0952 17.28C58.1552 17.1667 58.2152 17.0633 58.2752 16.97L63.1652 10.32C63.2385 10.2133 63.3318 10.1133 63.4452 10.02C63.5585 9.92 63.6818 9.87 63.8152 9.87H64.8852ZM76.1191 11.23H72.2291V20H70.4491V11.23H66.5591V9.87H76.1191V11.23ZM84.1861 13.83C84.1861 13.4167 84.1261 13.04 84.0061 12.7C83.8928 12.3533 83.7228 12.0567 83.4961 11.81C83.2761 11.5567 83.0061 11.3633 82.6861 11.23C82.3661 11.09 82.0028 11.02 81.5961 11.02C80.7428 11.02 80.0661 11.27 79.5661 11.77C79.0728 12.2633 78.7661 12.95 78.6461 13.83H84.1861ZM85.6261 18.58C85.4061 18.8467 85.1428 19.08 84.8361 19.28C84.5294 19.4733 84.1994 19.6333 83.8461 19.76C83.4994 19.8867 83.1394 19.98 82.7661 20.04C82.3928 20.1067 82.0228 20.14 81.6561 20.14C80.9561 20.14 80.3094 20.0233 79.7161 19.79C79.1294 19.55 78.6194 19.2033 78.1861 18.75C77.7594 18.29 77.4261 17.7233 77.1861 17.05C76.9461 16.3767 76.8261 15.6033 76.8261 14.73C76.8261 14.0233 76.9328 13.3633 77.1461 12.75C77.3661 12.1367 77.6794 11.6067 78.0861 11.16C78.4928 10.7067 78.9894 10.3533 79.5761 10.1C80.1628 9.84 80.8228 9.71 81.5561 9.71C82.1628 9.71 82.7228 9.81333 83.2361 10.02C83.7561 10.22 84.2028 10.5133 84.5761 10.9C84.9561 11.28 85.2528 11.7533 85.4661 12.32C85.6794 12.88 85.7861 13.52 85.7861 14.24C85.7861 14.52 85.7561 14.7067 85.6961 14.8C85.6361 14.8933 85.5228 14.94 85.3561 14.94H78.5861C78.6061 15.58 78.6928 16.1367 78.8461 16.61C79.0061 17.0833 79.2261 17.48 79.5061 17.8C79.7861 18.1133 80.1194 18.35 80.5061 18.51C80.8928 18.6633 81.3261 18.74 81.8061 18.74C82.2528 18.74 82.6361 18.69 82.9561 18.59C83.2828 18.4833 83.5628 18.37 83.7961 18.25C84.0294 18.13 84.2228 18.02 84.3761 17.92C84.5361 17.8133 84.6728 17.76 84.7861 17.76C84.9328 17.76 85.0461 17.8167 85.1261 17.93L85.6261 18.58ZM4.25 50.68C4.34333 50.8333 4.37333 50.98 4.34 51.12C4.31333 51.2533 4.22333 51.3567 4.07 51.43L3.49 51.71L1 47.82V47.59L3.49 43.7L4.07 43.98C4.22333 44.0533 4.31333 44.16 4.34 44.3C4.37333 44.4333 4.34333 44.5767 4.25 44.73L2.67 47.34C2.57667 47.5067 2.48333 47.6267 2.39 47.7C2.48333 47.7867 2.57667 47.91 2.67 48.07L4.25 50.68ZM7.21 50.68C7.30333 50.8333 7.33333 50.98 7.3 51.12C7.27333 51.2533 7.18333 51.3567 7.03 51.43L6.45 51.71L3.96 47.82V47.59L6.45 43.7L7.03 43.98C7.18333 44.0533 7.27333 44.16 7.3 44.3C7.33333 44.4333 7.30333 44.5767 7.21 44.73L5.63 47.34C5.53667 47.5067 5.44333 47.6267 5.35 47.7C5.44333 47.7867 5.53667 47.91 5.63 48.07L7.21 50.68ZM21.8442 53H20.1042C19.9109 53 19.7442 52.95 19.6042 52.85C19.4709 52.7433 19.3442 52.59 19.2242 52.39L15.4342 47.14C15.2609 46.88 15.0742 46.7 14.8742 46.6C14.6742 46.4933 14.4009 46.44 14.0542 46.44H12.3342V53H10.4042V38.67H12.3342V44.95H13.8242C14.1242 44.95 14.3776 44.9033 14.5842 44.81C14.7976 44.7167 15.0076 44.5333 15.2142 44.26L18.9642 39.22C19.0642 39.06 19.1842 38.93 19.3242 38.83C19.4709 38.7233 19.6409 38.67 19.8342 38.67H21.4642L17.1342 44.56C16.8076 45.02 16.3876 45.3367 15.8742 45.51C16.2276 45.6033 16.5242 45.7533 16.7642 45.96C17.0109 46.16 17.2442 46.44 17.4642 46.8L21.8442 53ZM31.107 42.87L25.457 55.99C25.397 56.1233 25.3204 56.23 25.227 56.31C25.1404 56.39 25.0037 56.43 24.817 56.43H23.497L25.347 52.41L21.167 42.87H22.707C22.8604 42.87 22.9804 42.91 23.067 42.99C23.1604 43.0633 23.2237 43.1467 23.257 43.24L25.967 49.62C26.0737 49.9 26.1637 50.1933 26.237 50.5C26.3304 50.1867 26.4304 49.89 26.537 49.61L29.167 43.24C29.207 43.1333 29.2737 43.0467 29.367 42.98C29.467 42.9067 29.577 42.87 29.697 42.87H31.107ZM41.1195 53H39.3295V44.23H34.4695V53H32.6795V42.87H41.1195V53ZM52.6391 42.87V53H50.8591V46.12C50.8591 45.9867 50.8657 45.8433 50.8791 45.69C50.8924 45.5367 50.9091 45.3833 50.9291 45.23C50.8691 45.3633 50.8091 45.4867 50.7491 45.6C50.6891 45.7133 50.6257 45.8167 50.5591 45.91L45.6691 52.56C45.5957 52.6667 45.5024 52.77 45.3891 52.87C45.2824 52.9633 45.1624 53.01 45.0291 53.01H43.9491V42.88H45.7391V49.76C45.7391 49.8867 45.7324 50.0267 45.7191 50.18C45.7057 50.3267 45.6891 50.4767 45.6691 50.63C45.7291 50.5033 45.7891 50.3867 45.8491 50.28C45.9091 50.1667 45.9691 50.0633 46.0291 49.97L50.9191 43.32C50.9924 43.2133 51.0857 43.1133 51.1991 43.02C51.3124 42.92 51.4357 42.87 51.5691 42.87H52.6391ZM63.873 44.23H59.983V53H58.203V44.23H54.313V42.87H63.873V44.23ZM69.4602 51.7C69.8202 51.7 70.1302 51.6567 70.3902 51.57C70.6568 51.4767 70.8768 51.35 71.0502 51.19C71.2235 51.0233 71.3535 50.83 71.4402 50.61C71.5268 50.39 71.5702 50.15 71.5702 49.89C71.5702 49.65 71.5335 49.4267 71.4602 49.22C71.3868 49.0067 71.2635 48.82 71.0902 48.66C70.9235 48.5 70.7035 48.3733 70.4302 48.28C70.1568 48.1867 69.8235 48.14 69.4302 48.14H67.2802V51.7H69.4602ZM69.4302 46.84C70.1302 46.84 70.7168 46.9233 71.1902 47.09C71.6702 47.2567 72.0535 47.48 72.3402 47.76C72.6335 48.04 72.8435 48.3633 72.9702 48.73C73.0968 49.0967 73.1602 49.4767 73.1602 49.87C73.1602 50.3233 73.0802 50.7433 72.9202 51.13C72.7602 51.51 72.5235 51.84 72.2102 52.12C71.8968 52.3933 71.5102 52.61 71.0502 52.77C70.5902 52.9233 70.0602 53 69.4602 53H65.5702V42.87H67.2802V46.84H69.4302ZM78.3605 47.59V47.82L75.8705 51.71L75.2905 51.43C75.1371 51.3567 75.0438 51.2533 75.0105 51.12C74.9838 50.98 75.0171 50.8333 75.1105 50.68L76.6905 48.07C76.7438 47.99 76.7905 47.92 76.8305 47.86C76.8771 47.7933 76.9271 47.74 76.9805 47.7C76.9271 47.6667 76.8771 47.62 76.8305 47.56C76.7905 47.4933 76.7438 47.42 76.6905 47.34L75.1105 44.73C75.0171 44.5767 74.9838 44.4333 75.0105 44.3C75.0438 44.16 75.1371 44.0533 75.2905 43.98L75.8705 43.7L78.3605 47.59ZM81.3205 47.59V47.82L78.8305 51.71L78.2505 51.43C78.0971 51.3567 78.0038 51.2533 77.9705 51.12C77.9438 50.98 77.9771 50.8333 78.0705 50.68L79.6505 48.07C79.7038 47.99 79.7505 47.92 79.7905 47.86C79.8371 47.7933 79.8871 47.74 79.9405 47.7C79.8871 47.6667 79.8371 47.62 79.7905 47.56C79.7505 47.4933 79.7038 47.42 79.6505 47.34L78.0705 44.73C77.9771 44.5767 77.9438 44.4333 77.9705 44.3C78.0038 44.16 78.0971 44.0533 78.2505 43.98L78.8305 43.7L81.3205 47.59Z" fill="black"/>
<path fill-rule="evenodd" clip-rule="evenodd" d="M82.1467 123.974C82.2253 124.439 82.3009 125.522 81.7596 125.522C75.3332 125.755 68.9065 126.296 62.5588 127.149C61.9389 127.228 61.5518 126.375 61.3976 125.834C61.3189 125.447 61.0891 124.207 61.7847 124.131C67.4369 123.357 73.0894 122.891 78.7379 122.661C69.9137 119.873 60.9315 117.009 53.1896 111.823C49.627 109.421 46.3005 106.557 43.5911 103.227C40.573 99.5107 38.4802 95.2525 37.2433 90.6863C35.7736 85.1883 35.4621 79.4605 35.9278 73.8871C35.9278 73.4213 36.2363 72.7258 36.7807 73.1129C37.322 73.5 37.6335 74.4284 37.5549 75.127C37.2464 79.6935 37.322 84.4173 38.3291 88.9084C39.2575 93.0878 40.9601 96.8834 43.5942 100.288C48.8563 107.02 56.3684 111.511 64.1103 114.684C68.2897 116.386 72.5475 117.78 76.8845 119.175C74.7948 116.078 73.2464 112.594 72.318 108.956C72.2394 108.49 72.0852 107.486 72.7051 107.253C73.3251 107.099 73.7122 108.182 73.8664 108.569C75.1064 113.601 77.816 118.167 81.6873 121.809C82.153 122.275 82.3829 123.279 82.2286 123.899C82.2256 123.899 82.2256 123.974 82.147 123.974L82.1467 123.974Z" fill="#26C6DA"/>
</svg>
