<svg width="100" height="18" viewBox="0 0 100 18" fill="none" xmlns="http://www.w3.org/2000/svg">
<mask id="mask0" mask-type="alpha" maskUnits="userSpaceOnUse" x="0" y="0" width="100" height="18">
<path fill-rule="evenodd" clip-rule="evenodd" d="M0 17.2767H100V0.411133H0V17.2767Z" fill="white"/>
</mask>
<g mask="url(#mask0)">
<path d="M25.317 0.411133L34.951 17.2897H26.9298V14.2571H29.7599L25.317 6.47642L20.8743 14.2571H23.8992V17.2897H15.6895L25.317 0.411133Z" fill="#26C6DA"/>
</g>
<mask id="mask1" mask-type="alpha" maskUnits="userSpaceOnUse" x="0" y="0" width="100" height="18">
<path fill-rule="evenodd" clip-rule="evenodd" d="M0 17.2767H100V0.411133H0V17.2767Z" fill="white"/>
</mask>
<g mask="url(#mask1)">
<path d="M63.6395 7.85491V17.2897H60.0549V0.411133L67.8144 6.56828V6.61107L75.5859 0.453927V17.2897H72.0014V7.90375L67.8144 11.2246V11.1755L63.6395 7.85491Z" fill="white"/>
</g>
<mask id="mask2" mask-type="alpha" maskUnits="userSpaceOnUse" x="0" y="0" width="100" height="18">
<path fill-rule="evenodd" clip-rule="evenodd" d="M0 17.2767H100V0.411133H0V17.2767Z" fill="white"/>
</mask>
<g mask="url(#mask2)">
<path d="M42.7834 9.62006L36.2168 3.00948L38.7485 0.45459L44.603 6.34849L50.4517 0.45459L52.9834 3.00948L46.368 9.66891V17.2903H42.7834V9.62006Z" fill="white"/>
</g>
<mask id="mask3" mask-type="alpha" maskUnits="userSpaceOnUse" x="0" y="0" width="100" height="18">
<path fill-rule="evenodd" clip-rule="evenodd" d="M0 17.2767H100V0.411133H0V17.2767Z" fill="white"/>
</mask>
<g mask="url(#mask3)">
<path fill-rule="evenodd" clip-rule="evenodd" d="M8.36214 0.45459H0V17.2903H3.58454V10.68H8.36214C9.76173 10.68 10.9606 10.1775 11.9465 9.18499C12.9386 8.18647 13.4375 6.97937 13.4375 5.5702C13.4375 4.16124 12.9386 2.95436 11.9465 1.95562C10.9606 0.957095 9.76173 0.45459 8.36214 0.45459ZM3.58447 7.07143V4.06331H8.36207C8.77579 4.06331 9.12875 4.21028 9.41472 4.50444C9.7067 4.79859 9.85291 5.15391 9.85291 5.5704C9.85291 5.9871 9.7067 6.34242 9.41472 6.63657C9.12875 6.92446 8.77579 7.07143 8.36207 7.07143H3.58447Z" fill="white"/>
</g>
<mask id="mask4" mask-type="alpha" maskUnits="userSpaceOnUse" x="0" y="0" width="100" height="18">
<path fill-rule="evenodd" clip-rule="evenodd" d="M0 17.2767H100V0.411133H0V17.2767Z" fill="white"/>
</mask>
<g mask="url(#mask4)">
<path d="M95.9801 11.9927C95.9801 9.22177 94.1647 6.90434 91.729 6.3219L94.3313 1.14136C96.8418 2.11007 98.7606 4.40307 99.358 7.22313C99.4383 7.88516 99.4154 8.56579 99.266 9.24015C98.8524 11.1283 97.5483 12.5875 95.8308 13.3661C95.9285 12.9247 95.9801 12.4649 95.9801 11.9927Z" fill="white"/>
</g>
<mask id="mask5" mask-type="alpha" maskUnits="userSpaceOnUse" x="0" y="0" width="100" height="18">
<path fill-rule="evenodd" clip-rule="evenodd" d="M0 17.2767H100V0.411133H0V17.2767Z" fill="white"/>
</mask>
<g mask="url(#mask5)">
<path d="M89.1919 16.8682C89.3321 16.8989 89.4719 16.9294 89.6181 16.9601C90.1535 17.0336 90.6769 17.0826 91.1881 17.0887C95.7828 17.0519 99.4953 13.2841 99.4953 8.65244C99.4953 8.00923 99.4283 7.39045 99.2946 6.79004C99.3796 7.45162 99.3553 8.13178 99.1971 8.80568C98.4302 12.0833 94.8396 14.0683 91.0177 13.4311L89.1919 16.8682Z" fill="#677797"/>
</g>
<path d="M91.099 11.2385C89.8979 13.3329 89.2025 14.5896 88.1845 16.3849C87.5774 16.1755 87.0021 15.9002 86.4711 15.5711C85.8956 15.2002 85.3394 14.7513 84.821 14.2546C84.157 13.5782 83.6262 12.8244 83.2341 11.9685L83.2214 11.9326L83.2278 11.9206C83.2151 11.8908 83.2024 11.8549 83.1962 11.825C83.0001 11.1247 82.7851 9.88615 82.9559 8.93468C82.9749 8.85678 82.9939 8.77297 83.0128 8.68916C83.4616 7.03766 84.6439 5.70916 86.2309 4.8833C86.2054 5.09863 86.1927 5.32008 86.1927 5.54154C86.1927 8.35413 88.2982 10.7 91.099 11.2385Z" fill="#26C6DA"/>
<path d="M93.1983 0.622546L91.2447 4.00366C87.3561 3.58482 83.8662 5.55361 83.0128 8.68921C82.7282 9.72448 83.0191 11.2506 83.2341 11.9686C82.7851 10.9932 82.5132 9.88619 82.5007 8.75507C82.5259 7.3968 82.8609 6.01425 83.5249 4.76956C85.39 1.46635 89.3669 -0.221043 93.1983 0.622546Z" fill="#1AAABC"/>
</svg>
