<svg width="72" height="72" viewBox="0 0 72 72" fill="none" xmlns="http://www.w3.org/2000/svg">
<path d="M60.6885 28.648L58.9954 28.6565L59.0038 26.7749C59.0038 26.5836 58.9279 26.398 58.7929 26.263C58.6579 26.128 58.4751 26.0521 58.2838 26.0521H58.281L56.3994 26.0633L56.4079 24.1789C56.4079 23.9877 56.3319 23.8021 56.1969 23.6671C56.0619 23.5321 55.8791 23.4561 55.6879 23.4561H55.6851L53.8007 23.4674L53.8091 21.583C53.8091 21.3918 53.7332 21.2061 53.5982 21.0711C53.4632 20.9361 53.2804 20.863 53.0863 20.8602L51.2019 20.8686L51.2104 18.9842C51.2104 18.7902 51.1344 18.6074 50.9994 18.4724C50.8644 18.3374 50.6816 18.2614 50.4904 18.2614H50.4875L48.606 18.2727L48.6144 16.3883C48.6144 16.1942 48.5385 16.0114 48.4035 15.8764C48.2685 15.7414 48.08 15.6627 47.8916 15.6655L46.0072 15.6739L46.0156 13.7895C46.0156 13.5983 45.9397 13.4127 45.8047 13.2777C45.6697 13.1427 45.4869 13.0667 45.2956 13.0667H45.2928L43.4056 13.0723L43.4113 11.3736C43.4928 11.1233 43.4366 10.8364 43.2369 10.6367C42.9556 10.3555 42.5 10.3555 42.2187 10.6367L23.2374 29.5986C22.8127 28.1558 21.879 26.9436 20.5824 26.1646C19.2127 25.3462 17.6068 25.1099 16.0599 25.498C12.8677 26.3024 10.9243 29.5537 11.7259 32.7456C12.114 34.2924 13.0843 35.5946 14.4512 36.4131C14.8872 36.6718 15.3456 36.8687 15.8209 37.0093L10.539 42.2912C10.2634 42.5724 10.2634 43.0252 10.5447 43.3036C10.7443 43.5033 11.034 43.5624 11.2815 43.478L12.9747 43.4696L12.9662 45.3512C12.9662 45.5424 13.0422 45.728 13.1772 45.863C13.3122 45.998 13.495 46.074 13.6862 46.074H13.689L15.5706 46.0627L15.5622 47.9471C15.5622 48.1412 15.6381 48.324 15.7731 48.459C15.9081 48.594 16.0881 48.6418 16.285 48.6699L18.1666 48.6615L18.1581 50.5459C18.1581 50.7371 18.2341 50.9227 18.3691 51.0577C18.5041 51.1927 18.6869 51.2687 18.8781 51.2687H18.8809L20.7653 51.2603V53.1502C20.7653 53.3443 20.8413 53.5271 20.9763 53.6621C21.1113 53.7971 21.2941 53.8731 21.4853 53.8731H21.4881L23.3725 53.8618L23.3641 55.7462C23.3641 55.9374 23.44 56.1231 23.575 56.2581C23.71 56.3931 23.8928 56.469 24.0841 56.469H24.0869L25.9713 56.4606L25.9628 58.3478C25.9628 58.539 26.0388 58.7246 26.1738 58.8596C26.3088 58.9946 26.4916 59.0706 26.6828 59.0706H26.6856L28.5728 59.065L28.57 60.775C28.4997 61.0168 28.5644 61.2868 28.7613 61.4809C28.8963 61.6187 29.0791 61.6862 29.2647 61.6862C29.4419 61.6862 29.6219 61.6215 29.7625 61.5006L29.7794 61.4837C29.785 61.4781 29.7878 61.4753 29.7935 61.4697L61.4231 29.8401C61.7043 29.5588 61.7043 29.1032 61.4231 28.8219C61.2262 28.6222 60.9393 28.566 60.689 28.6475L60.6885 28.648ZM13.1239 32.3971C12.5136 29.9755 13.9901 27.5061 16.4117 26.8958C16.783 26.803 17.1514 26.758 17.5171 26.758C19.5421 26.758 21.3955 28.1305 21.913 30.1836C22.5233 32.6052 21.0468 35.0746 18.6252 35.6849C16.198 36.2952 13.7343 34.8214 13.124 32.3971L13.1239 32.3971ZM30.0158 59.2113L30.0186 58.3451C30.0186 58.1538 29.9427 57.9682 29.8077 57.8332C29.6727 57.6982 29.4899 57.6223 29.2986 57.6223H29.2958L27.4086 57.6279L27.4171 55.7407C27.4171 55.5494 27.3411 55.3638 27.2061 55.2288C27.0711 55.0938 26.8883 55.0179 26.6971 55.0179H26.6943L24.8099 55.0263L24.8183 53.1419C24.8183 52.9479 24.7424 52.7651 24.6074 52.6301C24.4724 52.4951 24.2896 52.4191 24.0983 52.4191H24.0955L22.2111 52.4304L22.2196 50.546C22.2196 50.3547 22.1436 50.1691 22.0086 50.0341C21.8736 49.8991 21.6908 49.8232 21.4996 49.8232H21.4967L19.6124 49.8316L19.6208 47.9472C19.6208 47.7532 19.5449 47.5703 19.4099 47.4353C19.2749 47.3003 19.092 47.2244 18.9008 47.2244H18.898L17.0164 47.2328L17.0248 45.3485C17.0248 45.1544 16.9489 44.9716 16.8139 44.8366C16.6789 44.7016 16.4961 44.6256 16.3048 44.6256H16.302L14.4205 44.6369L14.4289 42.7525C14.4289 42.5613 14.353 42.3756 14.218 42.2406C14.083 42.1056 13.9001 42.0297 13.7089 42.0297H13.7033L12.8455 42.0353L17.6183 37.2625C18.0711 37.2541 18.5295 37.2006 18.9795 37.0853C20.5264 36.6972 21.8285 35.7269 22.647 34.36C23.1927 33.4459 23.4739 32.4278 23.488 31.3928L41.9603 12.9205L41.9575 13.7867C41.9575 13.978 42.0334 14.1636 42.1684 14.2986C42.3034 14.4336 42.4863 14.5095 42.6775 14.5095H42.6803L44.5675 14.5039L44.5591 16.3911C44.5591 16.5823 44.635 16.768 44.77 16.903C44.905 17.038 45.0878 17.1139 45.2791 17.1139H45.2819L47.1663 17.1055L47.1578 18.9899C47.1578 19.1839 47.2338 19.3667 47.3688 19.5017C47.5038 19.6367 47.6866 19.7127 47.8778 19.7127H47.8806L49.7622 19.7014L49.7538 21.5858C49.7538 21.7799 49.8297 21.9627 49.9647 22.0977C50.0997 22.2327 50.2882 22.303 50.4766 22.3086L52.361 22.3002L52.3525 24.1846C52.3525 24.3758 52.4285 24.5614 52.5635 24.6964C52.6985 24.8314 52.8813 24.9074 53.0725 24.9074H53.0754L54.9597 24.8961L54.9513 26.7805C54.9513 26.9718 55.0272 27.1574 55.1622 27.2924C55.2972 27.4274 55.4801 27.5033 55.6713 27.5033H55.6741L57.5557 27.4921L57.5473 29.3765C57.5473 29.5677 57.6232 29.7533 57.7582 29.8883C57.8932 30.0233 58.0873 30.0852 58.2729 30.0993L59.1307 30.0936L30.0158 59.2113Z" fill="white"/>
<path d="M25.7369 45.2334C25.4557 44.9521 25.0001 44.9521 24.7188 45.2334C24.4375 45.5146 24.4375 45.9702 24.7188 46.2515L30.8134 52.3462C30.9541 52.4868 31.1369 52.5572 31.3225 52.5572C31.5081 52.5572 31.6909 52.4868 31.8316 52.3462C32.1128 52.065 32.1128 51.6094 31.8316 51.3281L25.7369 45.2334Z" fill="white"/>
<path d="M20.8834 40.3823C20.6021 40.1011 20.1465 40.1011 19.8652 40.3823C19.584 40.6636 19.584 41.1192 19.8652 41.4005L21.9043 43.4395C22.0449 43.5801 22.2277 43.6505 22.4133 43.6505C22.599 43.6505 22.7818 43.5801 22.9224 43.4395C23.2036 43.1583 23.2036 42.7027 22.9224 42.4214L20.8834 40.3823Z" fill="white"/>
<path d="M29.8365 41.1387C29.5553 40.8574 29.0997 40.8574 28.8184 41.1387C28.5371 41.4199 28.5371 41.8755 28.8184 42.1568L34.913 48.2515C35.0536 48.3921 35.2365 48.4624 35.4221 48.4624C35.6077 48.4624 35.7905 48.3921 35.9311 48.2515C36.2124 47.9702 36.2124 47.5146 35.9311 47.2333L29.8365 41.1387Z" fill="white"/>
<path d="M26.513 39.5528C26.6986 39.5528 26.8814 39.4825 27.0221 39.3419C27.3033 39.0606 27.3033 38.605 27.0221 38.3237L24.983 36.2847C24.7018 36.0034 24.2462 36.0034 23.9649 36.2847C23.6836 36.5659 23.6836 37.0215 23.9649 37.3028L26.0039 39.3419C26.1445 39.4825 26.3273 39.5528 26.513 39.5528H26.513Z" fill="white"/>
<path d="M33.9303 37.0405C33.649 36.7593 33.1934 36.7593 32.9121 37.0405C32.6309 37.3218 32.6309 37.7774 32.9121 38.0587L39.0068 44.1533C39.1474 44.294 39.3302 44.3643 39.5158 44.3643C39.7015 44.3643 39.8843 44.294 40.0249 44.1533C40.3061 43.8721 40.3061 43.4165 40.0249 43.1352L33.9303 37.0405Z" fill="white"/>
<path d="M30.0996 35.2437C30.2403 35.3843 30.4231 35.4547 30.6087 35.4547C30.7943 35.4547 30.9771 35.3843 31.1178 35.2437C31.399 34.9625 31.399 34.5069 31.1178 34.2256L29.0787 32.1865C28.7975 31.9053 28.3419 31.9053 28.0606 32.1865C27.7793 32.4678 27.7793 32.9234 28.0606 33.2047L30.0996 35.2437Z" fill="white"/>
<path d="M38.0289 32.9429C37.7477 32.6616 37.2921 32.6616 37.0108 32.9429C36.7295 33.2241 36.7295 33.6797 37.0108 33.961L43.1054 40.0557C43.246 40.1963 43.4288 40.2666 43.6145 40.2666C43.8001 40.2666 43.9829 40.1963 44.1235 40.0557C44.4048 39.7744 44.4048 39.3188 44.1235 39.0375L38.0289 32.9429Z" fill="white"/>
<path d="M34.1953 31.149C34.336 31.2896 34.5188 31.3599 34.7044 31.3599C34.89 31.3599 35.0728 31.2896 35.2135 31.149C35.4947 30.8677 35.4947 30.4121 35.2135 30.1308L33.1744 28.0918C32.8932 27.8105 32.4376 27.8105 32.1563 28.0918C31.875 28.373 31.875 28.8286 32.1563 29.1099L34.1953 31.149Z" fill="white"/>
<path d="M42.1266 28.8477C41.8453 28.5664 41.3897 28.5664 41.1084 28.8477C40.8271 29.1289 40.8272 29.5845 41.1084 29.8658L47.2031 35.9605C47.3437 36.1011 47.5265 36.1714 47.7121 36.1714C47.8978 36.1714 48.0806 36.1011 48.2212 35.9605C48.5024 35.6792 48.5024 35.2236 48.2212 34.9423L42.1266 28.8477Z" fill="white"/>
<path d="M38.2939 27.0508C38.4346 27.1915 38.6174 27.2618 38.803 27.2618C38.9886 27.2618 39.1714 27.1915 39.3121 27.0508C39.5933 26.7696 39.5933 26.314 39.3121 26.0327L37.273 23.9936C36.9918 23.7124 36.5362 23.7124 36.2549 23.9936C35.9736 24.2749 35.9736 24.7305 36.2549 25.0118L38.2939 27.0508Z" fill="white"/>
<path d="M46.2223 24.75C45.941 24.4688 45.4854 24.4688 45.2041 24.75C44.9228 25.0312 44.9229 25.4868 45.2041 25.7681L51.2988 31.8628C51.4394 32.0034 51.6222 32.0737 51.8078 32.0737C51.9935 32.0737 52.1763 32.0034 52.3169 31.8628C52.5981 31.5816 52.5981 31.126 52.3169 30.8447L46.2223 24.75Z" fill="white"/>
<path d="M42.3897 22.9556C42.5303 23.0963 42.7131 23.1666 42.8987 23.1666C43.0844 23.1666 43.2672 23.0963 43.4078 22.9556C43.689 22.6744 43.689 22.2188 43.4078 21.9375L41.3688 19.8984C41.0875 19.6172 40.6319 19.6172 40.3506 19.8984C40.0693 20.1797 40.0694 20.6353 40.3506 20.9166L42.3897 22.9556Z" fill="white"/>
<path d="M14.4075 22.835C15.2935 23.3665 16.2863 23.6365 17.2931 23.6365C17.7544 23.6365 18.2213 23.5803 18.6797 23.465C20.1113 23.105 21.3179 22.2162 22.0941 20.9674C22.9463 21.4512 23.8969 21.7156 24.8673 21.7156C25.3285 21.7156 25.7926 21.6593 26.251 21.544C27.7135 21.1756 28.9426 20.2616 29.7188 18.9678C30.4923 17.674 30.7144 16.1553 30.346 14.6928C29.9776 13.2303 29.0635 12.0012 27.7698 11.2278C26.476 10.4544 24.9601 10.2294 23.4948 10.6006C22.0688 10.9578 20.8538 11.8578 20.0832 13.0925C18.8654 12.4006 17.3888 12.1531 15.9235 12.5243C12.9057 13.2837 11.0692 16.3578 11.8285 19.3756C12.197 20.8296 13.1139 22.0615 14.4076 22.835L14.4075 22.835ZM23.846 11.9925C24.9316 11.7169 26.0622 11.8856 27.0298 12.4594C27.9944 13.0359 28.6751 13.9528 28.9479 15.0412C29.2235 16.1296 29.0548 17.2602 28.4811 18.225C27.9045 19.1896 26.9876 19.8703 25.8992 20.1431C24.7995 20.4216 23.652 20.2387 22.6902 19.6537C22.9939 18.675 23.0305 17.6316 22.7745 16.6106C22.5102 15.5644 21.9645 14.6616 21.2417 13.9584C21.8099 12.9824 22.7436 12.2681 23.8461 11.9924L23.846 11.9925ZM13.6926 15.8343C14.2691 14.8697 15.186 14.189 16.2744 13.9162C16.6175 13.829 16.9607 13.7896 17.301 13.7896C19.1798 13.7896 20.8982 15.0637 21.3763 16.9678C21.652 18.0562 21.4832 19.1868 20.9095 20.1515C20.3329 21.1162 19.416 21.7969 18.3276 22.0697C17.2392 22.3425 16.1086 22.1766 15.1438 21.6028C14.1792 21.0262 13.4985 20.1094 13.2257 19.021C12.9501 17.9269 13.1188 16.7963 13.6926 15.8344V15.8343Z" fill="white"/>
<path d="M58.3683 44.1591C57.142 43.2929 55.6514 42.9525 54.1692 43.2057C52.687 43.4588 51.3933 44.2716 50.5242 45.5007C49.7002 46.6623 49.3598 48.0629 49.5427 49.4663C49.4105 49.4804 49.2755 49.4916 49.1433 49.5141C47.6611 49.7672 46.3673 50.5801 45.4983 51.8091C44.6292 53.0353 44.2917 54.526 44.5449 56.0081C45.0117 58.7475 47.3995 60.6881 50.0883 60.6881C50.4033 60.6881 50.7183 60.6628 51.0361 60.6066C54.0145 60.0975 56.0423 57.3216 55.6627 54.3488C55.7948 54.3347 55.927 54.3207 56.062 54.2982C57.5442 54.045 58.838 53.2322 59.707 52.0032C60.5761 50.7769 60.9136 49.2863 60.6605 47.8041C60.4073 46.3219 59.5945 45.0281 58.3683 44.1591V44.1591ZM50.7968 59.1833C48.5214 59.5687 46.353 58.0358 45.9649 55.7605C45.7765 54.6581 46.0296 53.5499 46.6737 52.6359C47.3205 51.7218 48.2824 51.1171 49.3849 50.9287C49.5593 50.9006 49.7336 50.8837 49.9108 50.8781C50.3102 51.8596 50.9768 52.7118 51.8627 53.339C52.5742 53.8425 53.3786 54.1687 54.2167 54.3037C54.2195 54.3205 54.2111 54.3346 54.2139 54.3515C54.6048 56.6268 53.0721 58.7953 50.7967 59.1833L50.7968 59.1833ZM58.531 51.1705C57.8841 52.0845 56.9222 52.6892 55.8198 52.8777C54.7201 53.0661 53.6091 52.813 52.6951 52.1689C51.7811 51.522 51.1763 50.5601 50.9879 49.4577C50.7995 48.3552 51.0526 47.247 51.6967 46.333C52.3435 45.419 53.3054 44.8142 54.4079 44.6258C54.647 44.5836 54.886 44.5639 55.1223 44.5639C55.9801 44.5639 56.8182 44.8283 57.5326 45.3346C58.4467 45.9814 59.0514 46.9433 59.2398 48.0458C59.4282 49.1483 59.1779 50.2564 58.5311 51.1704L58.531 51.1705Z" fill="white"/>
</svg>
