<svg width="72" height="72" viewBox="0 0 72 72" fill="none" xmlns="http://www.w3.org/2000/svg">
<path d="M50.337 10.5159L53.5896 17.1043L53.799 17.5284L54.267 17.5965L61.5372 18.6542L56.2747 23.7827L55.9358 24.113L56.0158 24.5795L57.2586 31.8195L50.7554 28.4013L50.3367 28.1812L49.9179 28.4013L43.4147 31.8195L44.6575 24.5795L44.7376 24.113L44.3987 23.7827L39.1362 18.6543L46.4086 17.5965L46.8767 17.5284L47.0861 17.1041L50.337 10.5159Z" stroke="white" stroke-width="1.8"/>
<path d="M24.3093 32.6772C17.8562 32.6772 12.6045 27.4256 12.6045 20.9724C12.6045 14.5192 17.8561 9.26758 24.3093 9.26758C30.7625 9.26758 36.0141 14.5192 36.0141 20.9724C36.0141 27.4278 30.7625 32.6772 24.3093 32.6772ZM24.3093 11.2731C18.9613 11.2731 14.6078 15.6244 14.6078 20.9747C14.6078 26.3226 18.9591 30.6762 24.3093 30.6762C29.6573 30.6762 34.0108 26.3249 34.0108 20.9747C34.0108 15.6244 29.6595 11.2731 24.3093 11.2731Z" fill="white" stroke="white" stroke-width="0.25"/>
<path d="M12.6992 47.0549C12.6992 53.5058 17.9509 58.7575 24.404 58.7575C30.8572 58.7575 36.1067 53.5058 36.1089 47.0549H12.6992ZM12.6992 47.0549C12.6992 40.6018 17.9508 35.3501 24.404 35.3501M12.6992 47.0549L24.404 35.3501M24.404 35.3501C30.8572 35.3501 36.1088 40.6017 36.1089 47.0549L24.404 35.3501ZM34.1056 47.0549V47.0549C34.1033 41.7047 29.7521 37.3534 24.404 37.3534C19.0561 37.3534 14.7025 41.7047 14.7025 47.0549C14.7025 52.4029 19.0539 56.7542 24.404 56.7542C29.752 56.7542 34.1056 52.4029 34.1056 47.0549Z" fill="white" stroke="white" stroke-width="0.25"/>
<path d="M40.3842 47.0549C40.3842 41.7047 44.7355 37.3534 50.0857 37.3534C55.4358 37.3534 59.7871 41.7047 59.7849 47.0549H40.3842ZM40.3842 47.0549C40.3842 52.4029 44.7355 56.7542 50.0857 56.7542M40.3842 47.0549L50.0857 56.7542M50.0857 56.7542C55.4337 56.7542 59.7849 52.4029 59.7849 47.055L50.0857 56.7542ZM61.7882 47.0549V47.055C61.7904 53.5058 56.5388 58.7575 50.0857 58.7575C43.6325 58.7575 38.3809 53.5058 38.3809 47.0549C38.3809 40.6018 43.6325 35.3501 50.0857 35.3501C56.5388 35.3501 61.7882 40.6017 61.7882 47.0549Z" fill="white" stroke="white" stroke-width="0.25"/>
</svg>
