<svg width="72" height="72" viewBox="0 0 72 72" fill="none" xmlns="http://www.w3.org/2000/svg">
<path d="M14.9059 42.4767C14.6365 42.3969 14.4126 42.1848 14.3304 41.8947L14.3302 41.894C12.172 34.1165 14.37 25.7506 20.0605 20.0599C25.7509 14.3692 34.1171 12.1717 41.8917 14.3297L41.8919 14.3297C42.3405 14.4551 42.6049 14.9203 42.4793 15.3697C42.3539 15.8182 41.8889 16.0826 41.4395 15.9572C34.2547 13.9635 26.5164 15.9936 21.2552 21.2519C21.2552 21.252 21.2552 21.252 21.2552 21.252M14.9059 42.4767L15.8399 41.4726C13.8318 34.2388 15.8737 26.457 21.1668 21.1636L21.2552 21.252M14.9059 42.4767L14.8764 42.5117H15.1453C15.2206 42.5117 15.2972 42.5019 15.3743 42.4786M14.9059 42.4767C14.9827 42.4995 15.0633 42.5115 15.1453 42.5115C15.1453 42.5115 15.1453 42.5115 15.1454 42.5115V42.3868L15.2408 42.4672L15.241 42.4671L15.3302 42.3613C15.3332 42.3604 15.3363 42.3595 15.3393 42.3586M21.2552 21.252C15.994 26.5134 13.9643 34.2486 15.9604 41.4392M21.2552 21.252L15.9604 41.4392M15.3743 42.4786C15.822 42.3527 16.0857 41.8881 15.9604 41.4392M15.3743 42.4786C15.3748 42.4784 15.3753 42.4783 15.3757 42.4781L15.3393 42.3586M15.3743 42.4786C15.3739 42.4787 15.3734 42.4788 15.373 42.4789L15.3393 42.3586M15.9604 41.4392L15.3393 42.3586" fill="white" stroke="white" stroke-width="0.25"/>
<path d="M41.6723 9.66413C32.6602 7.24052 22.9914 9.81285 16.4011 16.4004C9.76178 23.0399 7.20048 32.8005 9.71969 41.8724C9.84501 42.3213 9.58128 42.7859 9.13364 42.9118M41.6723 9.66413L41.6718 9.6646L41.8734 9.71944C42.3206 9.84109 42.7895 9.58213 42.9126 9.13184M41.6723 9.66413C41.7393 9.68215 41.8062 9.70043 41.8731 9.719L41.8968 9.6337L41.9064 9.59897M41.6723 9.66413L41.9064 9.59897M9.13364 42.9118C9.05647 42.9351 8.97986 42.9449 8.90456 42.9449C8.53369 42.9449 8.19766 42.6969 8.09241 42.3252L8.09223 42.3246C5.41393 32.6686 8.13731 22.2773 15.2089 15.2085C22.2775 8.13971 32.6632 5.41357 42.325 8.09179L42.3252 8.09186C42.7738 8.21724 43.0382 8.68241 42.9126 9.13184M9.13364 42.9118C9.13318 42.9119 9.13272 42.912 9.13226 42.9122L9.09862 42.7918L9.13502 42.9114C9.13456 42.9115 9.1341 42.9116 9.13364 42.9118ZM42.9126 9.13184L42.7922 9.09821M42.9126 9.13184C42.9127 9.13157 42.9127 9.13131 42.9128 9.13104L42.7922 9.09821M42.7922 9.09821C42.7016 9.43108 42.3874 9.64254 42.0553 9.62322L41.9973 9.68448L41.997 9.68477L41.9064 9.59897M42.7922 9.09821L41.9064 9.59897" fill="white" stroke="white" stroke-width="0.25"/>
<path d="M30.6128 56.0542L30.6125 56.0538L30.5596 56.0394C30.1123 55.9177 29.6432 56.1769 29.5203 56.6274C29.395 57.0767 29.6594 57.5416 30.1078 57.667L30.108 57.667C32.0851 58.2157 34.0988 58.4816 36.0983 58.4816C41.964 58.4816 47.6972 56.1823 51.9425 51.9368C57.6332 46.2461 59.828 37.8802 57.6727 30.1027L57.6726 30.1025C57.5473 29.6539 57.0821 29.3895 56.6326 29.5151L56.6663 29.6354L56.6326 29.5151C56.1841 29.6404 55.9197 30.1056 56.0453 30.5551C58.0413 37.7456 56.0115 45.4806 50.7504 50.7421C45.4964 55.9933 37.7884 58.0256 30.6128 56.0542Z" fill="white" stroke="white" stroke-width="0.25"/>
<path d="M63.9226 29.7244L63.9223 29.7249C66.5761 39.3689 63.8499 49.7381 56.7939 56.7913L56.7055 56.7029L56.7938 56.7913C51.519 62.0631 44.3993 64.9193 37.1136 64.9193C34.6304 64.9193 32.1301 64.5888 29.675 63.9079L29.6747 63.9078C29.2262 63.7824 28.9618 63.3173 29.0874 62.8678L29.0874 62.8678C29.213 62.4185 29.6784 62.1583 30.1265 62.2802L30.1271 62.2804C39.2019 64.7941 48.9599 62.2327 55.5991 55.5962C55.5991 55.5962 55.5992 55.5962 55.5992 55.5962M63.9226 29.7244L62.401 30.0908C64.9294 39.2089 62.356 49.0131 55.6875 55.6846L55.5992 55.5962M63.9226 29.7244L63.9079 29.6718C63.7826 29.2233 63.3174 28.9588 62.868 29.0844C62.4195 29.2097 62.1551 29.6748 62.2805 30.1242L63.9226 29.7244ZM55.5992 55.5962C62.2356 48.9567 64.7969 39.1991 62.2806 30.1244L55.5992 55.5962Z" fill="white" stroke="white" stroke-width="0.25"/>
<path d="M35.9999 50.2596C35.9017 50.2595 35.8034 50.237 35.7135 50.2033L35.9999 50.2596ZM35.9999 50.2596V50.3846C35.8831 50.3845 35.7698 50.3579 35.6696 50.3204L35.6635 50.3181L35.6636 50.3179C22.9541 44.7809 22.099 33.595 22.3219 29.0487C22.3235 28.985 22.3258 28.9373 22.3275 28.9001C22.3291 28.8677 22.3302 28.8434 22.3303 28.8236C22.3303 28.8233 22.3303 28.823 22.3303 28.8227H22.4553C22.4524 28.6286 22.5284 28.4402 22.6634 28.3024C22.7984 28.1646 22.984 28.083 23.1753 28.083C28.3868 28.083 29.1462 24.1821 29.1743 24.0162L35.9999 50.2596ZM42.1173 23.2949L29.8831 23.2977L36.0004 50.3846C36.1151 50.3845 36.2304 50.3616 36.3367 50.3151C49.0477 44.7772 49.9011 33.5897 49.6784 29.0444L49.6784 29.0441C49.677 29.0169 49.6756 28.9925 49.6745 28.9707C49.6705 28.8979 49.6682 28.8541 49.6698 28.8316L49.6699 28.8316L49.67 28.8263C49.6766 28.5985 49.5908 28.3776 49.4328 28.213C49.274 28.0476 49.0557 27.9552 48.8251 27.9552C46.2767 27.9552 44.8195 26.9951 43.9937 26.0268C43.166 25.0563 42.9633 24.0661 42.949 23.9907C42.8762 23.5886 42.5266 23.2949 42.1173 23.2949ZM23.9906 29.6147C28.4282 29.2899 30.012 26.35 30.5106 24.9849H41.4885C41.9845 26.3504 43.5684 29.2897 48.0081 29.6147C48.1204 34.0433 46.994 43.6413 35.9994 48.6148C25.0053 43.6413 23.8786 34.0432 23.9906 29.6147Z" fill="white" stroke="white" stroke-width="0.25"/>
</svg>
