<svg xmlns="http://www.w3.org/2000/svg" width="72" height="72" fill="none" viewBox="0 0 72 72">
    <path fill="#1658B6" d="M11.07 8.136h38.31l10.655 10.721V63.93H11.07V8.136zm38.72 2.324v8.125h8.126l-8.125-8.125zM12.436 62.498H58.74V19.95H48.425V9.5h-35.99v52.997zm14.614-29.23c.341.272.683.614 1.093 1.16.206.548.342 1.095.342 1.708 0 1.024-.342 1.91-1.024 2.662-.683.753-1.913 1.094-3.62 1.094h-3.143v4.986h-1.638V32.585h4.644a11.2 11.2 0 0 1 1.844.136c.613.07 1.09.275 1.502.547zm-1.025 4.509c.478-.342.683-.889.617-1.572 0-.477-.14-.885-.411-1.296-.272-.41-.614-.616-1.025-.752-.272-.067-.75-.136-1.502-.136h-3.142v4.37h3.21c1.093 0 1.842-.203 2.253-.614zm13.387-4.167c.683.547 1.091 1.23 1.435 2.112.342.889.478 1.844.478 2.938 0 .888-.136 1.707-.342 2.46-.205.682-.477 1.298-.819 1.776-.341.48-.683.822-1.093 1.094-.342.272-.889.477-1.436.613-.544.136-1.227.206-1.98.206h-4.438V32.516h4.233c.956 0 1.708.07 2.185.205.683.137 1.3.478 1.777.889zm-.07 7.376c.206-.683.342-1.435.411-2.39 0-1.23-.202-2.254-.613-2.937-.478-.683-.958-1.16-1.571-1.366-.48-.203-1.163-.272-2.118-.272h-2.596l-.003 9.355h2.596c.819 0 1.435-.069 1.913-.205.48-.136.821-.342 1.093-.614.342-.41.683-.888.889-1.57zm5.053 3.822V32.516h8.334v1.504h-6.694v3.756h5.805v1.502h-5.805v5.53h-1.64z"/>
</svg>
