<svg width="32" height="33" viewBox="0 0 32 33" fill="none" xmlns="http://www.w3.org/2000/svg">
<mask id="mask0" mask-type="alpha" maskUnits="userSpaceOnUse" x="0" y="0" width="32" height="33">
<path fill-rule="evenodd" clip-rule="evenodd" d="M0 0.0600586H31.9968V32.7822H0V0.0600586Z" fill="white"/>
</mask>
<g mask="url(#mask0)">
<path fill-rule="evenodd" clip-rule="evenodd" d="M4.93047 0.0600586H27.0664C29.7893 0.0600586 31.9968 2.31788 31.9968 5.10302V27.744C31.9968 30.529 29.7893 32.7869 27.0664 32.7869H4.93047C2.20746 32.7869 0 30.529 0 27.744V5.10302C0 2.31788 2.20746 0.0600586 4.93047 0.0600586Z" fill="white"/>
</g>
<path fill-rule="evenodd" clip-rule="evenodd" d="M15.73 22.9697H17.0388C17.0388 22.9697 17.434 22.9252 17.6361 22.7028C17.8219 22.4983 17.816 22.1147 17.816 22.1147C17.816 22.1147 17.7904 20.3184 18.6053 20.0539C19.409 19.7932 20.4408 21.7899 21.5344 22.5578C22.3614 23.1387 22.9898 23.0115 22.9898 23.0115L25.9141 22.9697C25.9141 22.9697 27.4438 22.8732 26.7184 21.643C26.6591 21.5425 26.2959 20.733 24.5441 19.0699C22.7103 17.3291 22.9561 17.6107 25.1649 14.5997C26.51 12.7659 27.0477 11.6464 26.8797 11.167C26.7196 10.7102 25.7301 10.8309 25.7301 10.8309L22.4376 10.8517C22.4376 10.8517 22.1933 10.8177 22.0124 10.9284C21.8355 11.0367 21.7219 11.2897 21.7219 11.2897C21.7219 11.2897 21.2006 12.7086 20.5058 13.9156C19.0397 16.4619 18.4533 16.5967 18.2137 16.4383C17.6561 16.0697 17.7955 14.958 17.7955 14.168C17.7955 11.7002 18.1614 10.6713 17.0828 10.405C16.725 10.3167 16.4613 10.2582 15.546 10.2487C14.3711 10.2365 13.3769 10.2524 12.8139 10.5345C12.4393 10.7221 12.1503 11.1401 12.3264 11.1642C12.5441 11.1938 13.0368 11.3002 13.298 11.6638C13.6355 12.1335 13.6237 13.1878 13.6237 13.1878C13.6237 13.1878 13.8177 16.0927 13.171 16.4534C12.7272 16.7009 12.1183 16.1957 10.8112 13.8855C10.1416 12.7022 9.63584 11.394 9.63584 11.394C9.63584 11.394 9.53845 11.1496 9.3645 11.0187C9.15353 10.8602 8.85874 10.81 8.85874 10.81L5.72984 10.8309C5.72984 10.8309 5.26024 10.8443 5.08768 11.0532C4.93415 11.2392 5.07542 11.6233 5.07542 11.6233C5.07542 11.6233 7.52484 17.4849 10.2986 20.4389C12.8422 23.1475 15.73 22.9697 15.73 22.9697Z" fill="#04368B"/>
</svg>
