<svg xmlns="http://www.w3.org/2000/svg" width="40" height="40" fill="none" viewBox="0 0 40 40">
    <path fill="#000" d="M28.82 31.903H7.95c-.285 0-.575-.015-.856 0h-.035l.578.578V4.484c0-.378.016-.757 0-1.132v-.05l-.578.578H27.93c.284 0 .575.015.856 0h.034l-.578-.578V31.299c0 .378-.008.757 0 1.132v.05c0 .313.266.578.578.578a.587.587 0 0 0 .578-.578V4.484c0-.378.008-.757 0-1.132v-.05a.587.587 0 0 0-.578-.579H9.727c-.878 0-1.758-.023-2.638 0h-.034a.587.587 0 0 0-.578.579V31.299c0 .378-.008.757 0 1.132v.05c0 .313.265.578.578.578h19.093c.879 0 1.758.024 2.638 0h.034a.587.587 0 0 0 .578-.578.59.59 0 0 0-.578-.578z"/>
    <path fill="#000" d="M30.633 8.153h2.312l-.578-.578V35.51c0 .378-.016.757 0 1.137v.047l.578-.578H12.06c-.284 0-.57-.016-.856 0h-.034l.578.578v-2.425a.587.587 0 0 0-.578-.578.587.587 0 0 0-.578.578v2.425c0 .312.265.578.578.578h19.096c.878 0 1.766.023 2.644 0h.035a.587.587 0 0 0 .578-.578V8.759c0-.378.008-.757 0-1.137v-.047a.587.587 0 0 0-.578-.578H30.63a.587.587 0 0 0-.578.578.584.584 0 0 0 .58.578zM11.831 13.794h12.308a.587.587 0 0 0 .578-.579.587.587 0 0 0-.578-.578H11.83a.587.587 0 0 0-.578.579.588.588 0 0 0 .578.578zM11.831 17.086h9.245a.587.587 0 0 0 .578-.578.587.587 0 0 0-.578-.578h-9.245a.587.587 0 0 0-.578.578.588.588 0 0 0 .578.578zM11.714 20.031h6.183a.587.587 0 0 0 .578-.578.587.587 0 0 0-.579-.578h-6.182a.587.587 0 0 0-.578.578.588.588 0 0 0 .578.578zM11.945 23.153h3.063a.587.587 0 0 0 .578-.578.587.587 0 0 0-.579-.578h-3.062a.587.587 0 0 0-.578.578c0 .313.266.578.578.578zM11.738 10.347h12.417a.587.587 0 0 0 .578-.578.587.587 0 0 0-.578-.578H11.737a.587.587 0 0 0-.578.578c0 .317.266.578.579.578z"/>
</svg>
