<svg xmlns="http://www.w3.org/2000/svg" width="40" height="40" fill="none" viewBox="0 0 40 40">
    <path fill="#000" d="M19.945 2.012c-6.658 0-12.075 5.416-12.075 12.076 0 6.412 10.985 22.39 11.452 23.07l.623.898.619-.898c.469-.68 11.456-16.658 11.456-23.07 0-6.66-5.417-12.076-12.075-12.076zm0 1.51c5.825 0 10.566 4.74 10.566 10.565 0 5.12-8.214 17.776-10.566 21.292C17.594 31.861 9.38 19.206 9.38 14.087c0-5.824 4.737-10.565 10.565-10.565z"/>
    <path fill="#000" d="M19.998 6.672c-3.907 0-7.084 3.177-7.084 7.08A7.09 7.09 0 0 0 20 20.836c3.904 0 7.084-3.177 7.084-7.084-.002-3.905-3.181-7.08-7.084-7.08zm0 12.564a5.49 5.49 0 0 1-5.484-5.484c0-3.02 2.46-5.48 5.485-5.48a5.49 5.49 0 0 1 5.484 5.48 5.492 5.492 0 0 1-5.485 5.484z"/>
</svg>
