<svg xmlns="http://www.w3.org/2000/svg" width="40" height="40" fill="none" viewBox="0 0 40 40">
    <g fill="#000" clip-path="url(#a)">
        <path d="M14.66 35.21c-.927 0-1.682.755-1.682 1.684a1.684 1.684 0 0 0 3.369 0c0-.928-.757-1.685-1.686-1.685zm0 2.182a.5.5 0 0 1 0-1 .5.5 0 0 1 0 1zM12.75 3.678h3.825a.592.592 0 1 0 0-1.184H12.75a.592.592 0 1 0 0 1.184z"/>
        <path d="M34.697 12.6c-2.132-1.487-4.922-2.34-7.899-2.419v-8.29C26.798.847 25.95 0 24.908 0H4.418c-1.042 0-1.89.848-1.89 1.89v36.22c0 1.043.848 1.892 1.89 1.892h20.49c1.042 0 1.89-.849 1.89-1.891V27.185c2.978-.08 5.768-.932 7.899-2.42 2.306-1.609 3.576-3.77 3.576-6.084.002-2.312-1.269-4.472-3.576-6.08V12.6zm-16.728 0c-2.02 1.41-3.246 3.242-3.519 5.23 0 .003 0 .004-.002.007l-.025.204-.003.045-.014.169-.005.092-.006.122c-.003.072-.003.143-.003.215 0 1.861.855 3.678 2.413 5.141l.484 4.495.01.102c0 .003.003.006.003.01l.01.068a.59.59 0 0 0 .336.4c.022.01.046.017.067.025l.02.005a.593.593 0 0 0 .05.01c.009.002.015.004.023.004a.308.308 0 0 0 .053.004c.006 0 .01 0 .017.002h.01l.021-.002a.344.344 0 0 0 .09-.01l.05-.013.034-.01.051-.021.028-.013a.404.404 0 0 0 .07-.044l.004-.001 3.245-2.369c.153.049.306.094.461.136l.056.016c.149.04.299.08.449.117.023.006.048.01.072.017a14.754 14.754 0 0 0 .943.194c.02.003.04.008.058.01.147.026.296.05.444.07l.11.015c.142.019.285.038.43.053l.12.013a17.08 17.08 0 0 0 .906.065l.084.005v6.61H3.711V6.214h21.905v3.974c-2.883.12-5.576.965-7.647 2.41v.001zM4.419 1.183h20.489c.39 0 .708.317.708.708v3.142H3.71V1.89c0-.391.317-.708.708-.708zm20.489 37.634H4.418a.708.708 0 0 1-.707-.708V34.97h21.905v3.14c0 .39-.317.707-.708.707zm1.426-12.808c-.092 0-.182-.001-.274-.003-.02 0-.04 0-.06-.002-.086-.001-.17-.004-.255-.007l-.051-.002a14.87 14.87 0 0 1-.258-.012l-.05-.003a14.58 14.58 0 0 1-.308-.02l-.247-.023a11.566 11.566 0 0 1-.294-.031l-.07-.008-.22-.028c-.028-.003-.056-.008-.083-.01l-.201-.03a1.97 1.97 0 0 1-.099-.016l-.183-.031-.115-.02-.161-.032-.136-.027a5.372 5.372 0 0 1-.138-.03l-.156-.032a40.018 40.018 0 0 1-.29-.069l-.085-.022-.2-.051-.053-.016c-.077-.02-.153-.042-.23-.064l-.004-.001c-.185-.053-.368-.111-.547-.172a.591.591 0 0 0-.536.081l-2.666 1.944-.348-3.233-.061-.56v-.007a.12.12 0 0 1-.003-.024l-.005-.03-.006-.027-.006-.025-.011-.03c-.004-.006-.005-.014-.008-.022l-.016-.034-.008-.016c-.006-.013-.014-.025-.022-.038a.828.828 0 0 0-.034-.048l-.003-.005a.602.602 0 0 0-.075-.08c-1.431-1.28-2.19-2.806-2.19-4.413v-.002a6.732 6.732 0 0 1 .007-.225 3.835 3.835 0 0 1 .011-.178c.005-.048.008-.097.014-.145.002-.008.002-.018.003-.025l.02-.161.002-.008c.55-3.649 5.086-6.536 10.581-6.578l.024-.002.098-.001c5.933 0 10.758 3.286 10.758 7.326.006 4.041-4.82 7.328-10.751 7.328z"/>
        <path d="M31.381 15.624H21.284a.592.592 0 1 0 0 1.184h10.097a.592.592 0 1 0 0-1.184zM28.28 19.114h-6.997a.592.592 0 1 0 0 1.184h6.996a.592.592 0 1 0 0-1.184z"/>
    </g>
    <defs>
        <clipPath id="a">
            <path fill="#fff" d="M0 0h40v40H0z"/>
        </clipPath>
    </defs>
</svg>
