<svg xmlns="http://www.w3.org/2000/svg" width="40" height="40" fill="none" viewBox="0 0 40 40">
    <path fill="#000" d="M32.569 21.092a2.861 2.861 0 0 0 2.858-2.858v-2.467a2.861 2.861 0 0 0-2.858-2.858h-1.166C31.105 6.808 26.045 1.933 19.87 1.933c-6.177 0-11.236 4.875-11.536 10.978H7.43a2.861 2.861 0 0 0-2.858 2.858v2.467a2.861 2.861 0 0 0 2.858 2.858h.97a6.392 6.392 0 0 1-.054.387l-.008 11.516c-3.56 1.79-3.517 4.383-3.51 4.523a.568.568 0 0 0 .57.546h.015c.313-.01.561-.27.555-.583-.002-.14.022-3.464 6.642-4.633.794-.114 1.567-.21 2.322-.298A5.597 5.597 0 0 0 20 35.803a5.597 5.597 0 0 0 5.16-3.458c8.621.955 9.118 5.125 9.124 5.197a.57.57 0 0 0 .569.528l.037-.001a.572.572 0 0 0 .533-.608c-.011-.155-.245-2.76-3.96-4.612l.002-11.757h1.104zm1.714-5.324v2.468c0 .945-.769 1.714-1.714 1.714h-1.16l.008-5.895h1.154a1.714 1.714 0 0 1 1.712 1.714zm-26.852 4.18a1.716 1.716 0 0 1-1.714-1.714v-2.467c0-.946.769-1.714 1.714-1.714h1.224c-.025 1.94-.075 4.298-.167 5.895H7.43zm18.052 11.28l.002-.013c.043-3.951.014-4.116.003-4.178-.057-.31-.357-.537-.668-.48a.556.556 0 0 0-.464.646c.018.234 0 2.518-.015 3.944l-.014.053a.566.566 0 0 0-.325.457.554.554 0 0 0 .073.314A4.45 4.45 0 0 1 20 34.657a4.451 4.451 0 0 1-4.016-2.554.58.58 0 0 0 .035-.25.56.56 0 0 0-.286-.425c-.025-.093-.053-.185-.072-.28-.016-1.805-.034-4.7-.022-4.916l.058-.317-.242-.212a6.96 6.96 0 0 1-2.224-3.847c-.104-.406-.137-3.375-.112-6.175 4.853-1.014 8.228-4.1 9.968-6.094a6.87 6.87 0 0 1 3.788 5.666l.02.171-.142 6.56a.57.57 0 1 0 1.142.023l.147-6.784-.015-.583h-.07a8.005 8.005 0 0 0-4.798-6.278l-.39-.167-.274.326c-1.589 1.903-5.006 5.228-10.037 6.125l-.472.084-.006.477c-.011 1.019-.06 6.142.137 6.903a8.07 8.07 0 0 0 2.381 4.27c-.007.491-.009 1.712.02 4.835l.01.108c.008.04.022.081.03.122-.69.081-1.396.17-2.128.276a16.6 16.6 0 0 0-2.949.782l.002-10.876c.304-1.867.34-9.704.343-10.83 1.19-4.438 5.235-7.721 10.043-7.721 5.739 0 10.406 4.669 10.406 10.406v8.19a2.983 2.983 0 0 1-2.906 2.334h-4.622a2.502 2.502 0 0 0-2.455-2.046 2.503 2.503 0 0 0-2.5 2.5c0 1.379 1.122 2.5 2.5 2.5 1.137 0 2.09-.77 2.392-1.812h4.685a4.12 4.12 0 0 0 2.954-1.256v8.454c-1.272-.487-2.858-.885-4.84-1.118zm-3.834-6.768a1.359 1.359 0 0 1-2.716 0 1.359 1.359 0 0 1 2.716 0z"/>
</svg>
