<svg xmlns="http://www.w3.org/2000/svg" width="40" height="40" fill="none" viewBox="0 0 40 40">
    <path fill="#000" d="M36.076 16.503h-2.69a13.458 13.458 0 0 0-1.446-3.492l1.907-1.906c.362-.363.56-.844.56-1.358 0-.514-.2-.997-.56-1.358l-2.232-2.231a1.923 1.923 0 0 0-2.717 0l-1.906 1.906A13.478 13.478 0 0 0 23.5 6.62l-.003-2.695c0-1.061-.863-1.924-1.924-1.924h-3.147a1.925 1.925 0 0 0-1.923 1.924v2.69A13.457 13.457 0 0 0 13.01 8.06l-1.906-1.906a1.923 1.923 0 0 0-2.718 0L6.156 8.384c-.362.363-.56.844-.56 1.358 0 .514.2.997.56 1.358l1.906 1.906a13.478 13.478 0 0 0-1.445 3.492l-2.694.004c-1.06 0-1.923.862-1.923 1.923v3.147c0 1.06.862 1.923 1.923 1.923h2.69a13.456 13.456 0 0 0 1.446 3.493l-1.906 1.906c-.363.362-.561.844-.561 1.358 0 .514.2.997.56 1.357l2.232 2.232c.375.375.866.562 1.358.562a1.91 1.91 0 0 0 1.358-.562l1.906-1.907a13.48 13.48 0 0 0 3.492 1.446v2.69c0 1.061.863 1.924 1.924 1.924h3.146c1.061 0 1.924-.863 1.924-1.924v-2.69a13.46 13.46 0 0 0 3.492-1.446l1.906 1.907c.375.375.866.562 1.358.562a1.91 1.91 0 0 0 1.358-.562l2.231-2.232c.363-.362.561-.843.561-1.357s-.2-.997-.56-1.358l-1.907-1.906a13.476 13.476 0 0 0 1.445-3.493h2.691c1.06 0 1.923-.862 1.923-1.923v-3.147a1.91 1.91 0 0 0-1.914-1.922zm.724 5.07a.725.725 0 0 1-.724.724h-3.162c-.017 0-.033.003-.05.005a.75.75 0 0 0-.063.006.6.6 0 0 0-.07.02c-.014.005-.028.008-.04.013-.026.01-.049.023-.072.036l-.032.017a.473.473 0 0 0-.06.048l-.03.025-.049.055-.028.034c-.014.02-.025.043-.036.064l-.02.038a.707.707 0 0 0-.027.081c-.003.011-.008.02-.009.03a12.277 12.277 0 0 1-1.652 3.989.551.551 0 0 0-.045.09l-.006.012a.589.589 0 0 0-.042.212l-.002.013c0 .073.016.143.04.212l.005.013c.03.07.072.136.127.19l.003.003.005.005.003.003 2.233 2.233c.136.136.21.317.21.51a.716.716 0 0 1-.21.509l-2.232 2.23a.722.722 0 0 1-1.02 0l-2.233-2.232-.001-.002-.005-.004-.003-.003a.616.616 0 0 0-.19-.127l-.015-.005a.577.577 0 0 0-.21-.04l-.016.001a.614.614 0 0 0-.211.041c-.005.002-.008.005-.013.006a.53.53 0 0 0-.089.046 12.276 12.276 0 0 1-3.989 1.651l-.031.011c-.027.008-.055.016-.08.027-.015.006-.028.015-.043.023-.02.011-.041.02-.058.033-.016.01-.029.023-.043.036a.514.514 0 0 0-.045.039c-.012.012-.023.028-.034.042-.013.016-.027.031-.038.048-.01.015-.017.032-.025.047-.01.02-.02.036-.028.057-.008.018-.01.037-.017.056-.006.019-.012.036-.016.055-.004.023-.006.048-.008.071-.001.015-.004.029-.004.043v3.162a.725.725 0 0 1-.724.723H18.43a.725.725 0 0 1-.724-.723v-3.162c0-.014-.003-.028-.005-.043a.535.535 0 0 0-.007-.071c-.003-.02-.011-.038-.016-.055-.006-.019-.01-.038-.017-.056-.008-.02-.019-.038-.028-.057l-.025-.047c-.011-.017-.025-.03-.038-.048-.01-.014-.022-.03-.034-.042-.014-.014-.03-.027-.046-.04l-.042-.035c-.018-.013-.039-.022-.058-.033-.014-.008-.028-.017-.043-.023-.025-.011-.053-.02-.08-.027-.01-.003-.02-.008-.031-.01a12.277 12.277 0 0 1-3.99-1.652.544.544 0 0 0-.09-.046c-.003-.001-.006-.004-.01-.004a.604.604 0 0 0-.215-.043l-.01-.001a.592.592 0 0 0-.215.042l-.01.003a.6.6 0 0 0-.193.128l-.003.002-.003.003-.003.003-2.233 2.233a.723.723 0 0 1-1.02 0l-2.232-2.231a.712.712 0 0 1-.21-.51c0-.194.076-.375.21-.51l2.233-2.232.003-.003.005-.005c.001-.001.001-.003.003-.003a.589.589 0 0 0 .127-.19l.004-.013a.577.577 0 0 0 .04-.213v-.012a.592.592 0 0 0-.043-.212c-.001-.005-.005-.008-.006-.011a.547.547 0 0 0-.045-.091 12.278 12.278 0 0 1-1.652-3.99l-.011-.03c-.008-.027-.016-.055-.027-.08-.006-.016-.015-.028-.023-.042-.01-.02-.02-.04-.033-.058-.01-.016-.023-.028-.034-.042-.013-.016-.025-.031-.04-.047-.013-.013-.027-.022-.041-.033a.422.422 0 0 0-.05-.039c-.014-.01-.03-.016-.044-.023-.019-.011-.038-.022-.058-.03a.674.674 0 0 0-.052-.016l-.059-.017c-.022-.005-.045-.005-.067-.006-.016-.002-.031-.005-.047-.005L3.923 22.3a.725.725 0 0 1-.723-.724v-3.147c0-.398.325-.723.723-.723h3.163l.003-.002c.062 0 .12-.012.176-.03l.03-.009a.583.583 0 0 0 .15-.083c.01-.006.016-.014.025-.02a.552.552 0 0 0 .117-.131l.01-.017a.655.655 0 0 0 .072-.174l.003-.006c.315-1.43.872-2.772 1.651-3.99a.548.548 0 0 0 .046-.09.592.592 0 0 0 .048-.223l.002-.013a.619.619 0 0 0-.041-.212l-.005-.013a.598.598 0 0 0-.126-.19l-.003-.003-.005-.005-.003-.003-2.233-2.233a.715.715 0 0 1-.21-.51c0-.193.076-.374.21-.509l2.231-2.231a.722.722 0 0 1 1.02 0l2.24 2.24.007.004c.052.05.11.087.174.115.014.007.028.011.044.018.064.023.13.039.198.039h.002a.599.599 0 0 0 .254-.064c.022-.011.046-.018.067-.03a12.278 12.278 0 0 1 3.99-1.652l.03-.01c.027-.008.055-.016.08-.027.016-.006.029-.016.044-.024.02-.01.04-.02.058-.032.016-.011.028-.024.042-.036.016-.013.031-.025.045-.04.013-.012.024-.028.035-.042.012-.015.026-.03.037-.048.01-.014.018-.031.025-.047.01-.019.02-.036.028-.056.008-.019.012-.038.018-.056.006-.02.012-.036.015-.055.005-.024.007-.049.008-.072.002-.014.005-.028.005-.042l.003-3.167c0-.399.325-.724.723-.724h3.147c.399 0 .724.325.724.724v3.162c0 .014.003.028.004.042a.537.537 0 0 0 .008.072c.003.019.011.038.016.055.006.019.01.037.017.056.008.02.019.038.028.056l.025.047c.011.017.025.031.038.049.01.014.021.03.034.042.014.014.03.026.045.039a.86.86 0 0 0 .043.036c.018.012.039.022.057.033.014.007.029.017.044.023.025.011.053.019.08.027l.031.01c1.43.316 2.772.872 3.99 1.652.021.014.044.02.066.03.02.01.036.019.055.025.066.023.133.039.2.039h.002a.575.575 0 0 0 .198-.04c.014-.004.028-.01.044-.016a.602.602 0 0 0 .173-.116l.008-.005 2.24-2.239a.722.722 0 0 1 1.02 0l2.23 2.232c.137.135.21.315.21.509a.716.716 0 0 1-.21.51l-2.232 2.232-.003.003-.005.005-.003.003a.59.59 0 0 0-.172.416l.002.012a.589.589 0 0 0 .042.213c.001.004.005.007.006.01a.548.548 0 0 0 .045.091 12.276 12.276 0 0 1 1.652 3.99l.003.006c.014.062.04.12.072.173l.01.015c.032.05.073.094.118.132l.025.02a.567.567 0 0 0 .152.083l.03.01c.056.018.113.029.176.029l.003.002h3.162c.399 0 .724.324.724.723l.001 3.151H36.8z"/>
    <path fill="#000" d="M20 9.8C14.375 9.8 9.8 14.375 9.8 20c0 5.625 4.575 10.2 10.2 10.2 5.625 0 10.2-4.575 10.2-10.2 0-5.625-4.575-10.2-10.2-10.2zM20 29c-4.962 0-9-4.038-9-9s4.038-9 9-9 9 4.038 9 9-4.038 9-9 9z"/>
    <path fill="#000" d="M20 19.26c1.8 0 3.264-1.465 3.264-3.265S21.8 12.731 20 12.731a3.268 3.268 0 0 0-3.264 3.264c0 1.8 1.464 3.264 3.264 3.264zm0-5.329a2.065 2.065 0 1 1-2.064 2.064c0-1.139.925-2.064 2.064-2.064zM20 19.94a4.606 4.606 0 0 0-4.6 4.6v.148a2.183 2.183 0 0 0 2.025 2.18h5.151c.02 0 .041 0 .061-.002a2.18 2.18 0 0 0 1.965-2.178v-.147A4.608 4.608 0 0 0 20 19.94zm3.4 4.75c0 .5-.367.916-.86.98l-5.08-.001a.986.986 0 0 1-.86-.981v-.147c0-1.875 1.525-3.4 3.4-3.4s3.4 1.525 3.4 3.4v.148z"/>
</svg>
