<svg xmlns="http://www.w3.org/2000/svg" xmlns:xlink="http://www.w3.org/1999/xlink" width="78" height="77" viewBox="0 0 78 77">
  <metadata><?xpacket begin="﻿" id="W5M0MpCehiHzreSzNTczkc9d"?>
<x:xmpmeta xmlns:x="adobe:ns:meta/" x:xmptk="Adobe XMP Core 5.6-c138 79.159824, 2016/09/14-01:09:01        ">
   <rdf:RDF xmlns:rdf="http://www.w3.org/1999/02/22-rdf-syntax-ns#">
      <rdf:Description rdf:about=""/>
   </rdf:RDF>
</x:xmpmeta>
                                                                                                    
                                                                                                    
                                                                                                    
                                                                                                    
                                                                                                    
                                                                                                    
                                                                                                    
                                                                                                    
                                                                                                    
                                                                                                    
                                                                                                    
                                                                                                    
                                                                                                    
                                                                                                    
                                                                                                    
                                                                                                    
                                                                                                    
                                                                                                    
                                                                                                    
                                                                                                    
                           
<?xpacket end="w"?></metadata>
<defs>
    <style>
      .cls-1 {
        fill: #929292;
        fill-rule: evenodd;
        filter: url(#filter);
      }
    </style>
    <filter id="filter" x="4928" y="218" width="78" height="77" filterUnits="userSpaceOnUse">
      <feFlood result="flood" flood-color="#727272"/>
      <feComposite result="composite" operator="in" in2="SourceGraphic"/>
      <feBlend result="blend" in2="SourceGraphic"/>
    </filter>
  </defs>
  <path id="Фигура_1" data-name="Фигура 1" class="cls-1" d="M4994.27,251.333a3.826,3.826,0,0,0-7.22.014h-7.9v-5.13h5.11a1.279,1.279,0,0,0,1.28-1.282h0v-5.366a3.837,3.837,0,1,0-2.56,0v4.084h-3.83v-2.565a1.28,1.28,0,0,0-1.28-1.283h-2.56v-6.649a3.823,3.823,0,1,0-2.56,0V239.8h-5.11V219.329a1.28,1.28,0,0,0-1.28-1.283h0c-15.77,0-28.13,11.455-28.13,26.078,0,6.946,2.75,16.143,7.17,24,0.8,1.41,1.84,2.893,2.93,4.463,2.32,3.319,4.91,7.051,5.19,10.3a3.666,3.666,0,0,0-1.54,3.044,3.823,3.823,0,0,0,.85,2.381,3.981,3.981,0,0,0-1.18,2.839,3.853,3.853,0,0,0,3.84,3.848h21.74a3.873,3.873,0,0,0,3.84-3.9V291.06a3.881,3.881,0,0,0-1.18-2.763,3.979,3.979,0,0,0,.85-2.457,3.678,3.678,0,0,0-3.68-3.671l-0.16,0h-9.26V257.76h2.56v3.847a1.277,1.277,0,0,0,1.27,1.282h3.84v1.519a3.837,3.837,0,1,0,2.56,0v-2.8a1.28,1.28,0,0,0-1.28-1.283h-3.84V257.76h5.12a1.286,1.286,0,0,0,1.28-1.282h0v-2.565h7.9a3.833,3.833,0,1,0,7.22-2.579h0Zm-10.01-16.659a1.283,1.283,0,1,1-1.28,1.283,1.279,1.279,0,0,1,1.28-1.283h0Zm-33.83,36.44c-1.06-1.518-2.07-2.95-2.8-4.253-4.16-7.381-6.84-16.306-6.84-22.737,0-12.79,10.57-22.893,24.29-23.485v8.96c-0.34.025-.68,0.056-1.05,0.1a1.272,1.272,0,0,0-1.1,1.008l-0.39,1.858q-0.48.115-.96,0.26l-1.28-1.426a1.269,1.269,0,0,0-1.45-.324,19.207,19.207,0,0,0-4.02,2.356,1.283,1.283,0,0,0-.45,1.424l0.59,1.794c-0.24.228-.48,0.464-0.71,0.706l-1.78-.589a1.285,1.285,0,0,0-1.42.446,18.726,18.726,0,0,0-2.35,4.037,1.273,1.273,0,0,0,.32,1.458l1.42,1.277c-0.09.317-.18,0.635-0.25,0.953l-1.99.4a1.28,1.28,0,0,0-1.03,1.257v4.373a1.281,1.281,0,0,0,1.03,1.258l1.99,0.4c0.07,0.318.16,0.636,0.25,0.953l-1.42,1.278a1.273,1.273,0,0,0-.32,1.458,18.726,18.726,0,0,0,2.35,4.037,1.281,1.281,0,0,0,1.42.445l1.78-.588c0.23,0.242.47,0.478,0.71,0.706l-0.59,1.791a1.283,1.283,0,0,0,.45,1.424,19.219,19.219,0,0,0,4.02,2.359,1.272,1.272,0,0,0,1.45-.325l1.28-1.425q0.48,0.144.96,0.259l0.39,1.858a1.273,1.273,0,0,0,1.1,1.009c0.37,0.046.71,0.077,1.05,0.1v14.208h-9.06c-0.52-3.78-3.19-7.625-5.59-11.059h0Zm4.42-22.332a11.546,11.546,0,0,0,10.23,11.467v4.41l-0.21-1.009a1.283,1.283,0,0,0-1.02-1,13.69,13.69,0,0,1-2.23-.6,1.312,1.312,0,0,0-.44-0.075,1.272,1.272,0,0,0-.95.427l-1.2,1.345a15.742,15.742,0,0,1-1.92-1.134l0.55-1.694a1.287,1.287,0,0,0-.39-1.38,13.3,13.3,0,0,1-1.63-1.641,1.291,1.291,0,0,0-1.38-.388l-1.69.557a16.151,16.151,0,0,1-1.13-1.931l1.34-1.206a1.274,1.274,0,0,0,.35-1.389,14.385,14.385,0,0,1-.6-2.234,1.272,1.272,0,0,0-1.01-1.03l-1.78-.359v-2.269l1.78-.358a1.272,1.272,0,0,0,1.01-1.03,14.367,14.367,0,0,1,.6-2.235,1.274,1.274,0,0,0-.35-1.389l-1.34-1.2a16.242,16.242,0,0,1,1.13-1.932l1.69,0.558a1.291,1.291,0,0,0,1.38-.388,14.147,14.147,0,0,1,1.63-1.645,1.282,1.282,0,0,0,.39-1.377l-0.55-1.694a15.735,15.735,0,0,1,1.92-1.133l1.2,1.345a1.29,1.29,0,0,0,1.39.352,13.752,13.752,0,0,1,2.22-.6,1.28,1.28,0,0,0,1.03-1l0.21-1.01v4.41a11.545,11.545,0,0,0-10.23,11.467h0Zm10.23-8.876v17.751a8.97,8.97,0,0,1,0-17.751h0Zm13.43,51.244a1.287,1.287,0,0,1-1.28,1.283h-21.74a1.305,1.305,0,0,1-1.28-1.328V291.06a1.287,1.287,0,0,1,1.28-1.283h21.74a1.306,1.306,0,0,1,1.28,1.328v0.045h0Zm-1.61-6.412a1.174,1.174,0,0,1,1.28,1.062v0.13a1.281,1.281,0,0,1-1.28,1.283h-21.08a1.306,1.306,0,0,1-1.28-1.329V285.84a1.159,1.159,0,0,1,1.2-1.108c0.03,0,.05,0,0.08.006h21.08Zm-0.31-18a1.283,1.283,0,1,1-1.28,1.283,1.279,1.279,0,0,1,1.28-1.283h0Zm-2.56-38.476a1.283,1.283,0,1,1-1.28,1.283,1.279,1.279,0,0,1,1.28-1.283h0Zm2.56,26.933h-8.95V242.369h8.95v12.825h0Zm14.07-1.282a1.283,1.283,0,1,1,1.27-1.283A1.279,1.279,0,0,1,4990.66,253.912Zm-11.97,22.76a21.094,21.094,0,0,0-1.19,2.5l2.37,0.944a19.909,19.909,0,0,1,1.06-2.209Zm2.88-4.518c-0.5.724-1.01,1.46-1.49,2.2l2.15,1.393q0.7-1.078,1.44-2.132Zm2.91-4.267c-0.43.686-.91,1.4-1.42,2.125l2.1,1.463c0.53-.761,1.03-1.5,1.48-2.223Zm2.4-4.47c-0.37.769-.75,1.529-1.15,2.281l2.25,1.21q0.63-1.179,1.2-2.387Zm1.99-4.707c-0.29.793-.61,1.587-0.94,2.375l2.35,1q0.525-1.234.99-2.477Zm5.62-14.842-2.56.02v0.236c0,0.715-.03,1.475-0.1,2.257l2.55,0.215c0.08-.853.11-1.684,0.11-2.472v-0.256Zm-0.65-5.459-2.49.583a20.087,20.087,0,0,1,.42,2.431l2.54-.3A22.7,22.7,0,0,0,4993.84,238.409Zm-1.84-5.183-2.3,1.122a23.328,23.328,0,0,1,.96,2.277l2.4-.859A23.467,23.467,0,0,0,4992,233.226Zm-2.92-4.644-2.01,1.6a23.531,23.531,0,0,1,1.43,2.016l2.16-1.37C4990.17,230.049,4989.64,229.3,4989.08,228.582Zm-3.84-3.914-1.63,1.976a23.829,23.829,0,0,1,1.83,1.677l1.82-1.8A25.557,25.557,0,0,0,4985.24,224.668Zm-4.52-3.057-1.22,2.257c0.73,0.4,1.45.829,2.13,1.287l1.42-2.129C4982.31,222.522,4981.52,222.047,4980.72,221.611Zm-5.01-2.128-0.78,2.445c0.8,0.253,1.58.543,2.33,0.863l1-2.36C4977.44,220.079,4976.58,219.761,4975.71,219.483Zm-5.31-1.178-0.33,2.545q1.245,0.16,2.46.43l0.55-2.5C4972.2,218.581,4971.3,218.423,4970.4,218.305Zm-39.84,71.517h2.55v-2.564h-2.55v2.564Zm0,5.131h2.55v-2.565h-2.55v2.565Zm2.55-2.565h2.56v-2.566h-2.56v2.566Zm-5.11,0h2.56v-2.566H4928v2.566Zm72.88-71.822h2.56V218h-2.56v2.565Zm0,5.13h2.56v-2.565h-2.56V225.7Zm2.56-2.565H5006v-2.565h-2.56v2.565Zm-5.11,0h2.55v-2.565h-2.55v2.565Z" transform="translate(-4928 -218)"/>
</svg>
