<svg xmlns="http://www.w3.org/2000/svg" xmlns:xlink="http://www.w3.org/1999/xlink" width="79" height="72" viewBox="0 0 79 72">
  <metadata><?xpacket begin="﻿" id="W5M0MpCehiHzreSzNTczkc9d"?>
<x:xmpmeta xmlns:x="adobe:ns:meta/" x:xmptk="Adobe XMP Core 5.6-c138 79.159824, 2016/09/14-01:09:01        ">
   <rdf:RDF xmlns:rdf="http://www.w3.org/1999/02/22-rdf-syntax-ns#">
      <rdf:Description rdf:about=""/>
   </rdf:RDF>
</x:xmpmeta>
                                                                                                    
                                                                                                    
                                                                                                    
                                                                                                    
                                                                                                    
                                                                                                    
                                                                                                    
                                                                                                    
                                                                                                    
                                                                                                    
                                                                                                    
                                                                                                    
                                                                                                    
                                                                                                    
                                                                                                    
                                                                                                    
                                                                                                    
                                                                                                    
                                                                                                    
                                                                                                    
                           
<?xpacket end="w"?></metadata>
<defs>
    <style>
      .cls-1 {
        fill: #7e7e7e;
        fill-rule: evenodd;
        filter: url(#filter);
      }
    </style>
    <filter id="filter" x="5264" y="484" width="79" height="72" filterUnits="userSpaceOnUse">
      <feFlood result="flood" flood-color="#727272"/>
      <feComposite result="composite" operator="in" in2="SourceGraphic"/>
      <feBlend result="blend" in2="SourceGraphic"/>
    </filter>
  </defs>
  <path id="Фигура_7" data-name="Фигура 7" class="cls-1" d="M5269.26,484h60.57a5.3,5.3,0,0,1,5.27,5.333V532h6.58a1.318,1.318,0,0,1,1.31,1.333,5.294,5.294,0,0,1-5.26,5.333h-38.18v16a1.325,1.325,0,0,1-1.32,1.333,1.31,1.31,0,0,1-.93-0.39l-6.97-7.057-6.97,7.057a1.31,1.31,0,0,1-.93.39,1.277,1.277,0,0,1-.5-0.1,1.329,1.329,0,0,1-.82-1.232v-16h-3.95a5.294,5.294,0,0,1-5.26-5.333V490.666h-6.59a1.324,1.324,0,0,1-1.31-1.333,5.3,5.3,0,0,1,5.26-5.333h0Zm5.27,5.333V532h5.27v2.666h-4.92a2.627,2.627,0,0,0,2.28,1.333h3.95v-1.333h2.64v16.78l5.65-5.724a1.3,1.3,0,0,1,1.86,0l5.65,5.724v-16.78h2.64V536h38.18a2.627,2.627,0,0,0,2.28-1.333h-39.15V532h31.6V489.333a2.65,2.65,0,0,0-2.63-2.666H5273.8a5.412,5.412,0,0,1,.73,2.666h0ZM5271.54,488a2.617,2.617,0,0,0-3.6-.972,2.7,2.7,0,0,0-.96.972h4.56Zm6.38,37.723,1.68-3.06-1.69-3.057a1.342,1.342,0,0,1,.5-1.816c0.03-.018.07-0.035,0.1-0.05l3.14-1.458,0.41-3.479a1.316,1.316,0,0,1,1.46-1.167c0.03,0,.07.009,0.1,0.016l3.4,0.682,2.34-2.575a1.346,1.346,0,0,1,1.92-.015c0.01,0,.01.01,0.02,0.015l2.34,2.575,3.4-.682a1.312,1.312,0,0,1,1.54,1.049,0.369,0.369,0,0,1,.02.1l0.41,3.479,3.14,1.46a1.344,1.344,0,0,1,.65,1.767c-0.02.034-.03,0.067-0.05,0.1l-1.69,3.054,1.69,3.057a1.351,1.351,0,0,1-.5,1.816c-0.03.018-.07,0.035-0.1,0.051l-3.14,1.46-0.41,3.482a1.317,1.317,0,0,1-1.46,1.167c-0.04,0-.07-0.01-0.1-0.016l-3.4-.682-2.34,2.575a1.305,1.305,0,0,1-1.86.073c-0.03-.024-0.05-0.048-0.08-0.073L5287.02,533l-3.4.682a1.29,1.29,0,0,1-1.03-.23,1.388,1.388,0,0,1-.53-0.921l-0.4-3.48-3.14-1.46a1.335,1.335,0,0,1-.65-1.767,0.419,0.419,0,0,1,.05-0.1h0Zm4.34-2.409-1.35,2.448,2.51,1.169a1.321,1.321,0,0,1,.76,1.056l0.33,2.79,2.72-.545a1.283,1.283,0,0,1,1.22.4l1.88,2.064,1.88-2.062a1.315,1.315,0,0,1,.97-0.427,1.118,1.118,0,0,1,.25.026l2.72,0.545,0.33-2.79a1.33,1.33,0,0,1,.75-1.056l2.52-1.169-1.35-2.448a1.318,1.318,0,0,1,0-1.3v0.006l1.35-2.448-2.52-1.17a1.329,1.329,0,0,1-.75-1.055l-0.33-2.791-2.72.546a1.29,1.29,0,0,1-1.22-.4l-1.88-2.068-1.88,2.061a1.286,1.286,0,0,1-1.22.4l-2.72-.545-0.33,2.79a1.321,1.321,0,0,1-.76,1.056l-2.51,1.169,1.35,2.448A1.318,1.318,0,0,1,5282.26,523.314Zm8.07-7.317a6.667,6.667,0,1,1-6.58,6.666,6.619,6.619,0,0,1,6.58-6.666h0Zm0,10.666a4,4,0,1,0-3.95-4A3.976,3.976,0,0,0,5290.33,526.663Zm2.63-32h21.07V492h-21.07v2.667Zm-13.16,8h47.4V500h-47.4v2.666Zm0,5.333h47.4v-2.667h-47.4V508Zm28.96,17.332h17.12v-2.667h-17.12v2.667Z" transform="translate(-5264 -484)"/>
</svg>
