<svg xmlns="http://www.w3.org/2000/svg" xmlns:xlink="http://www.w3.org/1999/xlink" width="62" height="68" viewBox="0 0 62 68">
  <metadata><?xpacket begin="﻿" id="W5M0MpCehiHzreSzNTczkc9d"?>
<x:xmpmeta xmlns:x="adobe:ns:meta/" x:xmptk="Adobe XMP Core 5.6-c138 79.159824, 2016/09/14-01:09:01        ">
   <rdf:RDF xmlns:rdf="http://www.w3.org/1999/02/22-rdf-syntax-ns#">
      <rdf:Description rdf:about=""/>
   </rdf:RDF>
</x:xmpmeta>
                                                                                                    
                                                                                                    
                                                                                                    
                                                                                                    
                                                                                                    
                                                                                                    
                                                                                                    
                                                                                                    
                                                                                                    
                                                                                                    
                                                                                                    
                                                                                                    
                                                                                                    
                                                                                                    
                                                                                                    
                                                                                                    
                                                                                                    
                                                                                                    
                                                                                                    
                                                                                                    
                           
<?xpacket end="w"?></metadata>
<defs>
    <style>
      .cls-1 {
        fill: #7e7e7e;
        fill-rule: evenodd;
        filter: url(#filter);
      }
    </style>
    <filter id="filter" x="5570" y="488" width="62" height="68" filterUnits="userSpaceOnUse">
      <feFlood result="flood" flood-color="#727272"/>
      <feComposite result="composite" operator="in" in2="SourceGraphic"/>
      <feBlend result="blend" in2="SourceGraphic"/>
    </filter>
  </defs>
  <path id="Фигура_5" data-name="Фигура 5" class="cls-1" d="M5625.24,490.265h-3.38v-1.134a1.13,1.13,0,1,0-2.26,0v1.134h-2.25v-1.134a1.13,1.13,0,1,0-2.26,0v1.134h-2.25v-1.134a1.13,1.13,0,1,0-2.26,0v1.134h-2.25v-1.134a1.13,1.13,0,1,0-2.26,0v1.134h-15.78v-1.134a1.13,1.13,0,1,0-2.26,0v1.134h-2.25v-1.134a1.13,1.13,0,1,0-2.26,0v1.134h-2.25v-1.134a1.13,1.13,0,1,0-2.26,0v1.134h-2.25v-1.134a1.13,1.13,0,1,0-2.26,0v1.134h-3.38a1.134,1.134,0,0,0-1.13,1.133v53.275a1.135,1.135,0,0,0,1.13,1.134h32.75a1.124,1.124,0,0,0,1.13-1.13v-0.083l-0.01-.131c-0.02-.306-0.05-0.612-0.05-0.923a14.941,14.941,0,0,1,.4-3.331,14.539,14.539,0,0,1,1.11-3.141c0.05-.1.1-0.2,0.15-0.3,0.15-.288.31-0.568,0.48-0.845,0.05-.087.1-0.177,0.16-0.263q0.27-.432.57-0.842a1.817,1.817,0,0,0,.13-0.173c0.23-.3.46-0.583,0.7-0.861l0.04-.037a14.811,14.811,0,0,1,5.9-4.037l0.19-.074c0.31-.107.62-0.2,0.93-0.291,0.14-.04.28-0.076,0.43-0.113,0.26-.066.53-0.127,0.79-0.178,0.23-.042.46-0.074,0.7-0.106,0.2-.029.4-0.062,0.61-0.081,0.45-.043.91-0.071,1.37-0.071,0.31,0,.61.024,0.9,0.045l0.14,0.01h0.03a14.65,14.65,0,0,1,4.16.935,1.127,1.127,0,0,0,1.46-.645,1.155,1.155,0,0,0,.08-0.41V491.4a1.134,1.134,0,0,0-1.13-1.133h0ZM5605.01,535a1.874,1.874,0,0,0-.12.19c-0.17.287-.31,0.583-0.45,0.88-0.08.163-.16,0.325-0.24,0.492-0.12.273-.24,0.552-0.35,0.833-0.01.028-.02,0.054-0.03,0.083v-5.27h3.21a17.5,17.5,0,0,0-2.02,2.792h0Zm5.57-5.814c-0.39.247-.76,0.51-1.13,0.787v-0.032h-5.63v-6.8h6.76v6.046h0Zm0-8.313h-6.76v-6.8h6.76v6.8h0Zm0-9.068h-6.76V505h6.76v6.8h0Zm9.02,2.267v6.8h-6.76v-6.8h6.76Zm-6.76-2.267V505h6.76v6.8h-6.76Zm6.76,14.735c-0.52,0-1.05.031-1.56,0.08-0.23.02-.44,0.055-0.66,0.083-0.27.038-.55,0.076-0.82,0.127s-0.57.114-.85,0.183c-0.17.042-.35,0.086-0.52,0.134-0.34.093-.68,0.193-1.01,0.307-0.05.016-.09,0.033-0.13,0.048-0.41.144-.82,0.294-1.21,0.468v-4.83h6.76v3.4h0Zm4.51,0.626a16.809,16.809,0,0,0-2.25-.471V503.867a1.135,1.135,0,0,0-1.13-1.134h-45.1a1.135,1.135,0,0,0-1.13,1.134V540.14a1.135,1.135,0,0,0,1.13,1.133h27.23a15.651,15.651,0,0,0-.17,2.267h-30.44V500.466h51.86v26.7h0Zm-29.31,2.775v-6.8h6.76v6.8h-6.76Zm6.76,2.267v6.8h-6.76v-6.8h6.76Zm-6.76-11.335v-6.8h6.76v6.8h-6.76Zm0-9.068V505h6.76v6.8h-6.76Zm-9.02,18.136v-6.8h6.76v6.8h-6.76Zm6.76,2.267v6.8h-6.76v-6.8h6.76Zm-6.76-11.335v-6.8h6.76v6.8h-6.76Zm0-9.068V505h6.76v6.8h-6.76Zm-9.02,18.136v-6.8h6.76v6.8h-6.76Zm6.76,2.267v6.8h-6.76v-6.8h6.76Zm-6.76-11.335v-6.8h6.76v6.8h-6.76Zm0-9.068V505h6.76v6.8h-6.76Zm47.35-13.6h-51.86v-5.668h2.25v1.134a1.13,1.13,0,1,0,2.26,0v-1.134h2.25v1.134a1.13,1.13,0,1,0,2.26,0v-1.134h2.25v1.134a1.13,1.13,0,1,0,2.26,0v-1.134h2.25v1.134a1.13,1.13,0,1,0,2.26,0v-1.134h15.78v1.134a1.13,1.13,0,1,0,2.26,0v-1.134h2.25v1.134a1.13,1.13,0,1,0,2.26,0v-1.134h2.25v1.134a1.13,1.13,0,1,0,2.26,0v-1.134h2.25v1.134a1.13,1.13,0,1,0,2.26,0v-1.134h2.25V498.2Zm-4.51,32.871A12.469,12.469,0,1,0,5632,543.54a12.434,12.434,0,0,0-12.4-12.469h0Zm0,22.671a10.2,10.2,0,1,1,10.15-10.2A10.18,10.18,0,0,1,5619.6,553.742Zm6.41-16.671a1.128,1.128,0,0,0-1.57,0l-4.84,4.866-2.58-2.6a1.13,1.13,0,0,0-1.6.028,1.142,1.142,0,0,0,0,1.575l3.38,3.4a1.131,1.131,0,0,0,1.6,0l5.63-5.668A1.129,1.129,0,0,0,5626.01,537.071Z" transform="translate(-5570 -488)"/>
</svg>
