<svg xmlns="http://www.w3.org/2000/svg" xmlns:xlink="http://www.w3.org/1999/xlink" width="72" height="72" viewBox="0 0 72 72">
  <metadata><?xpacket begin="﻿" id="W5M0MpCehiHzreSzNTczkc9d"?>
<x:xmpmeta xmlns:x="adobe:ns:meta/" x:xmptk="Adobe XMP Core 5.6-c138 79.159824, 2016/09/14-01:09:01        ">
   <rdf:RDF xmlns:rdf="http://www.w3.org/1999/02/22-rdf-syntax-ns#">
      <rdf:Description rdf:about=""/>
   </rdf:RDF>
</x:xmpmeta>
                                                                                                    
                                                                                                    
                                                                                                    
                                                                                                    
                                                                                                    
                                                                                                    
                                                                                                    
                                                                                                    
                                                                                                    
                                                                                                    
                                                                                                    
                                                                                                    
                                                                                                    
                                                                                                    
                                                                                                    
                                                                                                    
                                                                                                    
                                                                                                    
                                                                                                    
                                                                                                    
                           
<?xpacket end="w"?></metadata>
<defs>
    <style>
      .cls-1 {
        fill: #8eb37a;
        fill-rule: evenodd;
        filter: url(#filter);
      }
    </style>
    <filter id="filter" x="5560" y="222" width="72" height="72" filterUnits="userSpaceOnUse">
      <feFlood result="flood" flood-color="#727272"/>
      <feComposite result="composite" operator="in" in2="SourceGraphic"/>
      <feBlend result="blend" in2="SourceGraphic"/>
    </filter>
  </defs>
  <path id="Фигура_4" data-name="Фигура 4" class="cls-1" d="M5623.97,282.529l-1.18-.474a36.025,36.025,0,0,0,2.98-44.307,1.166,1.166,0,0,0-.18-0.258,36.345,36.345,0,0,0-6.28-6.923,1.136,1.136,0,1,0-1.47,1.732,34.344,34.344,0,0,1,5.15,5.471,50.387,50.387,0,0,1-8.52,2.367,41.018,41.018,0,0,0-3.27-7.357,26.235,26.235,0,0,0-5.9-7.211,33.633,33.633,0,0,1,9.56,4.463,1.136,1.136,0,0,0,1.27-1.884,36,36,0,0,0-46.9,53.922l-1.17.457a6.462,6.462,0,0,0-4.09,6.266v4.074a1.139,1.139,0,0,0,1.14,1.138h16.73a0.978,0.978,0,0,0,.16-0.013,1.079,1.079,0,0,0,.16.013h4.63a1.137,1.137,0,1,0,0-2.274h-3.49v-3.96a5.558,5.558,0,0,1,3.41-5.425l0.06-.019,5.53-2.169c0.01,0.013.03,0.027,0.04,0.039l2.94,2.866a1.136,1.136,0,0,0,.79.323h0.02a1.137,1.137,0,0,0,.8-0.349l2.83-2.931,5.53,2.217a0.521,0.521,0,0,0,.05.02,5.556,5.556,0,0,1,3.42,5.428v3.96h-18.38a1.137,1.137,0,0,0,0,2.274h36.58a1.143,1.143,0,0,0,1.13-1.145v-4.067a6.463,6.463,0,0,0-4.08-6.264h0Zm-3.44-1.379-1.12-.45v-0.647a5.925,5.925,0,0,0,2.64-3.277,3.214,3.214,0,0,0,1.78-5.693v-2.021a7.668,7.668,0,0,0-6.69-7.6c0.04-.771.07-1.548,0.08-2.325h12.49a33.614,33.614,0,0,1-9.18,22.011h0Zm-4.1-2.56h-1.04a3.644,3.644,0,0,1-3.64-3.643v-3.008h0a11.748,11.748,0,0,0,6.12-2.366,5.075,5.075,0,0,0,2.2,2.106v3.268a3.65,3.65,0,0,1-3.64,3.643h0Zm0.71,2.23v0.63l-1.27,1.314-1.19-1.159V280.82a5.91,5.91,0,0,0,.71.044h1.04a6.041,6.041,0,0,0,.71-0.044h0Zm-6.53-11.081h0q-0.06,0-.12.006l-0.03,0c-0.03,0-.06.007-0.08,0.012s-0.03.009-.05,0.013-0.04.009-.06,0.015a0.186,0.186,0,0,1-.04.013v-0.741a5.4,5.4,0,0,1,5.39-5.388h0.55a5.388,5.388,0,0,1,5.38,5.388v0.732q-0.03-.01-0.06-0.018l-0.03-.009c-1.59-.36-2.11-2.476-2.11-2.492a1.137,1.137,0,0,0-2.03-.415c-2.06,2.846-6.65,2.879-6.71,2.879h0Zm11.73,4.6v-1.532a0.933,0.933,0,0,1,0,1.532h0Zm1.98-34.655a33.637,33.637,0,0,1,5.39,17.181h-12.49a57.071,57.071,0,0,0-2.08-14.549,50.787,50.787,0,0,0,9.18-2.632h0Zm-9.37,17.181h-11.64a9.274,9.274,0,0,0-6.17-3.036v-9.777a102.606,102.606,0,0,0,15.76-1.326,55.057,55.057,0,0,1,2.05,14.139h0Zm-10.03,11.872a1.46,1.46,0,0,1-1.07,1.406v-2.812a1.462,1.462,0,0,1,1.07,1.406h0Zm-7.78-44.4c4.52,0.484,8.78,3.841,12.09,9.58a38.872,38.872,0,0,1,2.98,6.627,100.968,100.968,0,0,1-15.07,1.236V224.335h0Zm-0.73,31.737a7.033,7.033,0,0,1,7.03,7.024v1.39a0.04,0.04,0,0,1-.02-0.018l-0.06-.038a0.12,0.12,0,0,0-.04-0.026,0.763,0.763,0,0,0-.1-0.057,0.2,0.2,0,0,0-.05-0.023l-0.06-.024a0.163,0.163,0,0,0-.04-0.016c-0.02-.007-0.05-0.013-0.07-0.019l-0.03-.009c-2.16-.491-2.84-3.307-2.85-3.332a1.136,1.136,0,0,0-2.03-.415c-2.66,3.681-8.54,3.718-8.62,3.718h-0.01a1.014,1.014,0,0,0-.11.006l-0.04,0c-0.02,0-.05.007-0.07,0.012a0.347,0.347,0,0,0-.05.013q-0.03.006-.06,0.015l-0.06.02a0.378,0.378,0,0,1-.05.018l-0.06.029a0.189,0.189,0,0,1-.04.019c-0.02.011-.04,0.024-0.06,0.036l-0.03.021a0.193,0.193,0,0,0-.05.039,0.138,0.138,0,0,0-.04.026c-0.01.008-.02,0.018-0.03,0.027V263.1a7.033,7.033,0,0,1,7.03-7.024h0.67Zm-19.36.793a55.066,55.066,0,0,1,2.05-14.141,102.815,102.815,0,0,0,15.76,1.328v9.789a9.3,9.3,0,0,0-6.03,3.031c-0.04,0-.08-0.007-0.12-0.007h-11.66Zm11.28,10.455v2.836a1.458,1.458,0,0,1,0-2.836h0Zm6.53-42.985v17.443a100.8,100.8,0,0,1-15.07-1.24,38.865,38.865,0,0,1,2.98-6.623c3.31-5.739,7.57-9.1,12.09-9.58h0Zm-8.17,1.244a26.04,26.04,0,0,0-5.89,7.2,40.988,40.988,0,0,0-3.27,7.354,50.079,50.079,0,0,1-8.5-2.36,33.8,33.8,0,0,1,17.66-12.195h0Zm-19,14.11a50.777,50.777,0,0,0,9.17,2.624,57.1,57.1,0,0,0-2.08,14.552h-12.49a33.536,33.536,0,0,1,5.4-17.176h0Zm7.32,41.131a6.041,6.041,0,0,0,.71.044h1.04a5.91,5.91,0,0,0,.71-0.044v0.63l-1.27,1.314-1.19-1.159V280.82h0Zm1.75-2.23h-1.04a3.644,3.644,0,0,1-3.64-3.643V271.94a11.792,11.792,0,0,0,6.13-2.367,5.11,5.11,0,0,0,2.19,2.107v3.267a3.644,3.644,0,0,1-3.64,3.643h0Zm2.93-11.315a1.148,1.148,0,0,0-.88-0.862,1.134,1.134,0,0,0-1.15.447c-2.06,2.848-6.66,2.879-6.71,2.879h-0.01a1.014,1.014,0,0,0-.11.006l-0.04,0c-0.02,0-.05.007-0.08,0.012l-0.04.012-0.06.016a0.186,0.186,0,0,0-.04.013v-0.741a5.4,5.4,0,0,1,5.39-5.388h0.54a5.4,5.4,0,0,1,5.39,5.388v0.732h0a0.391,0.391,0,0,0-.07-0.018l-0.03-.009c-1.58-.36-2.1-2.476-2.1-2.492h0Zm-17.4-8.136h12.48c0.02,0.783.05,1.565,0.09,2.341a7.664,7.664,0,0,0-6.56,7.582v2.012a3.209,3.209,0,0,0,1.8,5.7,5.92,5.92,0,0,0,2.64,3.275v0.641l-1.24.486a33.546,33.546,0,0,1-9.21-22.041h0Zm7.52,13.643v1.582a0.931,0.931,0,0,1,0-1.582h0Zm11.22,14.99v3.959h-14.79v-2.938a4.227,4.227,0,0,1,2.58-4.123,0.358,0.358,0,0,1,.05-0.019l4.29-1.679,2.28,2.219a1.118,1.118,0,0,0,.79.323h0.02a1.141,1.141,0,0,0,.8-0.348l2.15-2.234,2.66,1.067a8.553,8.553,0,0,0-.83,3.773h0Zm10.96-9.935-6.03,2.363a7.2,7.2,0,0,0-2.77,1.88l-3.45-1.38v-0.647a5.938,5.938,0,0,0,2.65-3.277,3.209,3.209,0,0,0,1.77-5.693v-2.021a7.665,7.665,0,0,0-7.02-7.634c-0.05-.758-0.08-1.523-0.09-2.289h10.27a9.344,9.344,0,0,0-.88,3.957v2.653a3.732,3.732,0,0,0,2.18,6.723,7.135,7.135,0,0,0,3.37,4.205v1.16h0Zm-9.31-3.5v-1.532a0.947,0.947,0,0,1,0,1.532h0Zm15.23,4.291V278.7l-1.86,1.933-1.78-1.733v-1.431a7.032,7.032,0,0,0,1.17.1h1.3a7.032,7.032,0,0,0,1.17-.1v1.158h0Zm-1.17-3.333h-1.3a4.845,4.845,0,0,1-4.84-4.841v-4.015a14.279,14.279,0,0,0,8.02-3.15,6.221,6.221,0,0,0,2.96,2.892v4.273a4.845,4.845,0,0,1-4.84,4.841h0Zm12.1,6.791a7.219,7.219,0,0,0-2.77-1.886l-5.88-2.359v-1.166a7.134,7.134,0,0,0,3.37-4.206,3.734,3.734,0,0,0,2.15-6.71V263.1a9.344,9.344,0,0,0-.88-3.957h10.12c-0.02.769-.05,1.537-0.09,2.3a7.672,7.672,0,0,0-6.9,7.624v2.012a3.209,3.209,0,0,0,1.8,5.7,5.962,5.962,0,0,0,2.64,3.275v0.641l-3.56,1.394h0Zm0.63-9.306v1.582a0.943,0.943,0,0,1,0-1.582h0Zm16.31,18.949H5611v-3.96a8.5,8.5,0,0,0-.83-3.759l2.65-1.04,2.28,2.219a1.136,1.136,0,0,0,.79.323h0.02a1.141,1.141,0,0,0,.8-0.348l2.16-2.234,4.27,1.716c0.03,0.008.04,0.012,0.06,0.019a4.238,4.238,0,0,1,2.58,4.126v2.938h0Z" transform="translate(-5560 -222)"/>
</svg>
