<svg xmlns="http://www.w3.org/2000/svg" width="120" height="40" fill="none" viewBox="0 0 120 40">
    <g clip-path="url(#a)">
        <path fill="#A6A6A6" d="M110.135 0H9.535c-.367 0-.73 0-1.095.002-.306.002-.61.008-.919.013C6.85.023 6.18.082 5.517.19a6.665 6.665 0 0 0-1.9.627A6.438 6.438 0 0 0 .193 5.521a12.993 12.993 0 0 0-.179 2.002c-.01.307-.01.615-.015.921V31.56c.005.31.006.61.015.921.008.671.068 1.34.18 2.002.11.663.32 1.306.624 1.905.303.598.701 1.143 1.179 1.614.473.477 1.019.875 1.618 1.179a6.7 6.7 0 0 0 1.901.63c.663.11 1.333.168 2.004.177.31.007.613.011.919.011.366.002.728.002 1.095.002h100.6c.359 0 .724 0 1.084-.002.304 0 .617-.004.922-.01.67-.01 1.338-.068 2-.178a6.805 6.805 0 0 0 1.908-.63A6.293 6.293 0 0 0 117.666 38a6.405 6.405 0 0 0 1.182-1.614c.302-.6.51-1.242.619-1.905.111-.661.173-1.33.185-2.002.004-.31.004-.61.004-.921.008-.364.008-.725.008-1.094V9.536c0-.366 0-.73-.008-1.092 0-.306 0-.614-.004-.92a13.57 13.57 0 0 0-.185-2.003 6.648 6.648 0 0 0-.619-1.903 6.469 6.469 0 0 0-2.799-2.8 6.77 6.77 0 0 0-1.908-.627c-.661-.11-1.33-.169-2-.176-.305-.005-.618-.011-.922-.013-.36-.002-.725-.002-1.084-.002z"/>
        <path fill="#000" d="M8.445 39.125c-.305 0-.602-.004-.904-.01a12.696 12.696 0 0 1-1.87-.164 5.884 5.884 0 0 1-1.656-.548 5.406 5.406 0 0 1-1.397-1.016 5.321 5.321 0 0 1-1.02-1.397 5.722 5.722 0 0 1-.544-1.657 12.413 12.413 0 0 1-.166-1.875c-.007-.21-.015-.913-.015-.913v-23.1s.009-.692.015-.895a12.37 12.37 0 0 1 .165-1.872 5.755 5.755 0 0 1 .544-1.662c.26-.518.603-.99 1.015-1.398A5.565 5.565 0 0 1 5.668 1.05C6.288.95 6.915.895 7.543.887l.902-.012h102.769l.913.013a12.37 12.37 0 0 1 1.858.162 5.933 5.933 0 0 1 1.671.548 5.589 5.589 0 0 1 2.415 2.42c.261.52.441 1.076.536 1.649.103.624.161 1.255.173 1.887.003.283.003.588.003.89.008.375.008.732.008 1.092v20.929c0 .363 0 .718-.008 1.075 0 .325 0 .623-.004.93-.011.62-.068 1.24-.171 1.853a5.716 5.716 0 0 1-.54 1.67 5.47 5.47 0 0 1-1.015 1.386 5.414 5.414 0 0 1-1.4 1.022 5.855 5.855 0 0 1-1.668.55c-.618.101-1.243.156-1.869.163-.293.007-.599.011-.897.011l-1.084.002-101.69-.002z"/>
        <path fill="#fff" d="M24.769 20.3a4.947 4.947 0 0 1 2.357-4.151 5.066 5.066 0 0 0-3.992-2.158c-1.679-.176-3.307 1.005-4.163 1.005-.872 0-2.19-.988-3.608-.958a5.315 5.315 0 0 0-4.473 2.727c-1.934 3.349-.491 8.27 1.361 10.977.927 1.325 2.01 2.805 3.428 2.753 1.387-.058 1.905-.885 3.58-.885 1.658 0 2.144.885 3.59.852 1.489-.025 2.426-1.332 3.32-2.67a10.96 10.96 0 0 0 1.52-3.092 4.782 4.782 0 0 1-2.92-4.4zM22.037 12.211a4.872 4.872 0 0 0 1.115-3.49 4.958 4.958 0 0 0-3.208 1.659 4.635 4.635 0 0 0-1.143 3.361 4.099 4.099 0 0 0 3.236-1.53zM42.303 27.14h-4.734l-1.137 3.356h-2.005l4.484-12.418h2.083l4.483 12.418h-2.039l-1.136-3.356zm-4.244-1.55h3.752l-1.85-5.446h-.051l-1.85 5.447zM55.16 25.97c0 2.813-1.506 4.62-3.778 4.62a3.07 3.07 0 0 1-2.849-1.583h-.043v4.484h-1.858V21.442h1.799v1.506h.034a3.213 3.213 0 0 1 2.882-1.6c2.298 0 3.813 1.816 3.813 4.622zm-1.91 0c0-1.833-.947-3.038-2.393-3.038-1.42 0-2.375 1.23-2.375 3.038 0 1.824.955 3.046 2.375 3.046 1.446 0 2.393-1.197 2.393-3.046zM65.125 25.97c0 2.813-1.506 4.62-3.779 4.62a3.07 3.07 0 0 1-2.848-1.583h-.043v4.484h-1.859V21.442h1.8v1.506h.033a3.213 3.213 0 0 1 2.883-1.6c2.298 0 3.813 1.816 3.813 4.622zm-1.91 0c0-1.833-.948-3.038-2.393-3.038-1.42 0-2.375 1.23-2.375 3.038 0 1.824.955 3.046 2.375 3.046 1.445 0 2.393-1.197 2.393-3.046zM71.71 27.036c.138 1.232 1.335 2.04 2.97 2.04 1.566 0 2.693-.808 2.693-1.919 0-.964-.68-1.54-2.29-1.936l-1.609-.388c-2.28-.55-3.339-1.617-3.339-3.348 0-2.142 1.868-3.614 4.52-3.614 2.623 0 4.422 1.472 4.483 3.614H77.26c-.112-1.239-1.136-1.987-2.633-1.987s-2.522.757-2.522 1.858c0 .878.654 1.395 2.255 1.79l1.368.336c2.548.603 3.607 1.626 3.607 3.443 0 2.323-1.85 3.778-4.794 3.778-2.754 0-4.614-1.42-4.734-3.667h1.903zM83.346 19.3v2.142h1.722v1.472h-1.722v4.991c0 .776.345 1.137 1.102 1.137.204-.004.408-.018.611-.043v1.463c-.34.064-.686.092-1.032.086-1.833 0-2.548-.689-2.548-2.444v-5.19h-1.316v-1.472h1.316V19.3h1.867zM86.065 25.97c0-2.849 1.678-4.639 4.294-4.639 2.625 0 4.295 1.79 4.295 4.639 0 2.856-1.661 4.638-4.295 4.638-2.633 0-4.294-1.782-4.294-4.638zm6.695 0c0-1.954-.895-3.108-2.4-3.108-1.507 0-2.401 1.162-2.401 3.108 0 1.962.894 3.106 2.4 3.106 1.506 0 2.401-1.144 2.401-3.106zM96.186 21.442h1.773v1.541h.043a2.16 2.16 0 0 1 2.177-1.635c.215-.001.428.022.637.069v1.738a2.59 2.59 0 0 0-.835-.112 1.872 1.872 0 0 0-1.936 2.083v5.37h-1.859v-9.054zM109.385 27.837c-.25 1.643-1.851 2.771-3.899 2.771-2.634 0-4.268-1.764-4.268-4.595 0-2.84 1.643-4.682 4.19-4.682 2.505 0 4.08 1.72 4.08 4.466v.637h-6.394v.112a2.353 2.353 0 0 0 1.458 2.391c.31.127.643.186.977.173a2.05 2.05 0 0 0 2.091-1.273h1.765zm-6.283-2.702h4.527A2.185 2.185 0 0 0 106.284 23a2.182 2.182 0 0 0-.876-.163 2.293 2.293 0 0 0-2.306 2.298zM36.738 11.253h.798a1.001 1.001 0 0 0 1.125-.95c0-.551-.414-.907-1.116-.907a1.063 1.063 0 0 0-1.204.935h-.876a1.872 1.872 0 0 1 2.108-1.745c1.175 0 2.002.658 2.002 1.604a1.386 1.386 0 0 1-1.084 1.365v.07a1.39 1.39 0 0 1 1.327 1.443 1.995 1.995 0 0 1-2.228 1.774 1.984 1.984 0 0 1-2.241-1.765h.89c.053.57.577.939 1.35.939.774 0 1.28-.414 1.28-.997 0-.591-.476-.956-1.307-.956h-.824v-.81zM40.83 13.424c0-.81.604-1.277 1.674-1.344l1.22-.07v-.389c0-.476-.314-.744-.922-.744-.496 0-.84.182-.939.5h-.86c.09-.773.82-1.27 1.84-1.27 1.13 0 1.766.563 1.766 1.514v3.077h-.856v-.633h-.07a1.515 1.515 0 0 1-1.353.707 1.36 1.36 0 0 1-1.5-1.348zm2.894-.384v-.377l-1.1.07c-.62.042-.901.253-.901.65 0 .405.351.64.835.64a1.06 1.06 0 0 0 1.166-.983zM46.968 10.943v3.755h-.889v-4.503h2.965v.748h-2.076zM54.43 12.444c0 1.431-.724 2.328-1.86 2.328a1.467 1.467 0 0 1-1.386-.756h-.07v2.179h-.89v-6h.856v.744h.067a1.564 1.564 0 0 1 1.414-.819c1.145 0 1.869.893 1.869 2.324zm-.914 0c0-.95-.45-1.526-1.203-1.526-.748 0-1.216.587-1.216 1.53 0 .939.468 1.526 1.212 1.526.756 0 1.207-.575 1.207-1.53zM55.613 16.31v-.765c.096.013.193.018.29.017a.77.77 0 0 0 .815-.628l.066-.22-1.63-4.52h.968l1.129 3.577h.07l1.125-3.576h.943l-1.679 4.689c-.385 1.095-.81 1.447-1.729 1.447-.074 0-.285-.008-.368-.02zM60.081 13.42h.885c.087.397.459.604.98.604.591 0 .954-.26.954-.666 0-.434-.326-.641-.955-.641h-.673v-.69h.662c.537 0 .81-.207.81-.584 0-.33-.264-.583-.81-.583-.497 0-.86.211-.918.567h-.857a1.578 1.578 0 0 1 1.775-1.32c1.07 0 1.682.485 1.682 1.246a.925.925 0 0 1-.71.921v.07a1.01 1.01 0 0 1 .88 1.014c0 .856-.728 1.422-1.84 1.422-.984 0-1.783-.45-1.865-1.36zM65.066 14.698v-4.503h.88v3.097h.071l2.075-3.097h.881v4.503h-.88v-3.114h-.067l-2.08 3.114h-.88zM73.826 10.943h-1.418v3.755h-.89v-3.755H70.1v-.748h3.726v.748zM78.613 13.482a1.83 1.83 0 0 1-1.952 1.303 2.045 2.045 0 0 1-2.08-2.325 2.077 2.077 0 0 1 2.076-2.352c1.253 0 2.01.856 2.01 2.27v.31h-3.18v.05a1.19 1.19 0 0 0 1.199 1.29 1.079 1.079 0 0 0 1.07-.546h.857zm-3.126-1.451h2.273a1.085 1.085 0 0 0-1.107-1.167 1.15 1.15 0 0 0-1.166 1.167zM82.38 10.195h2.03c.882 0 1.398.446 1.398 1.145a.967.967 0 0 1-.76.951v.07a1.028 1.028 0 0 1 .962 1.038c0 .786-.59 1.299-1.579 1.299h-2.05v-4.503zm.881.682v1.166h.881c.537 0 .794-.207.794-.587 0-.351-.224-.58-.695-.58l-.98.001zm0 1.82v1.319h1.054c.525 0 .807-.232.807-.658 0-.45-.319-.662-.918-.662h-.943z"/>
    </g>
    <defs>
        <clipPath id="a">
            <path fill="#fff" d="M0 0h119.664v40H0z"/>
        </clipPath>
    </defs>
</svg>
