<svg xmlns="http://www.w3.org/2000/svg" width="1002" height="558" fill="none" viewBox="0 0 1002 558">
    <path fill="url(#a)" d="M990.477 469.762c.737-2.458 1.228-5.161 1.474-7.864l-39.308 39.316c2.703-.246 5.405-.737 7.862-1.475l29.972-29.977z"/>
    <path fill="url(#b)" d="M924.882 494.825c1.229.737 2.703 1.474 4.177 2.211l58.961-58.973c-.737-1.474-1.474-2.702-2.211-4.177l-60.927 60.939z"/>
    <path fill="url(#c)" d="M932.498 498.511c1.474.491 3.194.983 4.914 1.474l53.557-53.567c-.492-1.72-.983-3.194-1.474-4.914l-56.997 57.007z"/>
    <path fill="url(#d)" d="M941.588 500.722c1.965.246 3.93.492 5.896.492l44.712-44.721c0-1.966-.245-3.932-.491-5.898l-50.117 50.127z"/>
    <path fill="url(#e)" d="M929.55 417.177a44.618 44.618 0 0 0-12.529 8.846c-3.685 3.686-6.633 8.109-8.844 12.532l21.373-21.378z"/>
    <path fill="url(#f)" d="M918.495 489.91c1.228.983 2.211 1.966 3.439 2.949l61.664-61.676c-.982-1.228-1.719-2.457-2.948-3.44l-62.155 62.167z"/>
    <path fill="url(#g)" d="M913.09 484.013c.983 1.229 1.966 2.212 2.948 3.44l62.402-62.413c-.983-.983-2.211-1.966-3.44-2.948l-61.91 61.921z"/>
    <path fill="url(#h)" d="M969.104 495.808c3.685-1.966 6.878-4.423 10.072-7.618 2.948-2.948 5.651-6.388 7.616-10.074l-17.688 17.692z"/>
    <path fill="url(#i)" d="M904 458.95c0 1.965.246 3.686.491 5.651l51.101-51.11c-1.966-.245-3.685-.491-5.651-.491L904 458.95z"/>
    <path fill="url(#j)" d="M905.228 446.419c-.737 2.457-.982 4.914-1.228 7.617l40.782-40.789c-2.457.245-5.159.491-7.616 1.228l-31.938 31.944z"/>
    <path fill="url(#k)" d="M905.474 468.779c.492 1.72.983 3.194 1.474 4.668l57.488-57.498c-1.474-.738-3.194-1.229-4.668-1.475l-54.294 54.305z"/>
    <path fill="url(#l)" d="M908.668 477.133c.737 1.474 1.474 2.703 2.211 3.931l60.927-60.938c-1.228-.737-2.702-1.72-3.931-2.212l-59.207 59.219z"/>
    <path fill="url(#m)" d="M987 2.913a2.901 2.901 0 0 1-2.913 2.913 2.901 2.901 0 0 1-2.913-2.913A2.901 2.901 0 0 1 984.087 0 2.901 2.901 0 0 1 987 2.913z"/>
    <path fill="url(#n)" d="M987 17.803a2.901 2.901 0 0 1-2.913 2.913 2.901 2.901 0 0 1-2.913-2.913 2.901 2.901 0 0 1 2.913-2.913c1.618 0 2.913.97 2.913 2.913z"/>
    <path fill="url(#o)" d="M987 32.37a2.901 2.901 0 0 1-2.913 2.913 2.901 2.901 0 0 1-2.913-2.913 2.901 2.901 0 0 1 2.913-2.914A2.901 2.901 0 0 1 987 32.37z"/>
    <path fill="url(#p)" d="M987 46.936a2.901 2.901 0 0 1-2.913 2.913 2.901 2.901 0 0 1-2.913-2.913 2.901 2.901 0 0 1 2.913-2.913A2.901 2.901 0 0 1 987 46.935z"/>
    <path fill="url(#q)" d="M987 61.826a2.901 2.901 0 0 1-2.913 2.913 2.901 2.901 0 0 1-2.913-2.913 2.901 2.901 0 0 1 2.913-2.914A2.901 2.901 0 0 1 987 61.826z"/>
    <path fill="url(#r)" d="M987 76.392a2.901 2.901 0 0 1-2.913 2.913 2.901 2.901 0 0 1-2.913-2.913 2.901 2.901 0 0 1 2.913-2.913A2.901 2.901 0 0 1 987 76.391z"/>
    <path fill="url(#s)" d="M987 91.282a2.901 2.901 0 0 1-2.913 2.913 2.901 2.901 0 0 1-2.913-2.913 2.901 2.901 0 0 1 2.913-2.914A2.901 2.901 0 0 1 987 91.282z"/>
    <path fill="url(#t)" d="M975.025 2.913a2.901 2.901 0 0 1-2.913 2.913 2.901 2.901 0 0 1-2.913-2.913A2.901 2.901 0 0 1 972.112 0a2.901 2.901 0 0 1 2.913 2.913z"/>
    <path fill="url(#u)" d="M975.025 17.803a2.901 2.901 0 0 1-2.913 2.913 2.901 2.901 0 0 1-2.913-2.913 2.901 2.901 0 0 1 2.913-2.913c1.618-.324 2.913.97 2.913 2.913z"/>
    <path fill="url(#v)" d="M975.025 32.37a2.901 2.901 0 0 1-2.913 2.913 2.901 2.901 0 0 1-2.913-2.913 2.901 2.901 0 0 1 2.913-2.914 2.901 2.901 0 0 1 2.913 2.914z"/>
    <path fill="url(#w)" d="M975.025 46.936a2.901 2.901 0 0 1-2.913 2.913 2.901 2.901 0 0 1-2.913-2.913 2.901 2.901 0 0 1 2.913-2.913 2.901 2.901 0 0 1 2.913 2.913z"/>
    <path fill="url(#x)" d="M975.025 61.826a2.901 2.901 0 0 1-2.913 2.913 2.901 2.901 0 0 1-2.913-2.913 2.901 2.901 0 0 1 2.913-2.914 2.901 2.901 0 0 1 2.913 2.914z"/>
    <path fill="url(#y)" d="M975.025 76.392a2.901 2.901 0 0 1-2.913 2.913 2.901 2.901 0 0 1-2.913-2.913 2.901 2.901 0 0 1 2.913-2.913 2.901 2.901 0 0 1 2.913 2.913z"/>
    <path fill="url(#z)" d="M975.025 91.282a2.901 2.901 0 0 1-2.913 2.913 2.901 2.901 0 0 1-2.913-2.913 2.901 2.901 0 0 1 2.913-2.914 2.901 2.901 0 0 1 2.913 2.914z"/>
    <path fill="url(#A)" d="M963.05 2.913a2.901 2.901 0 0 1-2.913 2.913 2.9 2.9 0 0 1-2.912-2.913A2.9 2.9 0 0 1 960.137 0a2.901 2.901 0 0 1 2.913 2.913z"/>
    <path fill="url(#B)" d="M963.049 17.803a2.9 2.9 0 0 1-2.912 2.913 2.901 2.901 0 0 1-2.913-2.913 2.901 2.901 0 0 1 2.913-2.913c1.618-.324 2.912.97 2.912 2.913z"/>
    <path fill="url(#C)" d="M963.049 32.37a2.9 2.9 0 0 1-2.912 2.913 2.901 2.901 0 0 1-2.913-2.913 2.901 2.901 0 0 1 2.913-2.914 2.9 2.9 0 0 1 2.912 2.914z"/>
    <path fill="url(#D)" d="M963.049 46.936a2.9 2.9 0 0 1-2.912 2.913 2.901 2.901 0 0 1-2.913-2.913 2.901 2.901 0 0 1 2.913-2.913 2.9 2.9 0 0 1 2.912 2.913z"/>
    <path fill="url(#E)" d="M963.049 61.826a2.9 2.9 0 0 1-2.912 2.913 2.901 2.901 0 0 1-2.913-2.913 2.901 2.901 0 0 1 2.913-2.914 2.9 2.9 0 0 1 2.912 2.914z"/>
    <path fill="url(#F)" d="M963.049 76.392a2.9 2.9 0 0 1-2.912 2.913 2.901 2.901 0 0 1-2.913-2.913 2.901 2.901 0 0 1 2.913-2.913 2.9 2.9 0 0 1 2.912 2.913z"/>
    <path fill="url(#G)" d="M963.049 91.282a2.9 2.9 0 0 1-2.912 2.913 2.901 2.901 0 0 1-2.913-2.913 2.901 2.901 0 0 1 2.913-2.914 2.9 2.9 0 0 1 2.912 2.914z"/>
    <path fill="url(#H)" d="M951.4 2.913a2.9 2.9 0 0 1-2.913 2.913 2.9 2.9 0 0 1-2.912-2.913A2.9 2.9 0 0 1 948.487 0a2.9 2.9 0 0 1 2.913 2.913z"/>
    <path fill="url(#I)" d="M951.4 17.803a2.901 2.901 0 0 1-2.913 2.913 2.901 2.901 0 0 1-2.913-2.913 2.901 2.901 0 0 1 2.913-2.913c1.618-.324 2.913.97 2.913 2.913z"/>
    <path fill="url(#J)" d="M951.4 32.37a2.901 2.901 0 0 1-2.913 2.913 2.901 2.901 0 0 1-2.913-2.913 2.901 2.901 0 0 1 2.913-2.914 2.901 2.901 0 0 1 2.913 2.914z"/>
    <path fill="url(#K)" d="M951.4 46.936a2.901 2.901 0 0 1-2.913 2.913 2.901 2.901 0 0 1-2.913-2.913 2.901 2.901 0 0 1 2.913-2.913 2.901 2.901 0 0 1 2.913 2.913z"/>
    <path fill="url(#L)" d="M951.4 61.826a2.901 2.901 0 0 1-2.913 2.913 2.901 2.901 0 0 1-2.913-2.913 2.901 2.901 0 0 1 2.913-2.914 2.901 2.901 0 0 1 2.913 2.914z"/>
    <path fill="url(#M)" d="M951.4 76.392a2.901 2.901 0 0 1-2.913 2.913 2.901 2.901 0 0 1-2.913-2.913 2.901 2.901 0 0 1 2.913-2.913 2.901 2.901 0 0 1 2.913 2.913z"/>
    <path fill="url(#N)" d="M951.4 91.282a2.901 2.901 0 0 1-2.913 2.913 2.901 2.901 0 0 1-2.913-2.913 2.901 2.901 0 0 1 2.913-2.914 2.901 2.901 0 0 1 2.913 2.914z"/>
    <path fill="url(#O)" d="M939.425 2.913a2.901 2.901 0 0 1-2.913 2.913 2.901 2.901 0 0 1-2.913-2.913A2.901 2.901 0 0 1 936.512 0a2.901 2.901 0 0 1 2.913 2.913z"/>
    <path fill="url(#P)" d="M939.425 17.803a2.9 2.9 0 0 1-2.913 2.913 2.9 2.9 0 0 1-2.912-2.913 2.9 2.9 0 0 1 2.912-2.913c1.619 0 2.913.97 2.913 2.913z"/>
    <path fill="url(#Q)" d="M939.425 32.37a2.9 2.9 0 0 1-2.913 2.913 2.9 2.9 0 0 1-2.912-2.913 2.9 2.9 0 0 1 2.912-2.914 2.9 2.9 0 0 1 2.913 2.914z"/>
    <path fill="url(#R)" d="M939.425 46.936a2.9 2.9 0 0 1-2.913 2.913 2.9 2.9 0 0 1-2.912-2.913 2.9 2.9 0 0 1 2.912-2.913 2.9 2.9 0 0 1 2.913 2.913z"/>
    <path fill="url(#S)" d="M939.425 61.826a2.9 2.9 0 0 1-2.913 2.913 2.9 2.9 0 0 1-2.912-2.913 2.9 2.9 0 0 1 2.912-2.914 2.9 2.9 0 0 1 2.913 2.914z"/>
    <path fill="url(#T)" d="M939.425 76.392a2.9 2.9 0 0 1-2.913 2.913 2.9 2.9 0 0 1-2.912-2.913 2.9 2.9 0 0 1 2.912-2.913 2.9 2.9 0 0 1 2.913 2.913z"/>
    <path fill="url(#U)" d="M939.425 91.282a2.9 2.9 0 0 1-2.913 2.913 2.9 2.9 0 0 1-2.912-2.913 2.9 2.9 0 0 1 2.912-2.914 2.9 2.9 0 0 1 2.913 2.914z"/>
    <path fill="url(#V)" d="M927.451 2.913a2.9 2.9 0 0 1-2.912 2.913 2.9 2.9 0 0 1-2.913-2.913A2.9 2.9 0 0 1 924.539 0a2.9 2.9 0 0 1 2.912 2.913z"/>
    <path fill="url(#W)" d="M927.45 17.803a2.9 2.9 0 0 1-2.912 2.913 2.901 2.901 0 0 1-2.913-2.913 2.901 2.901 0 0 1 2.913-2.913c1.618 0 2.912.97 2.912 2.913z"/>
    <path fill="url(#X)" d="M927.45 32.37a2.9 2.9 0 0 1-2.912 2.913 2.901 2.901 0 0 1-2.913-2.913 2.901 2.901 0 0 1 2.913-2.914 2.9 2.9 0 0 1 2.912 2.914z"/>
    <path fill="url(#Y)" d="M927.45 46.936a2.9 2.9 0 0 1-2.912 2.913 2.901 2.901 0 0 1-2.913-2.913 2.901 2.901 0 0 1 2.913-2.913 2.9 2.9 0 0 1 2.912 2.913z"/>
    <path fill="url(#Z)" d="M927.45 61.826a2.9 2.9 0 0 1-2.912 2.913 2.901 2.901 0 0 1-2.913-2.913 2.901 2.901 0 0 1 2.913-2.914 2.9 2.9 0 0 1 2.912 2.914z"/>
    <path fill="url(#aa)" d="M927.45 76.392a2.9 2.9 0 0 1-2.912 2.913 2.901 2.901 0 0 1-2.913-2.913 2.901 2.901 0 0 1 2.913-2.913 2.9 2.9 0 0 1 2.912 2.913z"/>
    <path fill="url(#ab)" d="M927.45 91.282a2.9 2.9 0 0 1-2.912 2.913 2.901 2.901 0 0 1-2.913-2.913 2.901 2.901 0 0 1 2.913-2.914 2.9 2.9 0 0 1 2.912 2.914z"/>
    <path fill="url(#ac)" d="M915.801 2.913a2.901 2.901 0 0 1-2.913 2.913 2.901 2.901 0 0 1-2.913-2.913A2.901 2.901 0 0 1 912.888 0c1.295 0 2.913 1.295 2.913 2.913z"/>
    <path fill="url(#ad)" d="M915.8 17.803a2.9 2.9 0 0 1-2.913 2.913 2.9 2.9 0 0 1-2.912-2.913 2.9 2.9 0 0 1 2.912-2.913c1.295-.324 2.913.97 2.913 2.913z"/>
    <path fill="url(#ae)" d="M915.8 32.37a2.9 2.9 0 0 1-2.913 2.913 2.9 2.9 0 0 1-2.912-2.913 2.9 2.9 0 0 1 2.912-2.914c1.295 0 2.913 1.295 2.913 2.914z"/>
    <path fill="url(#af)" d="M915.8 46.936a2.9 2.9 0 0 1-2.913 2.913 2.9 2.9 0 0 1-2.912-2.913 2.9 2.9 0 0 1 2.912-2.913c1.295 0 2.913 1.294 2.913 2.913z"/>
    <path fill="url(#ag)" d="M915.8 61.826a2.9 2.9 0 0 1-2.913 2.913 2.9 2.9 0 0 1-2.912-2.913 2.9 2.9 0 0 1 2.912-2.914c1.295 0 2.913 1.295 2.913 2.914z"/>
    <path fill="url(#ah)" d="M915.8 76.392a2.9 2.9 0 0 1-2.913 2.913 2.9 2.9 0 0 1-2.912-2.913 2.9 2.9 0 0 1 2.912-2.913c1.295 0 2.913 1.294 2.913 2.913z"/>
    <path fill="url(#ai)" d="M915.8 91.282a2.9 2.9 0 0 1-2.913 2.913 2.9 2.9 0 0 1-2.912-2.913 2.9 2.9 0 0 1 2.912-2.914c1.295 0 2.913 1.295 2.913 2.914z"/>
    <path fill="url(#aj)" d="M903.825 2.913a2.9 2.9 0 0 1-2.912 2.913A2.9 2.9 0 0 1 898 2.913 2.9 2.9 0 0 1 900.913 0a2.9 2.9 0 0 1 2.912 2.913z"/>
    <path fill="url(#ak)" d="M903.825 17.803a2.9 2.9 0 0 1-2.912 2.913A2.9 2.9 0 0 1 898 17.803a2.9 2.9 0 0 1 2.913-2.913c1.618 0 2.912.97 2.912 2.913z"/>
    <path fill="url(#al)" d="M903.825 32.37a2.9 2.9 0 0 1-2.912 2.913A2.9 2.9 0 0 1 898 32.37a2.9 2.9 0 0 1 2.913-2.914 2.9 2.9 0 0 1 2.912 2.914z"/>
    <path fill="url(#am)" d="M903.825 46.936a2.9 2.9 0 0 1-2.912 2.913A2.9 2.9 0 0 1 898 46.936a2.9 2.9 0 0 1 2.913-2.913 2.9 2.9 0 0 1 2.912 2.913z"/>
    <path fill="url(#an)" d="M903.825 61.826a2.9 2.9 0 0 1-2.912 2.913A2.9 2.9 0 0 1 898 61.826a2.9 2.9 0 0 1 2.913-2.914 2.9 2.9 0 0 1 2.912 2.914z"/>
    <path fill="url(#ao)" d="M903.825 76.392a2.9 2.9 0 0 1-2.912 2.913A2.9 2.9 0 0 1 898 76.392a2.9 2.9 0 0 1 2.913-2.913 2.9 2.9 0 0 1 2.912 2.913z"/>
    <path fill="url(#ap)" d="M903.825 91.282a2.9 2.9 0 0 1-2.912 2.913A2.9 2.9 0 0 1 898 91.282a2.9 2.9 0 0 1 2.913-2.914 2.9 2.9 0 0 1 2.912 2.914z"/>
    <path fill="url(#aq)" d="M197.215 248.61c-84.621 0-153.605 68.998-153.605 153.635 0 84.867 68.984 153.634 153.605 153.634 84.851 0 153.606-68.997 153.606-153.634.23-84.867-68.755-153.635-153.606-153.635zm0 308.879C111.674 557.489 42 487.802 42 402.245S111.674 247 197.215 247 352.43 316.688 352.43 402.245c.23 85.557-69.444 155.244-155.215 155.244z"/>
    <path fill="url(#ar)" d="M197.215 259.19c-79.103 0-143.718 64.397-143.718 143.745 0 79.117 64.385 143.745 143.718 143.745 79.102 0 143.717-64.398 143.717-143.745 0-79.348-64.385-143.745-143.717-143.745zm0 289.1c-80.022 0-145.328-65.088-145.328-145.355 0-80.038 65.076-145.355 145.328-145.355 80.252 0 145.327 65.087 145.327 145.355 0 80.037-65.075 145.355-145.327 145.355z"/>
    <path fill="url(#as)" d="M197.215 269.999c-73.583 0-133.6 60.028-133.6 133.626 0 73.597 60.017 133.625 133.6 133.625 73.584 0 133.6-60.028 133.6-133.625 0-73.598-59.786-133.626-133.6-133.626zm0 268.861c-74.503 0-135.21-60.718-135.21-135.235 0-74.518 60.707-135.236 135.21-135.236 74.504 0 135.21 60.718 135.21 135.236 0 74.517-60.476 135.235-135.21 135.235z"/>
    <path fill="url(#at)" d="M197.215 280.579c-68.064 0-123.482 55.428-123.482 123.505 0 68.078 55.418 123.506 123.482 123.506 68.065 0 123.483-55.428 123.483-123.506 0-68.077-55.188-123.505-123.483-123.505zm0 248.851c-68.984 0-125.321-56.118-125.321-125.346 0-68.997 56.107-125.345 125.321-125.345 68.985 0 125.322 56.118 125.322 125.345 0 69.228-56.107 125.346-125.322 125.346z"/>
    <path fill="url(#au)" d="M197.215 291.389c-62.546 0-113.595 51.058-113.595 113.616 0 62.557 51.049 113.616 113.595 113.616s113.594-51.059 113.594-113.616c0-62.788-50.818-113.616-113.594-113.616zm0 228.612c-63.466 0-115.204-51.749-115.204-115.226 0-63.478 51.738-115.226 115.204-115.226 63.466 0 115.204 51.748 115.204 115.226 0 63.707-51.508 115.226-115.204 115.226z"/>
    <path fill="url(#av)" d="M197.215 301.968c-57.027 0-103.477 46.458-103.477 103.497 0 57.038 46.45 103.496 103.477 103.496s103.477-46.458 103.477-103.496c.23-57.039-46.22-103.497-103.477-103.497zm0 208.833c-57.947 0-105.087-47.148-105.087-105.106 0-57.958 47.14-105.107 105.087-105.107s105.086 47.149 105.086 105.107c.23 57.958-46.909 105.106-105.086 105.106z"/>
    <path fill="url(#aw)" d="M197.215 312.778c-51.508 0-93.589 41.858-93.589 93.606 0 51.749 41.851 93.607 93.589 93.607 51.509 0 93.589-41.858 93.589-93.607 0-51.748-41.85-93.606-93.589-93.606zm0 188.593c-52.428 0-95.198-42.778-95.198-95.217 0-52.438 42.77-95.216 95.198-95.216 52.428 0 95.199 42.778 95.199 95.216 0 52.439-42.771 95.217-95.199 95.217z"/>
    <path fill="url(#ax)" d="M197.215 323.357c-45.99 0-83.471 37.489-83.471 83.487 0 45.999 37.481 83.487 83.471 83.487s83.471-37.488 83.471-83.487c0-45.998-37.481-83.487-83.471-83.487zm0 168.584c-46.909 0-85.081-38.178-85.081-85.097 0-46.918 38.172-85.097 85.081-85.097 46.91 0 85.081 38.179 85.081 85.097 0 46.919-38.171 85.097-85.081 85.097z"/>
    <path fill="url(#ay)" d="M197.215 334.167c-40.471 0-73.353 32.889-73.353 73.368 0 40.478 32.882 73.367 73.353 73.367s73.354-32.889 73.354-73.367c.23-40.479-32.883-73.368-73.354-73.368zm0 148.575c-41.391 0-74.963-33.579-74.963-74.977 0-41.399 33.572-74.978 74.963-74.978 41.391 0 74.963 33.579 74.963 74.978.23 41.168-33.572 74.977-74.963 74.977z"/>
    <path fill="url(#az)" d="M197.216 344.747c-34.953 0-63.466 28.519-63.466 63.477 0 34.959 28.513 63.478 63.466 63.478 34.952 0 63.465-28.519 63.465-63.478 0-34.958-28.513-63.477-63.465-63.477zm0 128.565c-35.872 0-65.076-29.209-65.076-65.088 0-35.878 29.204-65.087 65.076-65.087 35.871 0 65.075 29.209 65.075 65.087 0 35.879-29.204 65.088-65.075 65.088z"/>
    <path fill="url(#aA)" d="M61.664 333.352C27.761 333.352 0 305.585 0 271.676 0 237.766 27.761 210 61.664 210c33.903 0 61.664 27.766 61.664 61.676 0 33.909-27.515 61.676-61.664 61.676zm0-119.42c-31.692 0-57.733 25.8-57.733 57.744 0 31.698 25.796 57.744 57.733 57.744 31.692 0 57.734-25.8 57.734-57.744 0-31.698-25.796-57.744-57.734-57.744z"/>
    <path fill="url(#aB)" d="M1002 226.793L997.207 222l-10.118 10.118L976.97 222l-4.97 4.793 10.296 10.296L972 247.207l4.97 4.793 10.119-10.118L997.207 252l4.793-4.793-10.118-10.118L1002 226.793z"/>
    <defs>
        <linearGradient id="a" x1="952.643" x2="991.951" y1="481.556" y2="481.556" gradientUnits="userSpaceOnUse">
            <stop stop-color="#5433FF"/>
            <stop offset=".5" stop-color="#20BDFF"/>
            <stop offset="1" stop-color="#A5FECB"/>
        </linearGradient>
        <linearGradient id="b" x1="924.882" x2="988.02" y1="465.461" y2="465.461" gradientUnits="userSpaceOnUse">
            <stop stop-color="#5433FF"/>
            <stop offset=".5" stop-color="#20BDFF"/>
            <stop offset="1" stop-color="#A5FECB"/>
        </linearGradient>
        <linearGradient id="c" x1="932.498" x2="990.969" y1="470.744" y2="470.744" gradientUnits="userSpaceOnUse">
            <stop stop-color="#5433FF"/>
            <stop offset=".5" stop-color="#20BDFF"/>
            <stop offset="1" stop-color="#A5FECB"/>
        </linearGradient>
        <linearGradient id="d" x1="941.588" x2="992.196" y1="475.904" y2="475.904" gradientUnits="userSpaceOnUse">
            <stop stop-color="#5433FF"/>
            <stop offset=".5" stop-color="#20BDFF"/>
            <stop offset="1" stop-color="#A5FECB"/>
        </linearGradient>
        <linearGradient id="e" x1="908.177" x2="929.55" y1="427.866" y2="427.866" gradientUnits="userSpaceOnUse">
            <stop stop-color="#5433FF"/>
            <stop offset=".5" stop-color="#20BDFF"/>
            <stop offset="1" stop-color="#A5FECB"/>
        </linearGradient>
        <linearGradient id="f" x1="918.495" x2="983.598" y1="460.301" y2="460.301" gradientUnits="userSpaceOnUse">
            <stop stop-color="#5433FF"/>
            <stop offset=".5" stop-color="#20BDFF"/>
            <stop offset="1" stop-color="#A5FECB"/>
        </linearGradient>
        <linearGradient id="g" x1="913.09" x2="978.44" y1="454.772" y2="454.772" gradientUnits="userSpaceOnUse">
            <stop stop-color="#5433FF"/>
            <stop offset=".5" stop-color="#20BDFF"/>
            <stop offset="1" stop-color="#A5FECB"/>
        </linearGradient>
        <linearGradient id="h" x1="969.104" x2="986.792" y1="486.962" y2="486.962" gradientUnits="userSpaceOnUse">
            <stop stop-color="#5433FF"/>
            <stop offset=".5" stop-color="#20BDFF"/>
            <stop offset="1" stop-color="#A5FECB"/>
        </linearGradient>
        <linearGradient id="i" x1="904" x2="955.592" y1="438.801" y2="438.801" gradientUnits="userSpaceOnUse">
            <stop stop-color="#5433FF"/>
            <stop offset=".5" stop-color="#20BDFF"/>
            <stop offset="1" stop-color="#A5FECB"/>
        </linearGradient>
        <linearGradient id="j" x1="904" x2="944.782" y1="433.641" y2="433.641" gradientUnits="userSpaceOnUse">
            <stop stop-color="#5433FF"/>
            <stop offset=".5" stop-color="#20BDFF"/>
            <stop offset="1" stop-color="#A5FECB"/>
        </linearGradient>
        <linearGradient id="k" x1="905.474" x2="964.436" y1="443.961" y2="443.961" gradientUnits="userSpaceOnUse">
            <stop stop-color="#5433FF"/>
            <stop offset=".5" stop-color="#20BDFF"/>
            <stop offset="1" stop-color="#A5FECB"/>
        </linearGradient>
        <linearGradient id="l" x1="908.668" x2="971.806" y1="449.489" y2="449.489" gradientUnits="userSpaceOnUse">
            <stop stop-color="#5433FF"/>
            <stop offset=".5" stop-color="#20BDFF"/>
            <stop offset="1" stop-color="#A5FECB"/>
        </linearGradient>
        <radialGradient id="m" cx="0" cy="0" r="1" gradientTransform="matrix(175.407 0 0 175.44 922.511 -34.612)" gradientUnits="userSpaceOnUse">
            <stop stop-color="#E600FF"/>
            <stop offset=".354" stop-color="#F0579A"/>
            <stop offset=".67" stop-color="#F89F47"/>
            <stop offset=".892" stop-color="#FDCC14"/>
            <stop offset="1" stop-color="#FD0"/>
        </radialGradient>
        <radialGradient id="n" cx="0" cy="0" r="1" gradientTransform="matrix(175.407 0 0 175.444 922.511 -34.613)" gradientUnits="userSpaceOnUse">
            <stop stop-color="#E600FF"/>
            <stop offset=".354" stop-color="#F0579A"/>
            <stop offset=".67" stop-color="#F89F47"/>
            <stop offset=".892" stop-color="#FDCC14"/>
            <stop offset="1" stop-color="#FD0"/>
        </radialGradient>
        <radialGradient id="o" cx="0" cy="0" r="1" gradientTransform="matrix(175.407 0 0 175.44 922.511 -34.612)" gradientUnits="userSpaceOnUse">
            <stop stop-color="#E600FF"/>
            <stop offset=".354" stop-color="#F0579A"/>
            <stop offset=".67" stop-color="#F89F47"/>
            <stop offset=".892" stop-color="#FDCC14"/>
            <stop offset="1" stop-color="#FD0"/>
        </radialGradient>
        <radialGradient id="p" cx="0" cy="0" r="1" gradientTransform="matrix(175.406 0 0 175.44 922.511 -34.612)" gradientUnits="userSpaceOnUse">
            <stop stop-color="#E600FF"/>
            <stop offset=".354" stop-color="#F0579A"/>
            <stop offset=".67" stop-color="#F89F47"/>
            <stop offset=".892" stop-color="#FDCC14"/>
            <stop offset="1" stop-color="#FD0"/>
        </radialGradient>
        <radialGradient id="q" cx="0" cy="0" r="1" gradientTransform="matrix(175.406 0 0 175.44 922.511 -34.612)" gradientUnits="userSpaceOnUse">
            <stop stop-color="#E600FF"/>
            <stop offset=".354" stop-color="#F0579A"/>
            <stop offset=".67" stop-color="#F89F47"/>
            <stop offset=".892" stop-color="#FDCC14"/>
            <stop offset="1" stop-color="#FD0"/>
        </radialGradient>
        <radialGradient id="r" cx="0" cy="0" r="1" gradientTransform="matrix(175.408 0 0 175.441 922.511 -34.612)" gradientUnits="userSpaceOnUse">
            <stop stop-color="#E600FF"/>
            <stop offset=".354" stop-color="#F0579A"/>
            <stop offset=".67" stop-color="#F89F47"/>
            <stop offset=".892" stop-color="#FDCC14"/>
            <stop offset="1" stop-color="#FD0"/>
        </radialGradient>
        <radialGradient id="s" cx="0" cy="0" r="1" gradientTransform="matrix(175.407 0 0 175.443 922.511 -34.613)" gradientUnits="userSpaceOnUse">
            <stop stop-color="#E600FF"/>
            <stop offset=".354" stop-color="#F0579A"/>
            <stop offset=".67" stop-color="#F89F47"/>
            <stop offset=".892" stop-color="#FDCC14"/>
            <stop offset="1" stop-color="#FD0"/>
        </radialGradient>
        <radialGradient id="t" cx="0" cy="0" r="1" gradientTransform="matrix(175.415 0 0 175.446 922.507 -34.612)" gradientUnits="userSpaceOnUse">
            <stop stop-color="#E600FF"/>
            <stop offset=".354" stop-color="#F0579A"/>
            <stop offset=".67" stop-color="#F89F47"/>
            <stop offset=".892" stop-color="#FDCC14"/>
            <stop offset="1" stop-color="#FD0"/>
        </radialGradient>
        <radialGradient id="u" cx="0" cy="0" r="1" gradientTransform="matrix(175.413 0 0 175.446 922.507 -34.613)" gradientUnits="userSpaceOnUse">
            <stop stop-color="#E600FF"/>
            <stop offset=".354" stop-color="#F0579A"/>
            <stop offset=".67" stop-color="#F89F47"/>
            <stop offset=".892" stop-color="#FDCC14"/>
            <stop offset="1" stop-color="#FD0"/>
        </radialGradient>
        <radialGradient id="v" cx="0" cy="0" r="1" gradientTransform="matrix(175.412 0 0 175.443 922.507 -34.612)" gradientUnits="userSpaceOnUse">
            <stop stop-color="#E600FF"/>
            <stop offset=".354" stop-color="#F0579A"/>
            <stop offset=".67" stop-color="#F89F47"/>
            <stop offset=".892" stop-color="#FDCC14"/>
            <stop offset="1" stop-color="#FD0"/>
        </radialGradient>
        <radialGradient id="w" cx="0" cy="0" r="1" gradientTransform="matrix(175.411 0 0 175.443 922.507 -34.612)" gradientUnits="userSpaceOnUse">
            <stop stop-color="#E600FF"/>
            <stop offset=".354" stop-color="#F0579A"/>
            <stop offset=".67" stop-color="#F89F47"/>
            <stop offset=".892" stop-color="#FDCC14"/>
            <stop offset="1" stop-color="#FD0"/>
        </radialGradient>
        <radialGradient id="x" cx="0" cy="0" r="1" gradientTransform="matrix(175.41 0 0 175.442 922.507 -34.612)" gradientUnits="userSpaceOnUse">
            <stop stop-color="#E600FF"/>
            <stop offset=".354" stop-color="#F0579A"/>
            <stop offset=".67" stop-color="#F89F47"/>
            <stop offset=".892" stop-color="#FDCC14"/>
            <stop offset="1" stop-color="#FD0"/>
        </radialGradient>
        <radialGradient id="y" cx="0" cy="0" r="1" gradientTransform="matrix(175.411 0 0 175.442 922.507 -34.612)" gradientUnits="userSpaceOnUse">
            <stop stop-color="#E600FF"/>
            <stop offset=".354" stop-color="#F0579A"/>
            <stop offset=".67" stop-color="#F89F47"/>
            <stop offset=".892" stop-color="#FDCC14"/>
            <stop offset="1" stop-color="#FD0"/>
        </radialGradient>
        <radialGradient id="z" cx="0" cy="0" r="1" gradientTransform="matrix(175.41 0 0 175.444 922.507 -34.613)" gradientUnits="userSpaceOnUse">
            <stop stop-color="#E600FF"/>
            <stop offset=".354" stop-color="#F0579A"/>
            <stop offset=".67" stop-color="#F89F47"/>
            <stop offset=".892" stop-color="#FDCC14"/>
            <stop offset="1" stop-color="#FD0"/>
        </radialGradient>
        <radialGradient id="A" cx="0" cy="0" r="1" gradientTransform="matrix(175.406 0 0 175.439 922.51 -34.612)" gradientUnits="userSpaceOnUse">
            <stop stop-color="#E600FF"/>
            <stop offset=".354" stop-color="#F0579A"/>
            <stop offset=".67" stop-color="#F89F47"/>
            <stop offset=".892" stop-color="#FDCC14"/>
            <stop offset="1" stop-color="#FD0"/>
        </radialGradient>
        <radialGradient id="B" cx="0" cy="0" r="1" gradientTransform="matrix(175.406 0 0 175.441 922.509 -34.613)" gradientUnits="userSpaceOnUse">
            <stop stop-color="#E600FF"/>
            <stop offset=".354" stop-color="#F0579A"/>
            <stop offset=".67" stop-color="#F89F47"/>
            <stop offset=".892" stop-color="#FDCC14"/>
            <stop offset="1" stop-color="#FD0"/>
        </radialGradient>
        <radialGradient id="C" cx="0" cy="0" r="1" gradientTransform="matrix(175.406 0 0 175.439 922.509 -34.612)" gradientUnits="userSpaceOnUse">
            <stop stop-color="#E600FF"/>
            <stop offset=".354" stop-color="#F0579A"/>
            <stop offset=".67" stop-color="#F89F47"/>
            <stop offset=".892" stop-color="#FDCC14"/>
            <stop offset="1" stop-color="#FD0"/>
        </radialGradient>
        <radialGradient id="D" cx="0" cy="0" r="1" gradientTransform="matrix(175.406 0 0 175.44 922.509 -34.612)" gradientUnits="userSpaceOnUse">
            <stop stop-color="#E600FF"/>
            <stop offset=".354" stop-color="#F0579A"/>
            <stop offset=".67" stop-color="#F89F47"/>
            <stop offset=".892" stop-color="#FDCC14"/>
            <stop offset="1" stop-color="#FD0"/>
        </radialGradient>
        <radialGradient id="E" cx="0" cy="0" r="1" gradientTransform="matrix(175.406 0 0 175.44 922.509 -34.612)" gradientUnits="userSpaceOnUse">
            <stop stop-color="#E600FF"/>
            <stop offset=".354" stop-color="#F0579A"/>
            <stop offset=".67" stop-color="#F89F47"/>
            <stop offset=".892" stop-color="#FDCC14"/>
            <stop offset="1" stop-color="#FD0"/>
        </radialGradient>
        <radialGradient id="F" cx="0" cy="0" r="1" gradientTransform="matrix(175.407 0 0 175.44 922.509 -34.612)" gradientUnits="userSpaceOnUse">
            <stop stop-color="#E600FF"/>
            <stop offset=".354" stop-color="#F0579A"/>
            <stop offset=".67" stop-color="#F89F47"/>
            <stop offset=".892" stop-color="#FDCC14"/>
            <stop offset="1" stop-color="#FD0"/>
        </radialGradient>
        <radialGradient id="G" cx="0" cy="0" r="1" gradientTransform="matrix(175.407 0 0 175.442 922.509 -34.613)" gradientUnits="userSpaceOnUse">
            <stop stop-color="#E600FF"/>
            <stop offset=".354" stop-color="#F0579A"/>
            <stop offset=".67" stop-color="#F89F47"/>
            <stop offset=".892" stop-color="#FDCC14"/>
            <stop offset="1" stop-color="#FD0"/>
        </radialGradient>
        <radialGradient id="H" cx="0" cy="0" r="1" gradientTransform="matrix(175.404 0 0 175.44 922.511 -34.612)" gradientUnits="userSpaceOnUse">
            <stop stop-color="#E600FF"/>
            <stop offset=".354" stop-color="#F0579A"/>
            <stop offset=".67" stop-color="#F89F47"/>
            <stop offset=".892" stop-color="#FDCC14"/>
            <stop offset="1" stop-color="#FD0"/>
        </radialGradient>
        <radialGradient id="I" cx="0" cy="0" r="1" gradientTransform="matrix(175.404 0 0 175.441 922.51 -34.613)" gradientUnits="userSpaceOnUse">
            <stop stop-color="#E600FF"/>
            <stop offset=".354" stop-color="#F0579A"/>
            <stop offset=".67" stop-color="#F89F47"/>
            <stop offset=".892" stop-color="#FDCC14"/>
            <stop offset="1" stop-color="#FD0"/>
        </radialGradient>
        <radialGradient id="J" cx="0" cy="0" r="1" gradientTransform="matrix(175.404 0 0 175.439 922.51 -34.612)" gradientUnits="userSpaceOnUse">
            <stop stop-color="#E600FF"/>
            <stop offset=".354" stop-color="#F0579A"/>
            <stop offset=".67" stop-color="#F89F47"/>
            <stop offset=".892" stop-color="#FDCC14"/>
            <stop offset="1" stop-color="#FD0"/>
        </radialGradient>
        <radialGradient id="K" cx="0" cy="0" r="1" gradientTransform="matrix(175.404 0 0 175.44 922.51 -34.612)" gradientUnits="userSpaceOnUse">
            <stop stop-color="#E600FF"/>
            <stop offset=".354" stop-color="#F0579A"/>
            <stop offset=".67" stop-color="#F89F47"/>
            <stop offset=".892" stop-color="#FDCC14"/>
            <stop offset="1" stop-color="#FD0"/>
        </radialGradient>
        <radialGradient id="L" cx="0" cy="0" r="1" gradientTransform="matrix(175.403 0 0 175.44 922.51 -34.612)" gradientUnits="userSpaceOnUse">
            <stop stop-color="#E600FF"/>
            <stop offset=".354" stop-color="#F0579A"/>
            <stop offset=".67" stop-color="#F89F47"/>
            <stop offset=".892" stop-color="#FDCC14"/>
            <stop offset="1" stop-color="#FD0"/>
        </radialGradient>
        <radialGradient id="M" cx="0" cy="0" r="1" gradientTransform="matrix(175.405 0 0 175.44 922.51 -34.612)" gradientUnits="userSpaceOnUse">
            <stop stop-color="#E600FF"/>
            <stop offset=".354" stop-color="#F0579A"/>
            <stop offset=".67" stop-color="#F89F47"/>
            <stop offset=".892" stop-color="#FDCC14"/>
            <stop offset="1" stop-color="#FD0"/>
        </radialGradient>
        <radialGradient id="N" cx="0" cy="0" r="1" gradientTransform="matrix(175.405 0 0 175.443 922.51 -34.613)" gradientUnits="userSpaceOnUse">
            <stop stop-color="#E600FF"/>
            <stop offset=".354" stop-color="#F0579A"/>
            <stop offset=".67" stop-color="#F89F47"/>
            <stop offset=".892" stop-color="#FDCC14"/>
            <stop offset="1" stop-color="#FD0"/>
        </radialGradient>
        <radialGradient id="O" cx="0" cy="0" r="1" gradientTransform="matrix(175.409 0 0 175.44 922.509 -34.612)" gradientUnits="userSpaceOnUse">
            <stop stop-color="#E600FF"/>
            <stop offset=".354" stop-color="#F0579A"/>
            <stop offset=".67" stop-color="#F89F47"/>
            <stop offset=".892" stop-color="#FDCC14"/>
            <stop offset="1" stop-color="#FD0"/>
        </radialGradient>
        <radialGradient id="P" cx="0" cy="0" r="1" gradientTransform="matrix(175.409 0 0 175.443 922.509 -34.613)" gradientUnits="userSpaceOnUse">
            <stop stop-color="#E600FF"/>
            <stop offset=".354" stop-color="#F0579A"/>
            <stop offset=".67" stop-color="#F89F47"/>
            <stop offset=".892" stop-color="#FDCC14"/>
            <stop offset="1" stop-color="#FD0"/>
        </radialGradient>
        <radialGradient id="Q" cx="0" cy="0" r="1" gradientTransform="matrix(175.408 0 0 175.439 922.509 -34.612)" gradientUnits="userSpaceOnUse">
            <stop stop-color="#E600FF"/>
            <stop offset=".354" stop-color="#F0579A"/>
            <stop offset=".67" stop-color="#F89F47"/>
            <stop offset=".892" stop-color="#FDCC14"/>
            <stop offset="1" stop-color="#FD0"/>
        </radialGradient>
        <radialGradient id="R" cx="0" cy="0" r="1" gradientTransform="matrix(175.408 0 0 175.44 922.509 -34.612)" gradientUnits="userSpaceOnUse">
            <stop stop-color="#E600FF"/>
            <stop offset=".354" stop-color="#F0579A"/>
            <stop offset=".67" stop-color="#F89F47"/>
            <stop offset=".892" stop-color="#FDCC14"/>
            <stop offset="1" stop-color="#FD0"/>
        </radialGradient>
        <radialGradient id="S" cx="0" cy="0" r="1" gradientTransform="matrix(175.408 0 0 175.44 922.509 -34.612)" gradientUnits="userSpaceOnUse">
            <stop stop-color="#E600FF"/>
            <stop offset=".354" stop-color="#F0579A"/>
            <stop offset=".67" stop-color="#F89F47"/>
            <stop offset=".892" stop-color="#FDCC14"/>
            <stop offset="1" stop-color="#FD0"/>
        </radialGradient>
        <radialGradient id="T" cx="0" cy="0" r="1" gradientTransform="matrix(175.409 0 0 175.44 922.509 -34.612)" gradientUnits="userSpaceOnUse">
            <stop stop-color="#E600FF"/>
            <stop offset=".354" stop-color="#F0579A"/>
            <stop offset=".67" stop-color="#F89F47"/>
            <stop offset=".892" stop-color="#FDCC14"/>
            <stop offset="1" stop-color="#FD0"/>
        </radialGradient>
        <radialGradient id="U" cx="0" cy="0" r="1" gradientTransform="matrix(175.409 0 0 175.442 922.509 -34.613)" gradientUnits="userSpaceOnUse">
            <stop stop-color="#E600FF"/>
            <stop offset=".354" stop-color="#F0579A"/>
            <stop offset=".67" stop-color="#F89F47"/>
            <stop offset=".892" stop-color="#FDCC14"/>
            <stop offset="1" stop-color="#FD0"/>
        </radialGradient>
        <radialGradient id="V" cx="0" cy="0" r="1" gradientTransform="matrix(175.404 0 0 175.44 922.51 -34.612)" gradientUnits="userSpaceOnUse">
            <stop stop-color="#E600FF"/>
            <stop offset=".354" stop-color="#F0579A"/>
            <stop offset=".67" stop-color="#F89F47"/>
            <stop offset=".892" stop-color="#FDCC14"/>
            <stop offset="1" stop-color="#FD0"/>
        </radialGradient>
        <radialGradient id="W" cx="0" cy="0" r="1" gradientTransform="matrix(175.404 0 0 175.443 922.509 -34.613)" gradientUnits="userSpaceOnUse">
            <stop stop-color="#E600FF"/>
            <stop offset=".354" stop-color="#F0579A"/>
            <stop offset=".67" stop-color="#F89F47"/>
            <stop offset=".892" stop-color="#FDCC14"/>
            <stop offset="1" stop-color="#FD0"/>
        </radialGradient>
        <radialGradient id="X" cx="0" cy="0" r="1" gradientTransform="matrix(175.404 0 0 175.439 922.509 -34.612)" gradientUnits="userSpaceOnUse">
            <stop stop-color="#E600FF"/>
            <stop offset=".354" stop-color="#F0579A"/>
            <stop offset=".67" stop-color="#F89F47"/>
            <stop offset=".892" stop-color="#FDCC14"/>
            <stop offset="1" stop-color="#FD0"/>
        </radialGradient>
        <radialGradient id="Y" cx="0" cy="0" r="1" gradientTransform="matrix(175.404 0 0 175.44 922.509 -34.612)" gradientUnits="userSpaceOnUse">
            <stop stop-color="#E600FF"/>
            <stop offset=".354" stop-color="#F0579A"/>
            <stop offset=".67" stop-color="#F89F47"/>
            <stop offset=".892" stop-color="#FDCC14"/>
            <stop offset="1" stop-color="#FD0"/>
        </radialGradient>
        <radialGradient id="Z" cx="0" cy="0" r="1" gradientTransform="matrix(175.404 0 0 175.44 922.509 -34.612)" gradientUnits="userSpaceOnUse">
            <stop stop-color="#E600FF"/>
            <stop offset=".354" stop-color="#F0579A"/>
            <stop offset=".67" stop-color="#F89F47"/>
            <stop offset=".892" stop-color="#FDCC14"/>
            <stop offset="1" stop-color="#FD0"/>
        </radialGradient>
        <radialGradient id="aa" cx="0" cy="0" r="1" gradientTransform="matrix(175.404 0 0 175.44 922.509 -34.612)" gradientUnits="userSpaceOnUse">
            <stop stop-color="#E600FF"/>
            <stop offset=".354" stop-color="#F0579A"/>
            <stop offset=".67" stop-color="#F89F47"/>
            <stop offset=".892" stop-color="#FDCC14"/>
            <stop offset="1" stop-color="#FD0"/>
        </radialGradient>
        <radialGradient id="ab" cx="0" cy="0" r="1" gradientTransform="matrix(175.404 0 0 175.442 922.509 -34.613)" gradientUnits="userSpaceOnUse">
            <stop stop-color="#E600FF"/>
            <stop offset=".354" stop-color="#F0579A"/>
            <stop offset=".67" stop-color="#F89F47"/>
            <stop offset=".892" stop-color="#FDCC14"/>
            <stop offset="1" stop-color="#FD0"/>
        </radialGradient>
        <radialGradient id="ac" cx="0" cy="0" r="1" gradientTransform="matrix(175.409 0 0 175.44 922.511 -34.612)" gradientUnits="userSpaceOnUse">
            <stop stop-color="#E600FF"/>
            <stop offset=".354" stop-color="#F0579A"/>
            <stop offset=".67" stop-color="#F89F47"/>
            <stop offset=".892" stop-color="#FDCC14"/>
            <stop offset="1" stop-color="#FD0"/>
        </radialGradient>
        <radialGradient id="ad" cx="0" cy="0" r="1" gradientTransform="matrix(175.409 0 0 175.441 922.51 -34.613)" gradientUnits="userSpaceOnUse">
            <stop stop-color="#E600FF"/>
            <stop offset=".354" stop-color="#F0579A"/>
            <stop offset=".67" stop-color="#F89F47"/>
            <stop offset=".892" stop-color="#FDCC14"/>
            <stop offset="1" stop-color="#FD0"/>
        </radialGradient>
        <radialGradient id="ae" cx="0" cy="0" r="1" gradientTransform="matrix(175.408 0 0 175.439 922.51 -34.612)" gradientUnits="userSpaceOnUse">
            <stop stop-color="#E600FF"/>
            <stop offset=".354" stop-color="#F0579A"/>
            <stop offset=".67" stop-color="#F89F47"/>
            <stop offset=".892" stop-color="#FDCC14"/>
            <stop offset="1" stop-color="#FD0"/>
        </radialGradient>
        <radialGradient id="af" cx="0" cy="0" r="1" gradientTransform="matrix(175.408 0 0 175.44 922.51 -34.612)" gradientUnits="userSpaceOnUse">
            <stop stop-color="#E600FF"/>
            <stop offset=".354" stop-color="#F0579A"/>
            <stop offset=".67" stop-color="#F89F47"/>
            <stop offset=".892" stop-color="#FDCC14"/>
            <stop offset="1" stop-color="#FD0"/>
        </radialGradient>
        <radialGradient id="ag" cx="0" cy="0" r="1" gradientTransform="matrix(175.408 0 0 175.44 922.51 -34.612)" gradientUnits="userSpaceOnUse">
            <stop stop-color="#E600FF"/>
            <stop offset=".354" stop-color="#F0579A"/>
            <stop offset=".67" stop-color="#F89F47"/>
            <stop offset=".892" stop-color="#FDCC14"/>
            <stop offset="1" stop-color="#FD0"/>
        </radialGradient>
        <radialGradient id="ah" cx="0" cy="0" r="1" gradientTransform="matrix(175.409 0 0 175.44 922.51 -34.612)" gradientUnits="userSpaceOnUse">
            <stop stop-color="#E600FF"/>
            <stop offset=".354" stop-color="#F0579A"/>
            <stop offset=".67" stop-color="#F89F47"/>
            <stop offset=".892" stop-color="#FDCC14"/>
            <stop offset="1" stop-color="#FD0"/>
        </radialGradient>
        <radialGradient id="ai" cx="0" cy="0" r="1" gradientTransform="matrix(175.409 0 0 175.442 922.51 -34.613)" gradientUnits="userSpaceOnUse">
            <stop stop-color="#E600FF"/>
            <stop offset=".354" stop-color="#F0579A"/>
            <stop offset=".67" stop-color="#F89F47"/>
            <stop offset=".892" stop-color="#FDCC14"/>
            <stop offset="1" stop-color="#FD0"/>
        </radialGradient>
        <radialGradient id="aj" cx="0" cy="0" r="1" gradientTransform="matrix(175.402 0 0 175.44 922.508 -34.612)" gradientUnits="userSpaceOnUse">
            <stop stop-color="#E600FF"/>
            <stop offset=".354" stop-color="#F0579A"/>
            <stop offset=".67" stop-color="#F89F47"/>
            <stop offset=".892" stop-color="#FDCC14"/>
            <stop offset="1" stop-color="#FD0"/>
        </radialGradient>
        <radialGradient id="ak" cx="0" cy="0" r="1" gradientTransform="matrix(175.402 0 0 175.443 922.508 -34.613)" gradientUnits="userSpaceOnUse">
            <stop stop-color="#E600FF"/>
            <stop offset=".354" stop-color="#F0579A"/>
            <stop offset=".67" stop-color="#F89F47"/>
            <stop offset=".892" stop-color="#FDCC14"/>
            <stop offset="1" stop-color="#FD0"/>
        </radialGradient>
        <radialGradient id="al" cx="0" cy="0" r="1" gradientTransform="matrix(175.401 0 0 175.439 922.508 -34.612)" gradientUnits="userSpaceOnUse">
            <stop stop-color="#E600FF"/>
            <stop offset=".354" stop-color="#F0579A"/>
            <stop offset=".67" stop-color="#F89F47"/>
            <stop offset=".892" stop-color="#FDCC14"/>
            <stop offset="1" stop-color="#FD0"/>
        </radialGradient>
        <radialGradient id="am" cx="0" cy="0" r="1" gradientTransform="matrix(175.401 0 0 175.44 922.508 -34.612)" gradientUnits="userSpaceOnUse">
            <stop stop-color="#E600FF"/>
            <stop offset=".354" stop-color="#F0579A"/>
            <stop offset=".67" stop-color="#F89F47"/>
            <stop offset=".892" stop-color="#FDCC14"/>
            <stop offset="1" stop-color="#FD0"/>
        </radialGradient>
        <radialGradient id="an" cx="0" cy="0" r="1" gradientTransform="matrix(175.401 0 0 175.44 922.508 -34.612)" gradientUnits="userSpaceOnUse">
            <stop stop-color="#E600FF"/>
            <stop offset=".354" stop-color="#F0579A"/>
            <stop offset=".67" stop-color="#F89F47"/>
            <stop offset=".892" stop-color="#FDCC14"/>
            <stop offset="1" stop-color="#FD0"/>
        </radialGradient>
        <radialGradient id="ao" cx="0" cy="0" r="1" gradientTransform="matrix(175.403 0 0 175.44 922.508 -34.612)" gradientUnits="userSpaceOnUse">
            <stop stop-color="#E600FF"/>
            <stop offset=".354" stop-color="#F0579A"/>
            <stop offset=".67" stop-color="#F89F47"/>
            <stop offset=".892" stop-color="#FDCC14"/>
            <stop offset="1" stop-color="#FD0"/>
        </radialGradient>
        <radialGradient id="ap" cx="0" cy="0" r="1" gradientTransform="matrix(175.402 0 0 175.442 922.508 -34.613)" gradientUnits="userSpaceOnUse">
            <stop stop-color="#E600FF"/>
            <stop offset=".354" stop-color="#F0579A"/>
            <stop offset=".67" stop-color="#F89F47"/>
            <stop offset=".892" stop-color="#FDCC14"/>
            <stop offset="1" stop-color="#FD0"/>
        </radialGradient>
        <radialGradient id="aq" cx="0" cy="0" r="1" gradientTransform="matrix(585.398 0 0 585.509 113.03 186.228)" gradientUnits="userSpaceOnUse">
            <stop stop-color="#00FFAE"/>
            <stop offset=".354" stop-color="#009ACE"/>
            <stop offset=".67" stop-color="#0047E8"/>
            <stop offset=".892" stop-color="#0014F9"/>
            <stop offset="1" stop-color="#00F"/>
        </radialGradient>
        <radialGradient id="ar" cx="0" cy="0" r="1" gradientTransform="matrix(585.398 0 0 585.509 113.03 186.228)" gradientUnits="userSpaceOnUse">
            <stop stop-color="#00FFAE"/>
            <stop offset=".354" stop-color="#009ACE"/>
            <stop offset=".67" stop-color="#0047E8"/>
            <stop offset=".892" stop-color="#0014F9"/>
            <stop offset="1" stop-color="#00F"/>
        </radialGradient>
        <radialGradient id="as" cx="0" cy="0" r="1" gradientTransform="matrix(585.398 0 0 585.509 113.03 186.228)" gradientUnits="userSpaceOnUse">
            <stop stop-color="#00FFAE"/>
            <stop offset=".354" stop-color="#009ACE"/>
            <stop offset=".67" stop-color="#0047E8"/>
            <stop offset=".892" stop-color="#0014F9"/>
            <stop offset="1" stop-color="#00F"/>
        </radialGradient>
        <radialGradient id="at" cx="0" cy="0" r="1" gradientTransform="matrix(585.397 0 0 585.508 113.03 186.227)" gradientUnits="userSpaceOnUse">
            <stop stop-color="#00FFAE"/>
            <stop offset=".354" stop-color="#009ACE"/>
            <stop offset=".67" stop-color="#0047E8"/>
            <stop offset=".892" stop-color="#0014F9"/>
            <stop offset="1" stop-color="#00F"/>
        </radialGradient>
        <radialGradient id="au" cx="0" cy="0" r="1" gradientTransform="matrix(585.397 0 0 585.508 113.03 186.228)" gradientUnits="userSpaceOnUse">
            <stop stop-color="#00FFAE"/>
            <stop offset=".354" stop-color="#009ACE"/>
            <stop offset=".67" stop-color="#0047E8"/>
            <stop offset=".892" stop-color="#0014F9"/>
            <stop offset="1" stop-color="#00F"/>
        </radialGradient>
        <radialGradient id="av" cx="0" cy="0" r="1" gradientTransform="matrix(585.399 0 0 585.51 113.03 186.227)" gradientUnits="userSpaceOnUse">
            <stop stop-color="#00FFAE"/>
            <stop offset=".354" stop-color="#009ACE"/>
            <stop offset=".67" stop-color="#0047E8"/>
            <stop offset=".892" stop-color="#0014F9"/>
            <stop offset="1" stop-color="#00F"/>
        </radialGradient>
        <radialGradient id="aw" cx="0" cy="0" r="1" gradientTransform="matrix(585.397 0 0 585.508 113.03 186.228)" gradientUnits="userSpaceOnUse">
            <stop stop-color="#00FFAE"/>
            <stop offset=".354" stop-color="#009ACE"/>
            <stop offset=".67" stop-color="#0047E8"/>
            <stop offset=".892" stop-color="#0014F9"/>
            <stop offset="1" stop-color="#00F"/>
        </radialGradient>
        <radialGradient id="ax" cx="0" cy="0" r="1" gradientTransform="matrix(585.398 0 0 585.509 113.03 186.227)" gradientUnits="userSpaceOnUse">
            <stop stop-color="#00FFAE"/>
            <stop offset=".354" stop-color="#009ACE"/>
            <stop offset=".67" stop-color="#0047E8"/>
            <stop offset=".892" stop-color="#0014F9"/>
            <stop offset="1" stop-color="#00F"/>
        </radialGradient>
        <radialGradient id="ay" cx="0" cy="0" r="1" gradientTransform="matrix(585.395 0 0 585.507 113.03 186.228)" gradientUnits="userSpaceOnUse">
            <stop stop-color="#00FFAE"/>
            <stop offset=".354" stop-color="#009ACE"/>
            <stop offset=".67" stop-color="#0047E8"/>
            <stop offset=".892" stop-color="#0014F9"/>
            <stop offset="1" stop-color="#00F"/>
        </radialGradient>
        <radialGradient id="az" cx="0" cy="0" r="1" gradientTransform="matrix(585.396 0 0 585.507 113.031 186.228)" gradientUnits="userSpaceOnUse">
            <stop stop-color="#00FFAE"/>
            <stop offset=".354" stop-color="#009ACE"/>
            <stop offset=".67" stop-color="#0047E8"/>
            <stop offset=".892" stop-color="#0014F9"/>
            <stop offset="1" stop-color="#00F"/>
        </radialGradient>
        <radialGradient id="aA" cx="0" cy="0" r="1" gradientTransform="matrix(328.198 0 0 328.261 40.398 167.237)" gradientUnits="userSpaceOnUse">
            <stop stop-color="#E600FF"/>
            <stop offset=".298" stop-color="#90F"/>
            <stop offset=".639" stop-color="#4700FF"/>
            <stop offset=".882" stop-color="#1400FF"/>
            <stop offset="1" stop-color="#00F"/>
        </radialGradient>
        <radialGradient id="aB" cx="0" cy="0" r="1" gradientTransform="translate(948.893 192.775) scale(97.0378)" gradientUnits="userSpaceOnUse">
            <stop stop-color="#00FFAE"/>
            <stop offset=".354" stop-color="#009ACE"/>
            <stop offset=".67" stop-color="#0047E8"/>
            <stop offset=".892" stop-color="#0014F9"/>
            <stop offset="1" stop-color="#00F"/>
        </radialGradient>
    </defs>
</svg>
