<svg xmlns="http://www.w3.org/2000/svg" width="537" height="618" fill="none" viewBox="0 0 537 618">
    <path fill="url(#a)" d="M113.543 391.201C51.434 391.201.97 441.674.97 503.795c0 62.121 50.464 112.594 112.573 112.594 62.109 0 112.573-50.473 112.573-112.594 0-62.121-50.464-112.594-112.573-112.594zm0 226.159C50.787 617.36 0 566.239 0 503.795c0-62.445 51.11-113.888 113.543-113.888 62.756 0 113.867 51.12 113.867 113.564 0 62.445-51.111 113.889-113.867 113.889z"/>
    <path fill="url(#b)" d="M113.543 398.966c-57.904 0-105.133 47.237-105.133 105.152s47.23 105.153 105.133 105.153c57.904 0 105.132-47.238 105.132-105.153 0-57.915-46.905-105.152-105.132-105.152zm0 211.275c-58.55 0-106.427-47.561-106.427-106.446 0-58.562 47.553-106.447 106.427-106.447 58.551 0 106.426 47.561 106.426 106.447 0 58.885-47.552 106.446-106.426 106.446z"/>
    <path fill="url(#c)" d="M113.543 406.731c-54.022 0-97.692 44.002-97.692 97.711 0 54.032 43.993 97.711 97.692 97.711 54.022 0 97.692-44.003 97.692-97.711.324-53.709-43.67-97.711-97.692-97.711zm0 196.716c-54.669 0-98.986-44.326-98.986-99.005 0-54.68 44.64-99.005 98.986-99.005 54.669 0 98.986 44.325 98.986 99.005 0 54.679-44.317 99.005-98.986 99.005z"/>
    <path fill="url(#d)" d="M113.543 414.496c-49.817 0-90.576 40.443-90.576 90.593 0 50.15 40.436 90.593 90.576 90.593 49.816 0 90.575-40.443 90.575-90.593 0-50.15-40.435-90.593-90.575-90.593zm0 182.157c-50.464 0-91.546-41.091-91.546-91.564 0-50.473 41.082-91.564 91.546-91.564 50.463 0 91.546 41.091 91.546 91.564 0 50.473-40.759 91.564-91.546 91.564z"/>
    <path fill="url(#e)" d="M113.543 422.585c-45.935 0-83.136 37.208-83.136 83.151 0 45.944 37.2 83.152 83.136 83.152 45.935 0 83.135-37.208 83.135-83.152 0-45.943-37.2-83.151-83.135-83.151zm0 167.273c-46.582 0-84.43-37.855-84.43-84.445 0-46.591 37.848-84.446 84.43-84.446 46.582 0 84.429 37.855 84.429 84.446 0 46.59-37.847 84.445-84.429 84.445z"/>
    <path fill="url(#f)" d="M113.543 430.35c-41.73 0-75.696 33.972-75.696 75.709 0 41.738 33.966 75.71 75.696 75.71 41.729 0 75.695-33.972 75.695-75.71 0-41.737-33.642-75.709-75.695-75.709zm0 152.713c-42.377 0-76.99-34.619-76.99-77.004 0-42.384 34.613-77.004 76.99-77.004 42.376 0 76.989 34.62 76.989 77.004 0 42.385-34.289 77.004-76.989 77.004z"/>
    <path fill="url(#g)" d="M113.544 438.115c-37.848 0-68.255 30.737-68.255 68.268 0 37.531 30.73 68.268 68.255 68.268 37.847 0 68.255-30.737 68.255-68.268 0-37.531-30.408-68.268-68.255-68.268zm0 138.154c-38.495 0-69.55-31.384-69.55-69.562 0-38.179 31.379-69.563 69.55-69.563 38.494 0 69.549 31.384 69.549 69.563 0 38.178-31.055 69.562-69.549 69.562z"/>
    <path fill="url(#h)" d="M113.543 445.88c-33.642 0-61.139 27.501-61.139 61.15s27.497 61.15 61.139 61.15 61.139-27.501 61.139-61.15-27.173-61.15-61.139-61.15zm0 123.271c-34.29 0-62.109-27.825-62.109-62.121 0-34.296 27.82-62.121 62.109-62.121s62.109 27.825 62.109 62.121c.324 34.296-27.496 62.121-62.109 62.121z"/>
    <path fill="url(#i)" d="M113.544 453.645c-29.761 0-53.699 23.942-53.699 53.709 0 29.766 23.938 53.708 53.699 53.708 29.76 0 53.698-23.942 53.698-53.708.324-29.443-23.938-53.709-53.698-53.709zm0 108.711c-30.408 0-54.993-24.589-54.993-55.002 0-30.414 24.585-55.003 54.993-55.003 30.407 0 54.992 24.589 54.992 55.003 0 30.413-24.585 55.002-54.992 55.002z"/>
    <path fill="url(#j)" d="M113.543 461.734c-25.555 0-46.258 20.707-46.258 46.267 0 25.56 20.703 46.267 46.258 46.267 25.556 0 46.259-20.707 46.259-46.267 0-25.56-20.38-46.267-46.259-46.267zm0 93.828c-26.202 0-47.552-21.354-47.552-47.561s21.35-47.561 47.552-47.561c26.203 0 47.553 21.354 47.553 47.561s-21.027 47.561-47.553 47.561z"/>
    <path fill="url(#k)" d="M482.02 474.008c.737-2.458 1.229-5.163 1.474-7.867l-39.328 39.336c2.704-.246 5.408-.738 7.866-1.475l29.988-29.994z"/>
    <path fill="url(#l)" d="M416.39 499.085c1.229.737 2.704 1.475 4.179 2.212l58.993-59.003c-.738-1.475-1.475-2.705-2.213-4.18l-60.959 60.971z"/>
    <path fill="url(#m)" d="M424.011 502.773c1.474.491 3.195.983 4.916 1.475l53.584-53.595c-.491-1.721-.983-3.196-1.474-4.917l-57.026 57.037z"/>
    <path fill="url(#n)" d="M433.105 504.985c1.966.246 3.932.492 5.899.492l44.736-44.745c0-1.966-.246-3.933-.492-5.9l-50.143 50.153z"/>
    <path fill="url(#o)" d="M421.061 421.397a44.61 44.61 0 0 0-12.536 8.85c-3.687 3.688-6.637 8.113-8.849 12.538l21.385-21.388z"/>
    <path fill="url(#p)" d="M410 494.168c1.229.983 2.212 1.966 3.441 2.95l61.696-61.708c-.983-1.229-1.72-2.459-2.949-3.442L410 494.168z"/>
    <path fill="url(#q)" d="M404.592 488.268c.984 1.229 1.967 2.212 2.95 3.441l62.434-62.445c-.983-.983-2.212-1.967-3.441-2.95l-61.943 61.954z"/>
    <path fill="url(#r)" d="M460.635 500.068c3.687-1.966 6.882-4.425 10.078-7.621 2.949-2.95 5.653-6.392 7.62-10.08l-17.698 17.701z"/>
    <path fill="url(#s)" d="M395.497 463.191c0 1.967.246 3.688.492 5.654l51.127-51.136c-1.967-.246-3.687-.492-5.654-.492l-45.965 45.974z"/>
    <path fill="url(#t)" d="M396.726 450.653c-.737 2.459-.983 4.917-1.229 7.622l40.804-40.811c-2.459.246-5.162.492-7.62 1.229l-31.955 31.96z"/>
    <path fill="url(#u)" d="M396.972 473.025c.492 1.721.983 3.196 1.475 4.671l57.518-57.528c-1.475-.738-3.196-1.23-4.671-1.475l-54.322 54.332z"/>
    <path fill="url(#v)" d="M400.168 481.384c.737 1.475 1.474 2.704 2.212 3.933l60.959-60.97c-1.229-.738-2.704-1.721-3.933-2.213l-59.238 59.25z"/>
    <path fill="url(#w)" d="M486.96 3.183c0 1.79-1.392 3.182-3.182 3.182s-3.182-1.392-3.182-3.182S481.988 0 483.778 0s3.182 1.591 3.182 3.183z"/>
    <path fill="url(#x)" d="M486.96 18.897c0 1.79-1.392 3.182-3.182 3.182s-3.182-1.392-3.182-3.182 1.392-3.183 3.182-3.183 3.182 1.392 3.182 3.183z"/>
    <path fill="url(#y)" d="M486.96 34.411c0 1.79-1.392 3.183-3.182 3.183s-3.182-1.392-3.182-3.183c0-1.79 1.392-3.182 3.182-3.182s3.182 1.392 3.182 3.182z"/>
    <path fill="url(#z)" d="M486.96 50.126c0 1.79-1.392 3.182-3.182 3.182s-3.182-1.392-3.182-3.182 1.392-3.183 3.182-3.183 3.182 1.392 3.182 3.183z"/>
    <path fill="url(#A)" d="M486.96 65.64c0 1.79-1.392 3.183-3.182 3.183s-3.182-1.392-3.182-3.183c0-1.79 1.392-3.182 3.182-3.182s3.182 1.392 3.182 3.182z"/>
    <path fill="url(#B)" d="M486.96 81.355c0 1.79-1.392 3.182-3.182 3.182s-3.182-1.392-3.182-3.182 1.392-3.183 3.182-3.183 3.182 1.392 3.182 3.183z"/>
    <path fill="url(#C)" d="M486.96 96.87c0 1.79-1.392 3.182-3.182 3.182s-3.182-1.393-3.182-3.183c0-1.79 1.392-3.182 3.182-3.182s3.182 1.392 3.182 3.182z"/>
    <path fill="url(#D)" d="M474.432 3.183c0 1.79-1.392 3.182-3.182 3.182s-3.182-1.392-3.182-3.182S469.46 0 471.25 0s3.182 1.591 3.182 3.183z"/>
    <path fill="url(#E)" d="M474.431 18.897c0 1.79-1.392 3.182-3.182 3.182-1.789 0-3.181-1.392-3.181-3.182s1.392-3.183 3.181-3.183c1.79 0 3.182 1.392 3.182 3.183z"/>
    <path fill="url(#F)" d="M474.431 34.411c0 1.79-1.392 3.183-3.182 3.183-1.789 0-3.181-1.392-3.181-3.183 0-1.79 1.392-3.182 3.181-3.182 1.79 0 3.182 1.392 3.182 3.182z"/>
    <path fill="url(#G)" d="M474.431 50.126c0 1.79-1.392 3.182-3.182 3.182-1.789 0-3.181-1.392-3.181-3.182s1.392-3.183 3.181-3.183c1.79 0 3.182 1.392 3.182 3.183z"/>
    <path fill="url(#H)" d="M474.431 65.64c0 1.79-1.392 3.183-3.182 3.183-1.789 0-3.181-1.392-3.181-3.183 0-1.79 1.392-3.182 3.181-3.182 1.79 0 3.182 1.392 3.182 3.182z"/>
    <path fill="url(#I)" d="M474.431 81.355c0 1.79-1.392 3.182-3.182 3.182-1.789 0-3.181-1.392-3.181-3.182s1.392-3.183 3.181-3.183c1.79 0 3.182 1.392 3.182 3.183z"/>
    <path fill="url(#J)" d="M474.431 96.87c0 1.79-1.392 3.182-3.182 3.182-1.789 0-3.181-1.392-3.181-3.183 0-1.79 1.392-3.182 3.181-3.182 1.79 0 3.182 1.392 3.182 3.183z"/>
    <path fill="url(#K)" d="M461.704 3.183c0 1.79-1.392 3.182-3.182 3.182s-3.182-1.392-3.182-3.182S456.732 0 458.522 0s3.182 1.591 3.182 3.183z"/>
    <path fill="url(#L)" d="M461.703 18.897c0 1.79-1.392 3.182-3.181 3.182-1.79 0-3.182-1.392-3.182-3.182s1.392-3.183 3.182-3.183c1.789 0 3.181 1.392 3.181 3.183z"/>
    <path fill="url(#M)" d="M461.703 34.411c0 1.79-1.392 3.183-3.181 3.183-1.79 0-3.182-1.392-3.182-3.183 0-1.79 1.392-3.182 3.182-3.182 1.789 0 3.181 1.392 3.181 3.182z"/>
    <path fill="url(#N)" d="M461.703 50.126c0 1.79-1.392 3.182-3.181 3.182-1.79 0-3.182-1.392-3.182-3.182s1.392-3.183 3.182-3.183c1.789 0 3.181 1.392 3.181 3.183z"/>
    <path fill="url(#O)" d="M461.703 65.64c0 1.79-1.392 3.183-3.181 3.183-1.79 0-3.182-1.392-3.182-3.183 0-1.79 1.392-3.182 3.182-3.182 1.789 0 3.181 1.392 3.181 3.182z"/>
    <path fill="url(#P)" d="M461.703 81.355c0 1.79-1.392 3.182-3.181 3.182-1.79 0-3.182-1.392-3.182-3.182s1.392-3.183 3.182-3.183c1.789 0 3.181 1.392 3.181 3.183z"/>
    <path fill="url(#Q)" d="M461.703 96.87c0 1.79-1.392 3.182-3.181 3.182-1.79 0-3.182-1.392-3.182-3.183 0-1.79 1.392-3.182 3.182-3.182 1.789 0 3.181 1.392 3.181 3.183z"/>
    <path fill="url(#R)" d="M445.993 6.365A3.183 3.183 0 1 0 445.992 0a3.183 3.183 0 0 0 .001 6.365z"/>
    <path fill="url(#S)" d="M445.992 22.08a3.182 3.182 0 1 0 0-6.365 3.182 3.182 0 0 0 0 6.364z"/>
    <path fill="url(#T)" d="M445.992 37.594a3.182 3.182 0 1 0 0-6.364 3.182 3.182 0 0 0 0 6.364z"/>
    <path fill="url(#U)" d="M449.174 50.126c0 1.79-1.392 3.182-3.182 3.182s-3.182-1.392-3.182-3.182 1.392-3.183 3.182-3.183 3.182 1.392 3.182 3.183z"/>
    <path fill="url(#V)" d="M445.992 68.823a3.182 3.182 0 1 0 0-6.364 3.182 3.182 0 0 0 0 6.364z"/>
    <path fill="url(#W)" d="M445.992 84.537a3.182 3.182 0 1 0 0-6.364 3.182 3.182 0 0 0 0 6.364z"/>
    <path fill="url(#X)" d="M445.992 100.052a3.182 3.182 0 1 0 0-6.364 3.182 3.182 0 0 0 0 6.364z"/>
    <path fill="url(#Y)" d="M433.464 6.365A3.183 3.183 0 1 0 433.463 0a3.183 3.183 0 0 0 .001 6.365z"/>
    <path fill="url(#Z)" d="M433.463 22.08a3.182 3.182 0 1 0 0-6.365 3.182 3.182 0 0 0 0 6.364z"/>
    <path fill="url(#aa)" d="M433.463 37.594a3.182 3.182 0 1 0 0-6.364 3.182 3.182 0 0 0 0 6.364z"/>
    <path fill="url(#ab)" d="M436.645 50.126c0 1.79-1.392 3.182-3.182 3.182-1.789 0-3.182-1.392-3.182-3.182s1.393-3.183 3.182-3.183c1.79 0 3.182 1.392 3.182 3.183z"/>
    <path fill="url(#ac)" d="M433.463 68.823a3.182 3.182 0 1 0 0-6.364 3.182 3.182 0 0 0 0 6.364z"/>
    <path fill="url(#ad)" d="M433.463 84.537a3.182 3.182 0 1 0 0-6.364 3.182 3.182 0 0 0 0 6.364z"/>
    <path fill="url(#ae)" d="M433.463 100.052a3.182 3.182 0 1 0 0-6.364 3.182 3.182 0 0 0 0 6.364z"/>
    <path fill="url(#af)" d="M420.736 6.365a3.182 3.182 0 1 0 0-6.364 3.182 3.182 0 0 0 0 6.364z"/>
    <path fill="url(#ag)" d="M420.736 22.08a3.182 3.182 0 1 0 0-6.366 3.182 3.182 0 0 0 0 6.365z"/>
    <path fill="url(#ah)" d="M420.736 37.594a3.182 3.182 0 1 0 0-6.365 3.182 3.182 0 0 0 0 6.365z"/>
    <path fill="url(#ai)" d="M423.918 50.126c0 1.79-1.392 3.182-3.182 3.182s-3.182-1.392-3.182-3.182 1.392-3.183 3.182-3.183 3.182 1.392 3.182 3.183z"/>
    <path fill="url(#aj)" d="M420.736 68.823a3.183 3.183 0 1 0-.001-6.365 3.183 3.183 0 0 0 .001 6.365z"/>
    <path fill="url(#ak)" d="M420.736 84.537a3.183 3.183 0 1 0-.001-6.365 3.183 3.183 0 0 0 .001 6.365z"/>
    <path fill="url(#al)" d="M420.736 100.052a3.182 3.182 0 1 0 0-6.365 3.182 3.182 0 0 0 0 6.365z"/>
    <path fill="url(#am)" d="M408.207 6.365a3.182 3.182 0 0 0 3.181-3.182 3.182 3.182 0 1 0-3.181 3.182z"/>
    <path fill="url(#an)" d="M408.207 22.08a3.182 3.182 0 1 0 0-6.366 3.182 3.182 0 0 0 0 6.365z"/>
    <path fill="url(#ao)" d="M408.207 37.594a3.182 3.182 0 1 0 0-6.365 3.182 3.182 0 0 0 0 6.365z"/>
    <path fill="url(#ap)" d="M411.389 50.126c0 1.79-1.393 3.182-3.182 3.182-1.79 0-3.182-1.392-3.182-3.182s1.392-3.183 3.182-3.183c1.789 0 3.182 1.392 3.182 3.183z"/>
    <path fill="url(#aq)" d="M408.207 68.823a3.183 3.183 0 1 0-.001-6.365 3.183 3.183 0 0 0 .001 6.365z"/>
    <path fill="url(#ar)" d="M408.207 84.537a3.183 3.183 0 1 0-.001-6.365 3.183 3.183 0 0 0 .001 6.365z"/>
    <path fill="url(#as)" d="M408.207 100.052a3.182 3.182 0 1 0 0-6.365 3.182 3.182 0 0 0 0 6.365z"/>
    <path fill="url(#at)" d="M395.678 6.365A3.183 3.183 0 1 0 395.677 0a3.183 3.183 0 0 0 .001 6.365z"/>
    <path fill="url(#au)" d="M395.678 22.08a3.182 3.182 0 1 0 0-6.366 3.182 3.182 0 0 0 0 6.365z"/>
    <path fill="url(#av)" d="M395.678 37.594a3.183 3.183 0 1 0-.001-6.365 3.183 3.183 0 0 0 .001 6.365z"/>
    <path fill="url(#aw)" d="M398.86 50.126c0 1.79-1.392 3.182-3.182 3.182s-3.182-1.392-3.182-3.182 1.392-3.183 3.182-3.183 3.182 1.392 3.182 3.183z"/>
    <path fill="url(#ax)" d="M395.678 68.823a3.183 3.183 0 1 0-.001-6.365 3.183 3.183 0 0 0 .001 6.365z"/>
    <path fill="url(#ay)" d="M395.678 84.537a3.183 3.183 0 1 0-.001-6.365 3.183 3.183 0 0 0 .001 6.365z"/>
    <path fill="url(#az)" d="M395.678 100.052a3.182 3.182 0 1 0 0-6.365 3.182 3.182 0 0 0 0 6.365z"/>
    <path fill="url(#aA)" d="M537 207.268l-5.408-5.163-10.815 10.818-10.815-10.818-5.408 5.163 11.061 10.817-11.061 11.064 5.408 5.162 10.815-11.063 10.815 11.063 5.408-5.162-11.061-11.064L537 207.268z"/>
    <defs>
        <radialGradient id="a" cx="0" cy="0" r="1" gradientTransform="matrix(428.316 0 0 428.397 52.031 345.541)" gradientUnits="userSpaceOnUse">
            <stop stop-color="#00FFAE"/>
            <stop offset=".354" stop-color="#009ACE"/>
            <stop offset=".67" stop-color="#0047E8"/>
            <stop offset=".892" stop-color="#0014F9"/>
            <stop offset="1" stop-color="#00F"/>
        </radialGradient>
        <radialGradient id="b" cx="0" cy="0" r="1" gradientTransform="matrix(428.316 0 0 428.398 52.03 345.54)" gradientUnits="userSpaceOnUse">
            <stop stop-color="#00FFAE"/>
            <stop offset=".354" stop-color="#009ACE"/>
            <stop offset=".67" stop-color="#0047E8"/>
            <stop offset=".892" stop-color="#0014F9"/>
            <stop offset="1" stop-color="#00F"/>
        </radialGradient>
        <radialGradient id="c" cx="0" cy="0" r="1" gradientTransform="matrix(428.316 0 0 428.397 52.03 345.54)" gradientUnits="userSpaceOnUse">
            <stop stop-color="#00FFAE"/>
            <stop offset=".354" stop-color="#009ACE"/>
            <stop offset=".67" stop-color="#0047E8"/>
            <stop offset=".892" stop-color="#0014F9"/>
            <stop offset="1" stop-color="#00F"/>
        </radialGradient>
        <radialGradient id="d" cx="0" cy="0" r="1" gradientTransform="matrix(428.315 0 0 428.397 52.03 345.54)" gradientUnits="userSpaceOnUse">
            <stop stop-color="#00FFAE"/>
            <stop offset=".354" stop-color="#009ACE"/>
            <stop offset=".67" stop-color="#0047E8"/>
            <stop offset=".892" stop-color="#0014F9"/>
            <stop offset="1" stop-color="#00F"/>
        </radialGradient>
        <radialGradient id="e" cx="0" cy="0" r="1" gradientTransform="matrix(428.315 0 0 428.397 52.03 345.541)" gradientUnits="userSpaceOnUse">
            <stop stop-color="#00FFAE"/>
            <stop offset=".354" stop-color="#009ACE"/>
            <stop offset=".67" stop-color="#0047E8"/>
            <stop offset=".892" stop-color="#0014F9"/>
            <stop offset="1" stop-color="#00F"/>
        </radialGradient>
        <radialGradient id="f" cx="0" cy="0" r="1" gradientTransform="matrix(428.317 0 0 428.398 52.03 345.54)" gradientUnits="userSpaceOnUse">
            <stop stop-color="#00FFAE"/>
            <stop offset=".354" stop-color="#009ACE"/>
            <stop offset=".67" stop-color="#0047E8"/>
            <stop offset=".892" stop-color="#0014F9"/>
            <stop offset="1" stop-color="#00F"/>
        </radialGradient>
        <radialGradient id="g" cx="0" cy="0" r="1" gradientTransform="matrix(428.316 0 0 428.398 52.032 345.54)" gradientUnits="userSpaceOnUse">
            <stop stop-color="#00FFAE"/>
            <stop offset=".354" stop-color="#009ACE"/>
            <stop offset=".67" stop-color="#0047E8"/>
            <stop offset=".892" stop-color="#0014F9"/>
            <stop offset="1" stop-color="#00F"/>
        </radialGradient>
        <radialGradient id="h" cx="0" cy="0" r="1" gradientTransform="matrix(428.317 0 0 428.398 52.03 345.54)" gradientUnits="userSpaceOnUse">
            <stop stop-color="#00FFAE"/>
            <stop offset=".354" stop-color="#009ACE"/>
            <stop offset=".67" stop-color="#0047E8"/>
            <stop offset=".892" stop-color="#0014F9"/>
            <stop offset="1" stop-color="#00F"/>
        </radialGradient>
        <radialGradient id="i" cx="0" cy="0" r="1" gradientTransform="matrix(428.314 0 0 428.396 52.032 345.541)" gradientUnits="userSpaceOnUse">
            <stop stop-color="#00FFAE"/>
            <stop offset=".354" stop-color="#009ACE"/>
            <stop offset=".67" stop-color="#0047E8"/>
            <stop offset=".892" stop-color="#0014F9"/>
            <stop offset="1" stop-color="#00F"/>
        </radialGradient>
        <radialGradient id="j" cx="0" cy="0" r="1" gradientTransform="matrix(428.314 0 0 428.396 52.032 345.541)" gradientUnits="userSpaceOnUse">
            <stop stop-color="#00FFAE"/>
            <stop offset=".354" stop-color="#009ACE"/>
            <stop offset=".67" stop-color="#0047E8"/>
            <stop offset=".892" stop-color="#0014F9"/>
            <stop offset="1" stop-color="#00F"/>
        </radialGradient>
        <radialGradient id="k" cx="0" cy="0" r="1" gradientTransform="matrix(104.66 0 0 104.679 457.049 452.504)" gradientUnits="userSpaceOnUse">
            <stop stop-color="#E600FF"/>
            <stop offset=".298" stop-color="#90F"/>
            <stop offset=".639" stop-color="#4700FF"/>
            <stop offset=".882" stop-color="#1400FF"/>
            <stop offset="1" stop-color="#00F"/>
        </radialGradient>
        <radialGradient id="l" cx="0" cy="0" r="1" gradientTransform="matrix(168.109 0 0 168.141 437.083 416.21)" gradientUnits="userSpaceOnUse">
            <stop stop-color="#E600FF"/>
            <stop offset=".298" stop-color="#90F"/>
            <stop offset=".639" stop-color="#4700FF"/>
            <stop offset=".882" stop-color="#1400FF"/>
            <stop offset="1" stop-color="#00F"/>
        </radialGradient>
        <radialGradient id="m" cx="0" cy="0" r="1" gradientTransform="matrix(155.681 0 0 155.71 443.173 425.451)" gradientUnits="userSpaceOnUse">
            <stop stop-color="#E600FF"/>
            <stop offset=".298" stop-color="#90F"/>
            <stop offset=".639" stop-color="#4700FF"/>
            <stop offset=".882" stop-color="#1400FF"/>
            <stop offset="1" stop-color="#00F"/>
        </radialGradient>
        <radialGradient id="n" cx="0" cy="0" r="1" gradientTransform="matrix(134.749 0 0 134.775 449.691 437.275)" gradientUnits="userSpaceOnUse">
            <stop stop-color="#E600FF"/>
            <stop offset=".298" stop-color="#90F"/>
            <stop offset=".639" stop-color="#4700FF"/>
            <stop offset=".882" stop-color="#1400FF"/>
            <stop offset="1" stop-color="#00F"/>
        </radialGradient>
        <radialGradient id="o" cx="0" cy="0" r="1" gradientTransform="matrix(56.9086 0 0 56.9195 406.681 413.982)" gradientUnits="userSpaceOnUse">
            <stop stop-color="#E600FF"/>
            <stop offset=".298" stop-color="#90F"/>
            <stop offset=".639" stop-color="#4700FF"/>
            <stop offset=".882" stop-color="#1400FF"/>
            <stop offset="1" stop-color="#00F"/>
        </radialGradient>
        <radialGradient id="p" cx="0" cy="0" r="1" gradientTransform="matrix(173.342 0 0 173.375 431.336 409.382)" gradientUnits="userSpaceOnUse">
            <stop stop-color="#E600FF"/>
            <stop offset=".298" stop-color="#90F"/>
            <stop offset=".639" stop-color="#4700FF"/>
            <stop offset=".882" stop-color="#1400FF"/>
            <stop offset="1" stop-color="#00F"/>
        </radialGradient>
        <radialGradient id="q" cx="0" cy="0" r="1" gradientTransform="matrix(173.996 0 0 174.03 426.01 403.643)" gradientUnits="userSpaceOnUse">
            <stop stop-color="#E600FF"/>
            <stop offset=".298" stop-color="#90F"/>
            <stop offset=".639" stop-color="#4700FF"/>
            <stop offset=".882" stop-color="#1400FF"/>
            <stop offset="1" stop-color="#00F"/>
        </radialGradient>
        <radialGradient id="r" cx="0" cy="0" r="1" gradientTransform="matrix(47.0967 0 0 47.1055 466.432 476.231)" gradientUnits="userSpaceOnUse">
            <stop stop-color="#E600FF"/>
            <stop offset=".298" stop-color="#90F"/>
            <stop offset=".639" stop-color="#4700FF"/>
            <stop offset=".882" stop-color="#1400FF"/>
            <stop offset="1" stop-color="#00F"/>
        </radialGradient>
        <radialGradient id="s" cx="0" cy="0" r="1" gradientTransform="matrix(137.366 0 0 137.392 412.406 399.319)" gradientUnits="userSpaceOnUse">
            <stop stop-color="#E600FF"/>
            <stop offset=".298" stop-color="#90F"/>
            <stop offset=".639" stop-color="#4700FF"/>
            <stop offset=".882" stop-color="#1400FF"/>
            <stop offset="1" stop-color="#00F"/>
        </radialGradient>
        <radialGradient id="t" cx="0" cy="0" r="1" gradientTransform="matrix(108.584 0 0 108.605 408.863 403.316)" gradientUnits="userSpaceOnUse">
            <stop stop-color="#E600FF"/>
            <stop offset=".298" stop-color="#90F"/>
            <stop offset=".639" stop-color="#4700FF"/>
            <stop offset=".882" stop-color="#1400FF"/>
            <stop offset="1" stop-color="#00F"/>
        </radialGradient>
        <radialGradient id="u" cx="0" cy="0" r="1" gradientTransform="matrix(156.989 0 0 157.019 416.296 398.237)" gradientUnits="userSpaceOnUse">
            <stop stop-color="#E600FF"/>
            <stop offset=".298" stop-color="#90F"/>
            <stop offset=".639" stop-color="#4700FF"/>
            <stop offset=".882" stop-color="#1400FF"/>
            <stop offset="1" stop-color="#00F"/>
        </radialGradient>
        <radialGradient id="v" cx="0" cy="0" r="1" gradientTransform="matrix(168.109 0 0 168.141 420.86 400.23)" gradientUnits="userSpaceOnUse">
            <stop stop-color="#E600FF"/>
            <stop offset=".298" stop-color="#90F"/>
            <stop offset=".639" stop-color="#4700FF"/>
            <stop offset=".882" stop-color="#1400FF"/>
            <stop offset="1" stop-color="#00F"/>
        </radialGradient>
        <radialGradient id="w" cx="0" cy="0" r="1" gradientTransform="matrix(186.077 0 0 186.113 418.638 -36.587)" gradientUnits="userSpaceOnUse">
            <stop stop-color="#00FFAE"/>
            <stop offset=".354" stop-color="#009ACE"/>
            <stop offset=".67" stop-color="#0047E8"/>
            <stop offset=".892" stop-color="#0014F9"/>
            <stop offset="1" stop-color="#00F"/>
        </radialGradient>
        <radialGradient id="x" cx="0" cy="0" r="1" gradientTransform="matrix(186.076 0 0 186.113 418.638 -36.587)" gradientUnits="userSpaceOnUse">
            <stop stop-color="#00FFAE"/>
            <stop offset=".354" stop-color="#009ACE"/>
            <stop offset=".67" stop-color="#0047E8"/>
            <stop offset=".892" stop-color="#0014F9"/>
            <stop offset="1" stop-color="#00F"/>
        </radialGradient>
        <radialGradient id="y" cx="0" cy="0" r="1" gradientTransform="matrix(186.075 0 0 186.111 418.638 -36.587)" gradientUnits="userSpaceOnUse">
            <stop stop-color="#00FFAE"/>
            <stop offset=".354" stop-color="#009ACE"/>
            <stop offset=".67" stop-color="#0047E8"/>
            <stop offset=".892" stop-color="#0014F9"/>
            <stop offset="1" stop-color="#00F"/>
        </radialGradient>
        <radialGradient id="z" cx="0" cy="0" r="1" gradientTransform="matrix(186.078 0 0 186.115 418.638 -36.59)" gradientUnits="userSpaceOnUse">
            <stop stop-color="#00FFAE"/>
            <stop offset=".354" stop-color="#009ACE"/>
            <stop offset=".67" stop-color="#0047E8"/>
            <stop offset=".892" stop-color="#0014F9"/>
            <stop offset="1" stop-color="#00F"/>
        </radialGradient>
        <radialGradient id="A" cx="0" cy="0" r="1" gradientTransform="matrix(186.074 0 0 186.111 418.638 -36.587)" gradientUnits="userSpaceOnUse">
            <stop stop-color="#00FFAE"/>
            <stop offset=".354" stop-color="#009ACE"/>
            <stop offset=".67" stop-color="#0047E8"/>
            <stop offset=".892" stop-color="#0014F9"/>
            <stop offset="1" stop-color="#00F"/>
        </radialGradient>
        <radialGradient id="B" cx="0" cy="0" r="1" gradientTransform="matrix(186.075 0 0 186.111 418.638 -36.587)" gradientUnits="userSpaceOnUse">
            <stop stop-color="#00FFAE"/>
            <stop offset=".354" stop-color="#009ACE"/>
            <stop offset=".67" stop-color="#0047E8"/>
            <stop offset=".892" stop-color="#0014F9"/>
            <stop offset="1" stop-color="#00F"/>
        </radialGradient>
        <radialGradient id="C" cx="0" cy="0" r="1" gradientTransform="matrix(186.074 0 0 186.111 418.638 -36.587)" gradientUnits="userSpaceOnUse">
            <stop stop-color="#00FFAE"/>
            <stop offset=".354" stop-color="#009ACE"/>
            <stop offset=".67" stop-color="#0047E8"/>
            <stop offset=".892" stop-color="#0014F9"/>
            <stop offset="1" stop-color="#00F"/>
        </radialGradient>
        <radialGradient id="D" cx="0" cy="0" r="1" gradientTransform="matrix(186.077 0 0 186.113 418.639 -36.587)" gradientUnits="userSpaceOnUse">
            <stop stop-color="#00FFAE"/>
            <stop offset=".354" stop-color="#009ACE"/>
            <stop offset=".67" stop-color="#0047E8"/>
            <stop offset=".892" stop-color="#0014F9"/>
            <stop offset="1" stop-color="#00F"/>
        </radialGradient>
        <radialGradient id="E" cx="0" cy="0" r="1" gradientTransform="matrix(186.076 0 0 186.112 418.639 -36.587)" gradientUnits="userSpaceOnUse">
            <stop stop-color="#00FFAE"/>
            <stop offset=".354" stop-color="#009ACE"/>
            <stop offset=".67" stop-color="#0047E8"/>
            <stop offset=".892" stop-color="#0014F9"/>
            <stop offset="1" stop-color="#00F"/>
        </radialGradient>
        <radialGradient id="F" cx="0" cy="0" r="1" gradientTransform="matrix(186.075 0 0 186.11 418.639 -36.587)" gradientUnits="userSpaceOnUse">
            <stop stop-color="#00FFAE"/>
            <stop offset=".354" stop-color="#009ACE"/>
            <stop offset=".67" stop-color="#0047E8"/>
            <stop offset=".892" stop-color="#0014F9"/>
            <stop offset="1" stop-color="#00F"/>
        </radialGradient>
        <radialGradient id="G" cx="0" cy="0" r="1" gradientTransform="matrix(186.079 0 0 186.115 418.639 -36.59)" gradientUnits="userSpaceOnUse">
            <stop stop-color="#00FFAE"/>
            <stop offset=".354" stop-color="#009ACE"/>
            <stop offset=".67" stop-color="#0047E8"/>
            <stop offset=".892" stop-color="#0014F9"/>
            <stop offset="1" stop-color="#00F"/>
        </radialGradient>
        <radialGradient id="H" cx="0" cy="0" r="1" gradientTransform="matrix(186.074 0 0 186.11 418.639 -36.587)" gradientUnits="userSpaceOnUse">
            <stop stop-color="#00FFAE"/>
            <stop offset=".354" stop-color="#009ACE"/>
            <stop offset=".67" stop-color="#0047E8"/>
            <stop offset=".892" stop-color="#0014F9"/>
            <stop offset="1" stop-color="#00F"/>
        </radialGradient>
        <radialGradient id="I" cx="0" cy="0" r="1" gradientTransform="matrix(186.075 0 0 186.11 418.639 -36.587)" gradientUnits="userSpaceOnUse">
            <stop stop-color="#00FFAE"/>
            <stop offset=".354" stop-color="#009ACE"/>
            <stop offset=".67" stop-color="#0047E8"/>
            <stop offset=".892" stop-color="#0014F9"/>
            <stop offset="1" stop-color="#00F"/>
        </radialGradient>
        <radialGradient id="J" cx="0" cy="0" r="1" gradientTransform="matrix(186.075 0 0 186.11 418.639 -36.587)" gradientUnits="userSpaceOnUse">
            <stop stop-color="#00FFAE"/>
            <stop offset=".354" stop-color="#009ACE"/>
            <stop offset=".67" stop-color="#0047E8"/>
            <stop offset=".892" stop-color="#0014F9"/>
            <stop offset="1" stop-color="#00F"/>
        </radialGradient>
        <radialGradient id="K" cx="0" cy="0" r="1" gradientTransform="matrix(186.076 0 0 186.112 418.64 -36.587)" gradientUnits="userSpaceOnUse">
            <stop stop-color="#00FFAE"/>
            <stop offset=".354" stop-color="#009ACE"/>
            <stop offset=".67" stop-color="#0047E8"/>
            <stop offset=".892" stop-color="#0014F9"/>
            <stop offset="1" stop-color="#00F"/>
        </radialGradient>
        <radialGradient id="L" cx="0" cy="0" r="1" gradientTransform="matrix(186.075 0 0 186.111 418.639 -36.587)" gradientUnits="userSpaceOnUse">
            <stop stop-color="#00FFAE"/>
            <stop offset=".354" stop-color="#009ACE"/>
            <stop offset=".67" stop-color="#0047E8"/>
            <stop offset=".892" stop-color="#0014F9"/>
            <stop offset="1" stop-color="#00F"/>
        </radialGradient>
        <radialGradient id="M" cx="0" cy="0" r="1" gradientTransform="matrix(186.074 0 0 186.11 418.639 -36.587)" gradientUnits="userSpaceOnUse">
            <stop stop-color="#00FFAE"/>
            <stop offset=".354" stop-color="#009ACE"/>
            <stop offset=".67" stop-color="#0047E8"/>
            <stop offset=".892" stop-color="#0014F9"/>
            <stop offset="1" stop-color="#00F"/>
        </radialGradient>
        <radialGradient id="N" cx="0" cy="0" r="1" gradientTransform="matrix(186.078 0 0 186.115 418.639 -36.59)" gradientUnits="userSpaceOnUse">
            <stop stop-color="#00FFAE"/>
            <stop offset=".354" stop-color="#009ACE"/>
            <stop offset=".67" stop-color="#0047E8"/>
            <stop offset=".892" stop-color="#0014F9"/>
            <stop offset="1" stop-color="#00F"/>
        </radialGradient>
        <radialGradient id="O" cx="0" cy="0" r="1" gradientTransform="matrix(186.073 0 0 186.11 418.639 -36.587)" gradientUnits="userSpaceOnUse">
            <stop stop-color="#00FFAE"/>
            <stop offset=".354" stop-color="#009ACE"/>
            <stop offset=".67" stop-color="#0047E8"/>
            <stop offset=".892" stop-color="#0014F9"/>
            <stop offset="1" stop-color="#00F"/>
        </radialGradient>
        <radialGradient id="P" cx="0" cy="0" r="1" gradientTransform="matrix(186.074 0 0 186.109 418.639 -36.587)" gradientUnits="userSpaceOnUse">
            <stop stop-color="#00FFAE"/>
            <stop offset=".354" stop-color="#009ACE"/>
            <stop offset=".67" stop-color="#0047E8"/>
            <stop offset=".892" stop-color="#0014F9"/>
            <stop offset="1" stop-color="#00F"/>
        </radialGradient>
        <radialGradient id="Q" cx="0" cy="0" r="1" gradientTransform="matrix(186.074 0 0 186.11 418.639 -36.587)" gradientUnits="userSpaceOnUse">
            <stop stop-color="#00FFAE"/>
            <stop offset=".354" stop-color="#009ACE"/>
            <stop offset=".67" stop-color="#0047E8"/>
            <stop offset=".892" stop-color="#0014F9"/>
            <stop offset="1" stop-color="#00F"/>
        </radialGradient>
        <radialGradient id="R" cx="0" cy="0" r="1" gradientTransform="matrix(186.073 0 0 186.109 418.641 -36.587)" gradientUnits="userSpaceOnUse">
            <stop stop-color="#00FFAE"/>
            <stop offset=".354" stop-color="#009ACE"/>
            <stop offset=".67" stop-color="#0047E8"/>
            <stop offset=".892" stop-color="#0014F9"/>
            <stop offset="1" stop-color="#00F"/>
        </radialGradient>
        <radialGradient id="S" cx="0" cy="0" r="1" gradientTransform="matrix(186.073 0 0 186.109 418.64 -36.587)" gradientUnits="userSpaceOnUse">
            <stop stop-color="#00FFAE"/>
            <stop offset=".354" stop-color="#009ACE"/>
            <stop offset=".67" stop-color="#0047E8"/>
            <stop offset=".892" stop-color="#0014F9"/>
            <stop offset="1" stop-color="#00F"/>
        </radialGradient>
        <radialGradient id="T" cx="0" cy="0" r="1" gradientTransform="matrix(186.073 0 0 186.108 418.64 -36.587)" gradientUnits="userSpaceOnUse">
            <stop stop-color="#00FFAE"/>
            <stop offset=".354" stop-color="#009ACE"/>
            <stop offset=".67" stop-color="#0047E8"/>
            <stop offset=".892" stop-color="#0014F9"/>
            <stop offset="1" stop-color="#00F"/>
        </radialGradient>
        <radialGradient id="U" cx="0" cy="0" r="1" gradientTransform="matrix(186.078 0 0 186.114 418.64 -36.59)" gradientUnits="userSpaceOnUse">
            <stop stop-color="#00FFAE"/>
            <stop offset=".354" stop-color="#009ACE"/>
            <stop offset=".67" stop-color="#0047E8"/>
            <stop offset=".892" stop-color="#0014F9"/>
            <stop offset="1" stop-color="#00F"/>
        </radialGradient>
        <radialGradient id="V" cx="0" cy="0" r="1" gradientTransform="matrix(186.073 0 0 186.109 418.64 -36.587)" gradientUnits="userSpaceOnUse">
            <stop stop-color="#00FFAE"/>
            <stop offset=".354" stop-color="#009ACE"/>
            <stop offset=".67" stop-color="#0047E8"/>
            <stop offset=".892" stop-color="#0014F9"/>
            <stop offset="1" stop-color="#00F"/>
        </radialGradient>
        <radialGradient id="W" cx="0" cy="0" r="1" gradientTransform="matrix(186.074 0 0 186.109 418.64 -36.587)" gradientUnits="userSpaceOnUse">
            <stop stop-color="#00FFAE"/>
            <stop offset=".354" stop-color="#009ACE"/>
            <stop offset=".67" stop-color="#0047E8"/>
            <stop offset=".892" stop-color="#0014F9"/>
            <stop offset="1" stop-color="#00F"/>
        </radialGradient>
        <radialGradient id="X" cx="0" cy="0" r="1" gradientTransform="matrix(186.074 0 0 186.11 418.64 -36.587)" gradientUnits="userSpaceOnUse">
            <stop stop-color="#00FFAE"/>
            <stop offset=".354" stop-color="#009ACE"/>
            <stop offset=".67" stop-color="#0047E8"/>
            <stop offset=".892" stop-color="#0014F9"/>
            <stop offset="1" stop-color="#00F"/>
        </radialGradient>
        <radialGradient id="Y" cx="0" cy="0" r="1" gradientTransform="matrix(186.074 0 0 186.109 418.64 -36.587)" gradientUnits="userSpaceOnUse">
            <stop stop-color="#00FFAE"/>
            <stop offset=".354" stop-color="#009ACE"/>
            <stop offset=".67" stop-color="#0047E8"/>
            <stop offset=".892" stop-color="#0014F9"/>
            <stop offset="1" stop-color="#00F"/>
        </radialGradient>
        <radialGradient id="Z" cx="0" cy="0" r="1" gradientTransform="matrix(186.073 0 0 186.109 418.64 -36.587)" gradientUnits="userSpaceOnUse">
            <stop stop-color="#00FFAE"/>
            <stop offset=".354" stop-color="#009ACE"/>
            <stop offset=".67" stop-color="#0047E8"/>
            <stop offset=".892" stop-color="#0014F9"/>
            <stop offset="1" stop-color="#00F"/>
        </radialGradient>
        <radialGradient id="aa" cx="0" cy="0" r="1" gradientTransform="matrix(186.073 0 0 186.108 418.64 -36.587)" gradientUnits="userSpaceOnUse">
            <stop stop-color="#00FFAE"/>
            <stop offset=".354" stop-color="#009ACE"/>
            <stop offset=".67" stop-color="#0047E8"/>
            <stop offset=".892" stop-color="#0014F9"/>
            <stop offset="1" stop-color="#00F"/>
        </radialGradient>
        <radialGradient id="ab" cx="0" cy="0" r="1" gradientTransform="matrix(186.078 0 0 186.114 418.64 -36.59)" gradientUnits="userSpaceOnUse">
            <stop stop-color="#00FFAE"/>
            <stop offset=".354" stop-color="#009ACE"/>
            <stop offset=".67" stop-color="#0047E8"/>
            <stop offset=".892" stop-color="#0014F9"/>
            <stop offset="1" stop-color="#00F"/>
        </radialGradient>
        <radialGradient id="ac" cx="0" cy="0" r="1" gradientTransform="matrix(186.073 0 0 186.109 418.64 -36.587)" gradientUnits="userSpaceOnUse">
            <stop stop-color="#00FFAE"/>
            <stop offset=".354" stop-color="#009ACE"/>
            <stop offset=".67" stop-color="#0047E8"/>
            <stop offset=".892" stop-color="#0014F9"/>
            <stop offset="1" stop-color="#00F"/>
        </radialGradient>
        <radialGradient id="ad" cx="0" cy="0" r="1" gradientTransform="matrix(186.074 0 0 186.109 418.64 -36.587)" gradientUnits="userSpaceOnUse">
            <stop stop-color="#00FFAE"/>
            <stop offset=".354" stop-color="#009ACE"/>
            <stop offset=".67" stop-color="#0047E8"/>
            <stop offset=".892" stop-color="#0014F9"/>
            <stop offset="1" stop-color="#00F"/>
        </radialGradient>
        <radialGradient id="ae" cx="0" cy="0" r="1" gradientTransform="matrix(186.074 0 0 186.109 418.64 -36.587)" gradientUnits="userSpaceOnUse">
            <stop stop-color="#00FFAE"/>
            <stop offset=".354" stop-color="#009ACE"/>
            <stop offset=".67" stop-color="#0047E8"/>
            <stop offset=".892" stop-color="#0014F9"/>
            <stop offset="1" stop-color="#00F"/>
        </radialGradient>
        <radialGradient id="af" cx="0" cy="0" r="1" gradientTransform="matrix(186.073 0 0 186.109 418.641 -36.587)" gradientUnits="userSpaceOnUse">
            <stop stop-color="#00FFAE"/>
            <stop offset=".354" stop-color="#009ACE"/>
            <stop offset=".67" stop-color="#0047E8"/>
            <stop offset=".892" stop-color="#0014F9"/>
            <stop offset="1" stop-color="#00F"/>
        </radialGradient>
        <radialGradient id="ag" cx="0" cy="0" r="1" gradientTransform="matrix(186.073 0 0 186.109 418.64 -36.587)" gradientUnits="userSpaceOnUse">
            <stop stop-color="#00FFAE"/>
            <stop offset=".354" stop-color="#009ACE"/>
            <stop offset=".67" stop-color="#0047E8"/>
            <stop offset=".892" stop-color="#0014F9"/>
            <stop offset="1" stop-color="#00F"/>
        </radialGradient>
        <radialGradient id="ah" cx="0" cy="0" r="1" gradientTransform="matrix(186.072 0 0 186.108 418.64 -36.587)" gradientUnits="userSpaceOnUse">
            <stop stop-color="#00FFAE"/>
            <stop offset=".354" stop-color="#009ACE"/>
            <stop offset=".67" stop-color="#0047E8"/>
            <stop offset=".892" stop-color="#0014F9"/>
            <stop offset="1" stop-color="#00F"/>
        </radialGradient>
        <radialGradient id="ai" cx="0" cy="0" r="1" gradientTransform="matrix(186.078 0 0 186.115 418.64 -36.59)" gradientUnits="userSpaceOnUse">
            <stop stop-color="#00FFAE"/>
            <stop offset=".354" stop-color="#009ACE"/>
            <stop offset=".67" stop-color="#0047E8"/>
            <stop offset=".892" stop-color="#0014F9"/>
            <stop offset="1" stop-color="#00F"/>
        </radialGradient>
        <radialGradient id="aj" cx="0" cy="0" r="1" gradientTransform="matrix(186.073 0 0 186.109 418.64 -36.587)" gradientUnits="userSpaceOnUse">
            <stop stop-color="#00FFAE"/>
            <stop offset=".354" stop-color="#009ACE"/>
            <stop offset=".67" stop-color="#0047E8"/>
            <stop offset=".892" stop-color="#0014F9"/>
            <stop offset="1" stop-color="#00F"/>
        </radialGradient>
        <radialGradient id="ak" cx="0" cy="0" r="1" gradientTransform="matrix(186.073 0 0 186.109 418.64 -36.587)" gradientUnits="userSpaceOnUse">
            <stop stop-color="#00FFAE"/>
            <stop offset=".354" stop-color="#009ACE"/>
            <stop offset=".67" stop-color="#0047E8"/>
            <stop offset=".892" stop-color="#0014F9"/>
            <stop offset="1" stop-color="#00F"/>
        </radialGradient>
        <radialGradient id="al" cx="0" cy="0" r="1" gradientTransform="matrix(186.073 0 0 186.109 418.64 -36.587)" gradientUnits="userSpaceOnUse">
            <stop stop-color="#00FFAE"/>
            <stop offset=".354" stop-color="#009ACE"/>
            <stop offset=".67" stop-color="#0047E8"/>
            <stop offset=".892" stop-color="#0014F9"/>
            <stop offset="1" stop-color="#00F"/>
        </radialGradient>
        <radialGradient id="am" cx="0" cy="0" r="1" gradientTransform="matrix(186.074 0 0 186.109 418.64 -36.587)" gradientUnits="userSpaceOnUse">
            <stop stop-color="#00FFAE"/>
            <stop offset=".354" stop-color="#009ACE"/>
            <stop offset=".67" stop-color="#0047E8"/>
            <stop offset=".892" stop-color="#0014F9"/>
            <stop offset="1" stop-color="#00F"/>
        </radialGradient>
        <radialGradient id="an" cx="0" cy="0" r="1" gradientTransform="matrix(186.073 0 0 186.109 418.64 -36.587)" gradientUnits="userSpaceOnUse">
            <stop stop-color="#00FFAE"/>
            <stop offset=".354" stop-color="#009ACE"/>
            <stop offset=".67" stop-color="#0047E8"/>
            <stop offset=".892" stop-color="#0014F9"/>
            <stop offset="1" stop-color="#00F"/>
        </radialGradient>
        <radialGradient id="ao" cx="0" cy="0" r="1" gradientTransform="matrix(186.073 0 0 186.108 418.64 -36.587)" gradientUnits="userSpaceOnUse">
            <stop stop-color="#00FFAE"/>
            <stop offset=".354" stop-color="#009ACE"/>
            <stop offset=".67" stop-color="#0047E8"/>
            <stop offset=".892" stop-color="#0014F9"/>
            <stop offset="1" stop-color="#00F"/>
        </radialGradient>
        <radialGradient id="ap" cx="0" cy="0" r="1" gradientTransform="matrix(186.079 0 0 186.115 418.64 -36.59)" gradientUnits="userSpaceOnUse">
            <stop stop-color="#00FFAE"/>
            <stop offset=".354" stop-color="#009ACE"/>
            <stop offset=".67" stop-color="#0047E8"/>
            <stop offset=".892" stop-color="#0014F9"/>
            <stop offset="1" stop-color="#00F"/>
        </radialGradient>
        <radialGradient id="aq" cx="0" cy="0" r="1" gradientTransform="matrix(186.073 0 0 186.109 418.64 -36.587)" gradientUnits="userSpaceOnUse">
            <stop stop-color="#00FFAE"/>
            <stop offset=".354" stop-color="#009ACE"/>
            <stop offset=".67" stop-color="#0047E8"/>
            <stop offset=".892" stop-color="#0014F9"/>
            <stop offset="1" stop-color="#00F"/>
        </radialGradient>
        <radialGradient id="ar" cx="0" cy="0" r="1" gradientTransform="matrix(186.074 0 0 186.11 418.64 -36.587)" gradientUnits="userSpaceOnUse">
            <stop stop-color="#00FFAE"/>
            <stop offset=".354" stop-color="#009ACE"/>
            <stop offset=".67" stop-color="#0047E8"/>
            <stop offset=".892" stop-color="#0014F9"/>
            <stop offset="1" stop-color="#00F"/>
        </radialGradient>
        <radialGradient id="as" cx="0" cy="0" r="1" gradientTransform="matrix(186.074 0 0 186.109 418.64 -36.587)" gradientUnits="userSpaceOnUse">
            <stop stop-color="#00FFAE"/>
            <stop offset=".354" stop-color="#009ACE"/>
            <stop offset=".67" stop-color="#0047E8"/>
            <stop offset=".892" stop-color="#0014F9"/>
            <stop offset="1" stop-color="#00F"/>
        </radialGradient>
        <radialGradient id="at" cx="0" cy="0" r="1" gradientTransform="matrix(186.074 0 0 186.109 418.64 -36.587)" gradientUnits="userSpaceOnUse">
            <stop stop-color="#00FFAE"/>
            <stop offset=".354" stop-color="#009ACE"/>
            <stop offset=".67" stop-color="#0047E8"/>
            <stop offset=".892" stop-color="#0014F9"/>
            <stop offset="1" stop-color="#00F"/>
        </radialGradient>
        <radialGradient id="au" cx="0" cy="0" r="1" gradientTransform="matrix(186.074 0 0 186.109 418.64 -36.587)" gradientUnits="userSpaceOnUse">
            <stop stop-color="#00FFAE"/>
            <stop offset=".354" stop-color="#009ACE"/>
            <stop offset=".67" stop-color="#0047E8"/>
            <stop offset=".892" stop-color="#0014F9"/>
            <stop offset="1" stop-color="#00F"/>
        </radialGradient>
        <radialGradient id="av" cx="0" cy="0" r="1" gradientTransform="matrix(186.073 0 0 186.108 418.64 -36.587)" gradientUnits="userSpaceOnUse">
            <stop stop-color="#00FFAE"/>
            <stop offset=".354" stop-color="#009ACE"/>
            <stop offset=".67" stop-color="#0047E8"/>
            <stop offset=".892" stop-color="#0014F9"/>
            <stop offset="1" stop-color="#00F"/>
        </radialGradient>
        <radialGradient id="aw" cx="0" cy="0" r="1" gradientTransform="matrix(186.079 0 0 186.114 418.64 -36.59)" gradientUnits="userSpaceOnUse">
            <stop stop-color="#00FFAE"/>
            <stop offset=".354" stop-color="#009ACE"/>
            <stop offset=".67" stop-color="#0047E8"/>
            <stop offset=".892" stop-color="#0014F9"/>
            <stop offset="1" stop-color="#00F"/>
        </radialGradient>
        <radialGradient id="ax" cx="0" cy="0" r="1" gradientTransform="matrix(186.074 0 0 186.109 418.64 -36.587)" gradientUnits="userSpaceOnUse">
            <stop stop-color="#00FFAE"/>
            <stop offset=".354" stop-color="#009ACE"/>
            <stop offset=".67" stop-color="#0047E8"/>
            <stop offset=".892" stop-color="#0014F9"/>
            <stop offset="1" stop-color="#00F"/>
        </radialGradient>
        <radialGradient id="ay" cx="0" cy="0" r="1" gradientTransform="matrix(186.075 0 0 186.109 418.64 -36.587)" gradientUnits="userSpaceOnUse">
            <stop stop-color="#00FFAE"/>
            <stop offset=".354" stop-color="#009ACE"/>
            <stop offset=".67" stop-color="#0047E8"/>
            <stop offset=".892" stop-color="#0014F9"/>
            <stop offset="1" stop-color="#00F"/>
        </radialGradient>
        <radialGradient id="az" cx="0" cy="0" r="1" gradientTransform="matrix(186.074 0 0 186.109 418.64 -36.587)" gradientUnits="userSpaceOnUse">
            <stop stop-color="#00FFAE"/>
            <stop offset=".354" stop-color="#009ACE"/>
            <stop offset=".67" stop-color="#0047E8"/>
            <stop offset=".892" stop-color="#0014F9"/>
            <stop offset="1" stop-color="#00F"/>
        </radialGradient>
        <radialGradient id="aA" cx="0" cy="0" r="1" gradientTransform="matrix(104.402 0 0 104.422 479.695 170.517)" gradientUnits="userSpaceOnUse">
            <stop stop-color="#E600FF"/>
            <stop offset=".298" stop-color="#90F"/>
            <stop offset=".639" stop-color="#4700FF"/>
            <stop offset=".882" stop-color="#1400FF"/>
            <stop offset="1" stop-color="#00F"/>
        </radialGradient>
    </defs>
</svg>
