<svg xmlns="http://www.w3.org/2000/svg" width="205.433" height="77.947" viewBox="0 0 205.433 77.947"><g transform="translate(-91.293 -117.872)"><g transform="translate(176.217 161.904)"><path d="M205.341,170.576a11.154,11.154,0,0,1,8.078,3.231,11.24,11.24,0,0,1,0,15.866,11.154,11.154,0,0,1-8.078,3.23H199.5v10.925h-6.554V170.576Zm0,16.2a5.038,5.038,0,0,0,0-10.07H199.5v10.07Z" transform="translate(-192.944 -170.576)" fill="#fff"/><path d="M240.467,181.949h6.127V205.7h-6.127V203.04c-1.474,2.231-3.849,3.323-7.08,3.323a8.585,8.585,0,0,1-6.457-2.612,10.031,10.031,0,0,1-2.52-7.219V181.949h6.127V195.77c0,3.184,1.855,4.894,4.7,4.894,3.184,0,5.225-1.947,5.225-5.89Z" transform="translate(-198.122 -172.447)" fill="#fff"/><path d="M254.951,203.828V170.576h6.127v33.252Z" transform="translate(-203.147 -170.576)" fill="#fff"/><path d="M280.245,170.576a11.154,11.154,0,0,1,8.078,3.231,11.239,11.239,0,0,1,0,15.866,11.154,11.154,0,0,1-8.078,3.23H274.4v10.925h-6.555V170.576Zm0,16.2a5.038,5.038,0,0,0,0-10.07H274.4v10.07Z" transform="translate(-205.269 -170.576)" fill="#fff"/><path d="M315.371,181.949H321.5V205.7h-6.127V203.04c-1.473,2.231-3.848,3.323-7.079,3.323a8.587,8.587,0,0,1-6.458-2.612,10.035,10.035,0,0,1-2.519-7.219V181.949h6.127V195.77c0,3.184,1.854,4.894,4.7,4.894,3.184,0,5.225-1.947,5.225-5.89Z" transform="translate(-210.447 -172.447)" fill="#fff"/><path d="M329.854,203.828V170.576h6.127v33.252Z" transform="translate(-215.473 -170.576)" fill="#fff"/></g><g transform="translate(91.293 117.872)"><path d="M124.9,117.872H91.293l3.75,19.611A32.538,32.538,0,0,1,124.9,117.872Z" transform="translate(-91.293 -117.872)" fill="#dd1b52"/><path d="M132.164,117.872h-.645c.22,0,.433.028.652.033Z" transform="translate(-97.912 -117.872)" fill="#dd1b52"/><path d="M104.015,184.4l4.139,21.646h34.252L139.6,191.365a32.559,32.559,0,0,1-35.584-6.968Z" transform="translate(-93.386 -128.819)" fill="#dd1b52"/><path d="M126.29,117.905c-.219-.005-.432-.033-.652-.033a32.538,32.538,0,0,0-29.856,19.611l6.878,35.967a32.532,32.532,0,1,0,23.63-55.545Z" transform="translate(-92.032 -117.872)" fill="#fdd600"/></g></g></svg>