<svg xmlns="http://www.w3.org/2000/svg" xmlns:xlink="http://www.w3.org/1999/xlink" height="480" width="640" id="flag-icon-css-af">
  <g fill-rule="evenodd" stroke-width="1pt">
    <path d="M0 0h640v480H0z"/>
    <path d="M426.662 0H640v480H426.662z" fill="#090"/>
    <path d="M213.336 0h213.34v480h-213.34z" fill="#bf0000"/>
  </g>
  <g transform="translate(.961 27.311) scale(1.06346)" fill="#fff" fill-rule="evenodd" stroke="#bd6b00" stroke-width=".5">
    <path d="M319.5 225.84l8.354.001c.031 3.157 1.881 6.549 4.48 8.493h-16.008c2.505-2.271 3.19-4.963 3.174-8.494z"/>
    <path d="M266.71 178.53l4.574 5.04 56.934.093 4.668-5.04-14.56-.186-7.094-4.947-22.868-.093-6.627 5.133H266.71z" stroke="none"/>
    <path d="M290.02 172.74l19.66-.02c2.662-1.408 3.492-5.902 3.479-8.416-.037-7.429-5.233-10.991-10.447-11.18-.7020FE4EA65"/>
    <path d="M257.66 242.83h84.469l-7.56-6.16H265.22l-7.56 6.16z" stroke="none"/>
    <path d="M296.39 219.69l1.54 4.62h3.499l-2.799-4.621h-2.24zm-1.96 4.62l.887 4.573 4.106.046-1.493-4.62h-3.5zm0485083AAC"/>
    <path fill="none" d="M289.39 211.66h3.313v7.607h-3.313z"/>
    <path d="M284.71 219.8h3.234l-.02-5.597c-.042-2.433 2.142-4.885 3.187-4.967 1.159-.044 2.867 2.297 2.924 4.770BE0847A1B" fill="none"/>
    <path d="M298.08 219.82l4.106.14 7.327 6.487v-3.827l-2.473-1.773v-3.034l-3.594-2.052v-3.268l-3.5-1.166v-4.434l-1.774-1.447-.092 14.374z" fill="none"/>
    <path d="M315.43 210.35h.98v7.047h-.98z"/>
    <g id="a">
      <path d="M257.32 186.53c-1.234-1.982-2.712 2.749-7.788 6.27-2.363 1.609-4.009 5.894-4.025 8.713-.077 1.937.21016E4F1AEA"/>
      <path d="M257.06 201.88a10.09 10.09 0 0 0-1.656-2.594c-.699-.792-1.525-1.457-2.438-1.781-.881-.325-1.779-.7510021D87AD7" fill="#bf0000"/>
      <path d="M249.82 192.39c-.484 3.356 1.385 4.473 3.148 5.123 1.825.648 3.322 2.606 4.093 4.378M245.3 203.44c.77 2.893 2.798 2.531 4.561 3.181 1.826.649 3.745 2.957 4.516 4.729" fill="none"/>
      <path d="M255.61 184.48l.925-.594 17.752 29.898-.924.594-17.753-29.898z"/>
      <path d="M257.52 183.29a2.046 2.046 0 1 1-4.092 0 2.046 2.046 0 1 1 4.092 0zm15.18-24.02h7.194v1.65H272.7zm0 001DD99AF5"/>
      <path d="M292.62 155.76c-1.521.64-2.688 2.377-3.406 4.375-.719 1.998-.992 4.267-.656 6.094v.031c.127.63.3 1.00981A48AEB" fill="#bd6b00" stroke="none"/>
      <path d="M295.19 157.73c-1.52.639-2.501 2.292-3.031 4.188-.53 1.895-.614 4.065-.281 5.874.26 1.284.934 1.962 022D562A10" fill="#bd6b00" stroke="none"/>
      <path d="M272.31 187.39h8.027v11.107h-8.027zm.47 17.46h7.747v2.333h-7.747zm-.19 4.1h7.933v8.68h-7.933zm-.56 10E15153AAD"/>
      <path d="M273.56 196.74c.048 1.299 1.518.72 1.518.066 0-2.004.027-4.17-.053-5.588-.01-1.045 2.49-.783 2.476-.04B85B0A9E" fill="none"/>
      <path d="M277.21 212.92h2.007v1.167h-2.007zm-3.5 0h1.96v1.167h-1.96z"/>
      <path d="M275.67 210.07h1.54v2.893h-1.54zm0 3.97h1.54v3.08h-1.54zm-31.68-75.07c.356 5.567-1.371 8.623-4.32 8.08AE2E4A74"/>
      <path d="M238.45 151.79c4.406 1.533 7.894-3.212 9.073-8.708-3.636 5.019-9.554 5.025-9.073 8.708zm-3.34 5.14c-03AF676A2C"/>
      <path d="M229.52 166.71c-3.265.26-1.804-9.638-1.802-18.857 1.2 8.617 4.467 16.505 1.802 18.857z"/>
      <path d="M230.65 166.26c2.205 1.106 6.156-.662 7.284-4.387-3.984 1.733-6.648.04-7.284 4.387zm25.63-22.13c-.580D3FB50AF1"/>
      <path d="M247.09 155.97c-2.67-3.204-.09-7.228 1.95-10.657-.438 5.102 1.3 7.94-1.95 10.657zm-1.18 5.29c-.301-30DB1BA5A4F"/>
      <path d="M244.79 161.33c-3.691-.418-2.159-6.686.487-10.17-1.114 4.807 1.95 8.15-.487 10.17z"/>
      <path d="M242.01 166.55c-4.202-1.858-1.509-7.127.07-10.238-.673 4.086 2.693 7.196-.07 10.238z"/>
      <path d="M242.84 166.06c2.205 2.879 6.501-.859 7.383-5.224-3.738 3.112-6.5 2.6-7.383 5.224zm-9.6 20.26c-.432-0B9046AAA4"/>
      <path d="M220.6 182.92c-1.215-1.269-.864-1.754.933-1.774 1.425-.09 4.25.873 5.32.093.983-.713.592-3.738 1.0280325C21AE7" stroke="none"/>
      <path d="M235.53 213.44c3.983.02 4.667-5.32 4.667-6.813-1.96.373-5.414 3.64-4.667 6.813zm34.42 51.82c2.833.640E319B9A42"/>
      <path d="M252.76 268.63c1.08 2.701-8.264 2.042-11.545.471 5.301-.046 10.802-2.353 11.545-.471z"/>
      <path d="M257.13 270.6c1.034 2.421-7.61 2.369-11.824 1.03 5.581-.045 10.801-3.426 11.824-1.03zm6.29 1.3c1.53106EC7DDAF1"/>
      <path d="M257.88 268.94c-2.433 2.156-4.379-5.246-6.594-9.399 3.58 3.954 8.84 7.609 6.594 9.399zm6.8 2.06c-2.00B84A6AAC1"/>
      <path d="M245.54 234.87c1.947 1.434 4.096-3.704 1.623-8.588-.078 4.701-3.815 6.28-1.623 8.588z"/>
      <path d="M247.41 239.58c2.693.827 3.536-3.937 1.763-7.747.295 4.093-4.234 6.56-1.763 7.747z"/>
      <path d="M249.46 243.36c2.6 1.295 3.585-3.518 1.716-7.092.204 4.56-3.72 5.904-1.716 7.092z"/>
      <path d="M248.39 243.65c-1.03 3.08-7.007-2.655-8.014-5.775 3.71 3.685 8.757 3.278 8.014 5.775z"/>
      <path d="M245.68 238.94c-1.171 3.08-8.687-4.85-10.348-8.668 3.71 3.685 11.184 6.498 10.348 8.668z"/>
      <path d="M244.19 234.32c-1.17 3.5-9.34-5.829-11.654-9.135 3.897 3.639 12.537 6.592 11.654 9.135zm-.26-3.46c2.0BBD788AF5"/>
      <path d="M239.08 228.53c1.242-1.353-1.19-1.929-4.203-5.31-.444 2.28 2.794 6.454 4.203 5.31zm13.92 15.2c1.574.0FBB018ADB"/>
      <path d="M221.65 228.04c-1.85 2.05-7.671-3.519-9.694-6.341 3.12 2.702 10.512 3.023 9.694 6.341z"/>
      <path d="M224.82 232.22c-.61 2.801-9.106-3.495-11.092-6.476 3.663 3.452 11.649 3.14 11.092 6.476z"/>
      <path d="M223.52 235.25c-1.31 2.522-8.22-3.727-9.88-6.987 4.223 3.685 10.95 4.493 9.88 6.987zm-3.55-12.28c2.1041B7BEA9B"/>
      <path d="M225.38 231.13c2.74-.62 1.95-4.497-.15-9.193.436 5.073-2.321 8.005.15 9.193zm-.93 7.67c-1.03 3.08-8.0F86AA6AE6"/>
      <path d="M229.12 243.61c-1.17 3.082-9.34-3.167-11.839-6.568 4.922 3.872 12.443 3.513 11.839 6.568z"/>
      <path d="M233.88 248.46c-1.31 4.294-9.853-2.56-12.399-5.915 5.436 4.151 13.096 2.86 12.399 5.915zm-8.03-11.030364824A2A"/>
      <path d="M229.81 242.66c2.788.828 1.904-6.27-.478-10.873-.309 4.561-2.366 8.892.478 10.873zm4.95 4.9c3.114.170D8B6EDA2E"/>
      <path d="M227.96 207.34c-2.873.23-4.366-2.594-5.023-6.993 2.725 4.054 5.203 2.79 5.023 6.993zm1.03-.35c3.694.06EED0BA98"/>
      <path d="M223.23 205.17c.295 2.807 2.07 7.634 4.926 6.55 1.181-3.448-2.513-4.137-4.926-6.55z"/>
      <path d="M229.04 212.02c-1.28-2.462 2.905-3.695 3.792-6.895.509 4.58.082 7.584-3.792 6.895zm-11.91-29.18c2.3-0E16D24A3F"/>
      <path d="M217.09 192.75c-4.225.362-6.742-8.739-6.874-12.318 1.313 4.859 7.366 7.5 6.874 12.318zm.81-.14c3.9730EE0563A85"/>
      <path d="M217.04 198c-4.646.788-4.32-6.56-8.009-11.893 3.191 3.96 8.936 8.95 8.009 11.893zm1.05-.25c3.507.1020624069AF8"/>
      <path d="M209.78 192.34c1.742 5.654 4.216 11.32 7.259 10.89 1.46-3.215-2.887-3.624-7.259-10.89z"/>
      <path d="M218.14 202.4c-1.28-2.462 2.905-3.695 3.792-6.895.509 4.58.082 7.584-3.792 6.895zm-7.16-3.6c2.487 5.03C0498AF0"/>
      <path d="M218.71 207.93c-1.467-2.695 2.719-3.648 3.745-7.362.556 4.86.036 8.33-3.745 7.362zm7.16-34.48c2.451.08B60DBAEE"/>
      <path d="M288.97 263.32c.949 1.788 2.038 4.51 4.013 4.013.03-1.37-2.131-2.318-4.013-4.013zm2.94.61c3.835 1.570333BEBA83" stroke="none"/>
    </g>
    <use transform="scale(-1 1)" xlink:href="#a" x="-600" width="100%" height="100%"/>
    <g stroke="none">
      <path d="M328.54 286.65c.047 1.181.188 2.131.888 3.08-4.076-1.633-9.831-.759-13.767 1.074-1.756.838-3.88-.9580260629AEA"/>
      <path d="M326.62 265.54c-.58.058-1.197.238-1.656.406-8.921 3.134-17.117 5.328-25.656 5.313-8.335-.016-17.066-0FD9B2FA96" fill="#bd6b00"/>
      <path d="M269.71 114.56c-.068-1.379 2.07-1.484 1.824.412-.313 2.362 4.459 8.342 4.854 12.029.265 2.473-1.453 06DB52AA6B"/>
      <path d="M318.96 114.6c-1.701-1.038.108-3.736.939-2.788 1.606 1.923 3.224 6.487 4.356 6.864.716.24.683-3.374 0BB772DACE"/>
      <path d="M322.03 131.2c-.474-.054-1.21 1.055 1.152 1.49 3.156.572 6.61-.491 7.67-3.586 1.212-3.687 2.013-7.1709A96CBAE9"/>
      <path d="M328.35 119.07c-.338-.725-1.127-.164-.986.63a1.197 1.197 0 0 0 1.25 1.086c.692-.024 2.155.023 2.159-025A3B3AF0"/>
      <path d="M330.18 133.04c-.219-.788-1.442-1.954-1.304.155.243 3.828 5.503 2.618 7.096 1.257 1.445-1.28.19 4.320103C75AA8"/>
      <path d="M339.57 125.93c.028-.216-1.112-.314-1.056.792.04.819 1.019 1.041 1.188.924 1.54-1.12-.328-.562-.132-0381D35A27"/>
      <path d="M344.61 138.38c.428-1.191 6.114-10.735 6.86-12.835.383-1.013 2.015 1.737.421 3.22-1.4 1.26-5.53 8.034-6.301 10.408-.355 1.072-1.432.562-.98-.793z"/>
      <path d="M354.28 129.28c1.05-3.935 3.593.607 1.353 2.847-3.458 3.387-4.5 9.854-9.987 10.827-1.479.318-4.082-.01B4B56AA6"/>
      <path d="M296.5 140.09c-1.448 1.266-2.79 1.784-4.123 3.384-.544.656-.529 1.57-.854 2.406-.326.888-1.375 1.062038F6B2A6E"/>
      <path d="M299.54 130.19l-1.458 5.594-2.03-3.75v3.844l-4.374-5.188 1.521 5.563-3.93-3.344 2.092 3.781-6.975-4.0D95FF2AC0"/>
    </g>
  </g>
  <path d="M311.3 294.91c0 .63-.094 1.541-.284 2.731h-.44c0-.81-.038-1.434-.114-1.87a9.256 9.256 0 0 0-.427-1.558 7.26 7.26 0 0 0-.576-1.294c-.209-.36-.543-.84-1.003-1.437l.882-2.176c.408.522.697.922.868 1.202.194.322.377.728.547 1.216a9.363 9.363 0 0 1 .548 3.186m6.912-4.211c0 .664-.125 1.162-.377 1.493-.25.332-.68.57-1.287.712.176.616.292 1.097.349 1.443.061.346.092.733.092 1.16 0 .274-.016.568-.05.881a22.48 22.48 0 0 1-.163 1.266h-.398a8.24 8.24 0 0 0-.079-1.223 5.528 5.528 0 0 0-.22-.974c-.024-.076-.15-.41-.377-1.003a10.525 10.525 0 0 0-.669-1.486c-.218-.399-.576-.946-1.073-1.643l.682-2.048c.36.516.676.874.946 1.073.27.195.59.292.96.292.806 0 1.21-.436 1.21-1.308h.412c0 .284.007.521.02.71.015.186.022.404.022.655m6.349 4.807l-.512 2.133c-.322-.09-.585-.343-.79-.76-.17-.347-.293-.785-.369-1.316a12.416 12.416 0 0 1-.107-1.65c-.431.114-.772.17-1.024.17-.498 0-.91-.13-1.237-.39a1.245 1.245 0 0 1-.484-1.003c0-.868.223-1.648.669-2.34.45-.697.957-1.045 1.522-1.046.436 0 .74.124.91.37a2 2 0 0 1 .348.925c.043.346.064 1.014.064 2.005 0 .887.072 1.513.214 1.878.114.284.379.626.796 1.024m-1.92-3.542c-.085-.54-.37-.81-.853-.81-.209 0-.4.056-.576.17-.176.114-.263.213-.263.299 0 .284.34.427 1.024.427.218 0 .44-.029.668-.086m8.641 3.01l-.256 2.589c-.507-.356-.976-.998-1.408-1.927-.45-.972-.905-2.35-1.365-4.132-.394 1.716-.719 2.975-.975 3.776-.25.796-.5 1.36-.746 1.693-.166.222-.432.448-.797.675l.057-2.475c.47-.64.799-1.128.989-1.465a7.63 7.63 0 0 0 .69-1.742c.184-.669.35-1.562.497-2.681h.47c.289 1.123.569 2.017.839 2.68.251.627.545 1.18.882 1.658.237.336.611.787 1.123 1.351" fill="#fff"/>
  <path d="M350.82 319.391c.345.405.588.803.728 1.193.136.385.234.935.295 1.65l-.772.064c-.328-.643-.648-1.147-.959-1.511-.236-.278-.62-.673-1.148-1.185a46.038 46.038 0 0 0-1.62-1.496 34.384 34.384 0 0 0-2.123-1.7c-.302-.224-.493-.384-.575-.48-.12-.141-.215-.42-.285-.834a11.21 11.21 0 0 1-.139-1.565l2.693 2.19a44.317 44.317 0 0 1 2.523 2.217c.513.493.973.98 1.38 1.457m-9.55-5.756l-.162 1.98-3.172-.085.239-2.021 3.094.126m8.343 8.866l-7.557 2.302-1.39-1.922 6.532-1.99c-.296-.41-.525-.696-.688-.86a2.834 2.834 0 0 0-.865-.59 1.423 1.423 0 0 1-.451.957c-.28.275-.64.48-1.083.615a3.379 3.379 0 0 1-1.741.073c-.58-.128-1.006-.38-1.279-.757-.402-.556-.618-1.295-.647-2.217-.034-1.013.244-1.61.832-1.788.762-.232 1.792-.02 3.091.636 1.299.656 2.296 1.464 2.991 2.425l2.255 3.116m-5.804-4.035c-.356-.162-.64-.262-.855-.3a1.135 1.135 0 0 0-.576.012.685.685 0 0 0-.45.37.493.493 0 0 0 .061.524c.078.109.21.18.395.216.19.029.39.011.6-.053.167-.05.311-.132.434-.245.127-.119.257-.293.391-.524m-8.095-1.547l-.462 1.96-3.143-.288.477-1.98 3.128.308m7.45 7.654l-1.679.385a5.29 5.29 0 0 1-1.704.126 3.559 3.559 0 0 1-1.513-.506c-.278.506-.766.93-1.464 1.272a7.41 7.41 0 0 1-1.613.552l-1.19.273-1.091-2.002 1.19-.273c.628-.144 1.056-.264 1.284-.36.233-.104.525-.278.876-.524-.385-.237-.695-.4-.93-.49-.288-.106-.54-.133-.76-.083a.402.402 0 0 0-.206.114.61.61 0 0 0-.126.26l-.523.07c-.484-.887-.594-1.574-.331-2.059.267-.492.912-.855 1.932-1.089 1.051-.241 1.949-.295 2.693-.162.749.126 1.25.422 1.504.888.137.25.188.509.155.776-.036.262-.166.64-.39 1.132.156.07.34.11.55.122a2 2 0 0 0 .567-.039l1.678-.385 1.09 2.002m-8.022 1.866l-1.637.257c-.912.143-1.66.003-2.247-.419-.652-.465-1.214-1.332-1.687-2.601l-.806-2.162c-.182-.491-.43-.856-.742-1.096-.15-.116-.455-.269-.913-.46l.556-2.094c.602.334 1.067.684 1.393 1.05.382.427.706.997.972 1.71l.556 1.495c.394 1.057.776 1.773 1.147 2.149.294.301.628.423 1.002.364l1.637-.256.769 2.063m-6.995-7.513l-1.057 1.86-2.99-.69 1.065-1.877 2.982.707m1.74 8.424l-7.458.675-.452-2.102 6.266-.568a2.322 2.322 0 0 0-.668-.846c-.148-.123-.475-.33-.983-.62l.557-1.926c.69.384 1.194.806 1.511 1.266.326.46.59 1.16.793 2.103l.434 2.018m-5.987.954c-.897-.03-1.639-.096-2.225-.199a10.49 10.49 0 0 1-1.722-.456 5.613 5.613 0 0 1-1.283.38c-.365.055-.913.07-1.641.047l-1.958-.065c-.537-.018-.954-.123-1.252-.316-.298-.192-.555-.502-.77-.932a4.117 4.117 0 0 1-1.551.887c-.477.145-1.04.207-1.689.186l-1.718-.057.168-2.12 1.718.057c.84.028 1.553-.102 2.138-.39.76-.376 1.173-.972 1.237-1.788l.787.104c-.029.166-.06.355-.093.568-.033.212-.06.449-.08.708-.02.265.102.49.368.677.266.186.58.285.94.297l1.478.049c.977.032 1.68-.033 2.11-.196.522-.196.806-.585.852-1.167.01-.125.079-.234.207-.33.076-.054.231-.135.464-.242l.475-.218c.009.099.01.235.005.406a8.87 8.87 0 0 1-.014.328c-.023.286-.117.663-.282 1.132.289.103.614.195.978.274.363.08.747.145 1.152.195.014-.177-.068-.409-.246-.696s-.263-.48-.255-.579a.522.522 0 0 1 .109-.309c.018-.025.112-.103.283-.233l1.092-.862c.19.335.319.638.386.912.075.268.096.602.065 1.002l-.233 2.946m-11.32-8.71l-1.884 1.333-1.42-.877-1.399 1.043-1.868-1.127 1.784-1.27 1.508.843 1.457-1.065 1.822 1.12m-2.962 8.119l-7.3-1.196.8-2.058 6.135 1.005c.048-.357.005-.673-.128-.947-.066-.15-.25-.422-.551-.815l1.634-1.648c.416.525.638 1.039.665 1.542.035.505-.127 1.219-.486 2.142l-.77 1.975m-6.145-.953l-1.579-.38c-.88-.211-1.38-.598-1.504-1.16-.14-.623.139-1.546.839-2.77l1.191-2.086c.27-.473.38-.866.327-1.178-.025-.15-.146-.388-.363-.712l2.264-1.536c.213.495.297.954.253 1.376-.051.493-.273 1.083-.666 1.77l-.824 1.442c-.583 1.02-.882 1.753-.897 2.199-.016.356.157.578.518.665l1.579.38-1.138 1.99m-3.739-7.901l-2.562 1.081-1.76-1.714 2.584-1.09 1.738 1.723m-1.09 6.62c-.532.629-1.056 1.101-1.57 1.417a4.24 4.24 0 0 1-1.714.582c-.626.08-1.419.043-2.378-.109a14.838 14.838 0 0 1-2.764-.691c-1.708-.609-2.854-1.282-3.438-2.018-.58-.73-.556-1.466.073-2.21a7.023 7.023 0 0 1 1.914-1.579c.813-.464 2.083-.99 3.809-1.581l.389.513c-1.348.522-2.278.918-2.79 1.187-.504.272-.912.592-1.225.961-.406.48-.344 1.012.184 1.598.54.584 1.452 1.105 2.739 1.564 1.265.45 2.463.673 3.593.666 1.131-.006 1.89-.238 2.276-.694.24-.282.4-.59.48-.924.088-.33.141-.89.16-1.68l2.491-1.515c.001.754-.034 1.26-.107 1.52-.125.472-.446 1.013-.963 1.624l-1.159 1.368" fill="#bf0000"/>
</svg>
