<svg xmlns="http://www.w3.org/2000/svg" xmlns:xlink="http://www.w3.org/1999/xlink" height="480" width="640" id="flag-icon-css-bn">
  <path fill="#f7e017" d="M0 0h640v480H0z"/>
  <path d="M0 33.333v213.334l640 100V233.333z" fill="#fff"/>
  <path d="M0 146.667v100l640 200v-100z"/>
  <g transform="translate(-160) scale(.66667)" fill="#cf1126">
    <path d="M695.74 569.72c-19.36-2.57-37.11-8.73-49.44-17.17-2.39-1.64-4.64-2.98-4.99-2.98-.36 0-.65 1.82-.65 401D63B1A68"/>
    <path d="M706.34 525.17c-38.58-3.703-75.494-23.798-97.939-55.657-24.37-33.235-32.05-77.117-24.611-117.24 3.950B45592A98"/>
    <g id="a">
      <path d="M512.02 469.9c-2.528-.396-5.316 2.092-4.363 4.697 1.823 2.633 4.964 3.92 7.798 5.18 6.792 2.722 14.10458F0FA43"/>
      <path d="M514.83 459.52c-2.556-.38-4.758 2.56-3.692 4.908 1.965 2.848 5.267 4.365 8.356 5.699 5.37 2.148 11.20432B07A8C"/>
      <path d="M518.28 449.57c-2.19-.263-3.698 2.209-3.329 4.182.327 1.733 1.883 2.898 3.17 3.96 5.328 3.898 12.0820755EA7AEE"/>
      <path d="M481.53 302.7c-3.257 3.26-.77 9.271-.946 13.543 1.688 13.158 3.785 26.484 8.697 38.87 6.015 12.102 10277C9DA48"/>
      <path d="M491.44 304.19c-2.963.478-2.862 4.254-1.491 6.239 1.458 4.288 1.855 8.945 1.066 13.409 5.267 6.166 90168495A9F"/>
      <path d="M499.73 306.62c-2.064.613-1.67 3.159-1.016 4.716.989 4.316 1.144 8.774 1.063 13.184 3.791 3 6.163 7.090D3A1AD6"/>
      <path d="M509.16 307.97c-1.122.198-1.805 1.266-2.406 2.137-.233.873.837 1.812 1.008 2.76a21.771 21.771 0 0 1 0B04AD2A5E"/>
    </g>
    <use height="100%" width="100%" xlink:href="#a" transform="matrix(-1 0 0 1 1440 0)"/>
    <path d="M715.67 475.98c-13.493-1.285-25.667-11.12-29.829-24 .224-2.219 2.987 1.241 4.292 1.474 2.45 1.36 5.10A1057EA5B"/>
    <path d="M731.53 460.22c.297-2.708-.32-5.473-1.703-7.935-2.123-4.326-5.121-8.166-8.046-11.96-2.757-1.616-4.2800B062BA2F"/>
    <path d="M726.73 389.63c-1.456-2.624-3.224-5.21-5.673-6.995-2.381-.005-3.85 2.999-5.468 4.573-1.134 2.11-2.5101C9FCCAE8"/>
    <path d="M711.61 326.89c-3.36-2.46-4.47-4.81-4.47-9.46 0-2.38.44-3.67 2.01-5.83 2.31-3.2 1.89-4.21-1.38-3.27-00662E0A3D"/>
    <path d="M726.67 233.03l-5.13 4.06-4.6-3.47v27.74l9.73.12z"/>
    <path d="M694.89 204.25c-1.02 13.11-4.35 22.26-8.98 32.35l11.1-10.29 7.72 9.17 8.36-9.33 8.53 7.88 8.2-8.2 8.0FB073AADB"/>
    <path d="M716.95 197.56c-4.46.08-9.16.14-13.39.97-2.93.58-5.59 1.53-7.81 3.1.36 8.53 41 12.09 51.9.16-2.29-1.019BDE7A09"/>
    <path d="M724.9 153.97l-6.31.05v49.38l6.44.03z"/>
    <path d="M724.89 155.24l-2.41 23.64 24.32 11.88-12.31-16.46 16.81-5.45zm-2.71-6.16c-3.69 0-6.42 1.38-6.42 3.00993EA3AC7"/>
  </g>
  <g fill="#f7e017">
    <path d="M314.033 375.88c2.66-.88 4.174-2.493 5.26-5.6.54-1.547.907-3.153.814-3.573-.227-.994-1.374-.94-2.64.05F2C94A88"/>
    <path d="M312.593 368.953c.24-1.1.547-3.353.687-5 .14-1.646.48-3.726.747-4.626.68-2.307-.007-2.914-1.827-1.6209B5753AD1"/>
    <path d="M262.747 350.38c.74-.94 1.846-2.84 2.46-4.227.606-1.393 1.52-2.973 2.02-3.513 1.173-1.267.52-2.047-10E9CBA9AC1"/>
    <path d="M295.96 324.813c-.607-.013-1.287.214-1.96.687-3.54 2.48-4.447 5.413-2.04 6.56 1.767.847 1.32 1.84-1.09A2A6DA0E"/>
    <path d="M288.067 330.4c2.353-1.493 2.3-1.38 2.64-5.527.233-2.926.193-3.146-.6-3.146-1.154 0-1.754 1.266-1.7507BD196AB8"/>
    <path d="M289.433 317.827c0-.94-1.686-.807-1.873.146-.12.614.073.76.86.647.56-.08 1.013-.433 1.013-.793zm74.7-6.614c.174-.9-1.08-1.5-1.74-.84-.66.66-.053 1.914.84 1.74.414-.08.82-.486.9-.9zM247.88 302.06c1.173-1.007 1.187-1.073.68-3.287-.72-3.1-.673-3.433.507-3.726 1.493-.38 5.286 1.653 6.126 3.28.654 1.26.634 1.346-.473 2.373-1.193 1.1-1.187 2.387.007 2.387.986 0 3.713-2.58 3.713-3.507 0-1.287-3.027-4.327-5.42-5.44-1.48-.693-2.96-1.013-4.673-1.02-3.067 0-3.48.66-2.654 4.227.974 4.18-.346 4.746-3.713 1.593-2.5-2.34-3.487-4.773-3.473-8.607.006-4.113 1.58-6.146 5.126-6.626 2.354-.314 2.294-.867-.126-1.227-3.534-.533-6.52 1.827-7.654 6.04-1.26 4.673 1.627 10.367 6.734 13.3 2.673 1.533 3.74 1.58 5.293.24zm139.227-5.127c.286-.286.52-.933.52-1.433s.486-1.573 1.08-2.38c.6-.807 1.086-1.633 1.086-1.833 0-.82-1.353-.794-2.42.053-1.093.853-1.913.873-1.913.04 0-.207.52-.633 1.16-.947 1.587-.773 1.72-1.54.38-2.153-1.72-.78-3.447.647-3.627 3-.113 1.573.014 1.847 1.227 2.56 1.107.653 1.313 1 1.127 1.933-.32 1.62.353 2.187 1.38 1.16zm13.086-1.48c.96-.86 1.74-1.84 1.74-2.166 0-.327.827-1.194 1.84-1.92 2.874-2.067 3.507-4.154 2.22-7.36-.5-1.26-2.073-3-5.493-6.08-2.627-2.374-5.047-4.314-5.36-4.314-.933 0-.767 3.434.18 3.734 1.707.546 2.74 1.246 5.427 3.666 3.12 2.82 4.56 5.454 3.773 6.92-.753 1.42-1.753.98-4.507-1.973-1.446-1.553-2.88-2.82-3.173-2.82-.32.007-.547.567-.547 1.353 0 .987.527 1.927 1.954 3.514 2.326 2.586 2.553 4.14.806 5.513-.626.493-1.273.9-1.433.9-.153 0-.667-.773-1.133-1.713-.974-1.974-6.927-8.26-7.82-8.26-.407 0-.607.506-.607 1.506 0 1.207.24 1.634 1.2 2.127 1.18.613 4.1 3.553 7.033 7.1.84 1.013 1.667 1.833 1.847 1.84.173 0 1.1-.707 2.053-1.567zm5.84-16.713c-.386-1.247-8.373-9.467-9.193-9.467-.427 0-.56.507-.46 1.814.113 1.586.287 1.86 1.38 2.146.68.18 2.787 1.834 4.673 3.667 1.88 1.833 3.534 3.227 3.667 3.087.133-.134.107-.694-.067-1.247zm-47.7 92.52a1.187 1.088 0 1 1-2.374 0 1.187 1.088 0 1 1 2.374 0zm4.194-1.4a1.187 1.088 0 1 1-2.374 0 1.187 1.088 0 1 1 2.374 0z"/>
  </g>
</svg>
