<svg xmlns="http://www.w3.org/2000/svg" height="480" width="640" id="flag-icon-css-bt">
  <path fill="#ffd520" d="M.1 0h640.1v480H.1z"/>
  <path d="M.1 480h640.1V0z" fill="#ff4e12"/>
  <g stroke="#000" stroke-width=".521">
    <g fill="#fff" stroke-width=".417">
      <path d="M345.392 150.072c-3.99-1.417-6.567.644-6.437 5.795.127 5.152 2.834 8.114 6.824 6.182l-.387-11.977z"/>
      <path d="M348.896 140.424c-3.323-2.624-6.423-1.499-7.957 3.42-1.533 4.92.077 8.594 4.477 8.047l3.48-11.466z"/>
      <path d="M354.432 131.088c-2.863-3.124-6.103-2.51-8.406 2.1-2.3 4.61-1.3 8.494 3.133 8.66l5.273-10.76zm-3.63206E270DA5D"/>
      <path d="M345.136 162.304c-4.637-1.545-8.814 4.682-9.53 10.302-.9 7.083-10.947 9.401-5.407 20.09 1.157-6.825 00492F0A67"/>
      <path d="M370.896 203.648c-5.28-2.318-8.41 1.213-10.43 4.636-2.964 5.023-12.107-1.416-15.197 5.28 4.186-1.8030BA0CBBAB3"/>
      <path d="M373.984 209.824c-5.28 3.992-7.34 8.757-7.21 11.977.13 3.22 4.637 10.302 9.53 10.689 2.834-5.796 4.2061F988A43"/>
      <path d="M335.216 228.368c-.387-1.288 3.23-3.86 9.403-2.318 6.18 1.545 7.697 5.525 7.47 8.628l-16.873-6.31zm-0576209A6B"/>
      <path d="M279.072 215.232c2.447-4.765-2.318-11.848-7.727-12.878-4.516-.86-9.852-.837-11.59-5.28-1.095 3.863 108EF31AA63"/>
      <path d="M278.56 215.4c-1.127-3.413 1.159-7.955 5.786-7.636 4.627.318 7.264 3.68 5.224 7.884l-11.01-.248z"/>
      <path d="M288.856 215.656c-.637-3.538 2.264-7.712 6.8-6.748 4.537.964 6.674 4.664 4.067 8.54l-10.867-1.792z"/>
      <path d="M299.088 217.28c-.46-3.566 2.647-7.59 7.13-6.401 4.483 1.19 6.433 4.992 3.633 8.732l-10.763-2.331zm-00A310AA17"/>
      <path d="M225.24 264.688c-13.265-5.023-20.476 15.969-33.612 12.234 4.7 7.47 16.094.014 20.347.773 7.212 1.2880764E7AAEB"/>
      <path d="M197.424 328.304c-5.666-4.379-13.522.903-18.931-1.159 0 3.605 1.803 9.015 7.727 11.075 1.803-1.286 9.916-8.37 11.204-9.916z"/>
      <path d="M206.312 315.816c-8.886-4.507-10.431 6.697-17.386 4.379.258 3.22 2.834 7.212 8.5 8.113l8.887-12.492z"/>
      <path d="M211.592 305.64c-13.136-5.151-14.81 7.47-22.537 5.022 1.803 4.379 12.879 6.697 18.545 5.152l3.992-1008C89C4A6C"/>
      <path d="M238.504 234.936c-6.053-1.416-13.007-.773-12.234 5.151-2.319 1.03-2.962 8.63 3.348 10.303l8.886-15.455z"/>
      <path d="M242.496 230.944c-5.924-6.954-12.53-6.793-16.226-3.864-6.826 5.41-13.459 2.319-13.652 7.727 4.122-3.0E20444A57"/>
      <path d="M221.76 335.136c8.113 2.96 11.59-3.737 7.212-7.985-1.16 1.417-5.41 6.568-7.212 7.985z"/>
      <path d="M191.368 346.208c-1.546 4.637-9.53 5.41-18.545 19.834-9.015 14.423-17.643 8.37-19.833 18.286 10.818-0391B12A2D"/>
      <path d="M423.44 227.216c5.41-5.151 13.654-7.727 19.317-3.864 5.666 3.864 24.47 8.5 33.743 2.061 9.27-6.44 130AEE3D9A8F"/>
      <path d="M256.016 327.792c3.477 4.508 9.4 4.251 11.848 3.864 2.06 5.407 8.628 5.28 11.462 8.24 2.833 2.964 120F43E10A6E"/>
      <path d="M248.616 282.328c1.545 1.545 7.019 2.254 7.598-2.64.666-5.618-1.61-7.792-6.503-5.602-.386 1.288-.838 6.568-1.095 8.242z"/>
      <path d="M249.776 273.896c2.06.837 6.504 2.511 8.95-2.254 2.053-3.996-.643-7.083-4.893-6.826-1.03 1.16-3.091 5.28-4.057 9.08z"/>
      <path d="M253.576 264.432c.515 1.545 5.795 6.697 9.658 2.962 3.864-3.735 3.864-9.272-1.931-11.333-1.546.258-6.182 5.667-7.727 8.37z"/>
      <path d="M261.296 256.064c1.159 3.22 4.765 8.757 11.462 6.181 6.697-2.575 3.863-10.946.773-12.62-1.803.129-9.144 3.477-12.235 6.439z"/>
      <path d="M273.536 249.624c-.515 2.833 0 10.56 9.143 10.431 9.143-.128 6.57-10.817 4.25-12.363-3.734 0-10.045.129-13.393 1.932z"/>
      <path d="M287.312 248.072c-1.03 2.19-3.352 16.6 14.553 12.62 2.316-.514 8.37-13.78-14.553-12.62z"/>
      <path d="M297.096 249.36c-1.8 1.803 2.833 16.355 14.94 13.908 12.106-2.447 1.933-16.226-14.94-13.908z"/>
      <path d="M307.4 251.552c-1.93 3.992.97 15.84 15.906 15.84 13.537 0-.71-15.582-15.906-15.84z"/>
      <path d="M319.12 255.032c-.97 2.213-2.157 14.774 15.454 15.84 12.75.773 9.66-17.257-15.454-15.84z"/>
      <path d="M338.056 260.312c-2.187 3.864-4.507 13.522 14.81 14.295 12.377.496 4.767-14.037-14.81-14.295z"/>
      <path d="M354.152 263.272c-2.833 3.864-.747 11.442 6.437 12.878 9.016 1.803 10.303-6.696 4.123-10.817-6.183-4.121-10.56-2.06-10.56-2.06z"/>
      <path d="M362.912 265.072c-2.06 3.606-.783 12.363 12.877 12.363 2.833 0 13.653-11.075-12.877-12.363zM257.184 043B68CA3B"/>
      <path d="M404.12 141.704c-1.547 1.545-4.763 6.181-5.41 7.984-6.697 20.09 11.18 35.097 21.637 56.664 8.243 17 04D3ABBAF8"/>
      <path d="M475.856 358.784c12.174 0 22.043-9.866 22.043-22.04s-9.87-22.043-22.043-22.043c-12.174 0-22.043 9.869-22.043 22.043s9.87 22.04 22.043 22.04z"/>
    </g>
    <g fill="none" stroke-width=".417">
      <path d="M391.76 142.728c-4.893 21.636-.773 31.423 6.44 40.953 14.903 19.697 26.786 64.649 9.786 94.008"/>
      <g stroke-linecap="round">
        <path d="M417.512 252.328c2.06-.773 5.923-3.22 6.827-7.47m-5.283-1.93c.643-3.735 6.437-5.344 6.567-9.336m-6.439-5.224c-.387-3.864 5.797-7.34 4.893-11.204m-8.237-2.7c-.517-2.19 5.15-6.31 3.607-9.787m-7.855-3.733c-1.16-2.447 2.703-5.28 1.03-7.856m-7.214-2.968c-.387-1.674 1.997-5.344.71-7.533m-6.894-5.211c.513-.644 2.577-2.19 1.737-4.121m-5.985-5.215c.837-.451 3.347-1.224 3.027-3.09"/>
        <path d="M266.064 410.856c-5.151-1.803-11.59.773-12.878 5.153m3.862 3.991c.644-4.377 7.34-6.31 9.4-4.25-4.249-2.317-6.31 5.923-2.575 6.183m34.647-103.797c-3.09 1.546-3.99 7.212 0 11.463m4.632-10.175c-2.187 1.803-2.06 7.212 1.16 8.5-2.703-1.932 0-5.28 1.933-5.409 1.93-.129 3.217 2.19.9 4.507m176.951 5.146c-7.21-1.93-13.006 6.44-6.44 13.91-.127-7.213 5.023-11.976 11.334-10.69m-2.902 4.988c-1.773 0-2.77 1.387-2.77 2.737 0 1.416 1.223 2.77 3.22 2.77 1.29 0 2.32-1.48 2.32-2.64m22.662-160.979c1.16 4.379 7.213 6.182 11.977 5.151m-.001-2.831c-3.733.129-6.823-3.348-6.567-6.31 0 2.189 5.024 3.22 6.567 1.803" stroke-linejoin="round"/>
        <path d="M267.864 331.656c-1.03-2.577 3.091-5.152 3.22-7.6.129-2.446 4.636-4.378 9.272.258m-2.188-27.426c-.901.386-1.674.901-2.447 1.159m11.335 12.873c-1.095.065-3.348-.064-4.572-.902m.068 5.798c-.901.451-2.898 1.224-4.057 1.482M238.376 393.6c-.129 2.32 2.19 5.667 3.477 6.697m6.571-12.233c-1.288 1.93-2.06 5.28-1.288 7.597m20.472.131c-2.318-1.547-.773-5.54-1.03-8.114-.258-2.576 2.704-6.696 8.5-3.22m-29.102-3.346c2.318-.387 4.765-.26 6.31.383m23.05-7.727c-1.03 1.417-1.288 2.963-1.416 3.993m12.232-4.249c-1.803 0-3.348 1.287-4.121 2.577m-20.863-68.513c2.06.709 7.405 3.992 7.598 7.405m14.298-24.149c-6.31-.129-8.757-6.568-3.992-6.568m15.328 15.192c-2.447 1.03-1.287 5.28 2.19 7.34m-17.262 33.1c-1.224-1.543.386-6.05 4.379-4.7m5.021 51.708c.256-3.927 5.216-6.247 7.213-1.803m-25.501 13.003c-.322-4.313 1.867-5.73 3.799-5.987 1.931-.256 4.701 1.35 5.989 4.184m-48.164 5.027c.258-2.577 2.447-5.28 4.765-4.893m230.907-109.467c-1.677 1.224-2.77 6.697 3.603 7.212m-13.387 1.804c0 .644.837 1.545 1.353 1.932m29.039 8.372c-1.673-1.288-5.99 3.928-2.06 7.727m-38.892 35.545c-.967-3.67 2.447-4.637 5.667-3.863m-13.907-22.153c1.93-1.288 3.863-2.704 6.31-3.348m-7.342 17.508c0-3.09 1.543-5.663 2.96-6.437m8.368-29.099c-.257 3.735 1.29 7.34 2.45 9.272m28.206-9.016c-1.87.58-3.543 1.288-4.25 2.833m2.186 7.727c.903-.773 1.933-1.674 2.383-2.318m46.297-110.114c0 3.606-4.507 5.537-7.467 3.22m17.259-3.092c1.993 1.545 8.883.065 7.273-3.927m-15.649 24.663c-1.417-.258-3.863-1.803-4.893-3.09m19.061-7.598c-2.317.515-3.863 0-5.023-.515m-31.553 13.395c1.287 0 4.377-.515 6.503-1.61m-10.367-21.182c-1.673-.193-2.9.129-3.863.773m29.815 5.531c-.45 1.61-1.61 4.121-3.027 5.216"/>
        <path d="M497.488 212.792c3.22-1.417 7.213 9.53 14.94 5.666m.644-11.338c-1.03 1.417-1.673 3.606-1.803 5.538" stroke-linejoin="round"/>
      </g>
      <path d="M359.048 190.384c1.03-.129 2.833-.515 3.22-1.803M226.528 310.28c3.864 2.19 6.568 5.924 4.894 11.462M403.6 178.536c1.16.773 5.54.773 7.987-.129m3.093 2.705c-.13 1.803.387 8.628-3.09 10.045m1.29-.901c3.22 1.03 9.66.644 11.72-5.28m-4.512 5.016c1.673 2.576 2.187 7.598-2.833 10.302m4.121-6.046c3.733 1.288 12.363 1.416 11.46-5.924m-2.956 5.924c2.577 3.606 13.91 7.856 12.106.386m-22.538 10.038c4.377 1.03 10.56-1.932 7.983-9.658m12.361 3.866c.643 2.962 15.066 6.053 13.137-.644m-2.705 3.868c2.707 6.181 17 5.666 12.494-2.576m-2.318 6.432c2.833 3.477 15.457 1.417 10.434-6.954m-.138 6.826c7.857 5.924 17-2.576 7.083-8.758m4.509 6.83c6.957 5.538 15.457-4.508 9.403-7.34m-64.395 5.02c2.19.644 6.827.386 7.857-3.606m-1.737 2.702c-.257 5.86 9.597 8.114 12.106 1.353m-3.282 3.671c1.803 3.863 10.43 5.409 11.846-.129m-1.414 2.577c1.417 3.864 8.886 3.477 10.946-.515m-2.706 2.579c2.317 5.022 11.846 5.022 14.037-2.318m-1.669 3.214c3.733 2.318 11.72 1.417 11.074-5.795m-1.546 5.155c5.537 4.508 13.394.129 9.53-7.47m-.386 13.39c2.963-.515 4.507-6.439 1.417-7.984m-70.057 9.016c6.18-3.348 7.34-9.014 3.09-14.552m2.19 8.888c3.863 2.318 11.203-.129 12.49-5.795m-7.21 6.435c2.187 2.833 2.573 6.31-.26 9.53m2.06-5.922c6.823-4.25 15.323 3.606 9.014 8.371m-1.158-8.755c1.547-.386 4.25-3.22 4.507-6.439m-1.419 9.399c2.833-2.962 22.154 3.091 9.917 9.272m-.901-17.384c3.733 1.417 5.667 6.697 0 8.5m4.896 4.38c4.12-4.25 17-1.545 12.363 3.864m-3.091-5.544c2.317-7.856 16.097-2.962 11.59.257m-14.422-8.113c.387 1.546.513 5.409-2.06 7.47m13.652-9.014c.513 1.288.387 3.735-.773 5.28m9.525-5.152c.773 1.416 2.06 4.121-.773 6.31M377.08 153.16c.127 7.34 2.703 12.234 12.62 7.598m-9.532 1.162c-4.893 6.568.643 13.651 10.303 6.568m-25.375-3.352c6.697 7.212 18.674 1.932 10.946-9.015m8.118 15.199c-1.29 7.083 4.507 8.5 9.27 5.28m-34.254-10.304c1.22 7.121 8.5 12.75 15.583 8.371m-6.823 1.421c0 10.174 14.037 11.333 17.257.773m-5.025 6.435c4.507 9.272 14.294 5.538 17.514-.129m-27.434-14.679c1.803 4.507 5.41 9.53 13.78 5.795m-39.532-7.987c1.16 3.735 7.857 8.242 15.583 3.09m-10.823 1.678c-4.123 6.053 4.12 11.72 14.037 2.704m-9.141 4.768c1.673 8.5 5.02 15.326 17.126 4.379m-6.054 4.373c4.38 5.409 11.077 8.757 17.386-.386"/>
      <path d="M387.248 188.832c-.387 6.439.9 9.658 5.923 9.4 3.96-.202 7.727-3.348 9.917-6.696m-10.816 6.704c-.13 7.34 5.663 13.136 16.483 5.667m-11.979 2.957c-2.06 5.538 4.12 14.552 16.226 9.916m-41.85-24.596c-.77 7.083 5.797 11.848 16.357 2.704m-11.205 5.152c.387 5.795 6.953 12.75 16.614 2.704m-11.982 4.64c-.773 9.916 8.37 12.75 16.097 5.151M367.16 200.04c2.06.129 3.733-1.674 4.763-2.962m-.387 10.17c1.803.386 4.897-1.288 5.927-3.348m-1.415 15.068c2.06 2.19 9.014.644 9.914-2.318m-2.186 2.19c3.863 9.014 14.163 8.628 18.414-1.545m-1.934 3.609c1.93 5.28 6.827 8.628 14.81 6.825m-10.946-1.417c-4.507 7.34 1.417 15.969 11.46 7.47m-9.012 3.474c-.513 4.636 3.737 9.916 9.53 10.56m-28.594-24.08c-1.547 10.431 5.923 15.454 15.326 9.916m-26.27-4.892c2.447 1.932 6.827 2.19 10.946.644m5.022 6.052c-2.32 8.758 6.697 15.068 14.423 5.28m-26.911-10.56c.13 4.507 4.51 9.4 12.106 7.984m21.246 9.016c-5.153 3.477-6.183 9.658 1.03 13.65m-13.654-15.458c.26 5.28 2.707 8.242 8.5 8.757m-16.092-11.461c-7.727 7.083-.13 15.326 9.014 8.371m-3.606 2.189c-2.577 8.114 7.083 13.007 12.234 4.765m-28.202-22.021c-2.833 7.985.773 13.265 7.34 12.75m-17.516-14.294c.387 4.765 4.507 6.439 9.143 5.409m-6.183-.385c-3.477 6.697 1.803 10.302 8.76 7.727m21.12 14.937c-1.16 4.25-.517 7.34 5.793 8.758m-5.409-2.702c-7.6 3.477-8.243 10.818-2.32 15.582m-3.8-23.758c-3.99 3.606-3.22 9.851 1.16 12.298m-34.96-35.802c-4.38 4.315-.193 16.226 9.463 9.724m15.649 5.34c-5.927 4.894-3.22 13.78 6.567 11.333m-16.359-15.069c-3.09 8.758-.127 11.848 6.827 11.977"/>
      <path d="M359.304 236.096c-5.28 3.992-3.863 9.658-1.543 12.234 2.316 2.576 6.693 1.417 8.11-1.931m-17.647-13.775c-5.923 7.598 0 16.613 8.374 13.909m23.314 8.627c-6.053 2.19-10.67 7.686-6.957 12.492 2.19 2.833 11.72 3.22 14.424-7.727m-18.419-11.853c-3.477 5.023-2.32 9.788 4.12 12.234m-4.504-2.826c-3.737 2.06-6.183 4.508-5.28 9.015m-3.088-16.871c-1.417 6.053.257 9.788 3.99 11.59m-4.118-4.382c-5.797-.386-8.757 2.06-6.827 7.727m.515-6.311c-5.667-2.06-6.57-6.954-4.123-12.106m-.773 7.602c-6.183.258-8.886 3.348-8.886 7.598"/>
      <path d="M340.496 229.656c-4.507 1.932-5.923 7.985-4.25 11.333 1.677 3.348 6.957 3.606 10.177 1.416m-18.543-17.509c-4.12 4.636.643 13.651 7.987 11.462m-18.547-15.07c-3.863 5.409.387 14.424 10.303 11.848m.513 25.112c-1.03-6.44 5.667-10.689 13.91-2.318m-3.99-13.002c-2.447 2.19-3.603 5.666-3.22 8.5M306.76 218.2c-4.25 7.212.903 13.78 10.046 11.204m13.778 6.692c-6.053 6.053-3.993 12.106.513 15.582m-4.377-8.494c-9.143.129-9.657 10.689-2.187 14.038m-4.765-24.598c-3.733 2.576-4.893 9.658 1.547 12.492m-1.803 3.348c-3.863-1.803-8.5.386-8.114 4.894m2.314-4.766c-3.477-8.242-13.65-6.825-12.746 1.674m15.578-11.85c-2.187.386-6.567 1.674-8.24 5.023m.648-14.295c-4.12 4.636-.903 10.174 2.447 11.333m-14.679-24.341c-.773 5.538 1.417 8.242 8.37 7.727m-5.93-.639c-2.707 6.697.9 9.658 7.853 9.272m-6.309-1.032c-4.12 4.894-1.287 10.174 2.703 12.363m-4.631-6.179c-7.34-.902-8.5 7.598-6.053 11.59"/>
      <path d="M292.848 215.496c-4.506 1.932-7.081 7.598-4.635 11.075 2.448 3.477 7.342 2.318 10.045.515m-8.498 1.026c-3.734 5.666-.387 9.916 3.607 11.59"/>
      <path d="M275.336 214.848c-2.962 3.09-1.159 9.402 6.053 9.53 5.806.104 8.757-5.409 6.954-9.272m-7.983 9.27c-2.318 5.151-.901 10.689 7.856 9.787m3.736 8.117c-5.409-2.447-12.62 0-9.53 6.44m-.774-15.584c-2.19 3.09-1.417 7.47 1.03 10.174m-1.414-1.934c-3.606.644-7.083 2.576-4.894 8.242m-.522-4.634c-4.636-1.417-10.56 1.932-6.954 6.697m-.766-4.505c-3.992-.644-8.757 3.606-4.894 7.856m-1.546-3.48c-3.606.902-7.856 5.023-4.121 8.242m22.281-28.458c-5.151 2.318-5.667 8.114-3.22 12.363m-2.196-23.051c-7.727 2.962-7.598 13.265.901 16.484m-3.605-2.324c-4.636 2.704-5.538 7.856-2.447 11.204m-5.665-29.228c-3.091 1.03-2.833 10.56 5.409 10.302M255.12 220c-6.182 4.121 1.288 14.552 11.333 7.083m-5.541 2.573c-.901 4.25.258 8.886 7.083 9.402m-6.699-3.73c-4.894 1.803-5.795 11.848 3.09 12.62m-18.666-21.764c-6.31 5.795 5.151 10.818 9.402 2.447m-18.162 7.209c-3.091 3.735 7.727 13.522 12.492-2.833m1.156-.255c.257 3.863 2.576 6.181 7.34 6.439m-.124 3.737c-7.598 1.159-10.045 10.689-1.545 12.75m-12.495-14.038c-.258 3.606 3.477 6.568 7.727 5.924m3.865 7.852c-6.954 1.545-7.856 10.56-1.674 10.045m-3.222 8.371c-5.796-1.738-5.924-8.629-.773-11.204"/>
      <path d="M245.72 267.776c-4.893 2.962-2.962 10.045-.386 11.075 2.575 1.03 4.636-.257 4.894-2.446m-.388 9.915c.515 3.348-11.913 2.06-5.537-8.37m-.071 8.954c-4.185 6.568 2.64 11.912 6.954 6.31m-6.37 1.61c-1.674 5.28 4.7 9.08 8.82 4.959m-22.732-54.415c-2.318 4.765 9.272 6.568 10.045-3.22m-13.261 10.308c-2.318 9.272 15.196 7.34 10.689-4.636m.383 6.18c2.447 1.417 9.788 1.545 11.59-6.31m-5.278 6.566c.515 2.447 2.704 5.409 4.765 6.31m-13.133-3.862c-.773 5.023 4.25 9.144 10.045 8.758M237.6 261.6c-2.833 3.864-3.735 11.333 5.152 11.848m-18.672-10.56c-1.417 3.992 6.954 8.114 11.848 1.545m-14.424 8.623c-.709 3.027 6.825 7.083 11.075-5.795m-3.347 6.571c1.803 3.22 7.856 5.795 11.59-.515m-6.054 3.867c-1.545 4.507 2.705 8.757 7.856 7.47m-17.512-8.502c-1.03 6.439 6.439 10.174 11.075 6.825m-15.971-3.993c-2.189 8.242 8.371 11.333 12.363 5.151m-2.699 2.449c.387 4.636 7.599 8.628 13.265 4.765M217 290.448c-.515 2.06 8.114 4.121 9.4-3.091m-4.376 4.891c2.06 5.28 9.014 6.568 13.007.129m-2.319 2.575c.902 4.894 7.212 7.598 12.75 4.25m2.314 1.934c-1.416 6.568 5.409 11.848 9.658 8.242m-20.602-9.402c-2.06 7.212 6.954 11.333 11.977 7.34m-22.793-10.948c-.515 6.697 4.765 10.689 10.818 7.727m-22.282-7.079c-1.803 4.379 7.727 7.985 12.234 4.25m-18.162 7.726c2.447 2.833 10.946 0 11.72-6.31m-2.312 4.63c3.09 3.606 10.431 5.538 13.394-2.19m-2.578 3.998c-.129 5.538 9.788 9.53 13.007-.644m11.649 1.996c-.902 2.705 1.224 7.018 5.666 7.533m-13.842-9.205c-.644 3.09 3.864 7.404 8.629 5.666m.907 1.286c-1.288 3.348-.194 8.177 4.314 8.113M255.312 322c-3.348 2.833-1.932 7.856 2.898 8.05m-4.634-3.29c-4.765 3.218-3.09 10.302 3.22 9.918m-17.644-23.566c0 6.954 8.628 7.984 10.302 1.545m-3.35 4.119c-1.288 4.121 2.06 8.114 7.34 6.954m-6.308 42.758c1.16 1.677 5.924-1.157 4.636-3.99-1.287-2.833-6.335-1.293-5.795 1.673m4.631-2.835c.644-5.667-6.053-6.567-7.727-1.673m2.447-2.831c1.674-2.833-3.992-6.697-6.31-2.577m2.062-1.679c1.545-4.123-4.894-5.923-5.409-2.19m-1.415-5.41c.773-2.06 7.985-.773 4.894 3.477m5.538 5.155c2.833-2.577-1.931-7.857-4.894-5.923m23.95 13.779c-2.254.257-4.573 1.737-2.898 6.503 1.16 3.307 6.117 3.477 6.825 1.48"/>
      <path d="M260.464 365.848c-2.19-1.417-6.954.967-4.765 5.603 1.648 3.49 5.795 2.06 6.44.257m-13.979.772c1.094 1.93 6.567 1.097 7.533-1.03m-3.797-5.346c1.159-.773 3.283.19 3.735 1.157m-4.119-32.901c-3.735 2.447-1.417 9.917 4.379 7.983m-5.539-1.927c-2.962 2.317-.258 9.53 5.28 6.827m-4.376-.003c-2.06 2.06-.065 7.79 5.28 6.697m-6.056-3.865c-1.16-.517-4.186-.13-5.474 1.8m2.13-27.88c-2.833 2.704-1.481 8.243 3.799 8.693m-4.831-3.029c-4.057 1.997-4.057 10.043 4.056 10.366m-4.376-1.286c-2.253 1.803-1.159 8.757 4.636 7.853m-2.772-.253c-.838.837-.967 2.963-.258 3.863m-2.318-6.503c-2.06.063-4.765 1.547-5.474 3.67m-3.734-7.47c.773-2.06 7.148-1.93 7.598 4.123m.642-7.211c-.902.193-2.64 1.03-3.09 2.77m.322-21.634c-2.77 2.511-4.121 10.432 4.314 11.976m-9.914 4.376c0-2.127 5.731-3.93 7.727-.773m-11.399-10.755c.837 1.61 4.829 3.8 7.276 1.997m-28.012-14.613c-.128 3.735 2.962 7.083 7.212 6.568 4.25-.515 5.151-4.25 3.863-6.697m-3.219 6.825c-2.833 3.477.644 8.371 3.863 6.954m-.639-9.402c1.674-.644 7.212-1.417 8.886 1.159m-26.79-.127c-1.288 1.932 6.697 3.864 9.4.129m-2.704 1.927c-.258 2.576 1.03 6.954 7.598 5.151"/>
      <path d="M219.832 326.632c1.03-2.19-3.864-5.795-7.598-1.803-3.735 3.992.515 8.5 2.833 6.953m-12.363-13.774c-1.932 3.348 5.538 9.466 9.788 3.8"/>
      <path d="M197.744 323.8c-2.704 2.77.644 7.857 4.701 6.31 4.056-1.545 3.67-5.795 2.705-6.889"/>
      <path d="M192.528 328.952c-2.19 1.995-.065 6.695 2.962 6.695 3.026 0 4.894-2.38 4.314-5.406m5.02-1.673c-.387 2.962 3.992 5.022 6.825 2.255m.135-5.415c.386-.644.065-1.74-.579-2.254m-23.373 9.79c-2.51 1.997 2.898 7.533 6.31 2.447m13.066-3.543c-1.61 1.543.965 5.6 3.541 4.377m-12.357-1.545c.386 2.767 5.795 4.827 9.208.58m-6.248 2.188c-.837 1.74.838 4.51 2.898 4.123m48.358 11.789c-1.995 3.927 4.379 8.5 9.015 3.733m-4.383 2.123c-.965 2.123.194 5.087 1.932 6.18m-7.98-1.74c.451-1.933 3.22-3.737 5.731-2.833m-9.083-2.255c.386-1.737 2.704-3.477 4.443-3.023m147.197-77.337c-9.143.129-5.28 14.81 2.577 11.848m-5.537-1.024c-1.803 2.962 1.673 7.663 5.537 4.894m-1.025.578c-2.707 4.507 6.953 11.397 10.817 4.314m-3.089 2.702c.127 4.25 12.49 6.954 10.69-1.545m-1.162 4.633c2.96 5.022 14.037 5.538 12.877-1.932m-2.445 5.156c2.32 3.348 13.137 5.409 12.75-1.546m-56.67-40.822c1.543 3.992 6.823 5.409 12.62 3.09m-15.964-.258c3.607 2.318-1.673 12.878-7.21 8.628m7.21-2.06c3.993 1.932 8.886.515 10.303-5.151m-2.447 4.375c.387 2.962 4.637 5.28 10.174 4.121m-20.094-1.025c5.153 4.379-2.317 13.394-5.667 9.272m7.603-5.928c2.447 1.803 8.757.773 9.4-3.992m-2.832 3.992c.517 3.09 2.963 4.25 6.44 4.379m-14.424-.131c2.573 3.606 9.014 4.636 11.846-.129m-2.838 2.705c-.257 3.477 3.607 6.31 7.6 5.538m-21.632 2.19c3.347 1.674 6.953-4.636 4.12-9.014m-.256 15.71c3.993.258 4.507-5.795.773-9.144m8.371 14.68c3.35-.773 2.317-8.114-5.797-8.758m15.965 14.174c3.22-.902.643-9.015-8.24-8.5m20.48 11.332c2.187-3.348-5.023-9.014-10.946-6.053m16.994 10.685c3.993 1.159 6.697-9.4-5.923-7.727m13.267 7.727c3.48-.901 5.927-7.212-4.247-5.151m11.975 5.671c3.09 1.546 4.507-7.47-4.897-5.022m-47.007-23.058c3.863 2.19 9.917-.386 9.4-5.28m-1.544 4.256c1.29 2.318.773 6.825-1.673 7.984m2.057-2.576c2.577 1.03 6.053.129 8.114-3.992m-3.602 3.992c.77 1.803 1.03 5.409-.647 7.212m1.295-4.124c2.833 1.545 6.18-.515 7.597-3.477m-1.805 2.573c2.06 1.288 3.863 7.34.387 9.788m1.933-2.828c2.447.129 6.053.129 8.37-2.962m-1.674 1.674c2.19.644 4.763 4.25 3.863 7.47m.129-1.166c2.45-.258 6.697-1.932 7.857-4.894m-1.161 1.934c2.063 1.159 3.48 3.606 3.22 6.439m-.004-2.063c2.447-.129 4.637-1.416 5.28-4.121m-.64 1.809c1.803.644 3.993 2.704 4.123 5.151m-.259-1.551c1.803-.258 3.09-1.417 4.25-3.22m4.894-.252c2.32 2.318-.77 10.046-5.537 8.629M389.824 154.32c-4.767 2.833-18.29 1.932-11.594-9.272m12.882 1.672c-9.4 3.735-20.994-3.477-8.886-11.333m-3.218-2.571c-7.857 0-13.137 12.62-2.573 17m-27.947-11.72c-2.06 3.992 5.28 8.37 10.303 4.379 3.89-3.093 3.604-11.462 1.287-14.682m-15.582 19.831c-2.577 8.5 16.357 9.014 13.394-4.508m-14.426 17.132c.643 6.439 18.16 4.379 12.49-8.629m2.062-3.611c1.417 1.932 5.28 5.28 11.846 4.636m-8.758-13.78c.58 2.318 4.507 4.121 9.53 2.383m-185.25 193.561c-4.443 3.157 2.383 8.114 4.894 2.64m-8.374-.192c-4.442 3.153 2.383 8.11 4.894 2.637m-8.566-.253c-4.444 3.157 2.382 8.114 4.894 2.64m-8.758-.448c-4.25 2.253.708 7.79 5.022 2.897m-9.206-.769c-4.25 2.25.709 7.79 5.023 2.897m16.553-9.537c-.065 3.283 6.182 4.637 8.434-.26m-4.506 3.292c-1.932 2.447 1.61 5.473 3.542 4.377m-11.854-4.833c-.194 2.77 5.215 4.38 7.856 1.353m-4.888 1.551c-1.739 2.253 1.674 5.28 3.863 4.377m-10.431-4.769c.193 2.19 3.283 4.7 6.632 3.283m-4.64-.323c-1.288 1.16-.644 3.867 1.159 4.703m-7.855-4.895c-.515 1.997 2.898 5.54 6.375 3.22m-5.671-.9c-2.06 1.61-1.803 4.057.837 4.377m-5.789-4.633c-.257 1.35 1.482 3.54 3.671 3.283m-14.687-3.411c-2.06 1.093 3.22 6.697 6.503 1.48m-11.591.832c-2.576 1.227 3.8 7.407 6.633 1.097m10.047-1.353c-1.997.45-3.284 3.35-1.61 4.507m-4.894-3.475c-.258 1.16 2.19 3.09 4.186 2.383m-5.858-1.863c-1.932 1.223-.902 4.633 1.353 4.12m-8.241-1.872c-1.803 1.35-.58 4.057 1.932 3.413m1.348-3.605c.065.707 1.674 1.803 3.027 1.353m-12.555-2.513c-2.253.967-2.124 6.633 5.474 3.543M149 353.872c-3.156 1.547-2.125 5.797 4.765 1.74m.579.324c-.837.643-1.738 3.477 1.417 2.38m-7.209-1.036c-1.288 1.16-.45 3.543 2.383 2.64m-9.015-2.248c-2.318 1.353 2.768 3.157 6.182-.45m-4.638 2.122c-1.03 1.03-1.03 4.057 1.674 2.963m-8.242-1.739c-1.545 1.16 1.094 2.707 5.924.58m-3.996 1.092c-1.803 1.48-1.61 3.347 1.03 2.767m-6.374-1.927c-1.996 1.803.901 3.027 4.379 1.543m-4.315.457c-3.413 1.543-1.932 4.377.193 3.283m113.783 6.565c-.791 1.703 1.803 3.09 4.25 2.703 2.35-.37 4.599-2.306 2.833-5.02m.125 3.349c2.318 1.803 6.439-.257 6.439-2.963"/>
    </g>
    <g fill="#fff" stroke-width=".417">
      <path d="M396.776 103.064c-10.303-5.151-31.68-14.682-37.734-6.954 5.537-2.318 21.764.129 35.157 12.492l2.577-5.538z"/>
      <path d="M403.024 102.52c-11.914-13.878-18.93-10.771-27.497-15.551-8.046-4.492-20.863-5.41-23.346 1.733 11.750CFA124A2B"/>
      <path d="M424.728 99.2c-10.56-13.136-26.79-24.726-34.257-20.348 9.787.515 12.877 7.34 19.834 11.72 6.953 4.370E4500CAE4"/>
      <path d="M372.44 127.28c-11.077-5.151-19.726 2.044-30.137 1.03-19.83-1.932-33.997-.773-35.8 8.758 11.334-10.10208D54AE7"/>
      <path d="M387.896 109.504c-7.983-5.151-18.803-13.522.13-16.87-8.114-4.379-19.963-2.447-18.674 12.492-21.636-8084B0A4AC4"/>
      <path d="M382.224 123.672c-6.16-12.578-26.143-1.159-30.17-13.342-5.504 17.85 28.416 7.972 30.17 13.342zm127.105421FBA8D"/>
      <path d="M515.648 117.488c5.15-11.075 11.063-10.862 13.906-15.196 5.41-8.242 16.87 1.417 26.53-5.924-1.673 100C70912A6A"/>
      <path d="M516.936 121.096c9.017-7.212 15.66-2.4 21.894-6.182 15.71-9.53 22.023 1.932 36.06-2.575-3.737 9.014-0AE0985A0D"/>
      <path d="M478.56 176.984c-4.893 4.121-6.31 12.75.773 15.196-4.25-5.86 7.47-8.5 3.864-13.909l-4.637-1.287z"/>
      <path d="M483.448 177.248c-3.863 7.47 6.053 8.37 3.477 14.038 5.666-1.288 6.57-11.977 1.416-14.81l-4.893.772z"/>
      <path d="M445.584 161.272c9.274-.515 17.754 4.501 23.44 12.62 3.607 5.152 15.71 7.212 19.834 3.091 4.12-4.12 0D1555EA36"/>
      <path d="M480.36 166.944c-2.447.515-3.22 4.765-1.677 6.954m6.957-4.378c.773 1.288.257 3.09-.13 3.992m-25.238-11.848c4.763.258 5.667 3.735 10.817 5.023" stroke-linecap="round"/>
      <path d="M457.12 149.944c16.457 4.121 29.514 7.727 37.61 12.363 8.097 4.637 20.634 5.924 31.604 2.834 10.97-308CAD57ACD"/>
      <path d="M498.648 143.248c-5.15 2.318-1.803 7.727-9.786 10.818-7.987 3.09-13.524 10.173-11.72 16.226 5.41-11.06925E8A20"/>
      <path d="M500.064 144.016c-.257 9.4-7.657 5.976-4.767 19.189.904 4.12 2.577 10.817-.256 17.514 8.306-6.052 2.036FF17A4F"/>
      <path d="M393.688 116.144c-.833-.76-2.24-1.481-4.763-2-7.797-1.599-3.77-8.627 2.866-8.564 14.163-15.454 22.1108BE433A88"/>
      <path d="M506.872 112.088c.35.724.53 1.664.53 2.826 0 5.666-8.5 5.924-9.014 14.295-.27 4.379-.773 6.826-3.736 6.31-2.96-.515-5.537-5.15-2.704-10.56" stroke-linecap="round"/>
      <path d="M397.936 107.704c-2.133-1.499-4.267-2.108-6.18-2.126m52.836-8.258c6.82 2.953 10.146 10.037 20.054 100996EB5A1D"/>
      <path d="M439.016 154.32c-.257-3.348-6.31-2.833-6.053-5.409.256-2.576 3.35-3.606 3.35-7.212s5.406-3.863 7.21-1.03c1.803 2.833 7.213 8.37 8.373 5.538m-8.368-5.535c-2.833 2.833-4.12 8.628-.387 13.136m4.251-8.76c-.9 1.932-1.157 4.894-.127 6.697"/>
      <path d="M495.488 135.584c9.466.773 11.077-9.66 3.993-10.302m-15.641-17.834c-3.283-4.185-10.817-5.602-10.946 3.284" fill="none"/>
      <path d="M471.992 120.84c-3.22-7.985-11.463-9.144-15.843-5.151-3.644 3.322-3.734 11.976 4.123 13.78 2.704-3.22 7.984-7.47 11.72-8.628zm-3.544-5.024c-4.637-4.121-11.463 3.67-5.28 10.818m-82.92 8.694c3.103-.737 7.64.782 14.597 4.054 4.38 2.06 17.517 6.44 25.757 2.06-8.5 3.091-14.937-9.787-21.377-8.242-6.44 1.546-18.223 3.928-23.18-.773 12.103.773 18.613-8.817 32.45-.515 3.867 2.318 8.76 3.864 13.137 3.606-11.33-13.651-26.27-4.894-27.817-15.969 6.827 7.341 23.503-1.674 32.003 12.106m-29.554-10.047c-1.593-1.983-.873-3.96-2.583-5.524"/>
    </g>
    <path d="M483.84 107.448c-2.833-3.026-9.014-.644-7.277 5.474 1.354-2.833 4.25-5.216 7.277-5.474zm-17.512 16.4070BEF0A5D" stroke="none"/>
    <path d="M458.72 113.496c-4.637-3.09-8.886-2.833-10.303-.257-3.347-.13-6.117 2.318-6.247 7.211m7.15 2.062c-5.537-3.799-13.137-2.382-12.62 6.118m-3.348 4.826c2.703-2.19 6.567-3.735 9.53.129m31.814-8.497c-1.03 1.416-1.803 3.606-.13 6.954-2.06-2.704-7.21-2.704-12.75 4.507m25.112-11.845c-6.697.773-6.567 5.151-1.16 7.083m-46.488-23.443c-5.667-1.159-9.786 2.19-1.93 5.023m12.746-8.887c-7.987-1.932-11.206.129-7.6 1.932m-15.456 30.14c-.257 2.833 1.287 6.568 5.923 2.318m-4.371 6.178c0 .773-.13 1.674-.647 2.318m-17.905-40.054c-4.893-1.417-5.793-5.924-.127-5.538m-1.545 15.97c-5.41-1.803-5.41-7.083-.903-6.568m10.951 3.864c-6.31-1.546-6.567-5.924-1.8-5.28m2.568-8.112c-3.347-.257-8.5 3.477.13 5.667m9.278 1.805c-7.857-1.159-7.727 2.06-3.093 4.121m9.013-11.593c-6.053-1.159-8.114 2.447-3.993 3.992m-15.063 18.288c-1.483-1.223-2.703-7.083 4.377-5.344m10.303 3.544c-4.763-1.288-9.27 3.348-4.893 6.053m11.197-11.589c-5.02-.902-9.27.515-6.567 2.318" stroke-width=".417" fill="none" stroke-linecap="round"/>
    <path d="M483.568 107.448c-2.83.524-5.367 2.187-7.01 5.472" fill="#fff" stroke-width=".417"/>
  </g>
</svg>
