<svg xmlns="http://www.w3.org/2000/svg" xmlns:xlink="http://www.w3.org/1999/xlink" height="480" width="640" id="flag-icon-css-bz">
  <defs>
    <radialGradient id="a">
      <stop offset="0" stop-color="#ffef5d"/>
      <stop offset="1" stop-color="#ea5700"/>
    </radialGradient>
    <radialGradient id="b">
      <stop offset="0" stop-color="#952d1a"/>
      <stop offset="1" stop-color="#570a00"/>
    </radialGradient>
    <radialGradient xlink:href="#a" id="c" gradientTransform="scale(1.22624 .8155)" cx="247.075" cy="238.328" fx="247.075" fy="238.328" r="35.95" gradientUnits="userSpaceOnUse"/>
    <radialGradient xlink:href="#a" id="d" gradientTransform="scale(.93615 1.06821)" cx="321.991" cy="152.954" fx="321.991" fy="152.954" r="10.578" gradientUnits="userSpaceOnUse"/>
    <radialGradient xlink:href="#b" id="e" gradientTransform="scale(1.2242 .81686)" cx="364.21" cy="237.789" fx="364.21" fy="237.789" r="36.034" gradientUnits="userSpaceOnUse"/>
    <radialGradient xlink:href="#b" id="f" gradientTransform="scale(.95596 1.04607)" cx="468.154" cy="156.129" fx="468.154" fy="156.129" r="10.739" gradientUnits="userSpaceOnUse"/>
  </defs>
  <path fill="#ce1126" d="M0 0h640v480H0z"/>
  <path fill="#003f87" d="M0 34.285h640v411.427H0z"/>
  <circle cx="320" cy="240" r="188.572" fill="#fff"/>
  <circle r="156.3" cy="239.04" cx="320" fill="none" stroke="#552300" stroke-width="3.939"/>
  <path d="M301.942 73.191c14.136-15.166 26.918 2.353 26.577 10.562-.341 8.21-14.599 26.32-27.5 11.745 13.365 30A3BA7AA74" fill="#007f00"/>
  <path d="M301.02 95.498c13.364 3.42 16.714-11.342 23.473-11.49-3.946 4.712-14.237 16.725-23.472 11.49zm.922-2064B1E6A7C" fill="#005800"/>
  <g fill="#730000" stroke="#000" stroke-width=".489">
    <path d="M349.05 120.326s.585-1.369 1.66-.585c.978.78 1.269 4.2 1.269 4.2l-1.563.78s.88-1.267-1.366-4.395zm-808C0B91A2F"/>
    <path d="M319.069 155.002c.389-.388 1.172-1.857 1.855-3.126 1.173-1.954 2.54-3.126 4.102-5.57 1.464-2.246 2.051-5.565 1.464-7.909l1.367.782.1 3.711s1.856-1.565 2.638-1.953l.78.388s-5.86 6.058-11.33 15.826l-.978-2.147.002-.002zM267.7 134.688c.78 1.364 1.563 4.005 3.906 6.055l1.563-.488s-3.613-4.2-3.613-6.055l-1.857.488m9.178-2.352s.487 4.982-.78 6.838l1.562-.778s1.074-3.419.78-5.277l-1.562-.78v-.003zm51.475-15.725s-.295 7.032 1.074 11.331l1.855-.584s-.292-1.274 1.27-1.86c1.563-.487 5.273-2.049 7.128-3.614l-.584-1.56s-2.832 2.246-4.2 2.83c-1.269.49-2.05 1.075-3.125.784-1.076-.294-2.343-2.053-1.563-6.059l-1.855-1.268m20.698 32.823s-.487 4.981-.194 7.131l1.66.392s-.388-5.959.683-6.447l-2.15-1.076m7.431 3.715s-1.856 3.223-4.003 3.517l3.418-.685s.979-.488 2.443-2.05l-1.858-.782"/>
  </g>
  <g fill="#289400" stroke="#030" stroke-width=".489">
    <path d="M326.595 138.394l1.268.778 1.367.198s1.464 1.367 3.126 2.635c1.268 1.077 1.268-.194 1.268-.194l.78 30D6702FA82"/>
    <path d="M324.733 107.923l-.489-2.148 4.98.583.879-2.05s2.343 1.074 3.126 1.853c0 0 4.59-1.17 5.959-.682l-.58075A419A6C"/>
    <path d="M274.534 130.877s4.103 2.054 4.103 3.03c0 0 1.076-2.15.488-2.932l1.564 1.077s.486-1.953-.099-2.541c-05950A9A3B"/>
  </g>
  <g fill="none" stroke="#004b00" stroke-width=".489">
    <path d="M350.816 124.522l.489 1.953s1.756-.391 2.93-.293c0 0-.292 1.562-.683 2.247 0 0 2.343-.39 3.419.292l-.49 1.17 2.736 1.173-2.54 2.05s4.1 1.464 4.884 2.639c0 0-2.636 1.854-3.028 1.758-.39-.197-.097.779.586 1.658l-2.247-.097s.879 2.053.78 2.832c-.098.782-3.711.585-3.711.585M368 137.222s.684-3.907-.388-4.884c0 0 2.538 2.15 4.198 2.246 1.759.101-.099-3.222-.099-3.222s2.443 1.269 3.615 1.562c1.172.196-.88-2.442-.88-2.442s.684-1.27 2.637-.098m-45.409-15.53s.096-.879-.296-1.367c-2.342-3.223 2.443 2.444 3.418 2.638m4.49-.003s1.563 1.17 2.345 1.17c.78 0-.488-3.126-.88-3.515-.39-.391 2.832 1.268 4.005 1.465 1.173.291 1.367-1.953 1.367-1.953s3.614.584 4.395 1.074m-25.104-.68s-.292-2.05-.388-2.93m-24.216 12.703c-.196-.392.979-2.15.488-2.932 0 0 .684.588 1.367.686.586.097.388-2.249.388-2.249l.782.292s2.051-.977 1.66-1.759c-.392-.78 1.366 1.17 1.366 1.17s1.174-1.17 1.174-1.657c0-.493 1.365 1.17 1.365 1.17s1.464-.294 1.464-1.17c0-.88 1.856.29 1.856.29s.78-1.073.684-1.758m-19.727 9.77s.877-2.05-.1-3.417m-23.631 9.858c.098-.975.584-3.613.098-4.005-.487-.387.979.392 2.149.685m9.273-.385c-1.173-1.174-1.857-1.759-3.71-1.759m-16.114 8.296c.293-.681.78-2.343.487-3.32m25.001 51.772l1.269-2.638 1.563 3.71 1.073-2.343.39.782 2.343-2.54 2.54 3.81m40.732-16.506l1.66-3.32 2.248 1.173 1.075-3.223 2.342 1.465 1.367-3.027 2.637.682.194-2.148s1.856 1.073 2.344 1.854c.584.784 0-2.635 0-2.635l2.148.976s1.563-1.564-.585-2.444"/>
    <path d="M343.587 163.114l2.344 3.42 1.951-2.247 1.759 3.808 2.246-1.367 3.222 1.856 1.464-1.17 3.516 2.539 1.465-3.027 3.125.976 2.05-3.514m-84.38-9.185s1.368-2.347.88-3.421c-.588-1.074 2.83 1.857 2.83 1.857s.78-2.346.293-3.418c-.586-1.074 3.907 3.125 3.907 3.125s.782-3.613 0-4.397c-.781-.781 4.298 1.077 4.298 1.077s2.051-.585 1.27-1.661c-.783-1.074 3.415 1.561 3.415 1.561s.978-2.634 0-3.615c-1.073-1.072 3.127 1.271 3.127 1.271l-1.563-2.832 3.418.194-.292-3.126m30.276 45.122l2.246-1.073 1.954 1.953 2.149-3.418 2.636 2.539.39-2.539 2.831 1.174.587-1.566 3.125 1.663.292-2.345 1.562.49.295-1.565"/>
  </g>
  <path d="M283.126 298.109a69.836 69.836 0 0 1-5.958-12.99l42.29-37.22 42.292 37.12c-1.465 4.296-3.42 8.89-6.152 13.287l-.338.54c-.78-.29-3.18-1.225-3.18-1.225s-1.368 1.271-2.439 1.367c-1.465.197-2.735-1.267-2.735-1.267s-1.857 1.562-3.711 1.267c-1.857-.193-2.639-1.367-2.639-1.367s-1.952 1.564-3.32 1.271c-1.27-.296-2.149-1.176-2.149-1.176s-1.17 1.468-2.832 1.176c-1.562-.296-3.027-1.176-3.027-1.176s-2.439 1.072-4.004 1.27c-1.56.295-2.93-1.368-2.93-1.368s-2.05 1.367-2.83 1.367c-.782 0-3.712-1.367-3.712-1.367s-3.028.978-4.101.978c-.978 0-4.004-1.269-4.004-1.269s-2.832.78-4.1.78c-1.37 0-3.321-.78-3.321-.78s-2.34 1.075-3.614.78c-1.367-.291-2.442-.78-2.442-.78s-2.539 1.075-4.2.78c-1.563-.291-3.418-1.363-3.418-1.363s-.293.78-3.32 1.363h-.1" fill="#9dd7ff"/>
  <path d="M319.462 205.114v42.783l-42.29 37.415c-4.102-11.917-4.394-22.564-4.394-27.154v-53.043h46.684" fill="#fff" stroke="#000" stroke-width=".684"/>
  <path d="M319.462 205.114v42.783l42.193 37.415c4.1-11.917 4.394-22.564 4.394-27.154v-53.043h-46.587" fill="#ffd83c" stroke="#000" stroke-width=".684"/>
  <g stroke="#000" stroke-width=".509">
    <path d="M292.18 289.22c3.179 1.722 2.102 1.179 8.692 3.513 5.373 1.86 11.622 2.735 20.704 2.735 7.947 0 12.40C59836AA0" fill="#730000" stroke-width=".489"/>
    <path d="M330.762 276.816s8.4 4.785 0 13.967m-37.796-1.074l12.11-11.53-1.366 15.435m6.344 1.366v-25.786m20.708 25.786v-27.35m-10.455 27.839v-29.4" stroke-width=".489" fill="none"/>
    <path d="M310.054 270.566l-5.47 1.76 5.47.585v-2.345m10.253-4.012l-5.76 2.15 5.76.195v-2.345m10.455 1.564l-5.0E4C249AAF" stroke-width=".489" fill="#ff0018"/>
    <g fill="#fff" stroke-width=".489">
      <path d="M294.82 288.144l10.255-9.964-.489 5.959s-5.273 3.417-5.273 5.86l-4.494-1.855m5.463 2.054s1.075-3.1250FF80A1A48"/>
      <path d="M305.85 279.446s4.199-.487 7.325 0c0 0-.488 4.2 0 4.984 0 0-5.47-1.271-7.815.78.001 0-1.074-3.907.4908B4543A06"/>
      <path d="M334.467 285.216s1.365 4.98 3.124 5.567l-2.342 2.833s-2.832-2.052-3.126-4.393c0 0 1.855-2.151 2.344-4.007z"/>
    </g>
  </g>
  <g stroke="#000" stroke-width=".61">
    <path d="M355.405 298.694c-6.738 11.235-17.776 21.782-35.94 28.326-18.46-6.64-29.692-17.677-36.334-28.815l.1-.098c3.026-.589 3.32-1.367 3.32-1.367s1.855 1.074 3.418 1.367c1.66.29 4.2-.782 4.2-.782s1.074.49 2.44.782c1.27.29 3.615-.782 3.615-.782s1.953.782 3.32.782c1.269 0 4.102-.782 4.102-.782s3.027 1.268 4.003 1.268c1.075 0 4.101-.978 4.101-.978s2.931 1.37 3.711 1.37c.78 0 2.832-1.37 2.832-1.37s1.367 1.66 2.93 1.37c1.562-.196 4.004-1.269 4.004-1.269s1.464.88 3.027 1.171c1.66.295 2.832-1.17 2.832-1.17s.88.879 2.149 1.17c1.367.295 3.32-1.269 3.32-1.269s.78 1.173 2.638 1.367c1.855.294 3.711-1.267 3.711-1.267s1.267 1.464 2.734 1.267c1.075-.098 2.44-1.367 2.44-1.367s2.443.78 3.321 1.076" fill="#006ac8" stroke="none"/>
    <path d="M353.744 301.238c-1.464.1-1.66-.879-1.66-.879s-1.95 1.662-3.808 1.368c-1.953-.29-2.832-1.562-2.832-1.562s-2.052 1.66-3.42 1.367c-1.366-.195-2.341-1.173-2.341-1.173s-1.27 1.467-2.931 1.173c-1.66-.195-3.127-1.173-3.127-1.173s-2.636 1.077-4.298 1.368c-1.66.295-3.027-1.562-3.027-1.562s-3.809 1.271-4.59 1.271c-.879 0-3.615-1.27-3.615-1.27s-1.854 1.173-2.929 1.173c-1.17 0-4.297-1.369-4.297-1.369s-2.931.784-4.298.784c-1.368 0-3.419-.784-3.419-.784s-2.54 1.074-3.906.784c-1.367-.295-2.442-.784-2.442-.784s-2.736 1.074-4.395.784c-1.66-.295-3.615-1.367-3.615-1.367s-.292.68-3.514 1.367h-.1" fill="none" stroke-width=".489"/>
    <path d="M293.091 305.222s-.273.639-2.82 1.2c-.054-.003-.69.15-.69.15.235-.042.426-.075.63-.12-.09.035-.29.100F1388BA9B" fill="#5ac800" stroke-width=".586"/>
    <path d="M319.645 326.89c9.555-3.978 11.28-5.06 17.06-8.593-1.008.027-3.94-.92-2.88-1.221 0 0-1.174 1.058-2.30B53DE2A1D" fill="#ffd800" stroke-width=".586"/>
  </g>
  <g stroke="#000" stroke-width=".509">
    <path d="M313.165 248.966c1.898-1.545 2.987-3.032 2.354-4.187-.714-.992-1.83.62-3.086.242 0 0-1.897-1.173-2.408C686AAF2" fill="#b34b00" stroke-width=".489"/>
    <path d="M280.66 214.003l13.399 13.24" fill="none" stroke-width=".48"/>
    <path d="M298.803 220.051c.208-.398.66-1.414 1.14-2.522.188-.437 3.793-6.186 5.59-6.355 0 0 11.21 8.155 11.210C98A31ABD" fill="#fff" stroke-width=".548"/>
    <path d="M305.946 221.971c-1.535-1.192-4.073-2.355-6.12-3.72l-.92 1.92c.74.829 10.067 5.166 11.6 6 0 0-1.777-2.037-4.56-4.2z" fill="#ccb8c8" stroke="none"/>
    <path d="M299.82 218.006c1.2.84 3.48 2.28 4.92 3.12 2.76 1.92 4.508 4.035 6.48 5.16" fill="none" stroke-width=".384"/>
    <path d="M277.107 252.94l25.524-31.587c.478-.438 2.844-.462 3.165 1.985l-24.172 32.943c.001 0-2.753-.273-4.517-3.34z" fill="#782121" stroke-width=".489"/>
    <path d="M362.662 253.286c-.879.687-2.374.864-2.374.864-1.66-1.953-3.03-4.005-5.373-6.543l-25.493-31.356 2.630E29D47A3C" fill="#730000" stroke-width=".489"/>
    <path d="M338.115 220.253l-4.103-4.885s-3.125.39-3.71 2.053c0 0-2.247 3.712-8.204 4.103 0 0 1.66 6.934 8.594 0041A60AE2" fill="#fff" stroke-width=".489"/>
    <path d="M327.862 241.94c-.584-.198-1.172 0-2.051.488-.78.49-1.757.292-1.66-.686.098-.879 0-.78 1.074-1.463 10965A58A8E" fill="#730000" stroke-width=".489"/>
    <path d="M327.277 242.525l28.91-28.719 7.127 7.62s-1.463-.588-2.05-.198c-.488.392.585 1.857.585 1.857s-1.367-0370135A55" fill="#fff" stroke-width=".489"/>
    <path d="M354.522 216.154l-2.247 2.246.488 7.717s.489-2.246 1.172-.685c0 0 .196-1.855.684-1.561-.393-.198-.098-7.717-.097-7.717m-4.196 4.195l-1.66 1.56.585 7.718s.49-2.929 1.171-.584c0 0-.098-1.953-.098-2.639.002.49.002-6.055.002-6.055m-17.481 17.299l-1.563 1.658.392 4.69s.487-3.026 1.17-.685c0 0-.195-1.95-.195-2.636 0 .489.196-3.029.196-3.029" fill="#7e4b7e" stroke="none"/>
    <g fill="none" stroke="#7e4b7e" stroke-width=".879">
      <path d="M330.886 218.304c1.076 1.074 4.103 4.98 4.103 4.98m-2.729-2.83c-.195.588-.584 2.247-1.463 3.126m1.943-2.742c-.099.39-.099 1.661-1.463 2.932m1.952-2.336c-.196.681-.293 1.17-.78 1.661m1.077-1.075c0 .487-.29.585-.388.879m-3.221-2.742c-.39.389-3.224 2.244-4.786 2.832m3.999-1.757c-.39.392-2.149 1.759-3.126 2.15m2.838-.979c-.585.394-1.563 1.367-2.344 1.661m1.758-.49c-.39.488-.977.88-1.464 1.174"/>
      <path d="M311.302 224.65c.32-.589.875-1.744 1.6-2.8.921-1.342 1.318-1.568 1.8-2.04" stroke-linecap="square"/>
    </g>
  </g>
  <path d="M217.011 303.389c1.465.682 0-4.788.487-6.838.586-2.149 4.785 5.274 6.838 6.253 2.148 1.073 15.235-5.0873565AE2" fill="#289400" stroke="#060" stroke-width=".488"/>
  <path d="M208.9 188.803l71.1-36.826c.341-1.903-.74-3.399-1.854-4.885-20.333 9.972-38.838 22.072-61.432 29.403072ECE4A64" fill="#730000" stroke="#000" stroke-width=".489"/>
  <path d="M266.134 152.371l9.18-4.397s3.127 2.345 2.833 4.983c0 0 .683 6.055 8.205 10.255 0 0-6.35 7.91-17.4830F6B1BFA1E" fill="#fff" stroke="#000" stroke-width=".489"/>
  <path d="M276.877 153.638c-1.953.782-8.301 4.102-8.301 4.102m5.277-2.153c-.1.977-.685 3.32 0 4.982m-.883-4.684c0 .487-.78 2.246.098 4.591M272 156.374c-.196.98-.39 1.565 0 2.641m-.787-2.055c-.195.585 0 .88 0 1.268m5.76-1.566c.292.78 2.93 4.883 4.493 6.544m-4.1-4.691c.295.782 1.76 3.615 2.833 4.69m-3.025-3.029c.39.977 1.173 2.736 1.953 3.711m-1.953-1.753c.196.783.586 1.76 1.173 2.445" stroke-width=".781" fill="none" stroke="#7e4b7e"/>
  <g stroke="#000" stroke-width=".489">
    <path d="M342.291 148.282l26.119 12.789c5.233 2.544 7.114.194 10.067 1.477l51.547 26.257c4.421 1.932 6.897 2.0AC9949AE3" fill="#b34b00"/>
    <path d="M344.5 142.81l29.239 14.6" fill="none"/>
  </g>
  <g transform="translate(-40) scale(.96)" fill="#ffa54b" stroke="#000" stroke-width=".509">
    <path d="M309.73 165.12c-.203.61-.712.203-.712.408-.405 2.135-.305 3.253-.813 4.475-.712 1.424-3.256 2.748-3.154 2.645-2.034.609-4.475 3.054-8.442.814-.204-.101-.406-.306-.61-.508 0 0 1.117 4.169-2.95 6.204-1.424.713-15.77 8.244-15.77 8.244s-1.526 2.748-.509 6.512c.103.61.305 1.118-.305 1.526-.916.71-2.646 2.748-3.662 6.004 0 0-3.053-1.324-3.053-3.256 0-1.934 1.221-2.951 1.526-4.378.304-1.321 1.117-4.679.712-5.698-.406-1.119-2.238-1.526-2.95-1.933-.61-.408-1.425.406-1.322 1.322.103 1.018.813.812 1.628 1.018 0 0-.916 1.932-.813 3.356l-9.258 4.783s1.22 1.626 1.627 2.34c.405.712 1.321 10.175 4.069 14.653 2.747 4.477 3.663 3.256 4.273 3.866.508.508 1.321 1.321 2.034 1.934.712.508 3.865.811 4.477-.916.712-1.631 1.22-2.647 3.154-4.174 1.933-1.524 5.899-5.391 5.899-7.123 0 0 2.34 6.716 2.034 12.313 0 0 8.546 1.731 16.177 1.932 7.632.105 11.497-1.524 11.497-1.524s1.018-6.409.608-7.631c0 0 1.221 4.172 2.137 5.596 1.019 1.727 2.136 5.288 4.374 5.493 2.137.101 3.969-2.135 4.171-3.051v-6.716h8.647c0-.101 3.866 1.424 5.086 1.22 1.221-.102 1.933-1.22.813-1.628l-.405-.303c1.117 0 2.543.71 2.543.71h4.271c.103-.101 0-.408-.103-.508-.305-1.222-2.544-2.24-4.17-2.95-1.629-.609-3.459-1.324-4.681-1.424-1.932-.206-3.256-.101-6.206.408-.813.101-3.865.405-5.799 1.321-.509.306-1.019.406-.813-.916.306-1.426.204-7.835-1.32-10.583-1.12-1.932-1.018-3.562-.814-5.188.104-1.63.204-7.225 0-8.854-.306-1.627-2.544-3.867-6.611-4.375-3.866-.511-7.123-3.664-7.325-6.207-.305-2.542.408-7.223.814-9.257" fill="url(#c)"/>
    <g fill="none">
      <path d="M292.44 153.63c-.712 3.253-.712 6.104-.609 9.257.102 2.135 1.118 4.577 2.034 6.715.609 1.426 1.425 3.052 2.746 3.867 3.562 2.34 6.919-.203 8.852-1.017.916-.308 2.341-1.626 2.747-2.442.508-1.219.303-2.135.812-4.475-.103.1.813-.408.712-.408.916-1.526.712-2.034 1.221-3.054.509-1.018-.609-2.136-1.832-1.931.609-1.933 1.019-4.072.405-5.904-.202-.608.51-2.235-.608-1.832-4.579 1.832-9.97 1.426-14.854 1.426-.406 0-.712-.815-1.321-.71-.103 0-.204.303-.307.505" fill="url(#d)"/>
      <path d="M292.03 155.35c-.508-.406-.61-1.319 0-3.256.712-1.929 0-2.034 1.119-3.153 1.12-1.12.814-1.629 1.526-1.932.712-.206 2.849-.206 3.562-.508.609-.308 1.525-.714 2.947-.916 1.526-.308 4.579-.206 6.003.608 1.526.812 2.544 2.85 3.46 3.561 1.02.71 1.63 3.661 1.426 7.938-.307 4.272-1.12 3.458-1.12 3.458s-1.222-2.034-2.238-.308c0 0 0-1.626.204-2.848.102-1.219-.61-3.458.102-4.985 0 0-5.8 1.832-8.751 1.729-3.051-.202-7.322-.916-7.526-1.626l-.714 2.238" fill="#000"/>
      <path d="M294.98 151.8c-.305-.61-1.832-2.85-.609-3.561 1.12-.612.406 2.745 1.935 3.458 0 0-.509 1.526-1.321.102l-.005.001z" fill="#fff" stroke="#fff"/>
      <path d="M298.34 160.14c-.508 1.732-.712 2.138-.916 3.156m10.586 1.624c.204.61.404.303.914.405m.406-3.965c.509-.609 1.221-.303.813 1.223"/>
      <path d="M292.44 157.7c.916.303 1.832.608 2.748 1.02 1.526.61.61 2.845.204 4.271-.204.714-1.019 1.933-.609 2.546.508.811 1.119.303 2.035.403 0-.303.609-.508.813-.508.712-.1 1.12.508 1.627.308.61-.308.51-1.224.306-1.731m-.104-4.479c.102-.403 1.018-.811 1.526-.915 2.136-.405 3.661-.712 5.393.511m-5.699 11.084c-1.729.408-3.561.71-5.188-.206m-.002-.804c.813-.408 1.12-.816 2.137-.308 0-.101 1.12-.405 1.12-.405.812 0 1.322.304 2.136.812m-5.493.301c.916-.306 3.358-.306 5.394.102"/>
      <path d="M292.34 160.14c.713-.1 1.526-.916 3.154.306 1.12.712-1.832 1.426-1.322 1.324-1.32.202-1.729-.508-1.80D3E296A3D" fill="#fff" stroke-width=".305"/>
      <path d="M293.76 161.36c.406 0 .712-.406.712-.814 0-.508-.306-.916-.712-.916-.507 0-.812.408-.812.916 0 .408.0CB2E25A5A" fill="#000" stroke-width=".305"/>
    </g>
    <g id="g">
      <g fill="none">
        <path d="M345.85 213.66c-.608-.714-1.018-1.02-1.83-1.324l-2.036-1.016c-.712-.408-1.729-.508-2.34-.916m.406 2.646c-.306-.203-.508-.304-.812-.51-.306-.101-.712-.101-1.02-.203-.102 0-.102-.204-.203-.204-.915-.102-1.831-.51-2.44-1.321M272.8 201.45c.914.71 3.152 2.24 3.356 5.19.204 1.525 1.019 3.051 1.019 3.051m-13.125-7.831c.51 1.727.61 7.425 6.003 13.43m-4.983-21.37c-.408 1.119-.916 2.137.202 2.951m14.448 10.689c1.12-2.545 4.578-2.342 4.578-4.782"/>
        <path d="M284.81 207.25c-.306-2.849-.916-4.475-.405-8.647.203-1.223.405-5.9 0-8.141 0 0 1.629 7.833-3.662 9.363m34.387 12.515c0-3.97.916-6.209.916-6.209 1.221-5.593-1.119-7.731-.203-9.155.812-1.221 2.035-3.766.407-8.854 0 0 2.847 10.484-4.478 10.484-7.425 0-7.121-2.748-7.121-2.748"/>
        <path d="M284.4 190.46c0 2.135 0 8.447 9.055 8.447 2.746 0 5.698-1.933 7.324-3.256m2.241-2.751c-.306-1.934-.306-4.375-.306-6.92m-13.634-3.45c2.441-.308 4.376-.61 8.955-.61m.305-6.32c.509 2.24-.304 5.8 3.866 6.309m4.374-7.119c-.61 1.629-.61 3.256-.814 4.375m.204 2.755c1.73 0 4.985-1.121 9.054-.306m1.426 22.786c.813 1.63 1.018 3.765 3.561 6.207M288.27 199.21c.204 1.324-1.729 5.698-.306 9.262 1.322 3.559 1.12 7.631-1.12 11.089m6.616-19.021c-.813 1.626-2.238 3.256-2.544 4.68m6.604-1.63c0 1.018-2.744 8.749-4.68 10.886 0 0 3.561 1.424 3.051 6.614m7.329-21.06c0 1.324-.204 1.63.916 2.44m2.444 0c1.32 1.628 5.492 6.514 4.576 9.259m-7.326-6.509c.306 1.018.306 6.309-.61 8.955m-2.13-.205c-1.12 0-2.746.814-3.052 2.747m8.742-3.057c1.118-.306 3.355 1.626 3.355 7.123m15.675-10.273c-2.136.61-3.052 1.732-2.44 1.119-1.12.916-2.138 1.526-2.138 1.526"/>
      </g>
      <path d="M289.79 197.99c.608 0 1.118-.408 1.118-.916 0-.411-.507-.816-1.118-.816-.509 0-1.02.405-1.02.816 0 .0033FE6AC3" fill="#000" stroke-width=".305"/>
      <path d="M280.54 239.81c1.22-7.937 4.985-14.551 5.086-15.162 0 0 3.865.816 10.58 1.424 6.612.71 8.444.408 11.08FDD77A85" fill="#fff"/>
      <path d="M294.27 274.92c-.609 2.24-1.628 4.375-3.559 5.803m-2.751-53.633c-.304 1.322-2.238 7.325-7.122 10.887m14.242-9.767c-1.12 3.562-5.493 22.693-6.309 45.383m-.301 7.127c-.204 2.135-1.322 18.012-1.628 20.756m-.812 3.054c-.509 1.117-2.746 10.375-2.746 18.619m32.246-35.919c-.204 1.933-1.019 15.668 3.561 27.98m-18.511-85.98c-.305 2.237-.813 16.688-.813 17.806 0 1.117 1.628 2.747 2.441 3.054 0 0-1.628.509-1.933 6.003M296.2 243.17c-.308 1.727-1.934 8.547-3.054 11.295m13.124-25.435s4.884 1.018 5.188 0c0 0 1.628 29.512 3.866 45.891M304.14 232.79c0 1.934-.609 16.485-.609 16.485m2.439 2.135s1.931 2.745 1.425 4.066M289.59 227.4c1.629.508 3.053.812 3.053.812m5.187 1.628c-.307.814-.61 4.58-.61 4.58m8.75 38.87c.61.814 1.425 1.936.814 4.377" fill="none"/>
      <path d="M284.91 224.45s0-3.256 1.22-4.886c0 0 3.457.714 8.342 1.222 4.984.508 8.951.916 12.615.508 3.663-.400D0CC4EACC" fill="#9b5f00"/>
      <path d="M288.06 224.85l.608-4.883 1.019.1-.203 5.088-1.424-.305m22.08-4.07l.103 5.496 1.221-.206-.102-5.597-1.222.307m-15.67 0l-.406 5.291h.713l.712-5.291h-1.019" fill="#fff"/>
      <path d="M276.77 320.81c-.305 1.322-.812 3.154-1.018 5.496 0 .508-.507 3.256 1.018 3.356 1.12.103 1.425-2.849 1.425-2.849s-1.019 3.256.305 3.664c1.832.403 2.034-3.562 2.034-3.562-.204 1.119-1.425 3.969.306 4.271 1.831.307 2.339-3.867 2.339-3.867s-1.525 4.174.305 4.275c1.729.1 1.729-4.072 1.729-4.072s-.916 4.988 1.526 4.58c1.321-.203 1.628-1.934 1.933-2.951.406-1.524 1.322-3.457.204-6.612-.812-2.341-.507-2.951-.507-2.951s-2.85 2.138-5.087 3.562c-1.019.609-6.514-2.34-6.514-2.34zm29.71-4.38c-.508-.307-.406 1.832-.609 2.846-.103 1.021.204 3.257 3.663 3.055 3.355-.307 6.715-1.018 8.851-.509 2.137.61 5.289.711 7.021.711 1.729 0 2.849-.202 3.661-.509.713-.303 2.238.408 2.95.408.713 0 1.831-1.119 1.73-1.832-.103-1.324-1.322-1.324-3.054-1.424-1.628-.203-3.865-.511-4.983-.916-1.12-.408-3.154-1.527-5.698-2.035 0 0-4.883.205-5.898.205-1.019 0-7.022.303-7.634 0z"/>
    </g>
    <g fill="none">
      <path d="M255.71 189.85c-.507.306-1.12-2.035.406-2.951 0 0 .406-1.931 2.035-2.136 0 0 1.321-1.832 3.257-1.6260C8FFDCA7A" fill="#ffb366"/>
      <path d="M265.68 186.09c-.51-1.629-2.137-3.054-4.069-2.848m2.239 4.368c-.306-.408-.408-.816-.712-1.22-.916-1.528-2.849-1.424-4.477-1.832m2.439 4.582c-.609-.406-.813-1.222-1.425-1.524-1.018-.408-2.034-.916-3.255-.714"/>
    </g>
  </g>
  <g transform="translate(-40) scale(.96)" stroke="#000" stroke-width=".509">
    <path d="M439.14 165.12c.712-.306.51.61.61.916.306 1.321.306 2.748.813 3.967.608 1.119.812 1.526 1.83 2.035 1.627.916 6.407 3.562 9.767 1.424a3.11 3.11 0 0 0 .712-.508s-1.221 4.172 2.95 6.207c1.321.71 15.668 8.241 15.668 8.241s1.525 2.748.609 6.512c-.204.61-.405 1.118.204 1.526 1.019.71 2.644 2.748 3.766 6.004 0 0 2.947-1.324 2.947-3.256 0-1.934-1.219-2.951-1.525-4.375-.202-1.324-1.017-4.682-.608-5.698.405-1.118 2.135-1.526 2.847-1.936.714-.408 1.526.406 1.322 1.322-.102 1.018-.812.816-1.628 1.018 0 0 1.02 1.932.814 3.356l9.358 4.783s-1.221 1.629-1.628 2.34c-.509.715-1.425 10.175-4.171 14.653-2.748 4.477-3.663 3.256-4.171 3.866-.61.508-1.424 1.324-2.137 1.934-.608.508-3.764.814-4.476-.916-.712-1.628-1.221-2.647-3.153-4.174-1.934-1.524-5.9-5.391-5.9-7.123 0 0-2.341 6.719-2.035 12.313 0 0-8.443 1.731-16.176 1.936-7.631.102-11.497-1.528-11.497-1.528s-1.018-6.409-.61-7.631c0 0-1.22 4.172-2.033 5.596-1.118 1.727-2.236 5.291-4.375 5.493-2.236.104-3.968-2.135-4.271-3.051v-6.716h-8.646c0-.101-3.766 1.424-5.087 1.223-1.221-.105-1.832-1.223-.813-1.631l.407-.303c-1.119 0-2.544.71-2.544.71h-4.272c0-.101.103-.408.103-.508.307-1.219 2.545-2.24 4.272-2.95 1.628-.609 3.356-1.324 4.578-1.424 1.933-.203 3.256-.101 6.206.408.812.101 3.967.408 5.798 1.322.508.304 1.118.405.813-.915-.305-1.426-1.221-5.598.307-8.346 1.018-1.933.916-3.559.813-5.189-.204-1.729-1.118-5.598-1.118-7.325 0-5.699 4.375-8.039 8.24-9.262 4.272-1.319 7.121-2.748 6.92-5.288-.104-2.646.608-7.021.202-9.058" fill="url(#e)"/>
    <g fill="none">
      <path d="M456.34 153.63c.916 3.356 1.12 4.169 1.12 5.291 0 1.219-.509 1.424-.104 2.748.713 2.441-.712 5.088-2.441 7.937-.813 1.32-1.424 3.052-2.746 3.866-3.356 2.135-7.427-.408-9.563-1.327-1.117-.505-1.729-1.319-2.033-2.135-.407-1.219-.509-2.34-.813-3.967 0-.306.103-1.219-.609-.916-1.22-1.424-1.018-2.034-1.524-3.051-.509-1.021.916-2.139 2.034-1.934-.61-1.933-.916-4.072-.306-5.904.204-.608-.508-2.235.51-1.832 4.577 1.832 9.969 1.426 14.854 1.426.404 0 .71-.812 1.32-.71.098-.001.2.305.301.508" fill="url(#f)"/>
      <path d="M456.75 155.35c.508-.406.204-2.34-.306-4.375-.203-1.017-1.018-1.424-2.136-2.542-1.12-1.122-1.525-1.1096339FAD8" fill="#000"/>
      <path d="M450.44 160.14c.61 1.732.104 1.222.408 2.34m-10.278 2.03c0 .812-.61.61-1.019.61"/>
      <path d="M456.85 158.82c-.916-.713-2.645-.204-3.46.102-1.525.71-.712 2.24-.204 3.664.204.71 1.02 1.727.511 2.441-.407.812-.713.408-1.629.51.104-.308-.812 0-1.117 0-.61-.102-.916.403-1.426.202-.608-.304-.508-1.22-.306-1.729m.101-4.48c0-.403-1.321-.811-2.745-.915-2.238-.102-2.442.104-4.172 1.322m11.497 8.953c-.405-.608-1.018-.916-2.137-.405 0-.204-1.524-.406-1.524-.406-.812 0-1.321.303-2.136.71m5.587.611c-.916-.609-3.256-.201-5.596-.201m.206.811c1.73.512 3.46.816 5.188 0"/>
      <path d="M456.44 160.14c-.712-.1-1.018-.916-3.153.306-1.119.61 1.832 1.426 1.425 1.324 1.22.202 1.628-.508 1.08BCCF2AFD" fill="#fff" stroke-width=".305"/>
      <path d="M455.12 161.36a.802.802 0 0 1-.813-.814c0-.508.307-.916.813-.916.405 0 .712.408.712.916 0 .408-.307.023480BA6E" fill="#000" stroke-width=".305"/>
    </g>
    <use height="100%" width="100%" xlink:href="#g" transform="matrix(-1 0 0 1 748.816 0)" fill="#730000"/>
    <g fill="none">
      <path d="M491.64 193.51c.508.206 1.934-2.033.508-3.051 0 0-.508-1.932-2.136-2.034 0 0-1.322-1.933-3.257-1.63 018EEC6AE0" fill="#730000"/>
      <path d="M482.49 189.75c.506-1.73 2.235-3.153 4.067-2.849m-2.137 4.379c.203-.411.305-.816.61-1.224.915-1.524 2.948-1.524 4.576-1.832m-2.546 4.476c.61-.408.814-1.118 1.426-1.421 1.018-.512 2.136-.916 3.256-.714"/>
      <path d="M482.31 186.77c-.896.716-1.837 1.798-1.906 2.281-.103.61-.008 1.827.5 2.438.551.461.949-.017 1.095-.06A100DA34" fill="#730000" stroke="none"/>
      <path d="M480.68 188.19c-1.502 2.582.5 4.132 1.164 2.619-.193 2.386 1.606 2.292 2.285 1.538.658 2.512 1.83 1.395 2.909 1.164-1.223 2.29 1.479 1.609 2.12 1.081.924-1.362 1.356-.277 2.036-.416l1.164-1.247m-7.978-5.699c-1.686.896-2.512 2.137-2.535 3.699m4.865-2.199c-1.687.896-2.512 2.137-2.535 3.699m5.405-1.749c-1.687.897-1.765 1.722-2.493 2.826"/>
    </g>
  </g>
  <path d="M238.496 310.714l-.196-4.493 1.857 1.564.487-3.42c.781-.198 2.052 1.37 2.052 1.37l-.196-3.422 2.832 00A4E03A5D" fill="#5ac800"/>
  <path d="M238.496 310.714l-.196-4.493 1.857 1.564.487-3.42c.781-.195 2.052 1.37 2.052 1.37l-.196-3.42 2.832 3.126s-.195-2.638.78-4.2c0 0 2.147 1.857 2.147 4.005 0 1.859 1.857-2.638 1.857-2.638.488 1.566 1.563 4.984 1.563 4.984l1.268-1.859 1.074 3.906 2.343-3.417 1.856 4.005 4.2-.295.489 2.345 1.855-2.051 2.443 1.564s2.05-.585 3.125-.585c1.075 0 2.344 1.365 2.344 1.365s.78-1.365 1.563-1.854c.78-.488 1.855.78 2.145 1.561l1.564-2.83s2.052 2.05 2.344 2.83c0 0 .292-2.341.781-3.125.49-.78 1.268.294 1.856 1.27l1.269-4.2s1.367.292 2.342 1.856c1.075 1.561 1.075-2.346 1.075-2.346s2.343 3.128 2.932 5.275m58.8-.783s.78-2.146 1.856-3.222c0 0 2.05 2.443 2.05 3.222 0 0 .586-.293 1.661-1.072l1.563 1.56 1.856-1.267 1.759 1.562 3.223-1.367 1.266 1.367 4.98-.583 1.859.78 1.756-2.244 1.661 1.755 2.636-2.635s1.27 1.07 1.563 1.855c0 0 2.149-1.074 2.637-1.855 0 0 2.05-.781 2.342.485 0 0 1.269-.976 1.172-2.05-.099-1.073 1.464-.291 1.953 1.078 0 0 .584-2.15 2.148-2.348 0 0 1.073 1.27.78 3.616 0 0 2.343-1.855 3.418-2.052 0 0 .489 2.635-.292 4.982 0 0 2.442-4.005 2.93-2.637.196.78.782 3.42.196 5.273l2.148-1.367.781 2.638 2.342-.49m-109.738 7.957s1.759-2.93 2.83-3.712c0 0 2.345 1.857 3.127 4.2 0 0 .295-1.561 1.075-2.929 0 0 2.93 1.364 3.418 3.223 0 0 1.076-1.856 1.857-2.343.78-.589 1.563 2.05 1.563 3.613 0 0 1.856-1.955 2.93-2.052 0 0 2.051.976 2.637 4.397 0 0 1.954-1.856 2.636-1.565 0 0 2.344 1.565 1.758 3.712-.293 1.172 2.344-1.365 5.568-2.147l2.83 2.147s2.637-3.515 3.42-4.69c0 0 2.148.782 2.148 2.054 0 0 .978-3.714 1.759-4.102.78-.488 1.853 1.17 1.853 2.246 0 0 .295-2.833 1.859-3.42 0 0 1.563 1.074 1.563 2.15 0 0 1.66-3.222 2.93-4.007" stroke-width=".489" fill="none" stroke="#060"/>
  <g fill="#fff">
    <path d="M319.462 361.9c21.977.198 34.967-7.815 42.097-12.601 16.7-11.231 20.217-11.623 22.952-11.43 3.127.297 7.714 1.37 7.91 4.106.294 4.2-6.542 6.055-10.45 6.055-4.003 0-14.456-2.638-14.456-2.638l-2.736 1.858c1.857.88 23.247 8.009 27.349 1.27 4.197-6.837 8.399-17.877 8.399-17.877s-4.688-8.4-15.14-8.4c-10.548 0-20.805 6.644-27.64 11.621-6.838 4.982-15.43 11.82-38.287 11.82-22.855 0-31.546-6.838-38.382-11.82-6.836-4.98-17.093-11.622-27.542-11.622-10.547 0-15.237 8.401-15.237 8.401s4.2 11.04 8.4 17.877c4.1 6.739 25.492-.39 27.345-1.27l-2.636-1.858s-10.548 2.638-14.456 2.638c-4.004 0-10.841-1.855-10.548-6.055.196-2.736 4.785-3.811 7.912-4.106 2.734-.193 6.25.199 22.95 11.43 7.134 4.786 20.124 12.504 42.196 12.602"/>
    <path d="M284.106 336.01s0-1.86-.296-4.592c-.39-3.518-2.44-4.397-4.1-3.908-1.074.387-3.222 3.029-3.222 3.029v.098a31.068 31.068 0 0 0-3.028-1.857c.782-.88 5.274-3.614 6.349-3.614.978 0 14.455 5.47 18.75 9.18 1.076.98 1.858 7.035 1.27 8.986-7.227-1.855-11.915-4.59-15.726-7.227v-.098m-6.449 13.683s-2.93 2.929-3.026 8.302c-.1 6.348 4.492 6.643 7.52 6.543 3.614-.1 6.542-2.148 6.446-8.889 0 0-5.96-2.54-10.94-5.958m77.069-13.678s.1-1.86.392-4.592c.387-3.518 2.342-4.397 4.003-3.908 1.074.387 3.222 3.029 3.222 3.029v.098c.976-.686 1.95-1.27 3.026-1.857-.78-.88-5.272-3.614-6.25-3.614-1.073 0-14.55 5.47-18.848 9.18-.98.98-1.76 7.035-1.27 8.986 7.326-1.855 11.915-4.59 15.725-7.227v-.098m6.442 13.683s2.93 2.929 3.028 8.302c.195 6.348-4.495 6.643-7.52 6.543-3.615-.1-6.446-2.148-6.446-8.889 0 0 5.958-2.54 10.94-5.958"/>
  </g>
  <path d="M271.309 345.389s-10.452 2.638-14.358 2.638c-4.003 0-10.841-1.853-10.547-6.056.195-2.736 4.785-3.808 7.91-4.1 2.344-.2 5.372.096 16.995 7.518m96.211 0s10.45 2.638 14.456 2.638c3.907 0 10.743-1.853 10.45-6.056-.195-2.736-4.784-3.808-7.91-4.1-2.346-.2-5.374.096-16.996 7.518m-83.414-9.283c-1.075-.782-2.149-1.566-3.128-2.344-1.464-1.076-2.93-2.053-4.494-3.126 0 0 2.149-2.736 3.223-3.03 1.66-.584 3.71.292 4.1 3.809.294 2.736.294 4.692.294 4.692m-7.128 27.551c1.858 1.076 3.907.979 5.178.879 3.614-.098 6.543-2.149 6.446-8.888 0 0 4.491 2.247 11.817 4.005 0 0 1.173 1.464 1.367 4.393.296 2.445-1.367 5.08-3.319 4.887 0 0-10.255-1.857-16.504-2.93-3.615-.682-4.981-2.344-4.981-2.344m77.746-27.554c1.073-.782 2.149-1.566 3.221-2.344 1.369-1.076 2.832-2.053 4.396-3.126 0 0-2.148-2.736-3.222-3.03-1.66-.584-3.614.292-4.003 3.809-.295 2.733-.392 4.69-.392 4.69m7.123 27.553c-1.855 1.076-3.907.979-5.177.879-3.614-.098-6.446-2.149-6.446-8.888 0 0-4.494 2.247-11.72 4.005 0 0-1.27 1.464-1.466 4.393-.196 2.445 1.465 5.08 3.32 4.887 0 0 10.352-1.857 16.506-2.93 3.614-.682 4.98-2.344 4.98-2.344" fill="#69f"/>
  <g fill="none" stroke="#000" stroke-width=".684">
    <path d="M319.462 361.9c21.978.196 34.967-7.816 42.097-12.601 16.7-11.233 20.217-11.622 22.951-11.428 3.127.200F5AE7AE4"/>
    <path d="M271.309 345.389s-10.453 2.638-14.356 2.638c-4.005 0-10.841-1.856-10.55-6.056.196-2.736 4.786-3.811 0169EC0A06"/>
    <path d="M284.106 336.01s0-1.859-.296-4.592c-.388-3.518-2.44-4.397-4.1-3.908-1.075.39-3.224 3.029-3.224 3.0290614269ACE"/>
    <path d="M280.102 351.149s-2.341 2.441-2.733 6.446c-.196 3.127 1.855 4.883 4.492 4.688 3.711-.193 5.178-5.272 3.42-8.105l-5.179-3.03"/>
    <path d="M276.973 363.658c1.856 1.074 3.905.977 5.176.879 3.615-.1 6.542-2.15 6.448-8.89 0 0 4.492 2.247 11.8001D800AAC"/>
    <path d="M354.723 336.01s.1-1.859.392-4.592c.389-3.518 2.342-4.397 4.003-3.908 1.075.39 3.222 3.029 3.222 3.0028B5AAA22"/>
    <path d="M358.726 351.149s2.345 2.441 2.735 6.446c.295 3.127-1.857 4.883-4.493 4.688-3.71-.193-5.078-5.272-3.419-8.105l5.177-3.03"/>
    <path d="M361.846 363.658c-1.855 1.074-3.907.977-5.177.879-3.613-.1-6.444-2.15-6.444-8.89 0 0-4.495 2.247-11.0618ADCA3B"/>
  </g>
  <path d="M299.638 361.411s3.223 2.347-.683 5.276m-8.984-6.841l9.864 4.3m-8.213-2.053l7.225 3.124m-4.681-4.977l5.47 2.445m39.65-1.274s-3.321 2.347.586 5.276m8.986-6.841l-9.865 4.3m8.3-2.053l-7.226 3.124m4.595-4.977l-5.372 2.445" stroke-width=".684" fill="none" stroke="#fff"/>
  <path d="M261.018 331.363c.14.227.229.464.273.707a2.51 2.51 0 0 1-.029.83 2.346 2.346 0 0 1-1.157 1.644c-.63405CE713A53" stroke-width=".672" stroke="#000"/>
  <path d="M366.051 205.114v53.04c0 10.548-1.464 52.554-46.589 68.868-45.22-16.314-46.684-58.316-46.684-68.868v-53.04h93.273" fill="none" stroke="#000" stroke-width=".977"/>
</svg>
