<svg xmlns="http://www.w3.org/2000/svg" xmlns:xlink="http://www.w3.org/1999/xlink" height="480" width="640" id="flag-icon-css-cx">
  <path fill="#0021ad" d="M0 0h640v480H0z"/>
  <path d="M0 0h640v480z" fill="#1c8a42"/>
  <circle cx="320" cy="240" r="57.805" fill="#ffc639"/>
  <path d="M284.698 214.035c3.954 5.425 9.946 14.52 14.766 12.147 3.76.013 5.702.277 6.212 2.78 8.87 1.51 23.770CD583BAB2" fill="#1c8a42"/>
  <path d="M561.875 142.435c-2.62-10.364-26.06-32.685-43.678-46.89-4.206-2.865-6.947-1.158-6.4 2.927 2.194 3.660CC940DAD5" fill="#ffc639"/>
  <path d="M588.563 204.166a2.818 1.76 15.947 1 1-5.373-1.687 2.818 1.76 15.947 0 1 5.373 1.686z" fill="#1c8a42"/>
  <g transform="matrix(.64 0 0 .64 0 80)" fill="#fff">
    <path id="a" d="M188.16 190.94l-12.75-11.936-12.905 11.77 1.383-17.405-17.25-2.754 14.476-9.774-8.606-15.197 16.668 0D9754FA8E"/>
    <path d="M233.39 335.53l-13.752-9.167-13.39 9.664 4.71-15.568-13.58-9.416 16.666-.446 4.988-15.496 5.595 15.3 16.667-.156-13.21 9.902 5.307 15.382z"/>
    <use height="100%" width="100%" xlink:href="#a" x="2.522" y="269.061"/>
    <use height="100%" width="100%" xlink:href="#a" x="-112.066" y="123.223"/>
    <use height="100%" width="100%" xlink:href="#a" x="108.427" y="85.027"/>
  </g>
</svg>
