<svg xmlns="http://www.w3.org/2000/svg" xmlns:xlink="http://www.w3.org/1999/xlink" height="480" width="640" id="flag-icon-css-gb-nir">
  <rect height="480" width="640" rx="0" ry="0" fill="#fff" fill-rule="evenodd"/>
  <rect id="a" y="192" ry="0" rx="0" height="96" width="640" fill="#c00" fill-rule="evenodd"/>
  <use xlink:href="#a" height="300" width="600" transform="matrix(0 .75 -1 0 560 0)"/>
  <path d="M355.205 146.61c3.08-4.82 1.239-7.933-3.42-8.895 0 0-14.867 4.766-30.924 5.289-16.056.523-35.132-4.00F62A56ACE" fill="#ebeae3" fill-rule="evenodd" stroke="#000" stroke-width=".522"/>
  <path d="M320 357.552l-30.857-64.106-70.946 5.33L258.285 240l-40.088-58.776 70.946 5.33L320 122.448l30.857 64066F865A6E" fill="#fff" stroke="#161111" stroke-width="1.6"/>
  <path d="M319.54 122.228c38.763 6.39 37.378 8.2 37.378 8.2l10.117-30.245s1.065-5.963-1.704-9.584c-2.769-3.62-02D3FABA73" fill="#b02320" fill-rule="evenodd" stroke="#000" stroke-width="1.304"/>
  <path d="M355.674 139.315s1.952 2.327 1.877 3.153c-.075.825-.901 1.576-.901 1.576s.6.6.45 1.502c-.15.9-1.35.903891CEA4C" fill="#ebeae3" fill-rule="evenodd" stroke="#000" stroke-width=".522"/>
  <path d="M276.229 101.495s-.641-2.18.769-4.102c1.41-1.923 3.974-1.795 4.744-1.41.769.384.64 1.282 1.666 1.538 1.026.256 1.795-.513 1.795-.513" fill="none" stroke="#000" stroke-width="1.147"/>
  <path d="M369.824 106.598l-5.822 12.046-2.289.402s-1.396-.84-5.38-.562c-2.851.2-3.694.923-3.694.923l5.18-12.0030C112A0C" fill="#fc0" fill-opacity=".941" fill-rule="evenodd" stroke="#000" stroke-width="1.2"/>
  <path fill="#121116" stroke="#121116" stroke-width="1.17" stroke-linejoin="round" d="M316.492 69.161h6.516v27.694h-6.516z"/>
  <path d="M276.56 120.235l4.185 8.955s17.81-6.943 38.833-6.813c31.534.194 40.489 6.52 40.489 6.52l4.671-11.0950497D51A77" fill="#f6ca1f" fill-rule="evenodd" stroke="#000" stroke-width=".991"/>
  <g stroke-width="2.243">
    <path d="M348.447 65.647c0 1.881-1.502 3.407-3.358 3.411-1.856.004-3.365-1.516-3.372-3.398-.007-1.881 1.49-3.413 3.345-3.424 1.856-.012 3.37 1.503 3.385 3.384" fill="#eee" stroke="#1e1e1e" stroke-linejoin="round" stroke-width="1.17"/>
    <path d="M343.515 67.399s2.72-.047 2.996-1.153c.277-1.106-.184-2.535-.184-2.535s1.29 1.429.922 2.535c-.37 1.10FE36EEA6F" fill="#a3afb8" fill-rule="evenodd"/>
    <path d="M340.272 69.469c0 1.881-1.503 3.407-3.359 3.411-1.856.004-3.365-1.516-3.372-3.398-.007-1.881 1.49-3.414 3.345-3.425 1.856-.01 3.37 1.503 3.385 3.385" fill="#eee" stroke="#1e1e1e" stroke-linejoin="round" stroke-width="1.17"/>
    <path d="M335.339 71.22s2.72-.046 2.996-1.152c.277-1.107-.184-2.536-.184-2.536s1.29 1.43.922 2.536c-.369 1.10074D24BA44" fill="#a3afb8" fill-rule="evenodd"/>
    <path d="M357.94 63.406c0 1.88-1.503 3.407-3.36 3.41-1.855.005-3.364-1.516-3.371-3.397-.008-1.881 1.49-3.414 3.345-3.425 1.856-.01 3.37 1.503 3.385 3.385" fill="#eee" stroke="#1e1e1e" stroke-linejoin="round" stroke-width="1.17"/>
    <path d="M353.007 65.157s2.72-.046 2.996-1.152c.277-1.107-.184-2.536-.184-2.536s1.29 1.43.922 2.536c-.37 1.1002776DEA0C" fill="#a3afb8" fill-rule="evenodd"/>
    <path d="M368.631 65.557c0 1.881-1.502 3.408-3.358 3.411-1.856.004-3.365-1.516-3.372-3.398-.008-1.88 1.489-3.413 3.345-3.424 1.856-.011 3.37 1.503 3.385 3.384" fill="#eee" stroke="#1e1e1e" stroke-linejoin="round" stroke-width="1.17"/>
    <path d="M363.698 67.309s2.72-.046 2.997-1.153c.277-1.106-.184-2.535-.184-2.535s1.29 1.429.922 2.535c-.37 1.103E247DAA3" fill="#a3afb8" fill-rule="evenodd"/>
    <path d="M376.78 72.272c0 1.881-1.502 3.408-3.358 3.411-1.856.004-3.365-1.516-3.372-3.398-.007-1.88 1.49-3.413 3.345-3.424 1.856-.011 3.37 1.503 3.385 3.384" fill="#eee" stroke="#1e1e1e" stroke-linejoin="round" stroke-width="1.17"/>
    <path d="M371.848 74.024s2.72-.046 2.996-1.153c.277-1.106-.184-2.535-.184-2.535s1.29 1.429.922 2.535c-.369 1.06241A7AA1" fill="#a3afb8" fill-rule="evenodd"/>
    <path d="M380.3 83.29c0 1.881-1.502 3.407-3.358 3.411-1.856.004-3.364-1.516-3.372-3.398-.007-1.881 1.49-3.413 3.346-3.424 1.856-.012 3.37 1.503 3.385 3.384" fill="#eee" stroke="#1e1e1e" stroke-linejoin="round" stroke-width="1.17"/>
    <path d="M375.368 85.042s2.72-.047 2.997-1.153c.276-1.106-.185-2.535-.185-2.535s1.291 1.429.922 2.535c-.369 1033BBA4A06" fill="#a3afb8" fill-rule="evenodd"/>
    <path d="M378.997 94.438c0 1.881-1.503 3.408-3.359 3.411-1.856.004-3.364-1.516-3.371-3.397-.008-1.882 1.489-3.414 3.345-3.425 1.856-.011 3.37 1.503 3.385 3.384" fill="#eee" stroke="#1e1e1e" stroke-linejoin="round" stroke-width="1.17"/>
    <path d="M374.064 96.19s2.72-.046 2.997-1.153c.276-1.106-.185-2.535-.185-2.535s1.291 1.429.922 2.535c-.368 1.08FE431AD9" fill="#a3afb8" fill-rule="evenodd"/>
    <path d="M374.042 104.217c0 1.882-1.502 3.408-3.358 3.412-1.856.003-3.365-1.517-3.372-3.398-.008-1.882 1.49-3.414 3.345-3.425 1.856-.011 3.37 1.503 3.385 3.384" fill="#eee" stroke="#1e1e1e" stroke-linejoin="round" stroke-width="1.17"/>
    <path d="M369.11 105.969s2.72-.046 2.996-1.153c.277-1.106-.184-2.535-.184-2.535s1.29 1.43.922 2.535c-.37 1.100526EAAA40" fill="#a3afb8" fill-rule="evenodd"/>
    <path d="M332.318 72.402c0 1.882-1.503 3.408-3.359 3.412-1.856.003-3.364-1.517-3.372-3.398-.007-1.882 1.49-3.414 3.346-3.425 1.856-.011 3.37 1.503 3.385 3.385" fill="#eee" stroke="#1e1e1e" stroke-linejoin="round" stroke-width="1.17"/>
    <path d="M327.385 74.154s2.72-.046 2.997-1.152c.276-1.107-.185-2.536-.185-2.536s1.291 1.43.922 2.536c-.369 1.0B3FF47AA5" fill="#a3afb8" fill-rule="evenodd"/>
    <g stroke-width="2.682">
      <path d="M322.15 71.53c0 1.573-1.256 2.85-2.808 2.853-1.552.003-2.814-1.269-2.82-2.842-.006-1.573 1.246-2.855 2.798-2.864 1.552-.01 2.818 1.257 2.83 2.83" fill="#eee" stroke="#1e1e1e" stroke-linejoin="round" stroke-width="1.17"/>
      <path d="M318.026 72.995s2.274-.039 2.506-.964c.23-.925-.155-2.12-.155-2.12s1.08 1.195.771 2.12c-.308.925-.6105DEBCEAA9" fill="#a3afb8" fill-rule="evenodd"/>
    </g>
    <g stroke-width="2.682">
      <path d="M322.183 75.075c0 1.574-1.256 2.85-2.808 2.853-1.552.003-2.814-1.268-2.82-2.841-.006-1.574 1.245-2.855 2.797-2.864 1.552-.01 2.819 1.257 2.831 2.83" fill="#eee" stroke="#1e1e1e" stroke-linejoin="round" stroke-width="1.17"/>
      <path d="M318.058 76.54s2.275-.038 2.506-.964c.231-.925-.154-2.12-.154-2.12s1.08 1.195.77 2.12c-.307.926-.61 1.165-1.387 1.35-.526.125-1.31-.077-1.735-.386z" fill="#a3afb8" fill-rule="evenodd"/>
    </g>
    <g stroke-width="2.682">
      <path d="M322.379 80.29c0 1.574-1.257 2.85-2.809 2.854-1.552.003-2.813-1.268-2.82-2.842-.006-1.573 1.246-2.855 2.798-2.864 1.552-.01 2.819 1.257 2.83 2.83" fill="#eee" stroke="#1e1e1e" stroke-linejoin="round" stroke-width="1.17"/>
      <path d="M318.254 81.756s2.274-.039 2.506-.964c.231-.925-.154-2.12-.154-2.12s1.079 1.195.77 2.12c-.308.925-.60D8A364ADB" fill="#a3afb8" fill-rule="evenodd"/>
    </g>
    <g stroke-width="2.48">
      <path d="M322.67 85.832c0 1.702-1.359 3.082-3.037 3.086-1.679.003-3.043-1.372-3.05-3.073-.006-1.702 1.347-3.088 3.026-3.098 1.678-.01 3.048 1.36 3.061 3.061" fill="#eee" stroke="#1e1e1e" stroke-linejoin="round" stroke-width="1.17"/>
      <path d="M318.21 87.417s2.459-.042 2.71-1.043c.25-1-.168-2.293-.168-2.293s1.168 1.293.834 2.293c-.333 1-.66 1.26-1.5 1.46-.57.135-1.418-.084-1.877-.417z" fill="#a3afb8" fill-rule="evenodd"/>
    </g>
    <path d="M322.995 93.265c0 1.88-1.503 3.407-3.358 3.41-1.856.005-3.365-1.516-3.372-3.397-.008-1.881 1.489-3.414 3.345-3.425 1.856-.01 3.37 1.503 3.385 3.385" fill="#eee" stroke="#1e1e1e" stroke-linejoin="round" stroke-width="1.17"/>
    <path d="M318.062 95.016s2.72-.046 2.997-1.152c.276-1.107-.184-2.536-.184-2.536s1.29 1.43.921 2.536c-.368 1.10C3BB0FA73" fill="#a3afb8" fill-rule="evenodd"/>
    <g stroke-width="2.388">
      <path d="M322.658 108.517c0 1.767-1.411 3.2-3.154 3.204-1.743.003-3.16-1.424-3.167-3.191-.007-1.767 1.399-3.206 3.142-3.216 1.743-.01 3.165 1.411 3.179 3.178" fill="#eee" stroke="#1e1e1e" stroke-linejoin="round" stroke-width="1.17"/>
      <path d="M318.025 110.162s2.555-.043 2.815-1.082c.26-1.039-.174-2.381-.174-2.381s1.213 1.342.866 2.381c-.346 0FE413EAA5" fill="#a3afb8" fill-rule="evenodd"/>
    </g>
    <path d="M313.552 72.312c0 1.881-1.502 3.407-3.358 3.411-1.856.004-3.365-1.516-3.372-3.398-.008-1.881 1.49-3.413 3.345-3.424 1.856-.012 3.37 1.503 3.385 3.384" fill="#eee" stroke="#1e1e1e" stroke-linejoin="round" stroke-width="1.17"/>
    <path d="M308.62 74.064s2.72-.047 2.996-1.153c.277-1.106-.184-2.535-.184-2.535s1.29 1.429.922 2.535c-.37 1.100E8A035A70" fill="#a3afb8" fill-rule="evenodd"/>
    <path d="M305.209 69.021c0 1.882-1.503 3.408-3.359 3.412-1.856.004-3.364-1.517-3.372-3.398-.007-1.881 1.49-3.414 3.346-3.425 1.856-.01 3.37 1.503 3.385 3.385" fill="#eee" stroke="#1e1e1e" stroke-linejoin="round" stroke-width="1.17"/>
    <path d="M300.276 70.773s2.72-.046 2.997-1.152c.276-1.107-.185-2.536-.185-2.536s1.291 1.43.922 2.536c-.369 1.0B3FF47AA5" fill="#a3afb8" fill-rule="evenodd"/>
    <path d="M297.218 65.261c0 1.881-1.503 3.408-3.359 3.411-1.856.004-3.364-1.516-3.372-3.397-.007-1.882 1.49-3.414 3.346-3.425 1.856-.011 3.37 1.503 3.385 3.384" fill="#eee" stroke="#1e1e1e" stroke-linejoin="round" stroke-width="1.17"/>
    <path d="M292.285 67.013s2.72-.046 2.997-1.153c.276-1.106-.185-2.535-.185-2.535s1.291 1.429.922 2.535c-.368 10B3ABA4A07" fill="#a3afb8" fill-rule="evenodd"/>
    <path d="M288.052 63.263c0 1.882-1.503 3.408-3.359 3.412-1.856.003-3.364-1.517-3.372-3.398-.007-1.882 1.49-3.414 3.346-3.425 1.856-.011 3.37 1.503 3.385 3.385" fill="#eee" stroke="#1e1e1e" stroke-linejoin="round" stroke-width="1.17"/>
    <path d="M283.12 65.015s2.72-.046 2.996-1.152c.276-1.107-.185-2.536-.185-2.536s1.291 1.43.922 2.536c-.368 1.10C3CB0FA74" fill="#a3afb8" fill-rule="evenodd"/>
    <path d="M277.24 65.849c0 1.881-1.502 3.407-3.358 3.411-1.856.004-3.364-1.516-3.372-3.398-.007-1.881 1.49-3.413 3.346-3.425 1.856-.01 3.37 1.503 3.385 3.385" fill="#eee" stroke="#1e1e1e" stroke-linejoin="round" stroke-width="1.17"/>
    <path d="M272.308 67.6s2.72-.046 2.997-1.152c.276-1.106-.185-2.536-.185-2.536s1.291 1.43.922 2.536c-.369 1.10074D24BA44" fill="#a3afb8" fill-rule="evenodd"/>
    <path d="M269.602 73.487c0 1.881-1.502 3.408-3.358 3.411-1.856.004-3.365-1.516-3.372-3.398-.007-1.88 1.49-3.413 3.345-3.424 1.856-.011 3.37 1.503 3.385 3.384" fill="#eee" stroke="#1e1e1e" stroke-linejoin="round" stroke-width="1.17"/>
    <path d="M264.67 75.239s2.72-.046 2.996-1.153c.277-1.106-.184-2.535-.184-2.535s1.29 1.429.922 2.535c-.369 1.10A335EEA71" fill="#a3afb8" fill-rule="evenodd"/>
    <g>
      <path d="M266.43 84.18c0 1.882-1.503 3.408-3.359 3.412-1.856.004-3.365-1.516-3.372-3.398-.007-1.881 1.49-3.414 3.345-3.425 1.856-.01 3.37 1.503 3.386 3.385" fill="#eee" stroke="#1e1e1e" stroke-linejoin="round" stroke-width="1.17"/>
      <path d="M261.497 85.932s2.72-.046 2.996-1.152c.277-1.107-.184-2.536-.184-2.536s1.29 1.43.922 2.536c-.369 1.10C3CB0FA74" fill="#a3afb8" fill-rule="evenodd"/>
    </g>
    <g>
      <path d="M267.84 95.344c0 1.882-1.503 3.408-3.359 3.412-1.856.003-3.364-1.517-3.372-3.398-.007-1.882 1.49-3.414 3.346-3.425 1.856-.011 3.37 1.503 3.385 3.385" fill="#eee" stroke="#1e1e1e" stroke-linejoin="round" stroke-width="1.17"/>
      <path d="M262.907 97.096s2.72-.046 2.997-1.152c.276-1.107-.185-2.536-.185-2.536s1.291 1.43.922 2.536c-.369 1.0B3FF47AA5" fill="#a3afb8" fill-rule="evenodd"/>
    </g>
    <g>
      <path d="M273.01 105.45c0 1.882-1.502 3.408-3.358 3.412-1.856.003-3.365-1.517-3.372-3.398-.007-1.881 1.49-3.414 3.345-3.425 1.856-.01 3.37 1.503 3.385 3.385" fill="#eee" stroke="#1e1e1e" stroke-linejoin="round" stroke-width="1.17"/>
      <path d="M268.078 107.202s2.72-.046 2.996-1.152c.277-1.107-.184-2.536-.184-2.536s1.29 1.43.922 2.536c-.369 1.0E8D42EA6D" fill="#a3afb8" fill-rule="evenodd"/>
    </g>
    <g stroke-width="2.832">
      <path d="M430.628 247.41c0 3.607-2.88 6.533-6.44 6.54-3.558.007-6.45-2.907-6.465-6.515-.014-3.607 2.856-6.545 6.415-6.566 3.558-.021 6.462 2.882 6.49 6.49" fill="#eee" stroke="#1e1e1e" stroke-linejoin="round" transform="matrix(.31597 -.08466 .13499 .50378 109.39 30)"/>
      <path d="M276.318 120.676s1.636-.486 1.517-1.6c-.118-1.113-.767-2.419-.767-2.419s1.151 1.17 1.214 2.3c.063 1.03D040FAF0" fill="#a3afb8" fill-rule="evenodd"/>
    </g>
    <g stroke-width="2.832">
      <path d="M430.628 247.41c0 3.607-2.88 6.533-6.44 6.54-3.558.007-6.45-2.907-6.465-6.515-.014-3.607 2.856-6.545 6.415-6.566 3.558-.021 6.462 2.882 6.49 6.49" fill="#eee" stroke="#1e1e1e" stroke-linejoin="round" transform="matrix(.31758 .0784 -.125 .50636 259.933 -40.204)"/>
      <path d="M362.342 119.795s1.667.364 2.101-.669c.434-1.032.495-2.489.495-2.489s.444 1.581-.046 2.6c-.49 1.019-0288397A0E" fill="#a3afb8" fill-rule="evenodd"/>
    </g>
  </g>
  <path d="M316.722 53.812l.243 5.699s-6.757.593-7.033 1.212c-1.313 2.943 1.576 6.912 1.576 6.912s2.272-1.698 80B61930ABB" fill="#b3a192" fill-rule="evenodd" stroke="#000" stroke-width="1.17"/>
  <path d="M326.359 62.653c0 .64-.54 1.158-1.207 1.16-.667 0-1.209-.516-1.211-1.155-.003-.639.535-1.16 1.201-1.163.667-.004 1.212.51 1.217 1.149m2.785.63c0 .667-.563 1.208-1.26 1.21-.695 0-1.26-.538-1.264-1.205-.003-.667.559-1.21 1.255-1.214.695-.004 1.263.532 1.269 1.2m-5.574-.656c0 .639-.54 1.158-1.207 1.159-.666.001-1.209-.515-1.211-1.154-.003-.64.535-1.16 1.201-1.164.667-.004 1.212.51 1.217 1.15m-5.59.072c0 .665-.56 1.204-1.255 1.206-.694.001-1.258-.536-1.26-1.201-.004-.665.556-1.207 1.25-1.211.694-.004 1.26.531 1.266 1.196m-3.103.217c0 .665-.561 1.204-1.255 1.206-.694.001-1.259-.536-1.261-1.201-.003-.665.556-1.207 1.25-1.211.694-.004 1.26.531 1.266 1.196m5.695-3.479c0 .56-.474 1.016-1.06 1.017-.585.001-1.06-.452-1.063-1.013-.002-.561.47-1.018 1.055-1.022.585-.003 1.063.448 1.068 1.01m0-4.722c0 .562-.474 1.017-1.06 1.018-.585.001-1.061-.452-1.063-1.013-.002-.561.47-1.018 1.055-1.022.585-.003 1.063.448 1.068 1.01m0 2.554c0 .561-.474 1.016-1.06 1.017-.585.002-1.06-.452-1.063-1.013-.002-.56.47-1.018 1.055-1.021.585-.004 1.063.448 1.068 1.009m-8.839 6.524c0 .642-.542 1.163-1.212 1.164-.67.002-1.214-.517-1.217-1.159-.003-.641.538-1.164 1.207-1.168.67-.004 1.217.513 1.222 1.154" fill="#f0ddcb" stroke="#121116" stroke-width=".596" stroke-linejoin="round"/>
  <path d="M320.845 62.36c0 .702-.595 1.272-1.331 1.273-.736.002-1.334-.565-1.336-1.268-.003-.702.59-1.274 1.325-1.278.736-.004 1.336.561 1.342 1.263" fill="#916c68" stroke="#4d3126" stroke-width=".596" stroke-linejoin="round"/>
  <g stroke-width="2.534">
    <path d="M322.063 45.45c0 1.392-1.112 2.521-2.486 2.524-1.374.003-2.49-1.122-2.496-2.514-.005-1.393 1.103-2.527 2.476-2.535 1.374-.008 2.495 1.112 2.506 2.505" fill="#eee" stroke="#1e1e1e" stroke-width="1.17" stroke-linejoin="round"/>
    <path d="M318.412 46.746s2.013-.034 2.218-.853c.204-.819-.137-1.876-.137-1.876s.955 1.057.683 1.876c-.273.8190A7ED28A5B" fill="#a3afb8" fill-rule="evenodd"/>
  </g>
  <path d="M279.967 130.135s2.222 2.074 2.815 3.926c.592 1.852 1.481 6.815 1.481 6.815s23.259-6.444 34.666-5.9202DBDA1A5B" fill="#fc0" fill-rule="evenodd" stroke="#000" stroke-width=".522"/>
  <path d="M314.661 36.048h10.004s-2.469 1.708-2.971 3.334c-.432 1.4-.303 3.699-.303 3.699s2.728 0 3.94-1.031c1057850CA8C" fill="#fc0" fill-rule="evenodd" stroke="#000" stroke-width="1.17"/>
  <path d="M313.877 76.449s-7.116-.086-13.204-3.687c-6.088-3.601-12.228-7.373-21.264-5.23-1.85.438-8.66 3.43-11039D786A10" fill="#fc0" fill-rule="evenodd" stroke="#121116" stroke-width="1.17"/>
  <path d="M274.515 115.04l-3.78-7.433 11.343-4.433s-2.738 3.65-3.39 6.259c-.796 3.185-.522 5.867-.522 5.867s1.01CB014AAC" fill="#fc0" fill-rule="evenodd" stroke="#000" stroke-width="1.2"/>
  <path d="M326.703 76.314s7.117-.085 13.204-3.686c6.088-3.602 12.228-7.373 21.264-5.23 1.85.438 8.66 3.429 11.0E90311A0C" fill="#fc0" fill-rule="evenodd" stroke="#121116" stroke-width="1.17"/>
  <path fill="#fc0" stroke="#121116" stroke-width="1.17" stroke-linejoin="round" d="M323.028 69.272h2.971v27.707h-2.971zm-10.004-.121h3.516v27.707h-3.516z"/>
  <path d="M329.212 62.724c0 4.915-4.331 8.903-9.681 8.913-5.35.01-9.699-3.962-9.72-8.877-.021-4.915 4.293-8.919 9.643-8.948 5.35-.029 9.715 3.927 9.758 8.842" fill="#fc0" stroke="#121116" stroke-width="1.17" stroke-linejoin="round"/>
  <path d="M310.907 96.747l16.681-.137s-1.956 1.167-3.638 4.153c-1.682 2.986-1.442 4.874-1.442 4.874s2.54-.034 0B6BB43AC2" fill="#fc0" fill-rule="evenodd" stroke="#000" stroke-width=".991"/>
  <path d="M320.201 108.821s2.441 5.695 5.279 8.209c1.652 1.463 6.619 2.565 8.864 1.992 5.047-1.289 8.515-5.3260113407AB0" fill="#f6ca1f" fill-rule="evenodd" stroke="#000" stroke-width=".939"/>
  <g fill="#fc0" stroke="#000" stroke-width="1.147">
    <path d="M300.629 112.134s.06-2.764.654-3.595c.842-1.178 1.989-1.226 2.574-1.062.721.202 1.47.858 1.348 2.7780FA2F70A84" fill-rule="evenodd"/>
    <path d="M294.997 114.136s-1.157-2.512-2.033-3.037c-1.242-.745-2.313-.332-2.784.052-.58.473-1.007 1.373-.129 020D74AAD2" fill-rule="evenodd"/>
    <path d="M294.419 92.114s-2.942 4.944-2.288 8.744c.653 3.8 4.576 11.97 4.576 11.97l.04 1.104 2.117-.229-.482-0DD7CC3A5A" fill-rule="evenodd"/>
    <path d="M302.445 113.372c.108.645-1.838 1.509-4.349 1.931-2.51.423-4.639.244-4.757-.398-.118-.643 1.82-1.508 4.33-1.933 2.51-.425 4.646-.25 4.774.391" stroke-linejoin="round"/>
  </g>
  <g fill="#fc0" stroke="#000" stroke-width="1.147">
    <path d="M345.636 113.242s1.025-2.568 1.873-3.138c1.202-.808 2.293-.45 2.783-.092.605.442 1.076 1.32.288 3.070C538E1A8D" fill-rule="evenodd"/>
    <path d="M339.66 113.141s-.203-2.758-.839-3.557c-.902-1.133-2.05-1.121-2.625-.928-.71.24-1.425.933-1.203 2.840FB1610A53" fill-rule="evenodd"/>
    <path d="M346.84 92.316s-4.488 3.598-5.208 7.385c-.72 3.788.087 12.816.087 12.816l-.349 1.047 2.063.528-.06-100E1202AA2" fill-rule="evenodd"/>
    <path d="M346.902 115.038c-.125.641-2.25.768-4.75.283-2.499-.485-4.43-1.398-4.315-2.041.115-.643 2.233-.774 4.733-.292 2.5.483 4.439 1.396 4.334 2.04" stroke-linejoin="round"/>
  </g>
  <path d="M279.09 129.87s.487 2.045 1.655.974c1.167-1.07 17.227-7.397 39.904-7.397 22.677 0 37.568 6.23 38.444089A5BFA55" fill="#cca715" fill-rule="evenodd" stroke="#000" stroke-width=".522"/>
  <path d="M307.846 139.304s.724-2.012 1.987-2.399c1.007-.308 2.598.682 2.598.682s-1.916-.176-2.516.165c-.541.30731534ACF" fill-rule="evenodd"/>
  <path d="M305.022 129.722c.338 1.676-1.634 3.485-4.402 4.04-2.768.554-5.283-.356-5.617-2.033-.338-1.675 1.63309A4E8FA2A" fill="#0f6545" stroke="#000" stroke-width=".697" stroke-linejoin="round"/>
  <path d="M298.753 129.448c.081.407-.347.835-.956.957-.61.122-1.17-.108-1.25-.515-.082-.406.346-.834.955-.956.61-.122 1.17.108 1.25.515z" fill="#cecfc1"/>
  <path d="M344.14 131.75c-.51 1.631-3.108 2.268-5.802 1.423-2.693-.846-4.46-2.854-3.947-4.484.51-1.632 3.108-20758C12ACF" fill="#0f6545" stroke="#000" stroke-width=".697" stroke-linejoin="round"/>
  <path d="M338.776 128.493c-.124.395-.705.565-1.298.379-.593-.186-.973-.657-.849-1.053.124-.395.705-.564 1.298-.378.593.186.973.657.849 1.052z" fill="#cecfc1"/>
  <path fill="#1f2d86" stroke="#000" stroke-width=".991" stroke-linejoin="round" d="M314.603 125.943h10.14v5.112h-10.14z"/>
  <path d="M318.877 127.033c0 .231-.432.419-.964.419s-.963-.188-.963-.42c0-.23.431-.418.963-.418s.964.187.964.419z" fill="#707c8b"/>
  <path d="M285.944 131.055l1.676 4.944-3.1 1.676s-1.425 1.006-2.85.251c-1.424-.754-2.264-3.013-1.508-3.938 1.501-1.836 5.782-3.017 5.782-2.933z" fill="#9f1209" fill-rule="evenodd" stroke="#000" stroke-width=".522"/>
  <path d="M283.347 134.575c0 .833-.638 1.509-1.425 1.509s-1.425-.676-1.425-1.51c0-.833.638-1.509 1.425-1.509s1.425.676 1.425 1.51z" fill="#8f322f"/>
  <path d="M281.999 133.984c.044.266-.019.53-.163.69a.418.418 0 0 1-.538.087c-.189-.106-.331-.335-.374-.601-.0409A2D92A7C" fill="#e2a494"/>
  <path d="M353.88 131.699l-1.665 4.403 3.947 2.067s1.745.779 2.846-.188c.941-.826 1.155-2.738.403-3.705-.712-.915-5.585-2.604-5.531-2.577z" fill="#9f1209" fill-rule="evenodd" stroke="#000" stroke-width=".522"/>
  <path d="M358.605 135.23c0 .54-.565.98-1.262.98-.696 0-1.261-.44-1.261-.98 0-.542.565-.98 1.261-.98.697 0 1.262.438 1.262.98z" fill="#aa675d"/>
  <path d="M357.397 135.082c0 .259-.112.499-.295.628a.498.498 0 0 1-.591 0c-.183-.13-.296-.37-.295-.628 0-.26.1017C5ACA2E" fill="#e2a494"/>
  <path d="M328.55 126.38c0 .377-.319.682-.713.682-.395 0-.714-.305-.714-.681 0-.377.32-.682.714-.682.394 0 .7102DEC99A19" fill="#f5d8bc"/>
  <path d="M355.973 88.931s-2.05 1.923-4.487 1.923c-2.436 0-3.846-1.025-4.615-1.538-.77-.513.256-2.052.256-2.052" fill="none" stroke="#000" stroke-width="1.2"/>
  <path d="M312.896 92.777s-3.718-.64-5.257-1.154c-1.538-.512-1.153-1.538-2.948-1.41-1.795.128-3.59 1.41-3.206 3.205.385 1.795 1.667 2.052 2.95 1.667 1.281-.385.897-2.564-.77-2.436-1.667.128-.256 1.539-.256 1.539" fill="none" stroke="#000" stroke-width="1.095"/>
  <path d="M287.255 89.957s1.025 1.538 3.718 1.282c2.692-.257 3.718-1.667 3.846-2.308.128-.64 0-1.795-.513-2.308-.513-.512-2.308-.769-2.308-.769" fill="none" stroke="#000" stroke-width="1.043"/>
  <g stroke="#161111" stroke-width="1.6">
    <path d="M339.19 270.402c2.487-2.448 6.486-5.158 8.707-11.048 2.08-5.513 3.087-15.633 4.984-20.762 2.48-8.792 7.474-17.364 1.53-16.778-5.66.56-7.49 6.028-9.635 10.03-.994 1.49-3.283 4.683-3.716 6.497-.087-3.045-1.625-11.926-1.94-20.857-.293-8.341-.056-17.023-.28-20.263-.272-4.277-.244-8.295-1.247-11.456-.467-1.474-2.633-2.89-3.743-2.829-2.281.017-3.66 2.001-3.969 3.865-.222 1.473-.16.936-.31 2.84-.19 2.408.045 5.513-.128 8.239-.187 2.94.197 6.204.037 8.939-.323 5.514-.722 10.566-.885 11.6 0-2.045-.935-11.704-1.247-20.872-.119-3.479-.2-6.908-.261-10.101-.05-2.583.063-5.33-.214-7.336-.473-3.424-1.58-4.983-4.064-4.983-1.675 0-4.073 1.219-4.84 5.026-.413 2.053-.43 4.566-.362 7.31.063 2.55.199 5.298.158 8.057-.155 10.444-.34 21.513-.766 24.774-.069-1.072-1.114-6.536-1.396-13.852-.111-2.882-.268-6.36-.422-9.684-.185-3.975-.17-6.94-.27-9.591-.028-1.602-.665-6.212-3.748-5.935-1.618-.198-3.332.93-4.022 5.293-.384 2.43-.375 6.612-.439 9.835-.121 6.12-.386 11.479-.092 16.927.183 3.4.155 6.02.194 7.695.04.445-.868-2.856-1.327-7.343-.45-4.389-.847-9.976-.811-8.687 0-2.266-.11-5.64-.314-8.424-.16-2.175-.06-4.574-2.418-4.382-2.394.194-3.864 1.003-4.36 5.102-.32 2.655-.408 8.394-.478 10.475.258 5.292-1.156 17.63-1.797 21.138-.175 2.486-1.156 5.72-1.571 9.185-.893 7.46-.044 16.192.944 20.662 1.963 7.056 7.087 10.222 6.83 15.01-.258 4.788 0 13.23 0 17.01 0 3.78 3.283 3.984 10.08 2.52 11.115-2.394 17.188 2.394 26.365-1.134-1.164-10.458 1.104-16.745 1.045-20.525zm-6.485-24.712c2.299-6.346 5.202-8.839 8.004-10.223" fill="#c00"/>
    <path d="M307.432 239.148c3.461-1.365 7.055-2.356 10.572-3.558 4.304-1.214 8.472-2.954 12.913-3.642 2.14-.436 4.291-.858 6.474-1.005m-36.132 42.064c.484-.32.95.188 1.416.285.652.2 1.334.402 2.022.284a107.43 107.43 0 0 1 4.054.005c1.603-.059 2.93-.117 4.22-1.024m10.041.614c.464.381.992.68 1.55.9.859.38 1.798.429 7.368-.02 3.454.221 6.513-2.762 7.375-3.567" fill="none"/>
  </g>
</svg>
