<svg xmlns="http://www.w3.org/2000/svg" height="480" width="640" id="flag-icon-css-gq">
  <path fill="#e32118" d="M0 0h640v480H0z"/>
  <path fill="#fff" d="M0 0h640v320H0z"/>
  <path fill="#3e9a00" d="M0 0h640v160H0z"/>
  <path d="M0 0v480l180-240z" fill="#0073ce"/>
  <g stroke="#000">
    <path d="M281.563 191.76h76.6V272c0 27-35.2 6.2-38.2 20.6-5.2-14.8-38.2 6.6-38.2-22.2 0-28-.2-78.64-.2-78.64z" fill="#fff" stroke-width=".96"/>
    <path d="M325.363 279.8s-1 1-2.8.2c-1.8-.8-2-51.4-2-51.4 4-4.4 7.2-5.8 7.2-5.8l2.4 2c-9 4.6-8.2 11.2-7.4 22.60A728FCA22" fill="#73452b" stroke-width=".2"/>
    <path d="M319.163 221.6h3.6c-3 29-.4 46.2-.4 54.6 0 2.8 1.6 3.8 1.4 3.8-3.6 4-5.4-.2-5.4-.2z" fill="#73452b" stroke-width=".2"/>
    <path d="M313.563 279.8c-3.4 1.6-3.8-1.6-3.6-2 7.4-15 10.6-48 3.8-51.6l.4-3.2c2.6.8 5 4.2 5 4.2 1 37 0 52.2-.6 52.8-3.6 3.8-5-.6-5.2-1" fill="#a36629" stroke-width=".2"/>
    <path d="M313.363 279.2c-.6-3.2 5.2-11.4 4.8-20m5 7c1.8 5 2.6 9.4 2.2 13.6" fill="none" stroke-width=".2"/>
    <path d="M330.963 208c1.2-1.4 1.2-1.4 3.4-1.4.4-3 5.4-3 5.8.8 4-.8 4.8 1.6 3.2 4 3.8-1 7.2 0 6.2 4.4 6.8 1.8 0AD2E4FAAD" fill="#009a3b" stroke-width=".2"/>
    <path d="M309.563 206.2c.8.4 1.8 0 2 2.2 1.6-2.8 3.6-1.2 3.6 2m11-5.8c-.8 1.2-3.8 1.2-3.4 4.4-1-1.4-3-1.8-3.8-.4m12-.6c0 .8-.2 3.2-1 4.4m13.4-1c.2.2-2.8 0-4.2 1m11.6 11c-.8-.4-2.4-1.4-3.6.2 0-.8 0-3-2.2-3m-1.2 5.6c0-2-.4-2.6-.8-3.2m-5.8.4c-1.6-1.2-3.2.6-3.2 1.6m-8.4-3.4c0-.8-.6-2.4.8-3m-23.6 11.4c.4-2 1.8-2 1.6-3-.2-1.6-2-3-4.2-.8m4.2.8c1.2-.4 2.4-.2 2.8.4m-6.2-7.8c.8-.8 2.8-.6 4 0m0-4.8c1 0 2.8-.4 3.4 1.4 2.2-3.4 3.8-3 4.2-2.2m4-.4c1.6-.6 4.4 1 6 3.8.8-2.2 2-1.8 3.2-2m7.6 2c2.6-1.2 4.2 1.2 5 2.2 1.2-1.6 2.2-1.6 3.4-1.6m-32.6 4.2c.6-1 2-1.2 3-.6-.2-1.8 1-2.6 1.8-2.2" stroke-width=".2" fill="none"/>
    <path d="M317.363 180.52l-4.4.2-2.2 3.94-2.4-3.76-4.4.18 2-3.96-2.4-3.76 4.6-.2 2-3.94 2.4 3.76 4.4-.18-2 3.90C59834A36" stroke-width=".7" fill="gold"/>
    <g fill="#fff" stroke-width=".7">
      <path d="M365.363 270.4l5 7.2 4.6-6.8-3.2-5.8zm-31.8 21l.4 7.2s2 0 3.8-.6c1.6-.6 3-1.8 3-1.8l-.2-3.8zm-26.8 00B42379A7D"/>
      <path d="M299.563 305.8c0 6.8 41.2 6.8 41.2 0v-9.6c0 5-41.2 4-41.2 0z"/>
      <path d="M262.763 283.6c3.6 18.4 36.8 18.8 36.8 18.8v-6.2c-.8-2.4.6-3.2 6-4 2.2-.2 1.2-3.4 1.2-3.4s-14.4 2.6-04BAA16A4D"/>
      <path d="M265.363 276.6c-9.2-5-2-10.2-1.2-25 1.4 9 11.6 12.8 10.4 18.6-4.2.2-6.2-6.2-8.2.8l-1 5.6zm109.4 0c9.08D30DAA5A"/>
    </g>
    <path d="M270.963 283.4l1 .8-2.2 2.4c-.88.96-1.093 1.596-.481 2.181.759.726 1.293.474 2.081-.381l2.4-2.6.8.8-0F3E346A45" stroke="none"/>
  </g>
</svg>
