<svg xmlns="http://www.w3.org/2000/svg" height="480" width="640" id="flag-icon-css-il">
  <defs>
    <clipPath id="a">
      <path fill-opacity=".67" d="M-87.62 0h682.67v512H-87.62z"/>
    </clipPath>
  </defs>
  <g fill-rule="evenodd" clip-path="url(#a)" transform="translate(82.14) scale(.94)">
    <path fill="#fff" d="M619.43 512H-112V0h731.43z"/>
    <path fill="#00c" d="M619.43 115.23H-112V48.003h731.43zm0 350.45H-112v-67.227h731.43zm-483-274.9l110.12 191.54 112.49-190.75-222.61-.79z"/>
    <path d="M225.75 317.81l20.95 35.506 21.4-35.36-42.35-.145z" fill="#fff"/>
    <path d="M136.02 320.58l110.13-191.54 112.48 190.75-222.61.79z" fill="#00c"/>
    <path d="M225.75 191.61l20.95-35.506 21.4 35.36-42.35.145zm-43.78 79.5l-21.64 35.982 40.9-.127-19.26-35.855zm0AD4D0EA50" fill="#fff"/>
  </g>
</svg>
