<svg xmlns="http://www.w3.org/2000/svg" xmlns:xlink="http://www.w3.org/1999/xlink" height="480" width="640" viewBox="0 0 30 18" id="flag-icon-css-je">
  <defs>
    <clipPath id="a">
      <path fill-opacity=".67" d="M-5.254-6h40v30h-40z"/>
    </clipPath>
  </defs>
  <g clip-path="url(#a)" transform="matrix(.75 0 0 .75 3.94 2.25)">
    <path fill="#fff" d="M-10.254-6h50v30h-50z"/>
    <path d="M-10.254-6v1.927L11.517 9l-21.771 13.073V24h3.281l21.72-13.073L36.464 24h3.281v-1.927L17.976 9l21.77-13.073V-6h-3.28L14.745 7.073-6.973-6h-3.281z" fill-rule="evenodd" fill="#df112d"/>
    <g transform="translate(-9.649 -6.038) scale(.20361)">
      <path d="M132.66 22.233c3.156 12.778 1.425 28.56-12.829 37.316-14.255-8.756-15.986-24.538-12.829-37.316 3.36-3.055 18.632-4.938 25.658 0z" stroke="#000" stroke-width=".125" fill="#e8112d"/>
      <path d="M119.81 19.667c5.226 0 10.093 1.383 12.962 3.176.563-4.405 2.561-8.811 4.918-12.142-2.459-.05-3.561 06B8885A57" stroke="#000" stroke-width=".125" fill="#f9dd16"/>
      <g id="b" stroke="#000">
        <g stroke-width=".125" fill="#f9dd16">
          <path d="M130.65 32.2c-.315.075-.315.481-.48.481.819-.023 1.217-.248 1.465-.661-.18.165-.023.48-.083.556.601-0D2D044A42"/>
          <path d="M114.77 24.264c.842-.346 1.126-.355.932.33-.083.294-.286.707-.489.895-.007-.285-.112-1.075-.443-1.225z"/>
          <path d="M113.46 23.802c1.593 0 1.792.748 1.784 1.68-.007 1.007-.548.66-.856 1.953-.12.506-.523.534-.928.534-0B1199BA8B"/>
          <path d="M109.36 27.495c-.406-.24-.668-.074-.833-.029.526.135.547.81 1.75 1.126-.271-.075-.421.075-.677-.06.40757729A66"/>
        </g>
        <g stroke-width=".125" fill="none">
          <path d="M123.55 29.206c-.469-.172-.899-.277-1.449-.163m-5.621-.06c-.386.83-.152 1.239-.095 1.624m-4.015-5.555c.265.133.414-.242.803.156-.107-.116-.24.308-.538.026m1.895-.182c-.265.133-.414-.242-.803.156.107-.116.24.308.538.026"/>
          <path d="M113.73 25.207c-.091.075-.1-.06-.031.295.128.651.279.956-.248.956-.538 0-.375-.305-.248-.956.07-.355.061-.22-.03-.295"/>
        </g>
        <path d="M113.46 27.706c.428 0 .676-.007.609-.609-.028-.241.293-.337.18-.729.12.481-.789.435-.789.217 0 .218-0F8E985A19" stroke-width=".063" fill="#ff0016"/>
        <path d="M113.07 26.489l-1.028-.287m1.028.341l-1.148-.01m1.158.069l-.979.262m1.739-.375l1.028-.287m-1.028.341l1.148-.01m-1.158.069l.979.262" stroke-width=".063"/>
        <path d="M108.13 23.414c-.299-.372-1.048-.058-1.063.404.253-.3.666.132.891.041.156-.063.293-.294.172-.445zm-.0235846A90" stroke-width=".013" fill="#0051ba"/>
      </g>
      <use xlink:href="#b" transform="matrix(.9 0 0 .9 11.6 13.7)" height="18" width="30"/>
      <use xlink:href="#b" transform="matrix(.67 0 0 .75 39.2 27.5)" height="18" width="30"/>
    </g>
  </g>
</svg>
