<svg xmlns="http://www.w3.org/2000/svg" height="480" width="640" id="flag-icon-css-kg">
  <defs>
    <clipPath id="a">
      <path fill-opacity=".67" d="M-84.949 0h682.67v512h-682.67z"/>
    </clipPath>
  </defs>
  <g clip-path="url(#a)" fill-rule="evenodd" transform="translate(79.64) scale(.9375)">
    <path fill="#be0027" d="M-128 0h768.77v512H-128z"/>
    <path d="M105.45 261.14c13.658-16.61 41.95-.399 65.045-12.359-27.358 1.504-42.27-13.129-63.884-11.078 22.395-0439BDCA67" fill="#ff0"/>
    <path d="M355.939 256.111c0 54.8-44.424 99.223-99.223 99.223-54.8 0-99.222-44.424-99.222-99.223 0-54.8 44.424070B214A28" fill="#ff0"/>
    <path d="M343.17 256.307c0 47.644-38.623 86.265-86.265 86.265-47.643 0-86.264-38.622-86.264-86.265s38.622-86.0B497DCA1A" fill="#be0027"/>
    <path d="M331.156 256.487c0 40.911-33.164 74.075-74.074 74.075-40.911 0-74.075-33.165-74.075-74.075 0-40.91 30646685A49" fill="#ff0"/>
    <path d="M194.04 207.95c20.501-.451 46.033 1.418 62.859 14.893 17.859-11.154 39.005-16.311 60.54-14.313l11.02024AF69A2F" fill="#be0027"/>
  </g>
</svg>
