<svg xmlns="http://www.w3.org/2000/svg" xmlns:xlink="http://www.w3.org/1999/xlink" height="480" width="640" id="flag-icon-css-kh">
  <path fill="#032ea1" d="M0 0h640v480H0z"/>
  <path fill="#e00025" d="M0 120h640v240H0z"/>
  <g transform="matrix(1.2 0 0 1.2 85.571 -521.92)" fill="#fff" stroke="#000" stroke-width=".96">
    <g stroke-linejoin="bevel">
      <path d="M139.02 623.46h113.8v43.788h-113.8z"/>
      <path d="M246.95 647.64h3.586v16.495h-3.586zm-107.93-8.15h113.8v5.09h-113.8zm0-6.9h113.8v4.489h-113.8z"/>
      <path stroke-width=".945" d="M139.02 625.7h113.8v4.354h-113.8z"/>
      <path d="M168.98 647.64h3.586v16.495h-3.586zm48.99 0h3.586v16.495h-3.586zm-78.05 0h3.586v16.495h-3.586zm7.03 040ADFFA51"/>
      <path d="M94.509 669.55c1.76-.897 3.768-2.984 4.425-5.319h193.07c.657 2.335 2.665 4.422 4.425 5.319z" stroke-linejoin="miter"/>
    </g>
    <path d="M193 556.8s-.144-4.112 2.25-4.157c2.396.044 2.251 4.157 2.251 4.157zm-12.49 54.54v-5.536c-.079-2.76803FDC66A2A"/>
    <path stroke-linejoin="bevel" d="M178.24 647.64h3.586v16.495h-3.586zm30.32 0h3.586v16.495h-3.586z"/>
    <path d="M167.91 609.17v27.656h54.023v-5.957l.078-21.7c-2.21.869-2.597 2.872-2.597 2.872v11.777h-48.75V612.04s-.544-2.003-2.754-2.871z"/>
    <path d="M214.6 669.55c-1.766-.781-5.612-2.919-5.612-5.07v-27.192c.378-1.518 2.436-2.414 3.761-3.358h-35.823c057B148A73"/>
    <path d="M219.41 634.22v-19.587h-4.91v-1.909h-38.84v1.909h-4.91v19.587zm-12.55 35.33c-1.73-.781-4.249-2.919-408F0A16A5A"/>
    <path d="M190.71 639.16h8.966v30.377h-8.966z" stroke-width=".981"/>
    <path d="M204.38 632.48c.021-2.001 5.838-2.091 8.832-3.795H177.26c2.994 1.704 8.675 1.844 8.675 3.795l1.217 3.882 14.883.598z" stroke-linejoin="bevel"/>
    <path d="M211.41 611.34c0-4.899.205-6.786 1.71-6.786v15.58c-3.69 1.34-6.325 6.05-6.325 6.05h-23.211s-2.634-4.0DFC344A00"/>
    <path d="M177.28 609.33c0-5.618-4.851-6.25-4.851-6.25v5c1.846-.08 2.737 1.578 2.737 4.044 0 2.466-1.487 2.506-1.487 2.506v14.19h3.601z"/>
    <g fill="none" stroke-width=".8">
      <path d="M186.84 570.62h17.128m-19.158 5.35h20.921m-22.951 6.49h24.904m-27.024 7.93h29.536m-30.216 9.04h30.426"/>
      <path d="M170.75 628.92h48.661m-33.221.01h18.036v6.629H186.19z" stroke-width=".96"/>
    </g>
    <path d="M183.93 614.24c2.99 3.59 2.713 9.68 2.679 13.27h17.343c-.035-3.59-.312-9.68 2.678-13.27zm9.75-41.13l0C51882AB2"/>
    <path d="M193.52 578.85l-3.946-2.713v-3.223c1.383.32 2.936.451 3.088 2.149.482-2.423 1.35-3.675 2.715-4.62 1.0424117ADE"/>
    <path d="M193.24 587.8l-4.538-3.985v-4.736c1.591.471 3.377.663 3.552 3.157.553-3.56 1.552-5.4 3.121-6.787 1.50889B00AAF"/>
    <path d="M204.17 593.09v-5.702c-1.95.537-3.213 1.691-3.776 3.258 0-1.893-2.49-6.257-5.207-8.43-2.724 2.432-5.065C70DA64" stroke-linejoin="bevel"/>
    <path d="M205.04 602.62v-5.702c-2.138.537-3.522 1.691-4.139 3.258 0-1.893-2.73-6.258-5.708-8.43-2.986 2.432-500F49D6A86" stroke-linejoin="bevel"/>
    <path d="M207.44 614.32v-6.577c-2.66.687-4.312 2.653-5.15 3.8 0-3.561-4.02-8.99-7.1-10.768-3.16 1.825-7.101 70F1F18DACC" stroke-linejoin="bevel"/>
    <path d="M206 628.92v-6.762c-2.346.92-3.048 3.18-3.786 4.717.29-6.859-3.862-14.23-7.024-16.1-3.163 1.87-7.39305189CBA6F" stroke-linejoin="bevel"/>
    <path d="M204.36 639.16v-6.762c-2.458.585-2.61 1.491-3.392 3.006.29-4.097-2.611-8.77-5.773-10.64-3.163 1.87-60129816AC0"/>
    <g id="a">
      <path d="M98.935 664.23v-20.44c-.67-2.603-2.88-4.905-4.54-5.366V620.43l3.741 2.023 4.271 18.81v22.966z"/>
      <path d="M98.935 664.31v-20.519c-.67-2.603-2.88-4.905-4.54-5.366v-19.243c2.511 0 3.741 3.273 3.741 3.273l4.271 18.81v22.887z"/>
      <path d="M96.275 669.55c1.73-.781 4.249-2.919 4.249-5.07v-25.547l-1.185-2.108h43.522l-1.699 2.108v25.547c0 2.151 1.73 4.289 3.46 5.07z"/>
      <path d="M135.84 669.55c-1.73-.781-4.249-2.919-4.249-5.07v-24.297l3.62-3.359h-29.589l3.62 3.36v24.296c0 2.151-2.52 4.289-4.25 5.07z"/>
      <path d="M131.69 669.55c-1.73-.781-4.249-2.919-4.249-5.07v-21.965l2.37-3.359h-18.799l2.37 3.36v21.965c0 2.15-2.52 4.288-4.25 5.069z"/>
      <path d="M115.92 639.16h8.982v30.393h-8.982z"/>
      <path stroke-linejoin="bevel" d="M103.7 647.64h3.586v16.495H103.7zm30.75 0h3.586v16.495h-3.586zm-33.81-27.82h4.32v16.909h-4.32zm0-3.18h4.295v3.139h-4.295z"/>
      <path d="M136.17 623.46h6.16v13.054h-6.16z" stroke-width="1.034" stroke-linejoin="bevel"/>
      <path d="M104.89 636.6v-28.941c1.232 0 1.422 4.242 4.249 4.242 1.472 0 1.315-1.757.489-3.188-.732-1.268-1.6370307CA8A8A"/>
      <path d="M98.203 629.03c3.112 1.591 6.195 3.433 6.975 7.793h-6.975zm43.167-6.61v14.407h2.035v-14.443c-.635-.298-1.503-.344-2.035.036z"/>
      <path d="M143.41 628.92c-3.112 1.591-6.195 3.433-6.975 7.793h6.975zM122.83 595.27l1.814-1.525v-1.953c-.664.0608F71F6A8E"/>
      <path d="M123.8 600.16l.843-1.825v-2.539c-.664.066-1.026.297-1.516.949-.417-1.313-1.334-2.338-2.562-2.974-1.20868EE3AE4"/>
      <path d="M123.93 606.79l2.695-3.287v-3.243c-.986.111-1.524.503-2.252 1.606-.62-2.222-1.981-2.708-3.806-3.786-0E49BB9AEF"/>
      <path d="M124.72 613.3s3.14-2.74 3.327-4.244v-3.467c-1.217.143-2.368.459-3.267 1.883-.765-2.87-1.959-3.67-4.20ADBD2EA78"/>
      <path d="M126.06 625.32s4.301-4.761 4.4-6.616v-5.406c-1.61.223-3.132 1.33-4.321 3.551-1.011-4.475-2.59-7.595-06215F6A99"/>
      <path d="M126.06 632.43s3.676-3.742 4.4-5.366v-5.406c-1.61.223-3.132 1.33-4.321 3.551-1.011-4.475-2.59-7.037-0FD5408AB7"/>
      <path d="M127.54 636.56c-1.073-4.668-1.996-8.13-7.163-11.641-5.167 3.51-6.09 6.973-7.163 11.641z"/>
      <path d="M130.2 639.16v-6.762c-2.346.92-4.467 2.28-5.249 3.795-.873-3.754-2.557-5.408-4.653-7.679-2.097 2.27100C17C7A6F"/>
    </g>
    <use height="100%" width="100%" xlink:href="#a" transform="matrix(-1 0 0 1 390.74 0)"/>
    <g>
      <path d="M72.694 694.25h245.33v12.531H72.694z"/>
      <path d="M66.228 706.76h258.26v12.512H66.228zm19.348-31.25h219.56v8.11H85.576z"/>
      <path d="M79.157 683.56h232.4v10.622h-232.4zm10.255-14.28h211.89v6.174H89.412z"/>
      <path d="M112.41 669.31h16.005v49.935H112.41z" stroke-width="1.045"/>
      <path d="M115.95 669.31h8.917v49.936h-8.917z" stroke-width="1.043"/>
      <path d="M187.08 669.31h16.006v49.935h-16.005z" stroke-width="1.045"/>
      <path d="M190.73 669.31h8.917v49.936h-8.917z" stroke-width="1.043"/>
      <path d="M262.19 669.31h16.005v49.935H262.19z" stroke-width="1.045"/>
      <path d="M265.73 669.31h8.917v49.936h-8.917z" stroke-width="1.043"/>
    </g>
    <g fill="none">
      <path d="M98.935 664.23h193.07M115.79 712.97h9.244m-9.244-6.25h9.244m-9.244-6.25h9.244m-9.244-6.25h9.244m-9.244-6.25h9.244m-9.244-6.25h9.244m-9.244-6.25h9.244m65.736 37.51h8.607m-8.607-6.253h8.607m-8.607-6.254h8.607m-8.607-6.253h8.607m-8.607-6.253h8.607m-8.607-6.253h8.607m-8.607-6.254h8.607m66.193 37.51h9.244m-9.244-6.25h9.244m-9.244-6.25h9.244m-9.244-6.25h9.244m-9.244-6.25h9.244m-9.244-6.25h9.244m-9.244-6.25h9.244"/>
    </g>
  </g>
</svg>
