<svg xmlns="http://www.w3.org/2000/svg" height="480" width="640" id="flag-icon-css-ky">
  <path fill="#006" d="M0 0h640v480H0z"/>
  <path fill-rule="evenodd" fill="#006" d="M0 0h400v200H0z"/>
  <g stroke-width="1pt">
    <path fill="#fff" d="M0 0v27.09l334.411 215.208h42.094v-27.09L42.093.002H0zm376.505 0v27.089L42.093 242.297H0v-27.089L334.411 0h42.094z"/>
    <path fill="#fff" d="M156.877 0v242.297h62.75V0h-62.75zM0 80.766v80.765h376.505V80.766H0z"/>
    <path fill="#c00" d="M0 96.919v48.46h376.505v-48.46H0zM169.427 0v242.297h37.65V0h-37.65zM0 242.297l125.502-80.766h28.062L0E44924A98"/>
  </g>
  <path d="M448.33 179.141c-1.009.61-3.028 2.44-5.048 1.83-2.019-.61-6.562-8.542-11.61-7.322-5.05 1.22-8.078 3.0723A1CA69" fill-rule="evenodd" fill="#fff"/>
  <g fill-rule="evenodd" stroke="#6d6666" fill="#fec500">
    <path d="M394.65-212.97s28.777 17.265 35.354 21.376 27.954 22.199 29.598 21.377c1.645-.822 13.155-9.866 13.150DF3902AC9" stroke-width="1.403" transform="matrix(.307 0 0 .37108 317.054 244.257)"/>
    <path d="M390.54-231.88c2.467 0 47.687 23.022 61.664 34.532s19.732 26.31 21.377 26.31c1.644 0 23.021-3.289 220478DC0A07" stroke-width="1.403" transform="matrix(.307 0 0 .37108 317.054 244.257)"/>
    <path d="M603.48-296.01c-.822 0-9.044 24.666-11.511 32.065-2.466 7.4-6.577 23.021-6.577 23.021s-36.176 3.289-08BEDF1A56" transform="matrix(.307 0 0 .37108 317.054 245.983)" stroke-width="1.403"/>
    <path d="M398.76-261.48s42.754 28.776 57.553 45.22c14.799 16.443 29.598 45.22 30.42 45.22.823 0 40.287-8.222 071F3CBACE" stroke-width="1.403" transform="matrix(.307 0 0 .37108 317.054 244.257)"/>
    <path d="M443.16-273.81s21.377 32.887 25.487 44.398c4.111 11.51 16.444 41.109 16.444 41.109H518.8s-16.443-36.998-34.531-55.086-40.287-28.776-41.109-30.421z" transform="matrix(.307 0 0 .37108 317.054 245.983)" stroke-width="1.403"/>
    <path d="M454.66-291.9c.823 2.467 31.243 31.243 38.643 50.153 7.399 18.91 13.155 42.754 13.155 42.754l29.598-02DC9A7A7F" transform="matrix(.307 0 0 .37108 317.054 245.983)" stroke-width="1.403"/>
    <path d="M700.5-209.68s-61.663 6.578-83.862 12.333-34.532 27.132-34.532 27.132 28.777 10.688 30.421 9.044 18.020092BA8E" stroke-width="1.403" transform="matrix(.307 0 0 .37108 317.054 244.257)"/>
    <path d="M698.03-249.97c-1.645.823-50.975 41.11-66.597 54.264-15.621 13.155-30.421 27.132-32.065 27.954-1.64400E397CACF" stroke-width="1.403" transform="matrix(.307 0 0 .37108 317.054 244.257)"/>
    <path d="M685.7-278.75c-4.933 5.755-53.442 45.22-66.597 59.197s-34.531 38.643-34.531 38.643-25.488-11.511-23.0380325A56" stroke-width="1.403" transform="matrix(.307 0 0 .37108 317.054 244.257)"/>
    <path d="M636.37-282.04c-.822.823-29.598 31.243-35.354 39.465-5.755 8.222-23.021 44.398-23.021 44.398s-25.4870F1BF7AA6B" stroke-width="1.403" transform="matrix(.307 0 0 .37108 317.054 244.257)"/>
    <path d="M565.09-241.77c0 5.78-4.685 10.465-10.465 10.465s-10.465-4.685-10.465-10.465 4.685-10.465 10.465-10.0B0D173A7B" transform="matrix(.307 0 0 .37108 317.054 245.983)" stroke-width="1.497"/>
    <path d="M573.23-219.09c0 9.954-6.507 18.022-14.534 18.022-8.027 0-14.534-8.069-14.534-18.022 0-9.954 6.507-102BF04DA1E" transform="matrix(.307 0 0 .37108 317.054 245.983)" stroke-width="1.497"/>
    <path d="M513.93-207.46c0 6.743-4.946 12.209-11.046 12.209s-11.046-5.466-11.046-12.209c0-6.743 4.945-12.209 10471231A32" transform="matrix(.307 0 0 .37108 317.054 245.983)" stroke-width="1.497"/>
    <path d="M556.95-210.37c0 7.064-8.33 12.79-18.604 12.79s-18.604-5.726-18.604-12.79c0-7.064 8.33-12.79 18.604-05F6509A1A" transform="matrix(.307 0 0 .37108 317.054 245.983)" stroke-width="1.497"/>
    <path d="M579.04-193.51c0 7.385-6.768 13.372-15.116 13.372-8.348 0-15.116-5.987-15.116-13.372s6.768-13.372 15023543FA01" transform="matrix(.307 0 0 .37108 317.054 245.983)" stroke-width="1.497"/>
    <path d="M554.63-190.61c0 7.064-6.247 12.79-13.953 12.79-7.706 0-13.953-5.726-13.953-12.79 0-7.064 6.247-12.70F1C675AB4" transform="matrix(.307 0 0 .37108 317.054 245.983)" stroke-width="1.497"/>
  </g>
  <g fill-rule="evenodd">
    <path d="M445.509 216.536c.178.863 5.89 16.396 14.636 15.964s12.315-3.02 11.958-3.236c-.357-.216-4.105-2.804-0E8EF14A79" fill="#00389b"/>
    <path d="M288.94 21.015s1.163 4.65 0 8.14-11.046 12.79-11.046 20.347c0 7.558 11.627 30.812 47.091 31.394 35.40D60AB4A07" stroke="#000" stroke-width="1.497" fill="#005120" transform="matrix(.307 0 0 .37108 350.733 188.675)"/>
    <path d="M287.2 23.34s-3.488-9.883-12.79-10.465c-9.302-.581-26.162 1.163-31.975-3.488-5.814-4.651-7.558-15.690284050A90" stroke="#000" stroke-width="1.497" fill="#005120" transform="matrix(.307 0 0 .37108 350.733 188.675)"/>
    <path d="M251.15-14.449c-1.163.581-6.976 2.907-5.814 4.07 1.163 1.162 3.489 4.65 10.465 4.07 6.977-.582 14.534-4.652 14.534-4.652s-8.72-4.07-19.185-3.488z" stroke="#000" stroke-width="1.497" fill="#005120" transform="matrix(.307 0 0 .37108 350.733 188.675)"/>
    <path d="M250.57-13.286v6.395s8.139 2.325 8.139.581c0-1.744.581-5.813-1.163-5.813s-6.395-.582-6.976-1.163z" stroke="#000" stroke-width="1.497" transform="matrix(.307 0 0 .37108 350.733 188.675)"/>
    <path d="M331.95-8.453c2.056-3.7 0-8.632 11.922-14.388 11.921-5.755 32.681-4.11 32.681-4.11s-5.96 4.521-6.1660B526DEA94" stroke="#000007" stroke-width="1.497" fill="#001707" transform="matrix(.307 0 0 .37108 350.733 188.675)"/>
  </g>
  <path d="M387.976 359.201c2.59-2.52 6.616-8.682 12.081-8.962 5.466-.28 11.22 4.761 11.22 4.761s5.752 23.528 50C7FA0BAB7" fill-rule="evenodd" fill-opacity=".996" fill="#d40f0f"/>
  <path d="M543.604 362.007c0 1.682 10.643 28.01 27.903 33.05 17.258 5.041 22.724-4.761 24.737-8.122 2.013-3.3600FEDE6ACB" fill-rule="evenodd" fill-opacity=".996" fill="#fddc59"/>
  <path d="M387.782 358.423c-.814 0-21.154 11.091-20.34 15.844.813 4.753 34.985 72.089 108.206 72.88 73.223.7940554181AB4" fill-rule="evenodd" fill-opacity=".996" fill="#fddc59"/>
  <path d="M586.171 407.38c1.727-1.4 12.37-30.529 18.41-29.688 6.042.84 4.029 9.522 3.453 11.763-.575 2.24-6.610D4F72AA7A" fill-rule="evenodd" fill-opacity=".996" fill="#d40f0f"/>
  <path fill="#fdc400" fill-rule="evenodd" d="M423.176 360.347l7.063-23.923-19.616-15.038 24.568-.567 8.012-23.608 8.123 23.568 24.567.455-19.549 15.13 7.17 23.887-20.201-14.216z"/>
  <path d="M555.637 235.833v92.04c.18 44.983-45.689 84.374-76.147 92.04-30.461-7.666-76.328-47.057-76.147-92.036v-92.04h152.294z" fill-rule="evenodd" fill="#fff"/>
  <path d="M177.16 325.98l.421 160.73s2.386-3.288 35.012-1.284c32.627 2.004 35.433 35.433 70.867 35.433 35.433 01E646AAAD" fill-rule="evenodd" fill-opacity=".996" transform="matrix(.307 0 0 .35829 348.952 119.039)" stroke="#000" stroke-width="1.497" fill="#d40f0f"/>
  <path d="M403.34 312.006v19.043h10.879c10.016.718 10.878 12.695 21.756 12.695s10.878-12.695 21.756-12.695 10.0D7CC9DA3B" fill-rule="evenodd" fill-opacity=".996" fill="#0062bb"/>
  <path d="M90.849 117.57c.822 0 8.222 1.233 13.565.822 5.344-.411 7.4-2.467 7.4-2.878v-1.233h6.988s1.233 5.7550DBD41FAC0" fill-rule="evenodd" fill-opacity=".996" transform="matrix(1.5005 0 0 1.3054 286.934 126.302)" stroke="#000" stroke-width=".701" fill="#fdc400"/>
  <path d="M98.248 94.136c-.411 0-3.289 3.289-2.878 6.988.411 3.7 7.4 9.044 7.4 9.044s3.7-1.644 4.933 0 1.233 60063E0FA3F" fill-rule="evenodd" fill-opacity=".996" transform="matrix(1.5005 0 0 1.3054 286.934 126.302)" stroke="#000" stroke-width=".701" fill="#fdc400"/>
  <path d="M529.965 282.453c-.771.671-3.085 2.146-3.085 2.146s5.244-.402 5.09-.402-1.85-1.342-2.005-1.744zm4.470428599AC7" fill-rule="evenodd" fill-opacity=".996"/>
  <path d="M137.26 110.86c0 .206 4.316 3.7 4.419 4.522.102.822-7.811 1.028-7.811 1.028s-2.261-1.747-2.98-1.645c04969C7ABE" fill-rule="evenodd" fill-opacity=".996" transform="matrix(1.5005 0 0 1.3054 285.91 126.597)" stroke="#000" stroke-width=".701" fill="#fdc400"/>
  <path d="M115.37 104.6h40.286c4.111 0 7.81-1.644 7.81-4.111 0-2.466-6.577-2.877-9.043-2.055-2.467.822-13.155 03E2189A9B" fill-rule="evenodd" fill-opacity=".996" transform="matrix(1.5005 0 0 1.3054 285.91 126.597)" stroke="#000" stroke-width=".701" fill="#fdc400"/>
  <path d="M106.88 102.46c-.411.206-4.008.72-4.214 4.522-.205 3.803.309 3.803.72 3.597.411-.205 1.233-3.494 1.2066E2FAAF7" fill-rule="evenodd" fill-opacity=".996" transform="matrix(1.5005 0 0 1.3054 286.934 126.302)" stroke="#000" stroke-width=".701" fill="#fdc400"/>
  <path d="M450.874 253.257c.742-.227 1.833-1.174 3.098-1.06s3.291 1.085 2.288 1.615c-1.005.53-1.745.758-2.88.40F3FD76AD7" fill-rule="evenodd" fill-opacity=".996"/>
  <path d="M110.99 103.17c.103.514.411 4.831.616 4.522.206-.308 1.748-4.419 1.645-4.419s-2.158.103-2.261-.103z" fill-rule="evenodd" fill-opacity=".996" transform="matrix(1.5005 0 0 1.3054 287.143 126.366)" stroke="#000" stroke-width=".421" fill="#000039"/>
  <path d="M109.96 103.17c.049-1.215.822-1.13 2.467-.925 1.644.206 2.466 1.028 2.363 1.234-.102.205-1.438.719-2.569.616-1.336-.411-2.298.089-2.261-.925z" transform="matrix(1.5005 0 0 1.3054 287.143 126.556)" stroke="#000" stroke-width=".842" fill="none"/>
  <path d="M112.43 100.08l-.206 1.953m7.096-7.189s1.336.617 1.131 1.233c-.206.617-1.131.925-1.131.925m-11.2-2.672c-.308.103-.719.308-.925 1.13-.205.823.925 1.337.925 1.337" transform="matrix(1.5005 0 0 1.3054 287.143 126.556)" stroke="#000" stroke-width="1.497" fill="none"/>
  <path d="M111.19 136.13s-1.454 1.454 1.017 1.454.727-1.308.727-1.308" transform="matrix(1.5005 0 0 1.3054 287.361 77.606)" stroke="#000" stroke-width="1.497" fill="none"/>
  <path fill="#fdc400" fill-rule="evenodd" d="M462.348 403.76l6.41-21.062-17.8-13.24 22.293-.498 7.271-20.784 7.37 20.75 22.294.4-17.74 13.32 6.506 21.03-18.33-12.516z"/>
  <path fill="#003017" fill-rule="evenodd" fill-opacity=".996" d="M465.383 398.115l5.34-16.73-14.832-10.518 18.577-.396 6.06-16.51 6.141 16.482 18.578.318-14.783 10.582 5.421 16.705-15.275-9.942z"/>
  <path fill="#fdc400" fill-rule="evenodd" d="M425.661 361.105l6.34-19.917-17.607-12.52 22.052-.472 7.193-19.655 7.291 19.622 22.053.378-17.548 12.597 6.435 19.887-18.132-11.836z"/>
  <path fill="#003017" fill-rule="evenodd" fill-opacity=".996" d="M428.673 355.764l5.283-15.822-14.673-9.946 18.377-.374 5.994-15.614 6.076 15.588 18.377.3-14.623 10.007 5.363 15.798-15.11-9.403z"/>
  <path fill="#fdc400" fill-rule="evenodd" d="M499.57 361.105l6.423-19.917-17.835-12.52 22.337-.472 7.285-19.655 7.385 19.622 22.337.378-17.774 12.597 6.518 19.887-18.366-11.836z"/>
  <path fill="#003017" fill-rule="evenodd" fill-opacity=".996" d="M502.618 355.764l5.352-15.822-14.862-9.946 18.614-.374 6.07-15.614 6.154 15.588 18.614.3-14.811 10.007 5.431 15.798-15.304-9.403z"/>
  <path d="M373.272 372.554c8.026 34.543 41.902 60.18 87.528 66.243 58.605 7.787 114.514-21.906 124.795-66.277" fill="none"/>
  <path d="M373.128 377.899l11.006-6.218 1.036 2.263-4.317 2.439 1.429 3.12 4.316-2.438 1.036 2.263-11.006 6.218-1.036-2.263 4.988-2.818-1.428-3.121-4.988 2.818-1.036-2.263m4.607 9.63l10.276-7.607 3.516 5.865-1.708 1.264-2.25-3.752-2.375 1.759 2.094 3.492-1.628 1.205-2.094-3.492-2.829 2.094 2.303 3.84-1.735 1.285-3.57-5.954m7.16 11.046l9.065-9.315 1.552 1.863-3.555 3.654 2.139 2.57 3.555-3.653 1.552 1.864-9.065 9.315-1.551-1.864 4.108-4.222-2.14-2.57-4.108 4.222-1.551-1.864m11.837 5.516l1.47 1.434 2.674-5.05-4.144 3.616m-5.75 1.72l10.232-8.277 2.321 2.261-6.031 12.372-1.863-1.815 1.588-3.039-1.99-1.938-2.491 2.157-1.767-1.72m8.93 8.294l6.097-9.238-2.134-1.739 1.205-1.825 6.122 4.99-1.204 1.825-2.134-1.74-6.097 9.24-1.856-1.513m5.008 4.003l6.432-11.71 1.95 1.322-2.522 4.593 2.69 1.824 2.522-4.593 1.95 1.323-6.432 11.71-1.95-1.322 2.915-5.308-2.69-1.824-2.915 5.308-1.95-1.323m12.09 7.652l5.19-12.448 5.857 3.014-.849 2.037-3.768-1.94-1.227 2.943 3.557 1.83-.829 1.99-3.557-1.832-2.285 5.48-2.088-1.074m11.453-1.89c-.721 2.11-1.065 3.486-1.033 4.128.039.64.358 1.085.958 1.338.59.249 1.083.152 1.48-.29.403-.446.97-1.735 1.698-3.868s1.075-3.516 1.041-4.153c-.034-.637-.348-1.08-.943-1.332-.594-.25-1.095-.15-1.5.301-.406.452-.973 1.743-1.701 3.876m-2.197-.927c.465-1.36.893-2.421 1.285-3.183.394-.768.783-1.306 1.169-1.613.533-.442 1.076-.69 1.626-.744.55-.054 1.204.08 1.964.4s1.33.703 1.709 1.149c.38.446.64 1.032.78 1.758.1.526.067 1.217-.1 2.074-.162.859-.474 1.966-.937 3.32-.46 1.35-.888 2.408-1.282 3.176-.392.762-.78 1.304-1.164 1.625-.539.44-1.083.686-1.633.74-.55.054-1.205-.08-1.965-.4s-1.329-.703-1.708-1.149c-.38-.446-.637-1.03-.773-1.755-.105-.514-.076-1.2.086-2.06.164-.865.478-1.977.943-3.338m10.62-2.914l2.205.73-2.375 8.862c-.271 1.014-.345 1.739-.223 2.176.13.433.478.744 1.047.932.564.186 1.002.133 1.315-.16.317-.291.614-.952.89-1.983l2.366-8.828 2.175.72-2.432 9.076c-.237.882-.456 1.513-.658 1.892a2.88 2.88 0 0 1-.732.92 2.867 2.867 0 0 1-1.539.625c-.584.054-1.234-.037-1.951-.274-1.353-.448-2.221-1.088-2.605-1.922-.378-.837-.35-2.067.085-3.69l2.432-9.076m5.906 16.178l2.696-13.388 2.308.574 1.252 10.143 1.823-9.379 2.12.528-2.696 13.387-2.292-.57-1.272-10.166-1.827 9.396-2.112-.525m12.07.682l1.006.175c.512.09.877.11 1.094.064a.966.966 0 0 0 .551-.337c.26-.315.48-.77.655-1.365.177-.6.36-1.575.55-2.925.185-1.314.267-2.28.246-2.896-.021-.617-.137-1.1-.347-1.45a1.086 1.086 0 0 0-.47-.406c-.198-.1-.518-.19-.961-.266l-.975-.17-1.35 9.576m-2.507 1.61l1.91-13.554 3.652.636c.745.13 1.326.303 1.745.52.424.218.756.51.996.877.363.538.58 1.177.655 1.917.08.735.015 1.848-.195 3.338-.27 1.925-.523 3.276-.757 4.053-.233.77-.535 1.41-.904 1.916-.358.509-.804.831-1.337.967-.527.13-1.405.089-2.636-.125l-3.129-.545m9.55 1.57l1.188-13.655 6.312.677-.197 2.27-4.038-.433-.275 3.157 3.76.403-.189 2.164-3.759-.404-.326 3.76 4.133.444-.2 2.305-6.408-.687m10.43-1.106l1.018.04c.518.022.882-.005 1.093-.08a1 1 0 0 0 .511-.408c.225-.347.393-.828.504-1.441.111-.62.189-1.612.233-2.978.043-1.329.021-2.299-.066-2.908-.087-.61-.254-1.074-.5-1.393a1.048 1.048 0 0 0-.511-.341c-.206-.074-.534-.12-.982-.138l-.986-.04-.314 9.687m-2.317 1.931l.444-13.71 3.694.148c.753.03 1.35.125 1.788.285.444.16.805.407 1.083.739.418.486.703 1.092.856 1.817.159.72.213 1.833.165 3.34-.064 1.947-.17 3.322-.319 4.124-.148.796-.379 1.47-.691 2.023-.301.552-.71.931-1.224 1.136-.51.2-1.386.275-2.63.225l-3.166-.127m13.754.18l-.49-13.71 2.3-.1.49 13.708-2.3.102m6.141-.361l-.844-11.419-2.637.241-.166-2.255 7.567-.69.167 2.255-2.637.24.844 11.418-2.294.21m8.1-14.71l2.268-.438 1.425 9.11c.163 1.042.387 1.728.672 2.059.29.324.726.43 1.31.316.58-.112.951-.376 1.114-.793.168-.419.169-1.157.003-2.216l-1.42-9.076 2.236-.431 1.46 9.33c.141.906.198 1.58.169 2.02-.025.432-.12.827-.287 1.185a3.267 3.267 0 0 1-1.128 1.321c-.5.338-1.12.578-1.856.72-1.39.269-2.425.125-3.103-.431-.674-.563-1.142-1.679-1.403-3.346l-1.46-9.33m12.285 3.479l.935-.253c.696-.189 1.151-.47 1.366-.847.213-.381.24-.939.08-1.672-.163-.738-.405-1.214-.726-1.426-.318-.22-.838-.232-1.56-.037l-.965.262.87 3.973m-.514 8.08l-2.922-13.33 3.88-1.05c1.183-.32 2.1-.257 2.748.191.648.448 1.119 1.342 1.412 2.68.289 1.316.226 2.372-.188 3.169-.41.79-1.184 1.338-2.321 1.646l-1.628.44 1.239 5.652-2.22.601m8.817-9.659c.614 2.151 1.113 3.468 1.498 3.95.387.473.887.602 1.498.387.601-.212.934-.628.998-1.249.067-.628-.21-2.029-.83-4.203s-1.122-3.499-1.504-3.974c-.383-.476-.877-.607-1.484-.394-.606.214-.942.638-1.008 1.272-.066.634.212 2.037.832 4.211m-2.239.79c-.396-1.388-.653-2.515-.772-3.383-.12-.873-.115-1.563.015-2.07.171-.715.458-1.283.859-1.705.401-.422.989-.77 1.763-1.042.775-.273 1.435-.366 1.982-.278.546.088 1.078.368 1.594.84.372.343.733.907 1.08 1.694.354.785.727 1.869 1.122 3.25.392 1.376.649 2.5.77 3.374.118.868.117 1.56-.005 2.076-.177.717-.466 1.286-.867 1.707-.4.422-.989.77-1.763 1.042-.775.273-1.435.366-1.982.278-.546-.088-1.075-.369-1.586-.843-.37-.33-.73-.889-1.084-1.674-.354-.79-.73-1.88-1.126-3.267m11.286 3.136l-4.594-12.735 2.196-.977 6.197 7.576-3.273-8.88 2.017-.897 4.594 12.734-2.18.972-6.226-7.584 3.279 8.896-2.01.895m14.3-7.024l-4.816-10.13-2.34 1.374-.951-2 6.713-3.942.951 2-2.339 1.374 4.817 10.13-2.034 1.194m5.435-3.24l-6.593-11.6 1.932-1.356 2.586 4.55 2.664-1.87-2.586-4.55 1.932-1.355 6.593 11.6-1.932 1.355-2.988-5.257-2.664 1.87 2.988 5.257-1.932 1.355m8.236-5.932l-7.441-10.947 5.06-4.247 1.238 1.82-3.238 2.716 1.72 2.531 3.014-2.529 1.18 1.735-3.014 2.529 2.048 3.014 3.315-2.781 1.256 1.848-5.138 4.311m6.352-11.772l1.641-1.792.557.63c.532.6.962.939 1.29 1.014.328.066.658-.082.99-.444.347-.38.524-.764.53-1.154.011-.395-.152-.783-.49-1.164-.258-.293-.542-.474-.851-.544-.313-.074-.825-.048-1.537.08l-1.425.257c-1.22.231-2.089.273-2.61.125-.516-.152-1.018-.503-1.505-1.054-.726-.822-1.077-1.705-1.05-2.65.026-.944.424-1.837 1.194-2.678.816-.89 1.66-1.325 2.534-1.304s1.72.495 2.54 1.423c.082.093.144.167.185.222.045.051.082.098.112.14l-1.555 1.698-.23-.26c-.469-.53-.882-.823-1.24-.882-.36-.058-.718.109-1.076.5-.263.287-.394.601-.393.941 0 .332.136.65.406.956.363.41 1.103.497 2.22.26a.103.103 0 0 1 .029-.005l1.505-.307c1.063-.229 1.897-.257 2.5-.083.6.17 1.188.58 1.765 1.233.787.89 1.165 1.826 1.135 2.808-.03.983-.471 1.938-1.321 2.866-.885.966-1.769 1.432-2.653 1.398-.88-.038-1.782-.578-2.703-1.62-.098-.11-.251-.3-.46-.571l-.034-.038m9.554-3.854l-9.463-8.811 4.073-5.401 1.573 1.465-2.606 3.455 2.188 2.037 2.426-3.217 1.5 1.397-2.426 3.216 2.605 2.426 2.668-3.537 1.598 1.487-4.136 5.483m2.404-12.282l1.093-1.803-4.847-2.307 3.754 4.11m2.264 6.12l-8.687-10.229 1.725-2.844 11.809 5.078-1.384 2.284-2.914-1.365-1.479 2.438 2.242 2.473-1.312 2.165m1.465-11.156l1.051-2.275.707.403c.675.385 1.179.556 1.511.512.33-.052.602-.307.815-.767.222-.48.28-.908.177-1.28-.102-.38-.366-.69-.794-.935-.328-.187-.65-.26-.963-.218-.318.039-.797.243-1.436.612l-1.28.742c-1.092.646-1.906.99-2.442 1.03-.533.037-1.109-.121-1.727-.474-.922-.526-1.505-1.242-1.747-2.148-.242-.906-.117-1.893.376-2.96.523-1.13 1.201-1.839 2.036-2.124.835-.284 1.773-.13 2.814.464.105.06.184.109.239.147.057.032.105.063.146.093l-.996 2.155-.293-.166c-.594-.34-1.07-.474-1.427-.404-.356.07-.65.354-.88.85-.168.365-.203.708-.106 1.031.095.315.314.57.656.765.461.263 1.189.087 2.182-.528a.079.079 0 0 1 .025-.016l1.342-.816c.945-.59 1.729-.907 2.35-.953.618-.048 1.293.137 2.025.554.999.57 1.622 1.327 1.871 2.27.25.943.102 2.004-.443 3.182-.566 1.226-1.274 1.977-2.123 2.254-.846.271-1.854.073-3.024-.594a11.54 11.54 0 0 1-.599-.382l-.042-.024"/>
</svg>
