<svg xmlns="http://www.w3.org/2000/svg" xmlns:xlink="http://www.w3.org/1999/xlink" height="480" width="640" id="flag-icon-css-li">
  <path fill="#002b7f" d="M0 0h640v240H0z"/>
  <path fill="#ce1126" d="M0 240h640v240H0z"/>
  <g transform="scale(.8)" fill="#ffd83d" stroke="#000" stroke-width="2" stroke-linecap="round" stroke-linejoin="round">
    <g id="a">
      <path d="M216.377 122.29l-1.838 62.5h-63.42c-7.803-15.17-14.247-28.053-14.247-45.498 0-14.6 11.483-26.195 28.033-26.195 17.52 0 36.77 5.904 51.47 9.192z" stroke="none"/>
      <g stroke-width="1.5">
        <path d="M144.456 125.16v36.076m5.094-39.756v48.033m5.093-50.561v57.225m5.093-58.407v44.882m5.094-45.104v45.327m5.093-46.91v46.885m5.094-46.885v46.885m5.093-46.426v46.885m5.094-46.425v46.885m5.093-43.899v46.886m5.093-46.426v52.86m5.094-52.86v46.886m5.093-46.886v46.886"/>
        <path d="M176.395 117.923c10.764 1.775 34.407 12.837 31.71 27.803-3.82 21.21-16.208 12.698-32.63 9.65l-12.4070BA9756A8A" fill="#000"/>
      </g>
      <circle cx="212.815" cy="112.983" r="4.94"/>
      <circle cx="201.713" cy="110.311" r="4.94"/>
      <circle cx="190.45" cy="107.482" r="4.94"/>
      <circle cx="179.143" cy="105.596" r="4.94"/>
      <circle cx="167.836" cy="104.481" r="4.94"/>
      <circle cx="156.749" cy="105.113" r="4.94"/>
      <circle cx="146.179" cy="108.732" r="4.94"/>
      <circle cx="137.276" cy="115.28" r="4.94"/>
      <circle cx="130.957" cy="124.414" r="4.94"/>
      <circle cx="127.912" cy="135.156" r="4.94"/>
      <circle cx="128.027" cy="146.301" r="4.94"/>
      <circle cx="130.152" cy="157.215" r="4.94"/>
      <path d="M214.998 119.53l-.46 6.435c-12.29-1.883-29.714-8.732-45.955-8.732-15.006 0-26.654 6.003-26.654 21.14054D17DAF3"/>
    </g>
    <use height="100%" width="100%" xlink:href="#a" transform="matrix(-1 0 0 1 443.938 0)"/>
    <path d="M221.97 53.125l-5.157 9.656 5.156 9.626 5.155-9.625-5.156-9.655zm0 24.375l-5.157 9.625 5.156 9.656 507C3CB5A27"/>
    <circle cx="221.969" cy="75.069" r="3.906"/>
    <circle cx="221.969" cy="100" r="10.455"/>
    <path d="M219.344 89.875c0 3.114-.022 4.924-.03 6.625a62.506 62.506 0 0 0-7.44.78m20.19 0a62.126 62.126 0 0 0-7.44-.78v-6.625m-12.78 12.688a61.39 61.39 0 0 1 10.125-.844c3.45 0 6.83.292 10.124.843" fill="none" stroke-width="1.5"/>
    <path d="M211.75 117.688c-.992 17.082-3.01 34.48-9.656 47.124l10.812-4.375c3.777-14.328 4.57-32.842 5.72-41.5087D286AD6"/>
    <path d="M221.953 154.688c-12.913 0-22.4 6.086-22.97 21.593-3.155-5.554-16.51-23.024-28.967-20.686-7.41 1.39-015F8A4A70"/>
    <g stroke-width="1.5">
      <path d="M297.107 219.026c0 5.58-33.662 11.718-75.138 11.718-41.477 0-75.14-6.137-75.14-11.718 0-5.58 33.663-00E920EA15" fill="#000"/>
      <circle cx="221.969" cy="114.445" r="3.504"/>
      <circle cx="221.969" cy="122.027" r="3.734"/>
      <circle cx="221.969" cy="130.184" r="4.079"/>
      <circle cx="221.969" cy="139.261" r="4.653"/>
      <circle cx="221.969" cy="149.371" r="5.113"/>
      <path d="M219.938 159.206c-.553-.007-1.076.46-.938 1.344.163 1.043.367 2.995.563 4.312.22 1.493 1.09 1.13 1.3099A50AAAA" fill="#000" stroke="none"/>
      <path d="M150.127 212.65l1.95 6.175m2.06-7.344l1.728 6.24m2.605-6.952l1.187 6.365m2.833-7.17l1.27 6.35m3.886-6.858l1.032 6.392m4.452-6.385l1.112 6.378m4.242-8.19l.803 6.426m4.234-6.1l.804 6.425m4.07-7.073l.805 6.424m4.088-6.928l.442 6.46m4.786-6.462l.384 6.463m4.357-6.79l.326 6.467m4.9-6.793l.272 6.47m5.74-6.632l.272 6.47m79.044.176l-1.95 6.175m-2.06-7.344l-1.728 6.24m-2.604-6.952l-1.187 6.365m-2.832-7.17l-1.27 6.35m-3.886-6.858l-1.033 6.392m-4.453-6.385l-1.112 6.378m-4.24-8.19l-.805 6.426m-4.233-6.1l-.804 6.425m-4.07-7.073l-.804 6.424m-4.09-6.928l-.442 6.46m-4.787-6.462l-.382 6.463m-4.357-6.79l-.326 6.467m-4.9-6.793l-.27 6.47m-5.742-6.632l-.27 6.47m-7.203-6.89v7.122"/>
    </g>
  </g>
</svg>
