<svg xmlns="http://www.w3.org/2000/svg" xmlns:xlink="http://www.w3.org/1999/xlink" height="480" width="640" id="flag-icon-css-lk">
  <path fill="#ffb700" d="M0 0h640v480H0z"/>
  <path d="M26.667 240l88-213.333h88v426.666h-88z" fill="#ff5b00"/>
  <path fill="#005641" d="M26.667 26.667h88v426.666h-88z"/>
  <path fill="#8d2029" d="M229.333 26.667H616v426.666H229.332z"/>
  <path id="a" d="M579.253 408.565s3.626 7.382 7.632 10.39c5.935 4.456 18.104 4.134 23.27 9.333 6.187 6.13-.482 14.23-077380AADD" fill="#ffb700" stroke="#000" stroke-width="1.134"/>
  <use height="100%" width="100%" xlink:href="#a" transform="matrix(-1 0 0 1 845.333 0)"/>
  <use height="100%" width="100%" xlink:href="#a" transform="matrix(1 0 0 -1 0 480)"/>
  <use height="100%" width="100%" xlink:href="#a" transform="rotate(180 422.667 240)"/>
  <g transform="translate(0 -76)">
    <use xlink:href="#b" width="100%" height="100%" stroke="#000" stroke-width="5.56"/>
    <g id="b" fill="#ffb700">
      <path d="M363.488 415.765l2.325-1.342.995 1.345c1.325 1.79 4.99 1.77 7.424-.04l1.86-1.387 1.558 1.387c2.048 10B37BCDAF3"/>
      <path d="M460.507 415.5l2.507-1.613 1.7 1.612c2.23 2.11 4.842 2.063 6.985-.128.934-.955 1.774-1.617 1.865-1.40679BFDAEC"/>
      <path d="M356.523 374.89c2.666-1.05 8.438-5.937 8.438-7.145 0-.38-1.592-2.132-3.54-3.893-4.097-3.707-8.554-9.0915364AA3"/>
      <path d="M327.11 348.64c1.75-1.587 2.577-3.475 1.525-3.475-1.21 0-4.423 2.883-4.423 3.97 0 1.694.597 1.592 2.028C0E6AF5"/>
      <path d="M324.325 319.808c.387-.366.22-.93-.43-1.44-1.42-1.115-1.344-2.775.214-4.676 1.17-1.427 1.315-3.563 105E273FADA"/>
      <path d="M411.92 301.136c0-.96-2.818-3.56-5.674-5.236-2.242-1.316-2.613-1.356-2.618-.282-.007 1.63-1.456 5.72043A85EAF4" fill="#000"/>
      <path d="M412.368 248.57c-1.01-.956-.218-1.19 4.312-1.275 5.604-.105 9.008-1.04 13.024-3.574 3.218-2.03 4.09-02E28BEA59" fill="#000"/>
    </g>
  </g>
</svg>
