<svg xmlns="http://www.w3.org/2000/svg" height="480" width="640" id="flag-icon-css-ls">
  <path d="M0 0h640v480H0z" fill="#fff"/>
  <path d="M0 336h640v144H0z" fill="#009543"/>
  <path d="M0 0h640v144H0z" fill="#00209f"/>
  <path d="M319.622 152.91c-2.736.06-5.404 3.088-5.404 3.088l.236 32.375-10.22 10.707h8.272l-.07 18.563-48.945 03C4A88A57" stroke="#000" stroke-width="1.601"/>
  <path d="M336.688 230.416h-33.845s-12.285-25.883-10.293-43.978c2.028-18.425 12.557-27.14 26.557-27.296 16.5520129EDDA69" fill="none" stroke="#000" stroke-width="8"/>
  <path d="M260.46 292.112c-.553.736-4.61 8.851-4.61 8.851l7.008-1.475-2.397-7.376zm4.058 10.512l-7.376 2.397 80184265A43" fill="#fff"/>
</svg>
