<svg xmlns="http://www.w3.org/2000/svg" height="480" width="640" id="flag-icon-css-md">
  <g fill-rule="evenodd" stroke-width="1pt">
    <path fill="#00319c" d="M0 0h213.337v480H0z"/>
    <path fill="#ffde00" d="M213.337 0h213.338v480H213.337z"/>
    <path fill="#de2110" d="M426.662 0H640v480H426.662z"/>
  </g>
  <path d="M360.376 320.377l24.267 35.012c1.348 1.945 2.696 3.89.66 5.178-2.035 1.289-1.374 6.467-.026 8.412 2.696 3.89 6.08 4.547 8.116 3.259l18.319-11.594c2.036-1.288 2.723-4.522.027-8.412-1.548-1.96-6.08-4.547-8.116-3.259-2.036 1.289-3.384-.656-4.732-2.602l-24.267-35.012" fill-rule="evenodd" stroke="#000" stroke-width=".73" fill="#ff1900"/>
  <path d="M177.17 696.26c0 24.461-9.518 44.291-21.26 44.291-11.741 0-21.26-19.83-21.26-44.291s9.518-44.291 21.26-44.291c11.741 0 21.26 19.83 21.26 44.291z" fill-rule="evenodd" transform="matrix(.52728 -.42386 .44358 .50386 -32.42 19.918)" stroke="#000" stroke-width="2.54" fill="#a77b3b"/>
  <path d="M261.952 306.142L240.53 342.81c-1.19 2.037-2.38 4.074-4.512 2.937-2.132-1.138-6.645 1.8-7.835 3.836-2.38 4.075-1.439 7.249.693 8.386l19.186 10.236c2.132 1.137 5.454.238 7.834-3.837 1.114-2.213 1.44-7.248-.693-8.386-2.132-1.137-.941-3.174.249-5.211l21.423-36.667" fill-rule="evenodd" stroke="#000" stroke-width=".73" fill="#ff1900"/>
  <path d="M331.169 280.577h-19.532c-.646.617-6.2 35.598-12.208 48.993-7.324 16.33-29.26 30.741-29.26 30.741s130484A00ADD" fill-rule="evenodd" stroke="#000" stroke-width="1.711" fill="#a77b3b"/>
  <g stroke="#000" fill="none">
    <path d="M302.16 292.24l14.645 14.964 14.644-14.964 14.645 14.964 29.29-14.964 14.261 15.809 15.028-15.809 21.605 15.809 22.329-15.809 14.645 14.964 14.645-14.964" transform="matrix(.16672 0 0 .46773 253.9 31.899)" stroke-width=".49"/>
    <path d="M432.28 435.83l-7.086 38.976m10.636-38.976v38.976m7.08-38.976v38.976M450 435.83l3.543 38.976m3.547-38.976l3.543 38.976" transform="matrix(.68905 0 0 .65843 16.176 -144.034)" stroke-width=".203"/>
  </g>
  <g stroke="#000" stroke-width="2.54">
    <path d="M318.9 361.42c35.433 17.717 35.433 53.149 35.433 70.866-1.251 16.117 0 354.33 0 354.33s-2.306-20.02208A8F5FAF2" fill-rule="evenodd" transform="matrix(-.68905 0 0 .65843 443.445 -144.034)" fill="#a77b3b"/>
    <path d="M283.46 574.02c.417 0 17.716-17.717 17.716-17.717l17.717 17.717 17.716-17.717 17.717 17.717" transform="matrix(-.68905 0 0 .65843 443.445 -237.354)" fill="none"/>
    <path d="M283.46 574.02c.417 0 17.716-17.717 17.716-17.717l17.717 17.717 17.716-17.717 17.717 17.717" transform="matrix(-.68905 0 0 -.65843 443.445 530.2)" fill="none"/>
    <path d="M283.46 574.02c.417 0 17.716-17.717 17.716-17.717l17.717 17.717 17.716-17.717 17.717 17.717" transform="matrix(-.68905 0 0 .65843 443.445 -190.695)" fill="none"/>
    <path d="M301.39 556.99l-.208 158.76" transform="matrix(-.68905 0 0 1.24911 443.445 -566.794)" fill="none"/>
    <path d="M301.39 539.27l-.208 176.48" transform="matrix(-.68905 0 0 1.12111 431.38 -463.993)" fill="none"/>
    <path d="M301.39 539.27l-.208 176.48" transform="matrix(-.68905 0 0 1.2559 419.17 -548.331)" fill="none"/>
  </g>
  <g stroke="#000" stroke-width="2.54">
    <path d="M318.9 361.42c35.433 17.717 35.433 53.149 35.433 70.866-1.251 16.117 0 354.33 0 354.33s-2.306-20.02208A8F5FAF2" fill-rule="evenodd" transform="matrix(.68905 0 0 .65843 199.292 -144.034)" fill="#a77b3b"/>
    <path d="M283.46 574.02c.417 0 17.716-17.717 17.716-17.717l17.717 17.717 17.716-17.717 17.717 17.717" transform="matrix(.68905 0 0 .65843 199.292 -237.354)" fill="none"/>
    <path d="M283.46 574.02c.417 0 17.716-17.717 17.716-17.717l17.717 17.717 17.716-17.717 17.717 17.717" transform="matrix(.68905 0 0 -.65843 199.292 530.2)" fill="none"/>
    <path d="M283.46 574.02c.417 0 17.716-17.717 17.716-17.717l17.717 17.717 17.716-17.717 17.717 17.717" transform="matrix(.68905 0 0 .65843 199.292 -190.695)" fill="none"/>
    <path d="M301.39 556.99l-.208 158.76" transform="matrix(.68905 0 0 1.24911 199.292 -566.794)" fill="none"/>
    <path d="M301.39 539.27l-.208 176.48" transform="matrix(.68905 0 0 1.12111 211.358 -463.993)" fill="none"/>
    <path d="M301.39 539.27l-.208 176.48" transform="matrix(.68905 0 0 1.2559 223.56 -548.331)" fill="none"/>
  </g>
  <path d="M177.17 696.26c0 24.461-9.518 44.291-21.26 44.291-11.741 0-21.26-19.83-21.26-44.291s9.518-44.291 21.26-44.291c11.741 0 21.26 19.83 21.26 44.291z" fill-rule="evenodd" transform="matrix(.63605 .25323 -.26502 .60778 361.151 -165.211)" stroke="#000" stroke-width="2.54" fill="#a77b3b"/>
  <path fill-rule="evenodd" fill="red" d="M248.119 175.588h146.493v69.991H248.119z"/>
  <path d="M248.12 245.58h146.492v34.996c0 23.33-36.623 23.33-73.246 46.66-36.624-23.33-73.247-23.33-73.247-46.66V245.58z" fill-rule="evenodd" fill="#564dff"/>
  <path d="M336.61 485.43h212.6v159.45c0 35.433-53.15 35.433-106.3 70.866-53.149-35.433-106.3-35.433-106.3-70.866V485.43z" transform="matrix(.68905 0 0 .65843 16.177 -144.034)" stroke="#ff0" stroke-width="2.032" fill="none"/>
  <path d="M385.59 129.9s-50.618 55.447-50.618 108.6c0 53.149 53.149 70.866 53.149 70.866s-17.717 0-17.717 70.80C1FD98A35" fill-rule="evenodd" transform="matrix(.48234 0 0 .30917 108.523 140.092)" stroke="#000" stroke-width="2.448" fill="#ff0"/>
  <path d="M382.68 248.03c-3.543 3.543 4.581 61.274 7.087 63.779 3.543 3.543 24.803 3.543 28.346 0 2.525-2.525 03D4999ADA" fill-rule="evenodd" transform="matrix(.48234 0 0 .30917 110.363 201.59)" stroke="#000" stroke-width="2.448" fill="#ff0"/>
  <path d="M382.68 248.03c-3.543 3.543 4.581 61.274 7.087 63.779 3.543 3.543 24.803 3.543 28.346 0 2.525-2.525 03D4999ADA" fill-rule="evenodd" transform="matrix(-.48234 0 0 .30917 532.374 201.59)" stroke="#000" stroke-width="2.448" fill="#ff0"/>
  <path d="M414.57 228.54c0 8.806-7.139 15.945-15.945 15.945-8.806 0-15.945-7.139-15.945-15.945 0-8.806 7.139-107DBC8AAD0" fill-rule="evenodd" transform="matrix(.5544 0 0 .38542 82.69 183.727)" stroke="#000" stroke-width="2.448" fill="#ff0"/>
  <path d="M414.57 228.54c0 8.806-7.139 15.945-15.945 15.945-8.806 0-15.945-7.139-15.945-15.945 0-8.806 7.139-107DBC8AAD0" fill-rule="evenodd" transform="matrix(.55441 0 0 .38543 118.046 183.727)" stroke="#000" stroke-width="2.448" fill="#ff0"/>
  <path d="M336.753 307.498c0 1.513-1.913 2.739-4.273 2.739-2.36 0-4.272-1.226-4.272-2.739s1.913-2.739 4.272-2.05B8B4EAB2" fill-rule="evenodd"/>
  <path fill-rule="evenodd" transform="matrix(.67225 0 0 .64237 26.002 -133.336)" stroke="#000" stroke-width="1.084" fill="#ff0" d="M439.37 549.92l-7.78-10.26-12.77 1.75 1.76-12.76-10.26-7.78 10.26-7.79-1.76-12.76 12.77 1.76 7.78-10093771FA9E"/>
  <path d="M496.06 591.73l21.26 10.63 21.26-10.63-21.26-10.63-21.26 10.63z" fill-rule="evenodd" transform="matrix(.68905 0 0 .65843 16.176 -144.034)" stroke="#000" stroke-width="1.084" fill="#ff0"/>
  <path d="M496.06 591.73l21.26 10.63 21.26-10.63-21.26-10.63-21.26 10.63z" fill-rule="evenodd" transform="matrix(.68905 0 0 .65843 -88.808 -144.034)" stroke="#000" stroke-width="1.084" fill="#ff0"/>
  <path d="M535.04 659.06c-3.543-7.086-14.173-10.63-21.259-10.63-7.087 0-14.174 0-21.26 10.63 0-14.173 10.502-207AAC69A23" fill-rule="evenodd" transform="matrix(.59753 -.3279 .34316 .57097 -165.149 86.49)" stroke="#000" stroke-width="1.084" fill="#ff0"/>
  <path d="M386.22 651.97a7.087 7.087 0 1 1-14.173 0 7.087 7.087 0 0 1 14.173 0z" fill-rule="evenodd" transform="matrix(.68905 0 0 .65843 13.735 -155.7)" stroke="#000" stroke-width="1.084" fill="#ff0"/>
  <path d="M386.22 651.97a7.087 7.087 0 1 1-14.173 0 7.087 7.087 0 0 1 14.173 0z" fill-rule="evenodd" transform="matrix(.68905 0 0 .65843 8.851 -139.368)" stroke="#000" stroke-width="1.084" fill="#ff0"/>
  <path d="M386.22 651.97a7.087 7.087 0 1 1-14.173 0 7.087 7.087 0 0 1 14.173 0z" fill-rule="evenodd" transform="matrix(.68905 0 0 .65843 6.41 -148.7)" stroke="#000" stroke-width="1.084" fill="#ff0"/>
  <path d="M386.22 651.97a7.087 7.087 0 1 1-14.173 0 7.087 7.087 0 0 1 14.173 0z" fill-rule="evenodd" transform="matrix(.68905 0 0 .65843 18.618 -139.368)" stroke="#000" stroke-width="1.084" fill="#ff0"/>
  <path d="M386.22 651.97a7.087 7.087 0 1 1-14.173 0 7.087 7.087 0 0 1 14.173 0z" fill-rule="evenodd" transform="matrix(.68905 0 0 .65843 21.06 -148.7)" stroke="#000" stroke-width="1.084" fill="#ff0"/>
  <path d="M386.22 651.97a7.087 7.087 0 1 1-14.173 0 7.087 7.087 0 0 1 14.173 0z" fill-rule="evenodd" transform="matrix(.68905 0 0 .65843 13.735 -146.367)" stroke="#000" stroke-width="1.084" fill="#ff0"/>
  <g fill-rule="evenodd">
    <path d="M297.774 120.38c-12.323 0-13.952 1.945-19.533 3.89 0-5.366 13.722-11.666 26.044-11.666 0 3.889-3.256 7.778-6.511 7.777z" fill="#da4500"/>
    <path d="M316.484 107.932c0 2.577-2.186 4.666-4.883 4.666s-4.883-2.089-4.883-4.666 2.186-4.666 4.883-4.666 4.883 2.09 4.883 4.666z" fill="#cac9c7"/>
    <path d="M361.42 357.87v10.63h17.717v53.15h10.63V368.5h17.716v-10.63h-17.716v-14.173h-10.63v14.173H361.42z" stroke="#000" stroke-width="1.084" fill="#ff0" transform="matrix(.68905 0 0 .65843 16.176 -144.034)"/>
    <path d="M304.263 112.607c-14.375 0-22.787 1.294-29.298 3.887 0-7.155 8.412-15.553 22.787-15.553 3.255 0 6.51 7.776 6.51 11.666z" fill="#da4500"/>
  </g>
  <g fill-rule="evenodd">
    <path d="M67.323 612.99c-14.173-14.17-16.634-21.36 3.543-10.1l283.75 247.5-3.366 6.968-283.93-244.37z" transform="matrix(.38821 .29653 -.14073 .23692 237.452 71.286)" stroke="#000" stroke-width=".711" fill="#008500"/>
    <path d="M228.398 330.405c.77-10.585-18.61-22.036-19.377-21.292-.767.744 1.178 6.907 4.854 10.119-7.038-3.62607BCE12A09" fill="#008f00"/>
    <path d="M184.603 239.866c9.377-5.682 7.54-27.385 6.46-27.533-1.082-.15-5.124 5-5.652 9.733-1.116-7.565-3.603058D938ACD" fill="#008f00"/>
  </g>
  <path d="M209.06 775.98c0 7.828-10.312 14.173-23.031 14.173-12.72 0-23.031-6.346-23.031-14.173 0-7.828 10.312010570BADE" fill-rule="evenodd" transform="matrix(.60164 .32097 -.3359 .5749 389.583 -146.809)" stroke="#000" stroke-width="1.084" fill="#ff1900"/>
  <g stroke="#000" fill-rule="evenodd" fill="#ff0">
    <path d="M155.91 414.57v-7.087h7.086v-7.086h7.087v7.086h7.086v7.087h-7.086v17.716h-7.087V414.57h-7.086z" transform="matrix(.49887 .1571 -.1826 .4713 451.443 -3.726)" stroke-width=".508"/>
    <path stroke-width=".512" d="M162.99 474.8h7.087v205.51h-7.087z" transform="matrix(.49887 .1571 -.1826 .4713 451.443 -3.726)"/>
    <path stroke-width=".508" d="M159.45 676.77h14.173v56.693H159.45zm-3.54-237.4h21.259c14.174 0-3.543 38.976-3.543 38.976h-14.173s-17.717-38.976-3.543-38.976z" transform="matrix(.49887 .1571 -.1826 .4713 451.443 -3.726)"/>
    <path d="M173.62 434.06c0 2.935-3.173 5.315-7.087 5.315s-7.086-2.38-7.086-5.315 3.173-5.315 7.086-5.315 7.087 2.38 7.087 5.315z" stroke-width=".508" transform="matrix(.49887 .1571 -.1826 .4713 451.443 -3.726)"/>
  </g>
  <path d="M209.06 775.98c0 7.828-10.312 14.173-23.031 14.173-12.72 0-23.031-6.346-23.031-14.173 0-7.828 10.312010570BADE" fill-rule="evenodd" transform="matrix(.57449 -.36357 .38048 .54895 -2.259 4.212)" stroke="#000" stroke-width="1.084" fill="#ff1900"/>
</svg>
