<svg xmlns="http://www.w3.org/2000/svg" height="480" width="640" id="flag-icon-css-me">
  <path fill="#d3ae3b" d="M0 0h640v480H0z"/>
  <path fill="#c40308" d="M24 24h592v432H24z"/>
  <path d="M424.46 236.1c2.811-.793 12.585-3.65 19.471-9.237 6.887-5.589 8.231-10.066 8.787-12.485.552-2.417.79095E270A64" fill="#b96b29"/>
  <path d="M361.205 237.75c0-10.178 4.683-16.614 4.683-16.614l-12.74-14.595c-12.133 4.69-23.25 4.976-33.147-.0607BF708A33" fill="#d4af3a"/>
  <path d="M357.2 241.95c-1.597-9.722 4.006-18.284 4.006-18.284L350.3 210.915c-8.403 4.72-20.097 4.086-30.261-.04A961FA02" fill="#b96b29"/>
  <path d="M356.15 243.105c-1.58-10.497 3.156-18.953 3.156-18.953l-9.845-10.962c-8.32 4.274-18.433 3.17-29.45-.04C65BCADD" fill="#1d5e91"/>
  <path d="M281.63 278.58c1.875 5.356 5.739 10.78 11.622 14.323 8.175 4.923 11.706 4.274 19.416 9.29 7.712 5.010CB1BDCAD1" fill="#6d8c3e"/>
  <path d="M288.32 237.195c.877.922 1.526 1.203 2.865 1.065 1.341-.142 1.663.833 1.895 1.895.23 1.063.23 3.557 04EC7A2A2D" fill="#d4af3a"/>
  <path d="M316.73 224.16c.34-.216.959-.464.959-.464s.772-.184 1.482-.279c.709-.093.586-.495.43-.832-.153-.344-.43-.465-1.354-.465-.929 0-1.517.465-2.04.678-.527.217-1.143.372-1.143.372s.124.154.463.65c.33.524.855.584 1.185.36zm3.78 3.75c.37 0 .772-.217.772-.217s.677-.341 1.298-.556c.617-.217.864-.31 1.233-1.051.37-.741-.402-.741-1.48-1.017-1.082-.282-1.607.09-1.729.492-.126.402-.094.864-.526 1.638-.435.765.06.705.435.705zm-.345.945c-1.048 0-2.221 1.575-2.655 1.853-.433.277-.186.554-.186.554s.309.65.43 1.266c.127.62.157 1.67.157 1.67s.154.063.77.063c.62 0 .989-.31 1.577-.743.588-.432 1.05-.588 1.884-.742.836-.153 1.235-.308 2.16-.801.929-.494-.493-1.359-1.48-2.162-.99-.765-1.605-.93-2.655-.93zm-13.965 3.63c.831-.093 1.202-.507 1.202-.969 0-.462-.42-.97-1.48-.877-2.602.23-5.125-.702-5.59-3.281 0 0-.877 1.614.74 3.419 1.635 1.8 4.305 1.8 5.145 1.71zm-8.865 40.98c.132.23.294.372.459.458h3.987c.68-.191.684-.817.717-1.249.039-.514.433-1.975.986-4.626.552-2.647 1.498-4.542 1.891-5.61.393-1.068-.395-1.422-.67-2.095-.276-.67-.71-1.856-.828-2.448-.119-.594-1.064-.514-1.577-.475-.513.038-.593.87-.67 1.66-.078.787-.434 3.122-.827 5.138-.395 2.015-2.68 4.703-3.31 5.294-.632.594-1.143.831-1.577.831-.433 0-1.379 0-1.853.278-.47.278-.943 1.029-.984 1.619-.039.593.908.91.908.91s.749-.435 1.024-.79c.276-.356.906-.436 1.536-.553.63-.118.71.117.473.432-.24.3-.165.375.315 1.215zm-6.105-.21c-.301.106-.522.406-.658.655h2.605c-.032-.213-.102-.466-.252-.655-.315-.39-1.155-.195-1.695 0z" fill="#d4af3a"/>
  <path d="M294.77 273.18c-.318.172-.702.455-.897.734h2.805c.099-.261.13-.611-.213-.891-.63-.526-1.26-.09-1.695027848BA78" fill="#d4af3a"/>
  <path d="M332.27 260.37c.845-.612.711-.781.743-1.427.033-.646.033-.848-.305-1.085-.339-.24-1.59-.782-2.775-.70827B92A09" fill="#d4af3a"/>
  <path d="M323.735 247.425c.519.843.261 1.004-.484 1.164a8.541 8.541 0 0 1-2.717.195c-1.163-.098-1.133.065-1.10FD8C6AA6A" fill="#d4af3a"/>
  <path d="M337.325 273.405c-.246.159-.41.348-.519.513h2.445a.954.954 0 0 0-.24-.708c-.36-.45-1.08-.195-1.68.19047A5D3AA0" fill="#d4af3a"/>
  <ellipse rx="1.466" ry="1.443" cy="225.96" cx="312.56" fill="#b96b29"/>
  <path d="M344.03 228.42c-1.94-.171-4.479.344-4.479.344s.472.388 1.119.344c.645-.043 1.809-.087 3.702.257 1.895.346 3.272-.56 3.272-.56s-1.68-.21-3.615-.39z" fill="#b96b29"/>
  <path d="M325.61 264.57c-.474-.747-.61-.678-1.155-.203-.541.474-1.087-1.156-1.155-2.173-.067-1.016.407-4.138.0C14A6BA50" fill="#1d5e91"/>
  <path d="M296.225 329.655c1.093.364 3.136-.436 4.158-1.677 1.02-1.24 1.386-3.14 2.115-4.232.729-1.095 1.259-10C60C33AC7" fill="#d4af3a"/>
  <path d="M296.09 342.015c1.413-1.244 2.14-1.929 2.14-1.929s1.028-.855.771.772c-.258 1.626-.814 4.967-.47 6.420B79AE8A61" fill="#d4af3a"/>
  <path d="M319.355 380.595c.124.969.042 3.418.631 3.418.59 0 .505-2.45.632-3.418.125-.969.167-3.292.167-3.292h-1.601c.015-.015.06 2.31.18 3.285z" fill="#b96b29"/>
  <path d="M319.97 151.305c-5.649.096-12.276-.684-15.922-2.042-1.296.287-2.592.572-3.888.857 6.01 2.264 11.032 0B5D8A4ACE" fill="#d4af3a"/>
  <path d="M333.905 149.06c-3.989-.473-6.52-.989-13.905-.923-7.383.065-9.914.45-13.905.922 2.513 1.009 6.576 1.0EA40D4A36" fill="#d4af3a"/>
  <path d="M320.12 105.048c2.432 0 4.495-1.431 5.228-3.414H314.89c.735 1.984 2.805 3.414 5.235 3.414zm2.25-9.5708C6850A0F" fill="#1d5e91"/>
  <path d="M323.255 139.968c-1.032-.487-3.282-1.449-3.282-1.449s-2.139 1.054-3.301 1.638c-1.163.582-1.013.412-107A7E22A59" fill="#b96b29"/>
  <path fill="#d4af3a" d="M319.97 139.333l-3.51 1.707 3.6 1.834 3.555-1.833zm0-12.361s-.303 1.27-.71 1.809c-.406.54-.713 1.022067452BAB9"/>
  <circle cy="132.84" cx="320" r=".677" fill="#d4af3a"/>
  <path d="M317.585 129.36s1.17-1.299 1.602-2.123c.433-.821.786-1.558.786-1.558s.351.737.784 1.559c.434.822 1.6079F014AE9" fill="#d4af3a"/>
  <ellipse rx="2.841" ry="2.742" cy="122.259" cx="319.97" fill="#b96b29"/>
  <ellipse rx="2.733" ry="2.639" cy="115.83" cx="319.97" fill="#b96b29"/>
  <ellipse rx="2.607" ry="2.516" cy="109.681" cx="319.97" fill="#b96b29"/>
  <ellipse rx="1.506" ry="1.452" cy="121.767" cx="319.97" fill="#d4af3a"/>
  <ellipse rx="1.449" ry="1.397" cy="115.358" cx="319.97" fill="#d4af3a"/>
  <ellipse rx="1.27" ry="1.226" cy="109.23" cx="319.97" fill="#d4af3a"/>
  <path d="M319.895 336.06c.175.036.21-.415.244-1.252.033-.834.141-2.85.347-4.032.208-1.184-.314-1.113-.627-1.00C311D5A8E" fill="#b96b29"/>
  <path d="M290.42 359.115c1.262-.801 2.357-1.689 5.217-3.588 2.86-1.9 3.912-4.01 3.912-4.01h-1.01c-.547 0-1.000CF1E8CA2E" fill="#d4af3a"/>
  <path d="M306.755 357.3c-1.668-.175-2.666-.805-2.988-2.618-.211-1.18.086-5.697.086-5.697s-.548.464-1.18 1.2260FC05B4A83" fill="#d4af3a"/>
  <path d="M315.035 360.03s-1.263-1.6-1.725-3.418c-.464-1.814-1.345-5.4-1.345-5.4s-.422 1.14-1.431 3.288c-1.0110CA8E32AE0" fill="#d4af3a"/>
  <path d="M317.48 372.66c1.557-2.32 1.81-7.973 1.81-7.973s-.546-.379-1.305-1.015c-.756-.633-2.229-2.868-2.229-0429194A3C" fill="#d4af3a"/>
  <path d="M298.97 325.335c.828-1.692 1.764-3.744 2.52-4.785a14.915 14.915 0 0 0 1.294-2.234s-2.015 1.836-2.8070E609F4A77" fill="#b96b29"/>
  <path d="M274.985 169.92c-1.272-.747-4.692-2.21-8.334-2.518-3.639-.308-6.453.24-9.474 1.056-2.164.585-3.918.60760089ABD" fill="#c52126"/>
  <path d="M260.3 317.49s-.501-.05-1.203-.151c-.702-.101-2.206-.603-2.658-.806-.452-.2-1.153-.25-1.605.252-.451015B629A08" fill="#d4af3a"/>
  <path d="M277.385 316.455v-.606l-.808-1.742s-.944.593-1.863 1.544c-1.184 1.228-2.457 2.955-3.026 3.684-1.011 0FD3596A80" fill="#d4af3a"/>
  <path d="M295.595 301.965a68.5 68.5 0 0 1-.885-.402 1.01 1.01 0 0 0-.219.078c-.56.28-3.468 2.238-4.642 4.141-0144E26AD4" fill="#d4af3a"/>
  <path d="M276.53 241.38c-1.725-.087-3.965-1.034-5.688-3.537-1.722-2.503-4.31-3.11-8.791-3.024-4.482.087-6.5510308FDAA92" fill="#d4af3a"/>
  <ellipse rx="1.788" ry="1.638" cy="158.625" cx="274.01" fill="#d4af3a"/>
  <path d="M270.245 155.535c1.632-.039 2.51-.811 4.311-.637 2.126.207 5.005 1.446 8.504 3.303 2.734 1.236 6.3440C61A66ADC" fill="#d4af3a"/>
  <path d="M293 201.06s-1.083 2.396-1.674 3.249c-.591.854-.854.987-.854.987s1.084.918 2.66 1.41c1.577.493 2.9880BDF4EAAD9" fill="#d4af3a"/>
  <path d="M305 186.96c-1.596-1.835-1.755-2.274-1.755-2.274s-.558.558-.081 1.357c.478.797 2.752 2.79 4.308 3.660BFA51FAAC" fill="#b96b29"/>
  <path fill="#d4af3a" d="M295.22 143.502l3.15 1.38 3.375-2.397-3.975-1.018z"/>
  <ellipse rx="3.219" ry="3.103" cy="142.074" cx="309.17" fill="#b96b29"/>
  <ellipse cx="309.17" rx="1.942" cy="141.417" ry="1.855" fill="#d4af3a"/>
  <path d="M302.45 131.412c.828.307 1.905.172 1.905.172s.325-1.427-.462-2.123c-.787-.693-1.5-1.194-1.962-1.658-0A0D59CA5F" fill="#d4af3a"/>
  <ellipse cx="304.16" rx=".591" cy="132.975" ry=".559" fill="#d4af3a"/>
  <path d="M299.765 132.375c-.25.348-.787.906-.787.906s.653.02 1.192.405c.538.387 1.231.714 1.866.637.634-.079.0876ACAA03" fill="#d4af3a"/>
  <path d="M302.015 136.134c-2.022.181-4.694-2.054-4.694-2.054-.249 1.796-1.359 2.727-3.06 3.068l.156.08s1.582.0AACA6FA04" fill="#d4af3a"/>
  <ellipse cx="288.635" rx=".699" cy="135.061" ry=".504" fill="#d4af3a"/>
  <path d="M290.57 127.297c-.561-2.66-.467-5.555 2.055-9.244 2.523-3.69 6.91-5.184 6.91-5.184s.14-.28 1.541-1.70ED9EDEAAA" fill="#d4af3a"/>
  <path d="M298.61 110.259c.477-.387.561-.98.181-1.319-.374-.34-1.066-.3-1.543.09-.475.39-.56.983-.181 1.322.37094F759A24" fill="#d4af3a"/>
  <ellipse cx="285.11" rx="1.306" cy="123.163" ry="1.284" fill="#d4af3a"/>
  <path d="M313.31 105.025c-.678.149-1.932.557-3.808 1.54h.034c1.305 0 2.319.833 2.319 1.913 0 1.082-1.187 2.250E6DF20ACB" fill="#d4af3a"/>
  <path d="M309.185 109.46c.735 0 1.404-.662 1.404-1.268 0-.607-.572-1.075-1.308-1.075-.735 0-1.332.493-1.332 10DD3D51ABE" fill="#d4af3a"/>
  <path d="M318.575 134.999c-.361.558-.628.897-1.742.945-1.113.048-2.32-.024-3.046-.752-.726-.726-1.233-1.746-1034A708A63" fill="#d4af3a"/>
  <path d="M306.44 133.647c1.197.664 1.859.26 2.293-.276.438-.534.518-.777.518-.777s-1.131-.406-1.68-.73c-.55-.0334E83A13" fill="#d4af3a"/>
  <ellipse cx="300.665" rx="2.662" cy="121.86" ry="2.639" fill="#b96b29"/>
  <path d="M305.285 112.716c-1.065-.717-2.63-.43-3.497.639-.864 1.072-.7 2.524.368 3.24 1.065.718 2.632.43 3.498-.639.864-1.068.699-2.52-.369-3.24z" fill="#b96b29"/>
  <ellipse cx="300.56" rx="1.546" cy="121.518" ry="1.474" fill="#d4af3a"/>
  <path d="M304.175 113.007c-.685-.188-1.533.15-1.89.753-.357.605.021 1.248.934 1.434 1.682.344 2.483-1.768.95608107D8A2F" fill="#d4af3a"/>
  <path d="M225.98 349.995c.501-.757.954-.957 2.157-1.509 1.203-.552 3.41-.855 4.161-.906.753-.051 2.458-1.509 0782924A95" fill="#d4af3a"/>
  <path d="M239.21 362.01c-.516-.087-.73-.13-.99.211-.257.347-.472.995-.602 1.337-.128.345-.086.648.217.906.301039A116A8F" fill="#d4af3a"/>
  <path d="M434.93 324.165c-1.258-.298-1.792-.777-1.792-.777s-.539-.06-.962.719c-.414.775-2.031 1.792-2.031 1.70C6CE97A94" fill="#1d5e91"/>
  <path d="M406.325 315.48c1.557.358 14.358 2.811 15.435 3.051 1.079.237 1.974.477 2.274.177.301-.297.478-.477 016EB76AB1" fill="#d4af3a"/>
  <path d="M440.3 323.265c-1.32-.863-2.29-1.09-2.978.516-.688 1.607-.744 3.96-2.463 5.622-1.719 1.663-4.125 3.30D5354EA69" fill="#d4af3a"/>
  <circle cy="311.175" cx="408.905" r="2.334" fill="#b96b29"/>
  <circle cy="312.795" cx="415.475" r="2.392" fill="#b96b29"/>
  <circle cy="316.86" cx="434.63" r="2.394" fill="#b96b29"/>
  <circle cy="314.355" cx="422.06" r="2.394" fill="#b96b29"/>
  <circle cy="308.61" cx="423.8" r="2.394" fill="#b96b29"/>
  <circle cy="302.865" cx="425.48" r="2.394" fill="#b96b29"/>
  <circle cy="310.95" cx="409.07" r="1.165" fill="#d4af3a"/>
  <circle cy="312.555" cx="415.655" r="1.197" fill="#d4af3a"/>
  <circle cy="316.62" cx="434.81" r="1.196" fill="#d4af3a"/>
  <circle cy="314.115" cx="422.24" r="1.196" fill="#d4af3a"/>
  <circle cy="308.37" cx="423.98" r="1.196" fill="#d4af3a"/>
  <circle cy="302.625" cx="425.66" r="1.197" fill="#d4af3a"/>
  <path d="M349.528 359.115c-1.261-.801-2.356-1.689-5.217-3.588-2.86-1.9-3.912-4.01-3.912-4.01h1.01c.547 0 1.01037C4F1A56" fill="#d4af3a"/>
  <path d="M333.193 357.3c1.668-.175 2.666-.805 2.988-2.618.212-1.18-.085-5.697-.085-5.697s.547.464 1.179 1.22603AED1CAB3" fill="#d4af3a"/>
  <path d="M324.913 360.03s1.263-1.6 1.725-3.418c.464-1.814 1.346-5.4 1.346-5.4s.421 1.14 1.431 3.288c1.011 2.1072E427A81" fill="#d4af3a"/>
  <path d="M322.468 372.66c-1.557-2.32-1.81-7.973-1.81-7.973s.546-.379 1.305-1.015c.756-.633 2.229-2.868 2.229-0CC6DF8A67" fill="#d4af3a"/>
  <path d="M340.978 325.335c-.828-1.692-1.764-3.744-2.52-4.785a14.915 14.915 0 0 1-1.294-2.234s2.016 1.836 2.800D96816A29" fill="#b96b29"/>
  <path d="M364.963 169.92c1.272-.747 4.692-2.21 8.334-2.518 3.64-.308 6.453.24 9.474 1.056 2.165.585 3.918.6750015355A63" fill="#c52126"/>
  <path d="M379.648 317.49s.501-.05 1.203-.151c.702-.101 2.207-.603 2.658-.806.452-.2 1.154-.25 1.605.252.452.507DC6E6AFF" fill="#d4af3a"/>
  <path d="M362.563 316.455v-.606l.809-1.742s.943.593 1.863 1.544c1.183 1.228 2.457 2.955 3.025 3.684 1.011 1.209E2032A2C" fill="#d4af3a"/>
  <path d="M344.353 301.965a68.5 68.5 0 0 0 .885-.402c.08.021.153.043.22.078.559.28 3.467 2.238 4.642 4.141 1.10B4444CA9F" fill="#d4af3a"/>
  <path d="M363.418 241.38c1.725-.087 3.965-1.034 5.688-3.537 1.722-2.503 4.31-3.11 8.792-3.024 4.482.087 6.55-0461C91AF5" fill="#d4af3a"/>
  <ellipse cx="-365.939" cy="158.625" ry="1.638" rx="1.788" transform="scale(-1 1)" fill="#d4af3a"/>
  <path d="M369.703 155.535c-1.632-.039-2.509-.811-4.31-.637-2.126.207-5.006 1.446-8.504 3.303-2.735 1.236-6.3407FB5EEAD0" fill="#d4af3a"/>
  <path d="M346.948 201.06s1.083 2.396 1.674 3.249c.591.854.854.987.854.987s-1.083.918-2.66 1.41a35.445 35.445 0BB5723A3F" fill="#d4af3a"/>
  <path d="M334.948 186.96c1.596-1.835 1.755-2.274 1.755-2.274s.558.558.081 1.357c-.478.797-2.752 2.79-4.308 3.05EA3C5A6A" fill="#b96b29"/>
  <path fill="#d4af3a" d="M338.203 142.485l3.975-1.019 2.55 2.036-3.15 1.38z"/>
  <ellipse cx="-330.779" cy="142.074" transform="scale(-1 1)" ry="3.103" rx="3.219" fill="#b96b29"/>
  <ellipse ry="1.855" cy="141.417" rx="1.942" cx="-330.779" transform="scale(-1 1)" fill="#d4af3a"/>
  <path d="M337.498 131.412c-.828.307-1.905.172-1.905.172s-.325-1.427.462-2.123c.788-.693 1.5-1.194 1.962-1.6580C1C423AE5" fill="#d4af3a"/>
  <ellipse ry=".559" cy="132.975" rx=".591" cx="-335.788" transform="scale(-1 1)" fill="#d4af3a"/>
  <path d="M340.183 132.375c.251.348.788.906.788.906s-.654.02-1.193.405c-.538.387-1.231.714-1.866.637-.634-.0790F888E1A02" fill="#d4af3a"/>
  <path d="M337.933 136.134c2.022.181 4.694-2.054 4.694-2.054.249 1.796 1.359 2.727 3.06 3.068l-.156.08s-1.581.0BB9C82A3D" fill="#d4af3a"/>
  <ellipse ry=".504" cy="135.061" rx=".699" cx="-351.314" transform="scale(-1 1)" fill="#d4af3a"/>
  <path d="M349.378 127.297c.561-2.66.467-5.555-2.055-9.244-2.523-3.69-6.91-5.184-6.91-5.184s-.14-.28-1.54-1.77097E5F6A68" fill="#d4af3a"/>
  <path d="M341.338 110.259c-.477-.387-.56-.98-.181-1.319.375-.34 1.066-.3 1.543.09.476.39.56.983.182 1.322-.370BE0E19A16" fill="#d4af3a"/>
  <ellipse ry="1.284" cy="123.163" rx="1.306" cx="-354.839" transform="scale(-1 1)" fill="#d4af3a"/>
  <path d="M326.638 105.025c.678.149 1.932.557 3.809 1.54h-.035c-1.305 0-2.319.833-2.319 1.913 0 1.082 1.187 2.0DFCB68AED" fill="#d4af3a"/>
  <path d="M330.763 109.46c-.735 0-1.404-.662-1.404-1.268 0-.607.572-1.075 1.308-1.075.735 0 1.332.493 1.332 1.043ACC6AE3" fill="#d4af3a"/>
  <path d="M321.373 134.999c.362.558.629.897 1.742.945 1.113.048 2.32-.024 3.046-.752.726-.726 1.233-1.746 1.2307B89CEA31" fill="#d4af3a"/>
  <path d="M333.508 133.647c-1.197.664-1.858.26-2.293-.276-.438-.534-.518-.777-.518-.777s1.131-.406 1.68-.73c.50AD9B0EA44" fill="#d4af3a"/>
  <ellipse ry="2.639" cy="121.86" rx="2.662" cx="-339.284" transform="scale(-1 1)" fill="#b96b29"/>
  <path d="M334.663 112.716c1.065-.717 2.63-.43 3.497.639.864 1.072.7 2.524-.368 3.24-1.065.718-2.632.43-3.498-.639-.864-1.068-.699-2.52.37-3.24z" fill="#b96b29"/>
  <ellipse ry="1.474" cy="121.518" rx="1.546" cx="-339.388" transform="scale(-1 1)" fill="#d4af3a"/>
  <path d="M335.773 113.007c.686-.188 1.533.15 1.89.753.357.605-.02 1.248-.934 1.434-1.682.344-2.483-1.768-.956-2.187z" fill="#d4af3a"/>
</svg>
