<svg xmlns="http://www.w3.org/2000/svg" height="480" width="640" id="flag-icon-css-mt">
  <g fill-rule="evenodd" stroke-width="1pt">
    <path fill="#ce0000" d="M320 0h320v480H320z"/>
    <path fill="#fff" d="M0 0h320v480H0z"/>
  </g>
  <g transform="translate(-12.38 -30.751) scale(1.5986)">
    <path d="M104.824 108.068c0 .81-.918 1.466-2.049 1.466-1.131 0-2.049-.656-2.049-1.466 0-.81.918-1.466 2.049-1.466 1.131 0 2.049.656 2.049 1.466z" fill-rule="evenodd" fill="#f1eeee"/>
    <path d="M40.727 100.98v37.209h37.211c0 6.2 6.202 12.402 12.404 12.402v37.207h37.208v-37.207c6.202 0 12.404-60A97D30AAE" fill-rule="evenodd" fill="#c00"/>
    <path d="M41.969 102.22v34.727H79.18c0 6.2 6.2 12.404 12.402 12.404v37.207h34.73v-37.207c6.202 0 12.402-6.204087A9EDA8B" fill-rule="evenodd" fill="#ffe600"/>
    <path d="M43.209 103.46v32.249h37.208c0 6.2 6.202 12.402 12.404 12.402v37.207h32.248v-37.207c6.202 0 12.404-60B53B41ABD" fill-rule="evenodd" fill="#707070"/>
    <path d="M44.45 104.7v29.766h37.208c0 6.2 6.202 12.404 12.404 12.404v37.207h29.767V146.87c6.202 0 12.404-6.200F01512ACB" fill-rule="evenodd" fill="#a0a0a0"/>
    <g fill-rule="evenodd">
      <path d="M94.37 89.223c2.179 2.18.412 7.48-3.947 11.84s-9.66 6.125-11.84 3.946c-2.18-2.18-.413-7.48 3.946-11.84s9.66-6.126 11.84-3.946z" fill="#d0d0d0"/>
      <path d="M91.74 91.852c2.18 2.18 1.59 6.303-1.316 9.209s-7.03 3.495-9.209 1.315c-2.18-2.18-1.59-6.302 1.316-9.208s7.029-3.495 9.209-1.316z" fill="gray"/>
      <path d="M80.774 98.429l.877-.877 3.508 1.754-1.754-3.508.877-.877 3.508 7.016-7.016-3.508zm5.263-5.262l.877-.877 5.263 5.262-.877.877z" fill="#d0d0d0"/>
    </g>
    <g fill-rule="evenodd">
      <path d="M139.308 105.009c-2.18 2.18-7.481.412-11.84-3.947s-6.127-9.66-3.947-11.84c2.18-2.179 7.48-.412 11.84 3.947s6.126 9.66 3.947 11.84z" fill="#d0d0d0"/>
      <path d="M136.678 102.38c-2.18 2.179-6.303 1.59-9.209-1.316s-3.495-7.03-1.315-9.209c2.18-2.18 6.302-1.59 9.209 1.316s3.495 7.029 1.315 9.208z" fill="gray"/>
      <path d="M130.101 91.414l.877.877-1.754 3.508 3.508-1.754.877.877-7.016 3.508 3.508-7.016zm5.262 5.263l.877.877-5.262 5.262-.877-.877z" fill="#d0d0d0"/>
    </g>
    <g fill-rule="evenodd">
      <path d="M123.52 149.947c-2.179-2.18-.412-7.48 3.947-11.84s9.66-6.125 11.84-3.946c2.18 2.18.413 7.48-3.946 11.84s-9.66 6.126-11.84 3.946z" fill="#d0d0d0"/>
      <path d="M126.15 147.318c-2.18-2.18-1.59-6.303 1.316-9.209s7.03-3.495 9.209-1.315c2.18 2.18 1.59 6.302-1.316 9.208s-7.029 3.495-9.209 1.316z" fill="gray"/>
      <path d="M137.116 140.741l-.877.877-3.508-1.754 1.754 3.508-.877.877-3.508-7.016 7.016 3.508zm-5.263 5.262l-.877.877-5.263-5.262.877-.877z" fill="#d0d0d0"/>
    </g>
    <g fill-rule="evenodd">
      <path d="M78.585 134.157c2.18-2.18 7.481-.412 11.84 3.947s6.127 9.66 3.947 11.84c-2.18 2.179-7.48.412-11.84-3.947s-6.126-9.66-3.947-11.84z" fill="#d0d0d0"/>
      <path d="M81.215 136.787c2.18-2.18 6.303-1.59 9.209 1.315s3.495 7.03 1.315 9.209c-2.18 2.18-6.302 1.59-9.209-1.316s-3.495-7.029-1.315-9.208z" fill="gray"/>
      <path d="M87.792 147.752l-.877-.877 1.754-3.508-3.508 1.754-.877-.877 7.016-3.508-3.508 7.016zm-5.262-5.263l-.877-.877 5.262-5.262.877.877z" fill="#d0d0d0"/>
    </g>
    <path d="M269.29 414.57c0 41.095-34.107 74.409-76.181 74.409s-76.181-33.314-76.181-74.409 34.107-74.409 76.181-74.409 76.181 33.314 76.181 74.409z" transform="matrix(.34191 0 0 .35003 42.921 -25.527)" stroke="#707070" stroke-width="1pt" fill="none"/>
    <path d="M269.29 414.57c0 41.095-34.107 74.409-76.181 74.409s-76.181-33.314-76.181-74.409 34.107-74.409 76.181-74.409 76.181 33.314 76.181 74.409z" transform="matrix(.2605 0 0 .26669 58.641 9.023)" stroke="#707070" stroke-width="1pt" fill="none"/>
    <path d="M100.265 140.667a1.24 1.24 0 1 1-2.481 0 1.24 1.24 0 0 1 2.48 0zm19.845 0a1.24 1.24 0 1 1-2.48 0 1.24 1.24 0 0 1 2.48 0zm-11.99.003v1.293h-1.654c-1.654 0-1.654 1.293 0 1.293h1.654v1.294c.006 1.34 1.443 1.502 1.549.104l.105-1.398h1.654c1.653 0 1.653-1.293 0-1.293h-1.654v-1.293c0-1.293-1.654-1.293-1.654 0z" fill-rule="evenodd" fill="#d0d0d0"/>
    <path d="M102.77 122.35v.733s-.389.561-2.868.733c-2.48.172-2.868 0-2.868 0 .065.64.547 1.852.41 3.3.096 1.685083C241A0F" fill-rule="evenodd" stroke="#707070" stroke-width=".146" fill="#d0d0d0"/>
    <path d="M113.43 121.58c2.412-.111 3.995.258 3.995.258s.954 1.915.915 2.972c-.04 1.057-.368 1.957-.819 1.507-022CBDAABA" fill-rule="evenodd" stroke="#707070" stroke-width=".146" fill="#d0d0d0"/>
    <path d="M105.54 118.4c.034.73-3.166 2.369-3.427 3.017-.26.649.814 1.008.481 1.378-.332.37-.605.233-.673.302-00A80E1ABA" fill-rule="evenodd" stroke="#707070" stroke-width=".146" fill="#d0d0d0"/>
    <path fill-rule="evenodd" fill="#a7a7a7" d="M100.32 109.9h4.917v5.132h-4.917z"/>
    <rect transform="matrix(.55442 .83223 -.88237 .47055 0 0)" fill-rule="evenodd" rx=".445" ry=".199" height=".399" width="30.647" y="-25.672" x="138.6" fill="gray"/>
    <path d="M180.71 42.52a7.087 7.087 0 1 1-14.173 0 7.087 7.087 0 0 1 14.173 0z" fill-rule="evenodd" transform="matrix(.11563 0 0 .10345 80.65 101.47)" stroke="#707070" stroke-width="1pt" fill="#d0d0d0"/>
    <path d="M115.88 112.54c0 .304-1.902.66-4.097.66-2.195 0-4.097-.356-4.097-.66 0-.304 1.902.44 4.097.44 2.195 0 4.097-.744 4.097-.44z" fill-rule="evenodd" fill="gray"/>
    <path fill-rule="evenodd" fill="#a7a7a7" d="M100.73 115.03h4.097v1.466h-4.097z"/>
    <path d="M114.048 111.417c-.397.744-.774 1.275-.841 1.186-.068-.089.199-.764.596-1.508.397-.744.774-1.275.8420DE8E5CA8D" fill-rule="evenodd" fill="gray"/>
    <path d="M114.564 112.414c.333.606.553 1.12.491 1.146-.062.027-.383-.443-.717-1.05-.334-.607-.553-1.12-.491-109061BEA7C" fill-rule="evenodd" fill="gray"/>
    <path d="M95.813 127.96s.676 1.643 3.556 1.666c2.881.022 3.872-.493 2.707-1.363s-3.333-.6-3.053.151c.28.751-.06183CEAF4" fill-rule="evenodd" stroke="gray" stroke-width=".078" fill="#d0d0d0"/>
    <path d="M114.053 125.53a.329.329 0 1 1-.657 0 .329.329 0 0 1 .657 0z" fill-rule="evenodd"/>
    <path d="M129.51 120.77l1.595.344 2.665-1.824-.206.958-1.389.927c-.258.17-.514.326-.767.467.158.221.334.485.50935D72A82" fill="#d0d0d0"/>
  </g>
</svg>
