<svg xmlns="http://www.w3.org/2000/svg" height="480" width="640" id="flag-icon-css-pn">
  <defs>
    <clipPath id="a">
      <path d="M-15-7.5h30v15h-30z"/>
    </clipPath>
  </defs>
  <path d="M0 0h640v480H0z" fill="#00247d"/>
  <g clip-path="url(#a)" transform="translate(320 160) scale(21.33333)">
    <circle r="20" fill="#00247d"/>
    <path d="M-20-10l40 20m-40 0l40-20" stroke="#fff" stroke-width="3"/>
    <path d="M-20-10l40 20m-40 0l40-20" stroke="#cf142b" stroke-width="2"/>
    <path d="M0 0l20 10h-3L-3 0m3 0l20-10h3L3 0M0 0l-20 10h-3L-3 0m3 0l-20-10h3L3 0" fill="#fff"/>
    <path d="M-20 0h40M0-10v20" stroke="#fff" stroke-width="5"/>
    <path d="M-20 0h40M0-10v20" stroke="#cf142b" stroke-width="3"/>
  </g>
  <path d="M409.941 310.379c-9.173 7.765-17.92 19.114-20.053 29.354-6.037 28.843-14.059 35.264-26.453 29.056 0 079FA97A77" fill="#f7e017" stroke="#000" stroke-width=".63"/>
  <path d="M424.213 278.507c-12.629 6.656-35.754 3.797-37.888-12.63-2.133-16.426 13.824-23.829 18.112-25.962 6.034F451A61" fill="#337321" stroke="#000" stroke-width=".63"/>
  <path d="M455.659 263.957c-7.147 19.776-26.688 33.856-35.52 35.99-14.998 3.626-45.59 18.496-53.803 26.133" fill="#f7e017" stroke="#000" stroke-width=".63"/>
  <path d="M409.941 310.379c-11.306 9.6-17.194 33.152-16 49.13.32 4.438 1.579 7.446 3.456 9.28.854-9.045 7.147-0159808A36" fill="#337321" stroke="#000" stroke-width=".63"/>
  <path d="M448.405 254.805c-4.053 6.059-13.226 14.4-22.037 17.75 1.899-2.155 2.496-4.907 2.603-7.168-11.2 4.3005D9334A1F" fill="#316d3a" stroke="#000" stroke-width=".63"/>
  <path d="M362.73 304.704c-18.197 17.067-6.186 31.936.96 35.264-1.92 11.904 9.302 10.475 9.046 20.48 4.544-2.60EB833EA76" fill="#337321" stroke="#000" stroke-width=".63"/>
  <path d="M402.176 413.099c-1.984 1.13-1.835 3.69-.597 5.354 2.496 3.328-1.75 10.88 6.314 12.502 2.39.49 4.224041B546A23" fill="#f7e017" stroke="#000" stroke-width=".63"/>
  <path d="M408.96 427.157c-2.667 1.238-5.013 2.987-3.925 11.542.426 3.562.213 12.16-2.859 12.288 1.899.939 5.904783EFA05" fill="#f7e017" stroke="#000" stroke-width=".63"/>
  <path d="M367.68 186.219c1.216-1.792 2.56-3.456 4.053-4.907m41.28 36.437c2.134-1.194 5.312-1.344 8.854-1.109m-12.054 234.09c-.853-1.173-1.13-6.186-.554-9.215m7.21 7.808" stroke-width=".64" fill="none" stroke="#000"/>
  <path d="M534.997 304.939c29.312 24.533 31.211 44.074 26.688 55.509-2.389-10.71-14.528-27.392-27.157-31.68l.47-23.83z" fill="#f7e017" stroke="#000" stroke-width=".63"/>
  <path d="M482.581 291.136h54.336v64.32c0 54.784-30.506 87.19-61.482 104.341-30.976-17.13-61.462-49.557-61.4620627F0CA4B" fill="#337321" stroke="#000" stroke-width=".63"/>
  <path d="M536.896 291.136v64.32c0 16.533-2.773 31.04-7.51 43.69l-53.93-98.986-53.952 98.987" fill="#006ec7" stroke="#000" stroke-width=".63"/>
  <g fill="#f7e017" stroke="#000" stroke-width=".64">
    <path d="M499.968 429.653c1.43.726 4.053 2.048 5.248 2.518 2.859-5.718 3.35-13.803 2.39-20.971-3.094 7.893-130828799A4B"/>
    <path d="M475.435 387.136c4.053 0 16.917-1.323 21.546-1.323 1.216 0 2.219-1.792 2.219-4.032s-1.003-4.053-2.197-4.053c-4.651 0-17.515-1.301-21.547-1.301s-16.939 1.301-21.59 1.301c-1.194 0-2.175 1.813-2.175 4.053s.981 4.054 2.176 4.054c4.65 0 17.514 1.301 21.568 1.301zm-2.603-20.928"/>
    <path d="M453.888 385.813c1.216 0 2.197-1.792 2.197-4.032s-.981-4.053-2.197-4.053"/>
    <path d="M455.68 385.813c1.216 0 2.197-1.792 2.197-4.032s-.981-4.053-2.197-4.053m11.755 8.917c1.472 0 2.645-2.176 2.645-4.864 0-2.688-1.173-4.885-2.645-4.885m2.752 9.984c1.514 0 2.773-2.283 2.773-5.12 0-2.795-1.259-5.077-2.773-5.077m9.152 10.24c1.536 0 2.773-2.304 2.773-5.142 0-2.858-1.237-5.162-2.773-5.162m2.88 10.154c1.514 0 2.773-2.24 2.773-4.992 0-2.773-1.259-4.992-2.773-4.992m12.778 9.131c1.216 0 2.219-1.856 2.219-4.139 0-2.282-1.003-4.117-2.219-4.117m-46.144 49.493a18.133 18.133 0 0 1 5.12-2.133m43.392 2.603l-1.408-1.003m4.011 3.03c3.328-3.563 6.123-7.617 7.637-12.246"/>
  </g>
  <g stroke="#000" stroke-width=".64">
    <path d="M464.533 336.597c0-1.152.939-1.664 2.07-2.496 1.322-1.002 1.877-1.493 3.093-1.493h15.637c1.152 0 1.43.299 1.43 1.365v21.27c0 1.066-.278 1.365-1.43 1.365h-20.8v-20.181" fill="#fff"/>
    <path d="M481.472 358.464c2.048 0 1.685-.043 3.115-1.493 1.493-1.494 1.365-1.366 1.365-2.752v-19.435c0-1.003-07FC80AA8D" fill="#e5e5e5"/>
    <path d="M482.987 358.016c0 1.067-.256 1.365-1.43 1.365H465.92c-1.152 0-1.408-.298-1.408-1.365v-21.27c0-1.0660CABCF5A62" fill="#fff"/>
  </g>
  <path d="M513.323 278.677c3.05 3.392 4.053 7.958 2.389 12.438h-4.523c1.899-5.718.704-11.179-7.402-11.904-12.096-1.067-26.198 22.4-47.403 25.258-6.187-7.381-5.867-21.461 2.005-28.117-4.053-11.733-12.65-24.619-18.602-30.187" fill="#96877d" stroke="#000" stroke-width=".63"/>
  <path d="M460.459 284.928c-1.046-15.915-7.467-28.97-16.47-37.888 4.267 1.173 13.099 1.173 19.051-3.115 7.872-022AD72AE1"/>
  <path d="M511.19 291.115c1.898-5.718.703-11.179-7.382-11.904-6.293-.555-13.099 5.546-21.163 11.904h28.544zm-52.651-51.328" stroke-width=".64" fill="#96877d" stroke="#000"/>
  <path d="M458.39 276.352c1.322 3.797 2.175 7.467 2.303 10.73m-13.12-58.24c-2.133 3.137-4.032 6.529-4.65 9.387 4.053 1.323 12.032 2.027 15.616 1.558" fill="none" stroke="#000" stroke-width=".63"/>
  <path d="M439.787 246.165c1.536.256 2.986.555 4.202.875 4.288 1.195 13.099 1.195 19.072-3.093 5.974-4.288 22.144-17.6 40.491-19.05" fill="none" stroke="#000" stroke-width=".63"/>
  <path d="M435.05 242.048c5.718 1.195 17.515 1.792 23.467-2.261 13.824-9.408 27.158-14.891 40.491-15.616" fill="none" stroke="#000" stroke-width=".63"/>
  <path d="M534.997 304.939c20.011 13.824 34.774 27.157 39.083 48.618 4.267 21.44 12.373 27.158 22.4 21.44-2.3900FAA33A44" fill="#337321" stroke="#000" stroke-width=".63"/>
  <path d="M541.91 278.976c13.823 9.045 29.44 9.045 43.84-7.616 4.522-5.248 11.669-9.77 16.682-10.24 4.992-.4910308CC6A09" fill="#f7e017" stroke="#000" stroke-width=".63"/>
  <path d="M544.725 452.672c.982-1.28 1.536-6.87 1.003-10.283m-8.384 8.427a15.744 15.744 0 0 0 5.056-8.192m-9.963 4.245c1.878-.789 6.635-6.464 7.787-10.218m-12.203 3.776c2.219-.363 9.11-4.48 12.075-9.046" stroke-width=".64" fill="none" stroke="#000"/>
  <path d="M506.176 250.624c-.405 24.427 9.75 36.779 23.808 44.821-5.227-3.136-2.965-13.866-10.005-17.301 1.68500BC9F3A50" fill="#f7e017" stroke="#000" stroke-width=".63"/>
  <path d="M486.997 150.677c-.085-2.133 3.627-4.928 8.64-4.885 6.016.064 10.667 5.547 15.467 5.013 4.8-.533 2.40A167A9AEC" fill="#cf142b" stroke="#000" stroke-width=".64"/>
  <path d="M462.464 206.912c-2.39-7.51-11.435-15.723-15.85-17.643l-.235-4.053c2.389-.939 8.106-5.461 10.73-7.9708612F1AF0" fill="#96877d" stroke="#000" stroke-width=".64"/>
  <path d="M463.403 204.288c-1.6-8.875.96-18.71 5.482-21.675 9.899 6.55 26.816 6.55 36.822-.597" fill="none" stroke="#000" stroke-width=".64"/>
  <path d="M463.403 199.637c7.637-.213 24.192 1.067 28.245 1.664 4.053.598 10.837 2.262 9.877 4.288m-34.602-7.20FF3BF4A29" fill="none" stroke="#000" stroke-width=".64"/>
  <path d="M472.107 154.027c-2.731-3.84-10.283-5.035-11.904.106-.726 2.262-1.792 4.651-3.584 5.718-1.771 1.066-0CA670CAC7" fill="#337321" stroke="#000" stroke-width=".64"/>
  <path d="M454.933 188.33h.96v6.507c.214.064.427.171.576.299l5.611-3.243.49.854-5.631 3.242a1.707 1.707 0 0 1 0 .64l5.632 3.264-.491.811-5.632-3.243" fill="#96877d" stroke="#000" stroke-width=".64"/>
  <path d="M450.667 215.019c-.704-.854-2.027-3.115-1.92-4.779a6.187 6.187 0 0 1 4.053 1.557c-.107-1.194-.576-3.818-.341-5.013 1.301.49 4.053 2.027 4.992 3.819" fill="#337321" stroke="#000" stroke-width=".64"/>
  <path d="M490.539 151.893c-.043-.853 1.92-2.858 5.418-2.837 4.203.021 8.107 3.115 11.478 2.901 3.37-.213 1.700508E4FAA3" fill="#f7e017"/>
  <g stroke="#000" stroke-width=".64">
    <path d="M454.357 222.165c-3.562 4.267-7.146 3.563-7.85.832-.726-2.752 1.92-4.053.938-6.442-.938-2.39 1.558-30CEEF6FAF8" fill="#f7e017"/>
    <path d="M456.661 215.317c-.533-1.194 3.051-3.584 5.483-1.792 2.453 1.792 5.824-1.557 7.253 1.664 2.923 6.486 3.115 6.976 2.219 8.214-.896 1.258-4.693.768-5.653-.939-.192 1.173-3.478.981-5.184.043-1.963-1.067-3.35-5.056-4.118-7.19zm25.088.278c-.853-1.835 4.758-3.435 7.19-.214 1.258-1.152 3.989-1.216 5.546 2.304 1.558 3.52 1.792 5.483.64 6.379-.789.64-3.669 1.13-4.629-.47-1.323.833-5.355.107-6.25-2.133-.897-2.282-1.665-4.266-2.497-5.866zm23.702 3.52c-.107-1.664 2.922-2.432 4.053 0 1.13 2.432 4.757.256 5.077 4.288.043.768-.426 3.754-1.557 5.184-1.13 1.429-6.677 0-7.04-3.03" fill="#337321"/>
    <path d="M454.357 222.165c-1.301-1.792-3.093-4.65-5.354-1.557m16.981 1.835" fill="none"/>
  </g>
</svg>
