<svg xmlns="http://www.w3.org/2000/svg" height="480" width="640" id="flag-icon-css-sa">
  <defs>
    <clipPath id="a">
      <path fill-opacity=".67" d="M-85.333 0h682.67v512h-682.67z"/>
    </clipPath>
  </defs>
  <g clip-path="url(#a)" fill-rule="evenodd" transform="translate(80) scale(.9375)">
    <path fill="#199d00" d="M-128 0h768v512h-768z"/>
    <path d="M65.54 145.13c-.887 11.961-1.95 33.011 8.213 35.17 12.293 1.182 5.514-20.806 9.964-24.793.841-1.97 2038CCF7A69" fill="#fff"/>
    <path d="M98.944 194.21c-10.848 5.303-21.339 10.25-32.01 15.375.39-7.256 15.219-20.354 25.331-20.538 6.582.184 4.928 2.55 6.679 5.164z" fill="#fff"/>
    <path d="M93.352 204.24c-16.87 43.487 39.505 49.546 45.805 1.781.593-1.96 2.97-3.92 3.386-.713-1.307 43.248-40999602A52" fill="#fff"/>
    <path d="M164.91 160.03c3.386-1.248 19.429-19.604 19.429-19.604-.833-.713-1.576-1.248-2.408-1.961-.892-.772-.004A87FA1E" fill="#fff"/>
    <path d="M299.59 251.54c-1.144 1.284 2.824 6.776 7.98 6.77 8.624-1 16.215-5.844 23.244-18.595 1.88-2.974 5.180C34A37A23" fill="#fff"/>
    <path d="M420.72 223.66c-.071-7.233.102-13.479-.136-18.873-.238-5.395-1.191-9.788-3.058-13.617-1.767-4.106-.605A4F45AFB" fill="#fff"/>
    <path d="M433.97 215.94c-6.863-11.515-17.219-23.987-19.986-28.624-2.766-4.638-26.166-34.83-29.148-37.86-8.56-0E29262A95" fill="#fff"/>
    <path d="M122.59 194.69c-.494.866-1.594 1.988-1.225 3.149.77 1.044 1.386 1.256 2.67 1.313 1.114 0 2.67.263 3.00D504FA04" fill="#1ba400"/>
    <path d="M354.17 362.54c9.178.338 15.185.419 23.348 1.39 0 0 7.04-.695 9.553-1.075 10.626-1.014 11.096 15.17605A7827A49" fill="#fff"/>
    <path d="M207.45 174.1c2.837-2.01 1.511-3.414 5.754.828 5.312 9.082 8.727 20.845 9.239 31.266-.224 2.568 1.5807CF2BEAA7" fill="#fff"/>
    <path d="M235.11 187.73c4.212 2.009 14.238.853 11.796-5.638 0-.6-.153-2.633-.213-3.183-.86-2.002-3.205-1.507-020F1A9AE2" fill="#fff"/>
    <path d="M356.55 224.96c.794-9.179-.546-14.776-.784-20.171s-6.102-46.559-7.291-50.641c-1.435-7.718 5.7-1.035 03AA678A87" fill="#fff"/>
    <path d="M244.86 218.17c4.247.27 6.37 3.602 2.391 5-3.924 1.343-7.695 2.393-7.713 8.064 1.452 7.902-1.99 5.190A36943A56" fill="#1b9d00"/>
    <path d="M77.399 124.39c4.855 1.464 5.142 8.6 4.784 10.686-.647 3.808-2.367 7.92-3.602 7.384-1.344-.478-.053-0B9C38CAA7" fill="#fff"/>
    <path d="M268.117 189.743c-.535.925-2.344.88-4.04-.1s-2.638-2.527-2.103-3.453 2.344-.88 4.04.102 2.638 2.526 0F30AF9A1B" fill="#259f00"/>
    <path d="M355.24 374.97c9.351.456 18.137.106 27.488.563 1.694 1.44.484 4.975-.645 4.722-3.04-.077-4.792-.152-07F76A2A60" fill="#209000"/>
  </g>
</svg>
