<svg xmlns="http://www.w3.org/2000/svg" height="480" width="640" id="flag-icon-css-sk">
  <path fill="#ee1c25" d="M0 0h640v480H0z"/>
  <path fill="#0b4ea2" d="M0 0h640v320H0z"/>
  <path fill="#fff" d="M0 0h640v160H0z"/>
  <path d="M233.004 370.8c-43.025-20.724-104.568-61.858-104.568-143.226 0-81.37 3.89-118.374 3.89-118.374h201.307EE9A8A23" fill="#fff"/>
  <path d="M233.004 360c-39.472-19.013-95.934-56.75-95.934-131.4 0-74.651 3.57-108.6 3.57-108.6h184.73s3.57 33.03E2504A11" fill="#ee1c25"/>
  <path d="M241.446 209.027c10.688.173 31.54.591 50.109-5.622 0 0-.49 6.645-.49 14.385 0 7.742.49 14.386.49 14.0215F1DADB" fill="#fff"/>
  <path d="M233 263.275c-19.878 0-30.525 27.575-30.525 27.575s-5.907-13.075-22.125-13.075c-10.973 0-19.06 9.7610F71E80A97" fill="#0b4ea2"/>
</svg>
