<svg xmlns="http://www.w3.org/2000/svg" height="480" width="640" id="flag-icon-css-sm">
  <g fill-rule="evenodd" stroke-width="1pt">
    <path fill="#19b6ef" d="M0 240h640v240H0z"/>
    <path fill="#fff" d="M0 0h640v240H0z"/>
  </g>
  <path d="M317.07 339.221c52.45-39.239 108.96-119.306 42.74-161.41-12.336-2.388-26.107-1.672-32.713 3.582-3.500321578A9E" fill-rule="evenodd" stroke="#7d6c00" stroke-width="2.369" fill="#fd0"/>
  <g stroke="#3a9d4f">
    <path stroke-linejoin="round" d="M414.08 250.106s5.903-7.939 6.106-7.939c5.904-3.46 6.515-7.938 6.515-7.938 5.903-1.833 4.07-6.718 4.09855CFA3C" fill-rule="evenodd" stroke-width="2.369" fill="#4fd46b"/>
    <path stroke-linejoin="round" d="M404.502 266.397c-4.14-3.122-6.446-6.853-5.7-10.586-2.713-3.664-4.614-5.903-2.035-9.16 0 0-2.036-7.300A31FCA55" fill-rule="evenodd" stroke-width="2.369" fill="#4fd46b"/>
    <path stroke-linejoin="round" d="M411.831 236.064c-.203-.203-6.92-8.753-5.089-9.364-.406-2.647-2.441-5.497-1.22-8.142-3.325-3.325-3.30B0E9CDA47" fill-rule="evenodd" stroke-width="2.369" fill="#4fd46b"/>
    <path stroke-linejoin="round" d="M410.815 193.106l-5.7-5.7c1.473-3.02 2.659-8.344-1.627-10.789-2.364-5.757-14.182-12.892-16.083.815-10E94823A85" fill-rule="evenodd" stroke-width="2.369" fill="#4fd46b"/>
    <path d="M414.28 246.508c.288-.288 10.938-24.757 12.378-32.243M415.43 203.05s1.726 19.864-3.167 34.545m-29.648-54.7s21.879 21.015 23.893 29.651m-8.635-31.95s1.439 17.274 7.484 34.259m31.093 28.488s-21.879 18.425-32.53 34.545m11.792 29.952s-28.788 4.03-41.454 4.318m31.96 8.057s-35.698-.864-38.29-3.454m20.433-42.902c0 .287-18.136 30.226-18.712 40.015" stroke-linecap="round" stroke-width="2.22" fill="none"/>
  </g>
  <path d="M316.87 333.441c-37.768-35.624-76.454-102.482-37.972-136.27 6.84 3.88 14.903.409 26.03-3.98 3.368 3.0AA9489AAD" fill-rule="evenodd" stroke="#7d6c00" stroke-width="2.369" fill="#65c7ff"/>
  <path d="M317.086 332.408c-16.219-16.307-31.017-34.385-42.347-57.66 1.939-1.632 2.84-2.138 3.861-4.997 5.818.041B92CA0F" fill-rule="evenodd" fill="#8fc753"/>
  <path d="M272.65 164.304a3.346 3.346 0 1 1-6.692 0 3.346 3.346 0 0 1 6.692 0zm-3.492-7.71a3.346 3.346 0 1 1-6.691 0 3.346 3.346 0 0 1 6.691 0zm-4.073-7.129a3.346 3.346 0 1 1-6.692 0 3.346 3.346 0 0 1 6.692 0zm-2.764-6.983a3.346 3.346 0 1 1-6.692 0 3.346 3.346 0 0 1 6.692 0zm.436-7.564a3.346 3.346 0 1 1-6.691 0 3.346 3.346 0 0 1 6.691 0zm17.663-12.511a3.346 3.346 0 1 1-6.692 0 3.346 3.346 0 0 1 6.692 0z" fill-rule="evenodd" stroke="#000" stroke-width="1.111" fill="#fff"/>
  <path d="M273.814 123.571a3.346 3.346 0 1 1-6.692 0 3.346 3.346 0 0 1 6.692 0zm-7.274 4.364a3.346 3.346 0 1 1-6.692 0 3.346 3.346 0 0 1 6.692 0zm22.403-5.383a3.346 3.346 0 1 1-6.692 0 3.346 3.346 0 0 1 6.692 0zm9.311.728a3.346 3.346 0 1 1-6.692 0 3.346 3.346 0 0 1 6.692 0zm8.292-.437a3.346 3.346 0 1 1-6.692 0 3.346 3.346 0 0 1 6.692 0z" fill-rule="evenodd" stroke="#000" stroke-width="1.111" fill="#fff"/>
  <path d="M325.874 117.504a8.583 8.583 0 1 1-17.166 0 8.583 8.583 0 0 1 17.166 0z" fill-rule="evenodd" stroke="#7d6c00" stroke-width="1.111" fill="#fd0"/>
  <path d="M334.913 122.698a3.346 3.346 0 1 1-6.692 0 3.346 3.346 0 0 1 6.692 0zm8.729.727a3.346 3.346 0 1 1-6.691 0 3.346 3.346 0 0 1 6.691 0zm8.438-.437a3.346 3.346 0 1 1-6.693 0 3.346 3.346 0 0 1 6.692 0zm7.127-.29a3.346 3.346 0 1 1-6.692 0 3.346 3.346 0 0 1 6.692 0zm8.875 1.018a3.346 3.346 0 1 1-6.692 0 3.346 3.346 0 0 1 6.692 0zm6.982 4.364a3.346 3.346 0 1 1-6.692 0 3.346 3.346 0 0 1 6.692 0z" fill-rule="evenodd" stroke="#000" stroke-width="1.111" fill="#fff"/>
  <path d="M269.414 151.697c2.85 5.42 5.698 11.05 8.548 16.47h79.23l9.174-15.846c-5.352-3.683-9.035-6.533-16.6808C8EA0A23" fill-rule="evenodd" stroke="#ac0000" stroke-width="2.369" fill="#e40000"/>
  <path d="M377.974 135.354a3.346 3.346 0 1 1-6.692 0 3.346 3.346 0 0 1 6.692 0zm.582 7.856a3.346 3.346 0 1 1-6.692 0 3.346 3.346 0 0 1 6.692 0zm-2.474 7.274a3.346 3.346 0 1 1-6.692 0 3.346 3.346 0 0 1 6.692 0zm-3.055 5.964a3.346 3.346 0 1 1-6.692 0 3.346 3.346 0 0 1 6.692 0zm-3.637 7.565a3.346 3.346 0 1 1-6.69 0 3.346 3.346 0 0 1 6.69 0zM322.566 154.424a4.946 4.946 0 1 1-9.893 0 4.946 4.946 0 0 1 9.893 0z" fill-rule="evenodd" stroke="#000" stroke-width="1.111" fill="#fff"/>
  <path d="M323.546 143.045a5.964 5.964 0 1 1-11.93 0 5.964 5.964 0 0 1 11.93 0z" fill-rule="evenodd" stroke="#000" stroke-width="1.111" fill="#fff"/>
  <path d="M322.685 131.995a5.383 5.383 0 1 1-10.765 0 5.383 5.383 0 0 1 10.765 0z" fill-rule="evenodd" stroke="#000" stroke-width="1.109" fill="#fff"/>
  <path d="M315.487 109.055c0-.926-.028-4.165.037-4.295l-3.572-.064.102-3.175 3.1-.037.037-2.775h4.395v2.544h3.47l-.072 3.378-3.6-.037-.03 4.526-3.867-.065z" fill-rule="evenodd" stroke="#7d6c00" stroke-width="1.111" fill="#fd0"/>
  <path d="M277.56 168.17c-7.092-12.023-17.51-28.367-11.053-35.444 8.955-10.143 29.953-.973 43.367-6.881.972 110F9A164AF5" stroke="#fd0" stroke-width="3.331" fill="none"/>
  <path d="M277.343 177.132c28.495-2.918 54.904-1.877 79.23 0l3.127-8.967c-27.66-5.003-46.773-5.628-82.982-.624l.625 9.59z" fill-rule="evenodd" stroke="#7d6c00" stroke-width="2.369" fill="#fd0"/>
  <path d="M314.121 329.377c.205-1.43.408-2.762.613-4.191 2.834.763 4.996.468 7.35-.402.815-1.225 1.633-2.45 2.016E693A32" fill-rule="evenodd" fill="#c76e2e"/>
  <path d="M300.779 366.089c7.066-11.472 56.259-34.508 102.422-84.251-46.99 45.243-76.357 56.35-114.812 83.974l12.39.277z" fill-rule="evenodd" stroke="#e9bf00" stroke-width="2.369" fill="#ffe100"/>
  <path d="M368.406 313.186a3.582 3.582 0 1 1-7.163 0 3.582 3.582 0 0 1 7.163 0zm34.38-34.863a4.06 4.06 0 1 1-8.118 0 4.06 4.06 0 0 1 8.118 0zm11.466-29.61a3.582 3.582 0 1 1-7.163 0 3.582 3.582 0 0 1 7.163 0zM403.02 210.28a3.582 3.582 0 1 1-7.164 0 3.582 3.582 0 0 1 7.164 0z" fill-rule="evenodd" stroke="#68300e" stroke-width="1.111" fill="#9d4916"/>
  <path d="M279.125 269.595v-15.148l-1.54-1.283v-3.594l2.824-.257.513-16.945-1.797-1.028-.257-2.823s2.054.77 2.042B293AA0" fill-rule="evenodd" stroke="#a9a9a9" stroke-width="1.111" fill="#fff"/>
  <path fill-rule="evenodd" d="M282.923 269.495v-11.938h6.686v12.416l-6.686-.478zm31.515.949l.238-12.178h5.97v11.938l-6.208.24zm31.01D909EAD8"/>
  <path d="M286.57 206.965c4.108 4.62 4.365 4.62 4.365 4.62m26.185-4.62c.769 1.539 2.053 4.877 3.594 5.133m29.27-4.368s1.284 3.595 3.081 4.108" stroke="#a8a8a8" stroke-width="1.111" fill="none"/>
  <path d="M282.206 194.022c12.012-3.883-2.806-11.648-5.267 0-3.886.628-4.389 3.511-12.789 2.259-20.313 33.102-0420D80AE2" fill-rule="evenodd" fill="#b97700"/>
  <path d="M285.554 177.049s9.781 2.633 9.781 6.77m-.003-7.52s6.771 3.008 8.275 5.642m45.144-4.509s-8.653 1.129-10.534 3.76m-2.642-3.011s-4.888 4.138-4.514 5.265m3.399 12.791c-.753-.376-4.138-4.89-3.387-10.533m-29.728 7.536s2.257-2.634 2.257-7.525m13.551-1.887l.376 10.909m9.401-1.497c0-.754 3.01-7.9-.376-11.286m-20.312-1.507s-2.633 7.147-.75 13.165m19.939-6.769s-4.137 1.128-6.02 3.01m-11.669-1.894c0-.375 4.514-1.128 6.018 1.506" stroke="#7d6c00" stroke-width="2.369" fill="none"/>
  <path d="M300.63 301.86c.19.096 3.745-.674 3.745-2.403 1.826-1.152.48-4.419.48-4.419l-3.361-.673-4.613-5.187c01C8C89A04" fill-rule="evenodd" fill="#c76e2e"/>
  <path d="M353.115 193.19c-12.011-3.884 2.807-11.65 5.267 0 3.886.627 4.39 3.51 12.79 2.258 20.313 33.102 5.2606BA8AEAD2" fill-rule="evenodd" fill="#b97700"/>
  <path d="M354.331 284.67c-.191 0-3.073 2.112-3.073 2.112-1.378.544-2.753 1.089-4.13 1.634l-4.42.095-.961-3.070C11F16AC8" fill-rule="evenodd" fill="#c76e2e"/>
  <path stroke-linejoin="round" d="M266.366 317.4c-14.817-12.887-34.809-19.991-62.716-10.35 7.51 3.248 15.628 4.364 22.529 7.915l40.187 2.435z" fill-rule="evenodd" stroke="#004100" stroke-width="2.369" fill="#006800"/>
  <path d="M223.44 308.256c29.227.608 37.752 7.913 36.23 6.696" stroke="#00a400" stroke-linecap="round" stroke-width="2.22" fill="none"/>
  <path stroke-linejoin="round" d="M266.965 318.916c-8.728 1.724-20.804 10.154-24.356 9.741-9.54-1.11-18.454-4.975-27.704-7.915-3.842-100BC622AB5" fill-rule="evenodd" stroke="#004100" stroke-width="2.22" fill="#006800"/>
  <path stroke-linejoin="round" d="M245.361 296.08s-10.959 1.52-15.83 1.825c-4.873-.303-11.955-4.842-19.79-13.09-4.088-4.48-13.395-3.950F61ECFA4B" fill-rule="evenodd" stroke="#004100" stroke-width="2.369" fill="#006800"/>
  <path stroke-linejoin="round" d="M222.225 184.96c11.06 16.136 9.336 31.36 7.61 50.54-.305-1.523-3.958-10.96-4.26-10.96-16.441-10.351-5.48-29.534-3.35-39.58z" fill-rule="evenodd" stroke="#004100" stroke-width="2.369" fill="#006800"/>
  <path stroke-linejoin="round" d="M231.353 209.93c26.79-13.498 16.438-30.648 21.31-43.84-18.57 13.802-21.006 28.515-21.31 43.84z" fill-rule="evenodd" stroke="#004100" stroke-width="2.369" fill="#006800"/>
  <path d="M235 206.581c3.35-9.437 10.048-25.573 10.656-25.573m-18.568 45.362c-.608-6.7-3.956-24.662-4.26-26.488" stroke="#00a400" stroke-linecap="round" stroke-width="2.22" fill="none"/>
  <path stroke-linejoin="round" d="M228.304 256.502c-14.92-.914-31.055-21.31-35.316-37.141-.001.201 5.479 3.45 4.566 4.262 21.412 9.5380214D8AACA" fill-rule="evenodd" stroke="#004100" stroke-width="2.369" fill="#006800"/>
  <path d="M235 211.445c11.266-11.265 15.223-20.703 15.223-20.703" stroke="#00a400" stroke-linecap="round" stroke-width="2.22" fill="none"/>
  <g fill-rule="evenodd">
    <path d="M333.56 366.355l13.49.275c-44.787-41.942-130.599-60.205-118.667-137.39-12.298 83.701 70.117 91.41 105.177 137.115z" stroke="#e9bf00" stroke-width="2.369" fill="#ffe100"/>
    <path d="M235.417 212.661a4.298 4.298 0 1 1-8.596 0 4.298 4.298 0 0 1 8.596 0zm-2.632 23.636a4.06 4.06 0 1 1-8.118 0 4.06 4.06 0 0 1 8.118 0zm3.815 33.681a3.582 3.582 0 1 1-7.164 0 3.582 3.582 0 0 1 7.164 0zm31.276 37.245a3.582 3.582 0 1 1-7.163 0 3.582 3.582 0 0 1 7.163 0zm4.536 10.684a3.582 3.582 0 1 1-7.163 0 3.582 3.582 0 0 1 7.163 0z" stroke="#68300e" stroke-width="1.111" fill="#9d4916"/>
  </g>
  <g fill-rule="evenodd" fill="#fff">
    <g stroke="#000" stroke-width="1.111">
      <path d="M288.203 349.032c-2.355-2.134-3.853-3.503-4.777-5.828l-14.044-1.528c-.063 2.675-.126 5.349-.191 8.024l19.012-.668z"/>
      <path stroke-linejoin="round" d="M185.313 339.57c8.157 1.507 20.456-.752 24.472 4.518 4.822 5.465-15.093 13.872-12.241 18.6 6.16 6.510C3706AAAD"/>
      <path d="M184.732 337.954a3.63 3.63 0 1 1-7.26 0 3.63 3.63 0 0 1 7.26 0zm-.952 17.957a3.63 3.63 0 1 1-7.26 0 3.63 3.63 0 0 1 7.26 0z"/>
    </g>
    <g stroke="#000" stroke-width="1.111">
      <path d="M346.253 349.097c2.355-2.134 3.852-3.503 4.777-5.828l14.043-1.528.192 8.024-19.012-.668z"/>
      <path stroke-linejoin="round" d="M449.143 339.636c-8.157 1.506-20.457-.753-24.473 4.517-4.822 5.465 15.093 13.872 12.242 18.6-6.16 6.092252EA8F"/>
      <path d="M449.723 338.02a3.63 3.63 0 1 0 7.261 0 3.63 3.63 0 0 0-7.26 0zm.952 17.956a3.63 3.63 0 1 0 7.26 0 3.63 3.63 0 0 0-7.26 0z"/>
    </g>
    <path d="M316.986 329.343c-3.231-.606-4.38-.433-6.57-.65-1.715 5.271-3.427 10.541-5.141 15.812 7.938.716 15.20B0A5D7AB7"/>
  </g>
  <g font-size="9" font-family="Trebuchet MS" font-weight="bold">
    <text y="344.274" x="448.605" transform="translate(-464.91 -233.28) scale(1.6657)">
      <tspan y="344.274" x="448.605">L</tspan>
    </text>
    <text y="344.622" x="453.64" transform="translate(-464.91 -233.28) scale(1.6657)">
      <tspan y="344.622" x="453.64">I</tspan>
    </text>
    <text y="345.056" x="456.678" transform="translate(-464.91 -233.28) scale(1.6657)">
      <tspan y="345.056" x="456.678">B</tspan>
    </text>
    <text y="345.49" x="462.58" transform="translate(-464.91 -233.28) scale(1.6657)">
      <tspan y="345.49" x="462.58">E</tspan>
    </text>
    <text y="345.576" x="468.309" transform="translate(-464.91 -233.28) scale(1.6657)">
      <tspan y="345.576" x="468.309">R</tspan>
    </text>
    <text y="345.403" x="473.952" transform="translate(-464.91 -233.28) scale(1.6657)">
      <tspan y="345.403" x="473.952">T</tspan>
    </text>
    <text y="344.535" x="479.247" transform="translate(-464.91 -233.28) scale(1.6657)">
      <tspan y="344.535" x="479.247">A</tspan>
    </text>
    <text y="344.274" x="485.497" transform="translate(-464.91 -233.28) scale(1.6657)">
      <tspan y="344.274" x="485.497">S</tspan>
    </text>
  </g>
  <path d="M231.353 318.616c10.047 1.218 24.052.304 30.14-.001m-45.365-34.412c8.525 6.698 27.096 10.654 26.791 10.654m10.654 1.839c-2.74-14.004-5.783-17.353-8.219-26.183M201.82 254.67c14.31 6.393 16.44 10.654 25.573 17.047m5.176-13.999c1.219-17.355 3.654-21.922 7.917-25.88m-38.666-2.12c5.177 5.785 22.225 23.746 22.225 23.746m-7.001-39.587c6.395 4.566 6.395 21.005 6.395 21.005" stroke="#00a400" stroke-linecap="round" stroke-width="2.22" fill="none"/>
</svg>
