<svg xmlns="http://www.w3.org/2000/svg" height="480" width="640" id="flag-icon-css-ug">
  <defs>
    <clipPath id="a">
      <path fill-opacity=".67" d="M-85.333 0h682.67v512h-682.67z"/>
    </clipPath>
  </defs>
  <g clip-path="url(#a)" transform="translate(80) scale(.9375)">
    <path fill-rule="evenodd" fill="#ffe700" d="M-128 341.36h768v85.321h-768z"/>
    <path fill-rule="evenodd" d="M-128 256h768v85.321h-768z"/>
    <path fill-rule="evenodd" fill="#de3908" d="M-128 170.68h768v85.321h-768z"/>
    <path fill-rule="evenodd" fill="#ffe700" d="M-128 85.358h768v85.321h-768z"/>
    <path fill-rule="evenodd" d="M-128 0h768v85.321h-768z"/>
    <path d="M335.71 255.997c0 44.023-35.688 79.71-79.71 79.71s-79.71-35.687-79.71-79.71 35.687-79.71 79.71-79.71 79.71 35.687 79.71 79.71z" fill-rule="evenodd" stroke="#000" stroke-width=".986" fill="#fffdff"/>
    <path d="M241.936 194.89l-5.175-9.531c1.997-1.997 5.356-3.54 10.712-3.54 0 .363-.545 10.44-.545 10.44l-4.992 2.632z" fill-rule="evenodd" stroke="#000" stroke-width=".986" fill="#de3108"/>
    <path d="M246.926 192.354l.727-10.53s10.712-.636 16.522 6.354c.09-.09-5.72 8.17-5.72 8.17l-11.529-3.994z" fill-rule="evenodd" stroke="#000" stroke-width=".986" fill="#ffe700"/>
    <path d="M258.64 196.256l5.265-8.17c3.54 3.723 4.993 6.355 5.538 10.35.09.09-8.352 2.087-8.352 1.996s-2.36-4.085-2.45-4.176z" fill-rule="evenodd" stroke="#000" stroke-width=".986" fill="#de3108"/>
    <path stroke-linejoin="round" d="M244.57 331.153s9.895-11.348 29.14-8.896c-2.905-4.72-12.255-4.176-12.255-4.176s-2.905-22.06-.636-23.0B1F867A21" fill-rule="evenodd" stroke="#000" stroke-linecap="round" stroke-width=".924"/>
    <path stroke-linejoin="round" d="M247.626 214.749s-18.892 20.823-10.741 36.757c.434-2.222.245-3.618.517-3.527-.454-.272 2.343 1.917 20E6F57AAFB" fill-rule="evenodd" stroke="#9ca69c" stroke-linecap="round" stroke-width=".924" fill="#9ca69c"/>
    <path d="M254.19 196.887s1 7.172-2.905 9.26c-.635.454-3.086 1.27-2.723 2.724.454 1.997 1.543 1.633 3.087 1.27 4.084-.726 8.805-9.441 2.541-13.254z" fill-rule="evenodd" stroke="#9ca69c" stroke-width=".986" fill="#9ca69c"/>
    <path d="M247.204 203.063a1.543 1.543 0 1 1-3.087 0 1.543 1.543 0 0 1 3.087 0z" fill-rule="evenodd" fill="#fff"/>
    <path d="M241.118 209.052c-.999.817-6.264 6.264-1.09 8.26 5.357-1.452 3.904-2.45 5.084-3.63.03-2.451-2.663-3.087-3.994-4.63z" fill-rule="evenodd" stroke="#000" stroke-width=".986" fill="#de3108"/>
    <path stroke-linejoin="round" d="M252.554 260.53c-.272 1.18-1.452 5.538.182 8.897 4.54-1.907 6.627-1.362 8.17-.364-3.72-2.995-5.174-4.267-8.352-8.533z" fill-rule="evenodd" stroke="#9ca69c" stroke-linecap="round" stroke-width=".924" fill="#9ca69c"/>
    <path stroke-linejoin="round" d="M260.366 281.137l.272 10.168s3.541.635 5.175 0c1.634-.636-.091-7.081-5.447-10.168z" fill-rule="evenodd" stroke="#fff" stroke-linecap="round" stroke-width=".924" fill="#fff"/>
    <path d="M286.053 282.405s-6.536-15.795-23.24-19.79-14.525-21.787-13.163-22.877c.727-1.543 1.271-3.903 6.082-0C273DDAC9" fill-rule="evenodd" stroke="#000" stroke-width=".986" fill="#9ca69c"/>
    <path stroke-linejoin="round" d="M270.167 262.526c-.272.182 22.332 13.345 15.523 24.693 6.446-4.267 4.358-11.71 4.358-11.71s5.265 13.08D6A89A3E" fill-rule="evenodd" stroke="#000" stroke-width=".924" fill="#de3108"/>
    <path stroke-linejoin="round" d="M271.165 258.624c3.087 2.179 4.175 2.905 4.539 3.995-2.814-.635-5.356-.454-5.356-.454s-6.082-5.81-7.0B4FCD8AAA" fill-rule="evenodd" stroke="#000" stroke-linecap="round" stroke-width=".924" fill="#fff"/>
    <path d="M228.413 209.87s10.53-2.542 11.801-2.18" stroke="#fff" stroke-linecap="round" stroke-width=".924" fill="none"/>
    <path fill-rule="evenodd" fill="#de3908" d="M-128 426.68h768v85.321h-768z"/>
  </g>
</svg>
