<svg xmlns="http://www.w3.org/2000/svg" xmlns:xlink="http://www.w3.org/1999/xlink" height="480" width="640" id="flag-icon-css-un">
  <path fill="#4b92db" fill-rule="evenodd" d="M0 0h640v480H0z"/>
  <g transform="matrix(.6 0 0 .6 -40.65 0)">
    <path d="M663.853 587.03c-2.694 3.08-6.18 5.956-9.466 8.608-21.233-21.943-46.16-46.262-69.854-46.262-14.69 0-0A30BC4A1B" fill="#fff" id="a"/>
    <use height="100%" width="100%" xlink:href="#a" transform="matrix(-1 0 0 1 1202.2 0)"/>
  </g>
  <path d="M409.012 262.008l-2.152-1.175a96.903 96.903 0 0 1-17.836 25.385l-12.575-12.575c6.16-6.35 11.127-13.5016F760A94" fill="#fff"/>
  <path fill="#fff" d="M325.66 195.994l-.597.024.03.715.6-.028zm-1.472-.952h.797v.607h-.797zm-1.438-.212l.7.105.086-.6-.7-.0914D79AD0"/>
  <path d="M276.716 222.57l-1.796-.202.1.708h.5c.796 1.418.1 4.86.1 4.86s-1.197.1-1.398-.507c-.198-.608-.698 1.059B15DA4C" fill="#fff"/>
  <path fill="#fff" d="M276.713 231.178l.6-.105.1-.71-1.5 1.015-.996-.606v2.428l1.598 2.123.597-1.417.202-.91-.7-.3zm.799 60FD7F13AC6"/>
  <ellipse cy="240.996" cx="278.485" rx=".423" ry=".429" fill="#fff"/>
  <ellipse cy="229.431" cx="278.508" rx=".423" ry=".429" fill="#fff"/>
  <path fill="#fff" d="M312.423 214.47l-1.1-.1-.197.506h-.498l-.104.81h.602l.1.607-.4.406-.198.504-.8.205-1.795 1.722-.1.8004AB201AD1"/>
  <path d="M347.528 165.582c-.1-.406-.3-1.823.3-1.722.597.102.2 0 .897.304.698.305.797-.506.797-.506h1.1l1.394 030D065ADA" fill="#fff"/>
  <path d="M320 242.058c.15-.15.3.456.6.38.296-.076.447.532.15.532-.3 0-.3.38-.3.532 0 .152 0 .53-.226.76-.224.0008F76A59" fill="#fff"/>
</svg>
