<svg xmlns="http://www.w3.org/2000/svg" xmlns:xlink="http://www.w3.org/1999/xlink" height="480" width="640" id="flag-icon-css-vi">
  <path fill="#fff" d="M0 0h640v480H0z"/>
  <path d="M204.348 314.932s-.518-3.508 6.144-6.08c6.66-2.573 7.18-12.162 5.847-18.554 0 0-3.48 6.08-7.7 8.107 0518E18ACD" stroke-miterlimit="10" fill="#369443" stroke="#010002" stroke-width="1.506"/>
  <g stroke-miterlimit="10" fill="#f4c53d" stroke="#010002" stroke-width="1.505">
    <path d="M282.21 103.676s-1.624-14.507 9.968-15.902c12.09-1.455 18.06 1.091 18.06 1.091l5.429 10.654-1.875 7.0E06367AE5"/>
    <path d="M363.778 139.586c-1.727 2.234-8.635 3.014-8.635 3.014s7.106 5.457 10.165 13.252c3.06 7.795-82.357.050DEBA2FAC6"/>
    <path d="M310.93 92.217c-9.845-.468-6.07-9.848-6.07-9.848" fill="none"/>
    <path d="M328.028 93.503s-1.74-.818-3.21-2.767c-2.066-2.735-6.672-4.053-9.15-1.48 0 0-2.518 2.805-4.74 2.96 00A87D6BADB"/>
  </g>
  <path d="M202.813 336.456s-.222-6.314 7.772-6.782l23.537 32.74s-.888 2.103-11.547 1.87c0 0-1.128-.008-1.72 1.24-.91 1.914-18.042-29.068-18.042-29.068z" stroke-miterlimit="10" fill="#369443" stroke="#010002" stroke-width="1.506"/>
  <g id="a" transform="translate(3.597 26.17) scale(.15055)" fill="#f4c53d" stroke="#010002" stroke-width="10">
    <path d="M1494.918 1807.886s-49.82 85.606-110.13 86.987c0 0-103.74-12.628-133.073 14.498-20.454 18.916-41.3 3071C6F1AB6"/>
    <path d="M1689.878 923.866s-38.857-29.17-108.163 5.178c0 0-23.333 16.068-41.687-1.536-15.336-14.71-16.775-41.04C707BA6D"/>
    <path d="M2056.524 2282.172s-17.87 78.856-79.975 72.49c0 0-43.922-4.143-40.644-77.323 0 0-64.898 34.518-75.380ED53C5A4B" stroke-miterlimit="10"/>
    <path d="M2085.368 1928.287s-43.265 38.385-74.075-18.915c0 0-41.954-2.07-48.51-33.828 0 0-34.087-3.452-40.642-35.9 0 0-46.542-4.832-45.23-44.183 0 0-84.62-6.53-.028-102.333 84.59-95.802 228.153 158.945 228.153 158.945l-19.667 76.215zm48.275-23.747c41.94 0 89.463 261.995 77.13 419.84-4.48 57.328-35.19 104.152-77.13 104.152s-72.65-46.824-77.13-104.15c-12.333-157.846 35.19-419.843 77.13-419.843"/>
    <ellipse ry="85.951" rx="58.032" cy="1902.468" cx="2133.643"/>
    <path d="M1935.906 2277.34s6.555-138.765 126.824-337.594m-202.21 286.506s-18.683-80.083 150.773-316.88c0 0-19.666-56.612 40.643-92.856m-249.76 343.46s-5.243-86.642 160.607-284.433c0 0-14.65-51.088 45.445-91.82m-254.56 314.81s6.228-87.677 168.472-258.89c0 0-8.117-52.468 50.023-84.916m-278.15 292.72s11.8-100.105 182.895-251.987c0 0-5.9-39.35 51.132-79.393" stroke-miterlimit="10" fill="none"/>
    <path d="M372.257 431.976s134.384 77.806 552.895 155.612M431.91 538.984S795.627 657.63 965.01 672.21m-389.86 0s213.37 66.98 463.238 109.247m-281.17 30.31s241.072 57.905 356.164 67.515m-194.41 46.31s203.908 42.526 255.572 47.64m-125.777 57.297s148.806 22.61 208.03 21.4m-23.17 69.038s60.166-2.826 89.08-7.626m-33.36 104.278s51.132-13.807 81.286-33.138m-5.9 133.242s39.333-15.188 58.343-56.61m37.693 93.545s30.48-27.27 32.448-57.647m81.614 81.464s-11.413-9.845-3.605-52.64m-11.145-62.825s-5.9-12.254-3.933-31.585m-211.082-581.293s68.83 27.615 91.775 65.585c22.944 37.97 7.833 74.873 0 96.047-3.936 10.64-52.443 104.16 4.59 171.816m-95.382 73.525s.33-.345 24.584-7.94m-169.784-91.473s41.026 8.26 81.286 8.63m-137.99-109.77s48.183 4.833 93.414 4.142m-165.194-109.77s69.486 13.808 106.852 14.5m-164.54-132.553s85.7 24.46 149.463 33.138m141.596 50.397s-61.62 57.3 12.455 110.46c0 0-30.81 48.325 30.81 98.722m-16.388 23.82s-9.177 92.154 103.574 92.16c0 0-21.633 82.157 87.186 79.396 0 0 12.455 65.585 91.12 52.468m-173.327 721.441s-17.84 3.97-56.54 0m-108.818 48.326s-54.41-8.286-51.787 109.768m84.565-82.845s-49.165-6.213-45.887 108.388m520.654-384.536s-23.6 4.833-39.988 23.473c-16.39 18.64-47.854 15.188-47.854 15.188s17.044-13.807 22.944-48.326c5.9-34.52 24.91-44.875 24.91-44.875m-56.3-32.688s-23.598 4.833-39.986 23.473c-16.388 18.64-47.854 15.188-47.854 15.188s17.044-13.807 22.944-48.326c5.9-34.52 24.91-44.874 24.91-44.874m23.76 188.537s-20.604 4.22-34.913 20.495c-14.31 16.275-41.783 13.26-41.783 13.26s14.882-12.055 20.033-42.194c5.15-30.14 21.75-39.18 21.75-39.18" fill="none"/>
  </g>
  <use transform="matrix(-1 0 0 1 647.195 0)" xlink:href="#a" width="100%" height="100%" stroke="#010002" stroke-width="10"/>
  <path fill="#0081c6" stroke="#010002" stroke-width="1.505" stroke-miterlimit="10" d="M466.05 255.929l-14.32 61.815-5.908-4.244 13.94-59.222-9.72.178 23.071-42.248 1.538 48.71zm36.97 13.0D66AAFA3F"/>
  <path fill="#0081c6" stroke="#010002" stroke-width="1.505" stroke-miterlimit="10" d="M492.61 242.045l-38.466 73.965-5.928-3.46 38.726-73.813-9.432-2.477 32.668-34.52-10.486 47.47z"/>
  <path d="M444.625 338.57l-2.88 11.78 7.887 7.86-11.15 47.092-9.915-13.32-14.694 6.858 11.15-47.093 10.336-2.88 2.682-11.76s3.127-1.225 6.583 1.464z" fill="#0081c6" stroke="#010002" stroke-width="1.506" stroke-miterlimit="10"/>
  <path d="M447.266 330.802l-5.678 10.594 5.688 9.74-22.342 42.45-6.306-15.57-15.878 2.62 22.343-42.45 10.692.035 5.483-10.627s3.988-.008 5.998 3.21z" fill="#0081c6" stroke="#010002" stroke-width="1.506" stroke-miterlimit="10"/>
  <path d="M448.225 333.883L433.12 353.07l3.463 10.84-30.837 36.068-2.818-16.664-16.03-1.21 30.837-36.068 10.410119D03A16" fill="#0081c6" stroke="#010002" stroke-width="1.506" stroke-miterlimit="10"/>
  <path d="M324.823 309.767s74.102-32.838 74.287-108.803H250.536c.185 75.965 74.287 108.803 74.287 108.803z" fill="#fff" stroke="#010002" stroke-width="1.506"/>
  <g fill="#a60032" stroke="#010002" stroke-width="1.505">
    <path d="M261.96 200.96v48.537s5.675 11.257 11.428 18.317V200.96H261.96zM284.817 200.96v80.01s7.147 7.008 11.0D1A014A81"/>
  </g>
  <path d="M399.11 145.773s-36.36 19.02-74.287-1.56c-37.926 20.58-74.287 1.56-74.287 1.56v55.19H399.11v-55.19z" stroke-miterlimit="10" fill="#162667" stroke="#010002" stroke-width="1.506"/>
</svg>
