<svg xmlns="http://www.w3.org/2000/svg" height="480" width="640" id="flag-icon-css-vu">
  <defs>
    <clipPath id="a">
      <path fill-opacity=".67" d="M0 0h682.67v512H0z"/>
    </clipPath>
  </defs>
  <g clip-path="url(#a)" transform="scale(.9375)">
    <g fill-rule="evenodd">
      <path d="M0 0l347.415 219.424h420.56v73.142h-420.56L0 511.98V-.003z"/>
      <path d="M0 493.705l354.733-226.732h413.242v-21.941H354.733L0 18.29V51.2l332.79 204.789L0 460.789V493.7z" fill="#ff0"/>
      <path d="M0 511.984l354.733-226.732h413.242v226.732H0z" fill="#40aa40"/>
      <path d="M0 0l354.733 226.732h413.242V0H0z" fill="#ce0000"/>
      <path d="M95.806 266.623c1.227.27 1.55.62 2.766-1.162.261-.897 1.023-2.152 1.686-3.264.887-1.456 1.276-2.04 20BE267CA09" fill="#ff0"/>
      <path d="M120.918 267.849c.736-1.195 1.187-1.398.034-3.402-.72-.636-1.568-1.946-2.325-3.096-.984-1.523-1.366-00F244BAAD" fill="#ff0"/>
      <path d="M98.007 314.504c0-5.32-.825-10.639 0-10.639 46.81 0 58.511-31.916 58.511-53.195 0-21.277-16.26-42.55089B146A9E" fill="#ff0"/>
    </g>
  </g>
</svg>
