<svg xmlns="http://www.w3.org/2000/svg" height="480" width="640" id="flag-icon-css-zm">
  <defs>
    <clipPath id="a">
      <path fill-opacity=".67" d="M-170.67 0H512v512h-682.67z"/>
    </clipPath>
  </defs>
  <g fill-rule="evenodd" clip-path="url(#a)" transform="translate(160) scale(.9375)">
    <path fill="#198a00" d="M-256 0h768v512h-768z"/>
    <path fill="#ef7d00" d="M421.87 183.94h90.126v328.03H421.87z"/>
    <path d="M331.85 183.78h90.029v328.1H331.85z"/>
    <path fill="#de2010" d="M239.95 183.98h91.935V512H239.95z"/>
    <g stroke="#000" fill="#ef7d00">
      <path stroke-linejoin="round" d="M451.61 65.59s33.917-14.494 37.204-17.482c1.494 1.793-13.597 20.021-42.881 26.745 26.595-6.276 49.3002291F7AB8" stroke-width=".993"/>
      <path stroke-linejoin="round" d="M394.237 120.271c.149.15 5.08 5.679 9.86 5.38 1.793-1.495-3.735-4.782-3.735-5.529 1.943 1.793 10.16 03D395FA99" stroke-width=".993"/>
      <path stroke-linejoin="round" d="M375.857 74.853s5.528-3.287 27.641-1.644c2.39.299 15.09-4.333 19.125-5.677 6.424-1.196 26.893-5.678 0FE0244AAA" stroke-linecap="round" stroke-width=".993"/>
      <path stroke-linejoin="round" d="M384.723 123.37l.812 14.612s-.437.75-.812 1.186c-.375.437-10.365-1.561-8.992 6.057 0 3.122.063 3.933091AA51AD1" stroke-width=".993"/>
      <path stroke-linejoin="round" d="M398.625 135.82c.05-.67-6.817-9.915-5.075-11.11 1.741.358 4.597 4.563 6.91 3.198-.701-1.639-2.768-.7053A3E7A3D" stroke-linecap="round" stroke-width="1.059"/>
      <path stroke-linejoin="round" d="M305.356 67.72s-3.811 2.879-8.554 2.71c1.185 4.742 11.01 1.1 11.01 1.1s-4.743 5.252-8.131 6.099c2.033 1.693 10.587 1.1 12.027.254 1.44-.847 3.98-4.15 3.98-4.15S306.88 83.896 305.61 83.81c-.17 1.186 9.232.762 11.18-1.016 1.948-1.779 6.86-4.404 6.86-4.404s-12.873 8.977-13.466 8.977c4.827 1.27 14.483-1.524 20.666-5.336-9.148 6.098-9.994 7.2-14.652 9.232 4.15.931 6.267 3.726 20.327-2.372 8.046-3.81 12.619-10.756 12.619-10.756-4.997 6.69-12.874 12.366-21.597 17.955-.509 1.017 9.316 5.166 21.85-7.877" stroke-linecap="round" stroke-width="1.059"/>
      <path d="M373.451 96.006s.847 3.98 4.235 7.03c3.388 3.049 3.642 6.013 3.642 6.013M371.76 70.09s1.185 3.558 4.658 5.845c3.557 2.286 8.894 9.485 9.317 10.756.41 1.538 2.455 12.62 2.286 13.805m-37.859-24.901c.254 1.356-4.998 8.216 2.201 16.262-6.522 7.96-6.52 8.977-6.52 8.977s3.64 2.033 10.163-3.557c10.755 13.213 7.171 19.26 7.171 19.26" stroke-linecap="round" stroke-width="1.059"/>
      <path stroke-linejoin="round" d="M362.32 107.211s-.99-1.42.776-6.72c1.59 1.917 3.36 2.326 4.135 3.101.775.776 8.896 1.952 9.412 7.38" stroke-linecap="round" stroke-width="1.059"/>
      <path d="M371.864 57.462c0-.399-1.635-3.908-7.736.478 3.27.2 6.5 2.074 7.736-.478z" stroke-width="1.059"/>
      <path stroke-linejoin="round" d="M430.094 73.508c.3.15 18.229 4.034 24.205 2.092-7.62 10.16-22.86 3.287-22.86 3.287 7.47 2.24 7.77 2.092 10.16 4.183.747 1.943-13.746 1.046-18.527-1.643 13.298 4.183 13.596 3.884 14.045 5.528.598 2.241-21.814-.598-23.756-3.586 5.976 4.632 9.263 5.528 12.55 7.62-4.034 1.793-11.504 3.586-25.25-6.126 18.078 16.435 34.364 15.39 36.904 18.378-6.275 9.263-30.63-5.528-41.835-13-11.206-7.47 24.503 18.08 27.791 17.63-1.644 2.54-13.447.3-14.195-.896" stroke-width="1.059"/>
      <path d="M434.728 90.69c-2.09.3-8.366.3-9.262.15" stroke-linecap="round" stroke-width="1.059"/>
      <path stroke-linejoin="round" d="M300.105 65.009s13.636 7.199 19.395 6.69c-1.524 1.44-3.812 2.033-3.812 2.033 1.44.593 5.421 2.71 11.435 1.356-1.44 1.44-3.303 3.049-3.303 3.049s5.166 1.948 11.01-1.101c-1.778 2.202-2.795 3.81-2.795 3.81l4.065.255" stroke-linecap="round" stroke-width="1.059"/>
    </g>
  </g>
</svg>
