<svg width="80" height="80" viewBox="0 0 80 80" fill="none" xmlns="http://www.w3.org/2000/svg">
<path d="M65.125 34.7504V34.8754H65.25H72C72.631 34.8754 73.125 35.3694 73.125 36.0004V68.0004C73.125 68.6314 72.631 69.1254 72 69.1254H8C7.36904 69.1254 6.875 68.6314 6.875 68.0004V44.0004C6.875 43.3694 7.36904 42.8754 8 42.8754H14.75H14.875V42.7504V12C14.875 11.369 15.369 10.875 16 10.875H64C64.631 10.875 65.125 11.369 65.125 12V34.7504ZM17.2496 13.1254H17.1246V13.2504V42.7504V42.8754H17.2496H39.4992H39.551L39.5876 42.8387L47.2125 35.2138L47.2127 35.2139L47.2171 35.209C47.4155 34.9886 47.7051 34.8754 47.9992 34.8754H62.7496H62.8746V34.7504V13.2504V13.1254H62.7496H17.2496ZM70.7498 66.8754L70.7497 66.7504H70.8498V37.2504V37.1254H70.7248H48.5H48.4482L48.4116 37.1621L40.7867 44.787L40.7865 44.7869L40.7821 44.7918C40.5837 45.0122 40.2941 45.1254 40 45.1254H9.2496H9.1246V45.2504V66.7504V66.8754H9.2496H70.5998V66.8756L70.725 66.8754L70.7496 66.8754H70.7498Z" fill="white" stroke="white" stroke-width="0.25"/>
<path d="M56 21.1246H24C23.369 21.1246 22.875 20.6306 22.875 19.9996C22.875 19.3687 23.369 18.8746 24 18.8746H56C56.631 18.8746 57.125 19.3687 57.125 19.9996C57.125 20.6306 56.631 21.1246 56 21.1246Z" fill="white" stroke="white" stroke-width="0.25"/>
<path d="M56 26.875C56.631 26.875 57.125 27.369 57.125 28C57.125 28.631 56.631 29.125 56 29.125H24C23.369 29.125 22.875 28.631 22.875 28C22.875 27.369 23.369 26.875 24 26.875H56Z" fill="white" stroke="white" stroke-width="0.25"/>
</svg>
