<svg width="80" height="80" viewBox="0 0 80 80" fill="none" xmlns="http://www.w3.org/2000/svg">
<path d="M39.9994 36.3184C33.5994 36.3184 28.3994 31.1184 28.3994 24.7184C28.3994 18.3184 33.5994 13.04 39.9994 13.04C46.3994 13.04 51.5994 18.24 51.5994 24.64C51.5994 31.04 46.3994 36.3184 39.9994 36.3184ZM39.9994 15.44C34.8807 15.44 30.7994 19.5994 30.7994 24.64C30.7994 29.6807 34.8807 33.9184 39.9994 33.9184C45.1181 33.9184 49.1994 29.7591 49.1994 24.7184C49.1994 19.6809 45.1181 15.44 39.9994 15.44Z" fill="white"/>
<path d="M12.7181 66.0817H67.3589V29.2817L62.8776 32.241L39.9992 47.5194L16.9584 32.641L12.7178 29.9223L12.7181 66.0817ZM19.84 9.11926V31.6785L39.9992 44.6409L60.24 31.1225V9.11926H19.84ZM69.6808 24.8009V68.4825H10.3184V25.5201L17.4371 30.0794L17.4402 6.72021H62.6402V29.6018L69.6808 24.8009Z" fill="white"/>
<path d="M38.5586 30.3185L33.918 25.9185L35.918 23.8403L38.5586 26.4809L44.9586 20.3997L46.8804 22.3997L38.5586 30.3185Z" fill="white"/>
</svg>
