<svg width="9" height="16" viewBox="0 0 9 16" fill="none" xmlns="http://www.w3.org/2000/svg">
<path fill-rule="evenodd" clip-rule="evenodd" d="M8.2231 7.91592C8.20387 7.73194 8.12695 7.5585 8.00195 7.41906L2.46349 1.11906C2.31565 0.906951 2.08247 0.76515 1.82167 0.73116C1.56206 0.697176 1.29884 0.772176 1.0981 0.938583C0.898582 1.10616 0.78081 1.34757 0.775979 1.60422C0.769969 1.85969 0.876939 2.10696 1.06925 2.28156L6.09817 8.00016L1.06925 13.7188C0.876939 13.8934 0.769967 14.1406 0.775979 14.3961C0.780787 14.6527 0.898576 14.8942 1.0981 15.0617C1.29882 15.2281 1.56204 15.3032 1.82167 15.2692C2.08249 15.2352 2.31567 15.0934 2.46349 14.8813L8.00195 8.58127C8.16421 8.39728 8.24474 8.15704 8.2231 7.91563V7.91592Z" fill="white"/>
</svg>
