<svg xmlns="http://www.w3.org/2000/svg" width="22.281" height="21.532" viewBox="0 0 22.281 21.532">
  <metadata><?xpacket begin="﻿" id="W5M0MpCehiHzreSzNTczkc9d"?>
<x:xmpmeta xmlns:x="adobe:ns:meta/" x:xmptk="Adobe XMP Core 5.6-c138 79.159824, 2016/09/14-01:09:01        ">
   <rdf:RDF xmlns:rdf="http://www.w3.org/1999/02/22-rdf-syntax-ns#">
      <rdf:Description rdf:about=""/>
   </rdf:RDF>
</x:xmpmeta>
                                                                                                    
                                                                                                    
                                                                                                    
                                                                                                    
                                                                                                    
                                                                                                    
                                                                                                    
                                                                                                    
                                                                                                    
                                                                                                    
                                                                                                    
                                                                                                    
                                                                                                    
                                                                                                    
                                                                                                    
                                                                                                    
                                                                                                    
                                                                                                    
                                                                                                    
                                                                                                    
                           
<?xpacket end="w"?></metadata>
<defs>
    <style>
      .cls-1 {
        fill: #55974d;
        fill-rule: evenodd;
      }
    </style>
  </defs>
  <path id="Фигура_1690" data-name="Фигура 1690" class="cls-1" d="M114.129,391.721c-0.184.045-.372,0.084-0.558,0.118a0.866,0.866,0,0,0-.353,1.572,0.915,0.915,0,0,0,.68.144c0.222-.04.445-0.087,0.664-0.14a0.87,0.87,0,0,0,.653-1.058A0.9,0.9,0,0,0,114.129,391.721Zm6.63-11.7a0.872,0.872,0,0,0,.335.438,0.915,0.915,0,0,0,.8.116,0.869,0.869,0,0,0,.57-1.1c-0.071-.209-0.15-0.418-0.234-0.622a0.9,0.9,0,0,0-1.165-.486,0.864,0.864,0,0,0-.5,1.134C120.634,379.671,120.7,379.846,120.759,380.022Zm-3.717,10.453c-0.158.1-.321,0.2-0.485,0.292a0.86,0.86,0,0,0-.329,1.192,0.878,0.878,0,0,0,.26.278,0.918,0.918,0,0,0,.965.042c0.195-.11.39-0.226,0.578-0.348a0.858,0.858,0,0,0,.254-1.209A0.912,0.912,0,0,0,117.042,390.475Zm5.977-8.016a0.9,0.9,0,0,0-1.792.069c0.008,0.184.01,0.371,0,.555a0.864,0.864,0,0,0,.381.733,0.905,0.905,0,0,0,.5.159,0.886,0.886,0,0,0,.916-0.854C123.03,382.9,123.028,382.679,123.019,382.459Zm-2.406,5.72a0.912,0.912,0,0,0-1.255.174c-0.114.148-.234,0.294-0.357,0.434a0.856,0.856,0,0,0,.1,1.23,0.751,0.751,0,0,0,.065.05,0.915,0.915,0,0,0,1.2-.148c0.146-.168.289-0.342,0.425-0.518A0.858,0.858,0,0,0,120.613,388.179Zm1.318-3.156a0.9,0.9,0,0,0-1.124.572c-0.056.176-.119,0.352-0.187,0.525a0.86,0.86,0,0,0,.321,1.024,0.928,0.928,0,0,0,.2.1,0.906,0.906,0,0,0,1.157-.5c0.08-.206.155-0.416,0.222-0.625A0.869,0.869,0,0,0,121.931,385.023Zm-11.714,6.824a9.464,9.464,0,0,1-2.3-.712l-0.025-.013c-0.172-.079-0.344-0.163-0.51-0.252h0a9.534,9.534,0,0,1-.893-0.543,8.966,8.966,0,0,1-2.26-12.692,9.2,9.2,0,0,1,2.3-2.227l0.032-.022a9.585,9.585,0,0,1,10.5-.082l-0.7.986c-0.194.274-.075,0.474,0.266,0.444l3.043-.265a0.49,0.49,0,0,0,.454-0.639l-0.817-2.866c-0.092-.321-0.326-0.359-0.521-0.085l-0.7.987a11.318,11.318,0,0,0-8.114-1.679q-0.431.072-.849,0.176h-0.006l-0.032.009a11.073,11.073,0,0,0-6.131,4,0.581,0.581,0,0,0-.038.046c-0.051.066-.1,0.135-0.151,0.2-0.081.112-.16,0.226-0.236,0.341-0.01.014-.017,0.028-0.026,0.042a10.552,10.552,0,0,0-1.767,6.347,0.162,0.162,0,0,1,0,.022c0.011,0.219.028,0.441,0.053,0.66a0.293,0.293,0,0,0,.007.041c0.025,0.22.056,0.44,0.095,0.661a10.677,10.677,0,0,0,3.121,5.841l0.011,0.012,0,0a11.3,11.3,0,0,0,5.875,2.974,0.9,0.9,0,0,0,1.04-.7A0.875,0.875,0,0,0,110.217,391.847Zm1.109-16.019a0.716,0.716,0,0,0-.726.706v7.036l6.61,3.327a0.742,0.742,0,0,0,.332.078,0.726,0.726,0,0,0,.645-0.382,0.7,0.7,0,0,0-.311-0.951l-5.825-2.932v-6.176A0.716,0.716,0,0,0,111.326,375.828Z" transform="translate(-100.75 -372.031)"/>
</svg>
