<svg xmlns="http://www.w3.org/2000/svg" width="21.531" height="21.563" viewBox="0 0 21.531 21.563">
  <metadata><?xpacket begin="﻿" id="W5M0MpCehiHzreSzNTczkc9d"?>
<x:xmpmeta xmlns:x="adobe:ns:meta/" x:xmptk="Adobe XMP Core 5.6-c138 79.159824, 2016/09/14-01:09:01        ">
   <rdf:RDF xmlns:rdf="http://www.w3.org/1999/02/22-rdf-syntax-ns#">
      <rdf:Description rdf:about=""/>
   </rdf:RDF>
</x:xmpmeta>
                                                                                                    
                                                                                                    
                                                                                                    
                                                                                                    
                                                                                                    
                                                                                                    
                                                                                                    
                                                                                                    
                                                                                                    
                                                                                                    
                                                                                                    
                                                                                                    
                                                                                                    
                                                                                                    
                                                                                                    
                                                                                                    
                                                                                                    
                                                                                                    
                                                                                                    
                                                                                                    
                           
<?xpacket end="w"?></metadata>
<defs>
    <style>
      .cls-1 {
        fill: #55974d;
        fill-rule: evenodd;
      }
    </style>
  </defs>
  <path id="Фигура_1693" data-name="Фигура 1693" class="cls-1" d="M114.782,234.316a3.139,3.139,0,0,0-1.949.677,3.162,3.162,0,0,0-3.1-2.572H104.01v1.9h-2.524v19.661h21.543V234.316h-8.247Zm0,1.263h6.984v12.083h-6.984a3.142,3.142,0,0,0-1.894.633V237.473A1.9,1.9,0,0,1,114.782,235.579Zm-1.894,15.24a1.9,1.9,0,0,1,1.894-1.894h6.984v1.263h-6.984A3.153,3.153,0,0,0,112.888,250.819Zm-7.615-17.135h4.46a1.9,1.9,0,0,1,1.893,1.9V248.3a3.141,3.141,0,0,0-1.893-.633h-4.46V233.684Zm-1.263,1.9v13.346h5.723a1.9,1.9,0,0,1,1.893,1.894,3.153,3.153,0,0,0-1.893-.631h-6.985V235.579h1.262Zm-1.262,15.872h6.985a1.9,1.9,0,0,1,1.784,1.263h-8.769v-1.263ZM113,252.714a1.9,1.9,0,0,1,1.785-1.263h6.984v1.263H113Zm7.507-15.872h-6.353V246.4H120.5v-9.557Zm-1.262,8.294h-3.829v-7.031h3.829v7.031Z" transform="translate(-101.5 -232.406)"/>
</svg>
