<svg xmlns="http://www.w3.org/2000/svg" width="24.5" height="23.781" viewBox="0 0 24.5 23.781">
  <metadata><?xpacket begin="﻿" id="W5M0MpCehiHzreSzNTczkc9d"?>
<x:xmpmeta xmlns:x="adobe:ns:meta/" x:xmptk="Adobe XMP Core 5.6-c138 79.159824, 2016/09/14-01:09:01        ">
   <rdf:RDF xmlns:rdf="http://www.w3.org/1999/02/22-rdf-syntax-ns#">
      <rdf:Description rdf:about=""/>
   </rdf:RDF>
</x:xmpmeta>
                                                                                                    
                                                                                                    
                                                                                                    
                                                                                                    
                                                                                                    
                                                                                                    
                                                                                                    
                                                                                                    
                                                                                                    
                                                                                                    
                                                                                                    
                                                                                                    
                                                                                                    
                                                                                                    
                                                                                                    
                                                                                                    
                                                                                                    
                                                                                                    
                                                                                                    
                                                                                                    
                           
<?xpacket end="w"?></metadata>
<defs>
    <style>
      .cls-1 {
        fill: #55974d;
        fill-rule: evenodd;
      }
    </style>
  </defs>
  <path id="Фигура_1692" data-name="Фигура 1692" class="cls-1" d="M120.534,439.061V428.8a2.6,2.6,0,0,0-2.606-2.581H104.092a2.6,2.6,0,0,0-2.606,2.581v10.266a2.6,2.6,0,0,0,2.606,2.58h0.743v3.095a1.039,1.039,0,0,0,1.05,1.033h0a1.058,1.058,0,0,0,.79-0.359l3.292-3.774h7.967A2.589,2.589,0,0,0,120.534,439.061Zm-10.9,1.181a0.713,0.713,0,0,0-.536.24l-2.86,3.272v-2.815a0.705,0.705,0,0,0-.709-0.7h-1.441a1.19,1.19,0,0,1-1.194-1.182V428.8a1.19,1.19,0,0,1,1.194-1.182h13.836a1.191,1.191,0,0,1,1.194,1.182v10.266a1.19,1.19,0,0,1-1.194,1.181h-8.29Zm11.179,9.4a1.034,1.034,0,0,0,.784.36,1.047,1.047,0,0,0,.369-0.069,1.023,1.023,0,0,0,.68-0.97v-3.1h0.744a2.6,2.6,0,0,0,2.606-2.58V433.02a2.6,2.6,0,0,0-2.606-2.58,0.7,0.7,0,1,0,0,1.4,1.19,1.19,0,0,1,1.193,1.182v10.266a1.19,1.19,0,0,1-1.193,1.182h-1.447a0.705,0.705,0,0,0-.709.7v2.815l-2.86-3.272a0.705,0.705,0,0,0-.536-0.24h-6.895a0.7,0.7,0,1,0,0,1.4h6.572Zm-10.178-16.3a0.834,0.834,0,1,1-.842.833A0.837,0.837,0,0,1,110.639,433.34Zm2.819,0a0.834,0.834,0,1,1-.842.833A0.838,0.838,0,0,1,113.458,433.34Zm-5.639,0a0.834,0.834,0,1,1-.842.833A0.838,0.838,0,0,1,107.819,433.34Z" transform="translate(-101.5 -426.219)"/>
</svg>
