<svg xmlns="http://www.w3.org/2000/svg" width="24.5" height="24.531" viewBox="0 0 24.5 24.531">
  <metadata><?xpacket begin="﻿" id="W5M0MpCehiHzreSzNTczkc9d"?>
<x:xmpmeta xmlns:x="adobe:ns:meta/" x:xmptk="Adobe XMP Core 5.6-c138 79.159824, 2016/09/14-01:09:01        ">
   <rdf:RDF xmlns:rdf="http://www.w3.org/1999/02/22-rdf-syntax-ns#">
      <rdf:Description rdf:about=""/>
   </rdf:RDF>
</x:xmpmeta>
                                                                                                    
                                                                                                    
                                                                                                    
                                                                                                    
                                                                                                    
                                                                                                    
                                                                                                    
                                                                                                    
                                                                                                    
                                                                                                    
                                                                                                    
                                                                                                    
                                                                                                    
                                                                                                    
                                                                                                    
                                                                                                    
                                                                                                    
                                                                                                    
                                                                                                    
                                                                                                    
                           
<?xpacket end="w"?></metadata>
<defs>
    <style>
      .cls-1 {
        fill: #55974d;
        fill-rule: evenodd;
      }
    </style>
  </defs>
  <path id="Фигура_1694" data-name="Фигура 1694" class="cls-1" d="M123.26,197.689l-1.721-.292a9.677,9.677,0,0,0-.691-1.67l1.014-1.419a1.513,1.513,0,0,0-.164-1.953l-1.526-1.527a1.508,1.508,0,0,0-1.946-.164l-1.424,1.015a9.594,9.594,0,0,0-1.731-.712l-0.287-1.7a1.512,1.512,0,0,0-1.5-1.266h-2.156a1.513,1.513,0,0,0-1.495,1.266l-0.3,1.742a9.449,9.449,0,0,0-1.665.7l-1.408-1.015a1.511,1.511,0,0,0-1.951.164l-1.531,1.527a1.517,1.517,0,0,0-.164,1.952l1.024,1.44a9.544,9.544,0,0,0-.681,1.676l-1.7.287a1.514,1.514,0,0,0-1.265,1.5v2.157a1.514,1.514,0,0,0,1.265,1.5l1.741,0.3a9.481,9.481,0,0,0,.7,1.665l-1.009,1.4a1.511,1.511,0,0,0,.164,1.952l1.526,1.527a1.5,1.5,0,0,0,1.07.446,1.484,1.484,0,0,0,.876-0.282l1.439-1.025a9.626,9.626,0,0,0,1.618.666l0.287,1.722a1.513,1.513,0,0,0,1.5,1.266h2.161a1.514,1.514,0,0,0,1.5-1.266l0.291-1.722a9.756,9.756,0,0,0,1.67-.691l1.418,1.014a1.5,1.5,0,0,0,.881.282h0a1.5,1.5,0,0,0,1.071-.446l1.526-1.527a1.518,1.518,0,0,0,.164-1.952l-1.014-1.424a9.73,9.73,0,0,0,.691-1.671l1.721-.287a1.513,1.513,0,0,0,1.264-1.5v-2.157A1.5,1.5,0,0,0,123.26,197.689Zm-0.118,3.654a0.132,0.132,0,0,1-.113.133l-2.15.359a0.689,0.689,0,0,0-.554.507,8.166,8.166,0,0,1-.891,2.147,0.693,0.693,0,0,0,.031.753l1.265,1.783a0.14,0.14,0,0,1-.015.175l-1.526,1.527a0.131,0.131,0,0,1-.1.041,0.132,0.132,0,0,1-.077-0.026l-1.777-1.266a0.691,0.691,0,0,0-.752-0.03,8.193,8.193,0,0,1-2.146.891,0.681,0.681,0,0,0-.507.554l-0.364,2.152a0.132,0.132,0,0,1-.133.112h-2.156a0.133,0.133,0,0,1-.133-0.112l-0.358-2.152a0.689,0.689,0,0,0-.507-0.554,8.454,8.454,0,0,1-2.1-.861,0.713,0.713,0,0,0-.348-0.092,0.678,0.678,0,0,0-.4.128l-1.792,1.276a0.157,0.157,0,0,1-.077.026,0.137,0.137,0,0,1-.1-0.041l-1.526-1.527a0.14,0.14,0,0,1-.016-0.174l1.26-1.768a0.7,0.7,0,0,0,.031-0.759,8.085,8.085,0,0,1-.9-2.141,0.7,0.7,0,0,0-.554-0.508l-2.166-.369a0.132,0.132,0,0,1-.112-0.133v-2.157a0.132,0.132,0,0,1,.112-0.133l2.136-.359a0.693,0.693,0,0,0,.558-0.512,8.164,8.164,0,0,1,.876-2.153,0.684,0.684,0,0,0-.036-0.748l-1.275-1.793a0.139,0.139,0,0,1,.015-0.174l1.526-1.527a0.13,0.13,0,0,1,.1-0.041,0.127,0.127,0,0,1,.077.025l1.767,1.261a0.7,0.7,0,0,0,.758.031,8.121,8.121,0,0,1,2.141-.9,0.7,0.7,0,0,0,.507-0.553l0.368-2.168a0.133,0.133,0,0,1,.133-0.113H113.3a0.132,0.132,0,0,1,.133.113l0.359,2.137a0.692,0.692,0,0,0,.512.558,8.314,8.314,0,0,1,2.2.9,0.693,0.693,0,0,0,.753-0.031l1.767-1.27a0.145,0.145,0,0,1,.076-0.026,0.137,0.137,0,0,1,.1.041l1.526,1.527a0.139,0.139,0,0,1,.015.174l-1.265,1.778a0.694,0.694,0,0,0-.031.753,8.217,8.217,0,0,1,.892,2.147,0.678,0.678,0,0,0,.553.508l2.151,0.364a0.132,0.132,0,0,1,.112.133v2.157h-0.005Zm-10.882-6.374a5.293,5.293,0,1,0,5.29,5.293A5.295,5.295,0,0,0,112.26,194.969Zm0,9.2a3.91,3.91,0,1,1,3.907-3.909A3.911,3.911,0,0,1,112.26,204.171Z" transform="translate(-100 -188)"/>
</svg>
