<svg xmlns="http://www.w3.org/2000/svg" width="19.344" height="21.562" viewBox="0 0 19.344 21.562">
  <metadata><?xpacket begin="﻿" id="W5M0MpCehiHzreSzNTczkc9d"?>
<x:xmpmeta xmlns:x="adobe:ns:meta/" x:xmptk="Adobe XMP Core 5.6-c138 79.159824, 2016/09/14-01:09:01        ">
   <rdf:RDF xmlns:rdf="http://www.w3.org/1999/02/22-rdf-syntax-ns#">
      <rdf:Description rdf:about=""/>
   </rdf:RDF>
</x:xmpmeta>
                                                                                                    
                                                                                                    
                                                                                                    
                                                                                                    
                                                                                                    
                                                                                                    
                                                                                                    
                                                                                                    
                                                                                                    
                                                                                                    
                                                                                                    
                                                                                                    
                                                                                                    
                                                                                                    
                                                                                                    
                                                                                                    
                                                                                                    
                                                                                                    
                                                                                                    
                                                                                                    
                           
<?xpacket end="w"?></metadata>
<defs>
    <style>
      .cls-1 {
        fill: #55974d;
        fill-rule: evenodd;
      }
    </style>
  </defs>
  <path id="Фигура_1691" data-name="Фигура 1691" class="cls-1" d="M115.946,335.323a0.842,0.842,0,0,0-.842-0.842h-8.671a0.842,0.842,0,0,0,0,1.684H115.1A0.842,0.842,0,0,0,115.946,335.323Zm-9.513,2.526a0.842,0.842,0,0,0,0,1.684H111.7a0.842,0.842,0,1,0,0-1.684h-5.266Zm1.978,8.084H105.6a1.687,1.687,0,0,1-1.684-1.684v-14.82a1.687,1.687,0,0,1,1.684-1.684h10.35a1.686,1.686,0,0,1,1.683,1.684v5.179a0.842,0.842,0,1,0,1.684,0v-5.179a3.372,3.372,0,0,0-3.367-3.368H105.6a3.371,3.371,0,0,0-3.367,3.368v14.82a3.371,3.371,0,0,0,3.367,3.368h2.815A0.842,0.842,0,1,0,108.411,345.933Zm12.393-7.681a2.528,2.528,0,0,0-3.571,0l-4.622,4.612a0.839,0.839,0,0,0-.21.352l-1.007,3.314a0.842,0.842,0,0,0,.806,1.087,0.823,0.823,0,0,0,.224-0.031l3.4-.941a0.842,0.842,0,0,0,.37-0.216l4.612-4.6A2.529,2.529,0,0,0,120.8,338.252Zm-5.645,6.829-1.709.474,0.5-1.648,3.119-3.112,1.19,1.191Zm4.455-4.447-0.163.162-1.19-1.191,0.162-.162A0.842,0.842,0,0,1,119.614,340.634Zm-4.51-9.521h-8.671a0.842,0.842,0,0,0,0,1.684H115.1A0.842,0.842,0,1,0,115.1,331.113Z" transform="translate(-102.219 -326.063)"/>
</svg>
