<svg xmlns="http://www.w3.org/2000/svg" xmlns:xlink="http://www.w3.org/1999/xlink" width="69" height="66" viewBox="0 0 69 66">
  <defs>
    <style>
      .cls-1 {
        fill: #0799c7;
        fill-rule: evenodd;
        filter: url(#filter);
      }
    </style>
    <filter id="filter" x="417" y="863" width="69" height="66" filterUnits="userSpaceOnUse">
      <feFlood result="flood" flood-color="#01a1dd"/>
      <feComposite result="composite" operator="in" in2="SourceGraphic"/>
      <feBlend result="blend" in2="SourceGraphic"/>
    </filter>
  </defs>
  <path id="Фигура_2" data-name="Фигура 2" class="cls-1" d="M481.4,863H421.6a4.583,4.583,0,0,0-4.6,4.553V905.1a1.144,1.144,0,0,0,1.15,1.138h66.7A1.144,1.144,0,0,0,486,905.1v-37.55A4.583,4.583,0,0,0,481.4,863Zm2.3,40.965H419.3V867.553a2.291,2.291,0,0,1,2.3-2.277h59.8a2.291,2.291,0,0,1,2.3,2.277v36.412Zm1.15,0h-66.7A1.144,1.144,0,0,0,417,905.1v5.689a4.582,4.582,0,0,0,4.6,4.552h59.8a4.582,4.582,0,0,0,4.6-4.552V905.1A1.144,1.144,0,0,0,484.85,903.965Zm-1.15,6.827a2.292,2.292,0,0,1-2.3,2.277H421.6a2.292,2.292,0,0,1-2.3-2.277v-4.551h64.4v4.551h0Zm-28.75-2.275h-6.9a1.138,1.138,0,1,0,0,2.276h6.9A1.138,1.138,0,1,0,454.95,908.517Zm25.3-40.965h-57.5a1.144,1.144,0,0,0-1.15,1.138V905.1a1.144,1.144,0,0,0,1.15,1.138h57.5a1.144,1.144,0,0,0,1.15-1.138V868.69A1.144,1.144,0,0,0,480.25,867.552Zm-1.15,36.413H423.9V869.827h55.2v34.138h0Zm-12.65,18.207h-29.9a3.414,3.414,0,1,0,0,6.828h29.9A3.414,3.414,0,1,0,466.45,922.172Zm0,4.552h-29.9a1.138,1.138,0,1,1,0-2.276h29.9A1.138,1.138,0,1,1,466.45,926.724Zm-2.3-4.552c-3.816,0-5.75-2.68-5.75-7.965a1.144,1.144,0,0,0-1.15-1.138h-11.5a1.144,1.144,0,0,0-1.15,1.138c0,5.285-1.934,7.965-5.75,7.965a1.138,1.138,0,1,0,0,2.276h25.3A1.138,1.138,0,1,0,464.15,922.172Zm-19.7,0a10.836,10.836,0,0,0,2.417-6.827h9.263a10.824,10.824,0,0,0,2.417,6.827h-14.1Zm27.5-25.644-2.777-2.747,1.545-1.528a1.134,1.134,0,0,0-.482-1.9l-11.5-3.414a1.158,1.158,0,0,0-1.143.286,1.126,1.126,0,0,0-.289,1.131l3.45,11.379a1.143,1.143,0,0,0,.82.777,1.166,1.166,0,0,0,1.095-.3l1.626-1.61,2.776,2.748a1.159,1.159,0,0,0,1.626,0l3.252-3.219A1.128,1.128,0,0,0,471.952,896.528Zm-4.066,2.414-2.527-2.5a1.514,1.514,0,0,0-2.123,0l-0.831.822-2.282-7.53,7.609,2.259-0.89.88a1.28,1.28,0,0,0,0,1.822l2.668,2.64ZM465.3,872.1H433.1a1.144,1.144,0,0,0-1.15,1.138v5.69a1.144,1.144,0,0,0,1.15,1.138h32.2a1.144,1.144,0,0,0,1.15-1.138v-5.69A1.144,1.144,0,0,0,465.3,872.1Zm-1.15,5.69h-29.9v-3.414h29.9v3.414Zm-17.25,6.828h-9.2a1.144,1.144,0,0,0-1.15,1.137v4.552a1.144,1.144,0,0,0,1.15,1.138h9.2a1.144,1.144,0,0,0,1.15-1.138v-4.552A1.144,1.144,0,0,0,446.9,884.621Zm-1.15,4.551h-6.9V886.9h6.9v2.276ZM465.3,872.1H433.1a1.144,1.144,0,0,0-1.15,1.138v21.621A1.144,1.144,0,0,0,433.1,896h27.377a1.15,1.15,0,0,0,.922-0.459,1.129,1.129,0,0,0,.18-1.007l-1.456-4.8,4.847,1.439a1.156,1.156,0,0,0,1.017-.177,1.131,1.131,0,0,0,.463-0.913V873.241A1.144,1.144,0,0,0,465.3,872.1Zm-1.15,16.448-5.413-1.607a1.158,1.158,0,0,0-1.143.286,1.128,1.128,0,0,0-.289,1.132l1.626,5.362H434.25V874.379h29.9v14.172Z" transform="translate(-417 -863)"/>
</svg>
