<svg xmlns="http://www.w3.org/2000/svg" xmlns:xlink="http://www.w3.org/1999/xlink" width="60" height="61" viewBox="0 0 60 61">
  <defs>
    <style>
      .cls-1 {
        fill: #0799c7;
        fill-rule: evenodd;
        filter: url(#filter);
      }
    </style>
    <filter id="filter" x="1066" y="858" width="60" height="61" filterUnits="userSpaceOnUse">
      <feFlood result="flood" flood-color="#01a1dd"/>
      <feComposite result="composite" operator="in" in2="SourceGraphic"/>
      <feBlend result="blend" in2="SourceGraphic"/>
    </filter>
  </defs>
  <path id="Фигура_5" data-name="Фигура 5" class="cls-1" d="M1091.32,907.535a8.439,8.439,0,0,1,3.65,3.447,8.518,8.518,0,0,1,3.67-3.444,5.226,5.226,0,0,1-1.61-4.492,4.984,4.984,0,0,1,8.41-2.969c2.05,2,2.03,4.594-.06,7.437,0.5,0.336,1.03.637,1.5,1.014a8.023,8.023,0,0,1,3.09,6.25c0.03,0.973.01,1.949,0,2.923a1.078,1.078,0,0,1-1.28,1.295q-10.5,0-20.99,0l-20.31,0c-1.11,0-1.43-.3-1.4-1.422a28.5,28.5,0,0,1,.18-4.242,7.709,7.709,0,0,1,3.94-5.513c0.14-.084.29-0.165,0.43-0.249a0.4,0.4,0,0,0,.06-0.092,5.109,5.109,0,0,1-1.59-4.267,4.993,4.993,0,0,1,8.49-3.079,5.179,5.179,0,0,1-.16,7.395,8.547,8.547,0,0,1,3.63,3.459,8.42,8.42,0,0,1,3.68-3.451,5.224,5.224,0,0,1-1.64-4.382,4.99,4.99,0,0,1,8.53-2.98A5.164,5.164,0,0,1,1091.32,907.535Zm16.64,9.413c0-.827.04-1.606,0-2.383a6.058,6.058,0,0,0-5.73-5.729c-3.66-.118-7.03,2.93-6.16,8.112h11.89Zm-27.99-.016c0-.773.04-1.492,0-2.206a5.869,5.869,0,0,0-3.71-5.409,5.622,5.622,0,0,0-6.37,1.17c-1.9,1.741-2.07,4.025-1.86,6.445h11.94Zm13.99,0.016c0-.794.04-1.589,0-2.381a6.033,6.033,0,0,0-5.72-5.727c-3.72-.106-7.01,2.934-6.17,8.108h11.89Zm-16.98-13.18a3,3,0,1,0-3.06,3.022A3.042,3.042,0,0,0,1076.98,903.768Zm14-.064a3,3,0,1,0-3,3.086A3.042,3.042,0,0,0,1090.98,903.7Zm11.01,3.085a3.049,3.049,0,1,0-3.01-3.069A3.034,3.034,0,0,0,1101.99,906.789Zm3.67-12.63a6.184,6.184,0,0,1-.78-0.458c-0.27-.223-0.48-0.535-0.77-0.738a0.743,0.743,0,0,0-.62-0.1,0.872,0.872,0,0,0-.46.54,7.148,7.148,0,0,0-.06,1.139,1,1,0,0,1-1.07,1.058q-1.9.024-3.81,0a1.026,1.026,0,0,1-1.11-1.159c-0.01-.275-0.01-0.551,0-0.826a0.621,0.621,0,0,0-.38-0.749,0.685,0.685,0,0,0-.86.209c-1.39,1.355-1.46,1.351-2.84-.039-0.66-.655-1.3-1.315-1.95-1.979a1.083,1.083,0,0,1,.02-1.794c0.18-.181.35-0.367,0.53-0.538a0.559,0.559,0,0,0,.22-0.751,0.615,0.615,0,0,0-.69-0.486,0.3,0.3,0,0,1-.06,0c-1.98-.07-1.99-0.079-1.99-2.123q-0.015-1.4,0-2.8a1.046,1.046,0,0,1,1.19-1.2c0.27,0,.54-0.012.81,0a0.557,0.557,0,0,0,.68-0.383,0.62,0.62,0,0,0-.16-0.823c-0.01-.013-0.03-0.031-0.04-0.046-1.33-1.466-1.33-1.5.04-2.9,0.65-.658,1.29-1.321,1.95-1.975a1.032,1.032,0,0,1,1.72-.031,4.357,4.357,0,0,0,.58.573,1.089,1.089,0,0,0,.66.217,0.548,0.548,0,0,0,.54-0.69v-0.063c-0.05-2.06.39-2.052,2.04-2.024,0.9,0.016,1.79,0,2.69.007a1.1,1.1,0,0,1,1.3,1.349c0,0.233.01,0.467-.01,0.7a0.57,0.57,0,0,0,.39.682,0.652,0.652,0,0,0,.81-0.156c1.49-1.42,1.49-1.413,2.93.035,0.62,0.627,1.24,1.256,1.85,1.888a1.114,1.114,0,0,1-.01,1.886c-0.16.166-.32,0.336-0.49,0.494a0.563,0.563,0,0,0-.21.75,0.6,0.6,0,0,0,.68.488,0.688,0.688,0,0,1,.12,0c1.87,0.055,1.93.113,1.94,1.992,0,0.974,0,1.949-.01,2.923a1.048,1.048,0,0,1-1.19,1.2c-0.27.006-.54,0.014-0.81,0a0.543,0.543,0,0,0-.67.381,0.685,0.685,0,0,0,.15.83c1.39,1.528,1.38,1.535-.09,3.028-0.63.644-1.25,1.3-1.9,1.926A5.713,5.713,0,0,1,1105.66,894.159Zm-11.29-2.61a2.279,2.279,0,0,1,2.95-.586,2.379,2.379,0,0,1,1.67,2.566h2a2.336,2.336,0,0,1,1.69-2.584,2.263,2.263,0,0,1,2.9.581c0.5-.482.95-0.912,1.44-1.376a2.4,2.4,0,0,1-.61-3.031,2.346,2.346,0,0,1,2.53-1.7v-2.032a2.313,2.313,0,0,1-2.55-1.72,2.371,2.371,0,0,1,.58-2.951c-0.48-.512-0.9-0.969-1.37-1.465a2.275,2.275,0,0,1-2.97.614,2.36,2.36,0,0,1-1.66-2.562h-2a2.347,2.347,0,0,1-1.7,2.588,2.248,2.248,0,0,1-2.89-.588c-0.51.485-.96,0.915-1.45,1.389a2.754,2.754,0,0,1-1.91,4.716v2.033a2.311,2.311,0,0,1,2.54,1.721,2.357,2.357,0,0,1-.55,2.932C1093.48,890.6,1093.91,891.059,1094.37,891.549Zm25.09,10.374a12.645,12.645,0,0,1,1.32,1.335,1.519,1.519,0,0,1,.27,1.129,1.22,1.22,0,0,1-.88.636c-2.49.246-4.98,0.426-7.47,0.626-0.48.038-.95,0.086-1.43,0.112a1.056,1.056,0,0,1-1.28-1.279c0.17-2.408.36-4.815,0.54-7.223a11.858,11.858,0,0,1,.19-1.892,1.335,1.335,0,0,1,.66-0.868,1.309,1.309,0,0,1,1.05.265,13.042,13.042,0,0,1,1.31,1.348c3.27-2.561,4.37-6.384,3.03-10.57a22.418,22.418,0,0,0-1.26-2.894,1.132,1.132,0,0,1,.07-1.451,1.025,1.025,0,0,1,1.42-.016,15.951,15.951,0,0,1,7,8.57,9.357,9.357,0,0,1-2.71,10.327c-0.54.5-1.05,1.029-1.57,1.546A3.394,3.394,0,0,0,1119.46,901.923Zm-6.96-4.061c-0.14,1.9-.28,3.82-0.43,5.788l5.78-.456c-0.13-.164-0.19-0.263-0.27-0.35-0.73-.8-0.73-1.2.05-1.978,0.81-.817,1.64-1.623,2.46-2.43a7.353,7.353,0,0,0,2.25-3.8c0.75-3.808-.98-6.689-3.43-9.288a1.288,1.288,0,0,0,.03.483,12.381,12.381,0,0,1-.24,6.878,13.093,13.093,0,0,1-3.53,4.922c-1.24,1.213-1.23,1.23-2.55.218A0.346,0.346,0,0,0,1112.5,897.862ZM1080.45,869.4a10.26,10.26,0,0,1-1.27-1.244,1.391,1.391,0,0,1-.27-1.121,1.285,1.285,0,0,1,.93-0.653c2.96-.278,5.93-0.5,8.9-0.726a1.018,1.018,0,0,1,1.22,1.2c-0.21,3.04-.46,6.079-0.69,9.118a1.026,1.026,0,0,1-.67.978,0.964,0.964,0,0,1-1.12-.323c-0.41-.446-0.81-0.906-1.22-1.367-2.44,2.04-3.79,4.454-3.6,7.622a12.839,12.839,0,0,0,1.75,5.828,1.2,1.2,0,0,1,.12,1.307,0.922,0.922,0,0,1-1.3.362c-4.16-2.654-7.27-6.09-7.77-11.317a9.14,9.14,0,0,1,3.23-7.771C1079.29,870.742,1079.8,870.1,1080.45,869.4Zm1.63-1.179c0.16,0.192.23,0.273,0.3,0.348a1.136,1.136,0,0,1-.02,1.934c-0.81.82-1.67,1.593-2.45,2.448a12.76,12.76,0,0,0-1.68,2.188c-2.06,3.714.07,8.452,2.89,10.981-0.07-.367-0.14-0.67-0.19-0.973-0.8-4.068.03-7.643,3.07-10.557,0.34-.334.7-0.667,1.01-1.031,0.86-.981,1.5-0.938,2.22-0.06a0.77,0.77,0,0,0,.22.079c0.15-1.94.29-3.844,0.44-5.814Zm39.66-3.5c-1.68,2.055-3.33,4.075-4.99,6.078a0.9,0.9,0,0,1-1.39.145c-1.03-1.013-2.01-2.076-3.03-3.139,0.44-.432.89-0.868,1.34-1.3,0.67,0.721,1.37,1.463,2.14,2.273,1.53-1.872,2.95-3.6,4.4-5.365C1120.74,863.868,1121.22,864.286,1121.74,864.73Zm-11.8,2.457c0.07,0.576.13,1.1,0.2,1.671l-1.91.5c-0.11-.738-0.2-1.425-0.3-2.169h2.01Zm0.29,6.064c-0.43-.639-0.82-1.2-1.23-1.82,0.62-.341,1.17-0.637,1.75-0.951,0.32,0.464.63,0.9,0.97,1.4C1111.26,872.308,1110.78,872.741,1110.23,873.251Zm11.89,1.433c-0.66.36-1.26,0.68-1.92,1.038-0.26-.678-0.48-1.277-0.72-1.9l1.5-.814C1121.33,873.519,1121.69,874.046,1122.12,874.684ZM1115.83,858c0.09,0.753.17,1.374,0.25,2.022-0.54.139-1.06,0.27-1.63,0.417-0.24-.609-0.46-1.2-0.73-1.891C1114.44,858.361,1115.09,858.191,1115.83,858Zm9.12,4.8c0.27,0.7.51,1.339,0.78,2.056-0.7.184-1.3,0.345-1.93,0.51-0.21-.549-0.4-1.053-0.61-1.6C1123.76,863.447,1124.32,863.142,1124.95,862.8Zm-2.71,9.067c0.35-.511.65-0.943,0.97-1.413,0.57,0.3,1.13.6,1.77,0.943-0.42.619-.8,1.185-1.23,1.824C1123.21,872.733,1122.74,872.307,1122.24,871.864Zm3.52-2.545-1.93-.482c0.06-.541.11-1.075,0.17-1.676h2C1125.92,867.862,1125.84,868.571,1125.76,869.319Zm-5.63-10.824c-0.26.722-.48,1.309-0.7,1.906a12.611,12.611,0,0,1-1.31-.311,0.537,0.537,0,0,1-.27-0.436c0.01-.5.09-1,0.16-1.637Zm-9.99,6.939-1.95-.475c0.26-.708.5-1.36,0.76-2.074l1.78,0.94C1110.53,864.365,1110.34,864.868,1110.14,865.434Zm7.93,10.79h-2.14c0.07-.664.13-1.279,0.2-1.944h1.7C1117.91,874.882,1117.98,875.5,1118.07,876.224Zm-7.89-15.156c0.56-.509,1.06-0.971,1.62-1.486,0.4,0.58.76,1.107,1.15,1.664-0.42.383-.81,0.746-1.26,1.156C1111.22,861.985,1110.74,861.565,1110.18,861.068Zm13.53-.087c-0.57.514-1.03,0.933-1.5,1.361-0.44-.388-0.84-0.748-1.27-1.136,0.36-.533.7-1.053,1.12-1.67C1122.61,860.019,1123.13,860.473,1123.71,860.981Zm-9.92,14.748c-0.67-.352-1.25-0.661-1.93-1.017,0.4-.591.75-1.12,1.13-1.683,0.5,0.262.97,0.51,1.5,0.792C1114.27,874.421,1114.05,875.022,1113.79,875.729Zm-13.76,3.6a5.085,5.085,0,1,1-5.05,5.05A5.045,5.045,0,0,1,1100.03,879.332Zm-0.07,2.035a3.05,3.05,0,1,0,3.01,3.063A3.039,3.039,0,0,0,1099.96,881.367Z" transform="translate(-1066 -858)"/>
</svg>
