<svg xmlns="http://www.w3.org/2000/svg" xmlns:xlink="http://www.w3.org/1999/xlink" width="54" height="54" viewBox="0 0 54 54">
  <defs>
    <style>
      .cls-1 {
        fill: #0799c7;
        fill-rule: evenodd;
        filter: url(#filter);
      }
    </style>
    <filter id="filter" x="1082" y="1251" width="54" height="54" filterUnits="userSpaceOnUse">
      <feFlood result="flood" flood-color="#60c893"/>
      <feComposite result="composite" operator="in" in2="SourceGraphic"/>
      <feBlend result="blend" in2="SourceGraphic"/>
    </filter>
  </defs>
  <path id="Фигура_8" data-name="Фигура 8" class="cls-1" d="M1108.93,1305h-25.6a1.079,1.079,0,0,1-1.33-1.32q0-8.34.01-16.69a3.35,3.35,0,0,1,.12-0.89q4.71-17.01,9.44-34.01a1.14,1.14,0,0,1,1.44-1.09h31.93a1.187,1.187,0,0,1,1.51,1.15q4.71,16.95,9.41,33.9a3.835,3.835,0,0,1,.13,1.01q0.015,8.28.01,16.57c0,1.1-.28,1.37-1.4,1.37h-25.67Zm-24.69-19.32h49.51q-4.56-16.41-9.09-32.73h-31.33Q1088.8,1269.315,1084.24,1285.68Zm-0.26,1.99v15.35h50.06v-15.34H1119.6c0,1.52.01,3,0,4.48a2.926,2.926,0,0,1-3.17,3.2h-14.76a2.954,2.954,0,0,1-3.28-3.28v-4.41h-14.41Zm16.34-.02v4.56a1.032,1.032,0,0,0,1.25,1.22q7.455,0,14.93-.01a0.988,0.988,0,0,0,1.17-1.16c0.01-1.38.01-2.77,0-4.15,0-.15-0.03-0.3-0.04-0.46h-17.31Zm8.74-7.72q9.465,0,18.92-.01a1.1,1.1,0,0,1,1.22.66,0.953,0.953,0,0,1-.83,1.27,7.816,7.816,0,0,1-.84.01h-37.78a0.961,0.961,0,0,1-1-.98,0.947,0.947,0,0,1,1.03-.95c1.99-.01,3.97,0,5.96,0h13.32Zm-0.05-5.79h17.22a4.821,4.821,0,0,1,.54.01,0.959,0.959,0,0,1,.02,1.91,5,5,0,0,1-.55.01h-34.51a3.247,3.247,0,0,1-.54-0.01,0.959,0.959,0,0,1,.05-1.91c0.2-.02.4-0.01,0.6-0.01h17.17Zm-0.07-3.85H1093.4a4.866,4.866,0,0,1-.54-0.01,0.957,0.957,0,0,1,0-1.91,3.846,3.846,0,0,1,.48-0.01h31.32a3.846,3.846,0,0,1,.48.01,0.957,0.957,0,0,1,0,1.91c-0.2.02-.4,0.01-0.61,0.01h-15.59Zm0.09-7.72q7.08,0,14.16.02a1.54,1.54,0,0,1,1.02.37,0.923,0.923,0,0,1-.57,1.52,2.42,2.42,0,0,1-.54.02h-28.2a2.42,2.42,0,0,1-.54-0.02,0.957,0.957,0,0,1,.03-1.89,3.012,3.012,0,0,1,.6-0.02h14.04Zm-0.02-3.85h-12.47a2.442,2.442,0,0,1-.54-0.02,0.919,0.919,0,0,1-.83-0.95,0.929,0.929,0,0,1,.84-0.95,2.946,2.946,0,0,1,.42-0.01h25.17a1.025,1.025,0,0,1,1.23.94,1.036,1.036,0,0,1-1.24.99h-12.58Z" transform="translate(-1082 -1251)"/>
</svg>
