<svg xmlns="http://www.w3.org/2000/svg" width="185.724" height="70.475" viewBox="0 0 185.724 70.475"><g transform="translate(-217.898 -230.573)"><path d="M3436.415,2048.029a4.554,4.554,0,0,0,0-9.1h-5.28v9.1Zm0-14.646a10.095,10.095,0,1,1,0,20.185h-5.28v9.877h-5.926v-30.062Z" transform="translate(-3130.532 -1763.002)" fill="#fefefe"/><path d="M4366.531,2368.67h5.54v21.472h-5.54v-2.4c-1.332,2.017-3.479,3-6.4,3a7.764,7.764,0,0,1-5.838-2.361,9.068,9.068,0,0,1-2.278-6.527V2368.67h5.54v12.5c0,2.879,1.677,4.425,4.249,4.425,2.877,0,4.723-1.761,4.723-5.326Z" transform="translate(-4033.573 -2089.698)" fill="#fefefe"/><path d="M5252.65,2063.522h5.54V2033.46h-5.54Z" transform="translate(-4911.141 -1763.078)" fill="#fefefe"/><path d="M5643.911,2048.029a4.554,4.554,0,0,0,0-9.1h-5.285v9.1Zm0-14.646a10.095,10.095,0,1,1,0,20.185h-5.285v9.877H5632.7v-30.062Z" transform="translate(-5281.451 -1763.002)" fill="#fefefe"/><path d="M6574.278,2368.67h5.541v21.472h-5.539v-2.4c-1.331,2.017-3.479,3-6.4,3a7.766,7.766,0,0,1-5.838-2.361,9.075,9.075,0,0,1-2.277-6.527V2368.67h5.54v12.5c0,2.879,1.676,4.425,4.249,4.425,2.878,0,4.723-1.761,4.723-5.326Z" transform="translate(-6184.744 -2089.698)" fill="#fefefe"/><path d="M7460.23,2063.522h5.539V2033.46h-5.539Z" transform="translate(-7062.147 -1763.078)" fill="#fefefe"/><path d="M459.6,480.1H429.22l3.39,17.73A29.417,29.417,0,0,1,459.6,480.1Z" transform="translate(-211.322 -249.527)" fill="#df325b"/><path d="M1615.364,480.1h-.584c.2,0,.392.026.589.031Z" transform="translate(-1366.499 -249.527)" fill="#df325b"/><path d="M804.18,2440.773l3.742,19.569h30.966l-2.537-13.272a29.436,29.436,0,0,1-32.17-6.3Z" transform="translate(-576.672 -2159.95)" fill="#df325b"/><path d="M589.091,480.131c-.2,0-.39-.031-.589-.031a29.418,29.418,0,0,0-26.992,17.73l6.218,32.516a29.411,29.411,0,1,0,21.363-50.216Z" transform="translate(-340.221 -249.527)" fill="#fad627"/></g></svg>