<svg xmlns="http://www.w3.org/2000/svg" viewBox="0 0 62 68"><defs><filter id="a" width="62" height="68" x="5570" y="488" filterUnits="userSpaceOnUse"><feFlood flood-color="#727272" result="flood"/><feComposite in2="SourceGraphic" operator="in" result="composite"/><feBlend in2="SourceGraphic" result="blend"/></filter></defs><path fill="#7e7e7e" fill-rule="evenodd" d="M5625.24 490.265h-3.38v-1.134a1.13 1.13 0 1 0-2.26 0v1.134h-2.25v-1.134a1.13 1.13 0 1 0-2.26 0v1.134h-2.25v-1.134a1.13 1.13 0 1 0-2.26 0v1.134h-2.25v-1.134a1.13 1.13 0 1 0-2.26 0v1.134h-15.78v-1.134a1.13 1.13 0 1 0-2.26 0v1.134h-2.25v-1.134a1.13 1.13 0 1 0-2.26 0v1.134h-2.25v-1.134a1.13 1.13 0 1 0-2.26 0v1.134h-2.25v-1.134a1.13 1.13 0 1 0-2.26 0v1.134h-3.38a1.134 1.134 0 0 0-1.13 1.133v53.275a1.135 1.135 0 0 0 1.13 1.134h32.75a1.124 1.124 0 0 0 1.13-1.13v-.083l-.01-.131c-.02-.306-.05-.612-.05-.923a14.941 14.941 0 0 1 .4-3.331 14.539 14.539 0 0 1 1.11-3.141l.15-.3c.15-.288.31-.568.48-.845.05-.087.1-.177.16-.263q.27-.432.57-.842a1.817 1.817 0 0 0 .13-.173c.23-.3.46-.583.7-.861l.04-.037a14.811 14.811 0 0 1 5.9-4.037l.19-.074c.31-.107.62-.2.93-.291.14-.04.28-.076.43-.113.26-.066.53-.127.79-.178.23-.042.46-.074.7-.106.2-.029.4-.062.61-.081.45-.043.91-.071 1.37-.071.31 0 .61.024.9.045l.14.01h.03a14.65 14.65 0 0 1 4.16.935 1.127 1.127 0 0 0 1.46-.645 1.155 1.155 0 0 0 .08-.41V491.4a1.134 1.134 0 0 0-1.13-1.133zM5605.01 535a1.874 1.874 0 0 0-.12.19c-.17.287-.31.583-.45.88-.08.163-.16.325-.24.492-.12.273-.24.552-.35.833l-.03.083v-5.27h3.21a17.5 17.5 0 0 0-2.02 2.792zm5.57-5.814c-.39.247-.76.51-1.13.787v-.032h-5.63v-6.8h6.76v6.046zm0-8.313h-6.76v-6.8h6.76v6.8zm0-9.068h-6.76V505h6.76v6.8zm9.02 2.267v6.8h-6.76v-6.8h6.76zm-6.76-2.267V505h6.76v6.8h-6.76zm6.76 14.735c-.52 0-1.05.031-1.56.08-.23.02-.44.055-.66.083-.27.038-.55.076-.82.127s-.57.114-.85.183c-.17.042-.35.086-.52.134-.34.093-.68.193-1.01.307-.05.016-.09.033-.13.048-.41.144-.82.294-1.21.468v-4.83h6.76v3.4zm4.51.626a16.809 16.809 0 0 0-2.25-.471v-22.828a1.135 1.135 0 0 0-1.13-1.134h-45.1a1.135 1.135 0 0 0-1.13 1.134v36.273a1.135 1.135 0 0 0 1.13 1.133h27.23a15.651 15.651 0 0 0-.17 2.267h-30.44v-43.074h51.86v26.7zm-29.31 2.775v-6.8h6.76v6.8h-6.76zm6.76 2.267v6.8h-6.76v-6.8h6.76zm-6.76-11.335v-6.8h6.76v6.8h-6.76zm0-9.068V505h6.76v6.8h-6.76zm-9.02 18.136v-6.8h6.76v6.8h-6.76zm6.76 2.267v6.8h-6.76v-6.8h6.76zm-6.76-11.335v-6.8h6.76v6.8h-6.76zm0-9.068V505h6.76v6.8h-6.76zm-9.02 18.136v-6.8h6.76v6.8h-6.76zm6.76 2.267v6.8h-6.76v-6.8h6.76zm-6.76-11.335v-6.8h6.76v6.8h-6.76zm0-9.068V505h6.76v6.8h-6.76zm47.35-13.6h-51.86v-5.668h2.25v1.134a1.13 1.13 0 1 0 2.26 0v-1.134h2.25v1.134a1.13 1.13 0 1 0 2.26 0v-1.134h2.25v1.134a1.13 1.13 0 1 0 2.26 0v-1.134h2.25v1.134a1.13 1.13 0 1 0 2.26 0v-1.134h15.78v1.134a1.13 1.13 0 1 0 2.26 0v-1.134h2.25v1.134a1.13 1.13 0 1 0 2.26 0v-1.134h2.25v1.134a1.13 1.13 0 1 0 2.26 0v-1.134h2.25v1.134a1.13 1.13 0 1 0 2.26 0v-1.134h2.25v5.663zm-4.51 32.871a12.469 12.469 0 1 0 12.4 12.464 12.434 12.434 0 0 0-12.4-12.469zm0 22.671a10.2 10.2 0 1 1 10.15-10.2 10.18 10.18 0 0 1-10.15 10.195zm6.41-16.671a1.128 1.128 0 0 0-1.57 0l-4.84 4.866-2.58-2.6a1.13 1.13 0 0 0-1.6.028 1.142 1.142 0 0 0 0 1.575l3.38 3.4a1.131 1.131 0 0 0 1.6 0l5.63-5.668a1.129 1.129 0 0 0-.02-1.606z" data-name="Фигура 5" filter="url(#a)" transform="translate(-5570 -488)"/></svg>