<svg xmlns="http://www.w3.org/2000/svg" xmlns:xlink="http://www.w3.org/1999/xlink" width="77" height="77" viewBox="0 0 77 77">
  <metadata><?xpacket begin="﻿" id="W5M0MpCehiHzreSzNTczkc9d"?>
<x:xmpmeta xmlns:x="adobe:ns:meta/" x:xmptk="Adobe XMP Core 5.6-c138 79.159824, 2016/09/14-01:09:01        ">
   <rdf:RDF xmlns:rdf="http://www.w3.org/1999/02/22-rdf-syntax-ns#">
      <rdf:Description rdf:about=""/>
   </rdf:RDF>
</x:xmpmeta>
                                                                                                    
                                                                                                    
                                                                                                    
                                                                                                    
                                                                                                    
                                                                                                    
                                                                                                    
                                                                                                    
                                                                                                    
                                                                                                    
                                                                                                    
                                                                                                    
                                                                                                    
                                                                                                    
                                                                                                    
                                                                                                    
                                                                                                    
                                                                                                    
                                                                                                    
                                                                                                    
                           
<?xpacket end="w"?></metadata>
<defs>
    <style>
      .cls-1 {
        fill: #7393cf;
        fill-rule: evenodd;
        filter: url(#filter);
      }
    </style>
    <filter id="filter" x="5269" y="221" width="77" height="77" filterUnits="userSpaceOnUse">
      <feFlood result="flood" flood-color="#727272"/>
      <feComposite result="composite" operator="in" in2="SourceGraphic"/>
      <feBlend result="blend" in2="SourceGraphic"/>
    </filter>
  </defs>
  <path id="Фигура_2" data-name="Фигура 2" class="cls-1" d="M5295.95,249.23h2.56v-2.567h-2.56v2.567Zm0,5.134h2.56V251.8h-2.56v2.567Zm0,5.133h2.56V256.93h-2.56V259.5Zm0,5.133h2.56v-2.566h-2.56v2.566Zm5.13-15.4h2.57v-2.567h-2.57v2.567Zm0,5.134h2.57V251.8h-2.57v2.567Zm0,5.133h2.57V256.93h-2.57V259.5Zm0,5.133h2.57v-2.566h-2.57v2.566Zm5.13-15.4h2.57v-2.567h-2.57v2.567Zm0,5.134h2.57V251.8h-2.57v2.567Zm0,5.133h2.57V256.93h-2.57V259.5Zm0,5.133h2.57v-2.566h-2.57v2.566Zm5.14-15.4h2.56v-2.567h-2.56v2.567Zm-10.27-5.133h2.57V241.53h-2.57V244.1Zm5.13,0h2.57V241.53h-2.57V244.1Zm5.14,0h2.56V241.53h-2.56V244.1Zm0,10.267h2.56V251.8h-2.56v2.567Zm0,5.133h2.56V256.93h-2.56V259.5Zm0,5.133h2.56v-2.566h-2.56v2.566Zm5.13-15.4h2.57v-2.567h-2.57v2.567Zm0,5.134h2.57V251.8h-2.57v2.567Zm0,5.133h2.57V256.93h-2.57V259.5Zm0,5.133h2.57v-2.566h-2.57v2.566Zm28.24-24.383h-19.26V222.28a1.28,1.28,0,0,0-1.28-1.283h-33.37a1.278,1.278,0,0,0-1.28,1.282h0v17.967h-19.25a1.278,1.278,0,0,0-1.28,1.282h0v46.2a1.281,1.281,0,0,0,1.28,1.284h2.68a7.88,7.88,0,0,0-.11,1.283v6.417a1.28,1.28,0,0,0,1.28,1.283h66.73a1.286,1.286,0,0,0,1.29-1.282h0V290.3a6.916,6.916,0,0,0-.12-1.283h2.68a1.287,1.287,0,0,0,1.29-1.282h0v-46.2a1.286,1.286,0,0,0-1.28-1.283h0Zm-20.54,35.933a2.565,2.565,0,1,1-2.57-2.566,2.568,2.568,0,0,1,2.57,2.566h0Zm-30.8-2.566a2.567,2.567,0,1,1-2.57,2.566,2.568,2.568,0,0,1,2.57-2.566h0Zm-7.7,21.817h-10.27V290.3a5.135,5.135,0,0,1,10.27,0v5.134h0Zm-7.7-15.4a2.565,2.565,0,1,1,2.57,2.566,2.568,2.568,0,0,1-2.57-2.566h0Zm7.89,4.72a7.529,7.529,0,0,0-1.61-1.195,5.135,5.135,0,1,0-7.43,0,7.76,7.76,0,0,0-2.94,2.892h-2.33V242.813h17.97v30.008a5.065,5.065,0,0,0,.14,6.885,7.72,7.72,0,0,0-3.8,5.045h0Zm12.64,10.68h-10.26v-8.984a5.13,5.13,0,1,1,10.26,0v8.984h0Zm15.4,0h-12.83v-8.984a6.415,6.415,0,1,1,12.83,0v8.984h0Zm-10.26-21.817a3.85,3.85,0,1,1,3.85,3.85,3.847,3.847,0,0,1-3.85-3.85h0Zm11.66,8.421a9.061,9.061,0,0,0-3.68-3.555,6.418,6.418,0,1,0-9.04-.774,5.927,5.927,0,0,0,.77.774,9.061,9.061,0,0,0-3.68,3.555,7.688,7.688,0,0,0-2.59-2.329,5.1,5.1,0,0,0-4.99-8.477V223.563h30.8v47.666a5.112,5.112,0,0,0-5,8.477,7.783,7.783,0,0,0-2.59,2.329h0Zm11.44,8.262v5.134h-10.27v-8.984a5.135,5.135,0,0,1,10.27,0v3.85h0Zm12.83,5.134h-10.27V290.3a5.135,5.135,0,0,1,10.27,0v5.134h0Zm-7.7-15.4a2.565,2.565,0,1,1,2.57,2.566,2.568,2.568,0,0,1-2.57-2.566h0Zm11.55,6.416h-2.32a7.784,7.784,0,0,0-2.95-2.891,5.135,5.135,0,1,0-7.43,0,7.827,7.827,0,0,0-1.61,1.2,7.738,7.738,0,0,0-3.79-5.045,5.056,5.056,0,0,0,.13-6.886V242.813h17.97v43.634h0Zm-14.12-15.4h2.57V250.514h-2.57v20.533Zm7.7,0h2.57V250.514h-2.57v20.533Zm-61.6,0h2.57V250.514h-2.57v20.533Zm7.7,0h2.57V250.514h-2.57v20.533Zm32.09-44.917h-15.4a1.286,1.286,0,0,0-1.29,1.282h0V237.68a1.29,1.29,0,0,0,1.29,1.284h15.4a1.279,1.279,0,0,0,1.28-1.282V227.414a1.281,1.281,0,0,0-1.28-1.284h0Zm-1.29,10.267h-12.83v-7.7h12.83v7.7Z" transform="translate(-5269 -221)"/>
</svg>
