<svg xmlns="http://www.w3.org/2000/svg" viewBox="0 0 72 72"><defs><filter id="a" width="72" height="72" x="5560" y="222" filterUnits="userSpaceOnUse"><feFlood flood-color="#727272" result="flood"/><feComposite in2="SourceGraphic" operator="in" result="composite"/><feBlend in2="SourceGraphic" result="blend"/></filter></defs><path fill="#8eb37a" fill-rule="evenodd" d="M5623.97 282.529l-1.18-.474a36.025 36.025 0 0 0 2.98-44.307 1.166 1.166 0 0 0-.18-.258 36.345 36.345 0 0 0-6.28-6.923 1.136 1.136 0 1 0-1.47 1.732 34.344 34.344 0 0 1 5.15 5.471 50.387 50.387 0 0 1-8.52 2.367 41.018 41.018 0 0 0-3.27-7.357 26.235 26.235 0 0 0-5.9-7.211 33.633 33.633 0 0 1 9.56 4.463 1.136 1.136 0 0 0 1.27-1.884 36 36 0 0 0-46.9 53.922l-1.17.457a6.462 6.462 0 0 0-4.09 6.266v4.074a1.139 1.139 0 0 0 1.14 1.138h16.73a.978.978 0 0 0 .16-.013 1.079 1.079 0 0 0 .16.013h4.63a1.137 1.137 0 1 0 0-2.274h-3.49v-3.96a5.558 5.558 0 0 1 3.41-5.425l.06-.019 5.53-2.169c.01.013.03.027.04.039l2.94 2.866a1.136 1.136 0 0 0 .79.323h.02a1.137 1.137 0 0 0 .8-.349l2.83-2.931 5.53 2.217a.521.521 0 0 0 .05.02 5.556 5.556 0 0 1 3.42 5.428v3.96h-18.38a1.137 1.137 0 0 0 0 2.274h36.58a1.143 1.143 0 0 0 1.13-1.145v-4.067a6.463 6.463 0 0 0-4.08-6.264zm-3.44-1.379l-1.12-.45v-.647a5.925 5.925 0 0 0 2.64-3.277 3.214 3.214 0 0 0 1.78-5.693v-2.021a7.668 7.668 0 0 0-6.69-7.6c.04-.771.07-1.548.08-2.325h12.49a33.614 33.614 0 0 1-9.18 22.011zm-4.1-2.56h-1.04a3.644 3.644 0 0 1-3.64-3.643v-3.008a11.748 11.748 0 0 0 6.12-2.366 5.075 5.075 0 0 0 2.2 2.106v3.268a3.65 3.65 0 0 1-3.64 3.643zm.71 2.23v.63l-1.27 1.314-1.19-1.159v-.785a5.91 5.91 0 0 0 .71.044h1.04a6.041 6.041 0 0 0 .71-.044zm-6.53-11.081q-.06 0-.12.006h-.03c-.03 0-.06.007-.08.012s-.03.009-.05.013l-.06.015a.186.186 0 0 1-.04.013v-.741a5.4 5.4 0 0 1 5.39-5.388h.55a5.388 5.388 0 0 1 5.38 5.388v.732l-.06-.018-.03-.009c-1.59-.36-2.11-2.476-2.11-2.492a1.137 1.137 0 0 0-2.03-.415c-2.06 2.846-6.65 2.879-6.71 2.879zm11.73 4.6v-1.532a.933.933 0 0 1 0 1.532zm1.98-34.655a33.637 33.637 0 0 1 5.39 17.181h-12.49a57.071 57.071 0 0 0-2.08-14.549 50.787 50.787 0 0 0 9.18-2.632zm-9.37 17.181h-11.64a9.274 9.274 0 0 0-6.17-3.036v-9.777a102.606 102.606 0 0 0 15.76-1.326 55.057 55.057 0 0 1 2.05 14.139zm-10.03 11.872a1.46 1.46 0 0 1-1.07 1.406v-2.812a1.462 1.462 0 0 1 1.07 1.406zm-7.78-44.4c4.52.484 8.78 3.841 12.09 9.58a38.872 38.872 0 0 1 2.98 6.627 100.968 100.968 0 0 1-15.07 1.236v-17.445zm-.73 31.737a7.033 7.033 0 0 1 7.03 7.024v1.39a.04.04 0 0 1-.02-.018l-.06-.038a.12.12 0 0 0-.04-.026.763.763 0 0 0-.1-.057.2.2 0 0 0-.05-.023l-.06-.024a.163.163 0 0 0-.04-.016c-.02-.007-.05-.013-.07-.019l-.03-.009c-2.16-.491-2.84-3.307-2.85-3.332a1.136 1.136 0 0 0-2.03-.415c-2.66 3.681-8.54 3.718-8.62 3.718h-.01a1.014 1.014 0 0 0-.11.006h-.04c-.02 0-.05.007-.07.012a.347.347 0 0 0-.05.013q-.03.006-.06.015l-.06.02a.378.378 0 0 1-.05.018l-.06.029a.189.189 0 0 1-.04.019l-.06.036-.03.021a.193.193 0 0 0-.05.039.138.138 0 0 0-.04.026l-.03.027v-1.41a7.033 7.033 0 0 1 7.03-7.024h.67zm-19.36.793a55.066 55.066 0 0 1 2.05-14.141 102.815 102.815 0 0 0 15.76 1.328v9.789a9.3 9.3 0 0 0-6.03 3.031c-.04 0-.08-.007-.12-.007h-11.66zm11.28 10.455v2.836a1.458 1.458 0 0 1 0-2.836zm6.53-42.985v17.443a100.8 100.8 0 0 1-15.07-1.24 38.865 38.865 0 0 1 2.98-6.623c3.31-5.739 7.57-9.1 12.09-9.58zm-8.17 1.244a26.04 26.04 0 0 0-5.89 7.2 40.988 40.988 0 0 0-3.27 7.354 50.079 50.079 0 0 1-8.5-2.36 33.8 33.8 0 0 1 17.66-12.195zm-19 14.11a50.777 50.777 0 0 0 9.17 2.624 57.1 57.1 0 0 0-2.08 14.552h-12.49a33.536 33.536 0 0 1 5.4-17.176zm7.32 41.131a6.041 6.041 0 0 0 .71.044h1.04a5.91 5.91 0 0 0 .71-.044v.63l-1.27 1.314-1.19-1.159v-.787zm1.75-2.23h-1.04a3.644 3.644 0 0 1-3.64-3.643v-3.009a11.792 11.792 0 0 0 6.13-2.367 5.11 5.11 0 0 0 2.19 2.107v3.267a3.644 3.644 0 0 1-3.64 3.643zm2.93-11.315a1.148 1.148 0 0 0-.88-.862 1.134 1.134 0 0 0-1.15.447c-2.06 2.848-6.66 2.879-6.71 2.879h-.01a1.014 1.014 0 0 0-.11.006h-.04c-.02 0-.05.007-.08.012l-.04.012-.06.016a.186.186 0 0 0-.04.013v-.741a5.4 5.4 0 0 1 5.39-5.388h.54a5.4 5.4 0 0 1 5.39 5.388v.732a.391.391 0 0 0-.07-.018l-.03-.009c-1.58-.36-2.1-2.476-2.1-2.492zm-17.4-8.136h12.48c.02.783.05 1.565.09 2.341a7.664 7.664 0 0 0-6.56 7.582v2.012a3.209 3.209 0 0 0 1.8 5.7 5.92 5.92 0 0 0 2.64 3.275v.641l-1.24.486a33.546 33.546 0 0 1-9.21-22.041zm7.52 13.643v1.582a.931.931 0 0 1 0-1.582zm11.22 14.99v3.959h-14.79v-2.938a4.227 4.227 0 0 1 2.58-4.123.358.358 0 0 1 .05-.019l4.29-1.679 2.28 2.219a1.118 1.118 0 0 0 .79.323h.02a1.141 1.141 0 0 0 .8-.348l2.15-2.234 2.66 1.067a8.553 8.553 0 0 0-.83 3.773zm10.96-9.935l-6.03 2.363a7.2 7.2 0 0 0-2.77 1.88l-3.45-1.38v-.647a5.938 5.938 0 0 0 2.65-3.277 3.209 3.209 0 0 0 1.77-5.693v-2.021a7.665 7.665 0 0 0-7.02-7.634 43.43 43.43 0 0 1-.09-2.289h10.27a9.344 9.344 0 0 0-.88 3.957v2.653a3.732 3.732 0 0 0 2.18 6.723 7.135 7.135 0 0 0 3.37 4.205v1.16zm-9.31-3.5v-1.532a.947.947 0 0 1 0 1.532zm15.23 4.291v.07l-1.86 1.933-1.78-1.733v-1.431a7.032 7.032 0 0 0 1.17.1h1.3a7.032 7.032 0 0 0 1.17-.1v1.158zm-1.17-3.333h-1.3a4.845 4.845 0 0 1-4.84-4.841v-4.015a14.279 14.279 0 0 0 8.02-3.15 6.221 6.221 0 0 0 2.96 2.892v4.273a4.845 4.845 0 0 1-4.84 4.841zm12.1 6.791a7.219 7.219 0 0 0-2.77-1.886l-5.88-2.359v-1.166a7.134 7.134 0 0 0 3.37-4.206 3.734 3.734 0 0 0 2.15-6.71V263.1a9.344 9.344 0 0 0-.88-3.957h10.12c-.02.769-.05 1.537-.09 2.3a7.672 7.672 0 0 0-6.9 7.624v2.012a3.209 3.209 0 0 0 1.8 5.7 5.962 5.962 0 0 0 2.64 3.275v.641l-3.56 1.394zm.63-9.306v1.582a.943.943 0 0 1 0-1.582zm16.31 18.949H5611v-3.96a8.5 8.5 0 0 0-.83-3.759l2.65-1.04 2.28 2.219a1.136 1.136 0 0 0 .79.323h.02a1.141 1.141 0 0 0 .8-.348l2.16-2.234 4.27 1.716c.03.008.04.012.06.019a4.238 4.238 0 0 1 2.58 4.126v2.938z" data-name="Фигура 4" filter="url(#a)" transform="translate(-5560 -222)"/></svg>