<svg xmlns="http://www.w3.org/2000/svg" viewBox="0 0 69 69"><defs><filter id="a" width="69" height="69" x="4938" y="476" filterUnits="userSpaceOnUse"><feFlood flood-color="#727272" result="flood"/><feComposite in2="SourceGraphic" operator="in" result="composite"/><feBlend in2="SourceGraphic" result="blend"/></filter></defs><path fill="#727272" fill-rule="evenodd" d="M5001.49 509.4h-11.3a61.855 61.855 0 0 0-2.17-15.517h7.41a1.1 1.1 0 0 0 0-2.2h-8.09a34.665 34.665 0 0 0-4.48-9.2 1.1 1.1 0 1 0-1.79 1.279 31.8 31.8 0 0 1 3.95 7.919h-11.42v-10.176a1.1 1.1 0 1 0-2.2 0v10.175h-11.42a31.8 31.8 0 0 1 3.95-7.919 1.1 1.1 0 1 0-1.79-1.279 34.68 34.68 0 0 0-4.48 9.2h-8.09a1.1 1.1 0 1 0 0 2.2h7.41a61.855 61.855 0 0 0-2.17 15.517h-11.3a1.1 1.1 0 1 0 0 2.2h11.3a61.855 61.855 0 0 0 2.17 15.517h-7.41a1.1 1.1 0 1 0 0 2.2h8.09a34.694 34.694 0 0 0 4.48 9.2 1.1 1.1 0 0 0 1.8-1.28 31.476 31.476 0 0 1-3.96-7.92h11.42V539.5a1.1 1.1 0 1 0 2.2 0v-10.18h11.42a31.476 31.476 0 0 1-3.96 7.92 1.109 1.109 0 0 0 .26 1.536 1.1 1.1 0 0 0 .64.205 1.117 1.117 0 0 0 .9-.461 34.694 34.694 0 0 0 4.48-9.2h8.09a1.1 1.1 0 0 0 0-2.2h-7.41a61.861 61.861 0 0 0 2.17-15.517h11.3a1.1 1.1 0 1 0 0-2.2zm-15.76-15.517a58.968 58.968 0 0 1 2.25 15.517h-14.38v-15.518h12.13zm-26.46 0h12.13V509.4h-14.38a58.968 58.968 0 0 1 2.25-15.518zm0 33.236a58.975 58.975 0 0 1-2.25-15.517h14.38v15.517h-12.13zm26.46 0h-12.13V511.6h14.38a58.968 58.968 0 0 1-2.25 15.518zm11.16-41.013a34.5 34.5 0 0 0-53.2 43.38l-4.22 12.647a1.106 1.106 0 0 0 1.4 1.393l12.64-4.216a34.5 34.5 0 0 0 43.38-53.205zM4972.5 542.8a32.146 32.146 0 0 1-18.2-5.613 1.08 1.08 0 0 0-.62-.192 1.123 1.123 0 0 0-.35.056l-11.07 3.69 3.69-11.071a1.108 1.108 0 0 0-.13-.969 32.3 32.3 0 1 1 26.68 14.099z" data-name="Фигура 8" filter="url(#a)" transform="translate(-4938 -476)"/></svg>