<svg xmlns="http://www.w3.org/2000/svg" viewBox="0 0 79 72"><defs><filter id="a" width="79" height="72" x="5264" y="484" filterUnits="userSpaceOnUse"><feFlood flood-color="#727272" result="flood"/><feComposite in2="SourceGraphic" operator="in" result="composite"/><feBlend in2="SourceGraphic" result="blend"/></filter></defs><path fill="#7e7e7e" fill-rule="evenodd" d="M5269.26 484h60.57a5.3 5.3 0 0 1 5.27 5.333V532h6.58a1.318 1.318 0 0 1 1.31 1.333 5.294 5.294 0 0 1-5.26 5.333h-38.18v16a1.325 1.325 0 0 1-1.32 1.333 1.31 1.31 0 0 1-.93-.39l-6.97-7.057-6.97 7.057a1.31 1.31 0 0 1-.93.39 1.277 1.277 0 0 1-.5-.1 1.329 1.329 0 0 1-.82-1.232v-16h-3.95a5.294 5.294 0 0 1-5.26-5.333v-42.668h-6.59a1.324 1.324 0 0 1-1.31-1.333 5.3 5.3 0 0 1 5.26-5.333zm5.27 5.333V532h5.27v2.666h-4.92a2.627 2.627 0 0 0 2.28 1.333h3.95v-1.333h2.64v16.78l5.65-5.724a1.3 1.3 0 0 1 1.86 0l5.65 5.724v-16.78h2.64V536h38.18a2.627 2.627 0 0 0 2.28-1.333h-39.15V532h31.6v-42.667a2.65 2.65 0 0 0-2.63-2.666h-56.03a5.412 5.412 0 0 1 .73 2.666zm-2.99-1.333a2.617 2.617 0 0 0-3.6-.972 2.7 2.7 0 0 0-.96.972h4.56zm6.38 37.723l1.68-3.06-1.69-3.057a1.342 1.342 0 0 1 .5-1.816c.03-.018.07-.035.1-.05l3.14-1.458.41-3.479a1.316 1.316 0 0 1 1.46-1.167c.03 0 .07.009.1.016l3.4.682 2.34-2.575a1.346 1.346 0 0 1 1.92-.015c.01 0 .01.01.02.015l2.34 2.575 3.4-.682a1.312 1.312 0 0 1 1.54 1.049.369.369 0 0 1 .02.1l.41 3.479 3.14 1.46a1.344 1.344 0 0 1 .65 1.767c-.02.034-.03.067-.05.1l-1.69 3.054 1.69 3.057a1.351 1.351 0 0 1-.5 1.816c-.03.018-.07.035-.1.051l-3.14 1.46-.41 3.482a1.317 1.317 0 0 1-1.46 1.167c-.04 0-.07-.01-.1-.016l-3.4-.682-2.34 2.575a1.305 1.305 0 0 1-1.86.073c-.03-.024-.05-.048-.08-.073l-2.34-2.571-3.4.682a1.29 1.29 0 0 1-1.03-.23 1.388 1.388 0 0 1-.53-.921l-.4-3.48-3.14-1.46a1.335 1.335 0 0 1-.65-1.767.419.419 0 0 1 .05-.1zm4.34-2.409l-1.35 2.448 2.51 1.169a1.321 1.321 0 0 1 .76 1.056l.33 2.79 2.72-.545a1.283 1.283 0 0 1 1.22.4l1.88 2.064 1.88-2.062a1.315 1.315 0 0 1 .97-.427 1.118 1.118 0 0 1 .25.026l2.72.545.33-2.79a1.33 1.33 0 0 1 .75-1.056l2.52-1.169-1.35-2.448a1.318 1.318 0 0 1 0-1.3v.006l1.35-2.448-2.52-1.17a1.329 1.329 0 0 1-.75-1.055l-.33-2.791-2.72.546a1.29 1.29 0 0 1-1.22-.4l-1.88-2.068-1.88 2.061a1.286 1.286 0 0 1-1.22.4l-2.72-.545-.33 2.79a1.321 1.321 0 0 1-.76 1.056l-2.51 1.169 1.35 2.448a1.318 1.318 0 0 1 0 1.3zm8.07-7.317a6.667 6.667 0 1 1-6.58 6.666 6.619 6.619 0 0 1 6.58-6.666zm0 10.666a4 4 0 1 0-3.95-4 3.976 3.976 0 0 0 3.95 4zm2.63-32h21.07V492h-21.07v2.667zm-13.16 8h47.4V500h-47.4v2.666zm0 5.333h47.4v-2.667h-47.4V508zm28.96 17.332h17.12v-2.667h-17.12v2.667z" data-name="Фигура 7" filter="url(#a)" transform="translate(-5264 -484)"/></svg>