<svg xmlns="http://www.w3.org/2000/svg" xmlns:xlink="http://www.w3.org/1999/xlink" width="69" height="69" viewBox="0 0 69 69">
  <metadata><?xpacket begin="﻿" id="W5M0MpCehiHzreSzNTczkc9d"?>
<x:xmpmeta xmlns:x="adobe:ns:meta/" x:xmptk="Adobe XMP Core 5.6-c138 79.159824, 2016/09/14-01:09:01        ">
   <rdf:RDF xmlns:rdf="http://www.w3.org/1999/02/22-rdf-syntax-ns#">
      <rdf:Description rdf:about=""/>
   </rdf:RDF>
</x:xmpmeta>
                                                                                                    
                                                                                                    
                                                                                                    
                                                                                                    
                                                                                                    
                                                                                                    
                                                                                                    
                                                                                                    
                                                                                                    
                                                                                                    
                                                                                                    
                                                                                                    
                                                                                                    
                                                                                                    
                                                                                                    
                                                                                                    
                                                                                                    
                                                                                                    
                                                                                                    
                                                                                                    
                           
<?xpacket end="w"?></metadata>
<defs>
    <style>
      .cls-1 {
        fill: #727272;
        fill-rule: evenodd;
        filter: url(#filter);
      }
    </style>
    <filter id="filter" x="4938" y="476" width="69" height="69" filterUnits="userSpaceOnUse">
      <feFlood result="flood" flood-color="#727272"/>
      <feComposite result="composite" operator="in" in2="SourceGraphic"/>
      <feBlend result="blend" in2="SourceGraphic"/>
    </filter>
  </defs>
  <path id="Фигура_8" data-name="Фигура 8" class="cls-1" d="M5001.49,509.4h-11.3a61.855,61.855,0,0,0-2.17-15.517h7.41a1.1,1.1,0,0,0,0-2.2h-8.09a34.665,34.665,0,0,0-4.48-9.2,1.1,1.1,0,1,0-1.79,1.279,31.8,31.8,0,0,1,3.95,7.919H4973.6V481.505a1.1,1.1,0,1,0-2.2,0V491.68h-11.42a31.8,31.8,0,0,1,3.95-7.919,1.1,1.1,0,1,0-1.79-1.279,34.68,34.68,0,0,0-4.48,9.2h-8.09a1.1,1.1,0,1,0,0,2.2h7.41a61.855,61.855,0,0,0-2.17,15.517h-11.3a1.1,1.1,0,1,0,0,2.2h11.3a61.855,61.855,0,0,0,2.17,15.517h-7.41a1.1,1.1,0,1,0,0,2.2h8.09a34.694,34.694,0,0,0,4.48,9.2,1.1,1.1,0,0,0,1.8-1.28,31.476,31.476,0,0,1-3.96-7.92h11.42V539.5a1.1,1.1,0,1,0,2.2,0V529.32h11.42a31.476,31.476,0,0,1-3.96,7.92,1.109,1.109,0,0,0,.26,1.536,1.1,1.1,0,0,0,.64.205,1.117,1.117,0,0,0,.9-0.461,34.694,34.694,0,0,0,4.48-9.2h8.09a1.1,1.1,0,0,0,0-2.2h-7.41a61.861,61.861,0,0,0,2.17-15.517h11.3a1.1,1.1,0,1,0,0-2.2h0Zm-15.76-15.517a58.968,58.968,0,0,1,2.25,15.517H4973.6V493.882h12.13Zm-26.46,0h12.13V509.4h-14.38A58.968,58.968,0,0,1,4959.27,493.882Zm0,33.236a58.975,58.975,0,0,1-2.25-15.517h14.38v15.517h-12.13Zm26.46,0H4973.6V511.6h14.38A58.968,58.968,0,0,1,4985.73,527.118Zm11.16-41.013a34.5,34.5,0,0,0-53.2,43.38l-4.22,12.647a1.106,1.106,0,0,0,1.4,1.393l12.64-4.216A34.5,34.5,0,0,0,4996.89,486.105ZM4972.5,542.8a32.146,32.146,0,0,1-18.2-5.613,1.08,1.08,0,0,0-.62-0.192,1.123,1.123,0,0,0-.35.056l-11.07,3.69,3.69-11.071a1.108,1.108,0,0,0-.13-0.969A32.3,32.3,0,1,1,4972.5,542.8Z" transform="translate(-4938 -476)"/>
</svg>
