<svg xmlns="http://www.w3.org/2000/svg" viewBox="0 0 77 77"><defs><filter id="a" width="77" height="77" x="5269" y="221" filterUnits="userSpaceOnUse"><feFlood flood-color="#3a6ac4" result="flood"/><feComposite in2="SourceGraphic" operator="in" result="composite"/><feBlend in2="SourceGraphic" result="blend"/></filter></defs><path fill="#7393cf" fill-rule="evenodd" d="M5295.95 249.23h2.56v-2.567h-2.56v2.567zm0 5.134h2.56V251.8h-2.56v2.567zm0 5.133h2.56v-2.567h-2.56v2.57zm0 5.133h2.56v-2.566h-2.56v2.566zm5.13-15.4h2.57v-2.567h-2.57v2.567zm0 5.134h2.57V251.8h-2.57v2.567zm0 5.133h2.57v-2.567h-2.57v2.57zm0 5.133h2.57v-2.566h-2.57v2.566zm5.13-15.4h2.57v-2.567h-2.57v2.567zm0 5.134h2.57V251.8h-2.57v2.567zm0 5.133h2.57v-2.567h-2.57v2.57zm0 5.133h2.57v-2.566h-2.57v2.566zm5.14-15.4h2.56v-2.567h-2.56v2.567zm-10.27-5.133h2.57v-2.567h-2.57v2.57zm5.13 0h2.57v-2.567h-2.57v2.57zm5.14 0h2.56v-2.567h-2.56v2.57zm0 10.267h2.56V251.8h-2.56v2.567zm0 5.133h2.56v-2.567h-2.56v2.57zm0 5.133h2.56v-2.566h-2.56v2.566zm5.13-15.4h2.57v-2.567h-2.57v2.567zm0 5.134h2.57V251.8h-2.57v2.567zm0 5.133h2.57v-2.567h-2.57v2.57zm0 5.133h2.57v-2.566h-2.57v2.566zm28.24-24.383h-19.26V222.28a1.28 1.28 0 0 0-1.28-1.283h-33.37a1.278 1.278 0 0 0-1.28 1.282v17.967h-19.25a1.278 1.278 0 0 0-1.28 1.282v46.2a1.281 1.281 0 0 0 1.28 1.284h2.68a7.88 7.88 0 0 0-.11 1.283v6.417a1.28 1.28 0 0 0 1.28 1.283h66.73a1.286 1.286 0 0 0 1.29-1.282V290.3a6.916 6.916 0 0 0-.12-1.283h2.68a1.287 1.287 0 0 0 1.29-1.282v-46.2a1.286 1.286 0 0 0-1.28-1.283zm-20.54 35.933a2.565 2.565 0 1 1-2.57-2.566 2.568 2.568 0 0 1 2.57 2.566zm-30.8-2.566a2.567 2.567 0 1 1-2.57 2.566 2.568 2.568 0 0 1 2.57-2.566zm-7.7 21.817h-10.27V290.3a5.135 5.135 0 0 1 10.27 0v5.134zm-7.7-15.4a2.565 2.565 0 1 1 2.57 2.566 2.568 2.568 0 0 1-2.57-2.566zm7.89 4.72a7.529 7.529 0 0 0-1.61-1.195 5.135 5.135 0 1 0-7.43 0 7.76 7.76 0 0 0-2.94 2.892h-2.33v-43.635h17.97v30.008a5.065 5.065 0 0 0 .14 6.885 7.72 7.72 0 0 0-3.8 5.045zm12.64 10.68h-10.26v-8.984a5.13 5.13 0 1 1 10.26 0v8.984zm15.4 0h-12.83v-8.984a6.415 6.415 0 1 1 12.83 0v8.984zm-10.26-21.817a3.85 3.85 0 1 1 3.85 3.85 3.847 3.847 0 0 1-3.85-3.85zm11.66 8.421a9.061 9.061 0 0 0-3.68-3.555 6.418 6.418 0 1 0-9.04-.774 5.927 5.927 0 0 0 .77.774 9.061 9.061 0 0 0-3.68 3.555 7.688 7.688 0 0 0-2.59-2.329 5.1 5.1 0 0 0-4.99-8.477v-47.666h30.8v47.666a5.112 5.112 0 0 0-5 8.477 7.783 7.783 0 0 0-2.59 2.329zm11.44 8.262v5.134h-10.27v-8.984a5.135 5.135 0 0 1 10.27 0v3.85zm12.83 5.134h-10.27V290.3a5.135 5.135 0 0 1 10.27 0v5.134zm-7.7-15.4a2.565 2.565 0 1 1 2.57 2.566 2.568 2.568 0 0 1-2.57-2.566zm11.55 6.416h-2.32a7.784 7.784 0 0 0-2.95-2.891 5.135 5.135 0 1 0-7.43 0 7.827 7.827 0 0 0-1.61 1.2 7.738 7.738 0 0 0-3.79-5.045 5.056 5.056 0 0 0 .13-6.886v-30.012h17.97v43.634zm-14.12-15.4h2.57v-20.533h-2.57v20.533zm7.7 0h2.57v-20.533h-2.57v20.533zm-61.6 0h2.57v-20.533h-2.57v20.533zm7.7 0h2.57v-20.533h-2.57v20.533zm32.09-44.917h-15.4a1.286 1.286 0 0 0-1.29 1.282v10.268a1.29 1.29 0 0 0 1.29 1.284h15.4a1.279 1.279 0 0 0 1.28-1.282v-10.268a1.281 1.281 0 0 0-1.28-1.284zm-1.29 10.267h-12.83v-7.7h12.83v7.7z" data-name="Фигура 2" filter="url(#a)" transform="translate(-5269 -221)"/></svg>