<svg fill="#3a6ac4" xmlns="http://www.w3.org/2000/svg" viewBox="0 0 78 77"><defs><filter id="a" width="78" height="77" x="4928" y="218" filterUnits="userSpaceOnUse"><feFlood flood-color="#3a6ac4" result="flood"/><feComposite in2="SourceGraphic" operator="in" result="composite"/><feBlend in2="SourceGraphic" result="blend"/></filter></defs><path fill="#929292" fill-rule="evenodd" d="M4994.27 251.333a3.826 3.826 0 0 0-7.22.014h-7.9v-5.13h5.11a1.279 1.279 0 0 0 1.28-1.282v-5.366a3.837 3.837 0 1 0-2.56 0v4.084h-3.83v-2.565a1.28 1.28 0 0 0-1.28-1.283h-2.56v-6.649a3.823 3.823 0 1 0-2.56 0v6.644h-5.11v-20.471a1.28 1.28 0 0 0-1.28-1.283c-15.77 0-28.13 11.455-28.13 26.078 0 6.946 2.75 16.143 7.17 24 .8 1.41 1.84 2.893 2.93 4.463 2.32 3.319 4.91 7.051 5.19 10.3a3.666 3.666 0 0 0-1.54 3.044 3.823 3.823 0 0 0 .85 2.381 3.981 3.981 0 0 0-1.18 2.839 3.853 3.853 0 0 0 3.84 3.848h21.74a3.873 3.873 0 0 0 3.84-3.9v-.039a3.881 3.881 0 0 0-1.18-2.763 3.979 3.979 0 0 0 .85-2.457 3.678 3.678 0 0 0-3.68-3.671h-9.42V257.76h2.56v3.847a1.277 1.277 0 0 0 1.27 1.282h3.84v1.519a3.837 3.837 0 1 0 2.56 0v-2.8a1.28 1.28 0 0 0-1.28-1.283h-3.84v-2.565h5.12a1.286 1.286 0 0 0 1.28-1.282v-2.565h7.9a3.833 3.833 0 1 0 7.22-2.579zm-10.01-16.659a1.283 1.283 0 1 1-1.28 1.283 1.279 1.279 0 0 1 1.28-1.283zm-33.83 36.44c-1.06-1.518-2.07-2.95-2.8-4.253-4.16-7.381-6.84-16.306-6.84-22.737 0-12.79 10.57-22.893 24.29-23.485v8.96c-.34.025-.68.056-1.05.1a1.272 1.272 0 0 0-1.1 1.008l-.39 1.858q-.48.115-.96.26l-1.28-1.426a1.269 1.269 0 0 0-1.45-.324 19.207 19.207 0 0 0-4.02 2.356 1.283 1.283 0 0 0-.45 1.424l.59 1.794c-.24.228-.48.464-.71.706l-1.78-.589a1.285 1.285 0 0 0-1.42.446 18.726 18.726 0 0 0-2.35 4.037 1.273 1.273 0 0 0 .32 1.458l1.42 1.277c-.09.317-.18.635-.25.953l-1.99.4a1.28 1.28 0 0 0-1.03 1.257v4.373a1.281 1.281 0 0 0 1.03 1.258l1.99.4c.07.318.16.636.25.953l-1.42 1.278a1.273 1.273 0 0 0-.32 1.458 18.726 18.726 0 0 0 2.35 4.037 1.281 1.281 0 0 0 1.42.445l1.78-.588c.23.242.47.478.71.706l-.59 1.791a1.283 1.283 0 0 0 .45 1.424 19.219 19.219 0 0 0 4.02 2.359 1.272 1.272 0 0 0 1.45-.325l1.28-1.425q.48.144.96.259l.39 1.858a1.273 1.273 0 0 0 1.1 1.009c.37.046.71.077 1.05.1v14.208h-9.06c-.52-3.78-3.19-7.625-5.59-11.059zm4.42-22.332a11.546 11.546 0 0 0 10.23 11.467v4.41l-.21-1.009a1.283 1.283 0 0 0-1.02-1 13.69 13.69 0 0 1-2.23-.6 1.312 1.312 0 0 0-.44-.075 1.272 1.272 0 0 0-.95.427l-1.2 1.345a15.742 15.742 0 0 1-1.92-1.134l.55-1.694a1.287 1.287 0 0 0-.39-1.38 13.3 13.3 0 0 1-1.63-1.641 1.291 1.291 0 0 0-1.38-.388l-1.69.557a16.151 16.151 0 0 1-1.13-1.931l1.34-1.206a1.274 1.274 0 0 0 .35-1.389 14.385 14.385 0 0 1-.6-2.234 1.272 1.272 0 0 0-1.01-1.03l-1.78-.359v-2.269l1.78-.358a1.272 1.272 0 0 0 1.01-1.03 14.367 14.367 0 0 1 .6-2.235 1.274 1.274 0 0 0-.35-1.389l-1.34-1.2a16.242 16.242 0 0 1 1.13-1.932l1.69.558a1.291 1.291 0 0 0 1.38-.388 14.147 14.147 0 0 1 1.63-1.645 1.282 1.282 0 0 0 .39-1.377l-.55-1.694a15.735 15.735 0 0 1 1.92-1.133l1.2 1.345a1.29 1.29 0 0 0 1.39.352 13.752 13.752 0 0 1 2.22-.6 1.28 1.28 0 0 0 1.03-1l.21-1.01v4.41a11.545 11.545 0 0 0-10.23 11.467zm10.23-8.876v17.751a8.97 8.97 0 0 1 0-17.751zm13.43 51.244a1.287 1.287 0 0 1-1.28 1.283h-21.74a1.305 1.305 0 0 1-1.28-1.328v-.045a1.287 1.287 0 0 1 1.28-1.283h21.74a1.306 1.306 0 0 1 1.28 1.328v.045zm-1.61-6.412a1.174 1.174 0 0 1 1.28 1.062v.13a1.281 1.281 0 0 1-1.28 1.283h-21.08a1.306 1.306 0 0 1-1.28-1.329v-.044a1.159 1.159 0 0 1 1.2-1.108c.03 0 .05 0 .08.006h21.08zm-.31-18a1.283 1.283 0 1 1-1.28 1.283 1.279 1.279 0 0 1 1.28-1.283zm-2.56-38.476a1.283 1.283 0 1 1-1.28 1.283 1.279 1.279 0 0 1 1.28-1.283zm2.56 26.933h-8.95v-12.826h8.95v12.825zm14.07-1.282a1.283 1.283 0 1 1 1.27-1.283 1.279 1.279 0 0 1-1.27 1.282zm-11.97 22.76a21.094 21.094 0 0 0-1.19 2.5l2.37.944a19.909 19.909 0 0 1 1.06-2.209zm2.88-4.518c-.5.724-1.01 1.46-1.49 2.2l2.15 1.393q.7-1.078 1.44-2.132zm2.91-4.267c-.43.686-.91 1.4-1.42 2.125l2.1 1.463c.53-.761 1.03-1.5 1.48-2.223zm2.4-4.47c-.37.769-.75 1.529-1.15 2.281l2.25 1.21q.63-1.179 1.2-2.387zm1.99-4.707c-.29.793-.61 1.587-.94 2.375l2.35 1q.525-1.234.99-2.477zm5.62-14.842l-2.56.02v.236c0 .715-.03 1.475-.1 2.257l2.55.215c.08-.853.11-1.684.11-2.472v-.256zm-.65-5.459l-2.49.583a20.087 20.087 0 0 1 .42 2.431l2.54-.3a22.7 22.7 0 0 0-.47-2.715zm-1.84-5.183l-2.3 1.122a23.328 23.328 0 0 1 .96 2.277l2.4-.859a23.467 23.467 0 0 0-1.06-2.541zm-2.92-4.644l-2.01 1.6a23.531 23.531 0 0 1 1.43 2.016l2.16-1.37c-.49-.78-1.02-1.529-1.58-2.247zm-3.84-3.914l-1.63 1.976a23.829 23.829 0 0 1 1.83 1.677l1.82-1.8a25.557 25.557 0 0 0-2.02-1.854zm-4.52-3.057l-1.22 2.257c.73.4 1.45.829 2.13 1.287l1.42-2.129c-.74-.505-1.53-.98-2.33-1.416zm-5.01-2.128l-.78 2.445c.8.253 1.58.543 2.33.863l1-2.36c-.82-.353-1.68-.671-2.55-.949zm-5.31-1.178l-.33 2.545q1.245.16 2.46.43l.55-2.5c-.88-.2-1.78-.358-2.68-.476zm-39.84 71.517h2.55v-2.564h-2.55v2.564zm0 5.131h2.55v-2.565h-2.55v2.565zm2.55-2.565h2.56v-2.566h-2.56v2.566zm-5.11 0h2.56v-2.566H4928v2.566zm72.88-71.822h2.56V218h-2.56v2.565zm0 5.13h2.56v-2.565h-2.56v2.568zm2.56-2.565h2.56v-2.565h-2.56v2.565zm-5.11 0h2.55v-2.565h-2.55v2.565z" data-name="Фигура 1" filter="url(#a)" transform="translate(-4928 -218)"/></svg>