<svg xmlns="http://www.w3.org/2000/svg" fill="#fff" data-name="Layer 1" viewBox="0 0 409.6 409.6"><defs><clipPath id="a" transform="translate(-478 -179)"><path fill="none" d="M478 179h409.92v410H478z"/></clipPath></defs><g clip-path="url(#a)"><path d="M307.2 153.6a153.6 153.6 0 1 0-153.6 153.6 153.6 153.6 0 0 0 153.6-153.6zM153.6 268.8a115.2 115.2 0 1 1 115.2-115.2 115.33 115.33 0 0 1-115.2 115.2zm244.75 75.25l-94-94a180.78 180.78 0 0 1-54.3 54.3l94 94a38.4 38.4 0 0 0 54.3-54.3zm0 0"/></g></svg>