<svg xmlns="http://www.w3.org/2000/svg" width="14" height="14" viewBox="0 0 14 14">
  <metadata><?xpacket begin="﻿" id="W5M0MpCehiHzreSzNTczkc9d"?>
<x:xmpmeta xmlns:x="adobe:ns:meta/" x:xmptk="Adobe XMP Core 5.6-c138 79.159824, 2016/09/14-01:09:01        ">
   <rdf:RDF xmlns:rdf="http://www.w3.org/1999/02/22-rdf-syntax-ns#">
      <rdf:Description rdf:about=""/>
   </rdf:RDF>
</x:xmpmeta>
                                                                                                    
                                                                                                    
                                                                                                    
                                                                                                    
                                                                                                    
                                                                                                    
                                                                                                    
                                                                                                    
                                                                                                    
                                                                                                    
                                                                                                    
                                                                                                    
                                                                                                    
                                                                                                    
                                                                                                    
                                                                                                    
                                                                                                    
                                                                                                    
                                                                                                    
                                                                                                    
                           
<?xpacket end="w"?></metadata>
<defs>
    <style>
      .cls-1 {
        fill-rule: evenodd;
      }
    </style>
  </defs>
  <path id="Фигура_18" data-name="Фигура 18" class="cls-1" d="M493,656a7,7,0,1,0,7,7A7.008,7.008,0,0,0,493,656Zm0,12.727A5.727,5.727,0,1,1,498.727,663,5.733,5.733,0,0,1,493,668.727Zm0-9.757a0.849,0.849,0,1,0,.848.849A0.849,0.849,0,0,0,493,658.97Zm0,2.969a0.637,0.637,0,0,0-.636.637v3.818a0.636,0.636,0,1,0,1.272,0v-3.818A0.637,0.637,0,0,0,493,661.939Z" transform="translate(-486 -656)"/>
</svg>
