<svg xmlns="http://www.w3.org/2000/svg" preserveAspectRatio="xMidYMid" width="21" height="21"><path d="M17.834 17.8V21H16.18v-3.211h-3.241v-1.66h3.183V12.88h1.668v3.219H21V17.8h-3.166zm-3.289-5.178c-1.525-.135-2.988-.371-4.451-.37-2.628.001-4.966.916-7.015 2.577-.887.72-1.346 1.621-1.333 2.766.006.562.001 1.124.001 1.755h12.687v1.643H.041c.066-1.579-.041-3.162.235-4.676.414-2.263 2.303-3.319 4.136-4.307.776-.418 1.629-.693 2.497-1.054-1.701-1.432-2.572-3.253-2.363-5.493.148-1.579.859-2.91 2.057-3.957 2.49-2.177 6.188-1.97 8.448.466 2.098 2.262 2.436 6.223-.588 8.834l.082 1.816zm.46-6.575a4.397 4.397 0 0 0-4.442-4.38A4.391 4.391 0 0 0 6.17 6.094a4.4 4.4 0 0 0 4.41 4.413c2.483-.005 4.436-1.973 4.425-4.46z" fill-rule="evenodd"/></svg>