<?xml version="1.0" encoding="utf-8"?>
<!-- Generator: Adobe Illustrator 21.0.0, SVG Export Plug-In . SVG Version: 6.00 Build 0)  -->
<svg version="1.1" id="Layer_1" xmlns="http://www.w3.org/2000/svg" xmlns:xlink="http://www.w3.org/1999/xlink" x="0px" y="0px"
	 viewBox="0 0 22 19" style="enable-background:new 0 0 22 19;" xml:space="preserve">
<style type="text/css">
	.st0{fill:#BBBBBB;}
</style>
<path class="st0" d="M20,2V1l-1-1h-2l-1,1v1h-5V1l-1-1H8L7,1v1H5v17h17V2H20z M17,1h1v3h-1V1z M8,1h1v3H8V1z M21,18H6V6h15V18z
	 M13,7h-2v2h2V7z M16,7h-2v2h2V7z M20,7h-3v2h3V7z M9,11H7v2h2V11z M11,13h2v-2h-2V13z M14,13h2v-2h-2V13z M17,13h3v-2h-3V13z M9,14
	H7v3h2V14z M11,17h2v-3h-2V17z M16,14h-2v3h2V14z M3.9,10.8L0,6.7V15L3.9,10.8z"/>
</svg>
