<svg xmlns="http://www.w3.org/2000/svg" preserveAspectRatio="xMidYMid" width="16.813" height="19"><defs><filter id="a" filterUnits="userSpaceOnUse"><feFlood flood-color="#bbb"/><feComposite operator="in" in2="SourceGraphic"/><feBlend in2="SourceGraphic" result="solidFill"/></filter></defs><path d="M16.8 2.381V19H0V2.368h2.24c0-.537.013-1.062-.005-1.585C2.222.415 2.333.148 2.66 0h2.52c.327.148.438.415.424.783-.018.476-.004.952-.003 1.428 0 .053.007.105.01.154H11.2c0-.534.013-1.058-.005-1.582-.013-.368.098-.635.425-.783h2.52c.317.146.438.401.424.765-.018.475-.004.951-.004 1.427v.189h2.24zM4.471 1.196H3.372v2.351h1.099V1.196zm8.959-.001h-1.097v2.358h1.097V1.195zM1.134 5.95v11.853h14.538V5.95H1.134zm11.198 4.745h2.219v2.353h-2.219v-2.353zm-.005-3.561h2.219v2.354h-2.219V7.134zM8.97 10.696h2.217v2.355H8.97v-2.355zm-.003-3.562h2.219v2.353H8.967V7.134zm2.219 9.478h-2.22V14.26h2.22v2.352zm-5.578-5.91h2.22v2.352h-2.22v-2.352zm-.001-3.568h2.219v2.353H5.607V7.134zM2.253 10.7h2.219v2.352H2.253V10.7zm2.213 5.912H2.247v-2.353h2.219v2.353zm3.361.001h-2.22v-2.354h2.22v2.354z" fill="#bbbbbb" filter="url(#a)" fill-rule="evenodd"/></svg>