<svg xmlns="http://www.w3.org/2000/svg" preserveAspectRatio="xMidYMid" width="23" height="30"><path d="M21.083 30H1.917C.861 30 0 29.158 0 28.125v-22.5C0 4.592.861 3.75 1.917 3.75H5.75v-.938c0-.517.429-.937.958-.937h2.08A2.88 2.88 0 0 1 11.5 0a2.88 2.88 0 0 1 2.712 1.875h2.08c.529 0 .958.42.958.937v.938h3.833c1.056 0 1.917.842 1.917 1.875v22.5C23 29.158 22.139 30 21.083 30zm-5.75-26.25h-1.916a.95.95 0 0 1-.959-.938.948.948 0 0 0-.958-.937.948.948 0 0 0-.958.937.95.95 0 0 1-.959.938H7.667v1.875h7.666V3.75zm5.75 1.875H17.25v.937a.948.948 0 0 1-.958.938H6.708a.948.948 0 0 1-.958-.938v-.937H1.917v22.5h19.166v-22.5zM5.47 13.399l1.238 1.213 3.155-3.088a.976.976 0 0 1 1.357.002.923.923 0 0 1 0 1.325l-3.833 3.75a.974.974 0 0 1-1.355-.002l-1.917-1.875a.923.923 0 0 1 0-1.325.973.973 0 0 1 1.355 0zm0 7.502l1.238 1.211 3.155-3.088a.976.976 0 0 1 1.357.002.923.923 0 0 1 0 1.325l-3.833 3.75a.974.974 0 0 1-1.355 0l-1.917-1.875a.923.923 0 0 1 0-1.325.973.973 0 0 1 1.355 0zm8.905-7.776h3.833c.529 0 .959.42.959.937a.95.95 0 0 1-.959.938h-3.833a.948.948 0 0 1-.958-.938c0-.517.429-.937.958-.937zm0 7.5h3.833c.529 0 .959.42.959.937a.95.95 0 0 1-.959.938h-3.833a.948.948 0 0 1-.958-.938c0-.517.429-.937.958-.937z" fill="#4396bd" fill-rule="evenodd"/></svg>