<svg xmlns="http://www.w3.org/2000/svg" width="11" height="14"><path data-name="Фигура 17" d="M5.366 5.379a.475.475 0 0 0-.649 0L3.208 6.82l-.592-.566a.473.473 0 0 0-.648 0 .423.423 0 0 0 0 .618l.917.875a.464.464 0 0 0 .323.129.472.472 0 0 0 .325-.128l1.833-1.75a.423.423 0 0 0 0-.619zm0 3.5a.475.475 0 0 0-.649 0L3.208 10.32l-.592-.565a.473.473 0 0 0-.648 0 .423.423 0 0 0 0 .618l.917.875a.467.467 0 0 0 .323.128.472.472 0 0 0 .325-.128l1.833-1.75a.423.423 0 0 0 0-.619zm3.342-2.754H6.875a.438.438 0 1 0 0 .875h1.833a.438.438 0 1 0 0-.875zm0 3.5H6.875a.438.438 0 1 0 0 .875h1.833a.438.438 0 1 0 0-.875zm1.375-7.875H8.25v-.438a.448.448 0 0 0-.458-.437h-1a1.4 1.4 0 0 0-2.594 0h-1a.448.448 0 0 0-.458.437v.438H.907a.9.9 0 0 0-.917.875v10.5A.9.9 0 0 0 .907 14h9.166a.9.9 0 0 0 .917-.875v-10.5a.9.9 0 0 0-.907-.875zm-6.416 0h.916a.449.449 0 0 0 .459-.438.459.459 0 0 1 .916 0 .449.449 0 0 0 .459.438h.916v.875H3.667V1.75zm6.416 11.375H.917v-10.5H2.75v.437a.448.448 0 0 0 .458.438h4.584a.448.448 0 0 0 .458-.438v-.437h1.833v10.5z" fill-rule="evenodd"/></svg>