<svg xmlns="http://www.w3.org/2000/svg" width="11" height="14" viewBox="0 0 11 14">
  <metadata><?xpacket begin="﻿" id="W5M0MpCehiHzreSzNTczkc9d"?>
<x:xmpmeta xmlns:x="adobe:ns:meta/" x:xmptk="Adobe XMP Core 5.6-c138 79.159824, 2016/09/14-01:09:01        ">
   <rdf:RDF xmlns:rdf="http://www.w3.org/1999/02/22-rdf-syntax-ns#">
      <rdf:Description rdf:about=""/>
   </rdf:RDF>
</x:xmpmeta>
                                                                                                    
                                                                                                    
                                                                                                    
                                                                                                    
                                                                                                    
                                                                                                    
                                                                                                    
                                                                                                    
                                                                                                    
                                                                                                    
                                                                                                    
                                                                                                    
                                                                                                    
                                                                                                    
                                                                                                    
                                                                                                    
                                                                                                    
                                                                                                    
                                                                                                    
                                                                                                    
                           
<?xpacket end="w"?></metadata>
<defs>
    <style>
      .cls-1 {
        fill-rule: evenodd;
      }
    </style>
  </defs>
  <path id="Фигура_17" data-name="Фигура 17" class="cls-1" d="M582.366,661.379a0.475,0.475,0,0,0-.649,0l-1.509,1.441-0.592-.566a0.473,0.473,0,0,0-.648,0,0.423,0.423,0,0,0,0,.618l0.917,0.875a0.464,0.464,0,0,0,.323.129,0.472,0.472,0,0,0,.325-0.128l1.833-1.75A0.423,0.423,0,0,0,582.366,661.379Zm0,3.5a0.475,0.475,0,0,0-.649,0l-1.509,1.441-0.592-.565a0.473,0.473,0,0,0-.648,0,0.423,0.423,0,0,0,0,.618l0.917,0.875a0.467,0.467,0,0,0,.323.128,0.472,0.472,0,0,0,.325-0.128l1.833-1.75A0.423,0.423,0,0,0,582.366,664.879Zm3.342-2.754h-1.833a0.438,0.438,0,1,0,0,.875h1.833A0.438,0.438,0,1,0,585.708,662.125Zm0,3.5h-1.833a0.438,0.438,0,1,0,0,.875h1.833A0.438,0.438,0,1,0,585.708,665.625Zm1.375-7.875H585.25v-0.438a0.448,0.448,0,0,0-.458-0.437h-1a1.4,1.4,0,0,0-2.594,0h-1a0.448,0.448,0,0,0-.458.437v0.438h-1.833a0.9,0.9,0,0,0-.917.875v10.5a0.9,0.9,0,0,0,.917.875h9.166a0.9,0.9,0,0,0,.917-0.875v-10.5A0.9,0.9,0,0,0,587.083,657.75Zm-6.416,0h0.916a0.449,0.449,0,0,0,.459-0.438,0.459,0.459,0,0,1,.916,0,0.449,0.449,0,0,0,.459.438h0.916v0.875h-3.666V657.75Zm6.416,11.375h-9.166v-10.5h1.833v0.437a0.448,0.448,0,0,0,.458.438h4.584a0.448,0.448,0,0,0,.458-0.438v-0.437h1.833v10.5Z" transform="translate(-577 -656)"/>
</svg>
