<svg xmlns="http://www.w3.org/2000/svg" viewBox="0 0 100 83">
  <path d="M40 83h1-3a6 6 0 0 0 2 0zM41 83h2-2zM46 83h-3 3zM43 83z" fill="#47a2da"/>
  <path d="M100 47H83a42 42 0 1 0-36 36c33-4 53-36 53-36zM51 82zm13-5zm-9 4zm-2 0z" fill="#fff"/>
  <path d="M21 31a9 9 0 0 1 1-2 4 4 0 0 1 3-2h33a4 4 0 0 1 4 2 4 4 0 0 1 0 2v21a4 4 0 0 1-3 4H25a4 4 0 0 1-4-2 7 7 0 0 1 0-1V31zm4-1h1l15 15a1 1 0 0 0 2 0l15-15H25zm23 13l-4 3a4 4 0 0 1-5 0l-2-1-1-2-11 10h33zm-25 8l11-10-11-10zm37 0V32L50 42l10 10z" fill="#2189b9"/>
</svg>
