<svg fill="#f4f4f4" version="1" xmlns="http://www.w3.org/2000/svg" viewBox="0 0 207 207"><path d="M53 207l-1-1-29-31v-2l2-18-1-3-11-12-1-1 11-11 4 4 1-12c1-3 0-4-2-6l-11-11 12-11 4 4 2-19c1-1 0-3-1-4L18 60C12 54 7 46 4 37L0 24v-6l1-2C3 9 9 3 16 1l2-1h6l13 4c9 3 17 8 23 14l13 14c1 1 3 2 4 1l19-2-4-4 11-12 11 11c2 2 3 3 6 2l12-1-4-4 11-11 1 1 12 11 3 1 18-2h2l31 29 1 1-83 29 1 1 35 35 3 1h24l2 1 17 16 1 1-2 1-40 23-2 2-2 2-23 40-1 2-1-1-16-17-1-2v-24l-1-3-35-35-1-1-29 83zm81-53l1 2v21l2-2 13-23 1-1 1-1 23-13 2-2h-21l-2-1-59-58-1-1 82-29-7-6-2-1-61 7-35 4-4-2-20-20c-7-6-15-11-24-12h-3c-2 0-4 2-4 4v3c1 9 6 17 12 24l20 20 2 4-4 35-7 61 1 2 6 7 29-82 1 1 58 59z"/></svg>