<svg fill="#fff" xmlns="http://www.w3.org/2000/svg" preserveAspectRatio="xMidYMid" width="160" height="54"><path d="M155 41V14h5v27h-5zm-12-4c4 0 5-1 6-2l2 3s-2 3-8 3-10-4-10-10c0-5 4-10 10-10s9 6 9 11v1h-14c0 2 2 4 5 4zm4-8c0-2-2-4-4-4-4 0-5 2-5 4h9zm-27 12l-8-19h5l5 13 5-13h5l-8 19h-4zm-15-2l-5 2c-3 0-7-2-7-6s3-7 8-7l3 1h1v-1c0-2-1-3-4-3l-5 2-2-3c1-1 4-3 8-3 5 0 8 3 8 7v13h-5v-2zm0-7h-3c-3 0-4 1-4 3 0 1 1 2 3 2s4-1 4-3v-2zm-16-6c-3 0-5 2-5 4v11h-4V22h4v2l6-2h2l-1 4h-2zM71 41c-4 0-6-3-6-7v-8h-3v-4h3v-6h5v6h5v4h-5v8c0 2 0 3 2 3l3-1 2 3c-2 2-3 2-6 2zm-20 3L17 54c-4 1-7-1-9-4l-1-1a9826 9826 0 0 0 0-8l1-3c0-2-1-2-3-2l-2-2-3-9v-1c0-3 1-6 4-8l7-3L32 1c3-2 7-1 9 2l1 1-2 2-2-1-4-1-11 6-13 8-4 2 4-2 16-4 15-4c3-1 6 0 8 3l1 1a45002 45002 0 0 0 1 8c-2 1-2 2-2 4l3 2 2 1 2 6c1 4-2 8-5 9zm1-9l-1-3c-3-1-5-3-6-5 0-3 0-5 2-7v-1l-1-3v-1c-1-1-3-2-5-1l-24 7-9 2c-3 1-3 4-3 5l1 3 1 1c5 1 7 7 4 11l-1 1v1l1 3c1 2 3 2 5 2l17-5 16-5c3 0 4-3 3-5zm-18 2c0 2-1 3-4 4-5 2-8-1-9-5l-3-11 4-1 3 11c1 2 3 3 5 2s3-3 3-6l-3-10 4-1 5 18-4 1-1-2z" fill-rule="evenodd"/></svg>