<svg xmlns="http://www.w3.org/2000/svg" preserveAspectRatio="xMidYMid" width="388" height="373.031"><path d="M387.351 242.496c4.056 27.694-11.613 53.069-38.25 60.828-77.883 22.686-155.818 45.191-233.776 67.617-22.691 6.527-46.895-2.681-59.935-22.393-2.233-3.375-3.957-7.084-5.917-10.639-3.897-13.364-7.792-26.728-11.691-40.091.153-6.704 3.401-11.224 9.166-14.715 7.961-4.82 11.07-14.017 8.506-22.821-2.561-8.799-10.179-14.966-19.449-14.756-6.764.153-11.91-1.963-15.661-7.515L.605 170.317c.056-.542.237-1.107.151-1.625-3.632-21.729 6.039-43.749 25.108-54.985C41.95 104.23 58.54 95.606 74.911 86.613c48.725-26.768 97.447-53.543 146.182-80.291 21.131-11.598 47.982-6.795 63.738 11.297 3.04 3.491 4.418 7.428 3.467 11.978-1.121 5.361-4.35 8.934-9.697 10.422-5.638 1.571-10.278-.134-14.227-4.317-8.538-9.045-20.042-11.068-30.532-5.322-24.083 13.191-48.121 26.464-72.201 39.662-31.776 17.418-63.578 34.79-95.36 52.197-8.23 4.506-16.434 9.058-24.649 13.59 10.371-2.717 20.587-5.675 30.806-8.632 36.168-10.462 72.333-20.937 108.505-31.386 33.534-9.686 67.003-19.601 100.639-28.925 22.277-6.174 45.966 3.139 58.795 22.31 2.198 3.283 3.931 6.875 5.881 10.324l11.881 40.747c-.13 6.591-3.175 11.152-8.936 14.562-8.007 4.741-11.301 14.068-8.781 22.811 2.587 8.972 10.331 15.151 19.785 14.894 6.702-.182 11.718 2.049 15.372 7.539l11.882 40.749c-.042.559-.189 1.133-.11 1.674zm-28.033-.043c-1.979-6.792-4.025-13.565-5.898-20.384-.54-1.966-1.381-2.867-3.516-3.389-18.139-4.432-30.533-15.558-35.686-33.362-5.149-17.795-.655-33.792 12.327-47.182 1.423-1.468 1.656-2.613 1.099-4.44-2.195-7.204-4.15-14.478-6.412-21.66-.81-2.57-1.953-5.132-3.43-7.383-7.104-10.824-19.129-14.694-32.912-10.712-55.86 16.14-111.712 32.303-167.569 48.452-20.121 5.818-40.221 11.712-60.377 17.414-19.491 5.515-25.05 23.627-20.182 36.667 2.309 6.184 3.894 12.647 5.578 19.044.623 2.366 1.648 3.429 4.155 4.013 33.474 7.796 48.077 46.946 27.923 74.639-2.139 2.94-5.651 5.62-6.164 8.799-.542 3.359 1.709 7.184 2.803 10.785 1.688 5.562 2.761 11.43 5.278 16.594 6.265 12.854 19.626 18.158 33.869 14.047 38.16-11.009 76.305-22.068 114.456-33.107l-.019-.07c38.37-11.104 76.746-22.189 115.112-33.317 16.21-4.704 24.256-19.348 19.565-35.448zm-121.76 14.876c-4.263 8.93-12.852 21.677-32.379 27.328-30.878 8.935-53.252-5.972-62.373-37.255l-21.847-74.921 31.14-9.01 21.769 74.658c4.6 15.773 16.707 21.962 30.43 17.992 17.151-4.963 25.603-23.088 20.315-41.228l-19.47-66.771 31.139-9.01 35.951 123.292-29.82 8.629-4.855-13.704z" fill="#e7e7e7" fill-rule="evenodd"/></svg>