<svg xmlns="http://www.w3.org/2000/svg" xmlns:xlink="http://www.w3.org/1999/xlink" preserveAspectRatio="xMidYMid" width="160" height="54.031" viewBox="0 0 160 54.031">
  <defs>
    <style>
      .cls-1 {
        fill: #fff;
        fill-rule: evenodd;
      }
    </style>
  </defs>
  <path d="M155.303,40.519 L155.303,14.083 L159.995,14.083 L159.995,40.519 L155.303,40.519 ZM142.937,37.150 C146.556,37.150 148.265,35.604 148.902,34.970 L151.446,37.824 C151.128,38.141 148.742,41.153 142.898,41.153 C136.933,41.153 133.036,36.992 133.036,31.007 C133.036,25.537 136.933,21.296 142.500,21.296 C149.339,21.296 151.685,26.726 151.685,31.958 L151.685,32.632 L137.768,32.632 C137.768,35.367 140.472,37.150 142.937,37.150 ZM146.874,29.263 C146.874,27.400 145.403,25.220 142.500,25.220 C139.438,25.220 137.728,27.400 137.728,29.263 L146.874,29.263 ZM119.557,40.519 L111.645,21.931 L117.052,21.931 L122.062,35.248 L127.072,21.931 L132.202,21.931 L124.329,40.519 L119.557,40.519 ZM105.322,38.775 C104.328,40.004 102.102,41.114 99.557,41.114 C96.535,41.114 93.116,39.251 93.116,35.089 C93.116,30.809 96.416,28.431 101.306,28.431 C102.062,28.431 103.016,28.470 103.851,28.510 L105.322,28.589 L105.322,28.153 C105.322,26.290 103.692,25.181 101.306,25.181 C98.642,25.181 97.251,26.013 96.018,26.806 L93.871,23.635 C95.382,22.565 97.529,21.296 101.943,21.296 C106.714,21.296 109.816,24.071 109.816,28.034 L109.816,40.519 L105.442,40.519 L105.322,38.775 ZM105.322,32.117 L103.931,32.037 C103.175,31.998 102.301,31.958 101.704,31.958 C98.682,31.958 97.609,33.345 97.609,34.891 C97.609,36.476 98.762,37.428 100.988,37.428 C103.175,37.428 105.322,35.842 105.322,33.940 L105.322,32.117 ZM88.941,25.973 C86.356,25.973 84.209,27.757 84.209,30.492 L84.209,40.519 L79.517,40.519 L79.517,21.931 L84.010,21.931 L84.129,24.269 C85.004,23.199 86.674,21.574 89.736,21.574 C90.650,21.574 91.287,21.653 92.042,21.931 L91.088,26.330 C90.452,26.053 89.855,25.973 88.941,25.973 ZM71.326,41.114 C66.714,41.114 65.123,38.339 65.123,34.178 L65.123,25.735 L61.942,25.735 L61.942,21.931 L65.123,21.931 L65.123,15.906 L69.815,15.906 L69.815,21.931 L74.825,21.931 L74.825,25.735 L69.815,25.735 L69.815,33.860 C69.815,35.961 70.491,37.150 72.081,37.150 C73.553,37.150 74.308,36.674 75.104,36.080 L77.092,38.973 C75.223,40.519 73.553,41.114 71.326,41.114 ZM50.512,43.939 C39.243,47.223 27.966,50.482 16.687,53.729 C13.403,54.674 9.901,53.340 8.014,50.487 C7.691,49.998 7.442,49.461 7.158,48.946 C6.595,47.011 6.031,45.076 5.467,43.142 C5.489,42.171 5.959,41.517 6.793,41.011 C7.945,40.313 8.395,38.982 8.024,37.707 C7.653,36.433 6.551,35.540 5.210,35.571 C4.231,35.593 3.486,35.286 2.944,34.483 C1.992,31.216 1.040,27.949 0.088,24.682 C0.096,24.603 0.122,24.521 0.109,24.446 C-0.416,21.300 0.983,18.112 3.742,16.485 C6.070,15.113 8.470,13.865 10.839,12.563 C17.889,8.687 24.939,4.811 31.990,0.938 C35.048,-0.741 38.933,-0.046 41.213,2.574 C41.653,3.079 41.852,3.649 41.714,4.308 C41.552,5.084 41.085,5.601 40.311,5.817 C39.495,6.044 38.824,5.797 38.253,5.192 C37.017,3.882 35.353,3.589 33.835,4.421 C30.350,6.331 26.872,8.253 23.388,10.164 C18.790,12.685 14.189,15.200 9.590,17.721 C8.399,18.373 7.212,19.032 6.024,19.688 C7.524,19.295 9.003,18.867 10.481,18.439 C15.714,16.924 20.947,15.407 26.181,13.894 C31.033,12.492 35.876,11.056 40.743,9.707 C43.966,8.813 47.393,10.161 49.250,12.937 C49.568,13.412 49.819,13.932 50.101,14.431 C50.674,16.398 51.247,18.365 51.820,20.331 C51.801,21.285 51.360,21.945 50.527,22.439 C49.368,23.126 48.892,24.476 49.256,25.742 C49.631,27.041 50.751,27.935 52.119,27.898 C53.089,27.872 53.815,28.195 54.343,28.990 C54.916,30.957 55.489,32.923 56.062,34.890 C56.056,34.971 56.035,35.054 56.046,35.132 C56.633,39.142 54.366,42.815 50.512,43.939 ZM51.990,35.126 C51.704,34.142 51.408,33.162 51.137,32.174 C51.059,31.890 50.937,31.759 50.628,31.684 C48.004,31.042 46.210,29.431 45.465,26.853 C44.720,24.277 45.370,21.961 47.248,20.022 C47.454,19.810 47.488,19.644 47.407,19.379 C47.090,18.337 46.807,17.283 46.480,16.244 C46.362,15.871 46.197,15.500 45.983,15.175 C44.955,13.607 43.215,13.047 41.221,13.624 C33.139,15.960 25.057,18.301 16.975,20.639 C14.064,21.481 11.156,22.334 8.239,23.160 C5.419,23.958 4.615,26.581 5.319,28.469 C5.653,29.364 5.883,30.300 6.126,31.226 C6.216,31.568 6.365,31.722 6.728,31.807 C11.571,32.936 13.684,38.604 10.768,42.613 C10.458,43.039 9.950,43.427 9.876,43.888 C9.797,44.374 10.123,44.928 10.281,45.449 C10.526,46.254 10.681,47.104 11.045,47.851 C11.952,49.712 13.885,50.480 15.946,49.885 C21.467,48.291 26.986,46.690 32.507,45.092 C32.506,45.089 32.505,45.085 32.504,45.082 C38.056,43.474 43.608,41.869 49.160,40.258 C51.505,39.577 52.669,37.457 51.990,35.126 ZM34.373,37.280 C33.756,38.572 32.513,40.418 29.688,41.236 C25.220,42.530 21.983,40.371 20.663,35.842 L17.502,24.995 L22.008,23.690 L25.157,34.500 C25.823,36.783 27.575,37.679 29.560,37.105 C32.042,36.386 33.265,33.762 32.500,31.136 L29.682,21.468 L34.188,20.164 L39.390,38.014 L35.075,39.264 L34.373,37.280 Z" class="cls-1"/>
</svg>
