<svg xmlns="http://www.w3.org/2000/svg" preserveAspectRatio="xMidYMid" width="16" height="26"><path d="M13.476 26H2.523C1.132 26 0 24.846 0 23.427V5.903c0-.374.079-.729.22-1.049H16v18.573C16 24.846 14.868 26 13.476 26zm-2.983-3.847h1.306a.755.755 0 0 0 .747-.762.755.755 0 0 0-.747-.761h-1.306a.754.754 0 0 0-.747.761c0 .421.334.762.747.762zm-3.376 0h1.306a.754.754 0 0 0 .747-.762.754.754 0 0 0-.747-.761H7.117a.755.755 0 0 0-.747.761c0 .421.335.762.747.762zm-3.375 0h1.305a.755.755 0 0 0 .748-.762.755.755 0 0 0-.748-.761H3.742a.754.754 0 0 0-.747.761c0 .421.334.762.747.762zm0-2.488h8.057a.755.755 0 0 0 .747-.761.755.755 0 0 0-.747-.762H3.742a.754.754 0 0 0-.747.762c0 .42.334.761.747.761zM8 6.847c-2.76 0-5.005 2.29-5.005 5.104S5.24 17.054 8 17.054s5.005-2.289 5.005-5.103c0-2.814-2.245-5.104-5.005-5.104zm2.066 2.212a3.59 3.59 0 0 1 1.364 2.13h-1.067a12.455 12.455 0 0 0-.297-2.13zm-1.762 6.457c-.1.009-.201.015-.304.015-.102 0-.202-.006-.302-.015-.004-.01-.006-.021-.011-.032-.299-.779-.49-1.743-.554-2.772h1.734c-.063 1.029-.254 1.993-.552 2.773l-.011.031zm-.619-7.099l.011-.032a3.383 3.383 0 0 1 .606 0 .173.173 0 0 0 .011.032c.299.779.49 1.743.554 2.772H7.133c.063-1.029.253-1.993.552-2.772zM4.57 12.712h1.067c.041.745.142 1.466.297 2.131a3.591 3.591 0 0 1-1.364-2.131zm0-1.523A3.592 3.592 0 0 1 5.932 9.06a12.545 12.545 0 0 0-.295 2.129H4.57zm6.86 1.523a3.592 3.592 0 0 1-1.362 2.129c.154-.664.254-1.385.295-2.129h1.067zM2.524 3.33H2.3L13.005.099a2.278 2.278 0 0 1 2.058.375C15.659.927 16 1.622 16 2.38v.95H2.524z" fill="#bbb" fill-rule="evenodd"/></svg>