<svg xmlns="http://www.w3.org/2000/svg" preserveAspectRatio="xMidYMid" width="18" height="18"><path d="M16.616 8.682a8.823 8.823 0 0 0-2.479-4.775A8.846 8.846 0 0 0 9.081 1.39L9.276 0a10.208 10.208 0 0 1 5.851 2.914A10.264 10.264 0 0 1 18 8.446l-1.384.236zm-3.998-3.33a6.18 6.18 0 0 1 1.729 3.334l-1.384.236a4.767 4.767 0 0 0-1.335-2.577 4.781 4.781 0 0 0-2.731-1.36l.195-1.389a6.157 6.157 0 0 1 3.526 1.756zM5.859 9.817c.96 1.176 2.044 2.221 3.338 3.034.278.173.585.3.874.457.146.083.248.056.368-.067.439-.45.885-.892 1.331-1.334.585-.58 1.32-.58 1.909 0 .717.712 1.433 1.424 2.146 2.139.596.599.592 1.334-.008 1.94-.405.409-.836.798-1.219 1.225-.559.626-1.256.828-2.059.783-1.166-.064-2.239-.449-3.274-.951a17.843 17.843 0 0 1-5.911-4.619C2.135 10.978 1.13 9.402.469 7.626c-.322-.858-.551-1.738-.48-2.671.045-.573.259-1.063.683-1.464.458-.435.889-.888 1.339-1.33.585-.577 1.32-.577 1.909-.004.364.356.72.72 1.08 1.079.349.352.698.697 1.047 1.049.615.618.615 1.337.003 1.951-.438.442-.873.884-1.32 1.315-.116.116-.127.21-.067.352.296.704.72 1.33 1.196 1.914z" fill="#bbb" fill-rule="evenodd"/></svg>