<svg version="1" xmlns="http://www.w3.org/2000/svg" viewBox="0 0 49 48"><path d="M13 41l-1 2c0 2-1 3-3 3s-3-1-3-3l-1-2-5 3c0 2 4 4 9 4s10-2 10-4l-6-3zM9 14c-5 0-9 4-9 9 0 4 5 14 8 19h3c3-5 8-15 8-19 0-5-4-9-9-9H9zm0 16c-4 0-7-3-7-7s3-7 7-7 7 3 7 7-3 7-7 7zm0-12c-3 0-5 2-5 5s2 5 5 5 5-2 5-5-2-5-5-5zm32 5c4 0 6-1 6-3l-2-3-1 2c-1 1-3 2-4 1l-1-1-1-2-3 3c0 2 3 3 6 3zm0-4l1-1 5-12c0-3-3-6-6-6s-6 3-6 6l6 12v1zM37 6c0-2 2-4 4-4s4 2 4 4-2 4-4 4-4-2-4-4zm7 0c0-2-1-3-3-3s-3 1-3 3 1 3 3 3 3-1 3-3zM22 44h-1v1h1v-1zm10 0h-2v1h2v-1zm-2-17h-2v1h2v-1zm-3-6h2l1-1-1-1h-2l-1 1 1 1zm-4 2h1v-3h-1l-1 2v1h1zm23 8v1l1 1 1 1v-3l-1-1-1 1zM27 44h-2v1h2v-1zm21-8h-1v3h1l1-1v-2h-1zm-12-9h-3v1h2l1-1zm11 14h-1l-1 1-1 1 1 1 1-1 1-1v-1zm-6-14h-3v1h2l1-1zm-16 1v-2l-1-1h-1v1l1 2h1zm12 16h-1v1h1v-1zm8-14v-2l-2-1-1 1 1 1 1 1h1zm-3 13l-1 1v1h2v-1l-1-1zM32 21h1l1-1-1-1h-1l-1 1 1 1z"/></svg>