<svg xmlns="http://www.w3.org/2000/svg" xmlns:xlink="http://www.w3.org/1999/xlink" width="16" height="22" viewBox="0 0 16 22">
  <metadata><?xpacket begin="﻿" id="W5M0MpCehiHzreSzNTczkc9d"?>
<x:xmpmeta xmlns:x="adobe:ns:meta/" x:xmptk="Adobe XMP Core 5.6-c138 79.159824, 2016/09/14-01:09:01        ">
   <rdf:RDF xmlns:rdf="http://www.w3.org/1999/02/22-rdf-syntax-ns#">
      <rdf:Description rdf:about=""/>
   </rdf:RDF>
</x:xmpmeta>
                                                                                                    
                                                                                                    
                                                                                                    
                                                                                                    
                                                                                                    
                                                                                                    
                                                                                                    
                                                                                                    
                                                                                                    
                                                                                                    
                                                                                                    
                                                                                                    
                                                                                                    
                                                                                                    
                                                                                                    
                                                                                                    
                                                                                                    
                                                                                                    
                                                                                                    
                                                                                                    
                           
<?xpacket end="w"?></metadata>
<defs>
    <style>
      .cls-1 {
        fill: #5aa69e;
        fill-rule: evenodd;
        filter: url(#filter);
      }
    </style>
    <filter id="filter" x="827" y="351" width="16" height="22" filterUnits="userSpaceOnUse">
      <feFlood result="flood" flood-color="#bbb"/>
      <feComposite result="composite" operator="in" in2="SourceGraphic"/>
      <feBlend result="blend" in2="SourceGraphic"/>
    </filter>
  </defs>
  <path id="Фигура_5_копия" data-name="Фигура 5 копия" class="cls-1" d="M834.08,367.918a1.024,1.024,0,0,1,1.386,0l1.17,1.1,1.17-1.1a1.024,1.024,0,0,1,1.386,0,0.885,0.885,0,0,1,0,1.305l-1.17,1.1,1.17,1.1a0.885,0.885,0,0,1,0,1.305,1.024,1.024,0,0,1-1.386,0l-1.17-1.1-1.17,1.1a1.024,1.024,0,0,1-1.386,0,0.886,0.886,0,0,1,0-1.305l1.17-1.1-1.17-1.1A0.885,0.885,0,0,1,834.08,367.918Zm1.228-10.966a1.33,1.33,0,1,1,1.328,1.25A1.292,1.292,0,0,1,835.308,356.952Zm2.467,8.566a1.909,1.909,0,0,1-2.278,0c-0.213-.164-5.225-4.086-5.225-8.528a6.376,6.376,0,0,1,12.728,0C843,361.432,837.988,365.354,837.775,365.518Zm2.149-8.566a3.294,3.294,0,1,0-3.288,3.1A3.2,3.2,0,0,0,839.924,356.952Zm-9.7,13.162a0.879,0.879,0,0,1,.024-0.088c0.009-.028.02-0.057,0.032-0.085a0.9,0.9,0,0,1,.041-0.082c0.015-.026.032-0.052,0.049-0.077s0.037-.05.057-0.073a0.961,0.961,0,0,1,.137-0.128,0.878,0.878,0,0,1,.077-0.054,0.937,0.937,0,0,1,.083-0.046,0.853,0.853,0,0,1,.087-0.039,0.863,0.863,0,0,1,.09-0.03c0.03-.009.062-0.016,0.092-0.022a0.793,0.793,0,0,1,.1-0.014,1.037,1.037,0,0,1,.193,0,0.807,0.807,0,0,1,.1.014c0.031,0.006.062,0.013,0.093,0.022s0.06,0.019.09,0.03,0.059,0.025.087,0.039,0.055,0.03.082,0.046a0.878,0.878,0,0,1,.077.054,0.7,0.7,0,0,1,.072.061,0.686,0.686,0,0,1,.065.067c0.02,0.023.039,0.048,0.057,0.073s0.034,0.051.049,0.077,0.029,0.054.042,0.082,0.023,0.057.031,0.085a0.674,0.674,0,0,1,.024.088,0.713,0.713,0,0,1,.014.089,0.694,0.694,0,0,1,0,.091,0.679,0.679,0,0,1,0,.09,0.65,0.65,0,0,1-.014.09,0.674,0.674,0,0,1-.024.088c-0.009.028-.02,0.057-0.031,0.085s-0.027.055-.042,0.081-0.032.053-.049,0.078-0.037.05-.057,0.073a0.82,0.82,0,0,1-.065.067,0.7,0.7,0,0,1-.072.061,0.878,0.878,0,0,1-.077.054c-0.027.017-.054,0.032-0.082,0.046s-0.058.027-.087,0.039-0.059.021-.09,0.03a0.783,0.783,0,0,1-.093.022c-0.032.006-.064,0.011-0.1,0.014s-0.065,0-.1,0-0.064,0-.1,0-0.064-.008-0.1-0.014a0.767,0.767,0,0,1-.092-0.022,0.863,0.863,0,0,1-.09-0.03q-0.045-.018-0.087-0.039a0.737,0.737,0,0,1-.083-0.046,0.878,0.878,0,0,1-.077-0.054,0.829,0.829,0,0,1-.072-0.061c-0.023-.021-0.044-0.044-0.065-0.067s-0.039-.048-0.057-0.073-0.034-.051-0.049-0.078a0.879,0.879,0,0,1-.041-0.081c-0.012-.028-0.023-0.057-0.032-0.085a0.879,0.879,0,0,1-.024-0.088,0.846,0.846,0,0,1-.014-0.09c0-.03,0-0.06,0-0.09s0-.061,0-0.091S830.214,370.144,830.22,370.114Zm-3.2,0a0.875,0.875,0,0,1,.023-0.088c0.009-.028.021-0.057,0.032-0.085s0.027-.055.042-0.082a0.906,0.906,0,0,1,.049-0.077,0.8,0.8,0,0,1,.057-0.073,1.03,1.03,0,0,1,.136-0.128q0.038-.029.078-0.054c0.026-.016.054-0.032,0.082-0.046s0.058-.028.087-0.039,0.06-.022.09-0.03,0.062-.016.093-0.022a0.75,0.75,0,0,1,.1-0.014,1.037,1.037,0,0,1,.193,0,0.777,0.777,0,0,1,.1.014c0.031,0.006.062,0.013,0.093,0.022a0.863,0.863,0,0,1,.09.03,0.853,0.853,0,0,1,.087.039c0.028,0.014.056,0.03,0.083,0.046a0.878,0.878,0,0,1,.077.054,0.829,0.829,0,0,1,.072.061,0.814,0.814,0,0,1,.064.067c0.02,0.023.04,0.048,0.058,0.073s0.034,0.051.049,0.077a0.9,0.9,0,0,1,.041.082c0.012,0.028.023,0.057,0.032,0.085a0.875,0.875,0,0,1,.023.088,0.719,0.719,0,0,1,.015.089c0,0.03,0,.061,0,0.091s0,0.06,0,.09a0.65,0.65,0,0,1-.015.09,0.875,0.875,0,0,1-.023.088c-0.009.028-.02,0.057-0.032,0.085a0.768,0.768,0,0,1-.041.081c-0.015.027-.032,0.053-0.049,0.078s-0.038.05-.058,0.073-0.042.046-.064,0.067a0.829,0.829,0,0,1-.072.061,0.878,0.878,0,0,1-.077.054c-0.027.017-.055,0.032-0.083,0.046s-0.057.027-.087,0.039-0.059.021-.09,0.03a0.783,0.783,0,0,1-.093.022c-0.031.006-.063,0.011-0.1,0.014s-0.065,0-.1,0-0.064,0-.1,0-0.064-.008-0.1-0.014a0.783,0.783,0,0,1-.093-0.022c-0.03-.009-0.061-0.019-0.09-0.03s-0.059-.025-0.087-0.039a0.82,0.82,0,0,1-.082-0.046q-0.041-.026-0.078-0.054a0.691,0.691,0,0,1-.071-0.061,0.82,0.82,0,0,1-.065-0.067,0.8,0.8,0,0,1-.057-0.073,0.785,0.785,0,0,1-.049-0.078q-0.023-.039-0.042-0.081c-0.012-.028-0.023-0.057-0.032-0.085a0.875,0.875,0,0,1-.023-0.088,0.844,0.844,0,0,1-.015-0.09c0-.03,0-0.06,0-0.09s0-.061,0-0.091S827.012,370.144,827.019,370.114Z" transform="translate(-827 -351)"/>
</svg>
