<svg xmlns="http://www.w3.org/2000/svg" xmlns:xlink="http://www.w3.org/1999/xlink" width="15.97" height="22" viewBox="0 0 15.97 22">
  <metadata><?xpacket begin="﻿" id="W5M0MpCehiHzreSzNTczkc9d"?>
<x:xmpmeta xmlns:x="adobe:ns:meta/" x:xmptk="Adobe XMP Core 5.6-c138 79.159824, 2016/09/14-01:09:01        ">
   <rdf:RDF xmlns:rdf="http://www.w3.org/1999/02/22-rdf-syntax-ns#">
      <rdf:Description rdf:about=""/>
   </rdf:RDF>
</x:xmpmeta>
                                                                                                    
                                                                                                    
                                                                                                    
                                                                                                    
                                                                                                    
                                                                                                    
                                                                                                    
                                                                                                    
                                                                                                    
                                                                                                    
                                                                                                    
                                                                                                    
                                                                                                    
                                                                                                    
                                                                                                    
                                                                                                    
                                                                                                    
                                                                                                    
                                                                                                    
                                                                                                    
                           
<?xpacket end="w"?></metadata>
<defs>
    <style>
      .cls-1 {
        fill: #282624;
        fill-rule: evenodd;
        filter: url(#filter);
      }
    </style>
    <filter id="filter" x="1248.03" y="505" width="15.97" height="22" filterUnits="userSpaceOnUse">
      <feFlood result="flood" flood-color="#bbb"/>
      <feComposite result="composite" operator="in" in2="SourceGraphic"/>
      <feBlend result="blend" in2="SourceGraphic"/>
    </filter>
  </defs>
  <path id="Фигура_8" data-name="Фигура 8" class="cls-1" d="M1259.32,518.932s2.18,2.105,2.19,2.108a1.8,1.8,0,0,1-.14,2.51l-3.04,3.056a1.115,1.115,0,1,1-1.61-1.532l1.93-1.862-1.89-1.808,2.56-2.472h0Zm-6.78,0h0s-2.17,2.105-2.17,2.108a1.794,1.794,0,0,0,.13,2.51l3.05,3.056a1.114,1.114,0,1,0,1.61-1.532l-1.93-1.862,1.88-1.808-2.57-2.472m3.47-7.832a3.053,3.053,0,1,0-3.17-3.055A3.1,3.1,0,0,0,1256.01,511.1Zm3.43,6.61,0.04-2.081,2.63,2.366a1.136,1.136,0,0,0,.77.29,1.16,1.16,0,0,0,.82-0.341,1.057,1.057,0,0,0-.06-1.527s-3.01-3.16-3.45-3.528a5.679,5.679,0,0,0-3.88-1.075h-0.6a5.714,5.714,0,0,0-3.89,1.074c-0.43.368-3.45,3.529-3.45,3.529a1.049,1.049,0,0,0-.05,1.527,1.143,1.143,0,0,0,.82.341,1.112,1.112,0,0,0,.76-0.29l2.63-2.365,0.05,2.081h6.86Z" transform="translate(-1248.03 -505)"/>
</svg>
