<svg xmlns="http://www.w3.org/2000/svg" width="38" height="38" viewBox="0 0 38 38">
  <metadata><?xpacket begin="﻿" id="W5M0MpCehiHzreSzNTczkc9d"?>
<x:xmpmeta xmlns:x="adobe:ns:meta/" x:xmptk="Adobe XMP Core 5.6-c138 79.159824, 2016/09/14-01:09:01        ">
   <rdf:RDF xmlns:rdf="http://www.w3.org/1999/02/22-rdf-syntax-ns#">
      <rdf:Description rdf:about=""/>
   </rdf:RDF>
</x:xmpmeta>
                                                                                                    
                                                                                                    
                                                                                                    
                                                                                                    
                                                                                                    
                                                                                                    
                                                                                                    
                                                                                                    
                                                                                                    
                                                                                                    
                                                                                                    
                                                                                                    
                                                                                                    
                                                                                                    
                                                                                                    
                                                                                                    
                                                                                                    
                                                                                                    
                                                                                                    
                                                                                                    
                           
<?xpacket end="w"?></metadata>
<defs>
    <style>
      .cls-1 {
        fill: #177caa;
        fill-rule: evenodd;
      }
    </style>
  </defs>
  <path id="Фигура_1" data-name="Фигура 1" class="cls-1" d="M400.351,328.941a1.64,1.64,0,0,0,.146-0.122q2.608-2.832,5.211-5.67a0.561,0.561,0,0,0,.117-0.388c-0.109-1.132-.232-2.263-0.36-3.394a0.593,0.593,0,0,1,.187-0.552c0.689-.666,1.36-1.35,2.037-2.028,0.082-.082.157-0.17,0.2-0.216l-2.053-2.055-0.8.759c-0.084-.806-0.123-1.542-0.25-2.261a1.032,1.032,0,0,1,.385-1.046c0.7-.651,1.359-1.342,2.009-1.991l-2.125-2.16-0.72.868c-0.137-1.273-.257-2.449-0.392-3.622a0.634,0.634,0,0,1,.211-0.581c0.859-.843,1.691-1.715,2.558-2.549a10.576,10.576,0,0,0,2.626-4.123c0.283-.79.446-1.622,0.663-2.436l0-1.029-0.117-.491a3.911,3.911,0,0,0-2.741-2.741L406.655,291l-1.029,0c-0.814.218-1.647,0.381-2.437,0.664a10.576,10.576,0,0,0-4.123,2.626c-0.834.867-1.7,1.7-2.548,2.558a0.634,0.634,0,0,1-.581.211c-1.174-.135-2.349-0.256-3.622-0.392l0.868-.72-2.16-2.125c-0.649.65-1.34,1.311-1.991,2.009a1.033,1.033,0,0,1-1.046.385c-0.72-.128-1.455-0.166-2.262-0.251l0.76-.8-2.055-2.053c-0.046.041-.134,0.117-0.216,0.2-0.679.677-1.362,1.348-2.029,2.036a0.592,0.592,0,0,1-.552.188q-1.695-.194-3.393-0.36a0.561,0.561,0,0,0-.388.117q-2.842,2.6-5.67,5.211a1.64,1.64,0,0,0-.122.146l15.256,5.358c-0.119.124-.207,0.221-0.3,0.314q-3.169,3.162-6.336,6.327a0.783,0.783,0,0,1-.608.257q-2.205-.012-4.409.012a0.687,0.687,0,0,0-.426.139c-1.05.981-2.087,1.976-3.127,2.968a1.648,1.648,0,0,0-.108.136c0.125,0.077.234,0.149,0.346,0.213,2.472,1.406,4.948,2.806,7.412,4.226a1.5,1.5,0,0,1,.334.273h0l0.018,0.017,0.017,0.018h0a1.455,1.455,0,0,1,.273.334c1.42,2.464,2.82,4.94,4.226,7.411,0.064,0.113.136,0.222,0.213,0.347a1.648,1.648,0,0,0,.136-0.108c0.992-1.04,1.987-2.077,2.968-3.127a0.68,0.68,0,0,0,.138-0.426c0.014-1.47.021-2.94,0.013-4.409a0.779,0.779,0,0,1,.257-0.608q3.169-3.162,6.327-6.336c0.093-.093.19-0.181,0.314-0.3Zm-15.015-9.729a0.707,0.707,0,0,0-.163.45c-0.017,1.151-.015,2.3-0.019,3.454,0,0.115,0,.231,0,0.346a0.985,0.985,0,0,1-.27-0.326c-0.8-1.4-1.586-2.805-2.393-4.2a1.418,1.418,0,0,0-.427-0.427c-1.395-.807-2.8-1.6-4.2-2.393a0.983,0.983,0,0,1-.325-0.27h0.346c1.151,0,2.3,0,3.454-.019a0.7,0.7,0,0,0,.449-0.163q5.372-5.338,10.725-10.693c0.05-.05.093-0.108,0.171-0.2l-15.066-5.293c0.463-.426.878-0.82,1.311-1.194a0.5,0.5,0,0,1,.341-0.055q5.64,0.594,11.277,1.2,3.174,0.339,6.347.691a0.805,0.805,0,0,0,.747-0.249c1.221-1.245,2.452-2.482,3.7-3.7a7.985,7.985,0,0,1,4.484-2.195,2.521,2.521,0,0,1,.446-0.034,0.781,0.781,0,0,1,.557.23,0.773,0.773,0,0,1,.225.632,2.614,2.614,0,0,1-.034.367,7.984,7.984,0,0,1-2.194,4.484q-1.826,1.875-3.7,3.7a0.8,0.8,0,0,0-.25.746q0.357,3.174.692,6.348,0.6,5.639,1.2,11.276a0.5,0.5,0,0,1-.055.342c-0.374.433-.768,0.848-1.195,1.311-1.775-5.055-3.528-10.045-5.292-15.066-0.092.078-.149,0.12-0.2,0.17Q390.679,313.847,385.336,319.212Z" transform="translate(-372 -291)"/>
</svg>
