<svg xmlns="http://www.w3.org/2000/svg" xmlns:xlink="http://www.w3.org/1999/xlink" width="42" height="40" viewBox="0 0 42 40">
  <metadata><?xpacket begin="﻿" id="W5M0MpCehiHzreSzNTczkc9d"?>
<x:xmpmeta xmlns:x="adobe:ns:meta/" x:xmptk="Adobe XMP Core 5.6-c138 79.159824, 2016/09/14-01:09:01        ">
   <rdf:RDF xmlns:rdf="http://www.w3.org/1999/02/22-rdf-syntax-ns#">
      <rdf:Description rdf:about=""/>
   </rdf:RDF>
</x:xmpmeta>
                                                                                                    
                                                                                                    
                                                                                                    
                                                                                                    
                                                                                                    
                                                                                                    
                                                                                                    
                                                                                                    
                                                                                                    
                                                                                                    
                                                                                                    
                                                                                                    
                                                                                                    
                                                                                                    
                                                                                                    
                                                                                                    
                                                                                                    
                                                                                                    
                                                                                                    
                                                                                                    
                           
<?xpacket end="w"?></metadata>
<defs>
    <style>
      .cls-1 {
        fill: #6cbab2;
        fill-rule: evenodd;
        filter: url(#filter);
      }
    </style>
    <filter id="filter" x="370" y="401" width="42" height="40" filterUnits="userSpaceOnUse">
      <feFlood result="flood" flood-color="#64b2d5"/>
      <feComposite result="composite" operator="in" in2="SourceGraphic"/>
      <feBlend result="blend" in2="SourceGraphic"/>
    </filter>
  </defs>
  <path id="Фигура_2" data-name="Фигура 2" class="cls-1" d="M402.273,433.521H404.7a1.345,1.345,0,0,0,1.346-1.344v-25.9a3.363,3.363,0,0,0-3.365-3.361h-7.387V401h-8.588v1.918h-7.387a3.363,3.363,0,0,0-3.365,3.361v25.9a1.345,1.345,0,0,0,1.346,1.344h2.427L370,441h6.253l7.62-7.479h14.253L405.747,441H412Zm-22.3-27.185h22.05a0.672,0.672,0,0,1,.672.672l-1.745,13.014a0.627,0.627,0,0,1-.572.672H381.62a0.627,0.627,0,0,1-.572-0.672L379.3,407.008A0.673,0.673,0,0,1,379.975,406.336Zm-1.051,21.555-0.684-1.121,1.086-1.921,3.145,0.6s0.464,2.8,1.511,3.642S378.924,427.891,378.924,427.891Zm19.094,1.2c1.047-.844,1.511-3.642,1.511-3.642l3.145-.6,1.086,1.921-0.684,1.121S396.97,429.933,398.018,429.089Z" transform="translate(-370 -401)"/>
</svg>
