<svg xmlns="http://www.w3.org/2000/svg" xmlns:xlink="http://www.w3.org/1999/xlink" width="23" height="23" viewBox="0 0 23 23">
  <metadata><?xpacket begin="﻿" id="W5M0MpCehiHzreSzNTczkc9d"?>
<x:xmpmeta xmlns:x="adobe:ns:meta/" x:xmptk="Adobe XMP Core 5.6-c138 79.159824, 2016/09/14-01:09:01        ">
   <rdf:RDF xmlns:rdf="http://www.w3.org/1999/02/22-rdf-syntax-ns#">
      <rdf:Description rdf:about=""/>
   </rdf:RDF>
</x:xmpmeta>
                                                                                                    
                                                                                                    
                                                                                                    
                                                                                                    
                                                                                                    
                                                                                                    
                                                                                                    
                                                                                                    
                                                                                                    
                                                                                                    
                                                                                                    
                                                                                                    
                                                                                                    
                                                                                                    
                                                                                                    
                                                                                                    
                                                                                                    
                                                                                                    
                                                                                                    
                                                                                                    
                           
<?xpacket end="w"?></metadata>
<defs>
    <style>
      .cls-1 {
        fill: #282624;
        fill-rule: evenodd;
        filter: url(#filter);
      }
    </style>
    <filter id="filter" x="697" y="506" width="23" height="23" filterUnits="userSpaceOnUse">
      <feFlood result="flood" flood-color="#bbb"/>
      <feComposite result="composite" operator="in" in2="SourceGraphic"/>
      <feBlend result="blend" in2="SourceGraphic"/>
    </filter>
  </defs>
  <path id="Фигура_9" data-name="Фигура 9" class="cls-1" d="M700.655,506a2.272,2.272,0,1,1-2.268,2.272A2.27,2.27,0,0,1,700.655,506ZM698.124,518.5h0.225v4.507a1.128,1.128,0,0,0,1.125,1.126h2.362a1.128,1.128,0,0,0,1.124-1.126v-0.263a2.855,2.855,0,0,1-.337-1.314v-5.9a2.811,2.811,0,0,1,1.687-2.573v-0.45a1.129,1.129,0,0,0-1.125-1.127h-5.061A1.129,1.129,0,0,0,697,512.514v4.863A1.117,1.117,0,0,0,698.124,518.5ZM716.362,506a2.272,2.272,0,1,1-2.267,2.272A2.27,2.27,0,0,1,716.362,506Zm-3.674,6.5v0.45a2.81,2.81,0,0,1,1.687,2.573V521.4a2.637,2.637,0,0,1-.337,1.314v0.263a1.129,1.129,0,0,0,1.125,1.127h2.362a1.129,1.129,0,0,0,1.124-1.127v-4.506h0.225A1.129,1.129,0,0,0,720,517.339V512.5a1.129,1.129,0,0,0-1.125-1.127h-5.061A1.13,1.13,0,0,0,712.688,512.5Zm-8.359,3.041h0v5.9a1.129,1.129,0,0,0,1.124,1.127h0.432v5.314A1.128,1.128,0,0,0,707.009,529h3.018a1.128,1.128,0,0,0,1.125-1.126V522.54h0.431a1.129,1.129,0,0,0,1.124-1.126v-5.877h0a1.129,1.129,0,0,0-1.124-1.127h-6.13A1.117,1.117,0,0,0,704.329,515.536Zm4.18-7.285a2.61,2.61,0,1,1-2.606,2.61A2.608,2.608,0,0,1,708.509,508.251Z" transform="translate(-697 -506)"/>
</svg>
