<svg xmlns="http://www.w3.org/2000/svg" xmlns:xlink="http://www.w3.org/1999/xlink" width="16" height="22" viewBox="0 0 16 22">
  <metadata><?xpacket begin="﻿" id="W5M0MpCehiHzreSzNTczkc9d"?>
<x:xmpmeta xmlns:x="adobe:ns:meta/" x:xmptk="Adobe XMP Core 5.6-c138 79.159824, 2016/09/14-01:09:01        ">
   <rdf:RDF xmlns:rdf="http://www.w3.org/1999/02/22-rdf-syntax-ns#">
      <rdf:Description rdf:about=""/>
   </rdf:RDF>
</x:xmpmeta>
                                                                                                    
                                                                                                    
                                                                                                    
                                                                                                    
                                                                                                    
                                                                                                    
                                                                                                    
                                                                                                    
                                                                                                    
                                                                                                    
                                                                                                    
                                                                                                    
                                                                                                    
                                                                                                    
                                                                                                    
                                                                                                    
                                                                                                    
                                                                                                    
                                                                                                    
                                                                                                    
                           
<?xpacket end="w"?></metadata>
<defs>
    <style>
      .cls-1 {
        fill: #5aa69e;
        fill-rule: evenodd;
        filter: url(#filter);
      }
    </style>
    <filter id="filter" x="481" y="351" width="16" height="22" filterUnits="userSpaceOnUse">
      <feFlood result="flood" flood-color="#bbb"/>
      <feComposite result="composite" operator="in" in2="SourceGraphic"/>
      <feBlend result="blend" in2="SourceGraphic"/>
    </filter>
  </defs>
  <path id="Фигура_5" data-name="Фигура 5" class="cls-1" d="M489.92,367.918a1.024,1.024,0,0,0-1.386,0l-1.17,1.1-1.17-1.1a1.024,1.024,0,0,0-1.386,0,0.885,0.885,0,0,0,0,1.305l1.17,1.1-1.17,1.1a0.885,0.885,0,0,0,0,1.305,1.024,1.024,0,0,0,1.386,0l1.17-1.1,1.17,1.1a1.024,1.024,0,0,0,1.386,0,0.886,0.886,0,0,0,0-1.305l-1.17-1.1,1.17-1.1A0.886,0.886,0,0,0,489.92,367.918Zm-1.229-10.966a1.33,1.33,0,1,0-1.327,1.25A1.291,1.291,0,0,0,488.691,356.952Zm-2.466,8.566a1.909,1.909,0,0,0,2.278,0c0.213-.164,5.225-4.086,5.225-8.528a6.376,6.376,0,0,0-12.728,0C481,361.432,486.012,365.354,486.225,365.518Zm-2.149-8.566a3.294,3.294,0,1,1,3.288,3.1A3.2,3.2,0,0,1,484.076,356.952Zm9.7,13.162a0.67,0.67,0,0,0-.023-0.088c-0.009-.028-0.02-0.057-0.032-0.085a0.9,0.9,0,0,0-.041-0.082c-0.015-.026-0.032-0.052-0.049-0.077s-0.038-.05-0.058-0.073a1.03,1.03,0,0,0-.136-0.128c-0.025-.019-0.051-0.037-0.077-0.054s-0.055-.032-0.083-0.046a0.853,0.853,0,0,0-.087-0.039,0.863,0.863,0,0,0-.09-0.03c-0.031-.009-0.062-0.016-0.093-0.022a0.75,0.75,0,0,0-.095-0.014,1.037,1.037,0,0,0-.193,0,0.807,0.807,0,0,0-.095.014c-0.031.006-.062,0.013-0.093,0.022a0.863,0.863,0,0,0-.09.03,0.853,0.853,0,0,0-.087.039c-0.028.014-.056,0.03-0.083,0.046s-0.052.035-.076,0.054a0.842,0.842,0,0,0-.073.061,0.814,0.814,0,0,0-.064.067c-0.02.023-.039,0.048-0.057,0.073a0.711,0.711,0,0,0-.049.077c-0.015.027-.029,0.054-0.042,0.082s-0.023.057-.032,0.085a0.875,0.875,0,0,0-.023.088c-0.007.03-.011,0.06-0.015,0.089s0,0.061,0,.091,0,0.06,0,.09a0.844,0.844,0,0,0,.015.09,0.875,0.875,0,0,0,.023.088c0.01,0.028.021,0.057,0.032,0.085s0.027,0.055.042,0.081a0.636,0.636,0,0,0,.049.078c0.018,0.025.037,0.05,0.057,0.073s0.042,0.046.064,0.067a0.842,0.842,0,0,0,.073.061c0.024,0.019.05,0.037,0.076,0.054s0.055,0.032.083,0.046,0.057,0.027.087,0.039a0.863,0.863,0,0,0,.09.03,0.783,0.783,0,0,0,.093.022c0.032,0.006.064,0.011,0.095,0.014s0.065,0,.1,0,0.064,0,.1,0,0.064-.008.095-0.014a0.783,0.783,0,0,0,.093-0.022,0.863,0.863,0,0,0,.09-0.03q0.045-.018.087-0.039c0.028-.014.056-0.029,0.083-0.046s0.052-.035.077-0.054a0.691,0.691,0,0,0,.071-0.061,0.82,0.82,0,0,0,.065-0.067c0.02-.023.04-0.048,0.058-0.073s0.034-.051.049-0.078a0.879,0.879,0,0,0,.041-0.081c0.012-.028.023-0.057,0.032-0.085a0.67,0.67,0,0,0,.023-0.088,0.844,0.844,0,0,0,.015-0.09c0-.03,0-0.06,0-0.09s0-.061,0-0.091S493.786,370.144,493.779,370.114Zm3.2,0c-0.007-.03-0.015-0.059-0.023-0.088s-0.021-.057-0.033-0.085a0.9,0.9,0,0,0-.041-0.082,0.906,0.906,0,0,0-.049-0.077,0.8,0.8,0,0,0-.057-0.073,0.825,0.825,0,0,0-.065-0.067,0.691,0.691,0,0,0-.071-0.061q-0.037-.029-0.078-0.054c-0.026-.016-0.054-0.032-0.082-0.046s-0.058-.028-0.087-0.039-0.06-.022-0.09-0.03-0.062-.016-0.093-0.022a0.739,0.739,0,0,0-.1-0.014,1.026,1.026,0,0,0-.192,0,0.75,0.75,0,0,0-.095.014c-0.031.006-.063,0.013-0.093,0.022s-0.061.019-.091,0.03-0.058.025-.086,0.039-0.057.03-.083,0.046a0.878,0.878,0,0,0-.077.054,0.829,0.829,0,0,0-.072.061,0.675,0.675,0,0,0-.064.067,0.807,0.807,0,0,0-.058.073c-0.017.025-.034,0.051-0.049,0.077a0.9,0.9,0,0,0-.041.082c-0.012.028-.023,0.057-0.032,0.085a0.879,0.879,0,0,0-.024.088c-0.006.03-.011,0.06-0.014,0.089s0,0.061,0,.091,0,0.06,0,.09a0.846,0.846,0,0,0,.014.09,0.879,0.879,0,0,0,.024.088c0.009,0.028.02,0.057,0.032,0.085a0.768,0.768,0,0,0,.041.081c0.015,0.027.032,0.053,0.049,0.078a1.02,1.02,0,0,0,.122.14,0.829,0.829,0,0,0,.072.061,0.878,0.878,0,0,0,.077.054,0.836,0.836,0,0,0,.083.046c0.028,0.014.057,0.027,0.086,0.039s0.06,0.021.091,0.03a0.739,0.739,0,0,0,.093.022c0.031,0.006.063,0.011,0.095,0.014s0.065,0,.1,0,0.064,0,.1,0,0.064-.008.1-0.014a0.783,0.783,0,0,0,.093-0.022c0.03-.009.061-0.019,0.09-0.03s0.059-.025.087-0.039a0.82,0.82,0,0,0,.082-0.046q0.041-.026.078-0.054a0.691,0.691,0,0,0,.071-0.061c0.023-.021.044-0.044,0.065-0.067a0.8,0.8,0,0,0,.057-0.073,0.785,0.785,0,0,0,.049-0.078,0.768,0.768,0,0,0,.041-0.081c0.012-.028.023-0.057,0.033-0.085s0.016-.058.023-0.088a0.846,0.846,0,0,0,.014-0.09,0.679,0.679,0,0,0,0-.09,0.694,0.694,0,0,0,0-.091C496.992,370.174,496.987,370.144,496.981,370.114Z" transform="translate(-481 -351)"/>
</svg>
