<svg xmlns="http://www.w3.org/2000/svg" xmlns:xlink="http://www.w3.org/1999/xlink" width="52" height="33" viewBox="0 0 52 33">
  <metadata><?xpacket begin="﻿" id="W5M0MpCehiHzreSzNTczkc9d"?>
<x:xmpmeta xmlns:x="adobe:ns:meta/" x:xmptk="Adobe XMP Core 5.6-c138 79.159824, 2016/09/14-01:09:01        ">
   <rdf:RDF xmlns:rdf="http://www.w3.org/1999/02/22-rdf-syntax-ns#">
      <rdf:Description rdf:about=""/>
   </rdf:RDF>
</x:xmpmeta>
                                                                                                    
                                                                                                    
                                                                                                    
                                                                                                    
                                                                                                    
                                                                                                    
                                                                                                    
                                                                                                    
                                                                                                    
                                                                                                    
                                                                                                    
                                                                                                    
                                                                                                    
                                                                                                    
                                                                                                    
                                                                                                    
                                                                                                    
                                                                                                    
                                                                                                    
                                                                                                    
                           
<?xpacket end="w"?></metadata>
<defs>
    <style>
      .cls-1 {
        fill: #50c0b4;
        fill-rule: evenodd;
        filter: url(#filter);
      }
    </style>
    <filter id="filter" x="364" y="615" width="52" height="33" filterUnits="userSpaceOnUse">
      <feFlood result="flood" flood-color="#64b2d5"/>
      <feComposite result="composite" operator="in" in2="SourceGraphic"/>
      <feBlend result="blend" in2="SourceGraphic"/>
    </filter>
  </defs>
  <path id="Фигура_4" data-name="Фигура 4" class="cls-1" d="M369.92,624.959a4.923,4.923,0,0,1,4.922-4.914H385.89a4.922,4.922,0,0,1,4.11,2.214,4.921,4.921,0,0,1,4.109-2.214h11.049a4.923,4.923,0,0,1,4.922,4.914v0.227h1.232v-4.793a5.4,5.4,0,0,0-5.4-5.393H374.089a5.4,5.4,0,0,0-5.4,5.393v4.793h1.232v-0.227h0Zm44.011,2.521H366.068A2.07,2.07,0,0,0,364,629.546v11.99a2.07,2.07,0,0,0,2.068,2.066h0.862l-1.018,2.867a1.147,1.147,0,0,0,.7,1.465A1.179,1.179,0,0,0,367,648a1.151,1.151,0,0,0,1.084-.765l1.289-3.633h41.264l1.289,3.633A1.149,1.149,0,0,0,413,648a1.17,1.17,0,0,0,.384-0.066,1.147,1.147,0,0,0,.7-1.465L413.07,643.6h0.861A2.07,2.07,0,0,0,416,641.536v-11.99A2.07,2.07,0,0,0,413.931,627.48Zm-19.822-5.14a2.624,2.624,0,0,0-2.623,2.619v0.226h16.3v-0.226a2.624,2.624,0,0,0-2.623-2.619H394.109Zm-19.267,0a2.624,2.624,0,0,0-2.624,2.619v0.226h16.3v-0.226a2.624,2.624,0,0,0-2.624-2.619H374.842Z" transform="translate(-364 -615)"/>
</svg>
