<svg xmlns="http://www.w3.org/2000/svg" width="207" height="207" viewBox="0 0 207 207">
  <metadata><?xpacket begin="﻿" id="W5M0MpCehiHzreSzNTczkc9d"?>
<x:xmpmeta xmlns:x="adobe:ns:meta/" x:xmptk="Adobe XMP Core 5.6-c138 79.159824, 2016/09/14-01:09:01        ">
   <rdf:RDF xmlns:rdf="http://www.w3.org/1999/02/22-rdf-syntax-ns#">
      <rdf:Description rdf:about=""/>
   </rdf:RDF>
</x:xmpmeta>
                                                                                                    
                                                                                                    
                                                                                                    
                                                                                                    
                                                                                                    
                                                                                                    
                                                                                                    
                                                                                                    
                                                                                                    
                                                                                                    
                                                                                                    
                                                                                                    
                                                                                                    
                                                                                                    
                                                                                                    
                                                                                                    
                                                                                                    
                                                                                                    
                                                                                                    
                                                                                                    
                           
<?xpacket end="w"?></metadata>
<defs>
    <style>
      .cls-1 {
        fill: #f4f4f4;
        fill-rule: evenodd;
      }
    </style>
  </defs>
  <path id="Фигура_1_копия" data-name="Фигура 1 копия" class="cls-1" d="M1449.58,735.677a9.585,9.585,0,0,1-.8-0.662q-14.205-15.424-28.38-30.884a3.092,3.092,0,0,1-.64-2.112q0.9-9.252,1.96-18.485a3.206,3.206,0,0,0-1.02-3.007c-3.75-3.628-7.4-7.353-11.09-11.047-0.45-.448-0.86-0.93-1.08-1.177,3.83-3.841,7.49-7.5,11.18-11.194,1.29,1.23,2.71,2.575,4.35,4.137,0.46-4.392.67-8.4,1.36-12.319,0.44-2.5-.33-4.05-2.09-5.7-3.81-3.545-7.41-7.31-10.95-10.841,3.81-3.874,7.47-7.593,11.58-11.766,1.18,1.43,2.4,2.9,3.92,4.728,0.74-6.936,1.4-13.338,2.13-19.73a3.442,3.442,0,0,0-1.15-3.163c-4.68-4.593-9.2-9.339-13.93-13.882a57.667,57.667,0,0,1-14.3-22.457c-1.54-4.3-2.43-8.839-3.62-13.269,0-1.869-.01-3.737-0.01-5.605,0.21-.892.43-1.783,0.64-2.675a21.273,21.273,0,0,1,14.93-14.93l2.67-.64,5.61,0.016c4.43,1.184,8.97,2.071,13.27,3.616a57.641,57.641,0,0,1,22.46,14.3c4.54,4.726,9.28,9.255,13.88,13.933a3.445,3.445,0,0,0,3.16,1.15c6.39-.733,12.79-1.391,19.73-2.134-1.83-1.516-3.3-2.735-4.73-3.921,4.18-4.106,7.89-7.763,11.77-11.574,3.53,3.539,7.29,7.138,10.84,10.942,1.65,1.767,3.2,2.539,5.7,2.1,3.92-.694,7.92-0.9,12.32-1.364-1.57-1.642-2.91-3.056-4.14-4.349,3.7-3.694,7.35-7.346,11.19-11.184,0.25,0.227.73,0.64,1.18,1.086,3.69,3.685,7.42,7.342,11.05,11.091a3.2,3.2,0,0,0,3,1.021c6.16-.7,12.32-1.365,18.49-1.96a3.038,3.038,0,0,1,2.11.637q15.48,14.144,30.89,28.382c0.19,0.176.33,0.4,0.66,0.8l-83.1,29.182c0.65,0.678,1.13,1.206,1.64,1.71q17.265,17.224,34.51,34.462a4.239,4.239,0,0,0,3.31,1.4q12-.063,24.01.068a3.685,3.685,0,0,1,2.32.755c5.72,5.343,11.37,10.762,17.03,16.165a6.732,6.732,0,0,1,.59.743c-0.68.419-1.27,0.808-1.88,1.158-13.47,7.659-26.95,15.285-40.37,23.017a8.02,8.02,0,0,0-1.82,1.491l0.01,0.006a0.82,0.82,0,0,0-.1.092l-0.09.1-0.01-.006a8.062,8.062,0,0,0-1.49,1.818c-7.73,13.421-15.36,26.9-23.02,40.368-0.35.615-.74,1.206-1.15,1.885a8.139,8.139,0,0,1-.75-0.588c-5.4-5.663-10.82-11.311-16.16-17.03a3.71,3.71,0,0,1-.76-2.319c-0.07-8.006-.11-16.012-0.07-24.017a4.209,4.209,0,0,0-1.4-3.31q-17.265-17.22-34.46-34.51c-0.5-.506-1.03-0.989-1.71-1.636C1468.99,680.409,1459.31,707.977,1449.58,735.677Zm81.78-52.987a3.839,3.839,0,0,1,.89,2.45c0.09,6.27.08,12.541,0.1,18.813,0.01,0.627.01,1.254,0.01,1.881a5.43,5.43,0,0,0,1.47-1.771c4.34-7.63,8.64-15.279,13.03-22.874a6.026,6.026,0,0,1,1.04-1.288,5.922,5.922,0,0,1,1.29-1.04c7.59-4.393,15.24-8.7,22.87-13.031a5.336,5.336,0,0,0,1.77-1.472l-1.88,0c-6.27-.021-12.54-0.01-18.81-0.1a3.857,3.857,0,0,1-2.45-.889q-29.25-29.077-58.42-58.242c-0.27-.273-0.5-0.585-0.93-1.084,27.35-9.608,54.53-19.155,82.07-28.826-2.53-2.323-4.79-4.471-7.15-6.506a2.718,2.718,0,0,0-1.86-.3q-30.7,3.24-61.41,6.535-17.295,1.853-34.58,3.769a4.362,4.362,0,0,1-4.06-1.361c-6.66-6.781-13.36-13.515-20.17-20.139a43.5,43.5,0,0,0-24.42-11.955,13.864,13.864,0,0,0-2.43-.187,4.278,4.278,0,0,0-4.26,4.694,16.548,16.548,0,0,0,.18,2,43.511,43.511,0,0,0,11.96,24.425q9.93,10.212,20.14,20.164a4.386,4.386,0,0,1,1.36,4.065q-1.95,17.282-3.77,34.575-3.3,30.707-6.54,61.418a2.779,2.779,0,0,0,.3,1.86c2.04,2.358,4.19,4.618,6.51,7.143,9.67-27.533,19.22-54.713,28.82-82.064,0.5,0.426.82,0.658,1.09,0.931Q1502.265,653.462,1531.36,682.69Z" transform="translate(-1397 -529)"/>
</svg>
