<svg xmlns="http://www.w3.org/2000/svg" xmlns:xlink="http://www.w3.org/1999/xlink" width="16.81" height="19" viewBox="0 0 16.81 19">
  <metadata><?xpacket begin="﻿" id="W5M0MpCehiHzreSzNTczkc9d"?>
<x:xmpmeta xmlns:x="adobe:ns:meta/" x:xmptk="Adobe XMP Core 5.6-c138 79.159824, 2016/09/14-01:09:01        ">
   <rdf:RDF xmlns:rdf="http://www.w3.org/1999/02/22-rdf-syntax-ns#">
      <rdf:Description rdf:about=""/>
   </rdf:RDF>
</x:xmpmeta>
                                                                                                    
                                                                                                    
                                                                                                    
                                                                                                    
                                                                                                    
                                                                                                    
                                                                                                    
                                                                                                    
                                                                                                    
                                                                                                    
                                                                                                    
                                                                                                    
                                                                                                    
                                                                                                    
                                                                                                    
                                                                                                    
                                                                                                    
                                                                                                    
                                                                                                    
                                                                                                    
                           
<?xpacket end="w"?></metadata>
<defs>
    <style>
      .cls-1 {
        fill: #5aa69e;
        fill-rule: evenodd;
        filter: url(#filter);
      }
    </style>
    <filter id="filter" x="1166" y="355" width="16.81" height="19" filterUnits="userSpaceOnUse">
      <feFlood result="flood" flood-color="#bbb"/>
      <feComposite result="composite" operator="in" in2="SourceGraphic"/>
      <feBlend result="blend" in2="SourceGraphic"/>
    </filter>
  </defs>
  <path id="Фигура_6" data-name="Фигура 6" class="cls-1" d="M1180.56,357.381v-0.189c0-.476-0.01-0.952,0-1.427a0.705,0.705,0,0,0-.42-0.765h-2.52a0.715,0.715,0,0,0-.42.783c0.01,0.524,0,1.048,0,1.582h-5.59c0-.048-0.01-0.1-0.01-0.154,0-.476-0.01-0.952,0-1.427a0.716,0.716,0,0,0-.42-0.784h-2.52a0.715,0.715,0,0,0-.42.783c0.01,0.523,0,1.048,0,1.585H1166V374h16.8V357.381h-2.24Zm-2.23-1.186h1.1v2.358h-1.1V356.2Zm-8.96,0h1.1v2.351h-1.1V356.2Zm12.3,16.607h-14.54V360.95h14.54V372.8Zm-7.84-10.669h-2.22v2.353h2.22v-2.353Zm3.36,0h-2.22v2.353h2.22v-2.353Zm3.36,0h-2.22v2.354h2.22v-2.354Zm-10.08,3.566h-2.22v2.352h2.22V365.7Zm1.14,2.354h2.22V365.7h-2.22v2.352Zm3.36,0h2.22V365.7h-2.22v2.355Zm3.36,0h2.22V365.7h-2.22v2.353Zm-7.86,1.211h-2.22v2.353h2.22v-2.353Zm1.14,2.354h2.22v-2.354h-2.22v2.354Zm5.58-2.353h-2.22v2.352h2.22V369.26Z" transform="translate(-1166 -355)"/>
</svg>
