<svg xmlns="http://www.w3.org/2000/svg" xmlns:xlink="http://www.w3.org/1999/xlink" width="49" height="48" viewBox="0 0 49 48">
  <metadata><?xpacket begin="﻿" id="W5M0MpCehiHzreSzNTczkc9d"?>
<x:xmpmeta xmlns:x="adobe:ns:meta/" x:xmptk="Adobe XMP Core 5.6-c138 79.159824, 2016/09/14-01:09:01        ">
   <rdf:RDF xmlns:rdf="http://www.w3.org/1999/02/22-rdf-syntax-ns#">
      <rdf:Description rdf:about=""/>
   </rdf:RDF>
</x:xmpmeta>
                                                                                                    
                                                                                                    
                                                                                                    
                                                                                                    
                                                                                                    
                                                                                                    
                                                                                                    
                                                                                                    
                                                                                                    
                                                                                                    
                                                                                                    
                                                                                                    
                                                                                                    
                                                                                                    
                                                                                                    
                                                                                                    
                                                                                                    
                                                                                                    
                                                                                                    
                                                                                                    
                           
<?xpacket end="w"?></metadata>
<defs>
    <style>
      .cls-1 {
        fill: #50c0b4;
        fill-rule: evenodd;
        filter: url(#filter);
      }
    </style>
    <filter id="filter" x="365" y="501" width="49" height="48" filterUnits="userSpaceOnUse">
      <feFlood result="flood" flood-color="#64b2d5"/>
      <feComposite result="composite" operator="in" in2="SourceGraphic"/>
      <feBlend result="blend" in2="SourceGraphic"/>
    </filter>
  </defs>
  <path id="Фигура_3" data-name="Фигура 3" class="cls-1" d="M378.2,542.194c-0.38.669-.735,1.277-1.056,1.792a3.351,3.351,0,0,1-5.7,0c-0.321-.515-0.676-1.123-1.056-1.792-3.532.677-5.391,2.109-5.391,3.223,0,1.689,3.971,3.583,9.3,3.583s9.295-1.894,9.295-3.583C383.59,544.3,381.731,542.871,378.2,542.194Zm-3.9-27.48a9.386,9.386,0,0,0-9.3,9.463c0,3.626,4.774,13.954,7.875,18.883a1.663,1.663,0,0,0,2.84,0c3.1-4.929,7.875-15.257,7.875-18.883A9.386,9.386,0,0,0,374.3,514.714Zm0,16.286a6.858,6.858,0,1,1,6.76-6.857A6.809,6.809,0,0,1,374.3,531Zm0-12a5.144,5.144,0,1,0,5.07,5.143A5.107,5.107,0,0,0,374.3,519Zm32.111,5.143c3.2,0,5.916-1.569,5.916-3.429,0-1.054-.93-2.083-2.409-2.743-0.5.943-.98,1.783-1.369,2.409a2.514,2.514,0,0,1-4.276,0c-0.388-.626-0.87-1.466-1.369-2.409-1.478.66-2.408,1.689-2.408,2.743C400.491,522.574,403.2,524.143,406.406,524.143Zm0-4.3a0.857,0.857,0,0,0,.71-0.379c2.045-3.266,5.205-10.072,5.205-12.437a5.916,5.916,0,1,0-11.83,0c0,2.365,3.16,9.171,5.205,12.437A0.859,0.859,0,0,0,406.406,519.842ZM402.181,507a4.226,4.226,0,1,1,4.225,4.286A4.256,4.256,0,0,1,402.181,507Zm6.76,0a2.535,2.535,0,1,0-2.535,2.571A2.561,2.561,0,0,0,408.941,507Zm-21.97,37.714h-0.846a0.858,0.858,0,0,0,0,1.715h0.846A0.858,0.858,0,0,0,386.971,544.714Zm10.2,0h-1.7a0.858,0.858,0,0,0,0,1.715h1.7A0.858,0.858,0,0,0,397.169,544.714Zm-1.714-16.285a0.852,0.852,0,0,0-.845-0.858h-1.7a0.858,0.858,0,0,0,0,1.715h1.7A0.852,0.852,0,0,0,395.455,528.429Zm-3.481-6.858h1.7a0.857,0.857,0,0,0,0-1.714h-1.7A0.857,0.857,0,0,0,391.974,521.571Zm-3.962,2.63h0a0.846,0.846,0,0,0,.8-0.584,3,3,0,0,1,.684-1.135,0.867,0.867,0,0,0-.018-1.213,0.837,0.837,0,0,0-1.2.018,4.766,4.766,0,0,0-1.072,1.784,0.871,0.871,0,0,0,.115.773A0.842,0.842,0,0,0,388.012,524.2Zm23.439,7.567a0.866,0.866,0,0,0-.271,1.181,7.7,7.7,0,0,1,.672,1.389,0.839,0.839,0,0,0,1.485.192,0.867,0.867,0,0,0,.1-0.787,9.423,9.423,0,0,0-.822-1.7A0.838,0.838,0,0,0,411.451,531.768ZM392.07,544.714h-1.7a0.858,0.858,0,0,0,0,1.715h1.7A0.858,0.858,0,0,0,392.07,544.714Zm21.127-8.138a0.85,0.85,0,0,0-.885.808,7.748,7.748,0,0,1-.229,1.529,0.864,0.864,0,0,0,.151.739,0.84,0.84,0,0,0,.668.332,0.85,0.85,0,0,0,.818-0.643,9.479,9.479,0,0,0,.28-1.873A0.852,0.852,0,0,0,413.2,536.576Zm-12.675-8.147a0.878,0.878,0,0,0-.876-0.858h-1.637a0.858,0.858,0,0,0,0,1.715h1.7a0.813,0.813,0,0,0,.585-0.255A0.833,0.833,0,0,0,400.522,528.429Zm11.412,13.1a0.837,0.837,0,0,0-1.184.157,7.848,7.848,0,0,1-1.048,1.13,0.868,0.868,0,0,0-.236.947,0.84,0.84,0,0,0,1.347.345,9.584,9.584,0,0,0,1.277-1.378A0.865,0.865,0,0,0,411.934,541.525Zm-6.275-13.09a0.851,0.851,0,0,0-.84-0.863h-1.71a0.858,0.858,0,0,0,0,1.715h1.7A0.852,0.852,0,0,0,405.659,528.435Zm-16.042.274a0.845,0.845,0,0,0,.813-0.622,0.862,0.862,0,0,0-.366-0.963,3,3,0,0,1-.935-0.935,0.84,0.84,0,0,0-1.169-.258,0.866,0.866,0,0,0-.254,1.185,4.731,4.731,0,0,0,1.466,1.464,0.838,0.838,0,0,0,.445.129h0Zm12.652,16.005h-1.7a0.858,0.858,0,0,0,0,1.715h1.7A0.858,0.858,0,0,0,402.269,544.714Zm7.313-13.854a0.847,0.847,0,0,0,.806-0.6,0.863,0.863,0,0,0-.317-0.96,9.364,9.364,0,0,0-1.621-.934,0.835,0.835,0,0,0-.841.092,0.864,0.864,0,0,0,.157,1.476,7.588,7.588,0,0,1,1.328.765,0.833,0.833,0,0,0,.488.158h0Zm-2.52,13.476a7.4,7.4,0,0,1-1.491.329,0.858,0.858,0,0,0,.094,1.709c0.032,0,.064,0,0.1,0a9.2,9.2,0,0,0,1.825-.4,0.86,0.86,0,0,0,.541-1.081A0.842,0.842,0,0,0,407.062,544.336Zm-9.951-22.765h0.845a0.857,0.857,0,0,0,0-1.714h-0.845A0.857,0.857,0,0,0,397.111,521.571Z" transform="translate(-365 -501)"/>
</svg>
