<svg xmlns="http://www.w3.org/2000/svg" xmlns:xlink="http://www.w3.org/1999/xlink" width="18" height="23" viewBox="0 0 18 23">
  <metadata><?xpacket begin="﻿" id="W5M0MpCehiHzreSzNTczkc9d"?>
<x:xmpmeta xmlns:x="adobe:ns:meta/" x:xmptk="Adobe XMP Core 5.6-c138 79.159824, 2016/09/14-01:09:01        ">
   <rdf:RDF xmlns:rdf="http://www.w3.org/1999/02/22-rdf-syntax-ns#">
      <rdf:Description rdf:about=""/>
   </rdf:RDF>
</x:xmpmeta>
                                                                                                    
                                                                                                    
                                                                                                    
                                                                                                    
                                                                                                    
                                                                                                    
                                                                                                    
                                                                                                    
                                                                                                    
                                                                                                    
                                                                                                    
                                                                                                    
                                                                                                    
                                                                                                    
                                                                                                    
                                                                                                    
                                                                                                    
                                                                                                    
                                                                                                    
                                                                                                    
                           
<?xpacket end="w"?></metadata>
<defs>
    <style>
      .cls-1 {
        fill: #282624;
        fill-rule: evenodd;
        filter: url(#filter);
      }
    </style>
    <filter id="filter" x="950" y="505" width="18" height="23" filterUnits="userSpaceOnUse">
      <feFlood result="flood" flood-color="#bbb"/>
      <feComposite result="composite" operator="in" in2="SourceGraphic"/>
      <feBlend result="blend" in2="SourceGraphic"/>
    </filter>
  </defs>
  <path id="Фигура_7" data-name="Фигура 7" class="cls-1" d="M953.756,515.146a1.374,1.374,0,1,1-1.371,1.374A1.373,1.373,0,0,1,953.756,515.146ZM962.673,505a1.94,1.94,0,1,1-1.936,1.94A1.939,1.939,0,0,1,962.673,505Zm2.946,4.285a4.977,4.977,0,0,0-1.775-.162l-0.969,1.94L963,509.446h0.041v-0.323h-0.606v0.323h0.041l0.121,1.617-0.969-1.94a4.917,4.917,0,0,0-1.775.162c-0.807.283-2.542,1.576-3.631,7.558a1.164,1.164,0,0,0,.04.526,3.916,3.916,0,0,1-2.421.687,3.8,3.8,0,0,0-2.9,1.092,3.877,3.877,0,0,0-.928,2.708,0.69,0.69,0,0,0,.646.606h0.04a0.637,0.637,0,0,0,.6-0.687,2.788,2.788,0,0,1,.565-1.738,1.767,1.767,0,0,1,.282-0.243v2.021a1.642,1.642,0,0,0,.121.607v4.81a0.686,0.686,0,1,0,1.372,0v-3.759h0.323v3.759a0.686,0.686,0,1,0,1.372,0v-4.81a1.622,1.622,0,0,0,.121-0.607v-2.667a4.369,4.369,0,0,0,1.977-1.132,1.071,1.071,0,0,0,.726-0.768c0.646-3.517,1.453-5.013,1.937-5.619v15.239a1.11,1.11,0,1,0,2.219,0v-7.882a0.476,0.476,0,0,1,.444-0.4,0.446,0.446,0,0,1,.444.4v7.8a1.156,1.156,0,0,0,1.13,1.132,1.1,1.1,0,0,0,1.089-1.132V512.842a15.9,15.9,0,0,1,.525,3.193,1.029,1.029,0,0,0,2.058,0C967.878,510.214,965.619,509.285,965.619,509.285Z" transform="translate(-950 -505)"/>
</svg>
