<svg xmlns="http://www.w3.org/2000/svg" width="120" height="48" fill="none" viewBox="0 0 120 48">
    <mask id="a" width="137" height="56" x="-9" y="-4" maskUnits="userSpaceOnUse">
        <path fill="#fff" d="M-9-4h137v56H-9z"/>
    </mask>
    <g mask="url(#a)">
        <path fill="#00AFAA" d="M0 15.087h11.815c5.31 8.931 12.97 16.343 22.197 21.481V48c-7.891-2.605-15.06-6.926-20.956-12.633C7.16 29.661 2.695 22.721.004 15.083"/>
        <path fill="#00539B" d="M34.012 15.087v21.485c-9.227-5.14-16.884-12.553-22.193-21.485h22.193z"/>
        <path fill="#00AFAA" d="M34.012 15.087H11.815A56.592 56.592 0 0 1 5.575 0h12.847c2.047 0 4.074.39 5.966 1.147 1.891.758 3.61 1.87 5.058 3.27a15.065 15.065 0 0 1 3.38 4.895 14.667 14.667 0 0 1 1.186 5.775z"/>
        <path fill="#F39A00" d="M49.599 30.173V42.6a60.601 60.601 0 0 1-15.587-6.032V15.087c4.135 0 8.1 1.591 11.022 4.421 2.923 2.83 4.565 6.668 4.565 10.67"/>
        <path fill="#00AFAA" d="M33.884 0c.851 3.72 2.782 7.127 5.565 9.82a20.87 20.87 0 0 0 10.146 5.386V0h-15.71z"/>
        <path fill="#00539B" d="M94.72 33.988l-6.557-8.872v8.872h-4.919V15.023h4.915v8.292l5.81-8.292h5.365l-6.31 8.58 7.449 10.385h-5.752zm15.637-3.32c3.202 0 4.395-2.524 4.395-6.127 0-3.243-.97-5.911-4.247-5.911-1.787 0-3.132.43-4.098 1.226-.222 1.226-.152 3.171-.152 4.393 0 3.895 1.267 6.42 4.098 6.42h.004zm-4.474-13.916a9.687 9.687 0 0 1 5.736-2.017c5.588 0 8.254 3.823 8.254 9.303 0 6.922-4.024 10.457-9.834 10.457-5.736 0-8.868-3.535-8.868-11.683 0-6.79 1.584-11.448 4.023-13.629 2.782-2.488 3.652-2.452 6.929-3.247 2.014-.504 3.949-.8 4.692-1.083l1.787 3.895c-.97.579-2.757.938-6.33 1.657-4.098.8-5.964 2.161-6.409 6.347h.02zm-30.418 1.874v15.362h-4.812V18.63h-5.141v-3.595h15.132v3.595h-5.146l-.033-.004z"/>
    </g>
</svg>
