<svg width="80" height="80" viewBox="0 0 80 80" fill="none" xmlns="http://www.w3.org/2000/svg">
<path d="M51.525 52.991V70.741C51.525 72.3223 50.3219 73.5974 48.8281 73.5974H7.78772C6.3064 73.5974 5.09082 72.3223 5.09082 70.741V9.24369C5.09082 7.67494 6.30645 6.40308 7.78772 6.40308H48.8281C50.322 6.40308 51.525 7.67809 51.525 9.24369V25.2875" stroke="white" stroke-miterlimit="10" stroke-linecap="round" stroke-linejoin="round"/>
<path d="M5.09717 16.8002H51.5195" stroke="white" stroke-miterlimit="10" stroke-linecap="round" stroke-linejoin="round"/>
<path d="M5.09717 61.4784H51.5195" stroke="white" stroke-miterlimit="10" stroke-linecap="round" stroke-linejoin="round"/>
<path d="M71.8538 52.9852H36.4193C34.7317 52.9852 33.363 51.6165 33.363 49.9289L33.3599 28.3505C33.3599 26.6629 34.7286 25.2942 36.4162 25.2942H71.8507C73.5383 25.2942 74.907 26.663 74.907 28.3505V49.9289C74.9102 51.6165 73.5414 52.9852 71.8539 52.9852H71.8538Z" stroke="white" stroke-miterlimit="10" stroke-linecap="round" stroke-linejoin="round"/>
<path d="M33.3604 30.4875H74.9069V36.547H33.3604V30.4875Z" stroke="white" stroke-miterlimit="10" stroke-linecap="round" stroke-linejoin="round"/>
<path d="M70.7221 45.1029C70.7221 49.3592 64.3408 49.3592 64.3408 45.1029C64.3408 40.8466 70.7221 40.8466 70.7221 45.1029" stroke="white" stroke-miterlimit="10" stroke-linecap="round" stroke-linejoin="round"/>
<path d="M65.2416 47.3125C64.6603 47.9187 63.8384 48.2906 62.9384 48.2906C61.1822 48.2906 59.7446 46.8625 59.7446 45.0968C59.7446 43.3406 61.1821 41.9124 62.9384 41.9124C63.8384 41.9124 64.6603 42.2842 65.2416 42.8905" stroke="white" stroke-miterlimit="10" stroke-linecap="round" stroke-linejoin="round"/>
<path d="M37.5469 43.2688H50.9658" stroke="white" stroke-miterlimit="10" stroke-linecap="round" stroke-linejoin="round"/>
<path d="M37.5469 48.2942H50.9658" stroke="white" stroke-miterlimit="10" stroke-linecap="round" stroke-linejoin="round"/>
<path d="M24.9253 67.2253H31.691" stroke="white" stroke-miterlimit="10" stroke-linecap="round" stroke-linejoin="round"/>
<path d="M26.4717 11.4032H35.1311" stroke="white" stroke-miterlimit="10" stroke-linecap="round" stroke-linejoin="round"/>
</svg>
