<svg width="80" height="80" viewBox="0 0 80 80" fill="none" xmlns="http://www.w3.org/2000/svg">
<path d="M47.7836 15.928C48.4242 16.1374 49.0554 16.3749 49.6711 16.6312C50.2961 16.8874 50.9117 17.1687 51.5117 17.478L52.4086 16.5812C53.5117 15.478 54.968 14.9249 56.4242 14.9249C57.8711 14.9249 59.3273 15.478 60.4398 16.5812L63.4805 19.628C64.5429 20.7249 65.0711 22.1468 65.0711 23.5718C65.0711 25.028 64.518 26.4843 63.4149 27.5874L62.518 28.4843C62.8305 29.0843 63.1086 29.6999 63.3649 30.3156C63.6211 30.9312 63.8617 31.5624 64.068 32.2124H65.3242C66.893 32.2124 68.3149 32.8531 69.3398 33.8749C70.3711 34.9062 71.0117 36.3312 71.0117 37.8905V42.0999C71.0117 43.6686 70.371 45.0843 69.3398 46.1155C68.3149 47.1404 66.893 47.778 65.3242 47.778H64.068C63.8524 48.4248 63.6211 49.0592 63.3649 49.6748L63.3399 49.7373C63.0836 50.3373 62.8117 50.928 62.5149 51.5061L63.4743 52.4748C64.5367 53.5717 65.0649 54.9935 65.0649 56.4185C65.0649 57.8748 64.5118 59.331 63.4087 60.4341L60.4336 63.4092C59.3305 64.5123 57.8743 65.0717 56.418 65.0717C54.9618 65.0717 53.5055 64.5123 52.4024 63.4092L51.5055 62.5217C50.9055 62.8248 50.2899 63.1123 49.6743 63.3685C49.0586 63.6248 48.4274 63.856 47.7774 64.0654V65.3217C47.7774 66.8904 47.1368 68.3123 46.1149 69.3373C45.0836 70.3685 43.6587 71.0091 42.0993 71.0091H37.8899C36.3212 71.0091 34.9055 70.3685 33.8743 69.3373C32.8494 68.3123 32.2119 66.8904 32.2119 65.3217V64.0654C31.5712 63.856 30.94 63.6248 30.315 63.3685C29.6994 63.106 29.0837 62.8248 28.4837 62.5123L27.5868 63.4092C26.4837 64.5123 25.0275 65.0717 23.5712 65.0717C22.115 65.0717 20.6587 64.5123 19.5556 63.4092L16.515 60.3685C15.4525 59.2717 14.915 57.8404 14.915 56.4154C14.915 54.9592 15.4744 53.5029 16.5775 52.3998L17.4743 51.5029C17.1619 50.9029 16.8837 50.2936 16.6275 49.6717L16.6025 49.6092C16.3556 49.0092 16.1306 48.3998 15.9212 47.7779H14.665C13.0963 47.7779 11.6743 47.1373 10.6494 46.1154C9.6181 45.0841 8.97754 43.6685 8.97754 42.0998V37.8904C8.97754 36.3311 9.61816 34.906 10.6494 33.8748C11.6743 32.8499 13.0963 32.2124 14.665 32.2124H15.9212C16.1306 31.5717 16.3618 30.9405 16.6181 30.3248L16.6493 30.2623C16.8962 29.6623 17.1775 29.0623 17.4743 28.4873L16.5774 27.5904C15.4743 26.4873 14.9149 25.0311 14.9149 23.5748C14.9149 22.1279 15.4743 20.6717 16.5774 19.5592L19.5525 16.5842C20.6556 15.4811 22.1118 14.9279 23.5681 14.9279C25.0243 14.9279 26.4805 15.4811 27.5837 16.5842L28.4805 17.4811C29.0805 17.1686 29.6899 16.8904 30.3118 16.6342L30.3743 16.6092C30.9743 16.3623 31.5837 16.1373 32.2056 15.9279V14.6717C32.2056 13.103 32.8462 11.6811 33.8681 10.6561C34.8994 9.62481 36.315 8.98425 37.8837 8.98425H42.093C43.6524 8.98425 45.0774 9.62488 46.1086 10.6561C47.1336 11.6811 47.7711 13.103 47.7711 14.6717V15.9279L47.7836 15.928ZM48.7742 18.8093C47.9992 18.4812 47.1898 18.1999 46.3649 17.9624C45.8211 17.8499 45.4211 17.3781 45.4211 16.8031V14.6749C45.4211 13.7624 45.0461 12.9312 44.4461 12.3312C43.8367 11.7312 43.0148 11.3561 42.1023 11.3561H37.8929C36.9805 11.3561 36.1492 11.7311 35.5492 12.3312C34.9492 12.9312 34.5741 13.7624 34.5741 14.6749V16.8031C34.5741 17.3218 34.2304 17.7937 33.7117 17.9406C32.8804 18.1812 32.0648 18.4687 31.2804 18.7875L31.2241 18.8125C30.4335 19.1406 29.6648 19.5093 28.9273 19.9094C28.471 20.2218 27.8397 20.1812 27.4304 19.7718L25.9179 18.2594C25.2773 17.6125 24.421 17.2906 23.5741 17.2906C22.7179 17.2906 21.871 17.6094 21.221 18.2594L18.2523 21.2344C17.6054 21.875 17.2836 22.7219 17.2836 23.5782C17.2836 24.425 17.6023 25.2813 18.2523 25.9219L19.7648 27.4344C20.1179 27.8032 20.2117 28.3782 19.9554 28.8438C19.5304 29.5969 19.1554 30.3813 18.8179 31.1813L18.7929 31.2375C18.4741 32.0219 18.1835 32.8219 17.9522 33.6469C17.8397 34.1844 17.3616 34.5844 16.7929 34.5844H14.6647C13.7522 34.5844 12.921 34.9594 12.321 35.5595C11.7116 36.1688 11.3459 36.9907 11.3459 37.9032V42.1126C11.3459 43.0251 11.7147 43.8563 12.321 44.4563C12.921 45.0563 13.7522 45.4314 14.6647 45.4314H16.7929C17.3116 45.4314 17.7835 45.7751 17.9304 46.2939C18.171 47.1251 18.4492 47.9407 18.771 48.7251L18.8023 48.7814C19.1304 49.572 19.4992 50.3408 19.8992 51.0783C20.2117 51.5345 20.1617 52.1658 19.7617 52.5752L18.2492 54.0876C17.6023 54.7283 17.2805 55.5845 17.2805 56.4314C17.2805 57.2627 17.5836 58.0939 18.1929 58.7283L21.2179 61.7532C21.8648 62.4001 22.7148 62.722 23.571 62.722C24.4179 62.722 25.2741 62.4032 25.9148 61.7532L27.4273 60.2408C27.796 59.8876 28.3648 59.7939 28.8366 60.0501C29.596 60.4751 30.396 60.8657 31.221 61.2032C32.0054 61.5314 32.821 61.8189 33.6617 62.0595C34.1804 62.1782 34.5741 62.6501 34.5741 63.2126V65.3408C34.5741 66.2533 34.9491 67.0845 35.5492 67.6845C36.1492 68.2939 36.9805 68.6596 37.8929 68.6596H42.1023C43.0148 68.6596 43.8398 68.2908 44.4461 67.6845C45.0461 67.0845 45.4211 66.2533 45.4211 65.3408V63.2126C45.4211 62.6939 45.7649 62.222 46.2836 62.0751C47.1305 61.8345 47.9649 61.547 48.7711 61.2126C49.5617 60.8751 50.3305 60.5095 51.0586 60.1095C51.5211 59.797 52.1555 59.847 52.5617 60.2532L54.0742 61.7564C54.7149 62.4032 55.5618 62.7251 56.418 62.7251C57.2649 62.7251 58.1211 62.4063 58.7617 61.7564L61.7368 58.7876C62.3837 58.1408 62.7055 57.2908 62.7055 56.4345C62.7055 55.6032 62.4024 54.772 61.7868 54.1376L60.2274 52.5783C59.868 52.2095 59.7712 51.6408 60.0368 51.1689C60.4524 50.4158 60.8368 49.6314 61.1743 48.8408L61.1899 48.7845C61.5181 48.0001 61.7993 47.1939 62.0368 46.3689C62.1493 45.8314 62.6212 45.4314 63.1899 45.4314H65.3275C66.2399 45.4314 67.0712 45.0564 67.6712 44.4564C68.2712 43.8563 68.6463 43.0251 68.6463 42.1126V37.9032C68.6463 36.9908 68.2713 36.1657 67.6712 35.5595C67.0712 34.9595 66.2399 34.5844 65.3275 34.5844H63.1899C62.6775 34.5844 62.2055 34.2407 62.0618 33.722C61.8212 32.8751 61.5243 32.0407 61.1899 31.2344C60.8618 30.4438 60.4931 29.6751 60.0868 28.9469C59.7743 28.4844 59.8243 27.85 60.2306 27.4438L61.7431 25.9313C62.3899 25.2907 62.7118 24.4344 62.7118 23.5875C62.7118 22.7563 62.4087 21.9251 61.7931 21.2844L58.7681 18.2688C58.1275 17.622 57.2806 17.3001 56.4243 17.3001C55.5775 17.3001 54.7212 17.6189 54.0806 18.2688L52.5681 19.7813C52.1993 20.1407 51.6243 20.2376 51.1587 19.9719C50.3994 19.5469 49.5994 19.1626 48.7743 18.8188L48.7742 18.8093ZM39.999 24C44.4146 24 48.4238 25.7906 51.3174 28.6875C54.2143 31.575 56.0049 35.5844 56.0049 40.0003C56.0049 44.4252 54.2143 48.4251 51.3174 51.3187C48.4205 54.2156 44.4143 56.0062 39.999 56.0062C35.5837 56.0062 31.5742 54.2156 28.6806 51.3187C25.7837 48.4218 23.9931 44.4218 23.9931 40.0003C23.9931 35.5847 25.7837 31.5755 28.6806 28.6875C31.5775 25.7906 35.5837 24 39.999 24ZM49.6462 30.3531C47.1744 27.8906 43.7649 26.3624 39.999 26.3624C36.2303 26.3624 32.824 27.8906 30.3518 30.3531C27.8893 32.8249 26.3612 36.2344 26.3612 40.0003C26.3612 43.769 27.8893 47.1753 30.3518 49.6475C32.8237 52.11 36.2331 53.6381 39.999 53.6381C43.7677 53.6381 47.1741 52.11 49.6462 49.6475C52.1087 47.1756 53.6369 43.7662 53.6369 40.0003C53.6369 36.2316 52.1087 32.8252 49.6462 30.3531Z" fill="white"/>
</svg>
