<svg xmlns="http://www.w3.org/2000/svg" width="609" height="802" viewBox="0 0 609 802">
  <metadata><?xpacket begin="﻿" id="W5M0MpCehiHzreSzNTczkc9d"?>
<x:xmpmeta xmlns:x="adobe:ns:meta/" x:xmptk="Adobe XMP Core 5.6-c142 79.160924, 2017/07/13-01:06:39        ">
   <rdf:RDF xmlns:rdf="http://www.w3.org/1999/02/22-rdf-syntax-ns#">
      <rdf:Description rdf:about=""/>
   </rdf:RDF>
</x:xmpmeta>
                                                                                                    
                                                                                                    
                                                                                                    
                                                                                                    
                                                                                                    
                                                                                                    
                                                                                                    
                                                                                                    
                                                                                                    
                                                                                                    
                                                                                                    
                                                                                                    
                                                                                                    
                                                                                                    
                                                                                                    
                                                                                                    
                                                                                                    
                                                                                                    
                                                                                                    
                                                                                                    
                           
<?xpacket end="w"?></metadata>
<defs>
    <style>
      .cls-1 {
        fill: #f8f8f8;
        fill-rule: evenodd;
      }
    </style>
  </defs>
  <path id="Фигура_1687_копия" data-name="Фигура 1687 копия" class="cls-1" d="M-229.914,365.877l1.564-3.467c34.758-76.4,95.944-131.816,167.161-159.79,71.253-27.989,152.551-28.53,227.478,4.83l3.249,1.48c75.838,34.848,130.521,98.086,157.617,172.145a316.951,316.951,0,0,1-7.821,237.032l-1.571,3.484c-34.758,76.4-95.941,131.8-167.154,159.778C79.358,809.355-1.93,809.9-76.855,776.539l-3.263-1.486c-75.837-34.843-130.522-98.079-157.619-172.139a316.95,316.95,0,0,1,7.824-237.037h0Zm9.636,0.238-1.5,3.364a308.02,308.02,0,0,0-7.613,230.36c26.311,71.911,79.378,133.3,152.956,167.1l3.16,1.418c72.683,32.358,151.536,31.836,220.645,4.69,69.15-27.161,128.561-80.969,162.316-155.162l1.5-3.38a308.016,308.016,0,0,0,7.612-230.355c-26.311-71.911-79.379-133.3-152.954-167.108l-3.139-1.427C90.021,183.27,11.161,183.791-57.954,210.94-127.107,238.1-186.522,291.916-220.278,366.115ZM511.075,127.988l2.536,3.256c55.323,71.882,77.348,158.642,68.185,241.262-9.168,82.659-49.549,161.179-119.028,216.516l-3.058,2.4c-71.349,55.464-159.117,76.283-243.331,65.111a339.275,339.275,0,0,1-222-126.775L-8.155,526.5C-63.48,454.615-85.505,367.85-76.342,285.232c9.166-82.664,49.549-161.183,119.031-216.527l3.055-2.4C117.092,10.849,204.861-9.972,289.077,1.2a339.258,339.258,0,0,1,222,126.786h0Zm-4.493,8.708-2.456-3.165A330.477,330.477,0,0,0,287.93,10.049C205.973-.826,120.573,19.424,51.17,73.373l-2.955,2.316C-19.333,129.505-58.6,205.844-67.507,286.21c-8.919,80.406,12.526,164.861,66.38,234.833L1.337,524.2A330.414,330.414,0,0,0,217.526,647.686c81.955,10.873,167.353-9.377,236.758-63.328l2.952-2.328c67.551-53.8,106.811-130.141,115.725-210.5C581.88,291.122,560.435,206.672,506.582,136.7ZM467.1,497.394l-2.41,3.356c-53.408,73.333-130.269,118.636-211.807,132.669C171.314,647.457,85.062,630.207,12.9,578.435l-3.146-2.281C-63.038,522.608-107.258,443.613-119.9,359.2A342.681,342.681,0,0,1-60.15,109.723l2.406-3.351C-4.335,33.038,72.527-12.267,154.066-26.3c81.566-14.038,167.82,3.213,239.983,54.987l3.139,2.276C469.984,84.507,514.2,163.5,526.844,247.917A342.684,342.684,0,0,1,467.1,497.394h0Zm-9.578-1.925,2.342-3.249a333.75,333.75,0,0,0,58.182-242.975c-12.3-82.154-55.31-159.006-126.108-211.079L388.9,35.959C318.749-14.372,234.88-31.14,155.562-17.489,76.218-3.833,1.415,40.266-50.576,111.652l-2.339,3.245A333.743,333.743,0,0,0-111.1,357.867C-98.8,440.021-55.785,516.876,15.01,568.951l3.039,2.212c70.149,50.329,154.016,67.1,233.334,53.445C330.725,610.952,405.528,566.854,457.517,495.469ZM32.655,295.347l1.566-3.474c34.756-76.4,95.94-131.812,167.157-159.786,71.254-27.989,152.55-28.527,227.477,4.83l3.252,1.482c75.838,34.848,130.519,98.084,157.616,172.144A316.947,316.947,0,0,1,581.9,547.575l-1.571,3.485c-34.757,76.4-95.943,131.805-167.154,159.778-71.25,27.985-152.54,28.526-227.462-4.829l-3.263-1.487C106.609,669.678,51.927,606.443,24.828,532.381a316.957,316.957,0,0,1,7.827-237.034h0Zm9.639,0.232-1.5,3.369A308.028,308.028,0,0,0,33.179,529.3c26.313,71.913,79.378,133.3,152.959,167.1l3.16,1.42c72.679,32.355,151.534,31.834,220.643,4.688C479.09,675.356,538.5,621.548,572.257,547.355l1.5-3.382a308.026,308.026,0,0,0,7.611-230.355C555.063,241.709,502,180.321,428.421,146.511l-3.15-1.414c-72.685-32.358-151.541-31.839-220.658-4.69C135.463,167.571,76.046,221.382,42.294,295.579Z"/>
</svg>
