<svg xmlns="http://www.w3.org/2000/svg" xmlns:xlink="http://www.w3.org/1999/xlink" width="21.31" height="20.375" viewBox="0 0 21.31 20.375">
  <metadata><?xpacket begin="﻿" id="W5M0MpCehiHzreSzNTczkc9d"?>
<x:xmpmeta xmlns:x="adobe:ns:meta/" x:xmptk="Adobe XMP Core 5.6-c142 79.160924, 2017/07/13-01:06:39        ">
   <rdf:RDF xmlns:rdf="http://www.w3.org/1999/02/22-rdf-syntax-ns#">
      <rdf:Description rdf:about=""/>
   </rdf:RDF>
</x:xmpmeta>
                                                                                                    
                                                                                                    
                                                                                                    
                                                                                                    
                                                                                                    
                                                                                                    
                                                                                                    
                                                                                                    
                                                                                                    
                                                                                                    
                                                                                                    
                                                                                                    
                                                                                                    
                                                                                                    
                                                                                                    
                                                                                                    
                                                                                                    
                                                                                                    
                                                                                                    
                                                                                                    
                           
<?xpacket end="w"?></metadata>
<defs>
    <style>
      .cls-1 {
        fill: #4ba55e;
        fill-rule: evenodd;
        filter: url(#filter);
      }
    </style>
    <filter id="filter" x="1096.69" y="31.625" width="21.31" height="20.375" filterUnits="userSpaceOnUse">
      <feFlood result="flood" flood-color="#55974d"/>
      <feComposite result="composite" operator="in" in2="SourceGraphic"/>
      <feBlend result="blend" in2="SourceGraphic"/>
    </filter>
  </defs>
  <path id="Фигура_1683" data-name="Фигура 1683" class="cls-1" d="M1117.55,35.117a2,2,0,0,0-1.56-.74h-13.11a1.97,1.97,0,0,0-1.04.3l-0.67-2.382a0.885,0.885,0,0,0-.85-0.659h-2.96a0.685,0.685,0,0,0-.68.686v0.072a0.682,0.682,0,0,0,.68.686h2.55l1.3,4.678,1.78,6.454a2.388,2.388,0,0,0,.42,4.687,2.353,2.353,0,0,0-.12.96,2.288,2.288,0,0,0,4.57-.188,2.437,2.437,0,0,0-.13-0.767h2.68a2.381,2.381,0,0,0-.12,1.036,2.3,2.3,0,1,0,2.24-2.6h-8.95a0.814,0.814,0,0,1-.82-0.785,0.8,0.8,0,0,1,.8-0.848h10.68a2,2,0,0,0,1.92-1.53l1.78-7.293A2.037,2.037,0,0,0,1117.55,35.117ZM1112.57,48.9a0.767,0.767,0,1,1-.75.767A0.763,0.763,0,0,1,1112.57,48.9Zm-7,0a0.767,0.767,0,1,1-.76.767A0.763,0.763,0,0,1,1105.57,48.9Zm-2.77-11.15-0.34-1.233a0.447,0.447,0,0,1,.42-0.574h1.44l0.39,1.812h-1.91v0h0Zm0.43,1.561h1.82l0.36,1.677h-1.71Zm1.67,4.826a0.432,0.432,0,0,1-.42-0.332l-0.35-1.256h1.61l0.35,1.583h-1.19v0h0Zm3.84,0h-1.08l-0.35-1.583h1.43v1.583h0Zm0-3.148h-1.76l-0.36-1.677h2.12v1.677Zm0-3.238h-2.46l-0.39-1.812h2.85v1.812Zm2.75,6.387h-1.21V42.553h1.54Zm0.65-3.148h-1.86V39.31h2.21Zm-1.86-3.238V35.937h2.91l-0.38,1.812h-2.53Zm4.39,6.046a0.442,0.442,0,0,1-.43.346h-1.18l0.33-1.583h1.59Zm0.69-2.808h-1.65l0.35-1.677h1.71Zm1.09-4.489-0.31,1.247h-1.76l0.38-1.812h1.26a0.39,0.39,0,0,1,.34.175A0.416,0.416,0,0,1,1116.45,36.5Z" transform="translate(-1096.69 -31.625)"/>
</svg>
