<svg xmlns="http://www.w3.org/2000/svg" xmlns:xlink="http://www.w3.org/1999/xlink" width="20.687" height="21" viewBox="0 0 20.687 21">
  <metadata><?xpacket begin="﻿" id="W5M0MpCehiHzreSzNTczkc9d"?>
<x:xmpmeta xmlns:x="adobe:ns:meta/" x:xmptk="Adobe XMP Core 5.6-c142 79.160924, 2017/07/13-01:06:39        ">
   <rdf:RDF xmlns:rdf="http://www.w3.org/1999/02/22-rdf-syntax-ns#">
      <rdf:Description rdf:about=""/>
   </rdf:RDF>
</x:xmpmeta>
                                                                                                    
                                                                                                    
                                                                                                    
                                                                                                    
                                                                                                    
                                                                                                    
                                                                                                    
                                                                                                    
                                                                                                    
                                                                                                    
                                                                                                    
                                                                                                    
                                                                                                    
                                                                                                    
                                                                                                    
                                                                                                    
                                                                                                    
                                                                                                    
                                                                                                    
                                                                                                    
                           
<?xpacket end="w"?></metadata>
<defs>
    <style>
      .cls-1 {
        fill: #55974d;
        fill-rule: evenodd;
        filter: url(#filter);
      }
    </style>
    <filter id="filter" x="862.594" y="32" width="20.687" height="21" filterUnits="userSpaceOnUse">
      <feFlood result="flood" flood-color="#55974d"/>
      <feComposite result="composite" operator="in" in2="SourceGraphic"/>
      <feBlend result="blend" in2="SourceGraphic"/>
    </filter>
  </defs>
  <path id="Фигура_1682" data-name="Фигура 1682" class="cls-1" d="M880.127,36.763h-6.552V35.785a1.92,1.92,0,1,0-1.28,0v0.978h-6.552l-3.152,7.017v0.141a3.564,3.564,0,1,0,7.128,0V43.78l-2.569-5.718H872.3V49.1h-3.081l-1.28,3.9h10l-1.279-3.9h-3.082V38.062h5.146l-2.569,5.718v0.141a3.564,3.564,0,1,0,7.128,0V43.78ZM872.935,33.3a0.65,0.65,0,1,1-.64.649A0.645,0.645,0,0,1,872.935,33.3Zm-6.78,12.941a2.293,2.293,0,0,1-2.193-1.669h4.385A2.293,2.293,0,0,1,866.155,46.239Zm1.929-2.968h-3.858l1.929-4.294Zm8.077,8.43h-6.452l0.427-1.3h5.6Zm3.555-12.723,1.929,4.294h-3.858Zm0,7.262a2.294,2.294,0,0,1-2.193-1.669h4.385A2.293,2.293,0,0,1,879.716,46.239Z" transform="translate(-862.594 -32)"/>
</svg>
