<svg xmlns="http://www.w3.org/2000/svg" xmlns:xlink="http://www.w3.org/1999/xlink" width="43" height="32" viewBox="0 0 43 32">
  <metadata><?xpacket begin="﻿" id="W5M0MpCehiHzreSzNTczkc9d"?>
<x:xmpmeta xmlns:x="adobe:ns:meta/" x:xmptk="Adobe XMP Core 5.6-c142 79.160924, 2017/07/13-01:06:39        ">
   <rdf:RDF xmlns:rdf="http://www.w3.org/1999/02/22-rdf-syntax-ns#">
      <rdf:Description rdf:about=""/>
   </rdf:RDF>
</x:xmpmeta>
                                                                                                    
                                                                                                    
                                                                                                    
                                                                                                    
                                                                                                    
                                                                                                    
                                                                                                    
                                                                                                    
                                                                                                    
                                                                                                    
                                                                                                    
                                                                                                    
                                                                                                    
                                                                                                    
                                                                                                    
                                                                                                    
                                                                                                    
                                                                                                    
                                                                                                    
                                                                                                    
                           
<?xpacket end="w"?></metadata>
<defs>
    <style>
      .cls-1 {
        fill: #009846;
        fill-rule: evenodd;
        filter: url(#filter);
      }
    </style>
    <filter id="filter" x="996" y="1956" width="43" height="32" filterUnits="userSpaceOnUse">
      <feFlood result="flood" flood-color="#fff"/>
      <feComposite result="composite" operator="in" in2="SourceGraphic"/>
      <feBlend result="blend" in2="SourceGraphic"/>
    </filter>
  </defs>
  <path id="Фигура_1686" data-name="Фигура 1686" class="cls-1" d="M1033.75,1956h-32.49a5.209,5.209,0,0,0-5.26,5.14v21.72a5.209,5.209,0,0,0,5.26,5.14h32.48a5.21,5.21,0,0,0,5.26-5.14v-21.71A5.2,5.2,0,0,0,1033.75,1956Zm2.86,26.86a2.832,2.832,0,0,1-2.86,2.79h-32.49a2.826,2.826,0,0,1-2.858-2.79v-21.71a2.826,2.826,0,0,1,2.858-2.79h32.48a2.826,2.826,0,0,1,2.86,2.79v21.71h0.01Zm-13.49-11.13,10.51-9.22a1.156,1.156,0,0,0,.09-1.66,1.221,1.221,0,0,0-1.7-.09l-14.5,12.73-2.83-2.47a0.053,0.053,0,0,1-.02-0.03,1.462,1.462,0,0,0-.19-0.16l-11.51-10.08a1.221,1.221,0,0,0-1.7.1,1.156,1.156,0,0,0,.09,1.66l10.65,9.3-10.6,9.7a1.154,1.154,0,0,0-.05,1.66,1.262,1.262,0,0,0,.88.38,1.247,1.247,0,0,0,.82-0.32l10.75-9.84,2.92,2.55a1.226,1.226,0,0,0,.8.3,1.2,1.2,0,0,0,.8-0.31l3-2.63,10.69,9.94a1.234,1.234,0,0,0,1.7-.04,1.154,1.154,0,0,0-.04-1.66Z" transform="translate(-996 -1956)"/>
</svg>
