<svg xmlns="http://www.w3.org/2000/svg" width="14" height="25" viewBox="0 0 14 25">
  <metadata><?xpacket begin="﻿" id="W5M0MpCehiHzreSzNTczkc9d"?>
<x:xmpmeta xmlns:x="adobe:ns:meta/" x:xmptk="Adobe XMP Core 5.6-c142 79.160924, 2017/07/13-01:06:39        ">
   <rdf:RDF xmlns:rdf="http://www.w3.org/1999/02/22-rdf-syntax-ns#">
      <rdf:Description rdf:about=""/>
   </rdf:RDF>
</x:xmpmeta>
                                                                                                    
                                                                                                    
                                                                                                    
                                                                                                    
                                                                                                    
                                                                                                    
                                                                                                    
                                                                                                    
                                                                                                    
                                                                                                    
                                                                                                    
                                                                                                    
                                                                                                    
                                                                                                    
                                                                                                    
                                                                                                    
                                                                                                    
                                                                                                    
                                                                                                    
                                                                                                    
                           
<?xpacket end="w"?></metadata>
<defs>
    <style>
      .cls-1 {
        fill: #55974d;
        fill-rule: evenodd;
      }
    </style>
  </defs>
  <path id="Фигура_1695_копия" data-name="Фигура 1695 копия" class="cls-1" d="M651.221,642.046A3.678,3.678,0,0,0,649,645.405v4.27a3.62,3.62,0,0,0,2.379,3.417c0.193,0.072.435,0.16,0.718,0.251v8.945a1.346,1.346,0,0,0,.427.98l2.49,2.347a1.438,1.438,0,0,0,1.967-.006l2.506-2.39a1.348,1.348,0,0,0,.421-0.975V657.8a1.408,1.408,0,0,0-2.815,0v3.867l-1.105,1.054-1.077-1.015v-9.392a1.374,1.374,0,0,0-1.072-1.326,12.11,12.11,0,0,1-1.45-.45,0.9,0.9,0,0,1-.574-0.871v-4.263a0.931,0.931,0,0,1,.558-0.868,9.345,9.345,0,0,1,3.588-.808,9.612,9.612,0,0,1,3.652.8,0.934,0.934,0,0,1,.576.858v4.315a0.971,0.971,0,0,1-.623.88,9.532,9.532,0,0,1-1.393.424,1.365,1.365,0,0,0-1.042,1.646,1.41,1.41,0,0,0,1.7,1.011,12.283,12.283,0,0,0,1.811-.555,3.686,3.686,0,0,0,2.365-3.4v-4.321a3.661,3.661,0,0,0-2.266-3.359A12.486,12.486,0,0,0,655.95,641,12.2,12.2,0,0,0,651.221,642.046Zm3.335,4.487a1.408,1.408,0,1,1,1.407,1.366A1.387,1.387,0,0,1,654.556,646.533Z" transform="translate(-649 -641)"/>
</svg>
