<svg xmlns="http://www.w3.org/2000/svg" xmlns:xlink="http://www.w3.org/1999/xlink" width="21.341" height="19.094" viewBox="0 0 21.341 19.094">
  <metadata><?xpacket begin="﻿" id="W5M0MpCehiHzreSzNTczkc9d"?>
<x:xmpmeta xmlns:x="adobe:ns:meta/" x:xmptk="Adobe XMP Core 5.6-c142 79.160924, 2017/07/13-01:06:39        ">
   <rdf:RDF xmlns:rdf="http://www.w3.org/1999/02/22-rdf-syntax-ns#">
      <rdf:Description rdf:about=""/>
   </rdf:RDF>
</x:xmpmeta>
                                                                                                    
                                                                                                    
                                                                                                    
                                                                                                    
                                                                                                    
                                                                                                    
                                                                                                    
                                                                                                    
                                                                                                    
                                                                                                    
                                                                                                    
                                                                                                    
                                                                                                    
                                                                                                    
                                                                                                    
                                                                                                    
                                                                                                    
                                                                                                    
                                                                                                    
                                                                                                    
                           
<?xpacket end="w"?></metadata>
<defs>
    <style>
      .cls-1 {
        fill: #c1c1c1;
        fill-rule: evenodd;
        filter: url(#filter);
      }
    </style>
    <filter id="filter" x="987.469" y="33.906" width="21.341" height="19.094" filterUnits="userSpaceOnUse">
      <feFlood result="flood" flood-color="#55974d"/>
      <feComposite result="composite" operator="in" in2="SourceGraphic"/>
      <feBlend result="blend" in2="SourceGraphic"/>
    </filter>
  </defs>
  <path id="Фигура_1684" data-name="Фигура 1684" class="cls-1" d="M1008.64,38.962c-0.6-3.05-2.77-5.016-5.57-5.016a8.511,8.511,0,0,0-4.912,1.856,8.418,8.418,0,0,0-4.949-1.893c-2.8,0-4.985,1.984-5.573,5.071-0.883,4.575,1.95,10.657,10.246,13.964a0.719,0.719,0,0,0,.552,0C1006.71,49.564,1009.53,43.5,1008.64,38.962ZM998.158,51.438c-7.285-3.013-9.805-8.268-9.051-12.182,0.442-2.333,2.061-3.858,4.1-3.858a7.333,7.333,0,0,1,4.471,1.929,0.748,0.748,0,0,0,.938,0,7.392,7.392,0,0,1,4.452-1.874c2.04,0,3.64,1.488,4.1,3.8C1007.93,43.133,1005.42,48.369,998.158,51.438Z" transform="translate(-987.469 -33.906)"/>
</svg>
