<svg xmlns="http://www.w3.org/2000/svg" width="72" height="72" viewBox="0 0 72 72">
  <metadata><?xpacket begin="﻿" id="W5M0MpCehiHzreSzNTczkc9d"?>
<x:xmpmeta xmlns:x="adobe:ns:meta/" x:xmptk="Adobe XMP Core 5.6-c142 79.160924, 2017/07/13-01:06:39        ">
   <rdf:RDF xmlns:rdf="http://www.w3.org/1999/02/22-rdf-syntax-ns#">
      <rdf:Description rdf:about=""/>
   </rdf:RDF>
</x:xmpmeta>
                                                                                                    
                                                                                                    
                                                                                                    
                                                                                                    
                                                                                                    
                                                                                                    
                                                                                                    
                                                                                                    
                                                                                                    
                                                                                                    
                                                                                                    
                                                                                                    
                                                                                                    
                                                                                                    
                                                                                                    
                                                                                                    
                                                                                                    
                                                                                                    
                                                                                                    
                                                                                                    
                           
<?xpacket end="w"?></metadata>
<defs>
    <style>
      .cls-1 {
        fill: #55974d;
        fill-rule: evenodd;
      }
    </style>
  </defs>
  <path id="Фигура_1695" data-name="Фигура 1695" class="cls-1" d="M703.49,378.375h-9.957a2.856,2.856,0,0,1-2.25-1.07,2.938,2.938,0,0,1-.6-2.463,31.076,31.076,0,0,1,29.6-24.607c0.238,0.009.477,0.015,0.717,0.015s0.483-.006.723-0.015a30.813,30.813,0,0,1,10.158,1.957,2.813,2.813,0,1,0,1.978-5.266q-0.7-.262-1.406-0.494a19.125,19.125,0,1,0-22.895.01A36.574,36.574,0,0,0,685.18,373.7,8.546,8.546,0,0,0,693.533,384h9.957A2.813,2.813,0,1,0,703.49,378.375Zm4.008-47.25a13.5,13.5,0,1,1,14.158,13.484c-0.219,0-.438-0.008-0.657-0.008s-0.44,0-.66.008A13.517,13.517,0,0,1,707.5,331.125Zm47.349,29.335a7.577,7.577,0,0,0-6.916-4.444h-8.79a7.446,7.446,0,0,0-7.036,4.754c-0.147.384-.328,0.868-0.517,1.433H713.173a2.816,2.816,0,0,0-2.018.853l-4.831,4.977a2.812,2.812,0,0,0,.012,3.93l4.922,5.008a2.812,2.812,0,0,0,2.006.841h9.141a2.813,2.813,0,0,0,0-5.625h-7.962l-2.169-2.207,2.089-2.152H733.7a2.812,2.812,0,0,0,2.732-2.144,23.307,23.307,0,0,1,.926-2.9,1.843,1.843,0,0,1,1.792-1.147h8.776a1.918,1.918,0,0,1,1.787,1.115,18.149,18.149,0,0,1,1.663,7.17,18.69,18.69,0,0,1-1.65,7.3,1.921,1.921,0,0,1-1.767,1.152h-8.882a2,2,0,0,1-1.813-1.246,18.724,18.724,0,0,1-.872-2.784,2.812,2.812,0,0,0-5.47,1.31,24.2,24.2,0,0,0,1.142,3.619A7.586,7.586,0,0,0,739.069,384h8.9a7.541,7.541,0,0,0,6.916-4.528,24.352,24.352,0,0,0,2.12-9.559A23.817,23.817,0,0,0,754.847,360.46Zm-9.238,6.665a2.813,2.813,0,1,1-2.813,2.812A2.812,2.812,0,0,1,745.609,367.125Z" transform="translate(-685 -312)"/>
</svg>
