<svg xmlns="http://www.w3.org/2000/svg" xmlns:xlink="http://www.w3.org/1999/xlink" viewBox="0 0 161.36 161.27"><defs><clipPath id="a" transform="translate(11.51 30.88)"><path d="M63.68,99.19A49.94,49.94,0,0,0,98,90.26a49.74,49.74,0,0,1-19.62-.06,51.49,51.49,0,0,1-14.72,9m5.84-19.81a29.75,29.75,0,0,1-8.28-1.07,46.5,46.5,0,0,0,8,4.7l.51.23a46.28,46.28,0,0,0,7.47,2.57,48.27,48.27,0,0,0,9.21-12,29.5,29.5,0,0,1-16.94,5.59m46.65-27.16A57,57,0,0,1,102.22,66,56,56,0,0,1,92,71.57l-.11.25s-.23.5-.27.58A52.63,52.63,0,0,1,82,86.73,46.1,46.1,0,0,0,105.23,84h0a49.57,49.57,0,0,0,13.64-34.85q0-.51,0-1-1.24,2.09-2.68,4.11M19.4,50.36A49.62,49.62,0,0,0,34.31,85.28l0,0,.12.08a49.46,49.46,0,0,0,21,12.19,46.69,46.69,0,0,0,6.47-2A47.32,47.32,0,0,0,73.57,89a50.53,50.53,0,0,1-5.41-2c-.1-.05-.5-.21-.55-.25A50.58,50.58,0,0,1,47.14,69.59a29.76,29.76,0,0,1-2.69-3.45,57.63,57.63,0,0,1-8.36-8.55c-.15-.14-.28-.4-.43-.54A56.35,56.35,0,0,1,24.12,28.53,49.79,49.79,0,0,0,19.4,50.36M33.51,15a50,50,0,0,0-5.67,7,52.16,52.16,0,0,0,11,32.61l.4.51c.32.41.65.8,1,1.2q-.19-.84-.33-1.69A53.17,53.17,0,0,1,52,3a49.54,49.54,0,0,0-18.5,12M69,0h-.45a50.07,50.07,0,0,0-8.07.76,47.71,47.71,0,0,0-5.21,4.71A49.2,49.2,0,0,0,41.7,38.54,29.64,29.64,0,1,1,94.25,65.47l-.22.74a52.19,52.19,0,0,0,5.91-3.54,52.94,52.94,0,0,0,13-12.78,53.69,53.69,0,0,0,5.2-9A49.71,49.71,0,0,0,69.33,0Z" fill="none"/></clipPath><linearGradient id="b" y1="126.99" x2="1" y2="126.99" gradientTransform="matrix(107.03, 0, 0, -107.03, 24.26, 13640.62)" gradientUnits="userSpaceOnUse"><stop offset="0" stop-color="#00963f"/><stop offset="1" stop-color="#74b6e5"/></linearGradient></defs><title>logo</title><g clip-path="url(#a)"><rect x="5.82" y="-13.66" width="126.7" height="126.84" transform="translate(11 129.68) rotate(-70.87)" fill="url(#b)"/></g></svg>