<?xml version="1.0" encoding="utf-8"?>
<!-- Generator: Adobe Illustrator 21.0.0, SVG Export Plug-In . SVG Version: 6.00 Build 0)  -->
<svg version="1.1" id="Layer_1" xmlns="http://www.w3.org/2000/svg" xmlns:xlink="http://www.w3.org/1999/xlink" x="0px" y="0px"
	 viewBox="0 0 99.5 99.5" style="enable-background:new 0 0 99.5 99.5;" xml:space="preserve">
<style type="text/css">
	.st0{clip-path:url(#SVGID_2_);}
	.st1{fill:url(#SVGID_3_);}
</style>
<title>logo</title>
<g>
	<defs>
		<path id="SVGID_1_" d="M44.3,99.2c12.1,1.3,24.4-1.9,34.3-8.9c-6.5,1.3-13.1,1.3-19.6-0.1C54.6,94,49.6,97,44.3,99.2 M50.1,79.4
			c-2.8,0-5.6-0.3-8.3-1.1c2.5,1.8,5.2,3.4,8,4.7l0.5,0.2c2.4,1.1,4.9,1.9,7.5,2.6c3.7-3.5,6.8-7.5,9.2-12
			C62.1,77.4,56.2,79.3,50.1,79.4 M96.7,52.3c-3.8,5.3-8.5,10-13.9,13.7c-3.2,2.2-6.6,4.1-10.2,5.6l-0.1,0.3c0,0-0.2,0.5-0.3,0.6
			c-2.4,5.3-5.6,10.1-9.6,14.3c7.8,1.1,15.9,0.2,23.2-2.7l0,0c8.9-9.4,13.8-21.9,13.6-34.8c0-0.3,0-0.7,0-1
			C98.6,49.5,97.8,50.9,96.7,52.3 M0,50.4c0.1,13.2,5.5,25.7,14.9,34.9l0,0l0.1,0.1c5.9,5.7,13.1,9.9,21,12.2c2.2-0.5,4.4-1.2,6.5-2
			c4.2-1.6,8.1-3.8,11.7-6.6c-1.8-0.6-3.6-1.2-5.4-2c-0.1-0.1-0.5-0.2-0.6-0.3C40,83,32.9,77,27.7,69.6c-1-1.1-1.9-2.2-2.7-3.4
			c-3.1-2.6-5.9-5.4-8.4-8.5c-0.2-0.1-0.3-0.4-0.4-0.5C9.8,48.8,5.9,38.9,4.7,28.5C1.5,35.4-0.1,42.8,0,50.4 M14.1,15
			c-2.1,2.2-4,4.5-5.7,7c-0.1,11.8,3.7,23.3,11,32.6l0.4,0.5c0.3,0.4,0.7,0.8,1,1.2c-0.1-0.6-0.2-1.1-0.3-1.7
			C15.1,36.5,19.7,16.8,32.6,3C25.6,5.6,19.3,9.7,14.1,15 M49.6,0h-0.4c-2.7,0-5.4,0.3-8.1,0.8c-1.9,1.4-3.6,3-5.2,4.7
			c-8.5,8.9-13.4,20.7-13.6,33.1c6.2-15.2,23.4-22.5,38.6-16.3s22.5,23.4,16.3,38.6c-0.7,1.6-1.5,3.2-2.4,4.7l-0.2,0.7
			c2-1,4-2.2,5.9-3.5c5-3.5,9.4-7.8,13-12.8c2-2.8,3.8-5.8,5.2-9C94.5,17.3,73.9,0.1,49.9,0H49.6z"/>
	</defs>
	<clipPath id="SVGID_2_">
		<use xlink:href="#SVGID_1_"  style="overflow:visible;"/>
	</clipPath>
	<g class="st0">
		
			<linearGradient id="SVGID_3_" gradientUnits="userSpaceOnUse" x1="-632.7313" y1="314.3681" x2="-631.7313" y2="314.3681" gradientTransform="matrix(35.0751 -101.1195 101.1195 35.0751 -9560.5967 -74915.7891)">
			<stop  offset="0" style="stop-color:#00963F"/>
			<stop  offset="1" style="stop-color:#74B6E5"/>
		</linearGradient>
		<polygon class="st1" points="-30.9,88.8 10.6,-30.9 130.5,10.7 88.9,130.4 		"/>
	</g>
</g>
</svg>
