<svg xmlns="http://www.w3.org/2000/svg" xmlns:xlink="http://www.w3.org/1999/xlink" width="17.063" height="17.1" viewBox="0 0 17.063 17.1">
  <metadata><?xpacket begin="﻿" id="W5M0MpCehiHzreSzNTczkc9d"?>
<x:xmpmeta xmlns:x="adobe:ns:meta/" x:xmptk="Adobe XMP Core 5.6-c142 79.160924, 2017/07/13-01:06:39        ">
   <rdf:RDF xmlns:rdf="http://www.w3.org/1999/02/22-rdf-syntax-ns#">
      <rdf:Description rdf:about=""/>
   </rdf:RDF>
</x:xmpmeta>
                                                                                                    
                                                                                                    
                                                                                                    
                                                                                                    
                                                                                                    
                                                                                                    
                                                                                                    
                                                                                                    
                                                                                                    
                                                                                                    
                                                                                                    
                                                                                                    
                                                                                                    
                                                                                                    
                                                                                                    
                                                                                                    
                                                                                                    
                                                                                                    
                                                                                                    
                                                                                                    
                           
<?xpacket end="w"?></metadata>
<defs>
    <style>
      .cls-1 {
        fill: #55974d;
        fill-rule: evenodd;
        filter: url(#filter);
      }
    </style>
    <filter id="filter" x="967.406" y="1031.81" width="17.063" height="17.1" filterUnits="userSpaceOnUse">
      <feFlood result="flood" flood-color="#c1c1c1"/>
      <feComposite result="composite" operator="in" in2="SourceGraphic"/>
      <feBlend result="blend" in2="SourceGraphic"/>
    </filter>
  </defs>
  <path id="Фигура_1681_копия_3" data-name="Фигура 1681 копия 3" class="cls-1" d="M984.3,1038.86l-3.631,3.71a0.546,0.546,0,0,0-.146.47l0.857,5.24a0.524,0.524,0,0,1-.5.62,0.517,0.517,0,0,1-.236-0.06l-4.489-2.47a0.494,0.494,0,0,0-.472,0l-4.489,2.47a0.514,0.514,0,0,1-.236.06,0.525,0.525,0,0,1-.5-0.62l0.857-5.24a0.546,0.546,0,0,0-.145-0.47l-3.632-3.71a0.534,0.534,0,0,1,.281-0.9l5.019-.77a0.49,0.49,0,0,0,.381-0.29l2.245-4.76a0.494,0.494,0,0,1,.908,0l2.245,4.76a0.49,0.49,0,0,0,.382.29l5.019,0.77A0.534,0.534,0,0,1,984.3,1038.86Zm-3.419,10.06a0.523,0.523,0,0,1-.243-0.06l-4.49-2.48a0.521,0.521,0,0,0-.456,0l-4.489,2.48a0.524,0.524,0,0,1-.244.06,0.5,0.5,0,0,1-.4-0.2,0.543,0.543,0,0,1-.114-0.44l0.857-5.24a0.538,0.538,0,0,0-.141-0.46l-3.632-3.71a0.557,0.557,0,0,1-.132-0.56,0.523,0.523,0,0,1,.422-0.37l5.019-.76a0.5,0.5,0,0,0,.369-0.29l2.245-4.76a0.51,0.51,0,0,1,.938,0l2.245,4.76a0.5,0.5,0,0,0,.369.29l5.019,0.76a0.522,0.522,0,0,1,.422.37,0.555,0.555,0,0,1-.132.56l-3.632,3.71a0.541,0.541,0,0,0-.141.46l0.858,5.24a0.546,0.546,0,0,1-.114.44A0.506,0.506,0,0,1,980.884,1048.92Zm-4.961-2.63a0.518,0.518,0,0,1,.244.06l4.489,2.48a0.607,0.607,0,0,0,.228.06,0.484,0.484,0,0,0,.377-0.19,0.527,0.527,0,0,0,.106-0.42l-0.857-5.23a0.577,0.577,0,0,1,.15-0.49l3.632-3.71a0.535,0.535,0,0,0,.124-0.53,0.509,0.509,0,0,0-.4-0.35l-5.019-.76a0.54,0.54,0,0,1-.394-0.3l-2.244-4.77a0.485,0.485,0,0,0-.879,0l-2.245,4.77a0.538,0.538,0,0,1-.394.3l-5.019.76a0.509,0.509,0,0,0-.4.35,0.533,0.533,0,0,0,.125.53l3.631,3.71a0.575,0.575,0,0,1,.151.49l-0.858,5.23a0.524,0.524,0,0,0,.107.42,0.482,0.482,0,0,0,.376.19,0.465,0.465,0,0,0,.228-0.06l4.49-2.48A0.517,0.517,0,0,1,975.923,1046.29Z" transform="translate(-967.406 -1031.81)"/>
</svg>
