<svg xmlns="http://www.w3.org/2000/svg" xmlns:xlink="http://www.w3.org/1999/xlink" width="46" height="46" viewBox="0 0 46 46">

<defs>
    <style>
      .cls-1 {
        fill: #009846;
        fill-rule: evenodd;
        filter: url(#filter);
      }
    </style>
    <filter id="filter" x="992" y="1892" width="46" height="46" filterUnits="userSpaceOnUse">
      <feFlood result="flood" flood-color="#fff"/>
      <feComposite result="composite" operator="in" in2="SourceGraphic"/>
      <feBlend result="blend" in2="SourceGraphic"/>
    </filter>
  </defs>
  <path id="Фигура_1685" data-name="Фигура 1685" class="cls-1" d="M1015,1894.87A20.125,20.125,0,1,1,994.875,1915,20.144,20.144,0,0,1,1015,1894.87m0-2.87a23,23,0,1,0,23,23,23,23,0,0,0-23-23h0Zm12.82,30.69-0.13-.39a3.607,3.607,0,0,0-2.22-2.1l-3.4-.93a3.312,3.312,0,0,0-2.91.76l-1.23,1.23a13.077,13.077,0,0,1-9.19-9.19l1.23-1.23a3.309,3.309,0,0,0,.77-2.91l-0.93-3.4a3.634,3.634,0,0,0-2.1-2.22l-0.39-.13a3.088,3.088,0,0,0-2.88.68l-1.84,1.84a3.447,3.447,0,0,0-.54,1.26,21.7,21.7,0,0,0,21.92,21.97,3.3,3.3,0,0,0,1.32-.53l1.85-1.84A3.091,3.091,0,0,0,1027.82,1922.69Z" transform="translate(-992 -1892)"/>
</svg>
