<svg xmlns="http://www.w3.org/2000/svg" xmlns:xlink="http://www.w3.org/1999/xlink" width="21.31" height="20.375" viewBox="0 0 21.31 20.375">
  <metadata><?xpacket begin="﻿" id="W5M0MpCehiHzreSzNTczkc9d"?>
<x:xmpmeta xmlns:x="adobe:ns:meta/" x:xmptk="Adobe XMP Core 5.6-c138 79.159824, 2016/09/14-01:09:01        ">
   <rdf:RDF xmlns:rdf="http://www.w3.org/1999/02/22-rdf-syntax-ns#">
      <rdf:Description rdf:about=""/>
   </rdf:RDF>
</x:xmpmeta>
                                                                                                    
                                                                                                    
                                                                                                    
                                                                                                    
                                                                                                    
                                                                                                    
                                                                                                    
                                                                                                    
                                                                                                    
                                                                                                    
                                                                                                    
                                                                                                    
                                                                                                    
                                                                                                    
                                                                                                    
                                                                                                    
                                                                                                    
                                                                                                    
                                                                                                    
                                                                                                    
                           
<?xpacket end="w"?></metadata>
<defs>
    <style>
      .cls-1 {
        fill: #55974d;
        fill-rule: evenodd;
        filter: url(#filter);
      }
    </style>
    <filter id="filter" x="1311" y="30.625" width="21.31" height="20.375" filterUnits="userSpaceOnUse">
      <feFlood result="flood" flood-color="#55974d"/>
      <feComposite result="composite" operator="in" in2="SourceGraphic"/>
      <feBlend result="blend" in2="SourceGraphic"/>
    </filter>
  </defs>
  <path id="Фигура_1680" data-name="Фигура 1680" class="cls-1" d="M1321.62,42.064a5.714,5.714,0,1,0-5.7-5.723A5.719,5.719,0,0,0,1321.62,42.064Zm0-9.936a4.213,4.213,0,1,1-4.2,4.213A4.219,4.219,0,0,1,1321.62,32.128ZM1311.75,51h19.81a0.755,0.755,0,0,0,.76-0.755,7.183,7.183,0,0,0-7.16-7.18h-7a7.178,7.178,0,0,0-7.16,7.18A0.746,0.746,0,0,0,1311.75,51Zm6.41-6.425h7a5.657,5.657,0,0,1,5.6,4.915h-18.2A5.664,5.664,0,0,1,1318.16,44.575Z" transform="translate(-1311 -30.625)"/>
</svg>
