<svg xmlns="http://www.w3.org/2000/svg" height="512" width="512" id="flag-icon-css-as">
  <defs>
    <clipPath id="a">
      <path fill="gray" d="M496.06 15.937h496.06v496.06H496.06z"/>
    </clipPath>
  </defs>
  <g clip-path="url(#a)" transform="translate(-512 -16.45) scale(1.032)">
    <path fill="#006" d="M0 15.937h992.13v496.06H0z"/>
    <path d="M0 263.97L992.13 512V15.94L0 263.97z" fill-rule="evenodd" fill="#bd1021"/>
    <path d="M992.13 42.512v442.91L106.3 263.962l885.83-221.46z" fill-rule="evenodd" fill="#fff"/>
    <g stroke="#000">
      <path stroke-linejoin="round" d="M825.487 319.59s-6.193-5.07 1.127-13.234c-3.942-3.378-.282-9.853-.282-9.853s-6.757-2.534.282-12.95c-07A9406A34" fill-rule="evenodd" stroke-width="1.706" fill="#9c3900"/>
      <path d="M660.12 302.828c.5 0 31.083-.502 45.123-8.524 7.02 11.03 16.545 18.55 16.545 18.55l4.512-16.042s11.0097DFAAAE3" fill-rule="evenodd" stroke-width="1.82" fill="#ffc221"/>
      <path d="M736.328 307.346l-6.518 29.08m12.533-18.052l-2.005 9.526m34.094-2.005l-3.008 9.025m58.663 52.136c-.5 0-16.043 2.005-18.05 1.504-2.004-.5 24.568 8.022 24.568 11.53m-34.595-9.512s-15.542-10.027-18.048-9.025c-2.507 1.003 15.542-.5 17.046-2.005m-31.088-.504s-16.043.5-17.547-1.003 15.542 11.03 18.55 10.03m-32.089-16.056c-.5 0-11.03-4.01-15.542-5.015 4.01 4.012 7.02 9.527 17.046 11.532m2.508-13.028c-.502-1.003-20.055-7.02-20.055-10.028 4.513 1.505 11.03 3.51 17.047 2.005m106.792-15.043l-2.005 9.023" stroke-width="1.82" fill="none"/>
      <path d="M699.226 261.717s-21.058 18.048 0 28.577c1.003-7.02 2.507-8.02 2.507-8.02s17.547 6.516 28.076-9.026c09CDFE2AAC" fill-rule="evenodd" stroke-width="1.82" fill="#ffc221"/>
      <path d="M716.775 269.743l-14.54 12.534m59.319 74.519s3.352 3.695.343 8.207m70.197-4.508l-5.515.502m-39.609-3.517l10.027 1.503m16.943-27.287s.282 10.136-8.164 9.854c-8.446-.282-5.632.282-5.632.282" stroke-width="1.82" fill="none"/>
      <path d="M820.424 330.003s3.378 1.126 2.534 3.66c-.845 2.534.844 9.854-9.01 16.893-10.418 2.252-9.29-8.727-9.29-8.727" stroke-width="1.82" fill="none"/>
      <path d="M824.082 333.102s6.194-3.66 7.038 2.253c.844 5.91-5.067 16.892-9.29 18.582-4.225 1.688-9.01-.283-8.448-3.097m18.302-15.2s5.632-4.505 7.32 1.408c1.69 5.912-4.504 19.145-7.04 19.426m7.596-19.428s2.815-1.407 4.785.28m-13.795 19.989c-1.125.28-5.91.562-7.6-3.097m-17.73-6.758c-.282 0-5.913.283-5.913.283m27.586 21.965l-.562-9.29-2.25-3.098-3.943 3.942s-.564 9.29-2.252 10.136m2.251-10.425c-.28-.562-3.097-5.91-3.097-5.91l-4.787 5.91s-.562 8.447-2.252 9.292m2.247-9.579c0-.28-1.97-5.63-1.97-5.63s-5.63 3.097-6.195 5.35c-.562 2.25-.845 8.445-2.252 9.01m2.255-10.136s.564-5.067-1.126-5.067-9.29 7.038-9.572 13.232" stroke-width="1.82" fill="none"/>
      <path stroke-linejoin="round" d="M699.918 261.868s2.815-2.816 3.66-6.194c.845-3.38-1.126-7.04 2.253-10.136 3.38-3.097 47.862-21.96 5107487DCAB5" fill-rule="evenodd" stroke-width="1.82" fill="#fff"/>
      <path d="M711.742 259.902s.282-5.63 2.816-7.6c2.533-1.972 15.203-6.76 18.02-10.982 2.814-4.223-4.224 7.32-3.098 10.417m-12.67-.284s6.194 2.254 4.786 7.04" stroke-width="1.82" fill="none"/>
      <path d="M724.13 254.694a4.646 4.646 0 1 1-9.29.003 4.646 4.646 0 0 1 9.289-.004z" stroke-width="1.58" fill="none"/>
      <path d="M914.738 244.697l48.707 9.29s5.35-6.193 2.534-9.57c7.32-1.69 5.348-11.263 5.348-11.263s8.446-3.66 1.020FB48A31" fill-rule="evenodd" stroke-width="1.82" fill="#fff"/>
      <path d="M909.947 234.283s43.077 5.068 45.048 5.068 9.572 2.535 10.98 5.07M912.2 231.744l59.968 1.407m-59.682-2.813s56.87-3.378 60.813-9.29m-59.134-3.098s57.154-6.193 57.718-5.35m-59.683-1.688s55.464-8.728 56.026-7.32m-214.251-28.435s17.456 19.145 15.766 32.095" stroke-width="1.82" fill="none"/>
      <path d="M768.615 197.117s5.63 8.164 7.883 9.01 21.96 1.97 23.087 10.416c1.126 5.35-4.223 3.66-3.378 7.6 1.407 5.07 14.64 11.544 29 3.943m-13.232 3.944s11.824 17.457 29.28-1.406m-9.011 7.603s14.358 7.602 26.183-12.106m-15.209 13.785s7.038 5.913 21.68-1.97m20.277-7.884s21.678 4.504 23.087 5.912m-14.925-10.689c.28 0 15.203.563 15.203.563m-24.498-9.014s25.9-1.69 29.28 3.66M872.78 208.66s36.32 1.407 38.01 3.378m-29.847 33.778s6.194-1.688 7.04-.843M866.87 261.02s8.166 7.04 18.584 3.943m-14.079 7.892s9.29 4.223 20.272 1.688m-17.173 5.341s9.29 6.194 15.485 5.067m-19.703-1.395s6.475 4.786 6.756 7.32m-15.764-1.696s1.97 10.134 9.01 13.794m-13.801-9.291s-3.097 13.233 4.787 21.398m-12.949-10.983c0 .28-.562 6.193-.28 6.757m-50.399-57.995l15.204-.846s5.63-2.252 1.688-5.91m1.972 3.384c.282 0 14.358 1.126 18.02 5.35 3.658 4.222 8.163 12.668 10.697 14.077 2.534 1.407 3.097-.564 3.097-.564m-6.196-2.251s-7.6 12.95-1.688 16.892m-2.543-2.535s-6.756 9.01-1.407 13.514m-1.405-1.134s-5.35 8.73 1.128 14.64m-3.489-37.789c-.363.363-6.54 4.723-8.72 3.634m2.182 10.166s2.543 2.542 4.723 2.18m-4.422 11.032l4.057 2.783m-3.511 7.331l3.51 2.118m-67.101-140.2s7.4 3.85 13.323 0c5.92-3.85 34.343-18.355 41.745-20.724 7.4-2.37 11.546-15.988 13.027-21.908m-5.624 15.987l41.45-12.14s6.81-5.624 7.105-15.986m-2.968 11.249s41.45-4.144 41.45-19.54m-6.508 10.658s43.522-11.842 47.667-16.283" stroke-width="1.82" fill="none"/>
      <path d="M785.018 178.206s26.35-13.62 30.495-15.1c4.144-1.48 13.617-13.32-.593-13.32" stroke-width="1.82" fill="none"/>
      <path d="M797.753 183.535c.296 0 21.612-13.916 28.717-15.69 3.85-5.33 1.777-10.955-4.736-9.77" stroke-width="1.82" fill="none"/>
      <path d="M828.245 164.29c.592-.295 11.547-.59 7.698 7.994-5.624 4.145-29.903 16.284-29.903 16.284m16.58-33.455l46.19-15.396s3.848-7.994-1.776-9.178m38.491-13.915c0 .296 5.923 3.553 2.37 8.882-6.514 3.85-37.304 11.25-37.304 11.25m81.709-24.868l-43.52 12.14m40.258-2.37l-37.895 11.547m34.647-2.073l-33.455 10.066m27.231-.592c-.89 0-24.87 7.4-24.87 7.4m19.547.002l-15.396 6.217m11.547 2.072c-.593 0-13.323 5.625-13.323 5.625m9.474 1.184l-11.842 5.625m-8.591 7.107s1.48.592 1.185 2.368m-31.09 13.914s5.034 1.777.296 6.514c-2.368 3.257-9.177 2.37-13.322 8.29m45.306-81.121s6.22 1.48 1.48 9.474c-12.435 4.737-37.6 12.435-37.6 12.435s-1.183 2.072-4.44 3.85c-3.256 1.775-39.08 11.84-39.08 11.84m81.715-28.422s6.81 2.962 0 7.995c-7.698 4.44-34.64 12.73-34.64 12.73s-.296 2.37-1.48 3.257c-1.184.888-36.71 12.73-36.71 12.73" stroke-width="1.82" fill="none"/>
      <path d="M912.336 142.974s7.106 2.072.89 7.993c-7.403 4.44-31.088 12.435-31.088 12.435s-2.368 2.96-6.217 4.145c-3.848 1.184-28.42 11.25-28.42 11.25m66.609-27.829c2.074.888 7.698 1.776.89 7.106-7.994 3.552-27.534 11.25-27.534 11.25l-1.777 3.257-31.086 13.323m61.282-26.942s2.96 3.553-3.553 7.698c-7.106 3.85-22.5 9.77-22.5 9.77m22.504-9.18s3.257 2.074-.887 5.034c-4.74 2.37-23.39 12.14-23.39 12.14l-12.14 7.992" stroke-width="1.82" fill="none"/>
      <path d="M869.697 140.013c0 .296 5.033 4.44 3.256 9.178 4.442 3.258 3.553 6.81 3.553 6.81s6.217 3.553 5.33 8.586c6.217 1.48 5.92 5.034 5.92 5.034l-2.072 3.256s6.217-.296.888 7.698c3.257 1.776 1.777 3.85 1.777 3.85m-1.782-3.555c-.89 0-21.612 7.698-26.942 12.435" stroke-width="1.82" fill="none"/>
      <path d="M836.543 171.693s6.217-.296 5.33 6.513c7.106-2.37 5.625 4.44 5.625 4.44s8.29-3.256 6.81 7.106c5.328-1.184 4.44 4.145 4.44 4.145s4.737-.296 4.737 2.37c3.257-2.962 6.81-1.482 6.81-1.482s2.368-3.256 5.624-2.368m-33.752-14.507c0 .592-27.83 15.987-27.83 15.987m33.153-10.955l-21.02 13.027m28.13-6.514c0 .297-18.356 10.955-18.356 10.955m22.506-6.81s-13.027 10.66-15.987 10.067m20.423-6.81s-7.402 5.626-13.62 8.29m21.318-10.657s2.368 2.96-12.434 10.657" stroke-width="1.82" fill="none"/>
    </g>
  </g>
</svg>
