<svg xmlns="http://www.w3.org/2000/svg" xmlns:xlink="http://www.w3.org/1999/xlink" height="512" width="512" id="flag-icon-css-bz">
  <defs>
    <radialGradient id="a">
      <stop offset="0" stop-color="#ffef5d"/>
      <stop offset="1" stop-color="#ea5700"/>
    </radialGradient>
    <radialGradient id="b">
      <stop offset="0" stop-color="#952d1a"/>
      <stop offset="1" stop-color="#570a00"/>
    </radialGradient>
    <radialGradient xlink:href="#a" id="c" gradientTransform="scale(1.22624 .8155)" cx="247.075" cy="238.328" fx="247.075" fy="238.328" r="35.95" gradientUnits="userSpaceOnUse"/>
    <radialGradient xlink:href="#a" id="d" gradientTransform="scale(.93615 1.06821)" cx="321.991" cy="152.954" fx="321.991" fy="152.954" r="10.578" gradientUnits="userSpaceOnUse"/>
    <radialGradient xlink:href="#b" id="e" gradientTransform="scale(1.2242 .81686)" cx="364.21" cy="237.789" fx="364.21" fy="237.789" r="36.034" gradientUnits="userSpaceOnUse"/>
    <radialGradient xlink:href="#b" id="f" gradientTransform="scale(.95596 1.04607)" cx="468.154" cy="156.129" fx="468.154" fy="156.129" r="10.739" gradientUnits="userSpaceOnUse"/>
  </defs>
  <path fill="#ce1126" d="M0 0h512v512H0z"/>
  <path fill="#003f87" d="M0 36.571h512v438.856H0z"/>
  <circle cx="256" cy="256" r="201.143" fill="#fff"/>
  <circle r="166.719" cy="254.976" cx="256" fill="none" stroke="#552300" stroke-width="4.201"/>
  <path d="M236.739 78.07c15.078-16.176 28.712 2.51 28.348 11.267-.364 8.756-15.572 28.074-29.334 12.527 14.257036165BADC" fill="#007f00"/>
  <path d="M235.756 101.864c14.254 3.649 17.827-12.098 25.036-12.256-4.208 5.027-15.186 17.84-25.036 12.256zm.9025DB64AC7" fill="#005800"/>
  <g fill="#730000" stroke="#000" stroke-width=".521">
    <path d="M286.986 128.348s.625-1.46 1.772-.624c1.042.831 1.352 4.48 1.352 4.48l-1.667.831c.001.001.94-1.35-1.05404D2ABB"/>
    <path d="M255.007 165.335c.414-.414 1.25-1.98 1.98-3.334 1.25-2.084 2.709-3.334 4.374-5.94 1.561-2.396 2.188-5.937 1.561-8.437l1.458.833.107 3.96s1.98-1.67 2.814-2.085l.831.415s-6.25 6.462-12.085 16.88l-1.042-2.29.002-.002zm-54.795-21.668c.834 1.455 1.669 4.272 4.168 6.459l1.667-.52s-3.854-4.48-3.854-6.459l-1.98.52m9.789-2.509s.52 5.315-.832 7.294l1.666-.83s1.146-3.647.833-5.628l-1.667-.832v-.004zm54.907-16.773s-.315 7.501 1.146 12.087l1.978-.623s-.311-1.359 1.354-1.984c1.668-.52 5.626-2.186 7.604-3.855l-.623-1.665s-3.02 2.396-4.48 3.02c-1.353.522-2.187 1.146-3.334.835-1.147-.313-2.498-2.189-1.667-6.462l-1.978-1.353m22.077 35.011s-.519 5.313-.207 7.607l1.77.418s-.413-6.356.73-6.877l-2.293-1.148m7.926 3.963s-1.98 3.438-4.27 3.752l3.646-.731s1.044-.52 2.605-2.187l-1.981-.834"/>
  </g>
  <g fill="#289400" stroke="#030" stroke-width=".521">
    <path d="M263.035 147.62l1.353.83 1.458.211s1.561 1.458 3.334 2.811c1.353 1.149 1.353-.207 1.353-.207l.831 3.026FF86AF2"/>
    <path d="M261.048 115.118l-.52-2.292 5.312.623.937-2.186s2.5 1.145 3.334 1.975c0 0 4.895-1.248 6.356-.727l-.602D4B6FA28"/>
    <path d="M207.503 139.602s4.377 2.191 4.377 3.232c0 0 1.147-2.294.52-3.128l1.668 1.15s.518-2.084-.105-2.711c-0B14216A55"/>
  </g>
  <g fill="none" stroke="#004b00" stroke-width=".521">
    <path d="M288.87 132.823l.522 2.084s1.874-.418 3.126-.312c0 0-.312 1.666-.73 2.396 0 0 2.5-.416 3.647.311l-.521 1.248 2.917 1.252-2.708 2.187s4.373 1.56 5.209 2.814c0 0-2.812 1.978-3.23 1.876-.415-.211-.104.83.625 1.768l-2.397-.103s.938 2.19.832 3.02c-.104.834-3.958.624-3.958.624m14.996-5.618s.73-4.167-.414-5.21c0 0 2.708 2.294 4.478 2.397 1.876.107-.105-3.438-.105-3.438s2.605 1.354 3.855 1.666c1.25.21-.938-2.604-.938-2.604s.73-1.356 2.812-.104m-48.436-16.566s.102-.938-.316-1.458c-2.498-3.438 2.607 2.606 3.647 2.814m4.789-.004s1.667 1.248 2.5 1.248-.52-3.334-.937-3.749c-.416-.417 3.02 1.353 4.272 1.563 1.25.31 1.457-2.084 1.457-2.084s3.855.624 4.689 1.146m-26.778-.725s-.312-2.187-.414-3.125m-25.831 13.549c-.209-.417 1.045-2.293.521-3.127 0 0 .73.627 1.459.731.624.104.413-2.398.413-2.398l.834.311s2.188-1.042 1.77-1.876c-.417-.831 1.459 1.249 1.459 1.249s1.25-1.249 1.25-1.769c0-.525 1.457 1.248 1.457 1.248s1.562-.313 1.562-1.248c0-.938 1.98.31 1.98.31s.831-1.144.73-1.876m-21.043 10.422s.936-2.187-.106-3.645m-25.207 10.516c.105-1.04.623-3.855.105-4.272-.52-.413 1.044.417 2.292.73m9.891-.411c-1.25-1.252-1.98-1.876-3.957-1.876m-17.189 8.85c.313-.727.833-2.5.52-3.541m26.667 55.222l1.354-2.814 1.667 3.959 1.145-2.5.416.834 2.5-2.709 2.709 4.063m43.447-17.606l1.77-3.541 2.399 1.251 1.147-3.439 2.497 1.563 1.458-3.229 2.813.728.207-2.291s1.98 1.145 2.5 1.978c.623.836 0-2.81 0-2.81l2.291 1.04s1.667-1.668-.623-2.606"/>
    <path d="M281.16 173.988l2.5 3.647 2.081-2.396 1.876 4.062 2.396-1.458 3.437 1.98 1.561-1.249 3.75 2.709 1.563-3.229 3.334 1.042 2.186-3.75m-90.005-9.796s1.459-2.504.938-3.65c-.626-1.145 3.02 1.981 3.02 1.981s.832-2.501.312-3.646c-.626-1.145 4.168 3.334 4.168 3.334s.834-3.854 0-4.69c-.834-.833 4.584 1.149 4.584 1.149s2.188-.624 1.354-1.772c-.834-1.146 3.644 1.666 3.644 1.666s1.042-2.81 0-3.856c-1.146-1.144 3.334 1.355 3.334 1.355l-1.666-3.021 3.646.207-.312-3.334m32.294 48.131l2.396-1.146 2.084 2.084 2.292-3.646 2.812 2.708.416-2.708 3.02 1.252.626-1.67 3.333 1.774.312-2.502 1.666.522.314-1.668"/>
  </g>
  <path d="M216.668 317.983a74.491 74.491 0 0 1-6.356-13.856l45.11-39.7 45.112 39.593c-1.563 4.583-3.648 9.483-6.563 14.173l-.36.576c-.832-.31-3.392-1.306-3.392-1.306s-1.46 1.355-2.602 1.458c-1.563.21-2.917-1.352-2.917-1.352s-1.98 1.666-3.96 1.352c-1.98-.206-2.813-1.458-2.813-1.458s-2.083 1.668-3.542 1.355c-1.354-.316-2.292-1.254-2.292-1.254s-1.25 1.566-3.02 1.254c-1.667-.316-3.23-1.254-3.23-1.254s-2.601 1.144-4.27 1.354c-1.665.315-3.126-1.459-3.126-1.459s-2.187 1.459-3.02 1.459c-.833 0-3.958-1.459-3.958-1.459s-3.23 1.043-4.375 1.043c-1.043 0-4.27-1.353-4.27-1.353s-3.022.832-4.374.832c-1.46 0-3.542-.832-3.542-.832s-2.497 1.146-3.855.832c-1.458-.31-2.605-.832-2.605-.832s-2.708 1.146-4.48.832c-1.667-.31-3.646-1.454-3.646-1.454s-.313.831-3.541 1.454h-.107" fill="#9dd7ff"/>
  <path d="M255.427 218.788v45.635l-45.11 39.91c-4.375-12.712-4.688-24.068-4.688-28.964v-56.58h49.798" fill="#fff" stroke="#000" stroke-width=".729"/>
  <path d="M255.427 218.788v45.635l45.005 39.91c4.374-12.712 4.687-24.068 4.687-28.964v-56.58h-49.692" fill="#ffd83c" stroke="#000" stroke-width=".729"/>
  <g stroke="#000" stroke-width=".509">
    <path d="M226.324 308.5c3.392 1.839 2.243 1.259 9.273 3.748 5.731 1.984 12.396 2.918 22.084 2.918 8.477 0 13.06C9533A3E" fill="#730000" stroke-width=".521"/>
    <path d="M267.479 295.27s8.96 5.104 0 14.899m-40.315-1.146l12.918-12.299-1.458 16.464m6.767 1.456V287.14m22.088 27.504v-29.172m-11.151 29.695v-31.36" stroke-width=".521" fill="none"/>
    <path d="M245.391 288.604l-5.834 1.876 5.834.625v-2.5m10.937-4.281l-6.145 2.294 6.145.207v-2.501m11.151 1.669l-6.146 2.294 6.146.31v-2.607.003zm3.645 13.24c-.312-1.251 3.648-1.145 3.648-1.145s1.147 4.166 0 6.77l-3.333-.624s.312-2.811-.315-5z" stroke-width=".521" fill="#ff0018"/>
    <g fill="#fff" stroke-width=".521">
      <path d="M229.14 307.354l10.94-10.629-.521 6.356s-5.625 3.645-5.625 6.251l-4.794-1.978m5.827 2.191s1.147-3.3302827C0AA3"/>
      <path d="M240.906 298.076s4.48-.52 7.814 0c0 0-.52 4.48 0 5.316 0 0-5.834-1.356-8.336.831.001.001-1.146-4.1660C0D476AB9"/>
      <path d="M271.432 304.23s1.456 5.312 3.332 5.939l-2.499 3.021s-3.02-2.188-3.334-4.685c0 0 1.978-2.295 2.5-4.275z"/>
    </g>
  </g>
  <g stroke="#000" stroke-width=".61">
    <path d="M293.765 318.607c-7.187 11.984-18.96 23.234-38.336 30.214-19.69-7.081-31.67-18.855-38.756-30.736l.106-.104c3.228-.628 3.542-1.459 3.542-1.459s1.98 1.146 3.646 1.459c1.77.31 4.48-.834 4.48-.834s1.145.522 2.603.834c1.354.31 3.856-.834 3.856-.834s2.082.834 3.54.834c1.354 0 4.376-.834 4.376-.834s3.229 1.352 4.27 1.352c1.147 0 4.375-1.043 4.375-1.043s3.126 1.46 3.959 1.46c.831 0 3.02-1.46 3.02-1.46s1.457 1.77 3.125 1.46c1.667-.207 4.27-1.352 4.27-1.352s1.562.938 3.23 1.25c1.77.314 3.021-1.25 3.021-1.25s.938.938 2.292 1.25c1.458.314 3.54-1.355 3.54-1.355s.833 1.252 2.815 1.459c1.98.313 3.959-1.352 3.959-1.352s1.351 1.562 2.916 1.352c1.147-.105 2.603-1.459 2.603-1.459s2.605.832 3.542 1.148" fill="#006ac8" stroke="none"/>
    <path d="M291.994 321.321c-1.562.106-1.77-.938-1.77-.938s-2.082 1.773-4.063 1.46c-2.083-.311-3.02-1.667-3.02-1.667s-2.19 1.772-3.648 1.458c-1.458-.208-2.498-1.251-2.498-1.251s-1.354 1.565-3.126 1.251c-1.77-.208-3.335-1.251-3.335-1.251s-2.812 1.149-4.585 1.46c-1.77.314-3.228-1.667-3.228-1.667s-4.064 1.356-4.896 1.356c-.938 0-3.857-1.356-3.857-1.356s-1.978 1.252-3.124 1.252c-1.25 0-4.583-1.46-4.583-1.46s-3.128.836-4.586.836c-1.459 0-3.646-.836-3.646-.836s-2.709 1.146-4.167.836a14.294 14.294 0 0 1-2.605-.836s-2.917 1.146-4.688.836c-1.77-.315-3.855-1.458-3.855-1.458s-.311.726-3.749 1.458h-.105" fill="none" stroke-width=".521"/>
    <path d="M227.297 325.57s-.291.682-3.008 1.28c-.058-.004-.736.16-.736.16.25-.045.454-.08.672-.127-.096.036-.308ACF20AB6" fill="#5ac800" stroke-width=".625"/>
    <path d="M255.621 348.682c10.192-4.242 12.033-5.396 18.198-9.166-1.076.03-4.203-.98-3.071-1.302 0 0-1.254 1.104C1246AC0" fill="#ffd800" stroke-width=".625"/>
  </g>
  <g stroke="#000" stroke-width=".509">
    <path d="M248.71 265.564c2.024-1.648 3.186-3.235 2.51-4.467-.76-1.057-1.95.662-3.291.259 0 0-2.024-1.252-2.5708CC5DDA63" fill="#b34b00" stroke-width=".521"/>
    <path d="M214.036 228.27l14.293 14.123" fill="none" stroke-width=".512"/>
    <path d="M233.39 234.721c.221-.425.705-1.508 1.216-2.69.2-.467 4.045-6.598 5.962-6.779 0 0 11.958 8.7 11.967 0EF8009AA4" fill="#fff" stroke-width=".585"/>
    <path d="M241.009 236.77c-1.638-1.273-4.344-2.513-6.528-3.969l-.981 2.048c.79.884 10.738 5.51 12.373 6.4 0 0-1.896-2.173-4.864-4.48z" fill="#ccb8c8" stroke="none"/>
    <path d="M234.476 232.54c1.28.896 3.712 2.432 5.248 3.328 2.944 2.048 4.807 4.304 6.912 5.504" fill="none" stroke-width=".41"/>
    <path d="M210.248 269.804l27.225-33.694c.51-.467 3.034-.493 3.376 2.117l-25.783 35.139s-2.937-.29-4.818-3.562z" fill="#782121" stroke-width=".521"/>
    <path d="M301.507 270.172c-.938.732-2.533.922-2.533.922-1.77-2.084-3.232-4.272-5.731-6.98l-27.192-33.447 2.8103DFDCBAF4" fill="#730000" stroke-width=".521"/>
    <path d="M275.323 234.936l-4.377-5.21s-3.333.416-3.956 2.19c0 0-2.398 3.96-8.753 4.376 0 0 1.77 7.396 9.168 101AA722A8E" fill="#fff" stroke-width=".521"/>
    <path d="M264.387 258.068c-.624-.21-1.25 0-2.189.522-.831.522-1.874.311-1.77-.731.104-.938 0-.832 1.146-1.5610B8169FA7A" fill="#730000" stroke-width=".521"/>
    <path d="M263.762 258.693l30.837-30.633 7.603 8.128s-1.56-.627-2.187-.211c-.52.417.624 1.98.624 1.98s-1.458-.0E2047CAC3" fill="#fff" stroke-width=".521"/>
    <path d="M292.823 230.564l-2.396 2.396.52 8.232s.521-2.396 1.25-.731c0 0 .21-1.979.73-1.665-.42-.211-.105-8.232-.104-8.232m-4.475 4.475l-1.77 1.665.623 8.232s.523-3.125 1.25-.624c0 0-.105-2.083-.105-2.814.002.521.002-6.46.002-6.46m-18.647 18.453l-1.667 1.769.418 5.003s.52-3.229 1.25-.731c0 0-.21-2.08-.21-2.812 0 .521.21-3.23.21-3.23" fill="#7e4b7e" stroke="none"/>
    <g fill="none" stroke="#7e4b7e" stroke-width=".938">
      <path d="M267.612 232.858c1.147 1.145 4.377 5.311 4.377 5.311m-2.913-3.018c-.206.627-.621 2.397-1.56 3.334m2.072-2.924c-.104.416-.104 1.771-1.56 3.127m2.082-2.492c-.208.727-.312 1.25-.83 1.772m1.148-1.148c0 .52-.31.625-.415.938m-3.435-2.924c-.416.415-3.439 2.394-5.105 3.02m4.265-1.874c-.416.419-2.291 1.877-3.334 2.295m3.027-1.045c-.624.42-1.667 1.458-2.5 1.772m1.875-.522c-.415.52-1.042.937-1.561 1.25"/>
      <path d="M246.723 239.626c.34-.627.932-1.86 1.707-2.987.982-1.43 1.404-1.672 1.92-2.176" stroke-linecap="square"/>
    </g>
  </g>
  <path d="M146.145 323.615c1.563.728 0-5.107.52-7.294.624-2.292 5.103 5.626 7.293 6.67 2.292 1.145 16.251-5.520D8912AAF9" fill="#289400" stroke="#060" stroke-width=".521"/>
  <path d="M137.492 201.39l75.842-39.282c.364-2.03-.79-3.625-1.978-5.21-21.689 10.637-41.427 23.544-65.528 31.3078BB40A4E" fill="#730000" stroke="#000" stroke-width=".521"/>
  <path d="M198.543 162.53l9.792-4.69s3.335 2.5 3.022 5.314c0 0 .729 6.458 8.752 10.938 0 0-6.774 8.44-18.648 90DF1C2BA62" fill="#fff" stroke="#000" stroke-width=".521"/>
  <path d="M210.002 163.881c-2.083.833-8.855 4.374-8.855 4.374m5.629-2.295c-.105 1.041-.73 3.542 0 5.313m-.942-4.996c0 .52-.832 2.396.106 4.898m-1.14-4.375c-.209 1.045-.416 1.668 0 2.816m-.84-2.192c-.208.624 0 .938 0 1.353m6.144-1.67c.312.831 3.126 5.208 4.793 6.98m-4.373-5.004c.315.833 1.876 3.855 3.022 5.003m-3.226-3.232c.415 1.043 1.25 2.919 2.082 3.96m-2.082-1.871c.208.835.624 1.876 1.25 2.607" stroke-width=".834" fill="none" stroke="#7e4b7e"/>
  <g stroke="#000" stroke-width=".521">
    <path d="M279.777 158.167l27.86 13.642c5.582 2.713 7.59.207 10.739 1.576l54.983 28.007c4.716 2.06 7.357 2.72 070FE6AA02" fill="#b34b00"/>
    <path d="M282.132 152.33l31.19 15.573" fill="none"/>
  </g>
  <g transform="translate(-128) scale(1.024)" fill="#ffa54b" stroke="#000" stroke-width=".509">
    <path d="M309.73 165.12c-.203.61-.712.203-.712.408-.405 2.135-.305 3.253-.813 4.475-.712 1.424-3.256 2.748-3.154 2.645-2.034.609-4.475 3.054-8.442.814-.204-.101-.406-.306-.61-.508 0 0 1.117 4.169-2.95 6.204-1.424.713-15.77 8.244-15.77 8.244s-1.526 2.748-.509 6.512c.103.61.305 1.118-.305 1.526-.916.71-2.646 2.748-3.662 6.004 0 0-3.053-1.324-3.053-3.256 0-1.934 1.221-2.951 1.526-4.378.304-1.321 1.117-4.679.712-5.698-.406-1.119-2.238-1.526-2.95-1.933-.61-.408-1.425.406-1.322 1.322.103 1.018.813.812 1.628 1.018 0 0-.916 1.932-.813 3.356l-9.258 4.783s1.22 1.626 1.627 2.34c.405.712 1.321 10.175 4.069 14.653 2.747 4.477 3.663 3.256 4.273 3.866.508.508 1.321 1.321 2.034 1.934.712.508 3.865.811 4.477-.916.712-1.631 1.22-2.647 3.154-4.174 1.933-1.524 5.899-5.391 5.899-7.123 0 0 2.34 6.716 2.034 12.313 0 0 8.546 1.731 16.177 1.932 7.632.105 11.497-1.524 11.497-1.524s1.018-6.409.608-7.631c0 0 1.221 4.172 2.137 5.596 1.019 1.727 2.136 5.288 4.374 5.493 2.137.101 3.969-2.135 4.171-3.051v-6.716h8.647c0-.101 3.866 1.424 5.086 1.22 1.221-.102 1.933-1.22.813-1.628l-.405-.303c1.117 0 2.543.71 2.543.71h4.271c.103-.101 0-.408-.103-.508-.305-1.222-2.544-2.24-4.17-2.95-1.629-.609-3.459-1.324-4.681-1.424-1.932-.206-3.256-.101-6.206.408-.813.101-3.865.405-5.799 1.321-.509.306-1.019.406-.813-.916.306-1.426.204-7.835-1.32-10.583-1.12-1.932-1.018-3.562-.814-5.188.104-1.63.204-7.225 0-8.854-.306-1.627-2.544-3.867-6.611-4.375-3.866-.511-7.123-3.664-7.325-6.207-.305-2.542.408-7.223.814-9.257" fill="url(#c)"/>
    <g fill="none">
      <path d="M292.44 153.63c-.712 3.253-.712 6.104-.609 9.257.102 2.135 1.118 4.577 2.034 6.715.609 1.426 1.425 3.052 2.746 3.867 3.562 2.34 6.919-.203 8.852-1.017.916-.308 2.341-1.626 2.747-2.442.508-1.219.303-2.135.812-4.475-.103.1.813-.408.712-.408.916-1.526.712-2.034 1.221-3.054.509-1.018-.609-2.136-1.832-1.931.609-1.933 1.019-4.072.405-5.904-.202-.608.51-2.235-.608-1.832-4.579 1.832-9.97 1.426-14.854 1.426-.406 0-.712-.815-1.321-.71-.103 0-.204.303-.307.505" fill="url(#d)"/>
      <path d="M292.03 155.35c-.508-.406-.61-1.319 0-3.256.712-1.929 0-2.034 1.119-3.153 1.12-1.12.814-1.629 1.526-1.932.712-.206 2.849-.206 3.562-.508.609-.308 1.525-.714 2.947-.916 1.526-.308 4.579-.206 6.003.608 1.526.812 2.544 2.85 3.46 3.561 1.02.71 1.63 3.661 1.426 7.938-.307 4.272-1.12 3.458-1.12 3.458s-1.222-2.034-2.238-.308c0 0 0-1.626.204-2.848.102-1.219-.61-3.458.102-4.985 0 0-5.8 1.832-8.751 1.729-3.051-.202-7.322-.916-7.526-1.626l-.714 2.238" fill="#000"/>
      <path d="M294.98 151.8c-.305-.61-1.832-2.85-.609-3.561 1.12-.612.406 2.745 1.935 3.458 0 0-.509 1.526-1.321.102l-.005.001z" fill="#fff" stroke="#fff"/>
      <path d="M298.34 160.14c-.508 1.732-.712 2.138-.916 3.156m10.586 1.624c.204.61.404.303.914.405m.406-3.965c.509-.609 1.221-.303.813 1.223"/>
      <path d="M292.44 157.7c.916.303 1.832.608 2.748 1.02 1.526.61.61 2.845.204 4.271-.204.714-1.019 1.933-.609 2.546.508.811 1.119.303 2.035.403 0-.303.609-.508.813-.508.712-.1 1.12.508 1.627.308.61-.308.51-1.224.306-1.731m-.104-4.479c.102-.403 1.018-.811 1.526-.915 2.136-.405 3.661-.712 5.393.511m-5.699 11.084c-1.729.408-3.561.71-5.188-.206m-.002-.804c.813-.408 1.12-.816 2.137-.308 0-.101 1.12-.405 1.12-.405.812 0 1.322.304 2.136.812m-5.493.301c.916-.306 3.358-.306 5.394.102"/>
      <path d="M292.34 160.14c.713-.1 1.526-.916 3.154.306 1.12.712-1.832 1.426-1.322 1.324-1.32.202-1.729-.508-1.80D3E296A3D" fill="#fff" stroke-width=".305"/>
      <path d="M293.76 161.36c.406 0 .712-.406.712-.814 0-.508-.306-.916-.712-.916-.507 0-.812.408-.812.916 0 .408.0CB2E25A5A" fill="#000" stroke-width=".305"/>
    </g>
    <g id="g">
      <g fill="none">
        <path d="M345.85 213.66c-.608-.714-1.018-1.02-1.83-1.324l-2.036-1.016c-.712-.408-1.729-.508-2.34-.916m.406 2.646c-.306-.203-.508-.304-.812-.51-.306-.101-.712-.101-1.02-.203-.102 0-.102-.204-.203-.204-.915-.102-1.831-.51-2.44-1.321M272.8 201.45c.914.71 3.152 2.24 3.356 5.19.204 1.525 1.019 3.051 1.019 3.051m-13.125-7.831c.51 1.727.61 7.425 6.003 13.43m-4.983-21.37c-.408 1.119-.916 2.137.202 2.951m14.448 10.689c1.12-2.545 4.578-2.342 4.578-4.782"/>
        <path d="M284.81 207.25c-.306-2.849-.916-4.475-.405-8.647.203-1.223.405-5.9 0-8.141 0 0 1.629 7.833-3.662 9.363m34.387 12.515c0-3.97.916-6.209.916-6.209 1.221-5.593-1.119-7.731-.203-9.155.812-1.221 2.035-3.766.407-8.854 0 0 2.847 10.484-4.478 10.484-7.425 0-7.121-2.748-7.121-2.748"/>
        <path d="M284.4 190.46c0 2.135 0 8.447 9.055 8.447 2.746 0 5.698-1.933 7.324-3.256m2.241-2.751c-.306-1.934-.306-4.375-.306-6.92m-13.634-3.45c2.441-.308 4.376-.61 8.955-.61m.305-6.32c.509 2.24-.304 5.8 3.866 6.309m4.374-7.119c-.61 1.629-.61 3.256-.814 4.375m.204 2.755c1.73 0 4.985-1.121 9.054-.306m1.426 22.786c.813 1.63 1.018 3.765 3.561 6.207M288.27 199.21c.204 1.324-1.729 5.698-.306 9.262 1.322 3.559 1.12 7.631-1.12 11.089m6.616-19.021c-.813 1.626-2.238 3.256-2.544 4.68m6.604-1.63c0 1.018-2.744 8.749-4.68 10.886 0 0 3.561 1.424 3.051 6.614m7.329-21.06c0 1.324-.204 1.63.916 2.44m2.444 0c1.32 1.628 5.492 6.514 4.576 9.259m-7.326-6.509c.306 1.018.306 6.309-.61 8.955m-2.13-.205c-1.12 0-2.746.814-3.052 2.747m8.742-3.057c1.118-.306 3.355 1.626 3.355 7.123m15.675-10.273c-2.136.61-3.052 1.732-2.44 1.119-1.12.916-2.138 1.526-2.138 1.526"/>
      </g>
      <path d="M289.79 197.99c.608 0 1.118-.408 1.118-.916 0-.411-.507-.816-1.118-.816-.509 0-1.02.405-1.02.816 0 .0033FE6AC3" fill="#000" stroke-width=".305"/>
      <path d="M280.54 239.81c1.22-7.937 4.985-14.551 5.086-15.162 0 0 3.865.816 10.58 1.424 6.612.71 8.444.408 11.08FDD77A85" fill="#fff"/>
      <path d="M294.27 274.92c-.609 2.24-1.628 4.375-3.559 5.803m-2.751-53.633c-.304 1.322-2.238 7.325-7.122 10.887m14.242-9.767c-1.12 3.562-5.493 22.693-6.309 45.383m-.301 7.127c-.204 2.135-1.322 18.012-1.628 20.756m-.812 3.054c-.509 1.117-2.746 10.375-2.746 18.619m32.246-35.919c-.204 1.933-1.019 15.668 3.561 27.98m-18.511-85.98c-.305 2.237-.813 16.688-.813 17.806 0 1.117 1.628 2.747 2.441 3.054 0 0-1.628.509-1.933 6.003M296.2 243.17c-.308 1.727-1.934 8.547-3.054 11.295m13.124-25.435s4.884 1.018 5.188 0c0 0 1.628 29.512 3.866 45.891M304.14 232.79c0 1.934-.609 16.485-.609 16.485m2.439 2.135s1.931 2.745 1.425 4.066M289.59 227.4c1.629.508 3.053.812 3.053.812m5.187 1.628c-.307.814-.61 4.58-.61 4.58m8.75 38.87c.61.814 1.425 1.936.814 4.377" fill="none"/>
      <path d="M284.91 224.45s0-3.256 1.22-4.886c0 0 3.457.714 8.342 1.222 4.984.508 8.951.916 12.615.508 3.663-.400D0CC4EACC" fill="#9b5f00"/>
      <path d="M288.06 224.85l.608-4.883 1.019.1-.203 5.088-1.424-.305m22.08-4.07l.103 5.496 1.221-.206-.102-5.597-1.222.307m-15.67 0l-.406 5.291h.713l.712-5.291h-1.019" fill="#fff"/>
      <path d="M276.77 320.81c-.305 1.322-.812 3.154-1.018 5.496 0 .508-.507 3.256 1.018 3.356 1.12.103 1.425-2.849 1.425-2.849s-1.019 3.256.305 3.664c1.832.403 2.034-3.562 2.034-3.562-.204 1.119-1.425 3.969.306 4.271 1.831.307 2.339-3.867 2.339-3.867s-1.525 4.174.305 4.275c1.729.1 1.729-4.072 1.729-4.072s-.916 4.988 1.526 4.58c1.321-.203 1.628-1.934 1.933-2.951.406-1.524 1.322-3.457.204-6.612-.812-2.341-.507-2.951-.507-2.951s-2.85 2.138-5.087 3.562c-1.019.609-6.514-2.34-6.514-2.34zm29.71-4.38c-.508-.307-.406 1.832-.609 2.846-.103 1.021.204 3.257 3.663 3.055 3.355-.307 6.715-1.018 8.851-.509 2.137.61 5.289.711 7.021.711 1.729 0 2.849-.202 3.661-.509.713-.303 2.238.408 2.95.408.713 0 1.831-1.119 1.73-1.832-.103-1.324-1.322-1.324-3.054-1.424-1.628-.203-3.865-.511-4.983-.916-1.12-.408-3.154-1.527-5.698-2.035 0 0-4.883.205-5.898.205-1.019 0-7.022.303-7.634 0z"/>
    </g>
    <g fill="none">
      <path d="M255.71 189.85c-.507.306-1.12-2.035.406-2.951 0 0 .406-1.931 2.035-2.136 0 0 1.321-1.832 3.257-1.6260C8FFDCA7A" fill="#ffb366"/>
      <path d="M265.68 186.09c-.51-1.629-2.137-3.054-4.069-2.848m2.239 4.368c-.306-.408-.408-.816-.712-1.22-.916-1.528-2.849-1.424-4.477-1.832m2.439 4.582c-.609-.406-.813-1.222-1.425-1.524-1.018-.408-2.034-.916-3.255-.714"/>
    </g>
  </g>
  <g transform="translate(-128) scale(1.024)" stroke="#000" stroke-width=".509">
    <path d="M439.14 165.12c.712-.306.51.61.61.916.306 1.321.306 2.748.813 3.967.608 1.119.812 1.526 1.83 2.035 1.627.916 6.407 3.562 9.767 1.424a3.11 3.11 0 0 0 .712-.508s-1.221 4.172 2.95 6.207c1.321.71 15.668 8.241 15.668 8.241s1.525 2.748.609 6.512c-.204.61-.405 1.118.204 1.526 1.019.71 2.644 2.748 3.766 6.004 0 0 2.947-1.324 2.947-3.256 0-1.934-1.219-2.951-1.525-4.375-.202-1.324-1.017-4.682-.608-5.698.405-1.118 2.135-1.526 2.847-1.936.714-.408 1.526.406 1.322 1.322-.102 1.018-.812.816-1.628 1.018 0 0 1.02 1.932.814 3.356l9.358 4.783s-1.221 1.629-1.628 2.34c-.509.715-1.425 10.175-4.171 14.653-2.748 4.477-3.663 3.256-4.171 3.866-.61.508-1.424 1.324-2.137 1.934-.608.508-3.764.814-4.476-.916-.712-1.628-1.221-2.647-3.153-4.174-1.934-1.524-5.9-5.391-5.9-7.123 0 0-2.341 6.719-2.035 12.313 0 0-8.443 1.731-16.176 1.936-7.631.102-11.497-1.528-11.497-1.528s-1.018-6.409-.61-7.631c0 0-1.22 4.172-2.033 5.596-1.118 1.727-2.236 5.291-4.375 5.493-2.236.104-3.968-2.135-4.271-3.051v-6.716h-8.646c0-.101-3.766 1.424-5.087 1.223-1.221-.105-1.832-1.223-.813-1.631l.407-.303c-1.119 0-2.544.71-2.544.71h-4.272c0-.101.103-.408.103-.508.307-1.219 2.545-2.24 4.272-2.95 1.628-.609 3.356-1.324 4.578-1.424 1.933-.203 3.256-.101 6.206.408.812.101 3.967.408 5.798 1.322.508.304 1.118.405.813-.915-.305-1.426-1.221-5.598.307-8.346 1.018-1.933.916-3.559.813-5.189-.204-1.729-1.118-5.598-1.118-7.325 0-5.699 4.375-8.039 8.24-9.262 4.272-1.319 7.121-2.748 6.92-5.288-.104-2.646.608-7.021.202-9.058" fill="url(#e)"/>
    <g fill="none">
      <path d="M456.34 153.63c.916 3.356 1.12 4.169 1.12 5.291 0 1.219-.509 1.424-.104 2.748.713 2.441-.712 5.088-2.441 7.937-.813 1.32-1.424 3.052-2.746 3.866-3.356 2.135-7.427-.408-9.563-1.327-1.117-.505-1.729-1.319-2.033-2.135-.407-1.219-.509-2.34-.813-3.967 0-.306.103-1.219-.609-.916-1.22-1.424-1.018-2.034-1.524-3.051-.509-1.021.916-2.139 2.034-1.934-.61-1.933-.916-4.072-.306-5.904.204-.608-.508-2.235.51-1.832 4.577 1.832 9.969 1.426 14.854 1.426.404 0 .71-.812 1.32-.71.098-.001.2.305.301.508" fill="url(#f)"/>
      <path d="M456.75 155.35c.508-.406.204-2.34-.306-4.375-.203-1.017-1.018-1.424-2.136-2.542-1.12-1.122-1.525-1.1096339FAD8" fill="#000"/>
      <path d="M450.44 160.14c.61 1.732.104 1.222.408 2.34m-10.278 2.03c0 .812-.61.61-1.019.61"/>
      <path d="M456.85 158.82c-.916-.713-2.645-.204-3.46.102-1.525.71-.712 2.24-.204 3.664.204.71 1.02 1.727.511 2.441-.407.812-.713.408-1.629.51.104-.308-.812 0-1.117 0-.61-.102-.916.403-1.426.202-.608-.304-.508-1.22-.306-1.729m.101-4.48c0-.403-1.321-.811-2.745-.915-2.238-.102-2.442.104-4.172 1.322m11.497 8.953c-.405-.608-1.018-.916-2.137-.405 0-.204-1.524-.406-1.524-.406-.812 0-1.321.303-2.136.71m5.587.611c-.916-.609-3.256-.201-5.596-.201m.206.811c1.73.512 3.46.816 5.188 0"/>
      <path d="M456.44 160.14c-.712-.1-1.018-.916-3.153.306-1.119.61 1.832 1.426 1.425 1.324 1.22.202 1.628-.508 1.08BCCF2AFD" fill="#fff" stroke-width=".305"/>
      <path d="M455.12 161.36a.802.802 0 0 1-.813-.814c0-.508.307-.916.813-.916.405 0 .712.408.712.916 0 .408-.307.023480BA6E" fill="#000" stroke-width=".305"/>
    </g>
    <use height="100%" width="100%" xlink:href="#g" transform="matrix(-1 0 0 1 748.816 0)" fill="#730000"/>
    <g fill="none">
      <path d="M491.64 193.51c.508.206 1.934-2.033.508-3.051 0 0-.508-1.932-2.136-2.034 0 0-1.322-1.933-3.257-1.63 018EEC6AE0" fill="#730000"/>
      <path d="M482.49 189.75c.506-1.73 2.235-3.153 4.067-2.849m-2.137 4.379c.203-.411.305-.816.61-1.224.915-1.524 2.948-1.524 4.576-1.832m-2.546 4.476c.61-.408.814-1.118 1.426-1.421 1.018-.512 2.136-.916 3.256-.714"/>
      <path d="M482.31 186.77c-.896.716-1.837 1.798-1.906 2.281-.103.61-.008 1.827.5 2.438.551.461.949-.017 1.095-.06A100DA34" fill="#730000" stroke="none"/>
      <path d="M480.68 188.19c-1.502 2.582.5 4.132 1.164 2.619-.193 2.386 1.606 2.292 2.285 1.538.658 2.512 1.83 1.395 2.909 1.164-1.223 2.29 1.479 1.609 2.12 1.081.924-1.362 1.356-.277 2.036-.416l1.164-1.247m-7.978-5.699c-1.686.896-2.512 2.137-2.535 3.699m4.865-2.199c-1.687.896-2.512 2.137-2.535 3.699m5.405-1.749c-1.687.897-1.765 1.722-2.493 2.826"/>
    </g>
  </g>
  <path d="M169.062 331.428l-.209-4.792 1.98 1.668.521-3.648c.833-.21 2.188 1.46 2.188 1.46l-.209-3.65 3.021 3.07CA404A76" fill="#5ac800"/>
  <path d="M169.062 331.428l-.209-4.792 1.98 1.668.521-3.648c.833-.208 2.188 1.46 2.188 1.46l-.209-3.646 3.021 3.334s-.208-2.814.832-4.48c0 0 2.29 1.98 2.29 4.272 0 1.983 1.98-2.814 1.98-2.814.522 1.67 1.668 5.316 1.668 5.316l1.353-1.983 1.146 4.167 2.5-3.645 1.978 4.272 4.48-.315.522 2.502 1.98-2.188 2.604 1.668s2.186-.624 3.333-.624c1.147 0 2.5 1.456 2.5 1.456s.832-1.456 1.668-1.977c.831-.521 1.98.831 2.289 1.665l1.668-3.02s2.188 2.188 2.5 3.02c0 0 .312-2.498.833-3.334.522-.832 1.353.314 1.98 1.356l1.353-4.48s1.458.31 2.498 1.979c1.147 1.665 1.147-2.503 1.147-2.503s2.499 3.336 3.128 5.627m62.72-.835s.831-2.289 1.98-3.437c0 0 2.186 2.606 2.186 3.437 0 0 .625-.313 1.772-1.144l1.667 1.665 1.98-1.352 1.875 1.666 3.439-1.458 1.35 1.458 5.313-.622 1.981.831 1.874-2.393 1.772 1.872 2.812-2.81s1.354 1.142 1.667 1.978c0 0 2.292-1.145 2.813-1.978 0 0 2.186-.834 2.497.517 0 0 1.354-1.041 1.25-2.186-.105-1.145 1.562-.311 2.083 1.149 0 0 .624-2.294 2.292-2.504 0 0 1.145 1.355.832 3.857 0 0 2.5-1.979 3.646-2.189 0 0 .521 2.811-.311 5.314 0 0 2.605-4.272 3.125-2.813.209.831.834 3.647.209 5.625l2.292-1.459.832 2.814 2.499-.522m-117.055 8.488s1.876-3.125 3.02-3.96c0 0 2.5 1.98 3.334 4.48 0 0 .316-1.666 1.147-3.124 0 0 3.126 1.454 3.647 3.438 0 0 1.146-1.98 1.98-2.5.833-.628 1.667 2.186 1.667 3.854 0 0 1.98-2.085 3.126-2.189 0 0 2.188 1.042 2.812 4.69 0 0 2.085-1.98 2.812-1.67 0 0 2.5 1.67 1.875 3.96-.312 1.251 2.5-1.455 5.94-2.29l3.02 2.29s2.811-3.75 3.646-5.002c0 0 2.291.834 2.291 2.19 0 0 1.044-3.961 1.876-4.375.832-.52 1.978 1.249 1.978 2.396 0 0 .314-3.021 1.982-3.647 0 0 1.667 1.145 1.667 2.293 0 0 1.77-3.437 3.125-4.275" stroke-width=".521" fill="none" stroke="#060"/>
  <g fill="#fff">
    <path d="M255.427 386.028c23.441.21 37.298-8.337 44.903-13.443 17.813-11.98 21.564-12.397 24.482-12.191 3.335.316 8.228 1.461 8.438 4.38.313 4.48-6.979 6.458-11.148 6.458-4.27 0-15.42-2.814-15.42-2.814l-2.918 1.982c1.98.938 24.797 8.542 29.172 1.355 4.477-7.293 8.96-19.069 8.96-19.069s-5.001-8.961-16.15-8.961c-11.251 0-22.191 7.088-29.482 12.397-7.294 5.314-16.46 12.607-40.84 12.607-24.379 0-33.65-7.293-40.941-12.607-7.292-5.313-18.232-12.397-29.378-12.397-11.25 0-16.253 8.961-16.253 8.961s4.48 11.776 8.96 19.069c4.374 7.187 27.192-.417 29.168-1.355l-2.812-1.982s-11.25 2.814-15.42 2.814c-4.27 0-11.563-1.979-11.25-6.459.209-2.918 5.104-4.065 8.439-4.38 2.916-.205 6.667.213 24.48 12.192 7.61 5.106 21.466 13.338 45.01 13.443"/>
    <path d="M217.713 358.41s0-1.984-.316-4.898c-.416-3.751-2.603-4.69-4.373-4.168-1.145.412-3.437 3.23-3.437 3.23v.106a33.14 33.14 0 0 0-3.23-1.982c.834-.937 5.626-3.854 6.772-3.854 1.044 0 15.42 5.834 20.001 9.792 1.147 1.045 1.981 7.504 1.354 9.585-7.709-1.98-12.71-4.895-16.774-7.71v-.104m-6.879 14.595s-3.126 3.124-3.228 8.856c-.107 6.771 4.792 7.086 8.02 6.98 3.856-.107 6.98-2.292 6.877-9.482 0 0-6.356-2.71-11.67-6.356m82.208-14.59s.106-1.984.418-4.898c.413-3.751 2.498-4.69 4.27-4.168 1.146.412 3.436 3.23 3.436 3.23v.106a32.985 32.985 0 0 1 3.228-1.982c-.831-.937-5.623-3.854-6.666-3.854-1.145 0-15.52 5.834-20.105 9.792-1.045 1.045-1.876 7.504-1.354 9.585 7.814-1.98 12.709-4.895 16.773-7.71v-.104m6.872 14.595s3.125 3.124 3.229 8.856c.209 6.771-4.795 7.086-8.021 6.98-3.857-.107-6.876-2.292-6.876-9.482 0 0 6.356-2.71 11.67-6.356"/>
  </g>
  <path d="M204.063 368.415s-11.149 2.814-15.315 2.814c-4.27 0-11.564-1.977-11.25-6.46.208-2.918 5.104-4.062 8.438-4.374 2.5-.212 5.73.103 18.127 8.02m102.625 0s11.146 2.814 15.42 2.814c4.167 0 11.459-1.977 11.146-6.46-.207-2.918-5.103-4.062-8.437-4.374-2.503-.212-5.732.103-18.129 8.02m-88.975-9.902c-1.146-.834-2.292-1.67-3.337-2.5-1.561-1.148-3.125-2.19-4.793-3.334 0 0 2.292-2.918 3.438-3.232 1.77-.623 3.957.31 4.373 4.062.314 2.919.314 5.005.314 5.005m-7.604 29.387c1.983 1.148 4.168 1.045 5.524.938 3.855-.104 6.98-2.291 6.876-9.48 0 0 4.79 2.396 12.604 4.272 0 0 1.252 1.562 1.459 4.686.315 2.608-1.459 5.418-3.54 5.212 0 0-10.94-1.98-17.605-3.124-3.856-.728-5.314-2.502-5.314-2.502m82.93-29.39c1.145-.834 2.292-1.67 3.436-2.5 1.46-1.148 3.02-2.19 4.688-3.334 0 0-2.29-2.918-3.436-3.232-1.77-.623-3.855.31-4.27 4.062a95.467 95.467 0 0 0-.418 5.004m7.598 29.388c-1.98 1.148-4.168 1.045-5.522.938-3.856-.104-6.876-2.291-6.876-9.48 0 0-4.794 2.396-12.502 4.272 0 0-1.354 1.562-1.563 4.686-.209 2.608 1.563 5.418 3.542 5.212 0 0 11.042-1.98 17.606-3.124 3.855-.728 5.312-2.502 5.312-2.502" fill="#69f"/>
  <g fill="none" stroke="#000" stroke-width=".729">
    <path d="M255.427 386.028c23.442.207 37.298-8.339 44.903-13.443 17.813-11.981 21.564-12.396 24.48-12.19 3.3360ED64C0AA4"/>
    <path d="M204.063 368.415s-11.15 2.814-15.313 2.814c-4.272 0-11.564-1.98-11.253-6.46.209-2.918 5.105-4.065 8.439-4.374 2.497-.212 5.73.103 18.127 8.02zm102.615 0s11.148 2.814 15.42 2.814c4.166 0 11.459-1.98 11.146-6.46-.208-2.918-5.102-4.065-8.435-4.374-2.5-.212-5.733.104-18.127 8.02h-.004zm-88.965-9.902c-1.147-.834-2.292-1.67-3.337-2.5-1.56-1.148-3.124-2.19-4.79-3.334 0 0 2.29-2.918 3.436-3.232 1.77-.623 3.957.31 4.373 4.066.318 2.912.318 5 .318 5z"/>
    <path d="M217.713 358.41s0-1.982-.316-4.898c-.413-3.751-2.603-4.69-4.373-4.168-1.147.417-3.439 3.23-3.439 3.208D5EA6A59"/>
    <path d="M213.443 374.559s-2.498 2.604-2.916 6.876c-.209 3.335 1.979 5.208 4.792 5 3.958-.206 5.523-5.624 3.647-8.646l-5.523-3.23"/>
    <path d="M210.104 387.901c1.98 1.146 4.166 1.043 5.522.938 3.855-.106 6.977-2.293 6.878-9.482 0 0 4.791 2.396060D948A76"/>
    <path d="M293.038 358.41s.106-1.982.418-4.898c.415-3.751 2.498-4.69 4.27-4.168 1.147.417 3.436 3.23 3.436 3.2000F664A07"/>
    <path d="M297.308 374.559s2.5 2.604 2.918 6.876c.314 3.335-1.982 5.208-4.794 5-3.958-.206-5.416-5.624-3.646-8.646l5.522-3.23"/>
    <path d="M300.636 387.901c-1.98 1.146-4.168 1.043-5.522.938-3.855-.106-6.874-2.293-6.874-9.482 0 0-4.795 2.390B42650A97"/>
  </g>
  <path d="M234.281 385.505s3.438 2.504-.73 5.628m-9.581-7.297l10.52 4.586m-8.76-2.19l7.707 3.332m-4.993-5.308l5.834 2.608m42.294-1.359s-3.543 2.504.625 5.628m9.584-7.297l-10.522 4.586m8.853-2.19l-7.707 3.332m4.902-5.308l-5.73 2.608" stroke-width=".729" fill="none" stroke="#fff"/>
  <path d="M193.085 353.454c.15.242.245.495.292.754.04.264.03.56-.03.885-.149.775-.564 1.354-1.235 1.754-.676.300B05B3AF3" stroke-width=".717" stroke="#000"/>
  <path d="M305.121 218.788v56.576c0 11.252-1.561 56.058-49.694 73.46-48.235-17.402-49.798-62.204-49.798-73.46v-56.576h99.492" fill="none" stroke="#000" stroke-width="1.042"/>
</svg>
