<svg xmlns="http://www.w3.org/2000/svg" xmlns:xlink="http://www.w3.org/1999/xlink" height="512" width="512" id="flag-icon-css-cc">
  <defs>
    <path d="M0-360l69.42 215.845 212.04-80.3L155.987-35.604l194.986 115.71-225.88 19.65 31.104 224.592L0 160l-1507911BAA8D" id="a"/>
    <path d="M0-210L54.86-75.508l144.862 10.614L88.765 28.842l34.67 141.052L0 93.334l-123.435 76.56 34.67-141.052-110.957-93.736L-54.86-75.508z" id="b"/>
  </defs>
  <path fill="green" d="M0 0h512v512H0z"/>
  <circle cx="268.22" cy="250.446" r="61.243" fill="#ffe000"/>
  <circle cx="287.316" cy="250.446" r="50.394" fill="green"/>
  <circle cx="75.159" cy="189.203" r="64.159" fill="#ffe000"/>
  <path d="M70.732 237.58h16.02s.724-1.47-.16-2.204c-.885-.734-4.33-.896-3.4-3.493 1.914-5.34 2.18-3.694 3.383-04390E5A53" fill="#802000" stroke="#7b3100" stroke-width="1.361"/>
  <path d="M82.957 142.46c.134 2.488-.117 5.783-1.148 8.463-1.047 2.988-2.184 5.965-2.127 9.06-1.663.564-3.376-054AA96AB6" fill="green"/>
  <g transform="translate(-25.746 103.463) scale(.05833)" fill="#ffe000">
    <use height="100%" width="100%" xlink:href="#a" x="7560" y="4200"/>
    <use height="100%" width="100%" xlink:href="#a" x="6300" y="2205"/>
    <use height="100%" width="100%" xlink:href="#a" x="7560" y="840"/>
    <use height="100%" width="100%" xlink:href="#a" x="8680" y="1869"/>
    <use height="100%" width="100%" xlink:href="#b" x="8064" y="2730"/>
  </g>
</svg>
