<svg xmlns="http://www.w3.org/2000/svg" xmlns:xlink="http://www.w3.org/1999/xlink" height="512" width="512" id="flag-icon-css-cx">
  <path fill="#0021ad" d="M0 0h512v512H0z"/>
  <path d="M0 0h512v512z" fill="#1c8a42"/>
  <circle cx="256" cy="256" r="61.658" fill="#ffc639"/>
  <path d="M218.344 228.304c4.218 5.787 10.61 15.49 15.75 12.957 4.012.014 6.083.296 6.627 2.966 9.462 1.61 25.039A13AA9E" fill="#1c8a42"/>
  <path d="M452.254 63.723c-2.793-11.055-27.798-34.865-46.59-50.016-4.486-3.056-7.41-1.236-6.825 3.122 2.338 3.07A079BA19" fill="#ffc639"/>
  <path d="M542.467 217.777a3.005 1.878 15.947 1 1-5.73-1.8 3.005 1.878 15.947 0 1 5.73 1.8z" fill="#1c8a42"/>
  <g transform="translate(-11.826 182.362) scale(.68267)" fill="#fff">
    <path id="a" d="M188.16 190.94l-12.75-11.936-12.905 11.77 1.383-17.405-17.25-2.754 14.476-9.774-8.606-15.197 16.668 0D9754FA8E"/>
    <path d="M233.39 335.53l-13.752-9.167-13.39 9.664 4.71-15.568-13.58-9.416 16.666-.446 4.988-15.496 5.595 15.3 16.667-.156-13.21 9.902 5.307 15.382z"/>
    <use height="100%" width="100%" xlink:href="#a" x="2.522" y="269.061"/>
    <use height="100%" width="100%" xlink:href="#a" x="-112.066" y="123.223"/>
    <use height="100%" width="100%" xlink:href="#a" x="108.427" y="85.027"/>
  </g>
</svg>
