<svg xmlns="http://www.w3.org/2000/svg" xmlns:xlink="http://www.w3.org/1999/xlink" height="512" width="512" id="flag-icon-css-eg">
  <path d="M0 341.333h512V512H0z"/>
  <path fill="#fff" d="M0 170.667h512v170.667H0z"/>
  <path fill="#ce1126" d="M0 0h512v170.667H0z"/>
  <g transform="translate(-128.004 .002) scale(.85333)" fill="#fff" stroke="#c09300">
    <path d="M450.81 302.4l68.488 63.58-4.876-115.47c-.716-17.5-15.924-13.486-26.97-7.173-11.192 7.172-23.96 7.170972B1EA85" stroke-width="1.27" stroke-linejoin="round"/>
    <path d="M393.47 246.49l-4.734 112.32-8.035 7.168 4.88-115.47c2.294-1.578 6.313-4.017 7.89-4.017zm9.62 8.04l-031D72DA2E" id="a" fill="#c09300" stroke="none"/>
    <use height="100%" width="100%" xlink:href="#a" transform="matrix(-1 0 0 1 900 0)"/>
    <path d="M453.16 315.06l9.613 43.755-3.158 3.155-3.3-2.44-5.45-39.017 2.294 39.018-3.157 4.017-3.157-4.016 2.097B4A5ADA" fill="#c09300" stroke-width="1.074"/>
    <g id="b" fill="none" stroke-width="1.27" stroke-linejoin="round">
      <path d="M428.48 295.84l-19.08 67.705 26.255 4.018 11.188-50.924-18.363-20.8z" fill="#fff" stroke-width="1.189"/>
      <path d="M422.17 318.94l2.296 5.593 12.405-11.848"/>
      <path d="M430.76 304.92l2.596 24.346 7.89-10.328m-3.156 4.012l4.31 14.875m1.69-5.465l-8.718 13.24m2.72 13.217l-2.79-13.198-2.437-13.424-5.84 7.91-2.562-9.12-8.174 8.385 4.156 15.252 5.738-9.435 3.155 9.612 5.89-9.163"/>
      <path d="M414.99 361.97l5.3-7.444 3.452 11.457 4.735-8.032 3.157 9.615"/>
    </g>
    <use height="100%" width="100%" xlink:href="#b" transform="matrix(-1 0 0 1 900 0)"/>
    <g stroke-width="1.27" stroke-linecap="round" stroke-linejoin="round">
      <path d="M450 393.81c19.943 0 39.024-1.578 50.213-4.734 4.735-.86 4.735-3.298 4.735-6.455 4.736-1.577 2.295-70990F3BAF4" stroke-width="2.378"/>
      <path d="M422.89 363.54c6.454.86 13.628 1.578 19.225.86 3.153 0 5.45 5.452-.863 6.314-5.593.715-14.345 0-19.008A6417A4E"/>
      <path d="M403.09 360.39c-4.877-.86-7.172 4.732-5.593 7.887.717-1.578 4.017-1.578 4.735-3.155.858-2.437-.718-20A5AB91AE4"/>
      <path d="M404.67 361.97c1.58 0 4.018.718 4.735 1.577l-4.74-1.58zm7.88 2.44c.862 0 4.018.716 5.596 1.575l-5.6-0537363A1E" stroke-width=".891"/>
      <g fill="#c09300" stroke="none">
        <path d="M403.34 374.58c-.534-.102-.815-.525-.68-1.025.164-.61.65-.957 1.112-.794.294.105.83.646.832.84.003.20A7E813AC0"/>
        <path d="M407.75 370.09c-.346-.01-.82.307-1.094.47-.65.15-1.404.55-2.03.124-.618-.19-1.44-.04-1.532.718.158.60267997A8D"/>
      </g>
    </g>
    <path d="M449.98 327.23c32.642-25.106 29.843-61.883 29.843-61.883-.86.172-1.68.258-2.54.258-6.848 0-23.18-3.9061478DAD7" stroke-width="1.15"/>
    <path d="M477.22 268.04c-.28.018-.563.026-.848.026-6.205 0-20.62-3.183-26.175-7.957-5.82 4.41-20.47 7.956-26.0C1EE34A0F" stroke-width=".916"/>
    <path d="M439.38 265.03c-5.872 1.845-12.23 3.03-15.75 3.03-.286 0-.563-.04-.844-.093-.014 1.39.07 2.846.156 40D00BB3AC9" fill="#c09300" stroke="none"/>
    <g stroke-width="1.27">
      <path d="M462.31 253.09c.667.04-.902-3.568-.902-3.568 1.765 1.804 8.43 2.235 8.43 2.235-4-1.766-7.998-15.096-0EC3086A79" stroke-width="1.218"/>
      <path d="M446.12 227.57s-2.235 16.428-6.43 21.094m9.96-21.524s-.863 16.623-3.764 21.956m6.894-21.286s0 18.192 1.098 21.29m2.862-20.39s.902 15.29 4.666 20.82" fill="none"/>
      <path d="M442.08 219.61c-.196-1.45-.55-2.588-1.06-3.333-1.998-2.9-4.9-5.332-8.232-2.666 0 0 1.137-3.528 3.56807F06CFAD6" fill="#c09300" stroke-width=".354"/>
      <path d="M432.44 209.26c.274-.902.706-1.725 1.255-2.078 2-1.333 6.43-.902 10.86.235 0 0-.392-1.92 2-1.803 4.208ABA64AB2" fill="#c09300" stroke-width=".354"/>
      <circle cx="448.824" cy="210.672" r="1.176" stroke="none"/>
    </g>
  </g>
</svg>
