<svg xmlns="http://www.w3.org/2000/svg" xmlns:xlink="http://www.w3.org/1999/xlink" height="512" width="512" id="flag-icon-css-fk">
  <defs>
    <linearGradient id="a">
      <stop stop-color="#a43907" stop-opacity=".996" offset="0"/>
      <stop stop-color="#fff" offset="1"/>
    </linearGradient>
    <linearGradient id="b" y2="577.14" xlink:href="#a" gradientUnits="userSpaceOnUse" x2="470.9" gradientTransform="scale(1.003 .997)" y1="592.2" x1="444.4"/>
    <linearGradient id="c" y2="552.83" xlink:href="#a" gradientUnits="userSpaceOnUse" x2="520.55" gradientTransform="scale(.936 1.068)" y1="562.51" x1="458.24"/>
    <linearGradient id="d" y2="580.2" xlink:href="#a" gradientUnits="userSpaceOnUse" x2="445.28" gradientTransform="scale(1.003 .997)" y1="578.68" x1="472.38"/>
    <linearGradient id="e" y2="558.12" xlink:href="#a" gradientUnits="userSpaceOnUse" x2="456.44" gradientTransform="scale(.936 1.068)" y1="553.74" x1="517.97"/>
    <linearGradient id="f" y2="369.94" xlink:href="#a" gradientUnits="userSpaceOnUse" x2="646.19" y1="369.94" x1="851.78"/>
    <linearGradient id="g" y2="508.75" xlink:href="#a" gradientUnits="userSpaceOnUse" x2="677.4" gradientTransform="scale(.823 1.215)" y1="507.23" x1="388.53"/>
    <linearGradient id="h" y2="505.86" xlink:href="#a" gradientUnits="userSpaceOnUse" x2="556.8" gradientTransform="scale(.835 1.198)" y1="504.94" x1="579.84"/>
    <linearGradient id="i" y2="514.33" xlink:href="#a" gradientUnits="userSpaceOnUse" x2="558.88" gradientTransform="scale(.823 1.215)" y1="512.01" x1="581.43"/>
    <linearGradient id="j" y2="503.9" xlink:href="#a" gradientUnits="userSpaceOnUse" x2="589.77" gradientTransform="scale(.835 1.198)" y1="517.88" x1="552"/>
  </defs>
  <path fill="#006" d="M0 0h512v512H0z"/>
  <path fill-rule="evenodd" fill="#006" d="M0 0h512v256H0z"/>
  <g stroke-width="1pt">
    <path d="M0 0v28.623L454.756 256h57.242v-28.62L57.24.002H0zm511.998 0v28.622L57.24 256H0v-28.62L454.756 0h57.242z" fill="#fff"/>
    <path d="M213.332 0v256h85.333V0h-85.333zM0 85.335v85.333h511.998V85.334H0z" fill="#fff"/>
    <path d="M0 102.4v51.2h511.998v-51.2H0zM230.4 0v256h51.2V0h-51.2zM0 256l170.666-85.333h38.16L38.162 256H0zM0 0l170.666 85.334h-38.16L0 19.082V.002zm303.17 85.334L473.838 0h38.16L341.333 85.335h-38.16zM512 256l-170.666-85.333h38.16L512 236.92V256z" fill="#c00"/>
  </g>
  <path d="M670.97 321.56a13.22 13.22 0 0 0-2.03.188c-3.39.59-8.734 11.63-11.69 18.094-4.62 5.644-7.088 10.03-9.03 13.28-.755 1.263-1.92 2.728-1.563 4.407-6.996 1.718-7.344 7.724-7.344 10.06 0 2.48.782 3.72.782 3.72l4.187 7.843.03.094c4.458 9.216 11.058 21.626 14.75 22.656 5.244 1.462 18.822-3.55 29-12.156 16.69 6.875 38.073 12.562 61.97 12.562 23.896 0 45.248-5.69 61.938-12.563 10.18 8.606 23.758 13.618 29 12.156 3.705-1.033 10.324-13.525 14.78-22.75l4.19-7.844s.78-1.24.78-3.72c0-2.338-.377-8.344-7.375-10.062.35-1.678-.776-3.143-1.53-4.406-1.958-3.274-4.42-7.7-9.095-13.406-2.966-6.48-8.29-17.382-11.656-17.97-4.742-.825-14.97 1.58-14.97 2.407 0 .02-.057.45-.062.5l-20.54 19.4c0 .557 1.09 14.594 4.938 27-13.75 5.006-30.626 8.532-50.406 8.532-19.793 0-36.715-3.52-50.47-8.532 3.85-12.406 4.97-26.443 4.97-27l-20.53-19.4c-.005-.05-.063-.48-.063-.5 0-.723-7.83-2.675-12.968-2.593zm5.25 24.094c2.582-.032 5.332 2.095 7.594 4.47-.078.465-.157.943-.25 1.374-.624 2.872-1.696 6.663-3.188 10.625-5.87-3.43-10.66-6.996-14.312-10.312 2.228-2.37 5.806-5.596 9.594-6.124.185-.026.375-.03.563-.03zm147.56 0c.187.002.377.005.563.03 3.788.53 7.397 3.757 9.625 6.126-3.66 3.324-8.457 6.91-14.344 10.344-1.498-3.97-2.563-7.778-3.188-10.656-.094-.432-.172-.907-.25-1.375 2.265-2.38 5.006-4.5 7.594-4.47zm-166 27.375c2.73 2.09 6.296 4.475 10.594 7-1.19.755-2.456 1.316-3.78 1.624-1.766.41-3.622.33-5.5-.063-.588-1.45-1.083-3.274-1.22-5.717a70.286 70.286 0 0 1-.094-2.844zm184.47 0c-.014.877-.068 1.825-.125 2.843-.137 2.443-.6 4.267-1.188 5.72-1.88.392-3.766.47-5.53.06-1.326-.307-2.56-.868-3.75-1.624 4.3-2.525 7.862-4.908 10.593-7z" fill-rule="evenodd" transform="translate(-509.228 18.036) scale(1.168)" stroke="#fff" stroke-width="10" fill="url(#b)"/>
  <path d="M445.63 595.48s5.625-8.75 10.313-8.125c4.687.625 9.062 6.25 9.375 6.562.312.313 7.187-7.187 6.875-7.0C7D317AC0" fill-rule="evenodd" transform="matrix(-1.477 0 0 1.545 953.61 -485.428)" stroke="#000" stroke-width="1.16" fill="url(#b)"/>
  <path d="M433.13 586.11c0 .625 1.875 23.75 10 31.875s21.25 13.125 25.938 11.875c4.687-1.25 15.312-24.687 15.301B0EE7AD0" fill-rule="evenodd" transform="matrix(-1.477 0 0 1.545 953.61 -485.428)" stroke="#000" stroke-width="1.16" fill="url(#c)"/>
  <path d="M445.63 595.48s5.625-8.75 10.313-8.125c4.687.625 9.062 6.25 9.375 6.562.312.313 7.187-7.187 6.875-7.0C7D317AC0" fill-rule="evenodd" transform="matrix(1.477 0 0 1.545 -219.777 -485.428)" stroke="#000" stroke-width="1.16" fill="url(#d)"/>
  <path d="M433.13 586.11c0 .625 1.875 23.75 10 31.875s21.25 13.125 25.938 11.875c4.687-1.25 15.312-24.687 15.301B0EE7AD0" fill-rule="evenodd" transform="matrix(1.477 0 0 1.545 -219.777 -485.428)" stroke="#000" stroke-width="1.16" fill="url(#e)"/>
  <path d="M656.44 338.56c-4.742 5.785-7.274 10.257-9.25 13.562-1.976 3.306-.814 7.906 3.75 14.47 4.92 7.072 450550142A36" fill-rule="evenodd" transform="translate(-508.04 19.21) scale(1.168)" stroke="#000" stroke-width="1.5" fill="url(#f)"/>
  <path d="M467.82 625.48c.625-.937 7.187-11.875 7.187-11.875l-3.598-2.538c-1.106 3.094-5.153 4.1-5.778 7.85s2.813 7.5 2.188 6.563z" fill-rule="evenodd" transform="matrix(1.477 0 0 1.545 -218.795 -484.06)" stroke="#000" stroke-width="1.16" fill="url(#g)"/>
  <path d="M475 622.98s1.25-5.312-2.812-5.937c-4.063-.625-6.214 2.973-5.625 1.562.654-1.567 3.125-3.125 3.437-804F75C1A2D" fill-rule="evenodd" transform="matrix(1.477 0 0 1.545 -219.777 -485.428)" stroke="#000" stroke-width="1.16" fill="url(#h)"/>
  <path d="M448.3 446.338l1.973 3.453 1.332-.83-.884-2.28.165-.448 2.318-1.446 6.067 10.608-.15.516-1.2.88.546.0A4F936AF1"/>
  <path d="M467.82 625.48c.625-.937 7.187-11.875 7.187-11.875l-3.598-2.538c-1.106 3.094-5.153 4.1-5.778 7.85s2.813 7.5 2.188 6.563z" fill-rule="evenodd" transform="matrix(-1.477 0 0 1.545 952.675 -484.06)" stroke="#000" stroke-width="1.16" fill="url(#i)"/>
  <path d="M475 622.98s1.25-5.312-2.812-5.937c-4.063-.625-6.214 2.973-5.625 1.562.654-1.567 3.125-3.125 3.437-804F75C1A2D" fill-rule="evenodd" transform="matrix(-1.477 0 0 1.545 953.61 -485.428)" stroke="#000" stroke-width="1.16" fill="url(#j)"/>
  <path d="M396.85 605.91s-75.43-21.26-74.99-102.14l.58-106.91h148.82l.584 106.3c.44 80.882-74.993 102.76-74.993 102.76z" fill-rule="evenodd" fill-opacity=".996" transform="matrix(1.477 0 0 1.545 -219.333 -481.456)" stroke="#fff" stroke-width="3.867" fill="#0072c4"/>
  <g fill-rule="evenodd">
    <path d="M272.306 168.963c.184 0 1.534-1.282 2.77-2.412 1.727-.864 3.324-2.08 5.08-2.896 1.307-.757 3.89-1.3406A75AAAEC" fill="#bcbcbc"/>
    <path d="M299.65 186.357l.328-.34c-.742.774-.47.4 1.306-.343.993-.625 2.88-1.727 3.59-2.39.854-.39 2.21-.9 2.04FE444A8D" fill="#fefefe"/>
    <path d="M281.687 167.25c-.108 0-1.083.677-1.96 1.364-1.433.768-2.965 2.075-3.916 2.73-.748.6-.744.862-1.63 106BA8F9A2C" fill="#bcbcbc"/>
    <path d="M349.36 417.73c-.494 0 .87-.492 1.326-.663.364-.767.653-1.31 1.326-1.767 1.107.085 1.65.404 2.21 1.10B3A499AB2" transform="matrix(1.477 0 0 1.545 -229.52 -480.078)" stroke="#000" stroke-width=".875" fill="#c4c4c2"/>
    <path d="M302.576 151.54v.34c0-.92-.02-.45.327 1.366.54 1.145.653 2.373.653 4.097.857-.64 1.572-1.916 1.96-3.0E21CB9A71" fill="#bcbcbc"/>
    <path d="M292.788 164.16c0 .942-.73 1.706-1.632 1.706-.9 0-1.632-.764-1.632-1.707 0-.944.73-1.708 1.632-1.708.902 0 1.632.764 1.632 1.707z"/>
  </g>
  <g stroke-opacity=".996" fill-rule="evenodd" fill-opacity=".996" stroke="#002b0d" stroke-width="1pt" fill="#005120">
    <path d="M351.79 479.6h.884c-2.77 0-1.115-.185 3.535 3.535 1.947-1.623 1.924-1.842 3.535.884.93 1.55 1.203-.10D139D9A8D" transform="matrix(1.477 0 0 1.545 -222.997 -481.43)"/>
    <path d="M437.52 487.56v.884c0-2.47.11-1.158-1.768 3.535-.38 1.14-1.212 1.407-2.652 1.767m-3.53-2.656h.884c-3.273 3.09-5.476 4.515-6.188 7.955l6.188-7.955c-3.273 3.09-5.476 4.515-6.188 7.955m-7.076-12.365c0 .08-.124 3.153-.884 4.42m-2.646 1.76v.884-.884zm-7.07-5.3h.884-.884c.294 0 .59 0 0 0zm-49.5 0c.422 0 2.16 2.806 4.42 4.42-.563 2.585-1.427 5.577 0 7.954m2.65-7.074c.422 0 2.16 2.807 4.42 4.42l-4.42-4.42c.422 0 2.16 2.807 4.42 4.42v.884c0-2.73-.227-5.59.883-7.072.983 1.663 2.224 4.337 2.652 1.768 4.978-.178 7.38-1.576 10.607-2.65 0 1.3-.21.674.884 1.766m60.104-3.536h.884c-1.667 1.39-2.946 4.222-4.42 6.187m-32.704-8.837h7.07" transform="matrix(1.477 0 0 1.545 -222.997 -481.43)"/>
  </g>
  <path d="M293.61 279.342c-15.702 0-20.906 16.41-36.61 16.41-.302 0-.588-.024-.883-.035v.993c-.06 11.375.835 2086B033A50" fill-rule="evenodd" fill="#fff"/>
  <g transform="translate(-526.915 21.78) scale(1.177)">
    <path d="M332.54 541.35c1.744-.58 10.173-3.197 10.464-2.907.29.29 16.278 15.697 16.278 15.697l-13.37 2.616-13.372-15.406z" stroke-opacity=".996" transform="matrix(1.255 0 0 1.312 259.35 -430)" stroke="#512007" stroke-width=".475" fill="none"/>
    <path d="M413.64 471.01c.29-4.65 8.72-31.103 8.72-31.103m-5.82 31.413c0-.29 6.686-31.127 6.686-31.127m-4.396 31.177c.29-1.744 5.558-31.175 5.558-31.175M413.93 467.23c1.453-.872 5.813-2.035 5.813-2.035m-3.783-2.615c1.453 0 4.36-1.163 4.36-1.163m-3.49-2.327c0-.29 4.36-1.163 4.36-1.163m-3.78-3.197l4.65-.872m-2.61-2.908c0 .29 3.197.29 3.197.29m-2.327-3.78c.58 0 3.197.58 3.197.58" stroke-opacity=".996" transform="matrix(1.063 0 0 1.03 276.8 -177.96)" stroke="#512007" stroke-width=".594" fill="none"/>
    <path d="M413.64 471.01c.29-4.65 8.72-31.103 8.72-31.103m-5.82 30.223c0-.29 6.686-29.94 6.686-29.94m-3.776 27.62c.29-1.744 4.94-27.614 4.94-27.614m-10.46 27.034c1.453-.872 5.813-2.035 5.813-2.035m-3.783-2.615c1.453 0 4.36-1.163 4.36-1.163m-3.49-2.327c0-.29 4.36-1.163 4.36-1.163m-3.78-3.197l4.65-.872m-2.61-2.908c0 .29 3.197.29 3.197.29m-2.327-3.78c.58 0 3.197.58 3.197.58" stroke-opacity=".996" transform="matrix(-1.255 0 0 1.762 1290.4 -502.06)" stroke="#512007" stroke-width=".41" fill="none"/>
    <path d="M413.64 471.01c.29-4.65 8.72-31.103 8.72-31.103m-5.82 30.223c0-.29 6.686-29.94 6.686-29.94m-3.776 27.62c.29-1.744 4.94-27.614 4.94-27.614m-10.46 27.034c1.453-.872 5.813-2.035 5.813-2.035m-3.783-2.615c1.453 0 4.36-1.163 4.36-1.163m-3.49-2.327c0-.29 4.36-1.163 4.36-1.163m-3.78-3.197l4.65-.872m-2.61-2.908c0 .29 3.197.29 3.197.29m-2.327-3.78c.58 0 3.197.58 3.197.58" stroke-opacity=".996" transform="matrix(-1.255 0 0 1.312 1321.3 -301.92)" stroke="#512007" stroke-width=".475" fill="none"/>
    <path d="M395.32 572.16c0-.29.872-72.96.872-72.96s2.616-.29 2.616 0-.29 72.67-.58 72.96-3.2.58-2.908 0zm28.490C877A7ACA" stroke-opacity=".996" fill-rule="evenodd" transform="matrix(1.255 0 0 1.312 259.35 -430)" stroke="#512007" stroke-width=".475" fill="#dd8b59"/>
    <path d="M363.06 560.24s2.907 29.94 36.335 29.068 42.73-30.23 42.73-30.23-14.244-.582-14.535-.582c-.29 0-11.6052A61CA5C" stroke-opacity=".996" fill-rule="evenodd" transform="matrix(1.255 0 0 1.312 259.35 -430)" stroke="#512007" stroke-width=".475" fill="#dd8b59"/>
    <path d="M448.52 549.78l-.58 6.104h4.068l-.29-6.104h-3.198zm-4.36.29l-.29 6.394 2.615-.29.29-6.104h-2.615zm-4.36 6.39v-4.94l2.616-.873.29 4.94-2.906.873zm-4.95-.28l.582-4.36 2.906.29.29 4.65-3.778-.58zm-5.52 0l.29-3.78 2.908-.29v4.36l-3.198-.29zm-67.44 3.77c.872 0 7.558 1.453 7.558 1.453l6.976 9.302" stroke-opacity=".996" transform="matrix(1.255 0 0 1.312 259.35 -430)" stroke="#512007" stroke-width=".475" fill="none"/>
    <path d="M366.84 561.12c.29.29 6.104 19.766 34.01 19.766s34.59-22.09 34.59-22.09" stroke-opacity=".996" transform="matrix(1.255 0 0 1.312 259.35 -430)" stroke="#512007" stroke-width=".475" fill="none"/>
    <path d="M439.8 559.37s-13.37 29.068-38.95 27.033c-25.58-2.034-29.65-11.627-31.685-16.568-2.035-4.942-3.197-9.01-3.197-9.01" stroke-opacity=".996" transform="matrix(1.255 0 0 1.312 259.35 -430)" stroke="#512007" stroke-width=".475" fill="none"/>
    <path d="M373.23 558.21c.29-1.745.29-54.357.29-54.357l-1.744-.29-.29 53.775 1.744.872zm-41.57-17.15l22.09 10.02A3341A48" stroke-opacity=".996" fill-rule="evenodd" transform="matrix(1.255 0 0 1.312 259.35 -430)" stroke="#512007" stroke-width=".475" fill="#dd8b59"/>
    <path d="M341.84 537.86c0 .872 3.198 18.603 3.198 18.603s2.035.29 2.035 0-3.49-18.312-3.49-18.312l-1.743-.29z0CFC44DA09" stroke-opacity=".996" fill-rule="evenodd" transform="matrix(1.255 0 0 1.312 259.35 -430)" stroke="#512007" stroke-width=".475" fill="#dd8b59"/>
    <path d="M365.09 514.32c.58 0 6.976 3.198 9.592 2.326s.872-2.907 1.453-2.907c.582 0 2.616 1.452 3.78.29 1.1620734CDCA30" stroke-opacity=".996" fill-rule="evenodd" transform="matrix(1.255 0 0 1.312 259.35 -430)" stroke="#512007" stroke-width=".475" fill="#fecf3e"/>
    <path d="M362.48 521.58c1.163.29 23.836-6.104 23.836-6.104s0 2.035-.29 2.035-23.546 6.105-23.546 6.105v-2.035z" stroke-opacity=".996" fill-rule="evenodd" transform="matrix(1.255 0 0 1.312 259.35 -430)" stroke="#512007" stroke-width=".475" fill="#dd8b59"/>
    <path d="M415.09 512.57s1.454 3.488 2.907 2.907 2.907-1.744 2.907-1.744 1.163 2.907 3.197 2.325c2.036-.58 3.2093E147AF2" stroke-opacity=".996" fill-rule="evenodd" transform="matrix(1.255 0 0 1.312 259.35 -430)" stroke="#512007" stroke-width=".475" fill="#fecf3e"/>
    <path d="M363.35 513.15c-.29 1.163.29 2.617.29 2.617l18.894-6.395s.872-1.454 0-1.454-19.475 5.814-19.184 5.23036936CA21" stroke-opacity=".996" fill-rule="evenodd" transform="matrix(1.255 0 0 1.312 259.35 -430)" stroke="#512007" stroke-width=".475" fill="#dd8b59"/>
    <path d="M413.34 521.88s-2.907 3.197-2.035 7.557c.872 4.36 2.035 8.14 2.326 8.14s3.49-5.814 6.977-6.105 9.8830E5164DAAD" stroke-opacity=".996" fill-rule="evenodd" transform="matrix(1.255 0 0 1.312 259.35 -430)" stroke="#512007" stroke-width=".475" fill="#fecf3e"/>
    <path d="M386.89 516.64s-.58 2.616-.29 2.616 24.707-6.395 24.707-6.395v-1.743l-24.417 5.523z" stroke-opacity=".996" fill-rule="evenodd" transform="matrix(1.255 0 0 1.312 259.35 -430)" stroke="#512007" stroke-width=".475" fill="#dd8b59"/>
    <path d="M355.5 551.82s-5.813-.872-5.523.58c.29 1.454 2.907 2.908 3.198 3.78.29.872-.872 4.07.872 3.78 1.744-0EA0962A6E" stroke-opacity=".996" fill-rule="evenodd" fill-opacity=".996" transform="matrix(1.255 0 0 1.312 259.35 -430)" stroke="#512007" stroke-width=".475" fill="#b6b6b4"/>
    <path d="M387.76 537.28v2.034l20.93-2.906-.582-1.454-20.348 2.326z" stroke-opacity=".996" fill-rule="evenodd" transform="matrix(1.255 0 0 1.312 259.35 -430)" stroke="#512007" stroke-width=".475" fill="#dd8b59"/>
    <path d="M363.06 540.77c.29 0 0 2.616 2.325 2.035 2.326-.582 2.907-2.035 2.907-2.035s.58 3.197 3.78 2.907c3.10A31FE9AA6" stroke-opacity=".996" fill-rule="evenodd" transform="matrix(1.255 0 0 1.312 259.35 -430)" stroke="#512007" stroke-width=".475" fill="#fecf3e"/>
    <path d="M411.89 538.73l.29 1.744s20.93-2.616 20.93-2.907c0-.29 0-2.034-.29-2.034-.292 0-20.64 3.488-20.93 3.07F6120AA2" stroke-opacity=".996" fill-rule="evenodd" transform="matrix(1.255 0 0 1.312 259.35 -430)" stroke="#512007" stroke-width=".475" fill="#dd8b59"/>
    <path d="M414.22 510.83s-.29 1.744 0 1.744 18.313-4.36 18.313-4.65c0-.29 1.744-2.036.29-1.745-1.453.29-18.02 5.522-18.603 4.65zm38.66 33.72l-18.03-28.49m-2.32 19.77c.29-.872 1.163-18.312 1.163-18.312" stroke-opacity=".996" transform="matrix(1.255 0 0 1.312 259.35 -430)" stroke="#512007" stroke-width=".475" fill="none"/>
    <path d="M388.93 509.96c1.163.29 3.198 3.197 4.36 2.616 1.163-.58 2.907-2.325 2.907-2.325s-.29 3.49 2.035 2.905971E6A0D" stroke-opacity=".996" fill-rule="evenodd" transform="matrix(1.255 0 0 1.312 259.35 -430)" stroke="#512007" stroke-width=".475" fill="#fecf3e"/>
    <use xlink:href="#k" transform="translate(-6.564 7.275)" height="496.063" width="992.126"/>
    <use xlink:href="#k" transform="translate(6.564 3.758)" height="496.063" width="992.126"/>
    <use xlink:href="#k" transform="translate(0 11.033)" height="496.063" width="992.126"/>
    <path id="k" d="M408.98 476.96a1.89 1.89 0 1 1-3.78 0 1.89 1.89 0 0 1 3.78 0z" stroke-opacity=".996" fill-rule="evenodd" fill-opacity=".996" transform="matrix(.04 -1.072 1.024 .043 251.6 667.92)" stroke="#512007" stroke-width=".581" fill="#be0f17"/>
    <path d="M398.23 500.07c0-.29 9.01 3.78 9.01 4.07 0 .29 31.975 42.73 32.266 42.73m-15.986-42.73l8.14 3.49 2.615 6.393M372.94 503.56c-.29 0 9.01 6.976 9.01 6.976l1.164 5.814M341.26 546c4.07-1.744 32.265-26.452 32.265-26.452M333.7 541.35c3.49-2.907 31.684-26.742 31.684-26.742m21.216 4.072l29.94 49.706m-3.53-29.156s3.532 11.71 7.02 13.455 7.557 4.65 7.557 4.65" stroke-opacity=".996" transform="matrix(1.255 0 0 1.312 259.35 -430)" stroke="#512007" stroke-width=".475" fill="none"/>
    <path d="M412.61 539.48s2.48 13.793 5.97 16.41 6.976 5.522 6.976 5.522" stroke-opacity=".996" transform="matrix(1.255 0 0 1.312 259.35 -430)" stroke="#512007" stroke-width=".475" fill="none"/>
    <path d="M390.96 439.03s3.488 19.185 10.465 23.545c6.976 4.36 12.79 8.14 12.79 8.14" stroke-opacity=".996" transform="matrix(1.255 0 0 1.312 256.26 -299.49)" stroke="#512007" stroke-width=".475" fill="none"/>
    <path d="M390.67 438.74s7.557 15.116 13.952 19.767c6.395 4.65 15.115 9.01 15.115 9.01M366.26 439.9c2.034 3.488 1.744 10.174 4.07 12.5 2.324 2.325 5.813 7.557 5.813 7.557" stroke-opacity=".996" transform="matrix(1.255 0 0 1.312 256.26 -299.49)" stroke="#512007" stroke-width=".475" fill="none"/>
    <path d="M366.84 440.19c1.163 1.744 4.406 10.428 6.395 13.08 1.454 2.326 16.278 17.15 16.278 17.15" stroke-opacity=".996" transform="matrix(1.255 0 0 1.312 256.26 -299.49)" stroke="#512007" stroke-width=".475" fill="none"/>
    <path d="M384.57 471.15a2.18 2.18 0 1 1-4.36 0 2.18 2.18 0 0 1 4.36 0zm10.75 4.65a1.89 1.89 0 1 1-3.78 0 1.8902AD72BACA" stroke-opacity=".996" fill-rule="evenodd" transform="matrix(1.255 0 0 1.312 256.26 -299.49)" stroke="#512007" stroke-width=".475"/>
    <path d="M374.1 404.44c-.872.582-15.406 4.07-13.37 3.78 2.033-.29 13.66 2.906 13.37 2.034s0-5.232 0-5.814zm24008EDF2A7F" stroke-opacity=".996" fill-rule="evenodd" fill-opacity=".996" transform="matrix(1.255 0 0 1.312 256.26 -299.49)" stroke="#512007" stroke-width=".475" fill="red"/>
    <path d="M413.64 471.01c.29-4.65 8.72-31.103 8.72-31.103m-5.82 30.223c0-.29 6.686-29.94 6.686-29.94m-3.776 27.62c.29-1.744 4.94-27.614 4.94-27.614m-10.46 27.034c1.453-.872 5.813-2.035 5.813-2.035m-3.783-2.615c1.453 0 4.36-1.163 4.36-1.163m-3.49-2.327c0-.29 4.36-1.163 4.36-1.163m-3.78-3.197l4.65-.872m-2.61-2.908c0 .29 3.197.29 3.197.29m-2.327-3.78c.58 0 3.197.58 3.197.58" stroke-opacity=".996" transform="matrix(1.255 0 0 1.312 256.26 -299.49)" stroke="#512007" stroke-width=".475" fill="none"/>
    <path d="M413.64 471.01c.29-4.65 8.72-31.103 8.72-31.103m-5.82 31.413c0-.29 6.686-31.127 6.686-31.127m-4.396 31.177c.29-1.744 5.558-31.175 5.558-31.175M413.93 467.23c1.453-.872 5.813-2.035 5.813-2.035m-3.783-2.615c1.453 0 4.36-1.163 4.36-1.163m-3.49-2.327c0-.29 4.36-1.163 4.36-1.163m-3.78-3.197l4.65-.872m-2.61-2.908c0 .29 3.197.29 3.197.29m-2.327-3.78c.58 0 3.197.58 3.197.58" stroke-opacity=".996" transform="matrix(1.255 0 0 1.363 225.31 -323.36)" stroke="#512007" stroke-width=".475" fill="none"/>
    <path d="M413.64 471.01c.29-4.65 8.72-31.103 8.72-31.103m-5.82 30.223c0-.29 6.686-29.94 6.686-29.94m-3.776 27.62c.29-1.744 4.94-27.614 4.94-27.614m-10.46 27.034c1.453-.872 5.813-2.035 5.813-2.035m-3.783-2.615c1.453 0 4.36-1.163 4.36-1.163m-3.49-2.327c0-.29 4.36-1.163 4.36-1.163m-3.78-3.197l4.65-.872m-2.61-2.908c0 .29 3.197.29 3.197.29m-2.327-3.78c.58 0 3.197.58 3.197.58" stroke-opacity=".996" transform="matrix(-1.255 0 0 1.32 1259.2 -307.28)" stroke="#512007" stroke-width=".474" fill="none"/>
    <path d="M426.42 558.5l27.614.582.29-2.035-28.486-.29.582 1.743zm1.17-7.27c3.198 0 27.324-4.65 27.324-4.65s.80388EC6AEE" stroke-opacity=".996" fill-rule="evenodd" transform="matrix(1.255 0 0 1.312 259.35 -430)" stroke="#512007" stroke-width=".475" fill="#dd8b59"/>
    <use xlink:href="#k" transform="translate(0 5.516)" height="496.063" width="992.126"/>
  </g>
</svg>
