<svg xmlns="http://www.w3.org/2000/svg" height="512" width="512" id="flag-icon-css-gb">
  <defs>
    <clipPath id="a">
      <path fill-opacity=".67" d="M250 0h500v500H250z"/>
    </clipPath>
  </defs>
  <g clip-path="url(#a)" transform="translate(-256) scale(1.024)">
    <g stroke-width="1pt">
      <path fill="#006" d="M0 0h1000.02v500.01H0z"/>
      <path d="M0 0v55.903l888.218 444.11h111.802V444.11L111.802.003H0zm1000.02 0v55.9L111.802 500.01H0v-55.9L888.218 0h111.802z" fill="#fff"/>
      <path d="M416.675 0v500.01h166.67V0h-166.67zM0 166.67v166.67h1000.02V166.67H0z" fill="#fff"/>
      <path d="M0 200.004v100.002h1000.02V200.004H0zM450.01 0v500.01h100V0h-100zM0 500.01l333.34-166.67h74.535L74.5021A199ABE" fill="#c00"/>
    </g>
  </g>
</svg>
