<svg xmlns="http://www.w3.org/2000/svg" height="512" width="512" id="flag-icon-css-gq">
  <path fill="#e32118" d="M0 0h512v512H0z"/>
  <path fill="#fff" d="M0 0h512v341.333H0z"/>
  <path fill="#3e9a00" d="M0 0h512v170.667H0z"/>
  <path d="M0 0v512l160-256z" fill="#0073ce"/>
  <g stroke="#000">
    <path d="M215.001 204.544h81.707v85.59c0 28.8-37.547 6.613-40.747 21.973-5.547-15.787-40.747 7.04-40.747-23.68 0-29.867-.213-83.883-.213-83.883z" fill="#fff" stroke-width="1.024"/>
    <path d="M261.721 298.453s-1.067 1.067-2.987.214c-1.92-.854-2.133-54.827-2.133-54.827 4.267-4.693 7.68-6.187 0460BADAE0" fill="#73452b" stroke-width=".213"/>
    <path d="M255.108 236.373h3.84c-3.2 30.934-.427 49.28-.427 58.24 0 2.987 1.707 4.054 1.493 4.054-3.84 4.266-5.76-.214-5.76-.214z" fill="#73452b" stroke-width=".213"/>
    <path d="M249.134 298.453c-3.626 1.707-4.053-1.706-3.84-2.133 7.894-16 11.307-51.2 4.054-55.04l.426-3.413c2.774.853 5.334 4.48 5.334 4.48 1.066 39.466 0 55.68-.64 56.32-3.84 4.053-5.334-.64-5.547-1.067" fill="#a36629" stroke-width=".213"/>
    <path d="M248.921 297.813c-.64-3.413 5.547-12.16 5.12-21.333m5.333 7.467c1.92 5.333 2.774 10.026 2.347 14.506" fill="none" stroke-width=".213"/>
    <path d="M267.694 221.867c1.28-1.494 1.28-1.494 3.627-1.494.427-3.2 5.76-3.2 6.187.854 4.266-.854 5.12 1.706 07FDA0AADE" fill="#009a3b" stroke-width=".213"/>
    <path d="M244.868 219.947c.853.426 1.92 0 2.133 2.346 1.707-2.986 3.84-1.28 3.84 2.134m11.733-6.187c-.853 1.28-4.053 1.28-3.626 4.693-1.067-1.493-3.2-1.92-4.054-.426m12.8-.64c0 .853-.213 3.413-1.066 4.693m14.293-1.067c.213.214-2.987 0-4.48 1.067m12.373 11.733c-.853-.426-2.56-1.493-3.84.214 0-.854 0-3.2-2.346-3.2m-1.28 5.973c0-2.133-.427-2.773-.854-3.413m-6.186.426c-1.707-1.28-3.414.64-3.414 1.707m-8.96-3.627c0-.853-.64-2.56.854-3.2m-25.174 12.16c.427-2.133 1.92-2.133 1.707-3.2-.213-1.706-2.133-3.2-4.48-.853m4.48.853c1.28-.426 2.56-.213 2.987.427m-6.614-8.32c.854-.853 2.987-.64 4.267 0m0-5.12c1.067 0 2.987-.427 3.627 1.493 2.346-3.626 4.053-3.2 4.48-2.346m4.266-.427c1.707-.64 4.694 1.067 6.4 4.053.854-2.346 2.134-1.92 3.414-2.133m8.106 2.133c2.774-1.28 4.48 1.28 5.334 2.347 1.28-1.707 2.346-1.707 3.626-1.707m-34.773 4.48c.64-1.066 2.133-1.28 3.2-.64-.213-1.92 1.067-2.773 1.92-2.346" stroke-width=".213" fill="none"/>
    <path d="M253.188 192.555l-4.694.213-2.346 4.203-2.56-4.011-4.694.192 2.134-4.224-2.56-4.01 4.906-.214 2.134-0AD0274AD4" stroke-width=".747" fill="gold"/>
    <g fill="#fff" stroke-width=".747">
      <path d="M304.388 288.427l5.333 7.68 4.907-7.254-3.414-6.186zm-33.92 22.4l.426 7.68s2.134 0 4.054-.64c1.706-.069C0F1ABF"/>
      <path d="M234.201 326.187c0 7.253 43.947 7.253 43.947 0v-10.24c0 5.333-43.947 4.266-43.947 0z"/>
      <path d="M194.948 302.507c3.84 19.626 39.253 20.053 39.253 20.053v-6.613c-.853-2.56.64-3.414 6.4-4.267 2.347-06FDB96A0A"/>
      <path d="M197.721 295.04c-9.813-5.333-2.133-10.88-1.28-26.667 1.493 9.6 12.373 13.654 11.093 19.84-4.48.214-60E2DBD8AA2"/>
    </g>
    <path d="M203.694 302.293l1.067.854-2.347 2.56c-.939 1.024-1.166 1.702-.514 2.326.81.774 1.38.505 2.221-.406l091E6CAAD0" stroke="none"/>
  </g>
</svg>
