<svg xmlns="http://www.w3.org/2000/svg" xmlns:xlink="http://www.w3.org/1999/xlink" height="512" width="512" id="flag-icon-css-ht">
  <path fill="#d21034" d="M0 0h512v512H0z"/>
  <path fill="#00209f" d="M0 0h512v256H0z"/>
  <g fill="#f1b517" stroke="#000" stroke-width=".183">
    <path fill="#fff" d="M175.24 191.63h161.52v128.583H175.24z" stroke="none"/>
    <path d="M288.507 284.614l-32.963.957-32.814.374s-16.86 6.235-23.75 7.634c-6.872 1.396-5.978 3.653-11.295 4.8006C227AB5" fill="#016a16" stroke="#016a16" stroke-width=".312"/>
    <g transform="translate(-170.667) scale(1.70667)">
      <g id="a">
        <path d="M244.53 143.512l1.396-.033 2.555 10.748-.544 3.386-3.407-14.102z"/>
        <path d="M243.064 136.346l.954 8.284 1.022-.066-1.976-8.218z" fill="#fff"/>
        <path d="M245.722 154.59l-4.293-11.54 1.6-.098 5.01 14.102-2.318-2.465z"/>
        <path d="M239.42 136.477l1.77 8.02h1.432l-3.203-8.02z" fill="#fff"/>
        <path d="M241.906 150.546l-2.52-5.424 1.09-.23 4.6 9.007-3.17-3.354z"/>
        <path d="M236.08 138.778l2.794 7.626h1.43l-4.224-7.626z" fill="#fff"/>
        <path d="M242.25 151.364l-11.437-12.484c-3.57 2.828-2.908 8.02-2.908 8.02l12.957 10.167 1.387-5.703z" fill="#0a328c"/>
        <path d="M248.86 158.235l-8.482-8.594c-3.587.126-.74 5.48-.56 6.153l9.043 7.734v-5.292z" fill="#d20014"/>
        <path d="M248.14 156.757l-17.54-18.78-.685.483 18.56 20.622-.336-2.325zm-18.554-19.985l-.385-.446.04-.89-3.62-2.304 1.617 3.64 1.232.223.384.446.732-.668z"/>
        <path d="M227.738 138.11c.616-.743 1.348-1.486 2.657-2.192l1 1.45-2.155 1.82-1.502-1.078z"/>
        <path d="M225.81 141.278l.59 1.026c.363-.135 4.03-3.457 4.03-3.457l2.632-.08.756-.838c-1.932-2.08-3.752.296-3.752.296l-4.255 3.052z" fill="#0a328c" stroke="#0a328c"/>
        <path d="M227.91 143.007c.14-.918 1.877-3.214 2.13-3.295 1.302.39 2.514 1.14 3.834-1.837-1.148 1.46-3.47-.0270B8CAF8A00" fill="#d20014" stroke="#d20014"/>
        <path d="M237.252 154.672l-14.367-11.41c-2.46 2.502-.415 10.23-.415 10.23l14.043 7.608.74-6.428z" fill="#0a328c"/>
        <path d="M249.166 163.917l-11.818-9.467c-4.036.566-.864 6.506-.623 7.16l12.48 6.77-.04-4.463z" fill="#d20014"/>
        <path d="M248.697 162.005l-25.554-19.182-.587.59 26.837 20.956-.696-2.365zm-26.769-20.198l-.46-.374-.122-.885-3.98-1.662 2.25 3.314 1.253.014.458.374.6-.78z"/>
        <path d="M220.35 143.433c.472-.835 1.06-1.69 2.22-2.603l1.247 1.26-1.795 2.152-1.673-.81z"/>
        <path d="M218.925 146.64l.16 1.06c.337-.187 3.56-3.725 3.56-3.725l2.586-.477.528-.833c-1.797-2.114-3.713.698-3.713.698l-3.12 3.278z" fill="#0a328c" stroke="#0a328c"/>
        <path d="M220.97 148.545c-.122-.982 1.22-3.863 1.456-3.98 1.547.46 2.894 1.152 3.462-2.07-.897 1.614-3.46.363-3.46.363l-.86.98.12.53-2.61 3.37 1.893.807z" fill="#d20014" stroke="#d20014"/>
        <g>
          <path d="M236.224 161.65c-.19-.045-18.517-10.44-18.517-10.44-1.334 2.25-.128 5.52.457 6.028.034 1.5-.602 2.300FC677FAB5" fill="#0a328c"/>
          <path d="M248.352 168.512l-12.548-7.355c-4.036.567.085 8.056.326 8.71l12.116 4.304.106-5.658z" fill="#d20014"/>
          <path d="M246.243 165.846l-28.35-15.09-.484.673 29.904 16.646-1.07-2.23zm-29.715-15.909l-.514-.3-.265-.856-4.2-1.04 2.757 2.935 1.24-.177.515.3.466-.86z"/>
          <path d="M215.232 151.782c.332-.896.773-1.828 1.772-2.907l1.436 1.056-1.425 2.4-1.783-.548z"/>
          <path d="M214.1 155.18l.593 1.168c.307-.232 3.004-4.578 3.004-4.578l2.492-.82.468-1.014c-2.002-1.85-3.498 1.342-3.498 1.342l-3.06 3.903z" fill="#0a328c" stroke="#0a328c"/>
          <path d="M216.772 156.836c-.2-1 .484-4.197.7-4.345 1.56.466 2.863.598 3.223-2.62-.907 1.528-3.328.952-3.328.952l-.71 1.085.15.38-2.06 3.95 2.025.6z" fill="#d20014" stroke="#d20014"/>
        </g>
      </g>
      <use height="100%" width="100%" xlink:href="#a" transform="matrix(-1 0 0 1 499.86 0)"/>
    </g>
    <g transform="translate(-170.667) scale(1.70667)">
      <path d="M248.757 125.603l-.465 9.07h2.9l-.425-8.992 3.023-.423-.335-3.582-7.51.29.04 3.253 2.772.385z" fill="#016a16" stroke="#016a16"/>
      <g id="b" fill="#016a16">
        <path d="M249.817 121.898c-7.764-7.77-13.878-3.98-15.334-2.902.963.187 1.826-.412 2.273-.48-.28.353-.865 1.23-.865 1.23s2.4-1.135 2.67-1.03c-.347.275-.728.935-.728.935.178.07 1.528-1.056 1.795-1.076-.41.466-.54 1.528-.54 1.528l1.17-.545c.305.216-.084.63.18.61 1.945-.16 4.678 1.776 5.054 2.37"/>
        <path d="M247.895 123.32c-.81-1.853-15.588-5.004-18.56.245 1.164.293 2.276-.976 2.276-.976l-.1 1.17 1.972-1.512-.708 1.56 1.568-1.268-.05 1.27 1.92-2.1-.252 1.22 1.72-.73-.203 1.023"/>
        <path d="M247.238 123.614c-3.793-2.537-9.66-.83-9.66-.83-3.74 2.1-5.736 1.72-6.22 5.61.355-.145 1.366-1.365 1.366-1.365l.76 1.512.25-2.147.608 1.66.91-2.733.203 1.854 1.416-1.854.658.536.607-1.415.556.927s.962-.585 1.52-.244l1.06-1.22.253.88.91-1.074.355.78.91-.83-.05.586 3.135.05"/>
        <path d="M246.38 124.053c-2.643-.05-10.226 2.812-12.188 5.806a13.29 13.29 0 0 1 1.263-.636l.387 1.203.473-1.203.1.927c.29-.723.618-.805 1.164-.048l.2-1.122.305 1.073.505-1.17s.318 1.27.506 1.22c0 0 .838-2.195 1.214-2.294l.1 1.365.506-1.366.456 1.024.1-1.464.506 1.122s.266-1.103.658-1.317l.758.683 3.378-2.427"/>
        <path d="M246.888 124.678c-3.52 1.35-6.67 6.18-6.43 8.226 1.565-1.94 1.23-1.674 1.928.56 0 0 .264-1.955.53-2.187l.46 1.446.17-1.892.47.023-.12-1.187.698.535c-.163-.677-.338-.906.386-1.488 0 0-.917.117-.193-1.535l.675.65s-.12-.72.12-1l2.485-.86"/>
        <path d="M247.23 125.04l-1.33 2.534.68.197-1.534 1.153 1.296-.132s-1.978.725-2.217 2.666l2.013-.888s-1.706 1.744-1.945 2.797l1.16-1.02s-1.125 1.217-.955 3.06l.853-.954c-.204 2.238-.136 2.436.888 4.147 0 0-.273-2.633.034-2.962l2.25 2.337-1.26-3.324s1.397 2.106 2.25 1.91l-1.774-2.7 1.74 1.415-1.978-2.96 1.84.558s-1.33-1.677-1.227-2.73l1.262 1.382s-.477-1.58-.34-2.04l.647.132-1.262-1.448.853-.165-.102-.953.615-.197-.034-1.053m-1.093-.005c-2.184 2.96-1.058 7.535-2.354 9.87"/>
      </g>
      <use height="100%" width="100%" xlink:href="#b" transform="matrix(-1 0 0 1 499.86 0)"/>
      <path d="M250.945 166.535s1.19-9.945 1.186-14.225c0-3.37-.813-10.835-.813-10.835H247.9s-.52 7.43-.442 10.79c.1 4.28 1.186 14.27 1.186 14.27h2.3z"/>
      <path d="M247.674 141.953h3.96l-.465-2.666h-2.87l-.626 2.666z"/>
      <path d="M247.927 139.816h3.54l-.668-2.666h-2.18l-.693 2.666z"/>
      <path d="M248.155 137.655h2.95l-.5-2.666h-1.876l-.575 2.665z"/>
      <path d="M250.71 134.673h-2.064l-.21.964h2.442l-.17-.964zm.422 29.694h-2.62m2.763-1.947h-2.94m3.329-1.976h-3.727m3.919-2.154h-3.9m3.927-2.15h-4.102m4.262-1.97h-4.45m4.46-1.79h-4.65m4.622-2.16h-4.65m4.495-2.136h-4.495m4.289-2.17H247.6m3.867-1.959h-3.672"/>
      <path d="M249.91 119.044c-.69-.324-2.246-1.313-1.784-1.903l.713-1.213c1.01-2.277-.02-1.395-.127-2.106-.103-.60FAE9F1AB6" fill="#0a328c" stroke="#0a328c"/>
      <path d="M250.392 124.934l-.986-.83.273-7.105.964.282-.252 7.652z"/>
      <path d="M251.672 119.246c.62-.362 1.024-1.443.65-2.085-1.016-1.286-1.673-.755-3.378-1.335-.34.362-1.055 1.060F8C7B7A22" fill="#d20014" stroke="#d20014"/>
    </g>
    <g transform="translate(-170.667) scale(1.70667)">
      <use height="100%" width="100%" xlink:href="#c" transform="matrix(1 0 0 -1 -.002 320.37)"/>
      <path d="M238.358 161.75c0 1.3-.815 2.353-1.818 2.353-1.004 0-1.82-1.054-1.82-2.353v-1.276h3.638v1.276z" fill="#016a16" stroke="#fff" stroke-width=".181" stroke-linecap="round"/>
      <ellipse cx="236.539" cy="160.063" rx="1.806" ry=".898" fill="#fff" stroke="none"/>
      <path d="M236.126 161.075l-.31-3.297h1.382l-.226 3.297h-.846z" fill="#016a16" stroke="#f1b517"/>
      <path id="c" d="M238.538 160.118c-.265.493-1.06.852-2 .852-.937 0-1.727-.36-1.992-.852a.756.756 0 0 0-.1.36c0 .668.90E50EA2A92" fill="#016a16" stroke="#fff" stroke-width=".237" stroke-linecap="round"/>
      <g id="d">
        <path d="M246.035 172.786l-7.06-2.19-3.076-5.254-10.894-.535.378 3.94 9.28 1.777.882 1.58 10.666 2.97-.177-2.288z"/>
        <path d="M238.662 174.254l-11.149-16.398-.547.41 11.06 16.468.636-.48z" fill="#503200"/>
        <path d="M228.55 158.5l-1.19-1.992c-.222-.368-.56-.49-1.058-.228-.484.255-.437.76-.24 1.123l1.1 1.852 1.39-.755z" fill="#fff"/>
        <path d="M239.986 164.127l-22.496-2.286-.547 3.272 22.387 2.25.656-3.235z"/>
        <path d="M217.09 160.997l-.584 4.538h.948l.656-4.15-1.02-.388zm3.754.738l-.255 4.08.582.07.474-3.622-.802-.520B6AE55AAE"/>
        <ellipse cx="227.693" cy="168.548" rx="1.27" ry="1.225"/>
        <path d="M234.438 168.548c0 3.592-3.022 6.507-6.745 6.507-3.723 0-6.745-2.915-6.745-6.507 0-3.592 3.022-6.5070D11163A17" fill-rule="evenodd" stroke-linecap="round"/>
        <path d="M223.48 165.264l-1.057-.796m8.611.025l.902-.92m1.031 9.127l-1.11-.87m-8.377 1.866l.954-1.02m21.762-10.554l1.155 5.886-.94.497-1.015-6.3.8-.083z"/>
        <path d="M245.592 161.364c-.535-.224-1.232.155-2.374-1.292-1.878 1.723-.107 1.98.18 3.686.53.218.857-1.323 2.0712221AC0" fill="#fff"/>
        <path d="M246.36 162.518l-.215-1.756c-.232-.62-1-.087-1 .275l.197 1.62 1.017-.14z" fill="#fff"/>
        <path d="M240.765 167.372l.02 1.637c-.537.182-.455.584-.438 1.167l.02 4.772c-.19.315-.78.33-1.055.578-.277.240704EC0AA9" fill-rule="evenodd"/>
        <path d="M234.275 172.328c-.636-.257-.63 1.172-.63 1.172l1.002.01c.44.2.792.843.512 1.16-.232.26-2.178-.442-2.31-.038.345 1.94 2.918 2.688 3.85 1.84.91-.832 1.14-3.05-1.818-3.63l-.607-.514zm.595.528l-.292.64" fill="#fff"/>
        <path d="M214.943 173.055l-.963-4.05m2.132 3.817l-1.48-3.153m4.026 2.324l-3.337-1.792m4.782 1.427l-6.192-2.688"/>
        <path d="M210.215 166.013s-2.254-.036-2.656.122c-.163.064.566.825.415 1.115-.563 1.083-4.394.934-4.697.698-.509D076EAB7" fill="#d20014" stroke="#d20014"/>
        <path d="M213.233 168.05l-5.102-4.222s-.224-.238-.412-.033c-.184.2.07.43.07.43l5.262 4.35.183-.525z" fill="#503200"/>
        <path d="M218.146 172.217c-.09-.087-4.155-3.608-4.155-3.608l-.27-1.03s-.628.426-.858.646c-.23.22-.587.82-.587.82l1.138.05 3.595 3.295 1.138-.173z"/>
        <ellipse cx="232.534" cy="177.056" rx=".74" ry=".715"/>
        <ellipse cx="230.641" cy="175.716" rx=".74" ry=".715"/>
        <ellipse cx="228.091" cy="176.593" rx=".74" ry=".715"/>
        <ellipse cx="224.153" cy="177.445" rx=".74" ry=".715"/>
        <ellipse cx="222.487" cy="177.64" rx=".74" ry=".715"/>
        <ellipse cx="220.846" cy="177.64" rx=".74" ry=".715"/>
        <ellipse cx="219.18" cy="177.591" rx=".74" ry=".715"/>
        <ellipse cx="219.988" cy="176.325" rx=".74" ry=".715"/>
        <ellipse cx="221.604" cy="176.398" rx=".74" ry=".715"/>
        <ellipse cx="223.144" cy="176.203" rx=".74" ry=".715"/>
        <ellipse cx="222.361" cy="174.961" rx=".74" ry=".715"/>
        <ellipse cx="220.846" cy="174.937" rx=".74" ry=".715"/>
        <path d="M236.47 177.99c0-.315-.77-.18-.77-.55 0-.41 1.174-.11 1.336.253.66-.596.944-.16 1.348.02.575-.855 1.0BAC501A37" fill-rule="evenodd"/>
      </g>
      <use height="100%" width="100%" xlink:href="#d" transform="matrix(-1 0 0 1 499.86 0)"/>
      <g stroke-width=".231">
        <path d="M249.837 165.718c-2.512 0-4.55.944-4.55 2.102 0 .2.057.39.17.572.542.63 2.306 1.087 4.397 1.087 1.95086320BAF4" fill="#0a328c" stroke="#0a328c"/>
        <path d="M254.427 167.98v7.06c0 .827-2.048 1.498-4.572 1.498s-4.573-.67-4.573-1.5v-7.057c0 .83 2.05 1.5 4.573 1.5 2.524 0 4.572-.67 4.572-1.5z" stroke-width=".187"/>
        <path d="M245.282 167.982v1.082l2.22 6.845 1.772-5.265 1.946 5.465 1.425-5.16 1.783 3.47v-1.92l-1.656-3.363a808C98ADA4A" fill="#d20014" stroke="#d20014" stroke-width=".183"/>
        <path d="M254.427 173.72v1.32c0 .826-2.048 1.498-4.572 1.498s-4.573-.672-4.573-1.5v-1.317c0 .83 2.05 1.5 4.573 1.5 2.524 0 4.572-.67 4.572-1.5z" fill="#0a328c" stroke="#0a328c" stroke-width=".187"/>
        <path d="M251.737 175.085c-.372.055-.77.097-1.185.118l.01 1.317c.418-.02.815-.062 1.187-.118l-.013-1.317zm-4.07D73C8A84" stroke-width=".187"/>
        <path d="M254.427 168.027v7.012c0 .827-2.048 1.498-4.572 1.498s-4.573-.67-4.573-1.5v-7.01" fill="none" stroke-width=".187"/>
        <path d="M253.392 167.52c0 .5-1.584.907-3.537.907-1.954 0-3.538-.406-3.538-.907 0-.5 1.584-.907 3.538-.907 1.953 0 3.537.406 3.537.907z" fill="#fff" stroke="#fff" stroke-width=".192"/>
        <path d="M248.698 168.19l.157 1.25c.307.022.626.038.953.04l.232-1.29h-1.342zm4.102-.303l-.91.247.057 1.177c.301ED172AC2"/>
        <path d="M245.993 168.8l.184-1.288-.935-.506.028 1.465.723.33zm8.403-.278l.042-1.288-.876.262.834 1.026z" stroke-width=".183"/>
      </g>
      <path d="M263.686 160.03c.83-.116 2.062 1.023 2.136 2.432.06 1.118-1.69 1.06-1.69 1.06-.09.458-1.055.88-1.84.055B9C5A84"/>
      <path d="M262.5 162.948l.8-.03s.06.415.208.43c.157.018.326-.4.326-.4l1.217-.03"/>
      <path d="M264.13 160.86c.68-.492.085-1.48-.385-1.49l-1.098.03c-.517.01-1.392.572-1.276 1.058.103.424.388.618.0F3906EA5E" fill="#d20014" stroke="#f1b517"/>
      <path d="M214.242 174.855c-.617.078-.73.788-.5 1.44-2.686.756-5.086 1.74-7.455 2.406-.095-.473 1.174-1.844 1.06B7491A4F" fill-rule="evenodd"/>
      <path d="M293.068 177.884c.183-.367-.162-2.212-.162-2.212-.373.042-.882.68-.882.68.48-1.51-.865-4.036-.865-4.04C0834A57"/>
      <path d="M285.635 176.54l.91-1.672c.326-.44-.346-.92-.823-.356l-1.02 1.527c-.454.836.5 1.066.933.5z"/>
    </g>
    <g fill="#fff" stroke-width=".312">
      <path d="M224.2 307.825l-.108-3.114-3.766.208-.215 3.392 4.09-.485z"/>
      <path d="M196.672 312.19l-5.037-2.824c20.768 1.903 25.01-5.34 30.028-5.728 3.085-.24 3.567 3.417-2.41 1.677l10B01ECFAA2"/>
      <path d="M315.63 311.428l4.74-2.586c-23.79.71-18.374-3.907-30.276-5.202-3.076-.333-5.388 3.62 2.41 1.677l-1.50E831C3A35"/>
      <path d="M219.167 305.337v5.383s13.19 4.894 36.726 4.894c23.637 0 36.725-4.894 36.725-4.894v-5.383s-9.982 4.6-36.725 4.6c-26.642 0-36.726-4.6-36.726-4.6z"/>
    </g>
    <path d="M221.138 310.75l1.164-3.94.54.148-1.026 3.476 2.012.553-.137.465-2.552-.7zm3.817-1.733l.065-.774.1740736FA3A99" fill="#000" stroke="none"/>
  </g>
</svg>
