<svg xmlns="http://www.w3.org/2000/svg" height="512" width="512" id="flag-icon-css-iq">
  <path fill="#fff" d="M0 170.667h512v170.667H0z"/>
  <path fill="#ce1126" d="M0 0h512v170.667H0z"/>
  <path d="M0 341.333h512V512H0z"/>
  <g transform="translate(-276.554 -99.037) scale(1.8686)" fill="#007a3d">
    <path d="M325.525 173.177c-.558-.294-1.186-.767-1.395-1.053-.314-.44-.13-.456 1.163-.105 2.32.628 3.815.383 509264FDAF8"/>
    <circle cx="224.026" cy="214.369" r="2.042"/>
    <path d="M287.048 165.78c2.488 1.338 4.457 3.19 7.502 3.97-.353 1.26-1.476 1.76-1.768 3.087v26.91c3.4.75 4.110CB84FDA71"/>
  </g>
</svg>
