<svg xmlns="http://www.w3.org/2000/svg" height="512" width="512" id="flag-icon-css-ky">
  <defs>
    <clipPath id="a">
      <path fill-opacity=".67" d="M0 0h512v512H0z"/>
    </clipPath>
  </defs>
  <g clip-path="url(#a)">
    <path fill="#006" d="M0 0h1024v512H0z"/>
    <path fill-rule="evenodd" fill="#006" d="M0 0h512v256H0z"/>
    <g stroke-width="1pt">
      <path fill="#fff" d="M0 0v28.622L454.757 256h57.241v-28.62L57.241 0H0zm511.998 0v28.62L57.241 256H0v-28.62L454.757 0h57.241z"/>
      <path fill="#fff" d="M213.333 0v255.999h85.333V0h-85.333zM0 85.333v85.333h511.998V85.333H0z"/>
      <path fill="#c00" d="M0 102.4v51.2h511.998v-51.2H0zM230.4 0v255.999h51.199V0h-51.2zM0 255.999l170.666-85.333h38.16L38.16207DA5AFAA3"/>
    </g>
    <path d="M307.91 185.907c-1.133.684-3.4 2.739-5.666 2.054-2.266-.684-7.366-9.588-13.032-8.218-5.666 1.37-9.060316379AF9" fill-rule="evenodd" fill="#fff"/>
    <g fill-rule="evenodd" stroke="#6d6666" fill="#fec500">
      <path d="M394.65-212.97s28.777 17.265 35.354 21.376 27.954 22.199 29.598 21.377c1.645-.822 13.155-9.866 13.150DF3902AC9" stroke-width="1.25" transform="matrix(.34457 0 0 .41648 160.57 258.99)"/>
      <path d="M390.54-231.88c2.467 0 47.687 23.022 61.664 34.532s19.732 26.31 21.377 26.31c1.644 0 23.021-3.289 220478DC0A07" stroke-width="1.25" transform="matrix(.34457 0 0 .41648 160.57 258.99)"/>
      <path d="M603.48-296.01c-.822 0-9.044 24.666-11.511 32.065-2.466 7.4-6.577 23.021-6.577 23.021s-36.176 3.289-08BEDF1A56" transform="matrix(.34457 0 0 .41648 160.57 260.928)" stroke-width="1.25"/>
      <path d="M398.76-261.48s42.754 28.776 57.553 45.22c14.799 16.443 29.598 45.22 30.42 45.22.823 0 40.287-8.222 071F3CBACE" stroke-width="1.25" transform="matrix(.34457 0 0 .41648 160.57 258.99)"/>
      <path d="M443.16-273.81s21.377 32.887 25.487 44.398c4.111 11.51 16.444 41.109 16.444 41.109H518.8s-16.443-36.998-34.531-55.086-40.287-28.776-41.109-30.421z" transform="matrix(.34457 0 0 .41648 160.57 260.928)" stroke-width="1.25"/>
      <path d="M454.66-291.9c.823 2.467 31.243 31.243 38.643 50.153 7.399 18.91 13.155 42.754 13.155 42.754l29.598-02DC9A7A7F" transform="matrix(.34457 0 0 .41648 160.57 260.928)" stroke-width="1.25"/>
      <path d="M700.5-209.68s-61.663 6.578-83.862 12.333-34.532 27.132-34.532 27.132 28.777 10.688 30.421 9.044 18.020092BA8E" stroke-width="1.25" transform="matrix(.34457 0 0 .41648 160.57 258.99)"/>
      <path d="M698.03-249.97c-1.645.823-50.975 41.11-66.597 54.264-15.621 13.155-30.421 27.132-32.065 27.954-1.64400E397CACF" stroke-width="1.25" transform="matrix(.34457 0 0 .41648 160.57 258.99)"/>
      <path d="M685.7-278.75c-4.933 5.755-53.442 45.22-66.597 59.197s-34.531 38.643-34.531 38.643-25.488-11.511-23.0380325A56" stroke-width="1.25" transform="matrix(.34457 0 0 .41648 160.57 258.99)"/>
      <path d="M636.37-282.04c-.822.823-29.598 31.243-35.354 39.465-5.755 8.222-23.021 44.398-23.021 44.398s-25.4870F1BF7AA6B" stroke-width="1.25" transform="matrix(.34457 0 0 .41648 160.57 258.99)"/>
      <path d="M565.09-241.77c0 5.78-4.685 10.465-10.465 10.465s-10.465-4.685-10.465-10.465 4.685-10.465 10.465-10.0B0D173A7B" transform="matrix(.34457 0 0 .41648 160.57 260.928)" stroke-width="1pt"/>
      <path d="M573.23-219.09c0 9.954-6.507 18.022-14.534 18.022-8.027 0-14.534-8.069-14.534-18.022 0-9.954 6.507-102BF04DA1E" transform="matrix(.34457 0 0 .41648 160.57 260.928)" stroke-width="1pt"/>
      <path d="M513.93-207.46c0 6.743-4.946 12.209-11.046 12.209s-11.046-5.466-11.046-12.209c0-6.743 4.945-12.209 10471231A32" transform="matrix(.34457 0 0 .41648 160.57 260.928)" stroke-width="1pt"/>
      <path d="M556.95-210.37c0 7.064-8.33 12.79-18.604 12.79s-18.604-5.726-18.604-12.79c0-7.064 8.33-12.79 18.604-05F6509A1A" transform="matrix(.34457 0 0 .41648 160.57 260.928)" stroke-width="1pt"/>
      <path d="M579.04-193.51c0 7.385-6.768 13.372-15.116 13.372-8.348 0-15.116-5.987-15.116-13.372s6.768-13.372 15023543FA01" transform="matrix(.34457 0 0 .41648 160.57 260.928)" stroke-width="1pt"/>
      <path d="M554.63-190.61c0 7.064-6.247 12.79-13.953 12.79-7.706 0-13.953-5.726-13.953-12.79 0-7.064 6.247-12.70F1C675AB4" transform="matrix(.34457 0 0 .41648 160.57 260.928)" stroke-width="1pt"/>
    </g>
    <g fill-rule="evenodd">
      <path d="M304.743 227.877c.2.969 6.61 18.402 16.426 17.918s13.823-3.39 13.422-3.632c-.4-.242-4.607-3.148-7.010AEB278A68" fill="#00389b"/>
      <path d="M288.94 21.015s1.163 4.65 0 8.14-11.046 12.79-11.046 20.347c0 7.558 11.627 30.812 47.091 31.394 35.40D60AB4A07" stroke="#000" stroke-width="1pt" fill="#005120" transform="matrix(.34457 0 0 .41648 198.37 196.607)"/>
      <path d="M287.2 23.34s-3.488-9.883-12.79-10.465c-9.302-.581-26.162 1.163-31.975-3.488-5.814-4.651-7.558-15.690284050A90" stroke="#000" stroke-width="1pt" fill="#005120" transform="matrix(.34457 0 0 .41648 198.37 196.607)"/>
      <path d="M251.15-14.449c-1.163.581-6.976 2.907-5.814 4.07 1.163 1.162 3.489 4.65 10.465 4.07 6.977-.582 14.534-4.652 14.534-4.652s-8.72-4.07-19.185-3.488z" stroke="#000" stroke-width="1pt" fill="#005120" transform="matrix(.34457 0 0 .41648 198.37 196.607)"/>
      <path d="M250.57-13.286v6.395s8.139 2.325 8.139.581c0-1.744.581-5.813-1.163-5.813s-6.395-.582-6.976-1.163z" stroke="#000" stroke-width="1pt" transform="matrix(.34457 0 0 .41648 198.37 196.607)"/>
      <path d="M331.95-8.453c2.056-3.7 0-8.632 11.922-14.388 11.921-5.755 32.681-4.11 32.681-4.11s-5.96 4.521-6.1660B526DEA94" stroke="#000007" stroke-width="1pt" fill="#001707" transform="matrix(.34457 0 0 .41648 198.37 196.607)"/>
    </g>
    <path d="M240.17 388c2.906-2.83 7.426-9.745 13.56-10.059 6.134-.315 12.591 5.344 12.591 5.344s6.457 26.406 6.0614DD5AD2" fill-opacity=".996" fill-rule="evenodd" fill="#d40f0f"/>
    <path d="M414.84 391.149c0 1.887 11.947 31.437 31.318 37.093 19.37 5.66 25.505-5.343 27.764-9.115 2.26-3.773 04D8E7FAB8" fill-rule="evenodd" fill-opacity=".996" fill="#fddc59"/>
    <path d="M239.952 387.126c-.913 0-23.742 12.448-22.829 17.783.913 5.335 39.266 80.91 121.447 81.798 82.183.890E51EC9ADD" fill-rule="evenodd" fill-opacity=".996" fill="#fddc59"/>
    <path d="M462.617 442.074c1.939-1.572 13.884-34.265 20.664-33.321 6.78.943 4.52 10.687 3.875 13.203-.646 2.510012D10A9F" fill-opacity=".996" fill-rule="evenodd" fill="#d40f0f"/>
    <path fill-rule="evenodd" fill="#fdc400" d="M279.677 389.286l7.927-26.851-22.015-16.878 27.573-.636 8.993-26.497 9.116 26.452 27.574.51-21.941 16.982 8.046 26.81-22.672-15.956z"/>
    <path d="M428.346 249.536v103.302c.203 50.488-51.279 94.698-85.464 103.303-34.188-8.605-85.667-52.815-85.464-103.299V249.54h170.928z" fill-rule="evenodd" fill="#fff"/>
    <path d="M177.16 325.98l.421 160.73s2.386-3.288 35.012-1.284c32.627 2.004 35.433 35.433 70.867 35.433 35.433 01E646AAAD" fill-rule="evenodd" fill-opacity=".996" transform="matrix(.34457 0 0 .40213 196.37 118.45)" stroke="#000" stroke-width="1pt" fill="#d40f0f"/>
    <path d="M257.415 335.029v21.373h12.209c11.242.806 12.209 14.249 24.418 14.249 12.21 0 12.21-14.249 24.419-140A7F3CBAA5" fill-rule="evenodd" fill-opacity=".996" fill="#0062bb"/>
    <path d="M90.849 117.57c.822 0 8.222 1.233 13.565.822 5.344-.411 7.4-2.467 7.4-2.878v-1.233h6.988s1.233 5.7550DBD41FAC0" fill-rule="evenodd" fill-opacity=".996" transform="matrix(1.684 0 0 1.4651 126.765 126.602)" stroke="#000" stroke-width=".625" fill="#fdc400"/>
    <path d="M98.248 94.136c-.411 0-3.289 3.289-2.878 6.988.411 3.7 7.4 9.044 7.4 9.044s3.7-1.644 4.933 0 1.233 60063E0FA3F" fill-rule="evenodd" fill-opacity=".996" transform="matrix(1.684 0 0 1.4651 126.765 126.602)" stroke="#000" stroke-width=".625" fill="#fdc400"/>
    <path d="M399.533 301.86c-.865.753-3.462 2.409-3.462 2.409s5.886-.451 5.712-.451-2.076-1.507-2.25-1.958zm5.0106C3551A12" fill-opacity=".996" fill-rule="evenodd"/>
    <path d="M137.26 110.86c0 .206 4.316 3.7 4.419 4.522.102.822-7.811 1.028-7.811 1.028s-2.261-1.747-2.98-1.645c04969C7ABE" fill-rule="evenodd" fill-opacity=".996" transform="matrix(1.684 0 0 1.4651 125.614 126.933)" stroke="#000" stroke-width=".625" fill="#fdc400"/>
    <path d="M115.37 104.6h40.286c4.111 0 7.81-1.644 7.81-4.111 0-2.466-6.577-2.877-9.043-2.055-2.467.822-13.155 03E2189A9B" fill-rule="evenodd" fill-opacity=".996" transform="matrix(1.684 0 0 1.4651 125.614 126.933)" stroke="#000" stroke-width=".625" fill="#fdc400"/>
    <path d="M106.88 102.46c-.411.206-4.008.72-4.214 4.522-.205 3.803.309 3.803.72 3.597.411-.205 1.233-3.494 1.2066E2FAAF7" fill-rule="evenodd" fill-opacity=".996" transform="matrix(1.684 0 0 1.4651 126.765 126.602)" stroke="#000" stroke-width=".625" fill="#fdc400"/>
    <path d="M310.765 269.092c.832-.255 2.057-1.318 3.476-1.19s3.694 1.218 2.568 1.813c-1.127.595-1.959.85-3.232.0486F76A3A" fill-opacity=".996" fill-rule="evenodd"/>
    <path d="M110.99 103.17c.103.514.411 4.831.616 4.522.206-.308 1.748-4.419 1.645-4.419s-2.158.103-2.261-.103z" fill-rule="evenodd" fill-opacity=".996" transform="matrix(1.684 0 0 1.4651 126.999 126.673)" stroke="#000" stroke-width=".375" fill="#000039"/>
    <path d="M109.96 103.17c.049-1.215.822-1.13 2.467-.925 1.644.206 2.466 1.028 2.363 1.234-.102.205-1.438.719-2.569.616-1.336-.411-2.298.089-2.261-.925z" transform="matrix(1.684 0 0 1.4651 126.999 126.887)" stroke="#000" stroke-width=".75" fill="none"/>
    <path d="M112.43 100.08l-.206 1.953m7.096-7.189s1.336.617 1.131 1.233c-.206.617-1.131.925-1.131.925m-11.2-2.672c-.308.103-.719.308-.925 1.13-.205.823.925 1.337.925 1.337" transform="matrix(1.684 0 0 1.4651 126.999 126.887)" stroke="#000" stroke-width="1pt" fill="none"/>
    <path d="M111.19 136.13s-1.454 1.454 1.017 1.454.727-1.308.727-1.308" transform="matrix(1.684 0 0 1.4651 127.244 71.947)" stroke="#000" stroke-width="1pt" fill="none"/>
    <path fill-rule="evenodd" fill="#fdc400" d="M323.643 438.01l7.193-23.638-19.977-14.86 25.02-.56 8.161-23.327 8.273 23.288 25.02.45-19.909 14.95 7.301 23.603-20.573-14.047z"/>
    <path fill-rule="evenodd" fill-opacity=".996" fill="#003017" d="M327.049 431.675l5.994-18.778-16.647-11.804 20.85-.445 6.8-18.53 6.894 18.5 20.85.356-16.59 11.876 6.083 18.75-17.143-11.16z"/>
    <path fill-rule="evenodd" fill="#fdc400" d="M282.467 390.136l7.116-22.354-19.763-14.052 24.752-.53 8.072-22.06 8.183 22.023 24.752.425-19.696 14.138 7.223 22.321-20.351-13.285z"/>
    <path fill-rule="evenodd" fill-opacity=".996" fill="#003017" d="M285.847 384.142l5.93-17.758-16.469-11.163 20.626-.42 6.727-17.524 6.82 17.494 20.625.338-16.412 11.23 6.019 17.732-16.96-10.553z"/>
    <path fill-rule="evenodd" fill="#fdc400" d="M365.42 390.136l7.207-22.354-20.016-14.052 25.07-.53 8.176-22.06 8.289 22.023 25.07.425-19.949 14.138 7.316 22.321-20.614-13.285z"/>
    <path fill-rule="evenodd" fill-opacity=".996" fill="#003017" d="M368.84 384.142l6.006-17.758-16.68-11.163 20.891-.42 6.814-17.524 6.907 17.494 20.892.338-16.624 11.23 6.096 17.732-17.177-10.553z"/>
    <path fill="none" d="M223.666 402.987c9.009 38.769 47.03 67.544 98.24 74.348 65.775 8.74 128.525-24.586 140.064-74.388"/>
    <path d="M223.505 408.985l12.353-6.979 1.163 2.54-4.845 2.737 1.603 3.503 4.845-2.737 1.162 2.54-12.353 6.979-1.162-2.54 5.598-3.163-1.603-3.503-5.598 3.163-1.163-2.54m5.171 10.808l11.533-8.537 3.947 6.582-1.917 1.42-2.525-4.211-2.666 1.973 2.35 3.92-1.827 1.352-2.35-3.92-3.176 2.351 2.585 4.31-1.947 1.442-4.007-6.682m8.037 12.397l10.173-10.455 1.742 2.092-3.99 4.1 2.401 2.885 3.99-4.1 1.742 2.092-10.174 10.455-1.742-2.092 4.612-4.739-2.402-2.885-4.61 4.74-1.742-2.093m13.286 6.191l1.65 1.609 3.001-5.667-4.65 4.057m-6.455 1.93l11.485-9.29 2.605 2.539-6.77 13.885-2.09-2.037 1.782-3.41-2.232-2.176-2.797 2.421-1.983-1.931m10.022 9.31l6.843-10.37-2.394-1.95 1.351-2.048 6.872 5.6-1.351 2.047-2.395-1.951-6.844 10.369-2.083-1.697m5.62 4.493l7.22-13.144 2.19 1.485-2.832 5.155 3.018 2.047 2.832-5.155 2.19 1.484-7.22 13.144-2.19-1.485 3.273-5.957-3.019-2.047-3.272 5.957-2.19-1.484m13.572 8.587l5.825-13.97 6.573 3.382-.954 2.287-4.23-2.177-1.376 3.302 3.993 2.055-.93 2.232-3.993-2.055-2.565 6.151-2.343-1.206m12.854-2.122c-.81 2.368-1.196 3.913-1.16 4.634.044.717.402 1.218 1.076 1.501.661.28 1.215.17 1.66-.326.454-.5 1.09-1.947 1.907-4.34s1.207-3.947 1.169-4.662c-.038-.715-.391-1.213-1.059-1.494-.667-.282-1.229-.17-1.684.337-.455.507-1.092 1.957-1.91 4.35m-2.464-1.04c.521-1.526 1.002-2.718 1.442-3.573.442-.862.879-1.465 1.311-1.81.6-.496 1.208-.774 1.825-.835.618-.06 1.352.09 2.205.449.853.36 1.492.79 1.918 1.29.425.5.717 1.158.875 1.973.113.59.076 1.365-.111 2.327-.182.965-.533 2.207-1.052 3.728-.518 1.514-.997 2.702-1.44 3.564-.439.855-.874 1.463-1.305 1.823-.605.494-1.217.77-1.834.83-.617.061-1.352-.088-2.205-.448-.852-.36-1.492-.79-1.917-1.29-.426-.5-.715-1.157-.868-1.97-.117-.577-.085-1.347.097-2.312.184-.97.537-2.219 1.058-3.746m11.92-3.27l2.475.819-2.665 9.947c-.305 1.137-.389 1.95-.251 2.441.145.487.537.835 1.175 1.046.632.21 1.124.15 1.475-.18.357-.326.69-1.068 1-2.224l2.656-9.909 2.44.808-2.73 10.186c-.265.99-.511 1.698-.738 2.124-.22.422-.493.766-.821 1.033-.495.4-1.071.633-1.728.7-.655.062-1.385-.04-2.19-.306-1.517-.503-2.492-1.222-2.924-2.157-.424-.94-.392-2.32.096-4.142l2.73-10.186m6.628 18.157l3.026-15.026 2.591.644 1.405 11.384 2.046-10.526 2.38.592-3.026 15.026-2.573-.64-1.428-11.41-2.05 10.545-2.37-.59m13.546.766l1.13.197c.574.1.984.124 1.228.072.244-.052.45-.178.618-.378.293-.354.538-.865.735-1.532.198-.674.404-1.768.617-3.283.208-1.475.3-2.559.277-3.251-.024-.693-.154-1.235-.39-1.627a1.22 1.22 0 0 0-.528-.456c-.221-.113-.58-.212-1.079-.299l-1.093-.19-1.515 10.747M312.427 477l2.144-15.213 4.098.714c.836.145 1.489.34 1.958.583.476.245.849.573 1.119.984.406.604.651 1.321.735 2.152.09.826.017 2.075-.219 3.747-.304 2.16-.588 3.676-.85 4.548-.262.865-.6 1.583-1.014 2.151-.402.571-.903.933-1.5 1.085-.592.147-1.578.1-2.96-.14l-3.511-.611m10.719 1.762l1.332-15.326 7.085.76-.221 2.548-4.532-.487-.308 3.543 4.218.453-.21 2.428-4.22-.452-.366 4.22 4.64.497-.226 2.588-7.192-.772m11.707-1.24l1.142.045c.581.024.99-.006 1.227-.09.237-.085.428-.237.573-.458.253-.39.442-.93.566-1.618.125-.696.212-1.81.261-3.342.049-1.492.024-2.58-.074-3.264-.098-.685-.285-1.206-.562-1.564a1.177 1.177 0 0 0-.572-.383c-.232-.082-.6-.134-1.103-.154l-1.106-.044-.352 10.872m-2.6 2.167l.498-15.388 4.146.166c.845.034 1.514.14 2.006.32.499.18.904.457 1.216.83.469.545.789 1.225.96 2.039.178.807.24 2.057.185 3.75-.07 2.184-.19 3.727-.357 4.627-.167.894-.426 1.65-.776 2.27-.338.62-.796 1.046-1.374 1.276-.572.224-1.556.308-2.953.252l-3.552-.142m15.437.201l-.55-15.386 2.58-.114.55 15.386-2.58.114m6.893-.405l-.947-12.815-2.96.27-.187-2.532 8.493-.774.187 2.53-2.96.27.948 12.816-2.574.235m9.091-16.51l2.545-.491 1.6 10.225c.182 1.169.434 1.94.754 2.31.324.364.815.482 1.471.356.65-.126 1.066-.423 1.249-.891.188-.47.19-1.299.004-2.487l-1.594-10.186 2.51-.485 1.637 10.472c.16 1.018.223 1.773.19 2.267a3.591 3.591 0 0 1-.321 1.33 3.666 3.666 0 0 1-1.266 1.483c-.562.38-1.256.649-2.084.809-1.56.301-2.721.14-3.483-.485-.756-.632-1.28-1.883-1.574-3.755l-1.638-10.472m13.788 3.905l1.05-.284c.78-.211 1.291-.528 1.532-.95.24-.429.27-1.054.09-1.876-.183-.83-.454-1.363-.815-1.602-.357-.246-.94-.26-1.75-.04l-1.084.293.977 4.459m-.578 9.068l-3.279-14.96 4.354-1.179c1.33-.36 2.357-.288 3.085.215.728.503 1.256 1.506 1.586 3.008.323 1.477.253 2.662-.212 3.556-.46.886-1.329 1.502-2.605 1.847l-1.827.495 1.39 6.344-2.491.674m9.896-10.84c.69 2.414 1.25 3.891 1.68 4.431.436.532.996.677 1.683.436.674-.238 1.048-.705 1.12-1.402.075-.705-.235-2.277-.932-4.717s-1.26-3.927-1.688-4.461c-.43-.534-.985-.681-1.665-.441-.68.24-1.058.715-1.132 1.426-.074.712.238 2.287.934 4.727m-2.513.886c-.444-1.557-.733-2.822-.867-3.796-.135-.98-.13-1.755.017-2.324.193-.802.514-1.44.964-1.913.45-.474 1.11-.864 1.98-1.17.868-.306 1.61-.41 2.223-.312.614.099 1.21.413 1.79.943.417.384.822 1.018 1.212 1.901.397.882.816 2.098 1.259 3.648.44 1.544.728 2.806.863 3.786.134.975.132 1.751-.004 2.331-.199.804-.523 1.443-.973 1.916-.45.474-1.11.863-1.98 1.17-.869.306-1.61.41-2.223.311-.614-.098-1.207-.413-1.78-.946-.415-.371-.82-.997-1.217-1.879-.398-.887-.82-2.11-1.264-3.666m12.667 3.52l-5.156-14.294 2.464-1.097 6.955 8.503-3.672-9.965 2.263-1.008 5.156 14.293-2.447 1.09-6.987-8.511 3.68 9.984-2.256 1.004m16.05-7.884l-5.406-11.368-2.626 1.541-1.068-2.245 7.535-4.424 1.068 2.246-2.626 1.541 5.407 11.369-2.284 1.34m6.1-3.637l-7.4-13.018 2.17-1.522 2.901 5.106 2.99-2.098-2.902-5.106 2.169-1.522 7.4 13.019-2.169 1.521-3.354-5.9-2.99 2.098 3.354 5.9-2.168 1.522m9.244-6.657l-8.352-12.288 5.68-4.766 1.388 2.042-3.633 3.05 1.93 2.84 3.383-2.838 1.323 1.946-3.382 2.839 2.3 3.383 3.72-3.122 1.41 2.075-5.767 4.839m7.129-13.213l1.842-2.011.624.706c.597.675 1.08 1.054 1.448 1.138.369.074.74-.092 1.112-.498.389-.425.588-.857.595-1.295.012-.443-.171-.879-.55-1.307-.29-.328-.608-.531-.955-.61-.352-.083-.927-.054-1.726.09l-1.6.288c-1.367.26-2.343.307-2.927.141-.58-.17-1.143-.565-1.69-1.183-.816-.922-1.209-1.914-1.18-2.974.03-1.06.477-2.062 1.342-3.006.915-1 1.863-1.488 2.843-1.464s1.93.556 2.85 1.597c.093.105.163.188.209.25.05.057.092.11.126.157l-1.746 1.906-.259-.293c-.525-.594-.99-.924-1.392-.989-.402-.065-.805.122-1.207.561-.295.322-.442.675-.441 1.056.001.373.153.73.456 1.072.408.462 1.239.56 2.492.293a.116.116 0 0 1 .032-.006l1.689-.344c1.194-.257 2.13-.288 2.807-.093.673.19 1.333.651 1.98 1.384.884.998 1.308 2.049 1.274 3.151-.034 1.103-.528 2.175-1.483 3.217-.992 1.084-1.985 1.607-2.977 1.569-.988-.043-2-.649-3.034-1.818a14.32 14.32 0 0 1-.517-.642l-.038-.043m10.724-4.324l-10.622-9.89 4.572-6.062 1.766 1.644-2.925 3.878 2.456 2.286 2.722-3.61 1.683 1.567-2.722 3.61 2.924 2.723 2.994-3.97 1.793 1.67-4.64 6.154m2.696-13.786l1.227-2.023-5.44-2.589 4.213 4.612m2.541 6.87L441.67 415.4l1.935-3.193 13.254 5.7-1.554 2.563-3.27-1.532-1.66 2.737 2.517 2.776-1.473 2.43m1.645-12.522l1.18-2.553.792.452c.758.433 1.323.624 1.697.575.37-.058.675-.345.914-.861.249-.54.315-1.019.199-1.438-.114-.424-.412-.774-.892-1.048-.368-.21-.728-.291-1.08-.245-.357.043-.895.273-1.612.687l-1.437.833c-1.225.725-2.139 1.11-2.74 1.157-.599.04-1.245-.137-1.939-.533-1.035-.59-1.689-1.394-1.96-2.411-.273-1.017-.132-2.124.422-3.322.586-1.27 1.348-2.064 2.284-2.383.937-.32 1.99-.147 3.159.52.117.067.207.122.268.164.064.037.118.072.164.105l-1.118 2.42-.328-.188c-.667-.38-1.201-.531-1.602-.453-.4.08-.73.397-.987.955-.19.409-.229.794-.12 1.156.107.353.352.64.736.859.518.295 1.334.098 2.45-.593a.087.087 0 0 1 .028-.017l1.506-.917c1.06-.661 1.94-1.017 2.638-1.069.693-.054 1.45.153 2.272.622 1.12.64 1.82 1.489 2.1 2.547.28 1.059.114 2.25-.497 3.572-.636 1.376-1.43 2.219-2.383 2.53-.95.304-2.081.082-3.394-.667-.139-.08-.363-.222-.672-.429l-.048-.027"/>
  </g>
</svg>
