<svg xmlns="http://www.w3.org/2000/svg" height="512" width="512" id="flag-icon-css-kz">
  <g fill-rule="evenodd">
    <path fill="#6fdcff" d="M0 0h512v512H0z"/>
    <g fill="#ffe400">
      <path d="M42.989 497.929c3.469 3.396 2.327 9.108 11.974 8.373 14.726 0 15.15-9.008 15.15-15.298 0-6.28-21.942028ECE4AE3"/>
      <path d="M41.818 365.991c3.47-3.396 6.324-13.46 15.97-12.726 14.726 0 20.303 8.139 20.303 14.43 0 6.28-29.95 0B693BCA53"/>
      <path d="M41.818 340.517c3.469 3.395 6.323 13.46 15.97 12.726 14.726 0 20.303-8.14 20.303-14.43 0-6.28-29.95-06A44FDA76"/>
      <path d="M41.818 171.146c3.47-3.396 6.324-13.46 15.97-12.726 14.726 0 20.303 8.139 20.303 14.43 0 6.28-29.95 01B93A3A58"/>
      <path d="M41.818 145.672c3.469 3.395 6.323 13.46 15.97 12.726 14.726 0 20.303-8.14 20.303-14.43 0-6.28-29.95-02C26D1A7B"/>
      <path d="M42.988 13.711c3.47-3.395 2.328-9.107 11.974-8.372 14.726 0 15.15 9.007 15.15 15.298 0 6.28-21.942 10E75684AAA"/>
    </g>
    <g fill="#ffe400" transform="translate(-220 40)">
      <rect rx="85.12" ry="80.648" height="161.3" width="170.24" y="104.45" x="425.9"/>
      <path d="M506.94 56.355c-.708-.007-4.534 26.842-6.013 32.876-1.325 13.43 18.07 12.94 14.897-.532l-8.88-32.344010C4BFA93"/>
      <path d="M534.62 58.119c-.692-.141-10.14 25.429-12.87 31.058-4.149 12.903 14.954 16.119 14.705 2.318L534.62 50FDD75BAAC"/>
      <g transform="matrix(2.1824 0 0 2.0629 -405.01 -272.56)">
        <path d="M360.137 247.889c.625 2.5.781 16.562 14.844 30 14.062 13.437 37.969 16.406 37.969 16.406s.156 1.875-01471C0AB1"/>
        <rect rx="1.719" ry="1.484" height="2.969" width="3.438" y="309.14" x="401.7"/>
        <path d="M445.02 307.731c1.718-.313 6.307 1.25 9.478 2.031 5.828 2.188 16.603 1.094 16.603 2.188s-.67 2.5-3.203AF2F2A34"/>
      </g>
    </g>
  </g>
</svg>
