<svg xmlns="http://www.w3.org/2000/svg" height="512" width="512" id="flag-icon-css-md">
  <g fill-rule="evenodd" stroke-width="1pt">
    <path fill="#00319c" d="M0 0h170.667v512H0z"/>
    <path fill="#ffde00" d="M170.667 0h170.666v512H170.667z"/>
    <path fill="#de2110" d="M341.333 0H512v512H341.333z"/>
  </g>
  <path d="M173.62 690.94v63.779c0 3.544 0 7.087-3.543 7.087-3.544 0-7.087 7.087-7.087 10.63 0 7.087 3.543 10.63 7.087 10.63h31.889c3.544 0 7.087-3.543 7.087-10.63-.228-3.723-3.543-10.63-7.087-10.63-3.543 0-3.543-3.543-3.543-7.087V690.94" fill-rule="evenodd" transform="matrix(.46695 -.29552 .30926 .4462 -5.143 64.498)" stroke="#000" stroke-width="1pt" fill="#ff1900"/>
  <path d="M177.17 696.26c0 24.461-9.518 44.291-21.26 44.291-11.741 0-21.26-19.83-21.26-44.291s9.518-44.291 21.26-44.291c11.741 0 21.26 19.83 21.26 44.291z" fill-rule="evenodd" transform="matrix(.42858 -.34452 .36055 .40954 -29.658 77.262)" stroke="#000" stroke-width="3.125" fill="#a77b3b"/>
  <path d="M173.62 690.94v63.779c0 3.544 0 7.087-3.543 7.087-3.544 0-7.087 7.087-7.087 10.63 0 7.087 3.543 10.63 7.087 10.63h31.889c3.544 0 7.087-3.543 7.087-10.63-.228-3.723-3.543-10.63-7.087-10.63-3.543 0-3.543-3.543-3.543-7.087V690.94" fill-rule="evenodd" transform="matrix(.48902 .26089 -.27302 .46728 313.353 -58.253)" stroke="#000" stroke-width="1pt" fill="#ff1900"/>
  <path d="M421.65 701.58h-28.347c-.937.938-8.998 54.066-17.716 74.409-10.63 24.803-42.465 46.69-42.465 46.69s1003B93EA38" fill-rule="evenodd" transform="matrix(.56007 0 0 .53518 29.717 -86.339)" stroke="#000" stroke-width="3.125" fill="#a77b3b"/>
  <path d="M336.61 467.7l53.15 17.716c17.716 0 35.433-17.697 35.433-35.414.589-39.414-14.174-53.168-17.717-53.10E7236BAB0" fill-rule="evenodd" transform="matrix(.56007 0 0 .53518 9.84 -55.998)" stroke="#000" stroke-width="3.125" fill="#a77b3b"/>
  <g stroke="#000" fill="none">
    <path d="M302.16 292.24l14.645 14.964 14.644-14.964 14.645 14.964 29.29-14.964 14.261 15.809 15.028-15.809 21.605 15.809 22.329-15.809 14.645 14.964 14.645-14.964" transform="matrix(.1355 0 0 .38018 203.065 87.002)" stroke-width=".603"/>
    <path d="M432.28 435.83l-7.086 38.976m10.636-38.976v38.976m7.08-38.976v38.976M450 435.83l3.543 38.976m3.547-38.976l3.543 38.976" transform="matrix(.56007 0 0 .53518 9.84 -55.998)" stroke-width=".25"/>
  </g>
  <g stroke="#000" stroke-width="3.125">
    <path d="M318.9 361.42c35.433 17.717 35.433 53.149 35.433 70.866-1.251 16.117 0 354.33 0 354.33s-2.306-20.02208A8F5FAF2" fill-rule="evenodd" transform="matrix(-.56007 0 0 .53518 357.129 -55.998)" fill="#a77b3b"/>
    <path d="M283.46 574.02c.417 0 17.716-17.717 17.716-17.717l17.717 17.717 17.716-17.717 17.717 17.717" transform="matrix(-.56007 0 0 .53518 357.129 -131.85)" fill="none"/>
    <path d="M283.46 574.02c.417 0 17.716-17.717 17.716-17.717l17.717 17.717 17.716-17.717 17.717 17.717" transform="matrix(-.56007 0 0 -.53518 357.129 492.026)" fill="none"/>
    <path d="M283.46 574.02c.417 0 17.716-17.717 17.716-17.717l17.717 17.717 17.716-17.717 17.717 17.717" transform="matrix(-.56007 0 0 .53518 357.129 -93.924)" fill="none"/>
    <path d="M301.39 556.99l-.208 158.76" transform="matrix(-.56007 0 0 1.01529 357.129 -399.621)" fill="none"/>
    <path d="M301.39 539.27l-.208 176.48" transform="matrix(-.56007 0 0 .91125 347.322 -316.063)" fill="none"/>
    <path d="M301.39 539.27l-.208 176.48" transform="matrix(-.56007 0 0 1.0208 337.398 -384.615)" fill="none"/>
  </g>
  <g stroke="#000" stroke-width="3.125">
    <path d="M318.9 361.42c35.433 17.717 35.433 53.149 35.433 70.866-1.251 16.117 0 354.33 0 354.33s-2.306-20.02208A8F5FAF2" fill-rule="evenodd" transform="matrix(.56007 0 0 .53518 158.68 -55.998)" fill="#a77b3b"/>
    <path d="M283.46 574.02c.417 0 17.716-17.717 17.716-17.717l17.717 17.717 17.716-17.717 17.717 17.717" transform="matrix(.56007 0 0 .53518 158.68 -131.85)" fill="none"/>
    <path d="M283.46 574.02c.417 0 17.716-17.717 17.716-17.717l17.717 17.717 17.716-17.717 17.717 17.717" transform="matrix(.56007 0 0 -.53518 158.68 492.026)" fill="none"/>
    <path d="M283.46 574.02c.417 0 17.716-17.717 17.716-17.717l17.717 17.717 17.716-17.717 17.717 17.717" transform="matrix(.56007 0 0 .53518 158.68 -93.924)" fill="none"/>
    <path d="M301.39 556.99l-.208 158.76" transform="matrix(.56007 0 0 1.01529 158.68 -399.621)" fill="none"/>
    <path d="M301.39 539.27l-.208 176.48" transform="matrix(.56007 0 0 .91125 168.486 -316.063)" fill="none"/>
    <path d="M301.39 539.27l-.208 176.48" transform="matrix(.56007 0 0 1.0208 178.405 -384.615)" fill="none"/>
  </g>
  <path d="M177.17 696.26c0 24.461-9.518 44.291-21.26 44.291-11.741 0-21.26-19.83-21.26-44.291s9.518-44.291 21.26-44.291c11.741 0 21.26 19.83 21.26 44.291z" fill-rule="evenodd" transform="matrix(.51699 .20584 -.21541 .49401 290.24 -73.211)" stroke="#000" stroke-width="3.125" fill="#a77b3b"/>
  <path fill-rule="evenodd" fill="red" d="M198.366 203.794h119.07v56.89h-119.07z"/>
  <path d="M198.366 260.684h119.071v28.445c0 18.963-29.767 18.963-59.535 37.926-29.768-18.963-59.536-18.963-59.536-37.926v-28.445z" fill-rule="evenodd" fill="#564dff"/>
  <path d="M336.61 485.43h212.6v159.45c0 35.433-53.15 35.433-106.3 70.866-53.149-35.433-106.3-35.433-106.3-70.866V485.43z" transform="matrix(.56007 0 0 .53518 9.842 -55.998)" stroke="#ff0" stroke-width="2.5" fill="none"/>
  <path d="M385.59 129.9s-50.618 55.447-50.618 108.6c0 53.149 53.149 70.866 53.149 70.866s-17.717 0-17.717 70.80C1FD98A35" fill-rule="evenodd" transform="matrix(.39205 0 0 .2513 84.901 174.943)" stroke="#000" stroke-width="3.011" fill="#ff0"/>
  <path d="M382.68 248.03c-3.543 3.543 4.581 61.274 7.087 63.779 3.543 3.543 24.803 3.543 28.346 0 2.525-2.525 03D4999ADA" fill-rule="evenodd" transform="matrix(.39205 0 0 .2513 86.397 224.929)" stroke="#000" stroke-width="3.011" fill="#ff0"/>
  <path d="M382.68 248.03c-3.543 3.543 4.581 61.274 7.087 63.779 3.543 3.543 24.803 3.543 28.346 0 2.525-2.525 03D4999ADA" fill-rule="evenodd" transform="matrix(-.39205 0 0 .2513 429.412 224.929)" stroke="#000" stroke-width="3.011" fill="#ff0"/>
  <path d="M414.57 228.54c0 8.806-7.139 15.945-15.945 15.945-8.806 0-15.945-7.139-15.945-15.945 0-8.806 7.139-107DBC8AAD0" fill-rule="evenodd" transform="matrix(.45063 0 0 .31327 63.903 210.41)" stroke="#000" stroke-width="3.011" fill="#ff0"/>
  <path d="M414.57 228.54c0 8.806-7.139 15.945-15.945 15.945-8.806 0-15.945-7.139-15.945-15.945 0-8.806 7.139-107DBC8AAD0" fill-rule="evenodd" transform="matrix(.45063 0 0 .31328 92.642 210.41)" stroke="#000" stroke-width="3.011" fill="#ff0"/>
  <path d="M270.409 311.012c0 1.23-1.555 2.226-3.473 2.226s-3.473-.997-3.473-2.226c0-1.23 1.555-2.226 3.473-2.2074BFF8A80" fill-rule="evenodd"/>
  <path fill-rule="evenodd" transform="matrix(.54641 0 0 .52213 17.827 -47.302)" stroke="#000" stroke-width="1pt" fill="#ff0" d="M439.37 549.92l-7.78-10.26-12.77 1.75 1.76-12.76-10.26-7.78 10.26-7.79-1.76-12.76 12.77 1.76 7.78-10093771FA9E"/>
  <path d="M496.06 591.73l21.26 10.63 21.26-10.63-21.26-10.63-21.26 10.63z" fill-rule="evenodd" transform="matrix(.56007 0 0 .53518 9.84 -55.998)" stroke="#000" stroke-width="1pt" fill="#ff0"/>
  <path d="M496.06 591.73l21.26 10.63 21.26-10.63-21.26-10.63-21.26 10.63z" fill-rule="evenodd" transform="matrix(.56007 0 0 .53518 -75.491 -55.998)" stroke="#000" stroke-width="1pt" fill="#ff0"/>
  <path d="M535.04 659.06c-3.543-7.086-14.173-10.63-21.259-10.63-7.087 0-14.174 0-21.26 10.63 0-14.173 10.502-207AAC69A23" fill-rule="evenodd" transform="matrix(.48568 -.26652 .27892 .4641 -137.542 131.374)" stroke="#000" stroke-width="1pt" fill="#ff0"/>
  <path d="M386.22 651.97a7.087 7.087 0 1 1-14.173 0 7.087 7.087 0 0 1 14.173 0z" fill-rule="evenodd" transform="matrix(.56007 0 0 .53518 7.856 -65.48)" stroke="#000" stroke-width="1pt" fill="#ff0"/>
  <path d="M386.22 651.97a7.087 7.087 0 1 1-14.173 0 7.087 7.087 0 0 1 14.173 0z" fill-rule="evenodd" transform="matrix(.56007 0 0 .53518 3.887 -52.206)" stroke="#000" stroke-width="1pt" fill="#ff0"/>
  <path d="M386.22 651.97a7.087 7.087 0 1 1-14.173 0 7.087 7.087 0 0 1 14.173 0z" fill-rule="evenodd" transform="matrix(.56007 0 0 .53518 1.903 -59.79)" stroke="#000" stroke-width="1pt" fill="#ff0"/>
  <path d="M386.22 651.97a7.087 7.087 0 1 1-14.173 0 7.087 7.087 0 0 1 14.173 0z" fill-rule="evenodd" transform="matrix(.56007 0 0 .53518 11.825 -52.206)" stroke="#000" stroke-width="1pt" fill="#ff0"/>
  <path d="M386.22 651.97a7.087 7.087 0 1 1-14.173 0 7.087 7.087 0 0 1 14.173 0z" fill-rule="evenodd" transform="matrix(.56007 0 0 .53518 13.81 -59.79)" stroke="#000" stroke-width="1pt" fill="#ff0"/>
  <path d="M386.22 651.97a7.087 7.087 0 1 1-14.173 0 7.087 7.087 0 0 1 14.173 0z" fill-rule="evenodd" transform="matrix(.56007 0 0 .53518 7.856 -57.894)" stroke="#000" stroke-width="1pt" fill="#ff0"/>
  <g fill-rule="evenodd">
    <path d="M238.726 158.921c-10.016 0-11.34 1.58-15.876 3.161 0-4.361 11.153-9.481 21.169-9.481 0 3.16-2.647 6.321-5.293 6.32z" fill="#da4500"/>
    <path d="M253.934 148.803c0 2.095-1.777 3.793-3.969 3.793s-3.969-1.698-3.969-3.793 1.777-3.793 3.97-3.793 3.968 1.698 3.968 3.793z" fill="#cac9c7"/>
    <path d="M361.42 357.87v10.63h17.717v53.15h10.63V368.5h17.716v-10.63h-17.716v-14.173h-10.63v14.173H361.42z" stroke="#000" stroke-width="1pt" fill="#ff0" transform="matrix(.56007 0 0 .53518 9.84 -55.998)"/>
    <path d="M244 152.602c-11.684 0-18.52 1.053-23.813 3.16 0-5.815 6.837-12.642 18.521-12.642 2.646 0 5.293 6.321 5.293 9.482z" fill="#da4500"/>
  </g>
  <g fill-rule="evenodd">
    <path d="M67.323 612.99c-14.173-14.17-16.634-21.36 3.543-10.1l283.75 247.5-3.366 6.968-283.93-244.37z" transform="matrix(.31554 .24102 -.11439 .19257 189.696 119.017)" stroke="#000" stroke-width=".875" fill="#008500"/>
    <path d="M182.337 329.631c.625-8.603-15.127-17.91-15.75-17.306-.623.604.958 5.614 3.945 8.224-5.72-2.947-11.70D9B3A2AA3" fill="#008f00"/>
    <path d="M146.74 256.04c7.622-4.618 6.129-22.258 5.25-22.38-.88-.12-4.164 4.065-4.593 7.912-.908-6.15-2.93-110384A39A69" fill="#008f00"/>
  </g>
  <path d="M209.06 775.98c0 7.828-10.312 14.173-23.031 14.173-12.72 0-23.031-6.346-23.031-14.173 0-7.828 10.312010570BADE" fill-rule="evenodd" transform="matrix(.48902 .26089 -.27302 .46728 313.353 -58.253)" stroke="#000" stroke-width="1pt" fill="#ff1900"/>
  <g stroke="#000" fill-rule="evenodd" fill="#ff0">
    <path d="M155.91 414.57v-7.087h7.086v-7.086h7.087v7.086h7.086v7.087h-7.086v17.716h-7.087V414.57h-7.086z" transform="matrix(.40549 .1277 -.14842 .38308 363.626 58.049)" stroke-width=".625"/>
    <path stroke-width=".63" d="M162.99 474.8h7.087v205.51h-7.087z" transform="matrix(.40549 .1277 -.14842 .38308 363.626 58.049)"/>
    <path stroke-width=".625" d="M159.45 676.77h14.173v56.693H159.45zm-3.54-237.4h21.259c14.174 0-3.543 38.976-3.543 38.976h-14.173s-17.717-38.976-3.543-38.976z" transform="matrix(.40549 .1277 -.14842 .38308 363.626 58.049)"/>
    <path d="M173.62 434.06c0 2.935-3.173 5.315-7.087 5.315s-7.086-2.38-7.086-5.315 3.173-5.315 7.086-5.315 7.087 2.38 7.087 5.315z" stroke-width=".625" transform="matrix(.40549 .1277 -.14842 .38308 363.626 58.049)"/>
  </g>
  <path d="M209.06 775.98c0 7.828-10.312 14.173-23.031 14.173-12.72 0-23.031-6.346-23.031-14.173 0-7.828 10.312010570BADE" fill-rule="evenodd" transform="matrix(.46695 -.29552 .30926 .4462 -5.143 64.498)" stroke="#000" stroke-width="1pt" fill="#ff1900"/>
</svg>
