<svg xmlns="http://www.w3.org/2000/svg" height="512" width="512" id="flag-icon-css-mn">
  <path fill="#c4272f" d="M0 0h512v512H0z"/>
  <path fill="#015197" d="M170.667 0h170.667v512H170.667z"/>
  <circle cx="85.627" cy="215.251" r="27.996" fill="#f9cf02"/>
  <circle cx="85.627" cy="202.526" r="30.541" fill="#c4272f"/>
  <path d="M72.919 169.458c0 7.018 5.69 12.707 12.708 12.707s12.707-5.69 12.707-12.707c0-5.084-3.177-5.719-3.1708A10D5A81" fill="#f9cf02" fill-rule="evenodd"/>
  <circle cx="85.627" cy="207.616" r="20.36" fill="#f9cf02"/>
  <path d="M29.635 248.337v122.162h25.45V248.337zm86.532 0v122.162h25.45V248.337zm-55.991 20.36v10.18h50.901v-105CCAFDAED" fill="#f9cf02"/>
  <circle cx="85.627" cy="309.418" r="26.978" fill="#f9cf02" stroke="#c4272f" stroke-width="3.054"/>
  <path d="M85.627 282.44a13.489 13.489 0 0 1 0 26.978 13.489 13.489 0 1 0 0 26.978" fill="none" stroke="#c4272f" stroke-width="3.054"/>
  <circle r="5.09" cy="295.929" cx="85.627" fill="#c4272f"/>
  <circle r="5.09" cy="322.907" cx="85.627" fill="#c4272f"/>
</svg>
