<svg xmlns="http://www.w3.org/2000/svg" height="512" width="512" id="flag-icon-css-nu">
  <defs>
    <clipPath id="a">
      <path fill-opacity=".67" d="M0 0h496.06v496.06H0z"/>
    </clipPath>
  </defs>
  <g clip-path="url(#a)" transform="scale(1.0321)">
    <path fill-rule="evenodd" fill="#fff" d="M.013 0h499.55v248.1H.013z"/>
    <path d="M.013 0l-.02 18.621 119.21 61.253 44.86 1.3L.012 0z" fill="#c00"/>
    <path d="M51.054 0l144.53 75.491V.001H51.064z" fill="#006"/>
    <path fill="#c00" d="M214.86 0v96.372H.02v55.07h214.84v96.372h66.106v-96.372h214.84v-55.07h-214.84V0H214.86z"/>
    <path d="M300.24 0v71.132L441.63.552 300.24 0z" fill="#006"/>
    <path d="M304.71 78.887l39.76-.32L498.95.551l-40.99.668-153.25 77.668z" fill="#c00"/>
    <path d="M.013 167.5v52.775l99.16-52.22-99.16-.56z" fill="#006"/>
    <path d="M381.85 169.68l-41.336-.321 155.82 77.58-1.025-17.749-113.46-59.51zM38.73 248.25l146.11-76.71-38.38.26L.01 248.14" fill="#c00"/>
    <path d="M497.9 21.795l-118 58.515 116.43.436v87.194h-99.159l98.242 53.23 1.442 27.08-52.474-.627-143.62-70.50D3A570A1B" fill="#006"/>
    <g fill-rule="evenodd" stroke-width="1pt" fill="#ffd900">
      <path d="M496.06 0h496.06v496.06H496.06z"/>
      <path d="M0 248.03h523.49v248.03H0z"/>
    </g>
    <g fill-rule="evenodd">
      <path d="M290.9 125.29c0 23.619-19.148 42.767-42.768 42.767-23.619 0-42.767-19.147-42.767-42.767s19.147-42.760117F8EA78" fill="#000067"/>
      <path fill="#fff40d" d="M226.833 154.052l8.27-24.576-21.6-15.182 26.686.025 8.225-24.59 8.224 24.59 26.686-.018-21.603 15.1707E2615AFB"/>
    </g>
  </g>
</svg>
