<svg xmlns="http://www.w3.org/2000/svg" height="512" width="512" id="flag-icon-css-sa">
  <defs>
    <clipPath id="a">
      <path fill-opacity=".67" d="M124.02 0h496.06v496.06H124.02z"/>
    </clipPath>
  </defs>
  <g clip-path="url(#a)" fill-rule="evenodd" transform="translate(-128) scale(1.0321)">
    <path fill="#199d00" d="M0 0h744.09v496.06H0z"/>
    <path d="M187.52 140.62c-.859 11.589-1.89 31.983 7.957 34.075 11.91 1.145 5.343-20.158 9.654-24.021.815-1.9090CE3198A8B" fill="#fff"/>
    <path d="M219.88 188.16c-10.51 5.138-20.675 9.931-31.014 14.896.378-7.03 14.745-19.72 24.543-19.899 6.377.178 4.775 2.471 6.471 5.003z" fill="#fff"/>
    <path d="M214.46 197.88c-16.345 42.133 38.275 48.004 44.379 1.726.575-1.899 2.878-3.799 3.281-.691-1.267 41.90F9FAA3AAF" fill="#fff"/>
    <path d="M283.79 155.05c3.281-1.209 18.824-18.994 18.824-18.994-.807-.691-1.527-1.209-2.333-1.9-.864-.748-.770907A19AD2" fill="#fff"/>
    <path d="M414.28 243.71c-1.108 1.244 2.736 6.565 7.732 6.56 8.355-.97 15.71-5.663 22.52-18.017 1.821-2.881 5.03169BFA66" fill="#fff"/>
    <path d="M531.64 216.7c-.069-7.008.099-13.059-.132-18.286-.23-5.227-1.154-9.483-2.963-13.193-1.712-3.978-.64909773FBA43" fill="#fff"/>
    <path d="M544.47 209.22c-6.649-11.157-16.683-23.24-19.364-27.733-2.68-4.494-25.352-33.746-28.241-36.682-8.2940318DB6AFB" fill="#fff"/>
    <path d="M242.79 188.63c-.479.839-1.544 1.926-1.187 3.051.747 1.012 1.343 1.217 2.587 1.272 1.079 0 2.587.2550106D9DAFB" fill="#1ba400"/>
    <path d="M467.16 351.26c8.892.327 14.712.406 22.621 1.347 0 0 6.82-.674 9.256-1.042 10.295-.982 10.751 14.7040951B75AC5" fill="#fff"/>
    <path d="M325.01 168.68c2.749-1.947 1.464-3.308 5.575.802 5.147 8.8 8.455 20.196 8.951 30.293-.217 2.488 1.5307F4CBBAA1" fill="#fff"/>
    <path d="M351.81 181.89c4.081 1.946 13.795.826 11.429-5.462 0-.582-.148-2.551-.206-3.084-.833-1.94-3.106-1.460F23670A50" fill="#fff"/>
    <path d="M469.46 217.96c.769-8.893-.529-14.316-.76-19.543-.23-5.227-5.912-45.11-7.064-49.065-1.39-7.478 5.5230BD0EBEA05" fill="#fff"/>
    <path d="M361.25 211.38c4.115.261 6.171 3.49 2.317 4.844-3.802 1.302-7.456 2.319-7.473 7.813 1.406 7.656-1.92083EC78A1E" fill="#1b9d00"/>
    <path d="M199.01 120.52c4.704 1.418 4.982 8.332 4.635 10.353-.627 3.689-2.293 7.673-3.49 7.154-1.302-.463-.050DD9375A06" fill="#fff"/>
    <path d="M383.784 183.827c-.519.896-2.271.852-3.915-.098s-2.555-2.448-2.036-3.345 2.27-.852 3.914.098 2.555 20140535AB2" fill="#259f00"/>
    <path d="M468.2 363.3c9.06.442 17.572.103 26.632.545 1.641 1.395.469 4.821-.625 4.575-2.946-.074-4.643-.147-7027FC65A5C" fill="#209000"/>
  </g>
</svg>
