<svg xmlns="http://www.w3.org/2000/svg" height="512" width="512" id="flag-icon-css-sm">
  <g fill-rule="evenodd" stroke-width="1pt">
    <path fill="#19b6ef" d="M0 255.999h512v255.999H0z"/>
    <path fill="#fff" d="M0 0h512v255.999H0z"/>
  </g>
  <path d="M252.86 361.822c55.944-41.854 116.22-127.256 45.588-172.166-13.158-2.548-27.846-1.784-34.893 3.82-3.02C451BAE9" fill-rule="evenodd" stroke="#7d6c00" stroke-width="2.369" fill="#fd0"/>
  <g stroke="#3a9d4f">
    <path stroke-linejoin="round" d="M356.335 266.768s6.296-8.467 6.513-8.467c6.297-3.692 6.949-8.468 6.949-8.468 6.296-1.955 4.342-7.1660DEB5EAA8D" fill-rule="evenodd" stroke-width="2.369" fill="#4fd46b"/>
    <path stroke-linejoin="round" d="M346.119 284.144c-4.416-3.33-6.876-7.309-6.08-11.29-2.895-3.91-4.922-6.297-2.171-9.77 0 0-2.172-7.81092E0BBA3F" fill-rule="evenodd" stroke-width="2.369" fill="#4fd46b"/>
    <path stroke-linejoin="round" d="M353.936 251.79c-.217-.216-7.382-9.336-5.428-9.988-.433-2.823-2.604-5.863-1.302-8.684-3.546-3.547-3.05A9422A96" fill-rule="evenodd" stroke-width="2.369" fill="#4fd46b"/>
    <path stroke-linejoin="round" d="M352.852 205.97l-6.08-6.08c1.571-3.221 2.836-8.9-1.735-11.508-2.522-6.14-15.127-13.752-17.154.869-1.00667F5AC9" fill-rule="evenodd" stroke-width="2.369" fill="#4fd46b"/>
    <path d="M356.548 262.93c.307-.307 11.667-26.406 13.202-34.39m-11.976-11.963s1.842 21.187-3.378 36.847m-31.623-58.346s23.337 22.415 25.485 31.628m-9.211-34.079s1.535 18.424 7.983 36.541m33.166 30.387s-23.337 19.652-34.7 36.847m12.58 31.947s-30.707 4.3-44.217 4.607m34.09 8.594s-38.077-.922-40.841-3.685m21.794-45.761c0 .306-19.344 32.24-19.96 42.682" stroke-linecap="round" stroke-width="2.221" fill="none"/>
  </g>
  <path d="M252.646 355.657c-40.285-37.999-81.548-109.312-40.501-145.35 7.295 4.138 15.896.435 27.764-4.247 3.50DC5B4FABB" fill-rule="evenodd" stroke="#7d6c00" stroke-width="2.369" fill="#65c7ff"/>
  <path d="M252.877 354.555c-17.3-17.394-33.084-36.676-45.169-61.502 2.068-1.741 3.03-2.281 4.119-5.33 6.206.870C63B40A91" fill-rule="evenodd" fill="#8fc753"/>
  <path d="M205.48 175.248a3.569 3.569 0 1 1-7.138 0 3.569 3.569 0 0 1 7.138 0zm-3.724-8.224a3.569 3.569 0 1 1-7.138 0 3.569 3.569 0 0 1 7.138 0zm-4.346-7.604a3.569 3.569 0 1 1-7.137 0 3.569 3.569 0 0 1 7.138 0zm-2.947-7.448a3.569 3.569 0 1 1-7.138 0 3.569 3.569 0 0 1 7.138 0zm.465-8.068a3.569 3.569 0 1 1-7.138 0 3.569 3.569 0 0 1 7.138 0zm18.839-13.344a3.569 3.569 0 1 1-7.137 0 3.569 3.569 0 0 1 7.137 0z" fill-rule="evenodd" stroke="#000" stroke-width="1.11" fill="#fff"/>
  <path d="M206.721 131.801a3.569 3.569 0 1 1-7.138 0 3.569 3.569 0 0 1 7.138 0zm-7.758 4.655a3.569 3.569 0 1 1-7.138 0 3.569 3.569 0 0 1 7.138 0zm23.896-5.742a3.569 3.569 0 1 1-7.138 0 3.569 3.569 0 0 1 7.138 0zm9.931.776a3.569 3.569 0 1 1-7.138 0 3.569 3.569 0 0 1 7.138 0zm8.844-.465a3.569 3.569 0 1 1-7.137 0 3.569 3.569 0 0 1 7.137 0z" fill-rule="evenodd" stroke="#000" stroke-width="1.11" fill="#fff"/>
  <path d="M262.25 125.33a9.155 9.155 0 1 1-18.309 0 9.155 9.155 0 0 1 18.31 0z" fill-rule="evenodd" stroke="#7d6c00" stroke-width="1.112" fill="#fd0"/>
  <path d="M271.892 130.87a3.569 3.569 0 1 1-7.138 0 3.569 3.569 0 0 1 7.138 0zm9.311.775a3.569 3.569 0 1 1-7.137 0 3.569 3.569 0 0 1 7.137 0zm8.999-.465a3.569 3.569 0 1 1-7.137 0 3.569 3.569 0 0 1 7.137 0zm7.603-.31a3.569 3.569 0 1 1-7.138 0 3.569 3.569 0 0 1 7.138 0zm9.466 1.086a3.569 3.569 0 1 1-7.138 0 3.569 3.569 0 0 1 7.138 0zm7.448 4.654a3.569 3.569 0 1 1-7.138 0 3.569 3.569 0 0 1 7.138 0z" fill-rule="evenodd" stroke="#000" stroke-width="1.11" fill="#fff"/>
  <path d="M202.028 161.8c3.04 5.782 6.078 11.788 9.118 17.569h84.509l9.786-16.902c-5.709-3.928-9.637-6.968-17.0A4AD6BA18" fill-rule="evenodd" stroke="#ac0000" stroke-width="2.369" fill="#e40000"/>
  <path d="M317.823 144.37a3.569 3.569 0 1 1-7.138 0 3.569 3.569 0 0 1 7.138 0zm.62 8.379a3.569 3.569 0 1 1-7.138 0 3.569 3.569 0 0 1 7.138 0zm-2.638 7.758a3.569 3.569 0 1 1-7.138 0 3.569 3.569 0 0 1 7.138 0zm-3.259 6.362a3.569 3.569 0 1 1-7.138 0 3.569 3.569 0 0 1 7.138 0zm-3.878 8.069a3.569 3.569 0 1 1-7.138 0 3.569 3.569 0 0 1 7.138 0z" fill-rule="evenodd" stroke="#000" stroke-width="1.11" fill="#fff"/>
  <path d="M258.722 164.71a5.276 5.276 0 1 1-10.552 0 5.276 5.276 0 0 1 10.552 0z" fill-rule="evenodd" stroke="#000" stroke-width="1.111" fill="#fff"/>
  <path d="M259.767 152.573a6.362 6.362 0 1 1-12.723 0 6.362 6.362 0 0 1 12.723 0z" fill-rule="evenodd" stroke="#000" stroke-width="1.112" fill="#fff"/>
  <path d="M258.849 140.786a5.741 5.741 0 1 1-11.482 0 5.741 5.741 0 0 1 11.482 0z" fill-rule="evenodd" stroke="#000" stroke-width="1.112" fill="#fff"/>
  <path d="M251.172 116.317c0-.987-.03-4.441.039-4.58l-3.81-.07.109-3.386 3.306-.039.04-2.96h4.688v2.713h3.701l-.076 3.603-3.842-.039-.03 4.828-4.125-.07z" fill-rule="evenodd" stroke="#7d6c00" stroke-width="1.11" fill="#fd0"/>
  <path d="M210.716 179.372c-7.563-12.824-18.676-30.257-11.788-37.806 9.551-10.818 31.948-1.038 46.256-7.34 1.008FE5E0A44" stroke="#fd0" stroke-width="3.331" fill="none"/>
  <path d="M210.485 188.931c30.394-3.113 58.564-2.002 84.51 0 1.113-3.187 2.223-6.376 3.336-9.564-29.504-5.337-49.89-6.003-88.512-.666l.666 10.23z" fill-rule="evenodd" stroke="#7d6c00" stroke-width="2.369" fill="#fd0"/>
  <path d="M249.715 351.321c.218-1.524.435-2.945.654-4.47 3.022.814 5.328.5 7.838-.428l2.614-3.921-1.96-2.285c-0A54D01A20" fill-rule="evenodd" fill="#c76e2e"/>
  <path d="M235.483 390.48c7.537-12.236 60.008-36.808 109.248-89.866-50.12 48.26-81.446 60.106-122.463 89.571l13.215.295z" fill-rule="evenodd" stroke="#e9bf00" stroke-width="2.369" fill="#ffe100"/>
  <path d="M307.617 334.052a3.82 3.82 0 1 1-7.64 0 3.82 3.82 0 0 1 7.64 0zm36.672-37.186a4.33 4.33 0 1 1-8.66 00C65E38A54" fill-rule="evenodd" stroke="#68300e" stroke-width="1.11" fill="#9d4916"/>
  <path d="M212.386 287.556v-16.158l-1.643-1.368v-3.834l3.013-.273.547-18.075-1.917-1.096-.273-3.011s2.19.82 2.07BA5D6A24" fill-rule="evenodd" stroke="#a9a9a9" stroke-width="1.11" fill="#fff"/>
  <path d="M216.437 287.45v-12.734h7.132v13.243l-7.132-.51zm33.615 1.012l.254-12.99h6.368v12.734l-6.622.256zm3309161E3A13" fill-rule="evenodd"/>
  <path d="M220.328 220.752c4.382 4.928 4.655 4.928 4.655 4.928m27.93-4.928c.82 1.641 2.19 5.202 3.834 5.476m31.22-4.658s1.37 3.833 3.287 4.38" stroke="#a8a8a8" stroke-width="1.11" fill="none"/>
  <path d="M215.673 206.947c12.812-4.142-2.993-12.425-5.618 0-4.145.67-4.681 3.745-13.641 2.41-21.667 35.307-5.06986AAA18" fill-rule="evenodd" fill="#b97700"/>
  <path d="M219.244 188.842s10.433 2.81 10.433 7.223m-.003-8.022s7.222 3.208 8.826 6.017m48.152-4.81s-9.23 1.206-11.235 4.013m-2.818-3.213s-5.215 4.414-4.815 5.617m3.624 13.643c-.803-.402-4.413-5.217-3.612-11.236m-31.708 8.038s2.407-2.81 2.407-8.026m14.453-2.013l.402 11.636m10.028-1.597c0-.803 3.21-8.425-.402-12.037m-21.665-1.608s-2.809 7.624-.801 14.043m21.269-7.22s-4.414 1.202-6.421 3.21m-12.448-2.02c0-.4 4.815-1.203 6.42 1.606" stroke="#7d6c00" stroke-width="2.369" fill="none"/>
  <path d="M235.324 321.97c.204.103 3.995-.717 3.995-2.562 1.948-1.23.512-4.713.512-4.713l-3.585-.718-4.92-5.530B12557A3A" fill-rule="evenodd" fill="#c76e2e"/>
  <path d="M291.307 206.059c-12.811-4.142 2.994-12.425 5.618 0 4.145.67 4.682 3.745 13.642 2.409 21.667 35.308 02A74ADA39" fill-rule="evenodd" fill="#b97700"/>
  <path d="M292.604 303.635c-.204 0-3.278 2.253-3.278 2.253-1.469.58-2.937 1.162-4.406 1.743l-4.713.1-1.026-3.203A3C17A70" fill-rule="evenodd" fill="#c76e2e"/>
  <path stroke-linejoin="round" d="M198.777 338.547c-15.804-13.746-37.128-21.324-66.895-11.04 8.01 3.464 16.67 4.655 24.03 8.442l42.865 2.598z" fill-rule="evenodd" stroke="#004100" stroke-width="2.369" fill="#006800"/>
  <path d="M152.991 328.793c31.174.648 40.267 8.441 38.643 7.142" stroke="#00a400" stroke-linecap="round" stroke-width="2.221" fill="none"/>
  <path stroke-linejoin="round" d="M199.416 340.164c-9.31 1.839-22.19 10.83-25.978 10.39-10.176-1.183-19.685-5.307-29.55-8.443-4.1-1.300A0C04FA38" fill-rule="evenodd" stroke="#004100" stroke-width="2.221" fill="#006800"/>
  <path stroke-linejoin="round" d="M176.373 315.805s-11.69 1.622-16.886 1.948c-5.197-.324-12.751-5.165-21.107-13.964-4.362-4.777-14.2890E2FAB4AD2" fill-rule="evenodd" stroke="#004100" stroke-width="2.369" fill="#006800"/>
  <path stroke-linejoin="round" d="M151.694 197.282c11.798 17.21 9.959 33.448 8.118 53.906-.325-1.623-4.221-11.69-4.545-11.69-17.536-11.04-5.845-31.501-3.573-42.216z" fill-rule="evenodd" stroke="#004100" stroke-width="2.369" fill="#006800"/>
  <path stroke-linejoin="round" d="M161.43 223.914c28.577-14.396 17.535-32.69 22.732-46.76-19.809 14.721-22.406 30.415-22.731 46.76z" fill-rule="evenodd" stroke="#004100" stroke-width="2.369" fill="#006800"/>
  <path d="M165.322 220.343c3.573-10.067 10.717-27.278 11.365-27.278m-19.805 48.385c-.648-7.146-4.22-26.305-4.545-28.253" stroke="#00a400" stroke-linecap="round" stroke-width="2.221" fill="none"/>
  <path stroke-linejoin="round" d="M158.18 273.59c-15.915-.975-33.126-22.73-37.67-39.616-.002.215 5.843 3.68 4.87 4.547 22.84 10.173 250788C5CA01" fill-rule="evenodd" stroke="#004100" stroke-width="2.369" fill="#006800"/>
  <path d="M165.322 225.531c12.015-12.016 16.237-22.082 16.237-22.082" stroke="#00a400" stroke-linecap="round" stroke-width="2.221" fill="none"/>
  <g fill-rule="evenodd">
    <path d="M270.449 390.764l14.39.293c-47.773-44.737-139.303-64.217-126.576-146.545-13.118 89.279 74.79 97.501 112.186 146.252z" stroke="#e9bf00" stroke-width="2.369" fill="#ffe100"/>
    <path d="M165.766 226.828a4.584 4.584 0 1 1-9.169 0 4.584 4.584 0 0 1 9.169 0zm-2.807 25.212a4.33 4.33 0 1 1-07B6699A99" stroke="#68300e" stroke-width="1.11" fill="#9d4916"/>
  </g>
  <g fill-rule="evenodd" fill="#fff">
    <g stroke="#000" stroke-width="1.11">
      <path d="M222.07 372.287c-2.513-2.276-4.11-3.737-5.096-6.217l-14.98-1.63c-.067 2.854-.135 5.706-.204 8.559l20.28-.712z"/>
      <path stroke-linejoin="round" d="M112.323 362.195c8.7 1.606 21.82-.803 26.103 4.818 5.143 5.83-16.099 14.797-13.057 19.839 6.57 6.9520A5A499A28"/>
      <path d="M111.703 360.47a3.872 3.872 0 1 1-7.744 0 3.872 3.872 0 0 1 7.744 0zm-1.015 19.154a3.872 3.872 0 1 1-7.744 0 3.872 3.872 0 0 1 7.744 0z"/>
    </g>
    <g stroke="#000" stroke-width="1.11">
      <path d="M283.987 372.356c2.513-2.276 4.11-3.736 5.096-6.217l14.98-1.629c.067 2.853.134 5.705.204 8.558l-20.28-.712z"/>
      <path stroke-linejoin="round" d="M393.734 362.264c-8.7 1.606-21.82-.803-26.103 4.819-5.144 5.83 16.099 14.796 13.057 19.838-6.57 6.9508515C2AC6"/>
      <path d="M394.353 360.54a3.872 3.872 0 1 0 7.745 0 3.872 3.872 0 0 0-7.745 0zm1.016 19.154a3.872 3.872 0 1 0 7.744 0 3.872 3.872 0 0 0-7.744 0z"/>
    </g>
    <path d="M252.77 351.286c-3.446-.647-4.672-.462-7.008-.693-1.829 5.622-3.655 11.243-5.483 16.864 8.468.764 1607CDBB9AAF"/>
  </g>
  <g font-size="9" font-family="Trebuchet MS" font-weight="bold">
    <text y="344.274" x="448.605" transform="translate(-581.23 -248.83) scale(1.7767)">
      <tspan y="344.274" x="448.605">L</tspan>
    </text>
    <text y="344.622" x="453.64" transform="translate(-581.23 -248.83) scale(1.7767)">
      <tspan y="344.622" x="453.64">I</tspan>
    </text>
    <text y="345.056" x="456.678" transform="translate(-581.23 -248.83) scale(1.7767)">
      <tspan y="345.056" x="456.678">B</tspan>
    </text>
    <text y="345.49" x="462.58" transform="translate(-581.23 -248.83) scale(1.7767)">
      <tspan y="345.49" x="462.58">E</tspan>
    </text>
    <text y="345.576" x="468.309" transform="translate(-581.23 -248.83) scale(1.7767)">
      <tspan y="345.576" x="468.309">R</tspan>
    </text>
    <text y="345.403" x="473.952" transform="translate(-581.23 -248.83) scale(1.7767)">
      <tspan y="345.403" x="473.952">T</tspan>
    </text>
    <text y="344.535" x="479.247" transform="translate(-581.23 -248.83) scale(1.7767)">
      <tspan y="344.535" x="479.247">A</tspan>
    </text>
    <text y="344.274" x="485.497" transform="translate(-581.23 -248.83) scale(1.7767)">
      <tspan y="344.274" x="485.497">S</tspan>
    </text>
  </g>
  <path d="M161.43 339.844c10.718 1.299 25.656.323 32.15-.002m-48.388-36.705c9.093 7.144 28.901 11.364 28.576 11.364m11.364 1.962c-2.923-14.937-6.169-18.51-8.766-27.928m-46.436-16.899c15.263 6.82 17.536 11.364 27.277 18.183m5.521-14.931c1.3-18.512 3.898-23.383 8.444-27.605m-41.242-2.261c5.522 6.17 23.706 25.328 23.706 25.328m-7.467-42.225c6.82 4.87 6.82 22.404 6.82 22.404" stroke="#00a400" stroke-linecap="round" stroke-width="2.221" fill="none"/>
</svg>
