<svg xmlns="http://www.w3.org/2000/svg" height="480" width="640" id="flag-icon-css-ao">
  <g fill-rule="evenodd" stroke-width="1pt">
    <path fill="red" d="M0 0h640v243.574H0z"/>
    <path d="M0 236.428h640v243.574H0z"/>
  </g>
  <path d="M228.67 148.173c165.22 43.304 58.99 255.64-71.216 167.26l-8.817 13.545c76.628 54.658 152.57 10.66 1702252E7AFE" fill-rule="evenodd" fill="#ffec00"/>
  <path fill-rule="evenodd" fill="#ffec00" d="M169.955 330.827l21.73 10.125-10.142 21.696-21.73-10.125zm148.985-99.48h23.98v23.942h-23.98zm-11.684006F578ABA"/>
  <path d="M336.03 346.376c-1.21.418-6.23 12.39-9.675 18.248 1.797.51 2.56.596 3.625 1.025 13.655 4.8 20.384 9.0E2E7BFA7A" fill-rule="evenodd" fill="#fe0"/>
  <path d="M365.247 372.842c0 2.388-1.94 4.324-4.33 4.324s-4.333-1.936-4.333-4.324 1.94-4.325 4.332-4.325 4.33 04966D8AB7" fill-rule="evenodd"/>
  <path d="M324.47 363.667c-42.57-24.273-87.31-50.52-129.88-74.796-18.75-11.635-19.683-33.384-7.17-49.875 1.3020DB40D5A9A" fill-rule="evenodd" fill="#fe0"/>
  <path fill-rule="evenodd" fill="#ffec00" d="M297.174 305.457l17.85 15.986-16.01 17.824-17.85-15.986z"/>
  <path d="M331.54 348.82L206.58 273.3m109.53 58.093l-42.24-27.28m18.21 42.687l-42.75-24.755" stroke="#000" stroke-width="3.05" fill="none"/>
</svg>
