<svg xmlns="http://www.w3.org/2000/svg" height="480" width="640" id="flag-icon-css-bm">
  <path fill="#cf142b" d="M0 0h640v480H0z"/>
  <path fill="#00247d" d="M0 0h320v160H0z"/>
  <path d="M0 0v17.888L284.224 160H320v-17.888L35.776 0H0zm320 0v17.888L35.776 160H0v-17.888L284.224 0H320z" fill="#fff"/>
  <path d="M133.333 0v160h53.334V0h-53.334zM0 53.333v53.334h320V53.333H0z" fill="#fff"/>
  <path d="M0 64v32h320V64H0zM144 0v160h32V0h-32zM0 160l106.667-53.333h23.85L23.85 160H0zM0 0l106.667 53.333h-23.85L0 11.925V0zm189.483 53.333L296.15 0H320L213.333 53.333h-23.85zM320 160l-106.667-53.333h23.85L320 148.075V160z" fill="#cf142b"/>
  <path d="M553.83 148.26v135.513c0 36.197-72.36 47.957-72.36 47.957s-72.358-11.76-72.358-47.957V148.26h144.72z" fill="#fff"/>
  <path d="M553.83 283.773c0 36.197-72.36 47.957-72.36 47.957s-72.358-11.76-72.358-47.957c0 0 0-2.915 1.472-4.50B49BF9A90" fill="#2f8f22"/>
  <path d="M516.57 205.436s-2.516.427-5.745-.557c-3.23-.985-4.535-.585-5.537 0 0 0 1.31-2.596-1.88-4.645 0 0 1.00A6A9CA29" fill="#d40000" stroke="#000" stroke-width=".532" stroke-linejoin="round"/>
  <path d="M443.503 213.043s3.51 1.79 4.974-.382c0 0 1.915-3.648-2.288-4.914 0 0 2.287-2.745-.165-5.278 0 0-1.20377A1FACF" fill="#d40000" stroke="#000" stroke-width=".532" stroke-linejoin="round"/>
  <path d="M521.83 206.626c4.227-.398 5.72 3.17 5.72 3.17 2.215 5.198-2.49 7.973-2.49 7.973.36 1.165.4 2.692.4 0A86C5FA11" fill="#64b4d1" stroke="#000" stroke-width=".399"/>
  <path stroke-miterlimit="10" d="M475.078 252.65s-.54-3.258-1.107-5.368c0 0-1.153-3.31.815-5.636l2.44-2.807s1.515-2.04 3.393-2.318c0 020076AA56" fill="#fff" stroke="#00247d" stroke-width=".532"/>
  <path d="M457.84 286.547s-3.05.182-4.606.966c-1.555.784-2.75 1.628-4.545 2.774 0 0-.838 1.116-4.367.437 0 0-60D0438CAE6" fill="#d40000" stroke="#000" stroke-width=".532" stroke-linejoin="round"/>
  <path stroke-miterlimit="10" d="M434.796 256.37s-2.91-.2-3.39-2.454m-5.104-1.486s1.014-.04 1.932.884c0 0 .7 1.045 1.697.924" fill="none" stroke="#000" stroke-width=".532"/>
  <path d="M439.1 247.805s-1.513 0-2.35-.724c0 0-.88-.602-1.397.363 0 0-.797 1.367.678 1.97 0 0 1.835.925-1.07608BEDB8A5B"/>
  <path fill="#784421" stroke="#000" stroke-width=".399" d="M484.877 256.09l1.784-.603-11.658-40.264-.427.114z"/>
  <path d="M446.057 300.66s-2.75-1.547-5.024.263c0 0 .232-1.006 1.97-1.448 0 0 .94-2.654 3.572-2.413 0 0-1.076 1.286-2.512 2.373 0 0 1.516.156 1.994 1.224z"/>
  <path stroke-miterlimit="2.613" d="M436.368 307.054s-4.366-2.744-2.004-7.358c0 0 .688-1.327 2.004-1.056 0 0 2.72.844.598 4.615 0 0-1.070321C6CA4B" fill="#64b4d1" stroke="#00247d" stroke-width=".399"/>
  <path d="M443.904 293.39s-1.87 1.38-2.63 2.305c0 0-.76-.945-1.756-1.518 0 0 1.148-.15 1.757.365 0 0 .954-.924 2.63-1.152z"/>
  <path stroke-miterlimit="2.613" d="M449.436 310.19s4.874-1.235 3.978-6.272c0 0-.48-2.2-2.542-1.9 0 0-2.487.635-.868 3.836 0 0 .957 2.286-.568 4.337z" fill="#64b4d1" stroke="#00247d" stroke-width=".399"/>
  <path stroke-miterlimit="2.613" d="M471.46 203.645s3.14.963 4.845 1.658c0 0 4.545 2.05 10.317 0 0 0 3.903-1.546 4.424-1.658l-2.99 4.5530D0A2E4AE3" fill="#f5ce00" stroke="#000" stroke-width=".532"/>
  <path d="M451.32 304.174s.18-.24-.03-.347c0 0-.21-.09-.36.204 0 0-.507.807-.077 1.912 0 0 .407.765.21 1.565 0005D6B9A11" fill="#fff"/>
  <path d="M518.84 213.043s-3.51 1.79-4.974-.382c0 0-1.914-3.648 2.288-4.914 0 0-2.288-2.745.164-5.278 0 0 1.280008165AD0" fill="#d40000" stroke="#000" stroke-width=".532" stroke-linejoin="round"/>
  <path stroke-miterlimit="2.613" d="M491.048 210.21s-.09.723-.807.803c0 0-.748.242-1.184-.69 0 0-.05-.212-.062-.315-.05-.436-.2-1.69 1.104EEB7CA2A" fill="#f5ce00" stroke="#000" stroke-width=".532"/>
  <path stroke-miterlimit="2.613" d="M443.315 230.937v-7.54c0-.592.004-1.085.9-1.81.898-.723 1.855-1.87 3.23 1.39 0 0 2.692-2.836 3.59-3.0DEC62CAEC" fill="#e4cb5e" stroke="#000" stroke-width=".399"/>
  <path d="M496.71 240.446l.917-1.367 2.193-1.69s3.35 8.79 3.51 10.708v2.728s5.023 1.282 5.9 9.002l-4.146 7.64-6.5-3.62-1.873-1.366v-22.036z" fill="#784421" stroke="#000" stroke-width=".399"/>
  <path d="M435.156 300.797s.24-.317.075-.452c0 0-.104-.15-.387.21 0 0-1.32 1.477-.27 3.748 0 0 .12.324.33.218 0 0 .18-.09.014-.36 0 0-.94-1.87.24-3.363z" fill="#fff"/>
  <path stroke-miterlimit="10" d="M454.75 299.314s.198-.683-.28-1.407c0 0-.318-.523-.2-1.207" fill="none" stroke="#000" stroke-width=".532"/>
  <path stroke-miterlimit="10" d="M459.05 221.106s.017 1.885.556 3.273c.538 1.386 2.356 3.785 2.475 5.082" fill="none" stroke="#000" stroke-width=".399"/>
  <path d="M504.625 286.547s3.05.182 4.605.966c1.555.784 2.75 1.628 4.545 2.774 0 0 .837 1.116 4.366.437 0 0 6.0197BA8A17" fill="#d40000" stroke="#000" stroke-width=".532" stroke-linejoin="round"/>
  <path stroke-miterlimit="10" fill="none" stroke="#000" stroke-width=".399" d="M456.643 229.46l4.978 40.18m-3.828-40.268l5.583 37.453m-4.536-37.627l6.43 37.144"/>
  <path fill="#784421" stroke="#000" stroke-width=".399" d="M469.01 263.145l1.782-.603-11.66-40.265-.427.115z"/>
  <path stroke-miterlimit="10" fill="none" stroke="#000" stroke-width=".399" d="M462.407 227.723l11.775 29.752m-12.562-29.271l11.365 31.08"/>
  <path d="M442.967 308.542s-1.366-1.31-1.176-3.66c0 0 .08-.5-.17-.57 0 0-.268-.112-.307.47 0 0-.38 2.454 1.276 3.86 0 0 .11.142.294.1 0 0 .196-.042.083-.2z" fill="#fff"/>
  <path stroke-miterlimit="10" fill="none" stroke="#000" stroke-width=".399" d="M462.938 227.32l12.14 27.14m-15.46-25.454l7.446 36.55"/>
  <path stroke-miterlimit="2.613" d="M520.53 256.09c-5.32-3.018-6.485-9.713-6.485-9.713-1.286-6.665 1.316-11.942 1.316-11.942 3.44-7.268 0A7AA4FA4A" fill="#f5ce00" stroke="#000" stroke-width=".532"/>
  <path d="M497.627 239.08l-22.347 7.055-1.22 9.955c-5.302 7.682-16.078 9.045-16.078 9.045l8.384 8.927 16.11 3.081A30FA9C" fill="#784421" stroke="#000" stroke-width=".243"/>
  <path stroke-miterlimit="10" d="M474.368 253.59s14.718-4.597 23.494-8.287m-30.559 16.677s18.362-3.32 31.28-10.677l4.746-3.205" fill="none" stroke="#000" stroke-width=".399"/>
  <path stroke-miterlimit="10" d="M503.33 250.826l-5.105 3.634s-20.535 9.47-36.17 9.722m36.165-2.992s-15.785 8.127-24.836 8.248" fill="none" stroke="#000" stroke-width=".399"/>
  <path d="M517.045 238.44s4.705-2.167 6.938 0c0 0 3.11-1.926 6.38 0 0 0 3.11 2.033 5.263 4.27 0 0 1.515 1.3.950AA0BDAAEF" fill="#d40000" stroke="#000" stroke-width=".532" stroke-linejoin="round"/>
  <path stroke-miterlimit="10" d="M437.1 263.87s.657-3.118 3.648-1.89c0 0 1.017-5.108 6.46-5.29 5.442-.18 5.74 5.31 5.74 5.67 0 0 1.6-0B2769AAC7" fill="#fff" stroke="#00247d" stroke-width=".532"/>
  <path stroke-miterlimit="2.613" d="M493.76 204.88s-4.966-.22-4.787 4.927" fill="none" stroke="#000" stroke-width=".532"/>
  <path stroke-miterlimit="2.613" d="M526.426 259.556c-8.643-2.654-11.005-11.942-11.005-11.942-1.764-6.967 1.077-13.058 1.077-13.058 3.940939096AE2" fill="#f5ce00" stroke="#000" stroke-width=".532"/>
  <path stroke-miterlimit="2.613" d="M502.038 283.17s1.614-.22 1.614 1.22c0 0-.098 2.104-2.66 1.644 0 0-2.528-.553-1.63-3.378 0 0 .597-1.03AD43DA43" fill="#f5ce00" stroke="#000" stroke-width=".532"/>
  <path stroke-miterlimit="2.613" d="M502.173 283.16s1.784-.323 2.9 1.8c0 0 .658 1.366.764 2.157m.583-7.584s-1.788.31-.868 2.838c.867 2.384 2.478 3.165 2.956 3.497" fill="none" stroke="#000" stroke-width=".532"/>
  <path stroke-miterlimit="2.613" d="M471.458 210.208s.088.724.806.805c0 0 .75.24 1.186-.69 0 0 .05-.213.062-.316.05-.436.2-1.69-1.157-2.0F3DC4AA04" fill="#f5ce00" stroke="#000" stroke-width=".532"/>
  <path stroke-miterlimit="2.613" d="M468.746 204.88s4.966-.22 4.786 4.927" fill="none" stroke="#000" stroke-width=".532"/>
  <path stroke-miterlimit="2.613" d="M436.08 259.556c8.643-2.654 11.005-11.942 11.005-11.942 1.764-6.967-1.077-13.058-1.077-13.058-3.947-063CA91A7D" fill="#f5ce00" stroke="#000" stroke-width=".532"/>
  <path stroke-miterlimit="2.613" d="M460.468 283.17s-1.615-.22-1.615 1.22c0 0 .1 2.104 2.662 1.644 0 0 2.527-.553 1.63-3.378 0 0-.598-1.09F2F7EA24" fill="#f5ce00" stroke="#000" stroke-width=".532"/>
  <path stroke-miterlimit="2.613" d="M460.333 283.16s-1.785-.323-2.9 1.8c0 0-.66 1.366-.765 2.157m-.581-7.585s1.787.31.867 2.838c-.868 2.383-2.478 3.164-2.957 3.496m22.935-76.35s4.32-2.705 8.733.29" fill="none" stroke="#000" stroke-width=".532"/>
  <path stroke-miterlimit="2.613" d="M452.35 235.943s.6-2.412-2.152-6.635c0 0-1.795-3.86-2.752-6.332m6.221-2.654s1.557 3.794 2.093 5.493c0 0 1.932 4.76 2.342 5.725" fill="none" stroke="#000" stroke-width=".399"/>
  <path stroke-miterlimit="10" d="M454.444 238.597s1.624 1.75 1.44 4.704m-6.824-6.574s1.796.865 1.677 5.63c0 0-.18 3.478 2.51 5.227m-4.429 1.226s5.616-.613 5.925 2.845c0 0 .12 3.317 2.033 3.68 0 0 2.867.27 3.435 2.925m-9.625-5.61s.987 1.478 1.944 2.11m5.263-5.76s1.427 2.163 1.696 3.43m4.485-29.455s1.316 1.79 2.592 2.634m2.671 7.961s2.79 1.368 2.313 8.405c0 0-.36 4.126.798 6.38" fill="none" stroke="#000" stroke-width=".399"/>
  <path d="M456.09 228.796l.178.663s5.004.21 7.706-3.197l-.29-.654s-4.366-.222-7.595 3.186z" fill="#784421" stroke="#000" stroke-width=".399"/>
  <path stroke-miterlimit="10" d="M474.116 255.643s17.307-5.16 23.977-8.168" fill="none" stroke="#000" stroke-width=".399"/>
  <path fill="#784421" stroke="#000" stroke-width=".243" d="M472.26 223.724l-.202-.568 8.56-3.257.202.572z"/>
  <path stroke-miterlimit="10" fill="none" stroke="#000" stroke-width=".399" d="M472.985 223.448l5.682 27.855m-4.697-28.229l6.51 27.727m-5.402-28.148l7.118 27.525m-4.326-28.585l9.702 20.66m-8.419-21.147l10.347 20.54m-9.397-20.901l11.192 20.334m-13.012 10.445l4.392-1.447m-7.717-1.309s12.873-3.76 22.616-7.69m-22.789 9.1s16.315-4.317 22.788-7.467m-17.809 20.736l.854 2.613 2.336-.747-.798-2.59m4.197-1.153l.855 2.612 2.336-.747-.798-2.59m-13.466-14.71l-.202-3.536 21.392-6.496 1.157 2.975m-13.477.767l1.166 3.122m6.314-5.393l1.36 2.97m.412-3.508l1.274 2.81m.42-3.326l1.34 2.936"/>
  <path stroke-miterlimit="10" fill="none" stroke="#000" stroke-width=".399" d="M496.47 236.104l2.353-1.327.997 2.613m-2.193-1.938l1.198 2.705"/>
  <path stroke-miterlimit="10" d="M444.575 276.173s-4.187-4.24 0-8.393c0 0-4.545-2.223-3.827-5.8m11.304 17.552s-4.336.59-3.05-7.852c0 0-1.795 3.347-2.413 5.067-.464 1.288-.158 3.367 1.678 4.49.733.45 4.62 1.462 5.877-1.113m-6.937-13.511s-1.764 1.63-.508 4.615m2.331-4.223s.21 2.895 1.646 4.524m-.406-5.669s-.012 3.407 2.44 5.518m-1.22-6.695s.024 3.83 2.865 6.183m11.245-.574s1.434-3.137 4.454-2.985c0 0-1.465.663-1.435 2.13 0 0-.18 2.423 2.42 2.664 0 0 2.095.273 3.14-.873" fill="none" stroke="#00247d" stroke-width=".532"/>
  <path stroke-miterlimit="10" d="M472.746 284.617s-7.446-3.498-6.67-8.534c0 0 .3-3.076 3.308-4.524m-1.572 3.196s-.658 2.172.808 3.68m.866-5.157s-.897 2.382.598 4.162m1.196-5.32s-1.076 1.972.21 3.75m-6.998 9.26s4.067 3.528 7.237 3.558m-8.523-2.443s3.8 3.076 6.177 3.53m-7.613-2.659s4.7 4.135 7.613 4.437m11.497 3.8s-4.618 2.49-1.038 5.12m-1.892-7.863s5.233-2.745 7.505-3.77m-5.621 5.187s7.566-4.615 9.808-5.61m-5.922 5.911s6.46-4.312 9.93-6.182m-5.653 6.031s4.456-3.498 8.763-6.03m1.525-4.374s-2.183-3.197-9.36 0c0 0 2.63-2.388 7.835-4.24m7.245-13.733s.588 2.592-.04 4.16" fill="none" stroke="#00247d" stroke-width=".532"/>
  <path stroke-miterlimit="10" d="M492.364 278.375s1.495-2.202 5.293-3.287c0 0 1.024 2.563 3.978 1.99 0 0 4.455-.875 3.11-5.76 0 0-.927-3.65-6.016-4.01m15.137-6.118s5.173.93 5.084 5.152c0 0 .418 6.333-6.25 7.57m5.515-10.122s1.42-3.088 4.59-4.355m-3.851-1.808s1.413 2.265 2.38 2.595m-3.119-.786s1.332 1.627 1.78 1.9m-2.212-.332s.7 1.036 1.323 1.362m-27.939-25.846s1.007-1.633 3.51-.94m10.217 13.188s1.585-6.612 7.118-4.17m-2.244-.541s.57-3.05-.807-4.6M506 243.844s.705 1.26.102 2.29" fill="none" stroke="#00247d" stroke-width=".532"/>
  <path stroke-miterlimit="2.613" d="M517.245 311.397s6.22-2.835 4.306-7.66c0 0-.59-1.63-1.97-1.508 0 0-2.398.12-1.918 3.316 0 0 .72 3.137-.417 5.85z" fill="#64b4d1" stroke="#00247d" stroke-width=".399"/>
  <path d="M519.498 308.542s1.367-1.31 1.176-3.66c0 0-.08-.5.17-.57 0 0 .268-.113.308.47 0 0 .38 2.453-1.276 3.86 0 0-.113.14-.296.1 0 0-.196-.042-.082-.2z" fill="#fff"/>
  <path stroke-miterlimit="2.613" d="M526.097 307.054s4.366-2.744 2.003-7.358c0 0-.688-1.327-2.003-1.056 0 0-2.722.844-.6 4.615 0 0 1.078 2.443.6 3.8z" fill="#64b4d1" stroke="#00247d" stroke-width=".399"/>
  <path d="M527.188 300.796s-.24-.316-.075-.452c0 0 .105-.15.388.21 0 0 1.322 1.478.27 3.748 0 0-.12.324-.328.200882FCA62" fill="#fff"/>
  <path stroke-miterlimit="2.613" d="M513.028 310.19s-4.874-1.235-3.978-6.272c0 0 .48-2.2 2.542-1.9 0 0 2.487.635.868 3.836 0 0-.957 2.286.568 4.337z" fill="#64b4d1" stroke="#00247d" stroke-width=".399"/>
  <path d="M511.144 304.174s-.18-.24.03-.347c0 0 .21-.09.36.204 0 0 .507.807.077 1.912 0 0-.406.765-.208 1.565 099080FA9D" fill="#fff"/>
  <path d="M516.527 300.66s2.75-1.547 5.024.263c0 0-.232-1.006-1.97-1.448 0 0-.94-2.654-3.572-2.413 0 0 1.077 1083AD1BA78"/>
  <path stroke-miterlimit="10" d="M507.715 299.314s-.2-.683.28-1.407c0 0 .318-.523.2-1.207m19.575-40.33s2.912-.2 3.39-2.454m5.104-1.486s-1.014-.04-1.93.884c0 0-.7 1.045-1.698.924" fill="none" stroke="#000" stroke-width=".532"/>
  <path d="M523.465 247.805s1.515 0 2.353-.724c0 0 .877-.602 1.395.363 0 0 .798 1.367-.677 1.97 0 0-1.835.925 109EE1BEA7E"/>
  <path stroke-miterlimit="2.613" d="M525.526 211.188s.684-.93.404-3.725 2.147-3.116 3.08-2.313c0 0 .964.836.077 2.608-.512 1.022-1.33 2.347-3.56 3.43z" fill="#64b4d1" stroke="#00247d" stroke-width=".399"/>
  <path d="M526.438 209.102s.91-.978.475-3.1c0 0-.003-.21.117-.224 0 0 .22-.056.258.153 0 0 .49 2.264-.538 3.494 0 0-.187.18-.313 0 0 0-.137-.13 0-.322z" fill="#fff"/>
  <path stroke-miterlimit="2.613" d="M524.75 210.172s-.07-1.127-2.018-3.04c-1.947-1.915-.346-3.68.846-3.664 0 0 1.235.02 1.68 1.9.257 1.09.474 2.592-.507 4.804z" fill="#64b4d1" stroke="#00247d" stroke-width=".399"/>
  <path d="M524.448 207.723s.035-1.38-1.728-2.82c0 0-.143-.168-.06-.257 0 0 .13-.187.3-.042 0 0 1.898 1.52 1.9401900A8A89" fill="#fff"/>
  <path stroke-miterlimit="2.613" d="M522.107 209.325s-.51-.918-2.913-1.77c-2.405-.854-1.755-2.954-.743-3.404 0 0 1.05-.46 2.175.947.65.814 1.43 1.99 1.482 4.228z" fill="#64b4d1" stroke="#00247d" stroke-width=".399"/>
  <path d="M521.053 207.638s-.546-1.265-2.748-1.82c0 0-.2-.09-.163-.206 0 0 .04-.226.255-.167 0 0 2.357.567 3.00EB1F36A7E" fill="#fff"/>
  <path stroke-miterlimit="2.613" d="M523.613 210.244s-1.12.315-3.696-.927c-2.574-1.242-3.702.92-3.25 2.076 0 0 .47 1.197 2.464.987 1.152-.122 2.693-.423 4.483-2.136z" fill="#64b4d1" stroke="#00247d" stroke-width=".399"/>
  <path d="M517.626 211.065s1.168.72 3.286-.1c0 0 .216-.04.25.075 0 0 .097.208-.113.284 0 0-2.254.898-3.702.11 0 0-.22-.153-.055-.31 0 0 .112-.162.333-.06z" fill="#fff"/>
  <path stroke-miterlimit="2.613" d="M519.846 202.107s1.286.623.987 2.13" fill="none" stroke="#000" stroke-width=".532"/>
  <path stroke-miterlimit="10" d="M525.528 202.318s.503 1.592-.052 2.45" fill="none" stroke="#000" stroke-width=".532"/>
  <path stroke-miterlimit="2.613" d="M436.818 211.188s-.684-.93-.405-3.725c.28-2.795-2.146-3.116-3.08-2.313 0 0-.964.836-.077 2.608.512 1.022 1.33 2.347 3.562 3.43z" fill="#64b4d1" stroke="#00247d" stroke-width=".399"/>
  <path d="M435.905 209.102s-.91-.978-.475-3.1c0 0 .003-.21-.117-.224 0 0-.22-.056-.258.153 0 0-.49 2.264.538 3.494 0 0 .187.18.313 0 0 0 .138-.13 0-.322z" fill="#fff"/>
  <path stroke-miterlimit="2.613" d="M437.592 210.172s.072-1.127 2.02-3.04c1.946-1.915.345-3.68-.847-3.664 0 0-1.235.02-1.68 1.9-.257 1.09-.474 2.592.507 4.804z" fill="#64b4d1" stroke="#00247d" stroke-width=".399"/>
  <path d="M437.896 207.723s-.035-1.38 1.728-2.82c0 0 .143-.168.06-.257 0 0-.13-.187-.3-.042 0 0-1.898 1.52-1.9070E2AFA48" fill="#fff"/>
  <path stroke-miterlimit="2.613" d="M440.236 209.325s.51-.918 2.913-1.77c2.404-.854 1.754-2.954.742-3.404 0 0-1.05-.46-2.174.947-.65.814-1.43 1.99-1.482 4.228z" fill="#64b4d1" stroke="#00247d" stroke-width=".399"/>
  <path d="M441.29 207.638s.546-1.265 2.748-1.82c0 0 .2-.09.163-.206 0 0-.04-.226-.254-.167 0 0-2.357.567-3.0940A09306AC6" fill="#fff"/>
  <path stroke-miterlimit="2.613" d="M438.73 210.244s1.12.315 3.696-.927c2.574-1.242 3.702.92 3.25 2.076 0 0-.47 1.197-2.464.987-1.15-.122-2.692-.423-4.482-2.136z" fill="#64b4d1" stroke="#00247d" stroke-width=".399"/>
  <path d="M444.717 211.065s-1.168.72-3.286-.1c0 0-.215-.04-.25.075 0 0-.096.208.114.284 0 0 2.254.898 3.7.11 0 0 .22-.153.056-.31 0 0-.11-.162-.333-.06z" fill="#fff"/>
  <path stroke-miterlimit="2.613" d="M442.497 202.107s-1.286.623-.987 2.13" fill="none" stroke="#000" stroke-width=".532"/>
  <path stroke-miterlimit="10" d="M436.815 202.318s-.503 1.592.052 2.45" fill="none" stroke="#000" stroke-width=".532"/>
  <path d="M492.633 187.69s.815 2.327.463 4.434c-.314 1.885.115 2.372.796 2.745.59.322 1.955-.243 2.12-1.72 0 0 1.614 3.15-1.526 5.277 0 0-2.258 1.388-4.17-.467-.676-.653-.973-2.458-.644-4.132 0 0 .494-2.27-.33-4.6 0 0 1.286 1.373.958 4.11 0 0-.658 4.908 2.975 4.667 0 0 2.512-.03 2.587-3.076 0 0-.942 1.084-2.108.723-.827-.256-1.586-1.056-1.45-2.316.14-1.32.508-3.625.33-5.646zm-4.117 8.063s-.2 3.88-3.748 4.825c0 0 .5-.703-.3-2.633 0 0-.776-1.126-.716-2.875 0 0-1.13.884.16 3.216.777 1.408.1 3.097-.14 3.157-.24.06 5.86-.805 4.744-5.69zm-4.606-3.86s-.857-.965-.917-3.197c-.06-2.232-.478-2.774-.777-3.036 0 0 .438 1.93.318 3.116-.12 1.186.08 1.87.24 2.433 0 0-1.934.3-3.15-2.515-1.163-2.69-2.333-2.473-2.91-2.453 0 0 .673.075 2.032 2.533 1.358 2.457 1.735 2.957 5.164 3.118zm-9.05-5.831s1.116 2.674 1.156 4.082c0 0-2.592-.865-3.29-3.117 0 0-2.77.945-1.754 4.142 0 0-2.392-.845-3.47-2.796 0 0 1.337 1.005 2.573 1.448 0 0-.14-2.574 3.09-3.54 0 0 .48 2.306 2.093 2.856 0 0-.12-1.447-.398-3.076zm4.266-4.582s.897 1.306 2.73 1.366c.878.03 1.82-.17 2.733-1.367 0 0-.12 2.27-2.733 2.29 0 0-2.73.1-2.73-2.29zm-11.299 15.53s1.36 1.236 1.644 1.643c0 0 .958.935 1.78-.274 0 0 1.048-1.934 2.333-1.883 0 0-.912.634-1.937 2.46 0 0-.276.676-1.04.75-.356.037-.806.152-1.488-.56 0 0-.59-.72-1.29-2.137zm14.03-24.64c-2.73 0-.43 2.112-.43 2.112.06 3.347-2.625 4.377-4.454 3.408-1.83-.97-.4-3.408-.4-3.408s-2.062 1.356-.746 3.317c1.315 1.96 4.764 1.084 6.03-.725 1.266 1.81 4.715 2.684 6.03.724 1.317-1.962-.747-3.318-.747-3.318s1.43 2.437-.398 3.408c-1.83.97-4.516-.06-4.456-3.408 0 0 2.302-2.112-.43-2.11zm1.655-3.618s.956 1.63.747 4.1c0 0 .866-2.472-.748-4.1zm-8.372 3.83s-.21-1.78-1.945-1.93c0 0 1.465 1.056 1.944 1.93zm13.456 0s.21-1.78 1.944-1.93c0 0-1.466 1.056-1.944 1.93zm-16.209 2.714s1.376.423 2.213-.603c0 0-1.585.422-2.213.603zm-4.455-10.916s1.6-.182 3.2 2.2c0 0-1.586.845-1.974 1.358 0 0 0-.784.777-1.478 0 0-.3-1.206-2.003-2.08zm26.794 0s-1.6-.182-3.2 2.2c0 0 1.586.845 1.974 1.358 0 0 0-.784-.777-1.478 0 0 .298-1.206 2.003-2.08zm-12.35 1.777s1.435.394 3.23-.602c0 0 2.212-1.176 3.618 0 0 0-1.227-.545-3.59.602 0 0-2.362 1.295-3.258 0z"/>
  <path d="M483.87 167.606s1.227-2.15 4.965-1.723c0 0-1.017 2.99-4.964 1.723z" fill="#fff"/>
  <ellipse cx="486.449" cy="166.939" rx=".739" ry=".937" fill="#784421"/>
  <ellipse cx="486.449" cy="166.939" rx=".439" ry=".575"/>
  <path d="M475.856 163.022s2.362.15 3.798 1.056c0 0 1.525.905 3.26-.393 0 0 1.885-1.085 3.096-2.593 0 0-2.887 0D95ED3AB4"/>
  <path d="M479.18 167.606s-1.227-2.15-4.965-1.723c0 0 1.017 2.99 4.965 1.723z" fill="#fff"/>
  <ellipse cx="476.601" cy="166.939" rx=".739" ry=".937" fill="#784421"/>
  <ellipse cx="476.601" cy="166.939" rx=".439" ry=".575"/>
  <path d="M554.063 148.26v135.513c0 36.197-72.36 47.957-72.36 47.957s-72.36-11.76-72.36-47.957V148.26h144.72z" fill="none" stroke="#000" stroke-width="1.28"/>
</svg>
