<svg xmlns="http://www.w3.org/2000/svg" height="480" width="640" id="flag-icon-css-br">
  <g stroke-width="1pt">
    <path fill-rule="evenodd" fill="#229e45" d="M0 0h640v480H0z"/>
    <path d="M321.406 435.935l301.483-195.67-303.308-196.2L17.11 240.734l304.296 195.2z" fill-rule="evenodd" fill="#f8e509"/>
    <path d="M452.77 240.005c0 70.328-57.103 127.34-127.544 127.34-70.442 0-127.544-57.012-127.544-127.34s57.104-01759CFA14" fill-rule="evenodd" fill="#2b49a3"/>
    <path fill="#ffffef" fill-rule="evenodd" d="M283.3 316.274L279.357 314l-4.093 2.025.917-4.55-3.162-3.332 4.52-.53 2.124-4.08 1.894 4.22 4.46.81-3.345 3.13m86.098 26.224l-3.94-2.274-4.092 2.025.916-4.55-3.16-3.332 4.52-.53 2.122-4.08 1.894 4.22 4.46.81-3.345 3.13m-36.215-29.993l-3.404-1.964-3.536 1.748.792-3.93-2.73-2.88 3.904-.457 1.834-3.523 1.636 3.645 3.853.7-2.89 2.705m86.865-8.477l-3.342-1.928-3.472 1.718.777-3.858-2.68-2.827 3.833-.45 1.8-3.46 1.607 3.58 3.783.686-2.837 2.657M330.37 265.03l-3.94-2.273-4.093 2.025.916-4.55-3.162-3.332 4.522-.53 2.123-4.08 1.894 4.22 4.46.81-3.346 3.13M225.13 225.52l-3.94-2.274-4.094 2.025.916-4.548-3.16-3.333 4.52-.53 2.122-4.08 1.894 4.22 4.46.81-3.345 3.13m13.283 57.14l-3.94-2.275-4.094 2.025.916-4.548-3.16-3.334 4.52-.53 2.123-4.08 1.894 4.22 4.46.81-3.345 3.132m131.954-67.33l-3.48-2.007-3.616 1.788.81-4.017-2.794-2.944 3.994-.47 1.875-3.603 1.673 3.728 3.94.715-2.955 2.766m-6.665 38.24l-2.74-1.582-2.85 1.408.64-3.164-2.2-2.32 3.145-.368 1.477-2.838 1.318 2.936 3.103.563-2.327 2.18m-142.199 50.422l-2.63-1.518-2.734 1.352.61-3.037-2.11-2.225 3.02-.354 1.416-2.723 1.264 2.818 2.978.54-2.233 2.09m200.14 15.164l-2.144-1.135-2.227 1.01.5-2.27-1.72-1.666 2.46-.265 1.154-2.038 1.03 2.108 2.426.404-1.82 1.563"/>
    <path fill="#ffffef" fill-rule="evenodd" d="M219.263 287.603l-2.63-1.518-2.734 1.352.61-3.037-2.11-2.225 3.02-.354 1.416-2.723 1.264 2.818 2.978.54-2.233 2.09"/>
    <path fill="#ffffef" fill-rule="evenodd" d="M219.263 287.603l-2.63-1.518-2.734 1.352.61-3.037-2.11-2.225 3.02-.354 1.416-2.723 1.264 2.818 2.978.54-2.233 2.09m42.299 3.048l-2.63-1.52-2.733 1.353.61-3.037-2.11-2.225 3.02-.354 1.416-2.722 1.265 2.817 2.978.54-2.233 2.09m-4.786 16.989l-2.63-1.518-2.734 1.352.612-3.038-2.11-2.225 3.017-.354 1.417-2.724 1.265 2.817 2.977.54-2.233 2.09m87.381-22.301l-2.63-1.52-2.733 1.353.61-3.036-2.11-2.225 3.018-.353 1.417-2.724 1.265 2.817 2.977.54-2.233 2.09m-25.099 3.048l-2.63-1.518-2.734 1.352.612-3.037-2.11-2.225 3.018-.353 1.417-2.724 1.264 2.817 2.98.54-2.234 2.09m-68.8-5.838l-1.648-.952-1.714.847.384-1.902-1.323-1.394 1.89-.222.89-1.706.792 1.765 1.864.34-1.4 1.31m167.838 45.384l-2.63-1.518-2.733 1.35.612-3.035-2.11-2.226 3.017-.354 1.417-2.724 1.264 2.817 2.978.54-2.233 2.09m-20.832 5.844l-2.178-1.26-2.264 1.122.507-2.522-1.748-1.848 2.5-.294 1.174-2.262 1.048 2.34 2.466.45-1.85 1.735m10.371 2.297l-2.03-1.173-2.108 1.044.472-2.344-1.63-1.718 2.33-.274 1.093-2.103.976 2.177 2.296.417-1.723 1.615m29.11-22.761l-1.955-1.13-2.03 1.006.454-2.257-1.567-1.655 2.243-.262 1.053-2.024.94 2.092 2.21.402-1.658 1.553M394.24 327.69l-2.554-1.395-2.652 1.24.594-2.786-2.05-2.043 2.93-.325 1.376-2.5 1.227 2.586 2.89.496-2.167 1.92m.549 14.247l-2.33-1.395-2.418 1.24.542-2.786-1.87-2.044 2.673-.324 1.255-2.5 1.12 2.586 2.635.496-1.977 1.918m-18.929-23.055l-1.955-1.13-2.032 1.006.455-2.257-1.568-1.653 2.242-.263 1.054-2.025.94 2.093 2.213.402-1.66 1.554m-17.781 2.273l-1.954-1.13-2.03 1.006.454-2.257-1.57-1.653 2.244-.263 1.053-2.025.94 2.093 2.21.402-1.658 1.554m-30.408-24.59l-1.955-1.128-2.03 1.004.454-2.257-1.568-1.654 2.243-.264 1.053-2.024.94 2.094 2.212.402-1.66 1.553m3.734 57.024l-1.656-.956-1.72.85.386-1.91-1.33-1.4 1.9-.223.893-1.715.795 1.772 1.874.34-1.407 1.316m-46.131-86.63l-3.942-2.274-4.093 2.025.917-4.548-3.162-3.334 4.52-.53 2.124-4.08 1.894 4.22 4.46.81-3.345 3.132"/>
    <path d="M444.368 285.817c1.944-5.083 4.45-12.75 5.783-19.786-67.742-59.508-143.26-89.993-238.68-83.72-3.422 0462FC2A46" fill-rule="evenodd" fill="#fff"/>
    <path d="M413.914 252.36l2.42 1.323c-.38.858-.48 1.61-.31 2.25.18.645.625 1.208 1.335 1.688.75.515 1.424.74 20C7CA74A8D" fill="#309e3a"/>
    <g stroke-opacity=".502">
      <path d="M216.5 191.28c.04-1.43.284-2.62.736-3.58a6.649 6.649 0 0 1 1.346-1.884c.566-.552 1.18-.956 1.844-1.201A5AA8A4A" fill="#309e3a"/>
      <path d="M219.414 191.252c-.043 1.586.29 2.8.997 3.643.708.837 1.625 1.27 2.748 1.3 1.122.03 2.055-.35 2.794-00C17F4AD2" fill="#f7ffff"/>
    </g>
    <g stroke-opacity=".502">
      <path d="M233.052 198.51l.163-14.017 5.933.07c1.494.018 2.574.157 3.244.42.677.257 1.214.71 1.613 1.36s.593 10B190F4A63" fill="#309e3a"/>
      <path d="M235.976 190.455l2.086.024c1.353.016 2.198-.03 2.536-.142.337-.112.603-.305.796-.584s.293-.627.3-1.004322FBA3A" fill="#fff"/>
    </g>
    <g stroke-opacity=".502">
      <path d="M249.003 185.188l5.147.26c1.16.06 2.04.195 2.64.405a4.68 4.68 0 0 1 2.036 1.396c.553.646.958 1.426 1.218 2.34.26.907.356 2.015.29 3.326-.058 1.153-.252 2.138-.58 2.96-.4 1-.938 1.797-1.618 2.396-.51.453-1.19.79-2.034 1.016-.632.166-1.468.222-2.51.17l-5.295-.27.706-14z" fill="#309e3a"/>
      <path d="M251.706 187.685l-.468 9.274 2.103.105c.786.042 1.357.025 1.71-.046.46-.093.85-.268 1.16-.526.32-.260F5CD3DA0D" fill="#fff"/>
    </g>
    <g stroke-opacity=".502">
      <path d="M317.63 210.22l3.26-13.63 4.4 1.06c1.666.402 2.737.732 3.21.99.73.392 1.274.996 1.634 1.81.36.81.41 031F76FA8A" fill="#309e3a"/>
      <path d="M323.086 199.552l-.926 3.868 1.5.362c1.082.26 1.82.364 2.218.308a1.85 1.85 0 0 0 1.581-1.448c.12-.490D9F167ADB" fill="#fff"/>
    </g>
    <g stroke-opacity=".502">
      <path d="M330.606 214.106l4.64-13.22 5.598 1.98c1.408.498 2.387.98 2.937 1.445.56.463.923 1.064 1.093 1.807s.0FBE986A54" fill="#309e3a"/>
      <path d="M335.938 207.426l1.967.695c1.276.452 2.09.68 2.445.683.355.005.67-.093.943-.295.272-.2.478-.5.616-.80AE2C5DACD" fill="#fff"/>
    </g>
    <g stroke-opacity=".502">
      <path d="M347.01 213.6c.424-1.363.982-2.444 1.673-3.24a6.58 6.58 0 0 1 1.808-1.45c.696-.377 1.397-.598 2.102-047A5EAAB3" fill="#309e3a"/>
      <path d="M349.826 214.385c-.47 1.514-.48 2.773-.026 3.778.455.996 1.22 1.663 2.293 2 1.073.334 2.07.223 2.99608C2CADA36" fill="#fff"/>
    </g>
    <g stroke-opacity=".502">
      <path d="M374.305 233.12l6.415-12.45 5.27 2.736c1.326.69 2.23 1.3 2.71 1.84.49.532.768 1.18.835 1.94s-.092 1.00698BAA8E" fill="#309e3a"/>
      <path d="M380.503 227.226l1.853.962c1.2.625 1.977.962 2.33 1.016.35.054.675 0 .973-.162.296-.16.54-.428.733-.0205931A3B" fill="#fff"/>
    </g>
    <g stroke-opacity=".502">
      <path d="M426.107 258.704c.797-1.183 1.642-2.056 2.536-2.62a6.609 6.609 0 0 1 2.146-.862 5.45 5.45 0 0 1 2.2-09B4B85A68" fill="#309e3a"/>
      <path d="M428.578 260.254c-.886 1.316-1.256 2.518-1.112 3.61.15 1.087.69 1.945 1.62 2.578.932.632 1.92.815 2.09E4EFDA5A" fill="#fff"/>
    </g>
    <path d="M301.824 204.523l2.248-9.84 7.268 1.675-.378 1.662-5.287-1.217-.504 2.18 4.926 1.136-.382 1.655-4.910AD4BDFA3C" fill="#309e3a"/>
  </g>
</svg>
