<svg xmlns="http://www.w3.org/2000/svg" xmlns:xlink="http://www.w3.org/1999/xlink" height="480" width="640" id="flag-icon-css-cc">
  <defs>
    <path d="M0-360l69.42 215.845 212.04-80.3L155.987-35.604l194.986 115.71-225.88 19.65 31.104 224.592L0 160l-1507911BAA8D" id="a"/>
    <path d="M0-210L54.86-75.508l144.862 10.614L88.765 28.842l34.67 141.052L0 93.334l-123.435 76.56 34.67-141.052-110.957-93.736L-54.86-75.508z" id="b"/>
  </defs>
  <path fill="green" d="M0 0h640v480H0z"/>
  <circle cx="320" cy="240" r="66.667" fill="#ffe000"/>
  <circle cx="340.787" cy="240" r="54.857" fill="green"/>
  <circle cx="109.841" cy="173.333" r="69.841" fill="#ffe000"/>
  <path d="M105.022 225.994h17.44s.787-1.6-.176-2.398c-.963-.8-4.713-.975-3.7-3.803 2.083-5.813 2.374-4.02 3.680AFA715AD9" fill="#802000" stroke="#7b3100" stroke-width="1.481"/>
  <path d="M118.33 122.45c.145 2.71-.127 6.295-1.25 9.213-1.138 3.252-2.376 6.494-2.315 9.86-1.81.617-3.674-3.909C7819AAB" fill="green"/>
  <g transform="translate(0 80) scale(.0635)" fill="#ffe000">
    <use height="100%" width="100%" xlink:href="#a" x="7560" y="4200"/>
    <use height="100%" width="100%" xlink:href="#a" x="6300" y="2205"/>
    <use height="100%" width="100%" xlink:href="#a" x="7560" y="840"/>
    <use height="100%" width="100%" xlink:href="#a" x="8680" y="1869"/>
    <use height="100%" width="100%" xlink:href="#b" x="8064" y="2730"/>
  </g>
</svg>
