<svg xmlns="http://www.w3.org/2000/svg" height="480" width="640" id="flag-icon-css-eh">
  <defs>
    <clipPath id="a">
      <path fill-opacity=".67" d="M-158.67 0H524v512h-682.67z"/>
    </clipPath>
  </defs>
  <g clip-path="url(#a)" fill-rule="evenodd" transform="translate(148.75) scale(.94)">
    <path d="M-180 0H844v256H-180z"/>
    <path fill="#107b00" d="M-180 256H844v256H-180z"/>
    <path fill="#fff" d="M-180 169.31H844v176.13H-180z"/>
    <path d="M309.98 195.55c-45.202-19.423-84.107 20.644-84.063 58.085.046 39.158 38.02 80.92 86.168 62.43-34.0870FC2528A7D" fill="#f0f"/>
    <path fill="#ff1800" d="M363.145 294.214l-25.835-18.868-25.993 18.898 9.963-30.403-26-18.87 31.984.07 9.93-30.552 9.816 30.435 32.115.005-25.924 18.735"/>
    <path d="M314.34 315.65c-50.517 17.536-88.554-20.48-89.216-59.456-.66-38.976 37.59-79.167 89.473-60.865-29.350E55CAEA4D" fill="red"/>
  </g>
</svg>
