<svg xmlns="http://www.w3.org/2000/svg" height="480" width="640" id="flag-icon-css-fj">
  <path d="M0 0v480h640V.079H402.442V0H0z" fill="#68bfe5"/>
  <g stroke-miterlimit="4.8">
    <path d="M420.887 193.236v136.357c0 44.599 80.581 71.08 80.581 71.08s80.582-26.483 80.582-71.08V193.236z" fill="#fff"/>
    <path d="M490.299 241.146v61.396h-69.412v22.34H490.3v71.539l11.17 4.252 11.17-4.252v-71.54h69.41v-22.339h-69.41v-61.396z" fill="#d21034"/>
    <path d="M420.887 193.236H582.05v52.657H420.887z" fill="#d21034"/>
    <g stroke-miterlimit="3">
      <g fill="#fff" stroke="#000" stroke-width=".805" transform="translate(-96.907 97.536) scale(.66486)">
        <ellipse ry="10.962" rx="13.623" cy="192.212" cx="798.23" stroke-width=".803"/>
        <ellipse ry="6.123" rx="12.114" cy="186.525" cx="798.23"/>
        <ellipse ry="6.123" rx="12.114" cy="198.769" cx="798.23"/>
        <ellipse ry="6.123" rx="12.114" cy="192.213" cx="798.23"/>
      </g>
      <path d="M578.06 235.448l-1.32-3.64s-3.612-1.474-3.887-3.393c-.643-5.115-2.47-7.032-5.206-7.764-2.742-.73-4.50DEE359AD3" fill="#ffd100" stroke="#000" stroke-width=".798"/>
      <path d="M429.633 216.743c.003-.005.24-.565.69-.632.349-.051.77.206 1.217.748l.244-.183c-.01-.019-1.206-1.76-0F78513A1B"/>
      <path d="M508.117 237.835c.067 1.84 1.367 3.55 3.856 5.074l.28-.456c-2.33-1.425-3.54-2.985-3.602-4.636-.092-20F0A2BFA94"/>
      <path d="M433.14 214.539c-.161.656-.05 1.3.325 1.916.358.583.71.893 1.078.942.449.062.807-.27 1.123-.562.23-.081C9D3ACC"/>
      <path d="M433.905 231.373c-.39.35-.312.876-.307.899.003.144.177 4.034 2.024 4.838l.121-.28c-1.671-.728-1.84-409C2389ABD"/>
      <path d="M432.443 231.692c-.817.569-.784 2.192-.783 2.26l.305-.005c0-.017-.03-1.531.652-2.004.255-.176.59-.1807D4254A39"/>
      <g transform="translate(-96.907 97.536) scale(.66486)">
        <path d="M862.33 169.49c.022.038 1.31 2.945 1.31 5.305 0 .419-.198.717-.291 1.081-.052-.135-.5-1.366-.5-1.36601D311BA3D"/>
        <path d="M836.8 167.86c-.017.08-.608 3.119-3.196 4.543-1.947 1.07-4.52.982-7.639-.266l-.351-.14.037.376c.008.035DC78A86"/>
        <path d="M843.45 158.07l-.194.007-2.364 3.24.702.07c12.829 1.248 19.613 8.988 19.679 9.068l.296.344 2.326-2.502D2C5BA4B"/>
        <path d="M841.6 164.84c-1.096 1.495-2.114 3.707-2.114 4.742 0 .198.038.354.122.453.007.01.046.013.059.029-1.30CD712FA5B"/>
        <path d="M839.16 178.65c.9.624 2.166.58 3.692 0 .007.544.129 1.7 1.078 2.538 1.116.988 2.965 1.178 5.5.574l-.0B40890AE0"/>
        <path d="M842.07 174.99c-.656.156-.827.706-.827 1.13 0 .102.011.197.024.279.115 1.182 1.398 1.969 2.563 2.306019AFCDA1A"/>
        <path d="M838.53 178.2c.017.031 1.484 2.9 1.745 3.947.167.665 1.015 1.422 2.027 1.797 1.008.38 1.953.318 2.650380738A62"/>
        <circle r=".27" cy="177.825" cx="848.01"/>
        <path d="M848.75 179.45a.27.27 0 1 1-.539 0c0-.151.123-.275.268-.275.149 0 .271.123.271.275zm-7.1-7.32a.273.20154264A7E"/>
        <circle r=".27" cy="173.22" cx="841.65"/>
        <circle r=".27" cy="172.68" cx="840.09"/>
        <path d="M840.83 174.3a.276.276 0 0 1-.275.271.273.273 0 0 1 0-.546.278.278 0 0 1 .275.275zm4.74-9.55s3.518 20352960A01"/>
        <path d="M858.78 170.86c-.463.348-1.312.64-2.212-.09-.9-.727-1.658-1.715-2.792-1.134-1.138.584-3.293 2.212-3.00FB713A34"/>
        <path d="M856.1 172.34c-1.105-.844-2.212.989-3.143.76-.931-.237-1.69-1.779-1.69-1.779s.877 1.631 2.097 1.252c0837D15AEA"/>
        <path d="M854.37 172.57c-2.183.226-2.399-1.813-2.399-1.834 0 0 .689 1.78 2.619 1.457l-.22.377z"/>
        <path d="M854.3 171.18c.143.552.112.803-.473.803-.588 0-.987-.196-.987-.766 0-.571 1.374-.392 1.46-.037zm-7.802A5D97A10"/>
        <path d="M844.05 165.71s3.74.04 1.888 4.72c0 0 1.425-2.33.531-4.006-.897-1.674-2.305-1.252-2.305-1.252s-.343.317-.114.538z"/>
        <path d="M843.94 167.58c-.01.938.616 1.907 1.856 2.876l.286-.36c-1.123-.876-1.69-1.72-1.682-2.506.007-.786.610241CF3A48"/>
        <path d="M844.77 168.37c.16.539.577.946 1.244 1.212l.17-.425c-.527-.21-.855-.518-.972-.913-.237-.796.403-1.7205AA30EA58"/>
      </g>
      <g fill="#fff" stroke="#000" stroke-width=".36">
        <path d="M429.57 216.3s.155 1.702 1.47 2.712c0 0-.154-1.861.234-2.633 0 0-.696-.774-1.704-.079zm2.627 1.084s.0E085FBAEE" stroke-width=".239"/>
        <path d="M434.524 217.304l1.006 1.549 1.16-.62-.232-1.856s-.695-.157-1.934.927z" stroke-width=".239"/>
        <path d="M439.244 217.617l-1.316 1.084s-.696-.543-1.24-.465l.234-1.703s.93-.697 2.322 1.084zm-9.368 16.023s-.0AB6164A97" stroke-width=".239"/>
        <path d="M433.752 231.546s.387-2.09.775-2.167c0 0 1.006.309 1.316-.08l-.077 2.557s.077-1.085-2.014-.31zm-2.2407957AAA62" stroke-width=".233"/>
      </g>
    </g>
    <g fill="#00a651" stroke="#000" stroke-width=".78">
      <path d="M461.683 270.4s5.262 4.887 3.886 9.147c0 0 3.382-7.268-.25-9.399-3.636-2.13-3.76-.497-3.636.252z" stroke-width=".519"/>
      <path d="M455.041 275.154s-1.376 1.884.125 3.261c0 0-1.627 2.377-.372 4.385 0 0-1.005 2.13-.753 4.386 0 0-.870FE0256AFA" fill="#964b36" stroke-width=".519"/>
      <path d="M456.544 269.017s-6.265-12.027-10.651-12.531c-4.387-.502-4.636-4.76-4.636-4.76s.5 2.004 4.01 2.004 1072DC64AE6" stroke-width=".519"/>
      <path d="M456.544 268.14s2.256-15.163 12.157-15.415c9.897-.252 6.642.752 9.02-.878 0 0-6.638 3.511-10.775 4.0015E839A08" stroke-width=".519"/>
      <path d="M458.798 273.784s2.254-6.015 6.14-4.008c0 0-3.01-5.767-8.397-.754 0 0 2.382 3.258 2.257 4.762zm-7.5203B4C19AAA" stroke-width=".519"/>
      <path d="M451.657 270.148s5.891 5.64 6.268 7.52c.376 1.879 1.753-5.64-1.003-7.768-2.757-2.133-5.764-2.508-5.764-2.508l.5 2.756z" stroke-width=".519"/>
      <path d="M440.793 284.927s.534 2.368 1.987 2.825c0 0 .075 1.76 1.375 2.293 0 0-.69 1.453.46 2.368 0 0-.232 2.019FFEEA33" fill="#964b36" stroke-width=".519"/>
      <path d="M443.692 282.022s-7.716-2.827-11.995 1.223c0 0 6.569.918 7.41 2.216.84 1.297 4.89-2.138 4.585-3.44z" stroke-width=".519"/>
      <path d="M441.325 286.836s-.61-.534-1.374-1.07c-.764-.534-7.257-2.292-8.177 3.973 0 0-2.37-6.188 1.07-7.03 3.007ADE8AD5" stroke-width=".519"/>
      <path d="M439.882 279.795s0 1.253.878 1.627c.878.377 2.506 1 2.506.252 0-.751-1.252-3.634-1.756-3.257-.502.377-1.376.372-1.628 1.378z" fill="#964b36" stroke-width=".519"/>
      <path d="M438.38 272.03s-.25-5.764 3.506-7.897c0 0 .754.13 1.13-.998 0 0-3.01 7.265-2.132 10.9l-.124.501" stroke-width=".519"/>
      <path d="M439.131 265.008s6.766-14.036 15.038-9.15c0 0-8.646 1.756-11.777 7.896l-3.135 4.632-.125-3.378z" stroke-width=".519"/>
      <path d="M435.494 270.148s-2.005-9.398-3.258-10.649c-1.254-1.254-3.384-2.632-5.891-.503 0 0 4.387-3.886 9.023-.626 4.635 3.259 3.633 8.396 3.633 8.396l-.5 6.517-3.133-2.883" stroke-width=".519"/>
      <path d="M442.761 281.297s-8.27-15.659-13.657-4.508c0 0-1.006 2.88.122 4.006 0 0-3.008-2.253-1.629-7.767 1.370BDD172AB1" stroke-width=".519"/>
      <path d="M475.087 282.926s3.257 1.752 2.133 5.261c0 0 4.383-8.394-1.63-9.147 0 0 1.13 2.633-.503 3.886zm.379-03537F0A9A" stroke-width=".519"/>
      <path d="M478.976 264.004c3.385-6.641 7.645 2.13 7.645 2.13s1.502-6.89-2.756-8.145c-4.263-1.253-7.018 14.66-7.018 14.66l-5.014 1.128s1.38-13.907 8.897-15.162l.876.127" stroke-width=".519"/>
      <path d="M472.96 268.013s-4.76-9.773-8.02-10.774c-3.259-1.003 1.757-2.507 3.761-.628 2.002 1.878 5.761 4.26 50381466AE2" stroke-width=".519"/>
      <path d="M466.071 285.812s-2.13 4.01-1.63 4.635c0 0-2.254 3.258-1.378 4.887 0 0 2.257 1.754 3.26 1.001 0 0 2.019D82AA44" fill="#964b36" stroke-width=".519"/>
      <path d="M455.048 278.651c.141.072 1.406.686 2.258.402l.608-.52-.478-.238c-.312.62-1.69.109-2.15-.12l-.238.4701083CDAEF" fill="#000" stroke="none"/>
    </g>
    <g fill="#964b36" stroke="#000" stroke-width=".279">
      <path d="M542.065 299.8a1.104 1.104 0 0 0-.405.268l.405-.268zm9.215-2.307c-.09-.229-.148-.132-.266-.234-.168-05BD555A51"/>
      <path d="M544.532 299.687c.2 0 .385-.046.554.102l.079.154a.173.173 0 0 0 .167.024c.113.076.136.12.26.148.116.025.243-.005.359-.003.146.005.217.055.353.111.238.098.395.005.601-.143.239-.176.326-.042.555.178.171.164.136.149.29.037.024-.053.051-.104.077-.148.077-.032.155-.053.233-.067.128-.06.255-.053.375-.1.127-.049.22-.19.354-.164.115.023.248.118.358.153a.747.747 0 0 1 .24.122c.16-.328.512-.426.736-.584.234-.162.45.034.707.036.137 0 .192-.079.29-.11.108-.04.232.017.337-.026.11-.042.131-.148.253-.162.227-.028.48.341.706.41.127.043.715.175.628-.258-.083-.411-.452-.126-.53-.415-.043-.165.043-.398-.008-.583-.044-.168-.23-.363-.34-.4-.139-.043-.22.102-.337-.011-.098-.09-.135-.428-.22-.562-.114.083-.185.16-.335.13-.172-.042-.155-.1-.282-.262-.278-.348-.438.208-.694.12-.194-.062-.375-.552-.527-.752-.081-.106-.31-.45-.428-.374-.198.13-.018.504-.122.67-.074.116-.337-.002-.432.016-.15.033-.178.072-.287.252-.22.364-.347.652-.688.61-.162-.018-.284-.182-.442-.122-.169.065-.263.245-.449.266a.977.977 0 0 1-.42-.035c-.13-.058-.275-.3-.393-.367a.153.153 0 0 0-.16-.03 8.658 8.658 0 0 0-.194-.112c-.206-.06-.189-.052-.273.22-.048.168-.067.342-.129.502-.06.134-.191.3-.268.39-.144.154-.213.113-.4.169-.15.049-.35.282-.43-.018-.12-.454.333-1.131-.171-1.013-.132.03-.21.055-.291.25-.09.224-.018.37-.058.615-.053.31-.643.83-.526 1.11.078.197.342-.106.414-.058.12.083.085.28.17.412.179.273.708-.423.738-.046m-2.142-2.709c0-.039-.008-.076-.01-.117-.142-.025-.301-.175-.43-.178-.123-.007-.361.292-.445.434-.258.428-.187 1.01-.621 1.002-.107-.003-.356-.075-.45-.01-.163.116-.06.458-.06.691 0 .22.1 0-.017.285-.035.078-.141.104-.17.208-.087.372.223.254.36.25.35-.003.7-.003 1.047 0 .21.004.337-.07.533-.146.13-.044.405-.042.514-.157a2.21 2.21 0 0 0 .184-.407c.028-.144-.027-.317.008-.437.055-.21.243-.13.277-.414.09-.696-.653-.175-.536-.86"/>
    </g>
    <g stroke="#000" stroke-width=".519">
      <path d="M550.808 277.9c0 .901-.617 1.627-1.382 1.627-.756 0-1.378-.726-1.378-1.627 0-.9.622-1.63 1.378-1.63.0DD885CA64"/>
      <path d="M548.68 276.517c0 .901-.617 1.627-1.378 1.627-.762 0-1.378-.726-1.378-1.627 0-.902.616-1.63 1.378-1.63.76 0 1.378.73 1.378 1.63z"/>
      <path d="M546.373 278.006c0 .902-.62 1.632-1.38 1.632-.76 0-1.378-.731-1.378-1.632 0-.899.617-1.627 1.378-1.627.761 0 1.38.727 1.38 1.627z"/>
      <path d="M548.514 279.25c0 .899-.621 1.631-1.38 1.631-.76 0-1.38-.732-1.38-1.632 0-.899.62-1.627 1.38-1.627.758 0 1.38.728 1.38 1.627z"/>
    </g>
    <path d="M549.179 261.478s13.907-19.42 28.82.754c0 0 .125 2.006-1.253 4.135l-.377-1.628-.876.25-.25-1.003-1.60446A6CA60" fill="#00a651" stroke="#000" stroke-width=".519"/>
    <path d="M547.118 269.649l.395.356c.053-.055 1.292-1.376 3.373.381l.345-.41c-2.488-2.103-4.102-.346-4.113-.320EECD6EAE5"/>
    <path d="M543.86 262.98s.351.777.615 1.356c-.114-.047-.98-.394-.98-.394l2.891 5.115s.35-.446.37-.474c-.291.7400CB161A64"/>
    <path d="M442.568 340.237s-2.35-1.067-3.42-.286c-1.068.786-.922 1.923-1.85 1.852 0 0 3.56.783 4.343-.144.783-09A0E33A25" stroke-width=".519" fill="#00a651" stroke="#000"/>
    <path d="M442.954 341.268c0 .062.283 2.27.283 2.27l.38-.05-.286-2.208c.01.003.925-4.854.925-4.854l-.377-.069-.925 4.91z"/>
    <path d="M440.494 340.55l-.126.36c1.293.455 3.099-.967 3.174-1.027l-.24-.297c-.016.011-1.713 1.352-2.808.964zm3.39-2.85l-6.052-3.061.241-.477 6.052 3.061z"/>
    <path d="M439.496 337.013l-.377-.378 1.211-1.21.377.378zm2.119-.588l-1.282-2.78.485-.223 1.281 2.779zm1.791 303B478EA45"/>
    <path d="M471.17 341.055c2.018-1.13 2.423-5.091 2.423-5.091-.483 1.457-4.196 2.909-4.196 2.909 2.744-1.7 6.052-9.364 6.052-9.364-.887 2.745-8.07 5.004-12.673 7.587-4.603 2.581-2.18 10.011-2.18 10.011-1.29-.889-3.794-4.842-4.276-8.317-.488-3.47-1.86-4.84-5.007-5.245-3.15-.404-5.006 3.146-5.006 3.146l-4.681 2.425 4.76.16s3.395 1.132 3.395 3.796c0 2.665-2.987 13.32 1.934 19.295 3.426 4.152 16.067 6.538 16.067 6.538" fill="#fff" stroke="#000" stroke-width=".665"/>
    <path d="M461.89 349.286s.968-4.764 4.116-4.602c3.148.161 4.036-3.55 5.893-4.117 1.856-.564 11.463-3.146 12.513-7.75 0 0-.888 7.59-9.685 11.384 0 0 7.1-2.342 7.91-3.876 0 0-3.15 6.781-10.819 7.83 0 0 7.185-.564 8.235-2.5 0 0-3.23 4.277-8.556 4.844 0 0 4.923 2.017 6.216.321 0 0-2.665 3.148-5.976 3.389l.89.243s-3.148 3.715-6.62 1.211c-3.47-2.504-3.553.648-3.553.648" fill="#fff" stroke="#000" stroke-width=".665"/>
    <path d="M469.056 356.466s4.055 6.783 4.46 10.415c0 0 7.75 8.559 10.656 9.04 0 0-1.373.563-3.877-1.533 0 0 2.1 2.18 2.504 2.26.402.084-1.696-.161-2.02-.728 0 0 .89 1.295 1.453 1.456.567.162-.564-.16-.564-.16s-1.051-.163-1.535-.567c-.485-.402-.162 1.047-.162 1.047s-1.21-.323-1.613-.726c-.404-.402.162.89.162.89l-1.049-.243-.726.483s-.081.485-.569.081c-.481-.4-1.37 0-1.37 0s-.648.567-.97.162c-.32-.403-1.544 1.553-1.544 1.553l-5.083-12.27" fill="#fff" stroke="#000" stroke-width=".665"/>
    <path d="M473.88 378.724l-6.424-12.228.674-.354 6.425 12.228zm5.613-.824l-10.991-12.306.57-.51 10.992 12.306zm2.507-1.085l-12.542-11.688.52-.56 12.543 11.69z"/>
    <g transform="translate(-96.907 97.536) scale(.66486)">
      <path d="M823.44 360.84s-1.231-2.204-2.303-1.376c-1.069.825-1.685.976-1.87.919 0 0 1.076.059 1.687-.522.613-.0C59296AD1"/>
      <path d="M823.16 360.5s-.918 1.075-2.176.766l-1.252-.306s1.066.06 1.776.093c.7.029 1.618-.337 1.652-.553z"/>
      <path d="M822.86 360.72s-1.132-1.195-1.9-.858c0 0 1.35-.43 2.116.73l-.216.128z"/>
      <path d="M822.67 360.5s-1.286.887-2.699-.09l-.086-.066.183-.059c.001.001 1.778.735 2.602.215z"/>
      <circle r=".383" cy="360.284" cx="821.573"/>
    </g>
    <path d="M450.015 359.625s-.662 1.219-.316 1.953c.351.734 1.922 1.114 2.13 2.092.212.98.736.978 1.469.842.7350FC0457A50"/>
    <g fill="#964b36" stroke="#000" stroke-width=".48">
      <path d="M549.398 334.792s5.597-7.38 10.56-5.441c4.963 1.94 8.188 2.873 8.188 2.873s.094 4.97-2.545 4.97c-2.60F3C793A4A" stroke-width=".319"/>
      <path d="M528.156 370.375s-1.548 1.626-.85 2.016c.7.386 2.092-.082 2.092-.622 0-.546-.928-1.548-1.242-1.394z" stroke-width=".519"/>
      <path d="M526.92 371.924s-2.867-1.632-5.116 2.245c-2.252 3.876-4.11 10.157-5.428 11.01-1.317.853 12.793-6.2020A202C8A83" stroke-width=".519"/>
      <path d="M527.305 372.39s-2.945.693-3.565 4.878c-.62 4.19-4.73 6.36-4.961 6.513m49.375-51.555s-4.48 1.558-3.706 4.66" stroke-width=".319"/>
    </g>
    <path d="M533.74 341.3s.155-10.62 8.833-10.156c1.644.152.86 2.092.86 2.092s1.877-1.315 2.735.774c0 0 2.737-1.239 3.048 1.476 0 0 2.972-.386 2.58 2.015 0 0 2.032-.464 1.956 1.241 0 0 2.344-.93 2.108 1.473 0 0 2.58-1.706 2.192 1.394 0 0 2.658-1.858 3.592 1.242.938 3.1-2.656 9.69-6.174 11.395" fill="#fff200" stroke="#000" stroke-width=".319"/>
    <path d="M557.855 341.946c.012.083 1.17 8.31-3.495 11.32l.164.26c4.834-3.12 3.645-11.54 3.635-11.625l-.304.040201B1AA5D"/>
    <path d="M528.621 354.173s-1.47-9.849 4.42-12.947c0 0 1.089-.233 1.706 1.163 0 0 3.103-1.317 3.181 1.315 0 0 1.549-1.24 1.937.465 0 0 3.334-.696 2.714 1.784 0 0 2.79-.775 2.557 1.626 0 0 2.792-1.007 2.325 1.086 0 0 2.944-.695 2.249 1.707 0 0 3.645-.386 2.56 2.17 0 0 2.713-.696 2.091 1.397 0 0 3.567.622 1.937 2.87-1.627 2.245-5.737 5.657-9.764 7.13" fill="#00a651" stroke="#000" stroke-width=".319"/>
    <path d="M525.443 364.092s-2.404-8.214 2.174-10.311c0 0 .848-.234 1.003.622 0 0 1.01-1.32 1.787-.155 0 0 2.323-1.086 2.869.619 0 0 1.548-1.32 2.325.617 0 0 1.473-.617 1.473.931 0 0 2.015-.852 2.015 1.009 0 0 1.935-.775 1.55 1.317 0 0 2.946.465 2.093 1.86 0 0 2.64.696 1.628 1.784 0 0 2.867-.31 1.317 1.627 0 0 2.171-.695.932 1.71-1.242 2.4-5.116 5.036-7.83 5.346" fill="#00a651" stroke="#000" stroke-width=".319"/>
    <path d="M528.309 370.601s-5.116-4.96-2.71-6.433c0 0 1.082.308 1.47 1.394 0 0 1.24-1.782 1.94.077 0 0 1.862-.0FCEDAAA5B" fill="#00a651" stroke="#000" stroke-width=".319"/>
    <path d="M545.855 362.404l.109.284c3.03-1.168 8.296-8.354 8.52-8.66l-.247-.182c-.055.077-5.434 7.422-8.382 8.07C4F33AA2"/>
    <path d="M534.891 368.075l.179.247c4.493-3.25 5.711-9.49 5.721-9.55l-.298-.058c-.012.06-1.208 6.18-5.602 9.360FCDA39A83"/>
    <path d="M538.973 357.324c-.044.155-1.082 7.724-5.164 10.517l.173.252c4.198-2.871 5.218-10.335 5.26-10.65 1.80F2AADBA95"/>
    <path d="M529.027 371.007l.278.124c1.31-2.852 1.714-4.82 1.719-4.838l-.3-.06c-.005.016-.4 1.956-1.697 4.774z"/>
    <path d="M529.32 371.093l.154.264c2.432-1.413 2.996-3.87 3.016-3.974l-.298-.067c-.007.025-.559 2.435-2.873 3.777z"/>
    <path d="M529.772 371.306l.03.303c2.383-.238 4.006-3.133 4.075-3.255l-.269-.148c-.015.03-1.614 2.878-3.836 3.1z"/>
    <path d="M530.011 371.459l.018.305c3.826-.236 5.548-2.522 5.617-2.619l-.247-.18c-.016.02-1.713 2.27-5.388 2.494z"/>
    <path d="M530.284 371.539l-.063.298c.206.047 5.08 1.08 6.75-1.46l-.256-.167c-1.552 2.365-6.384 1.338-6.431 1.329z"/>
    <path d="M420.887 193.236v136.357c0 44.599 80.581 71.08 80.581 71.08s80.582-26.483 80.582-71.08V193.236z" fill="none" stroke="#000" stroke-width="2.792"/>
  </g>
  <path d="M0 0v240.339h358.036V0H0z" fill="#002868"/>
  <path style="line-height:normal;text-indent:0;text-align:start;text-decoration-line:none;text-decoration-style:solid;text-decoration-color:#000;text-transform:none;block-progression:tb;isolation:auto;mix-blend-mode:normal" d="M0 0v26.872l138.99 93.296L0 213.468v26.87h40.03l138.99-93.296 138.989 93.297h40.027v-26.872l-138.988-93.299 138.988-93.297V0H318.01L179.02 93.3 40.03 0H0z" color="#000" font-weight="400" font-family="sans-serif" white-space="normal" overflow="visible" fill="#fff"/>
  <path d="M0 0v14.867L169.725 99.73 0 184.592v14.867h29.732l169.725-84.863 169.727 84.863h29.732V184.59L229.191 99.729l169.725-84.862V0h-29.732L199.457 84.861 29.732 0H0z" style="line-height:normal;text-indent:0;text-align:start;text-decoration-line:none;text-decoration-style:solid;text-decoration-color:#000;text-transform:none;block-progression:tb;isolation:auto;mix-blend-mode:normal" color="#000" font-weight="400" font-family="sans-serif" white-space="normal" overflow="visible" fill="#ce1126" transform="scale(.89752 1.20495)"/>
  <path style="line-height:normal;text-indent:0;text-align:start;text-decoration-line:none;text-decoration-style:solid;text-decoration-color:#000;text-transform:none;block-progression:tb;isolation:auto;mix-blend-mode:normal" d="M149.182 0v80.113H0v80.113h149.182v80.113h59.673v-80.113h149.181V80.113H208.855V0h-59.673z" color="#000" font-weight="400" font-family="sans-serif" white-space="normal" overflow="visible" fill="#fff"/>
  <path style="line-height:normal;text-indent:0;text-align:start;text-decoration-line:none;text-decoration-style:solid;text-decoration-color:#000;text-transform:none;block-progression:tb;isolation:auto;mix-blend-mode:normal" d="M161.116 0v96.135H0v48.069h161.116v96.135h35.804v-96.135h161.116V96.135H196.92V0h-35.804z" color="#000" font-weight="400" font-family="sans-serif" white-space="normal" overflow="visible" fill="#ce1126"/>
</svg>
