<svg xmlns="http://www.w3.org/2000/svg" xmlns:xlink="http://www.w3.org/1999/xlink" height="480" width="640" id="flag-icon-css-gt">
  <defs>
    <radialGradient id="a">
      <stop offset=".216" stop-color="#f9f0aa"/>
      <stop offset="1" stop-color="#b07e09"/>
    </radialGradient>
    <radialGradient r="16.534" cy="308.269" cx="447.418" gradientUnits="userSpaceOnUse" xlink:href="#a" id="d"/>
    <radialGradient r="10.911" cy="312.995" cx="451.558" gradientUnits="userSpaceOnUse" xlink:href="#a" id="e"/>
    <radialGradient r="9.78" cy="308.643" cx="454.11" gradientUnits="userSpaceOnUse" xlink:href="#a" id="f"/>
    <radialGradient r="17.354" cy="307.057" cx="458.39" gradientUnits="userSpaceOnUse" xlink:href="#a" id="g"/>
    <radialGradient r="13.018" cy="252.363" cx="445.976" gradientUnits="userSpaceOnUse" xlink:href="#a" id="j"/>
    <radialGradient r=".345" cy="215.266" cx="477.858" gradientUnits="userSpaceOnUse" id="m">
      <stop offset=".259" stop-color="#a50a0a"/>
      <stop offset="1" stop-color="#4c0505"/>
    </radialGradient>
    <radialGradient id="n" gradientTransform="scale(.97707 1.02346)" cx="489.072" cy="210.326" fx="489.072" fy="210.326" r=".345" gradientUnits="userSpaceOnUse">
      <stop offset="0" stop-color="#fff"/>
      <stop offset="1" stop-opacity="0" stop-color="#fff"/>
    </radialGradient>
    <linearGradient y2="231.963" x2="472.357" y1="259.171" x1="473.906" gradientUnits="userSpaceOnUse" id="h">
      <stop offset=".216" stop-opacity="0" stop-color="#b07e09"/>
      <stop offset="1" stop-color="#b07e09"/>
    </linearGradient>
    <linearGradient y2="326.583" x2="485.495" y1="296.656" x1="483.126" gradientUnits="userSpaceOnUse" id="i">
      <stop offset=".216" stop-opacity="0" stop-color="#b07e09"/>
      <stop offset="1" stop-color="#b07e09"/>
    </linearGradient>
    <linearGradient y2="240.576" x2="455.366" y1="249.523" x1="451.541" gradientUnits="userSpaceOnUse" id="k">
      <stop offset=".216" stop-color="#f9f0aa"/>
      <stop offset="1" stop-color="#b07e09"/>
    </linearGradient>
    <linearGradient y2="270.446" x2="475.929" y1="237.247" x1="473.314" gradientUnits="userSpaceOnUse" id="l">
      <stop offset=".216" stop-color="#f9f0aa"/>
      <stop offset="1" stop-color="#b07e09"/>
    </linearGradient>
  </defs>
  <path fill="#4997d0" d="M0 0h640v480H0z"/>
  <path fill="#fff" d="M213.333 0h213.333v480H213.333z"/>
  <g transform="translate(0 40) scale(.66667)">
    <g stroke="#24420e">
      <path d="M452.12 377.48c2.67-.407 4.208-1.138 6.035-1.786m2.215-4.054c1.347 1.43 2.417 2.95 2.993 4.635m-8.113-5.075c1.405 1.313 2.376 2.712 3.138 4.152M408.81 238.77c-1.044 1.602-3.092 2.726-4.78 3.428m-.34-.198c.035-1.368-.236-3.026.05-4.394m-1.98 5.024c.114.37.435 1.4.676 2.028m2.024.922c-.378.082-1.52.257-2.028.338m-3.952-.878c-.013 2.52.286 5.553.53 7.82m-1.79-.96c.472.757.947 1.504 1.545 1.883m-4.585 6.467c.49.94.943 2.122 1.304 3.96m3.716-4.63c-.414.205-1.215.93-1.93 1.545m1.59 4.395c-.98.872-2.198 1.504-3.428 2.124m-3.812 40.406c1.153 1.893 2.42 3.56 3.96 4.684m.58 1.686c-1.294-.166-2.16-.545-2.945-.966m4.395 8.406l1.69.966m-.44 3.474c1.255.816 2.51 2.283 3.765 3.862m-1.445 2.848c1.385.293 2.493.64 3.235 1.062m-1.065 2.418l2.124.072m1.206-5.382c-.102 1.534-.253 2.972-.483 4.25m1.013 1.59l.434-1.642m4.686 5.992l-.146 3.236m39.206 27.904l-1.16 1.593m-2.41-3.913l-.676-1.834" fill="none" stroke-width=".437"/>
      <g stroke-width=".164">
        <path d="M486.11 384.93c-.797-1.256-2.108-2.028-3.277-2.656-7.727-4.056-15.406-5.843-24.116-7.244-2.013-.337-4.027-2.22-6.087-3.187-4.963-2.365-10.49-3.284-15.31-5.697-.33-.146-1.546-.87-2.11-1.545-1.918-2.22-5.384-2.898-7.537-4.974-8.335-7.87-17.184-15.116-21.772-25.547-5.572-12.7-12.503-25.787-11.566-40.227.608-9.126-.75-18.35 1.497-27.043 3.326-12.894 7.588-25.64 15.407-36.314l-1.31.82c-7.868 10.675-12.128 23.423-15.453 36.316-2.248 8.692-.89 17.916-1.5 27.043-.935 14.44 5.996 27.526 11.568 40.274 4.588 10.382 13.485 17.625 21.774 25.546 2.154 2.027 5.62 2.703 7.54 4.973.56.626 1.824 1.4 2.105 1.544 4.825 2.415 10.35 3.332 15.314 5.65 2.06 1.014 4.074 2.85 6.087 3.188 8.71 1.4 16.39 3.235 24.116 7.242 1.217.628 2.482 1.4 3.28 2.657l1.356-.82" fill="#406325"/>
        <g fill="#67923d">
          <path d="M406.34 331.62c-2.794-6.3-1.365-21.608-.198-23.53 6.633 13.006 4.425 23.74.198 23.53zm45.86 45.39c-70FD83A9A03"/>
          <path d="M454.61 372.78c-6.95-4.235-15.786-20.115-15.938-22.754 15.202 8.194 20.198 20.13 15.938 22.754zM439.024EA34A87"/>
          <path d="M398.74 259.33c2.148-7.282 14.874-19.265 17.36-20.034-3.727 15.676-13.678 23.18-17.36 20.034zm27.81 0934A6FA40"/>
        </g>
        <g fill="#406325">
          <path d="M406.41 331.47c4.227.21 6.405-10.396-.27-23.38 1.212 12.32 1.21 22.31.27 23.38zm11.18 19.99c-4.474-50543781AA8"/>
          <path d="M404.42 237.83c3.136-4.77 4.162-17.685 3.485-19.47-7.236 9.715-6.958 18.944-3.485 19.47zm5.95-6.14c40219194A0A"/>
          <path d="M454.57 372.67c4.278-2.666-.69-14.444-15.89-22.64 9.403 11.184 16.094 20.968 15.89 22.64zm-42.79-30.03565AFA96"/>
          <path d="M398.86 259.33c3.682 3.145 13.542-4.302 17.27-19.977-8.097 11.245-15.645 19.736-17.27 19.977zm27.72 0653409AAB"/>
          <path d="M399.36 326.3c-2.658-6.262-14.798-15.462-16.982-15.84 4.946 13.637 14.248 19.145 16.982 15.84z"/>
        </g>
        <g fill="#67923d">
          <path d="M392.42 273.92c4.074-4.666 17.47-9.134 19.6-8.865-8.043 10.41-17.942 12.515-19.6 8.865zm25.07 77.59c049FF0BACE"/>
          <path d="M394.25 274.9c-3.804 2.106-9.577-3.503-9.987-18.322 5.102 11.684 8.603 17.807 9.987 18.322zm32.57 850D9833FAB5"/>
        </g>
        <g fill="#406325">
          <path d="M392.37 274c1.617 3.623 11.45 1.53 19.493-8.88-11.97 6.793-16.71 9.74-19.493 8.88zm9.34 52.07c4.332-04B04E9AB6"/>
          <path d="M394.23 291.77c2.058-8.386-1.702-22.6-4.3-25.56-4.716 15.428-.245 26.6 4.3 25.56z"/>
        </g>
        <path d="M393.93 293.77c-5.895 1.34-8.645-12.034-4.08-27.078 1.07 13.546 2.834 26.147 4.08 27.078z" fill="#67923d"/>
        <path d="M392.73 293.72c-.558-7.527 6.934-23.087 8.915-24.707 2.015 15.803-4.462 26.308-8.915 24.707z" fill="#67923d"/>
        <path d="M392.84 293.61c4.413 1.636 10.85-8.76 8.835-24.564-3.51 13.267-7.445 23.764-8.835 24.564z" fill="#406325"/>
        <path d="M394.13 303.26c.005-7.61 8.47-22.23 10.562-23.62.834 16.163-6.332 25.83-10.562 23.62z" fill="#67923d"/>
        <path d="M394.21 303.41c4.23 2.21 11.306-7.364 10.47-23.525-4.408 12.857-9.047 22.9-10.47 23.525z" fill="#406325"/>
      </g>
      <g fill="#ba1f3e" stroke="#511124" stroke-width=".218">
        <circle cx="396.835" cy="251.27" r="1.085" stroke-width=".186"/>
        <circle cx="405.205" cy="245.07" r="1.085" stroke-width=".186"/>
        <circle cx="401.564" cy="241.71" r="1.086" stroke-width=".186"/>
        <circle cx="392.503" cy="313.12" r="1.277"/>
        <circle cx="395.033" cy="297.13" r="1.277"/>
        <circle cx="408.213" cy="334.46" r="1.277"/>
        <circle cx="402.393" cy="336.43" r="1.277"/>
        <circle cx="446.703" cy="367.63" r="1.277"/>
        <circle cx="449.613" cy="374.71" r="1.277"/>
      </g>
    </g>
    <g stroke="#24420e">
      <path d="M561.15 258.97c.623.62 1.174.808 2.295 1.895m-6.625-18.945c-.035-1.368-.633-3.605-.918-4.973m3.448 2.983c.055 1.952-.218 3.81-1.062 5.504m-4.158-.534c1.753 1.576 3.505 3.077 5.258 3.892m3.822 1.228c.105 1.98-.142 3.96-.683 5.94m.323 1.51l1.314-2.262M562.3 267.43c1.4.29 2.81 1.946 3.505 3.482m.475-1.292l1.64-2.185m1.71 30.725a23.9 23.9 0 0 1-2.458 3.483m-3.962-.073c.79 1.456 1.556 2.946 2.595 4.03m2.455 5.87c-1.307 1.773-2.766 3.165-4.438 4.03m.138 4.5c-1.093.75-2.426 2.953-3.687 4.712m8.437-20.182l-2.124.87m-1.396-7.49l1.256 1.11m-9.296 37.39c-.84-.108-1.456.01-2.124.072m-1.996-1.932l.615 1.64m-7.715 5.12c-.262 1.866-.072 3.733.204 5.6m4.306-9.02l1.024 2.254m3.826-.204l-2.526.41m-30.854 25.27l-.917 1.738m11.897-3.928c-1.492.187-2.778-.043-4.097-.204m-5.463 5.944a27.282 27.282 0 0 0-2.936-.956m-14.744 2.656c-.906.773-1.99 2.435-3.073 4.097m-.547-4.567c-2.433 1.253-3.182 3.71-4.438 5.804m2.798 2.866c-1.553-.46-3.412-1.228-5.326-2.048m16.766-.682c-2.32-1.205-4.748-1.087-7.135-1.468m10.755-.342c-3.628-.707-7.01-.61-10.276-.137m7.776-2.603l-1.4-.58m-5.53 5.5l-2.323-1.296m57.943-49.194c-1.256.816-2.51 2.283-3.766 3.863m1.826-79.623l-2.153-.724" fill="none" stroke-width=".437"/>
      <g stroke-width=".164">
        <path d="M474.39 384.85c.797-1.256 2.108-2.028 3.277-2.656 7.726-4.056 15.406-5.843 24.117-7.244 2.013-.337 4.027-2.22 6.087-3.187 4.964-2.365 10.49-3.284 15.312-5.697.328-.146 1.545-.87 2.108-1.545 1.92-2.22 5.385-2.898 7.54-4.974 8.333-7.87 17.183-15.116 21.77-25.546 5.573-12.7 12.504-25.787 11.568-40.225-.61-9.126.75-18.35-1.498-27.043-3.326-12.893-7.59-25.643-15.408-36.314l1.31.82c7.868 10.675 12.128 23.424 15.453 36.315 2.248 8.692.89 17.916 1.5 27.043.935 14.44-5.996 27.526-11.567 40.275-4.59 10.384-13.486 17.627-21.774 25.547-2.154 2.027-5.62 2.703-7.54 4.973-.56.627-1.825 1.4-2.106 1.545-4.823 2.415-10.35 3.332-15.313 5.65-2.06 1.014-4.073 2.85-6.087 3.188-8.71 1.4-16.388 3.235-24.113 7.242-1.217.628-2.482 1.4-3.278 2.657l-1.358-.822" fill="#406325"/>
        <g fill="#406325">
          <path d="M553.65 334.6c2.74-7.416-.01-24.838-1.49-26.95-6.648 15.37-3.34 27.5 1.49 26.95z"/>
          <path d="M546.54 341.64c2.304-5.646.613-19.32-.47-20.998-5.52 11.696-3.265 21.218.47 20.998zm16.81-74.15c-3.2001F1B2A4B"/>
          <path d="M561.76 259.47c-1.79-6.068-12.395-16.053-14.466-16.694 3.105 13.063 11.398 19.315 14.466 16.694zm4.700D0320AAD"/>
          <path d="M563.96 301.44c-.005-7.61-8.47-22.23-10.562-23.62-.834 16.162 6.332 25.83 10.562 23.62zm-52.89 75.27092C687ABF"/>
        </g>
        <g fill="#67923d">
          <path d="M553.56 334.43c-4.824.55-8.09-11.437-1.395-26.785-.49 14.192.24 25.63 1.395 26.785zm-53.37 43.66c7.0091431FAD4"/>
          <path d="M557.02 336.18c5.817-4.29 22.105-6.228 24.4-5.504-11.814 9.676-23.553 9.855-24.4 5.504zm10.27-24.52c095CA8FA6F"/>
          <path d="M566.28 272.54c-.317.815 2.945-7.695 14.22-15.308-4.013 14.27-11.045 18.28-14.22 15.308zm-34.1 89.9c057A275AEC"/>
          <path d="M563.88 301.59c-4.23 2.21-11.305-7.364-10.47-23.525 4.408 12.857 9.047 22.898 10.47 23.525zm-52.69 70A446B9A96"/>
        </g>
        <g fill="#406325">
          <path d="M521.55 365.83c4.542 1.593 10.443-9.417 7.54-25.883-2.81 13.955-6.18 25.064-7.54 25.883z"/>
          <path d="M531.83 360.59c4.34-6.65 5.55-24.554 4.58-26.967-9.944 13.594-9.41 26.324-4.58 26.967zm-31.69 17.54c0E8402FAF7"/>
          <path d="M539.14 354.75c3.272-4.934 4.274-18.274 3.564-20.077-7.488 10.08-7.16 19.572-3.564 20.077zm19.6-28.6037E5C0AFD"/>
        </g>
        <path d="M531.79 360.54c-4.83-.638-5.33-13.312 4.552-26.873-3.626 13.856-5.464 25.442-4.552 26.873zm35.16-68.044C4BDA78" fill="#67923d"/>
        <path d="M567 294.04c5.158 1.842 9.078-9.89 6.598-23.914-2.428 12.067-5.377 23.21-6.598 23.914z" fill="#406325"/>
        <path d="M567.77 293.64c.557-7.527-6.935-23.086-8.915-24.707-2.015 15.803 4.463 26.31 8.915 24.707zm-5.22-43.00540A3A21" fill="#406325"/>
        <path d="M567.66 293.53c-4.413 1.636-10.85-8.76-8.835-24.563 3.51 13.267 7.445 23.763 8.835 24.563z" fill="#67923d"/>
      </g>
      <g fill="#ba1f3e" stroke="#511124" stroke-width=".218">
        <circle cx="564.625" cy="254.9" r="1.085"/>
        <circle cx="568.415" cy="266.82" r="1.085"/>
        <circle cx="569.757" cy="304.3" r="1.277"/>
        <circle cx="564.647" cy="297.29" r="1.277"/>
        <circle cx="549.907" cy="337.17" r="1.277"/>
        <circle cx="556.197" cy="339.9" r="1.277"/>
        <circle cx="513.797" cy="372.26" r="1.277"/>
        <circle cx="506.797" cy="377.29" r="1.277"/>
        <circle cx="557.054" cy="249.25" r="1.084"/>
      </g>
    </g>
    <g id="b" fill="#8c959d" stroke="#485654" stroke-width=".109">
      <path d="M434.25 336.27c-.134 1.066.842 2.34 2.128 2.07.386-.08.624-.58.132-.49-.425.108-.88-.07-1.202-.374a10E7CF75A84"/>
      <path d="M437.24 338.34c-1.016 1.165-2.568 1.676-3.427.834-.573-.565-.777-1.205-.468-1.912-.443.482-.822.897-0AAE029A7B" stroke="none"/>
      <path d="M437.24 338.34a4.006 4.006 0 0 1-1.162.956c-.444.235-.957.39-1.473.318a1.48 1.48 0 0 1-.71-.296 2.360B3F933A84" fill="#485654" stroke="none"/>
      <path d="M515.24 249.25l-40.137 39.515c-3.053 3.032-37.963 36.38-41.105 39.384-1.103 1.322-4.233 4.857-4.56 50980292A8B" fill="#6c301e" stroke="#351710" stroke-width=".218" stroke-linejoin="round"/>
      <path d="M431.89 328.11c-1.225.043-2.022-.707-2.848-1.4 1.17.346 2.345.797 3.452.338l-.604 1.062z"/>
      <path d="M557.05 220.1l-31.804 26.22c-.306.373-.624.266-.93 0l-2.894-2.418c.004-.037.014-.073.014-.11 0-.162-04F8493AEC" fill="#b2b6ba" stroke-width=".218"/>
      <path d="M430.95 330.39c.2.03.405.048.606.03a1.5 1.5 0 0 0 .574-.16l-.017.018a124.9 124.9 0 0 1 1.475-4.744l.09D7C1EAB3" fill="#485654" stroke="none"/>
      <circle cx="438.179" cy="328.135" r=".619" fill="none" stroke-width=".164"/>
      <circle cx="434.436" cy="331.877" r=".619" fill="none" stroke-width=".164"/>
      <path d="M440.97 322.38c-.32-.24-.615-.505-.906-.775a11.58 11.58 0 0 1-.832-.854c.32.24.615.506.906.776.288.273.57.55.832.854z" fill="#485654" stroke="none"/>
      <path d="M502.17 259.06l3.487 3.41.645-.586-3.487-3.41-.645.586z"/>
    </g>
    <use height="100%" width="100%" xlink:href="#b" transform="rotate(-177.16 487.09 -.23)"/>
    <g stroke="#24420e" stroke-width=".164">
      <path d="M433.91 365.36c-7.866-3.32-26.89-.67-29.22.932 16.286 8.01 29.54 4.574 29.22-.932zm89.02 3.32c7.866-0E5FA4DA17" fill="#67923d"/>
      <path d="M433.76 365.48c.32 5.506-12.79 8.885-29.075.903 15.295.932 27.793.378 29.075-.903zm89.32 3.29c-.32 50F54DA1A66" fill="#406325"/>
    </g>
    <g id="c">
      <path d="M508.49 359.99c-20.733-30.12-51.995-54.61-76.102-67.99 3.557-.167 11.46 3.88 14.67 5.948 23.94 15.420FC4CC3A3C" fill="#b2b6ba" stroke="#485654" stroke-width=".218"/>
      <path d="M510.55 359.75l-1.45 1.394c-23.01-29.62-55.094-57.945-76.67-69.13 30.08 13.855 55.392 41.77 78.034 67.65l.085.085z" fill="#8c959d"/>
      <path d="M510.56 359.75l-1.448 1.397-.004.003-.003-.004c-5.325-6.824-10.975-13.39-16.864-19.73a336.016 336.010408033AC1" fill="#485654"/>
      <g fill="#fab81c" stroke="#6c301e" stroke-width=".109">
        <path d="M517.5 355.07c-1.974.51-3.726 1.253-5.258 2.226-.228 1.397-1.953 2.957-3.587 3.31-.297-.377-.367-.480D1E1CDAB7" stroke-width=".218"/>
        <path d="M524.89 362.77c-.515-.253-.756-.76-.587-1.105.17-.342.702-.432 1.217-.178.516.254.802.744.633 1.088-.172.343-.747.45-1.264.196z"/>
        <path d="M524.59 361.75c-.515-.253-.756-.76-.587-1.105.17-.342.702-.432 1.218-.177.516.253.802.744.633 1.088-.172.343-.747.45-1.263.195z"/>
        <path d="M523.97 360.62c-.515-.253-.756-.76-.587-1.105.168-.342.7-.433 1.217-.178.516.254.802.744.633 1.088-.172.343-.748.45-1.264.196z"/>
        <path d="M523.19 359.6c-.516-.253-.756-.76-.587-1.105.17-.342.7-.432 1.217-.178.516.253.802.744.633 1.088-.172.343-.748.45-1.263.196z"/>
        <path d="M522.16 358.61c-.515-.253-.756-.76-.587-1.105.023-.046.007-.136.055-.114.21.11.644.188.597-.136-.065093D6DFA44"/>
      </g>
      <path d="M511.27 363.6c.682-1.774 2.047-3.414 3.508-3.806m-3.278 4.056c1.263.262 3.31-1.243 3.806-2.588m-2.616 4.038c1.656.38 3.29-1.218 3.934-2.409m-2.444 3.989c1.957.064 3.164-1.326 3.74-2.39m-2.23 3.92c1.66.01 3.172-1.36 3.646-2.424m-2.186 3.824c1.808-.073 3.084-.895 3.62-2.075m-1.98 3.495c1.66.096 3.003-.896 3.443-1.862m-1.663 3.312c1.66.096 2.695-.93 3.136-1.897" fill="#fab81c"/>
      <path d="M511.27 363.6a7.112 7.112 0 0 1 1.309-2.329c.293-.338.616-.654.984-.914.367-.26.776-.467 1.214-.562-08F6187A75" fill="#6c301e"/>
    </g>
    <use height="100%" width="100%" xlink:href="#c" transform="rotate(-176.592 489.967 -.41)"/>
    <g stroke="#24420e" stroke-width=".164">
      <path d="M409.24 240.02c7.21-2.367 18.73-15.453 19.478-17.917-15.593 4.154-22.757 14.343-19.478 17.917zm145.7031E093A56" fill="#406325"/>
      <path d="M409.24 240.02c-3.325-3.574 3.792-13.666 19.34-17.82-10.958 8.403-19.2 16.178-19.34 17.82zm145.74 4.062D08CAA5" fill="#67923d"/>
    </g>
    <g stroke="#999270" stroke-width=".164">
      <path d="M452.21 318.1s-6.158.662-7.884-7.833c-1.846-9.087 5.306-10.052 5.306-10.052s8.103-.78 13.15-.91l2.24 17.954-12.812.84z" fill="url(#d)"/>
      <path d="M453.02 315.36s-3.985.762-4.807-5.553c-.583-4.473 2.185-5.108 2.185-5.108l9.236 1.563.05 8.24-6.664.857z" fill="url(#e)"/>
      <path d="M450.4 304.7s5.905-.43 8.99-.83l1.28 5.71-7.102.446s-.487-5.155-3.168-5.326z" fill="url(#f)"/>
      <path d="M449.16 300.36s7.575-1.857 8.517 6.49c.245 2.18-.942 7.166-4.656 8.513l13.875-1.456-1.256-15.007-4.675.39s-9.923.34-11.805 1.07z" fill="url(#g)"/>
      <path d="M452.2 318.1c.047 0 51.903-3.49 57.217-3.274 15.743-8.638-.076-42.56-13.342-61.532 1.515-4.276-29.850662FE4A09" fill="#f9f0aa"/>
      <path d="M507.79 273.34c-3.52-7.304-7.734-14.35-11.718-20.046 1.514-4.276-29.86-13.892-44.047-13.024-1.782.11-3.505.227-5.154.354-7.695.816-7.774 10.694-4.636 16.923.956 1.898 4.3 8.04 7.847 15.733" fill="url(#h)"/>
      <path d="M455.04 284.95c5.555 14.65 8.664 30.117-1.64 32.907l-1.178.236c.047 0 51.903-3.49 57.216-3.274 8.538-4.685 7.793-16.805 3.207-29.944" fill="url(#i)"/>
      <path d="M447.4 243.49c-3.705 0-4.656 3.562-4.605 5.817.134 5.91 4.605 6.192 4.605 6.192l5.965-.333 2.857-12.163-8.822.486z" fill="url(#j)"/>
      <path d="M447.4 243.53l8.822-.486.908 9.086-7.696.337s2.49-7.274-2.034-8.937z" fill="url(#k)"/>
      <path d="M496.12 253.29c6.686-1.074 6.595-10.07 2.026-13.673-15.498-.57-35.895-.143-50.63.96 1.676-.05 6.337.012F5A2A1A" fill="url(#l)"/>
      <path d="M458.47 267.42c-.143-.33-.323-.75-.73-.805-.25.014-.645-.052-.567-.392.235-.113.533-.04.794-.065.56.0FE922EAC2" fill="#b07e09" stroke="none"/>
    </g>
    <g fill="#448127" stroke="#34541f" stroke-width=".218">
      <path d="M475.8 219.41l-3.77 4.483c-1.2 5.24 1.78 9.187 7.648 12.614 4.753 2.95 13.55 3.69 16.327 1.31l-13.714-13.07-6.49-5.337z" fill="url(#m)" stroke="#4c0505"/>
      <path d="M503.58 354.27c-.672-.81-1.352-1.617-2.035-2.424-8.558 11.298-19.248 21.43-32.617 28.575 15.077-4.26065F0A7A16"/>
    </g>
    <path d="M473.16 215.29c-.997.226-1.392.642-2.11 1.443.916.2 1.69.246 2.52.264.257-.022.344-.348.287-.585l-.128-.955c-.024-.217-.602-.2-.875-.086l.305-.08z" fill="#eac102" stroke="#a08307" stroke-width=".218"/>
    <path d="M471.04 216.73a9.89 9.89 0 0 1 1.053-.298 9.76 9.76 0 0 1 1.078-.19 9.82 9.82 0 0 1-1.052.297 9.94 9.94 0 0 1-1.078.19z" fill="#a08307"/>
    <ellipse cx="477.68" cy="215.416" rx=".775" ry=".811" stroke="#000" stroke-width=".098"/>
    <ellipse cx="477.86" cy="215.261" rx=".337" ry=".353" fill="url(#n)"/>
    <g fill="#34541f">
      <path d="M488.18 389.69a83.377 83.377 0 0 1 1.528-4.44 96.152 96.152 0 0 1 1.783-4.346c1.26-2.87 2.664-5.672 03827CFAD3"/>
      <path d="M510.87 320.07c1.843-1.762 3.47-3.74 4.898-5.85 1.436-2.103 2.682-4.332 3.795-6.623 1.114-2.29 2.098092BF48A09"/>
      <path d="M505.05 349.23c1.202-1.66 2.39-3.327 3.573-4.998l1.778-2.507c.59-.838 1.208-1.654 1.734-2.53 1.068-10C5349EAF7"/>
      <path d="M507.81 352.25c2.362-3.835 4.71-7.68 6.954-11.583 2.25-3.9 4.483-7.814 6.465-11.856 1.985-4.037 3.7-01C6F09A22"/>
    </g>
    <g fill="#448127">
      <path d="M496.38 231.57s3.06 1.798 4.725 4.439c0 0-4.717-.884-8.07-4.653"/>
      <path d="M496.38 231.57c.48.26.933.566 1.38.88.44.322.87.663 1.28 1.025.412.36.796.753 1.16 1.163.363.412.7040044CCFAB0" fill="#34541f"/>
      <path d="M489.58 230.69s7.226 4.61 8.273 4.978c0 0-1.608-3.478-5.05-4.972"/>
      <path d="M489.58 230.69l4.14 2.488c.687.42 1.376.835 2.07 1.243.346.204.694.406 1.044.602.347.194.702.405 1.00707BD3AE2" fill="#34541f"/>
      <path d="M492.46 228.36s3.76 1.6 4.61 4.38c0 0-6.752-2.842-7.96-4.35"/>
      <path d="M492.46 228.36a10.668 10.668 0 0 1 2.805 1.682 7.17 7.17 0 0 1 1.14 1.194c.33.443.607.935.77 1.47l.00783102AAD" fill="#34541f"/>
      <path d="M486.76 231.25s6.646 4.758 8.613 4.758c0 0-1.948-3.258-5.388-4.752"/>
      <path d="M486.76 231.25c.688.456 1.38.908 2.076 1.35.695.445 1.396.88 2.106 1.298.707.423 1.423.833 2.157 1.2055169DA56" fill="#34541f"/>
      <path d="M486.76 232.74s3.46 2.92 5.427 2.92c0 0-1.948-3.258-5.388-4.752"/>
      <path d="M486.76 232.74c.418.312.84.615 1.272.905.428.293.866.573 1.315.83.445.265.902.51 1.376.71.236.1.478.186.723.25.244.07.494.12.74.12l-.088.158a12.4 12.4 0 0 0-1.07-1.45c-.393-.458-.805-.9-1.248-1.31-.442-.41-.915-.787-1.41-1.134a11.007 11.007 0 0 0-1.57-.912c1.13.45 2.165 1.13 3.08 1.934.46.402.894.834 1.292 1.297.4.463.773.944 1.104 1.466l.1.158h-.19c-.55-.002-1.062-.18-1.544-.39a11.45 11.45 0 0 1-1.39-.74c-.442-.28-.87-.58-1.287-.895a17.6 17.6 0 0 1-1.205-1z" fill="#34541f"/>
      <path d="M485.03 226.18s7.207 5.117 8.06 7.896c0 0-6.523-2.994-7.732-4.502"/>
      <path d="M485.03 226.18a51.627 51.627 0 0 1 2.304 1.68 51.03 51.03 0 0 1 2.205 1.808 25.733 25.733 0 0 1 2.050D2C504ADC" fill="#34541f"/>
    </g>
    <g stroke="#24420e" stroke-width=".164">
      <path d="M445.02 370.33c-4.89 3.644-18.553 5.43-20.448 4.8 9.943-8.27 19.725-8.47 20.448-4.8zm69.76 4.44c5.250327501A07" fill="#406325"/>
      <path d="M444.98 370.3c-.72-3.67-10.458-3.45-20.378 4.775 10.446-3.442 19.238-5.405 20.378-4.775zm69.91 4.41c0A8151BA5E" fill="#67923d"/>
    </g>
  </g>
</svg>
