<svg xmlns="http://www.w3.org/2000/svg" height="480" width="640" id="flag-icon-css-kz">
  <g fill-rule="evenodd">
    <path fill="#6fdcff" d="M0 0h640v480H0z"/>
    <g fill="#ffe400">
      <path d="M60.235 466.995c3.252 3.184 2.182 8.539 11.225 7.85 13.806 0 14.204-8.445 14.204-14.343 0-5.888-20.5029BAF9AAD"/>
      <path d="M59.137 343.293c3.252-3.184 5.928-12.621 14.972-11.932 13.805 0 19.034 7.63 19.034 13.529 0 5.887-280DA6C73A31"/>
      <path d="M59.137 319.408c3.252 3.184 5.928 12.621 14.972 11.932 13.805 0 19.034-7.63 19.034-13.529 0-5.888-2802C26D6A38"/>
      <path d="M59.137 160.61c3.252-3.184 5.928-12.62 14.972-11.932 13.805 0 19.034 7.631 19.034 13.53 0 5.887-28.00AD3AE3A48"/>
      <path d="M59.137 136.726c3.252 3.184 5.928 12.62 14.972 11.932 13.805 0 19.034-7.631 19.034-13.53 0-5.887-28.0EE3B7BAE6"/>
      <path d="M60.234 13.003c3.253-3.184 2.182-8.54 11.226-7.85 13.805 0 14.203 8.445 14.203 14.343 0 5.887-20.57 04EBE7DAF9"/>
    </g>
    <g fill="#ffe400" transform="translate(-194.73 8.285) scale(1.0673)">
      <rect rx="85.12" ry="80.648" height="161.3" width="170.24" y="104.45" x="425.9"/>
      <path d="M506.94 56.355c-.708-.007-4.534 26.842-6.013 32.876-1.325 13.43 18.07 12.94 14.897-.532l-8.88-32.344010C4BFA93"/>
      <path d="M534.62 58.119c-.692-.141-10.14 25.429-12.87 31.058-4.149 12.903 14.954 16.119 14.705 2.318L534.62 50FDD75BAAC"/>
      <g transform="matrix(2.1824 0 0 2.0629 -405.01 -272.56)">
        <path d="M360.137 247.889c.625 2.5.781 16.562 14.844 30 14.062 13.437 37.969 16.406 37.969 16.406s.156 1.875-01471C0AB1"/>
        <rect rx="1.719" ry="1.484" height="2.969" width="3.438" y="309.14" x="401.7"/>
        <path d="M445.02 307.731c1.718-.313 6.307 1.25 9.478 2.031 5.828 2.188 16.603 1.094 16.603 2.188s-.67 2.5-3.203AF2F2A34"/>
      </g>
    </g>
  </g>
</svg>
