<svg xmlns="http://www.w3.org/2000/svg" height="480" width="640" id="flag-icon-css-mn">
  <path fill="#c4272f" d="M-.05 0h640.1v480H-.05z"/>
  <path fill="#015197" d="M213.317 0h213.367v480H213.317z"/>
  <circle cx="107" cy="189.056" r="35" fill="#f9cf02"/>
  <circle cx="107" cy="173.147" r="38.182" fill="#c4272f"/>
  <path d="M91.113 131.805c0 8.774 7.113 15.887 15.887 15.887 8.774 0 15.887-7.113 15.887-15.887 0-6.355-3.972-0A3B726A0A" fill="#f9cf02" fill-rule="evenodd"/>
  <circle cx="107" cy="179.51" r="25.455" fill="#f9cf02"/>
  <path d="M37 230.42v152.727h31.818V230.419zm108.182 0v152.727H177V230.419zm-70 25.454V268.6h63.636v-12.727zm004AB646A1C" fill="#f9cf02"/>
  <circle cx="107" cy="306.783" r="33.727" fill="#f9cf02" stroke="#c4272f" stroke-width="3.818"/>
  <path d="M107 273.056a16.864 16.864 0 0 1 0 33.727 16.864 16.864 0 1 0 0 33.727" fill="none" stroke="#c4272f" stroke-width="3.818"/>
  <circle r="6.364" cy="289.919" cx="107" fill="#c4272f"/>
  <circle r="6.364" cy="323.647" cx="107" fill="#c4272f"/>
</svg>
