<svg xmlns="http://www.w3.org/2000/svg" height="480" width="640" id="flag-icon-css-mp">
  <defs>
    <clipPath id="a">
      <path fill-opacity=".67" d="M0 0h640v480H0z"/>
    </clipPath>
  </defs>
  <g clip-path="url(#a)">
    <path fill-rule="evenodd" fill="#0071bc" d="M-160 0h960v480h-960z"/>
    <path d="M369.927 365.661s15.223-16.1 29.86-13.027c4.392-16.98 20.932-18.297 20.932-18.297s-1.61-18.736 19.610F5E81CA1C" fill-rule="evenodd" stroke="#000" stroke-width="1.857" fill="#fff"/>
    <path stroke-linejoin="round" d="M184.94 124.083c.074 0 6.455 5.534 5.264 13.875-1.192 8.34-6.009 19.935-5.04 28.573.591 3.463.367 9.0C4A420A82" fill-rule="evenodd" stroke="#000" stroke-width="1.857" fill="#217900"/>
    <g fill-rule="evenodd" stroke="#ef8a10" fill="#ffd200">
      <path d="M365.965 100.453s10.856-5.008 13.96-14.335-9.396-9.416-11.047-6.451c-1.651 2.964 1.408 10.345.62 12.296-.788 1.952-5.204 6.662-3.533 8.49z" stroke-width="1.858"/>
      <path d="M269.745 103.855s7.048-9.657 5.22-19.316c-1.827-9.657-12.79-3.654-12.79-.26 0 3.393 6.265 8.352 6.5202925EDA0F" stroke-width="2.477"/>
      <path d="M235.018 61.727s-9.385 7.406-10.222 17.2c-.837 9.793 11.336 6.959 12.248 3.69.913-3.268-3.787-9.73-30D14B4BA84" stroke-width="1.858"/>
    </g>
    <path d="M342.775 114.432s18.526 1.166 19.433 11.789-4.405 17.1-4.405 17.1 2.332 22.932-15.805 29.668c-19.433052F37AAEF" fill-rule="evenodd" stroke="#000" stroke-width="1.857" fill="#8c8a8c"/>
    <path d="M357.674 143.193s-9.976 12.437-8.94 17.49" stroke="#000" stroke-linecap="round" stroke-width="1.857" fill="none"/>
    <path d="M344.333 172.337c2.462 2.073 4.793 4.405 5.312 12.049l1.036 15.287 12.955 116.595 11.4 84.339.778 130999ECEA42" fill-rule="evenodd" stroke="#000" stroke-width="1.857" fill="#8c8a8c"/>
    <path d="M274.375 341.147l-2.721 86.281m86.542-74.881l7.644 71.124" stroke="#000" stroke-width="1.857" fill="none"/>
    <path d="M136.572 296.312l-.284.995m358.684-4.119l.284.995" stroke="#000" stroke-width=".968" fill="none"/>
    <path stroke-linejoin="round" d="M126.965 179.83s5.675 7.86 6.694 12.37c1.019 4.512 2.91 13.39 5.385 17.028 2.474 3.638 16.591 23.868037252BAE9" stroke="#6b18b5" stroke-width="1.857" fill="none"/>
    <path stroke-linejoin="round" d="M224.466 72.814s-5.876.42-10.4 2.872c-3.505 2.161-9.443 5.271-13.592 11.024-10.554 8.227-26.43 12.060B6BD7CA3E" stroke="#6b18b5" stroke-width=".968" fill="none"/>
    <path d="M405.485 386.834s-2.259 4.344 6.777 8.167m11.298-18.418s10.078-2.433 16.855 0m13.203-25.376c0 .174-1.39 4.518 6.603 10.773m-.868-22.06s5.908 4.344 15.812 4.17m-75.415 8.509s.348 11.468-5.56 16.855m25.367-34.582s9.73 2.433 17.724-1.564m44.663-15.284s2.085 2.954 12.859 2.433m-54.909-9.212c.348.174 12.685 4.17 20.505.522m4.167-47.785s.52-.695 4.344 12.685m5.21-50.392s-.52 7.124-6.255 10.252m42.919-39.449s-8.34 6.777-6.777 9.557m-34.751-14.421s4.344 7.298-2.78 12.337m-18.245-43.614s7.472-.347 10.774 6.082m-24.845-27.281h5.734m23.976-26.063c0 .173 1.563 1.563-1.39 4.517m-51.956-3.822s3.996 6.256 3.301 13.902m19.812-35.102c1.738-.174 7.646-2.78 7.646-2.78m-33.361-22.069c-.174 0-2.26 7.82 1.564 10.6m-11.128 25.023c0 8.34 6.603 6.255 2.085 14.248m-18.246-21.2c-.173 0-10.425 7.993-10.425 9.383m-16.335-13.726s4.344 4.344 3.302 10.252m-15.981-13.728s-2.259 6.603-5.213 8.34m-17.901-10.078c-.173.348-3.649 7.82-6.081 9.21M288.02 87.61c.174 0 3.475 6.95-.869 11.99m-6.432-47.96c.173.173.695 5.386-2.607 9.904m-28.67 1.912c0 .173 1.39 5.908-7.82 7.82m-9.898 45.174c.174.348 8.862 1.738 8.862 1.738m-30.583 18.426c.174-.174 10.6-3.301 10.6-3.301m-27.457 16.329c.348 0 7.298 1.216 9.036.347m-13.9 6.084s2.259 1.216.347 12.858m-34.234-43.439l4.17 6.256m-18.416 25.892c0-.175 4.17 6.254 9.73 7.47m23.113 25.198c.173 0 6.776-1.39 7.82-2.085m-10.779 25.712c.174 0-.174-4.344 5.213-7.298m-12.34 18.072c0 .173 5.039 6.429 8.514 7.298m-11.465 4.693c.522-.173 5.908-4.865 12.164-4.518m-13.904 20.678s.174 5.388 16.16 3.998m-14.594 14.939c0-.174 4.692-10.773 14.249-14.77m-1.386 28.329s1.39-4.518 9.382-7.646m-.523 25.538s5.734-4.692 7.819-5.387m-.692 19.293s3.475 3.65 12.163-2.606m-54.048 5.556c1.043-.174 13.727-3.127 18.072 3.476m-13.024 6.95s13.38-1.738 15.117-.348m32.667 3.132s-1.737 3.65 14.77-2.432m5.733 9.038c-2.954 5.039.695 9.035-3.128 11.294m-47.093-4.35c.521-.347 6.082-2.259 5.213-10.252m-.175 22.244c.696-.174 9.905-4.17 11.817-2.085m6.258 13.729s1.217-8.167 3.823-9.036m10.075 21.367s7.646-.174 10.948-2.606m3.82-25.015c.174.173 7.124 3.822 21.894.173m-16.333 33.009s2.085 10.6 1.911 13.033" stroke="#000" stroke-width="1.857" fill="none"/>
    <g fill-rule="evenodd" stroke="#000" stroke-width="1.483" fill="#de2010">
      <path d="M232.84 119.03c.002-2.109-.794-4.058-2.087-5.114-1.294-1.055-2.888-1.055-4.18 0s-2.09 3.005-2.088 5.0340378AF9" transform="matrix(1.60885 -.2011 .2072 1.65762 94.795 74.927)"/>
      <path d="M232.84 119.03c.002-2.109-.794-4.058-2.087-5.114-1.294-1.055-2.888-1.055-4.18 0s-2.09 3.005-2.088 5.0340378AF9" transform="matrix(1.60885 -.2011 .2072 1.65762 93.358 57.275)"/>
      <path d="M232.84 119.03c.002-2.109-.794-4.058-2.087-5.114-1.294-1.055-2.888-1.055-4.18 0s-2.09 3.005-2.088 5.0340378AF9" transform="matrix(1.58497 -.3417 .35206 1.633 78.089 74.089)"/>
      <path d="M232.84 119.03c.002-2.109-.794-4.058-2.087-5.114-1.294-1.055-2.888-1.055-4.18 0s-2.09 3.005-2.088 5.0340378AF9" transform="matrix(1.4455 -.73446 .7567 1.4893 55.863 162.938)"/>
      <path d="M232.84 119.03c.002-2.109-.794-4.058-2.087-5.114-1.294-1.055-2.888-1.055-4.18 0s-2.09 3.005-2.088 5.0340378AF9" transform="matrix(1.4455 -.73446 .7567 1.4893 48.885 147.133)"/>
      <path d="M232.84 119.03c.002-2.109-.794-4.058-2.087-5.114-1.294-1.055-2.888-1.055-4.18 0s-2.09 3.005-2.088 5.0340378AF9" transform="matrix(1.3781 -.85423 .88011 1.41987 39.958 167.39)"/>
      <path d="M232.84 119.03c.002-2.109-.794-4.058-2.087-5.114-1.294-1.055-2.888-1.055-4.18 0s-2.09 3.005-2.088 5.0340378AF9" transform="matrix(1.28907 -.98346 1.01327 1.32812 33.795 193.08)"/>
      <path d="M232.84 119.03c.002-2.109-.794-4.058-2.087-5.114-1.294-1.055-2.888-1.055-4.18 0s-2.09 3.005-2.088 5.0340378AF9" transform="matrix(1.1329 -1.15994 1.19508 1.16722 35.345 239.043)"/>
      <path d="M232.84 119.03c.002-2.109-.794-4.058-2.087-5.114-1.294-1.055-2.888-1.055-4.18 0s-2.09 3.005-2.088 5.0340378AF9" transform="matrix(1.02138 -1.25922 1.29739 1.05234 34.295 262.698)"/>
      <path d="M232.84 119.03c.002-2.109-.794-4.058-2.087-5.114-1.294-1.055-2.888-1.055-4.18 0s-2.09 3.005-2.088 5.0340378AF9" transform="matrix(.79817 -1.41132 1.45408 .82236 51.907 315.002)"/>
      <path d="M232.84 119.03c.002-2.109-.794-4.058-2.087-5.114-1.294-1.055-2.888-1.055-4.18 0s-2.09 3.005-2.088 5.0340378AF9" transform="matrix(.66642 -1.4781 1.52289 .6866 56.808 337.386)"/>
      <path d="M232.84 119.03c.002-2.109-.794-4.058-2.087-5.114-1.294-1.055-2.888-1.055-4.18 0s-2.09 3.005-2.088 5.0340378AF9" transform="matrix(.56582 -1.51945 1.5655 .58296 57.907 352.404)"/>
      <path d="M232.84 119.03c.002-2.109-.794-4.058-2.087-5.114-1.294-1.055-2.888-1.055-4.18 0s-2.09 3.005-2.088 5.0340378AF9" transform="matrix(.4482 -1.5582 1.60543 .46178 63.012 370.362)"/>
      <path d="M232.84 119.03c.002-2.109-.794-4.058-2.087-5.114-1.294-1.055-2.888-1.055-4.18 0s-2.09 3.005-2.088 5.0340378AF9" transform="matrix(.20288 -1.60864 1.65738 .20903 94.656 408.901)"/>
      <path d="M232.84 119.03c.002-2.109-.794-4.058-2.087-5.114-1.294-1.055-2.888-1.055-4.18 0s-2.09 3.005-2.088 5.0340378AF9" transform="matrix(.06506 -1.62008 1.66918 .06703 106.295 427.394)"/>
      <path d="M232.84 119.03c.002-2.109-.794-4.058-2.087-5.114-1.294-1.055-2.888-1.055-4.18 0s-2.09 3.005-2.088 5.0340378AF9" transform="matrix(.06506 -1.62008 1.66918 .06703 88.849 428.012)"/>
      <path d="M232.84 119.03c.002-2.109-.794-4.058-2.087-5.114-1.294-1.055-2.888-1.055-4.18 0s-2.09 3.005-2.088 5.0340378AF9" transform="matrix(-.36132 -1.5806 1.62852 -.37226 172.505 473.533)"/>
      <path d="M232.84 119.03c.002-2.109-.794-4.058-2.087-5.114-1.294-1.055-2.888-1.055-4.18 0s-2.09 3.005-2.088 5.0340378AF9" transform="matrix(-.49045 -1.54542 1.59227 -.50531 188.286 485.828)"/>
      <path d="M232.84 119.03c.002-2.109-.794-4.058-2.087-5.114-1.294-1.055-2.888-1.055-4.18 0s-2.09 3.005-2.088 5.0340378AF9" transform="matrix(-.67103 -1.476 1.52073 -.69138 221.877 499.092)"/>
      <path d="M232.84 119.03c.002-2.109-.794-4.058-2.087-5.114-1.294-1.055-2.888-1.055-4.18 0s-2.09 3.005-2.088 5.0340378AF9" transform="matrix(-.7945 -1.41337 1.4562 -.81858 241.371 508.33)"/>
      <path d="M232.84 119.03c.002-2.109-.794-4.058-2.087-5.114-1.294-1.055-2.888-1.055-4.18 0s-2.09 3.005-2.088 5.0340378AF9" transform="matrix(-.94339 -1.31867 1.35863 -.97197 271.636 515.396)"/>
      <path d="M232.84 119.03c.002-2.109-.794-4.058-2.087-5.114-1.294-1.055-2.888-1.055-4.18 0s-2.09 3.005-2.088 5.0340378AF9" transform="matrix(-1.05159 -1.2341 1.27151 -1.08344 292.379 520.207)"/>
      <path d="M232.84 119.03c.002-2.109-.794-4.058-2.087-5.114-1.294-1.055-2.888-1.055-4.18 0s-2.09 3.005-2.088 5.0340378AF9" transform="matrix(-1.13737 -1.15553 1.19056 -1.17183 308.9 526.104)"/>
      <path d="M232.84 119.03c.002-2.109-.794-4.058-2.087-5.114-1.294-1.055-2.888-1.055-4.18 0s-2.09 3.005-2.088 5.0340378AF9" transform="matrix(-1.2301 -1.05628 1.08829 -1.26738 331.402 529.562)"/>
      <path d="M232.84 119.03c.002-2.109-.794-4.058-2.087-5.114-1.294-1.055-2.888-1.055-4.18 0s-2.09 3.005-2.088 5.0340378AF9" transform="matrix(-1.33573 -.91908 .94693 -1.3762 362.524 526.12)"/>
      <path d="M232.84 119.03c.002-2.109-.794-4.058-2.087-5.114-1.294-1.055-2.888-1.055-4.18 0s-2.09 3.005-2.088 5.0340378AF9" transform="matrix(-1.47374 -.67597 .69645 -1.51841 415.897 504.087)"/>
      <path d="M232.84 119.03c.002-2.109-.794-4.058-2.087-5.114-1.294-1.055-2.888-1.055-4.18 0s-2.09 3.005-2.088 5.0340378AF9" transform="matrix(-1.52895 -.53958 .55593 -1.5753 438.682 497.522)"/>
      <path d="M232.84 119.03c.002-2.109-.794-4.058-2.087-5.114-1.294-1.055-2.888-1.055-4.18 0s-2.09 3.005-2.088 5.0340378AF9" transform="matrix(-1.61445 -.12005 .15429 -1.33344 500.491 405.96)"/>
      <path d="M232.84 119.03c.002-2.109-.794-4.058-2.087-5.114-1.294-1.055-2.888-1.055-4.18 0s-2.09 3.005-2.088 5.0340378AF9" transform="matrix(-1.58082 -.36035 .37125 -1.62873 468.417 480.766)"/>
    </g>
    <path d="M480.012 194.65c2.146-2.297 4.143-2.946 6.669-2.109-.891-6.06-2.809-8.116-5.145-7.386-2.336.73-3.39309787E5A2A" fill-rule="evenodd" fill="#ffe300"/>
    <path stroke-linejoin="round" d="M461.32 132.01c-.075 0-6.926 6.852-5.735 15.192 1.192 8.341 6.48 18.618 5.511 27.257-.968 8.639-2.53032B84BA18" fill-rule="evenodd" stroke="#000" stroke-width="1.857" fill="#217900"/>
    <path d="M312.926 47.43c0-1.88-2.114-3.405-4.724-3.405s-4.724 1.525-4.723 3.405c-.001 1.88 2.114 3.405 4.723 07DB8FFA0C" fill-rule="evenodd" fill="#6b18b5"/>
    <path d="M131.281 234.812c0-1.666-1.286-3.017-2.873-3.017s-2.874 1.35-2.874 3.017 1.287 3.017 2.874 3.017 2.809C22A4A83" fill-rule="evenodd" fill="#6b18b5"/>
    <path d="M188.978 108.47c1.4-2.163 1.494-4.496.21-5.21-1.284-.713-3.46.462-4.86 2.626s-1.495 4.497-.211 5.21c0DB2095A49" fill-rule="evenodd" fill="#6b18b5"/>
    <path d="M446.83 153.375s6.386-10.108 3.917-19.621c-2.47-9.515-13.006-2.791-12.78.595.228 3.385 6.81 7.915 7.21 9.981.4 2.066-.744 8.422 1.653 9.045z" fill-rule="evenodd" stroke="#ef8a10" stroke-width=".968" fill="#ffd200"/>
    <path stroke-linejoin="round" d="M324.883 69.303s23.012.894 23.16 15.788c-.074 2.308 0 5.064-.818 11.691 4.542-2.457 7.596-9.309 7-13.702.074-15.118-20.554-25.47-29.342-13.778z" fill-rule="evenodd" stroke="#000" stroke-width="2.322" fill="#217900"/>
    <path stroke-linejoin="round" d="M310.29 68.633s18.542-3.873 18.691 11.021c.15 14.894-5.883 17.277-5.883 17.277s14.224-3.053 14.298-18.17c.075-15.118-18.32-21.82-27.107-10.128z" fill-rule="evenodd" stroke="#000" stroke-width="2.322" fill="#217900"/>
    <path stroke-linejoin="round" d="M373.282 389.952s86.796-24.518 113.005-131.041C471.069 368.252 376.1 402.915 376.1 402.915l-2.818-12.963z" fill-rule="evenodd" stroke="#000" stroke-width="2.477" fill="#f7df73"/>
    <path d="M382.186 396.584c2.682 0 9.32-7.343 13.132-8.19 3.812-.847 4.236-4.66-.142-4.8-4.377-.142-8.19 4.9420F99C7FA8D" fill-rule="evenodd" fill="#8c1800"/>
    <path d="M432.167 359.298s-9.037 5.225-7.766 6.496c1.271 1.27 9.32-4.942 9.46-5.084.142-.14 3.39-4.094-1.694-1.412z" fill-rule="evenodd" stroke="#8c1800" stroke-width="2.477" fill="#8c1800"/>
    <path d="M400.678 383.036s-2.683-.988 4.236-3.67c6.92-2.684 6.496-5.79 8.755-7.061 2.26-1.27 7.06-4.66 8.048-0F63339A92" fill-rule="evenodd" fill="#8c1800"/>
    <path d="M445.582 346.035c-5.93 6.636-5.93 6.495-5.93 6.495" stroke="#8c1800" stroke-linecap="round" stroke-width="3.019" fill="none"/>
    <path d="M454.485 335.16l-5.648 6.919" stroke="#8c1800" stroke-linecap="round" stroke-width="2.786" fill="none"/>
    <path d="M463.373 321.044l-6.355 10.166" stroke="#8c1800" stroke-linecap="round" stroke-width="2.554" fill="none"/>
    <path d="M470.856 306.644l-5.224 10.449m8.616-18.083l-1.695 3.67" stroke="#8c1800" stroke-linecap="round" stroke-width="2.322" fill="none"/>
    <path d="M478.056 288.987l-1.412 4.377" stroke="#8c1800" stroke-linecap="round" stroke-width="1.393" fill="none"/>
    <path stroke-linejoin="round" d="M160.26 215.97s51.958-14.677 67.647-78.444c-9.11 65.454-65.96 86.204-65.96 86.204l-1.687-7.76z" fill-rule="evenodd" stroke="#000" stroke-width="1.483" fill="#f7df73" transform="matrix(-1.65528 0 0 1.70062 524.795 20.382)"/>
    <path d="M250.697 394.416c-2.658 0-9.234-7.475-13.012-8.337-3.778-.862-4.197-4.744.14-4.888 4.337-.143 8.115 05824A8AD7" fill-rule="evenodd" fill="#8c1800"/>
    <path d="M195.51 197.62s-5.41 3.127-4.649 3.888c.76.761 5.579-2.958 5.663-3.043.085-.084 2.029-2.451-1.014-.845z" fill-rule="evenodd" stroke="#8c1800" stroke-width="1.483" fill="#8c1800" transform="matrix(-1.65528 0 0 1.70062 524.795 20.382)"/>
    <path d="M232.373 380.624s2.659-1.006-4.197-3.737-6.436-5.894-8.675-7.188c-2.239-1.293-6.996-4.743-7.975-2.7301A342CA5A" fill-rule="evenodd" fill="#8c1800"/>
    <path d="M203.54 189.68c-3.55 3.973-3.55 3.888-3.55 3.888" stroke="#8c1800" stroke-linecap="round" stroke-width="1.807" fill="none" transform="matrix(-1.65528 0 0 1.70062 524.795 20.382)"/>
    <path d="M208.87 183.17l-3.381 4.142" stroke="#8c1800" stroke-linecap="round" stroke-width="1.668" fill="none" transform="matrix(-1.65528 0 0 1.70062 524.795 20.382)"/>
    <path d="M214.19 174.72l-3.804 6.086" stroke="#8c1800" stroke-linecap="round" stroke-width="1.529" fill="none" transform="matrix(-1.65528 0 0 1.70062 524.795 20.382)"/>
    <path d="M218.67 166.1l-3.127 6.255m5.157-10.825l-1.014 2.198" stroke="#8c1800" stroke-linecap="round" stroke-width="1.39" fill="none" transform="matrix(-1.65528 0 0 1.70062 524.795 20.382)"/>
    <path d="M222.98 155.53l-.845 2.62" stroke="#8c1800" stroke-linecap="round" stroke-width=".834" fill="none" transform="matrix(-1.65528 0 0 1.70062 524.795 20.382)"/>
    <path stroke-linejoin="round" d="M490.42 239.302c.427 6.682 6.967 13.08 4.408 24.738-3.27 13.221-14.786 44.641-12.795 50.186-3.412-4.0367C62AB6" fill-rule="evenodd" stroke="#000" stroke-width="2.322" fill="#217900"/>
    <path stroke-linejoin="round" d="M490.42 239.442s10.663 13.506 10.094 24.169c-.568 10.663-6.54 23.173-4.55 28.718-3.411-4.692-4.264-70D3C606AD1" fill-rule="evenodd" stroke="#000" stroke-width="2.322" fill="#217900"/>
    <path stroke-linejoin="round" d="M141.123 242.575s-10.378 13.08-9.81 23.742c.142 7.109 13.222 36.822 11.232 42.367 3.412-4.691 4.407-041EFACAF2" fill-rule="evenodd" stroke="#000" stroke-width="2.322" fill="#217900"/>
    <path stroke-linejoin="round" fill="#fff" stroke-dashoffset="1" transform="matrix(1.16516 0 0 1.16534 201.97 -23.618)" stroke="#000" stroke-linecap="square" stroke-width="1.661" d="M99.959 125.78l22.172 68.231 71.743.003-58.04 42.172 22.167 68.233-58.041-42.15-58.044 42.16 22.168-68.23-58.04-42.17h71.743z"/>
  </g>
</svg>
