<svg xmlns="http://www.w3.org/2000/svg" xmlns:xlink="http://www.w3.org/1999/xlink" height="480" width="640" id="flag-icon-css-mx">
  <defs>
    <linearGradient id="a">
      <stop offset="0" stop-color="#fff"/>
      <stop offset="1" stop-color="#f15770"/>
    </linearGradient>
    <radialGradient gradientTransform="matrix(.14152 .03595 -.03453 .14198 213.144 162.444)" r="25.859" cy="103.66" cx="842.31" gradientUnits="userSpaceOnUse" xlink:href="#a" id="b"/>
    <radialGradient gradientTransform="matrix(-.13441 -.05384 .04964 -.12489 397.879 -24.245)" r="25.859" cy="550.46" cx="651.52" gradientUnits="userSpaceOnUse" xlink:href="#a" id="c"/>
    <radialGradient gradientTransform="matrix(.07536 .00282 -.00343 .14804 412.4 -203.629)" r="25.859" cy="740.37" cx="380.84" gradientUnits="userSpaceOnUse" xlink:href="#a" id="d"/>
  </defs>
  <path fill="#ce1126" d="M426.667 0H640v480H426.667z"/>
  <path fill="#fff" d="M213.333 0h213.333v480H213.333z"/>
  <path fill="#006847" d="M0 0h213.333v480H0z"/>
  <path d="M355.778 289.435l.224 4.478 1.69-1.117-1.296-3.687z" fill="#fcca3e" stroke="#aa8c30" stroke-width=".267"/>
  <circle r="1.442" cy="288.216" cx="355.582" fill="#fcca3e" stroke="#aa8c30" stroke-width=".229"/>
  <path d="M361.142 296.414l-3.277-3.138-1.471 1.183 4.451 2.594z" fill="#fcca3e" stroke="#aa8c30" stroke-width=".267"/>
  <path d="M360.86 298.181c-.464-.62-.307-1.526.34-2.025.65-.498 1.552-.399 2.015.22.458.62.307 1.529-.342 2.028-.65.497-1.552.397-2.013-.222z" fill="#fcca3e" stroke="#aa8c30" stroke-width=".229"/>
  <path d="M386.315 249.58l3.358 3.34.39-1.69-3.069-2.059z" fill="#fcca3e" stroke="#aa8c30" stroke-width=".267"/>
  <circle r="1.406" cy="248.719" cx="385.866" fill="#fcca3e" stroke="#aa8c30" stroke-width=".229"/>
  <path d="M395.16 251.56l-5.13 1.465.423-1.695 4.411-.43z" fill="#fcca3e" stroke="#aa8c30" stroke-width=".267"/>
  <circle r="1.374" cy="250.852" cx="395.993" fill="#fcca3e" stroke="#aa8c30" stroke-width=".229"/>
  <path d="M377.927 276.84l-3.13-4.874.503-.251 3.541 4.181z" fill="#fcca3e" stroke="#aa8c30" stroke-width=".267"/>
  <circle r="1.454" cy="270.833" cx="374.489" fill="#fcca3e" stroke="#aa8c30" stroke-width=".229"/>
  <path d="M378.125 276.97l3.975.726.147-.544-3.33-1.32z" fill="#fcca3e" stroke="#aa8c30" stroke-width=".267"/>
  <circle r="1.439" cy="277.74" cx="383.315" fill="#fcca3e" stroke="#aa8c30" stroke-width=".229"/>
  <path d="M284.639 288.056c0 .693-.544 1.185-1.06 1.185-.512 0-.929-.56-.929-1.25 0-.692.417-1.252.93-1.252.515 0 1.059.628 1.059 1.317z" fill="#fcca3e" stroke="#aa8c30" stroke-width=".229"/>
  <path d="M284.616 290.288l.91 5.002-1.21-.478-.436-4.347z" fill="#fcca3e" stroke="#aa8c30" stroke-width=".267"/>
  <path d="M285.72 288.59c.585.757-.404 1.913-1.454 2.2-1.05.286-2.36-.198-2.347-1.16.014-1.09 1.531-.523 1.939-.65.629-.198 1.235-1.206 1.863-.39z" fill="#fcca3e" stroke="#aa8c30" stroke-width=".229"/>
  <ellipse ry="1.13" rx="1.558" cy="296.261" cx="277.002" fill="#fcca3e" stroke="#aa8c30" stroke-width=".229"/>
  <path d="M279.64 295.995l4.806-.24-.813-.956-3.947.429z" fill="#fcca3e" stroke="#aa8c30" stroke-width=".267"/>
  <path d="M280.045 295.439c.4 1.217.433 2.875-.928 2.7-1.365-.177-1.107-1.396-1.213-1.866-.195-.854-.995-1.623-.173-2.456.822-.836 1.91.403 2.314 1.622z" fill="#fcca3e" stroke="#aa8c30" stroke-width=".229"/>
  <ellipse ry="1.433" rx=".942" cy="269.187" cx="264.384" fill="#fcca3e" stroke="#aa8c30" stroke-width=".229"/>
  <path d="M264.403 272.36l.11 4.656-1.212-1.1.085-3.708z" fill="#fcca3e" stroke="#aa8c30" stroke-width=".267"/>
  <path d="M266.2 270.943c.246 1.074-1.329 1.68-2.4 1.48-1.072-.196-1.882-.756-1.72-1.744.162-.99 1.493-.767 1.947-.493.454.27 1.833-.75 2.174.757z" fill="#fcca3e" stroke="#aa8c30" stroke-width=".229"/>
  <ellipse ry=".741" rx="1.623" cy="276.46" cx="256.173" fill="#fcca3e" stroke="#aa8c30" stroke-width=".229"/>
  <path d="M259.092 276.46l3.655-.248 1.557 1.204-5.269-.198z" fill="#fcca3e" stroke="#aa8c30" stroke-width=".267"/>
  <path d="M257.751 274.501c.986.032 1.667 1.119 1.526 2.272-.14 1.153-1.028 2.086-1.936 1.945-.91-.146-.844-.90628531ADF" fill="#fcca3e" stroke="#aa8c30" stroke-width=".229"/>
  <path d="M250.727 253.488l2.04-4.808-.305-.264-2.313 3.377z" fill="#fcca3e" stroke="#aa8c30" stroke-width=".267"/>
  <path d="M252.395 248.688c-1.01-.739-1.233-1.496-.908-2.243.324-.745 1.08-.261 1.08-.261s.499.55.866.745c.368031976CA56" fill="#fcca3e" stroke="#aa8c30" stroke-width=".229"/>
  <path d="M246.033 250.166l3.769 2.26-.11 1.778-4.09-3.514z" fill="#fcca3e" stroke="#aa8c30" stroke-width=".267"/>
  <path d="M246.003 250.593c-.836.934-1.603 1.074-2.296.661-.695-.413-.135-1.122-.135-1.122s.595-.437.83-.785c.0634D9DA6D" fill="#fcca3e" stroke="#aa8c30" stroke-width=".229"/>
  <path d="M356.593 289.77s-.275.182-.425.478c-.143.295-.308.888-.308.888l.017-1.448.488-.281.228.363z" fill="#aa8c30"/>
  <path d="M356.807 288.863s-.337.572-1.137.527c-.798-.043-1.19-.415-1.285-.823-.098-.405-.098-.701.16-1.175.260F592E3AC0" fill="#aa8c30"/>
  <path d="M393.805 251.073s.026.346-.429.594c-.454.246-1.314.757-1.314.757l2.824-.822-.234-.685-.847.156zm-17.0A4B135A62" fill="#aa8c30"/>
  <path d="M384.647 277.465c.235.877-.544 1.723-1.55 1.428-1.006-.3-1.276-1.298-.96-1.836l-.25.627.184.834.617.0F5251AAF0" fill="#aa8c30"/>
  <path d="M284.639 291.111s-.194.064-.367.352c-.172.284-.238.788-.238.788l-.087-1.337.585-.309.107.506zm-3.7870084DD7A35" fill="#aa8c30"/>
  <path d="M275.527 296.162s.217.857 1.168.878c.953.024 1.191-.265 1.191-.265l.108.33-.346.175-.827.095-.728-.1011C077A6E" fill="#aa8c30"/>
  <path d="M252.007 249.1s.02.113 0 .55c-.022.44-.196 1.164-.196 1.164l.866-1.934-.346-.308-.324.528zm-5.364 1.003B15DAFF" fill="#aa8c30"/>
  <path d="M399.854 240.155c-.307 3.834-4.09 5.792-6.068 7.226-1.983 1.435-2.94 3.212-2.94 3.212l-.665 2.236-.3042D86EAC6" fill="#9ca168"/>
  <path d="M355.367 295.621c.308-.41 3.005-2.813 4.382-3.522 1.38-.709 3.212-.84 3.212-.84 1.9-.347 2.208-.066 067691CA01" fill="#717732"/>
  <path d="M306.704 304.84s.406-1.134 3.132-2.466c2.726-1.335 6.83-3.13 7.22-2.9.39.232-.212 1.715-.212 1.715l-2.643.805-2.11 1.236-2.466 1.596-2.921.014z" fill="#9ca168"/>
  <path d="M313.652 297.671c-3.483.132-5.383.989-6.053 1.12-.23.046-.732.402-1.16.19-.818-.405-1.528-1.527-1.520F3449BAF7" fill="#9ca168"/>
  <path d="M308.372 304.132c.974.017 1.104.544 1.234.527.13-.017 1.77-1.416 3.327-2.271 1.558-.858 3.926-1.367 083FAABAEE" fill="#717732"/>
  <path d="M314.437 310.837s-.633-.681-1.476-1.126c-.844-.443-1.128-.312-1.128-.312l-.39-.139.74-1.927 5.557-5.02BF457A2C" fill="#fff"/>
  <path d="M318.81 296.68s-.091.282-.13 1.102c-.043.82.053 5.123-.157 5.712-.21.588-3.201 1.822-4.91 3.312-1.710FB2D50AB1" fill="#016848"/>
  <path d="M321.523 296.65s1.64-.098 1.867.156c.227.254.193.535.203.619.007.08.086 3.978-.203 5.259-.305 1.339-0FE2AA3A7A" fill="#cd202a"/>
  <path d="M332.479 309.968s-.394-.397-1.78-.42c-1.393-.024-1.506.186-1.506.186s-.765-.963-1.99-1.761c-1.228-.80D532F5AF3" fill="#cd202a"/>
  <path d="M344.936 286.35s-3.57-1.385-3.312-2.639c.26-1.25 8.247-3.355 8.247-3.355l.127-2.107s-1.168-.065-3.18032159FA27" fill="#30c2dc" stroke="#0872a7" stroke-width=".533"/>
  <circle cx="284.506" cy="280.688" r="2.091" fill="#fff" stroke="#0872a7" stroke-width="1.044"/>
  <circle cx="296.452" cy="270.943" r="2.092" fill="#fff" stroke="#0872a7" stroke-width="1.044"/>
  <circle cx="346.53" cy="286.547" r="2.146" fill="#fff" stroke="#0872a7" stroke-width="1.044"/>
  <path d="M275.13 267.812c-.682 1.579 2.01 4.575 3.893 4.904 1.883.33 2.921-.13 3.246-1.053.325-.924.073-1.926-.357-2.5-1.2-1.615-6.102-2.931-6.782-1.351z" fill="#f8c83c"/>
  <path d="M281.066 270.22c-.052-.954-1.622-1.879-2.629-1.879-1.006 0-2.013-.031-1.85.496.162.525 2.76 1.22 2.80645491A4A" fill="#fff"/>
  <path d="M297.683 288.261c.431 1.391-.649 2.072-2.045 2.699-1.396.625-4.25.261-4.9-.855-.65-1.12 1.038-2.931 2.758-3.36 1.72-.427 3.796.264 4.186 1.516z" fill="#f8c83c"/>
  <path d="M294.795 289.084c.546-.094.553.826 1.04.756.486-.064.907-.854.777-1.382-.129-.527-1.039-1.25-1.817-10202C70A09" fill="#fff"/>
  <path d="M349.218 281.054c1.266 1.683 3.548.131 4.152-.524.607-.66 2.466-1.735 1.71-2.833-.76-1.097-2.055-1.00145961AD7" fill="#f8c83c"/>
  <path d="M349.63 279.941s.11-1.833 1.82-1.91c.972-.043 1.015.265 1.752.683.734.415 1.016-.55 1.016-.55s.044 1034EE39AF9" fill="#fff"/>
  <path d="M321.85 276.383l-.844-.547s-1.689-.087-2.834-.065c-1.149.021-3.419.131-3.419.131l3.395 9.855 4.07 5.055F3FEAE8" fill="#f9aa51" stroke="#953220" stroke-width=".533" stroke-linecap="round" stroke-linejoin="round"/>
  <path d="M310.635 277l.163-1.119s.768-.097 1.839-.13c1.071-.036 2.006.07 2.121.153.11.083 2.37 2.843 3.147 4.0A563C4A04" fill="#f9aa51" stroke="#953220" stroke-width=".533" stroke-linecap="round" stroke-linejoin="round"/>
  <path d="M308.243 275.79s2.336-.044 2.553.087c.217.132 2.813 2.438 3.85 5.29 1.04 2.853.52 3.249 1.864 6.19 109981C5A3F" fill="#f9aa51" stroke="#953220" stroke-width=".533" stroke-linecap="round" stroke-linejoin="round"/>
  <path d="M307.115 277.656c0 .88.931.923 1.169.88.237-.046 1.039-.353 1.039-1.54 0-1.184-.735-2.105-2.186-2.193-1.45-.088-2.552 1.735-2.552 2.962 0 1.229 1.232 1.866 1.232 2.328 0 0-1.232 1.142-1.168 3.137.064 2 1.688 3.535 1.688 3.535s-1.732 1.382-1.732 2.766c0 1.384 1.321 2.303 2.554 2.303 1.233 0 2.813-.789 2.813-1.84 0-1.056-.93-1.69-1.71-1.69-.779 0-1.103.458-1.103.81m25.64-10.902c0 .857-.553.892-1.04.892s-1.136-.265-1.136-1.353c0-1.086 1.43-1.678 2.338-1.678.906 0 2.466 1.25 2.466 2.766 0 1.514-1.104 2.535-1.104 2.535s.68.328.68 2.236c0 1.912-1.23 3.293-1.23 3.293s1.608.628 1.608 2.603c0 1.973-1.365 2.619-2.308 2.619-.941 0-2.581-.561-2.581-1.91 0-1.354.845-1.828 1.493-1.828.649 0 1.283.758 1.283 1.498" fill="#f9aa51" stroke="#953220" stroke-width=".533" stroke-linecap="round" stroke-linejoin="round"/>
  <path d="M309.5 288.65s.24.158.423.545c.186.39.318 1.015.746 1.396.844.757 7.269.99 9.218.99 1.946 0 7.787.260E0D855AB7" fill="#953220"/>
  <path d="M346.43 276.079s-.91-.33-1.33-1.087c-.424-.758-.78-1.712-.457-1.91.328-.198 1.007.459.945 1.055-.0670764B68A3D" fill="#231f20"/>
  <path d="M359.968 274.166s-.876.525-1.62.23c-.747-.297-1.33-.726-1.042-1.053.295-.33.486-.198.877.229.39.43 108126BFA25" fill="#231f20"/>
  <path d="M342.772 268.368l-2.864 3.033s6.588 3.688 11.65 3.524c5.064-.163 10.842-4.115 11.228-4.94.392-.82.0607D410AACB" fill="#8cbebf" stroke="#04534e" stroke-width=".533"/>
  <path d="M342.04 269.58s7.054 1.055 9.085-.746c2.037-1.798 4.242-5.311 5.671-6.102 1.43-.792 2.075-.792 2.07507FAABFA75" fill="#0c8489"/>
  <path d="M352.791 265.519c0-.602.394-.572.932-.572.537 0 1.124.103 1.124.703s-.586 1.47-1.124 1.47c-.538 0-.90297551AC8" fill="#04534e"/>
  <path d="M355.626 267.294c0-.487.665-.834 1.058-.834.397 0 .716.392.716.88 0 .482-.32.876-.716.876-.393 0-1.001BCA4AA05" fill="#8cbebf"/>
  <path d="M347.725 269.359s-.974.165-1.494.66c-.517.493-.584 1.055-.29 1.218.29.163.65-.363.746-.593.095-.232 02D7E04A2C" fill="#231f20"/>
  <path d="M353.18 269.328s-.616.032-1.038.427c-.42.397-.81.89-.517.923.29.032.748-.197.776-.462.033-.262.779-.0D2E064AEF" fill="#231f20"/>
  <path d="M362.818 267.515s.391 1.942-1.296 2.895c-1.687.956-6.426 4.314-10.904 3.919-4.48-.396-9.576-2.963-9.006FEE4A6F" fill="#04534e"/>
  <path d="M274.879 242.204s1.039.89.941 1.646c-.098.757-.358 1.056-.648.923-.293-.132-.293-.923-.228-1.25.065-03CDFBCAA8" fill="#231f20"/>
  <path d="M282.628 257.153s.91-6.103-4.025-10.405c-4.934-4.302-8.136-3.25-9.825-1.666-1.687 1.578-3.158 6.76 20BC3ADDA09" fill="#8cbebf" stroke="#04534e" stroke-width=".533"/>
  <path d="M267.58 250.692s-.094-3.353 1.49-4.35c1.584-1.003 6.8-1.873 9.372 3.081 2.57 4.95 2.622 7.426 1.973 052C6F3AAB" fill="#0c8489"/>
  <path d="M281.972 258.03s-.864.965-2.64.878c-1.773-.089-10.038-2.24-12.116-9.658l.13 1.624.086.527.545 1.495 04F5E95A1A" fill="#04534e"/>
  <path d="M277.668 255.888c0-.662.339-.682.865-.682s.93-.232.93.427c0 .661-.36 1.614-.887 1.614-.525 0-.908-.7059DE0AAE3" fill="#04534e"/>
  <path d="M271.07 248.246c.085-.352.33-.594.778-.594.447 0 .843.084.843.594 0 .507-.363.924-.81.924-.449 0-.9305598AFAE4" fill="#8cbebf"/>
  <path d="M278.666 249.442s.55.69.648 1.217c.096.526.096 1.12-.098 1.187-.195.065-.519-.33-.616-.823-.097-.49608ED631A29" fill="#231f20"/>
  <path d="M270.52 247.271s.487.132.909.46c.422.329.584.723.422.922-.162.197-.551-.097-.648-.33-.099-.23-.682-10664CD2A4E" fill="#231f20"/>
  <path d="M277.271 254.905s.585.23.844.46c.26.232.325.594.13.66-.194.065-.324-.362-.487-.527a9.146 9.146 0 0 107CA3E5A13" fill="#231f20"/>
  <path d="M272.136 243.842s-3.27.71-3.866 2.817c-.599 2.108-.625 4.451-.625 4.451l-.468-2.684.65-1.74.952-1.5902E3B07A73" fill="#04534e"/>
  <path d="M285.645 252.17s1.135.744 1.248 1.153c.115.413.162.545-.128.66-.293.118-.764-.344-.894-.66-.13-.313-0E5B207A2D" fill="#231f20"/>
  <path d="M301.492 261.237s-5.016-7.256-12.808-7.64c-6.232-.307-8.2 5.258-7.973 6.937.222 1.652 2.563 5.278 100E76F18A94" fill="#8cbebf" stroke="#04534e" stroke-width=".533"/>
  <path d="M295.572 256.254s2.078 1.583 2.955 2.833c.875 1.25 1.07 2.173.551 2.339-.52.16-5.03-4.02-8.73-4.907-0F32B29A8A" fill="#0c8489"/>
  <path d="M289.21 257.275c0 .465-.488.695-.973.695s-.893-.245-.893-.709c0-.465.393-.84.877-.84s.99.39.99.854zm0E61A82A73" fill="#04534e"/>
  <path d="M285.835 262.707c0-.517.533-.624.99-.624.456 0 1.038.486 1.038 1.004 0 .517-.582.871-1.038.871-.457 0-.99-.732-.99-1.25z" fill="#8cbebf"/>
  <path d="M292.487 264.513c0-.422.251-.798.682-.798.43 0 .957.252.957.673 0 .425-.429.89-.86.89a.772.772 0 0 10A5DEC3AEB" fill="#04534e"/>
  <path d="M288.92 256.848c0 .416-.172.64-.584.64s-.909-.224-.909-.64c0-.42.19-.546.6-.546.413 0 .894.126.894.50E3552CAE4" fill="#8cbebf"/>
  <path d="M294.437 261.922s.81-.263 1.426-.2c.618.067.651.299.651.396 0 .1-.488.299-.714.23a86.243 86.243 0 0 0D34F58A34" fill="#231f20"/>
  <path d="M288.532 261.557s1.071-.296 1.558-.296c.488 0 .618.034.682.264.065.229-.108.328-.509.307-.4-.023-1.705E6BB8AC6" fill="#231f20"/>
  <path d="M284.944 263.31c.053-.055.453-.66.876-.801.42-.143.908-.12.993.097.089.22-.366.549-.668.615-.303.065086F0F8A7C" fill="#231f20"/>
  <path d="M300.083 263.728s-2.401 2.043-7.82 1.846c-5.422-.199-10.323-2.504-11.555-5.039l.486 1.25 1.202 1.6140CB1DA8A31" fill="#04534e"/>
  <path d="M301.028 256.353s1.363.527 1.59.856c.228.328.519.626.519.626s-.356.888-.681.528c-.325-.365-.39-.365-07F2E3CA4E" fill="#231f20"/>
  <path d="M306.353 253.922s1.2.891 1.395 1.284c.195.396.584.921.195 1.053-.39.132-.941-.46-1.104-.82-.163-.3660ADA854AE1" fill="#231f20"/>
  <path d="M316.738 273.115s.732-.89.9-1.386c.164-.492.261-1.051-.072-1.02-.331.031-.734.495-.755.858-.026.36-.073 1.548-.073 1.548z" fill="#231f20"/>
  <path d="M299.854 264.124c.048-2.439 3.505-8.066 7.496-8.001 1.662.028 4.92.893 7.562 2.075 2.205.987 2.922 20F5B616A71" fill="#8cbebf" stroke="#04534e" stroke-width=".533"/>
  <path d="M299.854 264.124l.26.005c.008-.547.22-1.328.6-2.168.568-1.263 1.511-2.673 2.665-3.754 1.155-1.079 2.00053C4A66" fill="#04534e"/>
  <path d="M323.968 264.886c-.42.33-.875.33-1.394.33-.523 0-11.587-6.75-15.027-6.455-3.439.296-6.717 1.779-6.81060007BA87" fill="#0c8489"/>
  <path d="M306.483 263.088c0 .691-.267 1.175-.94 1.175-.671 0-1.173-.305-1.173-.996 0-.689.381-.948 1.053-.94803046B8A7F" fill="#04534e"/>
  <path d="M306.445 262.943c0 .543-.466.988-1.04.988-.574 0-1.039-.445-1.039-.988 0-.546.461-.762 1.034-.762.570EEBFE1A18" fill="#8cbebf"/>
  <path d="M312.677 264.239c0 .695-.267 1.178-.94 1.178-.672 0-1.174-.307-1.174-.998 0-.69.381-.945 1.055-.945.672 0 1.059.078 1.059.765z" fill="#04534e"/>
  <path d="M308.037 267.187c0 .548-.466.989-1.039.989s-1.038-.441-1.038-.989c0-.541.66-.82 1.234-.82.572 0 .8430B6436CAD1" fill="#8cbebf"/>
  <path d="M314.757 264.947s1.651-.166 1.945.132c.294.296.26.722.13.855-.13.132-.78.165-.941-.064-.161-.232-1.10FAF196A53" fill="#231f20"/>
  <path d="M308.723 263.317s1.655.215 2.06.526c.406.314.699.33.666.576-.032.248-.21.431-.47.396-.26-.034-.975-.01F882AA5F" fill="#231f20"/>
  <path d="M302.833 263.042s.995-.22 1.472-.22c.475 0 1.16-.165 1.168.22.007.386-.583.459-.935.349-.347-.119-1.058327BA58" fill="#231f20"/>
  <path d="M322.612 266.616s-1.654 1.99-3.96 2.98c-2.303.988-4.055 1.315-7.27 1.118-3.211-.197-4.77-.69-6.944-10F8F59AA09" fill="#04534e"/>
  <path d="M320.692 280.421c.18.48.597.914 1.12.926.523.016 1.624-.02 1.624-.02l3.554-.212 1.25-1.434.762-3.21s00451EBABD" fill="#0c8489" stroke="#04534e" stroke-width=".533"/>
  <path d="M322.178 279.195c1.05 0 .239-1.736 1.43-3.8 1.19-2.06 2.64-4.566 3.007-4.566s.43.375.863.245c.433-.106251A2AB7" fill="#8cbebf"/>
  <path d="M325.79 274.44c-.284.022-.694.308-.823.472-.13.165-.313.517-.195.9.119.384.68.758.726.802l.45-.012.905379ECAA7" fill="#8cbebf"/>
  <path d="M327.252 275.507s.075.636-.383.965c-.459.33-.751.296-1.016.296-.264 0-.55-.054-.743-.318-.193-.264-.0F94425A7F" fill="#04534e"/>
  <path d="M321.72 281.1s5.267-.09 5.69-.815c.42-.722-.455-3.555 2.726-5.792 3.179-2.239 5.648-2.208 7.335-2.340DDBE38A36" fill="#04534e"/>
  <path d="M323.938 270.844c-.268.215-.664.202-.75-.1-.241-.862.272-2.139.272-2.139s-.013 1.337.087 1.558c.099.070F2BCADB" fill="#231f20"/>
  <path d="M328.403 274.037s-.47.544-1.008.84c-.533.294-1.116.739-1.444.642-.322-.1.208-.801.39-.874.91-.36 2.008B1915AFC" fill="#231f20"/>
  <path d="M334.567 269.854s-.421-.393-1.17-.574c-.744-.184-1.085-.017-1.166.197-.082.213-.634.552-.358.716.2760214942A05" fill="#231f20"/>
  <ellipse cx="328.766" cy="207.441" rx="2.872" ry="4.29" transform="rotate(8.667)" fill="url(#b)"/>
  <path d="M295.359 246.92l-1.707 4.269 1.394-.194.805-3.757z" fill="#fcca3e" stroke="#aa8c30" stroke-width=".267"/>
  <path d="M296.151 245.107c-.607-.076-1.166.386-1.244 1.037-.08.647.349 1.232.957 1.311.609.076 1.164-.389 1.245-1.035.078-.648-.348-1.234-.958-1.313z" fill="#fcca3e" stroke="#aa8c30" stroke-width=".229"/>
  <path d="M369.69 255.774l-4.207 3.946 1.736.442 2.886-3.803z" fill="#fcca3e" stroke="#aa8c30" stroke-width=".267"/>
  <path d="M371.565 254.143c-.674-.372-1.565-.118-1.994.567-.43.682-.231 1.537.441 1.908.674.372 1.565.118 1.996-.565.429-.684.23-1.539-.443-1.91z" fill="#fcca3e" stroke="#aa8c30" stroke-width=".229"/>
  <path d="M262.765 232.993l2.22 4.89.955-1.36-2.513-3.703z" fill="#fcca3e" stroke="#aa8c30" stroke-width=".267"/>
  <path d="M261.873 230.86c-.55.467-.608 1.318-.127 1.904.48.592 1.317.69 1.87.225.55-.464.608-1.319.127-1.905-.482-.589-1.317-.69-1.87-.224z" fill="#fcca3e" stroke="#aa8c30" stroke-width=".229"/>
  <path d="M296.57 245.267s.343.186-.053.064c-.398-.12-1.34.337-1.341 1.001 0 .666.493 1.036.991 1.04.5.005-.180EB654BAF1" fill="#aa8c30"/>
  <path d="M295.61 248.14s-.271-.056-.517.31a49.394 49.394 0 0 1-.741 1.056l.953-2.348.52.271-.215.71zm76.366 606AA814A0E" fill="#aa8c30"/>
  <path d="M369.355 257.26s-.29-.194-.769.1c-.476.293-1.414.825-1.414.825l2.331-2.164.47.547-.618.692zm-107.009078D350AA0" fill="#aa8c30"/>
  <path d="M263.991 233.755s-.265.192-.155.694c.114.507.295 1.487.295 1.487l-1.21-2.702.644-.235.426.756z" fill="#aa8c30"/>
  <ellipse cx="337.631" cy="-128.069" rx="4.617" ry="3.108" transform="rotate(62.907)" fill="url(#c)"/>
  <path d="M262.59 241.214s.951.22 1.47-.044c.52-.264.607-.66.735-.787.13-.132.26-.616.217-.924-.044-.307-.735-0CD5F40A2C" fill="#e92736"/>
  <path d="M263.999 238.136c.113.228.649.942.865 1.03.217.09.866.113 1.083.025.217-.088.908-.747.93-1.033a1.47 09FAEBDA70" fill="#e92736"/>
  <path d="M269.233 237.55c.13-.35.086-1.493-.151-1.736-.238-.241-.628-.261-.65-.417-.02-.152.282-.22.282-.484 0B06536A27" fill="#e92736"/>
  <path d="M293.835 249.496c-.076.204-.201.962-.127 1.152.073.186.44.61.62.693.18.088.99.14 1.177-.013a1.21 1.20458CCFA7E" fill="#e92736"/>
  <path d="M297.264 252.46c.292-.124.969-.818.977-1.111.009-.291-.204-.551-.124-.653.08-.105.298.048.462-.107.1037ACFBA55" fill="#e92736"/>
  <path d="M365.911 258.517c-.163.119-.641.627-.679.8-.037.173.04.656.14.801.1.146.714.551.94.524.229-.03.397-.0277004A13" fill="#e92736"/>
  <path d="M366.445 262.235c.277.107 1.186.103 1.387-.07.198-.173.225-.465.348-.475.122-.013.167.216.377.224.210B73088A02" fill="#e92736"/>
  <path d="M264.167 239.088c.211.318-.07 1.083-.242 1.3-.172.216-1.326-.099-1.342-.313-.019-.216-.102-.577.049-0D5B9AFA75" fill="#f7e204"/>
  <ellipse cx="438.558" cy="-92.951" rx="2.239" ry="4.466" transform="rotate(47.855)" fill="url(#d)"/>
  <path d="M285.805 199.294s-3.83.329-6.491-.132c-2.661-.461-2.077-7.244-2.143-7.44-.064-.198-1.622-1.845-1.363091493FA4C" fill="#a8ac71"/>
  <path d="M284.7 187.614c1.687-.394.714-4.793.714-4.793l-1.168.973s.722.939.722 1.95c0 1.01-.268 1.87-.268 1.87z" fill="#f1a720"/>
  <path d="M287.778 231.484s-.783-.643-.86-.696c-.603-.4-3.243-2.535-2.82-8.88.476-7.179 10.914-10.954 11.595-102785E9A32" fill="#a8ac71"/>
  <path d="M282.688 235.5l.585 2.7-1.655.607-.714-.031-.518.229-1.283 1.237-.325-.102s-.195.068-.26-.723c-.064-0F98001ADE" fill="#78732e"/>
  <path d="M276.586 187.073c-.174.637-.412 1.8.476 2.02.48.118 2.383-.04 4.543-2.503 1.04-1.185 1.06-2.35 1.06-0A5C598A12" fill="#c6c7a6"/>
  <ellipse ry=".405" rx=".382" cy="183.613" cx="282.491" fill="#1c242f"/>
  <path d="M279.74 184.018a17.732 17.732 0 0 0-1.785 1.647s1.46-.413 2.62-1.468c.66-.597 1.944-.83 2.62-.673.350D88E12A23" fill="#a8ac71"/>
  <path d="M284.128 224.498s-.063-.304-.104-1.062c-.042-.757.045-1.137.045-1.137l-.865.751-.828 1.152 1.282.46.0170A71A19" fill="#78732e"/>
  <path d="M287.313 216.162l1.931-1.958-3.211-.92.585 2.256zm1.349-5.181l.195-3.325s-.655.307-1.483.997c-.827.60F599E9AF8" fill="#78732e"/>
  <path d="M291.793 204.764s.73-.883.779-1.393c.049-.51.044-.351.044-.351l1.948.032 1.167.098.146.117-.876 1.03063C4B4AB0" fill="#78732e"/>
  <path d="M271.64 222.197l-.372.787s1.298-.673 2.305-.639c1.005.033 2.126 1.285 2.126 1.285l.243-.91s-1.331-1.094B201A98" fill="#fff"/>
  <path d="M285.203 194.486l-2.492.066.715 1.864zm-2.933-.099s-.363-.23-.536-.428a1.49 1.49 0 0 0-.308-.28l-.890BD93F5A61" fill="#78732e"/>
  <path d="M287.168 239.202l-.019.015a2.582 2.582 0 0 1-1.25.342c-.516-.002-1.124-.17-1.74-.776-.751-.743-.971-08272B1A98" fill="#78732e"/>
  <path d="M296.357 231.576s1.744.41 1.68 1.826c-.065 1.417-.843 3.39-.843 3.39l-2.403-2.173 1.353-1.196.497-.711-.284-1.136z" fill="#a8ac71"/>
  <path d="M266.368 214.54s-1.72.591-2.076-.165c-.357-.758-.195-1.35-.226-1.514-.035-.164-1.04-.23-.943-1.219.00BF88B6AE2" fill="#f8c83c" stroke="#977c2e" stroke-width=".267"/>
  <path d="M268.28 215.004s-1.459.76-1.914.033c-.455-.725 0-1.647-.163-1.812-.163-.163-1.037-.46-.876-1.315.1630E1F2F3AD8" fill="#f8c83c" stroke="#977c2e" stroke-width=".267"/>
  <path d="M270.75 215.332s-.423.923-1.461.722c-1.04-.195-.714-1.71-.877-1.975-.162-.261-.908-.46-.779-1.414.1308CBE49AE4" fill="#f8c83c" stroke="#977c2e" stroke-width=".267"/>
  <path d="M293.72 231.233s-1.297-1.426-2.206-2.676c-.909-1.253-2.315-2.682-2.315-2.682l-2.228-1.118-1.406-2.350D03002A8A" fill="#af7029"/>
  <path d="M291.588 201.71c.438.013.655.159.787.342.132.186.174.435.173.649 0 .116-.012.22-.024.294l-.015.085-.08E8BE0A67" fill="#816c2a"/>
  <path d="M297.812 232.68s-1.094 2.005-1.372 2.025c-.278.02.947.317 1.225.79l-.262.49s-1.21-.863-1.97-.899l-.00887198ADD" fill="#fff"/>
  <path d="M302.079 233.999l-2.727.747-1.39-.87s.114-1.135-.503-1.621c-.635-.504-1.013-.65-1.566-.882-.551-.23-020FA60ACA" fill="#fcca3d"/>
  <path d="M302.186 233.823s-.976.288-2.208.263c-1.234-.017-2.018-.209-2.018-.209s.07.078-.19.891c-.259.814-.490B51C9CABE" fill="#af7029"/>
  <path d="M301.462 232.467l.118 1.241.508.149-.012-1.118zm-2.446-29.935l-.303-2.183-.855-1.449-1.082-1.482-1.10156DA0A79" fill="#fcca3d"/>
  <path d="M296.258 204.94c-.04 2.225-.422 3.282-.718 3.775l1.724-1.976 1.242-2.233c-.559-.545-1.538-1.34-2.796-1.718.347.714.56 1.442.548 2.152z" fill="#af7029"/>
  <path d="M300.273 237.884c-.002-.002-.801-1-1.397-1.584-.609-.592-1.312-.916-1.32-.92l-.13.287s.039.018.11.0509170AEA37" fill="#816c2a"/>
  <path d="M301.95 235.492s-.261.963-1.234 1.84c-.974.88-2.207 1.473-2.207 1.473l2.79 1.031 1.861-1.732-1.21-2.612z" fill="#6f5b24"/>
  <path d="M302.36 237.808l-.17.33-.524.507-.41.437.694-2.895.496.854.065.462z" fill="#404118"/>
  <path d="M285.805 199.294s-3.83.329-6.491-.132c-2.661-.461-2.077-7.244-2.143-7.44-.064-.198-1.622-1.845-1.36309E1AD7A94" fill="none" stroke="#78732e" stroke-width=".229"/>
  <path d="M318.658 170.6s-7.014-1.323-6.899 4.516c.037 1.843.445 2.482 1.928 2.898 1.484.413 4.454.564 6.975 2025E00DA59" fill="#ab6d29" stroke="#4d2a15" stroke-width=".389"/>
  <path d="M325.622 199.957s2.443-.924 3.072-2.898c.173-.543-2.468-2.918-2.532-2.918-.063 0 1.342.68 1.991 1.27072455AA38" fill="#4d2a15"/>
  <path d="M318.452 173.351s-.26-.758-.26-1.712c0-.955.163-.922.163-.922s-2.628-.363-4.545 1.151c-1.913 1.516-.03A3734A66" fill="#d2a567"/>
  <path d="M326.673 200.879l-1.775.615 1.082 7.462 7.095 12.16 3.722-.656 1.256-2.24.996.44c.428.44 1.818 2.808006B097AEF" fill="#8f4620"/>
  <path d="M333.797 218.197s1.189 2.02 2.877.462c1.69-1.559-.737-5.994-.713-6.257.021-.264.778-.351.778-.351l1.0120FD8ABC" fill="#ab6d29"/>
  <path d="M375.245 244.239l-1.526-4.513s-.452-2.897-.452-3.49c0-.594-.294-7.936-.424-9.317-.13-1.382-.062-2.96036DBB8AA0" fill="#4d2a15"/>
  <path d="M375.26 231.187s.852-1.015 1.226-2.41c.372-1.391.517-12.34-.778-13.695-1.3-1.354-3.95-2.422-4.081-2.0ECC662AFC" fill="#8f4620"/>
  <path d="M369.279 238.06s.557-5.18.297-8.974c-.258-3.793-.572-4.266-.932-4.952a32.252 32.252 0 0 1-2.548-6.320FE958BA65" fill="#4d2a15"/>
  <path d="M363.656 236.018s.824-1.818.694-4.124c-.132-2.306-1.233-7.86-1.58-8.563-.346-.704-1.988-1.753-3.462-0D5D3BDAD7" fill="#4d2a15"/>
  <path d="M329.492 210.197s2.726 2.436 4.22.065c1.494-2.37.325-5.103.325-5.103s3.849 5.676 4.934.362c.194-.9550E14602A20" fill="#4d2a15"/>
  <path d="M348.814 220.894s-.688-1.71-2.16-2.853c-1.473-1.143-3.81-1.23-3.81-1.23l4.001 4.239 1.97-.156zm5.6.909A250AAA2" fill="#ab6d29"/>
  <path d="M340.357 216.848s1.98-.428 1.98-1.12c0-.691-2.366-2.074-2.172-3.194.094-.558 2.01.1 2.143-.296.128-.0211C3AAFF" fill="#d2a567"/>
  <path d="M349.447 209.404s4.64 1.153 4.835.824c.195-.329-3.7-3.953-3.7-3.953s-.26-.656-.194-.887c.064-.23 1.60B3DFE1AD7" fill="#d2a567"/>
  <path d="M343.42 191.416s3.886 1.096 3.764-1.362c-.066-1.383-3.806-4.565-4.044-5.092-.238-.527-.173-1.25-.1730F86C97AB7" fill="#d2a567"/>
  <path d="M348.228 213.846s.02 2.35 1.231 3.777c1.214 1.428 4.068 4.038 4.633 4.566.563.525 1.038 3.423 1.883 0C85232A89" fill="#202020"/>
  <path d="M354.65 229.32c-.844-1.733-.995-3.27-1.255-4.302-.26-1.031-3.614-3.84-4.416-4.215-.607-.283-1.87.0770DAF29AAD7" fill="#202020"/>
  <path d="M355.671 208.513s1.471 1.142 2.293 1.492c.823.351 2.012.416 2.012.416s-.3 4.15 1.322 6.85c1.623 2.7 06D00C4A11" fill="#202020"/>
  <path d="M360.106 206.235s1.298 1.447 3.112 2.524c1.821 1.075 2.728.747 3.01.966.281.22-.368 3.907 1.537 7.300AA1D86A31" fill="#202020"/>
  <path d="M367.245 208.04c.089-.3.99 1.688 3.814 2.808 2.823 1.12 5.518.922 5.875 1.218.357.296 2.143 4.545 2.0E765C9A15" fill="#202020"/>
  <path d="M376.944 212.071s1.588-.098 1.783-.427c.196-.33-.585-.1-2.012-1.646-1.427-1.549-5.073-12.106-9.055-10648D42A0A" fill="#202020"/>
  <path d="M354.986 180.002s.163-.641.473-.97c.307-.33 1.56-1.714 1.087-1.993-.47-.278-2.06.232-3.066.147-1.0070F7A489AF5" fill="#202020"/>
  <path d="M329.934 192.223s-.384-.633-1.614-1.424a9.891 9.891 0 0 0-2.47-1.12l2.856.726c.844.723 1.228 1.818 10E3F4D2A24" fill="#d2a567"/>
  <path d="M304.479 238.41s.887 1.559 2.64 1.624c1.753.066 3.115 2.569 3.115 2.569l-1.926 1.888-4.63.217-1.491-0CCBF96A77" fill="#f8c83c" stroke="#977c2e" stroke-width=".267"/>
  <path d="M303.755 241.366s.824.411 1.473.221c.65-.19 1.226-.85 1.226-.85m-3.537-.529s2.598-1.888 2.382-2.895c032D54AA55" fill="#f8c83c" stroke="#977c2e" stroke-width=".267"/>
  <path d="M301.08 241.503s.476 1.253 1.32 1.253c.844 0 2.056-.681 2.077-1.184.022-.508-.844-1.43-1.407-1.69-.562-.263-1.86.415-1.86.415l-.13 1.206z" fill="#f8c83c" stroke="#977c2e" stroke-width=".267"/>
  <path d="M303.443 239.797c-.13.392-1.775 1.161-2.316 1.206-.54.043-1.643-1.34-1.19-1.538.455-.198 1.019-.178 0B40270A27" fill="#f8c83c" stroke="#977c2e" stroke-width=".267"/>
  <path d="M301.751 240.886s-2.55 3.449-3.611 3.274c-1.06-.176.432-4.896.432-4.896s.412.265 1.255.53c.844.26 1.688.568 1.924 1.092z" fill="#f8c83c" stroke="#977c2e" stroke-width=".267"/>
  <path d="M297.21 238.433s3.29.57 3.442 1.098c.15.526-1.58 1.229-2.51 1.229-.932 0-.932-2.327-.932-2.327z" fill="#f8c83c" stroke="#977c2e" stroke-width=".267"/>
  <path d="M289.028 243.416s.434 1.581 1.862 1.67c1.428.087 2.77-1.494 2.77-1.494l-3.376-1.317-1.256 1.14z" fill="#202220"/>
  <path d="M289.028 243.416l-.074.021c0 .008.111.408.407.828.293.416.78.856 1.525.899l.12.005c1.438-.01 2.704-1055C2B8AEA" fill="#4b4139"/>
  <path d="M289.98 242.974s.561 1.188 2.423 1.232c1.86.043 3.332-1.493 3.332-1.493l-2.943-2.327-2.812 2.588z" fill="#202220"/>
  <path d="M289.98 242.974l-.069.035c.003.014.593 1.231 2.49 1.275h.081c1.867-.002 3.303-1.512 3.31-1.515l.06-.01EF08CA32" fill="#4b4139"/>
  <path d="M290.231 243.248s.822.68 1.796.735c.974.054 2.186-.252 2.186-.252l-1.115.404-.8.089-.757-.12-.681-.254-.53-.395-.099-.207z" fill="#4b4139"/>
  <path d="M292.403 241.61s.822 2.021 2.553 1.801c1.73-.22 1.773-1.228 1.773-1.228l-1.947-2.811-2.38 2.238z" fill="#202220"/>
  <path d="M292.403 241.61l-.072.033c.002.005.188.464.576.927.386.465.98.938 1.788.938.088 0 .178-.008.27-.019.0E9020CAAB" fill="#4b4139"/>
  <path d="M292.647 242.006s1.037 1.263 1.948 1.243c.906-.023 1.481-.366 1.481-.366l.043.145-.477.241-.823.167-059B641AC3" fill="#4b4139"/>
  <path d="M297.012 238.258c.779-.11 2.401 2.108 2.401 3.204 0 1.098-.475 2.745-1.276 2.701-.802-.045-2.619-1.60CB3DC4AA4" fill="#f8c83c" stroke="#977c2e" stroke-width=".267"/>
  <path d="M288.768 239.682s-1.73.178-1.73.968c0 .791.822 1.624.994 1.799.172.177 1.731-.702 1.731-.702l-.995-2.064z" fill="#f8c83c" stroke="#977c2e" stroke-width=".267"/>
  <path d="M289.462 241.13s-1.775.528-1.775 1.14c0 .612.778 1.757 1.34 1.757.564 0 .997-1.1 1.212-1.317.218-.220E1D951A5F" fill="#f8c83c" stroke="#977c2e" stroke-width=".267"/>
  <path d="M290.544 238.06s-2.292.746-2.38 1.623c-.087.88.52 1.759 1.126 1.93.606.178 2.553-1.71 2.553-1.71l-1.3-1.843z" fill="#f8c83c" stroke="#977c2e" stroke-width=".267"/>
  <path d="M292.532 241.71s-2.25 1.487-2.553 1.487c-.303 0-1.125-1.184-.954-1.973.174-.79 1.689-1.36 2.295-1.580CAF1EFAA7" fill="#f8c83c" stroke="#977c2e" stroke-width=".267"/>
  <path d="M291.748 240.284c-.942-.1-1.785-1.45-1.624-2.27.161-.825 2.013-2.242 2.986-2.076.973.163.778 2.602.778 2.602s-1.2 1.843-2.14 1.744z" fill="#f8c83c" stroke="#977c2e" stroke-width=".267"/>
  <path d="M294.742 240.079s-.476 1.099-1.429 1.582c-.951.481-1.514.086-2.077-.703-.561-.792.26-1.143.694-1.539.432-.392 1.687-.7 1.687-.7l1.125 1.36z" fill="#f8c83c" stroke="#977c2e" stroke-width=".267"/>
  <path d="M293.226 237.183s-1.061.854-.454 1.845c.605.988 1.082 1.337 1.838 1.468.758.133 1.254-.174 1.862-.9.0C00A0BA5D" fill="#f8c83c" stroke="#977c2e" stroke-width=".267"/>
  <path d="M296.243 232.947s-1.095-.42-1.94.076c-.843.493-1.427 1.498-1.458 2.418-.033.923.164 2.215.164 2.215s02DC4A5A12" fill="#202220"/>
  <path d="M296.243 232.947s-1.265-.213-1.897.199c-.633.41-1.168 1.02-1.396 1.843-.229.824-.065 1.037-.065 1.030D5D2CEA95" fill="#4b4139"/>
  <path d="M328.822 256.94s.914-.385 1.545-.731c.635-.348 1.998-1.237 1.998-1.237l.438 2.274-1.753 1.35-1.526.016-.923-.674.22-.998z" fill="#f8c83c" stroke="#977c2e" stroke-width=".267"/>
  <path d="M326.376 257.168s.024.03 1.091.053c1.062.028 1.167-.37 1.355-.279.188.092.488 1.228.488 1.228l-.39.70880257AF4" fill="#f8c83c" stroke="#977c2e" stroke-width=".267"/>
  <path d="M326.376 257.168s-.338-.498-1.301-.393c-.956.104-1.972.887-2.073 1.552-.107.66 0 2.583.518 2.952.5180C7B0D9A1B" fill="#f8c83c" stroke="#977c2e" stroke-width=".267"/>
  <path d="M329.911 258.875s-.78.298-1.074.512c-.29.213-1.338.582-1.338.582l.4 1.607 2.253.575 1.413-1.167.017-01E3B35A50" fill="#f8c83c" stroke="#977c2e" stroke-width=".267"/>
  <path d="M332.654 256.947s-1.007.459-1.495.872c-.487.412-1.248.872-1.248 1.053 0 .18 1.137 1.358 1.137 1.358l041E390A4D" fill="#f8c83c" stroke="#977c2e" stroke-width=".267"/>
  <path d="M338.028 260.766l1.136.196s-.034.298.293.561c.323.263.357.063.357.063s.162 1.089 1.362 2.01c0 0 1.397.462 2.109.066.716-.396.616.122.616.122l2.013-2.49s0-.497-.486-.528c0 0 .355-1.548-.943-1.879-1.295-.329-2.336.132-2.336.132s-.996 1.827-1.59 1.58a2.36 2.36 0 0 1-.714-.492c-.549-.595-.714-.89-.714-.89s-.421.132-.908-.198c-.489-.329-.907-1.12-.907-1.12s-.747-.132-1.006-.393c-.26-.264-.53-.784-.53-.784l-1.857 1.335s-.059.59-1.142 1.38c-1.081.793-1.73.793-1.73.793s-.301 1.622-1.515 1.356c-1.211-.261-2.033-1.62-2.033-1.62s-.867-.132-1.43.611c-.563.748-.824 1.013-.824 1.758 0 .746.478 1.798.867 2.15.391.351 1.604 1.316 3.029.57 1.43-.745.953-1.974.953-1.974s-.043.088.823-.483c.864-.572 1.815-1.45 2.466-1.711" fill="#f8c83c" stroke="#977c2e" stroke-width=".267" stroke-linecap="round" stroke-linejoin="round"/>
  <path d="M335.808 250.837l.01 3.185s.39 2.83-.23 3.72c-.614.889-2.855.69-3.177-.067-.325-.756-.163-3.224-.163-3.224l3.56-3.614z" fill="#f8c83c" stroke="#977c2e" stroke-width=".267"/>
  <path d="M333.294 260.49s-.477.843.997.965c.418.037.697-.113.885-.328.38-.44.298-.805.298-.805s-.13 1.177 1.194 1.22c1.474.054 1.344-1.36 1.344-1.36" fill="#f8c83c" stroke="#977c2e" stroke-width=".267" stroke-linecap="round" stroke-linejoin="round"/>
  <path d="M321.18 263.103s-.82-1.385.154-1.888c.973-.505 1.493.023 2.074.044.585.023.394-1.498.265-1.805-.13-.0193E72A0A" fill="#202220"/>
  <path d="M326.224 268.261s-2.727-.601-2.703-3.266c.013-1.778 1.993-2.569 1.993-2.569s-1.831.973-1.863 2.536c-0609654A72" fill="#4b4139"/>
  <path d="M302.628 192.36l-.659-.136.476-1.1 1.841-.673 1.838-.074 1.935-.078.89.614.992 2.293-3.667 2.186-.594.198-.227-.904-.561-1.48z" fill="#904720"/>
  <path d="M336.92 245.48l-.227-5.5-14.833 4.577 5.874 5.497z" fill="#202020"/>
  <path d="M309.454 235.903l-1.248-.978s-.895-.632-1.393-.785c-.496-.155-1.135-.033-1.135-.033l-.205.292.194.510E75804ADF" fill="#d2a567"/>
  <path d="M312.228 242.19l.792-.067.537-.458-.252-1.798.292-5.76-3.902-4.615-.797 2.66 1.146 4.664.846 2.796z" fill="#d2a567"/>
  <path d="M309.431 231.652s-.258.481.065 1.995c.326 1.513.888 4.897 2.23 7.202 1.34 2.301-1.298-1.821-1.298-1.093A1AFACC" fill="#ab6d29"/>
  <path d="M312.266 234.57s-.844 1.1-.974 1.91c-.13.811.065 2.195.065 2.195s-.13-1.051.735-1.296c.866-.24.757 20EF14D8AA5" fill="#ab6d29"/>
  <path d="M304.205 242.235c.163-.264.293.615 1.806.813 1.516.196 2.208-.264 2.208-.264l.67.44.8.175-.735 1.097-2.77-.814-1.492-.832-.487-.615z" fill="#d2a567"/>
  <path d="M314.071 240.246l.78 1.118.485-2.433-.033-2.536-1.59-1.052z" fill="#ab6d29"/>
  <path d="M309.69 236.14l-1.298-2.175-1.688-3.093 1.038-1.779 1.267 1.842s-.358 1.253-.13 2.437c.227 1.187.811 2.768.811 2.768z" fill="#4d2a15"/>
  <path d="M300.799 244.04s.562-.934 1.883-1.04a7.56 7.56 0 0 1 2.38.175l2.681 1.4.542.882-5.062-.68-2.424-.736z" fill="#d2a567"/>
  <path d="M313.972 235.088s.097 3.028.193 3.983c.098.954.684 1.875.587 2.27-.098.397-.294.594-.944.823-.648.230CCBB90A37" fill="#8f4620"/>
  <path d="M304.715 243.042s-.517-.483-.508-.812c.011-.331.607 1.589 3.386 1.482 2.78-.11 2.618-.157 2.618-.1570D333EFAB8" fill="#ab6d29"/>
  <path d="M309.69 236.14s-3.214-3.327-4.283-5.532c-1.072-2.208-.422-5.236-.422-5.236l3.019 3.951s-.39.758-.262 2.008c.13 1.252 1.948 4.808 1.948 4.808z" fill="#8f4620"/>
  <path d="M307.633 248.254c-.107-.23-.228-.961.39-1.734 1.909-2.381 6.74-4.092 6.74-4.092l.005 2.912-6.2 2.98-.936-.066z" fill="#ab6d29"/>
  <path d="M307.999 246.052c.27-.193 1.35-.995 1.388-1.34.044-.393-.735-.46-2.14-.746-1.407-.286-2.553-.92-2.550C02FF7A7F" fill="#8f4620"/>
  <path d="M316.296 246.73s-1.069-.373-1.83-4.836c-.761-4.458-.539-5.66-.539-5.66l1.806 1.26 1.617 2.94-1.054 6.296z" fill="#ab6d29"/>
  <path d="M316.875 239.31s-.843 2.5-.843 3.951c0 1.446-.149 2.432.265 3.463.415 1.026 1.834 2.303 1.834 2.303l.648-.677.291-2.022.164-3.36-2.359-3.659z" fill="#8f4620"/>
  <path d="M319.412 242.707s.41 6.298-1.185 6.471c-.762.083-1.915-2.372-1.93-2.452-.017-.083 1.39 2.285 1.914 203931E1A85" fill="#202020"/>
  <path d="M310.048 238.707s.53.453 1.135 1.68a363.323 363.323 0 0 0 1.039 2.087l.151-.156s-.411-1.183-.973-2.107c-.562-.923-2.186-3.16-2.186-3.16l.835 1.656z" fill="#ab6d29"/>
  <path d="M308.007 246.524s.346-1.178 0-1.397c-.348-.218-.673.02-2.964-.264a34.056 34.056 0 0 1-4.242-.824s1.50707685A84" fill="#8f4620"/>
  <path d="M308.007 246.524s.047-.278-.212-.56c-.26-.28-.73.133-3.506-.642-2.775-.77-3.488-1.282-3.488-1.282s.989.873 3.44 1.498c2.45.625 3.765.986 3.765.986z" fill="#202020"/>
  <path d="M309.256 238.227s-2.1.114-2.776.656c-.672.544-1.6 1.984-1.6 1.984l1.365.158s-.17-1.267.48-1.902c.649-.633 1.631-.69 2.531-.896z" fill="#ab6d29"/>
  <path d="M305.279 234.235s.844 1.118 1.72 1.513c.877.396 1.753.725 2.176 1.152.42.427.876 1.81.876 1.81s-3.0200FE443A90" fill="#8f4620"/>
  <path d="M308.205 234.928s-.275-.451-1.103-.83c-.827-.379-1.436-.32-1.671-.149-.236.174-.155.282-.155.282l1.10A9FDE5A9C" fill="#8f4620"/>
  <path d="M316.342 231.126l16.894-8.726 7.996 11.13-14.601 3.914-7.728.66-3.765-2.73z" fill="#202020"/>
  <path d="M338.993 235.896l21.062 18.24-2.334 1.604-4.935-1.406-10.256-10.137-3.797-3.823z" fill="#4d2a15"/>
  <path d="M365.965 250.524s-5.231-4.125-12.03-9.171c-6.795-5.05-15.199-11.415-15.199-11.415l.39 5.443 17.384 15.979 5.735 2.764 2.9-.876 1.47-1.537-.65-1.187z" fill="#4d2a15"/>
  <path d="M338.932 237.625s6.067 6.847 10.68 10.338c4.606 3.488 9.02 7.308 9.928 6.78.908-.528.584-1.118.584-1.118l-21.321-17.385.129 1.385z" fill="#803f1d"/>
  <path d="M353.828 255.126l-2.143 1.666-2.463-1.006-12.952-13.237.65-2.437 1.814.263z" fill="#4d2a15"/>
  <path d="M365.965 250.524s-1.588 3.744-4.964 2.869c-3.375-.88-21.962-18.54-21.962-18.54l-.043 1.844s18.835 170665B29AC9" fill="#202020"/>
  <path d="M336.852 240.391s6.005 7.704 9.187 10.535c3.182 2.833 5.907 5.069 7.206 4.808 1.296-.263-.78-1.711-.78-1.711l-9.088-8.957-4.64-4.675s-1.817-.724-1.884 0z" fill="#803f1d"/>
  <path d="M338.346 240.391s15.246 15.54 16.453 15.893c2.556.746 6.19-1.89 6.19-1.89l-1.342-.789-.174.482s-.65 00D3471ADF" fill="#202020"/>
  <path d="M344.09 255.263l-5.549-6.387-1.231-2.108-.33-2.7 11.07 11.13-1.557 1.051-1.366-.457z" fill="#4d2a15"/>
  <path d="M354.117 255.484s-1.343 1.977-3.163 1.58c-1.815-.392-2.853-1.71-2.853-1.71l-10.613-10.392-.26-1.585s01486BDAB9" fill="#202020"/>
  <path d="M348.228 255.134s-.52 1.536-2.076 1.319c-1.56-.22-2.036-.835-2.036-.835l-6.5-7.726-.13-2.061s6.76 9.021E080AF7" fill="#202020"/>
  <path d="M341.279 234.875s6.296 5.4 6.817 5.663c.518.265 2.724.33 2.853.657.13.332-1.424 0-1.555.332-.129.328054995CA99" fill="#b07229"/>
  <path d="M330.483 252.353s.05 2.385-1.023 2.733c-1.07.347-3.098-4.382-3.098-4.382l-.47-4.408 3.148 2.93 1.44300BE941A32" fill="#4d2a15"/>
  <path d="M336.753 255.31c.372-.113-.345-3.38-.345-3.38l-1.946-4.83-.52-1.711-1.579-.596-1.039 1.189.238 1.91s0217B50A11" fill="#4d2a15"/>
  <path d="M335.008 245.061c.566.394 1.213 1.69 1.363 2.567 0 0 1.3 3.554 1.126 3.907-.173.352-.953.396-.953.390AC6728A0B" fill="#202020"/>
  <path d="M335.008 244.292s-.26 2.393.629 4.85c.887 2.46 1.123 2.55 1.297 2.9.172.349.155 2.94-.175 3.268 0 0-0659B77A97" fill="#202020"/>
  <path d="M334.368 257.031c.194-.04.075-1.016.075-1.016l-.28-2.304-2.37-4.866-2.598-2.337-1.363-2.106-.194 4.00C01F1BA25" fill="#4d2a15"/>
  <path d="M324.67 246.067s.407 1.078.407 1.783v1.36s.95 1.931 1.816 3.47c.868 1.533 1.688 3.116 2.422 2.765.730B45330ADC" fill="#202020"/>
  <path d="M327.412 248.307s.454 1.38 1.34 2.699c.887 1.317 2.343 2.9 2.343 2.9s-1.607-1.583-2.449-2.812c-.844-1.23-1.407-2.834-1.407-2.834l.173.047z" fill="#5c3a1d"/>
  <path d="M332.037 246.67s.429-1.195.8-1.253c.37-.056 1.152-.29 1.152-.29s-.669-.166-1.205-.792c-.562-.664-.6909239DCA1D" fill="#202020"/>
  <path d="M334.231 244.376l.456-6.062-.456-2.14-2.728-6.056s-.13.89-.81.854c-.682-.034-2.5-.986-3.12-1.811 0 0082E057AEF" fill="#4d2a15"/>
  <path d="M323.778 248.353s.821.99 1.298.858c.474-.13.3-2.021-.304-3.073-.607-1.053-7.012-9.614-7.963-10.141-.951-.525 6.97 12.356 6.97 12.356z" fill="#8b441f"/>
  <path d="M328.151 244.818c.129.395.59 3.125-.517 3.38-1.528.352-8.566-9.369-9.654-10.703 0 0-4.418-2.762-4.5002D45ACAAE" fill="#8b441f" stroke="#5c3a1d" stroke-width=".053"/>
  <path d="M323.778 248.353s-.779-1.382-.848-2.368c-.062-.988-.387-1.515-.45-1.846-.066-.327-5.194-7.766-5.714-073B0F0ABA" fill="#202020"/>
  <path d="M331.61 247.058c.691-.396.388-2.765.13-3.513-.263-.746-4.458-9.478-4.458-9.478l-1.258.48-2.378-1.8650A53F3DA39" fill="#4d2a15"/>
  <path d="M327.671 244.01s-2.788-3.03-3.7-4.544c-.91-1.515-1.686-2.964-1.686-2.964s-.778.33-1.754-.064c-.974-.053CA08A7A" fill="#202020"/>
  <path d="M334.391 245.031c1.174-.471 1.137-5.4.035-8.726-1.107-3.327-2.923-6.188-2.923-6.188s2.273 5.333 2.750FB426DAE2" fill="#8b441f"/>
  <path d="M336.997 221.29l1.972 4.187.622 4.427.155 3.732s.129 7.365-.777 7.541c-.91.176-1.343-.703-1.385-.88a03F5114A4C" fill="#4d2a15"/>
  <path d="M331.61 247.058c.784-.108 0-2.106 0-2.106s-.65.965-1.17.308c-.52-.658-1.344-3.097-1.344-3.097l-.519-097F8FAAD9" fill="#8b441f"/>
  <path d="M329.096 242.166s.65-1.58.39-3.027c-.26-1.451-2.204-5.069-2.204-5.069s-.586.132-1.363-.133c-.78-.264029BADEAD8" fill="#202020"/>
  <path d="M337.195 242.89c1.059.031.13-5.967-.303-7.504-.433-1.536-2.903-8.75-2.903-8.75s2.97 10.258 2.728 10.0E4872DA35" fill="#904720"/>
  <path d="M338.49 239.858c.722 0-.202-5.661-.72-8.165-.517-2.504-1.963-7.507-1.963-7.507s1.468 3.469 2.293 7.4006E3C5A89" fill="#904720"/>
  <path d="M328.746 246.51c.111.402.089 2.345-.941 2.206-1.03-.14-2.914-1.879-3.301-3.022 0 0 2.238 2.476 3.0080C8375CA77" fill="#312317"/>
  <path d="M334.132 219.545s1.332.853 2.402.229c1.072-.626 1.786-2.14 1.754-2.964-.035-.821-.066-1.547-.716-2.40776335A84" fill="#d2a567"/>
  <path d="M332.128 214.707s1.598 2.618 2.213 4.972c.617 2.354.503 3.26.114 3.307-.39.052-.536-.277-.633-.87-.096-.595-1.694-7.409-1.694-7.409z" fill="#8f4620"/>
  <path d="M304.106 217.922l10.577 15.345 13.244-14.95-8.374-8.626z" fill="#1e2121"/>
  <path d="M317.477 208.505l-.614 2.404 1.297 4.083 2.207 2.272 2.561 1.708.586-1.91.618-2.235.646-.23 1.622.620B84DBAA44" fill="#4d2a15"/>
  <path d="M322.932 218.981s.459-.326.652-1.545c.197-1.218.228-4.94-.096-6.422-.325-1.48-1.3-4.41-1.494-4.18-.10E96DEAA61" fill="#5c3818"/>
  <path d="M323.55 212.825s1.752 2.502 2.597 1.612c.842-.888.422-4.083-.128-5.333-.555-1.252-1.137-3.063-1.137-0AD4E2DA17" fill="#5c3818"/>
  <path d="M317.888 214.547s.585-.855 1.385-.943c.8-.088.955.262.955.262l.712 2.063 1.19 2.13 1.059 1.052-.627.0082D75AC3" fill="#8f4620"/>
  <path d="M322.048 236.338c-.824.428-2.723-.52-3.794-1.463-1.071-.942-6.717-6.705-6.717-6.705l-.79-3.195 2.1850320B54A6A" fill="#d2a567"/>
  <path d="M320.951 229.587s.9 1.32 1.18 1.734c.28.416-.05 2.882-.219 3.337-.347.945-1.622-1.118-2.316-2.941 0 0B41E3CA87" fill="#8f4620"/>
  <path d="M317.888 232.307c-.438.283-1.276-1.053-1.665-1.404-.39-.35-1.71-1.977-3.008-3.293-1.296-1.315-2.249-01BED81AEC" fill="#8f4620"/>
  <path d="M318.262 234.875c.033.31-.017.622-1.168.506-1.151-.115-7.172-3.326-9.884-7.754-2.708-4.43-3.066-5.02064D6C4AE4" fill="#ab6d29"/>
  <path d="M318.262 234.875c.13.506-.475.638-1.081.484-.607-.154-3.01-1.01-6.839-5.27-3.827-4.257-5.321-7.307-50B46EF4AC7" fill="#8f4620"/>
  <path d="M324.654 230.57s-1.982-1.417-3.248-2.93c-1.263-1.516-3.83-5.037-3.765-5.73.066-.692 1.137-.692 1.13702911C0A2A" fill="#4d2a15"/>
  <path d="M313.607 235.903s-3.377-2.982-6.06-6.362c-2.682-3.38-4.37-6.629-4.37-6.629l1.169-1.099s2.228 5.202 30F875B9A7F" fill="#202020"/>
  <path d="M327.024 222.844s-1.104-2.653-1.734-4.277c-.627-1.627-1.61-5.148-1.61-5.148s.074 1.613-.013 2.799c-.07AA6D3AB2" fill="#202020"/>
  <path d="M323.664 213.39s2.058 2.304 2.95 1.267c.893-1.037.373-3.968.373-3.968s1.25.479 1.64.166c.39-.312.21-0E17AFFAA8" fill="#202020"/>
  <path d="M316.768 223.263s1.136 2.274 2.044 3.459c.909 1.185 2.144 2.864 2.144 2.864s-1.947-1.777-2.727-2.897c-.78-1.12-1.46-3.426-1.46-3.426z" fill="#171717"/>
  <path d="M330.17 223.858c-.292.115-1.235-.229-1.333.115-.096.345.537 1.697 1.235 2.406.695.706.99.737 1.153.603F28B8A00" fill="#8f4620"/>
  <path d="M305.919 209.366l-1.181.775-1.429 2.899.39 5.312s1.32 1.866 2.13 3.04c.812 1.175 3.496 4.202 4.188 400B6433A2E" fill="#d2a567"/>
  <path d="M314.757 217.404s.68 2.468 1.102 3.688c.422 1.217-.012 2.272.218 2.305.226.03 2.28-2.734 2.313-3.9840E698B0A13" fill="#ab6d29"/>
  <path d="M302.506 207.545s-3.115 4.522-3.052 7.002c.066 2.48.476 1.931 1.192 4.169.713 2.243 1.103 5.556 1.140BDCE6BA5A" fill="#45392d"/>
  <path d="M302.49 208.079s-2.726 4.213-2.53 6.54c.194 2.325.561 2.262 1.34 4.347.779 2.086.844 5.485.844 5.4850EB55F4A31" fill="#ab6d29"/>
  <path d="M317.218 215.332s-1.362-.297-1.915-.626c-.55-.329-.778-1.119-.778-1.119l.326-.79 2.367 2.535z" fill="#dbad6c"/>
  <path d="M303.047 208.536s-1.968 4.237-1.731 7.155c.239 2.921 1.84 6.652 1.991 6.696.151.044.086-.285.13-.9450FC2331AD0" fill="#d2a567"/>
  <path d="M307.808 209.48s.261 1.274.087 1.802c-.173.526-1.212 1.185-1.644 2.019-.433.834-1.038 2.765-1.038 2.020DEA0AA4" fill="#8f4620"/>
  <path d="M316.997 218.098s-.944-.165-1.463-.264c-.518-.098-.583-.592-.583-.592l.164-.624 1.199.658.683.822z" fill="#dbad6c"/>
  <path d="M304.448 218.578c-.025.434-.347.879-.557 1.487-.253.735-.4 1.61-.4 1.61s-.292-1.945-.388-3.313c-.098067A042ABD" fill="#8f4620"/>
  <path d="M324.639 206.105s.088 2.084.369 3.293c.28 1.207 1.082 3.84 1.082 3.84s-1.082-1.953-1.559-3.643c-.4770179CE9AF6" fill="#1e2121"/>
  <path d="M302.132 206.966s.8.1 1.292.072c.495-.026.819-.225.819-.225l.818-1.222s-.417 1.447-.13 2.475c.286 1.011ED81AD4" fill="#dbad6c"/>
  <path d="M313.88 201.473s.196 1.35-.485 3.622-1.622 3.885-1.622 3.885 2.433-1.482 3.603-4.148c1.165-2.668.89603348CDAC7" fill="#8f4620"/>
  <path d="M321.744 195.34s.8 1.712.847 3.556c.042 1.844-.37 3.775-.37 3.775s.173-2.304-.086-3.687c-.26-1.383-.671-2.283-.627-2.678.042-.395.236-.966.236-.966z" fill="#ab6d29"/>
  <path d="M325.591 202.547s.161 1.592 0 2.347c-.162.759-1.268-.493-1.946-2.995-.684-2.503-.554-3.062-1.073-4.20295FEBABE" fill="#4d2a15"/>
  <path d="M324.73 193.633s.648 1.67.908 3.951c.26 2.284-.043 4.962-.043 4.962s-1.384-2.152-1.73-3.03c-.346-.870B16A2FA4A" fill="#1e2121"/>
  <path d="M301.188 206.898c-.314-.044.974-2.043 1.85-3.425l2.11-3.326s.227.231.746.198c.519-.034 1.85-.626 2.40879B29A93" fill="#8f4620"/>
  <path d="M325.66 192.14c-.019.16.087 1.146-.93 1.492-1.018.347-2.25-.065-2.381-.18-.129-.115-.129-1.417-.129-1.417l3.44.105z" fill="#874f20"/>
  <path d="M305.972 195.362s-.185.942-.74 2.107c-.558 1.166-1.481 2.137-1.367 2.285.113.148.633.693 1.444.676.80C8B555AA4" fill="#b27129"/>
  <path d="M318.437 192.696s-.367 6.416-2.168 6.404c-1.8-.009-2.615-3.243-2.615-3.243s-.15 4.326-2.45 4.326c-1.08F90E4A53" fill="#dbad6c"/>
  <path d="M311.412 186.6s1.615 2.445 2.694 3.805c.063.079.593-.512.593-.512.356.489.554.913.445 1.17-.421.988-0B4D944A42" fill="#b27129"/>
  <path d="M320.075 186.03s.356.328.944 1.843c.583 1.515.647 6.421-.13 6.387-.78-.033-2.34-.921-2.598-1.58-.26-0A3518AAF4" fill="#8f4620"/>
  <path d="M319.64 184.505l2.598 3.863 2.294 3.316s1.156.383 1.126.46c-.032.077-1.332 1.492-3.133.488-.895-.5-.0BED280AAB" fill="#4d2a15"/>
  <path d="M318.208 182.395s2.32 1.532 3.142 3.2c.823 1.67 1.3 2.68 2.296 4.304.993 1.624 2.057 2.129 2.011 2.20778A9EA7B" fill="#1e2121"/>
  <path d="M312.304 186.67s1.493.343 2.302.244c.814-.098 1.089-.065 1.089-.065s.485.66.485 1.416c0 .757-.52 2.10B2482DA96" fill="#8f4620"/>
  <path d="M313.096 190.585s.483 1.62.112 3.876c-.371 2.258-1.67 4.59-2.003 4.59-.333 0-.223-2.558-.37-3.91a38.0440193AA3" fill="#b27129"/>
  <path d="M310.254 192.27c-.454.56-1.15.407-1.794.609-.604.187-.822 1.108-.822 1.108s.488-.362.715-.264c.227.108D67C8A1D" fill="#8f4620"/>
  <path d="M318.262 180.795s.616 1.531-.65 2.602c-.375.315-.736.526-1.406.56-.673.032-1.743-.544-1.743-.544l-3.016F6D9AFE" fill="#dbad6c"/>
  <path d="M318.262 180.795c.127.264-.23 1.12-.52 1.251-.294.132-.814.362-1.981.098-1.168-.262-2.369-1.02-3.6670065BE1A02" fill="#ab6d29"/>
  <path d="M307.648 179.576s.454.098.844.032c.39-.066.683-.296.683-.296s.065.527-.195.692c-.26.164-1.038.098-1.169.098-.13 0-.163-.526-.163-.526z" fill="#4d2a15"/>
  <path d="M315.275 184.368s1.359 1.33.994 2.48l-2.616-1.203-4.268-1.777-2.312-.69-.285-.364s.439-.41.65-.805c.0677C35ACE" fill="#dbad6c"/>
  <path d="M312.372 186.273s2.435 3.144 1.866 4.18l-5.68-3.587-2.002 3.297-4.672-2.303s3.769-2.905 4.207-3.448c018F782A3A" fill="#dbad6c"/>
  <path d="M311.054 181.625s1.99.484 3.268 1.141c1.276.658 3.062.807 3.062.807s-.718.757-2.111.796c-.412.011-1.0E4BBAEAE6" fill="#ab6d29"/>
  <path d="M307.55 180.559s1.428.296 2.305.69c.876.396.941.297 1.168.199.227-.1.26-.199.26-.199s.18.859-.503.8500295E3A90" fill="#4d2a15"/>
  <path d="M315.443 186.082s1.018.637.821.768c-.192.132-.703.373-1.588.428-.886.056-1.31-.054-1.939-.34-.626-.203F586FA91" fill="#ab6d29"/>
  <path d="M306.772 182.768s.519.439 1.581.55c.45.047 1.293.198 2.16.47.291.092 1.004-.303 1.063-.286l-.616.37c02C149FA43" fill="#4d2a15"/>
  <path d="M314.04 189.816s.62.658-.03.888c-.65.231-2.42.19-3.262-.7 0 0-.211-.846-.536-1.241-.324-.396-1.623-10887A90AA9" fill="#ab6d29"/>
  <path d="M314.079 189.877s-1.311-1.812-4.954-3.248c-.1-.039 1.24-.23 1.135-.268-.156-.06-1.757.032-1.922-.02503A1CE9A7D" fill="#4d2a15"/>
  <path d="M308.136 187.027s2.792.79 2.662 3.754c-.13 2.962-2.294 2.414-2.49 1.339-.192-1.076.261.515 1.04.372.087B228A53" fill="#dbad6c"/>
  <path d="M296.06 179.888s.292.225-.503 2.317c-.796 2.09-1.226 2.835-2.433 4.165-2.257 2.485-3.247 2.502-3.00305BDD53A3A" fill="#6c3f18"/>
  <path d="M306.125 175.614s1.168 1.753.8 5.069c-.368 3.314-4.736 6.212-4.736 6.212l-6.384 4.412-2.667-.16s-.410291FCBA20" fill="#dbad6c"/>
  <path d="M306.833 192.2s.438.362.276 1.564c-.162 1.203-1.152 1.861-1.638 1.877l.048-1.678-1.411-1.12-1.51-.46005C507AC3" fill="#904720"/>
  <path d="M305.728 192.216s.439.427 1.137.246c.697-.18.99-1.302.616-1.745-.373-.444-.21 1.07-.664 1.235-.455.10840A66ABF" fill="#ab6d29"/>
  <path d="M296.51 187.614s.83.25 1.727.128c.899-.122 3.106-1.043 3.106-1.043s1.017-.571 1.764-1.295c.744-.724 0E1236DA2F" fill="#904720"/>
  <path d="M303.763 179.72s1.364-1.339 1.817-2.326c.456-.988.542-1.778.542-1.778s.152 1.074-.649 2.282-1.687 2.042-1.687 2.042l-.023-.22z" fill="#ab6d29"/>
  <path d="M303.39 176.734s1.114 4.324-.076 6.101c-1.19 1.778-6.37 4.08-6.37 4.08s3.925-2.126 5.16-4.573c1.231-2.449 1.145-4.489 1.145-4.489l.14-1.12z" fill="#904720"/>
  <path d="M298.239 187.736s1.656-.034 2.597-.593c.942-.56 2.272-1.745 2.272-1.745s-1.233 1.087-1.59 1.087c-.3509D1828ADE" fill="#1e2121"/>
  <path d="M296.235 185.831a2.64 2.69 67.762 0 1-3.03 4.356" fill="#fff"/>
  <path d="M296.098 186.128a2.325 2.369 67.771 0 1-2.723 3.788" fill="#f16e16"/>
  <path d="M295.07 187.408a.934.934 0 1 1-.91 1.412"/>
  <path d="M295.199 188.597a.298.298 0 1 1-.588-.102.297.297 0 0 1 .344-.247c.163.027.27.185.244.349z" fill="#d5d3ca"/>
  <path d="M296.822 184.193s1.536-1.514 1.882-3.513c.347-1.997.136-3.133.136-3.133l.838.872.323 1.517-.54 2.522038CD8DAFB" fill="#ab6d29"/>
  <path d="M296.106 185.404s.67-2.02.67-3.117-.714-2.393-.714-2.393.973-.132 1.06 2.26c.086 2.395-.433 2.527-1.016 3.25z" fill="#904720"/>
  <path d="M299.191 182.83s.714-1.778.666-2.964c-.05-1.186-1.021-2.322-1.021-2.322s1.2.231 1.298 2.388c.096 2.156-.277 2.174-.943 2.897z" fill="#4d2a15"/>
  <path d="M292.106 190.936s-.555-.714-.491-1.273c.065-.559.022-.686 1.4-2.135 1.379-1.449 2.142-2.337 2.483-3.0D69A98A79" fill="#ab6d29"/>
  <path d="M305.477 195.637s.308.032.503-.33c.194-.361.194-.97-.292-1.58-.488-.609-1.04-.97-1.721-1.17-.682-.1905B2183ADD" fill="#6c4119"/>
  <path d="M305.477 195.637s1.533-.498 1.638-1.975c.065-.915-.13-1.235-.13-1.235s.227.477.844.658l.552-.214s-.908 2.865-2.904 2.766z" fill="#6c4119"/>
  <path d="M294.78 195.355s.3.124.868.783c.568.658.836.873.836.873l3.716-.955 1.202-1.186-1.007-1.595h-2.66l-2.955 2.08z" fill="#bf802d"/>
  <path d="M303.786 194.09l-.716-.965s-.152-.373-.693-.658c-.54-.285-2.79-.264-2.79-.264l-1.624.33s-.454.416-1.0280900A18" fill="#f9c83a" stroke="#8f4620" stroke-width=".366"/>
  <path d="M289.408 200.65s-3.115-.758-2.857-3.622c.261-2.863 2.857-3.917 3.312-4.048.454-.133.357-1.583.877-1.0D4B7E1A19" fill="#fcf3d8"/>
  <path d="M303.77 193.785s-.377.23-.479.04c-.583-1.085-1.947-1.374-3.051-1.356-1.406.021-2.36.545-3.312.545s-.0949F3EADD" fill="#fdeaaf"/>
  <path d="M295.199 195.82s1.251-.248 2.19-.659c.942-.41 2.197-.74 2.197-.74s-1.151.762-1.947 1.142c-.795.377-2.083.586-2.083.586l-.357-.33z" fill="#513625"/>
  <path d="M290.788 202.296c-.227.089-1.32.043-3.062-1.12-1.741-1.163-2.195-3.137-2.195-3.137s-.4-1.89 1.406-3.067EEF5AE0" fill="#f9c83a"/>
  <path d="M289.835 191.454l-.1-.238v.259c.08-.005.09-.02.1-.021l-.1-.238v.259-.263l-.18.187c.065.063.14.076.180EF406BA67" fill="#8b5122"/>
  <path d="M295.13 194.128s-3.725 1.043-3.82 1.11c-.274.198 1.193-.03 2.345-.066.757-.021 1.34.17 1.34.17s.448-0588C64A66" fill="#f9c83a"/>
  <path d="M289.683 199.515c.275.774.898 1.9 1.6 2.26 0 0 .12.013.077.088-.044.076-.563.397-1.753.087-1.19-.3060043A7CA02" fill="#8f4620"/>
  <path d="M302.094 232.642l-.057 1.209-.666-.066.117-1.514zm-4.67-34.445l-1.232-1.386-.8.12 1.219 1.736z" fill="#fcca3d"/>
  <path d="M302.033 235.47c-.002 0-.744-.49-1.708-.934-.983-.453-2.365-.657-2.372-.66l-.046.312s.084.013.226.0400FC514AB7" fill="#816c2a"/>
  <path d="M294.46 195.385l.19.152a17.342 17.342 0 0 1 2.458 2.476c.961 1.205 1.803 2.69 1.8 4.14 0 .139-.007.20A4FDDFA3D" fill="#78732e"/>
  <path d="M292.098 198.448l-.374-.322-.321.116.606.495zm1.006.952l-.28-.288-.147.082.232.306z" fill="#a8ac71"/>
  <path d="M294.506 200.947l-.24-.305-.147.19.244.28zm1.051 1.57l-.175-.314-.28.05.366.396zm.594 1.478l-.138-.4001383DA43" fill="#78732e"/>
  <path d="M283.915 222.136l-.179.081.065.444.098-.14s.016-.248.016-.385z" fill="#fff"/>
  <path d="M283.946 223.896l-.025-.433-.13-.05v.705z" fill="#78732e"/>
  <path d="M284.06 224.879l-.04-.392-.139.02-.008.372zm.267 1.417l-.082-.38-.09.091.074.38zm.373 1.455l-.155-.511-.113.05.154.49z" fill="#fff"/>
  <path d="M285.645 229.701l-.212-.317-.199-.033.256.388zm1.44 1.425s-.195-.115-.48-.346c-.283-.23-.113.215-.110C653CBA50" fill="#a8ac71"/>
  <path d="M297.698 232.536s-.187-.238-.31-.32c-.121-.08-.08.246-.08.246l.251.108.139-.034z" fill="#fff"/>
  <path d="M297.866 232.924c-.105-.14-.218.207-.218.207l.3.28s.024-.344-.082-.487zm.045 1.349s.066-.288.05-.47c-.017-.18-.162.064-.162.064l.015.406h.097z" fill="#a8ac71"/>
  <path d="M297.439 235.698l.114-.355-.147.004-.089.367zm-14.88-52.077s.56-.115.137.52c-.422.633.283-.568.283-.568l-.227-.067-.193.115z" fill="#fff"/>
  <path d="M294.62 194.99l.34.346s-.317-.083-.454-.1.114-.247.114-.247z" fill="#f9c83a"/>
  <path d="M294.955 195.34s-.48.065-.648.09c-.172.024.194-.19.194-.19l.454.1z" fill="#8f4620"/>
  <path d="M300.928 239.096s.408-.043.59-.293c.18-.249-.116.39-.116.39l-.26.099-.214-.196z" fill="#977c2e"/>
</svg>
