<svg xmlns="http://www.w3.org/2000/svg" xmlns:xlink="http://www.w3.org/1999/xlink" width="640" height="480" id="flag-icon-css-my">
  <path d="M0-.05h640v480.1H0z" fill="#cc0001"/>
  <path d="M0 445.757h640v34.293H0z" fill="#fff" id="a"/>
  <use xlink:href="#a" transform="translate(0 -68.586)" width="100%" height="100%"/>
  <use xlink:href="#a" transform="translate(0 -137.17)" width="100%" height="100%"/>
  <use xlink:href="#a" transform="translate(0 -205.757)" width="100%" height="100%"/>
  <use xlink:href="#a" transform="translate(0 -274.343)" width="100%" height="100%"/>
  <use xlink:href="#a" transform="translate(0 -342.93)" width="100%" height="100%"/>
  <use xlink:href="#a" transform="translate(0 -411.514)" width="100%" height="100%"/>
  <path d="M0-.05h372.655v274.343H0z" fill="#010066"/>
  <g fill="#fc0">
    <path d="M149.71 48.531c-49.063 0-88.886 39.69-88.886 88.59 0 48.9 39.823 88.591 88.886 88.591 17.726 0 34.240F99278A99"/>
    <path d="M297.115 183.24l-37.441-19.535 11.07 39.98-25.043-33.444-7.813 40.706-7.684-40.729-25.148 33.369 11.0AF5332AC9"/>
  </g>
</svg>
