<svg xmlns="http://www.w3.org/2000/svg" xmlns:xlink="http://www.w3.org/1999/xlink" height="480" width="640" id="flag-icon-css-ni">
  <defs>
    <linearGradient y2="283.42" x2="500.626" y1="289.055" x1="498.738" gradientUnits="userSpaceOnUse" id="f">
      <stop offset="0" stop-color="#510000"/>
      <stop offset=".3" stop-color="#8a0000"/>
      <stop offset="1" stop-color="#a00"/>
    </linearGradient>
    <linearGradient y2="287.449" x2="502.927" y1="291.373" x1="501.444" gradientUnits="userSpaceOnUse" id="g">
      <stop offset="0" stop-color="#ff2a2a"/>
      <stop offset="1" stop-color="red"/>
    </linearGradient>
    <linearGradient y2="317.647" x2="484.764" y1="311.709" x1="484.764" gradientUnits="userSpaceOnUse" id="b">
      <stop offset="0" stop-color="#F5F549"/>
      <stop offset="1" stop-color="#97C924"/>
    </linearGradient>
    <linearGradient id="a">
      <stop offset="0" stop-color="#025"/>
      <stop offset=".5" stop-color="#04a"/>
      <stop offset="1" stop-color="#025"/>
    </linearGradient>
    <linearGradient y2="317.486" x2="634.411" y1="317.486" x1="444.509" gradientUnits="userSpaceOnUse" xlink:href="#a" id="h"/>
    <clipPath id="c">
      <path d="M500 226.375l-63.702 110.332h127.4z"/>
    </clipPath>
    <linearGradient xlink:href="#a" id="o" gradientUnits="userSpaceOnUse" x1="444.509" y1="317.486" x2="634.411" y2="317.486"/>
    <linearGradient xlink:href="#a" id="p" gradientUnits="userSpaceOnUse" x1="444.509" y1="317.486" x2="634.411" y2="317.486"/>
    <linearGradient xlink:href="#a" id="q" gradientUnits="userSpaceOnUse" x1="444.509" y1="317.486" x2="634.411" y2="317.486"/>
    <linearGradient xlink:href="#a" id="r" gradientUnits="userSpaceOnUse" x1="444.509" y1="317.486" x2="634.411" y2="317.486"/>
    <linearGradient xlink:href="#b" id="u" gradientUnits="userSpaceOnUse" x1="484.764" y1="311.709" x2="484.764" y2="317.647"/>
    <linearGradient xlink:href="#a" id="x" gradientTransform="scale(4.45715 .22436)" x1="98.901" y1="1440.155" x2="124.971" y2="1440.155" gradientUnits="userSpaceOnUse"/>
    <linearGradient xlink:href="#a" id="j" gradientUnits="userSpaceOnUse" x1="444.509" y1="317.486" x2="634.411" y2="317.486"/>
    <linearGradient xlink:href="#a" id="l" gradientUnits="userSpaceOnUse" x1="444.509" y1="317.486" x2="634.411" y2="317.486"/>
    <linearGradient xlink:href="#a" id="m" gradientUnits="userSpaceOnUse" x1="444.509" y1="317.486" x2="634.411" y2="317.486"/>
    <linearGradient xlink:href="#a" id="i" gradientUnits="userSpaceOnUse" x1="444.509" y1="317.486" x2="634.411" y2="317.486"/>
    <linearGradient xlink:href="#b" id="s" gradientUnits="userSpaceOnUse" x1="484.764" y1="311.709" x2="484.764" y2="317.647"/>
    <linearGradient xlink:href="#b" id="v" gradientUnits="userSpaceOnUse" x1="484.764" y1="311.709" x2="484.764" y2="317.647"/>
    <linearGradient xlink:href="#a" id="y" gradientUnits="userSpaceOnUse" gradientTransform="scale(9.12405 .1096)" x1="47.855" y1="3054.214" x2="61.745" y2="3054.214"/>
  </defs>
  <path fill="#0067c6" d="M0 0h640v480H0z"/>
  <path fill="#fff" d="M0 160h640v160H0z"/>
  <path d="M248 239.463l7.983.534c.027-.39.05-.778.08-1.167l-3.14-.21c.078-1.282.185-2.563.242-3.847 1.11-.803 0315C4CADA" fill="#c8a400"/>
  <g clip-path="url(#c)" transform="matrix(.8 0 0 .8 -80 0)">
    <path d="M500 226.408l-31.478 54.535-15.42 26.702H546.9l-14.715-25.484L500 226.41z" fill="#fff"/>
    <g id="e">
      <g id="d">
        <path d="M500 226.408l-2.356 4.082L500 285.467l2.358-54.977z" opacity=".62" fill="#17c0eb" stroke="#17c0eb" stroke-width=".129"/>
        <path d="M500 277.475l-.133.003.134 3.11.135-3.11c-.045 0-.09-.003-.134-.003z" fill="#fff"/>
      </g>
      <use height="100%" width="100%" xlink:href="#d" transform="rotate(72 500 285.467)"/>
      <use height="100%" width="100%" xlink:href="#d" transform="rotate(144 500 285.467)"/>
      <use height="100%" width="100%" xlink:href="#d" transform="rotate(-144 500 285.467)"/>
      <use height="100%" width="100%" xlink:href="#d" transform="rotate(-72 500 285.467)"/>
    </g>
    <use height="100%" width="100%" xlink:href="#e" transform="rotate(8 500 285.467)"/>
    <use height="100%" width="100%" xlink:href="#e" transform="rotate(16 500 285.467)"/>
    <use height="100%" width="100%" xlink:href="#e" transform="rotate(24 500 285.467)"/>
    <use height="100%" width="100%" xlink:href="#e" transform="rotate(32 500 285.467)"/>
    <use height="100%" width="100%" xlink:href="#e" transform="rotate(40 500 285.467)"/>
    <use height="100%" width="100%" xlink:href="#e" transform="rotate(48 500 285.467)"/>
    <use height="100%" width="100%" xlink:href="#e" transform="rotate(56 500 285.467)"/>
    <use height="100%" width="100%" xlink:href="#e" transform="rotate(64 500 285.467)"/>
    <path d="M500 265.844a44.236 44.236 0 0 0-28.97 10.75L456.376 302c-.5 2.67-.75 5.434-.75 8.25h5.03c0-21.726 10AB1446A19" fill="red"/>
    <path d="M500 266.656c-11.764 0-22.44 4.675-30.28 12.25l-12.032 20.844a43.596 43.596 0 0 0-1.28 10.5h4.25c0-209D1BE3A4B" fill="#f60"/>
    <path d="M500 267.47c-12.702 0-24.1 5.52-31.938 14.31l-8.718 15.095a42.733 42.733 0 0 0-2.125 13.375h3.436c0-06650C3AB1" fill="#ff0"/>
    <path d="M500 268.25c-14.55 0-27.372 7.414-34.906 18.656l-2.813 4.875a41.818 41.818 0 0 0-4.28 18.47h2.656c0-0EBBD16AD8" fill="#0f0"/>
    <path d="M500 269.062c-22.747 0-41.188 18.44-41.188 41.188h1.844c0-21.727 17.618-39.344 39.344-39.344 21.726 05940E1AA8" fill="#0cf"/>
    <path d="M500 269.844c-22.306 0-40.375 18.1-40.375 40.406h1.344c0-21.56 17.47-39.03 39.03-39.03 21.56 0 39.03098D4CCA27" fill="#00f"/>
    <path d="M500 270.657c-21.863 0-39.588 17.725-39.588 39.59 0 .244.003.49.007.732h.8c-.005-.245-.007-.49-.007-02BE951AEA" fill="purple"/>
    <path d="M500.395 288.134c-.644-.124-1.226-.484-1.775-.61-.756.725-.835 1.457-.73 2.08.26.14.31.353.877.86s.4096FA81AD5" fill="#510000"/>
    <path d="M497.168 283.524c-.595.015-1.528 1.012-1.943.475-.24-.31-.28-.903-.037-1.4.56-1.152 1.124-1.717 2.16011A193A65" fill="red"/>
    <path d="M496.927 282.548c-1.083.445-.966 1.076-1.51 1.59.154.058.766.31 1.364-.3.26-.215.55-.294.678-.363-.3099DBEAA8B" fill="url(#f)"/>
    <path d="M500.938 279.795c-.04.223-.077.516-.056.6.087.34.175.693.278.994.115.335.162.578.24.927.082.36.4.5.60ADE56BADD" fill="#ff2a2a"/>
    <path d="M501.25 287.398c-.72-.188-1.427-.543-2.038-.725-1.2-.36-2.48-1.134-3.366-.814-.317.14-.29.455-.39.91041431BA41" fill="url(#g)"/>
    <path d="M498.363 288.902c-.327-.178-2.315-1.478-3.043-1.07-.23.127-.317-.017-.32-.258-.004-.24.11-.594.184-.0452C39A5C" fill="#910000"/>
    <path d="M501.763 291.36c.916-1.602 1.508-1.396 2.613-1.373.37.008.477-.33.393-.667-.28.624-1.663-.07-2.416.205B6D37AC5" fill="#ff3a3a"/>
    <g fill="url(#h)">
      <path d="M453.103 307.645l-9.955 17.237h113.708l-9.956-17.237h-93.797z" fill="#fff"/>
      <g id="n" fill="url(#i)">
        <path id="k" d="M449.705 321.364c-1.658 0-3.197.167-4.71.353l-.486.846c2.432-.216 4.696-.65 7.14-.71 3.292.08 6.282.83 9.785.83 1.518.015 3.027-.03 4.526 0 3.5 0 6.49-.75 9.784-.83 3.295.08 6.304.83 9.803.83 1.518.005 3.178-.023 4.53 0 3.5 0 6.474-.75 9.765-.83 3.293.08 6.27.83 9.77.83 1.53.015 3.032-.03 4.542 0 3.5 0 6.49-.75 9.787-.83 3.297.08 6.282.83 9.783.83 1.516.015 3.03-.03 4.53 0 3.5 0 6.475-.75 9.765-.83 2.55.063 4.92.52 7.486.725l-.515-.893c-1.404-.168-2.836-.32-4.37-.32-1.528-.022-3.035.03-4.546 0-3.5 0-6.474.747-9.765.828-3.297-.08-6.284-.83-9.787-.83-1.513-.02-3.03.032-4.526 0-3.5 0-6.493.75-9.786.83-3.293-.08-6.283-.83-9.782-.83-1.522-.02-3.042.032-4.547 0-3.498 0-6.475.75-9.764.83-3.294-.08-6.27-.83-9.77-.83-1.52-.02-3.025.032-4.525 0-3.5 0-6.49.75-9.785.83-3.294-.08-6.283-.83-9.783-.83-1.52-.02-3.043.032-4.547 0z" fill="url(#j)"/>
        <use height="100%" width="100%" xlink:href="#k" y="-1.113" fill="url(#l)"/>
        <use height="100%" width="100%" xlink:href="#k" y="-2.23" fill="url(#m)"/>
      </g>
      <use height="100%" width="100%" xlink:href="#n" y="-3.344" fill="url(#o)"/>
      <use height="100%" width="100%" xlink:href="#n" y="-6.691" fill="url(#p)"/>
      <path d="M453.23 307.458l-.123.215h93.79l-.124-.215H453.23zm-.22.377l-.126.22h94.235l-.128-.22h-93.98zm-.2.340D3009AABC" fill="url(#q)"/>
      <path d="M457.357 312.287c3.45.662 3.782 0 3.782 0zm81.503 0s.33.662 3.782 0z" fill="url(#r)"/>
    </g>
    <g fill="#ccd11e">
      <g id="t">
        <path d="M530.63 297.043c-1.708 0-2.23.862-2.23.862-2.737 10.576-11.808 21.333-22.6 21.333h-8.082v10.768c0 .0037A211AD4" fill="url(#s)"/>
        <path d="M530.63 297.465c-.783 0-1.26.18-1.537.355-.264.165-.315.276-.32.288 0 .007-.016.01-.02.016-1.4 5.32300100D7A5E" fill="#97c924"/>
        <path d="M530.63 297.465c.147 0 .28.02.406.034.024 3.016 0 8.108 0 10.8-.03 2.34-.83 4.223-2.012 6.44-.547 1.070E151A37" fill="#ede71f"/>
        <path d="M529.938 298.902c-.412 6.034-2.277 13.192-6.644 17.81-1.607 1.337-3.66 2.55-5.646 2.255 6.77-5.51 10.885-13.947 12.29-20.065z" fill="#c6cb24"/>
        <path d="M524.494 309.28c-1.002 2.722-4.788 6.747-8.84 10.046-1.15.035-1.76.1-2.804.038 2.468-.225 8.22-5.083 11.644-10.083z" fill="#9ecb34"/>
      </g>
      <use height="100%" width="100%" xlink:href="#t" x="-15.341"/>
      <g fill="#c6cb24">
        <path d="M502.218 297.91c2.735 10.576 11.79 21.334 22.583 21.334h8.09v10.768c0 .003-.015 0-.017 0h-65.795c-.0007CE88A25" fill="url(#u)"/>
        <path d="M499.975 297.465c.784 0 1.255.196 1.538.372.27.166.332.26.34.27l.016.017c1.4 5.323 4.347 10.67 8.332090BA63A09" fill="#97c924"/>
        <path d="M499.263 297.53a3.4 3.4 0 0 0-.242.055h-.017c-.243.066-.436.15-.572.236-.263.166-.313.275-.32.287-.00245A8CABF" fill="#ede71f"/>
        <path d="M499.275 298.902c-.412 6.034-2.277 13.192-6.644 17.81-1.605 1.337-3.66 2.55-5.645 2.255 6.77-5.51 10.885-13.947 12.29-20.065z"/>
        <path d="M493.832 309.28c-1.002 2.722-4.788 6.748-8.84 10.046-1.15.035-1.76.1-2.804.038 2.467-.225 8.222-5.083 11.644-10.083z" fill="#9ecb34"/>
        <path d="M500.95 297.584h.02c.24.067.434.15.57.236.264.165.315.274.32.286.003.006.017.01.02.018.174.665.37 1.07E6CCEA54" fill="#ede71f"/>
        <path d="M501.476 298.902c.412 6.034 2.22 12.006 6.587 16.625 1.607 1.337 3.66 2.55 5.646 2.255-7.336-5.002-10.83-12.762-12.234-18.88z"/>
      </g>
      <g id="w">
        <path d="M484.75 297.043c-1.71 0-2.25.862-2.25.862-2.522 9.747-11.824 22.318-21.496 23.81l-4.79 8.29h49.015V30C00676A65" fill="url(#v)"/>
        <path d="M484.75 297.465c-.785 0-1.256.196-1.54.372-.268.166-.33.26-.337.27l-.017.017c-1.402 5.323-4.678 10.704F625EA28" fill="#97c924"/>
        <path d="M483.445 298.903c-.617 9.043-5.653 20.454-11.34 22.42-1.855.64-5.1.864-6.227 1.008 9.948-4.73 15.828-15.852 17.567-23.427z" fill="#93bc30"/>
        <path d="M484.746 297.465c-.147 0-.28.02-.406.034-.023 3.016 0 8.108 0 10.8.03 2.34.83 4.223 2.012 6.44.07.190A75CCEA9C" fill="#ede71f"/>
        <path d="M485.446 298.902c.412 6.034 2.277 13.192 6.644 17.81 1.606 1.337 3.66 2.55 5.646 2.255-6.77-5.51-10.886-13.947-12.29-20.065z"/>
        <path d="M489.613 307.247c2.37 5.837 8.37 11.29 14.543 14.954 1.15.036 1.492.004 2.537-.06-4.42-2.37-11.54-5.753-17.08-14.893z" fill="#9ecb34"/>
      </g>
      <use height="100%" width="100%" xlink:href="#w" x="-15.43" fill="#c6cb24"/>
    </g>
    <g>
      <path d="M556.5 324.692c-.574.203-4.42-.19-6.433-.044l-1.28.336c-1.123-.008-2.238.024-3.33 0-3.602 0-6.65.94806E68F6A6D" fill="#fff"/>
      <path d="M547.993 323.11c-.2 0-.398 0-.596.008-3.24.095-5.564 1.115-11.2 1.115-5.638 0-6.22-1.02-12.584-.88-5060F225A5F" fill="url(#x)"/>
      <g id="A">
        <path id="z" d="M450.312 334.748c-3.457 0-6.402.853-9.652.945-1.21-.033-2.367-.183-3.535-.345l-.49.85c.486.032.975.00052EB7AEB" fill="url(#y)"/>
        <use height="100%" width="100%" xlink:href="#z" y="-1.289"/>
        <use height="100%" width="100%" xlink:href="#z" y="-2.575"/>
      </g>
      <use height="100%" width="100%" xlink:href="#A" y="-3.867"/>
      <use height="100%" width="100%" xlink:href="#A" y="-7.729"/>
    </g>
    <path d="M443.846 324.705l-2.427 4.19c2.838-.47 7.1-1.702 10.633-1.705 3.663-.003 8.082.903 12.438.916 5.067.08B8DF5A10" fill="#97c924"/>
    <path d="M550.067 324.648s2.71.148 3.847.276a91.39 91.39 0 0 0 2.955.253l-.37-.485c-.574.203-4.42-.19-6.433-.044z" fill="#fff"/>
  </g>
  <path d="M320 179.9l-25.713 44.548L268 269.968l51.438-.007 52.562.007-25.723-44.546L320 179.9zm0 2.4l25.24 4306E0A09AA7" fill="#c8a400"/>
</svg>
