<svg xmlns="http://www.w3.org/2000/svg" xmlns:xlink="http://www.w3.org/1999/xlink" height="480" width="640" id="flag-icon-css-rs">
  <defs>
    <clipPath id="a">
      <path fill-rule="evenodd" d="M60 0h1200v900H60z"/>
    </clipPath>
  </defs>
  <g transform="translate(-32) scale(.53333)" clip-path="url(#a)">
    <path fill="#fff" d="M0 0h1350v900H0z"/>
    <path fill="#0c4076" d="M0 0h1350v600H0z"/>
    <path fill="#c6363c" d="M0 0h1350v300H0z"/>
    <g transform="matrix(1 0 0 1.00437 0 -.328)">
      <path d="M473.4 259.4v-.2h1v.2l-.5.5-.6-.6zm1 0v.5h-.5l.4-.6zm-93 5.2l-1 .2.3-.6 4.2-.2 4-.3 4-.2 3.8-.3 4-.20F68D1DA0E" fill="#21231e"/>
      <path d="M583.5 264.2c3.2-6.6 6.7-13 11.2-18.7-11.7 8.8-18 7.5-18.7-4-.7-.2-1.7-.2-2.6-.2-9 14-17.7 12-26.2-50A0B352ACE" fill="#edb92e"/>
      <path d="M595 246l-.6-1 .7 1-.3.4-.4.5-.4.4-.5.6-.4.5-.3.6-.4.6-.4.6-.5.5-.3.6-.4.6-.4.4-.3.6-.3.6-.3.6-.4.6-03A34C5AAE" fill="#21231e"/>
      <path fill="#edb92e" d="M459.4 276.2l22.7-11.5 23 11.5-23 11.4z"/>
      <path d="M474 259.2v.2c-17.6.7-48.6 2.5-93.2 5.3l6.5 31c29.6-.8 64.3-2 94.8-3 30.7 1 65.3 2.2 95 3l6.5-31c-4400929E8A7E" fill="#edb92e"/>
      <path d="M597.3 236.7l-3.7-.6c-7 17.5-13.4 18-14.6 1.4 1.6-.6 1-3.3 2.8-2.2 1 .5 2-1 1.3-2-2-1.5-3.6-1.3-5.4.03F60E5ABE" fill="#edb92e"/>
      <path d="M593.7 235.6l3.7.6-.2 1-3.6-.6-.4-.7.5-.4zm-.5.3v-.4h.5l-.5.3zm-14.3 1l.2 1 .3-.6.2 1.4v1.4l.3 1.3.2 1.2.2 1 .3 1 .3 1 .3.7.3.7.3.6.3.5.3.5.4.2.3.2h1.3l.4-.3.4-.2.5-.4.4-.3.6-.6.5-.6.6-.7.7-1 .6-.8.7-1.2.6-1.2.6-1.3.7-1.3.5-1.5.7-1.6 1 .3-.8 1.6-.6 1.4-.7 1.4-.5 1.3-.7 1.3-.6 1-.6 1-.7 1-.7.8-.6.8-.6.6-.5.5-.6.3-.7.4-.5.2h-1.2l-.6-.2-.5-.2-.5-.4-.5-.4-.4-.6-.3-.6-.3-.8-.4-.8-.3-1-.2-1-.3-1-.2-1.3-.2-1.3-.2-1.5v-1.6l.3-.5zm-.5.4v-.4h.4l-.5.4zm3.5-2.7l-.5 1v-.2h-.4v.2h-.2v.2l-.2.2v.3l-.2.3-.2.3v.2h-.2v.3h-.3v.2h-.3l-.2.2-.3-1v-.2h.2v-.2h.2v-.2l.2-.2v-.5h.2v-.4l.2-.2v-.3l.2-.2.2-.2h.2l.2-.2h1l.2.2zm-.5 1zm1.3-2l.6-1v.2h.2l.2.3v1.6h-.2v.2h-.2v.2h-.2v.2h-.2v.2h-.5v.2h-.8l-.3-.2.5-1v.2h.4v-.2h.2v-.2h.2v-.8zm.6-1v.2-.2zm-6.3 1l1-.3-.8-.2h.2l.2-.3.2-.2.2-.2.3-.2h.2l.2-.2h.2v-.2h.4l.2-.2h2.3l.2.2h.2l.2.2h.2l.2.2h.2l.2.2.2.2-.6.8-.3-.2h-.2l-.2-.2-.2-.2h-.3l-.2-.2h-2.1v.2h-.3v.2h-.2l-.3.2v.2h-.3v.2l-.3.2-1-.3zm1 .3l-.7.5-.2-.8 1 .3zm-5.6-2.7l-.4-1h.5l.3-.2h2.1l.4.2h.4l.2.3h.2v.2l.3.2h.2l.2.2v.2l.2.2v.2l.2.2.2.2v.2l.2.3v.2l.2.2v.2l-1 .3v-.5h-.2v-.3l-.2-.2v-.2h-.3v-.3h-.2v-.4h-.3v-.2h-.3v-.2h-.6v-.2h-2l-.2.2h-.2zm0 1.4l.2 1h-.6v-.2h-.2l-.2-.2-.2-.2-.2-.2V231l.2-.2.2-.2.3-.2.4 1h-.2v1.2h.2zm2.2 3.7l-.8-.6v.5-.2h-.2v-1h-.2v-1l-.2-.2h-.7v-1.2h.6l.3.2.2.2h.2v.2l.2.3v.4h.2v1.5h.2v.8zm0-.5h.2l-.2.4v-.5zm-18-6.6l.3-1 .3.6v2l-.2 1.8v4.9l.3 1.4v1.3l.3 1 .2 1 .3 1 .4.8.3.8.4.5.5.5.4.3.4.3.5.2h1l.6-.2.7-.3.7-.4.8-.5 1-.4.7-.8 1-.8 1-1 1-1 1-1 1-1.4 1-1.4 1.3-1.4.8.6-1.2 1.5-1 1.3-1.2 1.3-1 1-1 1.2-1 1-1 .8-1 .8-.8.6-1 .5-.7.4-.8.3h-.8l-.8.2h-.7l-.7-.2-.6-.3-.6-.5-.5-.5-.4-.7-.5-.7-.4-1-.2-1-.2-1-.2-1.2-.2-1.3V229l.5.6zm.3-1h.3v.6l-.4-.6zm-9.3-1.6l-1-.4.7-.3.3.2h.3l.3.2h.3l.2.2h.3l.4.2h.6l.3.2h.3l.4.2h.6l.3.2h.5l.3.2h.7l.3.2h.6l.3.2h.5l.3.2h.8l.3.2h.3l-.3 1h-.8l-.2-.2h-.6l-.3-.2h-.8l-.3-.2h-.6l-.4-.2h-.7l-.4-.2h-.3l-.3-.2h-.6l-.3-.2h-.2l-.3-.2h-.6l-.4-.2h-.3l-.4-.2h-.4l-.3-.2h-.2l.7-.4zm-1-.4l.3-.4h.4l-.6.4zm-26.2 3.2l.6.8.3-.6.6 2 .5 1.7.7 1.6.6 1.6.7 1.4.7 1.2.6 1 .7 1 .7 1 .7.6.6.6.7.4.7.4.7.2h1.4l1-.2.6-.2.8-.4 1-.6.7-.6 1-.8 1-1 .8-1 1-1.2 1-1.3.8-1.4 1-1.6 1-1.7 1-1.8 1-2 1.2-2 1 .3-1.2 2.2-1 2-1 1.8-1 1.8-1 1.6-1 1.5-1 1.3-1 1.2-1 1-1 1-1 1-.8.7-1 .5-.8.4-1 .2-.8.2h-1.8l-.8-.3-.8-.3-.8-.5-.8-.6-.7-.8-.8-1-.7-1-.7-1-.7-1.4-.7-1.4-.7-1.5-.7-1.7-.6-1.7-.7-1.8.2-.6zm-.2.6v-.4l.2-.2-.2.5zm3.8-3.6l-.3 1h-.3l-.2-.2h-.2v.2h-.2v.2h-.2v.5h-.2v.4l-.2.3-.2.2v.2l-.2.3-.3.3-.2.3h-.2l-.5-.7.2-.2.2-.2v-.5h.2v-.4h.2v-.3l.2-.3v-.2l.2-.2.2-.3.2-.2h.2v-.2h.5v-.2h.7l.2.2zm.7-1.6l.6-.8.2.2.2.2v.2l.2.3v1.3l-.2.3v.2l-.2.2h-.2v.2h-.2v.2h-.2l-.2.2h-1.1l.4-1h.7v-.2h.2v-.6h.2v-.7h-.2v-.2zm-7 1l1-.3h-1l.2-.3v-.3h.3l.2-.3.2-.3.2-.2.3-.3.3-.3h.2l.2-.3h.3l.2-.2h.5l.2-.2h2.2l.3.2h.2l.3.2h.3l.3.3h.2l.3.3.3.2-.6.8-.2-.2h-.2l-.2-.3-.4-.2h-.2l-.2-.2H521v.2h-.5l-.2.3h-.2v.2h-.2l-.2.3-.2.2-.3.3v.2l-.2.3-.2.2h-1zm1 .2l-.6.7-.3-1 1 .2zm-7-2l-.4-1h.3l.2-.2h.3l.4-.2h.2l.3-.2h.4l.3-.2h1.6l.2.2h.2l.3.2h.2l.2.3.3.2.2.2v.2l.3.2.2.2.2.2v.2l.3.2.2.3.3.4v.3l-.8.4-.2-.4-.2-.2v-.2l-.3-.2v-.2l-.3-.2-.3-.3h-.2v-.2h-.3l-.3-.2h-.2l-.3-.2h-.4l-.2-.2h-1.2l-.2.2h-.5l-.2.2h-.2l-.2.2-.2.2zm.5 1.7l.3 1h-.5l-.2-.2h-.2l-.2-.2-.2-.2-.2-.2v-.2l-.2-.2V224l.2-.2.2-.3.3-.2.5 1h-.2v1.2h.2v.2h.4zm3.7 4l-1-.2.2.5h-.2l-.2-.2h-.2v-.3h-.2l-.2-.3v-.4l-.2-.2v-.3l-.2-.2v-.4l-.2-.2v-.2l-.2-.2v-.2h-.2v-.2h-.6l-.4-1h1.1l.3.2h.2v.4h.2v.3l.2.2v.2h.2v.5l.2.3v.5h.2v.4h.2l.2.2.2.2.3.6zm-.3-.5l.3.2v.3l-.3-.5zm-27-7.2v-1l.6.5-.3 2.7-.2 2.4v2.2l.2 2 .3 2 .4 1.7.5 1.5.7 1.4.6 1 .8 1.2 1 1 1 .7 1 .6 1 .5 1 .4 1.3.3h2.4l1.3-.2 1.2-.3 1.2-.5 1.2-.5 1-.7 1.2-1 1-.8 1-1 1-1.3 1-1.3.8-1.3.8-1.5.6-1.7.5-1.7 1 .2-.6 2-.7 1.6-.8 1.6-1 1.5-1 1.4-1 1.3-1 1-1.2 1-1.2 1-1.2.8-1.3.7-1.2.5-1.3.3-1.4.2h-2.5l-1.2-.3-1.3-.4-1.2-.5-1-.7-1-1-1-1-1-1-.8-1.5-.7-1.5-.6-1.6-.4-1.8-.3-2-.2-2.2V227l.2-2.6.3-2.7.5.6zm0-1h.7v.5l-.6-.5zm-6.6 1.2l.2-1h4l.2-.2h2.1v1h-4.1l-.2.2h-2zm.2 0zm-6.2-.8h-1l.5-.4h5.1l.2.2h1.2v1h-4l-.3-.2h-2l.5-.6zm-1 0v-.5h.5l-.5.6zm-26.4 7.8l.5.8.3-.5.6 1.7.5 1.7.7 1.5 1 1.4.8 1.4 1 1.2 1 1 1 1 1.2 1 1.2.6 1.2.5 1.2.5 1.2.3 1.2.2h2.4l1.2-.3 1-.3 1.2-.4 1-.7 1-1 .8-.8 1-1 .6-1.3.6-1.5.6-1.6.4-1.8.3-2v-2l.2-2.3-.2-2.5-.3-2.7h1l.3 2.6.2 2.5v2.2l-.2 2.2-.3 2-.5 1.8-.5 1.6-.7 1.5-.8 1.4-1 1.2-1 1-1 .8-1 .7-1.2.5-1.3.4-1.3.3H463l-1.2-.2-1.3-.3-1.3-.5-1.3-.6-1.3-.7-1.2-1-1.2-1-1-1-1-1.2-1-1.3-1-1.5-.7-1.6-.7-1.7-.6-2 .2-.5zm-.2.5v-.3l.2-.2-.2.5zm3.7-4l-.2 1-.2-.2h-.7v.2l-.2.2v.4l-.2.2v.5l-.2.2v.2l-.2.3v.2l-.2.2v.2h-.2v.3h-.3l-.2.2h-.2l-.4-.7.2-.2.2-.2h.2v-.3l.2-.2v-.5l.2-.2v-.5l.2-.3v-.3l.2-.2.3-.3.2-.2h.2l.2-.2h1.1zm.4-1.8l.6-1v.2h.3v.3h.2v.2l.2.2v1.5l-.2.2v.2l-.2.2-.3.2-.2.2h-.9l.3-1h.4v-.4l.2-.2v-.8h-.2v-.2h-.2zm-6.7 2l.8-.6h-.8v-.2l.2-.3.3-.4v-.2l.3-.2.2-.2.2-.2.2-.2.2-.2.2-.2h.2l.3-.3.3-.2h.2l.3-.2h.5l.2-.2h1.6l.4.2h.2l.3.2h.2l.3.2.2.2h.3l-.6 1-.2-.2h-.2l-.2-.2h-.3l-.2-.2h-.5l-.2-.2h-1.3l-.2.2h-.3v.2h-.3l-.2.3-.2.2-.3.3-.3.3-.2.2v.2l-.2.2-.2.2v.3h-.2l-1 .2zm1 0l-.5.7-.5-.8h1zm-7-1.2l-.8-.8.2-.2.2-.2h.3l.2-.3h.2l.2-.2h.3l.3-.2h2.5l.3.2h.2l.3.2.2.2h.2l.2.3h.2l.2.2.2.2.2.3.2.2h.2v.4l.3.2-.8.6-.2-.2v-.3l-.3-.2-.2-.2-.3-.3-.2-.2h-.2l-.2-.2v-.2h-.2l-.2-.2h-.4l-.2-.2H441l-.2.2h-.2l-.2.2h-.2l-.2.3h-.2l-.2.3zm.5 1.6l.4 1h-1.3l-.2-.2-.3-.2h-.2v-.2l-.2-.3v-.2l-.2-.2v-1.6l.2-.2.2-.2v-.2l.8.8-.2.2v1l.2.2.2.2h.4zm3.8 3.6l-1-.4.2.6h-.2v-.3h-.3v-.2h-.2v-.3h-.2v-.5h-.2v-.6h-.2v-.5l-.2-.2-.2-.2h-.2v-.2h-.5v.2l-.5-1h.4l.2-.2h.6l.2.2.3.2h.2v.2l.2.2.2.3v.2l.2.2v.2l.2.3v.2l.2.2.2.2.2.2.2.2.2.6zm-.2-.6l.3.2v.4l-.2-.6zm-26.6-2.5l-.3-1 .5.4 1 2 1 2 1.2 2 1 1.6 1 1.6 1 1.5 1 1.4.8 1.2 1 1 .8 1 1 .8.7.6 1 .6.6.4.8.2.8.2h1.3l.7-.2.7-.4.7-.4.7-.6.7-.7.8-.7.6-1 .7-1 .8-1.3.6-1.4.7-1.5.7-1.5.7-1.8.6-2 1 .5-.7 2-.6 1.6-.7 1.7-.6 1.5-.7 1.4-.7 1.3-.7 1.2-.7 1-.8.8-.7.8-.7.6-.8.5-1 .4-.7.4H432l-1-.2-.7-.3-1-.5-1-.6-.8-.8-1-1-.8-1-1-1-1-1.2-1-1.3-1-1.5-1-1.6-1-1.8-1-1.8-1-2-1-2.2.5.3zm-.3-1h.3l.2.4-.6-.3zm-9 3h-1l.4-.6h.7l.3-.2h.6l.4-.2h.9l.3-.2h.5l.3-.2h.6l.4-.2h.3l.3-.2h.6l.3-.2h.5l.3-.2h.3l.4-.2h.3l.3-.2h.3l.3-.2h.3l.2 1h-.7l-.3.2h-.3l-.3.2h-.3l-.3.2h-.5l-.3.2h-.3l-.4.2h-.6l-.4.2h-.6l-.3.2h-.6l-.2.2h-.6l-.3.2h-.7l-.3.2h-.8v.2h-.4l.4-.5zm-1 0v-.5h.4l-.4.5zm-17.4 7l1 .3v-.5l1 1.4 1 1.4 1.2 1.3 1 1 1 1 1 1 1 .8.8.8 1 .6.6.4.8.4.7.3h.6l.6.2h.4l.5-.2.3-.2.5-.2.4-.5.3-.5.4-.7.2-.7.3-1 .2-1 .2-1v-2.7l.2-1.5v-5l-.2-1.8h1v2l.2 1.8v4.9l-.2 1.4v1.4l-.3 1.2-.3 1-.3 1-.2 1-.4.7-.4.7-.6.5-.5.5-.7.3-.7.2H402l-.6-.2-.8-.4-1-.5-.7-.5-1-.6-1-.8-1-.8-1-1-1-1-1-1.2-1-1.3-1.2-1.4-1-1.6-.2-.5zm0 .4v-.3.4zm2-3.7v1h-.6v.8l-.2.3v1h-.2v.3l-1-.4v-.4l.2-.2v-.9h.2v-.5l.2-.2v-.2h.4v-.2h1zm.3-1.4l.3-1 .2.2h.2v.2h.2v.7h.2v1.2l-.2.2v.3l-.2.2-.2.2h-.2l-.2.2h-.5v-1h.4v-.2h.2v-.8l-.2-.2zm-5.7 2.7l.7-.8-.8.2v-.2l.2-.3v-.3l.2-.3v-.2l.2-.2.2-.2v-.2l.3-.2v-.2l.3-.2h.2v-.3h.3l.3-.2.2-.2h.4v-.2h2.5l.3.2h.2l.3.2-.4 1-.3-.2h-.5l-.2-.2h-1.3l-.3.2h-.2v.2h-.2l-.2.2v.2h-.2l-.2.2v.2h-.2v.3l-.2.2v.2h-.2v.5l-.2.2-1 .3zm1-.3l-.4.8-.7-.5 1-.3zm-5.8-.2l-.7-.6v-.2l.3-.2h.3l.2-.2h.2l.2-.2.3-.2h.2l.2-.2h2.1l.2.2h.2l.2.2h.2l.2.2.3.2.2.2h.2l.2.3v.2l-.7.8v-.2h-.3v-.2l-.3-.2-.3-.2h-.3v-.2h-.2l-.2-.2h-2v.2h-.3l-.2.2-.2.2h-.2l-.2.2zm-.7-.6v-.2zm1.4 1.7l.6 1h-1.3l-.3-.2-.2-.2v-.2h-.2l-.2-.2v-.3l-.2-.2v-.8l.2-.3h.2l.7.5v.8h.2v.2h.2v.2h.2zm3.6 2.7h-1l.3.5v-.2h-.3v-.2h-.3v-.3h-.2v-.2h-.2v-.2l-.2-.2v-.3h-.2v-.2l-.2-.3v-.2h-.7l-.6-.8h.2l.2-.2h1.1l.3.2.2.2v.2h.2v.4l.2.2v.5h.2v.2l.2.2.2.2h.2l.4.6zm-.4-.5h.4v.4l-.4-.5zm-14.7-.4v-1l.4.3.8 1.5.6 1.5.7 1.3.7 1.3.6 1.2.6 1 .6 1 .6 1 .5.6.6.7.5.7.6.4.5.5.3.2.5.2h1.1l.3-.3.3-.2.4-.4.3-.4.4-.5.3-.6.3-.8.3-.8.2-1 .3-1 .3-1.3.2-1.3v-1.4l.2-1.4h1v1.5l-.2 1.4-.2 1.3-.2 1.2-.2 1-.2 1-.3 1-.4.8-.4.8-.4.6-.4.6-.5.4-.5.4-.5.2-.6.2h-1.1l-.6-.3-.7-.4-.6-.4-.5-.6-.6-.6-.7-.7-.7-.7-.6-1-.6-1-.6-1-.6-1.2-.6-1.2-.7-1.4-.7-1.5-.6-1.7.5.3zm0-1h.3v.3l-.4-.4zm-3.8.6l3.6-.6v1l-3.6.6-.5-.5.4-.5zm-.5.5v-.4h.4l-.5.4zm4.7 11.4l-.8.7-.3-.3v-.3l-.3-.3-.2-.3-.3-.3-.2-.3-.2-.3v-.4l-.3-.3-.2-.4-.2-.4v-.4l-.2-.4v-.4l-.3-.4v-.4l-.2-.3v-.4l-.2-.4v-.9l-.2-.3v-.8l-.2-.5V238l-.2-.5v-.7h1v1.9l.2.4v1.1l.2.5v.7l.2.3v.4l.2.4.2.3v.4l.2.5.2.3v.4l.2.3.2.4.2.2v.3l.3.4.2.2v.3l.3.3.2.4.2.3.2.3.2.3zm18.7-4.7l-.8.7 1-.3-.2 1.4v1.4l-.2 1.3-.2 1.2-.2 1-.3 1-.2 1-.3 1-.4.7-.4.8-.4.7-.6.6-.5.5-.5.4-.7.3-.6.3h-.7l-.8.2h-.7l-.8-.2-.8-.2-.8-.2-1-.4-.7-.5-1-.7-1-.6-.8-.8-1-1-1-1-1-1-.8-1-1-1.3.8-.6 1 1.3 1 1 .8 1 1 1 1 .8.7 1 1 .5.7.6.8.5.8.4.7.2h.7l.7.3h1.4l.6-.2.4-.2.6-.2.4-.3.5-.5.4-.5.4-.6.4-.7.3-.8.3-.8.3-1 .4-1 .2-1 .2-1.2v-1.2l.2-1.3v-1.3l1-.4zm-1 .4V242l1 1-1 .4zm27.3-3.2l-1 .4 1-.2-.2 1.6v1.5l-.4 1.3-.4 1.3-.4 1.2-.4 1.2-.5 1-.7 1-.6 1-.6.7-.6.7-.8.6-.7.5-1 .4h-.8l-1 .3h-2.8l-1-.3-1-.4-1.2-.4-1-.6-1.2-.6-1.2-.8-1-.8-1.3-1-1.2-1-1.3-1.2-1.2-1.3-1.3-1.5-1.3-1.5.7-.7 1.2 1.5 1.3 1.4 1.2 1.2 1.2 1.2 1 1 1.3 1 1 .8 1.2.7 1 .7 1 .6 1 .4 1 .3 1 .2h1l.8.2h.8l1-.2.7-.3.7-.4.7-.5.7-.4.6-.6.6-.7.5-.8.5-1 .4-1 .5-1 .2-1.2.4-1.3.3-1.3v-1.5l.3-1.6h1zm-1 0l.2-1.5.8 1.5h-1zm31.8-1.8l-.8.3h1v1l-.3 1.4-.4 1.2-.4 1.2-.5 1-.6 1.3-.6 1-.7 1-.8 1-1 1-1 .7-1 .7-1 .7-1 .6-1.2.5-1.2.4-1.2.3h-3.8l-1.3-.2-1.3-.4-1.4-.4-1.3-.7-1.3-1-1.3-.8-1.3-1.2-1.3-1.2-1-1.5-1.3-1.6-1.2-1.8-1-2 .8-.5 1 2 1.2 1.6 1.2 1.7 1.2 1.4 1 1.3 1.3 1 1.2 1 1.3.7 1.2.6 1.2.5 1.3.5 1.2.2h3.6l1.2-.3 1-.3 1-.3 1.2-.5 1-.6 1-.7.7-.8 1-1 .6-.7.6-1 .6-1 .6-1 .4-1 .4-1.2.3-1V239h1zm35.6-3l-1 .2h1l-.2 2-.4 2-.6 1.6-.6 1.7-.8 1.6-1 1.3-1 1.3-1 1-1.3 1-1.3 1-1.3.8-1.3.6-1.5.6-1.5.3-1.5.2h-1.5l-1.6.2-1.4-.2-1.6-.2-1.5-.3-1.5-.5-1.4-.6-1.4-.7-1.4-1-1.3-1-1.2-1-1-1.2-1-1.4-1-1.4-1-1.6-.6-1.6-.5-1.8 1-.3.5 1.7.6 1.6.8 1.5 1 1.3 1 1.3 1 1.2 1.2 1 1.2 1 1.3.8 1.3.7 1.4.5 1.4.5 1.4.3 1.5.2h4.4l1.5-.3 1.4-.4 1.3-.5 1.3-.5 1.3-.7 1-1 1.2-.8 1-1 1-1.3 1-1.4.6-1.4.7-1.7.5-1.7.4-1.8.2-2h1zm35.5 3l-1 .2h1l-.4 1.8-.7 1.6-1 1.6-1 1.4-1 1.4-1 1.2-1.3 1-1.2 1-1.4 1-1.3.6-1.5.6-1.4.5-1.6.3-1.5.2-1.5.2h-1.6l-1.5-.2-1.4-.3-1.5-.4-1.4-.6-1.4-.6-1.3-.8-1.4-1-1.2-1-1-1-1.2-1.3-1-1.4-.7-1.7-.7-1.7-.5-1.7-.4-2-.4-2 1-.2.3 2 .3 1.8.5 1.7.6 1.6.8 1.3 1 1.4.8 1.2 1 1 1.2 1 1.2.8 1.3.7 1.3.6 1.4.6 1.4.3 1.4.2h4.5l1.4-.2 1.5-.3 1.4-.5 1.3-.5 1.3-.7 1.3-.8 1-1 1.2-1 1-1 1-1.4 1-1.3.7-1.5.6-1.6.5-1.7h1zm31 2h-1l1 .2-1.2 2-1.2 1.7-1.2 1.6-1.2 1.5-1.3 1.2-1.4 1.2-1.3 1-1.3.7-1.3.6-1.3.5-1.4.5-1.3.2H530l-1.3-.3-1.2-.3-1.2-.4-1-.5-1-.6-1-.7-1-.8-1-1-.7-1-.8-1-.6-1-.6-1-.5-1.2-.3-1.2-.3-1.2-.2-1.3v-1l1-.2v1.2l.2 1.2.3 1 .4 1.2.5 1 .6 1 .7 1 .7 1 .7 1 1 .8.8.7 1 .6 1 .6 1 .5 1 .4 1 .4 1.3.2 1.2.2h2.4l1.2-.3 1.2-.4 1.3-.4 1.2-.6 1.3-.7 1.2-1 1.2-1 1.2-1.2 1.2-1.3 1.2-1.6 1-1.6 1.2-2 1 .2zm-1-.2l.8-1.5.2 1.6h-1zm27.2 3.2h-1l1 .3-1.4 1.5-1.3 1.4-1.2 1.2-1.3 1-1.2 1.2-1.2 1-1.2.8-1 .8-1.2.6-1 .6-1.2.4-1 .4-1 .2-1 .2h-2l-1-.3h-.8l-.8-.5-.8-.5-.7-.6-.8-.7-.6-.8-.6-1-.6-1-.5-1-.5-1-.4-1.4-.3-1.3-.3-1.4-.2-1.6-.3-1.6 1-.2.2 1.6.2 1.5.3 1.3.3 1.3.4 1.2.4 1 .5 1 .5 1 .6.8.6.7.6.6.6.5.7.6.6.3.8.2h.8l.8.2h.8l1-.2 1-.2.8-.3 1-.4 1-.6 1.2-.6 1-.6 1.2-.8 1.2-1 1-1 1.4-1.2 1.2-1.2 1.3-1.4 1.3-1.5 1 .4zm-1-.4l1-1v1.4l-1-.4zm19 4.8l.7.7-1 1.2-1 1-1 1-1 1-1 1-.8.7-1 .6-.8.6-.8.4-1 .4-.7.3-1 .3-.7.2h-1.5l-.7-.2-.6-.3-.6-.3-.6-.4-.6-.5-.5-.6-.4-.7-.4-.8-.4-.8-.3-1-.3-1-.3-1-.3-1-.2-1.3V246l-.2-1.3v-1.3h1v2.6l.2 1.3.2 1 .2 1.2v1l.4 1 .4.7.3.8.5.6.4.5.4.5.4.5.5.3.5.3.6.3h.6l.6.2h.6l.7-.2h.6l.7-.4.8-.5 1-.4.7-.5 1-.6.7-1 1-.7.8-1 1-1 1-1 1-1.2zm4-10.7v-1l.6.4v2.9l-.2.4v.7l-.2.4v.5l-.2.4v.3l-.2.4v.3l-.3.4v.4l-.2.4-.2.4v.3l-.3.3-.2.4-.2.3-.2.4-.2.3-.2.4-.2.4-.2.3-.2.4-.2.4-.3.3-1-.6.3-.2.3-.3.2-.3.2-.4.2-.3.2-.3.2-.3v-.5l.3-.3v-.3l.2-.5.2-.3v-.4l.3-.3v-.4l.2-.3v-.7l.2-.4v-.3l.2-.4v-.5l.2-.4v-1l.2-.4v-1.8l.5.5zm0-1h.6v.4l-.5-.5zm0 0v1-1zm0 1z" fill="#21231e"/>
      <path d="M482 263h-22.5l-1.3.2H451l-1.3.2h-4.4l-1.2.2h-2.3l-6.3.4h-.3c-3 0-6 .3-9 .4h-.8l-18.2 1.3h-.2a965 965 0 0 0-26.4 2.4c-5 .6-6-5.3 0-6a960.5 960.5 0 0 1 26.3-2.2 983.7 983.7 0 0 1 37-2.2h2.4l15.4-.5h16.8a1082.3 1082.3 0 0 1 7.2 0h16.6l15.2.5h3.3a984 984 0 0 1 37 2.3 960.5 960.5 0 0 1 26.2 2c5.8.7 5 6.6 0 6a965.6 965.6 0 0 0-26.4-2.3h-.3a978.4 978.4 0 0 0-18.3-1.2h-.6l-9.2-.5h-.3c-2.2 0-4.3-.2-6.4-.3h-2.3l-1.2-.2h-4.5l-1.3-.2H506l-1-.2h-23z" fill="#edb92e"/>
      <path d="M482 105c9.6 0 17.3 7.8 17.3 17.4 0 9.5-7.7 17.3-17.2 17.3-9.3 0-17-7.8-17-17.3 0-9.6 7.7-17.3 17-17.3z" fill="#0c4076"/>
      <path d="M485.3 85c1.6-.2 3-1.5 3-3.2 0-1.7-1.4-3-3-3.2 0-1.7-1.4-3-3.2-3-1.6 0-3 1.3-3 3-1.6 0-3 1.5-3 3.2a3025078DA2A" fill="#edb92e"/>
      <path d="M487.8 81.8h1v1h-.2v.5h-.2v.3l-.2.3-.2.2v.2h-.2l-.2.2-.2.2h-.2v.2h-.2l-.2.2h-.2v.2h-.8l-.2.2h-.3v-1h0837F8CABD" fill="#21231e"/>
      <path d="M499.8 122.4h-1v-1.7l-.2-1v-.7l-.3-.8-.2-.8-.2-.8-.3-.8-.3-.7-.4-.6-.4-.7-.4-.7-.5-.7-.5-.6-.5-.6-.60F45706A32" fill="#21231e"/>
      <path d="M499 118.8a17.6 17.6 0 0 1 0 6c-5.5-.2-11.2-.3-17-.3-5.5 0-11.2 0-17 .3a17.5 17.5 0 0 1 .3-6l16.8-.3c5.8 0 11.4.2 17 .3z" fill="#edb92e"/>
      <path d="M499.8 122.4h-1V120h-.2v-1l1-.2v1.7l.2.2v1.6zm-.7 3l.2-1-.6.3v-.8l.2-.2v-1.1h1v2.2h-.2l-.5.5zm.6-.5v02601B9AD4" fill="#21231e"/>
      <path d="M468.8 133.2c-3.6-2.3-4.3 1.2-4.2 4.7.4 13.2 3 25.8-.6 42-1.4 6.4-3.7 10-1.5 11.3 5.7 3.2 8.3 6 7.4 0149B71A3F" fill="#edb92e"/>
      <path d="M465 138h-1v-1.5l.2-.3v-1.6l.2-.3v-.3h.2v-.4l.2-.2v-.3h.2l.2-.3.2-.2.2-.2h.2l.2-.2h1.8l.4.2.4.2h.3l.03FF68FA36" fill="#21231e"/>
      <g id="b">
        <path d="M363 212c-2-4-.3-9.8.3-11 .3-.8-.6-2.2-1-2.8-13-18.3-13.2-20-4.3-26.8 8-6 26.2-12 39.2-16.2 2.7-2 4.007B161ABB" fill="#edb92e"/>
        <path d="M362.8 200.7l1 .4v.2l-.2.2v.3l-.2.3v.5l-.2.2v.6l-.2.4v.7l-.2.3v1.6l-.2.4v2.5l.2.4v.4l.2.4v.4l.2.4v.30D8C100ACF" fill="#21231e"/>
        <path d="M359 213.6a34 34 0 0 1-1-4.7c-.7-2.8-.4-5.7.5-8.3-3-4.2-6.4-8.8-8.8-13.3-1.7-3.3-3-7-2-10.6 1-4 4.5-0E18DC8A55" fill="#edb92e"/>
        <path d="M357.4 209l1-.2v.7l.2.2v.7h.2v.8l.2.3v.3l.2.3v.7h.2v.6h.2l-1 .4v-.3l-.2-.3v-.2l-.2-.3v-.5l-.2-.3v-.605C240BA81" fill="#21231e"/>
        <path d="M468 132.2c.3-2.3 0-2-.3 1.6-.3-.7-.8-1-1.4-1-1 0-1.7 1.6-1.8 5.2l.2 2.8c-33-.7-52.7 4.3-57.7 14-4.20781949A66" fill="#edb92e"/>
        <path d="M467.3 134l1-.4-1 .2V132h.2v-1.2l.2-.2.6-.3.3.3v1.6h-1V131l.4.2h.6v-.2 1l-.2.2v1.8h-1zm1 0l-.2 1.6-.0E001ADAA3" fill="#21231e"/>
        <path d="M405 190.2c3.5 0 6.4 2.8 6.4 6.4 0 3.5-3 6.4-6.4 6.4s-6.4-3-6.4-6.4c0-3.6 3-6.4 6.4-6.4z" fill="#fff"/>
        <path d="M412 196.6h-1c0-2.2-1.4-4.4-3.4-5.3a5.8 5.8 0 0 0-2.6-.6v-1c2.3 0 4.6 1.2 5.8 3.2a7 7 0 0 1 1 3.6zm-0B0E4C2A14" fill="#21231e"/>
        <path d="M350.8 203.6c3.2 0 6 2.7 6 6s-2.8 6-6 6c-3.3 0-6-2.7-6-6s2.7-6 6-6z" fill="#fff"/>
        <path d="M357.2 209.6h-1c0-2-1-4-2.8-4.8a5.4 5.4 0 0 0-2.6-.7v-1c2 0 4.3 1.3 5.4 3a6.5 6.5 0 0 1 1 3.6zm-6.4 03898E9A21" fill="#21231e"/>
        <path d="M345 192.7c3.4 0 6 2.7 6 6s-2.6 6-6 6c-3.2 0-5.8-2.7-5.8-6s2.6-6 6-6z" fill="#fff"/>
        <path d="M351.5 198.7h-1c0-2-1.2-4-3-5a5.3 5.3 0 0 0-2.4-.5v-1c2.3 0 4.4 1.2 5.5 3a6.5 6.5 0 0 1 1 3.5zM345 208CF527AED" fill="#21231e"/>
        <path d="M339.8 181.7c3.3 0 6 2.7 6 6s-2.7 6-6 6-6-2.7-6-6 2.7-6 6-6z" fill="#fff"/>
        <path d="M346.2 187.7h-1c0-2-1.2-4-3-5a5.4 5.4 0 0 0-2.4-.5v-1c2.2 0 4.3 1.2 5.4 3a6.5 6.5 0 0 1 1 3.5zm-6.4 06334D8AC3" fill="#21231e"/>
        <path d="M444.3 202.2c3.4-.3 2.5 5.8 2 7.2-1 1.8-1.8 1.8-3 .2-.8-1.3-2.4-7.2 1-7.5z" fill="#edb92e"/>
        <path d="M446.6 209.6l-1-.4h.2v-.7l.2-.3v-.5l.2-.3V204h-.2v-.3l-.2-.2v-.2l-.2-.2h-.2l-.3-.2h-.2l-.2-.2h-.3v-1040CF54A3E" fill="#21231e"/>
        <path d="M444.5 205.5c8-.6 6 13.8 4.4 17-2 4.2-4 4.3-6.7.5-2-3-5.8-17 2.2-17.5z" fill="#fff"/>
        <path d="M449.4 222.7l-1-.4.2-.3.2-.4v-.4l.3-.5.2-.5v-.6l.2-.6.2-.7V217l.2-.7v-5.1l-.3-.7v-.6l-.3-.7-.3-.6-.3-.5-.3-.5-.3-.4-.3-.4-.4-.4-.5-.2-.5-.2-.5-.2h-1.4v-1h1.5l.6.2.7.2.5.4.6.4.4.4.4.5.4.7.3.6v.7l.3.6.2.7v.7l.3.8v6.3l-.3.7v.7l-.2.6v.6l-.3.6v.5l-.3.5v.4l-.3.3zm-7.5.5l.8-.5.2.3.2.3.3.3.2.3h.2v.4h.3l.2.3.2.2h.4l.2.2h1v-.2h.3l.2-.3v-.2l.2-.2.2-.2h.2l.2-.4v-.3l.3-.3.3-.3.2-.4 1 .4-.3.4-.2.5-.2.3-.2.4-.2.3-.2.3-.2.2-.2.2-.2.3-.3.2h-.2v.3h-.4l-.2.2H445l-.4-.2h-.2l-.3-.3v-.2l-.4-.2-.2-.2-.2-.2-.3-.2-.3-.3-.3-.4-.2-.4-.3-.4zm2.5-17.2v-1 1h-.6l-.7.2-.5.2-.5.3-.4.3-.5.4-.3.4-.3.4-.3.6-.2.5v.6l-.2.5v.7l-.2.7v.6l.2.7v1.4l.2.7v.8l.3.7v.6l.3.7.2.6.2.5.2.6.2.7.2.5.2.4.2.4.2.4.2.3-1 .5v-.3l-.3-.5-.2-.4-.2-.4v-.6l-.4-.5-.2-.7-.2-.6-.2-.7-.2-.7v-.7l-.3-.6v-.8l-.2-.7V213l-.2-.7v-.8l.2-.7v-.6l.2-.7v-.7l.4-.6.2-.6.4-.6.4-.5.4-.5.5-.4.6-.3.7-.3.7-.2h.8v1zm0-1v1-1z" fill="#21231e"/>
        <path d="M379.7 210.8c3.3-1 4 5 3.6 6.6-.4 2-1.2 2.2-2.7 1-1-1.2-4-6.5-1-7.6z" fill="#edb92e"/>
        <path d="M383.8 217.5l-1-.2v-2.8l-.2-.3v-.7l-.2-.3v-.3l-.2-.2v-.3l-.3-.2-.2-.2-.3-.3-.3-.3h-.3l-.3-.2h-.6l-.4064D3FAA42" fill="#21231e"/>
        <path d="M380.7 214c7.7-2.5 9.2 12 8.4 15.5-1 4.5-2.8 5-6.2 2-2.6-2.4-9.7-15-2-17.5z" fill="#fff"/>
        <path d="M389.6 229.6l-1-.2v-.8l.2-.4v-2.9l-.2-.7V223l-.3-.7v-.7l-.3-.8-.2-.7-.2-.6-.2-.7-.3-.7-.2-.6-.3-.6-.053F370A2F" fill="#21231e"/>
        <path d="M464.2 137.8c-17.2-1.6-35 .2-52.3 7-14.8 6-13.4 23.2 4.6 47-1.7 3-2.6 6.8-2.7 11h4.8c-1.3-2.8 0-6.4 0C0B2E4ADB" fill="#edb92e"/>
        <path d="M412 145.4l-.3-1 1.7-.6 1.6-.6 1.7-.6 1.6-.5 1.6-.4 1.6-.5 1.6-.4 1.7-.4 1.5-.4 1.7-.4 1.6-.4 1.7-.3025F91DAD4" fill="#21231e"/>
        <path d="M380.6 142.7c3.4 0 6 2.7 6 6s-2.6 6.3-6 6.3-6.2-2.7-6.2-6.2c0-3.4 2.8-6 6.2-6z" fill="#fff"/>
        <path d="M387.2 148.8h-1c0-2-1.2-4-3-5a5.6 5.6 0 0 0-2.6-.6v-1c2.2 0 4.5 1.2 5.6 3a6.7 6.7 0 0 1 1 3.6zm-6.6 037A6A7A70" fill="#21231e"/>
        <path d="M392.6 138.7c3.4 0 6.2 2.8 6.2 6.2 0 3.3-2.8 6-6.2 6-3.4 0-6-2.7-6-6 0-3.5 2.6-6.3 6-6.3z" fill="#fff"/>
        <path d="M399.3 145h-1c0-2.2-1.3-4.3-3.2-5.2a5.6 5.6 0 0 0-2.4-.6v-1c2.3 0 4.5 1.2 5.7 3a6.7 6.7 0 0 1 1 3.7z09EF7D4AED" fill="#21231e"/>
        <path d="M394.2 144a261.2 261.2 0 0 0 2 2.4c-9.8 5.4-14 11-13 16.7.2 1 3.2 11.5 9.8 31.7 4.5 3 7.8 6 10 8.4-.0BEB099ABD" fill="#edb92e"/>
        <path d="M396.3 147l-.5-1v.7h-.2v-.2h-.2v-.2l-.2-.2h-.2v-.2l-.2-.2v-.2h-.2v-.2h-.2v-.2l-.2-.2-.2-.2v-.2h-.2l.078EAF5A8C" fill="#21231e"/>
        <path d="M356 217l-.4 2c-2.8.5-5.3.7-7.3.3 3.4-3.3 6-4 7.6-2.4z" fill="#edb92e"/>
        <path d="M355 218.8l.4-2 1 .2-.3 2-.3.4-.6-.6zm1 0v.5h-.3l.4-.4zm-8 .2l.7.7-.3-1 .2.2h4.1l.3-.2h1l.2-.2h.7l.204B2F7EA06" fill="#21231e"/>
        <path d="M355.6 212.3c1.8.4 2 .7 2.7 1 1 0 2.4 0 3.3-1 4-2.2 4 2 2.5 5-1 2.4-.5 5 .6 7 1.2 2.2 1 3.2 0 4l-1.609534E6AC5" fill="#edb92e"/>
        <path d="M358.4 212.7v1h-.7v-.2h-.4l-.2-.2h-.4l-.2-.2h-.8l-.3-.2.2-1h.4l.2.2h.4l.2.2h.4v.2h.8v.2h.4zm3-.7l.5 1v-.2l-.2.2h-.3v.2h-.2l-.2.2h-.2l-.2.2h-2.1v-1h2.2l.2-.2h.2v-.2h.2l.2-.2zm0 0zm3 5.6l-.8-.4v-.3l.3-.4v-.5l.2-.2v-.6l.2-.3v-2.2h-.2v-.2h-.2v-.2h-1.2l-.3.2-.3.2-.3.2-.6-1 .4-.2.3-.2h.5l.3-.2h1.8l.2.2.2.2v.2l.2.3v.4l.2.3v2.4l-.2.3v.3l-.2.4v.3l-.2.3v.3l-.3.3zm.6 6.3l-1 .4v-.4l-.2-.2v-.4l-.2-.2v-.2l-.2-.2v-.5l-.2-.2v-.8l-.2-.2v-2.3l.2-.2v-.3l.2-.3v-.3l.2-.2 1 .4-.2.2v.4l-.2.2v.8l-.2.2v2l.2.2v.5l.2.2v.4h.2v.2l.2.2v.4h.2zm0 4.6l-.6-1h.2v-.2h.2v-1.6l-.2-.3v-.3l-.2-.2v-.2l-.2-.2v-.2l.8-.5v.2l.2.2v.2l.2.2v.2l.2.2v.2l.2.3v1.7l-.2.2v.2h-.2v.2h-.2v.2l-.2.2zm0 0zm-1.6 1l-.8-.7v-.2h.2l.2-.2h.2v-.2h.4v-.2h.2v-.2h.4v-.2h.2l.6.8h-.2v.2h-.4v.2h-.2l-.2.2h-.2v.2h-.2l-.2.2zm-.8-.7v-.2zm-1.8 0l.4-.8.3.4v.5h.2v.2h.4v-.2h.2v-.2h.2l.8.6-.2.2-.2.2-.3.2h-.2v.2h-1.1l-.2-.2v-.2l-.2-.2v-.4h-.2v-.7l.2.4zm.4-.8h.3v.4l-.3-.4zm-7-8l1-.3.2.2v.3l.2.3v.4l.2.3v.3l.3.3.2.4v.3l.2.3.2.3v.3l.3.3v.2l.2.3v.2l.3.3.2.3.2.2v.3l.3.2.2.3.2.2.2.2.2.2h.2l.3.3.3.2.3.2.3.2h.3l.2.2-.4 1-.3-.2-.4-.2-.2-.2-.4-.2-.3-.2-.2-.3-.3-.3-.2-.2-.3-.3-.3-.2-.2-.3-.2-.3-.2-.3-.3-.4-.2-.3-.2-.3-.2-.3v-.4l-.2-.3v-.3l-.3-.3v-.3l-.3-.2v-.3l-.2-.4v-.2l-.2-.3-.2-.3v-.3l-.2-.4v-.3zm1.4-8.4v1l-.6.2-.7.2h-.6l-.5.3h-.4l-.4.3h-.3v.3l-.2.2v.2h-.2v.2l.2.3.3.2.2.3.2.2.2.3.3.2v.3l.4.3.2.3.3.5.2.3.2.4.3.4.2.4v.5l.3.4-1 .3v-.4l-.3-.5-.2-.4-.2-.3-.3-.3-.2-.3v-.2l-.4-.3-.2-.3-.3-.3v-.4l-.3-.2-.3-.3-.3-.4v-.2l-.2-.3-.2-.4v-.6l.3-.3v-.2l.3-.3h.3l.4-.3.4-.3.5-.2h.4l.7-.3.8-.2.7-.2zm0 0zm0 1v-1 1zm0-1z" fill="#21231e"/>
        <path d="M357 212.5c3.5 1.2 4-.7 6-.6-.8 5-1.7 7.7-7 5-3-1.6-6.7.7-7.4 2.3-.3.6-2-.6-2.6-2-2.6-5.8 6.7-6.4 11-4.8z" fill="#edb92e"/>
        <path d="M363.6 212l-1-.2.5.6H362v.2h-.3l-.2.2h-.2l-.3.2h-.3v.2h-.7l-.2.2h-2l-.4-.2h-.3l-.3-.2.3-1h.3l.3.2h.40CE1290AB6" fill="#21231e"/>
        <path d="M458.8 124.5c3.4 0 6.2 2.7 6.2 6 0 3.5-2.8 6.3-6.2 6.3s-6-2.8-6-6.2c0-3.4 2.7-6 6-6z" fill="#fff"/>
        <path d="M465.5 130.6h-1c0-2-1.3-4.2-3.3-5a5.5 5.5 0 0 0-2.4-.6v-1c2.3 0 4.5 1.2 5.7 3a6.7 6.7 0 0 1 1 3.6zm-0018192A78" fill="#21231e"/>
        <path d="M446.3 124.5c3.4 0 6 2.7 6 6 0 3.5-2.6 6.3-6 6.3s-6-2.8-6-6.2c0-3.4 2.6-6 6-6z" fill="#fff"/>
        <path d="M453 130.6h-1c0-2-1.3-4-3.2-5a5.5 5.5 0 0 0-2.5-.6v-1c2.3 0 4.5 1.2 5.6 3a6.7 6.7 0 0 1 1 3.6zm-6.7 04AC0B9A27" fill="#21231e"/>
        <path d="M433.8 125.5c3.4 0 6 2.7 6 6 0 3.5-2.6 6.3-6 6.3s-6-2.8-6-6.2 2.6-6 6-6z" fill="#fff"/>
        <path d="M440.4 131.6h-1c0-2-1.2-4-3-5a5.5 5.5 0 0 0-2.6-.6v-1c2.2 0 4.4 1.2 5.6 3a6.7 6.7 0 0 1 1 3.6zm-6.6 0C623C4AE8" fill="#21231e"/>
        <path d="M422.3 127.7c3.3 0 6 2.8 6 6.2 0 3.3-2.7 6-6 6s-6.2-2.7-6.2-6 3-6.3 6.3-6.3z" fill="#fff"/>
        <path d="M429 134h-1c0-2.2-1.4-4.3-3.3-5.2a5.5 5.5 0 0 0-2.4-.6v-1c2.2 0 4.4 1.2 5.6 3.2a6.7 6.7 0 0 1 1 3.5z0EA6CE1A62" fill="#21231e"/>
        <path d="M346.3 159.4c3.4 0 6 2.8 6 6.2 0 3.4-2.6 6.2-6 6.2s-6-2.8-6-6.2c0-3.4 2.6-6.2 6-6.2z" fill="#fff"/>
        <path d="M353 165.6h-1c0-2-1.3-4-3.2-5a5.6 5.6 0 0 0-2.5-.7v-1c2.2 0 4.5 1 5.6 3a6.7 6.7 0 0 1 1 3.6zm-6.7 6.0423B4AACE" fill="#21231e"/>
        <path d="M356.8 152.8c3.4 0 6.2 2.7 6.2 6 0 3.6-2.8 6.3-6.2 6.3-3.4 0-6-2.6-6-6 0-3.5 2.6-6.2 6-6.2z" fill="#fff"/>
        <path d="M363.5 159h-1c0-2.2-1.3-4.2-3-5a5.6 5.6 0 0 0-2.7-.7v-1c2.3 0 4.5 1.2 5.7 3a6.7 6.7 0 0 1 1 3.6zm-6.0A6849FAC9" fill="#21231e"/>
        <path d="M368.8 147c3.4 0 6 3 6 6.3 0 3.4-2.6 6.2-6 6.2s-6-2.8-6-6.2c0-3.4 2.6-6.2 6-6.2z" fill="#fff"/>
        <path d="M375.4 153.3h-1c0-2-1.2-4.2-3-5a5.6 5.6 0 0 0-2.6-.7v-1c2.2 0 4.4 1.2 5.6 3a6.7 6.7 0 0 1 1 3.7zm-6.0768B7BA6C" fill="#21231e"/>
        <path d="M338.2 169.5c3.4 0 6 2.8 6 6.2 0 3.4-2.6 6.2-6 6.2s-6.2-3-6.2-6.3 2.8-6.2 6.2-6.2z" fill="#fff"/>
        <path d="M344.8 175.7h-1c0-2-1.3-4.2-3.2-5a5.6 5.6 0 0 0-2.4-.7v-1c2.2 0 4.4 1.2 5.6 3a6.7 6.7 0 0 1 1 3.7zm-043A23EA8C" fill="#21231e"/>
        <path fill="#edb92e" d="M454.2 276.3l-22 12.8-23.4-10 22-12.8z"/>
        <path d="M431 266.7l-22 12.8-.4-1 22-12.7h.5v1zm-.4-1h.5-.4zm23.5 11l-23.3-10 .4-1 23.4 10v1h-.3zm.4-1l1 .5-10C35966AFD" fill="#21231e"/>
        <path d="M431 270.6c5.8-.3 10.5 2.5 10.8 6.3.2 3.7-4.2 7-9.8 7.4-5.7.3-10.4-2.5-10.7-6.3-.2-3.6 4.2-7 9.8-7.4z" fill="#c6363c"/>
        <path d="M442.3 277h-1v-.7l-.2-.3v-.6l-.3-.3v-.2l-.3-.2-.2-.3-.2-.3-.3-.2-.3-.3-.2-.2-.3-.2h-.5l-.3-.3-.3-.2-08E3B8CA38" fill="#21231e"/>
        <path d="M382.4 270l23.8 9-19.7 13c-5-1.6-9-19-4-22z" fill="#edb92e"/>
        <path d="M406 279.4l-23.8-9 .4-1 23.7 9v1h-.3zm.3-1l1 .4-1 .5v-1zm-20 13.3l19.6-13.2.4.8-19.6 13.3h-.4v-1zm.506E50CDA05" fill="#21231e"/>
        <path d="M382.8 274.3c5.7-.6 10.5 2 11 5.8.3 3.8-4 7.4-9.6 8-3.6.3-6-3-6.3-6.3-.5-3.4 1-7 4.8-7.4z" fill="#0c4076"/>
        <path d="M394.2 280h-1v-.5l-.2-.3v-.3l-.2-.4-.2-.3-.2-.2-.2-.2-.2-.3-.2-.2-.3-.3-.2-.2-.3-.2-.3-.2-.4-.2-.3-.0596883A22" fill="#21231e"/>
        <path d="M457.5 280.4c1.7 0 3.2 1.5 3.2 3.2 0 1.8-1.5 3.3-3.2 3.3-1.8 0-3.2-1.6-3.2-3.4 0-1.7 1.4-3.2 3.2-3.2z" fill="#fff"/>
        <path d="M461.2 283.6h-1v-.6l-.2-.2v-.2l-.2-.3v-.2h-.2v-.2h-.2v-.2h-.2l-.2-.2-.3-.2h-.2l-.2-.2h-.7v-1h1l.3.2.0514B4FA47" fill="#21231e"/>
        <path d="M408.7 283c1.8 0 3.2 1.6 3.2 3.4 0 1.7-1.5 3.2-3.3 3.2-1.8 0-3.2-1.5-3.2-3.2 0-1.8 1.4-3.3 3.2-3.3z" fill="#fff"/>
        <path d="M412.4 286.4h-1v-.9l-.2-.2v-.2l-.2-.2v-.2l-.2-.2-.2-.2h-.2v-.2h-.2v-.2h-.4l-.2-.2h-.8v-1.2h.7v.2h.7v0BA4887A8C" fill="#21231e"/>
        <path d="M407 268.3c1.8 0 3.2 1.4 3.2 3.2 0 1.8-1.4 3.2-3.2 3.2-1.8 0-3.2-1.4-3.2-3.2 0-1.8 1.4-3.2 3.2-3.2z" fill="#fff"/>
        <path d="M410.7 271.5h-1v-.7l-.2-.2v-.3l-.2-.2h-.2v-.4h-.2v-.2h-.2l-.2-.2h-.2l-.2-.2h-.5v-.2h-.4v-1h.8v.2h.3l0AF34E1A7F" fill="#21231e"/>
        <path d="M457.3 266.2c1.8 0 3.2 1.4 3.2 3.2 0 1.8-1.4 3.2-3.2 3.2-1.7 0-3.2-1.4-3.2-3.2 0-1.8 1.6-3.2 3.3-3.2z" fill="#fff"/>
        <path d="M461 269.4h-1v-.8h-.2v-.3l-.2-.2v-.2h-.2v-.2h-.2v-.2l-.2-.2h-.2l-.2-.2h-.2l-.3-.2h-.7v-1h1.1l.2.2h.301F4D95A1F" fill="#21231e"/>
        <path d="M371 237.4c2.3-.8 6 4.6 7 4.5 1.2-3-1.2-10.5-5.5-16.3-3-1-3.2-3-3.8-7.3-.2-1.3-2.7-.4-2.7 2 0 2.3-.3 3.6.3 5.6.2.8 0 1.6-.8 2.3 4.5 1.8 5.6 4 5.4 9z" fill="#edb92e"/>
        <path d="M377.6 241.8l1 .3-.5.4h-.4l-.3-.2-.2-.2-.3-.3-.2-.2-.2-.2-.2-.2-.3-.3-.3-.2-.2-.2-.2-.3-.3-.2-.2-.2-099A165A7F" fill="#21231e"/>
        <path d="M368.8 218.5c-.4 1-.6 1.8-.7 3.4 0 1 .5 2 1.2 3 .8 1 1.8 2 3 2.6.8.5 1.6 1.7 2.3 3 .7 1.4 1.2 3 1.2 0F33EF7A85" fill="#edb92e"/>
        <path d="M368.6 222l-1-.2v-1.2l.2-.2v-1h.2v-.7h.2v-.4l1 .3v.4h-.2v1l-.2.2v1.5l-.2.3zm1 2.8l-.8.6v-.2h-.2v-.2l-.2-.2v-.2h-.2v-.4h-.2v-.5l-.2-.2v-.7l-.2-.2v-.7h1v1.1h.2v.7h.2v.4h.2v.4h.2v.2h.2v.2zm3 2.4l-.6 1v-.2h-.4v-.2h-.2v-.2h-.2l-.2-.2h-.2v-.2h-.3v-.2h-.2l-.2-.2v-.2l-.2-.2h-.2v-.2h-.2v-.2h-.2v-.2l-.2-.2-.2-.2.8-.6.2.2.2.2v.2h.2l.2.2v.2h.2l.2.2.2.2h.2v.2h.2v.2h.3l.2.2.2.2h.2v.2zm2.4 3.2l-1 .4v-.2l-.2-.2v-.2l-.2-.2v-.2h-.2v-.2l-.2-.2v-.2h-.2v-.2l-.2-.2-.2-.2v-.2h-.2l-.2-.2h-.2l.5-1h.2v.2h.2v.2h.2v.2l.2.2.2.2v.2h.2v.2h.2v.2l.2.2v.2l.2.2v.2h.2v.3h.2v.3h.2zm1.2 4.2h-1v-.8l-.2-.2v-.8h-.2v-.5h-.2v-.4h-.2v-.5h-.2v-.2l-.2-.2 1-.4v.4h.2v.4h.2v.5l.2.2v.3h.2v.6h.2v1h.2v.7zm-1 0zm3 6.8l-.3 1h-.3l-.2-.2-.3-.3v-.2l-.3-.2h-.2l-.2-.3v-.2h-.2v-.3l-.2-.2v-.3l-.2-.2v-.3l-.2-.2v-.5l-.2-.3v-.8l-.2-.3V236l-.2-.3v-1.5h1v2.1l.2.3v1.4l.2.2v.8l.2.2v.2l.2.2v.4l.2.2v.2l.2.2.2.2v.2h.2v.2h.2l.2.2zm1.7.8l1-.3-.5.5h-.4v.2h-1.4l-.2-.2h-.4l.3-1h.7v.2h1.2v-.2l-.3.7zm1-.3v.4h-.5l.4-.5zm-1.7-2l.8-.7h.2v.4h.2v.4h.2v.8l.2.2v1l-1 .4V241l-.2-.2v-.8h-.2v-.2zm-1.5-4h1v.8h.2v.8l.2.2v.2l.2.2v.2h.2v.5h.2v.2h.2v.2l-.7.7v-.2l-.2-.2v-.4h-.2v-.5h-.2v-.2l-.2-.3v-.2l-.2-.2v-.2l-.2-.3v-.4l-.2-.2v-.5zm1 0zm-1.2-3.4l1 .2v3l.2.2-1 .2v-.8l-.2-.2v-2.6zm1-2.5h1v.7h-.2v.6l-.2.2v.2l-.2.2v.2h-.2v.6h-.2v.2l-1-.2v-.4h.2v-.4l.2-.2v-.2l.2-.2v-.2l.2-.2v-.9zm-4-5.5v-1h1.1l.3.2h.2l.2.2h.3l.2.2.2.2v.2l.3.2v.2l.3.2.2.3v.2l.3.3.2.2.2.3v.2l.2.3v.2l.2.3v.3l.2.2v.3l.2.2v.5l.2.3v.8h-1v-1l-.2-.2v-.4l-.2-.3-.2-.4v-.2l-.2-.2v-.3l-.3-.3v-.2l-.2-.2v-.3l-.2-.2-.3-.3-.2-.2-.3-.3-.3-.2-.3-.2h-.8zm-5-3.7l1-.4v.3l.2.3v.2l.2.2v.2l.2.2v.2l.2.2.2.2v.2h.2v.2h.2v.2h.4v.2h.7v.2h1.7v1H373l-.3-.2h-.4v-.2h-.3v-.2h-.3v-.3h-.3v-.2l-.2-.2-.2-.3-.2-.2v-.2l-.2-.2-.2-.4-.2-.2v-.3l-.2-.2zm-.4-2l-1-.5h1.2v.4h.2v.2h.2v.2h.2v.4h.2v.2l.2.2v.2l.2.2-1 .4v-.2l-.2-.2v-.2l-.2-.2v-.2h-.2v-.2l-.2-.2v-.2h-.2v-.2h-.2v-.2h.8zm-1-.5l.5-1 .5 1h-1zm.6.2l.4.2-.4-.2zm-.5-.2l.4-1 .5 1h-1z" fill="#21231e"/>
        <path d="M360 227l2-1c1.3-.5 2.6-.6 4-.2 5.5 1.7 8 11.6 1.8 14-1.2.2-2.3-1-3.4-3.3-1.3-3.2-2.6-5.4-4-6.8-1-1-1-2-.4-2.6z" fill="#edb92e"/>
        <path d="M362 225.5l.3 1h-.4v.2h-.4v.2h-.8v.2h-.2l-.2.2-.7-.7.2-.2v-.2h.4v-.2h.8v-.2h.4v-.2h.4zm4-.2l-.2 1h-.0207DD5AFF" fill="#21231e"/>
        <path d="M362.8 227.7c5.4-2 9.4 8.3 4.3 10.2-2.6 1-2.8-2.4-3.4-4.3-.7-2.5-6-4-.8-6z" fill="#edb92e"/>
        <path d="M367.3 238.4l-.4-1h.3l.3-.3.3-.2.2-.3.2-.3.2-.3v-.5l.2-.4v-2.7l-.2-.4-.2-.5-.2-.4-.2-.4-.3-.4-.3-.4-023FD98A06" fill="#21231e"/>
        <path d="M363.4 229.3c2.6-1 6.2 5 3 6.5-2.3 1-4-.3-4.8-2-.7-2 0-3.8 1.7-4.5z" fill="#0c4076"/>
        <path d="M366.5 236.3l-.4-1h.3l.2-.2h.2v-.2l.2-.2v-2l-.2-.3v-.3h-.2v-.4l-.3-.3-.2-.2-.3-.4-.2-.2-.2-.2h-.2v-.0947782A6A" fill="#21231e"/>
        <path d="M400 179.7c3.6 0 6.4 2.8 6.4 6.4 0 3.6-2.8 6.5-6.3 6.5s-6.3-3-6.3-6.4 3-6.3 6.4-6.3z" fill="#fff"/>
        <path d="M407 186h-1c0-2-1.4-4.3-3.3-5.2a5.8 5.8 0 0 0-2.6-.6v-1c2.4 0 4.7 1.2 6 3.2a7 7 0 0 1 1 3.7zm-7 7v-10C10739A83" fill="#21231e"/>
        <path d="M395.4 169c3.5 0 6.4 3 6.4 6.4 0 3.6-3 6.4-6.4 6.4s-6.3-2.8-6.3-6.4c0-3.5 3-6.4 6.4-6.4z" fill="#fff"/>
        <path d="M402.3 175.4h-1c0-2.2-1.3-4.3-3.2-5.3a5.8 5.8 0 0 0-2.6-.5v-1c2.4 0 4.6 1.3 6 3.2a7 7 0 0 1 1 3.7zm-026007AA8E" fill="#21231e"/>
        <path d="M410.7 131.5c3.4 0 6 2.7 6 6s-2.6 6.3-6 6.3-6.2-2.7-6.2-6.2c0-3.4 2.8-6 6.2-6z" fill="#fff"/>
        <path d="M417.3 137.7h-1c0-2.2-1.2-4.2-3-5a5.6 5.6 0 0 0-2.6-.7v-1c2.2 0 4.4 1.2 5.6 3a6.7 6.7 0 0 1 1 3.7zm-0D54C8FAE7" fill="#21231e"/>
        <path d="M400.4 136.2c3.5 0 6.3 3 6.3 6.4 0 3.5-2.8 6.4-6.3 6.4s-6.4-3-6.4-6.4c0-3.5 2.8-6.4 6.4-6.4z" fill="#fff"/>
        <path d="M407.2 142.6h-1c0-2.2-1.3-4.3-3.3-5.3a5.8 5.8 0 0 0-2.6-.6v-1c2.3 0 4.6 1.2 5.8 3.2a7 7 0 0 1 1 3.6z06CF820AF0" fill="#21231e"/>
        <path d="M392.8 145.3c3.5 0 6.3 2.8 6.3 6.4 0 3.5-2.7 6.4-6.2 6.4s-6.4-2.8-6.4-6.3c0-3.6 3-6.4 6.4-6.4z" fill="#fff"/>
        <path d="M399.6 151.7h-1c0-2.2-1.3-4.4-3.2-5.3a5.8 5.8 0 0 0-2.6-.6v-1c2.3 0 4.6 1.2 5.8 3.2a7 7 0 0 1 1 3.7z0B4392AA66" fill="#21231e"/>
        <path d="M391.5 156.7c3.6 0 6.4 2.8 6.4 6.4s-3 6.5-6.5 6.5-6.3-3-6.3-6.4 2.8-6.3 6.3-6.3z" fill="#fff"/>
        <path d="M398.4 163h-1c0-2-1.3-4.2-3.2-5.2a5.8 5.8 0 0 0-2.7-.6v-1c2.4 0 4.7 1.2 6 3.2a7 7 0 0 1 1 3.7zm-7 7v0EBD943AF0" fill="#21231e"/>
        <path d="M474.4 198c-2.7-5-5.6-8.2-8.6-9.6 4.2-13.2 5.2-30.2 2.7-51-.2-3.3-1-4.6-2.2-4.6-1 0-1.7 1.6-1.8 5.2.8 11.6 1.7 21.6 1.2 30.2-.5 7.6-2.3 14-4.2 21.2-.3 1 .4 1.7 3.8 3.7 2.6 1.5 4.2 3.3 4.7 5 .7-.2 1.2 0 1.5 0 2.5.8 3.6.6 3 0z" fill="#edb92e"/>
        <path d="M465.3 188.2l1 .3-.3-.6h.3l.3.2.3.2.2.2h.3l.3.3h.3l.4.4.2.2.3.2.2.3.3.3.3.3.3.3.3.2.3.3.3.3.2.3.2.5.0803E94AEA" fill="#21231e"/>
        <path d="M458.4 214.6c1.6-1 2-.8 2.4-1.4.6-.8.6-2.2.4-3.5-.8-5.3 2.4-4.6 6-2.2 1.7 1 3.5 4 5 5.3s2.8 1.5 3.2 06A2B0FA8A" fill="#edb92e"/>
        <path d="M460.4 213l.8.5-.2.2-.2.2h-.4v.2h-.4l-.2.2h-.2l-.2.2h-.2v.2h-.5v.2l-.7-1h.6v-.2h.2l.2-.2h.2l.2-.2h.40AA0D60AC0" fill="#21231e"/>
        <path d="M475.5 220.2v1c-4 .4-7 2-9.7 4.3 1.8-2.7 5.7-4.7 9.7-5.3zm0-1.6v-.8c-4-.5-7-2-9.7-4.4 1.8 2.7 5.7 4.6 9.7 5.2z" fill="#21231e"/>
        <path d="M461.2 207.3c1 .4 2.3 1 3.4 2 1.6 1.5.6 4-1.5 6.6-.6.7-1 2-1 3.5 0 1.3.5 2.7 1 3.5 2.2 2.5 3.2 5 1.609033E8A6E" fill="#edb92e"/>
        <path d="M465 209l-.8.6-.2-.2-.2-.2h-.2v-.2h-.2l-.2-.2h-.2v-.2h-.4v-.2h-.5v-.2h-.2l-.2-.2h-.2l-.2-.2h-.2l.4-10A57E2EA40" fill="#21231e"/>
        <path d="M410.7 200c1.4 1.6 1.2 2 2 2.5 1 .6 2 .4 3.3 0 5-2 5 2 3.5 6.4-.7 2-2.8 4.3-3.7 6.2-1 1.7-.7 3-1 3.505A3328AD7" fill="#edb92e"/>
        <path d="M413 202l-.6 1-.2-.2-.2-.2-.2-.2v-.2h-.2v-.2l-.2-.2v-.2l-.2-.2v-.2h-.2v-.2l-.2-.2-.2-.3-.3-.3.8-.6.30D48150A2B" fill="#21231e"/>
        <path d="M410 219.4h-.7c-1.4-3.8-3.5-7-6.3-9.5 2.8 1.4 5.5 5.3 7 9.4zm1.4-.2c.3 0 .5 0 .8-.2-.5-4 0-7.5 1.5-11-2 2.5-2.8 7-2.3 11.2z" fill="#21231e"/>
        <path d="M418.3 202c-.2 1.4-.4 3-1 4.3-1 2-3.8 1.3-6.6-.7-.8-.6-2.2-.8-3.4-.6-1.3.3-2.4.8-3 1.7-1.5 2.6-3.4 4001F5FBA53" fill="#edb92e"/>
        <path d="M417.7 206.5l-1-.4.2-.2v-.5l.2-.2v-.4l.2-.2v-.9l.2-.2v-1.2h.2v-.4h1v1.1l-.2.3v1h-.2v.7h-.2v.7h-.2v.3042A277A8E" fill="#21231e"/>
        <path d="M391.8 221.2c.7-1 1-.8 1.2-1.3.2-1-.3-2-1-3.2-2.2-4.6.3-4.2 3.6-2.4 1 .4 2 1.2 3 2 1 1 1.8 1.8 2.7 20C25598A63" fill="#edb92e"/>
        <path d="M392.5 219.7l1 .3v.2l-.2.2v.2h-.2v.2h-.2v.2h-.2l-.2.2v.2h-.2l-.8-.5v-.2l.2-.2.2-.2.2-.2h.2v-.2h.2v-.0E3E218AF1" fill="#21231e"/>
        <path d="M406.5 226l.2 1c-1.4.4-2.6 1-3.6 1.8s-1.7 2-2.3 3.2c.2-1.4 1-2.7 2-3.7s2.3-1.8 3.8-2.2zm-.6-1.6l-.5-094E5A8A51" fill="#21231e"/>
        <path d="M391.4 213.8c1 .4 1.6.8 2.8 1.8.8.7 1.3 1.7 1.5 3 0 1 0 2.5-.3 3.8-.2.8 0 2.2.5 3.6.4 1.4 1 2.8 2 3.03FFA1BAFE" fill="#edb92e"/>
        <path d="M394.5 215.2l-.7.8-.2-.2-.2-.2-.2-.2h-.2v-.2h-.2v-.2h-.4v-.2h-.2l-.2-.2h-.2l-.2-.2h-.4l.3-1h.4v.2h.4v.2h.4v.2h.4v.2h.2v.2h.2l.2.2.2.2h.2v.2h.2v.2zm1.7 3.2l-1 .2v-.6h-.2v-.7h-.2v-.4l-.2-.2v-.2h-.2v-.2h-.2v-.2h-.2v-.2h-.2l.7-.8h.2v.2l.2.2v.2h.2v.2l.2.2v.2h.2v.4l.2.2v.4h.2v.8h.2v.2zm-.3 4h-1V221h.2v-2.4l1-.2v3.3l-.2.2v.5zm-1 0v-.3.3zm1.4 3.5l-1 .2v-.5l-.2-.3v-.4l-.2-.3v-.8h-.2v-1.4h1v1.9h.2v.7h.2v.7h.2v.3zm1.8 3.2l-.7.7v-.2l-.2-.2h-.2v-.4h-.2v-.2l-.2-.3v-.2h-.2v-.2l-.2-.3v-.2h-.2v-.5l-.2-.2-.2-.3v-.4h-.2l1-.4v.2l.2.2v.2l.2.3.2.2v.3l.2.2v.2h.2v.2h.2v.4h.2v.2h.2v.2h.2v.2zm3.6 7.2l-1-.4.2-.2v-1.3l-.2-.2v-.4l-.2-.2v-.2l-.2-.2-.2-.2v-.2l-.2-.2-.2-.2v-.2l-.3-.2-.2-.3v-.3l-.3-.2-.2-.2-.2-.3-.2-.2-.2-.2-.2-.2-.3-.3h-.2l.7-.8.3.2.2.2.2.3.3.4.3.2.2.2v.3l.3.3.3.2.2.3v.2l.3.2.2.3v.2l.2.2.2.2v.2l.2.2v.2l.2.3v.7l.2.2v1.2l-.2.2zm-2.4 1.8l1-.4-.8-.2.2-.2h.2v-.2h.2v-.2h.2v-.2l.2-.2v-.2l.2-.2v-.2l1 .4v.2l-.2.2v.2l-.2.2v.2h-.2v.2h-.2v.2h-.2v.2h-.2v.2h-.2l-.2.2-.8-.2zm.8.2l-.5.3-.3-.5.8.2zm-2-2.5l1-.3v.4h.2v.4h.2v.2h.2v.2l.2.2v.2h.2v.4l-.8.4v-.2h-.2v-.2l-.2-.2v-.2h-.2v-.2h-.2v-.4l-.2-.2v-.2l-.2-.2v-.3zm-1.5-3.3l.8-.7v.2h.2v.2l.2.2v.2l.2.2v.2h.2v.5h.2v.4l.2.2v.4l.2.3v.7l-.8.2v-.4h-.2v-.5l-.2-.2v-.5h-.2v-.2l-.2-.2v-.2l-.2-.2v-.2h-.2v-.2l-.2-.2zm0 0zm-2-2.2l.4-1 .3.2.2.2h.2l.2.2.2.2.2.2v.2h.2v.2h.2v.2l.2.2.2.2v.2h.2v.2l-.7.7-.2-.2v-.2h-.2v-.2h-.2v-.4h-.2v-.2h-.2v-.2h-.2v-.2h-.2v-.2h-.4v-.2h-.2zm-2.7-1.3l.8-.6h.2v.2h.2v.2h.9l.2.2h.4l.2.2h.2l.2.2-.4 1v-.2h-.4l-.2-.2h-.9v-.2h-.4l-.2-.2h-.2l-.2-.2-.2-.2-.2-.2zm-1.2-7.8l.7.7v.3h-.2v.3h-.2v2.2l.2.3v.5l.2.2v.2l.2.3v.2l.2.2v.2l.2.2v.2l.3.2v.2h.2v.3l.2.2-.7.7-.2-.3-.2-.3v-.2l-.2-.2v-.2h-.3v-.3l-.2-.3-.2-.4v-.2l-.2-.3v-.2l-.2-.2v-.6l-.2-.3v-2.1l.2-.3v-.2h.2l.2-.3.2-.3zm.7-5l1-.5v.5l.2.2v.3l.2.2v.7h.2v1.7l-.2.2v.2l-.2.2v.2h-.2v.3h-.2v.2l-.2.2-.3.3h-.2l-.2.3-.8-.6.2-.3h.2l.2-.3.2-.3.2-.2v-.3l.2-.2v-.2l.2-.3v-.7l-.2-.2v-.5l-.2-.2-.2-.4v-.2zm0-3v1l.4-.7v1.4h.2v1.1h.2l-1 .6v-.9h-.2v-.7l-.2-.2v-1l.4-.7zm-.6.5l-.3-.7h.7l-.5.6zm.4.3v-1 1zm0-1z" fill="#21231e"/>
        <path d="M434 226.2c-1.2 1-1.5 1-2 1.6-.3.8 0 2 .3 3.3 1.5 5-1.4 4.4-5 2.6-1.6-1-3.6-3.2-5.2-4.4-1.5-1-2.6-1-016CEE3A0D" fill="#edb92e"/>
        <path d="M432.6 228l-1-.5h.2v-.4h.4v-.2h.4v-.2h.2l.2-.2h.2v-.2h.2v-.2h.2v-.2l.8.8-.2.2h-.2v.2h-.2l-.2.2-.2.2h0B22E3CABF" fill="#21231e"/>
        <path d="M418 222.6l-.2-1c3.2-.8 5.7-2.6 7.8-5.3-1.2 3-4.3 5.3-7.7 6.3zm.2 1.5c0 .4.2.7.3 1 3.4 0 6.4 1 9.2 3-2-2.3-5.8-3.8-9.5-4z" fill="#21231e"/>
        <path d="M432.7 233.3c-1-.3-2.3-.7-3.4-1.5-1.6-1.3-1.2-3.8.3-6.4.4-.8.5-2.2.2-3.5-.2-1.5-.7-2.8-1.4-3.5-2.4-209AC8FFA57" fill="#edb92e"/>
        <path d="M429 232.2l.6-.8h.2v.2h.2l.2.2h.2l.2.2h.2l.2.2h.4v.2h.4l.2.2h.4l.2.2h.2l-.3 1h-.4v-.2h-.4l-.2-.2h-.3071BEA7A39" fill="#21231e"/>
        <path d="M410.6 216.4c4 0 8 3.4 8.4 7.7.6 4.4-2.2 7.7-6 7.8-4 0-7.5-3-8.3-7.3-.7-4 1.8-8 6-8z" fill="#edb92e"/>
        <path d="M419.5 224l-1 .2v-.8l-.2-.4v-.3l-.2-.4v-.3l-.2-.4-.2-.3-.2-.3-.2-.4-.2-.3-.2-.3-.3-.2-.2-.3-.3-.3-.20BA53FFA45" fill="#21231e"/>
        <path d="M411 218.6c2.8-.2 5.7 2.4 6 5.5.5 3.3-1.5 5.8-4.4 5.8-2.8 0-5.5-2.3-6-5.3s1.3-5.8 4.3-6z" fill="#edb92e"/>
        <path d="M417.6 224l-1 .2v-.6l-.2-.3v-.2l-.2-.3v-.4l-.2-.2v-.2l-.2-.3-.2-.3v-.2l-.3-.2-.2-.2-.2-.3-.2-.2-.2-.0086189AC3" fill="#21231e"/>
        <path d="M411.2 220.7c2 0 3.6 1.5 4 3.5.2 2-1 3.6-3 3.6-1.7 0-3.4-1.4-3.7-3.4-.3-2 1-3.6 2.7-3.7z" fill="#0c4076"/>
        <path d="M415.6 224l-1 .3v-.4l-.2-.2v-.4h-.2v-.3l-.2-.2-.2-.3-.2-.2-.2-.2h-.2l-.2-.2-.2-.2h-.2l-.2-.2h-.6v-.200C8A2AA77" fill="#21231e"/>
      </g>
      <path d="M482 183c4 0 7 3 7 7s-3 6.7-7 6.7c-3.6 0-6.7-3-6.7-6.8 0-4 3-7 6.8-7z" fill="#fff"/>
      <path d="M489.5 189.8h-1c0-2.3-1.4-4.6-3.5-5.6a6.3 6.3 0 0 0-3-.7v-1c2.6 0 5 1.3 6.4 3.5a7.4 7.4 0 0 1 1 3.8z0914FD7A10" fill="#21231e"/>
      <path d="M482 171c4 0 7 3 7 7 0 3.7-3 6.8-7 6.8-3.6 0-6.7-3-6.7-7 0-3.7 3-6.7 6.8-6.7z" fill="#fff"/>
      <path d="M489.5 178h-1c0-2.4-1.4-4.7-3.6-5.8a6.3 6.3 0 0 0-3-.6v-1c2.6 0 5 1.3 6.4 3.4a7.4 7.4 0 0 1 1 4zm-7.0F0BBC9AB4" fill="#21231e"/>
      <path d="M482 159.6c4 0 7 3 7 7 0 3.7-3 6.8-7 6.8-3.6 0-6.7-3-6.7-7 0-3.7 3-6.8 6.8-6.8z" fill="#fff"/>
      <path d="M489.5 166.5h-1c0-2.4-1.4-4.7-3.6-5.7a6.3 6.3 0 0 0-3-.7v-1c2.6 0 5 1.5 6.4 3.6a7.4 7.4 0 0 1 1 4zM40B063E3AB8" fill="#21231e"/>
      <path d="M482 127c4 0 7 3.2 7 7s-3 6.8-7 6.8c-3.6 0-6.7-3-6.7-6.8s3-7 6.8-7z" fill="#fff"/>
      <path d="M489.5 134h-1c0-2.4-1.4-4.7-3.6-5.8a6.3 6.3 0 0 0-3-.6v-1c2.6 0 5 1.3 6.4 3.4a7.4 7.4 0 0 1 1 4zm-7.07977C4A9E" fill="#21231e"/>
      <path d="M482 137.2c4 0 7 3 7 6.8s-3 7-7 7c-3.6 0-6.7-3.2-6.7-7s3-6.8 6.8-6.8z" fill="#fff"/>
      <path d="M489.5 144h-1c0-2.3-1.4-4.6-3.5-5.7a6.3 6.3 0 0 0-3-.6v-1c2.7 0 5.2 1.4 6.5 3.6a7.4 7.4 0 0 1 1 3.7z019311AA8F" fill="#21231e"/>
      <path d="M482 148.2c4 0 7 3 7 6.8s-3 7-7 7c-3.6 0-6.7-3.2-6.7-7s3-6.8 6.8-6.8z" fill="#fff"/>
      <path d="M489.5 155h-1c0-2.3-1.4-4.6-3.6-5.7a6.3 6.3 0 0 0-3-.6v-1c2.6 0 5 1.3 6.4 3.4a7.4 7.4 0 0 1 1 4zm-7.0AF8834AA7" fill="#21231e"/>
      <path d="M487 195.5c1 1.6.7 2 1.4 2.4.8.6 2 .6 3.4.4 5.3-1 4.5 2.3 2.2 6-1 1.7-3.8 3.5-5.2 5-1.4 1.5-1.6 2.8-09F4C7FAE1" fill="#edb92e"/>
      <path d="M488.7 197.5l-.7.8-.2-.2h-.2v-.4h-.2v-.4h-.2v-.4l-.2-.2v-.2l-.2-.2-.2-.3v-.2l.8-.6v.2h.2v.3l.2.2v.2h02FB317A22" fill="#21231e"/>
      <path d="M481.4 212.8l-1-.2c-.4-3.7-2-7-4.3-9.6 2.8 1.8 4.8 5.7 5.4 9.8z" fill="#21231e"/>
      <path d="M494.2 198.3c-.5 1-1 2.4-2 3.5-1.5 1.6-4 .5-6.5-1.6-.8-.6-2.2-1-3.6-1-1.3 0-2.6.4-3.4 1-2.5 2-5 3.2-03E41A3A8A" fill="#edb92e"/>
      <path d="M492.6 202l-.7-.6v-.2l.2-.2.2-.2v-.2h.2v-.2l.2-.2v-.2l.2-.2v-.2l.2-.2v-.2l.2-.2v-.2l.2-.3v-.4l1 .5v.026A3A7A7F" fill="#21231e"/>
      <path d="M482 211.7c4.4 0 8 3.4 8 7.7s-3.6 7.8-8 7.8-7.6-3.5-7.6-7.8 3.5-7.8 7.7-7.8z" fill="#edb92e"/>
      <path d="M483 212.8l.8-.2c.5-3.7 2-7 4.3-9.6-2.5 1.8-4.5 5.7-5 9.8z" fill="#21231e"/>
      <use width="1350" height="900" transform="matrix(-1 0 0 1 964.286 0)" xlink:href="#b"/>
      <path d="M577 293.6c2 .3 3 1.5 3 2.8 0 1.3-1 2.6-3 3a8.7 8.7 0 0 1-1.6.2c-60.8 5.2-125.7 5.2-186.5 0a8.7 8.7 027B1FCAE9" fill="#edb92e" stroke="#21231e"/>
      <path d="M412 298.4h-.2v-.2h-.2v-1h.4v-.2.2-.2h2.3l.7-.2h3l.7-.2h3l.7-.2h3l.8-.2h3.3l.7-.2h3.8l.7-.2h.8v1.2h-0C8A1F8A2C" fill="#21231e"/>
      <path d="M482 269c5.8 0 10.4 3.2 10.4 7s-4.6 7-10.3 7-10-3.2-10-7 4.5-7 10-7z" fill="#0c4076"/>
      <path d="M493 276h-1v-.3l-.2-.3v-.5l-.2-.3v-.3l-.3-.3-.2-.4v-.3l-.3-.2-.2-.2-.2-.3-.3-.2-.3-.3-.3-.2-.3-.2-.2030D73CAEF" fill="#21231e"/>
      <path d="M482 211.7c4.4 0 8 3.4 8 7.7s-3.6 7.8-8 7.8-7.6-3.5-7.6-7.8 3.5-7.8 7.7-7.8z" fill="#edb92e"/>
      <path d="M490.4 219.4h-1v-1l-.2-.3v-.4l-.2-.3v-.4l-.2-.4v-.3l-.3-.3-.2-.3-.2-.3v-.3l-.3-.2-.2-.3-.2-.2-.3-.2-0333E27AAA" fill="#21231e"/>
      <path d="M482 213.7c3.3 0 5.8 2.6 5.8 5.7 0 3.2-2.5 5.8-5.7 5.8-3 0-5.5-2.6-5.5-5.8 0-3 2.5-5.7 5.6-5.7z" fill="#edb92e"/>
      <path d="M488.3 219.4h-1V218h-.2v-.7l-.2-.2v-.2l-.2-.3-.2-.2v-.2l-.3-.2-.2-.2-.2-.2-.2-.2h-.2l-.2-.3h-.4l-.2-069F8F3A46" fill="#21231e"/>
      <path d="M482 215.8c2 0 3.7 1.6 3.7 3.6S484 223 482 223c-1.8 0-3.4-1.6-3.4-3.6s1.6-3.6 3.5-3.6z" fill="#0c4076"/>
      <path d="M486.2 219.4h-1v-.8h-.2v-.3l-.2-.2v-.2l-.2-.2-.2-.2-.2-.3h-.2l-.3-.2h-.2l-.2-.2h-.2v-.2H482v-1h1.4v.0EAB027AA3" fill="#21231e"/>
    </g>
    <path d="M314.6 301.2v271.3c0 48.5 18.8 92.6 49.2 124.6C394 729 436 749 482 749c46.3 0 88.2-19.8 118.5-51.7 30.4-32 49.2-76 49.2-124.5V301.2h-335z" fill="#c6363c"/>
    <path d="M313.4 300v277l.2 4.6.3 4.5.3 4.6.5 4.4.5 4.5.7 4.3.8 4.4 1 4.3 1 4.2 1 4.3 1.2 4.2 1.3 4 1.4 4.2 1.4 4 1.7 4 1.6 4 1.8 4 2 3.8 1.8 3.8 2 3.7 2 3.7 2.2 3.6 2.2 3.6 2.4 3.5 2.4 3.6 2.4 3.4 2.6 3.3 2.6 3.2 2.7 3.2 2.8 3 3 3.2 1.6-1.7-2.8-3-2.7-3-2.6-3.3-2.5-3.2-2.7-3.3-2.4-3.3-2.5-3.4-2.2-3.5-2.3-3.5-2-3.6-2-3.6-2-3.7-2-4-1.8-3.7-1.7-3.8-1.6-4-1.7-4-1.4-4-1.5-4-1.2-4-1.2-4.2-1-4-1-4.3-.8-4.3-.8-4.3-.7-4.3-.6-4.2-.4-4.5-.4-4.4-.2-4.5-.2-4.5V302.5h332.7V577l-.2 4.5-.3 4.4-.3 4.3-.5 4.5-.6 4.3-.7 4.4-1 4.3-.8 4.3-1 4.2-1 4-1.2 4.3-1.3 4-1.3 4-1.4 4-1.6 4-1.6 4-1.7 3.8-1.7 3.8-2 4-2 3.6-2 3.6-2 3.6-2.3 3.5-2.3 3.5-2.3 3.4-2.5 3.3-2.6 3.3-2.6 3.2-2.6 3.2-2.7 3-2.8 3-3 3-2.8 3-3 2.7-3 2.6-3.3 2.6-3 2.6-3.4 2.4-3.3 2.5-3.3 2.3-3.4 2.2-3.5 2.2-3.5 2-3.5 2-3.6 2-3.7 1.7-3.7 1.8-3.8 1.7-3.8 1.5-3.8 1.4-4 1.3-3.8 1.3-4 1-4 1-4 1-4 1-4.2.6-4 .6-4.3.5-4 .4-4.3.4-4.3.2H482v2.4h4.5l4.3-.2 4.3-.3 4.4-.4 4.2-.4 4.2-.6 4.2-.8 4-.8 4.2-1 4-1 4-1.2 4-1.2 4-1.4 4-1.4 3.8-1.6 3.7-1.6 3.8-1.7 3.7-2 3.7-1.8 3.5-2 3.5-2 3.6-2.3 3.4-2.2 3.4-2.4 3.3-2.5 3.3-2.4 3.2-2.6 3.2-2.7 3-2.7 3-2.8 3-3 3-3 2.8-3 2.8-3 2.7-3.3 2.6-3.2 2.5-3.3 2.5-3.4 2.4-3.5 2.3-3.4 2.3-3.6 2-3.6 2.2-3.7 2-3.7 2-3.8 1.7-4 1.8-3.8 1.6-4 1.6-4 1.4-4 1.4-4 1.3-4.2 1.2-4.2 1-4.3 1-4.2 1-4.3.7-4.4.7-4.3.5-4.5.5-4.4.4-4.5.3-4.4V577l.2-4.5V300z" fill="#fff"/>
    <g fill="#fff" stroke="#21231e">
      <path d="M483.7 734.8c1.4-.2 4 0 5.7-1.4 2.5-2 1.5-9.8 1.3-14.8-1-25.3-2.2-68-3.5-128-2-.2-3.6 0-5 .2-1.5-.3-018310FA95"/>
      <path d="M499.6 734c-1.5 0-4 .5-6-.8-2.6-1.7-2.8-9.7-3-14.7-1.2-25.4-3.5-67.8-7.6-127.6 2-.6 3.6-.6 5-.5.3 0 0DCED3EAF4"/>
      <path d="M518.2 731.4c-1.5 0-3.8.8-6-.3-2.7-1.4-2.6-9.4-3.8-14.2-6.6-25.3-10.2-67.3-19.7-126.5 2-.7 3.6-.8 5-08847B3AD8"/>
      <path d="M537 726c-1.5.3-4 1.6-6 .7-3-1.2-3.5-9.7-5.6-14.2-11.8-25-16.3-66-31.7-124 2-.8 3.5-1 5-1.3 1.3-.6 10C002A5AB7"/>
      <path d="M446 731.4c1.6 0 4 .8 6-.3 2.8-1.4 2.7-9.4 4-14.2 6.4-25.3 10-67.3 19.6-126.5-2-.7-3.6-.8-5-1h-.3c-10AFCD2BAF9"/>
      <path d="M427.3 726c1.5.3 4 1.6 6 .7 3-1.2 3.5-9.7 5.6-14.2 11.7-25 16.2-66 31.6-124-2-.8-3.5-1-5-1.3-1.3-.6-0C16A26A67"/>
      <path d="M512 685.8c-1.5 0-3.6.6-5.6-.5-2.6-1.6-3.5-9.4-4.5-14.3-5-25-13.7-67-26.3-126 1.8-.7 3.2-.8 4.5-.8 103CA57DA4F"/>
      <path d="M496.4 687.6c-1.4-.2-3.5.3-5.4-1-2.4-1.7-2.4-9.6-2.8-14.6-2-25.3-6-68-11.6-127.6 2-.5 3.3-.4 4.6-.3 0B72945A34"/>
      <path d="M437.2 682.8c1.4 0 3.4 1 5.5 0 2.8-1.4 4.6-9 6-14 12-23.5 23-65.3 40.8-123.4-1.8-.7-3-1-4.5-1-1-.5-2001A164A66"/>
      <path d="M452.4 685.8c1.4 0 3.5.6 5.5-.5 2.5-1.6 3.4-9.4 4.4-14.3 4.8-25 13.6-67 26.2-126-1.8-.7-3.2-.8-4.5-.0A7905DA94"/>
      <path d="M468 687.6c1.3-.2 3.4.3 5.3-1 2.4-1.7 2.4-9.6 2.8-14.6 2-25.3 6-68 11.7-127.6-2-.5-3.3-.4-4.6-.3-1-.0062B98A7D"/>
      <path d="M483.5 688c1.3 0 3.5.2 5.2-1.3 2.3-2 1.4-9.8 1.2-14.8-1.2-25.4-2-68-3.3-128-2-.3-3.2-.2-4.6 0-1.2-.20F18B52A4B"/>
      <path d="M516.5 648c-1 0-2.5 1-4 0-2.3-1.5-3.7-9.2-4.8-14-9.2-23.5-17.5-65.4-31.2-123.5 1.4-.7 2.4-1 3.4-1 .800BB488A2A"/>
      <path d="M505 651c-1 0-2.7.6-4.3-.6-2-1.5-2.7-9.4-3.4-14.3-3.7-25-10.5-67-20-126 1.3-.6 2.3-.7 3.4-.7 1-.4 2-03CFB47A08"/>
      <path d="M493 652.7c-1 0-2.6.4-4-1-2-1.7-2-9.6-2.2-14.5-1.5-25.4-4.5-68-9-127.7 1.5-.4 2.6-.4 3.6-.3 1-.3 2-.0A36D12A99"/>
      <path d="M447.8 648c1 0 2.5 1 4 0 2.3-1.5 3.7-9.2 4.8-14 9.2-23.5 17.5-65.4 31-123.5-1.2-.7-2.2-1-3.2-1-1-.5-072D894A5D"/>
      <path d="M459.4 651c1 0 2.6.6 4-.6 2.2-1.5 3-9.4 3.6-14.3 3.7-25 10.5-67 20-126-1.3-.6-2.4-.7-3.4-.7-1-.4-2-.08B6786A46"/>
      <path d="M471.3 652.7c1 0 2.6.4 4-1 2-1.7 2-9.6 2.2-14.5 1.5-25.4 4.5-68 9-127.7-1.5-.4-2.6-.4-3.6-.3-1-.3-2-0898B9DA51"/>
      <path d="M483.2 653.2c1-.2 2.7 0 4-1.4 1.7-2 1-9.7 1-14.7-1-25.3-1.6-68-2.5-128-1.5-.2-2.6 0-3.6.2-.8-.2-2-.40302332A96"/>
      <path d="M475 559c-.2 4.4-.3 9-.3 14l-10.6 2.3c0 4.8 12 55.4 18 55.4 6.3 0 18.2-50.6 18.2-55.5l-10.6-2v-.2c0-5 0-9.6-.2-14-2.2 2-4.7 5.2-7.3 8-2.4-2.8-5-6-7-8z"/>
    </g>
    <g id="d">
      <path d="M412 584.5c-3 .2-7 2-18.5 12-5 10.2-10 20.5-17 29.4-2.4 1.4-4.2 2.5-6 3.2-2 .6-16.6 0-17-.5-4.4-4-110CAC1CCAC3" fill="#edb92e" stroke="#21231e"/>
      <use width="1350" height="900" transform="matrix(-1 0 0 1 801.634 0)" xlink:href="#c"/>
      <path d="M345.2 634.5c-4-2.3-6.3-2.2-8-.5-.7 1-1.8.5-1.2-1 2.7-6.3 7-7 10.7-4.2l2.8 2.7c-.6 1-3.8 2.3-4.3 3zm0FB7191A55" fill="#edb92e" stroke="#21231e"/>
      <path d="M384 621.3l1 .6h-.2v1.8h.2v.4h.2v.2h.2l.2.3.3.2v.2h.4l.2.3h.2l-.6 1h-.2l-.3-.2h-.2l-.2-.2-.2-.2-.3-.0A428C3AED" fill="#21231e"/>
      <path d="M387.3 617.6l1 .6v.4h-.2v.8l.2.2v.2l.2.2v.2l.2.2.2.3.3.2h.2l.2.2h.2l.2.2.2.2h.2l-.6 1h-.2l-.3-.2-.3-0E6C186ADF" fill="#21231e"/>
      <path d="M391 612.8l1 .6-.2.2v.6h-.2v1l.2.3v.3h.2v.4h.2l.2.3v.2h.2l.2.2.2.2.3.3.3.2h.2l.2.2-.6 1-.3-.2-.2-.2-086FBFCA50" fill="#21231e"/>
      <path d="M394.8 607.7l1 .5v.5l-.2.3v1.7l.2.2v.3l.2.2v.2l.2.2.3.3v.2l.3.2.2.2h.2l.2.3.2.2.3.2v.2l-.6.8-.3-.2v-0C6E2DCA9F" fill="#21231e"/>
      <path d="M399 602.6l1.2.6v.2l-.2.2-.2.3v2.1l.2.2v.2l.2.2.2.2v.2l.2.2.2.2.2.2v.2l.3.2.2.2.2.2.3.2.2.2.3.2-.8 10174F52ADB" fill="#21231e"/>
      <path d="M462.6 580.6l-9.5-5.4c-4 3-6.8 13.5 0 22.2 8.5 11 12 18.7 14 27.5 6.2-8 8.3-16.3 4.4-24.5-5.3-11-8.7-17-8.8-20z" fill="#fff" stroke="#21231e"/>
      <path d="M470.4 573l-9.5-5.4c-4 3-12.5 13.2-5.6 22 8.5 10.8 17.3 19 19.4 27.7 6.2-8 8.8-16.2 5-24.4-5.4-11-9.4-17.2-9.4-20z" fill="#fff" stroke="#21231e"/>
      <path d="M449.4 569.2l-9.5-5.4c-4 3-7 13.5-.2 22.2 8.5 10.8 12 18.7 14 27.5 6.2-8 8.4-16.3 4.4-24.4-5.3-11-8.7-17-8.8-19.8z" fill="#fff" stroke="#21231e"/>
      <path d="M405.5 469c.2 8.7-1.4 66.5-1.8 74.7-.5 8.2-4 13.7-8 17-3.5-5-5.6-11.5-6-19.3-.4-4 .4-58.7.7-70 6.4-17 11.2-17.8 15-2.4z" fill="#fff"/>
      <path d="M404 543.8h-1l.2-1v-2.6l.2-1.7v-4l.2-2.3v-5l.2-2.7v-2.8l.2-3v-3l.2-3v-6.2l.2-3v-6.2l.2-3v-5.8l.2-2.7v-7.4l.2-2V469h1v11.7l-.2 2.5v8.3l-.2 2.8v6l-.2 3.2v3l-.2 3.2v6l-.2 3v3l-.2 2.8v5.3l-.2 2.5v2.3l-.2 2v3.6l-.2 1.5v2zm-8.7 17l.8-.5h-.6l.3-.4.4-.4.4-.3.4-.3.3-.4.5-.4.3-.3.3-.5.4-.4.4-.4.3-.4.4-.5.3-.4.2-.5.2-.5.3-.5.3-.5.2-.6.2-.5.3-.6.2-.5.2-.5v-.7l.3-.6v-.6l.3-.7v-.7l.2-.7v-.7l.2-.8v-1.5h1v2.3l-.2.7v.8l-.3.6v.8l-.3.7-.2.6-.2.8-.2.6-.2.6-.2.6-.3.6-.4.5-.2.6-.3.5-.2.5-.3.5-.3.5-.3.5-.4.4-.4.5-.3.4-.5.5-.3.4-.4.3-.3.4-.4.3-.2.4-.4.3-.4.3h-.7zm.7.2l-.4.3-.3-.4h.7zm-7-19.5h1v.6l.2.8v1.4l.2.7v.6l.2.7v.6l.3.6v1.5l.3.5v.7l.3.6.2.6.2.6.2.6.2.5.2.7.2.6.2.5.3.6.2.5.3.4.2.6.3.5.3.5.3.5.2.4.3.4.3.5.3.3-.7.6-.3-.6-.4-.4-.3-.5-.3-.5-.3-.5-.3-.6-.2-.6-.3-.5-.4-.7-.2-.5-.3-.6v-.6l-.3-.5-.3-.5-.2-.6-.2-.7-.2-.6v-.7l-.3-.6-.2-.6v-.7l-.3-.5v-.7l-.2-.7-.2-.6v-.6l-.2-.7v-1l-.2-.8v-1.5zm1-70.2l.8.3v8l-.2 2.3V492l-.2 2.7v11.6l-.2 3v19l-.2 2.2v11h-1v-20.9l.2-2.7v-14.6l.2-2.8V489l.2-2.6v-8.9l.2-2v-4.2zm0 0zm16-2.3h-1l-.4-1.3-.3-1.3-.4-1-.5-1.2-.4-1-.2-1-.4-.7-.4-.8-.4-.6-.4-.4-.4-.4-.4-.3-.3-.3h-.3l-.4-.2h-.7l-.4.3-.4.3-.5.5-.5.4-.5.5-.5.7-.5.7-.5.8-.5 1-.6 1-.5 1.2-.6 1.3-.6 1.3-.6 1.5-.6 1.6-1-.3.7-1.6.6-1.5.7-1.3.6-1.4.5-1.2.6-1 .5-1 .5-1 .5-.8.6-.7.5-.7.6-.6.6-.4.5-.4.6-.3.5-.2h1.1l.5.3.5.3.5.5.5.5.4.6.4.6.5.8.4.8.4 1 .5 1 .3 1 .4 1.4.4 1.3.4 1.4zm0 0z" fill="#21231e"/>
      <path d="M368 454.8l-2.6 79.6c-.8 7 8.4 49 13.5 57.4 12.3-5.3 15-33.8 12.6-61.6-2.4-27.8.4-51.8 2.3-56.8 0-6.3-1-12.8-1-19.3-8 .5-17.2.4-25 .8z" fill="#fff"/>
      <path d="M365 534.4l2.4-79.6h1l-2.5 79.6h-1zm1 0zm12.7 57l.3.8-.6-.2-.5-1-.6-1-.5-1.2-.7-1.4-.5-1.6-.6-1.6-.605AE266AE5" fill="#21231e"/>
      <path d="M353 468l1.8 79.5c-.4 7 11 48.5 16.4 56.5 12.6-9.8 10-49.8 8.2-62-4-24-3.2-52-2-56.5 0-6.3-.2-13.8-.6-20.4-8 1-15.8 2-23.7 2.8z" fill="#fff"/>
      <path d="M354.3 547.5l-1.7-79.6 1-.2 1.7 79.6h-1zm1 0zm15.6 56l.5 1-.7-.2-.5-1-.6-1-.6-1.2-.5-1.2-.7-1.6-.6-106305BCA14" fill="#21231e"/>
      <path d="M342.2 486.7l21-.5c-2 8.6-.5 35.6 3.2 56.2 3.3 19.3 8 69.3-12 81.3-12.5-26.4-3-52-9.2-75-5-24.3-6-44.6-3-62z" fill="#fff"/>
      <path d="M363 486.7l-20.8.5v-1l21-.5.4.6-.5.4zm0-1h.7v.6l-.6-.6zm3.8 56.6l-1 .2-.3-2-.3-2-.3-2-.4-2-.3-2-.2-209C870DA0A" fill="#21231e"/>
      <path d="M422 454.4c0 8.7-3.2 66.5-4 74.6-.7 8-4.5 13.6-8.4 16.6-3.4-5-5.3-11.5-5.5-19.3 0-4 2.3-58.7 3-70 7-17 11.8-17.4 15-2z" fill="#fff"/>
      <path d="M418.5 529h-1v-1l.2-1v-1.5l.2-1.7v-2l.2-2v-2.3l.3-2.4v-2.5l.3-2.7.2-2.8v-3l.3-3 .2-3 .2-3v-3l.3-3.2.02464CDA99" fill="#21231e"/>
      <path d="M385 407.2c-.6 18.7-1 59-.8 62.6.3 7.8 3.4 17.6 6.7 22.6 4-3 7.7-8.5 8.4-16.6.6-6.7.8-39.5 1-56-4.3-2.6-8.7-6-12.2-9.7l-3.2-2.8z" fill="#fff"/>
      <path d="M384.7 469.8h-1v-23.4l.2-2.4v-19.6l.2-2.4v-9l.2-2v-3.8h1v7.8l-.2 2.4v9.4l-.2 2.5v12.5l-.2 2.4v25.4zm0A7E633A52" fill="#21231e"/>
      <path d="M400 419.3c-.4 20-.2 51.7 0 54.3 0 7.7 2 14.3 5.4 19.3 4-3.2 8-8.8 8.8-17 .5-5 2-26.4 2-42.8-5.3-1.7-12-10.4-16.3-14z" fill="#fff"/>
      <path d="M400.4 473.5h-1v-12.9l-.2-1.7v-33.7l.2-2v-4h1v14.5l-.2 2v37.1l.2.5v.3zm4.7 19l.7.8h-.7l-.3-.6-.3-.5-0C10D13A26" fill="#21231e"/>
      <path d="M387 405.6L373 385c-2.8 10.2-6.3 82.8-2.2 88.8.2 7.7 3 14.3 6.4 19.3 4-3 9.8-8.5 8-16.7-1.6-8.2.4-62.3 2-70.7z" fill="#fff"/>
      <path d="M373.3 384.7l14.2 20.6-.8.5-14.3-20.5v-.4l1-.3zm-1 .2l.4-1 .5.7-.8.2zm-1.2 88.7h-1l.2.3-.5-.8-.3-1.20DB4381A0D" fill="#21231e"/>
      <path d="M358 451.2c-.8 11.3-1.2 19-1 23 .2 7.6 2 14.2 5.5 19.2 4-3 9-8.5 8.4-16.6-2-31.5 1.4-61 5.4-89.6-3.4-2.5-9-5-12.5-7.6-6.8 38.3-9 62-6 71.6z" fill="#fff"/>
      <path d="M357.4 474h-1v-7.4l.2-.7V463l.2-.7V459l.2-1v-1.8l.2-1v-3l.2-1h1v2l-.2 1v2l-.2 1v2.8l-.2.7v3.2l-.2.7v022C6A6AA8" fill="#21231e"/>
      <path d="M343.6 471.8l4 14.7c.2 7.7 5 14 8.3 19 4-3 7.5-8 6.5-16-5.8-46.5-3.8-77.3 6-115-22 15-32.3 46.6-25 97.3z" fill="#fff"/>
      <path d="M347 486.6l-3.8-14.7 1-.3 3.8 14.6-1 .3zm1-.3zm7.6 19l.6.7h-.7l-.3-.6-.3-.5-.4-.5-.4-.5-.3-.5-.5-.6-024488DA27" fill="#21231e"/>
      <path d="M344.8 486.2l-20.3-6.7c-2.5 20.2 1.4 45.6 7 79 4.6 29 2 51.6-1.5 66.2 21.6-3 30.7-30.7 20-83-3-13.7-5.8-31.3-5.2-55.5z" fill="#fff"/>
      <path d="M324.7 479l20.2 6.7-.4 1-20.2-6.7-.3-.6.7-.4zm-.6.4v-.6l.7.2-.6.4zm8 79l-1 .3-.6-3-.5-3.2-.6-3-.5-3-0B0D369AAA" fill="#21231e"/>
      <path d="M343.6 584h1v.7h-.8v-.2h-.2v-.4zm-4.3-40l1-.4.4 1.2.2 1.2v1l.4 1.3.2 1.3.2 1.2.2 1.2.2 1.2.2 1.3.2 10D8554FA90" fill="#21231e"/>
      <path d="M344 367.3l13.2 2.2-4.6 23.3c-5 24.3-8.2 53-4.5 84.2 1.5 11.7 4 21.2 7.6 28.5-14.6-1.6-24-15.8-22.7-04C388CA1B" fill="#fff"/>
      <path d="M357 370l-13-2.3v-1l13.3 2.3.4.6-.6.4zm.3-1h.5v.6l-.5-.6zm-4.2 24l-1-.3.2-.3v-.4l.2-.5v-.6l.2-.7v-.6045F036AF0" fill="#21231e"/>
      <path d="M336 370.4l6.4 7.4c-1.8 1.4 1.3 7-.4 18-1 6.4-4.8 13.8-5.6 22-2.5 26.5-2.5 59.8 5.4 81-14.5-1.6-19.50B6C635ACB" fill="#fff"/>
      <path d="M342 378.2l-6.5-7.5.8-.6 6.5 7.5v.7h-.7zm.8-.7l.4.4-.5.2v-.7zm-.3 18.5h-1l.2-1.2v-1l.2-1V385l-.2-.6v0ED7396A33" fill="#21231e"/>
      <path d="M372.3 390l-13.4-1.6c-2.6 12.7-4.5 21.7-5 26.2-1 9 1.8 17 5 23 5-3 7.2-9.4 9.2-18.6 2-9.2 2.7-19.2 4-29z" fill="#fff"/>
      <path d="M359 388l13.3 1.5v1l-13.5-1.6-.4-.7.5-.4zm-.6.3v-.4h.5l-.6.3zm-4 26.4h-1l.2-.6v-.8l.2-.6v-1l.2-.6v-.7l.3-.6v-.7l.2-.7v-.7l.3-.7v-1l.2-.7.2-.8.2-1v-.7l.3-1 .2-.8v-1l.2-1 .2-1 .2-1 .2-1 .2-1 .3-1 .2-1 .2-1.2.2-1.2v-1l.4-1.3 1 .2-.3 1.2v1l-.3 1.3-.3 1-.2 1.2-.2 1-.2 1-.2 1-.2 1-.2 1-.2 1v1l-.3 1-.2.8-.2.8v1l-.3.7v.8l-.3.7v.8l-.2.7-.2.7v.6l-.2.7v1.3l-.2.5v1.1l-.2.5v.9zm4.3 22.6l.5.8h-.7l-.3-.7-.3-.6-.4-.6-.3-.5-.3-.6-.2-.7-.3-.7-.2-.6-.3-.7-.2-.7-.3-.7-.2-.8-.2-.7v-.7l-.3-.7-.2-.7-.2-.7v-.8l-.3-.7v-.7l-.2-.8v-.8l-.2-.7v-.8l-.2-.8v-6.1h1v6.6l.2 1v1.4l.3.7v1.6l.3.8.2.7v.8l.3.7.2.7.3.7.2.6.2.7.2.6.2.6.2.6.3.7.3.5.2.6.3.7.3.6.3.6.3.5-.7-.2zm.5.8l-.5.4-.2-.5h.7zm8.6-19h1l-.3 1-.2.8-.2 1v.7l-.3.8-.2.7-.2.8-.2.7v.8l-.4.7-.2.7-.3.6v.7l-.4.6-.2.7-.3.6-.2.5-.3.5-.3.6-.3.5-.4.7-.3.5-.4.5-.5.4-.3.6-.4.4-.4.4-.4.4-.5.3-.4.5-.4.3-.4.3-.5-.7.4-.3.5-.3.4-.3.3-.4.4-.3.4-.4.4-.4.4-.5.3-.4.4-.4.4-.5.3-.4.4-.5.2-.4.3-.6.2-.5.3-.6.2-.7.3-.7.2-.6.3-.7.2-.6.2-.7v-.8l.3-.7.3-.7.2-.8.2-.8.2-.8.2-.8.2-.8.2-1zm4.5-28.5v-1l.5.5v1l-.3 1v.8l-.2 1v1l-.2.8v1l-.2.8v1l-.2 1v.8l-.2 1v1l-.2.8v1l-.2.8v1l-.2.8v1l-.2 1-.2.8v1l-.2.8-.2 1v.8l-.2 1-.2.8-.2.8v1l-.3.8v1l-.3.7h-1l.3-1v-.8l.3-1 .2-.7v-1l.3-.8v-1l.3-.8.2-1v-1l.3-.8v-1l.2-.8v-1l.2-.8v-1.8l.2-1v-1l.2-.8v-1l.2-.8v-1l.3-1v-1.8l.2-1v-.8l.2-1v-.8l.3-1v-1l.6.7zm0-1h.6l-.2.5-.5-.5zm0 0v1-1zm0 1z" fill="#21231e"/>
      <path d="M407 418.6h-11.8c-.4 11-.7 18.5-.5 22.3.4 7.5 2.3 14 5.5 18.7 3.6-3 7-8.3 7.6-16.2.6-8-.6-16.5-.7-25z" fill="#fff"/>
      <path d="M395.2 418.2h12v1h-12l-.5-.5.5-.5zm-.5.5v-.5h.5l-.5.5zm.5 22.2h-1v-11.4l.2-.8v-4.4l.2-.8v-5h1v7.8l-.0A26B3CAC1" fill="#21231e"/>
      <path d="M420 424.2l-12 .6c0 11 0 18.4.3 22.2.7 7.6 2.8 14 6.2 18.6 3.5-3 6.8-8.6 7-16.5.3-8-1-16.3-1.5-24.8z" fill="#fff"/>
      <path d="M408 424.3l12-.6v1l-12 .6-.4-.5.5-.5zm-.4.5v-.5h.5l-.4.5zm1.2 22.2h-1v-4l-.2-.6v-17.8h1V445l.2.4v1.6zm5.4 18.2l.6.8h-.7l-.2-.5-.3-.5-.3-.5-.3-.5-.4-.5-.3-.5-.3-.5-.2-.5-.3-.5-.3-.5-.2-.6-.2-.5-.3-.7-.2-.6-.2-.6v-.4l-.3-.6-.2-.6v-.7l-.3-.6-.2-.5v-.6l-.3-.8v-.6l-.2-.7v-.8l-.2-.6v-.7l-.2-.8v-2h.8v.7l.2.7v1.4l.2.7.2.7v.7l.2.7v.6l.3.6v.7l.2.6v.5l.3.6.2.7.2.5v.6l.3.6.2.5.2.5.2.5.2.5.2.6.2.6.3.5.2.6.2.4.3.5.3.5.3.4.3.5.3.3h-.8zm.6.8l-.4.4-.3-.5h.8zm6.2-17h1v2.3l-.2.7v.7l-.2.7-.2.6v.7l-.3.6v.6l-.2.5-.2.6-.2.7-.2.6-.3.5-.3.6-.3.5-.2.4-.3.5-.4.4-.3.4-.3.5-.3.4-.3.4-.3.5-.2.4-.3.3-.3.4-.4.3-.3.4-.3.3-.4.3-.6-.8.3-.3.3-.4.3-.3.4-.3.3-.4.4-.3.4-.4.2-.5.3-.4.2-.3.3-.4.3-.5.2-.4.3-.5.2-.6.3-.5.2-.6.2-.5.2-.6.2-.6.2-.6.2-.5.2-.6v-.5l.3-.7v-.6l.2-.7v-.6l.2-.8V449zm-1-25.3v1l.5-.5v2.4l.2.8v1.5l.2.7v3.4l.2.7v1.5l.2.8v.8l.2.8v2.5l.2.7v2.3l.2.8v5.3h-1v-7.4l-.2-.7v-1.6l-.2-.8V437l-.2-1v-1.5l-.2-.7v-1.6l-.2-.8v-1.6l-.2-.8v-1.6l-.2-.8v-2.2l.4-.6zm-.5.6v-.6h.5l-.5.6zm.5.4v-1 1z" fill="#21231e"/>
      <path d="M395 412.4l-12-.8c-1.2 11-2 18.2-2.2 22-.2 7.7 1 14.2 4 19.3 3.8-2.8 7.7-8 8.8-15.7 1.2-8 .8-16.4 1.4-25z" fill="#fff"/>
      <path d="M383 411l12 1v1l-12-1-.4-.5.5-.4zm-.4.5v-.5h.5l-.4.5zm-1.3 22.2h-1V431l.2-.4V429l.2-.6v-1.2l.2-.6v-2001C652AB6" fill="#21231e"/>
      <path d="M384 399.6l-13.2-5.4c-2.2 8.8-5.2 37.8 0 50 4.5-3 9-8.4 10.3-17 1.6-9 2-18.2 3-27.6z" fill="#fff"/>
      <path d="M371 393.7l13 5.4-.3 1-13-5.4-.4-.6.7-.3zm-.7.3l.2-.5.5.2-.7.3zm.3 50l.6.7-.7-.2-.5-1.2-.5-1.3-.3-1.0313DEBA54" fill="#21231e"/>
      <path d="M387.8 701.2c8 6.3 15.2-8.3 8-27.6-5-14.2-30.6-8.7-16.4 10.5.7 1 1.6.6 1.5-.4-1-4 1.6-6.3 5.5-5.5 10.5 2 11 22-.6 17.6-2.2-.2-.4 4 1.7 5.6z" id="c" fill="#edb92e" stroke="#21231e"/>
      <path d="M400 639.2c-1 3.4-5 7.6-8 10.8-4.5 4.8-3.4 12.2-.2 16 3.5 4.4 5 9.2 5.8 13 .5 2.3 1.5 7.4.8 15.5-.4 002AAB7A8E" fill="#edb92e" stroke="#21231e"/>
      <path d="M395 685.5h11.6c2 0 3.6 1.6 3.6 3.5 0 2-1.6 3.5-3.6 3.5H395c-2 0-3.5-1.5-3.5-3.5s1.6-3.5 3.6-3.5z" fill="#edb92e"/>
      <path d="M406.6 686H395v-1h11.6v1zm4 3h-1v-1l-.2-.2v-.2l-.2-.2v-.2h-.2v-.2h-.2v-.2h-.3v-.2h-.2v-.2h-.3l-.2-.20E32A14A00" fill="#21231e"/>
      <path d="M417 579.2l.5-11c-4.4-2.2-15.2 0-19.7 10.2-5.7 12.6-11 19.3-18 25.2 10 1.8 18.4-.2 23.7-7.4 7.3-9.8 11.2-15.7 13.6-17z" fill="#fff"/>
      <path d="M418 568.3l-.4 11h-1l.4-11 .7-.5.3.5zm-.3-.5l.3.2v.3l-.3-.5zm-19.5 10.8l-1-.4.6-1 .5-.8.5-1 .6-.7.5-011A379A4B" fill="#21231e"/>
      <path d="M425.2 580.6l-11.8-5c-5 10-8.2 16.6-9.5 20.2-2.8 7-3.5 13.8-2.3 19.5 4.8-1.2 10.3-4.6 14-11.6 3.8-7 6-15.3 9.5-23z" fill="#fff"/>
      <path d="M413.6 575.2l11.7 5-.3 1-11.8-5-.3-.8.6-.2zm-.7.2v-.4l.6.2-.7.2zm-8.7 20.6l-1-.4.2-.3.2-.4.2-.5v-.4l053D4C7AA6" fill="#21231e"/>
      <path d="M428.6 580.6l-12.7-2c-2.4 10.8-4 18-4.4 22-1 7.5 0 14 2.7 19.4 4.3-2.3 8.8-7 10.7-14.7 2-7.8 2.2-16.3 3.6-24.7z" fill="#fff"/>
      <path d="M416 578.2l12.6 2v1l-12.8-2-.4-.6.6-.4zm-.6.4v-.5l.6.2-.6.4zm-3.3 22h-1l.2-.5V599l.2-.6v-.5l.2-.6v-.5l.2-.6v-.6l.2-.5v-.6l.2-.6v-.6l.2-.6.2-.7v-.6l.3-.7v-.7l.2-.8v-.8l.3-.8.2-.8v-.8l.3-1 .2-.7.2-1 .2-.8.2-1 .2-1 .2-1 .2-1 1 .3-.2 1-.2 1-.2 1-.2 1-.2.8-.2 1-.2.7-.2 1-.2.7v.8l-.3.8-.2.8v.8l-.2.7v.6l-.2.7-.2.7v.6l-.2.6-.2.7v.4l-.2.6v.6l-.2.5v1.1l-.2.6v.4l-.2.4v1.2zm2 19l.5.8-.7-.2-.2-.5-.3-.5-.2-.5v-.6l-.3-.4-.2-.5-.2-.5-.2-.6v-.6l-.2-.6v-.6l-.3-.6v-.6l-.2-.6v-.6l-.2-.6v-2.8l-.2-.6v-5.4l.2-.7v-1.5h1v3.1l-.2.7v5.1l.2.6v1.2l.2.6v.6l.2.6v.6l.3.6v.5l.2.6v.7l.3.5v.5l.3.6.2.5.2.5.2.5.3.5.2.5-.7-.2zm.5.8l-.5.3-.2-.5.7.2zm10-15.2l1 .2-.2.7-.2.8v.7l-.3.7-.3.7-.2.5-.3.6-.4.7-.3.6-.3.6-.3.4-.3.6-.4.5-.3.5-.4.5-.4.5-.4.4-.4.5-.4.3-.4.4-.4.4-.4.5-.4.3-.4.4-.4.3-.4.3-.4.3-.4.4-.5.3-.4.3-.4.2-.5.2-.5-.8.4-.2.4-.3h.4l.4-.4.4-.3.4-.3.4-.3.4-.3.4-.3.4-.3.3-.3.4-.4.4-.4.5-.4.3-.4.4-.5.3-.4.4-.6.2-.5.3-.6.3-.5.3-.6.4-.6.3-.5.3-.6.2-.6.3-.5.2-.6.3-.8.2-.7.2-.6.2-.8zm4-25v1l.5-.5v.8l-.2.8v.7l-.2.8v.8l-.2.8v.8l-.2.8v.7l-.2.8v.8l-.2.8v1.7l-.2.7v.8l-.2.8v.8l-.2.8v.7l-.2.8v1l-.2.6v.8l-.2.8-.2.7v.7l-.2.7-.2.8v.7l-.3.7-.2.7-1-.2.2-.8.2-.7v-.7l.2-.8v-.7l.3-.7v-.8l.2-.8v-.7l.2-.8v-1.5l.2-.8v-.7l.2-.8v-1l.2-.7v-.7l.2-.8v-1.6l.2-.8v-.8l.2-.7v-1l.2-.7v-.8l.2-.8v-.8l.2-1v-.7l.3-.8.5-.4zm-.4.3v-.4h.5l-.4.5zm.5.6v-1 1z" fill="#21231e"/>
      <path d="M430.4 563.4h7.6c4.4 2 9 12.2 3.7 22-6.7 12-8.8 20.2-9.5 29.2-7.4-6.8-10.8-14.7-8.2-23.3 3.4-11.7 6.8-25.2 6.4-28z" fill="#fff"/>
      <path d="M438 564h-7.6v-1h7.8l-.2 1zm0-1h.2-.2zm4 22.5l-.8-.5.5-1 .4-.8.4-.8.3-1 .3-.8.2-1v-.7l.3-1V574l-.2-109FDE00AC4" fill="#21231e"/>
      <path d="M433.8 558.2l-12-4.3c-4.3 10-7.2 16.8-8.4 20.5-2.3 7.3-2.6 14-1 19.6 4.7-1.3 10.6-4.4 14-11.6 3.3-7.3 4.5-16.3 7.4-24.2z" fill="#fff"/>
      <path d="M422 553.4l12 4.3-.4 1-12-4.4-.3-.6.6-.3zm-.7.3l.2-.4h.4l-.7.4zm-7.4 21l-1-.3v-.4l.2-.4v-.4l.3-.4v-.0564943A62" fill="#21231e"/>
      <path d="M425.6 549.7l-2.6-16.4c-2.8-.7-6.5 5.8-10 9.5-1 1-2 1.7-2.6 2.8a23.3 23.3 0 0 0-3.4 8c-3 13.4-7.4 200AB6A88AE3" fill="#fff"/>
      <path d="M423.4 533.3l2.7 16.4h-1l-2.5-16.3.6-.6.4.5zm-.3-.4h.4v.2l-.3-.4zm-9.7 10.2l-.8-.7.4-.4.2-.2.3-.4.4-0484157A8B" fill="#21231e"/>
    </g>
    <use width="1350" height="900" transform="matrix(-1 0 0 1 964.297 0)" xlink:href="#d"/>
    <path d="M536.4 415a38 38 0 0 0 4.8-1.5c-7.6-4.8-14-10.6-21.4-22-7.8-12 3.3-33 8-44.3 9.4-7 18.3-17.3 21.2-310743CD3AE0" fill="#fff" stroke="#21231e"/>
    <g id="e">
      <path d="M440.6 356.8c-2 1.8-8.8 1.8-18 2.4-14.8.5-23.4-4-25.3-13.5 5.6 6.6 12.2 10 19.7 8 10.2-2.5 16-4.3 18.3-3.8 1.6.4 4 3.3 5.3 6.8z" fill="#edb92e"/>
      <path d="M422.6 359.7v-1h1.8l.7-.2h2.5l.8-.2h2.8l.8-.2h3l.5-.2h1l.4-.2h.5l.4-.2h.4l.5-.2h.3l.3-.2h.4l.3-.2h.20117D8BA92" fill="#21231e"/>
      <path d="M431.5 332l-.7 1.3-.4-.3-.4-.2-.4-.3-.3-.2-.4-.3-.4-.3-.3-.3-.4-.3-.4-.2-.3-.4-.3-.3-.2-.3-.3-.3-.3-0E52174AA9" fill="#21231e"/>
      <path d="M429.6 331l-2.2-2.3c-1-1.3-.5-3 2-5.4 1.5.7 3 1.3 4.2 2-1 3-2.2 4.8-4 5.6zm-6.3 82l-.4 1h-.4v-1h.8zm09AE1E3A55" fill="#21231e"/>
      <path d="M452.2 401.3l-1.2-.2v-.2h.2l.2-.2h.6v.4h.2v.2zm-5.5 16l.3 1-.7-.8.2-.4.2-.4.2-.5v-.4l.3-.4.2-.5.2-.506BE668A2D" fill="#21231e"/>
      <path d="M461.3 400.2H460v-.2h.2v-.2h1v.4zm4.4 15.7l.7 1-.8-.3-.3-.4-.3-.4-.2-.5-.3-.5-.2-.4-.3-.4-.2-.5-.3-.0A1077CA19" fill="#21231e"/>
      <path d="M406 317.8c-16.7 1.8-16 12.6-.4 28 3 3 4 3 4.6-.2 1.2-5.3 7-8.5 10.2-4.4 2 2.7 1.6 4.3 8.6 3.3 9 7.504E87C6AAF" fill="#edb92e"/>
      <path d="M406 345.5l-.7.7-1.4-1.5-1.5-1.4-1.2-1.4-1.2-1.4-1-1.3-1-1.3-.8-1.3-.8-1.2-.8-1.2-.6-1.2-.5-1-.5-1.200D1F13A04" fill="#21231e"/>
      <path d="M407 317.2l-1.3.4v-.6h.2v-.2h.8v.2h.2v.2zm7.6 10.6l-.8 1-.4-.4-.3-.4-.3-.3-.3-.3-.4-.3-.3-.2-.3-.4-.0960F29A53" fill="#21231e"/>
    </g>
    <use width="1350" height="900" transform="matrix(-1 0 0 1 964.297 0)" xlink:href="#e"/>
    <path d="M473 398.4h-.2v.5h-.2v.8l.2.7v1.6l.2.8.2.8v.7l.3.8v.8l.3.7.2.8.3.7.2.7.2.7.3.7.3.8.3.7.3.7.2.7.3.6.401A3918ADC" fill="#21231e"/>
    <path d="M549.2 422v108.6c0 19.4-7.5 37-19.7 49.8-12 12.8-29 20.7-47.3 20.7-18.5 0-35.3-7.8-47.4-20.6-12-12.8-19.7-30.4-19.7-49.8V422h134.2z" fill="#c6363c"/>
    <use width="1350" height="900" transform="matrix(-1 0 0 1 964.297 -90.088)" xlink:href="#f"/>
    <path d="M549.2 488.6v28h-53v83a63.8 63.8 0 0 1-14 1.5c-4.8 0-9.5-.4-14-1.5v-83h-53v-28h53V422h28v66.6h53z" fill="#fff" stroke="#21231e"/>
    <use width="1350" height="900" transform="translate(0 -90.088)" xlink:href="#f"/>
    <path d="M459 567.3V528c-8.4-2.3-29.3-10.6-30.3 7.6-.5 8.4 10.4 14 13.3 6.5 1.4-3.4 0-6-2-6.7-2.4-.8-4.6 1-4 0AB26F4ACE" id="f" fill="#fff" stroke="#21231e"/>
    <use width="1350" height="900" transform="matrix(-1 0 0 1 964.297 0)" xlink:href="#f"/>
    <path d="M414 421v113.3l.2 1.7v2l.4 1.7.2 1.8.3 1.7.4 1.8.3 1.8.4 1.7.6 1.7.5 1.7.6 1.5.6 1.7.5 1.6.7 1.6.7 101FCEA5A6C" fill="#21231e"/>
  </g>
</svg>
