<svg xmlns="http://www.w3.org/2000/svg" height="480" width="640" id="flag-icon-css-sh">
  <path d="M640.013 480.02V.03H.003v479.99h640.01z" fill="#006"/>
  <path d="M-.006 73.341h76.034L-.006 26.768V.03h43.503L149.86 64.75V.03h59.892v64.72L316.11.03h43.88v26.738L2802241B4AB9" fill="#fff"/>
  <path fill="#ce1126" d="M331.685.027L211.525 73.39h28.764L359.983.027h-28.298zm28.313 220.003l-119.822-73.323h28.89l90.932 50F1027EAB1"/>
  <path fill="#ce1126" d="M-.006 88.56h162.621V.027h35.195V88.56h162.18v42.962H197.81v88.505h-35.195v-88.505H-.005V88.56z"/>
  <path d="M399.67 640.77c-.046 16.332-2.623 33.927-23.764 42.308-21.142-8.381-23.719-25.976-23.765-42.308h47.529z" stroke-width="1.112" fill="#8fc5ff" transform="matrix(4.4862 0 0 4.4867 -1190.9 -2609)" stroke="#fff"/>
  <path d="M375.9 683.08c9.584-3.799 15.353-9.493 18.8-16.104-.516.02-1.597-.011-2.064-.043-.52-.034-20.271-2.0031A073A2F" fill="#366cc9" transform="matrix(4.4862 0 0 4.4867 -1190.9 -2609)" stroke-width="1.102" stroke="#000"/>
  <path d="M361.13 672.95c.323-.105.94-.08 1.183-.036.286.052.338.078.442-.234s.338-.234.52-.078.649.078.831-.1010936AA53" fill="#5d3100" transform="matrix(4.4862 0 0 4.4867 -1190.9 -2609)" stroke-width=".138" stroke="#000"/>
  <path d="M399.67 640.77c.018-6.152-.324-12.125-.168-17.359-7.9-3.535-18.295-4.262-23.596-4.262-5.302 0-15.6970A0B936AE3" stroke-width="1.08" transform="matrix(4.4862 0 0 4.4867 -1190.9 -2609)" stroke="#fff" fill="#ff0"/>
  <path d="M394.613 297.888c1.166 1.867 3.266 5.075 3.499 6.82.817-1.692 1.458-2.445 1.633-3.495s1.4-3.092.933-0C16E9DA70" fill="#cf6200"/>
  <path d="M403.047 332.077c.933.583 1.826.973 3.225.273s3.073-2.719 4.94-.735c1.862 1.978 2.911 5.245 2.911 7.0BCCF26AA0" fill="#cf6200"/>
  <path d="M403.406 338.538c-.085 1.265.197 2.656.296 3.773.116 1.283.466 3.966-.467 5.95-.933 1.978-.7 3.028 0004C977ABB" fill="#00b800"/>
  <path d="M447.774 328.757c-.17 1.866-.157 2.8-.623 3.418-.462.624-.153 1.557.314 2.49s.776 2.177.31 3.886.3090397FB0A36" fill="#5d3100"/>
  <path d="M439.52 412.164c2.795-.233 10.376-2.45 11.188-3.15 1.867 1.284 5.132 3.034 6.532 3.034-2.683.583-4.4060F598A38" fill="#00d860"/>
  <path d="M453.965 422.663c2.391-.408 9.152 1.225 11.543-.233-.816 2.158-5.074 2.45-6.532 1.983-1.453-.467-2.853-1.05-3.844-.992.525-.291-.35-.35-1.167-.758z"/>
  <path d="M456.433 425.983c1.808.287 8.277-.525 10.26-1.283 2.095.7 6.235 1.804 7.169 1.687-1.983 1.225-5.774.525-6.994 0-3.5 1.167-6.357 1.517-10.435-.404z" fill="#00d860"/>
  <path d="M459.528 427.06c2.589.583 4.796.166 7.344-.686.794.34 2.665.758 4.423.673 1.171.668 2.746 1.601 4.260A4DA0BA3B" fill="#00d860"/>
  <path d="M456.433 413.914c2.018.673 9.326.35 13.054-1.4 1.472-.69 2.383.467.7 1.05-6.06 2.1-10.843 2.917-14.338 1.05-1.381-.736-1.516-1.4.584-.7z"/>
  <path d="M492.233 403.999c-8.977 4.195-14.926 5.478-27.398 1.633-1.162-.36-1.983 0-.7.816 1.283.812 8.16 2.670A276F8AF8" fill="#00d860"/>
  <path d="M477.293 405.075c5.133.364 14.576-1.983 19.592-6.878 1.745 1.046 4.194 2.212 5.477 2.445s2.45 1.4.4600F862FA8E"/>
  <path d="M462.13 377.078c1.75 1.225 4.84 3.262 8.86 2.97 1.983 1.575 5.074 2.917 6.474 3.209-2.683 1.108-5.5903EE04BAD9" fill="#00d860"/>
  <path d="M463.52 384.571c-.973.242-3.732 1.75-4.719 1.867-.991.116-2.74 1.516-.933 1.574 1.804.059 4.137-1.9204FA545AA5" fill="#00d860"/>
  <path d="M465.001 394.083c1.274.825 7.577 2.975 9.852 2.8s1.848.91.117 1.283c-3.558.754-7.9-.794-10.844-3.15-1.458-1.166-.116-1.575.875-.933z"/>
  <path d="M494.835 397.179c-4.823 1.539-9.736.991-11.718.466s-3.791-.641-2.45.642c1.341 1.279 5.657 2.154 8.1005D41D5A95" fill="#00d860"/>
  <path d="M483.574 392.333c-.991.058-2.74-.583-3.674-.991s-2.27-.467-1.279.874c.987 1.342 5.303 2.1 6.82 1.459007529DABE" fill="#00d860"/>
  <path d="M498.782 390.224l-.35.875c2.158-.058 7.407.467 9.094 1.517 1.633-1.283 1.341-1.692 2.508-1.458s2.624072DCDBA9B" fill="#00d860"/>
  <path d="M525.79 389.192c-3.495 2.567-7.695 3.15-12.706 3.5-1.458.103-1.009.516.234.642 5.244.525 11.31-1.4 13.288-3.5.574-.606.511-1.61-.817-.642z"/>
  <path d="M501.968 395.16c1.516.058 6.76 1.4 8.452 1.983 1.283-.117 1.633-.408 1.4-.875s-.409-.992 1.924-.875c07AF5B5A56" fill="#00d860"/>
  <path d="M522.425 395.429c.816-.35 2.62-1.75 3.436-1.808 1.516-.117 3.266.525 4.083.641s1.69-.058 1.108-.7-.00DAA99BA88" fill="#00d860"/>
  <path d="M513.452 400.544c-.933 1.283-4.14 3.5-5.599 3.616-1.453.117-5.827-.292-6.935-.7s-2.45-.292-.875.817 0DC9593A58" fill="#00d860"/>
  <path d="M542.837 412.299c.991-.117 1.92-.817 2.678-1.283-1.92.641-10.318-.7-12.821-2.917-2.508-2.212-2.508-.0114C16A7C" fill="#00d860"/>
  <path d="M486.49 418.356c.583-.35 2.212-1.167 2.912-1.862-1.283.345-4.428-.35-5.245-1.05 1.167 0 3.029-.583 50BFA32EA0E" fill="#00d860"/>
  <path d="M479.267 425.938c5.581-.466 13.055-.565 19.004-5.599 1.516-1.283 2.535-.852 1.05.467-3.145 2.8-10.96031217EAE8"/>
  <path d="M521.079 416.696c-1.4.525-5.307 1.166-6.47.991-1.166-.175-2.857-.233-3.79.35s-.992.934.291 1.05 2.91003175BADE" fill="#00d860"/>
  <path d="M483.888 432.983c-2.274.058-6.59 1.166-8.044 1.924.292.584.467 1.512.525 2.154 4.195-1.516 13.813-2.0952896A73" fill="#00d860"/>
  <path d="M498.154 441.193c1.867.059 5.716-.175 7.465-1.866-.7-.758-2.507-.467-3.032-.992 1.224-.408 2.624-1.205C1004A59" fill="#00d860"/>
  <path d="M502.775 430.2c1.925 2.159 4.195 3.384 7.81 3.5.759.023 2.172 1.041.35 1.109-4.898.175-7.343-.992-9.0D38B4CA45"/>
  <path d="M534.582 389.372c3.962-.117 6.936-.058 8.16 1.108 2.27-.7 6.353-1.108 7.286-.933s1.983-.233-.175-.7507FECE5A8A" fill="#00d860"/>
  <path d="M566.838 390.583c-4.253 1.108-9.152.992-7.985-.408-1.633.7-6.994-.233-8.86.758 1.924-1.166 3.382-.230F54723A5E" fill="#00d860"/>
  <path d="M373.36 664.19c-.017-1.966-.207-18.422-.207-22.226 0-.91-.468-.728-.468 0v22.122c.215.039.505.078.670C64B19A62" transform="matrix(4.4862 0 0 4.4867 -1190.9 -2609)" stroke-width=".138" stroke="#000" fill="#ff0"/>
  <path d="M376.6 644.67l-6.913-.104c-.389 1.403 1.352 1.377 2.002 1.013.753.572 1.325.52 1.741.052.598.494 1.3070697DAB7" fill="#fff" transform="matrix(4.4862 0 0 4.4867 -1190.9 -2609)" stroke-width=".138" stroke="#000"/>
  <path d="M381.26 664.42c-3.014.052-6.081.052-8.16-.26s-2.734-.604-4.158-1.455c-2.131-1.273-2.651-1.585-5.665-08F948CAC4" transform="matrix(4.4862 0 0 4.4867 -1190.9 -2609)" stroke-width=".138" stroke="#000"/>
  <path d="M391.78 660.45c.159-.551.584-2.035 1.354-4.84.129-.468-.325-.653-.493-.052-.916 3.275-1.262 4.503-1.378 4.912.176-.003.428-.022.517-.02z" transform="matrix(4.4862 0 0 4.4867 -1190.9 -2609)" stroke-width=".138" stroke="#000"/>
  <path d="M396.85 654.96c-1.105.571-1.638.792-2.144.597-.466-.179-1.151-.28-1.552-.083a.523.523 0 0 1-.021.13509B987FAB8" transform="matrix(4.4862 0 0 4.4867 -1190.9 -2609)" stroke-width=".138" stroke="#000" fill="#fff"/>
  <path d="M371.69 645.58c-1.222 3.534-5.458 11.461-8.014 14.014m1.964 1.156c2.901-2.244 10.236-9.528 11.483-12.594m-7.013 4.364c-.337 2.677-1.11 7.452-1.526 9.973m2.656-4.013c-.987.962-2.387 2.641-3.427 3.551m12.727-8.891c-.831.805-1.78 1.744-2.611 1.978m3.091-1.848c.731.779 1.77 1.659 2.628 1.893m-3.198-6.203c-.753.649-1.871 1.413-2.884 1.699m3.314-1.549c.65.546 1.342 1.342 2.173 1.706m-5.333-4.876c.805-.234 2.004-.858 2.628-1.507m.362-.123c.705.805 2.056 1.455 2.732 1.637m-5.562-3.247c.831-.182 1.861-.624 2.407-1.404m.313-.216c.701.598 1.933 1.462 2.738 1.54m3.192.79c-.451.468-1.556 1.309-2.257 1.296m2.717-1.336c.325.52 1.144 1.316 1.612 1.381m-4.802 5.919c.909-.312 2.183-1.056 2.82-1.823m.5.063c.266.48 1.28 1.565 1.852 1.786m-4.092 5.254c.416-.09 1.547-.652 1.858-1.315m.522-.365c.429.533 1.481 1.507 2.131 1.741m-18.811.859c1.273-.403 3.846-1.965 5.12-3.447m-2.44 1.877c1.065.753 2.303 1.507 3.251 1.676m-6.171-4.456c.702-.299 1.624-.809 2.339-1.549m.541-.101c.286.402 2.388 1.686 3.284 1.699m-3.824-5.849c-.546.441-1.858 1.234-2.495 1.403m2.995-1.373c.728.506 2.167 1.4 3.154 1.4m-3.654-5.49c-.585.662-1.572 1.685-2.391 1.919m2.861-1.769c.455.728 1.673 1.712 2.466 1.842m8.054 2.528c1.822 3.359 5.201 7.465 8.618 9.622M378.2 643.46c2.767 3.976 8.199 12.695 13.367 15.914m.953-3.404a18.428 18.428 0 0 1-4.795 4.607m4.485-3.507c-1.741-2.78-2.641-6.295-3.943-10.924M374.15 658.51l2.144 5.899m-2.544-6.039l1.896 6.017m-2.306-6.297l1.76 6.262m-1.94-6.162l1.359 6.128m-.049-.218h1.699m-.219-.64h-1.602m1.422-.5h-1.546m1.366-.5h-1.475m1.275-.54h-1.404m-.096-.48h1.332m-1.432-.44h1.264m-1.374-.48h1.202m-1.292-.43h1.134m-1.234-.44h1.078m-1.168-.41h1.02m-1.12-.38h.991m-1.051-.32h.923m-2.593.01l-1.208 4.932m1.558-5.022l-1.037 5.21m1.317-5.4l-.839 5.549m1.199-5.659l-.609 5.803m.729-.333h-1.923m1.923-.53h-2.225m2.225-.55h-2.095m2.095-.52h-1.965m1.965-.53h-1.838m1.838-.59h-1.692m1.692-.51h-1.569m1.569-.52h-1.436m1.436-.5h-1.316m1.316-.44h-1.212m1.212-.35h-1.121m1.121 5.5v-5.88m6.47-1.94l-4.029 8.08m4.279-8.21l-3.43 8.254m3.68-8.344l-2.721 8.383m2.891-8.233l-2.116 8.238m.096-.378h-2.534m2.734-.74h-2.359m2.469-.6h-2.17m2.38-.65h-2.053m2.153-.52h-1.897m2.077-.6h-1.787m1.967-.7h-1.618m1.758-.53h-1.488m1.638-.61h-1.348m1.458-.41h-1.247m1.347-.39h-1.143m1.243-.4h-1.053m1.143-.35h-.968m1.058-.35h-.887m.987-.36h-.8m.88-.33h-.721m3.341-.12l1.763 5.58m-1.423-5.46l2.139 5.355M383 656.53l2.505 5.237m.605-.447l-2.763-4.888m2.763 4.878h-2.192m1.812-.66h-2.019m1.649-.66h-1.851m1.471-.67h-1.688m1.318-.66h-1.529m1.149-.66h-1.36m.99-.66h-1.194m.814-.67h-1.032m3.292.16l-1.725 5.173m2.245-5.403l-1.6 5.303m.74-.123l1.174-4.992m.306.172l-.988 4.75m-1.672-.3h1.731m-1.511-.65h1.65m-1.44-.64h1.572m-1.362-.64h1.491m-1.271-.65h1.41m-1.19-.64h1.329m-1.119-.64h1.248m-1.038-.65h1.027m.923.11l.846 3.547m-.536-3.717l1.169 3.697m-.769-3.707l1.275 3.702m-.755-3.502l1.277 3.477m-.117-.307h-1.638m1.448-.52h-1.556m1.366-.52h-1.491m1.301-.52h-1.43m1.23-.52h-1.358m1.168-.52h-1.284m1.094-.52h-1.218" transform="matrix(4.4862 0 0 4.4867 -1190.9 -2609)" stroke-width=".138" stroke="#000" fill="none"/>
  <path d="M479.626 380.309c3.616-2.329 9.794-1.862 12.943.466 3.732-2.095 10.493-1.516 13.643 1.284 4.777-3.2602DB002A41" fill="#00b800"/>
  <path d="M543.33 375.329c-18.537 3.203-58.935.933-67.795-1.284-3.046-.762-2.216-1.866.35-1.283 10.21 2.32 32 001C2A8AA7" fill="#cf6200"/>
  <path d="M573.702 376.226c.668-.018 2.064-.05 2.45-.058.758-.018 1.82-.539 2.287-1.705s1.911-5.479 2.436-7.2801EC318AB1" fill="#cf6200"/>
  <path d="M547.233 375.284c-.641-1.284-2.624-5.847-2.8-9.167 1.692-.031 5.923-.112 7.964-.157.3 2.504 1.072 7.0841D49AD3"/>
  <path d="M377.29 656.93c.091.001.103.079-.001.078l-7.678-.095c-.104-.001-.09-.079.001-.078l7.678.095zm6.04-6.0AAFF04AF3" transform="matrix(4.4862 0 0 4.4867 -1190.9 -2609)" stroke-width=".138" stroke="#000"/>
  <path d="M383.78 642.59c.091-.001.105.077.001.078l-5.938.057c-.104.001-.092-.077-.001-.078l5.938-.057z" fill="#fff" transform="matrix(4.4862 0 0 4.4867 -1190.9 -2609)" stroke-width=".138" stroke="#000"/>
  <path d="M384.15 645.91c.091 0 .104.078 0 .078h-6.562c-.104 0-.091-.078 0-.078h6.562zm6.44 4.73c.091 0 .104.007D4F59AC6" transform="matrix(4.4862 0 0 4.4867 -1190.9 -2609)" stroke-width=".138" stroke="#000"/>
  <path d="M395.26 657.05c.157-.349.179-1.151.089-1.455a1.106 1.106 0 0 1-.647-.04 2.973 2.973 0 0 0-.341-.106c037741CA58" transform="matrix(4.4862 0 0 4.4867 -1190.9 -2609)" stroke-width=".138" stroke="#000" fill="#ef072d"/>
  <path d="M370.46 623.2c-.791.023-2.513.039-2.875.242-.361.204-.52.294.113.407s1.704.414 2.291.776c.587.361 1.0B98741A49" transform="matrix(4.4862 0 0 4.4867 -1190.9 -2609)" stroke-width=".138" stroke="#000"/>
  <path d="M370.55 623.56c-.351-.013-1.04-.096-1.611-.039-.13.013-.286.078.026.117s1.156.246 1.455.35.169.26-.0094469DA0D" transform="matrix(4.4862 0 0 4.4867 -1190.9 -2609)" stroke-width=".138" stroke="#000" fill="#fff"/>
  <path d="M374.92 623.33c-.262-.284-.728-.546-.961-.624-.234-.078-.26.156-.13.273-.104.156-.143.533.039.637s.1053CFF4AA0" transform="matrix(4.4862 0 0 4.4867 -1190.9 -2609)" stroke-width=".138" stroke="#000" fill="#fff"/>
  <path d="M491.65 188.413c-.306.457-.418.44-.983.816-.696.462-.853 1.786.314 1.629.807-.108 1.278-.588 1.597-.0C2C15CA27" fill="#cf6200"/>
  <path d="M493.668 209.59c-.381.861-.39.776-1.633.852-1.243.081-2.808.292-3.495 1.014-.372.386-2.52.49-2.525 1023B481A8D" fill="#ff0"/>
  <path d="M486.131 222.242c1.337.117 2.504.525 1.4.817-1.108.292-1.691.933-.296 1.05 1.4.116 2.566.641 1.516.909E2696A8C" fill="#cf6200"/>
  <path d="M500.308 229.466c-6.37 2.584-10.965 1.436-14.423-.857 1.43-.49 3.041-.072 3.58-.018.583.058 2.39.467042C5F4A66" fill="#ff0"/>
  <path d="M484.427 200.168c-1.104-.736-2.176-.31-2.176 1.09s-.7 1.786-1.633 2.252c-.929.467-1.786 1.633-1.943 0C8556FA81" fill="#cf6200"/>
  <path d="M484.427 199.046c-.727-.283-1.162 1.243-.153 1.476s1.166-1.09.153-1.476zm-.18 1.974c-.772.094-1.633 057D290A94"/>
  <path d="M479.85 205.283c-.793.399-.291 1.458.875.7s1.109-1.692-.874-.7zm.988.987c-.794.399-.292 1.458.874.7s1.108-1.692-.874-.7z"/>
  <path d="M479.447 206.673c-.794.4-.292 1.459.875.7s1.108-1.691-.875-.7zm.897 1.122c-.798.4-.292 1.458.87.7 1.167-.758 1.109-1.691-.87-.7z"/>
  <path d="M478.998 208.468c-.794.395-.291 1.454.875.696s1.108-1.687-.875-.696z"/>
  <path d="M479.088 209.5c-.794.4-.292 1.458.875.7s1.108-1.691-.875-.7z"/>
  <path d="M478.46 219.326c-.803.103-1.32 1.247-.31 1.48s1.243.31 1.243 1.086.314 1.867 1.4 1.943c1.09.08 2.0230DE7CB5A68" fill="#cf6200"/>
  <path d="M507.082 212.64c.143.18.323.378.53.553.757.641 2.215 0 2.04-.525s-.991-2.217.875-.817 8.569 5.833 1008FA05DA02" fill="#ff0"/>
  <path d="M564.909 403.64c-1.454.991-3.378 2.741-2.1 5.186.153-.08.297-.175.445-.26 5.702-6.9 10.582-14.156 140155514AF3" fill="#00d860"/>
  <path d="M375.97 628.41c-.384-.335-.481-.13-.325.078s.039.312-.299.364-.845.117-1.053.117-.454.286.039.26c.490B6DD52A60" transform="matrix(4.4862 0 0 4.4867 -1190.9 -2609)" stroke-width=".138" stroke="#000"/>
  <path d="M482.049 187.515c-2.849-1.87-6.101 2.05-2.952 4.2 2.759 1.884 5.675-2.41 2.952-4.2z"/>
  <path d="M478.505 189.22l.843.059c-.175.87.7 2.185 2.041 1.861-1.076.817-3.176-.116-2.884-1.92zm11.035 42.49c09AAA21A62" fill="#fff"/>
  <path d="M399.67 640.77c-.046 16.332-2.623 33.927-23.764 42.308-21.142-8.381-23.719-25.976-23.765-42.308h47.50D91112A9C" transform="matrix(4.4862 0 0 4.4867 -1190.9 -2609)" stroke="#000" stroke-width=".275" fill="none"/>
</svg>
