<svg xmlns="http://www.w3.org/2000/svg" height="480" width="640" id="flag-icon-css-si">
  <defs>
    <clipPath id="a">
      <path fill-opacity=".67" d="M-15.067 0h682.67v512h-682.67z"/>
    </clipPath>
  </defs>
  <g fill-rule="evenodd" clip-path="url(#a)" transform="translate(14.125) scale(.9375)" stroke-width="1pt">
    <path fill="#fff" d="M-62 0H962v512H-62z"/>
    <path fill="#de2918" d="M-62 341.33H962V512H-62z"/>
    <path fill="#08399c" d="M-62 170.67H962v170.67H-62z"/>
    <path d="M228.37 92.976c-4.02 61.651-6.322 95.436-15.709 111.07-10.15 16.789-20.025 29.081-59.63 43.882-39.610650C78A78" fill="#de2918"/>
    <path d="M222.6 90.955c-3.802 61.518-6.983 89.69-11.943 103.24-9.626 23.193-24.866 35.909-57.665 48.038-32.8-02C7CFAA9D" fill="#08399c"/>
    <path d="M152.96 109.79l1.573 3.723 6.91.947-4.478 2.7 4.33 2.894-6.298 1.055-1.916 3.374-2.156-3.474-5.995-.85 4.08-2.958-4.2-2.691 6.635-1.017 1.515-3.703z" fill="#fc0"/>
    <path d="M208.28 179.62l-3.83-3.028-2.769-4.554-5.422-4.704-2.826-4.753-5.423-4.852-2.653-4.753-2.883-2.327-1021FDC8A23" fill="#fff"/>
    <path d="M169.45 83.89l1.573 3.723 6.91.947-4.478 2.7 4.33 2.894-6.298 1.055-1.916 3.374-2.156-3.474-5.995-.800BE438A0D" fill="#fc0"/>
    <path d="M199.72 203.03l-7.468.023-6.892-.513-8.348-4.094-9.409.056-8.149 3.981-6.427.569-6.428-.569-8.148-3.004D1DEA76" fill="#08399c"/>
  </g>
</svg>
