<svg xmlns="http://www.w3.org/2000/svg" xmlns:xlink="http://www.w3.org/1999/xlink" height="480" width="640" id="flag-icon-css-sv">
  <path fill="#0f47af" d="M0 0h640v480H0z"/>
  <path fill="#fff" d="M0 160h640v160H0z"/>
  <g transform="matrix(.8 0 0 .8 -92.698 0)">
    <g fill="#fff" fill-rule="evenodd" stroke="#000" stroke-width=".304">
      <path d="M515.01 353.35c1.52 0 3.167 0 10.11-1.692 6.943-1.65 12.67-5.858 14.015-6.466 1.345-.607 3.297-.434 0411FDFAE2"/>
      <path d="M488.37 347.44c.737-.433-.174-1.648-.174-1.648l2.734-.608c-1.345-.607-3.34-.434-3.34-.434-.522.434-.0075560A6F"/>
      <path d="M490.92 345.19l-2.734.608s.91 1.215.174 1.648l4.816-.91s-.737-.522-2.256-1.346zm50.77 2.25c-.737-.430A73116A73"/>
      <path d="M539.13 345.19l2.69.608s-.867 1.215-.13 1.648l-4.816-.91s.737-.522 2.256-1.346z"/>
    </g>
    <path d="M495.843 343.31l-1.22 3.03.564.22c.91.39 1.817.185 2.25-.813.39-1.042-.133-1.808-1-2.156l-.594-.28zm0B0512FA5B"/>
    <path fill-rule="evenodd" d="M497.563 347.618l-.348-.135 1.346-2.988.348.135-1.345 2.988z"/>
    <path d="M500.213 345.28c-.634.016-1.238.443-1.53 1.094-.392.868-.013 1.796.81 2.187.825.35 1.8-.025 2.19-.930EBBE89A98"/>
    <path d="M503.81 347.36c-.043-.216-.13-.39-.346-.477-.216-.087-.564 0-.65.26-.088.26.086.48.216.608l.218.175c075EA7EAEE" fill-rule="evenodd"/>
    <path d="M514.183 348.88c-.91-.043-1.644.683-1.687 1.594-.044 1 .65 1.738 1.562 1.78.868.044 1.644-.625 1.6880DD8021A00"/>
    <path d="M519.083 352.136l-2.517-2.347.174 2.43h-.39l-.26-3.382 2.516 2.336-.174-2.388.39-.04zm2.04-.486l-.60067207FA2C" fill-rule="evenodd"/>
    <path d="M523.873 347.72c-.136.007-.265.03-.406.063l-.344.125.875 3.125.688-.157c.52-.173.954-.567.78-1.22-.00B1F00AA8A"/>
    <path d="M527.24 347.97l.13.34-1.172.393.39 1.17 1.216-.436.13.393-1.562.528-1.085-3.08 1.606-.57.087.34-1.215.435.303.87z" fill-rule="evenodd"/>
    <path d="M528.623 346.19c-.304-.043-.552.026-.812.156l-.437.188 1.22 3.03.343-.124-.47-1.313.126-.03 1.344.900A46A19AA8"/>
    <path d="M529.237 345.757l1.696-.745.165.31-.693.3 1.22 2.647-.35.175-1.21-2.647-.652.3z" fill-rule="evenodd"/>
    <path d="M532.213 344.19l.22 3.72.405-.22-.062-.844 1.28-.656.688.563.344-.22-2.875-2.343zm.438.875l1 .813-.90EAA260AD5"/>
    <g id="a" stroke-miterlimit="2.613" stroke="#000">
      <path d="M485.07 355.17c.52 0 .91-.39.91-.912 0-.478-.39-.867-.91-.867-.477 0-.91.39-.91.868 0 .52.433.912.910907F2FA6C" fill="#e60000" fill-rule="evenodd" stroke-width=".13"/>
      <path d="M485.93 358.9s-.737-3.167-.608-3.904l.782-.608m-1.384 5.722s-2.82.13-3.73.434c0 0 0 .174-.304.782M467.28 345.8s-.174-3.775.608-4.08c0 0 .737-.302 1.17-.91m-4.648 3.77s-2.126-.305-2.734 0c0 0-.13.607-.608.78m-.728-22.91l-.737.434c-.78.303-2.256 3.948-2.256 3.948s-2.43-1.823-3.47-1.997h-1.086m-4.821-20.175s.608.608 1.215.304c0 0 2.994 1.953 3.167 2.734 0 0 3.168-3.167 3.775-2.864 0 0 .303.434.91-.174m-5.727-18.52s.304.433.867.737c0 0 1.39 1.996 1.39 3.47 0 0 2.56-2.255 3.296-2.08 0 0 .91.302 1.518 0m.309-19.437s.607.737 1.04.13c0 0 1.823 2.256.738 3.95 0 0 2.56-.608 3.34-.175 0 0 .304 1.04 1.216.434" fill="none" stroke-width=".26"/>
      <g fill="#1f601a" fill-rule="evenodd" stroke-width=".26">
        <path d="M532.79 378.34s-3.904-.303-4.512-.303c-.608 0-1.953-2.69-2.56-3.167-.608-.434-10.848-5.424-17.486-6.0AE50F3A1E"/>
        <path d="M464.11 343.41c.304-1.39.433-2.43.91-2.864.434-.478 1.954-2.3 2.257-3.47.304-1.216 0-2.127 0-2.735 002D8BC7A67"/>
        <path d="M463.63 341.89s-3.427-4.382-3.427-6.205c0-1.78-.303-2.864-.607-3.297-.304-.433-2.256-2.733-.477-5.5507D125FA2B"/>
        <path d="M506.24 367.53s-7.29-3.254-8.027-3.862c-.78-.564-1.996-1.736-2.778-2.56-.737-.825-3.818-2.387-4.338-03D1EA3AFC"/>
        <path d="M510.19 368.45s-6.03-1.562-8.765-5.294c-1.953-2.56-1.953-1.778-2.777-2.647-.997-1.085-2.56-2.256-3.80E43EF3AB9"/>
        <path d="M504.03 366.45s-5.728-1.432-6.682-1.432c-.955 0-3.688.174-4.816.39-1.085.175-4.512-.173-5.51.348-1.0056D28DAF7"/>
        <path d="M508.71 368.84s-5.727-2.387-10.197-1.173c-3.08.87-2.994.74-4.208.956-1.432.217-2.647-.52-4.99.433-1.0A17DECA84"/>
        <path d="M481.25 357.21s-5.598-3.947-6.465-4.382c-.868-.39-2.473-.954-3.514-1.3-1.084-.305-3.904-2.345-5.032-07CA165A56"/>
        <path d="M482.59 358.25s-2.3-1.52-6.855-2.3c-3.123-.565-2.994-.695-4.165-.998-1.388-.434-1.692-.434-4.252-.560FCA7E0A4E"/>
        <path d="M482.59 358.25c.347.173-1.91-1.736-2.994-2.214-1.04-.434-5.25-1.65-5.554-2.69-.303-1.085-3.775-4.68607EBD59AC8"/>
        <path d="M464.11 343.41s-3.905-2.734-4.816-2.603c-.91.173-5.163-2.995-5.423-4.947-.173-1.04-2.21-2.516-2.56-305BF998A70"/>
        <path d="M456.86 323.49s-.304-1.953.477-2.69c.737-.782 1.475-.782 1.78-1.215.302-.478.172-1.042.476-1.65.304-099FE65AB1"/>
        <path d="M452.48 302.84s0-3.123.91-4.034c.912-.91 1.39-1.39 1.824-1.954.433-.606.91-2.125 1.952-2.733 1.04-.606B3915A21"/>
        <path d="M455.65 322.15s-2.082-2.56-3.167-2.56c-1.04 0-3.73-2.735-3.905-3.905-.13-1.215-1.04-3.47-1.65-3.948-0F9E629A45"/>
        <path d="M452.57 304.32s-1.215-2.908-2.17-3.167c-.954-.304-2.516-2.777-2.603-3.905-.13-1.302-.303-3.47-.737-40E4ED3BAC2"/>
        <path d="M454.78 284.79s-.173-1.78-.173-2.56c0-.91-.564-3.34.738-5.294.91-1.345 4.252-3.905 5.12-4.035 0 0 .600AD5E1A11"/>
        <path d="M454 286.14c-.39.65-.13-2.256-1.04-2.994-.912-.78-1.042-1.822-1.042-3.038 0-1.215.26-2.082.433-2.863086DBECAE6"/>
        <path d="M462.46 270.3c.347 1.04 2.864-1.04 3.427-1.778l1.52-1.953s1.432-1.736 1.823-2.43c.91-1.65.694-4.643.0F076C8AEF"/>
        <path d="M461.55 270.3s2.083-1.475 2.864-2.256c.91-.867.433-2.082.91-2.69.39-.565 1.476-1.953 1.172-2.864-.300F079B9AAD"/>
      </g>
      <g fill="none" stroke-width=".13">
        <path d="M494.83 365.23s-9.936-.13-10.848-1.345m16.578 2.565s-6.465 1.78-9.936 1.345c-3.47-.433-5.12.304-5.902.304-.737 0-4.512-1.52-4.512-1.52m26.98 2.261s-4.99.91-6.03 1.215c-1.042.303-6.162 2.256-7.68 2.256-1.216 0-4.167-.13-4.99 0-1.476.305-5.425 0-6.334-.432m6.214-14.929s3.775 2.257 4.382 2.994c.563.782 3.905 3.47 4.512 3.47m-8.894-11.154s6.465 5.598 7.506 6.335c1.085.78 7.42 6.943 8.158 7.853M493.61 349.87s5.12 4.078 5.728 5.727c.607 1.65 2.126 3.6 2.126 3.6s2.125 4.21 2.864 4.817c.737.607 2.256 2.213 4.078 3.34M464.41 346.1s5.38 4.556 6.855 5.424m-9.105-2.564s5.424 3.774 7.81 4.685c2.43.868 4.382 1.65 9.632 2.387m2.128 2.128s-6.03-.304-7.072 0c-1.04.303-5.728-.782-6.943-1.086-1.215-.26-6.03-1.17-6.638-1.345m11.453-17.919s-.303 3.297.174 4.686c.434 1.345 2.56 5.25 2.386 6.16-.13.912 1.215 4.99 2.43 5.728m1.21-15.964s-1.085 3.297-.607 4.383c.433 1.04 1.17 2.994 1.17 4.208 0 1.215.782 2.995 1.086 3.775.303.738-.175 3.297.606 4.035.737.78 1.65 2.126 1.65 2.126M446.49 330.74s4.816 1.823 5.424 2.994c.565 1.216 1.475 1.52 1.953 2.127m10.373-9.631s1.215 4.816.91 6.03c-.303 1.173-.303 3.602-.303 4.513 0 .912-1.345 4.512-1.215 5.12m-1.342-19.743s-.434 2.864-.607 4.078c-.13 1.172 0 3.167-.304 3.905-.305.737-.74 4.816 0 6.638M449.06 326.23s3.905 3.297 4.816 4.21c.91.91 4.946 5.248 5.12 6.333.13 1.042 2.994 4.34 3.905 5.12M442.42 309.35s3.905 3.905 4.21 4.816c.302.912 1.952 2.386 2.733 2.864M460.77 311s-1.475 2.257-1.475 2.994c0 .782-.607 2.735-1.215 3.47-.39.522-1.65 2.735-1.52 4.08m3.04-16.884s-.607 2.127-.91 3.6c-.305 1.52-1.085 3.04-1.346 3.95-.304.91-1.52 5.25-1.085 7.983M445.89 304.53s.434 2.083 1.475 3.167c1.085 1.042 2.734 2.56 2.864 3.427.173.91 1.518 5.423 3.037 6.943 1.52 1.52 1.65 3.038 1.65 3.038M444.37 289.18s.433 2.56.737 3.297c.304.738 1.52 4.08 2.734 5.12m9.499-7.687s-.78 2.082-.91 2.994c-.175.91-1.085 1.953-1.216 2.43-.173.433-.737 1.952-.737 1.952m5.553-5.296c-.13.91-1.823 3.645-1.953 4.08-.174.475-1.04 2.56-1.952 3.166-.91.607-3.6 2.56-3.47 3.34m-4.385-16.436s-.13 3.297.477 4.512a37.224 37.224 0 0 1 1.65 3.949c.303.868.303 2.387.432 3.428.173 1.084.607 3.037 1.214 3.774M463.81 275.9s-2.17 2.473-3.168 3.47c-.998 1-4.816 5.12-4.99 5.858m4.558-11.588s-2.126 4.642-2.603 5.38c-.435.78-.868 1.996-.868 1.996m-1.959-7.546s.13 3.645 0 4.555c-.173.868-.173 2.387 0 2.864.13.433-.477 3.73-.607 4.51m18.047-21.259s-4.816 2.864-5.554 3.6m2.694-7.375l-3.297 4.816-.738 1.39m.305-6.641s-1.085 2.56-1.215 3.6c-.174 1.086-1.65 4.384-2.256 5.6"/>
        <path d="M469.23 257.98s-.478 1.04 1.345.738" stroke-width=".26"/>
      </g>
    </g>
    <use height="100%" width="100%" xlink:href="#a" transform="matrix(-1 0 0 1 1030.05 0)"/>
    <path d="M514.57 366.14s.737-1.822 2.256-.174c0 0 1.822 4.253.433 4.382-1.346.175-2.69.434-2.82-.303-.174-.737.13-3.905.13-3.905z" fill="#00209f" fill-rule="evenodd"/>
    <path d="M516.52 365.54s.477-6.465 1.345-6.77c.91-.303 3.644-1.822 5.293-.477 1.65 1.39.13 8.07-.477 8.68-.56027DBB1A25" fill="#00209f" fill-rule="evenodd"/>
    <path d="M514.44 370.05s-6.205 3.6-3.038 9.025l-2.125-1.345s-1.172 2.127-.13 3.34c0 0-4.21-3.774-.912-8.287 3.34-4.556 6.03-4.252 6.03-4.252l.175 1.52z" stroke-miterlimit="2.613" fill="#00209f" fill-rule="evenodd" stroke="#000" stroke-width=".174"/>
    <path d="M514.44 367.06s-2.734-1.823-6.64-.782c0 0-1.735-5.596-1.083-7.376.303-.824.91-.91.91-.91s-1.953-1.1709A8DD7A48" stroke-miterlimit="2.613" fill="#00209f" fill-rule="evenodd" stroke="#000" stroke-width=".174"/>
    <path d="M514.44 367.06s-5.424-9.069-6.811-9.069c0 0-1.564-.216 1.95-.606 1.215-.13 3.167 0 4.08 1.692.91 1.65 1.647 5.553 1.95 6.16 0 0-1.04.305-1.17 1.824z" stroke-miterlimit="2.613" fill="#00209f" fill-rule="evenodd" stroke="#000" stroke-width=".174"/>
    <path d="M514.44 367.06s-3.645-1.692-4.08-2.127c-.475-.434-1.214-5.553-.78-5.25 0 0-1.475-1.692-1.95-1.692-.30264D93AEE" stroke-miterlimit="2.613" fill="#011322" fill-rule="evenodd" stroke="#000" stroke-width=".174"/>
    <path d="M517.74 370.05s1.953 1.215 1.953 3.47c0 2.257.91 6.336 2.734 7.247 0 0 .433-1.693 1.04-1.997 0 0 1.80AD27FDA4C" stroke-miterlimit="2.613" fill="#00209f" fill-rule="evenodd" stroke="#000" stroke-width=".174"/>
    <path d="M518.48 359.51l-1.648 6.464.433 1.39s.608-.174.91-.912c.305-.78 1.217-6.335 1.694-6.51l-1.39-.432z" stroke-miterlimit="2.613" fill="#011322" fill-rule="evenodd" stroke="#000" stroke-width=".174"/>
    <path d="M514.35 369.31s-2.95.912-4.078 3.21c0 0-.39-1.475 3.99-3.6l.088.39zm3.48 0s2.04.825 2.56 2.04c0 0-1.0692386AF1" fill="#011d33" fill-rule="evenodd"/>
    <path d="M516.83 365.97s1.865 4.166.433 4.382c-1.388.218.608.175-.347-2.69-.39-1.085-.998-2.43-1.302-2.43 0 0 1.086.392 1.216.738z" fill="#011d33" fill-rule="evenodd"/>
    <path d="M514.57 366.14s.737-1.822 2.256-.174c0 0 1.822 4.253.433 4.382-1.346.175-2.69.434-2.82-.303-.174-.737.13-3.905.13-3.905z" stroke-miterlimit="2.613" fill="none" stroke="#000" stroke-width=".174"/>
    <path d="M516.52 365.54s.477-6.465 1.345-6.77c.91-.303 3.644-1.822 5.293-.477 1.65 1.39.13 8.07-.477 8.68-.56027DBB1A25" stroke-miterlimit="2.613" fill="none" stroke="#000" stroke-width=".174"/>
  </g>
  <g transform="matrix(.8 0 0 .8 -92.698 0)">
    <path d="M509.84 255.9c-.39-.954-.477-7.376-.39-8.374.13-1.736 3.123-10.24 3.73-11.238.652-.997.478-1.215.73807655B5AE5" fill="#00209f" fill-rule="evenodd"/>
    <path d="M515.01 247.35l.478.52c1.345-1.432 1.43-4.425 1.43-4.425l-.867-6.03s-.562 4.078-1.04 5.9c-.433 1.82206EB172A12" fill="#fff" fill-rule="evenodd"/>
    <path d="M515.48 247.87c1.345-1.432 1.43-4.425 1.43-4.425s.956 4.903.435 5.945c-.52 1.04-.52.737-.434 1.258l-1.43-2.778z" fill="#00209f" fill-rule="evenodd"/>
    <path d="M516.91 250.65c-.086-.52-.086-.217.434-1.258.52-1.04-.434-5.945-.434-5.945l-.867-6.03c-.13-1.346-.607-3.04-1.26-4.123l-.866 1.17c-.26.608-.086.825-.737 1.824-.607.998-3.602 9.502-3.732 11.238-.086.998 0 7.42.39 8.374" stroke-miterlimit="2.613" fill="none" stroke="#000" stroke-width=".26"/>
    <path d="M515.01 234.11s-.087-.954-.174-1.302c-.043-.173.52.868.998.737.868.26 1.823 1.432 2.083 1.736-.39.560DFF4BFA45" stroke-miterlimit="2.613" fill="#fc0" fill-rule="evenodd" stroke="#000" stroke-width=".13"/>
    <path d="M515.05 233.33c.043.043.303.347.347.39.216.13.434 0 .694.175.65.433.87.824 1.563 1.518" stroke-miterlimit="2.613" fill="none" stroke="#000" stroke-width=".13"/>
    <path d="M515.66 233.99c.824.39 1.258 1.04 1.823 1.735 0 0 .043-.087 0-.087" stroke-miterlimit="2.613" fill="none" stroke="#000" stroke-width=".13"/>
    <path d="M514.09 233.42s.867-.433 1.17-.607c.175-.087-.65.78-.345 1.17.043.912-.694 2.214-.954 2.56-.65-.172-095CAE8AAA" stroke-miterlimit="2.613" fill="#fc0" fill-rule="evenodd" stroke="#000" stroke-width=".13"/>
    <path d="M514.87 233.16c-.043.087-.26.39-.26.52-.043.217.13.39.087.694-.173.737-.477 1.084-.867 1.995" stroke-miterlimit="2.613" fill="none" stroke="#000" stroke-width=".13"/>
    <path d="M514.44 233.99c-.087.91-.52 1.518-.998 2.3 0-.044.13 0 .13 0" stroke-miterlimit="2.613" fill="none" stroke="#000" stroke-width=".13"/>
    <path d="M515.44 232.81c.607-.737 1.692-1.39 2.213-.954.043.043.476.303.607.563.26.303.217.433.086.78-.39.78-017F533A0D" stroke-miterlimit="2.613" fill="#fc0" fill-rule="evenodd" stroke="#000" stroke-width=".13"/>
    <path d="M514.87 232.81c-.563-.737-1.65-1.39-2.17-.954-.043.043-.477.303-.606.563-.26.26-.26.433-.087.78.347.0C5B73FA49" stroke-miterlimit="2.613" fill="#fc0" fill-rule="evenodd" stroke="#000" stroke-width=".13"/>
    <path d="M515.09 232.38c-.26-.087-.563.173-.65.346-.087.217.086.564.346.607.347.13.824.044.91-.346.088-.347-.302-.434-.606-.607z" stroke-miterlimit="2.613" fill="#fc0" fill-rule="evenodd" stroke="#000" stroke-width=".13"/>
    <path d="M515.05 226.35s.39 2.344 1.562 4.035c1.172 1.692-1.432 1.476-1.606 2.083 0 0-.78-1.692-1.605-2.126 0 0 1.303-2.04 1.65-3.949v-.043z" fill="#fc0" fill-rule="evenodd"/>
    <path d="M515.05 226.35s.39 2.344 1.562 4.035c0 0-1.432 1.476-1.606 2.083 0 0-.78-1.692-1.605-2.126 0 0 1.303-2.04 1.65-3.949" stroke-miterlimit="2.613" fill="none" stroke="#000" stroke-width=".13"/>
    <path d="M515.01 228.82s.303 1.04.65 1.736c0 0-.563.434-.65.694 0 0-.303-.694-.607-.868 0 0 .564-.91.607-1.562z" stroke-miterlimit="2.613" fill="none" stroke="#000" stroke-width=".13"/>
    <path d="M515.01 344.54c-.087 0-.217-.175-.346-.218-.39-.26-1.128-.26-1.302-.477-1.04-1.17-.347-3.427.086-4.80E9CB84AC9" fill="#fff" fill-rule="evenodd"/>
    <path d="M515.01 331.48c.565 2.473.737 4.99 1.562 7.593.434 1.302 1.085 3.384.304 4.556v-.045c.39 0 .737-.13 0675EA2AC0" fill="#00209f" fill-rule="evenodd"/>
    <g id="b" stroke-miterlimit="2.613" fill="none" stroke-width=".174">
      <path d="M514.27 331.57s-.998 4.078-1.562 5.12c-.607 1.04-2.95 2.95-1.432 5.9" stroke="#011322"/>
      <path d="M514.35 331.57s-.954 4.12-1.562 5.162c-.608 1.086-2.908 3.038-1.345 5.99" stroke="#011d33"/>
      <path d="M514.48 331.57s-.998 4.165-1.606 5.25c-.563 1.04-2.864 3.08-1.258 6.03" stroke="#022743"/>
      <path d="M514.57 331.57s-.954 4.252-1.562 5.293c-.607 1.042-2.864 3.123-1.26 6.16" stroke="#033054"/>
      <path d="M514.7 331.57s-.998 4.295-1.606 5.38c-.607 1.042-2.82 3.166-1.17 6.204" stroke="#053a65"/>
      <path d="M514.18 331.57s-.954 3.947-1.606 5.077c-.607 1.084-2.95 2.994-1.388 5.9" stroke="#011d33"/>
      <path d="M514.05 331.61s-.91 3.774-1.605 5.033c-.608 1.04-2.95 2.95-1.388 5.857" stroke="#022743"/>
      <path d="M513.96 331.61s-.91 3.645-1.648 4.99c-.565 1.04-2.95 2.95-1.39 5.9" stroke="#033054"/>
      <path d="M513.83 331.61s-.824 3.557-1.65 4.946c-.563 1.085-2.905 2.95-1.387 5.9" stroke="#053a65"/>
      <path d="M513.75 331.65s-.824 3.383-1.65 4.903c-.606 1.04-2.95 2.95-1.388 5.857" stroke="#00209f"/>
      <path d="M514.79 331.57s-.954 4.382-1.562 5.423c-.607 1.042-2.777 3.254-1.172 6.335" stroke="#00209f"/>
    </g>
    <use height="100%" width="100%" xlink:href="#b" transform="matrix(-1 0 0 1 1030.05 0)"/>
    <path d="M518.65 335.17c.13.174.347.304.434.478.087.173.217.347.304.52.13.174.217.348.304.564.173.39.433.738.607 1.13l.52 1.17c.087.26.217.478.26.78a2.46 2.46 0 0 1-.086 1.26c-.217.564-.738.868-1.258 1.13-.044 0-.087.085-.174.172-.26.174-.565.044-.825.217a1.86 1.86 0 0 0-.478.52c-.044.132-.174.175-.304.22-.347.13-.695.26-1.084.26v.043-.044c-.044.086-.13.173-.174.26-.217.217-.91.217-1.302.476-.13.044-.26.218-.39.218-.088 0-.218-.174-.347-.218-.392-.26-1.13-.26-1.303-.476-.087-.087-.13-.174-.173-.26v.043l-.044-.044h.044c-.39 0-.738-.13-1.128-.26-.087-.045-.218-.088-.304-.22-.13-.215-.26-.388-.477-.52-.217-.172-.52-.042-.78-.216-.088-.087-.13-.173-.217-.173-.52-.26-.997-.564-1.215-1.127a2.46 2.46 0 0 1-.087-1.26c.044-.303.173-.52.26-.78.175-.39.347-.782.52-1.172.175-.39.39-.737.608-1.128.087-.216.174-.39.304-.563.087-.175.173-.35.303-.522.088-.174.305-.304.435-.478" stroke-miterlimit="2.613" fill="none" stroke="#000" stroke-width=".174"/>
    <g id="c">
      <g fill-rule="evenodd">
        <path d="M487.37 293.56c-1.475-3.688-3.038-11.238-2.95-12.973.302-7.115.216-9.24.867-16.53l7.332 8.374c-.174 0BAD2DAA96" fill="#fff"/>
        <path d="M493.61 283.01c-.52-1.258-.91-4.47-.998-5.12-.217-1.778-.173-2.647 0-5.466l4.512 4.99-3.514 5.596zm-067C438A9A" fill="#00209f"/>
        <path d="M497.74 331.48h13.885c-.043.695-.304 1.04-.608 1.475-.824 1.128-2.17 1.476-3.514 1.78-1.432.346-2.900E29049A62" fill="#00209f"/>
        <path d="M497.74 331.48c1.258.65 1.866 1.736 5.337 2.82 1.345 0 2.82.608 4.08.565-1.52.347-1.563.564-2.822.8606A7098AB6" fill="#fff"/>
      </g>
      <g stroke-miterlimit="2.613" fill="none" stroke-width=".174">
        <path d="M476.65 259.71s1.692 14.97 7.506 14.406" stroke="#022743"/>
        <path d="M484.16 274.03c-2.907.13-4.816-3.558-5.9-7.03-1.13-3.556-1.606-7.288-1.606-7.33" stroke="#022847"/>
        <path d="M484.16 273.99c-2.907-.087-4.816-3.817-5.814-7.072-1.17-3.427-1.692-7.246-1.692-7.29" stroke="#032b4c"/>
        <path d="M484.2 273.95c-2.907-.26-4.86-4.078-5.814-7.115-1.128-3.34-1.692-7.16-1.736-7.246" stroke="#032d4f"/>
        <path d="M484.2 273.9c-2.907-.477-4.86-4.382-5.77-7.16-1.128-3.253-1.736-7.114-1.78-7.245" stroke="#032f53"/>
        <path d="M484.24 273.82c-2.95-.607-4.903-4.6-5.727-7.16-1.128-3.166-1.823-7.07-1.866-7.2" stroke="#043258"/>
        <path d="M484.24 273.77c-2.907-.824-4.903-4.86-5.684-7.202-1.128-3.08-1.866-6.985-1.866-7.16" stroke="#04345b"/>
        <path d="M484.29 273.73c-2.95-.998-4.946-5.12-5.684-7.29-1.085-2.906-1.91-6.897-1.91-7.07" stroke="#04365e"/>
        <path d="M484.29 273.69c-2.95-1.215-4.946-5.38-5.598-7.333-1.128-2.82-1.952-6.81-1.995-7.072" stroke="#043862"/>
        <path d="M484.29 273.6c-2.907-1.345-4.946-5.64-5.554-7.333-1.128-2.733-1.996-6.77-2.04-7.028" stroke="#053b67"/>
        <path d="M484.33 273.55c-2.95-1.52-4.99-5.9-5.554-7.376-1.085-2.647-2.04-6.682-2.083-6.985" stroke="#053d6a"/>
        <path d="M484.33 273.51c-2.95-1.736-4.99-6.16-5.467-7.42-1.128-2.56-2.126-6.638-2.17-6.94" stroke="#053f6e"/>
        <path d="M484.37 273.47c-2.95-1.91-5.033-6.42-5.467-7.506-1.085-2.387-2.126-6.552-2.213-6.9" stroke="#064172"/>
        <path d="M476.69 259.02c.087.39 1.17 4.555 2.256 6.855.39.824 2.473 5.424 5.424 7.506" stroke="#00209f"/>
        <path d="M476.87 256.33s4.86 11.89 7.94 10.544" stroke="#022743"/>
        <path d="M484.81 266.87c-1.345.563-3.34-1.823-4.946-4.6a65.147 65.147 0 0 1-2.994-5.987" stroke="#022a49"/>
        <path d="M484.81 266.83c-1.17.52-3.254-1.78-4.903-4.642a85.93 85.93 0 0 1-3.037-5.944" stroke="#032d4f"/>
        <path d="M484.81 266.79c-.998.433-3.167-1.736-4.86-4.686-1.866-3.34-3.037-5.9-3.037-5.9" stroke="#033054"/>
        <path d="M484.81 266.79c-.824.347-3.123-1.736-4.773-4.773-1.952-3.47-3.123-5.857-3.123-5.857" stroke="#043359"/>
        <path d="M484.85 266.74c-.694.304-3.08-1.692-4.773-4.816-1.995-3.645-3.123-5.857-3.123-5.857" stroke="#043760"/>
        <path d="M484.85 266.74c-.52.217-2.994-1.692-4.73-4.903a749.464 749.464 0 0 0-3.166-5.815" stroke="#053a65"/>
        <path d="M484.85 266.7c-.346.174-2.907-1.65-4.686-4.946-2.125-3.95-3.167-5.772-3.167-5.772" stroke="#053d6a"/>
        <path d="M484.85 266.7c-.173.043-2.82-1.65-4.642-4.99-2.17-4.122-3.212-5.77-3.212-5.77" stroke="#064171"/>
        <path d="M477 255.9s1.04 1.432 3.254 5.727c1.823 3.427 4.6 5.033 4.6 5.033m8.026 12.06l3.77-.7m-4.03-3.16l4.08 2.21" stroke="#00209f"/>
        <path d="M492.53 275.03l4.17 2.04" stroke="#064171"/>
        <path d="M492.53 275.2l4.21 1.91" stroke="#053e6c"/>
        <path d="M492.53 275.42l4.21 1.74" stroke="#053b67"/>
        <path d="M492.57 275.59l4.21 1.61" stroke="#043862"/>
        <path d="M492.57 275.77l4.26 1.43" stroke="#04355c"/>
        <path d="M492.57 275.94l4.3 1.3" stroke="#043258"/>
        <path d="M492.57 276.11l4.34 1.18" stroke="#032f53"/>
        <path d="M492.57 276.33l4.39 1" stroke="#032c4d"/>
        <path d="M492.57 276.51l4.43.86" stroke="#022a49"/>
        <path d="M492.83 278.54l3.87-.56" stroke="#064171"/>
        <path d="M492.83 278.33l3.91-.44" stroke="#053e6c"/>
        <path d="M492.79 278.11l3.99-.26" stroke="#053b67"/>
        <path d="M492.79 277.94l4.04-.13" stroke="#043862"/>
        <path d="M492.75 277.72h4.12" stroke="#04355c"/>
        <path d="M492.75 277.5l4.16.18" stroke="#043258"/>
        <path d="M492.75 277.33l4.21.26" stroke="#032f53"/>
        <path d="M492.7 277.11l4.34.44" stroke="#032c4d"/>
        <path d="M492.7 276.9l4.39.6" stroke="#022a49"/>
        <path d="M492.66 276.72l4.47.7M474.96 277.81s.217 3.167.91 4.512c1 1.866 3.906 4.73 7.247 6.813" stroke="#022743"/>
        <path d="M483.2 289.13c-2.17-1.39-4.12-3.123-5.466-4.642a13.738 13.738 0 0 1-1.736-2.256c-.694-1.39-.998-4.512-.998-4.512" stroke="#022847"/>
        <path d="M483.29 289.13c-2.17-1.39-4.122-3.254-5.424-4.73-.737-.78-1.345-1.56-1.69-2.3-.782-1.387-1.173-4.467-1.173-4.467" stroke="#032b4c"/>
        <path d="M483.33 289.13c-2.126-1.432-4.078-3.384-5.337-4.773-.694-.78-1.302-1.605-1.692-2.343-.824-1.475-1.3-4.468-1.3-4.468" stroke="#032d4f"/>
        <path d="M483.42 289.09c-2.126-1.432-4.078-3.427-5.337-4.816a13.6 13.6 0 0 1-1.65-2.343c-.867-1.518-1.43-4.467-1.43-4.467" stroke="#032f53"/>
        <path d="M483.5 289.09c-2.126-1.432-4.035-3.558-5.294-4.903-.607-.694-1.215-1.52-1.65-2.343-.91-1.562-1.518-4.468-1.518-4.468" stroke="#043258"/>
        <path d="M483.59 289.09c-2.126-1.475-4.035-3.688-5.25-4.99a15.13 15.13 0 0 1-1.65-2.343c-.954-1.65-1.648-4.468-1.648-4.468" stroke="#04345b"/>
        <path d="M483.63 289.09c-2.04-1.52-3.992-3.818-5.163-5.077a13.94 13.94 0 0 1-1.65-2.342c-.997-1.692-1.78-4.47-1.78-4.47" stroke="#04365e"/>
        <path d="M483.72 289.05c-2.04-1.475-3.992-3.862-5.12-5.12-.563-.608-1.128-1.475-1.65-2.343-1.04-1.736-1.908-4.47-1.908-4.47" stroke="#043862"/>
        <path d="M483.81 289.05c-2.04-1.52-3.992-3.992-5.077-5.207-.52-.564-1.128-1.432-1.65-2.343-1.083-1.822-1.994-4.47-1.994-4.47" stroke="#053b67"/>
        <path d="M483.85 289.05c-1.996-1.52-3.905-4.122-4.99-5.294-.52-.564-1.084-1.432-1.65-2.343-1.083-1.865-2.124-4.468-2.124-4.468" stroke="#053d6a"/>
        <path d="M483.94 289.05c-1.996-1.562-3.905-4.21-4.946-5.337-.477-.565-1.085-1.432-1.65-2.386-1.127-1.91-2.255-4.47-2.255-4.47" stroke="#053f6e"/>
        <path d="M484.03 289c-1.996-1.562-3.905-4.295-4.903-5.38-.478-.52-1.04-1.432-1.606-2.387-1.214-1.996-2.428-4.468-2.428-4.468" stroke="#064172"/>
        <path d="M475.09 276.68s2.82 5.337 4.166 6.855c.954 1.04 2.864 3.905 4.86 5.467" stroke="#00209f"/>
        <g>
          <path d="M475.17 289.91c3.08 2.04 3.862 2.56 10.24 6.638l1.952-2.994s-.737-1.78-1.04-2.604" stroke="#011d33"/>
          <path d="M475.22 289.87c2.95 1.996 3.947 2.647 10.195 6.55l.087-.085c0-.043 1.735-2.907 1.735-2.907s-.087-.347-.303-.78c-.217-.564-.478-1.216-.608-1.692" stroke="#011e34"/>
          <path d="M475.22 289.87c2.864 1.91 4.122 2.734 10.195 6.465l.087-.13c0-.087 1.648-2.908 1.648-2.908s-.087-.303-.26-.737a18.13 18.13 0 0 1-.564-1.604" stroke="#022037"/>
          <path d="M475.22 289.87c2.777 1.822 4.295 2.777 10.195 6.335l.087-.13c0-.087 1.56-2.864 1.518-2.864 0 0-.044-.303-.216-.694-.174-.52-.39-1.128-.52-1.56" stroke="#022139"/>
          <path d="M475.22 289.83c2.69 1.778 4.47 2.864 10.195 6.248l.087-.13c0-.13 1.432-2.864 1.432-2.864s0-.26-.174-.652a8.23 8.23 0 0 1-.477-1.474" stroke="#02223b"/>
          <path d="M475.26 289.83c2.56 1.692 4.6 2.95 10.152 6.118.043 0 .087-.13.087-.13 0-.174 1.344-2.82 1.344-2.865-.043 0 0-.217-.174-.606a9.618 9.618 0 0 1-.39-1.39" stroke="#02233d"/>
          <path d="M475.26 289.78c2.473 1.65 4.773 3.038 10.197 6.03 0 0 .043-.13.087-.13 0-.215 1.215-2.82 1.17-2.82 0 0 .045-.217-.086-.607-.173-.433-.304-.867-.347-1.3" stroke="#022540"/>
          <path d="M475.26 289.78c2.386 1.606 4.946 3.08 10.197 5.9l.087-.13c0-.216 1.085-2.777 1.085-2.82 0 0 .085-.174-.088-.52a4.8 4.8 0 0 1-.304-1.26" stroke="#022541"/>
          <path d="M475.26 289.78c2.3 1.52 5.12 3.167 10.197 5.814 0-.044.087-.173.087-.173 0-.26.998-2.776.954-2.82 0 0 .13-.13 0-.476-.173-.434-.217-.78-.26-1.17" stroke="#022743"/>
          <path d="M475.3 289.74c2.17 1.475 5.25 3.254 10.153 5.728 0-.044.087-.13.087-.174 0-.304.867-2.777.867-2.777s.13-.13 0-.477c-.173-.39-.173-.693-.173-1.084" stroke="#022847"/>
          <path d="M475.3 289.74c2.082 1.39 5.38 3.34 10.153 5.598a.33.33 0 0 0 .087-.174c0-.346.78-2.734.737-2.777 0 0 .217-.13.087-.433-.174-.39-.13-.607-.13-.998" stroke="#022a49"/>
          <path d="M475.3 289.74c1.996 1.302 5.553 3.384 10.153 5.467.043-.043.087-.13.13-.173-.043-.348.65-2.734.607-2.734 0-.043.217-.13.087-.433-.13-.348-.087-.52-.087-.91" stroke="#032a4a"/>
          <path d="M475.35 289.7c1.865 1.258 5.684 3.47 10.11 5.38.043-.043.087-.13.13-.172 0-.39.52-2.69.477-2.734 0 0 .26-.087.173-.346-.173-.348-.087-.478-.044-.868" stroke="#032b4c"/>
          <path d="M475.35 289.7c1.778 1.17 5.857 3.558 10.11 5.25.043 0 .13-.13.13-.173 0-.434.433-2.69.39-2.734 0 0 .303-.044.173-.303-.13-.348 0-.39.043-.78" stroke="#032d4f"/>
          <path d="M475.35 289.7c1.692 1.085 6.03 3.6 10.153 5.163 0-.043.087-.173.087-.217 0-.433.346-2.647.303-2.69h-.044s.346-.043.26-.304c-.13-.303 0-.303.086-.694" stroke="#032e50"/>
          <path d="M475.35 289.65c1.605 1.085 6.205 3.688 10.153 5.077a.455.455 0 0 0 .087-.216c0-.476.216-2.646.173-2.69l.26-.26c-.13-.26.044-.26.173-.607" stroke="#032f53"/>
          <path d="M475.39 289.65c1.475.998 6.334 3.775 10.11 4.946a.46.46 0 0 0 .087-.217c0-.52.13-2.648.086-2.69 0 0 .39.042.304-.174-.13-.304.086-.217.172-.563" stroke="#033156"/>
          <path d="M475.39 289.61c1.39.954 6.508 3.862 10.11 4.86.043-.044.087-.174.13-.218 0-.563-.044-2.603-.087-2.647 0 0 .434.044.347-.172-.087-.26.13-.13.26-.477" stroke="#043258"/>
          <path d="M475.39 289.61c1.302.867 6.68 3.905 10.11 4.73.043-.044.087-.174.13-.218 0-.563-.13-2.603-.173-2.647 0 0 .433.086.39-.13-.13-.217.13-.043.302-.39" stroke="#043359"/>
          <path d="M475.39 289.61c1.215.78 6.811 3.992 10.11 4.6.043-.044.13-.13.13-.217 0-.608-.218-2.56-.305-2.647 0 0 .52.13.435-.087-.087-.218.217.043.39-.304" stroke="#04355c"/>
          <path d="M475.43 289.57c1.085.737 6.942 4.08 10.066 4.555.043-.085.13-.172.13-.26 0-.65-.347-2.56-.39-2.603 0 0 .52.087.433-.043-.045-.218.26.086.433-.26" stroke="#04365e"/>
          <path d="M475.43 289.57c.998.65 7.115 4.166 10.066 4.426.087-.087.13-.173.13-.26 0-.65-.434-2.517-.52-2.604 0 0 .563.13.52 0-.087-.172.303.13.477-.172" stroke="#043760"/>
          <path d="M475.43 289.57c.91.565 7.29 4.208 10.11 4.296l.13-.26c-.044-.694-.564-2.517-.65-2.604 0 0 .606.174.52.043-.043-.172.346.217.563-.085" stroke="#043862"/>
          <path d="M475.48 289.52c.782.52 7.42 4.296 10.066 4.21.043-.044.086-.175.13-.26 0-.74-.695-2.518-.738-2.56h-.043s.65.17.608.042c-.044-.13.346.303.607 0" stroke="#053a65"/>
          <path d="M475.48 289.52c.695.478 7.593 4.383 10.066 4.08.043-.045.13-.175.13-.262 0-.78-.78-2.473-.868-2.56 0 0 .65.216.607.13-.044-.13.434.347.694.044" stroke="#053b67"/>
          <path d="M475.48 289.52c.607.39 7.767 4.426 10.066 3.949.043-.045.13-.175.13-.26 0-.783-.868-2.474-.955-2.518v-.043s.695.26.65.173c-.042-.13.436.433.696.13" stroke="#053c68"/>
          <path d="M475.48 289.48c.52.347 7.94 4.513 10.066 3.905a.47.47 0 0 0 .13-.303c0-.824-.998-2.43-1.085-2.516 0 0 .738.26.694.173-.043-.088.477.52.78.216" stroke="#053e6c"/>
          <path d="M475.52 289.48c.39.26 8.07 4.6 10.023 3.775.086-.087.13-.217.173-.304-.044-.867-1.128-2.43-1.215-2.516 0 0 .738.304.738.217-.043-.042.52.608.824.305" stroke="#053f6e"/>
          <path d="M475.52 289.48c.304.174 8.2 4.642 10.023 3.645.086-.087.13-.218.173-.304 0-.867-1.26-2.43-1.345-2.472 0 0 .825.303.78.26 0-.087.565.607.912.347" stroke="#053f6f"/>
          <path d="M475.52 289.43c.217.13 8.375 4.73 10.023 3.558a.71.71 0 0 0 .173-.304c0-.91-1.345-2.387-1.432-2.473 0 0 .824.348.824.305-.044-.044.607.693.91.434" stroke="#064171"/>
          <path d="M475.52 289.43c.13.043 8.547 4.816 10.066 3.427.043-.086.13-.173.13-.304 0-.954-1.433-2.386-1.563-2.473l.867.347s.65.78.998.52" stroke="#064374"/>
          <path d="M475.57 289.39s9.72 5.467 10.153 3.038c0-.998-1.65-2.43-1.65-2.43l.912.346s.65.868 1.04.608" stroke="#00209f"/>
        </g>
        <g>
          <path d="M474.44 315.12l-7.55 12.582c-.564-.346-1.518-1.345-1.822-2.213-.565-1.737-.478-1.737-.91-3.602-.217-1.084-.26-2.3-.478-3.427-.26-1.127-1.866-4.728-1.91-6.204" stroke="#011d33"/>
          <path d="M461.77 312.26c.043 1.475 1.65 4.99 1.91 6.118.217 1.13.26 2.344.476 3.427.433 1.866.347 1.823.955 3.558.26.867 1.26 1.866 1.78 2.212.043 0 7.506-12.452 7.55-12.452" stroke="#011d33"/>
          <path d="M461.77 312.26c.043 1.433 1.65 4.946 1.866 6.074.26 1.13.304 2.3.564 3.384.433 1.823.303 1.823.91 3.558.305.824 1.26 1.823 1.78 2.17.043 0 7.463-12.28 7.55-12.322" stroke="#011e34"/>
          <path d="M461.77 312.26c.043 1.433 1.606 4.903 1.866 6.03.26 1.086.304 2.258.564 3.34.433 1.824.303 1.78.91 3.516.305.825 1.26 1.78 1.78 2.126.087.044 7.463-12.106 7.55-12.15" stroke="#011e34"/>
          <path d="M461.77 312.26c.043 1.39 1.606 4.86 1.866 5.944.26 1.13.304 2.257.564 3.34.433 1.78.346 1.78.91 3.472.305.824 1.26 1.78 1.78 2.126.13.044 7.42-11.976 7.55-12.018" stroke="#011f36"/>
          <path d="M461.77 312.26c.043 1.39 1.606 4.816 1.866 5.902.26 1.084.304 2.256.564 3.296.433 1.78.346 1.736.954 3.427.303.825 1.215 1.78 1.78 2.127.086.043 7.332-11.846 7.506-11.888" stroke="#011f36"/>
          <path d="M461.77 312.26c.043 1.39 1.562 4.73 1.866 5.815.26 1.084.304 2.256.564 3.296.433 1.737.346 1.737.954 3.385.303.825 1.215 1.78 1.78 2.127.13.043 7.332-11.715 7.506-11.758" stroke="#022037"/>
          <path d="M461.77 312.26c.043 1.346 1.562 4.686 1.866 5.77.26 1.086.304 2.214.564 3.255.433 1.735.39 1.735.954 3.34.303.825 1.215 1.78 1.78 2.083.172.087 7.288-11.498 7.506-11.584" stroke="#022037"/>
          <path d="M461.77 312.26c.043 1.346 1.562 4.642 1.866 5.728.26 1.04.304 2.17.564 3.21.433 1.693.39 1.693.997 3.34.303.78 1.215 1.692 1.736 2.04.173.043 7.29-11.368 7.507-11.454" stroke="#022139"/>
          <path d="M461.77 312.26c.043 1.303 1.562 4.6 1.866 5.64.26 1.086.304 2.17.564 3.21.433 1.694.39 1.694.997 3.297.303.782 1.215 1.693 1.736 2.04.216.044 7.246-11.238 7.507-11.323" stroke="#022139"/>
          <path d="M461.77 312.26c.043 1.303 1.52 4.555 1.866 5.598.26 1.04.304 2.125.607 3.166.433 1.692.346 1.65.954 3.254.303.78 1.215 1.693 1.736 2.04.26.043 7.203-11.108 7.507-11.194" stroke="#022139"/>
          <path d="M461.77 312.26c.043 1.303 1.52 4.47 1.866 5.554.26.998.304 2.126.607 3.08.433 1.693.39 1.693.954 3.254.303.78 1.215 1.69 1.736 1.995.26.087 7.203-10.934 7.507-11.02" stroke="#02223b"/>
          <path d="M461.77 312.26c.043 1.26 1.52 4.426 1.866 5.467.26 1.042.304 2.127.607 3.08.433 1.693.39 1.693.998 3.21.304.78 1.172 1.65 1.693 1.997.303.086 7.16-10.76 7.507-10.89" stroke="#02223b"/>
          <path d="M461.77 312.26c.043 1.26 1.52 4.383 1.866 5.424.26.998.304 2.083.607 3.038.433 1.65.39 1.65.998 3.21.304.737 1.172 1.606 1.737 1.953.303.087 7.072-10.63 7.463-10.76" stroke="#02233d"/>
          <path d="M461.77 312.26c.043 1.216 1.475 4.34 1.866 5.38.26.998.304 2.04.607 2.995.433 1.65.433 1.65.998 3.167.304.737 1.216 1.605 1.737 1.953.303.085 7.072-10.5 7.463-10.63" stroke="#02233d"/>
          <path d="M461.77 312.26c.043 1.216 1.475 4.295 1.866 5.294.26.997.348 2.04.607 2.994.433 1.606.433 1.606.998 3.123.347.74 1.216 1.607 1.737 1.91.346.13 7.028-10.326 7.463-10.455" stroke="#02233e"/>
          <path d="M461.77 312.26c.043 1.173 1.475 4.21 1.866 5.25.26.998.348 1.997.607 2.95.433 1.607.433 1.607 1.04 3.08.304.74 1.173 1.607 1.694 1.91.39.13 7.028-10.196 7.463-10.325" stroke="#02233e"/>
          <path d="M461.77 312.21c.043 1.216 1.475 4.21 1.823 5.25.304.955.39 1.997.65 2.908.433 1.562.433 1.605 1.04 3.037.304.74 1.173 1.563 1.694 1.91.39.13 6.985-10.023 7.463-10.195" stroke="#022540"/>
          <path d="M461.77 312.21c.043 1.216 1.432 4.166 1.823 5.163.304.955.39 1.997.65 2.908.477 1.563.477 1.563 1.04 3.04.304.693 1.173 1.517 1.694 1.82.433.132 6.942-9.848 7.463-10.02" stroke="#022540"/>
          <path d="M461.77 312.21c.043 1.173 1.432 4.122 1.823 5.12.26.954.39 1.953.694 2.864.433 1.52.433 1.562 1.04 2.994.304.695 1.13 1.52 1.65 1.823.476.13 6.942-9.718 7.463-9.89" stroke="#022540"/>
          <path d="M461.77 312.21c.043 1.173 1.432 4.035 1.823 5.077.26.91.39 1.91.694 2.82.433 1.52.433 1.52 1.04 2.95.304.696 1.172 1.52 1.65 1.824.476.13 6.898-9.588 7.463-9.76" stroke="#022541"/>
          <path d="M461.77 312.21c.043 1.13 1.432 3.992 1.823 4.99.26.955.39 1.91.694 2.82.433 1.476.476 1.52 1.04 2.91.304.692 1.172 1.516 1.693 1.82.477.13 6.855-9.458 7.42-9.63" stroke="#022541"/>
          <path d="M461.77 312.21c.043 1.13 1.39 3.949 1.823 4.946.26.912.39 1.866.694 2.777.433 1.476.476 1.476 1.04 2.865.347.694 1.172 1.476 1.693 1.78.52.172 6.812-9.242 7.42-9.46" stroke="#022743"/>
          <path d="M461.77 312.21c.043 1.13 1.39 3.905 1.823 4.903.26.868.39 1.866.694 2.734.433 1.432.476 1.475 1.084 2.863.304.652 1.13 1.433 1.65 1.736.52.174 6.768-9.112 7.42-9.327" stroke="#022743"/>
          <path d="M461.77 312.21c.043 1.086 1.39 3.862 1.823 4.816.26.912.39 1.866.694 2.735.433 1.433.476 1.476 1.084 2.82.304.652 1.13 1.433 1.65 1.737.564.173 6.768-8.983 7.42-9.198" stroke="#022845"/>
          <path d="M461.77 312.21c.043 1.086 1.39 3.775 1.823 4.773.26.868.39 1.822.694 2.69.433 1.39.52 1.433 1.084 2.778.348.65 1.13 1.433 1.65 1.737.607.173 6.725-8.852 7.42-9.069" stroke="#022845"/>
          <path d="M461.77 312.21c.043 1.042 1.345 3.73 1.823 4.73.26.868.39 1.78.694 2.647.476 1.39.52 1.432 1.084 2.734.348.65 1.13 1.433 1.65 1.693.607.217 6.68-8.678 7.42-8.895" stroke="#022847"/>
          <path d="M461.77 312.21c.043 1.042 1.345 3.688 1.823 4.642.26.87.39 1.78.737 2.648.433 1.345.478 1.39 1.085 2.69.303.652 1.128 1.39 1.605 1.693.65.217 6.68-8.548 7.42-8.808" stroke="#022847"/>
          <path d="M461.77 312.21c.043 1.042 1.345 3.645 1.823 4.6.26.867.39 1.735.737 2.56.433 1.388.52 1.432 1.085 2.69.303.65 1.128 1.39 1.605 1.693.694.173 6.638-8.375 7.42-8.678" stroke="#022847"/>
          <path d="M461.77 312.21c.043 1 1.345 3.6 1.823 4.556.26.825.39 1.735.737 2.517.433 1.345.52 1.432 1.085 2.69.346.608 1.128 1.345 1.65 1.65.65.173 6.593-8.245 7.375-8.548" stroke="#022a49"/>
          <path d="M461.77 312.21c.043 1 1.302 3.514 1.823 4.47.26.824.39 1.734.737 2.516.433 1.345.52 1.39 1.085 2.647.346.608 1.128 1.345 1.65 1.606.692.216 6.55-8.072 7.375-8.375" stroke="#022a49"/>
          <path d="M461.77 312.21c.043.955 1.302 3.47 1.823 4.426.26.824.433 1.692.737 2.473.433 1.3.52 1.388 1.128 2.603.304.608 1.085 1.345 1.606 1.605.737.218 6.507-7.94 7.376-8.243" stroke="#032a4a"/>
          <path d="M461.77 312.21c.043.955 1.302 3.427 1.78 4.383.303.78.476 1.648.78 2.43.433 1.3.564 1.345 1.128 2.56.347.607 1.085 1.302 1.606 1.605.737.217 6.507-7.81 7.376-8.113" stroke="#032a4a"/>
          <path d="M461.81 312.21c0 .955 1.215 3.384 1.736 4.295.304.825.477 1.65.78 2.43.434 1.26.564 1.346 1.13 2.517.346.608 1.127 1.302 1.604 1.562.78.26 6.464-7.593 7.376-7.94" stroke="#032b4c"/>
          <path d="M461.81 312.21c0 .912 1.215 3.34 1.736 4.253.304.78.477 1.605.78 2.386.478 1.257.564 1.344 1.172 2.515.304.565 1.085 1.26 1.562 1.52.824.26 6.42-7.464 7.376-7.81" stroke="#032b4c"/>
          <path d="M461.81 312.21c0 .912 1.215 3.254 1.736 4.166.304.78.477 1.65.78 2.386.478 1.258.564 1.302 1.172 2.474.304.564 1.085 1.26 1.562 1.518.824.26 6.42-7.333 7.376-7.68" stroke="#032c4d"/>
          <path d="M461.81 312.21c0 .87 1.215 3.21 1.736 4.122.304.78.477 1.606.824 2.343.434 1.215.564 1.302 1.128 2.43.347.564 1.085 1.26 1.562 1.52.868.26 6.377-7.204 7.376-7.55" stroke="#032c4d"/>
          <path d="M461.81 312.21c0 .87 1.17 3.167 1.736 4.08.304.736.477 1.56.824 2.298.434 1.216.564 1.26 1.128 2.387.347.564 1.085 1.215 1.606 1.476.867.304 6.335-7.03 7.332-7.375" stroke="#032c4d"/>
          <path d="M461.81 312.21c0 .87 1.17 3.123 1.736 3.992.304.78.477 1.562.824 2.3.434 1.172.564 1.26 1.17 2.343.305.564 1.043 1.215 1.564 1.476.867.26 6.29-6.855 7.332-7.245" stroke="#032d4f"/>
          <path d="M461.81 312.21c0 .825 1.17 3.08 1.736 3.949.304.736.477 1.517.824 2.254.434 1.173.607 1.215 1.17 2.344.35.52 1.043 1.172 1.564 1.432.91.26 6.248-6.725 7.332-7.115" stroke="#032d4f"/>
          <path d="M461.81 312.21c0 .825 1.17 2.994 1.736 3.905.304.737.477 1.475.824 2.213.434 1.13.607 1.216 1.17 2.3.35.52 1.086 1.172 1.564 1.432.954.26 6.248-6.595 7.332-6.985" stroke="#032e50"/>
          <path d="M461.81 312.21c0 .782 1.128 2.95 1.736 3.818.304.737.477 1.52.824 2.213.434 1.13.607 1.217 1.17 2.258.35.52 1.086 1.17 1.564 1.39.954.302 6.204-6.423 7.332-6.813" stroke="#032e50"/>
          <path d="M461.81 312.21c0 .782 1.128 2.908 1.736 3.775.304.695.477 1.475.824 2.17.434 1.085.607 1.17 1.215 2.213.347.52 1.04 1.128 1.52 1.388.996.304 6.203-6.29 7.33-6.68" stroke="#032f53"/>
          <path d="M461.81 312.21c0 .738 1.128 2.865 1.736 3.73.304.696.477 1.433.824 2.128.477 1.085.65 1.172 1.215 2.17.347.52 1.04 1.127 1.52 1.388 1.04.304 6.16-6.118 7.33-6.55" stroke="#032f53"/>
          <path d="M461.81 312.21c0 .738 1.128 2.822 1.736 3.645.304.693.477 1.432.824 2.126.477 1.043.65 1.13 1.215 2.17.347.478 1.04 1.086 1.562 1.346.998.304 6.074-5.988 7.29-6.42" stroke="#033054"/>
          <path d="M461.81 312.21c0 .738 1.085 2.735 1.736 3.6.304.695.477 1.39.867 2.085.434 1.04.607 1.128 1.172 2.125.347.478 1.04 1.086 1.562 1.302 1.04.347 6.074-5.814 7.29-6.247" stroke="#033054"/>
          <path d="M461.81 312.21c0 .695 1.085 2.69 1.736 3.558.26.65.52 1.345.867 1.996.434 1.04.65 1.172 1.215 2.126.348.478 1.042 1.042 1.52 1.303 1.084.346 6.03-5.685 7.288-6.118" stroke="#033054"/>
          <path d="M461.81 312.21c0 .695 1.085 2.648 1.692 3.47.304.652.564 1.39.91 1.997.435 1.042.652 1.128 1.216 2.084.348.477 1.04 1.042 1.52 1.302 1.084.347 5.988-5.554 7.288-5.987" stroke="#033156"/>
          <path d="M461.81 312.21c0 .65 1.085 2.604 1.692 3.427.304.652.564 1.345.91 1.953.435.998.652 1.128 1.216 2.04.348.477 1.04 1.042 1.52 1.302 1.127.304 5.988-5.38 7.288-5.857" stroke="#033156"/>
          <path d="M461.81 312.21c0 .65 1.04 2.56 1.692 3.384.304.608.564 1.302.91 1.91.435.997.652 1.084 1.26 2.04.347.476.997.997 1.475 1.214 1.17.348 5.945-5.206 7.29-5.683" stroke="#043258"/>
          <path d="M461.81 312.21c0 .65 1.04 2.474 1.692 3.297.304.652.564 1.302.91 1.91.435.954.695 1.084 1.26 1.996.347.477.997.998 1.475 1.215 1.17.348 5.945-5.076 7.29-5.553" stroke="#043258"/>
          <path d="M461.81 312.17c0 .65 1.04 2.474 1.692 3.297.304.608.564 1.26.91 1.866.478.955.695 1.085 1.26 1.953.347.478.997.955 1.475 1.215 1.215.35 5.902-4.945 7.29-5.422" stroke="#043359"/>
          <path d="M461.81 312.17c0 .65 1.04 2.43 1.692 3.254.304.608.564 1.216.91 1.823.478.91.695 1.04 1.26 1.91.39.476.997.953 1.518 1.17 1.215.39 5.814-4.772 7.246-5.25" stroke="#043359"/>
          <path d="M461.81 312.17c0 .608.998 2.387 1.692 3.167.304.608.564 1.26.955 1.823.433.912.694 1.04 1.258 1.866.348.478.998.954 1.476 1.17 1.215.392 5.814-4.598 7.246-5.118" stroke="#04345b"/>
          <path d="M461.81 312.17c0 .608.998 2.3 1.692 3.123.304.565.564 1.215.955 1.78.433.868.694 1 1.258 1.823.348.477.998.955 1.476 1.17 1.26.392 5.772-4.467 7.246-4.988" stroke="#04345b"/>
          <path d="M461.81 312.17c0 .608.998 2.257 1.692 3.08.304.565.564 1.173.955 1.736.433.868.694 1 1.258 1.823.348.433.998.91 1.476 1.127 1.302.39 5.772-4.34 7.246-4.86" stroke="#04345b"/>
          <path d="M461.81 312.17c0 .565.954 2.214 1.692 2.994.304.565.564 1.173.955 1.736.433.825.694.956 1.258 1.78.39.434.998.868 1.476 1.085 1.302.433 5.728-4.165 7.246-4.685" stroke="#04355c"/>
          <path d="M461.81 312.17c0 .565.954 2.17 1.692 2.95.304.564.564 1.13.955 1.692.433.825.737.956 1.302 1.736.346.435.953.87 1.43 1.085 1.346.434 5.685-4.034 7.246-4.554" stroke="#04355c"/>
          <path d="M461.81 312.17c0 .52.954 2.127 1.692 2.908.304.52.564 1.085.955 1.65.433.824.737.954 1.302 1.69.346.435.953.87 1.43 1.087 1.39.433 5.685-3.906 7.246-4.426" stroke="#04365e"/>
          <path d="M461.81 312.17c0 .52.954 2.04 1.692 2.822.304.52.564 1.128.955 1.65.476.78.737.91 1.302 1.647.39.433.996.867 1.43 1.084 1.39.39 5.642-3.73 7.246-4.295" stroke="#04365e"/>
          <path d="M461.81 312.17c0 .52.91 1.996 1.692 2.778.304.52.564 1.085.955 1.605.476.78.78.912 1.302 1.65.39.39.996.824 1.474.998 1.39.434 5.554-3.557 7.202-4.12" stroke="#043760"/>
          <path d="M461.81 312.17c0 .478.91 1.953 1.692 2.735.304.476.564 1.04.955 1.562.476.737.78.867 1.345 1.606.347.39.954.78 1.432.997 1.432.435 5.554-3.427 7.202-3.99" stroke="#043760"/>
          <path d="M461.81 312.17c0 .478.91 1.91 1.65 2.648.346.52.65 1.04 1.04 1.562.435.737.74.868 1.302 1.562.347.39.954.78 1.432.998 1.432.434 5.51-3.297 7.202-3.904" stroke="#043862"/>
          <path d="M461.81 312.17c0 .434.91 1.866 1.65 2.604.346.477.65.998 1.04 1.476.435.737.74.91 1.302 1.562.39.39.954.78 1.432.998 1.475.434 5.51-3.167 7.202-3.774" stroke="#043862"/>
          <path d="M461.81 312.17c0 .434.867 1.78 1.65 2.518.346.52.65.997 1.04 1.475.435.737.782.867 1.345 1.52.348.39.91.78 1.39.953 1.518.478 5.466-2.95 7.2-3.6" stroke="#043862"/>
          <path d="M461.81 312.17c0 .434.867 1.736 1.65 2.474.346.478.65.998 1.04 1.432.435.694.782.868 1.345 1.52.348.346.91.736 1.39.91 1.518.478 5.423-2.82 7.2-3.47" stroke="#043963"/>
          <path d="M461.81 312.17c0 .39.867 1.692 1.65 2.43.346.435.65.955 1.04 1.39.435.694.782.823 1.345 1.475.39.347.955.695 1.39.91 1.56.478 5.423-2.69 7.2-3.34" stroke="#043963"/>
          <path d="M461.81 312.17c0 .39.867 1.65 1.65 2.344.346.478.65.954 1.04 1.39.478.65.825.824 1.345 1.43.39.348.955.695 1.39.91 1.605.48 5.38-2.56 7.2-3.208" stroke="#053a65"/>
          <path d="M461.81 312.17c0 .347.824 1.606 1.65 2.3.346.435.65.91 1.04 1.346.478.65.825.825 1.39 1.388.345.348.91.695 1.387.87 1.606.52 5.294-2.39 7.16-3.04" stroke="#053a65"/>
          <path d="M461.81 312.17c0 .347.824 1.52 1.65 2.257.346.434.65.867 1.04 1.302.478.607.825.78 1.39 1.344.39.347.91.695 1.387.868 1.606.477 5.294-2.213 7.16-2.907" stroke="#053b67"/>
          <path d="M461.81 312.17c0 .347.824 1.476 1.65 2.17.346.434.65.868 1.084 1.302.434.608.78.782 1.345 1.345.39.304.91.65 1.387.825 1.65.477 5.25-2.083 7.16-2.777" stroke="#053b67"/>
          <path d="M461.81 312.17c0 .304.824 1.433 1.65 2.127.346.39.65.867 1.084 1.258.434.565.825.738 1.345 1.302.39.304.91.608 1.387.78 1.693.523 5.25-1.908 7.16-2.602" stroke="#053c68"/>
          <path d="M461.81 312.17c0 .304.78 1.39 1.65 2.083.346.39.65.825 1.084 1.215.434.565.825.738 1.388 1.26.347.302.91.606 1.345.78 1.693.52 5.207-1.78 7.16-2.473" stroke="#053c68"/>
          <path d="M461.81 312.17c0 .26.78 1.346 1.65 1.996.303.39.65.826 1.084 1.215.434.522.825.696 1.388 1.217.39.303.91.607 1.345.78 1.736.522 5.164-1.648 7.16-2.342" stroke="#053c68"/>
          <path d="M461.81 312.17c0 .26.78 1.26 1.65 1.953.303.39.65.782 1.084 1.172.434.52.868.694 1.388 1.172.39.303.91.607 1.345.78 1.78.522 5.164-1.475 7.16-2.212" stroke="#053d6a"/>
          <path d="M461.81 312.17c0 .217.78 1.216 1.65 1.91.303.347.65.738 1.084 1.128.477.477.868.694 1.388 1.13.39.303.91.606 1.345.736 1.78.564 5.12-1.302 7.16-2.04" stroke="#053d6a"/>
          <path d="M461.81 312.17c0 .217.737 1.173 1.65 1.823.303.39.65.738 1.084 1.13.477.475.868.65 1.432 1.127.39.26.867.52 1.345.694 1.78.564 5.077-1.172 7.116-1.91" stroke="#053e6c"/>
          <path d="M461.81 312.17c0 .217.737 1.13 1.606 1.78.347.347.737.694 1.128 1.085.477.433.868.65 1.432 1.085.39.26.867.52 1.345.693 1.824.565 5.034-1.04 7.116-1.778" stroke="#053e6c"/>
          <path d="M461.81 312.17c0 .174.737 1.086 1.606 1.736.347.304.737.695 1.128 1.042.477.433.91.607 1.432 1.04.39.262.867.52 1.345.696 1.824.564 4.99-.912 7.116-1.65" stroke="#053f6e"/>
          <path d="M461.81 312.17c0 .174.737 1 1.606 1.65a14.2 14.2 0 0 0 1.17 1.04c.435.39.87.608 1.433 1 .345.26.867.52 1.3.65 1.867.564 4.99-.694 7.116-1.475" stroke="#053f6e"/>
          <path d="M461.81 312.17c0 .13.694.955 1.606 1.606.347.304.737.65 1.17.955.435.434.87.65 1.433 1 .39.26.867.476 1.3.65 1.91.564 4.947-.564 7.116-1.345" stroke="#053f6f"/>
          <path d="M461.81 312.17c0 .13.694.912 1.606 1.562.347.304.737.608 1.17.912.435.39.87.607 1.433.998.39.217.867.434 1.3.608 1.91.563 4.904-.434 7.116-1.215" stroke="#053f6f"/>
          <path d="M461.81 312.17c0 .13.694.868 1.606 1.476.347.303.737.607 1.17.91.435.392.912.608 1.433.956.39.217.867.434 1.3.608 1.954.564 4.904-.304 7.116-1.085" stroke="#053f6f"/>
          <path d="M461.81 312.17c0 .087.65.782 1.606 1.433.347.26.737.563 1.17.867.48.39.912.565 1.477.91.39.218.824.436 1.258.566 1.996.607 4.86-.13 7.116-.91" stroke="#064171"/>
          <path d="M461.81 312.17c0 .087.65.738 1.606 1.39.347.26.737.563 1.17.824.48.347.912.564 1.477.867.39.218.824.435 1.3.566 1.953.608 4.817 0 7.073-.78" stroke="#064171"/>
          <path d="M461.81 312.17c0 .043.65.695 1.606 1.303.347.26.737.563 1.17.824.48.347.955.564 1.477.825.39.216.867.39 1.3.563 1.997.608 4.774.174 7.073-.65" stroke="#064172"/>
          <path d="M461.81 312.13c0 .087.65.695 1.606 1.303.347.26.737.52 1.17.78.48.304.955.52 1.477.825l1.3.52c2.04.608 4.73.304 7.073-.52" stroke="#064172"/>
          <path d="M461.81 312.13c0 .087.607.65 1.606 1.26.347.216.737.476 1.17.736.48.304.955.522 1.52.782.39.174.824.346 1.258.477 2.04.65 4.73.477 7.072-.347" stroke="#064374"/>
          <path d="M461.81 312.13c0 .043.607.565 1.606 1.173.347.26.737.476 1.215.737.435.26.91.477 1.476.738.39.174.824.347 1.258.477 2.083.65 4.686.607 7.072-.217" stroke="#064374"/>
          <path d="M461.81 312.13c0 .043.607.52 1.606 1.13.347.216.737.433 1.215.693.435.26.955.477 1.476.695.39.173.824.347 1.258.477 2.126.607 4.643.737 7.072-.087m-12.627-2.908s6.465 5.077 12.626 2.908" stroke="#00209f"/>
        </g>
        <g>
          <path d="M461.55 292.17s1.258 8.113 1.736 9.285c.433 1.042 2.994 5.684 6.898 6.77" stroke="#022743"/>
          <path d="M461.55 292.17s1.345 8.027 1.866 9.2c.434 1.04 2.82 5.465 6.812 6.81" stroke="#022a49"/>
          <path d="M461.59 292.13s1.39 7.984 1.91 9.2c.434 1.04 2.69 5.205 6.724 6.854" stroke="#032b4c"/>
          <path d="M461.59 292.13s1.475 7.94 1.996 9.112c.477 1.04 2.517 4.99 6.638 6.898" stroke="#032e50"/>
          <path d="M461.64 292.13s1.52 7.853 2.04 9.025c.52 1.085 2.386 4.772 6.594 6.942" stroke="#033054"/>
          <path d="M461.64 292.13s1.606 7.81 2.17 8.982c.477 1.084 2.213 4.468 6.464 6.985" stroke="#043359"/>
          <path d="M461.64 292.08s1.692 7.767 2.257 8.938c.52 1.085 2.04 4.253 6.377 7.03" stroke="#04355c"/>
          <path d="M461.68 292.08s1.735 7.723 2.3 8.895c.52 1.084 1.908 3.992 6.29 7.072" stroke="#043760"/>
          <path d="M461.68 292.08s1.822 7.636 2.386 8.808c.564 1.085 1.78 3.775 6.248 7.115" stroke="#053a65"/>
          <path d="M461.72 292.04s1.865 7.636 2.473 8.765c.564 1.128 1.562 3.515 6.118 7.202" stroke="#053c68"/>
          <path d="M461.72 292.04s1.996 7.55 2.56 8.72c.563 1.086 1.432 3.255 6.03 7.203" stroke="#053f6e"/>
          <path d="M461.77 292.04s2.04 7.506 2.603 8.634c.607 1.128 1.302 3.038 5.988 7.246" stroke="#064172"/>
          <path d="M461.77 291.99s2.127 7.463 2.69 8.59c.607 1.13 1.172 2.82 5.9 7.333" stroke="#00209f"/>
        </g>
        <g>
          <path d="M462.07 287.18s1.04 11.455 9.198 14.622" stroke="#022743"/>
          <path d="M462.07 287.18c.043.043.477 3.688 2.126 7.246 1.3 2.733 3.47 5.857 7.072 7.332" stroke="#022a49"/>
          <path d="M462.11 287.18c0 .043.52 3.775 2.17 7.202 1.214 2.517 3.383 5.772 6.984 7.376" stroke="#032b4c"/>
          <path d="M462.11 287.18c.043.087.65 3.905 2.256 7.115 1.17 2.343 3.297 5.728 6.898 7.42" stroke="#032e50"/>
          <path d="M462.16 287.18c0 .087.737 3.992 2.343 7.072 1.04 2.17 3.167 5.64 6.77 7.42" stroke="#033054"/>
          <path d="M462.16 287.18c.043.13.867 4.08 2.43 6.985.954 1.997 3.123 5.598 6.682 7.507" stroke="#043359"/>
          <path d="M462.2 287.18c0 .13.954 4.166 2.473 6.942.91 1.78 3.038 5.51 6.595 7.506" stroke="#04355c"/>
          <path d="M462.2 287.14c.043.217 1.085 4.34 2.56 6.943.824 1.56 2.95 5.423 6.508 7.505" stroke="#043760"/>
          <path d="M462.2 287.14c.087.217 1.215 4.425 2.647 6.856.78 1.432 2.864 5.38 6.42 7.55" stroke="#053a65"/>
          <path d="M462.25 287.14c.043.26 1.302 4.512 2.69 6.813.694 1.214 2.777 5.293 6.335 7.592" stroke="#053c68"/>
          <path d="M462.25 287.14c.086.26 1.432 4.6 2.82 6.726.607 1.04 2.647 5.25 6.205 7.635" stroke="#053f6e"/>
          <path d="M462.29 287.14c.043.304 1.52 4.73 2.864 6.682.52.824 2.56 5.164 6.118 7.636" stroke="#064172"/>
          <path d="M462.29 287.14c.086.304 1.65 4.816 2.95 6.595.477.65 2.474 5.12 6.032 7.723" stroke="#00209f"/>
        </g>
        <g>
          <path d="M462.16 284.01s2.386 9.2 9.025 11.455" stroke="#022743"/>
          <path d="M462.16 284.01s.91 3.254 3.08 6.422c1.432 2.125 3.514 4.208 5.944 5.033" stroke="#022847"/>
          <path d="M462.16 283.97s.954 3.21 3.123 6.377c1.52 2.17 3.645 4.34 5.9 5.12" stroke="#032a4a"/>
          <path d="M462.16 283.93s.998 3.167 3.21 6.334c1.563 2.212 3.732 4.468 5.814 5.163" stroke="#032c4d"/>
          <path d="M462.2 283.88s.998 3.123 3.254 6.334c1.605 2.212 3.86 4.555 5.728 5.207" stroke="#032f53"/>
          <path d="M462.2 283.88s1.04 3.038 3.34 6.248c1.65 2.256 3.95 4.686 5.685 5.25" stroke="#033156"/>
          <path d="M462.2 283.84s1.085 3.038 3.384 6.205c1.736 2.342 4.122 4.816 5.64 5.337" stroke="#043359"/>
          <path d="M462.2 283.79s1.128 2.994 3.47 6.16c1.78 2.387 4.21 4.947 5.555 5.425" stroke="#04355c"/>
          <path d="M462.25 283.79s1.085 2.907 3.514 6.118c1.823 2.386 4.34 5.033 5.468 5.424" stroke="#043760"/>
          <path d="M462.25 283.75s1.128 2.864 3.6 6.074c1.866 2.43 4.426 5.207 5.382 5.51" stroke="#043963"/>
          <path d="M462.25 283.71s1.17 2.82 3.645 6.03c1.908 2.474 4.6 5.338 5.337 5.598" stroke="#053b67"/>
          <path d="M462.25 283.66s1.215 2.777 3.73 6.03c1.954 2.518 4.687 5.425 5.252 5.6" stroke="#053e6c"/>
          <path d="M462.29 283.66s1.215 2.69 3.775 5.944c1.995 2.56 4.816 5.554 5.163 5.685" stroke="#053f6f"/>
          <path d="M462.29 283.62s1.258 2.647 3.862 5.9c2.04 2.604 4.903 5.685 5.12 5.772" stroke="#064172"/>
          <path d="M462.29 283.58s1.302 2.603 3.905 5.857c2.126 2.647 5.077 5.815 5.077 5.815" stroke="#00209f"/>
        </g>
        <g>
          <path d="M479.9 296.55l4.56.83m-4.08 2.64l4.08-1.73" stroke="#00209f"/>
          <path d="M479.86 296.68l4.56.7" stroke="#064171"/>
          <path d="M479.86 296.85l4.6.57" stroke="#053e6c"/>
          <path d="M479.9 297.03l4.6.39" stroke="#053b67"/>
          <path d="M479.9 297.2l4.65.26" stroke="#043862"/>
          <path d="M479.9 297.38l4.69.08" stroke="#04355c"/>
          <path d="M479.95 297.55l4.68-.04" stroke="#043258"/>
          <path d="M479.95 297.68l4.73-.17" stroke="#032f53"/>
          <path d="M479.95 297.85l4.77-.3" stroke="#032c4d"/>
          <path d="M479.99 298.03l4.77-.48" stroke="#022a49"/>
          <path d="M480.34 299.81l4.16-1.61" stroke="#064171"/>
          <path d="M480.29 299.63l4.26-1.52" stroke="#053e6c"/>
          <path d="M480.29 299.46l4.3-1.39" stroke="#053b67"/>
          <path d="M480.25 299.28l4.38-1.3" stroke="#043862"/>
          <path d="M480.21 299.11l4.47-1.17" stroke="#04355c"/>
          <path d="M480.21 298.94l4.51-1.09" stroke="#043258"/>
          <path d="M480.16 298.72l4.6-.91" stroke="#032f53"/>
          <path d="M480.12 298.55l4.69-.83" stroke="#032c4d"/>
          <path d="M480.12 298.37l4.73-.69" stroke="#022a49"/>
          <path d="M480.08 298.2l4.81-.61" stroke="#022743"/>
        </g>
        <g>
          <path d="M484.24 331.57s-2.43.13-2.647.217c-.26.044-9.892-.174-9.892-.174" stroke="#032b4c"/>
          <path d="M484.29 331.61s-2.386.217-2.734.304c-.39.042-9.762-.26-9.762-.26" stroke="#032e50"/>
          <path d="M484.29 331.65s-2.3.303-2.777.39c-.52.088-9.632-.347-9.632-.347" stroke="#033054"/>
          <path d="M484.33 331.7s-2.256.346-2.864.478c-.65.13-9.545-.435-9.545-.435" stroke="#043359"/>
          <path d="M484.33 331.7s-2.17.478-2.95.607c-.738.174-9.372-.52-9.372-.52" stroke="#04355c"/>
          <path d="M484.33 331.74s-2.083.52-2.994.694c-.868.217-9.24-.607-9.24-.607" stroke="#043760"/>
          <path d="M484.37 331.78s-2.04.607-3.08.824c-.998.174-9.112-.737-9.112-.737" stroke="#053a65"/>
          <path d="M484.37 331.83s-1.996.694-3.123.91c-1.128.218-9.026-.78-9.026-.78" stroke="#053c68"/>
          <path d="M484.42 331.87s-1.952.737-3.21.998c-1.26.26-8.895-.87-8.895-.87" stroke="#053f6e"/>
          <path d="M484.42 331.91s-1.866.824-3.254 1.085c-1.388.304-8.764-.956-8.764-.956" stroke="#064172"/>
          <path d="M472.48 332.09s7.115 1.345 8.634 1.04c1.52-.303 3.34-1.17 3.34-1.17" stroke="#00209f"/>
        </g>
        <g>
          <path d="M486.06 337.07s4.555.695 4.73.65c.085 0 2.646-.172 2.733-.172.043 0 2.212-.52 2.212-.52" stroke="#022a49"/>
          <path d="M485.8 336.99s4.686.738 5.033.65c.173-.042 2.517-.172 2.647-.172.13 0 2.082-.478 2.082-.478" stroke="#032d4f"/>
          <path d="M485.54 336.86s4.816.825 5.294.695c.26-.044 2.386-.174 2.603-.174.174 0 1.91-.433 1.91-.433" stroke="#033054"/>
          <path d="M485.28 336.73s4.903.87 5.597.738a56.906 56.906 0 0 1 2.516-.173l1.736-.348" stroke="#043359"/>
          <path d="M485.02 336.64s5.033.91 5.857.737c.434-.087 2.17-.174 2.473-.217.304 0 1.563-.26 1.563-.26" stroke="#043760"/>
          <path d="M484.76 336.51s5.163.998 6.16.78c.522-.086 1.998-.173 2.387-.217.348 0 1.39-.217 1.39-.217" stroke="#053a65"/>
          <path d="M484.5 336.38s5.25 1.085 6.42.867c.65-.13 1.91-.217 2.343-.26a24.422 24.422 0 0 0 1.215-.174" stroke="#053d6a"/>
          <path d="M484.24 336.29s5.38 1.128 6.725.867c.694-.173 1.736-.26 2.256-.26.478-.043 1.085-.087 1.085-.087" stroke="#064171"/>
          <path d="M486.325 337.206l4.426.61 2.82-.134 2.387-.61" stroke="#022743"/>
          <path d="M483.98 336.16s5.51 1.215 7.03.91c1.474-.303 3.08-.303 3.08-.303" stroke="#00209f"/>
        </g>
        <g>
          <path d="M505.76 336.81l4.295-1.56c2.69-1 2.994-3.69 2.994-3.69" stroke="#00209f"/>
          <path d="M505.46 335.95s1.736-.694 3.167-1.215c3.818-1.432 3.384-3.254 3.384-3.254" stroke="#00209f"/>
          <path d="M505.2 336.12s2.256-.867 3.427-1.302c.608-.217 1.39-.564 1.78-.825.52-.304 1.17-.91 1.345-1.215.347-.52.347-1.258.347-1.258" stroke="#053e6c"/>
          <path d="M504.94 336.34s2.82-1.085 3.688-1.39c.434-.172 1.475-.607 1.736-.78.39-.26 1.302-.998 1.432-1.215.26-.434.433-1.432.433-1.432" stroke="#043862"/>
          <path d="M504.68 336.51s3.384-1.258 3.949-1.476c.302-.086 1.517-.607 1.69-.694.262-.174 1.433-1.128 1.52-1.258.174-.26.477-1.563.477-1.563" stroke="#043258"/>
          <path d="M504.42 336.73s3.905-1.474 4.208-1.562c.13-.087 1.606-.607 1.693-.694.13-.043 1.52-1.17 1.563-1.258.087-.13.564-1.65.564-1.65" stroke="#032c4d"/>
          <path d="M505.46 336.86s3.47-1.302 4.642-1.736c.824-.303 1.693-1.04 2.083-1.56.564-.826.78-1.998.78-1.998" stroke="#053e6c"/>
          <path d="M505.11 336.86s4.166-1.52 5.033-1.866c.608-.216 1.693-1.085 1.953-1.475.433-.61.737-1.954.737-1.954" stroke="#043862"/>
          <path d="M504.81 336.9s4.816-1.823 5.38-1.996c.435-.173 1.693-1.172 1.867-1.432.304-.434.693-1.91.693-1.91" stroke="#043258"/>
          <path d="M504.5 336.9s5.424-2.04 5.728-2.126c.216-.087 1.648-1.215 1.778-1.345.13-.218.65-1.867.65-1.867" stroke="#032c4d"/>
          <path d="M504.157 336.896l6.12-2.254 1.647-1.25.608-1.83" stroke="#022743" stroke-width=".18"/>
        </g>
        <g>
          <path d="M511.27 331.57s-2.517.13-2.777.217c-.26.044-10.283-.174-10.283-.174" stroke="#032b4c"/>
          <path d="M511.32 331.61s-2.473.217-2.864.304c-.39.042-10.153-.26-10.153-.26" stroke="#032e50"/>
          <path d="M511.32 331.65s-2.386.303-2.907.39c-.52.088-10.023-.347-10.023-.347" stroke="#033054"/>
          <path d="M511.32 331.7s-2.3.346-2.95.478c-.652.13-9.893-.435-9.893-.435" stroke="#043359"/>
          <path d="M511.36 331.7s-2.257.478-3.038.607c-.78.174-9.762-.52-9.762-.52" stroke="#04355c"/>
          <path d="M511.36 331.74s-2.17.52-3.08.694c-.91.217-9.675-.607-9.675-.607" stroke="#043760"/>
          <path d="M511.4 331.78s-2.126.607-3.167.824c-1.085.174-9.545-.737-9.545-.737" stroke="#053a65"/>
          <path d="M511.4 331.83s-2.04.694-3.254.91c-1.17.218-9.37-.78-9.37-.78" stroke="#053c68"/>
          <path d="M511.45 331.87s-2.04.737-3.34.998c-1.302.26-9.242-.87-9.242-.87" stroke="#053f6e"/>
          <path d="M511.45 331.91s-1.953.824-3.384 1.085c-1.432.304-9.112-.956-9.112-.956" stroke="#064172"/>
          <path d="M498.99 332.09s7.463 1.345 9.025 1.04c1.562-.303 3.47-1.17 3.47-1.17" stroke="#00209f"/>
        </g>
      </g>
      <path d="M474.96 289.91a34.007 34.007 0 0 1-.174-3.21c.044-5.164-.65-9.07-.087-14.49.434-4.253 1.475-9.85 1.258-14.45-.087-1.3.172-2.603.217-3.86l20.957 23.516M466.97 327.7c-.565-.346-1.52-1.345-1.823-2.213-.608-1.736-.477-1.692-.91-3.6-.26-1.085-.26-2.3-.522-3.428-.216-1.13-1.822-4.73-1.865-6.206-.173-4.728-1.736-7.94-1.345-13.103.26-3.99 1.17-9.414.737-13.58-.13-1.128.044-2.43.087-3.558l23.56 15.576m28.551 33.892c.174.52-.347 1.52-.52 1.866-.13.174-.347.477-.477.65-.26.565-.217.435-.694.87-.13.086-.695.563-.87.65-.345.26-.693.607-1.084.65-1.78.305-2.516.694-4.21 1.172-1.604.478-.736.39-1.95.695-.608.13-1.823.607-2.43.694-1.085.173-1.26.347-2.387.608-2.908.65-5.728.476-8.59.304-1.173-.088-4.037-.696-5.035-1.39-1.78-1.26-5.684-1.736-7.42-2.95-.258-.176-1.344-.696-1.56-.913-1.693-1.388-3.038-1.78-4.816-2.907" stroke-miterlimit="2.613" fill="none" stroke="#000" stroke-width=".174"/>
      <g stroke-miterlimit="2.613" stroke="#000" stroke-width=".13">
        <path fill="#fc0" fill-rule="evenodd" d="M484.893 297.593l.565-.826-23.908-15.62-.433.65zM461.16 280.89c-.174-.91.087-2.127.737-2.257.044 0 .0251328A90"/>
        <path d="M460.77 281.32c-.91-.043-2.083.347-2.126.998 0 .087-.087.608 0 .867.044.39.173.478.52.565.868.26 1.20EB127CAF8" fill="#fc0" fill-rule="evenodd"/>
        <path d="M460.6 280.93c-.26.13-.26.478-.13.695.087.216.476.26.65.172.346-.216.565-.606.346-.954-.215-.304-.562-.043-.866.087z" fill="#fc0" fill-rule="evenodd"/>
        <path d="M455.56 277.76s2.517.998 4.555 1.04c0 0 .087 1.78.52 2.3 0 0-1.82-.346-2.646.087 0 0-1.085-2.473-2.43-3.427z" fill="#fc0" fill-rule="evenodd"/>
        <path d="M457.6 279.02s.998.434 1.822.434c0 0 .043.694.217.91 0 0-.738-.13-1.042.045 0-.002-.435-1-.998-1.39z" fill="none"/>
        <path d="M460.77 282.88s.477-.824.607-1.128c.086-.173-.043.998.39 1.128.563.737.693 2.256.693 2.647-.65.216-10E13CBEA54" fill="#fc0" fill-rule="evenodd"/>
        <path d="M461.25 282.23c0 .13.087.65.043.563 0-.216.26.218.303.304.348.65.478 1.128.608 2.387m-.744-2.164c.217.998.39.954.39 2.344l.088-.087m-.518-1.347c.173.694.13 1.04.173 1.39-.044 0-.26.17-.303.17" fill="none"/>
        <path fill="#fc0" fill-rule="evenodd" d="M497.13 277.417l.65-.607-21.347-23.734-.434.52z"/>
        <path d="M476.61 253.08c.043-.954.565-2.083 1.215-2.04.043 0 .564-.043.824.087.39.087.433.26.52.608.173.867-.080678EA9C" fill="#fc0" fill-rule="evenodd"/>
        <path d="M476.13 253.38c-.91-.26-2.126-.13-2.343.478 0 .043-.216.563-.173.824-.043.39.044.52.39.693.737.435 104EEBD2A19" fill="#fc0" fill-rule="evenodd"/>
        <path d="M476.04 252.95c-.304.043-.347.433-.304.65.043.217.39.39.607.304.347-.13.694-.433.563-.824-.13-.347-.563-.173-.866-.13z" fill="#fc0" fill-rule="evenodd"/>
        <path d="M471.92 248.69s2.17 1.562 4.122 2.083c0 0-.304 1.78 0 2.343 0 0-1.736-.737-2.603-.52 0 0-.435-2.648-1.52-3.906z" fill="#fc0" fill-rule="evenodd"/>
        <path d="M473.57 250.43s.867.607 1.65.824c0 0-.13.694 0 .91 0 0-.695-.26-1.042-.173 0 .002-.174-1.083-.608-1.56z" fill="none"/>
        <path d="M475.74 254.9s.65-.694.867-.954c.13-.174-.302.954.087 1.215.39.825.13 2.3.044 2.734-.694.044-1.302.200A2755A18" fill="#fc0" fill-rule="evenodd"/>
        <path d="M476.35 254.42c0 .087-.043.433-.043.52.043.26.26.347.303.65.13.74-.044 1.216-.087 2.17m-.263-2.47c.216.91.043 1.65-.087 2.517-.043 0 .087 0 .087-.044m-.13-.953c-.13.346-.13.563-.173.954-.043-.043-.217.13-.26.087" fill="none"/>
      </g>
    </g>
    <use height="100%" width="100%" xlink:href="#c" transform="matrix(-1 0 0 1 1030.05 0)"/>
  </g>
  <path d="M319.306 197.878l-40.23 67.305h80.49z" stroke-miterlimit="2.613" fill="#fc0" stroke="#000" stroke-width=".347"/>
  <path d="M319.306 202.252L282.998 263h72.648z" stroke-miterlimit="2.613" fill="#fff" stroke="#fff" stroke-width=".104"/>
  <path d="M293.758 244.946L282.998 263h72.648l-10.794-18.054z" stroke-miterlimit="2.613" fill="#007e93" stroke="#007e93" stroke-width=".208"/>
  <g stroke-miterlimit="2.613" fill="none" stroke-width=".139">
    <path d="M312.99 212.872c1.7-1.528 3.783-2.152 6.213-2.187h.174c2.36.035 4.756.59 6.282 2.187" stroke="#086aad"/>
    <path d="M312.95 212.944c1.666-1.562 3.818-2.152 6.248-2.187h.174c2.43 0 4.825.59 6.35 2.222" stroke="#0863aa"/>
    <path d="M312.918 213.048c1.666-1.63 3.853-2.222 6.318-2.256h.173c2.43.034 4.86.624 6.386 2.29" stroke="#095fa8"/>
    <path d="M312.846 213.12c1.667-1.63 3.922-2.256 6.387-2.256h.21c2.463 0 4.893.624 6.42 2.36" stroke="#0a58a5"/>
    <path d="M312.814 213.184c1.632-1.666 3.957-2.256 6.457-2.29h.174c2.534.034 4.963.658 6.49 2.43" stroke="#0a52a2"/>
    <path d="M312.75 213.256c1.63-1.7 3.992-2.29 6.525-2.29h.21c2.567.034 4.996.658 6.56 2.463" stroke="#0b4d9f"/>
    <path d="M312.71 213.36c1.63-1.735 4.026-2.36 6.595-2.36h.173c2.638.034 5.033.693 6.63 2.533" stroke="#0c479d"/>
    <path d="M312.262 214.088c1.91-2.013 4.27-2.603 7.08-2.603h.174c3.09.035 5.728 1.076 7.255 3.228" stroke="#270a7f"/>
    <path d="M312.294 213.984c1.874-1.944 4.235-2.534 7.046-2.568h.173c3.02.034 5.624 1.04 7.186 3.16" stroke="#241183"/>
    <path d="M312.366 213.912c1.84-1.944 4.165-2.534 6.942-2.534h.174c2.985.035 5.588.972 7.15 3.09" stroke="#221786"/>
    <path d="M312.398 213.848c1.805-1.91 4.165-2.5 6.873-2.534h.174c2.95.035 5.52.938 7.116 3.02" stroke="#1f1f8a"/>
    <path d="M312.47 213.744c1.735-1.84 4.096-2.464 6.803-2.464h.14c2.915 0 5.483.833 7.08 2.916" stroke="#1a258d"/>
    <path d="M312.502 213.672c1.7-1.84 4.096-2.43 6.734-2.464h.173c2.846.035 5.414.798 6.976 2.846" stroke="#172d91"/>
    <path d="M312.534 213.6c1.666-1.806 4.06-2.43 6.664-2.43h.174c2.81 0 5.345.73 6.942 2.742" stroke="#143393"/>
    <path d="M312.606 213.496c1.63-1.77 4.026-2.36 6.595-2.395h.14c2.776 0 5.31.695 6.907 2.708" stroke="#113b97"/>
    <path d="M315.31 208.92c1.18-.833 2.43-1.076 3.992-1.076 1.493 0 2.81.243 3.957 1.007" stroke="#ff0a00"/>
    <path d="M315.278 208.984c1.18-.833 2.464-1.076 4.026-1.076 1.493 0 2.847.242 3.992 1.007" stroke="#f10"/>
    <path d="M315.246 209.056c1.215-.833 2.5-1.11 4.06-1.11 1.494 0 2.882.276 4.063 1.04" stroke="#ff1500"/>
    <path d="M315.214 209.16c1.215-.868 2.5-1.146 4.096-1.146 1.527 0 2.916.277 4.096 1.042" stroke="#ff1a00"/>
    <path d="M315.174 209.232c1.215-.868 2.534-1.145 4.13-1.145 1.528 0 2.95.277 4.13 1.042" stroke="#ff2000"/>
    <path d="M315.142 209.296c1.215-.868 2.568-1.18 4.165-1.18 1.527 0 2.986.312 4.166 1.11" stroke="#ff2700"/>
    <path d="M315.102 209.368c1.215-.868 2.568-1.18 4.2-1.18 1.527 0 3.02.312 4.2 1.11" stroke="#ff2f00"/>
    <path d="M315.07 209.44c1.215-.902 2.603-1.18 4.235-1.18 1.562 0 3.055.312 4.27 1.11" stroke="#f30"/>
    <path d="M315.038 209.504c1.215-.902 2.638-1.215 4.27-1.215 1.56 0 3.09.346 4.304 1.145" stroke="#ff3c00"/>
    <path d="M314.998 209.576c1.25-.902 2.672-1.215 4.304-1.215 1.562 0 3.124.348 4.34 1.147" stroke="#ff4100"/>
    <path d="M314.966 209.648c1.25-.902 2.672-1.215 4.34-1.215 1.596 0 3.158.347 4.373 1.146" stroke="#ff4600"/>
    <path d="M314.03 211.208c1.353-1.04 3.505-1.562 5.31-1.562 1.91 0 3.992.52 5.345 1.597" stroke="#fff500"/>
    <path d="M314.102 211.104c1.318-1.04 3.436-1.528 5.24-1.528 1.875 0 3.923.486 5.276 1.598" stroke="#ffeb00"/>
    <path d="M314.134 211.032c1.354-1.04 3.4-1.528 5.206-1.528 1.84 0 3.888.486 5.24 1.563" stroke="#ffe000"/>
    <path d="M314.206 210.928c1.32-1.007 3.333-1.492 5.137-1.492 1.84 0 3.853.485 5.172 1.527" stroke="#ffd600"/>
    <path d="M314.238 210.864c1.32-1.007 3.298-1.492 5.103-1.492 1.805 0 3.785.485 5.137 1.492" stroke="#ffcf00"/>
    <path d="M314.31 210.76c1.32-1.007 3.263-1.458 5.033-1.458 1.805 0 3.75.45 5.067 1.493" stroke="#ffc400"/>
    <path d="M314.342 210.688c1.32-1.007 3.228-1.458 4.998-1.458s3.68.45 4.998 1.458" stroke="#ffba00"/>
    <path d="M314.414 210.584c1.285-.972 3.16-1.423 4.93-1.423 1.77 0 3.644.452 4.962 1.424" stroke="#ffb000"/>
    <path d="M314.446 210.512c1.32-1.007 3.124-1.424 4.894-1.424 1.736 0 3.61.45 4.894 1.424" stroke="#ffa600"/>
    <path d="M314.518 210.408c1.285-.972 3.055-1.39 4.825-1.39 1.7 0 3.54.418 4.824 1.39" stroke="#ff9c00"/>
    <path d="M314.55 210.344c1.285-.972 3.055-1.39 4.79-1.39 1.7 0 3.506.418 4.79 1.355" stroke="#ff9100"/>
    <path d="M314.622 210.232c1.285-.937 2.985-1.354 4.72-1.354 1.667 0 3.473.416 4.723 1.32" stroke="#ff8700"/>
    <path d="M314.654 210.168c1.285-.972 2.95-1.354 4.686-1.354 1.666 0 3.402.416 4.686 1.32" stroke="#ff7d00"/>
    <path d="M314.726 210.064c1.25-.937 2.88-1.318 4.616-1.318 1.63 0 3.368.416 4.617 1.283" stroke="#ff7500"/>
    <path d="M314.758 209.992c1.284-.937 2.846-1.318 4.582-1.318 1.63 0 3.297.38 4.547 1.25" stroke="#ff6b00"/>
    <path d="M314.83 209.888c1.25-.937 2.81-1.285 4.512-1.285 1.596 0 3.263.382 4.513 1.25" stroke="#ff6100"/>
    <path d="M314.862 209.816c1.285-.937 2.777-1.285 4.478-1.285 1.562 0 3.228.383 4.443 1.216" stroke="#ff5700"/>
    <path d="M313.854 211.384c1.423-1.11 3.61-1.63 5.484-1.63 1.944 0 4.06.554 5.45 1.665" stroke="#ebf605"/>
    <path d="M313.822 211.488c1.492-1.18 3.61-1.666 5.52-1.666 1.942 0 4.13.555 5.517 1.7" stroke="#d6ec09"/>
    <path d="M313.75 211.592c1.562-1.25 3.61-1.735 5.588-1.735 1.98 0 4.166.59 5.554 1.735" stroke="#c2e30e"/>
    <path d="M313.686 211.696c1.666-1.32 3.644-1.77 5.658-1.77 1.978 0 4.2.59 5.588 1.77" stroke="#add912"/>
    <path d="M313.646 211.8c1.7-1.353 3.645-1.805 5.658-1.805 2.048 0 4.27.59 5.692 1.77" stroke="#99cf16"/>
    <path d="M313.582 211.904c1.805-1.424 3.645-1.875 5.727-1.875 2.082 0 4.338.623 5.726 1.84" stroke="#85c61a"/>
    <path d="M313.542 212.008c1.84-1.492 3.645-1.91 5.762-1.91 2.083 0 4.374.625 5.796 1.84" stroke="#70bc1f"/>
    <path d="M313.47 212.112c1.944-1.562 3.68-1.978 5.83-1.978 2.12 0 4.41.66 5.833 1.91" stroke="#5cb323"/>
    <path d="M313.406 212.176c2.013-1.597 3.68-1.978 5.9-1.978 2.118 0 4.444.66 5.902 1.91" stroke="#47a928"/>
    <path d="M313.094 212.736c1.77-1.562 3.818-2.117 6.248-2.117 2.29 0 4.687.59 6.214 2.08" stroke="#0d74a4"/>
    <path d="M313.126 212.696c1.805-1.596 3.783-2.152 6.213-2.152 2.29 0 4.65.624 6.178 2.082" stroke="#127a97"/>
    <path d="M313.166 212.632c1.84-1.596 3.783-2.117 6.18-2.117 2.255 0 4.65.624 6.143 2.048" stroke="#17808b"/>
    <path d="M313.198 212.56c1.874-1.596 3.75-2.083 6.144-2.083 2.222 0 4.617.625 6.074 2.014" stroke="#1a847d"/>
    <path d="M313.23 212.528c1.91-1.63 3.75-2.117 6.074-2.117 2.257 0 4.618.66 6.074 2.014" stroke="#1e8a6d"/>
    <path d="M313.27 212.456c1.944-1.63 3.714-2.083 6.04-2.083 2.22 0 4.582.66 6.04 2.014" stroke="#238f5e"/>
    <path d="M313.302 212.424c1.978-1.666 3.714-2.083 6.005-2.083 2.187 0 4.548.66 6.005 1.98" stroke="#2b944e"/>
    <path d="M313.334 212.352c2.013-1.667 3.68-2.048 5.97-2.048 2.152 0 4.548.66 5.97 1.944" stroke="#2f9b3e"/>
    <path d="M323.23 208.776c-1.146-.763-2.464-1.007-3.922-1.007-1.563 0-2.777.277-3.957 1.075" stroke="red"/>
    <path d="M326.87 214.856c-1.596-2.256-4.304-3.333-7.497-3.333-2.88 0-5.206.625-7.186 2.638" stroke="#2a007c"/>
    <path d="M325.59 212.736c-1.527-1.492-3.92-2.083-6.247-2.083-2.464 0-4.547.59-6.282 2.153" stroke="#0671b0"/>
    <path d="M326.182 213.672c-1.632-1.978-4.13-2.603-6.873-2.603-2.57 0-5.034.59-6.665 2.36" stroke="#0c419a"/>
    <path d="M324.758 211.344c-1.39-1.11-3.505-1.632-5.414-1.632-1.84 0-4.062.52-5.415 1.562" stroke="#ff0"/>
    <path d="M323.71 209.648c-1.215-.798-2.81-1.18-4.41-1.18-1.664 0-3.123.346-4.373 1.284" stroke="#ff4d00"/>
    <path d="M325.238 212.176c-1.424-1.25-3.783-1.944-5.936-1.944-2.256 0-3.887.382-5.935 2.048" stroke="#33a02c"/>
  </g>
  <g stroke-miterlimit="2.613" fill="none" stroke-width=".139">
    <path d="M311.95 214.504c2.256-1.11 4.617-1.805 7.358-1.805 2.603 0 5.38.97 7.567 2.15l7.705 12.88c0 8.433-6.08E4E96AD2" stroke="#fef2ec"/>
    <path d="M319.31 212.872c2.568 0 5.31 1.007 7.462 2.152.035 0 7.602 12.67 7.602 12.704 0 8.295-6.77 15.203-1501FECC8A90" stroke="#fef2ea"/>
    <path d="M319.27 213.288c2.534 0 5.206.937 7.29 2.083.07.035 7.392 12.253 7.392 12.358 0 8.087-6.595 14.82-140B182AEADE" stroke="#fef0e6"/>
    <path d="M319.27 213.704c2.465 0 5.067.902 7.08 2.013.14.07 7.22 11.87 7.22 12.045 0 7.845-6.42 14.37-14.3 1403753C9A83" stroke="#feede3"/>
    <path d="M319.27 214.296c2.36 0 4.86.868 6.803 1.944.21.14 6.874 11.246 6.874 11.525 0 7.497-6.145 13.745-13.0A5E8F5A87" stroke="#fee8dc"/>
    <path d="M319.27 214.712c2.29 0 4.72.833 6.595 1.874.278.173 6.665 10.83 6.665 11.177 0 7.29-5.97 13.363-13.20F894DCA21" stroke="#fee6d5"/>
    <path d="M319.27 215.304c2.187 0 4.513.833 6.283 1.805.38.207 6.352 10.203 6.352 10.655 0 6.977-5.658 12.738-07A5671AAC" stroke="#fee3cf"/>
    <path d="M319.27 215.72c2.152 0 4.34.763 6.108 1.735.417.244 6.145 9.788 6.145 10.31 0 6.734-5.52 12.322-12.20E3CCA3A6E" stroke="#fee0cc"/>
    <path d="M319.27 216.136c2.083 0 4.2.73 5.9 1.666.452.277 5.936 9.406 5.936 9.997 0 6.49-5.31 11.904-11.836 106E4ED7ACE" stroke="#fedec6"/>
    <path d="M319.27 218.776c1.63 0 3.263.556 4.582 1.285.833.486 4.582 6.734 4.582 7.776 0 5.032-4.096 9.198-9.106E2AE5AE9" stroke="#fdcdaa"/>
    <path d="M319.27 218.952c1.596 0 3.194.555 4.478 1.285.868.52 4.477 6.525 4.477 7.6 0 4.93-4.025 8.99-8.955 806885D7AA9" stroke="#fdcdaa"/>
    <path d="M319.27 219.952c1.424 0 2.846.486 3.992 1.146 1.007.59 3.957 5.484 3.957 6.733 0 4.374-3.576 7.984-70B0C16EA53" stroke="#fdc59e"/>
    <path d="M319.27 220.16c1.39 0 2.777.45 3.888 1.11 1.042.625 3.852 5.276 3.852 6.562 0 4.27-3.47 7.775-7.74 708F6F98A55" stroke="#fdc59e"/>
    <path d="M319.31 213.08c2.534 0 5.24.972 7.36 2.117.034.035 7.495 12.46 7.495 12.53 0 8.193-6.7 15.03-14.855 00BA5DFA29" stroke="#fef0e9"/>
    <path d="M319.27 213.496c2.5 0 5.136.937 7.185 2.048.105.07 7.324 12.08 7.324 12.218 0 7.948-6.527 14.58-14.506ED770A52" stroke="#feede3"/>
    <path d="M319.27 213.912c2.43 0 4.998.902 6.977 1.978.174.105 7.116 11.663 7.116 11.872 0 7.74-6.353 14.162-1052B7BDACC" stroke="#feebdf"/>
    <path d="M319.27 214.088c2.395 0 4.93.902 6.907 1.978.174.105 6.977 11.455 6.977 11.698 0 7.636-6.248 13.954-0EE07C1A52" stroke="#feebdd"/>
    <path d="M319.27 214.504c2.326 0 4.79.868 6.7 1.91.242.138 6.768 11.037 6.768 11.35 0 7.392-6.04 13.536-13.46048672DAB1" stroke="#fee8d9"/>
    <path d="M319.27 214.92c2.256 0 4.652.833 6.49 1.84.313.173 6.56 10.62 6.56 11.003 0 7.185-5.865 13.155-13.050BD3014A50" stroke="#fee6d3"/>
    <path d="M319.27 215.128c2.222 0 4.582.798 6.386 1.805.348.208 6.457 10.413 6.457 10.83 0 7.08-5.762 12.946-106473DBAF5" stroke="#fee3d2"/>
    <path d="M319.27 215.512c2.187 0 4.41.798 6.18 1.77.415.243 6.28 9.997 6.28 10.483 0 6.873-5.622 12.53-12.46 05A7815A03" stroke="#fee0cc"/>
    <path d="M319.27 215.928c2.117 0 4.27.763 6.005 1.7.416.278 6.04 9.615 6.04 10.17 0 6.596-5.415 12.08-12.045 01520E2ABF" stroke="#fedec8"/>
    <path d="M319.27 216.344c2.048 0 4.13.73 5.797 1.63.486.314 5.83 9.2 5.83 9.824 0 6.387-5.24 11.698-11.627 110383102A10" stroke="#fddbc5"/>
    <path d="M319.27 216.52c2.013 0 4.06.73 5.692 1.63.52.314 5.727 8.992 5.727 9.652 0 6.282-5.137 11.488-11.42 0AFA370A42" stroke="#fddbc2"/>
    <path d="M319.27 216.728c1.978 0 3.992.694 5.588 1.597.556.347 5.624 8.782 5.624 9.477 0 6.178-5.033 11.28-11020C902ADD" stroke="#fdd9bf"/>
    <path d="M319.27 216.936c1.944 0 3.922.694 5.484 1.562.59.347 5.52 8.574 5.52 9.303 0 6.075-4.93 11.073-11.000AE3EE4A6D" stroke="#fdd9bf"/>
    <path d="M319.27 217.144c1.91 0 3.854.66 5.38 1.527.625.383 5.415 8.366 5.415 9.13 0 5.935-4.86 10.864-10.7950F0D1CCA2F" stroke="#fdd6bc"/>
    <path d="M319.27 217.352c1.874 0 3.784.66 5.275 1.493.66.38 5.31 8.158 5.31 8.955 0 5.83-4.754 10.656-10.585 04BC2A1A95" stroke="#fdd6b9"/>
    <path d="M319.27 217.56c1.84 0 3.715.624 5.206 1.458.66.416 5.207 7.95 5.207 8.782 0 5.727-4.686 10.482-10.4109D4C65A7B" stroke="#fdd4b8"/>
    <path d="M319.27 217.736c1.805 0 3.645.66 5.102 1.457.695.417 5.102 7.74 5.102 8.61 0 5.622-4.58 10.273-10.20065CCBEA8F" stroke="#fdd4b6"/>
    <path d="M319.27 217.944c1.77 0 3.576.624 4.998 1.423.73.417 4.998 7.532 4.998 8.435 0 5.518-4.512 10.065-9.90E27F3BA8F" stroke="#fdd2b2"/>
    <path d="M319.27 218.152c1.735 0 3.506.59 4.894 1.39.764.45 4.894 7.322 4.894 8.295 0 5.38-4.408 9.823-9.788 0BA1B04AEF" stroke="#fdd1b0"/>
    <path d="M319.27 218.36c1.7 0 3.402.59 4.79 1.354.8.45 4.79 7.116 4.79 8.122 0 5.276-4.304 9.615-9.58 9.615s-09C7D3DA85" stroke="#fdd0b0"/>
    <path d="M319.27 218.568c1.666 0 3.333.555 4.687 1.318.833.487 4.685 6.943 4.685 7.95 0 5.136-4.2 9.406-9.372099AE44AFE" stroke="#fdd0ad"/>
    <path d="M319.27 219.16c1.562 0 3.124.52 4.41 1.25.866.52 4.338 6.317 4.338 7.427 0 4.825-3.922 8.817-8.748 80E7FEF3AE0" stroke="#fdcaa6"/>
    <path d="M319.27 219.368c1.528 0 3.055.52 4.304 1.215.903.556 4.235 6.11 4.235 7.255 0 4.72-3.82 8.608-8.54 80F9F302A69" stroke="#fdcaa4"/>
    <path d="M319.27 219.576c1.493 0 2.985.486 4.2 1.18.937.555 4.166 5.9 4.166 7.08 0 4.618-3.75 8.4-8.366 8.4s-0FE17DBAF5" stroke="#fdc8a4"/>
    <path d="M319.27 219.784c1.458 0 2.916.486 4.096 1.145.972.59 4.06 5.69 4.06 6.907 0 4.512-3.678 8.19-8.156 806E4F38AB2" stroke="#fdc8a1"/>
    <path d="M319.27 220.368c1.354 0 2.707.45 3.784 1.076 1.076.625 3.748 5.067 3.748 6.387 0 4.167-3.367 7.568-7095F4B9A17" stroke="#fdc39b"/>
    <path d="M319.27 220.576c1.32 0 2.638.417 3.68 1.04 1.11.66 3.644 4.86 3.644 6.25 0 4.026-3.298 7.36-7.324 7.07DF6DEA6E" stroke="#fdc398"/>
    <path d="M319.27 220.784c1.285 0 2.568.416 3.61 1.007 1.11.66 3.506 4.652 3.506 6.074 0 3.923-3.194 7.15-7.110D75546AF3" stroke="#fdc097"/>
    <path d="M319.27 221c1.25 0 2.5.38 3.506.972 1.146.694 3.4 4.478 3.4 5.9 0 3.82-3.087 6.943-6.906 6.943-3.81801E3616AD0" stroke="#fdc095"/>
    <path d="M319.27 221.168c1.215 0 2.395.416 3.402.972 1.18.694 3.297 4.27 3.297 5.727 0 3.714-2.985 6.735-6.7 0FF4E10ABF" stroke="#fdbe92"/>
    <path d="M319.27 221.376c1.18 0 2.326.38 3.298.937 1.18.73 3.192 4.06 3.192 5.553 0 3.575-2.914 6.527-6.49 6.07B5877AF9" stroke="#fdbe90"/>
    <path d="M319.27 221.584c1.146 0 2.256.347 3.194.902 1.215.73 3.123 3.853 3.123 5.38 0 3.472-2.845 6.318-6.310B250E5A62" stroke="#fdbb8f"/>
    <path d="M319.27 221.792c1.11 0 2.187.347 3.09.868 1.25.763 3.018 3.644 3.018 5.206 0 3.367-2.74 6.11-6.108 608532F8AAD" stroke="#fdbb8d"/>
    <path d="M319.27 222a5.84 5.84 0 0 1 2.985.833c1.285.763 2.916 3.436 2.916 5.032 0 3.263-2.637 5.936-5.9 5.93036307DACF" stroke="#fdb98a"/>
    <path d="M319.27 222.208a5.78 5.78 0 0 1 2.88.798c1.32.798 2.812 3.23 2.812 4.86 0 3.16-2.568 5.727-5.692 5.70E2BF80A66" stroke="#fdb98a"/>
    <path d="M319.27 222.384c1.007 0 1.978.313 2.81.798 1.32.798 2.674 3.02 2.674 4.686 0 3.055-2.464 5.52-5.484 0F994EBAA9" stroke="#fcb687"/>
    <path d="M319.27 222.592c.972 0 1.91.278 2.707.763 1.354.833 2.568 2.812 2.568 4.512 0 2.95-2.36 5.31-5.275 503B7335A95" stroke="#fcb685"/>
    <path d="M319.27 222.8c.937 0 1.84.277 2.603.73 1.39.832 2.464 2.602 2.464 4.337 0 2.81-2.256 5.103-5.067 5.1090495AA1D" stroke="#fcb485"/>
    <path d="M319.27 232.76a4.874 4.874 0 0 0 4.86-4.86c0-2.707-2.188-4.894-4.86-4.894a4.89 4.89 0 0 0-4.894 4.895c0 2.673 2.187 4.86 4.894 4.86z" stroke="#fcb482"/>
  </g>
  <path d="M319.31 232.8c2.672 0 4.86-2.187 4.86-4.894a4.875 4.875 0 0 0-4.86-4.86c-2.707 0-4.894 2.187-4.894 4.86a4.89 4.89 0 0 0 4.894 4.894z" stroke-miterlimit="2.613" fill="#fff" fill-rule="evenodd" stroke="#fff" stroke-width=".104"/>
  <g stroke="#000" stroke-width=".104">
    <path d="M320.35 223.112l.552-2.6m-1.072 2.536l.272-2.64m-.792 2.6v-2.64m-.488 2.68l-.28-2.64m-.24 2.704l-.56-2.6m.072 2.744l-.832-2.536m.344 2.704L316.254 221m.624 2.632l-1.352-2.288m.896 2.568l-1.56-2.12m1.184 2.464l-1.808-1.976m1.424 2.328l-1.976-1.776m1.664 2.192l-2.152-1.56m1.84 1.976l-2.288-1.32m2.08 1.768l-2.432-1.072m2.224 1.56l-2.504-.832m2.36 1.32l-2.568-.56m2.504 1.08l-2.64-.28m2.6.8h-2.632m2.672.488l-2.64.272m2.704.248l-2.6.552m2.744-.072l-2.536.84m2.712-.352l-2.432 1.08m2.672-.624l-2.816 1.736m3.088-1.288l-5.76 4.096m6.08-3.712l-6.144 5.448m6.488-5.072l-5.072 5.664m5.488-5.344l-3.856 5.168m4.272-4.856l-4.024 6.976m4.48-6.768l-2.224 5.064m2.704-4.856l-2.256 6.976m2.744-6.84l-.968 4.688m1.488-4.616l-.696 7.216m1.704-7.216l.28 2.632m.24-2.704l1.56 6.8m-1.072-6.936l1.32 4.024m-.84-4.2l3.096 6.696m-2.608-6.936l3.296 5.688m-2.88-5.968l4.76 6.248m-4.344-6.56l4.168 4.824m-3.816-5.168l6.176 5.616m-5.864-6.04l3.368 2.432m-3.056-2.848l2.288 1.32m-2.08-1.768l2.432 1.072m-2.224-1.56l2.496.832m-2.36-1.32l2.568.56m-2.496-1.08l2.64.28m-2.608-.8h2.64m-2.672-.488l2.64-.272m-2.712-.248l2.608-.552m-2.744.072l2.536-.832m-2.712.344l2.432-1.08m-2.64.592l2.296-1.32m-2.576.904l2.12-1.56m-2.464 1.144l1.976-1.768m-2.32 1.424l1.768-1.984m-2.184 1.632l1.56-2.112m-1.976 1.84l1.312-2.296m-1.768 2.088l1.08-2.432m-1.568 2.224l.84-2.504m-2.36-3.96v-2.048m-2.296 2.296l-.416-2.016m-1.8 2.712l-.84-1.84m-1.176 3.016l-1.216-1.664m-.52 3.192l-1.528-1.352m.176 3.264l-1.808-1.04m.832 3.152l-1.944-.656m1.456 2.912l-2.048-.208m2.048 2.536l-2.048.208m2.536 2.088l-1.976.624m22.176 1.528l1.776 1.04m-.84-3.16l1.944.624m-1.456-2.88l2.048.208m-2.048-2.536l2.048-.208m-2.536-2.08l1.984-.624m-2.92-1.496l1.776-1.04m-3.128-.832l1.528-1.392m-3.224-.168l1.176-1.672m-3.192.488l.832-1.872m-3.056 1.144l.416-1.976" fill="none"/>
    <path d="M322.15 230.192s-.694-.382-1.11-.382c-.417 0-2.257-.104-2.986.104-.416.14-.763.486-.763.486s.486.4860BD0F94AB7" stroke-miterlimit="2.613" fill="#e60000" fill-rule="evenodd"/>
    <path d="M317.43 229.464s.07-1.354 1.007-3.055c0 0-.312.485-.486.902 0 0-.52.278-.833-.104-.31-.312-.138-.45.05B5BFCAB3" stroke-miterlimit="2.613" fill="#e60000" fill-rule="evenodd"/>
    <path d="M317.43 229.464s.52-.313 2.29-.278c2.05.035 2.118.174 2.257.313" stroke-miterlimit="2.613" fill="none"/>
    <path d="M319.198 237.104v-7.185s.243-.21.798 0v7.114s.174 5.45-.417 5.415c-.695 0-.382-1.25-.382-5.346z" stroke-miterlimit="2.613" fill="#fc0" fill-rule="evenodd"/>
  </g>
  <g fill="#e60000">
    <path d="M311.774 231.064l.14.278-1.39.59.21.485-.21.07c-.138-.313-.242-.416-.59-.347l-.103-.208 1.944-.868zm069C190A14" fill-rule="evenodd"/>
    <path d="M311.048 222.024a.714.714 0 0 0-.425.325l-.475.824 1.825 1.15.175-.225-.8-.5.35-.576c.242-.417.077-.0AA37BEAD5"/>
    <path d="M313.578 222.142l-.173.207-1.39-1.32-.52.522-.173-.174 1.215-1.284.21.173-.522.555zm.729-.625l-1.28401C08ABA56" fill-rule="evenodd"/>
    <path d="M319.024 217.6l-.1 2.175.925.025c.484.035.774-.228.774-.575.035-.38-.236-.48-.375-.55.242-.103.3-.310789B10ABB"/>
    <path d="M324.026 219.052l-.347.555 1.04.626-.14.207-1.04-.59-.348.625 1.11.66-.102.21-1.39-.8 1.077-1.875 1.39.798-.14.244z" fill-rule="evenodd"/>
    <path d="M326.648 220.648l-1.65 1.375.55.7c.486.52 1.07.287 1.45-.025.486-.382.607-.95.225-1.4l-.575-.65zm-.00FEDC1BAE8"/>
    <path d="M328.156 223.08l-.625.31.556 1.042-.243.14-.52-1.076-.658.312.59 1.18-.244.104-.727-1.423 1.942-.9730973B35A74" fill-rule="evenodd"/>
    <path d="M328.072 227.624c-.103 0-.292-.008-.5.2a.86.86 0 0 0-.175.525c-.035.485.312.724.625.724.173.035.41-.020301FA73"/>
    <path d="M328.71 229.536c.694.173.624.694.59.902-.104.347-.416.59-.798.487-.348-.07-.45-.348-.555-.73l-.07-.20265765AA9" fill-rule="evenodd"/>
  </g>
  <path d="M319.306 202.252L282.998 263h72.648z" stroke-miterlimit="2.613" fill="none" stroke="#000" stroke-width=".243"/>
  <g stroke-miterlimit="2.613" fill="none">
    <path d="M321.246 255.496c.937.243 2.083.382 3.228.07 1.562-.383 3.02-1.285 4.86-1.11 1.318.137 3.123 1.283 5.31 1.283 2.152 0 2.88-.765 4.755-1.147 1.318-.277 1.98-.138 3.4.173 1.632.313 2.465 1.25 5.207 1.043" stroke="#000" stroke-width=".104"/>
    <path d="M293.238 258.104c1.214-.938 3.366-1.32 4.998-.938 2.153.452 3.09 1.007 5.38.972 1.702-.034 3.16-1.18 4.894-1.18 2.88 0 2.985.59 5.52 1.076a5.64 5.64 0 0 0 2.15 0 9.463 9.463 0 0 0 2.535-.868c.798-.416 2.81-.347 3.818-.242 1.805.172 2.533.867 2.915.97.972.244 2.083.384 3.228.07 1.562-.45 3.02-1.457 4.894-1.25 1.32.14 3.123 1.424 5.276 1.424 2.153 0 2.915-.868 4.756-1.284 1.354-.313 2.013-.14 3.436.174 1.597.38 2.464 1.422 5.206 1.18" stroke="#fff" stroke-width=".382"/>
    <path d="M289.142 256.056c1.215-.798 3.367-1.146 4.998-.833 2.153.417 3.09.937 5.38.902 1.7-.034 3.16-1.076 4.894-1.076 2.88 0 2.985.555 5.52.97.66.105 1.492.105 2.15 0 .938-.137 1.77-.45 2.535-.797.762-.347 2.81-.278 3.817-.208 1.805.173 2.533.764 2.915.868.972.208 2.083.347 3.228.07 1.562-.417 3.02-1.286 4.894-1.112 1.32.14 3.124 1.285 5.276 1.25 2.153 0 2.916-.763 4.756-1.145 1.354-.278 2.013-.104 3.436.174 1.597.346 2.464 1.283 5.206 1.04" stroke="#fff" stroke-width=".278"/>
    <path d="M285.39 261.992c1.215-1.007 3.367-1.423 5.033-1.04 2.118.52 3.055 1.144 5.346 1.11 1.7-.035 3.192-1.32 4.893-1.32 2.916 0 2.984.66 5.52 1.216a5.822 5.822 0 0 0 2.186 0 8.38 8.38 0 0 0 2.497-1.007c.8-.415 2.812-.346 3.853-.242 1.77.208 2.5.937 2.88 1.076.973.243 2.084.416 3.263.07 1.563-.52 3.02-1.597 4.86-1.39 1.32.174 3.124 1.597 5.31 1.597 2.118 0 2.882-.97 4.72-1.456 1.355-.347 2.015-.14 3.437.208 1.632.416 2.464 1.597 5.207 1.32" stroke="#fff" stroke-width=".486"/>
    <path d="M286.366 258.584c1.25-.833 3.402-1.146 5.033-.833 2.15.417 3.088.903 5.38.87.763 0 1.458-.21 2.187-.453" stroke="#fff" stroke-width=".278"/>
    <path d="M297.366 255.048c.347-.104 1.353-.59 2.81-.59 2.917 0 1.078.035 3.61.486.66.104 2.5.14 3.02-.382m25.416 8.23c.937-.174 1.736-.452 2.534-.8.763-.346 2.776-.31 3.818-.207 1.805.174 2.498.764 2.915.833.97.244 2.082.382 3.227.07 1.562-.382 3.02-1.285 4.894-1.11 1.32.138 3.125 1.284 5.277 1.284" stroke="#000" stroke-width=".243"/>
    <path d="M336.694 254.768c2.153 0 2.88-.763 4.756-1.146 1.32-.277 1.978-.104 3.4.174 1.632.313 2.465 1.285 5.207 1.04" stroke="#fff" stroke-width=".278"/>
    <path d="M285.494 262.2c1.25-.798 3.4-1.146 5.033-.833 2.152.417 3.09.937 5.38.902 1.7-.035 3.16-1.077 4.894-1.077 2.882 0 2.986.556 5.52.972a7.46 7.46 0 0 0 2.152 0c.937-.14 1.735-.45 2.533-.798.764-.347 2.777-.278 3.818-.174 1.805.14 2.5.73 2.915.833" stroke="#000" stroke-width=".104"/>
    <path d="M290.078 259.56c1.25-.833 3.4-1.146 5.032-.833 2.153.417 3.09.902 5.346.868 1.735-.035 3.193-1.076 4.894-1.042 2.916 0 3.02.52 5.554.972a7.39 7.39 0 0 0 2.152 0c.937-.173 1.735-.45 2.533-.798.763-.347 2.776-.313 3.818-.208 1.77.172 2.498.763 2.915.832.937.243 2.083.382 3.23.07 1.56-.382 3.018-1.285 4.893-1.11 1.422.137 3.227 1.283 5.275 1.283 2.154 0 2.917-.764 4.756-1.146 1.32-.28 1.98-.14 3.437.173 1.596.312 2.464 1.25 5.17 1.006" stroke="#000" stroke-width=".486"/>
  </g>
  <g fill="#fc0" fill-rule="evenodd" stroke="#000" stroke-width=".208">
    <path d="M291.054 249.456c.347.07 1.18-.59 1.424-.764.346-.21.52-.73.798-1.007.277-.313 1.11-.694 1.492-.937 01732A0A00"/>
    <path d="M327.326 253.696c-.763-.486-1.528-1.007-2.36-1.424-.973-.45-1.737-1.25-2.534-2.013-.174-.14-.243-.48000D447A4D"/>
    <path d="M319.094 242.448c.277.07.59.174.902.278 1.285.382 1.598 1.215 2.603 2.083.486.45 1.006.832 1.63 1.110F95762A02"/>
    <path d="M327.566 244.424c.243.277.486.555.833.868.45.417.936.73 1.492 1.006.035.035.174.243.243.278.52.382 109EFBBAA86"/>
    <path d="M343.294 252.48a7.36 7.36 0 0 0-1.25-.73c-.59-.31-1.04-.797-1.562-1.248-.104-.105-.138-.278-.243-.4106BB18CAE2"/>
  </g>
  <path d="M303.166 238.976c.45-.07.242-.173.66.104m-1.492.448c.486-.07.66-.382 1.007.035m-1.463.285c.208 0 .347-.243 1.007.138m-1.487.414c.417-.104.66-.07 1.076.07m-1.636.346c.486-.14.694.208 1.215.104m-1.807.488c.312 0 .417-.104.694 0 .347.104.277.035.624.07m-1.974.554c.347 0 .45-.07.763-.035.416.07.313.105.73.035m-1.877.52c.694-.07.902-.035 1.388.14m-2.324 1.14c.59-.174.868-.174 1.39.035m-11.038 9.893c1.91-.313 4.165.035 6.074-.243m3.854-10.309c.486-.174.38-.104.868-.07.486.07.694.14.833.07m-2.469 1.112c.486-.243 1.076-.104 1.562.035m-.306.485c-.52-.14-1.076-.035-1.63 0m1.214.56c-.556-.174-1.146-.243-1.7-.07m-.772.486c.694 0 1.354-.174 2.048.07m-2.632.482c.73-.243 1.458-.035 2.222.035m-2.918.381c.763-.035 1.492-.035 2.256-.07.105 0 .348-.104.486.07m-.246.416c-1.146.243-2.29.07-3.437.104m2.813.488c-.382.035-.972.174-1.493.14-.105-.036-.21-.105-.313-.105-.59-.035-1.18-.035-1.735.173m-.243.416a.996.996 0 0 1 .763-.104c.73.104 1.424 0 2.12.173.173.07.346.173.554.173m-3.853.038c.52 0 1.04-.07 1.562.035.66.174 1.284.313 1.978.348h-.07m-3.958.001c.555 0 1.076.104 1.632.208.73.14 1.457-.07 2.152.14m-4.44-.004c.73.312 1.493.035 2.256.174.73.138 1.39.103 2.083.242m-4.827.136c1.11.035 2.222 0 3.367.208.312.07.798.21 1.215.14m-4.958.14c1.076.208 2.187.035 3.262.313.487.104 1.007.207 1.528.207h-.07m-5.176.312c.103-.035.242-.104.347-.104.867 0 1.7.14 2.603.035.694-.035 1.457-.105 2.152.138h-.07m-5.416.491c1.735-.174 3.506.07 5.242 0m-5.554.52c1.84.208 3.68.035 5.484.174m-5.756.378c.798.174 1.597-.07 2.395.104.59.104 1.11.208 1.702.104.52-.14 1.006.035 1.492-.034m7.427-7.598h.174m-.35.208c.07.035.174-.104.208.035m-.416.245h.38m-.556.24h.486m-.798.312c.278.035.52.07.798.07h-.07m-1 .346c.312-.104.66 0 .972-.104h-.07m-1.318.592h1.32-.07m-1.466.312c.486 0 .937-.07 1.39.035h-.036m-1.626.413c.52-.07 1.076 0 1.632.07m-1.944.418c.347-.035.624.174.972.243.278.07.52 0 .763-.036m-1.839.177c.52.174 1.076.208 1.596.243m-1.908.173c.45-.035.868.07 1.32.208.207.07.415.034.59.034h-.036m-2.466.414c.556-.243 1.215-.07 1.805.104.208.07.417-.034.66-.034h-.07m-2.467.346c.66-.208 1.354-.208 1.98.07.103.034.242 0 .346 0m-2.742.418c.868.174 1.77-.103 2.638.14m-2.878.244c.694.278 1.458 0 2.222.208.242.07.485.07.728-.034m-3.438.346c.313-.104.625-.174.937-.104.832.208 1.596.14 2.36.243m-3.681.413c.174-.035.347.104.486.07 1.076-.174 2.152 0 3.193-.07m-3.951.416c.833.312 1.7 0 2.603.243.346.105.797.14 1.18 0m-4.095.349c1.285.035 2.5-.035 3.992.14m3.296-7.5c.14-.035.243.104.382.07m-.558.314c.174-.035.313-.104.486-.07m-.622.414c.242.035.45-.035.694.07m-.87.418c.277 0 .59 0 .868.07m-1.108.418c.38-.104.73.035 1.11-.07m-1.15.414c.347.14.694.035 1.076.07v-.07m-1.284.552c.347-.035.66-.07.972.07.104.034.243 0 .382-.07m-1.386.488c.45-.174.902.104 1.39 0m-1.598.592c.52-.035 1.007.07 1.528 0m-1.704.448c.208-.07.45-.208.66-.104.31.14.693.07 1.04.104m-1.804.528c.59-.208 1.215.14 1.805-.174m-1.877.726c.277-.07.555-.07.868.035.312.07.694.034 1.076-.035m-2.112.52c.694-.14 1.424 0 2.152-.035l-.034.035m-2.534.488c.902-.07 1.84-.174 2.742-.174m-2.638.726c1.007-.174 2.048-.104 3.09-.14m-3.266.7c1.007.14 1.215-.07 2.222-.103.173 0 1.04-.175 1.215-.21.14-.034.45 0 .59 0m-4.027.585c1.528-.14 3.09.14 4.65-.243m-11.282.075h1.214m4.69.168c.14.07.312-.07.416.07m5.384-.174c1.25-.14 2.534.243 3.783 0m-4.415-.416c.798-.242 1.528-.07 2.29.07.07 0 .07.173.14.208.694.104 1.354 0 2.048-.035m-8.918-.307h-.798m-4.162-.176c-.555.035-1.11.035-1.666.104m12.114-11.8h.243m-.139.344c.104.035.208 0 .312-.035m-.248.595c.035-.035.035-.104.07-.104.103-.035.242-.035.346-.035m-.272.483c.174-.104.382-.035.59-.035m.066.347c-.208-.035-.382.035-.556.104m.244.488a.77.77 0 0 1 .555-.104m.245.416h-.798m.238.416c.278 0 .555.07.763-.104m.213.592c-.313 0-.59 0-.868.07m.204.514c.312.035.624-.035.937-.174m.071.318c-.277.14-.59.174-.902.243m.174.517c.382-.208.833-.035 1.215-.173m.105.485c-.312 0-.624-.07-.937.035-.104.034-.174.104-.313.104m.242.765c.243-.104.486-.277.763-.242.034-.174.208 0 .277-.105.07-.035.208 0 .347 0m.173.523c-.45-.035-.937.07-1.388.14m.14.588c.52-.208 1.04-.208 1.596-.278m-1.556.934c.59-.14 1.215-.104 1.77-.347m.414.419c-.66.104-1.32 0-1.944.313m.136.591c.104.035.174.104.278.07.625-.244 1.25-.45 1.874-.382m.176.448c-.624.347-1.354.208-2.048.243-.07 0-.138.07-.242.105m.242.42c.763-.104 1.493-.14 2.256-.243m.488.483c-.624.104-1.215-.035-1.805.104-.277.035-.52.14-.798.21m.099.486c.104 0 .242.035.312-.035.763-.45 1.63-.31 2.464-.346m.248.485c-.694 0-1.424-.174-2.117.07-.242.103-.485.242-.763.242m.24.52c.38-.07.73-.243 1.076-.313.798-.105 1.596-.035 2.395-.035m.001.42c-.452-.104-.937-.14-1.354 0-.694.174-1.32.347-2.013.38m.383.348c.556-.07 1.076-.242 1.632-.382.45-.104.902-.034 1.354-.034m-2.954.728c.833-.14 1.667 0 2.5-.278.277-.104.59.07.9.035m0-.317c1.39.103 2.777-.174 4.13.138m-3.85.278c.173.035.312-.104.416-.104 1.146 0 2.29.035 3.436.104m-.412-2.944h.174m-.11.376c.14.07.277-.174.416 0m-.312.416h.73m-.522.592c.243-.277.59 0 .833-.173m-.657.733c.313-.278.763.035 1.076-.243m-1.004.659c.45-.14.937.034 1.388-.243m-1.22.659c.694-.312 1.492.14 2.152-.347m-2.08.691c.868-.278 1.77 0 2.638-.035m.554.003c1.528-.07 3.09-.104 4.616 0m-5.272-.56c1.354.138 3.4 0 5.103.138m-12.599-10.586c.103 0 1.04-.174 1.11-.174m-.798.422c.278.035.937.035 1.18-.174m-.732.622c0-.035.798-.173.833-.173.104-.036.243 0 .38-.036m-.861.449c.138-.104 1.25-.035 1.457-.07m.271.318c-.208 0-1.11.035-1.25.14m.77.484c.14-.103.798-.208 1.04-.208m.52.384c-.278 0-.868.07-1.18.07m.588.45c.312-.035.868-.104 1.04-.243m.56.515c-.313 0-.73.035-1.146.07m.522.418c.38 0 .937 0 1.215-.104m.417.24c-.243.14-.73.174-1.04.243m.512.493c.313-.208.868-.07 1.25-.208m.422.448c-.38 0-.763-.035-1.04.035-.106.034-.14.104-.314.104m2.602.797c-.556-.035-1.007.07-1.493.14m.485.524c.486-.208 1.076-.174 1.632-.278m-.416 1.734c.104.035.624-.07.73-.104.832-.104.97-.278 1.735-.21m.455.346c-1.007.174-1.39.208-2.153.278-.104 0-.347.07-.416.104m.449.314c.764-.138 1.875-.103 2.638-.208m.834.416c-.624.104-1.353 0-1.944.14-.278.034-.798.068-1.076.138m.724.482c.104 0 .243 0 .313-.035.625-.418 1.632-.348 2.533-.348m.562.423c-.868 0-1.216.035-1.875.103-.243.035-.59.174-.903.174m.73.451c.798-.14 2.326-.313 1.424-.243.832-.07.97-.07 1.874-.07m.238.345c-.555-.07-1.146-.07-1.527.035-.347.103-.243.207-1.423.242m.486.243c.556-.07.625-.035 1.146-.174.416-.104.972-.07 1.493-.07m-2.359.452c.868-.104.972-.07 1.875-.035.243 0 .452 0 .765-.034m-16.144-10.931c.208-.104.347-.174.73-.14-.106-.138.172 0 .242-.068 0-.07.207-.035.346-.035m-1.734-.173c.208-.104.416-.104.763-.07-.105-.173.207 0 .242-.104.035-.034.243 0 .382 0m5.517 6.006c.243-.104.208-.174.555-.104-.103-.174.382 0 .417-.104.035-.07.417-.035.555-.035m-.063 1.627c.555-.14 1.25-.14 1.735-.382m.833.63c-.66.103-1.63.034-2.152.312m-7.92-8.368c-.624-.035-.73.174-1.18.174m8.02 1.562c.104 0 .798-.14.902-.14m-.622.42c.416-.103.73 0 .972-.173m-.628.517c0-.035.66-.104.694-.104.104-.035.243-.035.347-.035m-.689.451c.14-.104 1.042-.07 1.25-.104m.238.312c-.208-.035-1.04.104-1.18.174m.452.386c.14-.104 1.04-.208 1.25-.174m.486.342c-.278 0-1.04.07-1.32.104m.448.352c.278 0 1.146-.07 1.285-.208m.491.48c-.278 0-.764.035-1.146.07m.346.386c.347 0 1.11 0 1.354-.14m.382.244c-.208.14-.868.208-1.146.278m.626.378c.278-.174.833-.07 1.18-.174m.38.422c-.313 0-.695-.035-.937.035-.104.033-.14.103-.278.068m2.359.761c-.486-.035-.902.07-1.354.14m.45.484c.45-.208 1.007-.208 1.527-.278m-.311 1.63c.14.035.486-.104.555-.104.8-.104.903-.278 1.632-.243m.381.347c-.903.174-1.25.208-1.945.243-.103 0-.345.07-.415.104m.416.285c.695-.104 1.736-.104 2.43-.174m.77.382c-.556.07-1.215 0-1.77.104-.244.07-.764.07-1.008.14m.69.444c.104 0 .208 0 .278-.035.556-.382 1.493-.312 2.36-.312m.49.387c-.798 0-1.146.035-1.736.104-.382.035-.833.174-.937.174m.585.378c.73-.14 2.327-.278 1.493-.208.764-.07.903-.07 1.736-.07m.211.35c-.52-.07-1.007-.104-1.39 0-.277.07-.38.208-1.526.243m.42.245c.52-.07.833-.07 1.285-.174.38-.104.902-.07 1.388-.07m-2.153.516c.73-.103.834-.173 1.7-.138.245 0 .417-.035.695-.07M320.694 243c.208-.104.138-.174.45-.14.244-.068.418.036.452-.068 0-.035.208-.035.312-.035m-1.702-.029c.208-.104.243-.208.556-.174.312-.034.45 0 .485-.104.035-.035.21 0 .348 0m5.171 5.518c.208-.104.104-.14.417-.104-.07-.14.347 0 .382-.07.035-.07.382-.034.52-.034m-.063 1.488c.52-.14 1.146-.14 1.596-.313m.764.561c-.59.104-1.354-.035-1.806.208m-7.434-7.64c-.59-.035-1.076.242-1.423.486m8.543 2.57c.07 0 .903-.14.938-.14m-.658.348c.313-.07.763-.035.937-.174m-.625.414c-.035 0 .66-.104.694-.104.07-.035.174 0 .278 0m-.7.352c.103-.07.972-.07 1.11-.104m.21.24c-.174-.035-.834.07-.938.138m.49.278c.104-.07.66-.14.833-.14m.343.284c-.174 0-.798.07-1.007.07m.383.274c.208 0 .833-.07.972-.174m.38.382c-.243 0-.624.035-.902.035m.278.309c.278 0 .833 0 1.04-.104m.32.208c-.174.104-.695.14-.903.174m.311.314c.208-.14.834-.035 1.076-.104m.308.28c-.278 0-.555-.035-.763.035-.07.035-.14.035-.244.035m1.879.626c-.38-.035-.868.104-1.18.14m.38.276c.313-.14.868-.104 1.25-.174m-.386 1.214c.07.035.52-.035.59-.035.59-.07.695-.208 1.25-.173m.32.272c-.695.104-.973.14-1.528.174-.07 0-.312.034-.382.034m.278.248c.555-.104 1.458-.07 2.013-.14m.555.316c-.417.07-.937 0-1.354.07a7.31 7.31 0 0 1-.868.104m.446.378c.07 0 .556-.14.59-.14.695-.068.938-.138 1.598-.173m.38.313c-.624 0-.868.035-1.32.07-.312.034-.832.208-.902.208m.526.274c.45-.103 1.805-.242 1.25-.208.59-.034.694-.034 1.318-.07m.176.278c-.38-.034-.763-.07-1.076 0-.174.07-.38.14-1.25.208m.342.176c.416-.07.694-.035 1.04-.14.314-.103.73-.034 1.077-.068m-1.765.416c.555-.07.763-.14 1.423-.104.173 0 .312 0 .555-.035m-11.562-7.701c.174-.07.243-.174.486-.14.174-.034.313.036.313-.034.035-.034.174-.034.278-.034m-1.357-.04c.174-.07.208-.14.45-.14.244 0 .348 0 .383-.034 0-.07.173-.034.242-.034m3.861 4.232c.174-.07.208-.104.486-.07-.105-.104.243 0 .277-.068 0-.036.278 0 .383 0m-.042 1.146c.38-.103.868-.103 1.215-.277m.593.453c-.45.07-1.11-.035-1.493.174m-5.619-5.87c-.452-.035-.555.14-.833.347m7.041.909c.07 0 .798-.104.868-.104m-.62.344c.277-.07.73-.07.868-.174m-.596.382l.66-.104c.07-.035.174 0 .243 0m-.591.448c.104-.07.834-.208.973-.208m.211.208c-.174-.035-.868.104-.972.174m.38.25c.07-.07.763-.174.937-.14m.351.244c-.208 0-.764.035-1.04.104m.344.208c.208 0 .868-.07.972-.174m.38.342c-.208 0-.73.07-1.007.104m.415.248c.242 0 .798 0 .972-.104m.284.168c-.174.104-.764.104-.972.174m.444.314c.174-.14.73-.07.972-.14m.284.284c-.243 0-.486 0-.694.035-.035.034-.208.034-.278.034m1.772.555c-.347-.035-.764.104-1.077.14m.277.308c.313-.14.868-.14 1.25-.208m-.386 1.144c.07 0 .486-.07.555-.07.555-.07.658-.173 1.145-.138m.276.24c-.625.104-.902.14-1.39.174-.068 0-.31 0-.346.034m.216.28c.52-.07 1.39-.14 1.874-.174m.55.278c-.416.035-.902 0-1.285.07-.313.068-.764.068-.8.103m.421.315c.07 0 .52-.104.556-.104.625-.07.868-.14 1.493-.174m.343.278c-.59.035-.8.035-1.215.07-.313.034-.764.208-.87.208m.493.242c.452-.07 1.7-.243 1.18-.174.52-.07.625-.07 1.215-.07m.173.244c-.382-.035-.764-.07-1.007 0-.172.07-.346.14-1.144.174m.311.17c.347-.035.625-.035.972-.138.278-.07.625-.035.973-.035m-1.665.381c.556-.07.73-.104 1.354-.104.174 0 .278 0 .486-.035m-10.624-7.109c.14-.07.174-.14.417-.104.175-.035.28 0 .314-.035 0-.035.138-.035.242-.035m-1.253-.034c.174-.07.174-.14.417-.104.21-.035.314 0 .348-.07 0-.034.138-.034.243-.034m3.544 3.92c.14-.07.208-.07.416-.07-.07-.103.243 0 .278-.034.035-.035.278-.035.347-.035m-.073 1.043c.347-.07.868-.07 1.18-.208m.556.376c-.45.07-1.146-.035-1.492.14m-5.068-5.38c-.417-.035-.556.14-.8.312" stroke-width=".104" fill="none" stroke="#00633b"/>
  <g fill="#fc0">
    <path d="M287.624 298.6l.6 4.448c-1.176-.384-2.256.304-2.776 1.28-.832 1.664-.096 2.92 1.504 3.72l2.152 1.1040C6A207AF6"/>
    <path fill-rule="evenodd" d="M280.673 302.668l1.076-1.596-2.362-1.563.834-1.217 2.325 1.563 1.318-1.944-2.43-1.63.834-1.248 3.886 2.638-4.86 7.22-3.886-2.604.833-1.216z"/>
    <path d="M279.072 292.496l-2.12 2.456-.68-.552c-1.384-1.216-2.784-1.16-4 .224-1.28 1.528-.808 2.864.656 4.08l0A6AA97A6B"/>
    <path d="M268.35 294.616l-1.18-1.32 3.61-3.296c.797-.695 1.874-1.806.867-2.916-1.007-1.11-2.222-.174-3.02.556002A289AD1" fill-rule="evenodd"/>
    <path d="M265.152 278.128c-.496-.04-1.016.08-1.552.448-.76.552-1.352 1.544-.896 2.552-.632-.28-1.336-.088-1.80F6EDA4A46"/>
    <path fill-rule="evenodd" d="M264.6 275.315l-7.67 4.17-.867-1.565 6.386-3.432-1.18-2.225 1.283-.695zm-11.453-3.499l7.984-3.507.6901E88ADAE1"/>
    <path d="M256.352 250.6l-8.2 4.976.248 1.352 9.424 1.896-.352-1.824-1.92-.424-.576-3.104 1.728-1.024-.352-1.80F886DAAE2"/>
    <path fill-rule="evenodd" d="M250.197 229.5l1.874.382.59-2.742 1.424.312-.555 2.743 2.324.485.59-2.846 1.424.278-.937 4.616-8.5380C67696A36"/>
    <path d="M268.152 192.248l-.976.976 3.976 8.776 1.296-1.352-.8-1.8 2.176-2.248 1.824.752 1.304-1.352-8.8-3.750D11108A54"/>
    <path fill-rule="evenodd" d="M278.277 194.998l-5.484-6.804 1.39-1.11 4.546 5.623 1.943-1.562.937 1.145zm4.513-13.954l1.63-1.006 104ED97DA71"/>
    <path d="M290.6 176.8l-1.248.6.448 9.624 1.704-.776-.08-2.024 2.848-1.272 1.4 1.4 1.728-.776-6.8-6.776zm.352 00EB9C6A54"/>
    <path fill-rule="evenodd" d="M336.556 174.345l-.447 1.874 2.704.66-.348 1.457-2.746-.694-.554 2.29 2.845.73-.38 1.423-4.548-1.1460DC30F0A39"/>
    <path d="M365.376 186.6l-8.4 4.728 1.448 1.168 1.728-.968 2.424 2.024-.6 1.872 1.472 1.176 3-9.128-1.072-.8720771AB3ADA"/>
    <path fill-rule="evenodd" d="M375.43 211.903l-.793-1.598 8.677-2.673.587 1.112-4.127 4.58 6.072-.66.587 1.147-7.386 5.242-.803-1.087104DA25"/>
    <path d="M390.248 225.728l-8.496 1.8.344 1.72 3.432-.72h.048l-3 2.92.472 2.08 3.048-3.256c.456 1.152 1.656 1.0C6A1B7A69"/>
    <path fill-rule="evenodd" d="M392.056 236.026l-8.676 1.007-.207-1.737 8.677-1.006zm-1.906 9.438c.59-.486.902-1.25.902-2.013-.034-025D5EEAD6"/>
    <path d="M383.728 247.104l-.2 1.848 1.72.952-.376 3.12-1.944.448-.2 1.88 9.296-2.28.176-1.4-8.472-4.568zm2.92 3.568l2.728 1.256v.024l-2.976.672.248-1.952z"/>
    <path d="M384.038 272.128c.73-.278 1.32-.833 1.597-1.528.625-1.596-.417-3.053-1.805-3.61-1.354-.52-3.09-.137-0FAC664A63" fill-rule="evenodd"/>
    <path d="M362.824 290.728l-1.376 1.096 2.248 2.728v.024l-3.944-1.28-1.656 1.352 4.328 1.176c-.8.936-.6 2.184.06B791DA6E"/>
    <path fill-rule="evenodd" d="M348.74 300.344l3.746 7.916-1.596.728-3.085-6.526-2.292 1.042-.628-1.324z"/>
  </g>
</svg>
