<svg xmlns="http://www.w3.org/2000/svg" height="480" width="640" id="flag-icon-css-tc">
  <path d="M640 480V0H0v480h640z" fill="#006"/>
  <path fill-rule="evenodd" fill="#006" d="M0 0h373.68v232.168H0z"/>
  <g stroke-width="1pt">
    <path d="M0 0v25.957l331.901 206.21h41.778v-25.956L41.777.001H0zm373.679 0v25.956L41.777 232.166H0V206.21L331.901 0h41.778z" fill="#fff"/>
    <path d="M155.7 0v232.167h62.28V0H155.7zM0 77.389v77.389h373.679v-77.39H0z" fill="#fff"/>
    <path d="M0 92.867V139.3h373.679V92.867H0zM168.155 0v232.167h37.368V0h-37.368zM0 232.167l124.56-77.39h27.851l0779BB0A6C" fill="#c00"/>
  </g>
  <path d="M612.54 212.442v79.91c0 65.607-25.77 125.663-102.217 162.169-76.416-36.506-102.189-96.56-102.189-162.168v-79.911h204.444z" fill-opacity=".996" fill="#fff"/>
  <path d="M605.691 220.585v74.535c0 61.192-24.036 117.209-95.34 151.256-71.307-34.048-95.34-90.063-95.34-151.256v-74.535h190.69z" fill-opacity=".996" fill="#fdc300"/>
  <g stroke="#000" stroke-width=".091">
    <path d="M205.96 52.847a2.085 2.085 0 0 0-1.265-.441c.117-1.295-.824-1.854-1.501-2.09-.676-.235-.912-.5-1.0290A74661A83" fill="#ff9e3d" transform="matrix(3.909 0 0 3.9094 -339.132 46.653)"/>
    <path d="M207.46 48.139c-.824.883-1.884 1.765-1.707 3.354s.353 4.178-1.118 5.06c-1.471.884-2.177 3.12-.412 4.094EBF4A48" fill="#ff927f" transform="matrix(3.909 0 0 3.9094 -339.132 46.653)"/>
    <path d="M207.79 67.352c1.971-.5 1.795-3.737 1.501-5.09-.295-1.353-1.051-3.292-.471-4.825.824-2.177-1.001-4.20F7EA4BA99" fill="#ff9ee1" transform="matrix(3.909 0 0 3.9094 -339.132 46.653)"/>
    <path d="M198.96 48.904c.221 0 .648-.088.648.206m-1.088 1.206c.265-.191.736.03 1.206-.25m-.736 1.427c.353 0 .824-.015 1.265-.368m-.825 1.339c.324 0 .927-.206 1.074-.632m-.984 1.309c.632-.03 1.471.206 1.588-.015m-1.558 2.104c.441-.412 1.486-.691 1.721-1.118m-.601-5.443c.735.235.431.69.794.971.648.5.059 1.06.589 1.206.529.147.52.237.382.824-.162.692.5.72.265 1.177m2-.441c-.294 0-1.162.03-1.53.81m-4.75 7.678c.339.059.508-.134.603-.324.103-.206.147-.353.456-.367.309-.015.78-.103.883-.339.103-.235.471-.015.78-.632.309-.618.515-1.354 1.338-1.619" fill="none" transform="matrix(3.909 0 0 3.9094 -339.132 46.653)"/>
  </g>
  <g stroke="#000" stroke-width=".091">
    <path d="M221.76 73.75c.333.484-.012 1.007.553 1.216.662.245.084 1.116.865 1.422.692.273.005 1.105.753 1.479.0101838A7A" fill="#00a728" transform="matrix(3.909 0 0 3.9094 -339.132 46.653)"/>
    <path d="M213.51 76.668c.001.25-.005.5-.237.809-.502.67.223 1.004-.335 1.73-.557.724.112 1.17-.502 1.784-.6130E203A4A78" transform="matrix(3.909 0 0 3.9094 -339.132 46.653)" fill-opacity=".996" fill="#fdc300"/>
    <path d="M221.47 74.408c0-6.303-.892-8.479-4.184-8.479-3.291 0-4.183 2.175-4.183 8.479h8.367z" fill="#ef072d" transform="matrix(3.909 0 0 3.9094 -339.132 46.653)"/>
    <path d="M214.33 73.906c-.614.614.112 1.06-.502 1.785-.614.725-.056 1.116-.558 1.785s.223 1.004-.335 1.73c-.557.725.112 1.17-.502 1.784-.613.614.112 1.172-.502 1.841-.613.67.112 1.116-.502 1.73-.613.613.112 1.283-.502 1.896-.613.614.112 1.395-.558 2.12-.669.725.112 1.283-.446 1.84-.558.559-.056 1.117-.446 1.507-.391.39-.446.935-.279 1.172m6.302-18.967c-.557.725.279 1.06-.223 1.673-.502.614.223.837-.167 1.563s.279.892-.223 1.617.279 1.283-.279 2.008.279 1.116-.223 1.841c-.502.725.223 1.116-.223 1.674-.447.558.334 1.115-.223 1.785-.558.67.223 1.171-.224 1.785-.446.614.168 1.283-.223 1.785-.39.502.279 1.227-.279 1.897s.112 1.115-.223 1.562c-.335.446-.599 1.101-.279 1.283m4.579-19.803c-.278 1.166.391 2.203 0 3.175-.39.972.279 1.36.056 2.138-.223.778.279 1.361-.056 2.203-.334.843.447 1.49 0 2.592-.446 1.102.288 1.376 0 2.463-.334 1.263.558 1.933 0 2.825-.557.893.503 1.116.056 2.12-.446 1.004.279 1.395-.056 2.399m2.96-20.808c.614.614-.112 1.06.502 1.785.614.725.056 1.116.558 1.785s-.223 1.004.335 1.73c.557.725-.112 1.17.502 1.784.613.614-.112 1.172.502 1.841.613.67-.112 1.116.502 1.73.613.613-.112 1.283.502 1.896.613.614-.112 1.395.558 2.12.669.725-.112 1.283.446 1.84.558.559.056 1.117.446 1.507.391.39.447.935.279 1.172m-6.302-18.967c.557.725-.279 1.06.223 1.673.502.614-.223.837.167 1.563.391.725-.279.892.223 1.617s-.279 1.283.279 2.008-.279 1.116.223 1.841c.502.725-.223 1.116.223 1.674.447.558-.334 1.115.224 1.785.557.67-.224 1.171.223 1.785.446.614-.168 1.283.223 1.785.39.502-.279 1.227.279 1.897s-.112 1.115.223 1.562c.335.446.6 1.101.279 1.283" transform="matrix(3.909 0 0 3.9094 -339.132 46.653)" fill="none"/>
    <path d="M213.11 74.408c0-6.303.892-8.479 4.183-8.479-1.506 0-2.426 1.171-2.677 1.952s-.112.725.223.419.167.30B9FC7EA3F" transform="matrix(3.909 0 0 3.9094 -339.132 46.653)"/>
    <path d="M217.29 75.329c1.311 0 2.746-.234 3.71-.608 1.144-.444 1.205-.834.809-1.332-.279-.351-.893-.14-1.4780BCDE1AAD9" fill="#ef072d" transform="matrix(3.909 0 0 3.9094 -339.132 46.653)"/>
  </g>
  <g fill-rule="evenodd" fill="#b95a1e">
    <path d="M779.41 912.6s-.12 103.6 0 179.24c.12 75.63 19.822 104.91 54.262 103.59 34.44-1.33 41.108-58.83 34.505D92DDA7D" transform="matrix(.053 -.03423 .03246 .0559 489.023 284.185)" stroke="#000" stroke-width="6.377"/>
    <path d="M779.41 912.6s-.12 103.6 0 179.24c.12 75.63 19.822 104.91 54.262 103.59 34.44-1.33 41.108-58.83 34.505D92DDA7D" transform="matrix(.0608 -.01361 .0129 .06412 499.988 261.06)" stroke="#000" stroke-width="6.377"/>
    <path d="M779.41 912.6s-.12 103.6 0 179.24c.12 75.63 19.822 104.91 54.262 103.59 34.44-1.33 41.108-58.83 34.505D92DDA7D" transform="matrix(.06216 0 0 .06555 509.298 249.353)" stroke="#000" stroke-width="6.377"/>
    <path d="M779.53 255.12c159.57-1.394 177.16-35.432 177.16-35.432s35.43-70.866 17.716-88.584c-17.717-17.716-194.88-17.716-194.88-17.716v141.73z" transform="matrix(.03857 0 0 .06555 527.683 292.32)" stroke="#000" stroke-width="8.095"/>
    <path d="M779.53 255.12c106.3 0 124.02-35.432 124.02-35.432s35.43-70.866 17.716-88.584c-17.717-17.716-141.73-17.716-141.73-17.716v141.73z" transform="matrix(.06216 0 0 .06555 509.298 287.673)" stroke="#000" stroke-width="6.377"/>
    <path d="M779.53 255.12c88.583 0 141.73-35.433 141.73-35.433s35.43-70.866 17.716-88.584c-17.72-17.72-159.45-17.71-159.45-17.71v141.73z" transform="matrix(.06216 0 0 .06555 509.298 283.026)" stroke="#000" stroke-width="6.377"/>
    <path d="M832.68 113.39s70.866-88.583 194.88-177.17c124.01-88.582 213.73-156.72 230.31-141.73 0 17.717-106.3 0C74673ACE" transform="matrix(.07714 0 0 .06555 497.232 249.488)" stroke="#000" stroke-width="5.724"/>
    <path d="M832.68 113.39s70.05-52.025 204.38-124.02c132.23-63.918 318.89-53.15 318.89-35.433-17.71 17.716-177.0005171A0A" transform="matrix(.07714 0 0 .06555 497.87 254.135)" stroke="#000" stroke-width="5.724"/>
    <path d="M832.68 113.39s61.675-35.068 204.38-88.583c141.72-53.15 329.87-17.717 329.87 0-17.7 17.713-170.4 6.9014000CAC2" transform="matrix(.07714 0 0 .06555 497.93 262.135)" stroke="#000" stroke-width="5.724"/>
    <path d="M832.68 113.39s71.079-70.976 222.47-88.583c152.3-17.72 276.3 88.583 276.3 106.29-17.7 17.72-159.5-770C1744CA23" transform="matrix(.07714 0 0 .06555 498.45 270.253)" stroke="#000" stroke-width="5.724"/>
    <path d="M779.53 255.12c159.57-1.394 159.45-45.508 159.45-45.508s35.43-70.866 17.716-88.584c-17.717-17.716-177.16-7.64-177.16-7.64v141.73z" transform="matrix(.06216 0 0 .06555 509.298 277.227)" stroke="#000" stroke-width="6.377"/>
    <path d="M779.53 255.12c159.57-1.394 177.16-35.432 177.16-35.432s35.43-70.866 17.716-88.584c-17.717-17.716-194.88-17.716-194.88-17.716v141.73z" transform="matrix(.06216 0 0 .06555 509.298 272.58)" stroke="#000" stroke-width="6.377"/>
    <path d="M779.53 255.12c159.57-1.394 194.88-35.433 194.88-35.433s35.43-70.866 17.716-88.583c-17.717-17.716-212.6-17.716-212.6-17.716v141.73z" transform="matrix(.06216 0 0 .06555 509.298 266.774)" stroke="#000" stroke-width="6.377"/>
    <path d="M779.53 255.12c159.57-1.394 212.6-35.433 212.6-35.433s17.714-70.866 0-88.583c-17.717-17.716-212.6-17.716-212.6-17.716v141.73z" transform="matrix(.06216 0 0 .06555 509.298 260.967)" stroke="#000" stroke-width="6.377"/>
    <path d="M832.68 113.39S946.89 24.807 946.89-46.06c0-70.866-50.349-141.73-64.625-177.17 28.552 0 93.176 106.304B82EBA5D" transform="matrix(.07714 0 0 .06555 495.728 244.706)" stroke="#000" stroke-width="5.724"/>
    <path d="M832.68 113.39s-14.276-53.15-14.276-159.45c0-124.02 63.001-202.89 85.654-230.32 5.898 27.422-57.102 040EDADA65" transform="matrix(.07714 0 0 .06555 495.728 244.706)" stroke="#000" stroke-width="5.724"/>
    <path d="M779.53 255.12c159.57-1.394 212.6-35.433 212.6-35.433s0-70.866-17.716-88.583c-17.717-17.716-194.88-17.716-194.88-17.716v141.73z" transform="matrix(.06216 0 0 .06555 509.298 255.16)" stroke="#000" stroke-width="6.377"/>
    <path d="M779.53 255.12c159.57-1.394 194.88-35.433 194.88-35.433s0-70.866-17.716-88.583c-17.717-17.716-177.16-17.716-177.16-17.716v141.73z" transform="matrix(.06216 0 0 .06555 509.298 249.353)" stroke="#000" stroke-width="6.377"/>
    <path d="M318.9 1318.1c55.065-122.32 70.866-336.61 70.866-372.05 0-99.782-32.948-585.11-35.433-779.53s124.02-08D3C63A70" transform="matrix(-.06216 0 0 .06555 606.204 249.353)" stroke="#fdc301" stroke-width="16.071"/>
    <path d="M779.41 912.6s-.12 103.6 0 179.24c.12 75.63 19.822 104.91 54.262 103.59 34.44-1.33 41.108-58.83 34.505D92DDA7D" transform="matrix(-.053 -.03423 -.03246 .0559 626.48 284.185)" stroke="#000" stroke-width="6.377"/>
    <path d="M779.53 32.884c124.13.141 177.77 102.39 177.46 100.31l-35.734 33.347c-18.985 17.717-141.73 17.717-140.21 17.626l-1.52-151.29z" transform="matrix(.06216 0 0 .06555 509.298 249.353)" stroke="#000" stroke-width="6.377"/>
    <path d="M779.41 912.6s-.12 103.6 0 179.24c.12 75.63 19.822 104.91 54.262 103.59 34.44-1.33 41.108-58.83 34.505D92DDA7D" transform="matrix(-.0608 -.01361 -.0129 .06412 615.506 261.06)" stroke="#000" stroke-width="6.377"/>
    <path d="M779.41 912.6s-.12 103.6 0 179.24c.12 75.63 19.822 104.91 54.262 103.59 34.44-1.33 41.108-58.83 34.505D92DDA7D" transform="matrix(-.06216 0 0 .06555 606.196 249.353)" stroke="#000" stroke-width="6.377"/>
    <path d="M779.53 255.12c159.57-1.394 177.16-35.432 177.16-35.432s35.43-70.866 17.716-88.584c-17.717-17.716-194.88-17.716-194.88-17.716v141.73z" transform="matrix(-.03857 0 0 .06555 587.811 292.32)" stroke="#000" stroke-width="8.095"/>
    <path d="M779.53 255.12c106.3 0 124.02-35.432 124.02-35.432s35.43-70.866 17.716-88.584c-17.717-17.716-141.73-17.716-141.73-17.716v141.73z" transform="matrix(-.06216 0 0 .06555 606.196 287.673)" stroke="#000" stroke-width="6.377"/>
    <path d="M779.53 255.12c88.583 0 141.73-35.433 141.73-35.433s35.43-70.866 17.716-88.584c-17.72-17.72-159.45-17.71-159.45-17.71v141.73z" transform="matrix(-.06216 0 0 .06555 606.196 283.026)" stroke="#000" stroke-width="6.377"/>
    <path d="M832.68 113.39s70.866-88.583 194.88-177.17c124.01-88.582 213.73-156.72 230.31-141.73 0 17.717-106.3 0C74673ACE" transform="matrix(-.07714 0 0 .06555 618.262 249.488)" stroke="#000" stroke-width="5.724"/>
    <path d="M832.68 113.39s70.05-52.025 204.38-124.02c132.23-63.918 318.89-53.15 318.89-35.433-17.71 17.716-177.0005171A0A" transform="matrix(-.07714 0 0 .06555 617.632 254.135)" stroke="#000" stroke-width="5.724"/>
    <path d="M832.68 113.39s61.675-35.068 204.38-88.583c141.72-53.15 329.87-17.717 329.87 0-17.7 17.713-170.4 6.9014000CAC2" transform="matrix(-.07714 0 0 .06555 617.573 262.135)" stroke="#000" stroke-width="5.724"/>
    <path d="M832.68 113.39s71.079-70.976 222.47-88.583c152.3-17.72 276.3 88.583 276.3 106.29-17.7 17.72-159.5-770C1744CA23" transform="matrix(-.07714 0 0 .06555 617.052 270.253)" stroke="#000" stroke-width="5.724"/>
    <path d="M779.53 255.12c159.57-1.394 159.45-45.508 159.45-45.508s35.43-70.866 17.716-88.584c-17.717-17.716-177.16-7.64-177.16-7.64v141.73z" transform="matrix(-.06216 0 0 .06555 606.196 277.227)" stroke="#000" stroke-width="6.377"/>
    <path d="M779.53 255.12c159.57-1.394 177.16-35.432 177.16-35.432s35.43-70.866 17.716-88.584c-17.717-17.716-194.88-17.716-194.88-17.716v141.73z" transform="matrix(-.06216 0 0 .06555 606.196 272.58)" stroke="#000" stroke-width="6.377"/>
    <path d="M779.53 255.12c159.57-1.394 194.88-35.433 194.88-35.433s35.43-70.866 17.716-88.583c-17.717-17.716-212.6-17.716-212.6-17.716v141.73z" transform="matrix(-.06216 0 0 .06555 606.196 266.774)" stroke="#000" stroke-width="6.377"/>
    <path d="M779.53 255.12c159.57-1.394 212.6-35.433 212.6-35.433s17.714-70.866 0-88.583c-17.717-17.716-212.6-17.716-212.6-17.716v141.73z" transform="matrix(-.06216 0 0 .06555 606.196 260.967)" stroke="#000" stroke-width="6.377"/>
    <path d="M832.68 113.39S946.89 24.807 946.89-46.06c0-70.866-50.349-141.73-64.625-177.17 28.552 0 93.176 106.304B82EBA5D" transform="matrix(-.07714 0 0 .06555 619.775 244.706)" stroke="#000" stroke-width="5.724"/>
    <path d="M832.68 113.39s-14.276-53.15-14.276-159.45c0-124.02 63.001-202.89 85.654-230.32 5.898 27.422-57.102 040EDADA65" transform="matrix(-.07714 0 0 .06555 619.775 244.706)" stroke="#000" stroke-width="5.724"/>
    <path d="M779.53 255.12c159.57-1.394 212.6-35.433 212.6-35.433s0-70.866-17.716-88.583c-17.717-17.716-194.88-17.716-194.88-17.716v141.73z" transform="matrix(-.06216 0 0 .06555 606.196 255.16)" stroke="#000" stroke-width="6.377"/>
    <path d="M779.53 255.12c159.57-1.394 194.88-35.433 194.88-35.433s0-70.866-17.716-88.583c-17.717-17.716-177.16-17.716-177.16-17.716v141.73z" transform="matrix(-.06216 0 0 .06555 606.196 249.353)" stroke="#000" stroke-width="6.377"/>
    <path d="M318.9 1318.1c55.065-122.32 70.866-336.61 70.866-372.05 0-99.782-32.948-585.11-35.433-779.53s124.02-08D3C63A70" transform="matrix(.06216 0 0 .06555 509.29 249.353)" stroke="#fdc301" stroke-width="16.071"/>
    <path d="M779.53 32.884c124.13.141 177.77 102.39 177.46 100.31l-35.734 33.347c-18.985 17.717-141.73 17.717-140.21 17.626l-1.52-151.29z" transform="matrix(-.06216 0 0 .06555 606.196 249.353)" stroke="#000" stroke-width="6.377"/>
  </g>
</svg>
