<svg xmlns="http://www.w3.org/2000/svg" height="480" width="640" id="flag-icon-css-tw">
  <defs>
    <clipPath id="a">
      <path fill-opacity=".67" d="M0 0h682.67v512H0z"/>
    </clipPath>
  </defs>
  <g fill-rule="evenodd" clip-path="url(#a)" transform="scale(.9375)" stroke-width="1pt">
    <path fill="#de2110" d="M0 0h768v512H0z"/>
    <path fill="#08399c" d="M0 0h385.69v256H0z"/>
    <path fill="#fff" d="M282.098 178.555l-47.332-9.733 10.083 47.26-36.133-32.088-14.904 45.97-15.244-45.867-35.886 32.367 904694F5AC8"/>
    <path fill="#005387" d="M238.47 174.924l-14.935 7.932-14.57 8.608-16.918-.583-16.919.198-14.36-8.941-14.759-8.275-7.953-14.9043C11CA19"/>
    <path d="M244.637 128.28c0 28.646-23.222 51.867-51.866 51.867s-51.867-23.221-51.867-51.866 23.222-51.866 51.867-51.866 51.866 23.221 51.866 51.866z" fill="#fff"/>
  </g>
</svg>
