<svg xmlns="http://www.w3.org/2000/svg" height="480" width="640" id="flag-icon-css-um">
  <defs>
    <clipPath id="a">
      <path fill-opacity=".67" d="M0 0h682.67v512H0z"/>
    </clipPath>
  </defs>
  <g fill-rule="evenodd" clip-path="url(#a)" transform="scale(.9375)">
    <g stroke-width="1pt">
      <path d="M0 0h972.81v39.385H0zm0 78.77h972.81v39.385H0zm0 78.77h972.81v39.385H0zm0 78.77h972.81v39.385H0zm0 78.77h972.81v39.385H0zm0 78.77h972.81v39.385H0zm0 78.77h972.81v39.385H0z" fill="#bd3d44"/>
      <path d="M0 39.385h972.81V78.77H0zm0 78.77h972.81v39.385H0zm0 78.77h972.81v39.385H0zm0 78.77h972.81v39.385H0zm0 78.77h972.81v39.385H0zm0 78.77h972.81v39.385H0z" fill="#fff"/>
    </g>
    <path fill="#192f5d" d="M0 0h389.12v275.69H0z"/>
    <g fill="#fff">
      <path d="M32.427 11.8l3.54 10.896h11.458l-9.27 6.735 3.541 10.896-9.27-6.734-9.268 6.734 3.54-10.896-9.269-6.009F0B3A90"/>
      <g>
        <path d="M32.427 177.217l3.54 10.896h11.458l-9.27 6.735 3.541 10.896-9.27-6.734-9.268 6.734 3.54-10.896-9.26900FB32BA67"/>
      </g>
      <g>
        <path d="M32.427 232.356l3.54 10.896h11.458l-9.27 6.735 3.541 10.896-9.27-6.734-9.268 6.734 3.54-10.896-9.2690CAD16AA55"/>
      </g>
    </g>
  </g>
</svg>
