<svg width="281" height="50" fill="none" xmlns="http://www.w3.org/2000/svg"><path fill-rule="evenodd" clip-rule="evenodd" d="M31.533 40.16V27.638h4.727a11.48 11.48 0 0 1-2.15 4.465v7.088c4.676-2.992 7.777-8.23 7.777-14.19 0-5.962-3.1-11.198-7.776-14.192v7.088a11.457 11.457 0 0 1 2.177 4.591h-4.755V9.458h-.002a16.793 16.793 0 0 0-5.152-1.248v33.582a16.802 16.802 0 0 0 5.154-1.248v-.384zM8.156 25c0 .855.064 1.695.187 2.515H18.65v7.102A11.634 11.634 0 0 1 15.5 31.51H9.462c2.4 5.724 7.867 9.848 14.35 10.313v-19.34H13.763a11.542 11.542 0 0 1 4.887-7.099v3.23h5.163V8.177c-8.752.627-15.657 7.92-15.657 16.823z" fill="#1B4E9B"/><path d="M25.021 5.87C14.464 5.87 5.877 14.453 5.877 25c0 10.548 8.588 19.13 19.145 19.13 10.558 0 19.146-8.582 19.146-19.13 0-10.548-8.588-19.13-19.146-19.13zm0 39.565C13.745 45.435 4.57 36.267 4.57 25c0-11.268 9.175-20.435 20.453-20.435 11.277 0 20.452 9.166 20.452 20.435 0 11.267-9.175 20.435-20.452 20.435z" fill="#1B4E9B"/><path d="M25.021 3.572C13.196 3.572 3.576 13.185 3.576 25c0 11.815 9.62 21.426 21.445 21.426 11.825 0 21.446-9.611 21.446-21.426 0-11.815-9.62-21.428-21.446-21.428zm0 44.161C12.475 47.733 2.27 37.535 2.27 25c0-12.536 10.206-22.733 22.752-22.733S47.774 12.464 47.774 25c0 12.535-10.207 22.733-22.753 22.733z" fill="#1B4E9B"/><path d="M25.02 1.307C11.946 1.307 1.307 11.935 1.307 25c0 13.065 10.64 23.694 23.715 23.694 13.076 0 23.715-10.629 23.715-23.694S38.098 1.307 25.02 1.307zm0 48.693C11.226 50 0 38.785 0 25S11.225 0 25.02 0c13.798 0 25.022 11.215 25.022 25S38.818 50 25.02 50zM65.122 30.877l2.433-2.912c1.684 1.39 3.449 2.272 5.588 2.272 1.684 0 2.7-.669 2.7-1.817 0-1.042-.642-1.576-3.77-2.378-3.77-.961-6.203-2.003-6.203-5.77 0-3.392 2.727-5.637 6.55-5.637 2.728 0 5.054.855 6.952 2.378l-2.139 3.099c-1.657-1.148-3.288-1.844-4.866-1.844-1.578 0-2.406.721-2.406 1.684 0 1.229.802 1.63 4.037 2.457 3.797.988 5.935 2.351 5.935 5.663 0 3.714-2.833 5.798-6.87 5.798-2.835 0-5.696-.989-7.941-2.993zM93.862 25.775l-2.487-6.063-2.486 6.063h4.973zM89.531 14.77h3.796l8.021 18.834h-4.305l-1.71-4.194h-7.915l-1.71 4.194H81.51l8.02-18.834zM108.806 24.093l-6.256-9.19h4.813l3.93 6.064 3.957-6.063h4.678l-6.255 9.135 6.523 9.564h-4.813l-4.197-6.412-4.224 6.412h-4.679l6.523-9.51zM123.456 33.603h4.117v-18.7h-4.117v18.7zM137.519 26.229l-7.192-11.325h4.812l4.465 7.505 4.546-7.505h4.679l-7.193 11.246v7.453h-4.117v-7.374zM159.413 14.904h4.118v7.4h7.592v-7.4h4.118v18.699h-4.118v-7.507h-7.592v7.507h-4.118v-18.7zM190.479 25.775l-2.486-6.063-2.487 6.063h4.973zm-4.332-11.006h3.797l8.021 18.834h-4.304l-1.711-4.194h-7.914l-1.712 4.194h-4.197l8.02-18.834zM200.85 14.904h4.439l4.92 7.905 4.919-7.905h4.438v18.699h-4.09V21.395l-5.267 7.988h-.107l-5.214-7.908v12.128h-4.038v-18.7zM224.056 14.904h4.118v8.174l7.593-8.174h4.973l-7.62 7.932 7.967 10.767h-4.945l-5.803-7.961-2.165 2.244v5.717h-4.118v-18.7zM256.861 24.253c0-3.205-2.354-5.877-5.669-5.877-3.314 0-5.614 2.617-5.614 5.877 0 3.205 2.352 5.877 5.668 5.877 3.316 0 5.615-2.618 5.615-5.877zm-15.589 0c0-5.316 4.199-9.67 9.974-9.67s9.919 4.3 9.919 9.67c0 5.315-4.198 9.671-9.973 9.671s-9.919-4.302-9.919-9.671h-.001zM281 33.603V33.6l-4.571-6.676c2.379-.882 4.011-2.778 4.011-5.796 0-1.817-.562-3.286-1.604-4.328-1.231-1.23-3.076-1.896-5.455-1.896h-8.556v18.699h4.118v-5.984h3.181l4.064 5.984H281zm-7.967-14.987c2.006 0 3.236.909 3.236 2.672 0 1.63-1.15 2.698-3.155 2.698h-4.171v-5.37c0-.011 3.745 0 4.09 0z" fill="#1B4E9B"/></svg>