<svg xmlns="http://www.w3.org/2000/svg" width="17.942" height="21.093" viewBox="0 0 17.942 21.093"><g transform="translate(0)"><path d="M141.564,11.365h.14a4.031,4.031,0,0,0,3.079-1.332c1.682-1.9,1.4-5.145,1.372-5.456A4.456,4.456,0,0,0,144.036.616,4.856,4.856,0,0,0,141.686,0h-.074a4.864,4.864,0,0,0-2.35.6,4.459,4.459,0,0,0-2.145,3.979c-.031.31-.31,3.56,1.372,5.456A4.014,4.014,0,0,0,141.564,11.365Zm-3.28-6.679c0-.013,0-.026,0-.035.144-3.132,2.367-3.468,3.32-3.468h.052c1.179.026,3.184.507,3.32,3.468a.086.086,0,0,0,0,.035c0,.031.31,3-1.079,4.565a2.863,2.863,0,0,1-2.249.935h-.044a2.854,2.854,0,0,1-2.245-.935C137.982,7.7,138.279,4.713,138.284,4.687Z" transform="translate(-132.67)"/><path d="M54.013,264.676v-.013c0-.035,0-.07,0-.109-.026-.865-.083-2.887-1.979-3.534l-.044-.013a12.6,12.6,0,0,1-3.625-1.651.59.59,0,0,0-.677.965,13.6,13.6,0,0,0,3.988,1.821c1.018.363,1.131,1.45,1.162,2.446a.877.877,0,0,0,0,.109,7.929,7.929,0,0,1-.092,1.35,16.075,16.075,0,0,1-7.7,1.791,16.168,16.168,0,0,1-7.705-1.8,7.506,7.506,0,0,1-.092-1.35c0-.035,0-.07,0-.109.031-1,.144-2.084,1.162-2.446a13.733,13.733,0,0,0,3.988-1.821.59.59,0,1,0-.677-.965A12.465,12.465,0,0,1,38.1,261l-.044.013c-1.9.651-1.952,2.673-1.979,3.534a.879.879,0,0,1,0,.109v.013a6.7,6.7,0,0,0,.223,1.979.561.561,0,0,0,.227.275,16.522,16.522,0,0,0,8.526,2.088,16.572,16.572,0,0,0,8.526-2.088.585.585,0,0,0,.227-.275A7.028,7.028,0,0,0,54.013,264.676Z" transform="translate(-36.073 -247.92)"/></g></svg>