<svg xmlns="http://www.w3.org/2000/svg" width="20.996" height="20.034" viewBox="0 0 20.996 20.034"><g transform="translate(0 0)"><path d="M20.8,20.18l-9.881-8.835a.277.277,0,0,0-.056-.043.584.584,0,0,0-.79-.013L.2,20.124A.584.584,0,0,0,.972,21L2.752,19.4v10.3A1.47,1.47,0,0,0,4.22,31.175H7.338A1.379,1.379,0,0,0,8.715,29.8V24.559a.212.212,0,0,1,.212-.212h3.148a.212.212,0,0,1,.212.212V29.8a1.379,1.379,0,0,0,1.378,1.378h3.118a1.669,1.669,0,0,0,1.468-1.84V19.459l1.779,1.593A.587.587,0,0,0,20.854,21,.6.6,0,0,0,20.8,20.18ZM17.08,23.06v6.266c0,.419-.207.674-.3.674H13.66a.212.212,0,0,1-.212-.212v-5.23a1.379,1.379,0,0,0-1.378-1.378H8.923a1.379,1.379,0,0,0-1.378,1.378V29.8a.212.212,0,0,1-.212.212H4.216a.3.3,0,0,1-.3-.3V18.358L10.469,12.5l6.611,5.912V23.06Z" transform="translate(0 -11.141)"/></g></svg>