<svg xmlns="http://www.w3.org/2000/svg" width="360" height="360" fill="none" viewBox="0 0 360 360">
    <path fill="url(#a)" d="M166.098 29.288c90.553 0 164.374 73.835 164.374 164.406 0 90.817-73.821 164.405-164.374 164.405-90.8 0-164.375-73.835-164.375-164.405-.246-90.817 73.575-164.406 164.375-164.406zm0 330.534c91.538 0 166.097-74.573 166.097-166.128 0-91.556-74.559-166.129-166.097-166.129C74.56 27.565.001 102.138.001 193.694c-.246 91.555 74.313 166.128 166.097 166.128z"/>
    <path fill="url(#b)" d="M166.098 40.61c84.648 0 153.793 68.912 153.793 153.822 0 84.664-68.899 153.823-153.793 153.823-84.648 0-153.794-68.913-153.794-153.823 0-84.91 68.9-153.823 153.794-153.823zm0 309.368c85.632 0 155.516-69.651 155.516-155.546 0-85.648-69.638-155.546-155.516-155.546-85.879 0-155.516 69.651-155.516 155.546 0 85.649 69.637 155.546 155.516 155.546z"/>
    <path fill="url(#c)" d="M166.098 52.177c78.742 0 142.966 64.236 142.966 142.993 0 78.758-64.224 142.994-142.966 142.994-78.743 0-142.967-64.236-142.967-142.994 0-78.757 63.978-142.993 142.967-142.993zm0 287.71c79.726 0 144.688-64.975 144.688-144.717 0-79.741-64.962-144.716-144.688-144.716-79.727 0-144.69 64.975-144.69 144.716 0 79.742 64.717 144.717 144.69 144.717z"/>
    <path fill="url(#d)" d="M166.097 63.498c72.837 0 132.14 59.314 132.14 132.164 0 72.851-59.303 132.165-132.14 132.165-72.836 0-132.139-59.314-132.139-132.165 0-72.85 59.057-132.164 132.139-132.164zm0 266.298c73.821 0 134.108-60.053 134.108-134.134 0-73.834-60.041-134.133-134.108-134.133-73.82 0-134.108 60.052-134.108 134.133 0 74.081 60.041 134.134 134.108 134.134z"/>
    <path fill="url(#e)" d="M166.098 75.066c66.93 0 121.558 54.637 121.558 121.581s-54.628 121.581-121.558 121.581c-66.931 0-121.559-54.637-121.559-121.581 0-67.19 54.382-121.581 121.559-121.581zm0 244.639c67.915 0 123.28-55.376 123.28-123.304S234.013 73.097 166.098 73.097c-67.916 0-123.281 55.376-123.281 123.304 0 68.174 55.12 123.304 123.281 123.304z"/>
    <path fill="url(#f)" d="M166.098 86.387c61.025 0 110.731 49.715 110.731 110.752 0 61.037-49.706 110.753-110.731 110.753-61.025 0-110.731-49.716-110.731-110.753-.246-61.037 49.46-110.752 110.731-110.752zm0 223.474c62.009 0 112.454-50.454 112.454-112.476 0-62.021-50.445-112.475-112.454-112.475-62.01 0-112.454 50.454-112.454 112.475-.246 62.022 50.198 112.476 112.454 112.476z"/>
    <path fill="url(#g)" d="M166.097 97.954c55.12 0 100.151 44.793 100.151 100.17 0 55.376-44.785 100.169-100.151 100.169-55.119 0-100.15-44.793-100.15-100.169 0-55.377 44.785-100.17 100.15-100.17zm0 201.816c56.104 0 101.873-45.778 101.873-101.893 0-56.114-45.769-101.892-101.873-101.892-56.103 0-101.872 45.778-101.872 101.892 0 56.115 45.769 101.893 101.872 101.893z"/>
    <path fill="url(#h)" d="M166.098 109.276c49.214 0 89.323 40.117 89.323 89.34 0 49.223-40.109 89.34-89.323 89.34-49.214 0-89.324-40.117-89.324-89.34 0-49.223 40.11-89.34 89.324-89.34zm0 180.403c50.198 0 91.045-40.855 91.045-91.063 0-50.208-40.847-91.063-91.045-91.063s-91.046 40.855-91.046 91.063c0 50.208 40.848 91.063 91.046 91.063z"/>
    <path fill="url(#i)" d="M166.098 120.843c43.308 0 78.496 35.195 78.496 78.511 0 43.317-35.188 78.511-78.496 78.511-43.309 0-78.497-35.194-78.497-78.511-.246-43.316 35.188-78.511 78.497-78.511zm0 158.991c44.292 0 80.218-35.933 80.218-80.234 0-44.301-35.926-80.234-80.218-80.234-44.293 0-80.22 35.933-80.22 80.234-.245 44.055 35.927 80.234 80.22 80.234z"/>
    <path fill="url(#j)" d="M166.097 132.165c37.403 0 67.915 30.518 67.915 67.928 0 37.409-30.512 67.928-67.915 67.928-37.402 0-67.915-30.519-67.915-67.928 0-37.41 30.513-67.928 67.915-67.928zm0 137.578c38.387 0 69.638-31.256 69.638-69.65 0-38.395-31.251-69.651-69.638-69.651s-69.638 31.256-69.638 69.651c0 38.394 31.251 69.65 69.638 69.65z"/>
    <path fill="url(#k)" d="M298.237 123.55c33.957 0 61.763-27.81 61.763-61.775C360 27.811 332.194 0 298.237 0c-33.958 0-61.764 27.811-61.764 61.775s27.56 61.775 61.764 61.775zm0-119.612c31.743 0 57.826 25.842 57.826 57.837 0 31.75-25.837 57.838-57.826 57.838-31.743 0-57.827-25.843-57.827-57.838 0-31.749 25.838-57.837 57.827-57.837z"/>
    <defs>
        <radialGradient id="a" cx="0" cy="0" r="1" gradientTransform="matrix(-626.439 0 0 -626.558 256.185 -37.468)" gradientUnits="userSpaceOnUse">
            <stop stop-color="#00FFAE"/>
            <stop offset=".354" stop-color="#009ACE"/>
            <stop offset=".67" stop-color="#0047E8"/>
            <stop offset=".892" stop-color="#0014F9"/>
            <stop offset="1" stop-color="#00F"/>
        </radialGradient>
        <radialGradient id="b" cx="0" cy="0" r="1" gradientTransform="matrix(-626.439 0 0 -626.558 256.185 -37.468)" gradientUnits="userSpaceOnUse">
            <stop stop-color="#00FFAE"/>
            <stop offset=".354" stop-color="#009ACE"/>
            <stop offset=".67" stop-color="#0047E8"/>
            <stop offset=".892" stop-color="#0014F9"/>
            <stop offset="1" stop-color="#00F"/>
        </radialGradient>
        <radialGradient id="c" cx="0" cy="0" r="1" gradientTransform="matrix(-626.439 0 0 -626.558 256.185 -37.468)" gradientUnits="userSpaceOnUse">
            <stop stop-color="#00FFAE"/>
            <stop offset=".354" stop-color="#009ACE"/>
            <stop offset=".67" stop-color="#0047E8"/>
            <stop offset=".892" stop-color="#0014F9"/>
            <stop offset="1" stop-color="#00F"/>
        </radialGradient>
        <radialGradient id="d" cx="0" cy="0" r="1" gradientTransform="matrix(-626.438 0 0 -626.557 256.185 -37.468)" gradientUnits="userSpaceOnUse">
            <stop stop-color="#00FFAE"/>
            <stop offset=".354" stop-color="#009ACE"/>
            <stop offset=".67" stop-color="#0047E8"/>
            <stop offset=".892" stop-color="#0014F9"/>
            <stop offset="1" stop-color="#00F"/>
        </radialGradient>
        <radialGradient id="e" cx="0" cy="0" r="1" gradientTransform="matrix(-626.438 0 0 -626.557 256.185 -37.468)" gradientUnits="userSpaceOnUse">
            <stop stop-color="#00FFAE"/>
            <stop offset=".354" stop-color="#009ACE"/>
            <stop offset=".67" stop-color="#0047E8"/>
            <stop offset=".892" stop-color="#0014F9"/>
            <stop offset="1" stop-color="#00F"/>
        </radialGradient>
        <radialGradient id="f" cx="0" cy="0" r="1" gradientTransform="matrix(-626.44 0 0 -626.559 256.185 -37.469)" gradientUnits="userSpaceOnUse">
            <stop stop-color="#00FFAE"/>
            <stop offset=".354" stop-color="#009ACE"/>
            <stop offset=".67" stop-color="#0047E8"/>
            <stop offset=".892" stop-color="#0014F9"/>
            <stop offset="1" stop-color="#00F"/>
        </radialGradient>
        <radialGradient id="g" cx="0" cy="0" r="1" gradientTransform="matrix(-626.438 0 0 -626.557 256.184 -37.467)" gradientUnits="userSpaceOnUse">
            <stop stop-color="#00FFAE"/>
            <stop offset=".354" stop-color="#009ACE"/>
            <stop offset=".67" stop-color="#0047E8"/>
            <stop offset=".892" stop-color="#0014F9"/>
            <stop offset="1" stop-color="#00F"/>
        </radialGradient>
        <radialGradient id="h" cx="0" cy="0" r="1" gradientTransform="matrix(-626.439 0 0 -626.558 256.185 -37.469)" gradientUnits="userSpaceOnUse">
            <stop stop-color="#00FFAE"/>
            <stop offset=".354" stop-color="#009ACE"/>
            <stop offset=".67" stop-color="#0047E8"/>
            <stop offset=".892" stop-color="#0014F9"/>
            <stop offset="1" stop-color="#00F"/>
        </radialGradient>
        <radialGradient id="i" cx="0" cy="0" r="1" gradientTransform="matrix(-626.436 0 0 -626.556 256.185 -37.467)" gradientUnits="userSpaceOnUse">
            <stop stop-color="#00FFAE"/>
            <stop offset=".354" stop-color="#009ACE"/>
            <stop offset=".67" stop-color="#0047E8"/>
            <stop offset=".892" stop-color="#0014F9"/>
            <stop offset="1" stop-color="#00F"/>
        </radialGradient>
        <radialGradient id="j" cx="0" cy="0" r="1" gradientTransform="matrix(-626.437 0 0 -626.556 256.184 -37.468)" gradientUnits="userSpaceOnUse">
            <stop stop-color="#00FFAE"/>
            <stop offset=".354" stop-color="#009ACE"/>
            <stop offset=".67" stop-color="#0047E8"/>
            <stop offset=".892" stop-color="#0014F9"/>
            <stop offset="1" stop-color="#00F"/>
        </radialGradient>
        <radialGradient id="k" cx="0" cy="0" r="1" gradientTransform="matrix(-328.727 0 0 -328.789 319.537 -42.832)" gradientUnits="userSpaceOnUse">
            <stop stop-color="#E600FF"/>
            <stop offset=".298" stop-color="#90F"/>
            <stop offset=".639" stop-color="#4700FF"/>
            <stop offset=".882" stop-color="#1400FF"/>
            <stop offset="1" stop-color="#00F"/>
        </radialGradient>
    </defs>
</svg>
