<svg xmlns="http://www.w3.org/2000/svg" width="513" height="655" fill="none" viewBox="0 0 513 655">
    <path fill="url(#a)" d="M193.254 461.746c-43.95-43.951-115.377-43.944-159.336.015-43.959 43.959-43.966 115.385-.015 159.336 43.95 43.951 115.377 43.944 159.336-.015 43.959-43.959 43.966-115.386.015-159.336zM33.216 621.784c-44.408-44.409-44.173-116.522.015-160.71s116.76-44.424 160.939-.244c44.409 44.408 44.402 116.751.214 160.939-44.188 44.188-116.76 44.423-161.168.015z"/>
    <path fill="url(#b)" d="M187.759 467.241c-40.975-40.975-107.822-40.969-148.805.014-40.983 40.982-40.989 107.83-.014 148.805 40.975 40.975 107.822 40.969 148.805-.014 40.983-40.983 41.218-107.602.014-148.805zM38.253 616.747C-3.18 575.314-3.402 507.78 38.267 466.11c41.44-41.44 108.976-41.676 150.637-.014 41.433 41.432 41.655 108.967-.014 150.637-41.67 41.669-108.976 41.676-150.637.014z"/>
    <path fill="url(#c)" d="M182.264 472.735c-38.228-38.228-100.268-37.993-138.274.013-38.235 38.236-38.012 100.276-.013 138.275 38.227 38.228 100.268 37.993 138.274-.013 38.235-37.778 38.241-100.047.013-138.275zM43.061 611.939c-38.686-38.686-38.68-101.413.013-140.106s101.649-38.471 140.106-.014c38.686 38.686 38.68 101.413-.013 140.106-38.693 38.694-101.42 38.7-140.106.014z"/>
    <path fill="url(#d)" d="M176.769 478.23c-35.252-35.252-92.713-35.475-128.201.012-35.488 35.488-35.493 92.721-.012 128.202 35.252 35.252 92.714 35.475 128.201-.012 35.488-35.488 35.493-92.721.012-128.202zm-128.9 128.901c-35.71-35.71-35.704-93.859.012-129.575 35.717-35.717 93.865-35.723 129.575-.013 35.71 35.71 35.705 93.859-.012 129.575-35.717 35.717-93.636 35.951-129.575.013z"/>
    <path fill="url(#e)" d="M171.045 483.954c-32.505-32.505-85.159-32.5-117.67.011-32.511 32.511-32.517 85.165-.011 117.671 32.505 32.505 85.159 32.5 117.67-.012 32.512-32.511 32.517-85.165.011-117.67zM52.677 602.322c-32.963-32.963-32.958-86.532.011-119.502 32.97-32.969 86.539-32.974 119.502-.011 32.963 32.963 32.958 86.533-.011 119.502-32.969 32.969-86.54 32.974-119.502.011z"/>
    <path fill="url(#f)" d="M165.55 489.449c-29.529-29.53-77.604-29.525-107.14.01-29.534 29.535-29.539 77.61-.01 107.14 29.53 29.529 77.605 29.525 107.14-.01 29.535-29.535 29.769-77.382.01-107.14zM57.485 597.515c-29.988-29.988-29.983-78.979.01-108.972 29.993-29.993 78.984-29.997 108.971-.01 29.987 29.987 29.983 78.978-.01 108.971-29.993 29.993-78.755 30.227-108.971.011z"/>
    <path fill="url(#g)" d="M160.056 494.944c-26.782-26.782-70.05-26.549-96.609.009-26.558 26.559-26.562 70.056-.009 96.609 26.783 26.783 70.051 26.55 96.609-.009 26.559-26.558 26.792-69.826.009-96.609zm-97.763 97.763c-27.24-27.24-27.007-71.424.01-98.44 27.016-27.017 71.429-27.021 98.44-.01 27.241 27.24 27.007 71.424-.009 98.441-27.017 27.016-71.2 27.249-98.44.009z"/>
    <path fill="url(#h)" d="M154.561 500.439c-23.807-23.807-62.725-23.803-86.536.008s-23.815 62.729-.008 86.536c23.806 23.807 62.725 23.803 86.536-.008s24.043-62.501.008-86.536zM67.33 587.67c-24.265-24.265-24.26-63.641.008-87.91 24.27-24.269 63.645-24.273 87.91-.008 24.264 24.264 24.261 63.64-.008 87.909-24.041 24.498-63.417 24.502-87.91.009z"/>
    <path fill="url(#i)" d="M149.066 505.934c-21.059-21.06-54.941-21.057-76.005.007-21.063 21.064-21.067 54.946-.007 76.005 21.06 21.06 54.942 21.057 76.005-.007 21.064-20.606 21.067-54.946.007-76.005zm-76.928 76.928c-21.517-21.517-21.514-56.315.008-77.837 21.521-21.521 56.319-21.525 77.836-.007 21.518 21.517 21.514 56.315-.007 77.837-21.522 21.521-56.32 21.525-77.837.007z"/>
    <path fill="url(#j)" d="M143.343 511.658c-18.084-18.084-47.387-18.081-65.475.006-18.087 18.087-18.09 47.39-.006 65.474 18.084 18.084 47.387 18.081 65.474-.006 18.088-18.087 18.319-47.162.007-65.474zm-66.397 66.396c-18.541-18.542-18.538-48.761.007-67.306 18.545-18.545 48.764-18.548 67.305-.006 18.542 18.541 18.539 48.76-.006 67.306-18.545 18.545-48.535 18.776-67.306.006z"/>
    <path fill="url(#k)" d="M401.438 104.697c0-1.934 1.505-3.439 3.439-3.439 1.935 0 3.439 1.505 3.439 3.439 0 1.935-1.504 3.44-3.439 3.44-1.934 0-3.439-1.72-3.439-3.44z"/>
    <path fill="url(#l)" d="M401.438 87.714c0-1.935 1.504-3.44 3.439-3.44 1.934 0 3.439 1.505 3.439 3.44 0 1.934-1.505 3.44-3.439 3.44-1.935 0-3.439-1.505-3.439-3.44z"/>
    <path fill="url(#m)" d="M401.438 70.945c0-1.935 1.504-3.44 3.439-3.44 1.934 0 3.439 1.505 3.439 3.44s-1.505 3.44-3.439 3.44c-1.935 0-3.439-1.505-3.439-3.44z"/>
    <path fill="url(#n)" d="M401.438 53.961c0-1.935 1.504-3.44 3.439-3.44 1.934 0 3.439 1.505 3.439 3.44s-1.505 3.44-3.439 3.44c-1.935 0-3.439-1.505-3.439-3.44z"/>
    <path fill="url(#o)" d="M401.438 37.192c0-1.935 1.504-3.44 3.439-3.44 1.934 0 3.439 1.505 3.439 3.44s-1.505 3.44-3.439 3.44c-1.935 0-3.439-1.505-3.439-3.44z"/>
    <path fill="url(#p)" d="M401.438 20.208c0-1.934 1.504-3.44 3.439-3.44 1.934 0 3.439 1.505 3.439 3.44s-1.505 3.44-3.439 3.44c-1.935 0-3.439-1.505-3.439-3.44z"/>
    <path fill="url(#q)" d="M401.438 3.44c0-1.935 1.504-3.44 3.439-3.44 1.934 0 3.439 1.505 3.439 3.44s-1.505 3.44-3.439 3.44c-1.935 0-3.439-1.505-3.439-3.44z"/>
    <path fill="url(#r)" d="M414.978 104.697c0-1.934 1.505-3.439 3.439-3.439 1.935 0 3.439 1.505 3.439 3.439 0 1.935-1.504 3.44-3.439 3.44-1.934 0-3.439-1.72-3.439-3.44z"/>
    <path fill="url(#s)" d="M414.978 87.714c0-1.935 1.505-3.44 3.439-3.44 1.935 0 3.439 1.505 3.439 3.44 0 1.934-1.504 3.44-3.439 3.44-1.934 0-3.439-1.505-3.439-3.44z"/>
    <path fill="url(#t)" d="M414.978 70.945c0-1.935 1.505-3.44 3.439-3.44 1.935 0 3.439 1.505 3.439 3.44s-1.504 3.44-3.439 3.44c-1.934 0-3.439-1.505-3.439-3.44z"/>
    <path fill="url(#u)" d="M414.978 53.961c0-1.935 1.505-3.44 3.439-3.44 1.935 0 3.439 1.505 3.439 3.44s-1.504 3.44-3.439 3.44c-1.934 0-3.439-1.505-3.439-3.44z"/>
    <path fill="url(#v)" d="M414.978 37.192c0-1.935 1.505-3.44 3.439-3.44 1.935 0 3.439 1.505 3.439 3.44s-1.504 3.44-3.439 3.44c-1.934 0-3.439-1.505-3.439-3.44z"/>
    <path fill="url(#w)" d="M414.978 20.208c0-1.934 1.505-3.44 3.439-3.44 1.935 0 3.439 1.505 3.439 3.44s-1.504 3.44-3.439 3.44c-1.934 0-3.439-1.505-3.439-3.44z"/>
    <path fill="url(#x)" d="M414.978 3.44c0-1.935 1.505-3.44 3.439-3.44 1.935 0 3.439 1.505 3.439 3.44s-1.504 3.44-3.439 3.44c-1.934 0-3.439-1.505-3.439-3.44z"/>
    <path fill="url(#y)" d="M428.735 104.697c0-1.934 1.504-3.439 3.439-3.439 1.934 0 3.439 1.505 3.439 3.439 0 1.935-1.505 3.44-3.439 3.44-1.935 0-3.439-1.72-3.439-3.44z"/>
    <path fill="url(#z)" d="M428.735 87.714c0-1.935 1.505-3.44 3.439-3.44 1.935 0 3.439 1.505 3.439 3.44 0 1.934-1.504 3.44-3.439 3.44-1.934 0-3.439-1.505-3.439-3.44z"/>
    <path fill="url(#A)" d="M428.735 70.945c0-1.935 1.505-3.44 3.439-3.44 1.935 0 3.439 1.505 3.439 3.44s-1.504 3.44-3.439 3.44c-1.934 0-3.439-1.505-3.439-3.44z"/>
    <path fill="url(#B)" d="M428.735 53.961c0-1.935 1.505-3.44 3.439-3.44 1.935 0 3.439 1.505 3.439 3.44s-1.504 3.44-3.439 3.44c-1.934 0-3.439-1.505-3.439-3.44z"/>
    <path fill="url(#C)" d="M428.735 37.192c0-1.935 1.505-3.44 3.439-3.44 1.935 0 3.439 1.505 3.439 3.44s-1.504 3.44-3.439 3.44c-1.934 0-3.439-1.505-3.439-3.44z"/>
    <path fill="url(#D)" d="M428.735 20.208c0-1.934 1.505-3.44 3.439-3.44 1.935 0 3.439 1.505 3.439 3.44s-1.504 3.44-3.439 3.44c-1.934 0-3.439-1.505-3.439-3.44z"/>
    <path fill="url(#E)" d="M428.735 3.44c0-1.935 1.505-3.44 3.439-3.44 1.935 0 3.439 1.505 3.439 3.44s-1.504 3.44-3.439 3.44c-1.934 0-3.439-1.505-3.439-3.44z"/>
    <path fill="url(#F)" d="M445.715 101.258a3.44 3.44 0 1 0 0 6.879 3.44 3.44 0 0 0 0-6.879z"/>
    <path fill="url(#G)" d="M445.716 84.274a3.44 3.44 0 1 0 .001 6.879 3.44 3.44 0 0 0-.001-6.88z"/>
    <path fill="url(#H)" d="M445.716 67.505a3.44 3.44 0 1 0 .001 6.88 3.44 3.44 0 0 0-.001-6.88z"/>
    <path fill="url(#I)" d="M442.277 53.961c0-1.935 1.504-3.44 3.439-3.44 1.934 0 3.439 1.505 3.439 3.44s-1.505 3.44-3.439 3.44c-1.935 0-3.439-1.505-3.439-3.44z"/>
    <path fill="url(#J)" d="M445.716 33.752a3.44 3.44 0 1 0 .001 6.88 3.44 3.44 0 0 0-.001-6.88z"/>
    <path fill="url(#K)" d="M445.716 16.769a3.44 3.44 0 1 0 .001 6.879 3.44 3.44 0 0 0-.001-6.88z"/>
    <path fill="url(#L)" d="M445.716 0a3.44 3.44 0 1 0 .001 6.88 3.44 3.44 0 0 0-.001-6.88z"/>
    <path fill="url(#M)" d="M459.257 101.258a3.439 3.439 0 1 0 0 6.878 3.439 3.439 0 0 0 0-6.878z"/>
    <path fill="url(#N)" d="M459.257 84.274a3.44 3.44 0 1 0 .001 6.879 3.44 3.44 0 0 0-.001-6.88z"/>
    <path fill="url(#O)" d="M459.257 67.505a3.44 3.44 0 1 0 .001 6.88 3.44 3.44 0 0 0-.001-6.88z"/>
    <path fill="url(#P)" d="M455.818 53.961c0-1.935 1.505-3.44 3.439-3.44 1.935 0 3.439 1.505 3.439 3.44s-1.504 3.44-3.439 3.44c-1.934 0-3.439-1.505-3.439-3.44z"/>
    <path fill="url(#Q)" d="M459.257 33.752a3.44 3.44 0 1 0 .001 6.88 3.44 3.44 0 0 0-.001-6.88z"/>
    <path fill="url(#R)" d="M459.257 16.769a3.44 3.44 0 1 0 .001 6.879 3.44 3.44 0 0 0-.001-6.88z"/>
    <path fill="url(#S)" d="M459.257 0a3.44 3.44 0 1 0 .001 6.88 3.44 3.44 0 0 0-.001-6.88z"/>
    <path fill="url(#T)" d="M473.013 101.258a3.44 3.44 0 1 0 0 6.879 3.44 3.44 0 0 0 0-6.879z"/>
    <path fill="url(#U)" d="M473.014 84.274a3.44 3.44 0 1 0 0 6.88 3.44 3.44 0 0 0 0-6.88z"/>
    <path fill="url(#V)" d="M473.014 67.505a3.44 3.44 0 1 0 0 6.88 3.44 3.44 0 0 0 0-6.88z"/>
    <path fill="url(#W)" d="M469.574 53.961c0-1.935 1.505-3.44 3.44-3.44 1.934 0 3.439 1.505 3.439 3.44s-1.505 3.44-3.439 3.44c-1.935 0-3.44-1.505-3.44-3.44z"/>
    <path fill="url(#X)" d="M473.014 33.752a3.44 3.44 0 1 0 0 6.88 3.44 3.44 0 0 0 0-6.88z"/>
    <path fill="url(#Y)" d="M473.014 16.769a3.44 3.44 0 1 0 0 6.88 3.44 3.44 0 0 0 0-6.88z"/>
    <path fill="url(#Z)" d="M473.014 0a3.44 3.44 0 1 0 0 6.88 3.44 3.44 0 0 0 0-6.88z"/>
    <path fill="url(#aa)" d="M486.555 101.258a3.44 3.44 0 1 0 0 6.879 3.44 3.44 0 0 0 0-6.879z"/>
    <path fill="url(#ab)" d="M486.555 84.274a3.44 3.44 0 1 0 .001 6.879 3.44 3.44 0 0 0-.001-6.88z"/>
    <path fill="url(#ac)" d="M486.555 67.505a3.44 3.44 0 1 0 .001 6.88 3.44 3.44 0 0 0-.001-6.88z"/>
    <path fill="url(#ad)" d="M483.116 53.961c0-1.935 1.505-3.44 3.439-3.44 1.935 0 3.439 1.505 3.439 3.44s-1.504 3.44-3.439 3.44c-1.934 0-3.439-1.505-3.439-3.44z"/>
    <path fill="url(#ae)" d="M486.555 33.752a3.44 3.44 0 1 0 .001 6.88 3.44 3.44 0 0 0-.001-6.88z"/>
    <path fill="url(#af)" d="M486.555 16.769a3.44 3.44 0 1 0 .001 6.879 3.44 3.44 0 0 0-.001-6.88z"/>
    <path fill="url(#ag)" d="M486.555 0a3.44 3.44 0 1 0 .001 6.88 3.44 3.44 0 0 0-.001-6.88z"/>
    <path fill="url(#ah)" d="M500.096 101.258a3.44 3.44 0 1 0 0 6.879 3.44 3.44 0 0 0 0-6.879z"/>
    <path fill="url(#ai)" d="M500.096 84.274a3.44 3.44 0 1 0 .001 6.88 3.44 3.44 0 0 0-.001-6.88z"/>
    <path fill="url(#aj)" d="M500.096 67.505a3.44 3.44 0 1 0 .001 6.88 3.44 3.44 0 0 0-.001-6.88z"/>
    <path fill="url(#ak)" d="M496.657 53.961c0-1.935 1.505-3.44 3.439-3.44 1.935 0 3.44 1.505 3.44 3.44s-1.505 3.44-3.44 3.44c-1.934 0-3.439-1.505-3.439-3.44z"/>
    <path fill="url(#al)" d="M500.096 33.752a3.44 3.44 0 1 0 .001 6.88 3.44 3.44 0 0 0-.001-6.88z"/>
    <path fill="url(#am)" d="M500.096 16.769a3.44 3.44 0 1 0 .001 6.879 3.44 3.44 0 0 0-.001-6.88z"/>
    <path fill="url(#an)" d="M500.096 0a3.44 3.44 0 1 0 .001 6.88 3.44 3.44 0 0 0-.001-6.88z"/>
    <path fill="url(#ao)" d="M487.023 466.353c.738-2.46 1.23-5.166 1.476-7.873l-39.357 39.365c2.705-.246 5.411-.738 7.871-1.476l30.01-30.016z"/>
    <path fill="url(#ap)" d="M421.345 491.448c1.23.739 2.706 1.477 4.182 2.215l59.037-59.048c-.738-1.476-1.476-2.706-2.214-4.183l-61.005 61.016z"/>
    <path fill="url(#aq)" d="M428.971 495.139c1.476.492 3.198.984 4.92 1.476l53.625-53.635c-.492-1.722-.984-3.198-1.476-4.921l-57.069 57.08z"/>
    <path fill="url(#ar)" d="M438.072 497.353c1.968.246 3.936.492 5.904.492l44.769-44.778c0-1.968-.246-3.936-.492-5.904l-50.181 50.19z"/>
    <path fill="url(#as)" d="M426.019 413.702a44.675 44.675 0 0 0-12.545 8.857c-3.69 3.691-6.642 8.119-8.855 12.548l21.4-21.405z"/>
    <path fill="url(#at)" d="M414.95 486.528c1.23.984 2.214 1.968 3.444 2.952l61.742-61.754c-.984-1.23-1.722-2.46-2.952-3.444l-62.234 62.246z"/>
    <path fill="url(#au)" d="M409.538 480.623c.984 1.23 1.968 2.214 2.952 3.444l62.481-62.492c-.984-.984-2.214-1.968-3.444-2.952l-61.989 62z"/>
    <path fill="url(#av)" d="M465.623 492.433c3.69-1.969 6.887-4.429 10.085-7.627 2.952-2.953 5.658-6.397 7.626-10.088l-17.711 17.715z"/>
    <path fill="url(#aw)" d="M400.436 455.528c0 1.968.246 3.69.492 5.658l51.166-51.174c-1.968-.246-3.69-.492-5.658-.492l-46 46.008z"/>
    <path fill="url(#ax)" d="M401.666 442.981c-.738 2.46-.984 4.921-1.23 7.627l40.834-40.841c-2.46.246-5.166.492-7.625 1.23l-31.979 31.984z"/>
    <path fill="url(#ay)" d="M401.912 465.369c.492 1.722.984 3.199 1.476 4.675l57.561-57.572c-1.476-.738-3.198-1.23-4.674-1.476l-54.363 54.373z"/>
    <path fill="url(#az)" d="M405.11 473.734c.738 1.476 1.476 2.706 2.214 3.937l61.005-61.017c-1.23-.738-2.706-1.722-3.936-2.214l-59.283 59.294z"/>
    <path fill="url(#aA)" d="M507.722 254.632l5.166-5.412-10.825-10.823 10.825-10.823-5.166-5.412-10.826 11.069-11.071-11.069-5.167 5.412 11.071 10.823-11.071 10.823 5.167 5.412 11.071-11.069 10.826 11.069z"/>
    <defs>
        <linearGradient id="a" x1="33.346" x2="194.269" y1="460.96" y2="621.883" gradientUnits="userSpaceOnUse">
            <stop stop-color="#ED4264"/>
            <stop offset="1" stop-color="#FFEDBC"/>
        </linearGradient>
        <linearGradient id="b" x1="38.267" x2="188.89" y1="466.11" y2="616.733" gradientUnits="userSpaceOnUse">
            <stop stop-color="#ED4264"/>
            <stop offset="1" stop-color="#FFEDBC"/>
        </linearGradient>
        <linearGradient id="c" x1="43.074" x2="183.167" y1="471.833" y2="611.925" gradientUnits="userSpaceOnUse">
            <stop stop-color="#ED4264"/>
            <stop offset="1" stop-color="#FFEDBC"/>
        </linearGradient>
        <linearGradient id="d" x1="47.881" x2="177.444" y1="477.556" y2="607.119" gradientUnits="userSpaceOnUse">
            <stop stop-color="#ED4264"/>
            <stop offset="1" stop-color="#FFEDBC"/>
        </linearGradient>
        <linearGradient id="e" x1="52.688" x2="172.179" y1="482.82" y2="602.311" gradientUnits="userSpaceOnUse">
            <stop stop-color="#ED4264"/>
            <stop offset="1" stop-color="#FFEDBC"/>
        </linearGradient>
        <linearGradient id="f" x1="57.495" x2="166.456" y1="488.543" y2="597.504" gradientUnits="userSpaceOnUse">
            <stop stop-color="#ED4264"/>
            <stop offset="1" stop-color="#FFEDBC"/>
        </linearGradient>
        <linearGradient id="g" x1="62.303" x2="160.734" y1="494.267" y2="592.698" gradientUnits="userSpaceOnUse">
            <stop stop-color="#ED4264"/>
            <stop offset="1" stop-color="#FFEDBC"/>
        </linearGradient>
        <linearGradient id="h" x1="67.338" x2="155.242" y1="499.76" y2="587.663" gradientUnits="userSpaceOnUse">
            <stop stop-color="#ED4264"/>
            <stop offset="1" stop-color="#FFEDBC"/>
        </linearGradient>
        <linearGradient id="i" x1="72.146" x2="149.975" y1="505.025" y2="582.855" gradientUnits="userSpaceOnUse">
            <stop stop-color="#ED4264"/>
            <stop offset="1" stop-color="#FFEDBC"/>
        </linearGradient>
        <linearGradient id="j" x1="76.953" x2="144.252" y1="510.748" y2="578.048" gradientUnits="userSpaceOnUse">
            <stop stop-color="#ED4264"/>
            <stop offset="1" stop-color="#FFEDBC"/>
        </linearGradient>
        <radialGradient id="k" cx="0" cy="0" r="1" gradientTransform="matrix(-201.114 0 0 -201.153 475.281 147.681)" gradientUnits="userSpaceOnUse">
            <stop stop-color="#00FFAE"/>
            <stop offset=".354" stop-color="#009ACE"/>
            <stop offset=".67" stop-color="#0047E8"/>
            <stop offset=".892" stop-color="#0014F9"/>
            <stop offset="1" stop-color="#00F"/>
        </radialGradient>
        <radialGradient id="l" cx="0" cy="0" r="1" gradientTransform="matrix(-201.113 0 0 -201.152 475.28 147.681)" gradientUnits="userSpaceOnUse">
            <stop stop-color="#00FFAE"/>
            <stop offset=".354" stop-color="#009ACE"/>
            <stop offset=".67" stop-color="#0047E8"/>
            <stop offset=".892" stop-color="#0014F9"/>
            <stop offset="1" stop-color="#00F"/>
        </radialGradient>
        <radialGradient id="m" cx="0" cy="0" r="1" gradientTransform="matrix(-201.112 0 0 -201.151 475.28 147.681)" gradientUnits="userSpaceOnUse">
            <stop stop-color="#00FFAE"/>
            <stop offset=".354" stop-color="#009ACE"/>
            <stop offset=".67" stop-color="#0047E8"/>
            <stop offset=".892" stop-color="#0014F9"/>
            <stop offset="1" stop-color="#00F"/>
        </radialGradient>
        <radialGradient id="n" cx="0" cy="0" r="1" gradientTransform="matrix(-201.115 0 0 -201.154 475.28 147.684)" gradientUnits="userSpaceOnUse">
            <stop stop-color="#00FFAE"/>
            <stop offset=".354" stop-color="#009ACE"/>
            <stop offset=".67" stop-color="#0047E8"/>
            <stop offset=".892" stop-color="#0014F9"/>
            <stop offset="1" stop-color="#00F"/>
        </radialGradient>
        <radialGradient id="o" cx="0" cy="0" r="1" gradientTransform="matrix(-201.11 0 0 -201.15 475.28 147.68)" gradientUnits="userSpaceOnUse">
            <stop stop-color="#00FFAE"/>
            <stop offset=".354" stop-color="#009ACE"/>
            <stop offset=".67" stop-color="#0047E8"/>
            <stop offset=".892" stop-color="#0014F9"/>
            <stop offset="1" stop-color="#00F"/>
        </radialGradient>
        <radialGradient id="p" cx="0" cy="0" r="1" gradientTransform="matrix(-201.112 0 0 -201.15 475.28 147.68)" gradientUnits="userSpaceOnUse">
            <stop stop-color="#00FFAE"/>
            <stop offset=".354" stop-color="#009ACE"/>
            <stop offset=".67" stop-color="#0047E8"/>
            <stop offset=".892" stop-color="#0014F9"/>
            <stop offset="1" stop-color="#00F"/>
        </radialGradient>
        <radialGradient id="q" cx="0" cy="0" r="1" gradientTransform="matrix(-201.111 0 0 -201.15 475.28 147.681)" gradientUnits="userSpaceOnUse">
            <stop stop-color="#00FFAE"/>
            <stop offset=".354" stop-color="#009ACE"/>
            <stop offset=".67" stop-color="#0047E8"/>
            <stop offset=".892" stop-color="#0014F9"/>
            <stop offset="1" stop-color="#00F"/>
        </radialGradient>
        <radialGradient id="r" cx="0" cy="0" r="1" gradientTransform="matrix(-201.114 0 0 -201.152 475.279 147.681)" gradientUnits="userSpaceOnUse">
            <stop stop-color="#00FFAE"/>
            <stop offset=".354" stop-color="#009ACE"/>
            <stop offset=".67" stop-color="#0047E8"/>
            <stop offset=".892" stop-color="#0014F9"/>
            <stop offset="1" stop-color="#00F"/>
        </radialGradient>
        <radialGradient id="s" cx="0" cy="0" r="1" gradientTransform="matrix(-201.113 0 0 -201.152 475.279 147.681)" gradientUnits="userSpaceOnUse">
            <stop stop-color="#00FFAE"/>
            <stop offset=".354" stop-color="#009ACE"/>
            <stop offset=".67" stop-color="#0047E8"/>
            <stop offset=".892" stop-color="#0014F9"/>
            <stop offset="1" stop-color="#00F"/>
        </radialGradient>
        <radialGradient id="t" cx="0" cy="0" r="1" gradientTransform="matrix(-201.112 0 0 -201.15 475.279 147.681)" gradientUnits="userSpaceOnUse">
            <stop stop-color="#00FFAE"/>
            <stop offset=".354" stop-color="#009ACE"/>
            <stop offset=".67" stop-color="#0047E8"/>
            <stop offset=".892" stop-color="#0014F9"/>
            <stop offset="1" stop-color="#00F"/>
        </radialGradient>
        <radialGradient id="u" cx="0" cy="0" r="1" gradientTransform="matrix(-201.116 0 0 -201.155 475.279 147.684)" gradientUnits="userSpaceOnUse">
            <stop stop-color="#00FFAE"/>
            <stop offset=".354" stop-color="#009ACE"/>
            <stop offset=".67" stop-color="#0047E8"/>
            <stop offset=".892" stop-color="#0014F9"/>
            <stop offset="1" stop-color="#00F"/>
        </radialGradient>
        <radialGradient id="v" cx="0" cy="0" r="1" gradientTransform="matrix(-201.111 0 0 -201.15 475.279 147.68)" gradientUnits="userSpaceOnUse">
            <stop stop-color="#00FFAE"/>
            <stop offset=".354" stop-color="#009ACE"/>
            <stop offset=".67" stop-color="#0047E8"/>
            <stop offset=".892" stop-color="#0014F9"/>
            <stop offset="1" stop-color="#00F"/>
        </radialGradient>
        <radialGradient id="w" cx="0" cy="0" r="1" gradientTransform="matrix(-201.111 0 0 -201.15 475.279 147.68)" gradientUnits="userSpaceOnUse">
            <stop stop-color="#00FFAE"/>
            <stop offset=".354" stop-color="#009ACE"/>
            <stop offset=".67" stop-color="#0047E8"/>
            <stop offset=".892" stop-color="#0014F9"/>
            <stop offset="1" stop-color="#00F"/>
        </radialGradient>
        <radialGradient id="x" cx="0" cy="0" r="1" gradientTransform="matrix(-201.111 0 0 -201.15 475.279 147.681)" gradientUnits="userSpaceOnUse">
            <stop stop-color="#00FFAE"/>
            <stop offset=".354" stop-color="#009ACE"/>
            <stop offset=".67" stop-color="#0047E8"/>
            <stop offset=".892" stop-color="#0014F9"/>
            <stop offset="1" stop-color="#00F"/>
        </radialGradient>
        <radialGradient id="y" cx="0" cy="0" r="1" gradientTransform="matrix(-201.113 0 0 -201.152 475.279 147.681)" gradientUnits="userSpaceOnUse">
            <stop stop-color="#00FFAE"/>
            <stop offset=".354" stop-color="#009ACE"/>
            <stop offset=".67" stop-color="#0047E8"/>
            <stop offset=".892" stop-color="#0014F9"/>
            <stop offset="1" stop-color="#00F"/>
        </radialGradient>
        <radialGradient id="z" cx="0" cy="0" r="1" gradientTransform="matrix(-201.112 0 0 -201.151 475.279 147.681)" gradientUnits="userSpaceOnUse">
            <stop stop-color="#00FFAE"/>
            <stop offset=".354" stop-color="#009ACE"/>
            <stop offset=".67" stop-color="#0047E8"/>
            <stop offset=".892" stop-color="#0014F9"/>
            <stop offset="1" stop-color="#00F"/>
        </radialGradient>
        <radialGradient id="A" cx="0" cy="0" r="1" gradientTransform="matrix(-201.11 0 0 -201.149 475.279 147.681)" gradientUnits="userSpaceOnUse">
            <stop stop-color="#00FFAE"/>
            <stop offset=".354" stop-color="#009ACE"/>
            <stop offset=".67" stop-color="#0047E8"/>
            <stop offset=".892" stop-color="#0014F9"/>
            <stop offset="1" stop-color="#00F"/>
        </radialGradient>
        <radialGradient id="B" cx="0" cy="0" r="1" gradientTransform="matrix(-201.115 0 0 -201.155 475.279 147.684)" gradientUnits="userSpaceOnUse">
            <stop stop-color="#00FFAE"/>
            <stop offset=".354" stop-color="#009ACE"/>
            <stop offset=".67" stop-color="#0047E8"/>
            <stop offset=".892" stop-color="#0014F9"/>
            <stop offset="1" stop-color="#00F"/>
        </radialGradient>
        <radialGradient id="C" cx="0" cy="0" r="1" gradientTransform="matrix(-201.11 0 0 -201.149 475.279 147.68)" gradientUnits="userSpaceOnUse">
            <stop stop-color="#00FFAE"/>
            <stop offset=".354" stop-color="#009ACE"/>
            <stop offset=".67" stop-color="#0047E8"/>
            <stop offset=".892" stop-color="#0014F9"/>
            <stop offset="1" stop-color="#00F"/>
        </radialGradient>
        <radialGradient id="D" cx="0" cy="0" r="1" gradientTransform="matrix(-201.11 0 0 -201.149 475.279 147.68)" gradientUnits="userSpaceOnUse">
            <stop stop-color="#00FFAE"/>
            <stop offset=".354" stop-color="#009ACE"/>
            <stop offset=".67" stop-color="#0047E8"/>
            <stop offset=".892" stop-color="#0014F9"/>
            <stop offset="1" stop-color="#00F"/>
        </radialGradient>
        <radialGradient id="E" cx="0" cy="0" r="1" gradientTransform="matrix(-201.11 0 0 -201.149 475.279 147.681)" gradientUnits="userSpaceOnUse">
            <stop stop-color="#00FFAE"/>
            <stop offset=".354" stop-color="#009ACE"/>
            <stop offset=".67" stop-color="#0047E8"/>
            <stop offset=".892" stop-color="#0014F9"/>
            <stop offset="1" stop-color="#00F"/>
        </radialGradient>
        <radialGradient id="F" cx="0" cy="0" r="1" gradientTransform="matrix(-201.11 0 0 -201.149 475.278 147.681)" gradientUnits="userSpaceOnUse">
            <stop stop-color="#00FFAE"/>
            <stop offset=".354" stop-color="#009ACE"/>
            <stop offset=".67" stop-color="#0047E8"/>
            <stop offset=".892" stop-color="#0014F9"/>
            <stop offset="1" stop-color="#00F"/>
        </radialGradient>
        <radialGradient id="G" cx="0" cy="0" r="1" gradientTransform="matrix(-201.11 0 0 -201.149 475.279 147.681)" gradientUnits="userSpaceOnUse">
            <stop stop-color="#00FFAE"/>
            <stop offset=".354" stop-color="#009ACE"/>
            <stop offset=".67" stop-color="#0047E8"/>
            <stop offset=".892" stop-color="#0014F9"/>
            <stop offset="1" stop-color="#00F"/>
        </radialGradient>
        <radialGradient id="H" cx="0" cy="0" r="1" gradientTransform="matrix(-201.109 0 0 -201.147 475.279 147.681)" gradientUnits="userSpaceOnUse">
            <stop stop-color="#00FFAE"/>
            <stop offset=".354" stop-color="#009ACE"/>
            <stop offset=".67" stop-color="#0047E8"/>
            <stop offset=".892" stop-color="#0014F9"/>
            <stop offset="1" stop-color="#00F"/>
        </radialGradient>
        <radialGradient id="I" cx="0" cy="0" r="1" gradientTransform="matrix(-201.115 0 0 -201.154 475.279 147.684)" gradientUnits="userSpaceOnUse">
            <stop stop-color="#00FFAE"/>
            <stop offset=".354" stop-color="#009ACE"/>
            <stop offset=".67" stop-color="#0047E8"/>
            <stop offset=".892" stop-color="#0014F9"/>
            <stop offset="1" stop-color="#00F"/>
        </radialGradient>
        <radialGradient id="J" cx="0" cy="0" r="1" gradientTransform="matrix(-201.109 0 0 -201.148 475.279 147.68)" gradientUnits="userSpaceOnUse">
            <stop stop-color="#00FFAE"/>
            <stop offset=".354" stop-color="#009ACE"/>
            <stop offset=".67" stop-color="#0047E8"/>
            <stop offset=".892" stop-color="#0014F9"/>
            <stop offset="1" stop-color="#00F"/>
        </radialGradient>
        <radialGradient id="K" cx="0" cy="0" r="1" gradientTransform="matrix(-201.111 0 0 -201.149 475.279 147.68)" gradientUnits="userSpaceOnUse">
            <stop stop-color="#00FFAE"/>
            <stop offset=".354" stop-color="#009ACE"/>
            <stop offset=".67" stop-color="#0047E8"/>
            <stop offset=".892" stop-color="#0014F9"/>
            <stop offset="1" stop-color="#00F"/>
        </radialGradient>
        <radialGradient id="L" cx="0" cy="0" r="1" gradientTransform="matrix(-201.111 0 0 -201.149 475.279 147.681)" gradientUnits="userSpaceOnUse">
            <stop stop-color="#00FFAE"/>
            <stop offset=".354" stop-color="#009ACE"/>
            <stop offset=".67" stop-color="#0047E8"/>
            <stop offset=".892" stop-color="#0014F9"/>
            <stop offset="1" stop-color="#00F"/>
        </radialGradient>
        <radialGradient id="M" cx="0" cy="0" r="1" gradientTransform="matrix(-201.11 0 0 -201.149 475.278 147.681)" gradientUnits="userSpaceOnUse">
            <stop stop-color="#00FFAE"/>
            <stop offset=".354" stop-color="#009ACE"/>
            <stop offset=".67" stop-color="#0047E8"/>
            <stop offset=".892" stop-color="#0014F9"/>
            <stop offset="1" stop-color="#00F"/>
        </radialGradient>
        <radialGradient id="N" cx="0" cy="0" r="1" gradientTransform="matrix(-201.11 0 0 -201.149 475.279 147.681)" gradientUnits="userSpaceOnUse">
            <stop stop-color="#00FFAE"/>
            <stop offset=".354" stop-color="#009ACE"/>
            <stop offset=".67" stop-color="#0047E8"/>
            <stop offset=".892" stop-color="#0014F9"/>
            <stop offset="1" stop-color="#00F"/>
        </radialGradient>
        <radialGradient id="O" cx="0" cy="0" r="1" gradientTransform="matrix(-201.109 0 0 -201.148 475.279 147.681)" gradientUnits="userSpaceOnUse">
            <stop stop-color="#00FFAE"/>
            <stop offset=".354" stop-color="#009ACE"/>
            <stop offset=".67" stop-color="#0047E8"/>
            <stop offset=".892" stop-color="#0014F9"/>
            <stop offset="1" stop-color="#00F"/>
        </radialGradient>
        <radialGradient id="P" cx="0" cy="0" r="1" gradientTransform="matrix(-201.115 0 0 -201.154 475.279 147.684)" gradientUnits="userSpaceOnUse">
            <stop stop-color="#00FFAE"/>
            <stop offset=".354" stop-color="#009ACE"/>
            <stop offset=".67" stop-color="#0047E8"/>
            <stop offset=".892" stop-color="#0014F9"/>
            <stop offset="1" stop-color="#00F"/>
        </radialGradient>
        <radialGradient id="Q" cx="0" cy="0" r="1" gradientTransform="matrix(-201.109 0 0 -201.148 475.279 147.68)" gradientUnits="userSpaceOnUse">
            <stop stop-color="#00FFAE"/>
            <stop offset=".354" stop-color="#009ACE"/>
            <stop offset=".67" stop-color="#0047E8"/>
            <stop offset=".892" stop-color="#0014F9"/>
            <stop offset="1" stop-color="#00F"/>
        </radialGradient>
        <radialGradient id="R" cx="0" cy="0" r="1" gradientTransform="matrix(-201.111 0 0 -201.149 475.279 147.68)" gradientUnits="userSpaceOnUse">
            <stop stop-color="#00FFAE"/>
            <stop offset=".354" stop-color="#009ACE"/>
            <stop offset=".67" stop-color="#0047E8"/>
            <stop offset=".892" stop-color="#0014F9"/>
            <stop offset="1" stop-color="#00F"/>
        </radialGradient>
        <radialGradient id="S" cx="0" cy="0" r="1" gradientTransform="matrix(-201.11 0 0 -201.149 475.279 147.681)" gradientUnits="userSpaceOnUse">
            <stop stop-color="#00FFAE"/>
            <stop offset=".354" stop-color="#009ACE"/>
            <stop offset=".67" stop-color="#0047E8"/>
            <stop offset=".892" stop-color="#0014F9"/>
            <stop offset="1" stop-color="#00F"/>
        </radialGradient>
        <radialGradient id="T" cx="0" cy="0" r="1" gradientTransform="matrix(-201.109 0 0 -201.149 475.278 147.681)" gradientUnits="userSpaceOnUse">
            <stop stop-color="#00FFAE"/>
            <stop offset=".354" stop-color="#009ACE"/>
            <stop offset=".67" stop-color="#0047E8"/>
            <stop offset=".892" stop-color="#0014F9"/>
            <stop offset="1" stop-color="#00F"/>
        </radialGradient>
        <radialGradient id="U" cx="0" cy="0" r="1" gradientTransform="matrix(-201.109 0 0 -201.149 475.279 147.681)" gradientUnits="userSpaceOnUse">
            <stop stop-color="#00FFAE"/>
            <stop offset=".354" stop-color="#009ACE"/>
            <stop offset=".67" stop-color="#0047E8"/>
            <stop offset=".892" stop-color="#0014F9"/>
            <stop offset="1" stop-color="#00F"/>
        </radialGradient>
        <radialGradient id="V" cx="0" cy="0" r="1" gradientTransform="matrix(-201.108 0 0 -201.147 475.279 147.681)" gradientUnits="userSpaceOnUse">
            <stop stop-color="#00FFAE"/>
            <stop offset=".354" stop-color="#009ACE"/>
            <stop offset=".67" stop-color="#0047E8"/>
            <stop offset=".892" stop-color="#0014F9"/>
            <stop offset="1" stop-color="#00F"/>
        </radialGradient>
        <radialGradient id="W" cx="0" cy="0" r="1" gradientTransform="matrix(-201.115 0 0 -201.155 475.279 147.684)" gradientUnits="userSpaceOnUse">
            <stop stop-color="#00FFAE"/>
            <stop offset=".354" stop-color="#009ACE"/>
            <stop offset=".67" stop-color="#0047E8"/>
            <stop offset=".892" stop-color="#0014F9"/>
            <stop offset="1" stop-color="#00F"/>
        </radialGradient>
        <radialGradient id="X" cx="0" cy="0" r="1" gradientTransform="matrix(-201.109 0 0 -201.149 475.279 147.68)" gradientUnits="userSpaceOnUse">
            <stop stop-color="#00FFAE"/>
            <stop offset=".354" stop-color="#009ACE"/>
            <stop offset=".67" stop-color="#0047E8"/>
            <stop offset=".892" stop-color="#0014F9"/>
            <stop offset="1" stop-color="#00F"/>
        </radialGradient>
        <radialGradient id="Y" cx="0" cy="0" r="1" gradientTransform="matrix(-201.109 0 0 -201.148 475.279 147.68)" gradientUnits="userSpaceOnUse">
            <stop stop-color="#00FFAE"/>
            <stop offset=".354" stop-color="#009ACE"/>
            <stop offset=".67" stop-color="#0047E8"/>
            <stop offset=".892" stop-color="#0014F9"/>
            <stop offset="1" stop-color="#00F"/>
        </radialGradient>
        <radialGradient id="Z" cx="0" cy="0" r="1" gradientTransform="matrix(-201.109 0 0 -201.149 475.279 147.681)" gradientUnits="userSpaceOnUse">
            <stop stop-color="#00FFAE"/>
            <stop offset=".354" stop-color="#009ACE"/>
            <stop offset=".67" stop-color="#0047E8"/>
            <stop offset=".892" stop-color="#0014F9"/>
            <stop offset="1" stop-color="#00F"/>
        </radialGradient>
        <radialGradient id="aa" cx="0" cy="0" r="1" gradientTransform="matrix(-201.11 0 0 -201.149 475.279 147.681)" gradientUnits="userSpaceOnUse">
            <stop stop-color="#00FFAE"/>
            <stop offset=".354" stop-color="#009ACE"/>
            <stop offset=".67" stop-color="#0047E8"/>
            <stop offset=".892" stop-color="#0014F9"/>
            <stop offset="1" stop-color="#00F"/>
        </radialGradient>
        <radialGradient id="ab" cx="0" cy="0" r="1" gradientTransform="matrix(-201.11 0 0 -201.149 475.279 147.681)" gradientUnits="userSpaceOnUse">
            <stop stop-color="#00FFAE"/>
            <stop offset=".354" stop-color="#009ACE"/>
            <stop offset=".67" stop-color="#0047E8"/>
            <stop offset=".892" stop-color="#0014F9"/>
            <stop offset="1" stop-color="#00F"/>
        </radialGradient>
        <radialGradient id="ac" cx="0" cy="0" r="1" gradientTransform="matrix(-201.109 0 0 -201.148 475.279 147.681)" gradientUnits="userSpaceOnUse">
            <stop stop-color="#00FFAE"/>
            <stop offset=".354" stop-color="#009ACE"/>
            <stop offset=".67" stop-color="#0047E8"/>
            <stop offset=".892" stop-color="#0014F9"/>
            <stop offset="1" stop-color="#00F"/>
        </radialGradient>
        <radialGradient id="ad" cx="0" cy="0" r="1" gradientTransform="matrix(-201.115 0 0 -201.154 475.279 147.684)" gradientUnits="userSpaceOnUse">
            <stop stop-color="#00FFAE"/>
            <stop offset=".354" stop-color="#009ACE"/>
            <stop offset=".67" stop-color="#0047E8"/>
            <stop offset=".892" stop-color="#0014F9"/>
            <stop offset="1" stop-color="#00F"/>
        </radialGradient>
        <radialGradient id="ae" cx="0" cy="0" r="1" gradientTransform="matrix(-201.109 0 0 -201.148 475.279 147.68)" gradientUnits="userSpaceOnUse">
            <stop stop-color="#00FFAE"/>
            <stop offset=".354" stop-color="#009ACE"/>
            <stop offset=".67" stop-color="#0047E8"/>
            <stop offset=".892" stop-color="#0014F9"/>
            <stop offset="1" stop-color="#00F"/>
        </radialGradient>
        <radialGradient id="af" cx="0" cy="0" r="1" gradientTransform="matrix(-201.111 0 0 -201.149 475.279 147.68)" gradientUnits="userSpaceOnUse">
            <stop stop-color="#00FFAE"/>
            <stop offset=".354" stop-color="#009ACE"/>
            <stop offset=".67" stop-color="#0047E8"/>
            <stop offset=".892" stop-color="#0014F9"/>
            <stop offset="1" stop-color="#00F"/>
        </radialGradient>
        <radialGradient id="ag" cx="0" cy="0" r="1" gradientTransform="matrix(-201.11 0 0 -201.149 475.279 147.681)" gradientUnits="userSpaceOnUse">
            <stop stop-color="#00FFAE"/>
            <stop offset=".354" stop-color="#009ACE"/>
            <stop offset=".67" stop-color="#0047E8"/>
            <stop offset=".892" stop-color="#0014F9"/>
            <stop offset="1" stop-color="#00F"/>
        </radialGradient>
        <radialGradient id="ah" cx="0" cy="0" r="1" gradientTransform="matrix(-201.111 0 0 -201.149 475.279 147.681)" gradientUnits="userSpaceOnUse">
            <stop stop-color="#00FFAE"/>
            <stop offset=".354" stop-color="#009ACE"/>
            <stop offset=".67" stop-color="#0047E8"/>
            <stop offset=".892" stop-color="#0014F9"/>
            <stop offset="1" stop-color="#00F"/>
        </radialGradient>
        <radialGradient id="ai" cx="0" cy="0" r="1" gradientTransform="matrix(-201.111 0 0 -201.149 475.279 147.681)" gradientUnits="userSpaceOnUse">
            <stop stop-color="#00FFAE"/>
            <stop offset=".354" stop-color="#009ACE"/>
            <stop offset=".67" stop-color="#0047E8"/>
            <stop offset=".892" stop-color="#0014F9"/>
            <stop offset="1" stop-color="#00F"/>
        </radialGradient>
        <radialGradient id="aj" cx="0" cy="0" r="1" gradientTransform="matrix(-201.11 0 0 -201.148 475.279 147.681)" gradientUnits="userSpaceOnUse">
            <stop stop-color="#00FFAE"/>
            <stop offset=".354" stop-color="#009ACE"/>
            <stop offset=".67" stop-color="#0047E8"/>
            <stop offset=".892" stop-color="#0014F9"/>
            <stop offset="1" stop-color="#00F"/>
        </radialGradient>
        <radialGradient id="ak" cx="0" cy="0" r="1" gradientTransform="matrix(-201.116 0 0 -201.154 475.279 147.684)" gradientUnits="userSpaceOnUse">
            <stop stop-color="#00FFAE"/>
            <stop offset=".354" stop-color="#009ACE"/>
            <stop offset=".67" stop-color="#0047E8"/>
            <stop offset=".892" stop-color="#0014F9"/>
            <stop offset="1" stop-color="#00F"/>
        </radialGradient>
        <radialGradient id="al" cx="0" cy="0" r="1" gradientTransform="matrix(-201.11 0 0 -201.148 475.279 147.68)" gradientUnits="userSpaceOnUse">
            <stop stop-color="#00FFAE"/>
            <stop offset=".354" stop-color="#009ACE"/>
            <stop offset=".67" stop-color="#0047E8"/>
            <stop offset=".892" stop-color="#0014F9"/>
            <stop offset="1" stop-color="#00F"/>
        </radialGradient>
        <radialGradient id="am" cx="0" cy="0" r="1" gradientTransform="matrix(-201.111 0 0 -201.149 475.279 147.68)" gradientUnits="userSpaceOnUse">
            <stop stop-color="#00FFAE"/>
            <stop offset=".354" stop-color="#009ACE"/>
            <stop offset=".67" stop-color="#0047E8"/>
            <stop offset=".892" stop-color="#0014F9"/>
            <stop offset="1" stop-color="#00F"/>
        </radialGradient>
        <radialGradient id="an" cx="0" cy="0" r="1" gradientTransform="matrix(-201.111 0 0 -201.149 475.279 147.681)" gradientUnits="userSpaceOnUse">
            <stop stop-color="#00FFAE"/>
            <stop offset=".354" stop-color="#009ACE"/>
            <stop offset=".67" stop-color="#0047E8"/>
            <stop offset=".892" stop-color="#0014F9"/>
            <stop offset="1" stop-color="#00F"/>
        </radialGradient>
        <linearGradient id="ao" x1="449.142" x2="488.499" y1="478.163" y2="478.163" gradientUnits="userSpaceOnUse">
            <stop stop-color="#5433FF"/>
            <stop offset=".5" stop-color="#20BDFF"/>
            <stop offset="1" stop-color="#A5FECB"/>
        </linearGradient>
        <linearGradient id="ap" x1="421.345" x2="484.564" y1="462.048" y2="462.048" gradientUnits="userSpaceOnUse">
            <stop stop-color="#5433FF"/>
            <stop offset=".5" stop-color="#20BDFF"/>
            <stop offset="1" stop-color="#A5FECB"/>
        </linearGradient>
        <linearGradient id="aq" x1="428.971" x2="487.516" y1="467.337" y2="467.337" gradientUnits="userSpaceOnUse">
            <stop stop-color="#5433FF"/>
            <stop offset=".5" stop-color="#20BDFF"/>
            <stop offset="1" stop-color="#A5FECB"/>
        </linearGradient>
        <linearGradient id="ar" x1="438.072" x2="488.745" y1="472.504" y2="472.504" gradientUnits="userSpaceOnUse">
            <stop stop-color="#5433FF"/>
            <stop offset=".5" stop-color="#20BDFF"/>
            <stop offset="1" stop-color="#A5FECB"/>
        </linearGradient>
        <linearGradient id="as" x1="404.619" x2="426.019" y1="424.405" y2="424.405" gradientUnits="userSpaceOnUse">
            <stop stop-color="#5433FF"/>
            <stop offset=".5" stop-color="#20BDFF"/>
            <stop offset="1" stop-color="#A5FECB"/>
        </linearGradient>
        <linearGradient id="at" x1="414.95" x2="480.136" y1="456.881" y2="456.881" gradientUnits="userSpaceOnUse">
            <stop stop-color="#5433FF"/>
            <stop offset=".5" stop-color="#20BDFF"/>
            <stop offset="1" stop-color="#A5FECB"/>
        </linearGradient>
        <linearGradient id="au" x1="409.538" x2="474.971" y1="451.345" y2="451.345" gradientUnits="userSpaceOnUse">
            <stop stop-color="#5433FF"/>
            <stop offset=".5" stop-color="#20BDFF"/>
            <stop offset="1" stop-color="#A5FECB"/>
        </linearGradient>
        <linearGradient id="av" x1="465.623" x2="483.334" y1="483.575" y2="483.575" gradientUnits="userSpaceOnUse">
            <stop stop-color="#5433FF"/>
            <stop offset=".5" stop-color="#20BDFF"/>
            <stop offset="1" stop-color="#A5FECB"/>
        </linearGradient>
        <linearGradient id="aw" x1="400.436" x2="452.094" y1="435.353" y2="435.353" gradientUnits="userSpaceOnUse">
            <stop stop-color="#5433FF"/>
            <stop offset=".5" stop-color="#20BDFF"/>
            <stop offset="1" stop-color="#A5FECB"/>
        </linearGradient>
        <linearGradient id="ax" x1="400.436" x2="441.27" y1="430.187" y2="430.187" gradientUnits="userSpaceOnUse">
            <stop stop-color="#5433FF"/>
            <stop offset=".5" stop-color="#20BDFF"/>
            <stop offset="1" stop-color="#A5FECB"/>
        </linearGradient>
        <linearGradient id="ay" x1="401.912" x2="460.949" y1="440.52" y2="440.52" gradientUnits="userSpaceOnUse">
            <stop stop-color="#5433FF"/>
            <stop offset=".5" stop-color="#20BDFF"/>
            <stop offset="1" stop-color="#A5FECB"/>
        </linearGradient>
        <linearGradient id="az" x1="405.11" x2="468.329" y1="446.055" y2="446.055" gradientUnits="userSpaceOnUse">
            <stop stop-color="#5433FF"/>
            <stop offset=".5" stop-color="#20BDFF"/>
            <stop offset="1" stop-color="#A5FECB"/>
        </linearGradient>
        <radialGradient id="aA" cx="0" cy="0" r="1" gradientTransform="matrix(0 104.48 -104.5 0 544.5 197.285)" gradientUnits="userSpaceOnUse">
            <stop stop-color="#E600FF"/>
            <stop offset=".298" stop-color="#90F"/>
            <stop offset=".639" stop-color="#4700FF"/>
            <stop offset=".882" stop-color="#1400FF"/>
            <stop offset="1" stop-color="#00F"/>
        </radialGradient>
    </defs>
</svg>
