<svg xmlns="http://www.w3.org/2000/svg" width="545" height="619" fill="none" viewBox="0 0 545 619">
    <path fill="url(#a)" d="M113.603 392.705c-62.142 0-112.632 50.5-112.632 112.653 0 62.154 50.49 112.654 112.632 112.654s112.632-50.5 112.632-112.654c0-62.153-50.49-112.653-112.632-112.653zm0 226.278C50.813 618.983 0 567.836 0 505.358 0 442.881 51.138 391.41 113.603 391.41c62.789 0 113.927 51.147 113.927 113.625 0 62.477-51.138 113.948-113.927 113.948z"/>
    <path fill="url(#b)" d="M113.603 400.474c-57.934 0-105.188 47.263-105.188 105.208 0 57.946 47.254 105.208 105.188 105.208 57.934 0 105.188-47.262 105.188-105.208 0-57.945-46.93-105.208-105.188-105.208zm0 211.387c-58.582 0-106.483-47.586-106.483-106.503 0-58.592 47.578-106.502 106.483-106.502 58.581 0 106.482 47.586 106.482 106.502 0 58.917-47.577 106.503-106.482 106.503z"/>
    <path fill="url(#c)" d="M113.603 408.243c-54.05 0-97.744 44.026-97.744 97.763 0 54.061 44.017 97.762 97.744 97.762 54.05 0 97.744-44.025 97.744-97.762.324-53.737-43.694-97.763-97.744-97.763zm0 196.82c-54.698 0-99.039-44.349-99.039-99.057 0-54.708 44.665-99.058 99.039-99.058 54.698 0 99.038 44.35 99.038 99.058 0 54.708-44.34 99.057-99.038 99.057z"/>
    <path fill="url(#d)" d="M113.603 416.013c-49.843 0-90.624 40.464-90.624 90.64 0 50.177 40.457 90.641 90.624 90.641 49.843 0 90.623-40.464 90.623-90.641 0-50.176-40.457-90.64-90.623-90.64zm0 182.252c-50.49 0-91.595-41.112-91.595-91.612 0-50.499 41.104-91.612 91.595-91.612 50.49 0 91.594 41.113 91.594 91.612 0 50.5-40.78 91.612-91.594 91.612z"/>
    <path fill="url(#e)" d="M113.603 424.106c-45.96 0-83.18 37.227-83.18 83.195 0 45.968 37.22 83.195 83.18 83.195 45.959 0 83.179-37.227 83.179-83.195 0-45.968-37.22-83.195-83.179-83.195zm0 167.361c-46.607 0-84.474-37.875-84.474-84.49 0-46.615 37.867-84.49 84.474-84.49 46.606 0 84.474 37.875 84.474 84.49 0 46.615-37.868 84.49-84.474 84.49z"/>
    <path fill="url(#f)" d="M113.602 431.875c-41.751 0-75.735 33.99-75.735 75.749 0 41.76 33.984 75.75 75.735 75.75 41.752 0 75.736-33.99 75.736-75.75 0-41.759-33.66-75.749-75.736-75.749zm0 152.794c-42.398 0-77.03-34.638-77.03-77.045 0-42.406 34.632-77.044 77.03-77.044 42.399 0 77.031 34.638 77.031 77.044 0 42.407-34.308 77.045-77.031 77.045z"/>
    <path fill="url(#g)" d="M113.604 439.644c-37.868 0-68.291 30.753-68.291 68.304s30.747 68.304 68.291 68.304c37.867 0 68.291-30.753 68.291-68.304s-30.424-68.304-68.291-68.304zm0 138.227c-38.515 0-69.586-31.401-69.586-69.599 0-38.199 31.394-69.599 69.586-69.599 38.515 0 69.586 31.4 69.586 69.599 0 38.198-31.071 69.599-69.586 69.599z"/>
    <path fill="url(#h)" d="M113.603 447.413c-33.66 0-61.17 27.516-61.17 61.183 0 33.666 27.51 61.182 61.17 61.182s61.171-27.516 61.171-61.182c0-33.667-27.187-61.183-61.171-61.183zm0 123.336c-34.307 0-62.142-27.839-62.142-62.153s27.835-62.154 62.142-62.154 62.142 27.84 62.142 62.154c.324 34.314-27.511 62.153-62.142 62.153z"/>
    <path fill="url(#i)" d="M113.604 455.182c-29.777 0-53.727 23.955-53.727 53.737 0 29.782 23.95 53.737 53.727 53.737 29.776 0 53.726-23.955 53.726-53.737.324-29.458-23.95-53.737-53.726-53.737zm0 108.769c-30.424 0-55.022-24.602-55.022-55.032 0-30.429 24.598-55.032 55.022-55.032 30.423 0 55.021 24.603 55.021 55.032 0 30.43-24.598 55.032-55.021 55.032z"/>
    <path fill="url(#j)" d="M113.603 463.275c-25.569 0-46.282 20.718-46.282 46.292 0 25.573 20.713 46.291 46.282 46.291 25.569 0 46.283-20.718 46.283-46.291 0-25.574-20.39-46.292-46.283-46.292zm0 93.878c-26.216 0-47.577-21.365-47.577-47.586s21.361-47.587 47.577-47.587c26.216 0 47.578 21.366 47.578 47.587 0 26.221-21.038 47.586-47.578 47.586z"/>
    <path fill="url(#k)" d="M497.999 493.278c.738-2.46 1.23-5.165 1.475-7.871l-39.349 39.356c2.706-.245 5.411-.737 7.87-1.475l30.004-30.01z"/>
    <path fill="url(#l)" d="M432.335 518.368c1.23.738 2.705 1.476 4.181 2.214l59.024-59.035c-.738-1.476-1.476-2.706-2.214-4.182l-60.991 61.003z"/>
    <path fill="url(#m)" d="M439.959 522.058c1.476.492 3.197.984 4.919 1.476l53.613-53.624c-.492-1.721-.984-3.197-1.476-4.919l-57.056 57.067z"/>
    <path fill="url(#n)" d="M449.058 524.272c1.968.246 3.935.492 5.903.492l44.759-44.769c0-1.967-.246-3.935-.492-5.903l-50.17 50.18z"/>
    <path fill="url(#o)" d="M437.008 440.639a44.66 44.66 0 0 0-12.542 8.855c-3.689 3.69-6.641 8.117-8.854 12.545l21.396-21.4z"/>
    <path fill="url(#p)" d="M425.941 513.448c1.23.984 2.213 1.968 3.443 2.952l61.729-61.74c-.984-1.23-1.722-2.46-2.951-3.444l-62.221 62.232z"/>
    <path fill="url(#q)" d="M420.531 507.545c.984 1.23 1.967 2.214 2.951 3.444l62.467-62.479c-.984-.984-2.214-1.968-3.443-2.952l-61.975 61.987z"/>
    <path fill="url(#r)" d="M476.603 519.352c3.689-1.968 6.886-4.428 10.083-7.625 2.951-2.952 5.657-6.396 7.624-10.085l-17.707 17.71z"/>
    <path fill="url(#s)" d="M411.431 482.455c0 1.968.246 3.69.492 5.658l51.154-51.164c-1.968-.246-3.689-.492-5.657-.492l-45.989 45.998z"/>
    <path fill="url(#t)" d="M412.661 469.911c-.738 2.46-.984 4.92-1.23 7.625l40.825-40.832c-2.46.246-5.165.492-7.624 1.23l-31.971 31.977z"/>
    <path fill="url(#u)" d="M412.907 492.294c.492 1.722.983 3.198 1.475 4.674l57.548-57.559c-1.475-.738-3.197-1.23-4.672-1.476l-54.351 54.361z"/>
    <path fill="url(#v)" d="M416.104 500.658c.738 1.476 1.475 2.705 2.213 3.935l60.991-61.002c-1.229-.738-2.705-1.722-3.935-2.214l-59.269 59.281z"/>
    <path fill="url(#w)" fill-rule="evenodd" d="M511.1 6.877a3.439 3.439 0 1 1 0-6.878 3.439 3.439 0 0 1 0 6.878zm-3.439 10.1a3.439 3.439 0 1 0 6.878-.002 3.439 3.439 0 0 0-6.878.001zm3.439 16.977a3.439 3.439 0 1 1 0-6.878 3.439 3.439 0 0 1 0 6.878zm-3.439 10.315a3.439 3.439 0 1 0 6.878 0 3.439 3.439 0 0 0-6.878 0zm3.439 16.977a3.439 3.439 0 1 1 0-6.878 3.439 3.439 0 0 1 0 6.878zm0 13.539c-1.934 0-3.439-1.505-3.439-3.439 0-1.934 1.505-3.438 3.439-3.438 1.935 0 3.439 1.504 3.439 3.438 0 1.934-1.719 3.439-3.439 3.439zm-3.439 10.314c0 1.934 1.505 3.438 3.439 3.438 1.72 0 3.439-1.504 3.439-3.438 0-1.934-1.504-3.438-3.439-3.438-1.934 0-3.439 1.504-3.439 3.438zm0 13.538c0 1.934 1.505 3.438 3.439 3.438 1.72 0 3.439-1.504 3.439-3.438 0-1.934-1.504-3.439-3.439-3.439-1.934 0-3.439 1.505-3.439 3.439zm-16.98 0c0 1.934 1.505 3.438 3.439 3.438 1.934 0 3.439-1.504 3.439-3.438 0-1.934-1.505-3.439-3.439-3.439-1.934 0-3.439 1.505-3.439 3.439zm-13.326 3.438c-1.934 0-3.439-1.504-3.439-3.438 0-1.934 1.505-3.439 3.439-3.439 1.934 0 3.439 1.505 3.439 3.439 0 1.934-1.505 3.438-3.439 3.438zm-20.419-3.438c0 1.934 1.505 3.438 3.439 3.438 1.934 0 3.439-1.504 3.439-3.438 0-1.934-1.505-3.439-3.439-3.439-1.934 0-3.439 1.505-3.439 3.439zm-13.326 3.438c-1.935 0-3.439-1.504-3.439-3.438 0-1.934 1.504-3.439 3.439-3.439 1.934 0 3.439 1.505 3.439 3.439 0 1.934-1.505 3.438-3.439 3.438zm-20.419-3.438c0 1.934 1.504 3.438 3.439 3.438 1.934 0 3.439-1.504 3.439-3.438 0-1.934-1.505-3.439-3.439-3.439-1.935 0-3.439 1.505-3.439 3.439zm-13.326 3.438c-1.935 0-3.439-1.504-3.439-3.438 0-1.934 1.504-3.439 3.439-3.439 1.934 0 3.439 1.505 3.439 3.439 0 1.934-1.505 3.438-3.439 3.438zm84.255-13.538c-1.934 0-3.439-1.504-3.439-3.438 0-1.934 1.505-3.438 3.439-3.438 1.934 0 3.439 1.504 3.439 3.438 0 1.934-1.505 3.438-3.439 3.438zM473.916 85.1c0 1.934 1.505 3.438 3.439 3.438 1.934 0 3.439-1.504 3.439-3.438 0-1.934-1.505-3.438-3.439-3.438-1.934 0-3.439 1.504-3.439 3.438zm-13.541 3.438c-1.934 0-3.439-1.504-3.439-3.438 0-1.934 1.505-3.438 3.439-3.438 1.934 0 3.439 1.504 3.439 3.438 0 1.934-1.505 3.438-3.439 3.438zM440.171 85.1c0 1.934 1.504 3.438 3.439 3.438 1.934 0 3.439-1.504 3.439-3.438 0-1.934-1.505-3.438-3.439-3.438-1.935 0-3.439 1.504-3.439 3.438zm-13.541 3.438c-1.935 0-3.439-1.504-3.439-3.438 0-1.934 1.504-3.438 3.439-3.438 1.934 0 3.439 1.504 3.439 3.438 0 1.934-1.505 3.438-3.439 3.438zM406.426 85.1c0 1.934 1.504 3.438 3.439 3.438 1.934 0 3.439-1.504 3.439-3.438 0-1.934-1.505-3.438-3.439-3.438-1.935 0-3.439 1.504-3.439 3.438zm84.255-13.754c0 1.934 1.505 3.439 3.439 3.439 1.934 0 3.439-1.505 3.439-3.439 0-1.934-1.505-3.438-3.439-3.438-1.934 0-3.439 1.504-3.439 3.438zm-13.326 3.439c-1.934 0-3.439-1.505-3.439-3.439 0-1.934 1.505-3.438 3.439-3.438 1.934 0 3.439 1.504 3.439 3.438 0 1.934-1.505 3.439-3.439 3.439zm-20.419-3.439c0 1.934 1.505 3.439 3.439 3.439 1.934 0 3.439-1.505 3.439-3.439 0-1.934-1.505-3.438-3.439-3.438-1.934 0-3.439 1.504-3.439 3.438zm-13.326 3.439c-1.935 0-3.439-1.505-3.439-3.439 0-1.934 1.504-3.438 3.439-3.438 1.934 0 3.439 1.504 3.439 3.438 0 1.934-1.505 3.439-3.439 3.439zm-20.419-3.439c0 1.934 1.504 3.439 3.439 3.439 1.934 0 3.439-1.505 3.439-3.439 0-1.934-1.505-3.438-3.439-3.438-1.935 0-3.439 1.504-3.439 3.438zm-13.326 3.439c-1.935 0-3.439-1.505-3.439-3.439 0-1.934 1.504-3.438 3.439-3.438 1.934 0 3.439 1.504 3.439 3.438 0 1.934-1.505 3.439-3.439 3.439zm80.816-16.977a3.439 3.439 0 1 0 6.878-.001 3.439 3.439 0 0 0-6.878 0zm-13.326 3.438a3.439 3.439 0 1 1 0-6.878 3.439 3.439 0 0 1 0 6.878zm-16.98 0c-1.934 0-3.439-1.504-3.439-3.438 0-1.934 1.505-3.439 3.439-3.439 1.934 0 3.439 1.505 3.439 3.439 0 1.934-1.505 3.438-3.439 3.438zm-16.765 0a3.439 3.439 0 1 1 0-6.878 3.439 3.439 0 0 1 0 6.878zm-20.419-3.438a3.439 3.439 0 1 0 6.878-.001 3.439 3.439 0 0 0-6.878 0zm-13.326 3.438a3.438 3.438 0 1 1-.001-6.876 3.438 3.438 0 0 1 .001 6.876zm84.255-13.538a3.439 3.439 0 1 1 0-6.878 3.439 3.439 0 0 1 0 6.878zm-20.204-3.439a3.439 3.439 0 1 0 6.878 0 3.439 3.439 0 0 0-6.878 0zm-16.98 0c0 1.934 1.505 3.439 3.439 3.439 1.934 0 3.439-1.505 3.439-3.439 0-1.934-1.505-3.438-3.439-3.438-1.934 0-3.439 1.504-3.439 3.438zm-16.765 0a3.439 3.439 0 1 0 6.878 0 3.439 3.439 0 0 0-6.878 0zm-13.541 3.439a3.439 3.439 0 1 1 0-6.878 3.439 3.439 0 0 1 0 6.878zm-20.204-3.439a3.438 3.438 0 1 0 6.876 0 3.438 3.438 0 0 0-6.876 0zm84.255-13.753a3.439 3.439 0 1 0 6.878 0 3.439 3.439 0 0 0-6.878 0zm-13.326 3.439a3.439 3.439 0 1 1 0-6.878 3.439 3.439 0 0 1 0 6.878zm-16.98 0c-1.934 0-3.439-1.504-3.439-3.439 0-1.934 1.505-3.438 3.439-3.438 1.934 0 3.439 1.504 3.439 3.438 0 1.935-1.505 3.439-3.439 3.439zm-16.765 0a3.439 3.439 0 1 1 0-6.878 3.439 3.439 0 0 1 0 6.878zm-20.419-3.439a3.439 3.439 0 1 0 6.878 0 3.439 3.439 0 0 0-6.878 0zm-13.326 3.439a3.438 3.438 0 1 1-.002-6.877 3.438 3.438 0 0 1 .002 6.877zm84.255-13.54a3.439 3.439 0 1 1 0-6.877 3.439 3.439 0 0 1 0 6.878zm-20.204-3.438a3.439 3.439 0 1 0 6.878 0 3.439 3.439 0 0 0-6.878 0zm-16.98 0c0 1.934 1.505 3.439 3.439 3.439 1.934 0 3.439-1.505 3.439-3.439 0-1.934-1.505-3.438-3.439-3.438-1.934 0-3.439 1.504-3.439 3.438zm-16.765 0a3.439 3.439 0 1 0 6.878 0 3.439 3.439 0 0 0-6.878 0zm-13.541 3.439a3.439 3.439 0 1 1 0-6.878 3.439 3.439 0 0 1 0 6.878zm-20.204-3.439a3.438 3.438 0 1 0 6.876 0 3.438 3.438 0 0 0-6.876 0zm84.255-13.538a3.439 3.439 0 1 0 6.878 0 3.439 3.439 0 0 0-6.878 0zm-13.326 3.439a3.439 3.439 0 1 1 0-6.878 3.439 3.439 0 0 1 0 6.878zm-16.98 0c-1.934 0-3.439-1.505-3.439-3.439 0-1.934 1.505-3.438 3.439-3.438 1.934 0 3.439 1.504 3.439 3.438 0 1.934-1.505 3.439-3.439 3.439zm-16.765 0a3.439 3.439 0 1 1 0-6.878 3.439 3.439 0 0 1 0 6.878zm-20.419-3.439a3.439 3.439 0 1 0 6.878 0 3.439 3.439 0 0 0-6.878 0zm-13.326 3.439A3.438 3.438 0 1 1 409.863 0a3.438 3.438 0 0 1 .002 6.877z" clip-rule="evenodd"/>
    <path fill="url(#x)" d="M545 267.44l-5.411-5.165-10.82 10.823-10.821-10.823-5.411 5.165 11.067 10.823-11.067 11.069 5.411 5.166 10.821-11.069 10.82 11.069 5.411-5.166-11.067-11.069L545 267.44z"/>
    <defs>
        <linearGradient id="a" x2="227.53" y1="505.197" y2="505.197" gradientUnits="userSpaceOnUse">
            <stop stop-color="#5433FF"/>
            <stop offset=".5" stop-color="#20BDFF"/>
            <stop offset="1" stop-color="#A5FECB"/>
        </linearGradient>
        <linearGradient id="b" x1="7.12" x2="220.085" y1="505.358" y2="505.358" gradientUnits="userSpaceOnUse">
            <stop stop-color="#5433FF"/>
            <stop offset=".5" stop-color="#20BDFF"/>
            <stop offset="1" stop-color="#A5FECB"/>
        </linearGradient>
        <linearGradient id="c" x1="14.564" x2="212.641" y1="506.006" y2="506.006" gradientUnits="userSpaceOnUse">
            <stop stop-color="#5433FF"/>
            <stop offset=".5" stop-color="#20BDFF"/>
            <stop offset="1" stop-color="#A5FECB"/>
        </linearGradient>
        <linearGradient id="d" x1="22.008" x2="205.197" y1="506.653" y2="506.653" gradientUnits="userSpaceOnUse">
            <stop stop-color="#5433FF"/>
            <stop offset=".5" stop-color="#20BDFF"/>
            <stop offset="1" stop-color="#A5FECB"/>
        </linearGradient>
        <linearGradient id="e" x1="29.129" x2="198.077" y1="506.977" y2="506.977" gradientUnits="userSpaceOnUse">
            <stop stop-color="#5433FF"/>
            <stop offset=".5" stop-color="#20BDFF"/>
            <stop offset="1" stop-color="#A5FECB"/>
        </linearGradient>
        <linearGradient id="f" x1="36.572" x2="190.633" y1="507.624" y2="507.624" gradientUnits="userSpaceOnUse">
            <stop stop-color="#5433FF"/>
            <stop offset=".5" stop-color="#20BDFF"/>
            <stop offset="1" stop-color="#A5FECB"/>
        </linearGradient>
        <linearGradient id="g" x1="44.018" x2="183.19" y1="508.272" y2="508.272" gradientUnits="userSpaceOnUse">
            <stop stop-color="#5433FF"/>
            <stop offset=".5" stop-color="#20BDFF"/>
            <stop offset="1" stop-color="#A5FECB"/>
        </linearGradient>
        <linearGradient id="h" x1="51.461" x2="175.748" y1="508.596" y2="508.596" gradientUnits="userSpaceOnUse">
            <stop stop-color="#5433FF"/>
            <stop offset=".5" stop-color="#20BDFF"/>
            <stop offset="1" stop-color="#A5FECB"/>
        </linearGradient>
        <linearGradient id="i" x1="58.582" x2="168.625" y1="508.919" y2="508.919" gradientUnits="userSpaceOnUse">
            <stop stop-color="#5433FF"/>
            <stop offset=".5" stop-color="#20BDFF"/>
            <stop offset="1" stop-color="#A5FECB"/>
        </linearGradient>
        <linearGradient id="j" x1="66.026" x2="161.181" y1="509.567" y2="509.567" gradientUnits="userSpaceOnUse">
            <stop stop-color="#5433FF"/>
            <stop offset=".5" stop-color="#20BDFF"/>
            <stop offset="1" stop-color="#A5FECB"/>
        </linearGradient>
        <radialGradient id="k" cx="0" cy="0" r="1" gradientTransform="matrix(104.715 0 0 104.735 473.015 471.763)" gradientUnits="userSpaceOnUse">
            <stop stop-color="#E600FF"/>
            <stop offset=".298" stop-color="#90F"/>
            <stop offset=".639" stop-color="#4700FF"/>
            <stop offset=".882" stop-color="#1400FF"/>
            <stop offset="1" stop-color="#00F"/>
        </radialGradient>
        <radialGradient id="l" cx="0" cy="0" r="1" gradientTransform="matrix(168.198 0 0 168.23 453.039 435.45)" gradientUnits="userSpaceOnUse">
            <stop stop-color="#E600FF"/>
            <stop offset=".298" stop-color="#90F"/>
            <stop offset=".639" stop-color="#4700FF"/>
            <stop offset=".882" stop-color="#1400FF"/>
            <stop offset="1" stop-color="#00F"/>
        </radialGradient>
        <radialGradient id="m" cx="0" cy="0" r="1" gradientTransform="matrix(155.763 0 0 155.793 459.132 444.696)" gradientUnits="userSpaceOnUse">
            <stop stop-color="#E600FF"/>
            <stop offset=".298" stop-color="#90F"/>
            <stop offset=".639" stop-color="#4700FF"/>
            <stop offset=".882" stop-color="#1400FF"/>
            <stop offset="1" stop-color="#00F"/>
        </radialGradient>
        <radialGradient id="n" cx="0" cy="0" r="1" gradientTransform="matrix(134.82 0 0 134.846 465.653 456.525)" gradientUnits="userSpaceOnUse">
            <stop stop-color="#E600FF"/>
            <stop offset=".298" stop-color="#90F"/>
            <stop offset=".639" stop-color="#4700FF"/>
            <stop offset=".882" stop-color="#1400FF"/>
            <stop offset="1" stop-color="#00F"/>
        </radialGradient>
        <radialGradient id="o" cx="0" cy="0" r="1" gradientTransform="matrix(56.9386 0 0 56.9495 422.621 433.22)" gradientUnits="userSpaceOnUse">
            <stop stop-color="#E600FF"/>
            <stop offset=".298" stop-color="#90F"/>
            <stop offset=".639" stop-color="#4700FF"/>
            <stop offset=".882" stop-color="#1400FF"/>
            <stop offset="1" stop-color="#00F"/>
        </radialGradient>
        <radialGradient id="p" cx="0" cy="0" r="1" gradientTransform="matrix(173.434 0 0 173.467 447.289 428.618)" gradientUnits="userSpaceOnUse">
            <stop stop-color="#E600FF"/>
            <stop offset=".298" stop-color="#90F"/>
            <stop offset=".639" stop-color="#4700FF"/>
            <stop offset=".882" stop-color="#1400FF"/>
            <stop offset="1" stop-color="#00F"/>
        </radialGradient>
        <radialGradient id="q" cx="0" cy="0" r="1" gradientTransform="matrix(174.088 0 0 174.121 441.959 422.875)" gradientUnits="userSpaceOnUse">
            <stop stop-color="#E600FF"/>
            <stop offset=".298" stop-color="#90F"/>
            <stop offset=".639" stop-color="#4700FF"/>
            <stop offset=".882" stop-color="#1400FF"/>
            <stop offset="1" stop-color="#00F"/>
        </radialGradient>
        <radialGradient id="r" cx="0" cy="0" r="1" gradientTransform="matrix(47.1216 0 0 47.1303 482.403 495.502)" gradientUnits="userSpaceOnUse">
            <stop stop-color="#E600FF"/>
            <stop offset=".298" stop-color="#90F"/>
            <stop offset=".639" stop-color="#4700FF"/>
            <stop offset=".882" stop-color="#1400FF"/>
            <stop offset="1" stop-color="#00F"/>
        </radialGradient>
        <radialGradient id="s" cx="0" cy="0" r="1" gradientTransform="matrix(137.438 0 0 137.464 428.348 418.55)" gradientUnits="userSpaceOnUse">
            <stop stop-color="#E600FF"/>
            <stop offset=".298" stop-color="#90F"/>
            <stop offset=".639" stop-color="#4700FF"/>
            <stop offset=".882" stop-color="#1400FF"/>
            <stop offset="1" stop-color="#00F"/>
        </radialGradient>
        <radialGradient id="t" cx="0" cy="0" r="1" gradientTransform="matrix(108.642 0 0 108.662 424.804 422.549)" gradientUnits="userSpaceOnUse">
            <stop stop-color="#E600FF"/>
            <stop offset=".298" stop-color="#90F"/>
            <stop offset=".639" stop-color="#4700FF"/>
            <stop offset=".882" stop-color="#1400FF"/>
            <stop offset="1" stop-color="#00F"/>
        </radialGradient>
        <radialGradient id="u" cx="0" cy="0" r="1" gradientTransform="matrix(157.072 0 0 157.102 432.241 417.467)" gradientUnits="userSpaceOnUse">
            <stop stop-color="#E600FF"/>
            <stop offset=".298" stop-color="#90F"/>
            <stop offset=".639" stop-color="#4700FF"/>
            <stop offset=".882" stop-color="#1400FF"/>
            <stop offset="1" stop-color="#00F"/>
        </radialGradient>
        <radialGradient id="v" cx="0" cy="0" r="1" gradientTransform="matrix(168.198 0 0 168.23 436.807 419.461)" gradientUnits="userSpaceOnUse">
            <stop stop-color="#E600FF"/>
            <stop offset=".298" stop-color="#90F"/>
            <stop offset=".639" stop-color="#4700FF"/>
            <stop offset=".882" stop-color="#1400FF"/>
            <stop offset="1" stop-color="#00F"/>
        </radialGradient>
        <linearGradient id="w" x1="460.482" x2="460.482" y2="102.075" gradientUnits="userSpaceOnUse">
            <stop stop-color="#ED4264"/>
            <stop offset="1" stop-color="#FFEDBC"/>
        </linearGradient>
        <linearGradient id="x" x1="512.537" x2="545" y1="278.386" y2="278.386" gradientUnits="userSpaceOnUse">
            <stop stop-color="#5433FF"/>
            <stop offset=".5" stop-color="#20BDFF"/>
            <stop offset="1" stop-color="#A5FECB"/>
        </linearGradient>
    </defs>
</svg>
