<svg xmlns="http://www.w3.org/2000/svg" width="174" height="355" fill="none" viewBox="0 0 174 355">
    <path fill="url(#a)" d="M69 138c38.184 0 69-31.039 69-69 0-38.184-31.039-69-69-69C30.816 0 0 31.039 0 69s31.039 69 69 69zM69 4.243c35.728 0 64.534 29.029 64.534 64.534 0 35.728-29.029 64.534-64.534 64.534-35.728 0-64.534-29.029-64.534-64.534C4.466 33.272 33.496 4.243 69 4.243z"/>
    <path fill="url(#b)" d="M147.423 255.805a3.574 3.574 0 1 1 0-7.148 3.574 3.574 0 0 1 0 7.148z"/>
    <path fill="url(#c)" d="M130.001 248.656c-2.011 0-3.574 1.564-3.574 3.575s1.563 3.574 3.574 3.574c2.01 0 3.573-1.563 3.573-3.574s-1.786-3.575-3.573-3.575z"/>
    <path fill="url(#d)" d="M112.354 255.805a3.574 3.574 0 1 1 0-7.148 3.574 3.574 0 0 1 0 7.148z"/>
    <path fill="url(#e)" d="M94.931 255.805a3.574 3.574 0 1 1 0-7.148 3.574 3.574 0 0 1 0 7.148z"/>
    <path fill="url(#f)" d="M77.285 255.805a3.574 3.574 0 1 1 0-7.148 3.574 3.574 0 0 1 0 7.148z"/>
    <path fill="url(#g)" d="M59.862 255.805a3.574 3.574 0 1 1 0-7.148 3.574 3.574 0 0 1 0 7.148z"/>
    <path fill="url(#h)" d="M42.216 248.656c-2.01 0-3.574 1.564-3.574 3.575s1.564 3.574 3.574 3.574 3.574-1.563 3.574-3.574-1.563-3.575-3.574-3.575z"/>
    <path fill="url(#i)" d="M147.423 269.88a3.574 3.574 0 1 1 0-7.148 3.574 3.574 0 0 1 0 7.148z"/>
    <path fill="url(#j)" d="M130.001 262.731c-2.011 0-3.574 1.564-3.574 3.575s1.563 3.574 3.574 3.574c2.01 0 3.573-1.563 3.573-3.574s-1.786-3.575-3.573-3.575z"/>
    <path fill="url(#k)" d="M112.354 269.88a3.574 3.574 0 1 1 0-7.148 3.574 3.574 0 0 1 0 7.148z"/>
    <path fill="url(#l)" d="M94.932 269.88a3.574 3.574 0 1 1 0-7.148 3.574 3.574 0 0 1 0 7.148z"/>
    <path fill="url(#m)" d="M77.285 269.88a3.574 3.574 0 1 1 0-7.148 3.574 3.574 0 0 1 0 7.148z"/>
    <path fill="url(#n)" d="M59.862 269.88a3.574 3.574 0 1 1 0-7.148 3.574 3.574 0 0 1 0 7.148z"/>
    <path fill="url(#o)" d="M42.216 262.731c-2.01 0-3.574 1.564-3.574 3.575s1.564 3.574 3.574 3.574 3.574-1.563 3.574-3.574-1.563-3.575-3.574-3.575z"/>
    <path fill="url(#p)" d="M147.423 284.179a3.575 3.575 0 1 1 .001-7.15 3.575 3.575 0 0 1-.001 7.15z"/>
    <path fill="url(#q)" d="M130.001 277.03c-2.011 0-3.574 1.563-3.574 3.574s1.563 3.575 3.574 3.575c2.01 0 3.573-1.564 3.573-3.575s-1.786-3.574-3.573-3.574z"/>
    <path fill="url(#r)" d="M112.354 284.179a3.575 3.575 0 1 1 .001-7.15 3.575 3.575 0 0 1-.001 7.15z"/>
    <path fill="url(#s)" d="M94.932 284.179a3.575 3.575 0 1 1 .001-7.15 3.575 3.575 0 0 1-.001 7.15z"/>
    <path fill="url(#t)" d="M77.285 284.179a3.575 3.575 0 1 1 .002-7.15 3.575 3.575 0 0 1-.002 7.15z"/>
    <path fill="url(#u)" d="M59.862 284.179a3.575 3.575 0 1 1 .002-7.15 3.575 3.575 0 0 1-.002 7.15z"/>
    <path fill="url(#v)" d="M42.216 277.03c-2.01 0-3.574 1.563-3.574 3.574s1.564 3.575 3.574 3.575 3.574-1.564 3.574-3.575-1.563-3.574-3.574-3.574z"/>
    <path fill="url(#w)" d="M147.423 298.254a3.575 3.575 0 1 1 .001-7.15 3.575 3.575 0 0 1-.001 7.15z"/>
    <path fill="url(#x)" d="M130.001 291.104c-2.011 0-3.574 1.564-3.574 3.575s1.563 3.575 3.574 3.575c2.01 0 3.573-1.564 3.573-3.575s-1.786-3.575-3.573-3.575z"/>
    <path fill="url(#y)" d="M112.354 298.254a3.575 3.575 0 1 1 .001-7.15 3.575 3.575 0 0 1-.001 7.15z"/>
    <path fill="url(#z)" d="M94.932 298.254a3.575 3.575 0 1 1 .001-7.15 3.575 3.575 0 0 1-.001 7.15z"/>
    <path fill="url(#A)" d="M77.285 298.254a3.575 3.575 0 1 1 .002-7.15 3.575 3.575 0 0 1-.002 7.15z"/>
    <path fill="url(#B)" d="M59.862 298.254a3.575 3.575 0 1 1 .002-7.15 3.575 3.575 0 0 1-.002 7.15z"/>
    <path fill="url(#C)" d="M42.216 291.104c-2.01 0-3.574 1.564-3.574 3.575s1.564 3.575 3.574 3.575 3.574-1.564 3.574-3.575-1.563-3.575-3.574-3.575z"/>
    <path fill="url(#D)" d="M147.423 312.328a3.574 3.574 0 1 1 0-7.148 3.574 3.574 0 0 1 0 7.148z"/>
    <path fill="url(#E)" d="M130.001 305.179c-2.011 0-3.574 1.564-3.574 3.575 0 2.01 1.563 3.574 3.574 3.574 2.01 0 3.573-1.564 3.573-3.574 0-1.787-1.786-3.575-3.573-3.575z"/>
    <path fill="url(#F)" d="M112.354 312.328a3.574 3.574 0 1 1 0-7.148 3.574 3.574 0 0 1 0 7.148z"/>
    <path fill="url(#G)" d="M94.932 312.328a3.574 3.574 0 1 1 0-7.148 3.574 3.574 0 0 1 0 7.148z"/>
    <path fill="url(#H)" d="M77.285 312.328a3.574 3.574 0 1 1 0-7.148 3.574 3.574 0 0 1 0 7.148z"/>
    <path fill="url(#I)" d="M59.862 312.328a3.574 3.574 0 1 1 0-7.148 3.574 3.574 0 0 1 0 7.148z"/>
    <path fill="url(#J)" d="M42.216 305.179c-2.01 0-3.574 1.564-3.574 3.575 0 2.01 1.564 3.574 3.574 3.574s3.574-1.564 3.574-3.574c0-1.787-1.563-3.575-3.574-3.575z"/>
    <path fill="url(#K)" d="M147.423 326.627a3.575 3.575 0 1 1 .001-7.15 3.575 3.575 0 0 1-.001 7.15z"/>
    <path fill="url(#L)" d="M130.001 319.478c-2.011 0-3.574 1.563-3.574 3.574s1.563 3.575 3.574 3.575c2.01 0 3.573-1.564 3.573-3.575s-1.786-3.574-3.573-3.574z"/>
    <path fill="url(#M)" d="M112.354 326.627a3.575 3.575 0 1 1 .001-7.15 3.575 3.575 0 0 1-.001 7.15z"/>
    <path fill="url(#N)" d="M94.932 326.627a3.575 3.575 0 1 1 .001-7.15 3.575 3.575 0 0 1-.001 7.15z"/>
    <path fill="url(#O)" d="M77.285 326.627a3.575 3.575 0 1 1 .002-7.15 3.575 3.575 0 0 1-.002 7.15z"/>
    <path fill="url(#P)" d="M59.862 326.627a3.575 3.575 0 1 1 .002-7.15 3.575 3.575 0 0 1-.002 7.15z"/>
    <path fill="url(#Q)" d="M42.216 319.478c-2.01 0-3.574 1.563-3.574 3.574s1.564 3.575 3.574 3.575 3.574-1.564 3.574-3.575-1.563-3.574-3.574-3.574z"/>
    <path fill="url(#R)" d="M147.423 340.702a3.575 3.575 0 1 1 .001-7.15 3.575 3.575 0 0 1-.001 7.15z"/>
    <path fill="url(#S)" d="M130.001 333.553c-2.011 0-3.574 1.564-3.574 3.574 0 2.011 1.563 3.575 3.574 3.575 2.01 0 3.573-1.564 3.573-3.575 0-2.01-1.786-3.574-3.573-3.574z"/>
    <path fill="url(#T)" d="M112.354 340.702a3.575 3.575 0 1 1 .001-7.15 3.575 3.575 0 0 1-.001 7.15z"/>
    <path fill="url(#U)" d="M94.932 340.702a3.575 3.575 0 1 1 .001-7.15 3.575 3.575 0 0 1-.001 7.15z"/>
    <path fill="url(#V)" d="M77.285 340.702a3.575 3.575 0 1 1 .002-7.15 3.575 3.575 0 0 1-.002 7.15z"/>
    <path fill="url(#W)" d="M59.862 340.702a3.575 3.575 0 1 1 .002-7.15 3.575 3.575 0 0 1-.002 7.15z"/>
    <path fill="url(#X)" d="M42.216 333.553c-2.01 0-3.574 1.564-3.574 3.574 0 2.011 1.564 3.575 3.574 3.575s3.574-1.564 3.574-3.575c0-2.01-1.563-3.574-3.574-3.574z"/>
    <path fill="url(#Y)" d="M147.423 347.851c-2.011 0-3.574 1.563-3.574 3.574s1.563 3.575 3.574 3.575c2.01 0 3.574-1.564 3.574-3.575s-1.564-3.574-3.574-3.574z"/>
    <path fill="url(#Z)" d="M130.001 347.851c-2.011 0-3.574 1.563-3.574 3.574S127.99 355 130.001 355c2.01 0 3.573-1.564 3.573-3.575s-1.786-3.574-3.573-3.574z"/>
    <path fill="url(#aa)" d="M112.354 347.851c-2.01 0-3.574 1.563-3.574 3.574s1.564 3.575 3.574 3.575 3.574-1.564 3.574-3.575-1.564-3.574-3.574-3.574z"/>
    <path fill="url(#ab)" d="M94.932 347.851c-2.01 0-3.574 1.563-3.574 3.574S92.92 355 94.932 355c2.01 0 3.574-1.564 3.574-3.575s-1.564-3.574-3.574-3.574z"/>
    <path fill="url(#ac)" d="M77.285 347.851c-2.01 0-3.574 1.563-3.574 3.574S75.275 355 77.285 355s3.574-1.564 3.574-3.575-1.563-3.574-3.574-3.574z"/>
    <path fill="url(#ad)" d="M59.862 347.851c-2.01 0-3.574 1.563-3.574 3.574S57.852 355 59.862 355s3.574-1.564 3.574-3.575-1.564-3.574-3.574-3.574z"/>
    <path fill="url(#ae)" d="M42.216 347.851c-2.01 0-3.574 1.563-3.574 3.574S40.206 355 42.216 355s3.574-1.564 3.574-3.575-1.563-3.574-3.574-3.574z"/>
    <path fill="url(#af)" d="M136 169.071l6.071-6.071 13.041 12.817L167.929 163l6.071 6.071-12.817 12.817L174 194.704 167.929 201l-12.817-13.041L142.071 201 136 194.704l12.817-12.816L136 169.071z"/>
    <defs>
        <radialGradient id="a" cx="0" cy="0" r="1" gradientTransform="rotate(180 46.496 -24.078) scale(367.864)" gradientUnits="userSpaceOnUse">
            <stop stop-color="#E600FF"/>
            <stop offset=".354" stop-color="#F0579A"/>
            <stop offset=".67" stop-color="#F89F47"/>
            <stop offset=".892" stop-color="#FDCC14"/>
            <stop offset="1" stop-color="#FD0"/>
        </radialGradient>
        <radialGradient id="b" cx="0" cy="0" r="1" gradientTransform="matrix(0 -209.035 208.993 0 192.187 325.45)" gradientUnits="userSpaceOnUse">
            <stop stop-color="#00FFAE"/>
            <stop offset=".354" stop-color="#009ACE"/>
            <stop offset=".67" stop-color="#0047E8"/>
            <stop offset=".892" stop-color="#0014F9"/>
            <stop offset="1" stop-color="#00F"/>
        </radialGradient>
        <radialGradient id="c" cx="0" cy="0" r="1" gradientTransform="matrix(0 -209.038 208.996 0 192.19 325.45)" gradientUnits="userSpaceOnUse">
            <stop stop-color="#00FFAE"/>
            <stop offset=".354" stop-color="#009ACE"/>
            <stop offset=".67" stop-color="#0047E8"/>
            <stop offset=".892" stop-color="#0014F9"/>
            <stop offset="1" stop-color="#00F"/>
        </radialGradient>
        <radialGradient id="d" cx="0" cy="0" r="1" gradientTransform="matrix(0 -209.035 208.99 0 192.186 325.45)" gradientUnits="userSpaceOnUse">
            <stop stop-color="#00FFAE"/>
            <stop offset=".354" stop-color="#009ACE"/>
            <stop offset=".67" stop-color="#0047E8"/>
            <stop offset=".892" stop-color="#0014F9"/>
            <stop offset="1" stop-color="#00F"/>
        </radialGradient>
        <radialGradient id="e" cx="0" cy="0" r="1" gradientTransform="matrix(0 -209.034 208.994 0 192.187 325.45)" gradientUnits="userSpaceOnUse">
            <stop stop-color="#00FFAE"/>
            <stop offset=".354" stop-color="#009ACE"/>
            <stop offset=".67" stop-color="#0047E8"/>
            <stop offset=".892" stop-color="#0014F9"/>
            <stop offset="1" stop-color="#00F"/>
        </radialGradient>
        <radialGradient id="f" cx="0" cy="0" r="1" gradientTransform="matrix(0 -209.034 208.991 0 192.186 325.45)" gradientUnits="userSpaceOnUse">
            <stop stop-color="#00FFAE"/>
            <stop offset=".354" stop-color="#009ACE"/>
            <stop offset=".67" stop-color="#0047E8"/>
            <stop offset=".892" stop-color="#0014F9"/>
            <stop offset="1" stop-color="#00F"/>
        </radialGradient>
        <radialGradient id="g" cx="0" cy="0" r="1" gradientTransform="matrix(0 -209.036 208.993 0 192.186 325.45)" gradientUnits="userSpaceOnUse">
            <stop stop-color="#00FFAE"/>
            <stop offset=".354" stop-color="#009ACE"/>
            <stop offset=".67" stop-color="#0047E8"/>
            <stop offset=".892" stop-color="#0014F9"/>
            <stop offset="1" stop-color="#00F"/>
        </radialGradient>
        <radialGradient id="h" cx="0" cy="0" r="1" gradientTransform="matrix(0 -209.041 209.002 0 192.194 325.45)" gradientUnits="userSpaceOnUse">
            <stop stop-color="#00FFAE"/>
            <stop offset=".354" stop-color="#009ACE"/>
            <stop offset=".67" stop-color="#0047E8"/>
            <stop offset=".892" stop-color="#0014F9"/>
            <stop offset="1" stop-color="#00F"/>
        </radialGradient>
        <radialGradient id="i" cx="0" cy="0" r="1" gradientTransform="matrix(0 -209.035 208.993 0 192.187 325.45)" gradientUnits="userSpaceOnUse">
            <stop stop-color="#00FFAE"/>
            <stop offset=".354" stop-color="#009ACE"/>
            <stop offset=".67" stop-color="#0047E8"/>
            <stop offset=".892" stop-color="#0014F9"/>
            <stop offset="1" stop-color="#00F"/>
        </radialGradient>
        <radialGradient id="j" cx="0" cy="0" r="1" gradientTransform="matrix(0 -209.038 208.997 0 192.19 325.45)" gradientUnits="userSpaceOnUse">
            <stop stop-color="#00FFAE"/>
            <stop offset=".354" stop-color="#009ACE"/>
            <stop offset=".67" stop-color="#0047E8"/>
            <stop offset=".892" stop-color="#0014F9"/>
            <stop offset="1" stop-color="#00F"/>
        </radialGradient>
        <radialGradient id="k" cx="0" cy="0" r="1" gradientTransform="matrix(0 -209.034 208.99 0 192.186 325.45)" gradientUnits="userSpaceOnUse">
            <stop stop-color="#00FFAE"/>
            <stop offset=".354" stop-color="#009ACE"/>
            <stop offset=".67" stop-color="#0047E8"/>
            <stop offset=".892" stop-color="#0014F9"/>
            <stop offset="1" stop-color="#00F"/>
        </radialGradient>
        <radialGradient id="l" cx="0" cy="0" r="1" gradientTransform="matrix(0 -209.035 208.995 0 192.188 325.45)" gradientUnits="userSpaceOnUse">
            <stop stop-color="#00FFAE"/>
            <stop offset=".354" stop-color="#009ACE"/>
            <stop offset=".67" stop-color="#0047E8"/>
            <stop offset=".892" stop-color="#0014F9"/>
            <stop offset="1" stop-color="#00F"/>
        </radialGradient>
        <radialGradient id="m" cx="0" cy="0" r="1" gradientTransform="matrix(0 -209.034 208.991 0 192.186 325.45)" gradientUnits="userSpaceOnUse">
            <stop stop-color="#00FFAE"/>
            <stop offset=".354" stop-color="#009ACE"/>
            <stop offset=".67" stop-color="#0047E8"/>
            <stop offset=".892" stop-color="#0014F9"/>
            <stop offset="1" stop-color="#00F"/>
        </radialGradient>
        <radialGradient id="n" cx="0" cy="0" r="1" gradientTransform="matrix(0 -209.035 208.992 0 192.186 325.45)" gradientUnits="userSpaceOnUse">
            <stop stop-color="#00FFAE"/>
            <stop offset=".354" stop-color="#009ACE"/>
            <stop offset=".67" stop-color="#0047E8"/>
            <stop offset=".892" stop-color="#0014F9"/>
            <stop offset="1" stop-color="#00F"/>
        </radialGradient>
        <radialGradient id="o" cx="0" cy="0" r="1" gradientTransform="matrix(0 -209.041 209.003 0 192.194 325.45)" gradientUnits="userSpaceOnUse">
            <stop stop-color="#00FFAE"/>
            <stop offset=".354" stop-color="#009ACE"/>
            <stop offset=".67" stop-color="#0047E8"/>
            <stop offset=".892" stop-color="#0014F9"/>
            <stop offset="1" stop-color="#00F"/>
        </radialGradient>
        <radialGradient id="p" cx="0" cy="0" r="1" gradientTransform="matrix(0 -209.032 208.994 0 192.187 325.449)" gradientUnits="userSpaceOnUse">
            <stop stop-color="#00FFAE"/>
            <stop offset=".354" stop-color="#009ACE"/>
            <stop offset=".67" stop-color="#0047E8"/>
            <stop offset=".892" stop-color="#0014F9"/>
            <stop offset="1" stop-color="#00F"/>
        </radialGradient>
        <radialGradient id="q" cx="0" cy="0" r="1" gradientTransform="matrix(0 -209.036 208.998 0 192.19 325.449)" gradientUnits="userSpaceOnUse">
            <stop stop-color="#00FFAE"/>
            <stop offset=".354" stop-color="#009ACE"/>
            <stop offset=".67" stop-color="#0047E8"/>
            <stop offset=".892" stop-color="#0014F9"/>
            <stop offset="1" stop-color="#00F"/>
        </radialGradient>
        <radialGradient id="r" cx="0" cy="0" r="1" gradientTransform="matrix(0 -209.031 208.99 0 192.186 325.449)" gradientUnits="userSpaceOnUse">
            <stop stop-color="#00FFAE"/>
            <stop offset=".354" stop-color="#009ACE"/>
            <stop offset=".67" stop-color="#0047E8"/>
            <stop offset=".892" stop-color="#0014F9"/>
            <stop offset="1" stop-color="#00F"/>
        </radialGradient>
        <radialGradient id="s" cx="0" cy="0" r="1" gradientTransform="matrix(0 -209.032 208.995 0 192.188 325.449)" gradientUnits="userSpaceOnUse">
            <stop stop-color="#00FFAE"/>
            <stop offset=".354" stop-color="#009ACE"/>
            <stop offset=".67" stop-color="#0047E8"/>
            <stop offset=".892" stop-color="#0014F9"/>
            <stop offset="1" stop-color="#00F"/>
        </radialGradient>
        <radialGradient id="t" cx="0" cy="0" r="1" gradientTransform="matrix(0 -209.031 208.991 0 192.186 325.449)" gradientUnits="userSpaceOnUse">
            <stop stop-color="#00FFAE"/>
            <stop offset=".354" stop-color="#009ACE"/>
            <stop offset=".67" stop-color="#0047E8"/>
            <stop offset=".892" stop-color="#0014F9"/>
            <stop offset="1" stop-color="#00F"/>
        </radialGradient>
        <radialGradient id="u" cx="0" cy="0" r="1" gradientTransform="matrix(0 -209.032 208.992 0 192.186 325.449)" gradientUnits="userSpaceOnUse">
            <stop stop-color="#00FFAE"/>
            <stop offset=".354" stop-color="#009ACE"/>
            <stop offset=".67" stop-color="#0047E8"/>
            <stop offset=".892" stop-color="#0014F9"/>
            <stop offset="1" stop-color="#00F"/>
        </radialGradient>
        <radialGradient id="v" cx="0" cy="0" r="1" gradientTransform="matrix(0 -209.038 209.003 0 192.194 325.449)" gradientUnits="userSpaceOnUse">
            <stop stop-color="#00FFAE"/>
            <stop offset=".354" stop-color="#009ACE"/>
            <stop offset=".67" stop-color="#0047E8"/>
            <stop offset=".892" stop-color="#0014F9"/>
            <stop offset="1" stop-color="#00F"/>
        </radialGradient>
        <radialGradient id="w" cx="0" cy="0" r="1" gradientTransform="matrix(0 -209.034 208.994 0 192.187 325.45)" gradientUnits="userSpaceOnUse">
            <stop stop-color="#00FFAE"/>
            <stop offset=".354" stop-color="#009ACE"/>
            <stop offset=".67" stop-color="#0047E8"/>
            <stop offset=".892" stop-color="#0014F9"/>
            <stop offset="1" stop-color="#00F"/>
        </radialGradient>
        <radialGradient id="x" cx="0" cy="0" r="1" gradientTransform="matrix(0 -209.039 208.999 0 192.19 325.45)" gradientUnits="userSpaceOnUse">
            <stop stop-color="#00FFAE"/>
            <stop offset=".354" stop-color="#009ACE"/>
            <stop offset=".67" stop-color="#0047E8"/>
            <stop offset=".892" stop-color="#0014F9"/>
            <stop offset="1" stop-color="#00F"/>
        </radialGradient>
        <radialGradient id="y" cx="0" cy="0" r="1" gradientTransform="matrix(0 -209.033 208.99 0 192.186 325.45)" gradientUnits="userSpaceOnUse">
            <stop stop-color="#00FFAE"/>
            <stop offset=".354" stop-color="#009ACE"/>
            <stop offset=".67" stop-color="#0047E8"/>
            <stop offset=".892" stop-color="#0014F9"/>
            <stop offset="1" stop-color="#00F"/>
        </radialGradient>
        <radialGradient id="z" cx="0" cy="0" r="1" gradientTransform="matrix(0 -209.033 208.995 0 192.188 325.45)" gradientUnits="userSpaceOnUse">
            <stop stop-color="#00FFAE"/>
            <stop offset=".354" stop-color="#009ACE"/>
            <stop offset=".67" stop-color="#0047E8"/>
            <stop offset=".892" stop-color="#0014F9"/>
            <stop offset="1" stop-color="#00F"/>
        </radialGradient>
        <radialGradient id="A" cx="0" cy="0" r="1" gradientTransform="matrix(0 -209.032 208.991 0 192.186 325.45)" gradientUnits="userSpaceOnUse">
            <stop stop-color="#00FFAE"/>
            <stop offset=".354" stop-color="#009ACE"/>
            <stop offset=".67" stop-color="#0047E8"/>
            <stop offset=".892" stop-color="#0014F9"/>
            <stop offset="1" stop-color="#00F"/>
        </radialGradient>
        <radialGradient id="B" cx="0" cy="0" r="1" gradientTransform="matrix(0 -209.034 208.993 0 192.186 325.45)" gradientUnits="userSpaceOnUse">
            <stop stop-color="#00FFAE"/>
            <stop offset=".354" stop-color="#009ACE"/>
            <stop offset=".67" stop-color="#0047E8"/>
            <stop offset=".892" stop-color="#0014F9"/>
            <stop offset="1" stop-color="#00F"/>
        </radialGradient>
        <radialGradient id="C" cx="0" cy="0" r="1" gradientTransform="matrix(0 -209.04 209.003 0 192.194 325.45)" gradientUnits="userSpaceOnUse">
            <stop stop-color="#00FFAE"/>
            <stop offset=".354" stop-color="#009ACE"/>
            <stop offset=".67" stop-color="#0047E8"/>
            <stop offset=".892" stop-color="#0014F9"/>
            <stop offset="1" stop-color="#00F"/>
        </radialGradient>
        <radialGradient id="D" cx="0" cy="0" r="1" gradientTransform="matrix(0 -209.034 208.994 0 192.187 325.45)" gradientUnits="userSpaceOnUse">
            <stop stop-color="#00FFAE"/>
            <stop offset=".354" stop-color="#009ACE"/>
            <stop offset=".67" stop-color="#0047E8"/>
            <stop offset=".892" stop-color="#0014F9"/>
            <stop offset="1" stop-color="#00F"/>
        </radialGradient>
        <radialGradient id="E" cx="0" cy="0" r="1" gradientTransform="matrix(0 -209.039 208.999 0 192.19 325.45)" gradientUnits="userSpaceOnUse">
            <stop stop-color="#00FFAE"/>
            <stop offset=".354" stop-color="#009ACE"/>
            <stop offset=".67" stop-color="#0047E8"/>
            <stop offset=".892" stop-color="#0014F9"/>
            <stop offset="1" stop-color="#00F"/>
        </radialGradient>
        <radialGradient id="F" cx="0" cy="0" r="1" gradientTransform="matrix(0 -209.033 208.99 0 192.186 325.45)" gradientUnits="userSpaceOnUse">
            <stop stop-color="#00FFAE"/>
            <stop offset=".354" stop-color="#009ACE"/>
            <stop offset=".67" stop-color="#0047E8"/>
            <stop offset=".892" stop-color="#0014F9"/>
            <stop offset="1" stop-color="#00F"/>
        </radialGradient>
        <radialGradient id="G" cx="0" cy="0" r="1" gradientTransform="matrix(0 -209.033 208.994 0 192.188 325.45)" gradientUnits="userSpaceOnUse">
            <stop stop-color="#00FFAE"/>
            <stop offset=".354" stop-color="#009ACE"/>
            <stop offset=".67" stop-color="#0047E8"/>
            <stop offset=".892" stop-color="#0014F9"/>
            <stop offset="1" stop-color="#00F"/>
        </radialGradient>
        <radialGradient id="H" cx="0" cy="0" r="1" gradientTransform="matrix(0 -209.033 208.991 0 192.186 325.45)" gradientUnits="userSpaceOnUse">
            <stop stop-color="#00FFAE"/>
            <stop offset=".354" stop-color="#009ACE"/>
            <stop offset=".67" stop-color="#0047E8"/>
            <stop offset=".892" stop-color="#0014F9"/>
            <stop offset="1" stop-color="#00F"/>
        </radialGradient>
        <radialGradient id="I" cx="0" cy="0" r="1" gradientTransform="matrix(0 -209.034 208.993 0 192.186 325.45)" gradientUnits="userSpaceOnUse">
            <stop stop-color="#00FFAE"/>
            <stop offset=".354" stop-color="#009ACE"/>
            <stop offset=".67" stop-color="#0047E8"/>
            <stop offset=".892" stop-color="#0014F9"/>
            <stop offset="1" stop-color="#00F"/>
        </radialGradient>
        <radialGradient id="J" cx="0" cy="0" r="1" gradientTransform="matrix(0 -209.04 209.003 0 192.194 325.45)" gradientUnits="userSpaceOnUse">
            <stop stop-color="#00FFAE"/>
            <stop offset=".354" stop-color="#009ACE"/>
            <stop offset=".67" stop-color="#0047E8"/>
            <stop offset=".892" stop-color="#0014F9"/>
            <stop offset="1" stop-color="#00F"/>
        </radialGradient>
        <radialGradient id="K" cx="0" cy="0" r="1" gradientTransform="matrix(0 -209.033 208.993 0 192.187 325.45)" gradientUnits="userSpaceOnUse">
            <stop stop-color="#00FFAE"/>
            <stop offset=".354" stop-color="#009ACE"/>
            <stop offset=".67" stop-color="#0047E8"/>
            <stop offset=".892" stop-color="#0014F9"/>
            <stop offset="1" stop-color="#00F"/>
        </radialGradient>
        <radialGradient id="L" cx="0" cy="0" r="1" gradientTransform="matrix(0 -209.04 209 0 192.19 325.45)" gradientUnits="userSpaceOnUse">
            <stop stop-color="#00FFAE"/>
            <stop offset=".354" stop-color="#009ACE"/>
            <stop offset=".67" stop-color="#0047E8"/>
            <stop offset=".892" stop-color="#0014F9"/>
            <stop offset="1" stop-color="#00F"/>
        </radialGradient>
        <radialGradient id="M" cx="0" cy="0" r="1" gradientTransform="matrix(0 -209.032 208.989 0 192.186 325.45)" gradientUnits="userSpaceOnUse">
            <stop stop-color="#00FFAE"/>
            <stop offset=".354" stop-color="#009ACE"/>
            <stop offset=".67" stop-color="#0047E8"/>
            <stop offset=".892" stop-color="#0014F9"/>
            <stop offset="1" stop-color="#00F"/>
        </radialGradient>
        <radialGradient id="N" cx="0" cy="0" r="1" gradientTransform="matrix(0 -209.033 208.995 0 192.188 325.45)" gradientUnits="userSpaceOnUse">
            <stop stop-color="#00FFAE"/>
            <stop offset=".354" stop-color="#009ACE"/>
            <stop offset=".67" stop-color="#0047E8"/>
            <stop offset=".892" stop-color="#0014F9"/>
            <stop offset="1" stop-color="#00F"/>
        </radialGradient>
        <radialGradient id="O" cx="0" cy="0" r="1" gradientTransform="matrix(0 -209.033 208.992 0 192.186 325.45)" gradientUnits="userSpaceOnUse">
            <stop stop-color="#00FFAE"/>
            <stop offset=".354" stop-color="#009ACE"/>
            <stop offset=".67" stop-color="#0047E8"/>
            <stop offset=".892" stop-color="#0014F9"/>
            <stop offset="1" stop-color="#00F"/>
        </radialGradient>
        <radialGradient id="P" cx="0" cy="0" r="1" gradientTransform="matrix(0 -209.034 208.992 0 192.186 325.45)" gradientUnits="userSpaceOnUse">
            <stop stop-color="#00FFAE"/>
            <stop offset=".354" stop-color="#009ACE"/>
            <stop offset=".67" stop-color="#0047E8"/>
            <stop offset=".892" stop-color="#0014F9"/>
            <stop offset="1" stop-color="#00F"/>
        </radialGradient>
        <radialGradient id="Q" cx="0" cy="0" r="1" gradientTransform="matrix(0 -209.04 209.003 0 192.194 325.45)" gradientUnits="userSpaceOnUse">
            <stop stop-color="#00FFAE"/>
            <stop offset=".354" stop-color="#009ACE"/>
            <stop offset=".67" stop-color="#0047E8"/>
            <stop offset=".892" stop-color="#0014F9"/>
            <stop offset="1" stop-color="#00F"/>
        </radialGradient>
        <radialGradient id="R" cx="0" cy="0" r="1" gradientTransform="matrix(0 -209.032 208.994 0 192.187 325.45)" gradientUnits="userSpaceOnUse">
            <stop stop-color="#00FFAE"/>
            <stop offset=".354" stop-color="#009ACE"/>
            <stop offset=".67" stop-color="#0047E8"/>
            <stop offset=".892" stop-color="#0014F9"/>
            <stop offset="1" stop-color="#00F"/>
        </radialGradient>
        <radialGradient id="S" cx="0" cy="0" r="1" gradientTransform="matrix(0 -209.038 209 0 192.19 325.45)" gradientUnits="userSpaceOnUse">
            <stop stop-color="#00FFAE"/>
            <stop offset=".354" stop-color="#009ACE"/>
            <stop offset=".67" stop-color="#0047E8"/>
            <stop offset=".892" stop-color="#0014F9"/>
            <stop offset="1" stop-color="#00F"/>
        </radialGradient>
        <radialGradient id="T" cx="0" cy="0" r="1" gradientTransform="matrix(0 -209.031 208.99 0 192.186 325.45)" gradientUnits="userSpaceOnUse">
            <stop stop-color="#00FFAE"/>
            <stop offset=".354" stop-color="#009ACE"/>
            <stop offset=".67" stop-color="#0047E8"/>
            <stop offset=".892" stop-color="#0014F9"/>
            <stop offset="1" stop-color="#00F"/>
        </radialGradient>
        <radialGradient id="U" cx="0" cy="0" r="1" gradientTransform="matrix(0 -209.031 208.994 0 192.188 325.45)" gradientUnits="userSpaceOnUse">
            <stop stop-color="#00FFAE"/>
            <stop offset=".354" stop-color="#009ACE"/>
            <stop offset=".67" stop-color="#0047E8"/>
            <stop offset=".892" stop-color="#0014F9"/>
            <stop offset="1" stop-color="#00F"/>
        </radialGradient>
        <radialGradient id="V" cx="0" cy="0" r="1" gradientTransform="matrix(0 -209.031 208.991 0 192.186 325.45)" gradientUnits="userSpaceOnUse">
            <stop stop-color="#00FFAE"/>
            <stop offset=".354" stop-color="#009ACE"/>
            <stop offset=".67" stop-color="#0047E8"/>
            <stop offset=".892" stop-color="#0014F9"/>
            <stop offset="1" stop-color="#00F"/>
        </radialGradient>
        <radialGradient id="W" cx="0" cy="0" r="1" gradientTransform="matrix(0 -209.033 208.993 0 192.186 325.45)" gradientUnits="userSpaceOnUse">
            <stop stop-color="#00FFAE"/>
            <stop offset=".354" stop-color="#009ACE"/>
            <stop offset=".67" stop-color="#0047E8"/>
            <stop offset=".892" stop-color="#0014F9"/>
            <stop offset="1" stop-color="#00F"/>
        </radialGradient>
        <radialGradient id="X" cx="0" cy="0" r="1" gradientTransform="matrix(0 -209.039 209.003 0 192.194 325.45)" gradientUnits="userSpaceOnUse">
            <stop stop-color="#00FFAE"/>
            <stop offset=".354" stop-color="#009ACE"/>
            <stop offset=".67" stop-color="#0047E8"/>
            <stop offset=".892" stop-color="#0014F9"/>
            <stop offset="1" stop-color="#00F"/>
        </radialGradient>
        <radialGradient id="Y" cx="0" cy="0" r="1" gradientTransform="matrix(0 -209.036 208.995 0 192.187 325.449)" gradientUnits="userSpaceOnUse">
            <stop stop-color="#00FFAE"/>
            <stop offset=".354" stop-color="#009ACE"/>
            <stop offset=".67" stop-color="#0047E8"/>
            <stop offset=".892" stop-color="#0014F9"/>
            <stop offset="1" stop-color="#00F"/>
        </radialGradient>
        <radialGradient id="Z" cx="0" cy="0" r="1" gradientTransform="matrix(0 -209.042 209 0 192.19 325.449)" gradientUnits="userSpaceOnUse">
            <stop stop-color="#00FFAE"/>
            <stop offset=".354" stop-color="#009ACE"/>
            <stop offset=".67" stop-color="#0047E8"/>
            <stop offset=".892" stop-color="#0014F9"/>
            <stop offset="1" stop-color="#00F"/>
        </radialGradient>
        <radialGradient id="aa" cx="0" cy="0" r="1" gradientTransform="matrix(0 -209.034 208.99 0 192.186 325.449)" gradientUnits="userSpaceOnUse">
            <stop stop-color="#00FFAE"/>
            <stop offset=".354" stop-color="#009ACE"/>
            <stop offset=".67" stop-color="#0047E8"/>
            <stop offset=".892" stop-color="#0014F9"/>
            <stop offset="1" stop-color="#00F"/>
        </radialGradient>
        <radialGradient id="ab" cx="0" cy="0" r="1" gradientTransform="matrix(0 -209.034 208.994 0 192.188 325.449)" gradientUnits="userSpaceOnUse">
            <stop stop-color="#00FFAE"/>
            <stop offset=".354" stop-color="#009ACE"/>
            <stop offset=".67" stop-color="#0047E8"/>
            <stop offset=".892" stop-color="#0014F9"/>
            <stop offset="1" stop-color="#00F"/>
        </radialGradient>
        <radialGradient id="ac" cx="0" cy="0" r="1" gradientTransform="matrix(0 -209.034 208.991 0 192.186 325.449)" gradientUnits="userSpaceOnUse">
            <stop stop-color="#00FFAE"/>
            <stop offset=".354" stop-color="#009ACE"/>
            <stop offset=".67" stop-color="#0047E8"/>
            <stop offset=".892" stop-color="#0014F9"/>
            <stop offset="1" stop-color="#00F"/>
        </radialGradient>
        <radialGradient id="ad" cx="0" cy="0" r="1" gradientTransform="matrix(0 -209.036 208.993 0 192.186 325.449)" gradientUnits="userSpaceOnUse">
            <stop stop-color="#00FFAE"/>
            <stop offset=".354" stop-color="#009ACE"/>
            <stop offset=".67" stop-color="#0047E8"/>
            <stop offset=".892" stop-color="#0014F9"/>
            <stop offset="1" stop-color="#00F"/>
        </radialGradient>
        <radialGradient id="ae" cx="0" cy="0" r="1" gradientTransform="matrix(0 -209.042 209.003 0 192.194 325.449)" gradientUnits="userSpaceOnUse">
            <stop stop-color="#00FFAE"/>
            <stop offset=".354" stop-color="#009ACE"/>
            <stop offset=".67" stop-color="#0047E8"/>
            <stop offset=".892" stop-color="#0014F9"/>
            <stop offset="1" stop-color="#00F"/>
        </radialGradient>
        <radialGradient id="af" cx="0" cy="0" r="1" gradientTransform="rotate(180 101.692 62.952) scale(122.914)" gradientUnits="userSpaceOnUse">
            <stop stop-color="#E600FF"/>
            <stop offset=".354" stop-color="#F0579A"/>
            <stop offset=".67" stop-color="#F89F47"/>
            <stop offset=".892" stop-color="#FDCC14"/>
            <stop offset="1" stop-color="#FD0"/>
        </radialGradient>
    </defs>
</svg>
