<svg xmlns="http://www.w3.org/2000/svg" width="425" height="539" fill="none" viewBox="0 0 425 539">
    <path fill="url(#a)" d="M195.99 148.98c106.85 0 193.956 87.123 193.956 193.994 0 107.161-87.106 193.993-193.956 193.993-107.14 0-193.957-87.123-193.957-193.993C1.743 235.813 88.85 148.98 195.99 148.98zm0 390.02c108.012 0 195.989-87.994 195.989-196.026 0-108.033-87.977-196.027-195.989-196.027S0 234.941 0 342.974C-.29 451.006 87.689 539 195.99 539z"/>
    <path fill="url(#b)" d="M195.99 162.339c99.882 0 181.472 81.315 181.472 181.506 0 99.901-81.3 181.506-181.472 181.506-99.882 0-181.471-81.315-181.471-181.506S95.818 162.339 195.99 162.339zm0 365.045c101.043 0 183.504-82.186 183.504-183.539 0-101.063-82.17-183.539-183.504-183.539-101.334 0-183.504 82.186-183.504 183.539 0 101.062 82.17 183.539 183.504 183.539z"/>
    <path fill="url(#c)" d="M195.989 175.988c92.914 0 168.696 75.797 168.696 168.728 0 92.931-75.782 168.728-168.696 168.728-92.913 0-168.696-75.797-168.696-168.728 0-92.931 75.492-168.728 168.696-168.728zm0 339.489c94.075 0 170.728-76.668 170.728-170.761 0-94.093-76.653-170.761-170.728-170.761S25.261 250.623 25.261 344.716c0 94.093 76.363 170.761 170.728 170.761z"/>
    <path fill="url(#d)" d="M195.989 189.347c85.945 0 155.921 69.989 155.921 155.95 0 85.961-69.976 155.95-155.921 155.95s-155.92-69.989-155.92-155.95c0-85.961 69.685-155.95 155.92-155.95zm0 314.223c87.107 0 158.243-70.86 158.243-158.273 0-87.123-70.846-158.273-158.243-158.273-87.106 0-158.243 70.86-158.243 158.273S108.593 503.57 195.99 503.57z"/>
    <path fill="url(#e)" d="M195.99 202.996c78.976 0 143.435 64.471 143.435 143.462 0 78.992-64.459 143.463-143.435 143.463S52.555 425.45 52.555 346.458c0-79.281 64.168-143.462 143.435-143.462zm0 288.667c80.138 0 145.467-65.342 145.467-145.495S276.128 200.673 195.99 200.673c-80.138 0-145.468 65.342-145.468 145.495 0 80.443 65.04 145.495 145.468 145.495z"/>
    <path fill="url(#f)" d="M195.99 216.355c72.008 0 130.659 58.663 130.659 130.684 0 72.022-58.651 130.685-130.659 130.685-72.008 0-130.66-58.663-130.66-130.685-.29-72.021 58.362-130.684 130.66-130.684zm0 263.692c73.169 0 132.692-59.534 132.692-132.717 0-73.183-59.523-132.717-132.692-132.717-73.169 0-132.692 59.534-132.692 132.717-.29 73.183 59.232 132.717 132.692 132.717z"/>
    <path fill="url(#g)" d="M195.989 230.004c65.04 0 118.175 52.855 118.175 118.197 0 65.342-52.845 118.197-118.175 118.197-65.039 0-118.174-52.855-118.174-118.197 0-65.342 52.845-118.197 118.174-118.197zm0 238.136c66.201 0 120.207-54.016 120.207-120.229 0-66.214-54.006-120.23-120.207-120.23-66.2 0-120.206 54.016-120.206 120.23 0 66.213 54.006 120.229 120.206 120.229z"/>
    <path fill="url(#h)" d="M195.99 243.363c58.07 0 105.398 47.337 105.398 105.419 0 58.082-47.328 105.418-105.398 105.418-58.071 0-105.399-47.336-105.399-105.418 0-58.082 47.328-105.419 105.399-105.419zm0 212.87c59.232 0 107.431-48.208 107.431-107.451 0-59.244-48.199-107.452-107.431-107.452-59.233 0-107.431 48.208-107.431 107.452 0 59.243 48.198 107.451 107.431 107.451z"/>
    <path fill="url(#i)" d="M195.99 257.012c51.102 0 92.623 41.529 92.623 92.641s-41.521 92.64-92.623 92.64c-51.103 0-92.623-41.528-92.623-92.64-.291-51.112 41.52-92.641 92.623-92.641zm0 187.605c52.264 0 94.655-42.4 94.655-94.674 0-52.273-42.391-94.673-94.655-94.673s-94.656 42.4-94.656 94.673c-.29 51.984 42.392 94.674 94.656 94.674z"/>
    <path fill="url(#j)" d="M195.989 270.371c44.134 0 80.138 36.011 80.138 80.153s-36.004 80.153-80.138 80.153c-44.134 0-80.138-36.011-80.138-80.153s36.004-80.153 80.138-80.153zm0 162.339c45.295 0 82.17-36.882 82.17-82.186 0-45.304-36.875-82.186-82.17-82.186s-82.17 36.882-82.17 82.186c0 45.304 36.875 82.186 82.17 82.186z"/>
    <path fill="url(#k)" d="M351.91 260.207c40.068 0 72.878-32.816 72.878-72.893 0-40.076-32.81-72.893-72.878-72.893-40.069 0-72.879 32.817-72.879 72.893 0 40.077 32.519 72.893 72.879 72.893zm0-141.139c37.455 0 68.233 30.493 68.233 68.246 0 37.463-30.487 68.246-68.233 68.246-37.456 0-68.234-30.493-68.234-68.246 0-37.463 30.488-68.246 68.234-68.246z"/>
    <path fill="url(#l)" d="M282.806 91.77L335.941 0h-106.27l53.135 91.77zm47.327-88.576L282.806 85.09 235.478 3.194h94.655z"/>
    <defs>
        <radialGradient id="a" cx="0" cy="0" r="1" gradientTransform="matrix(-739.178 0 0 -739.319 302.29 70.21)" gradientUnits="userSpaceOnUse">
            <stop stop-color="#00FFAE"/>
            <stop offset=".354" stop-color="#009ACE"/>
            <stop offset=".67" stop-color="#0047E8"/>
            <stop offset=".892" stop-color="#0014F9"/>
            <stop offset="1" stop-color="#00F"/>
        </radialGradient>
        <radialGradient id="b" cx="0" cy="0" r="1" gradientTransform="matrix(-739.178 0 0 -739.318 302.29 70.21)" gradientUnits="userSpaceOnUse">
            <stop stop-color="#00FFAE"/>
            <stop offset=".354" stop-color="#009ACE"/>
            <stop offset=".67" stop-color="#0047E8"/>
            <stop offset=".892" stop-color="#0014F9"/>
            <stop offset="1" stop-color="#00F"/>
        </radialGradient>
        <radialGradient id="c" cx="0" cy="0" r="1" gradientTransform="matrix(-739.178 0 0 -739.318 302.289 70.211)" gradientUnits="userSpaceOnUse">
            <stop stop-color="#00FFAE"/>
            <stop offset=".354" stop-color="#009ACE"/>
            <stop offset=".67" stop-color="#0047E8"/>
            <stop offset=".892" stop-color="#0014F9"/>
            <stop offset="1" stop-color="#00F"/>
        </radialGradient>
        <radialGradient id="d" cx="0" cy="0" r="1" gradientTransform="matrix(-739.177 0 0 -739.318 302.289 70.21)" gradientUnits="userSpaceOnUse">
            <stop stop-color="#00FFAE"/>
            <stop offset=".354" stop-color="#009ACE"/>
            <stop offset=".67" stop-color="#0047E8"/>
            <stop offset=".892" stop-color="#0014F9"/>
            <stop offset="1" stop-color="#00F"/>
        </radialGradient>
        <radialGradient id="e" cx="0" cy="0" r="1" gradientTransform="matrix(-739.177 0 0 -739.318 302.29 70.21)" gradientUnits="userSpaceOnUse">
            <stop stop-color="#00FFAE"/>
            <stop offset=".354" stop-color="#009ACE"/>
            <stop offset=".67" stop-color="#0047E8"/>
            <stop offset=".892" stop-color="#0014F9"/>
            <stop offset="1" stop-color="#00F"/>
        </radialGradient>
        <radialGradient id="f" cx="0" cy="0" r="1" gradientTransform="matrix(-739.179 0 0 -739.32 302.29 70.21)" gradientUnits="userSpaceOnUse">
            <stop stop-color="#00FFAE"/>
            <stop offset=".354" stop-color="#009ACE"/>
            <stop offset=".67" stop-color="#0047E8"/>
            <stop offset=".892" stop-color="#0014F9"/>
            <stop offset="1" stop-color="#00F"/>
        </radialGradient>
        <radialGradient id="g" cx="0" cy="0" r="1" gradientTransform="matrix(-739.177 0 0 -739.318 302.289 70.211)" gradientUnits="userSpaceOnUse">
            <stop stop-color="#00FFAE"/>
            <stop offset=".354" stop-color="#009ACE"/>
            <stop offset=".67" stop-color="#0047E8"/>
            <stop offset=".892" stop-color="#0014F9"/>
            <stop offset="1" stop-color="#00F"/>
        </radialGradient>
        <radialGradient id="h" cx="0" cy="0" r="1" gradientTransform="matrix(-739.178 0 0 -739.318 302.289 70.21)" gradientUnits="userSpaceOnUse">
            <stop stop-color="#00FFAE"/>
            <stop offset=".354" stop-color="#009ACE"/>
            <stop offset=".67" stop-color="#0047E8"/>
            <stop offset=".892" stop-color="#0014F9"/>
            <stop offset="1" stop-color="#00F"/>
        </radialGradient>
        <radialGradient id="i" cx="0" cy="0" r="1" gradientTransform="matrix(-739.175 0 0 -739.316 302.29 70.211)" gradientUnits="userSpaceOnUse">
            <stop stop-color="#00FFAE"/>
            <stop offset=".354" stop-color="#009ACE"/>
            <stop offset=".67" stop-color="#0047E8"/>
            <stop offset=".892" stop-color="#0014F9"/>
            <stop offset="1" stop-color="#00F"/>
        </radialGradient>
        <radialGradient id="j" cx="0" cy="0" r="1" gradientTransform="matrix(-739.176 0 0 -739.316 302.289 70.21)" gradientUnits="userSpaceOnUse">
            <stop stop-color="#00FFAE"/>
            <stop offset=".354" stop-color="#009ACE"/>
            <stop offset=".67" stop-color="#0047E8"/>
            <stop offset=".892" stop-color="#0014F9"/>
            <stop offset="1" stop-color="#00F"/>
        </radialGradient>
        <radialGradient id="k" cx="0" cy="0" r="1" gradientTransform="matrix(-387.887 0 0 -387.961 377.044 63.881)" gradientUnits="userSpaceOnUse">
            <stop stop-color="#E600FF"/>
            <stop offset=".298" stop-color="#90F"/>
            <stop offset=".639" stop-color="#4700FF"/>
            <stop offset=".882" stop-color="#1400FF"/>
            <stop offset="1" stop-color="#00F"/>
        </radialGradient>
        <linearGradient id="l" x1="335.941" x2="229.671" y1="45.885" y2="45.885" gradientUnits="userSpaceOnUse">
            <stop stop-color="#ED4264"/>
            <stop offset="1" stop-color="#FFEDBC"/>
        </linearGradient>
    </defs>
</svg>
