<svg xmlns="http://www.w3.org/2000/svg" width="434" height="333" fill="none" viewBox="0 0 434 333">
    <path fill="#E3EDFE" d="M381.052 31.132c-9.78-3.598-20.59-2.13-30.812-.147-11.399 2.13-23.753 4.626-33.975-.807-8.015-4.333-12.869-12.703-19.267-19.238-6.324-6.535-16.619-11.528-24.415-6.755-8.971 5.433-8.751 19.972-17.869 25.185-6.178 3.598-14.193 1.248-20.444-2.35-9.119-5.14-17.796-12.482-28.974-8.738-9.56 3.231-14.708 12.043-15.222 21.735-.074.66-.074 1.322-.074 1.982h203.995c-2.794-4.846-7.648-8.884-12.943-10.867z" opacity=".35"/>
    <path fill="#E3EDFE" d="M323.693 18.283C331.488 7.49 337.003 0 357.667 0c12.281 0 31.916 15.346 44.123 13.951 8.604-1.028 16.841-7.783 25.003-4.993 3.971 1.395 6.545 5.213 7.133 9.325H323.693z" opacity=".35"/>
    <path fill="#E0EEFF" fill-opacity=".6" d="M27.246 262.976c-4.167-13.4-5.147-27.699-2.124-41.426 4.657-21.489 19.61-47.473 62.834-58.748 81.789-21.244 110.224-83.424 186.703-63.651 0 0 41.099 7.435 60.464 75.417 19.447 67.981 95.599 69.125 69.37 128.282-4.249 9.641-15.851 20.182-32.356 30.15l-310.328-1.062C40.4 306.2 33.7 283.893 27.246 262.976z"/>
    <path fill="#2A2727" d="M135.239 191.54s-3.332 14.821-2.758 29.986c.46 13.557-1.148 102.94-1.148 102.94h10.914s15.51-69.967 16.084-75.482c.575-5.514 8.387-60.776 8.387-60.776l-31.479 3.332z"/>
    <path fill="#1F191A" d="M142.592 187.404s2.527 19.072 6.778 32.628c4.251 13.557 25.275 104.319 25.275 104.319h10.915s-1.953-69.967-2.758-75.482c-.804-5.514-6.318-60.775-6.318-60.775l-33.892-.69z"/>
    <path fill="#8797AF" d="M175.45 324.466v7.582h20.794c1.149 0 1.609-1.493.69-2.182-2.987-2.068-7.928-4.826-12.408-5.4h-9.076zM131.907 324.466v7.582h20.795c1.149 0 1.608-1.493.689-2.182-2.987-2.068-7.927-4.826-12.408-5.4h-9.076z"/>
    <path fill="#1F191A" d="M169.361 98.71s7.123-10.8-1.034-11.948c-6.319-.804-8.847 1.034-8.847 1.034s-7.238-.804-11.259 2.642c-2.757 2.413-12.753 20.68 3.447 27.229 16.084 6.663 12.752-10.34 12.752-10.34l4.941-8.617z"/>
    <path fill="#2A2727" d="M168.327 86.762c-6.319-.804-8.847 1.034-8.847 1.034s-7.238-.804-11.259 2.642c-2.757 2.413-12.753 20.68 3.447 27.229 7.582 3.102 10.799 1.034 12.178-2.068-15.28 4.366-17.004-14.131-14.476-19.301 2.528-5.285 8.731-2.873 8.731-2.873 2.413-6.089 10.226-5.4 13.442-4.94-.574-.919-1.493-1.493-3.216-1.723z"/>
    <path fill="#FFCFBE" d="M159.365 103.995s-2.068-2.068-3.676 0c-1.609 2.068-.575 6.893 2.068 7.123 0 0-.804 6.894-6.089 6.664v5.514h12.408v-4.25s7.697-3.217 7.353-9.536c-.23-6.319-2.068-10.8-2.068-10.8s-4.136 4.711-9.996 5.285z"/>
    <path fill="#F5B2A3" d="M161.203 120.769c1.264.459 1.034 1.264 1.034 2.413h1.839v-4.251s-2.987.919-7.468-1.609c.115.115 2.642 2.643 4.595 3.447z"/>
    <path fill="#FFCFBE" d="M163.846 93.885s-6.434-2.528-7.238-.69c-.46 1.265.804 2.298 2.527 3.447l-1.493.23c-.345 0-.46.46-.23.69.46.344 1.609.574 4.021.689l2.413-4.366z"/>
    <path fill="#3470D9" d="M209.801 109.969c-12.293-9.076-45.84-16.429-45.84-16.429l-2.758 5.055s30.446 11.834 28.493 13.557c-1.149 1.034-16.085 7.813-21.14 10.11-1.034.46-2.297.69-3.446.69l-15.395-.115s-11.145-1.379-19.876 8.731c-7.812 8.962-21.139 29.871-21.139 29.871l22.403 32.973 2.527 3.677v.344s.805.115 2.183.23c7.238.689 30.331 2.528 42.509-.115l.345-.115-.575-54.112c19.531-15.395 28.837-27.343 32.169-31.135.804-.919.574-2.412-.46-3.217zm-75.137 73.759l-2.183-4.826-7.008-15.165 11.489-12.982-2.068 28.377-.23 4.596z"/>
    <path fill="url(#a)" d="M132.367 178.902l2.297 4.826-1.149 14.361v.115l-2.412-3.677 1.264-15.625z"/>
    <path fill="#000" d="M172.807 142.483c-2.068 1.493-1.493 14.935-2.068 23.207-.804 14.016-1.723 26.08-1.034 33.892 3.217-.23 6.089-.574 8.617-1.034l.344-.115-.574-54.112c19.531-15.395 28.837-27.344 32.169-31.135.919-1.034.689-2.527-.345-3.332-.115.115-15.51 16.889-37.109 32.629z" opacity=".29"/>
    <path fill="#2A2727" d="M182.688 248.984c-.575-4.021-3.562-33.892-5.17-50.206l-7.813.919s11.489 93.979 12.178 124.769h3.677c-.115 0-2.068-69.967-2.872-75.482z"/>
    <path stroke="#B3CEE8" stroke-linecap="round" stroke-linejoin="round" stroke-miterlimit="10" d="M149.731 71.467l-6.549-6.548M167.309 71.468l8.731-8.617M159.037 71.468V64.92"/>
    <path fill="#2A2727" d="M342.041 170.457h-11.082v-36.522c0-15.925-12.992-28.907-28.984-28.907s-28.958 12.982-28.958 28.907v36.522h-11.058v-36.522C261.959 111.927 279.909 94 302 94c22.091 0 40.041 17.927 40.041 39.935v36.522z"/>
    <path fill="#FC0" d="M359 225.722c0 2.374-1.934 4.278-4.289 4.278H249.289c-2.355 0-4.289-1.929-4.289-4.278v-68.321c0-2.374 1.934-4.278 4.289-4.278h105.422a4.285 4.285 0 0 1 4.289 4.278v68.321z"/>
    <path fill="#EAB531" d="M359 225.722v-41.863c-34.735 29.302-84.793 40.305-113.182 44.361a4.287 4.287 0 0 0 3.471 1.78h105.422c2.355 0 4.289-1.929 4.289-4.278z"/>
    <path fill="#1F191A" d="M311.421 179.977c0-5.193-4.214-9.397-9.421-9.397-5.207 0-9.422 4.204-9.422 9.397 0 3.091 1.513 5.835 3.819 7.542l-3 21.24h17.206l-3-21.24c2.306-1.707 3.818-4.427 3.818-7.542z"/>
    <path fill="#FFE882" d="M248.595 161.233v14.713c.397-6.256 3.397-19.831 22.264-19.831h-17.107c-2.851-.025-5.157 2.3-5.157 5.118z"/>
    <path fill="#3C3C3C" d="M293.397 208.784s12.768-3.61 14.206-21.241l3 21.241h-17.206z"/>
    <g clip-path="url(#b)">
        <path fill="#3470D9" d="M109 102.5L101.037 88c3.981-7.5 6.47-16 6.47-25 0-30-23.89-54-53.754-54C23.89 9 0 33 0 63s23.89 54 53.753 54c14.932 0 28.37-6 38.325-16L109 102.5z"/>
        <path fill="#fff" d="M37.42 65.136v-6.912c0-.363.01-.747.032-1.152.032-.416.075-.848.128-1.296l-6.72 9.36h6.56zm6.528 0v2.496c0 .235-.08.437-.24.608-.15.16-.362.24-.64.24H41.26V74h-3.84v-5.52h-9.584c-.277 0-.533-.085-.768-.256a1.073 1.073 0 0 1-.416-.672l-.464-2.208 10.88-14.576h4.192v14.368h2.688zM62.559 62.384c0 2.027-.219 3.787-.656 5.28-.438 1.493-1.04 2.73-1.808 3.712-.768.97-1.68 1.696-2.736 2.176-1.046.47-2.176.704-3.392.704-1.216 0-2.347-.235-3.392-.704-1.046-.48-1.947-1.205-2.704-2.176-.758-.981-1.355-2.219-1.792-3.712-.427-1.493-.64-3.253-.64-5.28s.213-3.781.64-5.264c.437-1.493 1.034-2.725 1.792-3.696.757-.981 1.658-1.707 2.704-2.176a8.03 8.03 0 0 1 3.392-.72 8.03 8.03 0 0 1 3.392.72c1.056.47 1.968 1.195 2.736 2.176.768.97 1.37 2.203 1.808 3.696.437 1.483.656 3.237.656 5.264zm-4.56 0c0-1.643-.118-2.997-.352-4.064-.224-1.067-.523-1.91-.896-2.528-.374-.619-.806-1.05-1.296-1.296a3.23 3.23 0 0 0-1.488-.368 3.23 3.23 0 0 0-1.488.368c-.47.245-.89.677-1.264 1.296-.363.619-.656 1.461-.88 2.528-.224 1.067-.336 2.421-.336 4.064 0 1.653.112 3.013.336 4.08.224 1.067.517 1.91.88 2.528.373.619.794 1.05 1.264 1.296.48.245.976.368 1.488.368s1.008-.123 1.488-.368c.49-.245.922-.677 1.296-1.296.373-.619.672-1.461.896-2.528.234-1.067.352-2.427.352-4.08zM64.865 57.328c.17-1.13.49-2.123.96-2.976a7.042 7.042 0 0 1 1.76-2.128 7.186 7.186 0 0 1 2.4-1.264 9.62 9.62 0 0 1 2.928-.432c1.11 0 2.102.16 2.976.48.886.31 1.632.736 2.24 1.28a5.523 5.523 0 0 1 1.392 1.904c.33.725.496 1.504.496 2.336 0 .736-.08 1.387-.24 1.952a4.273 4.273 0 0 1-.688 1.456 4.072 4.072 0 0 1-1.12 1.056 6.47 6.47 0 0 1-1.52.72c2.667.875 4 2.65 4 5.328 0 1.184-.218 2.23-.656 3.136a6.69 6.69 0 0 1-1.76 2.256 7.57 7.57 0 0 1-2.576 1.376c-.97.299-1.99.448-3.056.448-1.13 0-2.128-.128-2.992-.384a6.898 6.898 0 0 1-2.288-1.152 7.169 7.169 0 0 1-1.68-1.92c-.47-.779-.88-1.685-1.232-2.72l1.952-.8c.512-.213.987-.272 1.424-.176.448.096.768.33.96.704.214.405.438.779.672 1.12.246.341.518.64.816.896.299.245.635.437 1.008.576a3.85 3.85 0 0 0 1.312.208c.619 0 1.158-.101 1.616-.304a3.606 3.606 0 0 0 1.152-.784c.31-.33.539-.699.688-1.104.16-.416.24-.827.24-1.232a6.58 6.58 0 0 0-.144-1.44 1.968 1.968 0 0 0-.672-1.104c-.341-.31-.853-.544-1.536-.704-.672-.17-1.59-.256-2.752-.256v-3.104c.97 0 1.766-.08 2.384-.24.619-.16 1.104-.384 1.456-.672.352-.288.592-.635.72-1.04.139-.405.208-.848.208-1.328 0-1.013-.266-1.787-.8-2.32-.522-.533-1.27-.8-2.24-.8-.426 0-.821.064-1.184.192a3.413 3.413 0 0 0-.96.496 3.443 3.443 0 0 0-.72.752 3.076 3.076 0 0 0-.448.944c-.202.533-.464.89-.784 1.072-.32.17-.784.208-1.392.112l-2.32-.416z"/>
    </g>
    <defs>
        <linearGradient id="a" x1="131.046" x2="134.609" y1="188.557" y2="188.557" gradientUnits="userSpaceOnUse">
            <stop stop-color="#0B40A6"/>
            <stop offset="1" stop-color="#5299E6"/>
        </linearGradient>
        <clipPath id="b">
            <path fill="#fff" d="M0 0h109v108H0z" transform="translate(0 9)"/>
        </clipPath>
    </defs>
</svg>
