<svg width="11" height="20" viewBox="0 0 11 20" fill="none" xmlns="http://www.w3.org/2000/svg">
<path fill-rule="evenodd" clip-rule="evenodd" d="M10.446 9.88423C10.4202 9.63141 10.317 9.39307 10.1492 9.20145L2.71587 0.544063C2.51745 0.252585 2.20449 0.0577238 1.85446 0.0110151C1.50603 -0.0356853 1.15276 0.0673789 0.883339 0.296054C0.615557 0.526336 0.45749 0.858083 0.451007 1.21077C0.442941 1.56183 0.586509 1.90163 0.844611 2.14156L7.5941 10L0.844611 17.8584C0.586509 18.0984 0.442937 18.4382 0.451007 18.7892C0.457459 19.1419 0.615548 19.4737 0.883339 19.7039C1.15273 19.9326 1.50601 20.0357 1.85446 19.989C2.20452 19.9423 2.51748 19.7474 2.71587 19.4559L10.1492 10.7985C10.367 10.5457 10.4751 10.2156 10.446 9.88383V9.88423Z" fill="#D3D9E3"/>
</svg>
