<svg xmlns="http://www.w3.org/2000/svg" width="1292" height="760" fill="none" viewBox="0 0 1292 760">
    <rect width="1292" height="760" fill="url(#a)" />
    <mask id="b" width="1292" height="760" x="0" y="0" maskUnits="userSpaceOnUse">
        <rect width="1292" height="760" fill="#fff" />
    </mask>
    <g mask="url(#b)" opacity=".145">
        <mask id="c" width="1821" height="1650" x="-264" y="-333" maskUnits="userSpaceOnUse">
            <path fill="#fff" fill-rule="evenodd" d="M-264 1316.62h1821V-332.976H-264V1316.62z" clip-rule="evenodd"/>
        </mask>
        <g mask="url(#c)">
            <path fill="#fff" fill-rule="evenodd" d="M1146.37 934.141c9.62-43.176 14.71-88.149 14.71-134.328 0-271.025-178.796-497.69-418.692-554.658l256.303-506.701c247.259 94.748 436.239 319.023 495.079 594.85 7.91 64.752 5.65 131.324-9.06 197.282-40.74 184.674-169.18 327.4-338.34 403.555z" clip-rule="evenodd" opacity=".5"/>
        </g>
        <mask id="d" width="1821" height="1650" x="-264" y="-333" maskUnits="userSpaceOnUse">
            <path fill="#fff" fill-rule="evenodd" d="M-264 1316.62h1821V-332.976H-264V1316.62z" clip-rule="evenodd"/>
        </mask>
        <g mask="url(#d)">
            <path fill="#fff" fill-rule="evenodd" d="M672.319 940.532L492.498 1276.71c13.808 3.01 27.574 5.99 41.974 8.99 52.736 7.19 104.289 11.98 154.636 12.58 452.532-3.6 818.182-372.123 818.182-825.142 0-62.911-6.6-123.434-19.77-182.159 8.37 64.708 5.98 131.234-9.6 197.147-75.54 320.58-429.17 514.724-805.601 452.406z" clip-rule="evenodd"/>
        </g>
        <path fill="#fff" fill-rule="evenodd" d="M630.207 708.69c-118.271 204.793-186.752 327.68-286.991 503.22-59.784-20.48-116.426-47.4-168.72-79.58-56.665-36.27-111.44-80.15-162.483-128.72-65.384-66.141-117.656-139.855-156.267-223.539l-1.252-3.509.637-1.177c-1.252-2.91-2.504-6.42-3.119-9.351-19.305-68.471-40.477-189.579-23.654-282.615 1.867-7.617 3.734-15.812 5.601-24.007 44.19-161.485 160.616-291.388 316.882-372.14-2.503 21.054-3.755 42.708-3.755 64.362 0 275.019 207.331 504.397 483.121 557.056z" clip-rule="evenodd" opacity=".5"/>
        <path fill="#fff" fill-rule="evenodd" d="M836.923-329.354L644.548 1.254C261.645-39.7-82.011 152.811-166.041 459.412c-28.025 101.23.615 250.454 21.787 320.659-44.211-95.368-70.984-203.616-72.214-314.218 2.482-132.814 35.47-268.001 100.854-389.708C68.041-246.846 459.642-411.841 836.923-329.354z" clip-rule="evenodd"/>
    </g>
    <defs>
        <radialGradient id="a" cx="0" cy="0" r="1" gradientTransform="rotate(32.14 -268.961 1384.163) scale(813.526 734.515)" gradientUnits="userSpaceOnUse">
            <stop stop-color="#4574EE"/>
            <stop offset=".999" stop-color="#1658B6"/>
            <stop offset="1" stop-color="#3568E5"/>
        </radialGradient>
    </defs>
</svg>
