<svg width="18" height="14" viewBox="0 0 18 14" fill="none" xmlns="http://www.w3.org/2000/svg">
<g id="check_blue">
<path id="Path" fill-rule="evenodd" clip-rule="evenodd" d="M15.9929 1.31465C15.8582 1.33439 15.732 1.401 15.6371 1.50215C12.4737 4.75636 9.59157 7.97457 6.47372 11.2029L2.3008 7.77846C2.1734 7.67361 2.01113 7.6255 1.84886 7.64401C1.6866 7.66251 1.53757 7.74639 1.43538 7.87715C1.22384 8.14976 1.26591 8.54697 1.53154 8.76531L6.14692 12.5548C6.39212 12.7534 6.74428 12.7324 6.96421 12.5054C10.2587 9.11702 13.2334 5.7627 16.5027 2.40017C16.6986 2.21144 16.7527 1.91414 16.6361 1.66622C16.5195 1.41704 16.2599 1.27518 15.9931 1.31465H15.9929Z" fill="#26C6DA" stroke="#26C6DA"/>
</g>
</svg>
