<svg xmlns="http://www.w3.org/2000/svg" width="24" height="24" fill="none" viewBox="0 0 24 24">
    <path fill="#47546A" d="M20.803 10.178a.638.638 0 0 0-.89.113.633.633 0 0 0 .11.89l1.402 1.093a.634.634 0 1 0 .78-1.002l-1.402-1.094zM17.441 12.674a.633.633 0 0 0-.545.958l.908 1.531a.636.636 0 0 0 1.092-.646l-.907-1.529a.636.636 0 0 0-.548-.314zM13.879 13.99a.578.578 0 0 0-.111.012.634.634 0 0 0-.514.734l.314 1.752c.063.346.391.574.737.51a.632.632 0 0 0 .511-.733l-.314-1.75a.63.63 0 0 0-.623-.526zM10.118 13.99a.634.634 0 0 0-.624.525l-.312 1.75a.633.633 0 1 0 1.248.223l.314-1.752a.633.633 0 0 0-.626-.747zM6.558 12.674a.637.637 0 0 0-.547.313l-.908 1.529a.634.634 0 1 0 1.093.646L7.1 13.63a.632.632 0 0 0-.542-.957zM2.572 12.27l1.402-1.091a.637.637 0 0 0-.388-1.136.646.646 0 0 0-.39.133L1.793 11.27a.634.634 0 1 0 .78 1.001zM18.914 6.991c-1.197 2.137-3.66 4.507-6.914 4.507-3.254 0-5.719-2.37-6.912-4.504l-1.122.592c1.743 3.157 4.87 5.18 8.034 5.18 3.161 0 6.29-2.023 8.035-5.179l-1.121-.596z"/>
</svg>
