<svg width="21" height="20" viewBox="0 0 21 20" fill="none" xmlns="http://www.w3.org/2000/svg">
<path d="M0.968941 19.9999C0.709754 20.0023 0.465103 19.9006 0.283411 19.7165C-0.0944705 19.3386 -0.0944705 18.7257 0.283411 18.3479L18.3707 0.260545C18.751 -0.0955339 19.3469 -0.0858413 19.7151 0.284768C20.0858 0.652957 20.0954 1.24885 19.7394 1.62916L1.65203 19.7165C1.47278 19.9006 1.2257 20.0023 0.968917 19.9999L0.968941 19.9999Z" fill="#939AA7"/>
<path d="M19.0538 19.9999C18.797 20.0023 18.5499 19.9006 18.3707 19.7165L0.283342 1.62916C-0.0727373 1.24886 -0.0630447 0.65299 0.307565 0.284769C0.675754 -0.0858449 1.27165 -0.0955313 1.65196 0.260546L19.7393 18.3479C20.1172 18.7258 20.1172 19.3386 19.7393 19.7165C19.5576 19.9006 19.313 20.0023 19.0538 19.9999L19.0538 19.9999Z" fill="#939AA7"/>
</svg>
