<svg width="32" height="33" viewBox="0 0 32 33" fill="none" xmlns="http://www.w3.org/2000/svg">
<path d="M30.2345 0.0561523H1.76552C0.790449 0.0561523 0 0.864636 0 1.86195V30.9805C0 31.9778 0.790449 32.7863 1.76552 32.7863H17.1034V20.1287H12.9379V15.1741H17.1034V11.5286C17.1034 7.30192 19.6303 4.99953 23.3159 4.99953C24.5578 4.99676 25.7991 5.0608 27.0345 5.19139V9.60996H24.4966C22.4883 9.60996 22.0966 10.5806 22.0966 12.0139V15.1684H26.8966L26.2731 20.1231H22.069V32.7863H30.2345C31.2096 32.7863 32 31.9778 32 30.9805V1.86195C32 0.864636 31.2096 0.0561523 30.2345 0.0561523Z" fill="white"/>
<path d="M22.0689 32.7856V20.1281H26.2455L26.8689 15.1734H22.0689V12.0189C22.0689 10.5856 22.4607 9.61495 24.4689 9.61495H27.0344V5.19074C25.7972 5.05995 24.5541 4.99591 23.3103 4.99888C19.6193 4.99888 17.1035 7.30127 17.1035 11.528V15.1734H12.938V20.1281H17.1035V32.7856H22.0689Z" fill="#04368B"/>
</svg>
