<svg width="32" height="36" viewBox="0 0 32 36" fill="none" xmlns="http://www.w3.org/2000/svg">
<path d="M30.2345 0.443359H1.76552C0.790449 0.443359 0 1.3091 0 2.37704V33.5576C0 34.6256 0.790449 35.4913 1.76552 35.4913H17.1034V21.9374H12.9379V16.6319H17.1034V12.7283C17.1034 8.20225 19.6303 5.73681 23.3159 5.73681C24.5578 5.73384 25.7991 5.80242 27.0345 5.94226V10.6737H24.4966C22.4883 10.6737 22.0966 11.7131 22.0966 13.2479V16.6258H26.8966L26.2731 21.9314H22.069V35.4913H30.2345C31.2096 35.4913 32 34.6256 32 33.5576V2.37704C32 1.3091 31.2096 0.443359 30.2345 0.443359Z" fill="#49566C"/>
<path d="M22.0689 35.4909V21.937H26.2455L26.8689 16.6315H22.0689V13.2536C22.0689 11.7188 22.4607 10.6794 24.4689 10.6794H27.0344V5.94189C25.7972 5.80183 24.5541 5.73326 23.3103 5.73643C19.6193 5.73643 17.1035 8.20188 17.1035 12.7279V16.6315H12.938V21.937H17.1035V35.4909H22.0689Z" fill="white"/>
</svg>
