<svg width="180" height="180" viewBox="0 0 180 180" fill="none" xmlns="http://www.w3.org/2000/svg">
<mask id="mask0" mask-type="alpha" maskUnits="userSpaceOnUse" x="0" y="0" width="180" height="180">
<rect width="180" height="180" fill="#C4C4C4"/>
</mask>
<g mask="url(#mask0)">
<path d="M44.0858 58.7595L43.2017 58.5895C42.9297 58.4875 42.7257 58.2835 42.6577 58.0114C42.6237 57.7394 42.5557 57.4674 42.4877 57.2634C42.3856 56.9913 42.4877 56.6853 42.7257 56.5153L43.4738 55.9712C44.0178 55.6312 44.1538 54.9171 43.7458 54.373L42.8957 53.1829C42.7257 52.9109 42.4537 52.7408 42.1476 52.7068C41.8416 52.6728 41.5355 52.7068 41.2975 52.8769L40.5494 53.4209C40.4134 53.5229 40.2434 53.5569 40.0734 53.5229C39.9714 53.5229 39.8354 53.4889 39.7673 53.3869C39.5293 53.2169 39.3253 53.0809 39.0873 52.9449C38.8152 52.8088 38.6792 52.5368 38.7472 52.2308L38.8832 51.3467C38.9853 50.7346 38.5772 50.0885 37.9311 50.0205L36.469 49.7485C35.8569 49.6465 35.2108 50.0545 35.1428 50.7006L35.0068 51.5847C34.9048 51.8567 34.7008 52.0608 34.4287 52.1288C34.1567 52.1628 33.8847 52.2308 33.6807 52.2988C33.5786 52.3328 33.4426 52.3328 33.3746 52.2988C33.2046 52.2648 33.0686 52.1628 32.9326 52.0268L32.3885 51.2787C32.2185 51.0066 31.9465 50.8366 31.6404 50.8026C31.3344 50.7686 31.0284 50.8026 30.7563 50.9726L29.5662 51.8227C29.2942 51.9928 29.1241 52.2648 29.0901 52.5708C29.0561 52.8769 29.0901 53.1829 29.2602 53.4549L29.8042 54.203C29.9402 54.475 29.9402 54.7811 29.7702 55.0191C29.6002 55.2571 29.4642 55.4611 29.3282 55.6992C29.1921 55.9712 28.9201 56.1072 28.6141 56.0392L27.73 55.8692C27.1179 55.7672 26.4718 56.1752 26.4038 56.8213L26.1318 58.2835C26.0298 58.8955 26.4378 59.5416 27.0839 59.6096L27.968 59.7796C28.24 59.8817 28.4441 60.0857 28.5121 60.3577C28.5461 60.6297 28.6141 60.9018 28.6821 61.1058C28.7841 61.3778 28.6821 61.6839 28.4441 61.8539L27.696 62.3979C27.4239 62.568 27.2539 62.84 27.2199 63.146C27.1859 63.4521 27.2199 63.7581 27.3899 64.0301L28.24 65.2203C28.4101 65.4923 28.6821 65.6623 28.9881 65.6963C29.2942 65.7303 29.6002 65.6963 29.8382 65.5263L30.5863 64.9822C30.7223 64.8802 30.8923 64.8462 31.0624 64.8802C31.1644 64.8802 31.3004 64.9142 31.3684 65.0162C31.6064 65.1523 31.8104 65.3223 32.0485 65.4243C32.3205 65.5603 32.4565 65.8323 32.3885 66.1384L32.2185 67.0225C32.1165 67.6345 32.5245 68.2806 33.1366 68.3486L34.5988 68.6207C35.2108 68.7227 35.8569 68.3146 35.9249 67.6685L36.0949 66.7844C36.1969 66.5124 36.401 66.3084 36.673 66.2404C36.945 66.2064 37.2171 66.1384 37.4211 66.0704C37.5231 66.0364 37.6591 66.0364 37.7271 66.0704C37.8971 66.1044 38.0332 66.2064 38.1692 66.3424L38.7132 67.0905C38.8832 67.3625 39.1553 67.5325 39.4613 67.5665C39.7673 67.6005 40.0734 67.5665 40.3114 67.3965L41.5015 66.5464C42.0456 66.2064 42.1816 65.4243 41.7736 64.9482L41.2295 64.2001C41.0935 63.9281 41.0935 63.6221 41.2635 63.3841C41.3995 63.146 41.5696 62.942 41.6716 62.704C41.8076 62.4319 42.0796 62.2959 42.3856 62.3639L43.2697 62.534C43.8818 62.636 44.5279 62.2279 44.5959 61.5818L44.8679 60.1197C45.14 59.4736 44.7319 58.8955 44.0858 58.7595ZM38.8832 59.7796C38.6452 61.1738 37.6251 62.2279 36.2649 62.534C34.9388 62.84 33.5106 62.2959 32.7626 61.1398C31.9465 60.0177 31.9125 58.5215 32.6605 57.3654C33.4086 56.2092 34.7688 55.5972 36.1289 55.8352C37.9651 56.1752 39.1893 57.9094 38.8832 59.7796Z" fill="#E1EBFD"/>
<path d="M30.2133 48.7267C30.2473 48.6926 30.3153 48.6246 30.3493 48.6246L30.7913 48.7267C31.0294 48.7607 31.1994 48.7267 31.3694 48.5906C31.5394 48.4546 31.6414 48.2846 31.6754 48.1146L31.8114 47.4005C31.9135 46.9925 31.5734 46.5844 31.1994 46.5164L30.7573 46.4144C30.7233 46.3804 30.6553 46.3124 30.6553 46.2784C30.6553 46.1424 30.6213 46.0063 30.5533 45.8703C30.5193 45.8363 30.5533 45.7343 30.5873 45.7003L30.9273 45.4283C31.2674 45.1562 31.3694 44.7142 31.0974 44.3742L30.6553 43.7621C30.5193 43.5921 30.3493 43.4901 30.1793 43.4561C29.9412 43.422 29.7712 43.456 29.6012 43.5921L29.2612 43.8641C29.2272 43.8641 29.1591 43.8641 29.1591 43.8641C29.1251 43.8641 29.1251 43.8641 29.0571 43.8641C28.9211 43.7621 28.8191 43.6941 28.7171 43.6261C28.6831 43.5921 28.6151 43.5241 28.6151 43.4901L28.7171 43.048C28.7511 42.81 28.7171 42.64 28.5811 42.4699C28.4451 42.2999 28.275 42.1979 28.105 42.1639L27.3909 42.0279C27.1529 41.9939 26.9829 42.0279 26.8129 42.1639C26.6429 42.2999 26.5409 42.4699 26.5068 42.64L26.4048 43.082C26.4048 43.116 26.3028 43.184 26.2688 43.184C26.1328 43.184 25.9968 43.218 25.8608 43.286C25.8268 43.286 25.7248 43.286 25.6908 43.252L25.4187 42.912C25.2827 42.742 25.1127 42.64 24.9427 42.606C24.7046 42.572 24.5346 42.606 24.3646 42.742L23.7525 43.184C23.4125 43.4561 23.3105 43.8981 23.5825 44.2381L23.8545 44.5782C23.8885 44.6122 23.8545 44.7142 23.8545 44.7482C23.7525 44.8842 23.6845 44.9862 23.6165 45.0882C23.5825 45.1222 23.5145 45.1903 23.4805 45.1903L23.0385 45.0882C22.8004 45.0542 22.6304 45.0882 22.4604 45.2243C22.2904 45.3603 22.1884 45.5303 22.1544 45.7683L22.0183 46.4824C21.9163 46.8904 22.2564 47.2985 22.6304 47.3665L23.0725 47.4685C23.1065 47.5025 23.1745 47.5705 23.1745 47.6045C23.1745 47.7405 23.2085 47.8766 23.2765 48.0126C23.2765 48.0466 23.2765 48.1486 23.2425 48.1826L22.9024 48.4546C22.7324 48.5906 22.6304 48.7607 22.5964 48.9307C22.5624 49.1687 22.5964 49.3387 22.7324 49.5087L23.1745 50.1208C23.3105 50.2908 23.4805 50.3928 23.6505 50.4268C23.8205 50.4608 24.0586 50.4268 24.2286 50.2908L24.5686 50.0188C24.6026 50.0188 24.6706 50.0188 24.6706 50.0188C24.7046 50.0188 24.7046 50.0188 24.7727 50.0528C24.9087 50.1548 25.0107 50.2228 25.1127 50.2908C25.1467 50.3248 25.2147 50.3928 25.2147 50.4268L25.1127 50.8689C25.0787 51.1069 25.1127 51.2769 25.2487 51.447C25.3847 51.617 25.5547 51.719 25.7248 51.753L26.4728 51.889C26.7109 51.923 26.8809 51.889 27.0509 51.753C27.2209 51.617 27.3229 51.447 27.3569 51.2769L27.459 50.8349C27.493 50.8009 27.561 50.7329 27.595 50.7329C27.731 50.7329 27.867 50.6989 28.003 50.6309C28.037 50.6309 28.139 50.6309 28.173 50.6649L28.4451 51.0049C28.5811 51.1749 28.7511 51.2769 28.9211 51.3109C29.1591 51.345 29.3292 51.3109 29.4992 51.1749L30.1113 50.7329C30.4513 50.4608 30.5533 50.0188 30.2813 49.6788L30.0092 49.3387C29.9752 49.3047 30.0092 49.2027 30.0092 49.1687C30.0432 48.9647 30.1113 48.8627 30.2133 48.7267ZM28.3771 47.1285C28.275 47.7405 27.799 48.1826 27.2209 48.3186C26.6429 48.4546 26.0308 48.2166 25.6568 47.7065C25.3167 47.2305 25.3167 46.5504 25.6227 46.0063C25.9288 45.4623 26.5749 45.1902 27.1869 45.3263C27.935 45.5303 28.5131 46.2784 28.3771 47.1285Z" fill="#E1EBFD"/>
<g opacity="0.24">
<path opacity="0.02439" d="M86.0384 178C119.319 178 146.269 173.731 146.269 168.486C146.269 163.241 119.283 158.972 86.0384 158.972C52.7939 158.972 25.8076 163.205 25.8076 168.486C25.8076 173.731 52.7577 178 86.0384 178Z" fill="#FBFCFE"/>
<path opacity="0.04878" d="M86.0349 177.747C118.556 177.747 144.927 173.587 144.927 168.486C144.927 163.386 118.556 159.226 86.0349 159.226C53.5139 159.226 27.1426 163.386 27.1426 168.486C27.1426 173.587 53.5139 177.747 86.0349 177.747Z" fill="#F8FAFE"/>
<path opacity="0.073171" d="M86.0353 177.53C117.797 177.53 143.553 173.478 143.553 168.45C143.553 163.422 117.797 159.37 86.0353 159.37C54.2739 159.37 28.5176 163.422 28.5176 168.45C28.5176 173.478 54.2739 177.53 86.0353 177.53Z" fill="#F4F7FD"/>
<path opacity="0.097561" d="M86.0375 177.277C117.039 177.277 142.144 173.334 142.144 168.451C142.144 163.567 117.039 159.624 86.0375 159.624C55.0359 159.624 29.9307 163.567 29.9307 168.451C29.9307 173.334 55.0359 177.277 86.0375 177.277Z" fill="#F1F5FC"/>
<path opacity="0.122" d="M86.0379 177.096C116.244 177.096 140.77 173.225 140.77 168.45C140.77 163.675 116.28 159.805 86.0379 159.805C55.7959 159.805 31.3057 163.675 31.3057 168.45C31.3057 173.225 55.8321 177.096 86.0379 177.096Z" fill="#EDF2FC"/>
<path opacity="0.1463" d="M86.0392 176.843C115.485 176.843 139.361 173.081 139.361 168.451C139.361 163.82 115.485 160.058 86.0392 160.058C56.593 160.058 32.7178 163.82 32.7178 168.451C32.7178 173.081 56.593 176.843 86.0392 176.843Z" fill="#E9F0FB"/>
<path opacity="0.1707" d="M86.0386 176.662C114.761 176.662 138.022 173.009 138.022 168.487C138.022 163.965 114.761 160.312 86.0386 160.312C57.316 160.312 34.0557 163.965 34.0557 168.487C34.0557 172.973 57.316 176.662 86.0386 176.662Z" fill="#E6EDFA"/>
<path opacity="0.1951" d="M86.0361 176.481C113.963 176.481 136.644 172.9 136.644 168.487C136.644 164.073 113.999 160.492 86.0361 160.492C58.1092 160.492 35.4277 164.073 35.4277 168.487C35.4277 172.9 58.0731 176.481 86.0361 176.481Z" fill="#E2EBFA"/>
<path opacity="0.2195" d="M86.0413 176.192C113.208 176.192 135.239 172.719 135.239 168.45C135.239 164.182 113.208 160.709 86.0413 160.709C58.8741 160.709 36.8438 164.182 36.8438 168.45C36.8438 172.755 58.8741 176.192 86.0413 176.192Z" fill="#DFE8F9"/>
<path opacity="0.2439" d="M86.0377 176.011C112.445 176.011 133.861 172.647 133.861 168.451C133.861 164.291 112.445 160.89 86.0377 160.89C59.6302 160.89 38.2148 164.254 38.2148 168.451C38.2148 172.647 59.6302 176.011 86.0377 176.011Z" fill="#DBE6F8"/>
<path opacity="0.2683" d="M86.0342 175.758C111.718 175.758 132.519 172.502 132.519 168.451C132.519 164.435 111.718 161.144 86.0342 161.144C60.3502 161.144 39.5498 164.399 39.5498 168.451C39.5498 172.502 60.3502 175.758 86.0342 175.758Z" fill="#D8E3F7"/>
<path opacity="0.2927" d="M86.0394 175.577C110.928 175.577 131.113 172.394 131.113 168.487C131.113 164.544 110.928 161.396 86.0394 161.396C61.1513 161.396 40.9658 164.58 40.9658 168.487C40.9658 172.394 61.1513 175.577 86.0394 175.577Z" fill="#D4E1F7"/>
<path opacity="0.3171" d="M86.0369 175.323C110.165 175.323 129.736 172.249 129.736 168.486C129.736 164.688 110.165 161.649 86.0369 161.649C61.9084 161.649 42.3379 164.724 42.3379 168.486C42.3379 172.249 61.9084 175.323 86.0369 175.323Z" fill="#D0DEF6"/>
<path opacity="0.3415" d="M86.0411 175.142C109.41 175.142 128.329 172.176 128.329 168.486C128.329 164.796 109.41 161.83 86.0411 161.83C62.6723 161.83 43.7529 164.796 43.7529 168.486C43.7529 172.14 62.6723 175.142 86.0411 175.142Z" fill="#CDDCF5"/>
<path opacity="0.3659" d="M86.0395 174.926C108.612 174.926 126.953 172.032 126.953 168.45C126.953 164.869 108.649 161.975 86.0395 161.975C63.4303 161.975 45.126 164.869 45.126 168.45C45.126 172.032 63.4665 174.926 86.0395 174.926Z" fill="#C9D9F5"/>
<path opacity="0.3902" d="M86.038 174.672C107.887 174.672 125.613 171.887 125.613 168.45C125.613 165.013 107.887 162.228 86.038 162.228C64.1885 162.228 46.4629 165.013 46.4629 168.45C46.4629 171.887 64.1885 174.672 86.038 174.672Z" fill="#C6D7F4"/>
<path opacity="0.4146" d="M86.0393 174.492C107.129 174.492 124.204 171.778 124.204 168.45C124.204 165.122 107.129 162.409 86.0393 162.409C64.9494 162.409 47.875 165.122 47.875 168.45C47.875 171.815 64.9494 174.492 86.0393 174.492Z" fill="#C2D4F3"/>
<path opacity="0.439" d="M86.0406 174.238C106.335 174.238 122.83 171.67 122.83 168.45C122.83 165.267 106.371 162.662 86.0406 162.662C65.7466 162.662 49.251 165.231 49.251 168.45C49.251 171.67 65.7104 174.238 86.0406 174.238Z" fill="#BED2F3"/>
<path opacity="0.4634" d="M86.035 174.057C105.569 174.057 121.414 171.561 121.414 168.486C121.414 165.412 105.569 162.916 86.035 162.916C66.5007 162.916 50.6562 165.412 50.6562 168.486C50.6563 171.561 66.5007 174.057 86.035 174.057Z" fill="#BBCFF2"/>
<path opacity="0.4878" d="M86.0394 173.805C104.85 173.805 120.08 171.417 120.08 168.487C120.08 165.557 104.85 163.169 86.0394 163.169C67.2285 163.169 51.999 165.557 51.999 168.487C51.999 171.417 67.2285 173.805 86.0394 173.805Z" fill="#B7CDF1"/>
<path opacity="0.5122" d="M86.0388 173.623C104.09 173.623 118.704 171.308 118.704 168.486C118.704 165.665 104.09 163.35 86.0388 163.35C67.9876 163.35 53.373 165.665 53.373 168.486C53.373 171.308 67.9876 173.623 86.0388 173.623Z" fill="#B4CAF1"/>
<path opacity="0.5366" d="M86.0381 173.407C103.293 173.407 117.293 171.2 117.293 168.451C117.293 165.702 103.293 163.495 86.0381 163.495C68.7828 163.495 54.7832 165.702 54.7832 168.451C54.7832 171.2 68.7828 173.407 86.0381 173.407Z" fill="#B0C8F0"/>
<path opacity="0.561" d="M86.0404 173.152C102.536 173.152 115.921 171.054 115.921 168.45C115.921 165.845 102.536 163.747 86.0404 163.747C69.5448 163.747 56.1602 165.845 56.1602 168.45C56.1602 171.054 69.5448 173.152 86.0404 173.152Z" fill="#ADC5EF"/>
<path opacity="0.5854" d="M114.578 168.487C114.578 170.947 101.844 173.009 86.1081 173.009C70.3721 173.009 57.6387 170.983 57.6387 168.487C57.6387 165.991 70.3721 163.965 86.1081 163.965C101.844 163.965 114.578 165.991 114.578 168.487Z" fill="#A9C3EF"/>
<path opacity="0.6098" d="M86.0392 172.719C101.016 172.719 113.17 170.802 113.17 168.45C113.17 166.099 101.016 164.182 86.0392 164.182C71.0629 164.182 58.9082 166.099 58.9082 168.45C58.9082 170.802 71.0629 172.719 86.0392 172.719Z" fill="#A5C0EE"/>
<path opacity="0.6341" d="M86.0396 172.538C100.256 172.538 111.796 170.729 111.796 168.486C111.796 166.243 100.256 164.435 86.0396 164.435C71.8229 164.435 60.2832 166.243 60.2832 168.486C60.2832 170.729 71.8229 172.538 86.0396 172.538Z" fill="#A2BEED"/>
<path opacity="0.6585" d="M110.453 168.486C110.453 170.585 99.5642 172.285 86.1073 172.285C72.6503 172.285 61.7617 170.585 61.7617 168.486C61.7617 166.388 72.6503 164.688 86.1073 164.688C99.5281 164.652 110.453 166.388 110.453 168.486Z" fill="#9EBBED"/>
<path opacity="0.6829" d="M86.0354 172.068C98.6965 172.068 108.97 170.44 108.97 168.45C108.97 166.461 98.6965 164.833 86.0354 164.833C73.3742 164.833 63.0645 166.461 63.0645 168.45C63.1006 170.476 73.3742 172.068 86.0354 172.068Z" fill="#9BB9EC"/>
<path opacity="0.7073" d="M86.0366 171.887C97.9381 171.887 107.597 170.368 107.597 168.45C107.597 166.569 97.9381 165.014 86.0366 165.014C74.1352 165.014 64.4766 166.533 64.4766 168.45C64.4766 170.368 74.1352 171.887 86.0366 171.887Z" fill="#97B6EB"/>
<path opacity="0.7317" d="M106.259 168.45C106.259 170.223 97.1788 171.634 86.037 171.634C74.8953 171.634 65.8154 170.223 65.8154 168.45C65.8154 166.678 74.8953 165.267 86.037 165.267C97.1788 165.267 106.259 166.678 106.259 168.45Z" fill="#93B4EB"/>
<path opacity="0.7561" d="M86.0394 171.453C96.4577 171.453 104.886 170.115 104.886 168.487C104.886 166.823 96.4577 165.521 86.0394 165.521C75.6572 165.521 67.1924 166.859 67.1924 168.487C67.1924 170.115 75.6211 171.453 86.0394 171.453Z" fill="#90B1EA"/>
<path opacity="0.7805" d="M86.0358 171.2C95.6582 171.2 103.472 169.97 103.472 168.487C103.472 166.967 95.6582 165.773 86.0358 165.773C76.4133 165.773 68.5996 167.003 68.5996 168.487C68.5996 169.97 76.4133 171.2 86.0358 171.2Z" fill="#8CAFE9"/>
<path opacity="0.8049" d="M102.137 168.487C102.137 169.897 94.9741 171.019 86.1113 171.019C77.2485 171.019 70.0859 169.861 70.0859 168.487C70.0859 167.076 77.2485 165.954 86.1113 165.954C94.9741 165.918 102.137 167.076 102.137 168.487Z" fill="#89ACE8"/>
<path opacity="0.8293" d="M86.0375 170.765C94.1768 170.765 100.761 169.752 100.761 168.486C100.761 167.22 94.1768 166.207 86.0375 166.207C77.8982 166.207 71.3145 167.22 71.3145 168.486C71.3145 169.716 77.8982 170.765 86.0375 170.765Z" fill="#85AAE8"/>
<path opacity="0.8537" d="M86.0369 170.549C93.3803 170.549 99.3491 169.608 99.3491 168.451C99.3491 167.293 93.3803 166.353 86.0369 166.353C78.6934 166.353 72.7246 167.293 72.7246 168.451C72.7246 169.608 78.6934 170.549 86.0369 170.549Z" fill="#82A7E7"/>
<path opacity="0.878" d="M98.012 168.486C98.012 169.499 92.6943 170.403 86.0744 170.403C79.4906 170.403 74.1367 169.571 74.1367 168.486C74.1367 167.473 79.4544 166.569 86.0744 166.569C92.6943 166.569 98.012 167.437 98.012 168.486Z" fill="#7EA5E6"/>
<path opacity="0.9024" d="M86.0395 170.115C91.8636 170.115 96.5663 169.392 96.5663 168.451C96.5663 167.547 91.8636 166.787 86.0395 166.787C80.2154 166.787 75.5127 167.511 75.5127 168.451C75.5127 169.392 80.2154 170.115 86.0395 170.115Z" fill="#7AA2E6"/>
<path opacity="0.9268" d="M86.0398 169.933C91.0681 169.933 95.1559 169.282 95.1559 168.486C95.1559 167.69 91.0681 167.039 86.0398 167.039C81.0116 167.039 76.9238 167.69 76.9238 168.486C76.9238 169.282 81.0116 169.933 86.0398 169.933Z" fill="#77A0E5"/>
<path opacity="0.9512" d="M93.854 168.451C93.854 169.138 90.3812 169.644 86.0403 169.644C81.7355 169.644 78.2266 169.066 78.2266 168.451C78.2266 167.763 81.6993 167.257 86.0403 167.257C90.3451 167.257 93.854 167.763 93.854 168.451Z" fill="#739DE4"/>
<path opacity="0.9756" d="M86.0377 169.5C89.5828 169.5 92.4406 169.03 92.4406 168.487C92.4406 167.908 89.5828 167.474 86.0377 167.474C82.4926 167.474 79.6348 167.944 79.6348 168.487C79.6348 169.03 82.4926 169.5 86.0377 169.5Z" fill="#709BE4"/>
<path opacity="0.5" d="M86.039 169.246C88.7882 169.246 91.0311 168.92 91.0311 168.486C91.0311 168.052 88.7882 167.727 86.039 167.727C83.2897 167.727 81.0469 168.052 81.0469 168.486C81.0469 168.884 83.2897 169.246 86.039 169.246Z" fill="#6C98E3"/>
</g>
<path d="M131.306 142.863H42.7594C40.1071 142.863 38.1009 140.55 38.5089 137.932L56.633 21.1287C56.973 18.9184 59.0812 17.1162 61.2915 17.1162H151.878C154.088 17.1162 155.686 18.9184 155.346 21.1287L137.188 137.83C136.712 140.72 134.23 142.863 131.306 142.863Z" fill="#1449A8"/>
<path d="M153.716 17.5454C153.954 18.1235 153.988 18.7355 153.886 19.4156L135.762 136.117C135.32 139.075 132.803 141.218 129.879 141.218H41.3329C40.3808 141.218 39.5307 140.946 38.8506 140.435C39.5307 141.898 40.9928 142.918 42.761 142.918H131.307C134.265 142.918 136.782 140.775 137.19 137.817L155.314 21.1158C155.518 19.5176 154.838 18.2255 153.716 17.5454Z" fill="#274187"/>
<path d="M154.157 28.4593L155.279 20.7404C155.551 18.7002 154.157 17 152.117 17H60.9182C58.8779 17 56.9397 18.7002 56.5997 20.7404L55.4775 28.4593H154.157Z" fill="url(#paint0_linear)"/>
<path d="M152.525 28.4608L154.056 29.4809L154.668 25.2984L155.28 21.0479C155.518 19.5178 154.838 18.1576 153.682 17.4775C153.92 18.0556 153.954 18.6677 153.852 19.3478L152.525 28.4608Z" fill="url(#paint1_linear)"/>
<path d="M65.6768 22.7463C65.5748 23.3584 64.9967 23.9364 64.3166 23.9364C63.7046 23.9364 63.2285 23.4264 63.2965 22.7463C63.3985 22.1342 63.9766 21.5562 64.6567 21.5562C65.3368 21.6242 65.7788 22.1342 65.6768 22.7463Z" fill="#E3EDFE"/>
<path d="M70.9483 22.7448C70.8463 23.3569 70.2682 23.935 69.5881 23.935C68.976 23.935 68.5 23.4249 68.568 22.7448C68.67 22.1328 69.2481 21.5547 69.9282 21.5547C70.6082 21.6227 71.0503 22.1328 70.9483 22.7448Z" fill="#E3EDFE"/>
<path d="M76.2207 22.7448C76.1187 23.3569 75.5407 23.935 74.8606 23.935C74.2485 23.935 73.7725 23.4249 73.8405 22.7448C73.9425 22.1328 74.5205 21.5547 75.2006 21.5547C75.8807 21.6227 76.3227 22.1328 76.2207 22.7448Z" fill="#E3EDFE"/>
<g opacity="0.7">
<path opacity="0.3" d="M59.5561 55.0854C59.1141 55.0854 58.706 55.4255 58.638 55.8675C58.57 56.2756 58.876 56.6156 59.2501 56.6496L47.1787 140.945H47.3487L59.4201 56.6496C59.8282 56.5816 60.2022 56.2416 60.2702 55.8675C60.3042 55.4255 60.0322 55.0854 59.5561 55.0854Z" fill="#111C3A"/>
<path opacity="0.3" d="M75.4015 58.7246C74.9595 58.7246 74.5514 59.0646 74.4834 59.5067C74.4154 59.9147 74.7215 60.2548 75.0955 60.2888L63.5342 140.98H63.7042L75.2655 60.2888C75.6736 60.2208 76.0476 59.8807 76.1156 59.5067C76.1496 59.1327 75.8776 58.7246 75.4015 58.7246Z" fill="#111C3A"/>
<path opacity="0.3" d="M94.0053 43.3242C93.5633 43.3242 93.1552 43.6643 93.0872 44.1063C93.0192 44.5144 93.3253 44.8544 93.6993 44.8884L79.9277 140.983H80.0978L93.8353 44.8884C94.2434 44.8204 94.6174 44.4803 94.6854 44.1063C94.7194 43.6983 94.3794 43.3242 94.0053 43.3242Z" fill="#111C3A"/>
<path opacity="0.3" d="M111.138 37.6426C110.696 37.6426 110.288 37.9826 110.22 38.4247C110.152 38.8327 110.458 39.1728 110.832 39.2068L96.3467 141.014H96.5167L111.002 39.2068C111.41 39.1388 111.784 38.7987 111.852 38.4247C111.886 37.9826 111.58 37.6426 111.138 37.6426Z" fill="#111C3A"/>
<path opacity="0.3" d="M125.865 48.9668C125.423 48.9668 125.015 49.3068 124.947 49.7489C124.879 50.1569 125.185 50.497 125.559 50.531L112.638 140.947H112.808L125.729 50.531C126.137 50.463 126.511 50.1229 126.579 49.7489C126.647 49.3068 126.307 48.9668 125.865 48.9668Z" fill="#111C3A"/>
<path opacity="0.3" d="M143.479 45.973C143.547 45.531 143.241 45.1909 142.799 45.1909C142.357 45.1909 141.949 45.531 141.881 45.973C141.813 46.381 142.119 46.7211 142.493 46.7551L129.027 140.98H129.197L142.663 46.7551C143.071 46.7211 143.411 46.381 143.479 45.973Z" fill="#111C3A"/>
</g>
<path d="M84.0733 85.7895H54.1159C51.6336 85.7895 49.9334 83.8173 50.3074 81.301L56.3601 41.9245C56.7682 39.4423 59.0804 37.436 61.5287 37.436H91.4861C93.9684 37.436 95.6686 39.4083 95.2946 41.9245L89.2419 81.301C88.9018 83.7493 86.5556 85.7895 84.0733 85.7895Z" fill="url(#paint2_linear)"/>
<path d="M93.8371 38.1523C94.4151 38.9344 94.6192 39.9546 94.4491 41.1107L88.3964 80.4872C87.9884 82.9695 85.6761 84.9757 83.2619 84.9757H53.3045C52.3863 84.9757 51.6043 84.7037 50.9922 84.2956C51.6723 85.2477 52.7944 85.8938 54.1545 85.8938H84.112C86.5942 85.8938 88.9405 83.9216 89.2465 81.4053L95.2992 42.0288C95.5713 40.3286 94.9592 38.9684 93.8371 38.1523Z" fill="#B3CDFA"/>
<path d="M82.3395 52.5348C81.4894 57.8054 76.6269 62.0558 71.3563 62.0558C66.0857 62.0558 62.5153 57.8054 63.3654 52.5348C64.2155 47.2642 69.078 43.0137 74.3486 43.0137C79.6192 43.0137 83.1896 47.2642 82.3395 52.5348Z" fill="#89ADE9"/>
<path d="M77.2402 51.8561C76.8322 54.3043 74.5879 56.2766 72.1397 56.2766C69.6914 56.2766 68.0592 54.3043 68.3992 51.8561C68.8073 49.4078 71.0515 47.4355 73.4998 47.4355C75.9141 47.4355 77.6143 49.4418 77.2402 51.8561Z" fill="#C2D7FB"/>
<path d="M71.3549 62.0584C74.1772 62.0584 76.9656 60.8003 79.0058 58.828C77.0336 57.4679 74.3473 56.7878 71.3209 57.0258C69.0087 57.1958 66.7304 57.8759 64.8262 58.896C66.1863 60.8343 68.4986 62.0584 71.3549 62.0584Z" fill="#C2D7FB"/>
<path d="M82.2746 68.2449H59.458L59.696 66.8848H82.4446L82.2746 68.2449Z" fill="#C2D7FB"/>
<path d="M81.6603 72.1556H58.8438L59.0818 70.7954H81.8984L81.6603 72.1556Z" fill="#C2D7FB"/>
<path d="M66.7674 76.0643H58.2324L58.4704 74.7041H66.9714L66.7674 76.0643Z" fill="#C2D7FB"/>
<path d="M77.1033 127.447H29.4639C28.2058 127.447 27.3557 126.494 27.5937 125.236L31.3341 99.2913C31.5041 98.1012 32.6263 97.0811 33.8844 97.0811H81.5578C82.816 97.0811 83.6661 98.0332 83.4281 99.2913L79.6876 125.236C79.4836 126.494 78.3615 127.447 77.1033 127.447Z" fill="url(#paint3_linear)"/>
<path d="M82.5159 97.4189C82.5839 97.657 82.5839 97.929 82.5839 98.201L78.8435 124.146C78.6734 125.336 77.5513 126.356 76.2932 126.356H28.6197C28.2117 126.356 27.8716 126.254 27.5996 126.084C27.8376 126.866 28.5177 127.512 29.4698 127.512H77.1433C78.4014 127.512 79.4555 126.56 79.6936 125.302L83.434 99.3572C83.502 98.5071 83.162 97.759 82.5159 97.4189Z" fill="#B3CDFA"/>
<path d="M56.9093 102.349H35.9629L36.2349 100.479L57.1813 100.547L56.9093 102.349Z" fill="#E3EDFE"/>
<path d="M45.855 106.327H35.3818L35.6539 104.524H46.1271L45.855 106.327Z" fill="#E3EDFE"/>
<path d="M30.6201 122.854C32.5923 120.576 34.8026 117.753 37.0128 115.713C37.7949 114.965 38.645 114.251 39.6651 114.115C41.0933 113.877 42.1474 114.965 43.0655 115.917C44.1537 117.039 45.2758 118.195 46.908 118.535C48.8802 118.943 51.0565 117.923 52.9607 116.937C54.6609 116.087 56.4291 115.169 57.7212 113.775C58.9794 112.415 59.8635 110.714 61.3936 109.694C61.6657 109.524 61.9717 109.354 62.2437 109.286C62.7538 109.218 63.1958 109.524 63.5359 109.898C64.386 110.85 64.488 112.279 64.828 113.571C65.1681 114.863 65.7801 116.189 67.1063 116.461C68.8065 116.869 70.6087 115.339 71.7648 113.809C72.8869 112.279 73.8731 110.476 75.5052 109.558C76.0153 109.286 76.6954 109.116 77.1034 109.388C77.5455 109.728 77.6135 110.408 77.5455 110.986C77.4435 113.469 77.2734 116.019 77.1374 118.535C77.0694 119.555 76.7974 122.038 76.0493 122.956L30.6201 122.854Z" fill="#26C6DA"/>
<path d="M143.821 136.693H107.505C104.513 136.693 102.473 134.245 102.915 131.253L111.518 75.8942C111.96 72.9019 114.816 70.4536 117.808 70.4536H154.09C157.083 70.4536 159.123 72.9019 158.681 75.8942L150.078 131.253C149.636 134.245 146.814 136.693 143.821 136.693Z" fill="url(#paint4_linear)"/>
<path d="M156.878 71.3071C157.558 72.2592 157.83 73.5174 157.66 74.8775L149.057 130.236C148.615 133.228 145.758 135.676 142.766 135.676H106.518C105.43 135.676 104.478 135.336 103.729 134.826C104.512 135.949 105.872 136.697 107.572 136.697H143.854C146.846 136.697 149.669 134.248 150.145 131.256L158.748 75.8977C159.054 73.9594 158.238 72.2592 156.878 71.3071Z" fill="#B3CDFA"/>
<path d="M115.052 114.279H112.91L118.725 76.875H120.867L115.052 114.279Z" fill="#E1EBFD"/>
<path d="M120.658 114.278H118.516L124.296 76.9419H126.507L120.658 114.278Z" fill="#E1EBFD"/>
<path d="M126.274 114.278H124.063L129.878 76.9419H132.02L126.274 114.278Z" fill="#E1EBFD"/>
<path d="M131.812 114.278H129.67L135.485 76.9419H137.627L131.812 114.278Z" fill="#E1EBFD"/>
<path d="M137.426 114.278H135.284L141.065 76.9419H143.275L137.426 114.278Z" fill="#E1EBFD"/>
<path d="M142.999 114.278H140.789L146.638 76.9419H148.78L142.999 114.278Z" fill="#E1EBFD"/>
<path d="M115.05 114.275H112.908L115.458 97.7827H117.669L115.05 114.275Z" fill="url(#paint5_linear)"/>
<path d="M120.658 114.276H118.516L122.154 90.9834H124.296L120.658 114.276Z" fill="url(#paint6_linear)"/>
<path d="M126.274 114.279H124.063L128.246 87.5518H130.388L126.274 114.279Z" fill="url(#paint7_linear)"/>
<path d="M131.812 114.276H129.67L133.308 90.9834H135.451L131.812 114.276Z" fill="url(#paint8_linear)"/>
<path d="M137.426 114.274H135.284L139.943 84.1465H142.153L137.426 114.274Z" fill="url(#paint9_linear)"/>
<path d="M142.999 114.278H140.789L146.06 80.4438H148.27L142.999 114.278Z" fill="url(#paint10_linear)"/>
<path d="M119.848 124.142C119.508 126.625 117.196 128.631 114.747 128.631C112.299 128.631 110.599 126.591 110.939 124.142C111.279 121.66 113.591 119.654 116.039 119.654C118.488 119.62 120.188 121.66 119.848 124.142Z" fill="#89ADE9"/>
<path d="M141.882 121.559H122.567L122.805 120.369H142.052L141.882 121.559Z" fill="#E1EBFD"/>
<path d="M141.375 125.129H122.129L122.299 123.871H141.545L141.375 125.129Z" fill="#E1EBFD"/>
<path d="M129.773 128.632H121.612L121.782 127.374H129.943L129.773 128.632Z" fill="#E1EBFD"/>
<path d="M152.353 34.4806C151.673 34.2086 150.925 33.9706 150.21 33.8005L148.238 33.1885L148.748 33.5965C148.408 33.5285 148 33.5285 147.66 33.5285C140.179 33.5285 132.868 39.5812 131.304 47.0621C130.182 52.5027 132.392 57.1612 136.507 59.3035L136.405 59.4055L137.867 59.8475C139.125 60.2896 140.519 60.5276 142.016 60.5276C149.496 60.5276 156.807 54.4749 158.371 46.994C159.527 41.3494 157.011 36.4188 152.353 34.4806Z" fill="#22B0C0"/>
<path d="M156.536 46.4837C154.937 53.9646 147.661 60.0173 140.18 60.0173C132.699 60.0173 127.938 53.9646 129.469 46.4837C131.067 39.0029 138.344 32.9502 145.824 32.9502C153.305 32.9502 158.066 39.0029 156.536 46.4837Z" fill="#26C6DA"/>
<path d="M154.772 46.4821C153.378 52.9429 147.053 58.2475 140.593 58.2475C134.132 58.2475 129.949 53.0109 131.309 46.4821C132.704 40.0214 139.028 34.7168 145.489 34.7168C151.95 34.7168 156.098 40.0214 154.772 46.4821Z" fill="white"/>
<path d="M153.649 46.4801C152.391 52.3628 146.679 57.1233 140.796 57.1233C134.913 57.1233 131.173 52.3628 132.431 46.4801C133.689 40.5975 139.402 35.8369 145.284 35.8369C151.099 35.8369 154.84 40.5975 153.649 46.4801Z" fill="#26C6DA"/>
<path opacity="0.3" d="M149.703 36.957L133.415 53.2789C134.027 54.299 134.877 55.1491 135.863 55.7612L152.321 39.2693C151.607 38.3172 150.757 37.5351 149.703 36.957Z" fill="white"/>
<path opacity="0.3" d="M132.361 46.4801C131.919 48.5884 132.123 50.4926 132.803 52.1588L148.547 36.415C147.527 36.0069 146.439 35.8369 145.215 35.8369C143.242 35.8369 141.304 36.415 139.502 37.2991L133.517 43.3178C133.007 44.3379 132.599 45.392 132.361 46.4801Z" fill="white"/>
<path d="M144.163 47.7367C146.849 47.7367 148.617 46.5125 149.025 44.3703C149.399 42.262 148.005 41.0039 145.319 41.0039H141.034L139.64 48.9948H138.076L137.838 50.321H139.402L138.926 53.0073H140.49L140.966 50.321H146.407L146.645 48.9948H141.204L141.442 47.6687H144.163V47.7367ZM142.36 42.4321H145.081C146.917 42.4321 147.665 43.0781 147.461 44.4383C147.223 45.7985 146.237 46.4445 144.401 46.4445H141.68L142.36 42.4321Z" fill="#F9F7F9"/>
<path d="M114.542 58.7203C113.692 62.1887 110.292 64.943 106.857 64.943C103.423 64.943 101.315 62.1547 102.165 58.7203C103.015 55.2519 106.415 52.4976 109.85 52.4976C113.25 52.5316 115.324 55.3199 114.542 58.7203Z" fill="#E3EDFE"/>
<path d="M113.183 53.7236C114.203 54.8458 114.611 56.5119 114.203 58.3822C113.353 61.8506 109.953 64.6049 106.519 64.6049C105.158 64.6049 103.968 64.1628 103.118 63.3467C103.968 64.2988 105.26 64.8769 106.859 64.8769C110.327 64.8769 113.761 62.0886 114.543 58.6542C115.054 56.682 114.475 54.8798 113.183 53.7236Z" fill="white"/>
<path d="M106.893 61.2713L105.261 59.1291L106.791 57.871L107.471 58.7891L110.701 56.2388L111.619 57.4969L106.893 61.2713Z" fill="#3457B4"/>
</g>
<defs>
<linearGradient id="paint0_linear" x1="55.5903" y1="22.7484" x2="155.046" y2="22.7484" gradientUnits="userSpaceOnUse">
<stop stop-color="#6092E9"/>
<stop offset="0.442" stop-color="#3C6EC6"/>
<stop offset="1" stop-color="#2D60BC"/>
</linearGradient>
<linearGradient id="paint1_linear" x1="152.498" y1="23.4853" x2="155.328" y2="23.4853" gradientUnits="userSpaceOnUse">
<stop stop-color="#3457B4"/>
<stop offset="0.2224" stop-color="#3A5EB9"/>
<stop offset="0.5521" stop-color="#4C72C8"/>
<stop offset="0.9471" stop-color="#6893DF"/>
<stop offset="1" stop-color="#6C98E3"/>
</linearGradient>
<linearGradient id="paint2_linear" x1="87.941" y1="84.2091" x2="57.9743" y2="39.5046" gradientUnits="userSpaceOnUse">
<stop stop-color="#E9F1FE"/>
<stop offset="1" stop-color="white"/>
</linearGradient>
<linearGradient id="paint3_linear" x1="77.3646" y1="126.071" x2="32.2447" y2="97.5854" gradientUnits="userSpaceOnUse">
<stop stop-color="#EEF4FE"/>
<stop offset="0.4655" stop-color="#F8FBFF"/>
<stop offset="1" stop-color="white"/>
</linearGradient>
<linearGradient id="paint4_linear" x1="150.722" y1="133.258" x2="111.286" y2="74.4291" gradientUnits="userSpaceOnUse">
<stop stop-color="#EEF4FE"/>
<stop offset="0.4655" stop-color="#F8FBFF"/>
<stop offset="1" stop-color="white"/>
</linearGradient>
<linearGradient id="paint5_linear" x1="112.896" y1="106.047" x2="117.633" y2="106.047" gradientUnits="userSpaceOnUse">
<stop stop-color="#6092E9"/>
<stop offset="0.442" stop-color="#3C6EC6"/>
<stop offset="1" stop-color="#2D60BC"/>
</linearGradient>
<linearGradient id="paint6_linear" x1="118.503" y1="102.65" x2="124.255" y2="102.65" gradientUnits="userSpaceOnUse">
<stop stop-color="#6092E9"/>
<stop offset="0.442" stop-color="#3C6EC6"/>
<stop offset="1" stop-color="#2D60BC"/>
</linearGradient>
<linearGradient id="paint7_linear" x1="124.057" y1="100.924" x2="130.373" y2="100.924" gradientUnits="userSpaceOnUse">
<stop stop-color="#6092E9"/>
<stop offset="0.442" stop-color="#3C6EC6"/>
<stop offset="1" stop-color="#2D60BC"/>
</linearGradient>
<linearGradient id="paint8_linear" x1="129.65" y1="102.65" x2="135.402" y2="102.65" gradientUnits="userSpaceOnUse">
<stop stop-color="#6092E9"/>
<stop offset="0.442" stop-color="#3C6EC6"/>
<stop offset="1" stop-color="#2D60BC"/>
</linearGradient>
<linearGradient id="paint9_linear" x1="135.267" y1="99.2205" x2="142.091" y2="99.2205" gradientUnits="userSpaceOnUse">
<stop stop-color="#6092E9"/>
<stop offset="0.442" stop-color="#3C6EC6"/>
<stop offset="1" stop-color="#2D60BC"/>
</linearGradient>
<linearGradient id="paint10_linear" x1="140.812" y1="97.3815" x2="148.256" y2="97.3815" gradientUnits="userSpaceOnUse">
<stop stop-color="#6092E9"/>
<stop offset="0.442" stop-color="#3C6EC6"/>
<stop offset="1" stop-color="#2D60BC"/>
</linearGradient>
</defs>
</svg>
