<svg xmlns="http://www.w3.org/2000/svg" width="470" height="500" fill="none" viewBox="0 0 470 500">
    <g clip-path="url(#a)">
        <path fill="url(#b)" d="M159.397 262.998l236.144 136.394c2.024 1.182 2.024 4.22 0 5.402l-131.06 75.793c-5.904 3.376-13.325 3.376-19.229 0L18.554 349.594c-2.024-1.181-2.024-4.22 0-5.401l140.843-81.195z" opacity=".16"/>
        <path fill="url(#c)" d="M166.65 203.072l31.542-187.373-2.53-1.013 3.879-2.195c.675-.506 1.856-.506 2.868.17l252.168 145.678c2.024 1.181 3.71 4.22 3.204 6.414l-31.879 188.893c-.169 1.013-.675 1.688-1.349 1.857l-3.711 2.194-.675-3.545h.169l-250.65-144.834c-1.855-1.013-3.373-4.051-3.036-6.246z"/>
        <path fill="url(#d)" d="M453.227 163.572l4.217-1.857c.506 1.013.675 2.194.506 3.038l-31.879 188.893c-.169 1.013-.675 1.688-1.35 1.857l-3.711 2.194-.674-3.545h.168l-12.65-7.258 45.373-183.322z"/>
        <path fill="url(#e)" d="M165.975 211.85l252.168 145.679c2.024 1.181 3.542.506 3.879-1.52l31.88-188.892c.337-2.195-1.181-5.233-3.205-6.415L198.529 15.024c-2.024-1.182-3.542-.507-3.879 1.519l-31.88 188.892c-.337 2.026 1.181 5.233 3.205 6.415z"/>
        <path fill="#4553C7" d="M201.734 27.009l243.059 140.445-30.192 177.921L171.71 204.929l30.024-177.92z" opacity=".51"/>
        <path fill="url(#f)" d="M7.422 301.148l13.83 7.258 137.976-79.676c2.362-1.35 6.41-1.181 8.94.338l237.999 137.576c2.362-1.35 12.651-6.246 12.651-6.246l-5.061 13.167c-.168.506-.674 1.182-1.349 1.519L267.011 458.98c-2.361 1.351-6.41 1.182-8.94-.337L14.506 317.859c-1.012-.675-1.687-1.35-2.024-2.194l-5.06-14.517z"/>
        <path fill="#D1E1FC" d="M9.614 303.511L259.252 447.67c2.699 1.52 6.916 1.688 9.277.338l148.939-86.091c2.362-1.35 2.024-3.713-.674-5.401l-249.638-144.16c-2.699-1.519-6.916-1.688-9.277-.337l-148.94 86.09c-2.36 1.351-2.023 3.714.675 5.402z"/>
        <path fill="#2859CB" d="M334.481 416.441v-2.701c0-.337-.169-.337-.338-.337l-9.614 5.57c-.169.169-.337.338-.337.676v2.701c0 .337.168.337.337.337l9.614-5.57c.169-.169.338-.338.338-.676zM319.975 424.882v-2.87c0-.338-.169-.338-.338-.338l-9.614 5.571c-.169.169-.337.337-.337.675v2.701c0 .338.168.338.337.338l9.614-5.571c.169 0 .338-.338.338-.506z"/>
        <path fill="#ADC8FF" d="M378.505 353.984l-207.47-119.852a4.114 4.114 0 0 0-4.385 0L92.77 276.84c-1.011.675-1.011 2.194 0 2.701l207.301 119.851a4.115 4.115 0 0 0 4.386 0l73.879-42.707c1.181-.676 1.181-2.195.169-2.701z"/>
        <path fill="#D1E1FC" d="M378.505 356.685l-.675.506-206.626-119.345a4.114 4.114 0 0 0-4.385 0l-73.036 42.37-.675-.506c-1.012-.676-1.012-2.195 0-2.701l73.879-42.708a4.115 4.115 0 0 1 4.386 0l207.469 119.852c.675.337.675 1.856-.337 2.532z"/>
        <path fill="#1449A8" d="M161.084 244.936l180.144 104.152 8.096-4.726L169.18 240.209l-8.096 4.727zM141.518 256.246l168.842 97.738 8.097-4.727-169.012-97.569-7.927 4.558zM128.698 263.673l198.867 114.956 8.096-4.726-199.035-114.956-7.928 4.726zM115.879 271.101l198.867 114.956 8.096-4.727-199.035-114.956-7.928 4.727zM103.06 278.359l199.035 114.956 7.928-4.558-198.867-114.956-8.096 4.558zM352.191 355.334l7.928 4.558 8.096-4.558-8.096-4.727-7.928 4.727zM323.854 361.749l16.699 9.453 7.928-4.558-16.53-9.622-8.097 4.727z"/>
        <path fill="url(#g)" d="M163.108 382.849l-56-32.242c-2.193-1.181-2.193-3.376 0-4.557l38.289-22.114c2.193-1.181 5.735-1.181 7.928 0l55.999 32.242c2.193 1.182 2.193 3.376 0 4.558l-38.289 22.113c-2.192 1.351-5.734 1.351-7.927 0z"/>
        <path fill="#91AFFF" d="M209.325 358.204l-56-32.411c-2.193-1.181-5.735-1.181-7.928 0l-38.289 22.114c-.675.337-1.181.844-1.349 1.35-.506-1.182-.169-2.363 1.349-3.207l38.289-22.114c2.193-1.181 5.735-1.181 7.928 0l56 32.242c1.518.844 2.024 2.194 1.349 3.207-.337-.337-.675-.844-1.349-1.181z"/>
        <g opacity=".11">
            <path fill="url(#h)" d="M166.819 212.187l249.637 144.16c2.699 1.519 6.916 1.688 9.277.337l148.939-86.09c2.362-1.351 2.025-3.714-.674-5.402L324.36 121.033c-2.699-1.519-6.915-1.688-9.277-.338l-148.939 86.091c-2.362 1.35-2.024 3.713.675 5.401z" opacity=".11"/>
            <path fill="url(#i)" d="M417.131 238.015l-56-32.242c-2.193-1.182-2.193-3.376 0-4.558l38.289-22.113c2.193-1.182 5.735-1.182 7.928 0l56 32.242c2.192 1.181 2.192 3.376 0 4.557l-38.289 22.114c-2.193 1.181-5.735 1.181-7.928 0z" opacity=".11"/>
            <path fill="#91AFFF" d="M463.348 213.2l-56-32.241c-2.193-1.182-5.735-1.182-7.928 0l-38.289 22.113c-.675.338-1.181.844-1.349 1.351-.506-1.182-.169-2.364 1.349-3.208l38.289-22.113c2.193-1.182 5.735-1.182 7.928 0l56 32.242c1.518.844 2.024 2.194 1.349 3.207-.169-.507-.675-1.013-1.349-1.351z" opacity=".11"/>
            <g opacity=".11">
                <path fill="#ADC8FF" d="M487.974 288.487L280.505 168.636a4.115 4.115 0 0 0-4.386 0l-73.879 42.707c-1.012.676-1.012 2.195 0 2.701l207.301 119.852a4.114 4.114 0 0 0 4.385 0l73.879-42.708c1.181-.506 1.181-2.026.169-2.701z" opacity=".11"/>
                <path fill="#91AFFF" d="M487.974 291.188l-.675.507L280.674 172.35a4.115 4.115 0 0 0-4.386 0l-73.036 42.37-.674-.507c-1.012-.675-1.012-2.194 0-2.701l73.879-42.707a4.114 4.114 0 0 1 4.385 0l207.469 119.851c.675.507.675 2.026-.337 2.532z" opacity=".11"/>
                <g fill="#242993" opacity=".11">
                    <path d="M221.469 208.474l180.819 104.49-7.253 4.051-180.65-104.321 7.084-4.22zM240.529 197.501l171.71 99.258-7.084 4.051-171.71-99.257 7.084-4.052zM425.227 304.186l16.024 9.284-7.253 4.051-16.024-9.284 7.253-4.051zM411.059 318.028l11.132 6.414-7.253 4.052-11.132-6.415 7.253-4.051zM252.505 190.58l200.553 115.969-7.084 4.052L245.421 194.8l7.084-4.22zM264.481 183.659l200.553 115.969-7.084 4.051-200.722-115.8 7.253-4.22zM276.288 176.907l200.722 115.8-7.253 4.22-200.553-115.969 7.084-4.051z" opacity=".11"/>
                </g>
            </g>
        </g>
        <path fill="url(#j)" d="M282.36 343.18l53.807-33.086-120.77-69.885-57.181 38.487L282.36 343.18z" opacity=".42"/>
        <path fill="url(#k)" d="M336.167 310.094l12.314-77.819-113.349-65.158v84.402l101.035 58.575z" opacity=".42"/>
        <path fill="#D1E1FC" d="M223.156 129.304l11.976-6.921c.168-.169.337-.169.674 0l150.458 86.935c.506.337.843 1.013.843 1.688v28.359c0 .338-.169.506-.169.675l-12.144 6.921-.169-13.673-138.819-80.182c-.506-.338-.843-1.013-.843-1.688v-9.622l-11.807-12.492z"/>
        <path fill="#ADC8FF" d="M223.662 160.195l150.457 86.935c.506.337.843 0 .843-.675v-28.36c0-.675-.337-1.35-.843-1.688l-150.457-86.934c-.506-.338-.844 0-.844.675v28.359c0 .675.506 1.351.844 1.688z"/>
        <path fill="#242993" d="M244.409 154.456l117.059 68.873c-3.542 3.038-7.084 6.752-10.12 10.634l-117.903-68.197c3.373-4.22 7.084-8.102 10.964-11.31z" opacity=".6"/>
        <path fill="#1449A8" d="M228.047 151.587l141.855 81.87c.338.169.675 0 .675-.507v-7.089c0-.507-.337-1.013-.675-1.182l-141.855-81.87c-.337-.169-.674 0-.674.506v7.09c0 .506.337 1.013.674 1.182z"/>
        <path fill="url(#l)" d="M228.047 142.809l2.868 1.688v3.882c0 .507.337 1.013.674 1.182l138.988 80.351v3.207c0 .507-.337.675-.675.507l-141.855-81.871c-.337-.168-.674-.675-.674-1.181v-7.09c0-.675.337-.844.674-.675z"/>
        <path fill="url(#m)" d="M148.433 458.98L30.361 390.952c15.181-8.778 28-28.022 32.048-46.421 1.519-7.428 6.073-14.011 12.82-17.725l89.06-51.654c24.795-14.349 40.987-40.176 42.674-68.873 1.349-24.139 19.735-47.94 33.904-56.212l117.903 68.198c-14 8.102-29.35 30.553-31.036 54.355-2.193 28.697-17.711 54.524-42.506 68.872L193.3 394.666c-6.578 3.882-11.132 10.297-12.819 17.724-4.048 18.569-16.867 37.812-32.048 46.59z" opacity=".96"/>
        <path fill="url(#n)" d="M240.698 150.236l117.903 68.197c-1.012.507-1.855 1.182-2.867 1.688l-117.735-68.197c.843-.506 1.855-1.182 2.699-1.688z"/>
        <path fill="#1449A8" d="M285.059 230.925l20.747 11.985.169-2.532-20.747-11.816-.169 2.363zM274.601 224.848l7.422 4.22.169-2.363-7.253-4.22-.338 2.363zM266.674 220.122l4.891 2.869.169-2.363-4.892-2.701-.168 2.195zM293.999 241.728l11.47 6.584.168-2.363-11.469-6.584-.169 2.363zM277.132 231.938l13.662 7.934.337-2.364-13.831-7.934-.168 2.364zM269.035 227.211l5.06 2.87.169-2.363-4.892-2.87-.337 2.363zM261.445 222.654l4.891 2.869.338-2.194-4.892-2.87-.337 2.195zM296.698 248.987l8.265 4.896.168-2.364-8.265-4.895-.168 2.363zM290.794 245.442l2.699 1.688.169-2.363-2.699-1.688-.169 2.363zM282.529 240.716l5.06 2.869.169-2.363-5.06-2.87-.169 2.364zM274.264 241.56l30.361 17.893.169-2.532-30.193-17.725-.337 2.364zM263.806 235.483l7.422 4.22.169-2.363-7.253-4.22-.338 2.363zM295.854 260.128l8.434 4.895.169-2.363-8.434-4.895-.169 2.363zM276.625 248.649l16.024 9.622.169-2.532-16.024-9.453-.169 2.363zM268.36 243.923l5.061 2.87.337-2.364-5.06-2.869-.338 2.363zM286.746 260.635l17.036 10.128.169-2.532-17.036-10.128-.169 2.532zM271.397 251.519l12.144 7.09.169-2.363-11.976-7.259-.337 2.532zM260.264 244.767l8.096 4.895.169-2.532-7.928-4.726-.337 2.363zM297.541 272.957l5.904 3.545.168-2.532-5.735-3.545-.337 2.532zM286.746 266.543l7.59 4.558.169-2.532-7.59-4.558-.169 2.532zM271.397 257.259l12.144 7.258.169-2.363-11.976-7.259-.337 2.364zM285.228 271.607l17.879 10.634.169-2.532-17.879-10.634-.169 2.532zM265.662 259.791l16.361 9.79.169-2.532-16.193-9.79-.337 2.532zM257.565 254.895l5.061 3.039.168-2.532-5.06-3.039-.169 2.532zM249.806 250.169l4.892 3.038.337-2.363-5.06-3.039-.169 2.364zM291.806 281.566l10.795 6.584.169-2.701-10.627-6.415-.337 2.532zM244.577 207.292l-13.494-7.765.338-2.194 13.325 7.765-.169 2.194zM241.035 210.837l-10.626-6.246.337-2.194 10.458 6.077-.169 2.363zM237.493 214.213l-7.759-4.557.337-2.195 7.591 4.558-.169 2.194zM240.361 221.472l-11.302-6.583.338-2.195 11.132 6.583-.168 2.195zM236.144 224.679l-7.759-4.557.337-2.364 7.59 4.558-.168 2.363zM237.493 231.263l-9.783-5.909.337-2.363 9.783 5.908-.337 2.364zM232.264 233.963l-5.229-3.207.169-2.363 5.398 3.207-.338 2.363zM236.818 242.404l-10.626-6.415.337-2.363 10.458 6.415-.169 2.363zM235.469 247.468l-9.952-6.077.338-2.363 9.951 6.077-.337 2.363zM284.047 276.84l4.554 2.701.169-2.532-4.386-2.701-.337 2.532zM270.891 268.906l9.951 6.077.169-2.532-9.952-6.077-.168 2.532zM208.987 309.081l-30.867-17.893 2.193-1.182 30.867 17.725-2.193 1.35zM226.867 319.378l-11.133-6.414 2.193-1.351 11.132 6.415-2.192 1.35zM235.638 324.443l-3.205-1.857 2.193-1.182 3.204 1.857-2.192 1.182zM252.505 334.233l-11.132-6.414 2.192-1.351 11.133 6.415-2.193 1.35zM182.674 299.122l-9.108-5.233 2.192-1.351 9.109 5.233-2.193 1.351zM222.312 321.91l-32.891-18.906 2.193-1.35 32.891 19.075-2.193 1.181zM231.252 327.143l-3.373-1.857 2.192-1.35 3.374 1.857-2.193 1.35zM247.951 336.765l-11.133-6.414 2.193-1.182 11.133 6.415-2.193 1.181zM173.566 299.122l-4.555-2.701 2.193-1.182 4.554 2.532-2.192 1.351zM185.71 306.043l-5.397-3.039 2.192-1.181 5.398 3.038-2.193 1.182zM194.65 311.276l-3.374-1.857 2.193-1.35 3.374 1.856-2.193 1.351zM211.349 320.897l-11.133-6.414 2.193-1.182 11.132 6.415-2.192 1.181zM173.566 304.355l-9.109-5.233 2.193-1.182 9.108 5.064-2.192 1.351zM191.445 314.652l-11.132-6.415 2.192-1.35 11.133 6.414-2.193 1.351zM200.385 319.716l-3.374-1.857 2.193-1.182 3.374 1.857-2.193 1.182zM217.084 329.506l-11.133-6.414 2.193-1.351 11.132 6.415-2.192 1.35zM190.433 319.716l-30.867-17.725 2.192-1.35 30.868 17.893-2.193 1.182zM208.312 330.013l-11.132-6.415 2.193-1.181 11.132 6.414-2.193 1.182zM217.252 335.246l-3.373-1.857 2.192-1.35 3.374 1.856-2.193 1.351zM233.951 344.868l-11.133-6.415 2.193-1.182 11.133 6.415-2.193 1.182zM164.12 309.756l-8.94-5.233 2.193-1.181 8.94 5.233-2.193 1.181zM203.758 332.714l-32.891-19.075 2.193-1.182 32.891 18.906-2.193 1.351zM212.698 337.778l-3.374-1.857 2.193-1.181 3.374 1.856-2.193 1.182zM229.397 347.569l-11.133-6.415 2.193-1.35 11.132 6.414-2.192 1.351zM155.011 309.756l-4.385-2.532 2.193-1.35 4.385 2.701-2.193 1.181zM167.156 316.846l-5.398-3.207 2.193-1.182 5.398 3.039-2.193 1.35zM176.096 321.91l-3.205-1.857 2.193-1.181 3.204 1.857-2.192 1.181zM192.794 331.701l-11.132-6.414 2.193-1.351 11.132 6.415-2.193 1.35zM155.011 314.989l-8.939-5.233 2.192-1.181 8.94 5.233-2.193 1.181zM172.891 325.287l-11.133-6.415 2.193-1.182 11.133 6.415-2.193 1.182zM181.831 330.52l-3.374-1.857 2.193-1.351 3.373 1.857-2.192 1.351zM198.529 340.141l-11.132-6.414 2.193-1.182 11.132 6.415-2.193 1.181zM171.879 330.351l-30.699-17.725 2.193-1.181 30.699 17.724-2.193 1.182zM189.758 340.817l-11.132-6.415 2.193-1.35 11.132 6.414-2.193 1.351zM198.698 345.881l-3.205-1.857 2.193-1.35 3.205 2.025-2.193 1.182zM215.397 355.503l-11.133-6.415 2.193-1.181 11.133 6.414-2.193 1.182zM145.566 320.391l-8.94-5.064 2.193-1.35 8.939 5.233-2.192 1.181zM185.204 343.349l-32.891-18.906 2.192-1.351 32.892 19.075-2.193 1.182zM194.144 348.582l-3.205-1.857 2.193-1.35 3.205 1.856-2.193 1.351zM210.843 358.204l-11.133-6.415 2.193-1.182 11.132 6.415-2.192 1.182zM136.457 320.56l-4.385-2.701 2.193-1.181 4.385 2.532-2.193 1.35zM148.602 327.481l-5.229-3.038 2.193-1.351 5.229 3.208-2.193 1.181zM157.542 332.714l-3.205-2.025 2.193-1.182 3.204 1.857-2.192 1.35zM174.24 342.336l-10.964-6.414 2.193-1.351 10.964 6.415-2.193 1.35zM136.457 325.793l-8.939-5.233 2.192-1.35 8.94 5.233-2.193 1.35zM154.337 336.09l-11.133-6.414 2.193-1.351 11.133 6.415-2.193 1.35zM163.276 341.154l-3.204-1.857 2.192-1.181 3.205 1.857-2.193 1.181zM179.975 350.945l-11.132-6.415 2.192-1.35 11.133 6.415-2.193 1.35z"/>
    </g>
    <defs>
        <linearGradient id="b" x1="17.066" x2="396.947" y1="373.054" y2="373.054" gradientUnits="userSpaceOnUse">
            <stop stop-color="#2842A2"/>
            <stop offset="1" stop-color="#6C98E3"/>
        </linearGradient>
        <linearGradient id="c" x1="457.905" x2="166.616" y1="184.972" y2="184.972" gradientUnits="userSpaceOnUse">
            <stop stop-color="#2842A2"/>
            <stop offset="1" stop-color="#6C98E3"/>
        </linearGradient>
        <linearGradient id="d" x1="457.904" x2="407.886" y1="259.733" y2="259.733" gradientUnits="userSpaceOnUse">
            <stop stop-color="#2842A2"/>
            <stop offset="1" stop-color="#6C98E3"/>
        </linearGradient>
        <linearGradient id="e" x1="162.66" x2="453.949" y1="186.245" y2="186.245" gradientUnits="userSpaceOnUse">
            <stop stop-color="#2842A2"/>
            <stop offset="1" stop-color="#6C98E3"/>
        </linearGradient>
        <linearGradient id="f" x1="418.879" x2="7.484" y1="343.772" y2="343.772" gradientUnits="userSpaceOnUse">
            <stop stop-color="#2842A2"/>
            <stop offset="1" stop-color="#6C98E3"/>
        </linearGradient>
        <linearGradient id="g" x1="210.943" x2="105.581" y1="353.429" y2="353.429" gradientUnits="userSpaceOnUse">
            <stop stop-color="#C0D6FF"/>
            <stop offset=".298" stop-color="#C5DBFF"/>
            <stop offset=".649" stop-color="#D3E9FF"/>
            <stop offset="1" stop-color="#E9FFFF"/>
        </linearGradient>
        <linearGradient id="h" x1="437.909" x2="26.295" y1="238.74" y2="238.74" gradientUnits="userSpaceOnUse">
            <stop stop-color="#C0D6FF"/>
            <stop offset=".298" stop-color="#C5DBFF"/>
            <stop offset=".649" stop-color="#D3E9FF"/>
            <stop offset="1" stop-color="#E9FFFF"/>
        </linearGradient>
        <linearGradient id="i" x1="465" x2="359.639" y1="208.501" y2="208.501" gradientUnits="userSpaceOnUse">
            <stop stop-color="#C0D6FF"/>
            <stop offset=".298" stop-color="#C5DBFF"/>
            <stop offset=".649" stop-color="#D3E9FF"/>
            <stop offset="1" stop-color="#E9FFFF"/>
        </linearGradient>
        <radialGradient id="j" cx="0" cy="0" r="1" gradientTransform="matrix(-118.001 0 0 -118.093 298.983 291.764)" gradientUnits="userSpaceOnUse">
            <stop stop-color="#2B3AA5"/>
            <stop offset="1" stop-color="#182484"/>
        </radialGradient>
        <radialGradient id="k" cx="0" cy="0" r="1" gradientTransform="matrix(-90.3229 0 0 -90.393 324.791 238.639)" gradientUnits="userSpaceOnUse">
            <stop stop-color="#2B3AA5"/>
            <stop offset="1" stop-color="#182484"/>
        </radialGradient>
        <linearGradient id="l" x1="227.422" x2="370.443" y1="188.227" y2="188.227" gradientUnits="userSpaceOnUse">
            <stop stop-color="#2842A2"/>
            <stop offset="1" stop-color="#6C98E3"/>
        </linearGradient>
        <linearGradient id="m" x1="116.428" x2="284.938" y1="451.482" y2="153.129" gradientUnits="userSpaceOnUse">
            <stop stop-color="#C0D6FF"/>
            <stop offset=".078" stop-color="#C3D9FF"/>
            <stop offset=".134" stop-color="#CCE2FF"/>
            <stop offset=".183" stop-color="#DCF2FF"/>
            <stop offset=".212" stop-color="#E9FFFF"/>
            <stop offset=".256" stop-color="#D8EEFF"/>
            <stop offset=".315" stop-color="#CBE1FF"/>
            <stop offset=".387" stop-color="#C2D8FF"/>
            <stop offset=".514" stop-color="#C0D6FF"/>
            <stop offset=".624" stop-color="#D0E6FF"/>
            <stop offset=".755" stop-color="#E9FFFF"/>
            <stop offset="1" stop-color="#C0D6FF"/>
        </linearGradient>
        <linearGradient id="n" x1="237.939" x2="358.714" y1="185.181" y2="185.181" gradientUnits="userSpaceOnUse">
            <stop stop-color="#2842A2"/>
            <stop offset="1" stop-color="#6C98E3"/>
        </linearGradient>
        <clipPath id="a">
            <path fill="#fff" d="M0 0h469.589v500H0z"/>
        </clipPath>
    </defs>
</svg>
