<svg xmlns="http://www.w3.org/2000/svg" width="56" height="56" fill="none" viewBox="0 0 56 56">
    <path fill="#000" stroke="#000" stroke-width=".8" d="M53.043 37.783h-3.317l.003-22.472a3.935 3.935 0 0 0-3.931-3.931h-35.6a3.935 3.935 0 0 0-3.93 3.93v22.468h-3.31a.528.528 0 0 0-.527.528v1.45a4.867 4.867 0 0 0 4.86 4.86H48.71a4.867 4.867 0 0 0 4.861-4.86v-1.453a.526.526 0 0 0-.527-.52zM7.32 15.31a2.881 2.881 0 0 1 2.878-2.88h35.604a2.881 2.881 0 0 1 2.879 2.88v22.467H34.138a.528.528 0 0 0-.527.528v1.41H22.39v-1.413a.528.528 0 0 0-.527-.527l-14.543.002V15.311zm45.202 24.442c0 2.1-1.708 3.813-3.812 3.813l-41.419.002a3.817 3.817 0 0 1-3.812-3.812v-.923l17.859-.003v1.411c0 .291.236.527.527.527H34.14a.527.527 0 0 0 .527-.527v-1.41h17.86l-.006.922z"/>
    <path fill="#3667BD" stroke="#3667BD" stroke-width=".5" d="M37.233 25.9c0-5.09-4.143-9.233-9.233-9.233-5.09 0-9.233 4.143-9.233 9.233 0 5.09 4.143 9.233 9.233 9.233 5.09 0 9.233-4.143 9.233-9.233zm-17.414 0c0-4.512 3.672-8.18 8.18-8.18 4.513 0 8.182 3.672 8.182 8.18 0 4.509-3.669 8.181-8.181 8.181-4.513 0-8.181-3.668-8.181-8.18z"/>
    <g clip-path="url(#a)">
        <path fill="#3667BD" d="M28.817 27.323c1.872 0 2.994-1.013 2.994-2.723s-1.122-2.722-2.994-2.722h-2.995v6.534h-1.089V29.5h1.09v2.178h1.088V29.5h3.811v-1.088h-3.81v-1.09h1.905zm-1.906-4.356h1.906c1.285 0 1.905.533 1.905 1.633s-.62 1.634-1.905 1.634H26.91v-3.267z"/>
    </g>
    <defs>
        <clipPath id="a">
            <path fill="#fff" d="M0 0h10.889v10.889H0z" transform="translate(22.556 21.334)"/>
        </clipPath>
    </defs>
</svg>
