<svg xmlns="http://www.w3.org/2000/svg" width="56" height="56" fill="none" viewBox="0 0 72 72">
    <g clip-path="url(#a)">
        <path fill="#000" stroke="#000" d="M61.905 14H5.763A4.77 4.77 0 0 0 1 18.764v31.473A4.77 4.77 0 0 0 5.763 55h56.142a4.77 4.77 0 0 0 4.763-4.764V18.764A4.77 4.77 0 0 0 61.905 14zM5.763 15.361h56.142a3.406 3.406 0 0 1 3.402 3.402v2.552H2.361v-2.552a3.406 3.406 0 0 1 3.402-3.402zm59.544 7.315v6.125H2.361v-6.125h62.946zM61.905 53.64H5.763a3.406 3.406 0 0 1-3.402-3.403V30.162h62.946v20.075a3.406 3.406 0 0 1-3.402 3.402z"/>
        <circle cx="55.5" cy="51.5" r="11.5" fill="#fff"/>
        <path fill="#000" stroke="#000" stroke-width=".3" d="M46.42 72.68l5.208-9.36c2.524.803 5.236.803 7.76 0l5.19 9.36 2.453-5.16 5.8 1.818-6.188-11.887a12.81 12.81 0 1 0-22.285 0l-6.185 11.887 5.8-1.818 2.448 5.16zm23.295-5.952l-3.51-1.1-1.735 3.647-3.62-6.513a12.861 12.861 0 0 0 4.79-3.837l4.075 7.803zm-25.462-15.6a11.249 11.249 0 0 1 11.252-11.25 11.248 11.248 0 0 1 11.25 11.253c0 2.984-1.187 5.845-3.298 7.955a11.245 11.245 0 0 1-15.91-.006 11.26 11.26 0 0 1-3.3-7.953h.006zm1.095 7.8a12.855 12.855 0 0 0 4.81 3.837l-3.628 6.513-1.735-3.638-3.51 1.1 4.063-7.812z"/>
        <path fill="#3667BD" stroke="#3667BD" stroke-width=".6" d="M55.5 57.45a6.337 6.337 0 1 0-6.337-6.322A6.346 6.346 0 0 0 55.5 57.45zm0-11.115a4.777 4.777 0 1 1-4.778 4.793A4.785 4.785 0 0 1 55.5 46.35v-.015z"/>
    </g>
    <defs>
        <clipPath id="a">
            <path fill="#fff" d="M0 0h72v72H0z"/>
        </clipPath>
    </defs>
</svg>
