<svg xmlns="http://www.w3.org/2000/svg" width="32" height="32" fill="none" viewBox="0 0 32 32">
    <path fill="#000" d="M7 28h18a.5.5 0 0 0 .5-.5v-23A.5.5 0 0 0 25 4H12a.5.5 0 0 0-.5.5v5.292l-4.854 4.854A.5.5 0 0 0 6.5 15v3a.5.5 0 0 0 .5.5h2v4H7a.5.5 0 0 0-.5.5v4.5a.5.5 0 0 0 .5.5zm.5-4.5h2a.5.5 0 0 0 .5-.5v-5a.5.5 0 0 0-.5-.5h-2v-2.292l4.854-4.854A.5.5 0 0 0 12.5 10V5h12v22h-17v-3.5z"/>
    <path fill="#000" d="M14.5 9.5A.5.5 0 0 0 15 9V6.5a.5.5 0 1 0-1 0V9a.5.5 0 0 0 .5.5zM16.5 9.5A.5.5 0 0 0 17 9V6.5a.5.5 0 1 0-1 0V9a.5.5 0 0 0 .5.5zM18.5 9.5A.5.5 0 0 0 19 9V6.5a.5.5 0 1 0-1 0V9a.5.5 0 0 0 .5.5zM20.5 9.5A.5.5 0 0 0 21 9V6.5a.5.5 0 1 0-1 0V9a.5.5 0 0 0 .5.5zM22.5 6a.5.5 0 0 0-.5.5V9a.5.5 0 1 0 1 0V6.5a.5.5 0 0 0-.5-.5zM22.5 15h-9a.5.5 0 0 0-.5.5V25a.5.5 0 0 0 .5.5h9a.5.5 0 0 0 .5-.5v-9.5a.5.5 0 0 0-.5-.5zm-.5 9.5h-8V16h8v8.5z"/>
</svg>
