<svg xmlns="http://www.w3.org/2000/svg" width="72" height="72" fill="none" viewBox="0 0 72 72">
    <path fill="#fff" stroke="#3667BD" stroke-width=".2" d="M45.916 64.782a1.088 1.088 0 0 1-.479.118h-.018c-.391 0-.77-.206-.97-.57l-5.356-9.637-.057-.102-.093.072-6.132 4.796a1.108 1.108 0 1 1-1.791-.873v-33.46a1.111 1.111 0 0 1 1.893-.786L57.08 48.507a1.111 1.111 0 0 1-.786 1.893h-7.782l.082.149 5.044 9.078a1.107 1.107 0 0 1-.472 1.53l-7.25 3.625zM39.37 51.808h.007c.073 0 .145.006.218.022h.002c.32.065.592.266.75.552l5.48 9.864.047.084.086-.043 5.084-2.544.094-.047-.051-.091-5.429-9.772a1.104 1.104 0 0 1 .012-1.099c.2-.344.564-.551.957-.551h6.99l-.17-.171L33.405 27.97l-.17-.17V56.312l.16-.127 5.298-4.141c.198-.155.434-.236.677-.237z"/>
    <path fill="#fff" stroke="#3667BD" stroke-width=".2" d="M26.244 41.021c-.18.409-.576.653-.996.659h-.017c-.15 0-.302-.031-.45-.096a17.9 17.9 0 0 1-9.488-10.015 17.917 17.917 0 0 1 .376-13.791C19.72 8.7 30.402 4.615 39.474 8.664a17.9 17.9 0 0 1 9.488 10.015 17.907 17.907 0 0 1-.374 13.791 1.107 1.107 0 1 1-2.024-.901c3.552-7.96-.035-17.327-7.992-20.88-7.955-3.547-17.324.033-20.88 7.99-3.553 7.96.034 17.327 7.99 20.88h.001c.559.246.81.903.561 1.462z"/>
</svg>
