<svg xmlns="http://www.w3.org/2000/svg" width="72" height="72" fill="none" viewBox="0 0 72 72">
    <path fill="#fff" d="M49.612 53.469c-10.752 0-19.502-8.747-19.502-19.502 0-10.753 8.75-19.502 19.502-19.502 10.756 0 19.502 8.746 19.502 19.502 0 10.752-8.746 19.502-19.502 19.502zm0-36.844c-9.562 0-17.342 7.78-17.342 17.342 0 9.562 7.78 17.342 17.342 17.342 9.563 0 17.342-7.78 17.342-17.342 0-9.563-7.78-17.342-17.342-17.342z"/>
    <path fill="#fff" d="M50.468 36.551c-.147 0-.293-.028-.434-.09l-11.441-4.997a1.081 1.081 0 0 1 .866-1.98l9.928 4.337v-9.656a1.08 1.08 0 0 1 2.16 0v11.306c0 .366-.183.704-.49.903-.18.118-.385.177-.59.177zM22.106 36.551H3.966a1.08 1.08 0 0 1 0-2.16h18.14a1.08 1.08 0 0 1 0 2.16zM27.529 28.212H9.385a1.08 1.08 0 0 1 0-2.16h18.14a1.08 1.08 0 0 1 .003 2.16zM27.529 44.893H9.385a1.08 1.08 0 0 1 0-2.16h18.14a1.08 1.08 0 0 1 .003 2.16zM65.759 63H3.966a1.08 1.08 0 0 1 0-2.16h61.793a1.08 1.08 0 0 1 0 2.16z"/>
    <path fill="#fff" d="M63.804 66.2a1.08 1.08 0 0 1-.65-1.943l2.973-2.236-3.009-2.467a1.08 1.08 0 0 1 1.367-1.67l4.07 3.341c.255.21.402.526.396.858a1.087 1.087 0 0 1-.43.84l-4.07 3.064a1.088 1.088 0 0 1-.647.213z"/>
</svg>
