<svg xmlns="http://www.w3.org/2000/svg" width="72" height="72" fill="none" viewBox="0 0 72 72">
    <path fill="#000" stroke="#000" stroke-width=".2" d="M56.345 20.203a.996.996 0 0 0-.338-.703L43.792 7.285A1.012 1.012 0 0 0 43.086 7h-25.73a2.672 2.672 0 0 0-2.668 2.667v51.667A2.67 2.67 0 0 0 17.357 64H53.68a2.67 2.67 0 0 0 2.667-2.666l-.002-41.13zM43.137 9.496L53.85 20.21H43.137V9.496zm11.18 52.475H16.719V9.031h24.387v10.54a2.672 2.672 0 0 0 2.668 2.665h10.543V61.97z"/>
    <path fill="#3667BD" stroke="#3667BD" d="M32.57 46.895l-5.098-5.1c-.385-.382-1.053-.384-1.436.001a1.015 1.015 0 0 0 .002 1.434l5.435 5.435.386.379c.385.383 1.05.383 1.436.002l11.709-11.71a1.02 1.02 0 0 0 .002-1.435 1.046 1.046 0 0 0-1.436 0l-11 10.994z"/>
</svg>
