<svg xmlns="http://www.w3.org/2000/svg" width="72" height="72" fill="none" viewBox="0 0 72 72">
    <path fill="#fff" stroke="#fff" stroke-width=".5" d="M64.44 18.646H8.137a4.18 4.18 0 0 0-4.177 4.177v30.96a4.18 4.18 0 0 0 4.177 4.177H64.44a4.18 4.18 0 0 0 4.177-4.177v-30.96a4.18 4.18 0 0 0-4.177-4.177zm2.737 35.067a2.734 2.734 0 0 1-2.737 2.736l-56.303-.002A2.734 2.734 0 0 1 5.4 53.71V36.216h61.703v17.497h.074zm0-18.937H5.4v-5.903h61.703v5.903h.074zm0-7.343H5.4v-4.607a2.734 2.734 0 0 1 2.736-2.737H64.44a2.734 2.734 0 0 1 2.736 2.737v4.607z"/>
    <path fill="#fff" stroke="#fff" stroke-width=".5" d="M58.033 51.047c-.143.143-.216.286-.216.433 0 .143.073.36.216.433.287.287.647.287.937 0a7.865 7.865 0 0 0 0-11.16c-.287-.287-.647-.287-.937 0-.286.287-.286.647 0 .936 2.52 2.664 2.52 6.838 0 9.358z"/>
    <path fill="#fff" stroke="#fff" stroke-width=".5" d="M55.943 49.607c0 .143.073.36.217.433.287.287.647.287.936 0a5.129 5.129 0 0 0 0-7.274c-.286-.287-.646-.287-.936 0-.287.287-.287.647 0 .937a3.867 3.867 0 0 1 0 5.473c-.144.07-.217.287-.217.43z"/>
    <path fill="#fff" stroke="#fff" stroke-width=".5" d="M54 47.663c0 .144.073.36.217.433.286.287.646.287.936 0 .937-.936.937-2.52 0-3.456-.287-.287-.647-.287-.936 0-.287.287-.287.647 0 .936.433.434.433 1.154 0 1.657-.144.143-.217.287-.217.43z"/>
</svg>
