<svg xmlns="http://www.w3.org/2000/svg" width="72" height="72" fill="none" viewBox="0 0 72 72">
    <path fill="#fff" stroke="#fff" stroke-width=".3" d="M5.625 12.24a.72.72 0 0 0-.585.72v38.88c0 .397.324.72.72.72h21.33l8.46 7.042a.72.72 0 0 0 .9 0l8.46-7.042h21.33c.397 0 .72-.323.72-.72V12.96a.721.721 0 0 0-.72-.72H5.625zm.855 1.44h59.04v37.44H44.64a.724.724 0 0 0-.45.158L36 58.095l-8.19-6.817a.723.723 0 0 0-.45-.158H6.48V13.68zm6.345 9.36a.725.725 0 0 0-.652.788c.036.396.39.689.787.652h46.08a.714.714 0 0 0 .515-.208.715.715 0 0 0 0-1.024.714.714 0 0 0-.515-.208H12.96a.545.545 0 0 0-.135 0zm0 8.64a.725.725 0 0 0-.652.788c.036.396.39.689.787.652h46.08a.714.714 0 0 0 .515-.208.715.715 0 0 0 0-1.024.714.714 0 0 0-.515-.208H12.96a.545.545 0 0 0-.135 0zm0 8.64a.725.725 0 0 0-.652.788c.036.396.39.689.787.652h24.48a.714.714 0 0 0 .515-.208.715.715 0 0 0 0-1.024.714.714 0 0 0-.515-.208H12.96a.545.545 0 0 0-.135 0z"/>
</svg>
