<svg xmlns="http://www.w3.org/2000/svg" width="72" height="72" fill="none" viewBox="0 0 72 72">
    <path fill="#fff" d="M36.225 50.36l-1.474.322v5.224c0 .34-.43.717-1.043.717h-2.916c-.614 0-1.043-.377-1.043-.717v-5.224l-1.477-.322a18.365 18.365 0 0 1-6.018-2.496l-1.27-.815-1.067 1.066-2.627 2.63c-.099.098-.237.147-.413.147-.288 0-.593-.138-.832-.377l-2.062-2.062c-.434-.436-.471-1.006-.23-1.245l3.696-3.696-.816-1.27a18.416 18.416 0 0 1-2.496-6.019l-.32-1.474h-1.51l-3.715.002c-.34 0-.717-.429-.717-1.043v-2.915c0-.614.377-1.043.717-1.043h5.227l.32-1.477a18.362 18.362 0 0 1 2.497-6.018l.816-1.27-1.067-1.067-2.63-2.627c-.239-.24-.204-.811.23-1.245l2.063-2.063c.241-.24.543-.377.834-.377.176 0 .314.05.41.148l3.696 3.696 1.27-.816a18.418 18.418 0 0 1 6.02-2.496l1.476-.321v-1.51l-.005-3.714c0-.34.429-.717 1.043-.717h2.916c.614 0 1.043.377 1.043.717v5.224l1.474.321a18.364 18.364 0 0 1 6.018 2.496l1.27.816 1.067-1.066 2.627-2.63c.099-.099.237-.148.413-.148.288 0 .593.139.832.377l2.06 2.063c.434.436.471 1.006.23 1.245l-3.696 3.696.815 1.27a18.418 18.418 0 0 1 2.496 6.018l.322 1.477h5.224c.34 0 .717.429.717 1.043v2.916c0 .614-.377 1.043-.717 1.043h-3.715l-1.507-.003-.321 1.474a18.354 18.354 0 0 1-1.266 3.772l1.441 1.32a20.16 20.16 0 0 0 1.655-4.693h3.715c1.432 0 2.592-1.306 2.592-2.918V30.79c0-1.612-1.16-2.918-2.592-2.918H52.19a20.289 20.289 0 0 0-2.75-6.63l2.63-2.63c1.013-1.012.91-2.756-.23-3.895l-2.062-2.063c-.614-.614-1.404-.925-2.158-.925-.647 0-1.27.23-1.737.696l-2.63 2.63a20.289 20.289 0 0 0-6.63-2.75l.002-3.712C36.625 7.16 35.317 6 33.707 6h-2.915c-1.613 0-2.918 1.16-2.918 2.593v3.714a20.288 20.288 0 0 0-6.63 2.75l-2.63-2.63c-.467-.466-1.09-.696-1.737-.696-.755 0-1.545.314-2.159.926l-2.062 2.062c-1.14 1.14-1.243 2.883-.23 3.896l2.63 2.63a20.287 20.287 0 0 0-2.75 6.63l-3.714.002c-1.432 0-2.593 1.306-2.593 2.918v2.916c0 1.612 1.16 2.918 2.593 2.918h3.717a20.29 20.29 0 0 0 2.749 6.63l-2.63 2.63c-1.012 1.012-.91 2.756.23 3.895l2.062 2.063c.614.614 1.404.925 2.159.925.647 0 1.27-.23 1.737-.696l2.63-2.63c1.999 1.283 4.235 2.227 6.63 2.75v3.715c0 1.432 1.305 2.592 2.918 2.592h2.916c1.612 0 2.917-1.16 2.917-2.592v-3.715a20.228 20.228 0 0 0 4.125-1.383l-1.333-1.458a18.942 18.942 0 0 1-3.195 1.006zM58.5 59.906a.937.937 0 0 0 .663-1.6l-5.625-5.625a.94.94 0 0 0-1.326 1.326l5.625 5.625a.937.937 0 0 0 .663.274z"/>
    <path fill="#fff" d="M43.102 37.052c.628-1.436.984-3.018.984-4.685 0-6.473-5.245-11.718-11.719-11.718-2.737 0-5.254.942-7.249 2.514l6.94 6.936a.937.937 0 0 0 1.324-1.324l-5.271-5.27a9.78 9.78 0 0 1 4.256-.981c5.428 0 9.844 4.415 9.844 9.843 0 1.87-.535 3.617-1.444 5.108l1.42 1.286s0-.002.003-.002l21.258 19.45a.84.84 0 0 1-.03 1.151l-4.503 4.529a.783.783 0 0 1-.56.236.768.768 0 0 1-.532-.213l-19.58-21.403c.002 0 .002-.002.005-.002l-.059-.057-.598-.651-.049.026-.71-.69a9.783 9.783 0 0 1-4.46 1.08c-5.428 0-9.844-4.415-9.844-9.843 0-1.272.251-2.486.694-3.607l5.088 5.089a.937.937 0 0 0 1.322-1.329l-6.867-6.87a11.661 11.661 0 0 0-2.116 6.713c0 6.474 5.245 11.719 11.718 11.719 1.442 0 2.82-.268 4.095-.743L56.466 65.21c.52.527 1.202.79 1.886.79.685 0 1.367-.263 1.892-.79l4.502-4.529a2.72 2.72 0 0 0 .012-3.815L43.102 37.052z"/>
</svg>
