<svg xmlns="http://www.w3.org/2000/svg" width="72px" height="72px" viewBox="0 0 56.96 57.22"><title>icon_individual</title><path d="M50.62,8l4.06,8.23,9.08,1.32L57.19,24l1.55,9-8.12-4.27L42.49,33,44,24l-6.57-6.41,9.08-1.32L50.61,8Z" transform="translate(-8 -6.8)" fill="none" stroke="#3667bd" stroke-linecap="round" stroke-linejoin="round" stroke-width="2.4"/><path d="M21.14,34.9a13,13,0,1,1,13-13A13,13,0,0,1,21.14,34.9Zm0-23.78A10.77,10.77,0,1,0,31.91,21.88,10.78,10.78,0,0,0,21.14,11.11Zm0,52.78a13,13,0,1,1,13-13A13,13,0,0,1,21.14,63.9Zm0-23.78A10.77,10.77,0,1,0,31.91,50.88,10.78,10.78,0,0,0,21.14,40.12Zm30,23.78a13,13,0,1,1,13-13A13,13,0,0,1,51.15,63.9Zm0-23.78A10.77,10.77,0,1,0,61.91,50.88,10.78,10.78,0,0,0,51.15,40.12Z" transform="translate(-8 -6.8)" stroke="#000" stroke-width="0.25"/></svg>