<svg xmlns="http://www.w3.org/2000/svg" width="72" height="72" fill="none" viewBox="0 0 72 72">
    <path fill="#000" stroke="#000" stroke-width=".6" d="M36 5.251C19.043 5.251 5.251 19.043 5.251 36S19.046 66.749 36 66.749c16.957 0 30.75-13.795 30.75-30.749C66.75 19.043 52.956 5.251 36 5.251zm.751 1.519c15.53.393 28.086 12.948 28.48 28.48H36.75V6.77zM36 65.25C19.87 65.25 6.75 52.13 6.75 36c0-15.876 12.718-28.83 28.5-29.23V36.75h29.98c-.399 15.781-13.353 28.5-29.23 28.5z"/>
    <path fill="#3667BD" stroke="#3667BD" stroke-width=".6" d="M54.947 26.204a3.622 3.622 0 0 0-3.616 3.62 3.624 3.624 0 0 0 3.616 3.62 3.624 3.624 0 0 0 3.62-3.62 3.624 3.624 0 0 0-3.62-3.62zm0 5.738a2.12 2.12 0 0 1-2.117-2.118 2.12 2.12 0 0 1 2.117-2.118 2.12 2.12 0 0 1 2.118 2.118 2.12 2.12 0 0 1-2.118 2.118zM47.328 17.39a3.621 3.621 0 0 0-3.616-3.617 3.621 3.621 0 0 0-3.617 3.616 3.621 3.621 0 0 0 3.617 3.617 3.618 3.618 0 0 0 3.616-3.617zm-5.734 0a2.12 2.12 0 0 1 2.118-2.118 2.12 2.12 0 0 1 2.117 2.117 2.12 2.12 0 0 1-2.117 2.118 2.115 2.115 0 0 1-2.118-2.118z"/>
    <path fill="#3667BD" stroke="#3667BD" stroke-linecap="round" stroke-linejoin="round" stroke-width=".6" d="M43.152 29.32l11.236-12.434 1.114 1.007-11.236 12.434-1.114-1.006z"/>
</svg>
