<svg xmlns="http://www.w3.org/2000/svg" width="620" height="522" fill="none" viewBox="0 0 620 522">
    <g opacity=".32">
        <path fill="#FBFCFE" d="M139.246 494.124c72.224 0 130.773-9.239 130.773-20.634 0-11.396-58.549-20.635-130.773-20.635-72.224 0-130.774 9.239-130.774 20.635 0 11.395 58.55 20.634 130.774 20.634z" opacity=".024"/>
        <path fill="#F8FAFE" d="M139.246 493.577c70.563 0 127.767-8.993 127.767-20.087s-57.204-20.088-127.767-20.088c-70.564 0-127.768 8.994-127.768 20.088 0 11.094 57.204 20.087 127.768 20.087z" opacity=".049"/>
        <path fill="#F4F7FD" d="M139.246 493.167c68.903 0 124.76-8.81 124.76-19.678 0-10.867-55.857-19.677-124.76-19.677-68.904 0-124.761 8.81-124.761 19.677 0 10.868 55.857 19.678 124.761 19.678z" opacity=".073"/>
        <path fill="#F1F5FC" d="M139.246 492.62c67.243 0 121.754-8.565 121.754-19.13 0-10.566-54.511-19.131-121.754-19.131-67.244 0-121.755 8.565-121.755 19.131 0 10.565 54.511 19.13 121.755 19.13z" opacity=".098"/>
        <path fill="#EDF2FC" d="M139.246 492.21c65.583 0 118.748-8.381 118.748-18.72 0-10.34-53.165-18.721-118.748-18.721S20.498 463.15 20.498 473.49c0 10.339 53.165 18.72 118.748 18.72z" opacity=".122"/>
        <path fill="#E9F0FB" d="M139.246 491.664c63.922 0 115.741-8.137 115.741-18.174 0-10.038-51.819-18.175-115.741-18.175-63.923 0-115.742 8.137-115.742 18.175 0 10.037 51.82 18.174 115.742 18.174z" opacity=".146"/>
        <path fill="#E6EDFA" d="M139.246 491.254c62.337 0 112.872-7.954 112.872-17.765s-50.535-17.764-112.872-17.764c-62.338 0-112.873 7.953-112.873 17.764s50.535 17.765 112.873 17.765z" opacity=".171"/>
        <path fill="#E2EBFA" d="M139.246 490.707c60.677 0 109.866-7.708 109.866-17.217 0-9.51-49.189-17.218-109.866-17.218-60.678 0-109.866 7.708-109.866 17.218 0 9.509 49.188 17.217 109.866 17.217z" opacity=".195"/>
        <path fill="#DFE8F9" d="M246.105 473.49c0 9.292-47.827 16.807-106.859 16.807-59.033 0-106.86-7.515-106.86-16.807 0-9.293 47.827-16.808 106.86-16.808 59.032 0 106.859 7.515 106.859 16.808z" opacity=".22"/>
        <path fill="#DBE6F8" d="M139.246 489.888c57.356 0 103.853-7.342 103.853-16.398 0-9.057-46.497-16.398-103.853-16.398-57.357 0-103.854 7.341-103.854 16.398 0 9.056 46.497 16.398 103.854 16.398z" opacity=".244"/>
        <path fill="#D8E3F7" d="M139.246 489.341c55.696 0 100.847-7.097 100.847-15.852 0-8.754-45.151-15.851-100.847-15.851-55.697 0-100.847 7.097-100.847 15.851 0 8.755 45.15 15.852 100.847 15.852z" opacity=".268"/>
        <path fill="#D4E1F7" d="M139.246 488.931c54.036 0 97.84-6.914 97.84-15.442s-43.804-15.441-97.84-15.441-97.841 6.913-97.841 15.441 43.805 15.442 97.841 15.442z" opacity=".293"/>
        <path fill="#D0DEF6" d="M139.246 488.384c52.375 0 94.834-6.668 94.834-14.894 0-8.227-42.459-14.895-94.834-14.895-52.376 0-94.835 6.668-94.835 14.895 0 8.226 42.459 14.894 94.835 14.894z" opacity=".317"/>
        <path fill="#CDDCF5" d="M139.246 487.974c50.715 0 91.828-6.485 91.828-14.485 0-7.999-41.113-14.484-91.828-14.484-50.716 0-91.829 6.485-91.829 14.484 0 8 41.113 14.485 91.829 14.485z" opacity=".342"/>
        <path fill="#C9D9F5" d="M139.246 487.428c49.055 0 88.822-6.241 88.822-13.938 0-7.698-39.767-13.939-88.822-13.939s-88.822 6.241-88.822 13.939c0 7.697 39.767 13.938 88.822 13.938z" opacity=".366"/>
        <path fill="#C6D7F4" d="M139.246 487.018c47.394 0 85.815-6.057 85.815-13.528 0-7.472-38.421-13.529-85.815-13.529-47.395 0-85.816 6.057-85.816 13.529 0 7.471 38.42 13.528 85.816 13.528z" opacity=".39"/>
        <path fill="#C2D4F3" d="M222.055 473.49c0 7.242-37.032 12.981-82.809 12.981-45.778 0-82.81-5.876-82.81-12.981 0-7.243 37.032-12.982 82.81-12.982 45.777 0 82.809 5.739 82.809 12.982z" opacity=".415"/>
        <path fill="#BED2F3" d="M139.246 486.061c44.074 0 79.803-5.628 79.803-12.572 0-6.943-35.729-12.571-79.803-12.571s-79.803 5.628-79.803 12.571c0 6.944 35.729 12.572 79.803 12.572z" opacity=".439"/>
        <path fill="#BBCFF2" d="M139.246 485.651c42.413 0 76.797-5.445 76.797-12.162 0-6.716-34.384-12.161-76.797-12.161-42.414 0-76.797 5.445-76.797 12.161 0 6.717 34.383 12.162 76.797 12.162z" opacity=".463"/>
        <path fill="#B7CDF1" d="M139.246 485.105c40.753 0 73.79-5.2 73.79-11.615s-33.037-11.615-73.79-11.615c-40.754 0-73.79 5.2-73.79 11.615s33.036 11.615 73.79 11.615z" opacity=".488"/>
        <path fill="#B4CAF1" d="M139.246 484.695c39.093 0 70.784-5.017 70.784-11.206 0-6.188-31.691-11.205-70.784-11.205s-70.785 5.017-70.785 11.205c0 6.189 31.692 11.206 70.785 11.206z" opacity=".512"/>
        <path fill="#B0C8F0" d="M139.246 484.148c37.433 0 67.778-4.772 67.778-10.659 0-5.886-30.345-10.658-67.778-10.658-37.433 0-67.778 4.772-67.778 10.658 0 5.887 30.345 10.659 67.778 10.659z" opacity=".537"/>
        <path fill="#ADC5EF" d="M139.246 483.738c35.847 0 64.908-4.588 64.908-10.248 0-5.661-29.061-10.249-64.908-10.249-35.848 0-64.909 4.588-64.909 10.249 0 5.66 29.061 10.248 64.909 10.248z" opacity=".561"/>
        <path fill="#A9C3EF" d="M201.148 473.489c0 5.33-27.74 9.703-61.902 9.703-34.163 0-61.903-4.373-61.903-9.703 0-5.329 27.74-9.702 61.903-9.702 34.162 0 61.902 4.236 61.902 9.702z" opacity=".585"/>
        <path fill="#A5C0EE" d="M198.142 473.49c0 5.056-26.374 9.292-58.896 9.292-32.523 0-58.896-4.1-58.896-9.292 0-5.056 26.373-9.292 58.896-9.292 32.522 0 58.896 4.099 58.896 9.292z" opacity=".61"/>
        <path fill="#A2BEED" d="M139.246 482.235c30.867 0 55.889-3.916 55.889-8.746s-25.022-8.745-55.889-8.745c-30.867 0-55.89 3.915-55.89 8.745 0 4.83 25.023 8.746 55.89 8.746z" opacity=".634"/>
        <path fill="#9EBBED" d="M192.129 473.49c0 4.646-23.641 8.335-52.883 8.335-29.243 0-52.884-3.689-52.884-8.335 0-4.646 23.641-8.336 52.884-8.336 29.242 0 52.883 3.69 52.883 8.336z" opacity=".658"/>
        <path fill="#9BB9EC" d="M139.246 481.279c27.546 0 49.877-3.488 49.877-7.789 0-4.302-22.331-7.79-49.877-7.79-27.547 0-49.877 3.488-49.877 7.79 0 4.301 22.33 7.789 49.877 7.789z" opacity=".683"/>
        <path fill="#97B6EB" d="M186.116 473.489c0 4.1-21.044 7.379-46.87 7.379-25.827 0-46.871-3.279-46.871-7.379 0-4.099 21.044-7.379 46.871-7.379 25.826 0 46.87 3.28 46.87 7.379z" opacity=".707"/>
        <path fill="#93B4EB" d="M183.11 473.49c0 3.826-19.677 6.969-43.864 6.969-24.187 0-43.865-3.143-43.865-6.969 0-3.827 19.678-6.969 43.865-6.969s43.864 3.142 43.864 6.969z" opacity=".732"/>
        <path fill="#90B1EA" d="M139.246 479.912c22.565 0 40.858-2.875 40.858-6.423 0-3.547-18.293-6.422-40.858-6.422-22.566 0-40.859 2.875-40.859 6.422 0 3.548 18.293 6.423 40.859 6.423z" opacity=".756"/>
        <path fill="#8CAFE9" d="M177.098 473.49c0 3.279-16.945 6.012-37.852 6.012-20.908 0-37.852-2.733-37.852-6.012 0-3.28 16.944-6.013 37.852-6.013 20.907 0 37.852 2.733 37.852 6.013z" opacity=".78"/>
        <path fill="#89ACE8" d="M139.246 478.956c19.244 0 34.845-2.448 34.845-5.466 0-3.019-15.601-5.466-34.845-5.466-19.245 0-34.846 2.447-34.846 5.466 0 3.018 15.601 5.466 34.846 5.466z" opacity=".805"/>
        <path fill="#85AAE8" d="M171.085 473.489c0 2.733-14.211 5.056-31.839 5.056s-31.84-2.186-31.84-5.056c0-2.869 14.212-5.056 31.84-5.056s31.839 2.187 31.839 5.056z" opacity=".829"/>
        <path fill="#82A7E7" d="M168.079 473.49c0 2.459-12.982 4.509-28.833 4.509-15.988 0-28.833-2.05-28.833-4.509 0-2.46 12.982-4.51 28.833-4.51 15.988-.137 28.833 1.913 28.833 4.51z" opacity=".854"/>
        <path fill="#7EA5E6" d="M139.246 477.589c14.263 0 25.826-1.835 25.826-4.099 0-2.264-11.563-4.1-25.826-4.1-14.264 0-25.827 1.836-25.827 4.1 0 2.264 11.563 4.099 25.827 4.099z" opacity=".878"/>
        <path fill="#7AA2E6" d="M162.066 473.49c0 2.049-10.249 3.552-22.82 3.552-12.572 0-22.821-1.639-22.821-3.552 0-2.05 10.249-3.553 22.821-3.553 12.571-.137 22.82 1.503 22.82 3.553z" opacity=".902"/>
        <path fill="#77A0E5" d="M159.06 473.49c0 1.776-8.882 3.143-19.814 3.143s-19.815-1.367-19.815-3.143c0-1.777 8.883-3.143 19.815-3.143 10.932 0 19.814 1.366 19.814 3.143z" opacity=".927"/>
        <path fill="#739DE4" d="M156.054 473.489c0 1.504-7.516 2.597-16.945 2.597-9.292 0-16.944-1.23-16.944-2.597 0-1.503 7.515-2.596 16.944-2.596 9.429-.136 16.945 1.093 16.945 2.596z" opacity=".951"/>
        <path fill="#709BE4" d="M153.184 473.49c0 1.229-6.149 2.186-13.938 2.186-7.653 0-13.939-.957-13.939-2.186 0-1.23 6.15-2.187 13.939-2.187 7.652 0 13.938.957 13.938 2.187z" opacity=".976"/>
        <path fill="#6C98E3" d="M139.246 475.266c6.037 0 10.932-.795 10.932-1.776 0-.982-4.895-1.777-10.932-1.777-6.038 0-10.932.795-10.932 1.777 0 .981 4.894 1.776 10.932 1.776z" opacity=".32"/>
    </g>
    <g opacity=".32">
        <path fill="#FBFCFE" d="M476.223 492.757c72.224 0 130.773-9.238 130.773-20.634s-58.549-20.634-130.773-20.634c-72.224 0-130.774 9.238-130.774 20.634s58.55 20.634 130.774 20.634z" opacity=".024"/>
        <path fill="#F8FAFE" d="M476.223 492.211c70.564 0 127.767-8.994 127.767-20.088 0-11.094-57.203-20.087-127.767-20.087s-127.767 8.993-127.767 20.087 57.203 20.088 127.767 20.088z" opacity=".049"/>
        <path fill="#F4F7FD" d="M476.223 491.8c68.903 0 124.761-8.809 124.761-19.677s-55.858-19.677-124.761-19.677c-68.904 0-124.761 8.809-124.761 19.677S407.319 491.8 476.223 491.8z" opacity=".073"/>
        <path fill="#F1F5FC" d="M476.223 491.254c67.243 0 121.754-8.565 121.754-19.131s-54.511-19.131-121.754-19.131-121.755 8.565-121.755 19.131 54.512 19.131 121.755 19.131z" opacity=".098"/>
        <path fill="#EDF2FC" d="M476.223 490.844c65.583 0 118.748-8.382 118.748-18.721s-53.165-18.721-118.748-18.721-118.748 8.382-118.748 18.721 53.165 18.721 118.748 18.721z" opacity=".122"/>
        <path fill="#E9F0FB" d="M476.223 490.297c63.922 0 115.741-8.137 115.741-18.174 0-10.037-51.819-18.174-115.741-18.174-63.923 0-115.742 8.137-115.742 18.174 0 10.037 51.819 18.174 115.742 18.174z" opacity=".146"/>
        <path fill="#E6EDFA" d="M476.223 489.887c62.338 0 112.872-7.953 112.872-17.764s-50.534-17.764-112.872-17.764-112.872 7.953-112.872 17.764 50.534 17.764 112.872 17.764z" opacity=".171"/>
        <path fill="#E2EBFA" d="M476.223 489.341c60.677 0 109.866-7.709 109.866-17.218s-49.189-17.218-109.866-17.218c-60.678 0-109.866 7.709-109.866 17.218s49.188 17.218 109.866 17.218z" opacity=".195"/>
        <path fill="#DFE8F9" d="M583.082 472.123c0 9.292-47.827 16.808-106.859 16.808-59.033 0-106.86-7.516-106.86-16.808s47.827-16.808 106.86-16.808c59.032 0 106.859 7.516 106.859 16.808z" opacity=".22"/>
        <path fill="#DBE6F8" d="M476.223 488.521c57.357 0 103.853-7.342 103.853-16.398 0-9.056-46.496-16.398-103.853-16.398-57.357 0-103.854 7.342-103.854 16.398 0 9.056 46.497 16.398 103.854 16.398z" opacity=".244"/>
        <path fill="#D8E3F7" d="M476.223 487.974c55.696 0 100.847-7.097 100.847-15.851 0-8.754-45.151-15.851-100.847-15.851-55.696 0-100.847 7.097-100.847 15.851 0 8.754 45.151 15.851 100.847 15.851z" opacity=".268"/>
        <path fill="#D4E1F7" d="M476.223 487.564c54.036 0 97.841-6.913 97.841-15.441s-43.805-15.441-97.841-15.441c-54.036 0-97.841 6.913-97.841 15.441s43.805 15.441 97.841 15.441z" opacity=".293"/>
        <path fill="#D0DEF6" d="M476.223 487.018c52.376 0 94.834-6.669 94.834-14.895 0-8.226-42.458-14.895-94.834-14.895-52.376 0-94.835 6.669-94.835 14.895 0 8.226 42.459 14.895 94.835 14.895z" opacity=".317"/>
        <path fill="#CDDCF5" d="M476.223 486.608c50.715 0 91.828-6.485 91.828-14.485 0-8-41.113-14.485-91.828-14.485-50.716 0-91.828 6.485-91.828 14.485 0 8 41.112 14.485 91.828 14.485z" opacity=".342"/>
        <path fill="#C9D9F5" d="M476.223 486.061c49.055 0 88.822-6.24 88.822-13.938s-39.767-13.938-88.822-13.938-88.822 6.24-88.822 13.938 39.767 13.938 88.822 13.938z" opacity=".366"/>
        <path fill="#C6D7F4" d="M476.223 485.651c47.394 0 85.815-6.057 85.815-13.528s-38.421-13.528-85.815-13.528c-47.395 0-85.816 6.057-85.816 13.528s38.421 13.528 85.816 13.528z" opacity=".39"/>
        <path fill="#C2D4F3" d="M559.032 472.123c0 7.242-37.032 12.982-82.809 12.982-45.778 0-82.81-5.876-82.81-12.982 0-7.242 37.032-12.982 82.81-12.982 45.777 0 82.809 5.74 82.809 12.982z" opacity=".415"/>
        <path fill="#BED2F3" d="M476.223 484.695c44.074 0 79.803-5.629 79.803-12.572s-35.729-12.572-79.803-12.572-79.803 5.629-79.803 12.572 35.729 12.572 79.803 12.572z" opacity=".439"/>
        <path fill="#BBCFF2" d="M476.223 484.285c42.414 0 76.797-5.445 76.797-12.162 0-6.717-34.383-12.162-76.797-12.162-42.414 0-76.797 5.445-76.797 12.162 0 6.717 34.383 12.162 76.797 12.162z" opacity=".463"/>
        <path fill="#B7CDF1" d="M476.223 483.738c40.753 0 73.79-5.2 73.79-11.615s-33.037-11.615-73.79-11.615c-40.754 0-73.791 5.2-73.791 11.615s33.037 11.615 73.791 11.615z" opacity=".488"/>
        <path fill="#B4CAF1" d="M476.223 483.328c39.093 0 70.784-5.017 70.784-11.205s-31.691-11.205-70.784-11.205-70.785 5.017-70.785 11.205 31.692 11.205 70.785 11.205z" opacity=".512"/>
        <path fill="#B0C8F0" d="M476.223 482.782c37.433 0 67.778-4.772 67.778-10.659 0-5.887-30.345-10.659-67.778-10.659-37.433 0-67.778 4.772-67.778 10.659 0 5.887 30.345 10.659 67.778 10.659z" opacity=".537"/>
        <path fill="#ADC5EF" d="M476.223 482.372c35.848 0 64.908-4.589 64.908-10.249s-29.06-10.249-64.908-10.249-64.909 4.589-64.909 10.249 29.061 10.249 64.909 10.249z" opacity=".561"/>
        <path fill="#A9C3EF" d="M538.125 472.123c0 5.329-27.74 9.702-61.902 9.702-34.162 0-61.902-4.373-61.902-9.702s27.74-9.702 61.902-9.702c34.162-.137 61.902 4.236 61.902 9.702z" opacity=".585"/>
        <path fill="#A5C0EE" d="M535.119 472.123c0 5.056-26.374 9.292-58.896 9.292-32.523 0-58.896-4.099-58.896-9.292 0-5.056 26.373-9.292 58.896-9.292 32.522 0 58.896 4.1 58.896 9.292z" opacity=".61"/>
        <path fill="#A2BEED" d="M476.223 480.868c30.867 0 55.889-3.915 55.889-8.745 0-4.83-25.022-8.746-55.889-8.746-30.867 0-55.89 3.916-55.89 8.746s25.023 8.745 55.89 8.745z" opacity=".634"/>
        <path fill="#9EBBED" d="M529.106 472.123c0 4.646-23.64 8.336-52.883 8.336-29.243 0-52.883-3.69-52.883-8.336 0-4.646 23.64-8.335 52.883-8.335 29.243 0 52.883 3.689 52.883 8.335z" opacity=".658"/>
        <path fill="#9BB9EC" d="M476.223 479.912c27.546 0 49.877-3.487 49.877-7.789s-22.331-7.789-49.877-7.789c-27.547 0-49.877 3.487-49.877 7.789s22.33 7.789 49.877 7.789z" opacity=".683"/>
        <path fill="#97B6EB" d="M523.093 472.123c0 4.099-21.044 7.379-46.87 7.379-25.827 0-46.871-3.28-46.871-7.379 0-4.1 21.044-7.379 46.871-7.379 25.826 0 46.87 3.279 46.87 7.379z" opacity=".707"/>
        <path fill="#93B4EB" d="M520.087 472.123c0 3.826-19.677 6.969-43.864 6.969-24.187 0-43.865-3.143-43.865-6.969 0-3.826 19.678-6.969 43.865-6.969s43.864 3.143 43.864 6.969z" opacity=".732"/>
        <path fill="#90B1EA" d="M476.223 478.546c22.565 0 40.858-2.876 40.858-6.423s-18.293-6.423-40.858-6.423c-22.565 0-40.858 2.876-40.858 6.423s18.293 6.423 40.858 6.423z" opacity=".756"/>
        <path fill="#8CAFE9" d="M514.075 472.123c0 3.28-16.945 6.013-37.852 6.013-20.908 0-37.852-2.733-37.852-6.013 0-3.279 16.944-6.012 37.852-6.012 20.907 0 37.852 2.733 37.852 6.012z" opacity=".78"/>
        <path fill="#89ACE8" d="M476.223 477.589c19.244 0 34.845-2.447 34.845-5.466s-15.601-5.466-34.845-5.466c-19.245 0-34.846 2.447-34.846 5.466s15.601 5.466 34.846 5.466z" opacity=".805"/>
        <path fill="#85AAE8" d="M508.062 472.123c0 2.733-14.211 5.056-31.839 5.056s-31.839-2.186-31.839-5.056c0-2.869 14.211-5.056 31.839-5.056s31.839 2.187 31.839 5.056z" opacity=".829"/>
        <path fill="#82A7E7" d="M505.056 472.123c0 2.46-12.982 4.51-28.833 4.51-15.988 0-28.833-2.05-28.833-4.51s12.981-4.509 28.833-4.509c15.988-.137 28.833 1.913 28.833 4.509z" opacity=".854"/>
        <path fill="#7EA5E6" d="M476.223 476.223c14.263 0 25.826-1.836 25.826-4.1 0-2.264-11.563-4.099-25.826-4.099-14.264 0-25.827 1.835-25.827 4.099 0 2.264 11.563 4.1 25.827 4.1z" opacity=".878"/>
        <path fill="#7AA2E6" d="M499.043 472.123c0 2.05-10.248 3.553-22.82 3.553-12.572 0-22.821-1.64-22.821-3.553 0-2.05 10.249-3.553 22.821-3.553 12.572-.137 22.82 1.503 22.82 3.553z" opacity=".902"/>
        <path fill="#77A0E5" d="M496.037 472.123c0 1.776-8.882 3.143-19.814 3.143s-19.814-1.367-19.814-3.143c0-1.777 8.882-3.143 19.814-3.143s19.814 1.366 19.814 3.143z" opacity=".927"/>
        <path fill="#739DE4" d="M493.167 472.123c0 1.503-7.515 2.596-16.944 2.596-9.292 0-16.945-1.229-16.945-2.596 0-1.503 7.516-2.596 16.945-2.596 9.292-.137 16.944 1.093 16.944 2.596z" opacity=".951"/>
        <path fill="#709BE4" d="M490.161 472.123c0 1.23-6.149 2.187-13.938 2.187-7.652 0-13.938-.957-13.938-2.187s6.149-2.186 13.938-2.186c7.652 0 13.938.956 13.938 2.186z" opacity=".976"/>
        <path fill="#6C98E3" d="M476.223 473.899c6.037 0 10.932-.795 10.932-1.776s-4.895-1.776-10.932-1.776c-6.038 0-10.932.795-10.932 1.776s4.894 1.776 10.932 1.776z" opacity=".32"/>
    </g>
    <path fill="#1449A8" d="M350.505 452.582h-98.797l10.659-42.224 2.459-9.566 4.783-18.584h62.995l4.783 18.584 2.46 9.566 10.658 42.224z"/>
    <path fill="url(#a)" d="M388.494 464.198H213.719a7.64 7.64 0 0 1-7.652-7.653 7.64 7.64 0 0 1 7.652-7.652h174.775a7.64 7.64 0 0 1 7.652 7.652 7.64 7.64 0 0 1-7.652 7.653z"/>
    <path fill="url(#b)" d="M544.137 109.046V389.04c0 6.696-5.466 12.026-12.025 12.026H70.238c-6.696 0-12.025-5.466-12.025-12.026V109.046c0-6.696 5.329-12.025 12.025-12.025h461.874c6.559-.137 12.025 5.329 12.025 12.025z"/>
    <path fill="#1449A8" d="M544 140H58v213h486V140zM301.038 387.264c-6.149 0-11.205-5.056-11.205-11.205s5.056-11.205 11.205-11.205c6.15 0 11.206 5.056 11.206 11.205s-5.056 11.205-11.206 11.205z"/>
    <path fill="#fff" d="M528.696 277.125H230.117c-2.459 0-4.509-2.05-4.509-4.51V150.314c0-2.459 2.05-4.509 4.509-4.509h298.579c2.46 0 4.509 2.05 4.509 4.509v122.438c0 2.46-2.049 4.373-4.509 4.373z" opacity=".1"/>
    <path fill="#26C6DA" d="M525.006 216.179v49.877c0 2.187-1.776 3.963-4.099 3.963H236.813c-2.186 0-4.099-1.776-4.099-3.963V156.464c26.236 0 39.355 9.838 47.007 22.683.547.82.957 1.64 1.366 2.46 12.982 24.46 9.019 58.076 37.579 58.076 1.093 0 2.05-.137 3.006-.41.547-.137 1.23-.273 1.777-.547 19.131-8.062 16.124-65.318 50.287-64.908 7.242.137 12.708 2.87 17.081 7.379.41.41.82.957 1.23 1.367 15.304 17.901 15.441 57.802 38.945 65.045 8.472 2.596 15.851-.957 23.23-6.833.41-.41.957-.82 1.367-1.23 15.578-12.981 31.156-35.118 55.206-29.653.683.137 1.366.274 2.05.547 3.826 1.23 7.789 3.143 12.161 5.739z"/>
    <g fill="#fff" opacity=".4">
        <path d="M529.379 311.56h-154.96c-2.05 0-3.826-1.639-3.826-3.826v-21.181c0-2.049 1.64-3.826 3.826-3.826h154.96c2.05 0 3.826 1.64 3.826 3.826v21.181c0 2.05-1.639 3.826-3.826 3.826zM529.379 346.269h-154.96c-2.05 0-3.826-1.639-3.826-3.826v-21.181c0-2.049 1.64-3.826 3.826-3.826h154.96c2.05 0 3.826 1.64 3.826 3.826v21.181c0 2.187-1.639 3.826-3.826 3.826z" opacity=".2"/>
    </g>
    <path fill="#ADD5FC" d="M216.179 209.347H74.201c-2.46 0-4.51-2.05-4.51-4.51v-54.659c0-2.46 2.05-4.51 4.51-4.51h141.978c2.46 0 4.51 2.05 4.51 4.51v54.659c0 2.597-2.05 4.51-4.51 4.51z" opacity=".1"/>
    <g fill="#fff" opacity=".1">
        <path d="M199.781 204.017h-8.199c-.683 0-1.093-.546-1.093-1.093v-39.901c0-.684.547-1.094 1.093-1.094h8.199c.683 0 1.093.547 1.093 1.094v39.901c0 .547-.546 1.093-1.093 1.093zM213.993 204.017h-7.926c-.683 0-1.23-.546-1.23-1.229v-49.604c0-.683.547-1.23 1.23-1.23h7.926c.683 0 1.229.547 1.229 1.23v49.604c0 .683-.546 1.229-1.229 1.229zM84.86 204.017h-7.927c-.683 0-1.23-.546-1.23-1.229v-49.604c0-.683.547-1.23 1.23-1.23h7.926c.683 0 1.23.547 1.23 1.23v49.604c0 .683-.547 1.229-1.23 1.229zM99.344 204.017h-8.2c-.546 0-1.092-.546-1.092-1.093v-37.578c0-.547.546-1.094 1.093-1.094h8.199c.547 0 1.093.547 1.093 1.094v37.578c0 .547-.41 1.093-1.093 1.093zM113.555 204.017h-7.925c-.683 0-1.23-.546-1.23-1.229v-49.604c0-.683.547-1.23 1.23-1.23h7.925c.684 0 1.23.547 1.23 1.23v49.604c0 .683-.546 1.229-1.23 1.229zM128.177 204.018h-8.609a.934.934 0 0 1-.957-.957v-26.92c0-.546.41-.956.957-.956h8.609c.546 0 .956.41.956.956v26.92c0 .547-.41.957-.956.957zM142.252 204.017h-7.926c-.683 0-1.23-.546-1.23-1.229v-49.604c0-.683.547-1.23 1.23-1.23h7.926c.683 0 1.23.547 1.23 1.23v49.604c0 .683-.547 1.229-1.23 1.229zM156.737 204.017h-8.199c-.683 0-1.093-.546-1.093-1.093v-39.901c0-.684.546-1.094 1.093-1.094h8.199c.683 0 1.093.547 1.093 1.094v39.901c0 .547-.547 1.093-1.093 1.093zM170.948 204.017h-7.925c-.684 0-1.23-.546-1.23-1.229v-49.604c0-.683.546-1.23 1.23-1.23h7.925c.683 0 1.23.547 1.23 1.23v49.604c0 .683-.547 1.229-1.23 1.229zM185.433 204.017h-8.199c-.547 0-1.093-.546-1.093-1.093v-37.578c0-.547.546-1.094 1.093-1.094h8.199c.547 0 1.093.547 1.093 1.094v37.578c0 .547-.546 1.093-1.093 1.093z" opacity=".1"/>
    </g>
    <path fill="#ADD5FC" d="M216.179 277.808H74.201c-2.46 0-4.51-2.05-4.51-4.509v-54.66c0-2.46 2.05-4.51 4.51-4.51h141.978c2.46 0 4.51 2.05 4.51 4.51v54.66c0 2.596-2.05 4.509-4.51 4.509zM216.179 346.269H74.201c-2.46 0-4.51-2.05-4.51-4.509V287.1c0-2.46 2.05-4.509 4.51-4.509h141.978c2.46 0 4.51 2.049 4.51 4.509v54.66c0 2.459-2.05 4.509-4.51 4.509z" opacity=".1"/>
    <path fill="#26C6DA" d="M213.036 222.465c-1.503 0-2.869 1.23-2.869 2.869 0 .547.136.957.41 1.367l-23.094 26.1a2.567 2.567 0 0 0-1.093-.273c-.41 0-.82.136-1.093.273l-24.871-24.46c.137-.41.274-.683.274-1.23 0-1.503-1.23-2.87-2.87-2.87-1.503 0-2.87 1.23-2.87 2.87 0 .41.137.82.274 1.23l-31.976 34.435c-.41-.273-.957-.546-1.64-.546-.547 0-.957.136-1.367.41l-17.491-22.821c.274-.41.547-1.093.547-1.639 0-1.504-1.23-2.87-2.87-2.87-1.503 0-2.87 1.23-2.87 2.87 0 .546.137.956.41 1.366l-19.54 25.417c-.273-.137-.683-.137-.957-.137-1.503 0-2.87 1.23-2.87 2.87 0 1.503 1.23 2.869 2.87 2.869 1.503 0 2.87-1.229 2.87-2.869 0-.547-.137-1.093-.41-1.503l19.54-25.281c.41.137.684.274 1.094.274.273 0 .547 0 .82-.137l17.764 23.094c-.136.41-.273.683-.273 1.093 0 1.503 1.23 2.87 2.87 2.87 1.503 0 2.869-1.23 2.869-2.87 0-.273 0-.547-.136-.82l32.112-34.709c.41.274.82.274 1.367.274a2.31 2.31 0 0 0 1.366-.41l24.734 24.323c-.274.41-.41.82-.41 1.367 0 1.503 1.23 2.869 2.869 2.869 1.503 0 2.87-1.23 2.87-2.869 0-.547-.137-.957-.41-1.503l23.094-26.1c.41.136.683.273 1.093.273 1.503 0 2.87-1.23 2.87-2.87-.137-1.23-1.367-2.596-3.007-2.596z"/>
    <path fill="#fff" d="M201.011 292.839H77.207c-1.093 0-1.913-.82-1.913-1.913v-1.503c0-1.093.82-1.913 1.913-1.913H201.01c1.093 0 1.913.82 1.913 1.913v1.503c0 1.093-.82 1.913-1.913 1.913zM188.166 302.541H77.07c-.956 0-1.913-.819-1.913-1.913v-1.639c0-.957.82-1.914 1.913-1.914h111.096c.957 0 1.913.82 1.913 1.914v1.639c0 .957-.82 1.913-1.913 1.913zM213.173 312.107H77.89a2.741 2.741 0 0 1-2.733-2.733 2.741 2.741 0 0 1 2.733-2.733h135.283a2.741 2.741 0 0 1 2.733 2.733 2.741 2.741 0 0 1-2.733 2.733zM175.594 321.672h-98.66c-.957 0-1.777-.82-1.777-1.776v-1.913c0-.957.82-1.777 1.777-1.777h98.66c.957 0 1.777.82 1.777 1.777v1.913c0 .956-.683 1.776-1.777 1.776zM202.241 331.238H77.207c-1.093 0-1.913-.82-1.913-1.913v-1.503c0-1.094.82-1.914 1.913-1.914H202.24c1.093 0 1.913.82 1.913 1.914v1.503c.137 1.093-.82 1.913-1.913 1.913zM213.173 340.803H77.89a2.741 2.741 0 0 1-2.733-2.733 2.741 2.741 0 0 1 2.733-2.733h135.283a2.741 2.741 0 0 1 2.733 2.733 2.741 2.741 0 0 1-2.733 2.733z" opacity=".1"/>
    <path fill="#D1E1FC" d="M289.56 314.43c0 17.628-14.212 31.839-31.839 31.839-17.628 0-31.84-14.211-31.84-31.839 0-17.491 14.212-31.839 31.84-31.839 2.459 0 4.919.273 7.379.82 13.255 3.143 23.23 14.485 24.323 28.423.137.956.137 1.776.137 2.596z"/>
    <path fill="#6C98E3" d="M289.423 311.97l-31.702 2.46 7.379-30.883c13.255 3.143 23.23 14.485 24.323 28.423z"/>
    <path fill="#fff" d="M360.344 287.784h-61.082c-1.093 0-2.05-.957-2.05-2.05s.957-2.05 2.05-2.05h61.082c1.093 0 2.05.957 2.05 2.05s-.957 2.05-2.05 2.05zM351.735 296.119h-53.156c-.82 0-1.503-.683-1.503-1.503v-1.23c0-.82.683-1.503 1.503-1.503h53.156c.82 0 1.504.683 1.504 1.503v1.23c0 .82-.684 1.503-1.504 1.503zM339.164 304.455h-40.859c-.683 0-1.366-.547-1.366-1.367v-1.639c0-.684.547-1.367 1.366-1.367h40.859c.683 0 1.366.547 1.366 1.367v1.639c0 .82-.683 1.367-1.366 1.367zM360.344 312.79h-61.082c-1.093 0-2.05-.956-2.05-2.05 0-1.093.957-2.049 2.05-2.049h61.082c1.093 0 2.05.956 2.05 2.049 0 1.094-.957 2.05-2.05 2.05zM353.785 321.126h-55.206c-.82 0-1.503-.683-1.503-1.503v-1.23c0-.82.683-1.503 1.503-1.503h55.206c.82 0 1.503.683 1.503 1.503v1.23c0 .82-.683 1.503-1.503 1.503zM360.344 329.462h-61.082c-1.093 0-2.05-.957-2.05-2.05s.957-2.05 2.05-2.05h61.082c1.093 0 2.05.957 2.05 2.05s-.957 2.05-2.05 2.05zM348.456 337.797h-49.877c-.82 0-1.503-.683-1.503-1.503v-1.367c0-.819.683-1.503 1.503-1.503h49.877c.82 0 1.503.684 1.503 1.503v1.367c-.137.82-.683 1.503-1.503 1.503zM360.344 345.996h-61.082c-1.093 0-2.05-.957-2.05-2.05s.957-2.05 2.05-2.05h61.082c1.093 0 2.05.957 2.05 2.05 0 1.23-.957 2.05-2.05 2.05z" opacity=".1"/>
    <path fill="#7CADE3" d="M217.819 244.192c.137-.683-.683-.82-1.503.41-1.093 1.913-2.87 2.87-5.193 3.416-.136-.41.41-.546.683-1.229.41-.82.137-1.504-.273-1.64-.273-.137-.956.956-1.23 1.093-.82.82-1.776 1.503-2.596 2.186-.957.82-1.503 1.367-1.913 2.597 0 .136-.137.273-.137.683-5.876 4.373-25.007 9.975-27.603 11.615-.683.41-4.646.41-9.565.41v-.956s-7.926-1.367-11.752-3.553c-2.187-1.367-4.51-1.23-5.329-1.094-.137-.273-.41-.546-.547-.819l-.137-.137c-.956-1.093-2.459-1.776-3.279-2.87-.137-1.503-.137-4.646.546-6.149.547-1.093 2.733-3.006 5.33-5.056 1.093-.956 2.049-2.733 1.366-5.603-.956-4.372-1.366-6.285-1.913-7.515-.41-.957-1.23-1.503-1.64-2.323-.136-.137-.136-.274-.273-.41 1.093-1.23-2.186-10.522-12.299-10.249-2.596.137-5.192.273-7.515 1.367-2.323 1.093-4.783 3.143-4.646 5.192-3.553.683-4.1 4.373-4.373 5.74-.41 1.913-.41 3.962-.273 5.875.41 2.87 1.503 5.74 2.049 8.609.41 2.323.547 4.92-.273 7.243-.957 2.186-3.006 3.279-4.099 5.466-1.367 2.733-1.23 6.012.136 8.609.683 1.229 1.367 2.186 1.913 3.279-.956 3.006-2.186 6.969-3.006 10.932l-26.647 4.51c-.82.136-1.366.819-1.23 1.639l6.56 38.809c.136.82.82 1.366 1.64 1.23l22.547-3.827c-.41 2.87-.41 6.013 0 9.156.41 2.596 3.006 9.839 3.416 12.435.956 6.013 2.87 14.758 2.733 21.591.546.409 1.23.819 1.913 1.229 1.366 8.199 2.596 15.715 2.46 16.808-.41 2.597-3.143 9.702-4.1 17.355 0 .273-.136.683-.136.956h14.758c.956-5.466 1.913-10.112 2.323-13.801.136-.957.273-1.777.273-2.46v-.273c0-.41.137-.82.137-1.094 0-.683.136-1.229.136-1.913v-.546c0-.547 0-1.093.137-1.777v-.546-2.323-.684-1.776V372.506c2.46 7.106 4.373 12.708 4.373 12.708s-2.187 7.379-2.597 16.261h14.075c.41-8.198.82-14.894.957-18.174.136-5.466 0-11.068-.41-17.081.82-8.199.683-14.758.137-26.237-.547-9.018-2.87-17.764-5.057-24.187l13.939-2.323c.82-.136 1.366-.819 1.23-1.639l-6.15-36.076c1.503 0 2.187.137 2.187.137.136-.41.273-1.093.273-1.64 5.056-.41 9.156-.82 10.249-1.093 8.062-1.64 28.286-15.305 30.063-16.535 1.229.274 4.919-.956 5.875-2.596.274-.547.547-1.093.41-1.64.547-.683 1.64-3.143-.136-2.596 2.186-1.777 2.596-3.553 3.006-5.603z" opacity=".3"/>
    <path fill="#FFCEBD" d="M139.519 324.268L120.661 309.1s-4.372 10.659-.956 21.864c1.776 5.466-.137 9.429.82 12.025.82 2.46 7.242 37.169 6.969 39.765-.41 2.597-3.143 9.702-4.1 17.218-1.093 9.019-.273 38.398-1.093 46.188-.82 7.789 6.286 9.018 6.696 6.285 2.87-22.547 10.932-57.939 11.888-69.144.82-11.205-.136-31.839-1.366-59.033z"/>
    <path fill="#A58877" d="M140.065 346.406l-7.652 18.721c3.553 5.602 5.603 12.435 6.149 19.267.274 3.553 0 7.106.137 10.659 0 .273 0 .546.137.82.956-5.33 1.639-9.702 1.913-12.572.683-7.926.41-20.634-.274-36.895h-.41z" opacity=".2"/>
    <path fill="#FFCEBD" d="M129.953 445.34s-1.503 8.199-1.093 9.292c.547 1.093 2.187 3.962 3.963 5.056 1.777 1.093 5.876 2.323 6.149 2.869.274.547.41 1.23-.136 1.64-1.503 1.23-3.963 1.777-5.603 1.64-5.466-.82-6.013-3.143-9.155-3.416-.547 0-1.504.82-3.007 0-1.503-.684-2.323-2.05-2.186-3.417.137-2.323 1.366-4.099 2.186-5.875.82-1.64 1.367-9.293 1.367-9.293"/>
    <path fill="url(#c)" d="M139.246 464.471c.41-.684.41-1.64.136-1.914-.546-.273-2.323-1.503-3.416-1.913-1.093-.41-2.733-.82-2.186-.546.546.273-.41 1.503-1.503 1.503-3.417-.137-5.876-2.323-7.926-2.733-2.733-.683-4.1-3.826-4.236-4.373-.547.41-1.64 3.006-1.913 3.826-.274.82-.547 2.187-.41 2.87.136.547.546 1.64.41 2.733 0 0 .546.41 2.049.683.957.137 2.187 0 2.187 0l.136-1.776s.82 0 1.777.136c.956.137 2.596 1.094 2.596 1.23.41.41.683 1.23 1.23 1.503 1.367.684 2.733.957 4.509.957 3.827.137 5.876-.957 6.56-2.186z"/>
    <path fill="#FFCEBD" d="M166.712 462.831c-.41-.41-4.646-1.093-6.696-1.913-1.913-.82-4.236-3.28-4.782-4.373-.41-1.093-.41-6.696-.41-9.019.273-15.988 2.869-55.343 3.143-64.635.546-16.261-1.64-33.206-8.199-59.306l-23.504-17.764s-6.422 12.298-4.099 23.914c1.366 6.695 6.969 7.789 7.925 10.385.957 2.596 15.578 44.821 15.578 44.821s-2.596 9.155-2.733 19.131c0 8.609 4.1 34.299 4.92 44.138.136 1.913.546 6.559-.137 7.925-.683 1.777-2.46 3.963-2.323 6.149 0 1.367 1.093 2.597 2.733 3.007 1.64.546 2.596-.41 3.143-.547 3.279-.137 4.236 2.05 9.975 2.05 1.777 0 4.236-.957 5.603-2.46.41-.41.273-1.093-.137-1.503z"/>
    <path fill="url(#d)" d="M167.259 464.744c.273-.683.273-1.776-.137-1.913-.546-.273-2.596-1.093-3.826-1.367-1.093-.273-2.87-.41-2.323-.273.683.273-.273 1.503-1.23 1.64-3.553.41-6.422-1.367-8.472-1.503-3.006-.137-4.1-3.28-4.236-3.69-.547.41-1.913 3.28-2.05 4.1-.137.82-.273 2.186 0 3.006.273.547.683 1.503.683 2.733 0 0 .683.273 2.187.41.956 0 2.186-.41 2.186-.41v-1.776s.82-.137 1.776-.137c.957 0 2.323.546 2.87.956.547.41.957.957 1.64 1.094 1.64.41 2.869.546 4.646.273 3.689-.41 5.739-1.777 6.286-3.143z"/>
    <path fill="#FFCEBD" d="M204.291 256.081c1.229.273 5.056-.957 6.012-2.597.274-.546.547-1.093.41-1.639.547-.684 1.503-3.143-.136-2.597 1.776-1.23 2.186-3.006 2.733-5.056.136-.683-.684-.82-1.504.41-1.093 1.913-2.869 3.006-5.192 3.416-.137-.41.41-.546.683-1.229.41-.82.137-1.504-.273-1.64-.274-.137-.957.82-1.23 1.093-.82.683-1.777 1.503-2.597 2.186-.956.82-1.503 1.367-1.913 2.597-.136.136-.546 2.186.274 1.913"/>
    <path fill="#FFCEBD" d="M147.581 274.665c8.746-.137 24.461-1.64 26.647-2.05 8.472-1.64 30.199-16.534 30.199-16.534s.41-3.417-2.869-4.51c-5.466 4.51-25.28 10.112-27.877 11.752-1.639 1.093-29.379-.137-29.379-.137"/>
    <path fill="#fff" d="M118.338 263.87s-3.689 10.112-4.919 18.037l9.019 1.367v-12.845"/>
    <path fill="#EEF9FF" d="M166.849 312.927l-72.834 12.298c-.547.137-1.23-.273-1.23-.957l-6.696-39.354c-.136-.547.273-1.23.957-1.23l72.834-12.435c.546-.137 1.23.273 1.23.956l6.695 39.492c0 .546-.41 1.093-.956 1.23z"/>
    <path fill="#D1E1FC" d="M164.116 310.467l-68.051 11.888c-.684.137-1.367-.41-1.504-.956l-5.739-33.889c-.136-.683.41-1.367.957-1.503l68.051-11.889c.683-.136 1.367.41 1.503.957l5.74 33.889c.136.82-.274 1.366-.957 1.503z"/>
    <path fill="#6C98E3" d="M99.48 319.213l-1.092.136c-.547.137-1.094-.273-1.23-.82l-4.92-29.106c-.136-.547.274-1.093.82-1.23l1.093-.136c.547-.137 1.094.273 1.23.819l4.92 29.107c.136.546-.137 1.093-.82 1.23zM105.63 317.983l-1.093.136c-.547.137-1.093-.273-1.23-.82l-4.92-29.106c-.136-.547.274-1.093.82-1.23l1.094-.136c.546-.137 1.093.273 1.23.819l4.919 29.107c.137.683-.273 1.23-.82 1.23zM111.779 316.889l-1.093.137c-.546.137-1.093-.273-1.23-.82l-5.056-29.243c-.136-.546.274-1.093.82-1.23l1.093-.136c.547-.137 1.094.273 1.23.82l4.92 29.106c.273.683-.137 1.23-.684 1.366zM117.929 315.66l-1.094.136c-.546.137-1.093-.273-1.229-.82l-4.92-29.106c-.136-.547.273-1.093.82-1.23l1.093-.136c.547-.137 1.093.273 1.23.819l4.919 29.107c.137.546-.273 1.093-.819 1.23zM123.941 314.567l-1.093.136c-.547.137-1.093-.273-1.23-.82l-4.919-29.106c-.137-.547.273-1.093.819-1.23l1.094-.136c.546-.137 1.093.273 1.23.819l4.919 29.107c.137.546-.137 1.093-.82 1.23z"/>
    <path fill="#4A4394" d="M130.09 313.337l-1.093.136c-.547.137-1.093-.273-1.23-.82l-4.919-29.106c-.137-.547.273-1.093.82-1.23l1.093-.136c.546-.137 1.093.273 1.23.819l4.919 29.107c.137.546-.273 1.093-.82 1.23zM136.239 312.107l-1.093.136c-.546.137-1.093-.273-1.23-.819l-4.919-29.107c-.137-.546.273-1.093.82-1.23l1.093-.136c.547-.137 1.093.273 1.23.82l4.919 29.106c.137.683-.273 1.23-.82 1.23zM142.389 311.014l-1.093.136c-.547.137-1.094-.273-1.23-.82l-4.92-29.106c-.136-.547.274-1.093.82-1.23l1.093-.136c.547-.137 1.094.273 1.23.819l4.92 29.107c.136.546-.274 1.093-.82 1.23zM148.401 309.784l-1.093.136c-.547.137-1.093-.273-1.23-.819l-4.919-29.107c-.137-.546.273-1.093.82-1.23l1.093-.136c.546-.137 1.093.273 1.23.82l4.919 29.106c.137.683-.137 1.23-.82 1.23z"/>
    <path fill="#6C98E3" d="M154.55 308.691l-1.093.136c-.546.137-1.093-.273-1.23-.82l-4.919-29.106c-.137-.547.273-1.093.82-1.23l1.093-.136c.547-.137 1.093.273 1.23.819l4.919 29.107c.137.546-.273 1.093-.82 1.23zM160.7 307.461l-1.094.136c-.546.137-1.093-.273-1.229-.82l-4.92-29.106c-.137-.547.273-1.093.82-1.23l1.093-.136c.547-.137 1.093.273 1.23.819l4.919 29.107c.137.546-.273 1.093-.819 1.23z"/>
    <path fill="#231F20" d="M124.624 305.684c-6.559 5.603-9.019 14.895-7.652 24.87.41 2.597 3.006 9.839 3.416 12.436.957 6.012 2.87 14.758 2.733 21.59 8.746 6.286 26.51 5.739 34.436 1.093.956-8.199.683-14.758.136-26.236-.956-17.218-8.608-33.343-8.745-34.709"/>
    <path fill="#fff" d="M148.538 289.286c-.273 3.143 0 7.789.41 13.119.137.956.547 2.596.41 3.416 0 .547-.273.956-.683 1.366-.957.957-2.733 1.504-4.783 1.777-6.423 1.23-16.671.41-19.541.956-2.733.547-5.466-.41-5.466-2.049 0-1.094 1.093-1.777 1.093-4.1.274-4.919 0-16.261-.82-21.18-1.913-10.522-2.459-16.808-1.093-28.56l19.814-5.603c1.503.274.82 4.92 2.323 5.193 1.094.137 7.379 6.149 9.156 13.118 1.093 1.777 1.776 3.28 2.323 4.51.82 2.323.82 4.099 0 6.286-1.503 4.099-2.596 7.105-3.143 11.751z"/>
    <path fill="#D1D1D1" d="M148.538 289.286c-.274 3.143 0 7.789.41 13.119.136.956.546 2.596.41 3.416 0 .546-.274.956-.684 1.366.547-1.366-.819-7.789-1.366-11.478-.683-3.69-.41-10.659.82-15.168 1.23-4.51 1.776-6.559 1.776-6.559s.957-1.504 1.777-2.733c.82 2.323.82 4.099 0 6.285-1.503 4.1-2.597 7.106-3.143 11.752z" opacity=".32"/>
    <path fill="#fff" d="M146.488 258.13s3.006-.683 5.876.957c3.826 2.186 11.752 3.553 11.752 3.553s.547 9.019-.41 12.572c0 0-2.596-.41-10.522.41-8.062.819-18.858 6.285-18.858 6.285"/>
    <path fill="#FFCEBD" d="M146.488 227.521c-1.913-3.69-5.056-8.882-12.298-8.199-7.379.683-13.665 5.329-13.529 10.795.137 5.466 3.827 12.162 5.193 15.988 1.367 3.826.82 9.429.82 9.429l16.261-.547s-.41-4.919.547-6.832c.546-1.093 2.733-3.006 5.329-5.056 1.093-.957 2.05-2.733 1.367-5.603-.957-4.373-1.367-6.286-1.914-7.515-.546-1.094-1.229-1.64-1.776-2.46z"/>
    <path fill="#231F20" d="M146.215 257.037c-.957-1.23-2.46-1.776-3.416-3.006-.82-1.23-1.367-3.006-1.093-4.373.136-.956.546-1.64.956-2.46 1.776-3.552 1.913-5.876-.683-8.745-.82-.957-1.64-1.913-2.05-3.143-.41-1.093-.683-2.186.41-2.87.683-.41 1.367-.546 1.913 0 .41.41 1.503 3.826 1.777 1.367.136-2.187 1.093-2.87-.957-6.833-.273-.41-1.366-2.323-1.093-2.733 2.459.547 3.416 1.094 4.373 2.733 1.093-1.23-2.187-10.522-12.299-10.248-2.596 0-5.193.273-7.516 1.366-2.323 1.093-4.782 3.143-4.646 5.193-3.553.683-4.099 4.373-4.372 5.739-.41 1.913-.41 3.963-.274 5.876.41 2.87 1.503 5.739 2.05 8.609.41 2.323.547 4.919-.273 7.242-.957 2.187-3.007 3.28-4.1 5.466-1.366 2.597-1.23 6.013.137 8.609 1.366 2.596 3.143 4.373 2.733 7.653-.137 1.093-1.093 6.012 3.416 9.975 1.913 1.64 5.329 2.46 7.789 2.05 2.46-.41 4.236-.82 6.423-2.05 3.826-2.05 7.105-3.416 9.565-8.882 1.367-3.143-.683-3.553.547-6.696.683-1.777 2.186-3.28 2.323-5.193.136-1.64-.41-3.279-1.503-4.646 0 .137 0 .137-.137 0z"/>
    <path fill="#7CADE3" d="M497.13 400.246c-.546-.82-1.093-1.504-1.776-2.323l-.137-.137c-.273-.41-.683-.82-1.093-1.23-6.423-7.789-6.832-14.348-6.832-14.485-.137-8.745-.274-21.044-.274-29.653 0-2.459 0-4.509-.136-6.286v-1.913s.136-.683.273-1.639c.137-.957.273-2.05.546-3.007.137-.956.41-2.049.547-3.279.41-2.733.547-6.013 0-9.566 1.23.137 2.323.274 3.28.684 0 0-1.367-4.647-2.733-10.113-.547-1.913-.957-3.962-1.503-6.012-.82-3.963-1.64-7.652-1.777-9.839-.273-4.646.957-11.342 1.913-18.857.273-1.777.41-3.69.547-5.603.136-1.776.273-3.553.273-5.466v-1.64c-.137-4.783-1.366-8.882-2.87-12.572l-.819-1.639c-1.64-3.417-3.827-6.286-6.013-9.019-.683-1.913-1.776-2.733-1.776-2.733-.82-2.323-.41-5.466-.41-5.466 2.733-1.093 5.602-11.889 4.372-19.678-.136-.41-.136-.956-.273-1.366-1.64-6.833-6.013-9.429-9.155-8.882-6.97-8.473-17.492.82-19.951 1.913-3.007 1.503-6.149 2.459-8.609 2.733-.683.136-1.367.136-1.913.136-.547 0-.957-.136-1.23-.136.547 7.242 3.279 10.658 6.559 11.888.683.274 1.503.41 2.323.547.547.137 1.23.137 1.777.137-.137.546-.274 1.913 1.093 3.962.136.274.82.547.956.957.274 1.093 0 2.05 0 3.006v.273c-.136.82-.273 1.777-.41 2.733 0 .547-.136 1.094-.136 1.504 0 .41 0 .683.136.956.274.547.957.683 1.777.683.273 0 .546 0 .82-.136l.41.82c.956 2.049 2.186 3.826 3.689 5.329.41.137.82.273 1.367.273 2.049.274 4.782-.41 7.652-1.503.273.82.41 1.503.547 2.187-.684.273-1.23.409-1.23.409-.137 1.23 0 3.963 0 3.963-.547.41-.957.82-1.367 1.367-.273.273-.546.546-.683.956-.137.137-.273.41-.41.547-3.006 4.646-5.466 10.112-7.242 16.125-.82 2.323-1.367 4.646-2.05 7.105v.137c-.273 0-.683.137-1.093.137-5.056.956-13.802 2.733-23.094 5.329l-2.596.82v.41c-1.367 0-3.69-.137-5.056 0-.82.136-2.597 1.776-4.373 3.143-1.367 1.503-2.596 3.006-2.187 3.143h.274c.273 0 .82-.274 1.23-.684.136 0 .41.137.683 0 .683-.136 1.64-1.366 2.186-1.776.274-.137.82-.547 1.23-.82a3.323 3.323 0 0 1 1.64 0c.137.273 0 .683-.41.957-.41.273-1.503.41-1.64.683-.137.273 0 .82 1.503.546 1.503-.273 2.597-.956 3.143-1.229.547-.41.957-.547 2.187-.684l.136.547s11.479.137 22.274-.137h1.777l-.41 2.46c-.274 0-.41.137-.684.137l-3.962.136c-.137 0-.137-.136-.274-.136h-36.348l-2.733-7.516-2.05-5.603-2.597-7.105-4.646-12.846c-.136-.546-.82-.819-1.366-.683l-.41.137c-.547.137-.957.82-.683 1.503l4.236 11.889 2.596 7.105 2.05 5.603 2.733 7.516c-.82-.684-1.367-.82-1.23 0 .137.956 1.23 2.459 1.23 2.459.82.957 1.093 1.367 2.87 2.323.956.547 3.279 1.094 4.646 1.367.546.136 1.229.136 1.913 0 .683-.137 1.913-.41 3.416-.41v1.23s11.888 1.23 20.087 2.459c3.417.547 6.696.82 9.839.957-.137.82-.137 1.776-.273 2.596-.273 3.007-.547 5.876-.683 8.473-.137 2.186-.274 4.099-.41 6.012-.41 7.926-.547 13.392-.82 14.075 0 0 .956 1.093 4.646 1.23 0 .683.136 1.503.136 2.186-.136 1.093-.41 5.603-.819 11.342-.137 1.913-.274 4.1-.41 6.286-.684 9.019-1.367 19.267-1.777 24.87-.273.683-.41 1.503-.41 2.733v7.652c.137 2.87.41 7.516.683 13.119h14.895c-.136-.547-.136-1.093-.273-1.64 0-.137-.137-.41-.137-.547 0-.273 0-.683-.136-1.229-.82-6.97-.82-4.92 1.093-13.665.956-2.46 2.186-5.466 3.416-8.746 2.05 7.242 3.69 13.392 4.51 17.081v.137c0 .137.136.41.136.546 0 .274.137.547.273.957 0 .137.137.137.137.273.137.547.547 1.093.82 1.64v.137c.82 1.366 1.913 3.143 3.28 5.056h18.857c-.41-.547-.546-.82-.82-1.093z" opacity=".3"/>
    <path fill="#FFCEBD" d="M448.483 447.253s-.274 8.062.136 9.975c.274 1.503 4.783 1.64 5.466.82.547-.82 1.23-10.112 1.23-10.112"/>
    <path fill="#1449A8" d="M455.315 459.278c0 1.503-.41 4.1-.41 4.1h-5.466l-.273-.957s-1.776.957-3.143.957h-4.646c-3.416 0-5.329-.41-5.329-.957-.41-2.46 3.689-2.323 4.782-2.323 3.007 0 6.286-1.367 6.97-3.006.546-1.094.273-1.367.956-1.23 0 0 .547.136.957.82.546 1.093 1.64 1.776 2.869 1.503.684-.137 1.367-.41 1.913-.957-.273.137.82.547.82 2.05z"/>
    <path fill="#FFCEBD" d="M505.33 448.346s1.503 3.963 2.186 5.33c.683 1.366 5.056-.274 5.329-1.23.273-.957-3.416-7.789-3.416-7.789"/>
    <path fill="#1449A8" d="M514.485 453.129c.546 1.503 1.366 4.236 1.366 4.236l-4.099 2.46-.82-.547s-.957 1.503-2.187 2.323c-.956.547-3.006 1.503-4.099 1.64-3.826.82-6.696.41-6.969-.137-1.23-2.186 3.826-3.416 4.783-3.689 2.733-1.093 4.099-3.826 4.236-5.466 0-1.23-.274-1.367.41-1.503 0 0 1.23-.274 2.049 1.639 0 0 3.007-.546 3.69-2.459-.137.136.956.136 1.64 1.503z"/>
    <path fill="#231F20" d="M482.235 344.356s.41-2.733.82-4.509c1.093-5.74 2.87-17.218-6.559-26.237 0 0-11.068 4.919-19.951 5.602-6.969.41-8.609 0-8.609 0s-.41 9.429 2.323 32.933l31.976-7.789zM511.888 446.433c-4.372 2.596-7.105 3.416-7.105 3.416l-.684-1.093c-.41-.82-.956-1.776-1.366-2.596 0 0 0-.137-.137-.137-1.64-2.733-3.279-5.739-5.192-8.746v-.136c-9.839-16.125-22.411-34.299-26.784-41.405v-.137c-.41-.546-.683-1.229-.82-1.639 0-.137-.136-.274-.136-.274-.137-.41-.274-.683-.274-.956 0-.137-.136-.41-.136-.547v-.136c-.137-1.367.136-2.46.956-3.143l.547-.547c2.46-1.776 7.242-1.366 11.205 1.503.137.137.41.274.683.41.137.137.274.137.274.273 3.279 2.46 6.832 5.466 9.565 9.566 8.882 13.938 14.212 34.572 19.404 46.324z"/>
    <path fill="#231F20" d="M482.782 392.047c.137 7.515-2.596 9.292-5.739 8.472-.547-.137-1.093-.273-1.64-.547-2.05-.956-3.963-2.869-5.193-4.646v-.137c-.273-.273-.41-.819-.683-1.229 0-.137-.137-.274-.137-.274-.136-.41-.273-.683-.273-.956 0-.137-.136-.41-.136-.547v-.136c-.684-3.827-2.46-10.249-4.647-17.765-1.229-4.236-2.596-8.882-3.826-13.528-3.963-13.938-7.789-27.603-7.789-31.566.41-14.348 17.081-2.87 25.007 2.733 3.416 2.323 4.236 6.422 4.236 10.249.137 3.552.41 38.535.547 48.237v.683c.273.547.273.82.273.957z"/>
    <path fill="#231F20" d="M482.646 382.208s.41 7.379 7.925 15.851c0 0-10.932-3.279-11.615-3.963-.546-.683-3.416-7.652-3.279-8.472 0-.82 6.969-3.416 6.969-3.416z"/>
    <path fill="#2D2B2B" d="M502.596 446.023c-1.64-2.733-3.28-5.739-5.193-8.746v-.136c-9.838-16.125-22.41-34.299-26.783-41.405v-.137c-.41-.546-.683-1.229-.82-1.639 0-.137-.137-.274-.137-.274-.136-.41-.273-.683-.273-.956 0-.137-.137-.41-.137-.547v-.136c-.683-3.827-2.459-10.249-4.646-17.765l12.572-33.752h4.646s-5.192 15.578-7.242 22.547c-2.05 6.969-2.733 17.901-2.87 22-.41 8.883 10.386 23.777 13.528 29.243 3.007 6.15 16.125 29.517 17.355 31.703z"/>
    <path fill="#231F20" d="M455.315 453.812h-.683c-4.646 0-7.242-.547-7.242-.547v-1.366c.41-20.361-1.913-53.567-2.323-64.089v-7.652c-.137-9.019 8.882-.956 12.162 6.149.819 1.64 1.366 3.417 1.913 5.466.546 2.323.546 5.056 1.229 7.653 3.553 15.851-3.552 41.268-5.056 54.386z"/>
    <path fill="#231F20" d="M476.906 344.356c0 .273-15.031 37.305-17.901 45.367-.41 1.094-1.776 2.05-3.553 2.46-3.963.957-9.975-.683-10.249-8.609 0-.82 0-1.776.137-2.869.683-6.423 3.006-42.225 3.416-45.641.41-3.417 1.093-8.473 3.007-9.019 9.018-3.006 27.876 5.329 25.143 18.311z"/>
    <path fill="#2D2B2B" d="M461.328 383.301c-2.05 9.429-2.05 7.242-1.23 14.348.82 6.832-2.186-6.012-2.186-6.012l1.913-4.783 1.503-3.553z"/>
    <path fill="#EAD2B2" d="M419.787 285.46s-2.05-.273-2.187-.136c-.136.136-.82.546-.82.546v.41h-.136c-.137 0-1.503.957-1.64 1.093-.137.137-1.913 2.05-1.913 2.05s.273.273.956 0c.684-.136 1.64-1.366 2.187-1.776.273-.137.683-.547 1.23-.82.683-.137 1.64-.137 2.186.41.683.82.137-1.777.137-1.777z"/>
    <path fill="#FFCEBD" d="M429.079 282.454s-3.69 1.23-4.783 1.367c-1.093.273-4.236-.137-6.012 0-.82.136-2.597 1.776-4.373 3.143-1.367 1.503-2.597 3.006-2.187 3.143.82.409 2.733-1.914 4.236-3.143 1.23-.82 2.187-.82 2.733-.41.547.41.274.956-.136 1.229-.41.274-1.503.41-1.64.684-.137.273 0 .82 1.503.546 1.503-.273 2.596-.956 3.143-1.23.547-.409.957-.546 2.186-.683 1.094-.136 6.696-1.093 6.696-1.093"/>
    <path fill="#fff" d="M452.856 276.851l-1.093 9.702-.137.957h-.957c-1.503 0-3.006.137-4.509.137-10.795.273-22.274.136-22.274.136l-.683-4.236c10.249-3.006 20.224-5.056 25.69-6.012 2.46-.547 3.963-.684 3.963-.684z"/>
    <path fill="#D1E1FC" d="M405.848 291.609l-.956.41c-.41.137-.957-.136-1.093-.546l-12.025-33.479c-.137-.41.136-.957.546-1.093l.957-.41c.41-.137.956.136 1.093.546l12.025 33.479c.137.41-.137.957-.547 1.093z"/>
    <path fill="#D1E1FC" d="M442.88 292.976h-37.988a.934.934 0 0 1-.957-.956v-.82c0-.547.41-.957.957-.957h37.988c.547 0 .957.41.957.957v.82c.136.546-.41.956-.957.956z"/>
    <path fill="#D1D1D1" d="M452.856 276.851l-1.093 9.702c-.274.274-.684.684-1.094.957-1.503 0-3.006.137-4.509.137.82-3.963 2.323-8.746 2.733-10.112 2.46-.547 3.963-.684 3.963-.684z" opacity=".32"/>
    <path fill="#fff" d="M486.745 327.685c-4.92-2.05-12.299.273-26.1 3.553-13.802 3.416-16.808.273-16.808.273.547-1.093.41-13.392 1.913-28.56.273-3.279.683-6.695 1.23-10.112 2.05-14.074 5.739-29.106 12.708-39.355 3.416-5.056 13.119-7.652 13.119-7.652 5.329 6.559 10.522 14.212 10.522 25.963 0 11.752-3.143 23.094-2.597 29.927.547 6.695 6.013 25.963 6.013 25.963z"/>
    <path fill="#D1D1D1" d="M457.638 302.815c-2.733.273-6.969.41-11.888.136.273-3.279.683-6.695 1.23-10.112h.41c2.596-.136 4.782-1.776 5.466-4.236.956-3.416 2.459-9.019 4.782-16.261 4.1-12.982 8.473-13.528 8.473-13.528s6.286-3.28 6.559 3.689c.41 6.696-6.833 39.355-15.032 40.312z" opacity=".32"/>
    <path fill="#231F20" d="M476.223 346.269s4.646-1.64 7.379-9.839l-2.87-5.192-6.149 2.869s-1.093 5.603-.82 5.876c.137.41 2.46 6.286 2.46 6.286z"/>
    <path fill="#FFCEBD" d="M418.693 295.026l-.409-3.416s-3.143.41-4.51.273c-1.503-.137-3.279-.957-5.329-1.367-2.187-.41-2.597.41-2.323.957.41.547 2.869.956 2.869.956s.274.274-.956.274h-1.367c-.683-.137-1.503-.683-1.639-.683l-.82-.82c-1.367-1.504-2.323-1.913-2.187-.957.137.957 1.23 2.46 1.23 2.46.82.956 1.093 1.366 3.006 2.323.957.546 3.417 1.093 4.646 1.366.684.137 1.23.137 1.914 0 .819-.136 2.186-.41 3.962-.41h1.913c2.733.137 1.367-.546 0-.956z"/>
    <path fill="#fff" d="M465.564 256.081s-4.373.546-8.472 13.528c-2.323 7.242-3.826 12.845-4.783 16.261-.683 2.46-2.87 4.236-5.466 4.236l-30.336.82-.137 6.013s11.889 1.23 20.088 2.46c8.199 1.229 16.261 1.229 20.634.683 8.062-.957 16.124-36.622 15.714-40.312-.683-5.602-7.242-3.689-7.242-3.689z"/>
    <path fill="#FFCEBD" d="M445.476 225.471s-.819 1.503.957 4.236c.137.274.82.547.957.957.273 1.093 0 2.323 0 3.279 1.366 4.646 3.279 8.883 6.149 12.026 3.006 1.366 8.745-.684 13.528-3.28 1.093-.137 6.833-2.87 5.876-11.069-.82-8.199-7.242-15.578-7.652-15.714-.41-.137-12.982 2.186-13.529 2.186-.546 0-6.286 7.379-6.286 7.379z"/>
    <path fill="#8C97AE" d="M463.651 228.614s-3.28-.683-3.416-5.056c-.137-4.373-.684-4.509-3.28-2.05-2.596 2.46-20.497 11.889-22-8.199 2.049.684 6.969-.409 11.751-2.596 2.46-1.23 12.982-10.522 19.951-1.913 3.416-.547 8.199 2.46 9.429 10.249 1.23 7.789-1.503 18.584-4.373 19.677-1.776.683-2.596-1.093-3.279-4.783-.274-1.913 4.782-5.602-.547-10.385-2.323-1.64-6.832 1.093-4.236 5.056z"/>
    <path fill="#FFCEBD" d="M471.577 238.726s-.547 5.603 1.639 7.379c-3.143 3.826-10.385 4.373-10.385 4.373s1.64-2.596-2.05-9.429c-3.689-6.832 10.796-2.323 10.796-2.323z"/>
    <path fill="#fff" d="M461.874 251.161s-.136-2.733 0-3.963c0 0 6.969-2.323 10.249-3.006 0 0 1.093.683 1.776 2.733-.136 0-7.105 3.416-12.025 4.236z"/>
    <path fill="#FFCEBD" d="M447.526 232.714s-1.229 5.192-.683 6.422c.41 1.23 3.553.41 3.553.41l-2.87-6.832z"/>
    <path fill="#B3CDFA" d="M561.355 198.961h-154.96c-2.05 0-3.826-1.776-3.826-3.826v-70.238c0-2.049 1.776-3.826 3.826-3.826h154.96c2.05 0 3.827 1.777 3.827 3.826v70.238c0 2.05-1.64 3.826-3.827 3.826z"/>
    <path fill="#fff" d="M561.628 122.438v67.915c0 2.733-2.186 5.056-5.056 5.056h-152.5c-2.733 0-5.056-2.187-5.056-5.056v-67.915c0-2.733 2.186-5.056 5.056-5.056h152.637c2.733.136 4.919 2.323 4.919 5.056z"/>
    <path fill="#D1E1FC" d="M561.628 122.438v9.839H399.016v-9.839c0-2.733 2.186-5.056 5.056-5.056h152.637c2.733.136 4.919 2.323 4.919 5.056zM555.206 140.476v46.87H405.165v-15.031c6.013-8.336 14.348-13.802 33.206-2.596 18.174 10.795 18.174-23.914 38.945-22.138 20.771 1.777 26.373 32.796 42.498 9.156 16.124-23.777 35.392-16.261 35.392-16.261zM434.681 140.202h-29.516v2.05h29.516v-2.05zM455.179 143.755h-50.014v2.05h50.014v-2.05zM442.743 147.308h-37.578v2.05h37.578v-2.05z"/>
    <path fill="#D1E1FC" d="M450.396 150.861h-45.231v2.05h45.231v-2.05zM434.681 154.414h-29.516v2.05h29.516v-2.05z"/>
    <path fill="#1449A8" d="M185.023 96.884c-6.832 18.448-24.597 31.566-45.367 31.566-20.771 0-38.399-13.118-45.231-31.566h90.598z"/>
    <path fill="#2A5AB0" d="M95.108 48.92c-5.466 7.79-8.609 17.355-8.609 27.603 0 5.467.957 10.796 2.596 15.715l45.778-15.715L95.108 48.92z"/>
    <path fill="#26C6DA" d="M141.705 23.64v48.374l35.529 32.796c7.926-8.609 12.845-20.088 12.845-32.796 0-26.646-21.59-48.374-48.374-48.374z"/>
    <path fill="#2A5AB0" d="M134.873 28.15c-16.398 0-31.02 8.199-39.765 20.77l39.765 27.604V28.15z"/>
    <path fill="#fff" d="M125.854 123.941c2.87.546 5.876.82 9.019.82 14.075 0 26.783-6.013 35.529-15.578l-35.529-32.796-9.019 47.554z"/>
    <path fill="#6C98E3" d="M89.096 92.238c5.602 16.262 19.54 28.56 36.758 31.84l9.019-47.554-45.777 15.714z"/>
    <path fill="#B3CDFA" d="M111.096 202.378H46.597c-1.776 0-3.142 1.503-3.142 3.143v20.36c0 1.777 1.503 3.143 3.142 3.143h53.43c.274 2.187 1.777 6.423 9.566 6.423 0 0-3.143-.547-3.826-6.423h5.329c1.776 0 3.143-1.503 3.143-3.143v-20.36c.137-1.64-1.367-3.143-3.143-3.143z"/>
    <path fill="#EEF9FF" d="M109.866 200.738H45.504c-1.776 0-3.143 1.503-3.143 3.143v20.36c0 1.777 1.504 3.143 3.143 3.143h53.43c.273 2.187 1.777 6.423 9.566 6.423 0 0-3.143-.547-3.827-6.423h5.33c1.776 0 3.143-1.503 3.143-3.143v-20.36c0-1.64-1.504-3.143-3.28-3.143z"/>
    <path fill="#D1E1FC" d="M109.729 206.067H45.094c-.41 0-.82-.273-.82-.82v-1.23c0-.41.274-.819.82-.819h64.635c.41 0 .82.273.82.819v1.23c0 .41-.41.82-.82.82zM109.729 210.713H45.094c-.41 0-.82-.273-.82-.82v-1.23c0-.41.274-.819.82-.819h64.635c.41 0 .82.273.82.819v1.23c0 .41-.41.82-.82.82zM109.729 215.359H45.094c-.41 0-.82-.273-.82-.82v-1.229c0-.41.274-.82.82-.82h64.635c.41 0 .82.273.82.82v1.229c0 .41-.41.82-.82.82zM109.729 220.005H45.094c-.41 0-.82-.273-.82-.82v-1.229c0-.41.274-.82.82-.82h64.635c.41 0 .82.273.82.82v1.229c0 .41-.41.82-.82.82zM109.729 224.651H45.094c-.41 0-.82-.273-.82-.82v-1.229c0-.41.274-.82.82-.82h64.635c.41 0 .82.273.82.82v1.229c0 .547-.41.82-.82.82z"/>
    <path fill="#B3CDFA" d="M485.925 212.49h64.498c1.777 0 3.143 1.503 3.143 3.143v20.36c0 1.777-1.503 3.143-3.143 3.143h-53.43c-.273 2.187-1.776 6.423-9.565 6.423 0 0 3.143-.547 3.826-6.423h-5.329c-1.777 0-3.143-1.503-3.143-3.143v-20.36c0-1.64 1.366-3.143 3.143-3.143z"/>
    <path fill="#EEF9FF" d="M487.155 210.85h64.498c1.776 0 3.143 1.503 3.143 3.143v20.361c0 1.776-1.503 3.142-3.143 3.142h-53.43c-.273 2.187-1.776 6.423-9.565 6.423 0 0 3.143-.547 3.826-6.423h-5.329c-1.777 0-3.143-1.503-3.143-3.142v-20.361c0-1.64 1.366-3.143 3.143-3.143z"/>
    <path fill="#D1E1FC" d="M533.478 234.764h18.038c.683 0 1.093-.547 1.093-1.094v-18.721c0-.683-.546-1.093-1.093-1.093h-18.038c-.683 0-1.093.547-1.093 1.093v18.721c0 .547.41 1.094 1.093 1.094zM487.291 216.316h41.678c.274 0 .547-.273.547-.547v-1.503c0-.273-.273-.547-.547-.547h-41.678c-.273 0-.546.274-.546.547v1.503c0 .274.273.547.546.547zM496.583 220.962h32.386c.273 0 .547-.273.547-.547v-1.639c0-.274-.274-.547-.547-.547h-32.386c-.273 0-.546.273-.546.547v1.639c0 .274.273.547.546.547zM487.291 225.608h41.678c.274 0 .547-.273.547-.547v-1.503c0-.273-.273-.546-.547-.546h-41.678c-.273 0-.546.273-.546.546v1.503c0 .274.273.547.546.547zM490.844 230.117h38.262c.273 0 .546-.273.546-.546v-1.503c0-.274-.273-.547-.546-.547h-38.262c-.273 0-.547.273-.547.547v1.503c-.136.273.137.546.547.546zM513.528 234.764h15.715c.136 0 .41-.137.41-.41v-1.914c0-.136-.137-.409-.41-.409h-15.715c-.137 0-.41.136-.41.409v1.914c0 .273.273.41.41.41zM366.083 96.884h-65.045s0-.956.684-2.323c1.639-3.962 7.652-11.751 29.379-15.304l10.659-2.187s24.87 0 24.323 19.814z"/>
    <path fill="#B3D1F4" d="M344.493 96.885h-43.455s0-.957.684-2.324c1.639-.546 3.552-.41 5.192 0 1.64.41 2.597.684 2.597.684h28.286c5.466.136 6.696 1.64 6.696 1.64z"/>
    <path fill="#FFCEBD" d="M328.505 78.027c.683.957 1.23 2.46 1.503 3.69.41 1.64 1.913 2.87 3.69 2.732 9.565-.546 8.882-6.422 8.882-6.422-1.913-3.006-3.143-11.889-3.143-11.889"/>
    <path fill="#2D2B2B" d="M306.231 50.697s-.41 11.889 4.919 11.752c5.33-.137 0-13.118 0-13.118l-4.919 1.366z"/>
    <path fill="#FFCEBD" d="M338.207 63.952c.137 1.776.273 3.416.137 4.51 0 .136 0 .273-.137.546 0 .137 0 .273-.137.547-1.23 5.055-7.789 12.298-12.298 12.845h-1.777c-6.286-.274-9.975-5.466-12.161-10.932-.137-.137-.137-.41-.274-.547-1.913-5.193-2.459-10.385-2.596-12.298 0-.41-.273-5.193.546-6.56.957-1.503 13.529-3.006 13.802-3.006.273 0 12.299.82 12.299.82s1.913 8.062 2.596 14.075z"/>
    <path fill="#231F20" d="M340.12 63.679c.137 1.776 0 3.28-.137 4.373 0 .136 0 .273-.136.546-.82 5.056-7.106 12.982-14.075 13.665-.547.137-1.094.137-1.503.137-7.653.273-10.249-5.466-12.299-11.069-.137-.137-.137-.41-.273-.547 0 0 2.596 4.237 3.963 4.373 1.366.137-.274-1.503 3.279-2.87 2.323-.956 5.739-.82 7.379-.546 1.503.137 4.1.957 5.056 1.093h.547c1.23-.683 4.373-5.466 4.783-8.199.136-1.23 2.459-1.093 3.416-.956z" opacity=".24"/>
    <path fill="#231F20" d="M303.771 47.007s.41 9.156 15.442 5.466c4.099-.956 7.789-1.913 9.838-.82 3.143 9.703 3.143 14.349 4.236 13.939 1.367-.41-2.323-8.472 2.324-7.653 3.552.684-.137 9.566-.137 9.566s4.373.546 4.509-1.503c.137-1.23.274-18.585-2.733-22.684-3.006-4.1-6.559-3.963-6.559-3.963s-3.826-3.143-12.708-.546c-8.882 2.596-13.529-.684-13.529-.41.137.41-1.366 2.87-.683 8.608z"/>
    <path fill="#1449A8" d="M366.083 96.884s-.82 15.715-7.242 25.69c0 0 0 .137-.137.274 0 0-.136.136-.136.273-1.914 2.87-12.709 18.721-19.541 25.143-7.653 6.97-16.398 14.895-16.398 14.895l-.274-.273c-1.093 1.093-2.186 2.186-2.459 2.733-.547 1.093-1.23 5.056-2.323 5.466-.137 0-.274.136-.547.136-.41.274-.956.684-1.64.684-1.229.136-3.006-.274-3.553-.41-.409.273-.819.82-1.639 1.23-1.503.82-3.007 1.913-4.236 2.186-1.23.41-1.504 0-1.23-.82.273-.82 2.596-2.186 3.553-2.87.819-.683 2.323-2.596 2.869-3.689.547-1.23.547-1.776 0-1.776-.546 0-2.186.956-3.416 1.229-1.23.274-1.913 0-1.23-.82.547-.683 2.323-2.869 4.373-3.416 2.05-.546 2.596-.546 4.099-1.64.684-.546 1.64-1.776 2.323-2.869l-.546-.41s13.665-19.131 23.913-33.753c.274-.273.41-.546.684-.956 5.739-11.615 6.422-20.907 6.286-24.597-.684-1.366-1.777-1.64-1.777-1.64h20.224z"/>
    <path fill="#FFCEBD" d="M317.163 156.19s-2.186 3.826-3.69 4.92c-1.503 1.093-2.049 1.093-4.099 1.639-2.05.547-3.826 2.597-4.373 3.417-.546.683 0 1.093 1.23.819 1.23-.273 2.87-1.229 3.416-1.229.547 0 .547.683 0 1.776-.546 1.23-2.049 3.143-2.869 3.69-.82.683-3.28 2.049-3.553 2.733-.274.819 0 1.229 1.23.819 1.229-.41 2.733-1.503 4.236-2.323.82-.41 1.23-.956 1.64-1.229.546.136 2.323.546 3.552.409a4.532 4.532 0 0 0 1.64-.683c.137 0 .41 0 .547-.136 1.093-.41 1.776-4.373 2.323-5.466.546-1.094 4.919-5.056 4.919-5.056l-6.149-4.1z"/>
    <path fill="#D1E1FC" d="M357.475 122.574c6.422-9.975 8.608-25.69 8.608-25.69l-8.199-5.602-4.236 2.05c-2.596-1.094-7.105-2.87-7.105-2.87l-1.914 6.422s1.094.41 1.777 1.64c0 3.69-.547 12.845-6.286 24.597-.273.273-.41.547-.683.957-10.249 14.758-23.914 33.752-23.914 33.752l5.876 5.193s8.746-7.926 16.398-14.895c6.969-6.286 17.628-22.137 19.541-25.144 0-.136.137-.136.137-.273-.137 0 0-.137 0-.137z"/>
    <path fill="#7CADE3" d="M311.833 100.847h-.273c.273.273.41.547.547.547.273.273.136.41.136.41-.273.273-.546.273-.956.273-.273 0-.41-.137-.683-.41-.274.273-.547.273-.957.273-.41 0-.82-.41-1.503-1.093.137.137 0 .273 0 .273-.273.274-.683.274-.957.274-.41 0-.956-.41-1.503-1.093-.273-.274-.546-.547-.82-.957-.273-.273-.546-.41-.82-.547-.546-.41-1.093-.41-1.229-.41-3.143 0-4.51-1.366-8.199-1.366h16.944c-.136 0-.546.137-1.093.137l.137.136c.273.274.41.547.683.684.683.82 1.64 1.913 1.776 2.049.274.274.137.41.137.41-.683.41-.957.41-1.367.41z"/>
    <path fill="#FFCEBD" d="M311.15 100.847h-.273c.273.274.41.547.547.547.273.273.136.41.136.41-.273.273-.546.273-.956.273-.274 0-.41-.136-.683-.41-.274.274-.547.274-.957.274-.41 0-.82-.41-1.503-1.094.136.137 0 .274 0 .274-.273.273-.683.273-.957.273-.41 0-.956-.41-1.503-1.093-.273-.274-.546-.547-.82-.957-.273-.273-.546-.41-.82-.546a2.023 2.023 0 0 0-1.229-.41c-3.143 0-4.51-1.367-8.199-1.367 0 0 8.882-4.236 14.211-1.23.547.137 1.64.274 2.186.274 1.504 0 1.094.82.684 1.093-.137 0-.547.136-1.093.136l.136.137c.273.273.41.547.683.683.684.82 1.64 1.913 1.777 2.05.273.273.136.41.136.41-.819.273-1.093.273-1.503.273z"/>
    <path fill="url(#e)" d="M310.604 97.021c-.137 0-.547.137-1.093.137 0 0-1.23-1.23-1.777-1.504.547.137 1.64.274 2.187.274 1.639 0 1.229.82.683 1.093z" opacity=".47"/>
    <mask id="f" width="115" height="19" x="86" y="164" maskUnits="userSpaceOnUse">
        <path fill="#fff" fill-rule="evenodd" d="M86 183h114.104v-18.996H86V183z" clip-rule="evenodd"/>
    </mask>
    <g mask="url(#f)">
        <path fill="#26C6DA" d="M114.886 164.005l10.992 19.009h-9.152v-3.415h3.229l-5.069-8.763-5.069 8.763h3.451v3.415h-9.367l10.985-19.009z"/>
    </g>
    <mask id="g" width="115" height="19" x="86" y="164" maskUnits="userSpaceOnUse">
        <path fill="#fff" fill-rule="evenodd" d="M86 183h114.104v-18.996H86V183z" clip-rule="evenodd"/>
    </mask>
    <g mask="url(#g)">
        <path fill="#fff" d="M158.609 172.388v10.626h-4.089v-19.009l8.853 6.934v.048l8.867-6.934v18.961h-4.09v-10.571l-4.777 3.74v-.055l-4.764-3.74z"/>
    </g>
    <mask id="h" width="115" height="19" x="86" y="164" maskUnits="userSpaceOnUse">
        <path fill="#fff" fill-rule="evenodd" d="M86 183h114.104v-18.996H86V183z" clip-rule="evenodd"/>
    </mask>
    <g mask="url(#h)">
        <path fill="#fff" d="M134.814 174.375l-7.492-7.445 2.888-2.878 6.68 6.638 6.673-6.638 2.889 2.878-7.548 7.5v8.583h-4.09v-8.638z"/>
    </g>
    <mask id="i" width="115" height="19" x="86" y="164" maskUnits="userSpaceOnUse">
        <path fill="#fff" fill-rule="evenodd" d="M86 183h114.104v-18.996H86V183z" clip-rule="evenodd"/>
    </mask>
    <g mask="url(#i)">
        <path fill="#fff" fill-rule="evenodd" d="M95.54 164.052H86v18.961h4.09v-7.445h5.45c1.598 0 2.966-.566 4.09-1.683 1.132-1.125 1.702-2.484 1.702-4.071 0-1.587-.57-2.946-1.702-4.071-1.124-1.125-2.492-1.691-4.09-1.691zm-5.45 7.454v-3.388h5.451c.472 0 .875.166 1.201.497.333.331.5.731.5 1.2 0 .47-.167.87-.5 1.201-.326.324-.729.49-1.2.49H90.09z" clip-rule="evenodd"/>
    </g>
    <mask id="j" width="115" height="19" x="86" y="164" maskUnits="userSpaceOnUse">
        <path fill="#fff" fill-rule="evenodd" d="M86 183h114.104v-18.996H86V183z" clip-rule="evenodd"/>
    </mask>
    <g mask="url(#j)">
        <path fill="#fff" d="M195.517 177.048c0-3.121-2.071-5.731-4.85-6.387l2.969-5.834c2.864 1.091 5.053 3.673 5.735 6.849a6.627 6.627 0 0 1-.105 2.272c-.472 2.126-1.96 3.77-3.919 4.647.111-.497.17-1.015.17-1.547z"/>
    </g>
    <mask id="k" width="115" height="19" x="86" y="164" maskUnits="userSpaceOnUse">
        <path fill="#fff" fill-rule="evenodd" d="M86 183h114.104v-18.996H86V183z" clip-rule="evenodd"/>
    </mask>
    <g mask="url(#k)">
        <path fill="#677797" d="M187.772 182.541l.486.103c.611.083 1.208.138 1.791.145 5.243-.042 9.478-4.285 9.478-9.501a9.46 9.46 0 0 0-.229-2.098c.097.745.07 1.511-.111 2.27-.875 3.692-4.971 5.927-9.332 5.21l-2.083 3.871z"/>
    </g>
    <path fill="#26C6DA" d="M189.947 176.199c-1.371 2.359-2.164 3.774-3.326 5.796a9.82 9.82 0 0 1-1.955-.917 12.63 12.63 0 0 1-1.882-1.482 9.003 9.003 0 0 1-1.811-2.575l-.014-.04.007-.014a.622.622 0 0 1-.036-.108c-.224-.788-.469-2.183-.274-3.255l.065-.276c.512-1.86 1.861-3.356 3.671-4.286a6.249 6.249 0 0 0-.043.741c0 3.167 2.402 5.809 5.598 6.416z"/>
    <path fill="#1AAABC" d="M192.342 164.242l-2.229 3.808c-4.436-.471-8.418 1.746-9.392 5.277-.325 1.166.007 2.885.252 3.694a8.863 8.863 0 0 1-.836-3.619 9.859 9.859 0 0 1 1.168-4.489c2.128-3.72 6.666-5.621 11.037-4.671z"/>
    <defs>
        <linearGradient id="a" x1="206.124" x2="396.085" y1="456.651" y2="456.651" gradientUnits="userSpaceOnUse">
            <stop stop-color="#2842A2"/>
            <stop offset="1" stop-color="#6C98E3"/>
        </linearGradient>
        <linearGradient id="b" x1="58.142" x2="544.09" y1="248.964" y2="248.964" gradientUnits="userSpaceOnUse">
            <stop stop-color="#2842A2"/>
            <stop offset="1" stop-color="#6C98E3"/>
        </linearGradient>
        <linearGradient id="c" x1="117.979" x2="139.557" y1="460.558" y2="460.558" gradientUnits="userSpaceOnUse">
            <stop stop-color="#2842A2"/>
            <stop offset="1" stop-color="#6C98E3"/>
        </linearGradient>
        <linearGradient id="d" x1="144.712" x2="167.402" y1="462.801" y2="462.801" gradientUnits="userSpaceOnUse">
            <stop stop-color="#2842A2"/>
            <stop offset="1" stop-color="#6C98E3"/>
        </linearGradient>
        <linearGradient id="e" x1="307.758" x2="311.082" y1="96.444" y2="96.444" gradientUnits="userSpaceOnUse">
            <stop stop-color="#DF922F"/>
            <stop offset="1" stop-color="#DF922F" stop-opacity="0"/>
        </linearGradient>
    </defs>
</svg>
