<svg xmlns="http://www.w3.org/2000/svg" width="480" height="486" fill="none" viewBox="0 0 480 486">
    <path fill="url(#a)" d="M373.428 183.261c0 89.814-98.24 196.767-188.055 196.767C95.559 380.028 0 319.514 0 229.795 0 140.077 95.655 54.859 185.373 54.859c89.719 0 188.055 38.587 188.055 128.402z"/>
    <g opacity=".5">
        <path fill="#B3CDFA" d="M337.33 216.869h-24.608v30.162h24.608v-30.162z" opacity=".5"/>
        <path fill="#CADCFB" d="M312.722 216.869v.575h24.033v29.587h.479v-30.162h-24.512z" opacity=".5"/>
        <path fill="url(#b)" d="M332.255 222.997h-14.65v18.001h14.65v-18.001z" opacity=".5"/>
        <path fill="#B3CDFA" d="M329.67 226.157h-9.384v11.586h9.384v-11.586zM307.551 216.869h-24.608v30.162h24.608v-30.162z" opacity=".5"/>
        <path fill="#CADCFB" d="M282.943 216.869v.575h24.034v29.587h.574v-30.162h-24.608z" opacity=".5"/>
        <path fill="url(#c)" d="M302.572 222.997h-14.65v18.001h14.65v-18.001z" opacity=".5"/>
        <path fill="#B3CDFA" d="M299.891 226.157h-9.383v11.586h9.383v-11.586zM277.773 216.869h-24.608v30.162h24.608v-30.162z" opacity=".5"/>
        <path fill="#CADCFB" d="M253.165 216.869v.575h24.033v29.587h.575v-30.162h-24.608z" opacity=".5"/>
        <path fill="url(#d)" d="M272.698 222.997h-14.65v18.001h14.65v-18.001z" opacity=".5"/>
        <path fill="#B3CDFA" d="M270.113 226.157h-9.384v11.586h9.384v-11.586z" opacity=".5"/>
    </g>
    <g opacity=".5">
        <path fill="#B3CDFA" d="M210.939 282.363h-78.324v52.95h78.324v-52.95z" opacity=".5"/>
        <path fill="url(#e)" d="M206.343 286.48h-69.324v44.715h69.324V286.48z" opacity=".5"/>
        <path fill="#B3CDFA" d="M190.831 321.046l-28.534-18.863h28.534v18.863zM152.148 299.406l28.533 18.767h-28.533v-18.767z" opacity=".5"/>
    </g>
    <g opacity=".5">
        <path fill="#B3CDFA" d="M233.823 83.967h-27.576v33.8h27.576v-33.8z" opacity=".5"/>
        <path fill="#CADCFB" d="M206.247 83.967v.67h26.906v33.13h.67v-33.8h-27.576z" opacity=".5"/>
        <path fill="url(#f)" d="M228.27 90.765h-16.469v20.204h16.469V90.765z" opacity=".5"/>
        <path fill="#B3CDFA" d="M225.302 94.404h-10.533v13.022h10.533V94.404zM200.502 83.967h-27.576v33.8h27.576v-33.8z" opacity=".5"/>
        <path fill="#CADCFB" d="M172.926 83.967v.67h26.906v33.13h.574v-33.8h-27.48z" opacity=".5"/>
        <path fill="url(#g)" d="M194.948 90.765h-16.469v20.204h16.469V90.765z" opacity=".5"/>
        <path fill="#B3CDFA" d="M191.98 94.404h-10.532v13.022h10.532V94.404zM167.181 83.967h-27.577v33.8h27.577v-33.8z" opacity=".5"/>
        <path fill="#CADCFB" d="M139.604 83.967v.67h26.811v33.13h.67v-33.8h-27.481z" opacity=".5"/>
        <path fill="url(#h)" d="M161.627 90.765h-16.469v20.204h16.469V90.765z" opacity=".5"/>
        <path fill="#B3CDFA" d="M158.563 94.404h-10.532v13.022h10.532V94.404z" opacity=".5"/>
    </g>
    <path fill="url(#i)" d="M70.76 133.566H51.514v5.937H70.76v-5.937z"/>
    <path fill="url(#j)" d="M81.867 141.992H62.62v5.937h19.246v-5.937z"/>
    <path fill="url(#k)" d="M250.963 335.791H225.78v7.756h25.183v-7.756z"/>
    <path fill="url(#l)" d="M214.099 359.155h-25.183v7.755h25.183v-7.755z"/>
    <path fill="url(#m)" d="M343.745 168.706h-25.182v7.756h25.182v-7.756z"/>
    <path fill="url(#n)" d="M342.404 137.587h-25.182v7.756h25.182v-7.756z"/>
    <path fill="url(#o)" d="M94.506 133.566H75.26v5.937h19.246v-5.937z"/>
    <path fill="url(#p)" d="M287.635 103.213h-19.246v5.937h19.246v-5.937z"/>
    <path fill="url(#q)" d="M263.985 127.534h-19.246v5.936h19.246v-5.936z"/>
    <path fill="url(#r)" d="M311.286 103.213H292.04v5.937h19.246v-5.937z"/>
    <path fill="#D1E1FC" d="M228.669 113.936c.443 0 .886-.147 1.181-.589a131.502 131.502 0 0 1 7.38-8.992c.59-.59.443-1.474-.148-2.064-.59-.589-1.476-.442-2.066.148-2.657 3.095-5.166 6.191-7.528 9.139-.442.589-.295 1.621.296 2.063.147.148.59.295.885.295zm11.365-13.561c.443 0 .738-.147 1.033-.442 2.657-2.8 5.461-5.601 8.266-8.255.59-.59.59-1.474 0-2.063-.591-.59-1.476-.59-2.067 0a225.981 225.981 0 0 0-8.413 8.402c-.59.59-.59 1.474 0 2.063.443.295.886.295 1.181.295zm12.694-12.234c.295 0 .738-.148 1.033-.443 2.804-2.505 5.904-5.159 9.003-7.517.591-.442.738-1.474.148-2.064-.443-.59-1.476-.737-2.067-.147a243.675 243.675 0 0 0-9.003 7.665c-.59.59-.59 1.474-.148 2.063.296.295.738.443 1.034.443zm13.726-11.35c.295 0 .59-.148.886-.295 3.099-2.359 6.199-4.717 9.446-6.928.738-.442.885-1.327.295-2.064-.443-.737-1.328-.884-2.066-.295-3.247 2.359-6.495 4.717-9.594 7.076-.59.442-.738 1.474-.295 2.063.443.295.885.443 1.328.443zm14.317-10.319c.295 0 .59-.147.886-.294a225.422 225.422 0 0 1 9.889-6.339c.738-.442.885-1.326.442-2.063-.442-.737-1.328-.885-2.066-.443a233.856 233.856 0 0 0-10.037 6.486c-.738.442-.885 1.327-.442 2.064.442.442.885.59 1.328.59zm15.055-9.433c.295 0 .443 0 .738-.148 3.395-1.916 6.789-3.98 10.184-5.748.738-.443 1.033-1.327.59-2.064-.442-.737-1.328-1.032-2.066-.59-3.542 1.917-6.937 3.833-10.332 5.896-.738.443-.885 1.327-.59 2.064.443.295.886.59 1.476.59zm15.498-8.55c.295 0 .442 0 .738-.147 3.394-1.769 6.937-3.538 10.479-5.16.738-.294 1.033-1.178.738-1.916-.295-.736-1.181-1.031-1.919-.736a178.596 178.596 0 0 0-10.627 5.306c-.738.442-1.033 1.327-.59 1.916.147.442.59.737 1.181.737zm15.94-7.665c.148 0 .443 0 .59-.147a342.337 342.337 0 0 1 10.775-4.717c.738-.295 1.181-1.18.738-1.916-.295-.737-1.181-1.18-1.919-.737-3.69 1.474-7.38 3.095-10.922 4.717-.738.294-1.033 1.179-.738 1.916.295.442.886.884 1.476.884zm16.383-6.928c.148 0 .295 0 .591-.147 3.69-1.474 7.38-2.8 11.069-4.127.738-.295 1.181-1.18.886-1.917-.295-.737-1.181-1.179-1.919-.884-3.69 1.327-7.38 2.653-11.07 4.127-.737.295-1.18 1.18-.885 1.916.148.59.738 1.032 1.328 1.032zm16.531-6.043c.148 0 .295 0 .443-.148 3.69-1.179 7.527-2.358 11.217-3.537.738-.295 1.181-1.032 1.034-1.77-.296-.736-1.034-1.178-1.772-1.03a198.856 198.856 0 0 0-11.365 3.537c-.738.294-1.18 1.032-.885 1.916.147.59.738 1.032 1.328 1.032zm16.974-5.16h.443c3.837-1.031 7.675-1.916 11.365-2.8.738-.147 1.328-1.032 1.033-1.769-.148-.737-1.033-1.326-1.771-1.032-3.838.885-7.675 1.917-11.513 2.949-.738.147-1.181 1.031-1.033 1.768.295.442.885.885 1.476.885zm17.269-4.127h.295l11.512-2.21a1.529 1.529 0 0 0 1.181-1.77c-.147-.736-.885-1.326-1.771-1.179-3.837.59-7.823 1.327-11.66 2.211a1.53 1.53 0 0 0-1.181 1.77c.295.736.886 1.178 1.624 1.178zm17.416-3.095h.148c3.837-.59 7.822-1.032 11.66-1.474.738-.147 1.476-.737 1.328-1.621-.147-.885-.738-1.474-1.623-1.327-3.838.442-7.823.884-11.808 1.474-.738.147-1.328.884-1.181 1.621.148.885.738 1.327 1.476 1.327zm17.564-1.916c4.133-.295 7.97-.442 11.808-.59.886 0 1.476-.737 1.476-1.474 0-.884-.738-1.474-1.476-1.474-3.838.147-7.823.295-11.808.59-.885 0-1.476.737-1.328 1.621 0 .737.59 1.327 1.328 1.327zm29.52-.148c.738 0 1.476-.59 1.476-1.326 0-.885-.591-1.474-1.329-1.622a156.092 156.092 0 0 0-11.955-.442c-.886 0-1.476.59-1.476 1.474 0 .885.59 1.474 1.476 1.474 3.985 0 7.822.148 11.808.442z"/>
    <path fill="#2D2B2B" fill-rule="evenodd" d="M191.112 357.167c1.822 5.278 4.373 11.285 9.112 12.741 3.28 1.092 14.032-5.461 16.219-8.191 2.369-2.548 14.762-128.857 11.482-136.501-4.374-10.375-52.486 4.004-53.397 21.84-1.276 22.932 1.64 47.139 6.014 69.889 2.733 13.65 6.196 27.118 10.57 40.222z" clip-rule="evenodd"/>
    <path fill="#E5B1A3" d="M107.462 460.545a34.059 34.059 0 0 0 14.579 3.822c1.64-5.642 3.28-11.466 4.921-17.108.182-.728.364-1.456.182-2.184-.182-1.092-1.276-1.82-2.187-2.366-3.645-2.003-9.476-4.369-11.299.546a652.744 652.744 0 0 1-6.196 17.29zM200.405 474.377c5.103.728 10.206.364 15.126-1.274-.182-6.006-.546-11.831-.729-17.837 0-.728 0-1.456-.546-2.184-.547-.91-1.823-1.274-2.734-1.456-4.009-.728-10.388-.91-10.57 4.186-.364 6.189-.364 12.377-.547 18.565z"/>
    <path fill="#2D2B2B" fill-rule="evenodd" d="M217.901 342.607c-5.103-10.556-19.865-17.654-29.159.546-14.215 27.665 10.388 79.717 10.206 113.206h17.312c.912-3.276 4.374-107.928 1.641-113.752z" clip-rule="evenodd"/>
    <path fill="#231F20" fill-rule="evenodd" d="M152.112 255.974c4.191 3.276 9.658 3.822 14.943 3.822 42.827 0 61.78-10.192 61.78-33.488 0-21.113-44.467-16.927-64.513-10.374-4.374 1.456-10.57 2.729-13.486 6.734-4.192 5.824-8.93 25.298 1.276 33.306z" clip-rule="evenodd"/>
    <path fill="#E5B1A3" d="M210.793 117.652c1.458 19.657 5.285 39.859 16.402 56.057 2.369 3.458 5.832 7.098 10.024 6.734 2.551-.182 4.556-2.002 6.014-4.004 1.275-2.184 2.004-4.55 2.369-6.916 3.645-19.292-2.369-38.767-8.201-57.513-2.369-7.644-5.65-21.294-13.486-25.48-8.201-4.368-12.211 9.1-12.94 14.378-.729 5.642-.546 11.102-.182 16.744z"/>
    <path fill="#66BCD5" fill-rule="evenodd" d="M209.882 89.624c.365-3.276 1.276-7.098 4.192-8.554 3.28-1.456 6.56.728 9.112 2.912 15.126 13.468 20.775 32.578 23.509 52.962l-36.084 2.184c-2.369-16.198-2.733-32.942-.729-49.504z" clip-rule="evenodd"/>
    <path fill="#231F20" fill-rule="evenodd" d="M155.756 357.167c1.458 5.278 3.645 11.285 8.383 12.741 3.281 1.092 10.206-12.377 12.757-14.925 2.552-2.548 26.426-101.739 23.51-109.383-3.827-10.374-13.122-16.926-22.781-18.564-14.032-2.184-30.252 2.184-32.257 20.02-2.551 22.932-.911 47.139 2.187 69.889 2.005 13.65 4.739 27.118 8.201 40.222z" clip-rule="evenodd"/>
    <path fill="#FFCEBD" d="M259.999 170.797c1.093 2.184 0 5.096-1.823 6.734-1.822 1.638-14.579 7.644-26.972 2.184-6.196-2.73-7.289-8.736-5.102-14.56 3.098-8.008 32.803 2.912 33.897 5.642z"/>
    <path fill="#231F20" fill-rule="evenodd" d="M179.995 346.429c-.365-11.284-12.757-24.388-27.701-9.1-24.056 24.388-30.981 71.163-40.275 105.743l16.219 5.643c2.187-2.549 51.939-96.098 51.757-102.286z" clip-rule="evenodd"/>
    <path fill="url(#s)" fill-rule="evenodd" d="M143.546 161.151c-5.831-18.746-12.939-41.861-9.841-61.517 8.019-9.646 24.238-32.214 56.313-32.214 22.598 0 39.546 22.75 43.373 28.574 4.374 6.37 2.734 15.652 1.641 23.114-2.37 15.835-9.295 78.261-3.281 121.76H140.63c.365-20.566 8.748-60.789 2.916-79.717z" clip-rule="evenodd"/>
    <path fill="#E5B1A3" d="M122.589 138.401c4.556-17.291 14.215-32.943 27.336-44.955 2.369-2.184 5.65-4.368 8.565-3.094 1.641.728 2.734 2.366 3.099 4.004.546 1.638.364 3.458.364 5.278-.729 20.384-4.556 40.405-8.201 60.425-1.093 6.188-2.369 12.376-4.92 18.018-2.734 5.642-7.108 10.738-12.94 12.922-3.098 1.092-8.018 1.82-10.934-.364-2.187-1.82-2.734-6.37-3.281-8.918-2.004-9.1-2.733-18.564-2.004-27.846.546-5.096 1.458-10.374 2.916-15.47z"/>
    <path fill="#18898D" fill-rule="evenodd" d="M117.486 144.953v.369c-.184-.185 0-.369 0-.369z" clip-rule="evenodd"/>
    <path fill="#1449A8" fill-rule="evenodd" d="M162.499 89.624c-.182-3.276-.729-7.098-3.645-8.554-3.098-1.456-8.93 1.274-11.481 3.458-15.855 13.468-24.785 31.85-28.794 52.234l40.093 2.184c3.462-16.016 4.738-32.76 3.827-49.322z" clip-rule="evenodd"/>
    <path fill="#E5B1A3" d="M199.13 45.033c-2.187-9.646-9.477-12.012-13.851-9.646-2.733 18.2-5.467 26.209-12.757 36.219 8.93 5.642 24.056 4.55 27.337 0 .182-1.456.364-21.477-.729-26.573z"/>
    <path fill="#FFCEBD" d="M198.583 22.283c8.748-6.006 21.505-.728 23.327 10.374 1.64 10.374-8.748 28.029-13.668 30.94-8.565 5.097-20.229-7.097-20.593-12.74-.547-8.554 3.644-23.478 10.934-28.574z"/>
    <path fill="#8C97AE" fill-rule="evenodd" d="M192.387 24.467c-.729-.546-1.64-.364-2.369 0a8.098 8.098 0 0 0-2.005 1.456c-2.004 1.82-4.191 3.822-5.832 6.188-1.64 2.366-2.733 4.914-2.733 7.826 0 1.82.546 3.64-.183 5.46-.546 1.456-2.004 2.913-1.64 4.55.365 1.092 1.64 1.82 2.916 1.639 1.276-.182 2.187-.91 3.098-1.82.729-.91 1.276-2.002 1.823-3.094 2.004-3.459 5.103-6.189 7.107-9.647 2.187-3.458 3.281-7.826 1.458-11.466l-1.64-1.092z" clip-rule="evenodd"/>
    <path fill="#8C97AE" fill-rule="evenodd" d="M233.209 29.017c-1.822-.728-3.827-1.456-5.649-2.366.911 1.092 1.822 2.184 2.187 3.64.364 1.456 0 2.912-1.276 3.64-.911.546-2.187.364-3.098-.182s-1.64-1.274-2.551-2.002c.364.728.729 1.456.729 2.367 0 .91-.547 1.638-1.276 1.82-.729 0-1.276-.365-1.823-.729-2.551-2.002-5.102-4.004-7.836-6.188.182.728.364 1.638.182 2.366-.182.728-.547 1.638-1.458 2.002-1.275.546-2.733-.728-3.462-1.82-.729-1.274-1.641-2.548-3.099-2.912-1.64-.182-2.915 1.274-3.827 2.548-.182.182-.364.546-.546.728l-5.468 7.099c-.546.727-1.093 1.456-1.822 2.002-.729.545-1.822.728-2.551.364-1.458-.546-17.313-23.843 2.916-30.94 2.915-1.093 7.107.181 10.023 1.091 2.916.91 5.832 2.366 8.747 2.912 2.37.364 4.921.182 7.29.546 6.925.728 13.486 6.916 13.668 14.014z" clip-rule="evenodd"/>
    <path fill="#FFCEBD" d="M183.093 33.931c-.912 2.367-.912 4.915 0 7.099 2.733 6.552 9.111.727 9.293-4.005.365-5.642-6.924-9.282-9.293-3.094z"/>
    <path fill="#2D2B2B" fill-rule="evenodd" d="M247.606 483.113c.183-2.548-2.186-4.55-4.556-5.096-2.369-.546-4.92-.182-7.472-.182-7.107 0-13.85-4.368-17.13-10.556-.365-.91-.911-1.82-1.64-2.366-1.094-.546-2.552-.182-3.645.728-.912.91-1.641 2.002-2.552 2.912-1.64 1.638-4.009 2.548-6.196 2.548-2.005 0-4.192-1.456-6.014-.546-1.64.91-2.005 3.094-2.551 4.732-.729 2.73-1.458 5.642-2.005 8.372-.182.546-.364 1.274-.364 1.82h13.485c.547-.91 1.094-3.458 1.458-4.55 0 1.092.547 3.64 1.094 4.55h36.995c.547-.728.911-1.456 1.093-2.366zM125.14 476.015c.911-2.366.546-4.55-.183-5.46-.729-.91-.911-5.278-1.093-11.83 0-2.913-5.103-5.461-9.294-2.002-1.276 1.092-2.552 1.82-3.463 1.456-.729-.364-1.276-2.002-2.369-1.456-.911.546-1.823 2.73-2.552 4.186-1.275 2.548-2.369 5.096-3.644 7.644-.183.546-.547 1.092-.729 1.82l22.051 7.644c.547-.364.911-1.092 1.276-2.002z" clip-rule="evenodd"/>
    <path fill="#fff" d="M187.831 197.369h54.673c3.28 0 6.56-2.548 7.472-5.824l24.056-85.905c.911-3.276-.912-5.824-4.192-5.824h-54.673c-3.28 0-6.56 2.548-7.472 5.824l-24.056 85.905c-.911 3.276.911 5.824 4.192 5.824z"/>
    <path fill="#BAC7DB" d="M183.64 191.545l24.056-85.905c.912-3.276 4.192-5.824 7.472-5.824H221c-3.28 0-6.561 2.548-7.472 5.824l-24.056 85.905c-.911 3.276.911 5.824 4.192 5.824h-5.832c-3.281 0-5.103-2.548-4.192-5.824z"/>
    <path fill="#FFCEBD" d="M191.476 171.889c2.733 1.82 3.098 5.642 1.822 8.554-1.276 2.912-47.929 14.196-59.046 14.014-3.463 0-7.29-.364-9.295-3.094-1.822-2.548-1.275-5.824-.364-8.736 1.64-4.914 4.374-10.374 8.383-13.65 2.551-2.366 56.677 1.82 58.5 2.912z"/>
    <path fill="#FFCEBD" d="M208.242 163.699c1.094-1.638 2.187-3.64 1.094-5.278-.729-1.092-2.187-1.274-3.463-.91-1.275.364-2.187 1.274-3.28 2.002-1.276 1.092-2.734 2.184-4.556 2.366-1.64.182-3.645-.728-4.009-2.366-.365-1.82.911-4.186-.365-5.46-.729-.728-1.822-.728-2.734-.182-.911.546-1.457 1.274-2.004 2.002-3.098 4.186-6.379 8.554-7.654 13.65-1.276 5.096 0 11.102 4.191 14.196 3.827 2.73 9.477 2.366 13.122-.546 3.098-2.548 4.373-6.006 4.738-9.828.364-4.004 2.369-6.006 4.92-9.646zM262.915 159.331c-.183-.546-.547-10.01-1.094-10.375-.911-.728-4.191 10.375-3.462 11.285-2.37-.182-3.099-.364-5.468-.546-1.822-.182-4.009 0-4.556 1.638-.364 1.274.729 2.548 1.458 3.822 1.276 2.184-.547 14.378.365 15.47 3.827 3.822 12.028-2.912 13.486-6.552 2.004-5.46 1.093-9.646-.729-14.742z"/>
    <path fill="#909CAF" d="M480 12.74L354.642 54.321l2.826-24.843L480 12.74z"/>
    <path fill="#D1E1FC" d="M480 12.74L337.554 0l39.793 59.148L480 12.74z"/>
    <path fill="#BAC7DB" d="M480 12.74L362.153 36.543l-7.511 17.778-2.839-33.09L480 12.741z"/>
    <path stroke="#E5B1A3" stroke-linecap="round" d="M207.443 56.028c-2.363.048-7.3-.62-8.143-3.674"/>
    <defs>
        <linearGradient id="a" x1="12.455" x2="363.019" y1="289.119" y2="141.181" gradientUnits="userSpaceOnUse">
            <stop stop-color="#E3EDFE"/>
            <stop offset=".047" stop-color="#E5EEFE"/>
            <stop offset=".511" stop-color="#F0F5FE"/>
            <stop offset="1" stop-color="#F4F8FF"/>
        </linearGradient>
        <linearGradient id="b" x1="317.645" x2="332.347" y1="231.978" y2="231.978" gradientUnits="userSpaceOnUse">
            <stop stop-color="#E3EDFE"/>
            <stop offset="1" stop-color="#BFD5FB"/>
        </linearGradient>
        <linearGradient id="c" x1="287.874" x2="302.576" y1="231.978" y2="231.978" gradientUnits="userSpaceOnUse">
            <stop stop-color="#E3EDFE"/>
            <stop offset="1" stop-color="#BFD5FB"/>
        </linearGradient>
        <linearGradient id="d" x1="258.105" x2="272.807" y1="231.978" y2="231.978" gradientUnits="userSpaceOnUse">
            <stop stop-color="#E3EDFE"/>
            <stop offset="1" stop-color="#BFD5FB"/>
        </linearGradient>
        <linearGradient id="e" x1="137.035" x2="206.315" y1="308.844" y2="308.844" gradientUnits="userSpaceOnUse">
            <stop stop-color="#E3EDFE"/>
            <stop offset="1" stop-color="#BFD5FB"/>
        </linearGradient>
        <linearGradient id="f" x1="211.796" x2="228.271" y1="100.887" y2="100.887" gradientUnits="userSpaceOnUse">
            <stop stop-color="#E3EDFE"/>
            <stop offset="1" stop-color="#BFD5FB"/>
        </linearGradient>
        <linearGradient id="g" x1="178.436" x2="194.911" y1="100.887" y2="100.887" gradientUnits="userSpaceOnUse">
            <stop stop-color="#E3EDFE"/>
            <stop offset="1" stop-color="#BFD5FB"/>
        </linearGradient>
        <linearGradient id="h" x1="145.079" x2="161.554" y1="100.887" y2="100.887" gradientUnits="userSpaceOnUse">
            <stop stop-color="#E3EDFE"/>
            <stop offset="1" stop-color="#BFD5FB"/>
        </linearGradient>
        <linearGradient id="i" x1="51.526" x2="70.754" y1="136.531" y2="136.531" gradientUnits="userSpaceOnUse">
            <stop stop-color="#E3EDFE"/>
            <stop offset="1" stop-color="#D9E6FC"/>
        </linearGradient>
        <linearGradient id="j" x1="62.627" x2="81.855" y1="144.956" y2="144.956" gradientUnits="userSpaceOnUse">
            <stop stop-color="#E3EDFE"/>
            <stop offset="1" stop-color="#D9E6FC"/>
        </linearGradient>
        <linearGradient id="k" x1="225.748" x2="250.971" y1="339.624" y2="339.624" gradientUnits="userSpaceOnUse">
            <stop stop-color="#E3EDFE"/>
            <stop offset="1" stop-color="#D9E6FC"/>
        </linearGradient>
        <linearGradient id="l" x1="188.878" x2="214.101" y1="363.015" y2="363.015" gradientUnits="userSpaceOnUse">
            <stop stop-color="#E3EDFE"/>
            <stop offset="1" stop-color="#D9E6FC"/>
        </linearGradient>
        <linearGradient id="m" x1="318.502" x2="343.726" y1="172.609" y2="172.609" gradientUnits="userSpaceOnUse">
            <stop stop-color="#E3EDFE"/>
            <stop offset="1" stop-color="#D9E6FC"/>
        </linearGradient>
        <linearGradient id="n" x1="317.212" x2="342.436" y1="141.414" y2="141.414" gradientUnits="userSpaceOnUse">
            <stop stop-color="#E3EDFE"/>
            <stop offset="1" stop-color="#D9E6FC"/>
        </linearGradient>
        <linearGradient id="o" x1="75.214" x2="94.442" y1="136.531" y2="136.531" gradientUnits="userSpaceOnUse">
            <stop stop-color="#E3EDFE"/>
            <stop offset="1" stop-color="#D9E6FC"/>
        </linearGradient>
        <linearGradient id="p" x1="268.312" x2="287.54" y1="106.229" y2="106.229" gradientUnits="userSpaceOnUse">
            <stop stop-color="#E3EDFE"/>
            <stop offset="1" stop-color="#D9E6FC"/>
        </linearGradient>
        <linearGradient id="q" x1="244.738" x2="263.966" y1="130.511" y2="130.511" gradientUnits="userSpaceOnUse">
            <stop stop-color="#E3EDFE"/>
            <stop offset="1" stop-color="#D9E6FC"/>
        </linearGradient>
        <linearGradient id="r" x1="292.015" x2="311.243" y1="106.229" y2="106.229" gradientUnits="userSpaceOnUse">
            <stop stop-color="#E3EDFE"/>
            <stop offset="1" stop-color="#D9E6FC"/>
        </linearGradient>
        <linearGradient id="s" x1="236.367" x2="132.916" y1="154.245" y2="154.245" gradientUnits="userSpaceOnUse">
            <stop stop-color="#2842A2"/>
            <stop offset="1" stop-color="#6C98E3"/>
        </linearGradient>
    </defs>
</svg>
