<svg xmlns="http://www.w3.org/2000/svg" width="509" height="530" fill="none" viewBox="0 0 509 530">
    <path fill="url(#a)" d="M488.623 416.102H204.102V107.885c0-3.141 2.423-5.565 5.564-5.565h273.482c3.142 0 5.565 2.424 5.565 5.565v308.217h-.09z"/>
    <path fill="#D2E1FD" d="M488.623 120.271H204.102v-13.643c0-3.141 2.423-5.564 5.564-5.564h273.482c3.142 0 5.565 2.423 5.565 5.564v13.643h-.09z"/>
    <path fill="#E3EDFE" d="M464.3 106.628h-4.398v1.257h4.398v-1.257zM464.3 109.321h-4.398v1.257h4.398v-1.257zM464.3 111.924h-4.398v1.257h4.398v-1.257z"/>
    <path fill="url(#b)" d="M309.384 416.102H24.862V107.885c0-3.141 2.423-5.565 5.565-5.565h273.482c3.141 0 5.564 2.424 5.564 5.565v308.217h-.089z"/>
    <path fill="#D2E1FD" d="M309.384 120.271H24.862v-13.643c0-3.141 2.423-5.564 5.565-5.564h273.482c3.141 0 5.564 2.423 5.564 5.564v13.643h-.089z"/>
    <path fill="#fff" d="M52.686 109.231a2.509 2.509 0 0 1-2.513 2.513 2.508 2.508 0 0 1-2.513-2.513 2.509 2.509 0 0 1 2.513-2.513c1.346-.09 2.513 1.077 2.513 2.513zM62.02 109.231a2.509 2.509 0 0 1-2.513 2.513 2.508 2.508 0 0 1-2.513-2.513 2.509 2.509 0 0 1 2.513-2.513c1.346-.09 2.513 1.077 2.513 2.513zM71.355 109.231a2.509 2.509 0 0 1-2.513 2.513 2.508 2.508 0 0 1-2.513-2.513 2.509 2.509 0 0 1 2.513-2.513c1.526-.09 2.513 1.077 2.513 2.513z"/>
    <path fill="#F1F6FF" d="M137.145 200.601H90.652v46.583h46.493v-46.583z"/>
    <path fill="#E1EBFD" d="M418.435 317.731h-21.002v21.003h21.002v-21.003zM441.951 317.731h-21.003v21.003h21.003v-21.003zM465.646 317.731h-21.002v21.003h21.002v-21.003zM418.435 340.439h-21.002v21.002h21.002v-21.002zM441.951 340.439h-21.003v21.002h21.003v-21.002zM465.646 340.439h-21.002v21.002h21.002v-21.002zM418.435 363.057h-21.002v21.002h21.002v-21.002zM441.951 363.057h-21.003v21.002h21.003v-21.002zM465.646 363.057h-21.002v21.002h21.002v-21.002zM121.797 195.216l-2.334-.449c-.718-.269-1.256-.808-1.436-1.526a10.688 10.688 0 0 0-.449-1.974c-.269-.718 0-1.526.629-1.975l1.974-1.436c1.436-.897 1.795-2.782.718-4.218l-2.244-3.142a2.656 2.656 0 0 0-1.974-1.256c-.808-.09-1.616 0-2.244.448l-1.975 1.437c-.359.269-.807.359-1.256.269-.269 0-.629-.09-.808-.359a20.258 20.258 0 0 0-1.795-1.167c-.718-.359-1.077-1.077-.898-1.885l.359-2.334c.27-1.615-.807-3.32-2.513-3.5l-3.859-.718c-1.616-.269-3.321.808-3.5 2.513l-.36 2.334c-.269.718-.807 1.256-1.525 1.436-.719.09-1.437.269-1.975.449-.27.089-.628.089-.808 0-.449-.09-.808-.359-1.167-.718l-1.436-1.975a2.663 2.663 0 0 0-1.974-1.257c-.808-.089-1.616 0-2.334.449l-3.141 2.244a2.662 2.662 0 0 0-1.257 1.975c-.09.807 0 1.615.449 2.333l1.436 1.975c.359.718.359 1.526-.09 2.154a20.3 20.3 0 0 0-1.167 1.795c-.359.718-1.077 1.077-1.885.898l-2.333-.449c-1.616-.269-3.321.808-3.5 2.513l-.719 3.859c-.269 1.616.808 3.321 2.514 3.501l2.333.449c.718.269 1.257.807 1.436 1.525.09.718.27 1.436.449 1.975.27.718 0 1.526-.628 1.975l-1.975 1.436a2.659 2.659 0 0 0-1.256 1.974c-.09.808 0 1.616.448 2.334l2.244 3.141a2.663 2.663 0 0 0 1.975 1.257c.808.09 1.615 0 2.244-.449l1.974-1.436a1.558 1.558 0 0 1 1.257-.269c.27 0 .628.09.808.359.628.359 1.166.808 1.795 1.077.718.359 1.077 1.077.897 1.885l-.449 2.333c-.269 1.616.808 3.321 2.424 3.501l3.86.718c1.615.269 3.32-.808 3.5-2.513l.448-2.334c.27-.718.808-1.257 1.526-1.436.718-.09 1.436-.269 1.975-.449.269-.09.628-.09.808 0 .448.09.807.359 1.167.718l1.436 1.975a2.656 2.656 0 0 0 1.974 1.256c.808.09 1.616 0 2.244-.448l3.141-2.244c1.437-.898 1.796-2.962.718-4.219l-1.436-1.974c-.359-.718-.359-1.526.09-2.154.359-.629.808-1.167 1.077-1.796.359-.718 1.077-1.077 1.885-.897l2.334.449c1.615.269 3.321-.808 3.5-2.513l.718-3.86c.718-1.705-.359-3.231-2.064-3.59zm-13.733 2.693c-.628 3.68-3.321 6.462-6.911 7.27-3.5.807-7.27-.629-9.244-3.68a8.792 8.792 0 0 1-.27-9.963c1.975-3.052 5.565-4.667 9.155-4.039 4.847.898 8.078 5.475 7.27 10.412zM85.177 168.738c.09-.089.27-.269.359-.269l1.167.269c.628.09 1.077 0 1.526-.359.448-.359.718-.807.807-1.256l.36-1.885c.269-1.077-.629-2.154-1.616-2.334l-1.167-.269c-.09-.09-.27-.269-.27-.359 0-.359-.089-.718-.269-1.077-.09-.09 0-.359.09-.449l.898-.718c.897-.718 1.167-1.885.449-2.782l-1.167-1.616c-.36-.449-.808-.718-1.257-.808-.628-.089-1.077 0-1.526.359l-.897.719h-.539c-.359-.27-.628-.449-.897-.629-.09-.09-.27-.269-.27-.359l.27-1.167c.09-.628 0-1.077-.36-1.525-.358-.449-.807-.718-1.256-.808l-1.885-.359c-.628-.09-1.077 0-1.526.359-.448.359-.717.808-.807 1.256l-.27 1.167c0 .09-.269.269-.358.269-.36 0-.719.09-1.078.27-.09 0-.359 0-.448-.09l-.718-.898c-.36-.448-.808-.718-1.257-.807-.628-.09-1.077 0-1.526.359l-1.615 1.166c-.898.718-1.167 1.885-.45 2.783l.719.897c.09.09 0 .359 0 .449-.27.359-.449.628-.628.898-.09.089-.27.269-.36.269l-1.166-.269c-.629-.09-1.077 0-1.526.359-.449.359-.718.807-.808 1.436l-.359 1.885c-.27 1.077.628 2.154 1.616 2.333l1.166.269c.09.09.27.27.27.36 0 .359.09.718.27 1.077 0 .089 0 .359-.09.448l-.898.718c-.449.359-.718.808-.808 1.257-.09.628 0 1.077.359 1.526l1.167 1.615c.359.449.808.718 1.256.808.45.09 1.077 0 1.526-.359l.898-.718h.269c.09 0 .09 0 .27.09.358.269.628.449.897.628.09.09.27.269.27.359l-.27 1.167c-.09.628 0 1.077.359 1.526.359.449.808.718 1.256.808l1.975.359c.628.089 1.077 0 1.526-.359.449-.359.718-.808.808-1.257l.269-1.167c.09-.09.27-.269.359-.269.359 0 .718-.09 1.077-.269.09 0 .359 0 .449.089l.718.898c.359.449.807.718 1.256.808.629.09 1.077 0 1.526-.359l1.616-1.167c.897-.718 1.166-1.885.448-2.782l-.718-.898c-.09-.09 0-.359 0-.449.09-.538.27-.808.539-1.167zm-4.847-4.218c-.269 1.616-1.526 2.782-3.051 3.141-1.526.359-3.142-.269-4.13-1.615-.897-1.257-.897-3.052-.089-4.488.808-1.436 2.513-2.154 4.129-1.795 1.974.538 3.5 2.513 3.141 4.757z"/>
    <g opacity=".24">
        <path fill="#FBFCFE" d="M239.555 497.15c82.574 0 149.441-10.591 149.441-23.606 0-13.014-66.957-23.605-149.441-23.605-82.485 0-149.442 10.501-149.442 23.605 0 13.015 66.868 23.606 149.442 23.606z" opacity=".024"/>
        <path fill="#F8FAFE" d="M239.555 496.522c80.689 0 146.12-10.322 146.12-22.978 0-12.655-65.431-22.977-146.12-22.977-80.69 0-146.12 10.322-146.12 22.977 0 12.656 65.43 22.978 146.12 22.978z" opacity=".049"/>
        <path fill="#F4F7FD" d="M239.555 495.983c78.804 0 142.709-10.052 142.709-22.528 0-12.476-63.905-22.529-142.709-22.529-78.805 0-142.71 10.053-142.71 22.529 0 12.476 63.905 22.528 142.71 22.528z" opacity=".073"/>
        <path fill="#F1F5FC" d="M239.555 495.355c76.919 0 139.209-9.783 139.209-21.9 0-12.117-62.29-21.9-139.209-21.9-76.92 0-139.21 9.783-139.21 21.9 0 12.117 62.29 21.9 139.21 21.9z" opacity=".098"/>
        <path fill="#EDF2FC" d="M239.555 494.906c74.945 0 135.798-9.604 135.798-21.451 0-11.848-60.764-21.452-135.798-21.452-75.035 0-135.799 9.604-135.799 21.452 0 11.847 60.854 21.451 135.799 21.451z" opacity=".122"/>
        <path fill="#E9F0FB" d="M239.555 494.278c73.06 0 132.298-9.335 132.298-20.823 0-11.489-59.238-20.823-132.298-20.823s-132.298 9.334-132.298 20.823c0 11.488 59.238 20.823 132.298 20.823z" opacity=".146"/>
        <path fill="#E6EDFA" d="M239.555 493.829c71.265 0 128.977-9.065 128.977-20.285 0-11.219-57.712-20.284-128.977-20.284s-128.978 9.065-128.978 20.284c0 11.13 57.713 20.285 128.978 20.285z" opacity=".171"/>
        <path fill="#E2EBFA" d="M239.555 493.38c69.29 0 125.566-8.886 125.566-19.836s-56.186-19.835-125.566-19.835c-69.291 0-125.567 8.885-125.567 19.835 0 10.95 56.186 19.836 125.567 19.836z" opacity=".195"/>
        <path fill="#DFE8F9" d="M239.555 492.662c67.405 0 122.066-8.616 122.066-19.207 0-10.592-54.661-19.208-122.066-19.208-67.406 0-122.066 8.616-122.066 19.208 0 10.68 54.66 19.207 122.066 19.207z" opacity=".22"/>
        <path fill="#DBE6F8" d="M239.555 492.213c65.52 0 118.655-8.347 118.655-18.758 0-10.322-53.135-18.759-118.655-18.759-65.521 0-118.656 8.347-118.656 18.759 0 10.411 53.135 18.758 118.656 18.758z" opacity=".244"/>
        <path fill="#D8E3F7" d="M239.555 491.585c63.725 0 115.334-8.078 115.334-18.13 0-9.963-51.609-18.131-115.334-18.131-63.726 0-115.335 8.078-115.335 18.131 0 10.052 51.609 18.13 115.335 18.13z" opacity=".268"/>
        <path fill="#D4E1F7" d="M239.555 491.136c61.751 0 111.834-7.898 111.834-17.592 0-9.783-50.083-17.591-111.834-17.591-61.751 0-111.834 7.898-111.834 17.591 0 9.694 50.083 17.592 111.834 17.592z" opacity=".293"/>
        <path fill="#D0DEF6" d="M239.555 490.508c59.866 0 108.423-7.629 108.423-16.964 0-9.424-48.557-16.963-108.423-16.963-59.867 0-108.424 7.629-108.424 16.963 0 9.335 48.557 16.964 108.424 16.964z" opacity=".317"/>
        <path fill="#CDDCF5" d="M239.555 490.059c57.981 0 104.923-7.36 104.923-16.515 0-9.155-46.942-16.514-104.923-16.514-57.982 0-104.923 7.359-104.923 16.514 0 9.066 46.941 16.515 104.923 16.515z" opacity=".342"/>
        <path fill="#C9D9F5" d="M239.555 489.521c56.006 0 101.512-7.181 101.512-16.066 0-8.886-45.416-16.066-101.512-16.066-56.097 0-101.513 7.18-101.513 16.066 0 8.885 45.506 16.066 101.513 16.066z" opacity=".366"/>
        <path fill="#C6D7F4" d="M239.555 488.892c54.211 0 98.191-6.911 98.191-15.437 0-8.527-43.98-15.438-98.191-15.438-54.212 0-98.192 6.911-98.192 15.438 0 8.526 43.98 15.437 98.192 15.437z" opacity=".39"/>
        <path fill="#C2D4F3" d="M239.555 488.444c52.326 0 94.691-6.732 94.691-14.989 0-8.258-42.365-14.989-94.691-14.989-52.327 0-94.691 6.731-94.691 14.989 0 8.347 42.364 14.989 94.691 14.989z" opacity=".415"/>
        <path fill="#BED2F3" d="M239.555 487.816c50.352 0 91.28-6.373 91.28-14.361 0-7.899-40.838-14.361-91.28-14.361-50.353 0-91.281 6.373-91.281 14.361s40.839 14.361 91.281 14.361z" opacity=".439"/>
        <path fill="#BBCFF2" d="M239.555 487.367c48.467 0 87.779-6.194 87.779-13.823 0-7.629-39.312-13.822-87.779-13.822-48.468 0-87.78 6.193-87.78 13.822s39.312 13.823 87.78 13.823z" opacity=".463"/>
        <path fill="#B7CDF1" d="M239.555 486.738c46.672 0 84.459-5.923 84.459-13.194 0-7.27-37.787-13.193-84.459-13.193-46.673 0-84.459 5.923-84.459 13.193 0 7.271 37.786 13.194 84.459 13.194z" opacity=".488"/>
        <path fill="#B4CAF1" d="M239.555 486.29c44.787 0 81.048-5.745 81.048-12.746 0-7-36.261-12.745-81.048-12.745-44.788 0-81.049 5.745-81.049 12.745 0 7.001 36.261 12.746 81.049 12.746z" opacity=".512"/>
        <path fill="#B0C8F0" d="M239.555 485.751c42.812 0 77.547-5.475 77.547-12.296 0-6.822-34.735-12.297-77.547-12.297-42.813 0-77.548 5.475-77.548 12.297 0 6.821 34.735 12.296 77.548 12.296z" opacity=".537"/>
        <path fill="#ADC5EF" d="M239.555 485.123c40.928 0 74.137-5.206 74.137-11.668 0-6.463-33.209-11.668-74.137-11.668s-74.138 5.205-74.138 11.668c0 6.462 33.21 11.668 74.138 11.668z" opacity=".561"/>
        <path fill="#A9C3EF" d="M310.371 473.545c0 6.103-31.594 11.219-70.637 11.219s-70.637-5.026-70.637-11.219c0-6.194 31.594-11.22 70.637-11.22s70.637 5.026 70.637 11.22z" opacity=".585"/>
        <path fill="#A5C0EE" d="M239.555 484.046c37.158 0 67.315-4.757 67.315-10.591s-30.157-10.591-67.315-10.591c-37.159 0-67.316 4.757-67.316 10.591s30.157 10.591 67.316 10.591z" opacity=".61"/>
        <path fill="#A2BEED" d="M239.555 483.597c35.273 0 63.905-4.488 63.905-10.053 0-5.564-28.632-10.052-63.905-10.052-35.274 0-63.906 4.488-63.906 10.052 0 5.565 28.632 10.053 63.906 10.053z" opacity=".634"/>
        <path fill="#9EBBED" d="M300.139 473.544c0 5.206-27.016 9.425-60.405 9.425s-60.405-4.219-60.405-9.425c0-5.205 27.016-9.424 60.405-9.424 33.299-.089 60.405 4.219 60.405 9.424z" opacity=".658"/>
        <path fill="#9BB9EC" d="M239.555 482.43c31.414 0 56.904-4.039 56.904-8.975 0-4.937-25.49-8.976-56.904-8.976-31.414 0-56.994 4.039-56.994 8.976.089 5.026 25.58 8.975 56.994 8.975z" opacity=".683"/>
        <path fill="#97B6EB" d="M239.555 481.981c29.529 0 53.493-3.769 53.493-8.526 0-4.668-23.964-8.527-53.493-8.527-29.53 0-53.494 3.77-53.494 8.527s23.964 8.526 53.494 8.526z" opacity=".707"/>
        <path fill="#93B4EB" d="M289.727 473.455c0 4.398-22.528 7.898-50.172 7.898-27.645 0-50.173-3.5-50.173-7.898s22.528-7.899 50.173-7.899c27.644 0 50.172 3.501 50.172 7.899z" opacity=".732"/>
        <path fill="#90B1EA" d="M239.555 480.904c25.849 0 46.762-3.321 46.762-7.36 0-4.128-20.913-7.359-46.762-7.359-25.76 0-46.762 3.32-46.762 7.359s20.912 7.36 46.762 7.36z" opacity=".756"/>
        <path fill="#8CAFE9" d="M239.555 480.276c23.874 0 43.261-3.052 43.261-6.732 0-3.769-19.387-6.731-43.261-6.731-23.875 0-43.262 3.051-43.262 6.731 0 3.68 19.387 6.732 43.262 6.732z" opacity=".78"/>
        <path fill="#89ACE8" d="M279.495 473.544c0 3.501-17.771 6.283-39.761 6.283-21.99 0-39.761-2.872-39.761-6.283 0-3.5 17.771-6.282 39.761-6.282 21.99-.09 39.761 2.782 39.761 6.282z" opacity=".805"/>
        <path fill="#85AAE8" d="M239.555 479.199c20.194 0 36.53-2.513 36.53-5.655 0-3.141-16.336-5.654-36.53-5.654-20.195 0-36.53 2.513-36.53 5.654 0 3.052 16.335 5.655 36.53 5.655z" opacity=".829"/>
        <path fill="#82A7E7" d="M239.555 478.66c18.22 0 33.029-2.333 33.029-5.205s-14.809-5.206-33.029-5.206c-18.221 0-33.03 2.334-33.03 5.206 0 2.872 14.809 5.205 33.03 5.205z" opacity=".854"/>
        <path fill="#7EA5E6" d="M269.263 473.544c0 2.513-13.194 4.757-29.619 4.757-16.335 0-29.619-2.064-29.619-4.757 0-2.513 13.194-4.757 29.619-4.757 16.425 0 29.619 2.154 29.619 4.757z" opacity=".878"/>
        <path fill="#7AA2E6" d="M239.555 477.583c14.45 0 26.118-1.795 26.118-4.128 0-2.244-11.668-4.129-26.118-4.129-14.451 0-26.119 1.795-26.119 4.129 0 2.333 11.668 4.128 26.119 4.128z" opacity=".902"/>
        <path fill="#77A0E5" d="M239.555 477.135c12.475 0 22.618-1.616 22.618-3.591 0-1.974-10.143-3.59-22.618-3.59-12.476 0-22.619 1.616-22.619 3.59 0 1.975 10.143 3.591 22.619 3.591z" opacity=".927"/>
        <path fill="#739DE4" d="M258.942 473.455c0 1.705-8.617 2.962-19.387 2.962-10.681 0-19.387-1.436-19.387-2.962 0-1.706 8.616-2.962 19.387-2.962 10.68 0 19.387 1.256 19.387 2.962z" opacity=".951"/>
        <path fill="#709BE4" d="M239.555 476.058c8.796 0 15.886-1.167 15.886-2.514 0-1.436-7.09-2.513-15.886-2.513s-15.887 1.167-15.887 2.513c0 1.347 7.091 2.514 15.887 2.514z" opacity=".976"/>
        <path fill="#6C98E3" d="M239.555 475.429c6.821 0 12.386-.808 12.386-1.885s-5.565-1.884-12.386-1.884c-6.822 0-12.386.807-12.386 1.884 0 .988 5.564 1.885 12.386 1.885z" opacity=".5"/>
    </g>
    <path fill="#1449A8" d="M352.017 417.179H118.296c-7 0-12.296-6.104-11.219-13.015l47.839-308.306c.898-5.834 6.463-10.591 12.297-10.591h239.105c5.834 0 10.053 4.757 9.155 10.59l-47.929 308.038c-1.256 7.629-7.808 13.284-15.527 13.284z"/>
    <path fill="#274187" d="M411.165 86.434c.628 1.525.718 3.141.449 4.936l-47.839 308.037c-1.167 7.809-7.809 13.464-15.528 13.464h-233.72c-2.513 0-4.757-.718-6.552-2.065 1.795 3.86 5.654 6.552 10.321 6.552h233.721c7.809 0 14.45-5.654 15.528-13.463l47.839-308.037c.538-4.219-1.257-7.63-4.219-9.424z"/>
    <path fill="url(#c)" d="M412.332 115.245l2.962-20.374c.718-5.386-2.962-9.873-8.347-9.873H166.225c-5.385 0-10.501 4.487-11.399 9.873l-2.961 20.374h260.467z"/>
    <path fill="url(#d)" d="M408.024 115.245l4.039 2.692 1.615-11.039 1.616-11.22c.628-4.039-1.167-7.629-4.219-9.424.629 1.526.718 3.142.449 4.937l-3.5 24.054z"/>
    <path fill="#E3EDFE" d="M178.791 100.166c-.269 1.616-1.795 3.141-3.59 3.141-1.616 0-2.872-1.346-2.693-3.141.269-1.615 1.795-3.141 3.59-3.141 1.795.18 2.962 1.525 2.693 3.141zM192.703 100.166c-.269 1.616-1.795 3.141-3.59 3.141-1.616 0-2.873-1.346-2.693-3.141.269-1.615 1.795-3.141 3.59-3.141 1.795.18 2.962 1.525 2.693 3.141zM206.615 100.166c-.27 1.616-1.795 3.141-3.59 3.141-1.616 0-2.873-1.346-2.693-3.141.269-1.615 1.795-3.141 3.59-3.141 1.795.18 2.962 1.525 2.693 3.141z"/>
    <g fill="#111C3A" opacity=".7">
        <path d="M162.635 185.522c-1.167 0-2.244.898-2.423 2.065-.18 1.077.628 1.974 1.615 2.064l-31.863 222.501h.449l31.863-222.501c1.077-.179 2.064-1.077 2.244-2.064.09-1.167-.628-2.065-1.885-2.065zM204.461 195.126c-1.167 0-2.244.898-2.424 2.065-.179 1.077.629 1.974 1.616 2.064l-30.517 212.987h.449l30.517-212.987c1.077-.18 2.064-1.077 2.244-2.064.089-.988-.629-2.065-1.885-2.065zM253.556 154.468c-1.166 0-2.244.897-2.423 2.064-.18 1.077.628 1.974 1.616 2.064l-36.351 253.646h.449l36.261-253.646c1.077-.179 2.064-1.077 2.243-2.064.09-1.077-.807-2.064-1.795-2.064zM298.793 139.479c-1.167 0-2.244.897-2.424 2.064-.179 1.077.629 1.974 1.616 2.064l-38.236 268.725h.449l38.236-268.725c1.077-.179 2.064-1.077 2.243-2.064.09-1.167-.718-2.064-1.884-2.064zM337.656 169.367c-1.167 0-2.244.897-2.423 2.064-.18 1.077.628 1.975 1.615 2.064l-34.106 238.657h.449l34.106-238.657c1.077-.179 2.065-1.077 2.244-2.064.18-1.167-.718-2.064-1.885-2.064zM384.149 161.468c.18-1.166-.628-2.064-1.795-2.064-1.167 0-2.244.898-2.423 2.064-.18 1.077.628 1.975 1.615 2.065l-35.543 248.709h.449l35.543-248.709c1.077-.09 1.975-.988 2.154-2.065z" opacity=".3"/>
    </g>
    <path fill="url(#e)" d="M227.348 266.571h-79.074c-6.552 0-11.039-5.206-10.052-11.848l15.976-103.935c1.077-6.553 7.18-11.848 13.643-11.848h79.073c6.553 0 11.04 5.206 10.053 11.848l-15.976 103.935c-.898 6.462-7.091 11.848-13.643 11.848z"/>
    <path fill="#B3CDFA" d="M253.108 140.825c1.525 2.064 2.064 4.757 1.615 7.808l-15.976 103.936c-1.077 6.552-7.181 11.848-13.553 11.848H146.12c-2.423 0-4.488-.718-6.103-1.796 1.795 2.514 4.757 4.219 8.347 4.219h79.074c6.552 0 12.745-5.206 13.553-11.848l15.976-103.935c.718-4.488-.898-8.078-3.859-10.232z"/>
    <path fill="#89ADE9" d="M222.771 178.791c-2.244 13.912-15.079 25.131-28.991 25.131-13.912 0-23.336-11.219-21.092-25.131 2.243-13.912 15.078-25.131 28.99-25.131 13.912 0 23.336 11.219 21.093 25.131z"/>
    <path fill="#C2D7FB" d="M209.307 176.996c-1.077 6.462-7 11.668-13.463 11.668-6.462 0-10.77-5.206-9.873-11.668 1.077-6.463 7.001-11.668 13.463-11.668 6.373 0 10.861 5.295 9.873 11.668zM193.78 203.922c7.449 0 14.809-3.321 20.195-8.527-5.206-3.59-12.297-5.385-20.285-4.757-6.103.449-12.117 2.244-17.143 4.937 3.59 5.116 9.693 8.347 17.233 8.347zM222.591 220.257h-60.225l.628-3.59h60.046l-.449 3.59zM220.975 230.579H160.75l.629-3.59h60.225l-.629 3.59zM181.663 240.901h-22.528l.628-3.59h22.439l-.539 3.59z"/>
    <path fill="url(#f)" d="M208.948 376.52H83.202c-3.32 0-5.564-2.513-4.936-5.834l9.873-68.483c.449-3.141 3.41-5.834 6.732-5.834h125.835c3.321 0 5.565 2.514 4.937 5.834l-9.873 68.483c-.539 3.321-3.501 5.834-6.822 5.834z"/>
    <path fill="#B3CDFA" d="M223.219 297.267c.18.628.18 1.346.18 2.064l-9.873 68.483c-.449 3.141-3.411 5.834-6.732 5.834H80.959c-1.078 0-1.975-.269-2.693-.718.628 2.064 2.423 3.77 4.936 3.77h125.836c3.321 0 6.103-2.513 6.732-5.834l9.873-68.483c.179-2.244-.718-4.218-2.424-5.116z"/>
    <path fill="#E3EDFE" d="M155.634 310.281h-55.288l.718-4.936 55.288.179-.718 4.757zM126.464 320.783H98.82l.718-4.757h27.644l-.718 4.757z"/>
    <path fill="#26C6DA" d="M86.254 364.403c5.206-6.013 11.04-13.463 16.874-18.848 2.064-1.975 4.308-3.86 7.001-4.219 3.769-.628 6.552 2.244 8.975 4.757 2.872 2.962 5.834 6.014 10.142 6.911 5.206 1.077 10.95-1.615 15.977-4.218 4.487-2.244 9.155-4.667 12.565-8.347 3.321-3.591 5.655-8.078 9.694-10.771.718-.449 1.526-.897 2.244-1.077 1.346-.179 2.513.628 3.41 1.616 2.244 2.513 2.513 6.282 3.411 9.693.898 3.411 2.513 6.911 6.014 7.629 4.487 1.077 9.244-2.962 12.296-7.001 2.962-4.039 5.565-8.796 9.873-11.219 1.346-.718 3.141-1.167 4.218-.449 1.167.898 1.347 2.693 1.167 4.219-.269 6.552-.718 13.283-1.077 19.925-.179 2.693-.897 9.245-2.872 11.668l-119.912-.269z"/>
    <path fill="url(#g)" d="M385.047 400.933h-95.858c-7.899 0-13.284-6.462-12.117-14.361l22.708-146.12c1.167-7.898 8.706-14.36 16.604-14.36h95.768c7.899 0 13.284 6.462 12.117 14.36l-22.708 146.12c-1.166 7.899-8.616 14.361-16.514 14.361z"/>
    <path fill="#B3CDFA" d="M419.512 228.335c1.795 2.514 2.513 5.834 2.065 9.425l-22.708 146.12c-1.167 7.898-8.706 14.361-16.605 14.361h-95.678c-2.872 0-5.385-.898-7.36-2.244 2.064 2.962 5.655 4.936 10.142 4.936h95.768c7.899 0 15.348-6.462 16.605-14.36l22.708-146.121c.808-5.116-1.347-9.603-4.937-12.117z"/>
    <path fill="#E1EBFD" d="M309.114 341.785h-5.654l15.348-98.73h5.654l-15.348 98.73zM323.924 341.785h-5.655l15.259-98.55h5.834l-15.438 98.55zM338.733 341.785h-5.834l15.348-98.55h5.655l-15.169 98.55zM353.363 341.785h-5.654l15.348-98.55h5.654l-15.348 98.55zM368.173 341.785h-5.655l15.259-98.55h5.834l-15.438 98.55zM382.893 341.785h-5.834l15.437-98.55h5.655l-15.258 98.55z"/>
    <path fill="url(#h)" d="M309.114 341.785h-5.654l6.731-43.531h5.834l-6.911 43.531z"/>
    <path fill="url(#i)" d="M323.924 341.785h-5.655l9.604-61.482h5.655l-9.604 61.482z"/>
    <path fill="url(#j)" d="M338.733 341.785h-5.834l11.04-70.547h5.655l-10.861 70.547z"/>
    <path fill="url(#k)" d="M353.363 341.785h-5.654l9.603-61.482h5.655l-9.604 61.482z"/>
    <path fill="url(#l)" d="M368.173 341.785h-5.655l12.297-79.522h5.834l-12.476 79.522z"/>
    <path fill="url(#m)" d="M382.893 341.785h-5.834l13.911-89.306h5.834l-13.911 89.306z"/>
    <path fill="#89ADE9" d="M321.77 367.814c-.898 6.552-7.001 11.847-13.463 11.847-6.463 0-10.95-5.385-10.053-11.847.898-6.552 7.001-11.848 13.463-11.848 6.463-.09 10.95 5.296 10.053 11.848z"/>
    <path fill="#E1EBFD" d="M379.931 360.993H328.95l.628-3.142h50.801l-.448 3.142zM378.584 370.417h-50.801l.449-3.321h50.801l-.449 3.321zM347.978 379.662h-21.541l.449-3.321h21.541l-.449 3.321z"/>
    <path fill="#22B0C0" d="M407.575 131.131a41.424 41.424 0 0 0-5.655-1.795l-5.205-1.616 1.346 1.078c-.898-.18-1.975-.18-2.872-.18-19.746 0-39.043 15.976-43.172 35.722-2.962 14.361 2.872 26.657 13.732 32.312l-.269.269 3.86 1.167c3.321 1.167 7 1.795 10.95 1.795 19.746 0 39.043-15.976 43.172-35.722 3.051-14.899-3.591-27.914-15.887-33.03z"/>
    <path fill="#26C6DA" d="M418.615 162.815c-4.219 19.746-23.426 35.722-43.172 35.722s-32.312-15.976-28.273-35.722c4.219-19.746 23.426-35.723 43.172-35.723s32.312 15.977 28.273 35.723z"/>
    <path fill="#fff" d="M413.948 162.815c-3.68 17.053-20.375 31.055-37.428 31.055-17.053 0-28.093-13.823-24.503-31.055 3.68-17.054 20.374-31.055 37.428-31.055 17.053 0 28.003 14.001 24.503 31.055z"/>
    <path fill="#26C6DA" d="M410.986 162.815c-3.321 15.527-18.4 28.093-33.928 28.093-15.527 0-25.4-12.566-22.079-28.093 3.321-15.528 18.4-28.094 33.927-28.094 15.348 0 25.221 12.566 22.08 28.094z"/>
    <path fill="#fff" d="M400.574 137.683l-42.992 43.082a19.615 19.615 0 0 0 6.462 6.553l43.441-43.531c-1.885-2.513-4.128-4.578-6.911-6.104zM354.799 162.815c-1.166 5.564-.628 10.591 1.167 14.989l41.557-41.557c-2.693-1.077-5.565-1.526-8.796-1.526-5.206 0-10.322 1.526-15.079 3.86l-15.797 15.886c-1.346 2.693-2.423 5.475-3.052 8.348z" opacity=".3"/>
    <path fill="#F9F7F9" d="M385.944 166.135c7.091 0 11.758-3.231 12.835-8.885.987-5.565-2.693-8.886-9.783-8.886h-11.309l-3.68 21.092h-4.129l-.628 3.501h4.129l-1.257 7.09h4.129l1.256-7.09h14.361l.628-3.501h-14.36l.628-3.5h7.18v.179zm-4.757-14.001h7.181c4.846 0 6.821 1.705 6.282 5.295-.628 3.59-3.231 5.296-8.078 5.296h-7.18l1.795-10.591z"/>
    <path fill="#E3EDFE" d="M307.768 195.126c-2.244 9.155-11.219 16.425-20.284 16.425-9.066 0-14.63-7.36-12.387-16.425 2.244-9.155 11.22-16.425 20.285-16.425 8.975.09 14.45 7.45 12.386 16.425z"/>
    <path fill="#fff" d="M304.178 181.932c2.692 2.962 3.769 7.36 2.692 12.297-2.243 9.155-11.219 16.425-20.284 16.425-3.59 0-6.732-1.167-8.975-3.321 2.243 2.513 5.654 4.039 9.873 4.039 9.154 0 18.22-7.36 20.284-16.425 1.346-5.206-.18-9.963-3.59-13.015z"/>
    <path fill="#3457B4" d="M287.573 201.858l-4.308-5.655 4.039-3.321 1.795 2.424 8.527-6.732 2.423 3.321-12.476 9.963z"/>
    <defs>
        <linearGradient id="a" x1="346.768" x2="346.053" y1="417.318" y2="102.95" gradientUnits="userSpaceOnUse">
            <stop stop-color="#EEF4FE"/>
            <stop offset=".848" stop-color="#F4F8FF"/>
        </linearGradient>
        <linearGradient id="b" x1="167.46" x2="166.747" y1="417.318" y2="102.951" gradientUnits="userSpaceOnUse">
            <stop stop-color="#EEF4FE"/>
            <stop offset=".848" stop-color="#F4F8FF"/>
        </linearGradient>
        <linearGradient id="c" x1="152.162" x2="414.679" y1="100.171" y2="100.171" gradientUnits="userSpaceOnUse">
            <stop stop-color="#6092E9"/>
            <stop offset=".442" stop-color="#3C6EC6"/>
            <stop offset="1" stop-color="#2D60BC"/>
        </linearGradient>
        <linearGradient id="d" x1="407.951" x2="415.421" y1="102.112" y2="102.112" gradientUnits="userSpaceOnUse">
            <stop stop-color="#3457B4"/>
            <stop offset=".222" stop-color="#3A5EB9"/>
            <stop offset=".552" stop-color="#4C72C8"/>
            <stop offset=".947" stop-color="#6893DF"/>
            <stop offset="1" stop-color="#6C98E3"/>
        </linearGradient>
        <linearGradient id="e" x1="237.557" x2="158.459" y1="262.399" y2="144.4" gradientUnits="userSpaceOnUse">
            <stop stop-color="#E9F1FE"/>
            <stop offset="1" stop-color="#fff"/>
        </linearGradient>
        <linearGradient id="f" x1="209.638" x2="90.543" y1="372.891" y2="297.701" gradientUnits="userSpaceOnUse">
            <stop stop-color="#EEF4FE"/>
            <stop offset=".466" stop-color="#F8FBFF"/>
            <stop offset="1" stop-color="#fff"/>
        </linearGradient>
        <linearGradient id="g" x1="403.26" x2="299.169" y1="391.867" y2="236.585" gradientUnits="userSpaceOnUse">
            <stop stop-color="#EEF4FE"/>
            <stop offset=".466" stop-color="#F8FBFF"/>
            <stop offset="1" stop-color="#fff"/>
        </linearGradient>
        <linearGradient id="h" x1="303.427" x2="315.931" y1="320.069" y2="320.069" gradientUnits="userSpaceOnUse">
            <stop stop-color="#6092E9"/>
            <stop offset=".442" stop-color="#3C6EC6"/>
            <stop offset="1" stop-color="#2D60BC"/>
        </linearGradient>
        <linearGradient id="i" x1="318.236" x2="333.418" y1="311.097" y2="311.097" gradientUnits="userSpaceOnUse">
            <stop stop-color="#6092E9"/>
            <stop offset=".442" stop-color="#3C6EC6"/>
            <stop offset="1" stop-color="#2D60BC"/>
        </linearGradient>
        <linearGradient id="j" x1="332.883" x2="349.553" y1="306.535" y2="306.535" gradientUnits="userSpaceOnUse">
            <stop stop-color="#6092E9"/>
            <stop offset=".442" stop-color="#3C6EC6"/>
            <stop offset="1" stop-color="#2D60BC"/>
        </linearGradient>
        <linearGradient id="k" x1="347.655" x2="362.839" y1="311.097" y2="311.097" gradientUnits="userSpaceOnUse">
            <stop stop-color="#6092E9"/>
            <stop offset=".442" stop-color="#3C6EC6"/>
            <stop offset="1" stop-color="#2D60BC"/>
        </linearGradient>
        <linearGradient id="l" x1="362.473" x2="380.484" y1="302.051" y2="302.051" gradientUnits="userSpaceOnUse">
            <stop stop-color="#6092E9"/>
            <stop offset=".442" stop-color="#3C6EC6"/>
            <stop offset="1" stop-color="#2D60BC"/>
        </linearGradient>
        <linearGradient id="m" x1="377.119" x2="396.768" y1="297.187" y2="297.187" gradientUnits="userSpaceOnUse">
            <stop stop-color="#6092E9"/>
            <stop offset=".442" stop-color="#3C6EC6"/>
            <stop offset="1" stop-color="#2D60BC"/>
        </linearGradient>
    </defs>
</svg>
