<svg width="518" height="540" viewBox="0 0 518 540" fill="none" xmlns="http://www.w3.org/2000/svg">
<path d="M495.008 425.599H202.649V108.914C202.649 105.714 205.118 103.245 208.318 103.245H489.338C492.538 103.245 495.008 105.714 495.008 108.914V425.599Z" fill="url(#paint0_linear)"/>
<path d="M495.008 121.626H202.649V107.634C202.649 104.433 205.118 101.964 208.318 101.964H489.338C492.538 101.964 495.008 104.433 495.008 107.634V121.626Z" fill="#D2E1FD"/>
<path d="M444.711 253.768H338.266V281.751H444.711V253.768Z" fill="#E1EBFD"/>
<path d="M444.711 328.298H338.266V342.289H444.711V328.298Z" fill="#E1EBFD"/>
<path d="M444.711 155.553H255.323V228.071H444.711V155.553Z" fill="#E1EBFD"/>
<path d="M444.711 354.726H338.266V382.709H444.711V354.726Z" fill="#E1EBFD"/>
<path d="M469.951 107.543H465.47V108.823H469.951V107.543Z" fill="#E3EDFE"/>
<path d="M469.951 110.378H465.47V111.658H469.951V110.378Z" fill="#E3EDFE"/>
<path d="M469.951 112.938H465.47V114.218H469.951V112.938Z" fill="#E3EDFE"/>
<path d="M310.74 425.599H18.381V108.914C18.381 105.714 20.8501 103.245 24.0508 103.245H305.07C308.271 103.245 310.74 105.714 310.74 108.914V425.599Z" fill="url(#paint1_linear)"/>
<path d="M310.74 121.626H18.381V107.634C18.381 104.433 20.8501 101.964 24.0508 101.964H305.07C308.271 101.964 310.74 104.433 310.74 107.634V121.626Z" fill="#D2E1FD"/>
<path d="M46.9128 110.195C46.9128 111.658 45.7239 112.847 44.2608 112.847C42.7976 112.847 41.6088 111.658 41.6088 110.195C41.6088 108.732 42.7976 107.543 44.2608 107.543C45.7239 107.543 46.9128 108.732 46.9128 110.195Z" fill="white"/>
<path d="M56.5148 110.195C56.5148 111.658 55.326 112.847 53.8628 112.847C52.3996 112.847 51.2108 111.658 51.2108 110.195C51.2108 108.732 52.3996 107.543 53.8628 107.543C55.326 107.543 56.5148 108.732 56.5148 110.195Z" fill="white"/>
<path d="M66.1168 110.195C66.1168 111.658 64.928 112.847 63.4649 112.847C62.0017 112.847 60.8129 111.658 60.8129 110.195C60.8129 108.732 62.0017 107.543 63.4649 107.543C65.1109 107.543 66.1168 108.732 66.1168 110.195Z" fill="white"/>
<path d="M260.444 155.553H71.0549V228.071H260.444V155.553Z" fill="#E1EBFD"/>
<path d="M133.697 204.203H85.9611V252.03H133.788V204.203H133.697Z" fill="#F1F6FF"/>
<path d="M129.399 208.501H90.3505V247.641H129.399V208.501Z" fill="#E1EBFD"/>
<path d="M96.0203 334.151H74.4386V355.732H96.0203V334.151Z" fill="#E1EBFD"/>
<path d="M120.163 334.151H98.5808V355.732H120.163V334.151Z" fill="#E1EBFD"/>
<path d="M144.488 334.151H122.906V355.732H144.488V334.151Z" fill="#E1EBFD"/>
<path d="M96.0203 357.47H74.4386V379.052H96.0203V357.47Z" fill="#E1EBFD"/>
<path d="M120.163 357.47H98.5808V379.052H120.163V357.47Z" fill="#E1EBFD"/>
<path d="M144.488 357.47H122.906V379.052H144.488V357.47Z" fill="#E1EBFD"/>
<path d="M96.0203 380.698H74.4386V402.279H96.0203V380.698Z" fill="#E1EBFD"/>
<path d="M120.163 380.698H98.5808V402.279H120.163V380.698Z" fill="#E1EBFD"/>
<path d="M144.488 380.698H122.906V402.279H144.488V380.698Z" fill="#E1EBFD"/>
<g opacity="0.5">
<g opacity="0.5">
<path opacity="0.5" d="M315.953 303.241H325.92C329.578 303.241 332.23 300.224 332.139 296.657L329.03 240.142H312.935L309.826 296.657C309.46 300.315 312.295 303.241 315.953 303.241Z" fill="url(#paint2_linear)"/>
</g>
<path opacity="0.5" d="M325.006 296.749L321.897 240.234H326.561L329.67 296.749C329.944 300.407 327.109 303.333 323.451 303.333H318.788C322.263 303.242 325.097 300.315 325.006 296.749Z" fill="#B3CDFA"/>
</g>
<path d="M236.667 115.773C236.667 116.962 235.753 117.968 234.473 117.968C233.284 117.968 232.278 116.962 232.278 115.773C232.278 114.584 233.284 113.578 234.473 113.578C235.844 113.578 236.667 114.584 236.667 115.773Z" fill="white"/>
<path d="M244.715 115.773C244.715 116.962 243.8 117.968 242.52 117.968C241.24 117.968 240.325 116.962 240.325 115.773C240.325 114.584 241.24 113.578 242.52 113.578C243.8 113.578 244.715 114.584 244.715 115.773Z" fill="white"/>
<path d="M252.671 115.773C252.671 116.962 251.756 117.968 250.476 117.968C249.196 117.968 248.281 116.962 248.281 115.773C248.281 114.584 249.196 113.578 250.476 113.578C251.756 113.578 252.671 114.584 252.671 115.773Z" fill="white"/>
<path d="M282.757 147.231H262.273C261.45 147.231 260.81 146.5 260.81 145.768C260.81 144.945 261.541 144.305 262.273 144.305H282.757C283.58 144.305 284.22 145.037 284.22 145.768C284.312 146.591 283.58 147.231 282.757 147.231Z" fill="#C2D7FB"/>
<path d="M317.05 147.231H292.176C291.353 147.231 290.713 146.5 290.713 145.768C290.713 144.945 291.445 144.305 292.176 144.305H317.05C317.873 144.305 318.513 145.037 318.513 145.768C318.513 146.591 317.965 147.231 317.05 147.231Z" fill="#C2D7FB"/>
<path d="M351.252 147.231H326.469C325.646 147.231 325.006 146.5 325.006 145.768C325.006 144.945 325.738 144.305 326.469 144.305H351.343C352.166 144.305 352.806 145.037 352.806 145.768C352.715 146.591 352.166 147.231 351.252 147.231Z" fill="#C2D7FB"/>
<path d="M308.18 193.138H268.857V232.552H308.18V193.138Z" fill="#C2D7FB"/>
<path d="M304.613 196.705H272.423V228.894H304.613V196.705Z" fill="#D1E1FC"/>
<path d="M343.936 240.142H330.767V253.311H343.936V240.142Z" fill="#C2D7FB"/>
<path d="M277.27 300.224H259.529V318.056H277.27V300.224Z" fill="#E1EBFD"/>
<path d="M297.114 300.224H279.373V318.056H297.114V300.224Z" fill="#E1EBFD"/>
<path d="M317.05 300.224H299.309V318.056H317.05V300.224Z" fill="#E1EBFD"/>
<path d="M277.27 319.428H259.529V337.26H277.27V319.428Z" fill="#E1EBFD"/>
<path d="M297.114 319.428H279.373V337.26H297.114V319.428Z" fill="#E1EBFD"/>
<path d="M317.05 319.428H299.309V337.26H317.05V319.428Z" fill="#E1EBFD"/>
<path d="M277.27 338.54H259.529V356.373H277.27V338.54Z" fill="#E1EBFD"/>
<path d="M297.114 338.54H279.373V356.373H297.114V338.54Z" fill="#E1EBFD"/>
<path d="M317.05 338.54H299.309V356.373H317.05V338.54Z" fill="#E1EBFD"/>
<path d="M312.203 242.428H260.627C259.987 242.428 259.438 241.971 259.438 241.24C259.438 240.599 259.895 240.051 260.627 240.051H312.203C312.843 240.051 313.392 240.508 313.392 241.24C313.392 241.971 312.843 242.428 312.203 242.428Z" fill="#D1E1FC"/>
<path d="M354.909 270.503H331.773C331.133 270.503 330.584 270.046 330.584 269.314C330.584 268.674 331.042 268.125 331.773 268.125H354.909C355.55 268.125 356.098 268.582 356.098 269.314C356.098 270.046 355.458 270.503 354.909 270.503Z" fill="#E9F1FF"/>
<path d="M340.369 277.179H331.773C331.133 277.179 330.584 276.721 330.584 275.99C330.584 275.35 331.042 274.801 331.773 274.801H340.369C341.009 274.801 341.558 275.258 341.558 275.99C341.558 276.721 340.918 277.179 340.369 277.179Z" fill="#D1E1FC"/>
<path d="M312.203 250.384H260.627C259.987 250.384 259.438 249.927 259.438 249.196C259.438 248.556 259.895 248.007 260.627 248.007H312.203C312.843 248.007 313.392 248.464 313.392 249.196C313.392 249.744 312.843 250.384 312.203 250.384Z" fill="#D1E1FC"/>
<path d="M293.457 258.798H260.535C259.895 258.798 259.346 258.34 259.346 257.609C259.346 256.969 259.804 256.42 260.535 256.42H293.457C294.097 256.42 294.645 256.877 294.645 257.609C294.645 258.249 294.005 258.798 293.457 258.798Z" fill="#D1E1FC"/>
<path d="M292.633 290.164H261.45C260.352 290.164 259.438 289.158 259.438 288.152C259.438 287.055 260.352 286.141 261.45 286.141H292.633C293.731 286.141 294.645 287.147 294.645 288.152C294.645 289.25 293.639 290.164 292.633 290.164Z" fill="#D1E1FC"/>
<path d="M260.81 234.015H173.111V257.06H260.81V234.015Z" fill="#D1E1FC"/>
<path d="M260.81 295.377H173.111V306.899H260.81V295.377Z" fill="#D1E1FC"/>
<path d="M251.208 299.218H192.315V303.058H251.208V299.218Z" fill="#C2D7FB"/>
<path d="M199.448 147.231H174.666C173.843 147.231 173.202 146.5 173.202 145.768C173.202 144.945 173.934 144.305 174.666 144.305H199.539C200.362 144.305 201.003 145.037 201.003 145.768C200.911 146.591 200.362 147.231 199.448 147.231Z" fill="#C2D7FB"/>
<path d="M233.649 147.231H208.776C207.953 147.231 207.312 146.5 207.312 145.768C207.312 144.945 208.044 144.305 208.776 144.305H233.649C234.473 144.305 235.113 145.037 235.113 145.768C235.113 146.591 234.564 147.231 233.649 147.231Z" fill="#C2D7FB"/>
<path d="M259.255 147.231H243.069C242.246 147.231 241.605 146.5 241.605 145.768C241.605 144.945 242.337 144.305 243.069 144.305H259.255C260.078 144.305 260.718 145.037 260.718 145.768C260.81 146.591 260.078 147.231 259.255 147.231Z" fill="#C2D7FB"/>
<path d="M192.132 240.142H178.964V253.311H192.132V240.142Z" fill="#C2D7FB"/>
<path d="M208.684 243.617H199.722C199.082 243.617 198.534 243.16 198.534 242.429C198.534 241.788 198.991 241.24 199.722 241.24H208.684C209.324 241.24 209.873 241.697 209.873 242.429C209.965 243.16 209.324 243.617 208.684 243.617Z" fill="#C2D7FB"/>
<path d="M224.322 249.744H199.722C199.082 249.744 198.534 249.287 198.534 248.556C198.534 247.915 198.991 247.367 199.722 247.367H224.322C224.962 247.367 225.511 247.824 225.511 248.556C225.511 249.104 225.053 249.744 224.322 249.744Z" fill="#C2D7FB"/>
<path d="M259.621 264.65H179.97C179.329 264.65 178.781 264.193 178.781 263.462C178.781 262.821 179.238 262.273 179.97 262.273H259.621C260.261 262.273 260.81 262.73 260.81 263.462C260.81 264.193 260.169 264.65 259.621 264.65Z" fill="#D1E1FC"/>
<path d="M203.106 270.503H179.97C179.329 270.503 178.781 270.046 178.781 269.314C178.781 268.674 179.238 268.125 179.97 268.125H203.106C203.746 268.125 204.295 268.582 204.295 269.314C204.295 270.046 203.655 270.503 203.106 270.503Z" fill="#D1E1FC"/>
<path d="M188.566 277.179H179.97C179.329 277.179 178.781 276.721 178.781 275.99C178.781 275.35 179.238 274.801 179.97 274.801H188.566C189.206 274.801 189.755 275.258 189.755 275.99C189.755 276.721 189.114 277.179 188.566 277.179Z" fill="#D1E1FC"/>
<path d="M260.81 317.141H173.111V340.186H260.81V317.141Z" fill="#D1E1FC"/>
<path d="M192.132 323.268H178.964V336.528H192.132V323.268Z" fill="#C2D7FB"/>
<path d="M208.684 326.743H199.722C199.082 326.743 198.534 326.286 198.534 325.555C198.534 324.914 198.991 324.366 199.722 324.366H208.684C209.324 324.366 209.873 324.823 209.873 325.555C209.965 326.286 209.324 326.743 208.684 326.743Z" fill="#C2D7FB"/>
<path d="M224.322 332.87H199.722C199.082 332.87 198.534 332.413 198.534 331.682C198.534 331.041 198.991 330.493 199.722 330.493H224.322C224.962 330.493 225.511 330.95 225.511 331.682C225.511 332.322 225.053 332.87 224.322 332.87Z" fill="#C2D7FB"/>
<path d="M259.621 347.777H179.97C179.329 347.777 178.781 347.319 178.781 346.588C178.781 345.948 179.238 345.399 179.97 345.399H259.621C260.261 345.399 260.81 345.856 260.81 346.588C260.81 347.319 260.169 347.777 259.621 347.777Z" fill="#D1E1FC"/>
<path d="M203.106 353.72H179.97C179.329 353.72 178.781 353.263 178.781 352.532C178.781 351.891 179.238 351.343 179.97 351.343H203.106C203.746 351.343 204.295 351.8 204.295 352.532C204.295 353.263 203.655 353.72 203.106 353.72Z" fill="#D1E1FC"/>
<path d="M188.566 360.305H179.97C179.329 360.305 178.781 359.848 178.781 359.116C178.781 358.476 179.238 357.927 179.97 357.927H188.566C189.206 357.927 189.755 358.385 189.755 359.116C189.755 359.848 189.114 360.305 188.566 360.305Z" fill="#D1E1FC"/>
<path d="M187.102 301.23C187.102 302.693 185.914 303.882 184.45 303.882C182.987 303.882 181.798 302.693 181.798 301.23C181.798 299.766 182.987 298.578 184.45 298.578C185.914 298.578 187.102 299.766 187.102 301.23Z" fill="#F4F8FF"/>
<path d="M281.568 113.578H277.819V114.676H281.568V113.578Z" fill="#E3EDFE"/>
<path d="M281.568 115.865H277.819V116.962H281.568V115.865Z" fill="#E3EDFE"/>
<path d="M281.568 118.059H277.819V119.157H281.568V118.059Z" fill="#E3EDFE"/>
<path d="M302.693 424.958H172.837C158.205 424.958 146.408 413.162 146.408 398.439L188.017 94.2828C188.017 84.6808 195.79 76.9077 205.392 76.9077H332.139C348.508 76.9077 361.677 90.1677 361.677 106.537L320.068 407.675C318.788 417.277 312.295 424.958 302.693 424.958Z" fill="url(#paint3_linear)"/>
<path d="M296.2 418.009H163.875C154.273 418.009 146.5 410.236 146.5 400.633L188.108 94.3744C188.108 84.7723 195.882 76.9993 205.484 76.9993H337.809C347.411 76.9993 355.184 84.7723 355.184 94.3744L313.575 400.542C311.746 409.778 305.985 418.009 296.2 418.009Z" fill="#B3CDFA"/>
<path d="M163.875 416.728C155.096 416.728 147.78 409.595 147.78 400.633L189.389 94.4656V94.3741C189.389 85.4122 196.613 78.2793 205.484 78.2793H337.809C346.588 78.2793 353.904 85.4122 353.904 94.3741L312.295 400.542C310.649 408.315 305.528 416.911 296.2 416.911H163.875V416.728Z" fill="#1449A8"/>
<g opacity="0.15">
<path opacity="0.02439" d="M346.405 80.9314C349.148 82.7604 351.343 85.2294 352.623 88.3387C353.446 90.1676 353.904 92.4538 353.904 94.5571L333.145 247.458L312.478 400.542C310.923 407.949 306.259 415.997 297.663 416.728C297.297 416.728 296.749 416.728 296.2 416.728H230.083H163.966C162.046 416.728 159.942 416.362 158.296 415.722C155.096 414.442 152.169 412.247 150.432 409.229C151.438 409.87 152.627 410.418 153.907 410.784C155.462 411.333 157.29 411.607 158.937 411.607H225.053H291.262C300.681 411.607 305.802 403.194 307.448 395.238L328.298 242.154L349.057 89.2532C349.057 87.6071 348.782 85.8696 348.234 84.315C348.234 84.315 348.234 84.315 348.234 84.2235C347.685 83.1261 347.045 81.9373 346.405 80.9314Z" fill="white"/>
<path opacity="0.04878" d="M346.588 81.0229C349.331 82.8519 351.526 85.4124 352.715 88.4302C353.538 90.2592 353.904 92.5454 353.904 94.6487L333.145 247.367L312.386 400.451C310.832 407.858 306.168 415.905 297.572 416.637C297.206 416.637 296.657 416.637 296.108 416.637H229.992H164.241C162.32 416.637 160.217 416.271 158.571 415.631C155.37 414.442 152.444 412.156 150.706 409.23C151.712 409.87 152.901 410.418 154.181 410.784C155.736 411.333 157.565 411.607 159.211 411.607H225.236H291.445C300.864 411.607 305.985 403.194 307.631 395.238L328.39 242.154L349.148 89.3447C349.148 87.7901 348.874 85.9611 348.325 84.4065C348.325 84.4065 348.325 84.4065 348.325 84.3151C347.685 83.2177 347.228 82.0289 346.588 81.0229Z" fill="white"/>
<path opacity="0.073171" d="M346.679 81.2058C349.423 83.0348 351.434 85.5953 352.806 88.6131C353.629 90.442 353.995 92.7282 353.995 94.8315L333.236 247.367L312.478 400.451C310.923 407.858 306.259 415.905 297.663 416.637C297.297 416.637 296.749 416.637 296.2 416.637H230.083H164.332C162.503 416.637 160.308 416.271 158.662 415.631C155.461 414.442 152.535 412.247 150.615 409.23C151.621 409.87 152.809 410.418 154.09 410.784C155.553 411.333 157.473 411.607 159.119 411.607H224.962H291.17C300.589 411.607 305.71 403.285 307.356 395.238L328.298 242.154L349.057 89.4361C349.057 87.8815 348.782 85.9611 348.417 84.4979C348.417 84.4979 348.417 84.4979 348.417 84.4065C347.868 83.4006 347.319 82.2117 346.679 81.2058Z" fill="white"/>
<path opacity="0.097561" d="M346.771 81.2971C349.514 83.1261 351.526 85.6866 352.715 88.7958C353.446 90.4419 353.721 93.0939 353.904 95.0143L333.145 247.458L312.478 400.542C310.923 407.949 306.259 415.997 297.663 416.637C297.297 416.637 296.749 416.637 296.2 416.637H230.083H164.515C162.686 416.637 160.4 416.271 158.845 415.722C155.644 414.533 152.718 412.339 150.798 409.504C151.804 410.144 152.992 410.693 154.273 411.058C155.736 411.607 157.748 411.881 159.302 411.881H225.053H291.262C300.864 411.881 305.893 403.56 307.448 395.512L328.298 242.428L349.057 89.8932C349.057 88.3386 348.782 86.4182 348.417 85.0465C348.417 85.0465 348.417 85.0465 348.417 84.955C347.868 83.4919 347.411 82.303 346.771 81.2971Z" fill="white"/>
<path opacity="0.122" d="M346.771 81.3887C349.514 83.2176 351.526 85.7782 352.715 88.8874C353.538 90.5335 353.721 93.1855 353.721 95.1059L332.962 247.367L312.295 400.542C310.74 407.949 306.076 415.997 297.48 416.637C297.114 416.637 296.566 416.637 296.017 416.637H229.992H164.515C162.686 416.637 160.4 416.271 158.845 415.722C155.644 414.533 152.718 412.522 150.798 409.595C151.804 410.235 152.992 410.784 154.273 411.058C155.736 411.607 157.748 411.699 159.302 411.699H224.871H291.079C300.681 411.699 305.711 403.377 307.448 395.238L328.207 242.154L348.965 89.7104C348.965 88.1558 348.874 86.2354 348.325 84.8637C348.325 84.8637 348.325 84.8637 348.325 84.7722C347.959 83.5834 347.411 82.486 346.771 81.3887Z" fill="white"/>
<path opacity="0.1463" d="M346.954 81.5715C349.514 83.4005 351.617 85.961 352.806 89.0703C353.446 90.7163 353.812 93.4598 353.812 95.2887L333.236 247.458L312.478 400.542C310.923 407.949 306.259 415.997 297.663 416.637C297.297 416.637 296.749 416.637 296.2 416.637H230.174H164.698C163.052 416.637 160.583 416.362 159.028 415.722C155.827 414.716 152.901 412.522 150.981 409.595C151.987 410.235 153.358 410.784 154.456 411.058C155.736 411.424 157.931 411.698 159.485 411.698H224.962H291.17C300.772 411.698 305.802 403.56 307.539 395.238L328.298 242.154L349.057 89.7104C349.057 88.2472 348.965 86.2354 348.508 84.8637C348.508 84.8637 348.508 84.8637 348.508 84.7722C348.051 83.7663 347.594 82.5775 346.954 81.5715Z" fill="white"/>
<path opacity="0.1707" d="M347.045 81.6631C349.605 83.492 351.709 86.2355 352.715 89.1618C353.355 90.7164 353.629 93.5513 353.629 95.3803L333.053 247.367L312.295 400.542C310.74 407.949 306.076 415.997 297.48 416.637C297.114 416.637 296.474 416.637 296.017 416.637H229.992H164.789C163.143 416.637 160.674 416.362 159.119 415.722C155.919 414.716 152.992 412.613 151.072 409.778C152.261 410.418 153.45 410.784 154.547 411.241C155.827 411.607 158.022 411.882 159.577 411.882H224.87H291.079C300.772 411.882 305.71 403.743 307.448 395.421L328.207 242.337L348.782 90.0763C348.782 88.6131 348.691 86.4184 348.234 85.2295V85.0467C348.051 84.0407 347.685 82.8519 347.045 81.6631Z" fill="white"/>
<path opacity="0.1951" d="M347.228 81.8459C349.788 83.7664 351.892 86.4183 352.898 89.5276C353.538 91.0822 353.812 93.9171 353.812 95.746L333.236 247.641L312.478 400.725C310.923 408.132 306.259 416.18 297.663 416.82C297.297 416.82 296.657 416.82 296.2 416.82H230.174H164.972C163.326 416.82 160.674 416.545 159.302 415.905C156.102 414.899 153.175 412.796 151.163 410.053C152.352 410.693 153.541 411.059 154.638 411.516C155.919 411.882 158.296 412.156 159.668 412.156H224.962H291.17C300.864 412.156 305.802 404.108 307.539 395.695L328.298 242.52L348.874 90.3506C348.874 88.8874 348.782 86.6927 348.325 85.5039V85.4124C348.234 84.1321 347.685 82.9433 347.228 81.8459Z" fill="white"/>
<path opacity="0.2195" d="M347.136 81.9373C349.697 83.8577 351.709 86.5097 352.715 89.6189C353.355 91.1735 353.538 94.1913 353.538 95.8373L332.962 247.458L312.203 400.542C310.649 407.949 305.985 415.997 297.389 416.545C297.023 416.545 296.383 416.545 295.926 416.545H230.083H165.246C163.692 416.545 160.948 416.271 159.577 415.722C156.376 414.716 153.45 412.704 151.438 409.87C152.627 410.51 153.816 410.875 154.913 411.333C156.193 411.698 158.571 411.973 159.943 411.973H225.053H291.262C300.955 411.973 306.076 403.925 307.722 395.512L328.481 242.428L349.057 90.4419C349.057 89.1616 348.965 86.784 348.508 85.5952V85.5037C348.234 84.2235 347.868 83.1261 347.136 81.9373Z" fill="white"/>
<path opacity="0.2439" d="M347.319 82.0288C349.88 83.9492 351.892 86.6012 352.898 89.7104C353.538 91.1736 353.721 94.2828 353.721 95.9289L333.145 247.458L312.295 400.542C310.74 407.949 306.076 415.997 297.48 416.545C297.114 416.545 296.474 416.545 296.017 416.545H230.175H165.338C163.783 416.545 161.04 416.271 159.668 415.722C156.467 414.808 153.541 412.704 151.529 410.053C152.718 410.601 153.907 411.058 155.004 411.333C156.193 411.699 158.662 411.973 160.034 411.973H224.962H291.17C301.047 411.973 305.985 403.925 307.631 395.329L328.39 242.246L348.965 90.3506C348.965 89.0703 348.965 86.6927 348.6 85.5038V85.4124C348.325 84.4065 347.959 83.2176 347.319 82.0288Z" fill="white"/>
<path opacity="0.2683" d="M347.411 82.2117C349.971 84.1321 351.8 86.8755 352.898 89.8933C353.538 91.3565 353.721 94.4657 353.721 96.1118L333.145 247.458L312.295 400.542C310.74 407.949 306.076 415.997 297.48 416.545C297.114 416.545 296.474 416.545 296.2 416.545H230.357H165.521C164.058 416.545 161.131 416.271 159.851 415.722C156.65 414.808 153.633 412.704 151.712 410.144C152.901 410.693 154.09 411.15 155.187 411.424C156.376 411.79 158.937 412.064 160.217 412.064H225.053H291.262C301.138 412.064 306.076 404.108 307.722 395.421L328.481 242.337L349.057 90.5334C349.057 89.2532 349.057 86.7841 348.691 85.6867V85.5952C348.508 84.4979 347.959 83.4005 347.411 82.2117Z" fill="white"/>
<path opacity="0.2927" d="M347.594 82.3032C350.063 84.2236 351.983 86.9671 352.898 90.0763C353.538 91.3566 353.538 94.7401 353.538 96.2948L333.053 247.55L312.295 400.633C310.74 408.041 306.076 416.088 297.48 416.637C297.206 416.637 296.474 416.637 296.2 416.637H230.357H165.704C164.24 416.637 161.314 416.362 160.034 415.814C156.833 414.899 153.815 412.979 151.895 410.235C153.084 410.784 154.273 411.241 155.37 411.516C156.559 411.882 159.119 412.064 160.4 412.064H225.053H291.262C301.23 412.064 306.076 404.108 307.722 395.421L328.481 242.337L349.057 90.7164C349.057 89.5276 349.057 86.9671 348.691 85.8697V85.7782C348.508 84.6809 348.051 83.492 347.594 82.3032Z" fill="white"/>
<path opacity="0.3171" d="M347.594 82.4861C350.063 84.4065 351.983 87.1499 352.898 90.2592C353.446 91.5394 353.538 94.923 353.538 96.4776L333.053 247.55L312.295 400.633C310.74 408.041 306.076 415.997 297.48 416.637C297.206 416.637 296.474 416.637 296.2 416.637H230.449H165.795C164.332 416.637 161.406 416.362 160.217 415.814C157.016 414.899 153.998 412.979 151.895 410.327C153.084 410.876 154.273 411.241 155.37 411.607C156.376 411.973 159.119 412.156 160.4 412.156H224.962H291.17C301.138 412.156 305.985 404.2 307.722 395.512L328.481 242.429L349.057 90.8993C349.057 89.7105 349.057 87.1499 348.691 86.0526V85.9611C348.6 84.7723 348.234 83.5835 347.594 82.4861Z" fill="white"/>
<path opacity="0.3415" d="M347.685 82.5774C350.154 84.4978 351.983 87.2412 352.898 90.3505C353.446 91.6307 353.446 95.1972 353.446 96.5689L332.87 247.549L312.112 400.633C310.557 408.041 305.893 415.996 297.297 416.454C297.023 416.454 296.291 416.454 296.017 416.454H230.266H165.795C164.515 416.454 161.406 416.179 160.217 415.814C157.016 414.991 153.998 413.07 151.895 410.51C153.084 411.058 154.273 411.424 155.37 411.698C156.376 412.064 159.302 412.247 160.4 412.247H224.87H291.079C301.047 412.247 305.985 404.474 307.631 395.604L328.39 242.52L348.965 90.9906C348.965 89.8018 348.965 87.2412 348.691 86.1439V86.0524C348.6 84.955 348.234 83.7662 347.685 82.5774Z" fill="white"/>
<path opacity="0.3659" d="M347.868 82.6689C350.337 84.7722 352.166 87.5157 352.898 90.6249C353.446 91.8137 353.446 95.4717 353.446 96.8434L332.962 247.55L312.203 400.633C310.649 408.041 305.985 415.997 297.389 416.454C297.114 416.454 296.383 416.454 296.108 416.454H230.357H166.07C164.789 416.454 161.497 416.18 160.491 415.814C157.291 414.991 154.273 413.07 152.169 410.51C153.358 411.058 154.547 411.424 155.827 411.699C156.833 412.064 159.76 412.247 160.857 412.247H225.145H291.353C301.504 412.339 306.259 404.474 307.905 395.512L328.664 242.428L349.24 91.0822C349.24 90.0762 349.24 87.1499 348.965 86.2354V86.144C348.691 85.0466 348.325 83.8578 347.868 82.6689Z" fill="white"/>
<path opacity="0.3902" d="M347.959 82.8518C350.429 84.9551 352.075 87.6986 352.989 90.8078C353.538 91.9966 353.538 95.6545 353.538 97.0262L333.053 247.641L312.295 400.725C310.74 408.132 306.076 416.088 297.48 416.545C297.206 416.545 296.474 416.545 296.2 416.545H230.449H166.252C164.972 416.545 161.68 416.271 160.674 415.905C157.473 415.082 154.456 413.345 152.352 410.693C153.541 411.241 154.73 411.607 156.01 411.881C156.925 412.156 159.942 412.43 161.04 412.43H225.328H291.719C301.87 412.522 306.625 404.657 308.271 395.695L329.03 242.611L349.24 91.3565C349.24 90.3505 349.331 87.4242 348.965 86.5097V86.4183C348.874 85.138 348.508 84.0406 347.959 82.8518Z" fill="white"/>
<path opacity="0.4146" d="M347.96 82.9434C350.429 85.0467 352.075 87.7901 352.898 90.8993C353.446 92.0882 353.264 95.8375 353.264 97.1178L332.779 247.55L312.02 400.633C310.466 408.041 305.802 415.997 297.206 416.454C296.932 416.454 296.2 416.454 295.926 416.454H230.357H166.435C165.247 416.454 161.863 416.18 160.857 415.814C157.656 414.991 154.639 413.253 152.535 410.784C153.724 411.333 154.913 411.699 156.193 411.973C157.108 412.247 160.217 412.522 161.223 412.522H225.419H291.719C301.87 412.613 306.625 404.84 308.271 395.787L329.03 242.703L349.514 91.6309C349.514 90.625 349.606 87.6987 349.24 86.7842V86.6927C348.874 85.321 348.508 84.1322 347.96 82.9434Z" fill="white"/>
<path opacity="0.439" d="M348.051 83.1262C350.429 85.2295 352.166 87.973 352.989 91.0822C353.538 92.0881 353.355 96.0204 353.355 97.3006L332.962 247.641L312.203 400.725C310.649 408.132 305.985 416.088 297.389 416.545C297.114 416.545 296.383 416.545 296.108 416.545H230.54H166.527C165.338 416.545 161.954 416.271 160.948 415.905C157.748 415.265 154.73 413.436 152.535 410.876C153.724 411.424 154.913 411.79 156.193 411.881C157.108 412.156 160.217 412.43 161.223 412.43H225.236H291.445C301.687 412.522 306.351 404.749 308.18 395.695L328.938 242.611L349.423 91.6309C349.423 90.7164 349.514 87.6986 349.331 86.7841V86.6927C348.965 85.4124 348.6 84.2236 348.051 83.1262Z" fill="white"/>
<path opacity="0.4634" d="M348.234 83.2175C350.611 85.3208 352.258 88.1557 352.989 91.265C353.355 92.2709 353.263 96.2946 353.263 97.4834L332.871 247.732L312.112 400.816C310.557 408.223 305.893 416.179 297.297 416.545C297.023 416.545 296.291 416.545 296.017 416.545H230.449H166.71C165.704 416.545 162.046 416.271 161.131 415.997C157.931 415.356 154.913 413.527 152.718 411.058C153.907 411.607 155.096 411.973 156.376 412.064C157.291 412.339 160.4 412.43 161.406 412.43H225.328H291.536C301.778 412.522 306.534 404.748 308.271 395.695L329.03 242.611L349.514 91.7222C349.514 90.8077 349.606 87.6985 349.423 86.8754C348.965 85.5952 348.691 84.4064 348.234 83.2175Z" fill="white"/>
<path opacity="0.4878" d="M348.325 83.4004C350.703 85.5037 352.349 88.3386 352.989 91.4478C353.355 92.4537 353.263 96.4774 353.263 97.6663L332.871 247.732L312.112 400.816C310.557 408.223 305.893 416.179 297.297 416.545C297.023 416.545 296.108 416.545 296.017 416.545H230.449H166.893C165.887 416.545 162.229 416.454 161.314 415.997C158.114 415.356 155.096 413.619 152.901 411.15C154.09 411.698 155.279 411.973 156.559 412.156C157.382 412.43 160.674 412.521 161.589 412.521H225.328H291.719C301.961 412.613 306.716 405.023 308.454 395.604L329.213 242.52L349.697 91.8136C349.697 90.8991 349.788 87.7899 349.605 86.9669V86.8754C349.148 85.6866 348.691 84.4978 348.325 83.4004Z" fill="white"/>
<path opacity="0.5122" d="M348.325 83.4919C350.703 85.5952 352.349 88.4301 352.989 91.5394C353.355 92.4538 353.263 96.569 353.263 97.7578L332.871 247.55L312.112 400.633C310.557 408.041 305.893 415.997 297.297 416.362C297.023 416.362 296.108 416.362 296.017 416.362H230.54H166.893C165.887 416.362 162.229 416.271 161.314 415.814C158.114 415.174 155.096 413.436 152.901 410.967C154.09 411.516 155.279 411.79 156.559 411.973C157.382 412.247 160.674 412.339 161.589 412.339H225.236H291.445C301.778 412.43 306.442 404.84 308.18 395.421L328.938 242.337L349.423 91.7223C349.423 90.8992 349.514 87.6985 349.423 86.8755V86.7841C349.24 85.8696 348.874 84.6808 348.325 83.4919Z" fill="white"/>
<path opacity="0.5366" d="M348.508 83.5835C350.886 85.6868 352.44 88.5217 353.081 91.6309C353.446 92.5454 353.172 96.8434 353.172 97.8494L332.779 247.55L312.02 400.633C310.466 408.041 305.802 415.997 297.206 416.362C296.931 416.362 296.017 416.362 295.926 416.362H230.449H167.075C166.161 416.362 162.412 416.271 161.497 415.814C158.296 415.174 155.279 413.619 153.084 411.15C154.273 411.699 155.462 411.973 156.742 412.156C157.565 412.43 160.857 412.522 161.771 412.522H225.328H291.536C301.87 412.613 306.534 405.023 308.362 395.604L329.121 242.52L349.605 91.9053C349.605 91.0822 349.88 87.7901 349.605 87.0585V86.9671C349.24 85.9611 348.965 84.7723 348.508 83.5835Z" fill="white"/>
<path opacity="0.561" d="M348.6 83.7664C350.977 85.9611 352.532 88.7045 352.989 91.9052C353.355 92.8197 353.081 97.1178 353.081 98.1237L332.688 247.641L311.929 400.725C310.374 408.132 305.71 416.088 297.114 416.454C296.84 416.454 295.926 416.454 295.834 416.454H230.357H167.075C166.161 416.454 162.32 416.362 161.497 415.905C158.296 415.357 155.279 413.71 153.084 411.333C154.273 411.699 155.462 412.156 156.742 412.247C157.382 412.522 161.04 412.613 161.771 412.613H225.145H291.353C301.687 412.705 306.533 405.206 308.18 395.695L328.938 242.611L349.423 92.1796C349.423 91.3565 349.697 88.0644 349.423 87.3328V87.2414C349.423 86.0526 348.965 84.9552 348.6 83.7664Z" fill="white"/>
<path opacity="0.5854" d="M348.691 83.8577C350.886 86.0524 352.44 88.8873 353.081 91.9965C353.446 92.8196 353.081 97.2091 353.081 98.215L332.688 247.641L311.929 400.725C310.374 408.132 305.71 416.088 297.114 416.271C297.023 416.271 295.926 416.271 295.834 416.271H230.357H167.35C166.527 416.271 162.594 416.179 161.771 415.905C158.571 415.356 155.553 413.802 153.175 411.333C154.364 411.699 155.553 412.156 156.833 412.247C157.473 412.522 161.131 412.613 161.863 412.613H225.145H291.353C301.87 412.704 306.534 405.206 308.18 395.695L328.938 242.611L349.331 92.2709C349.331 91.6307 349.605 88.1557 349.331 87.4241V87.3327C349.423 86.2353 349.148 85.0465 348.691 83.8577Z" fill="white"/>
<path opacity="0.6098" d="M348.782 84.0405C350.977 86.2353 352.532 89.0702 353.081 92.1794C353.446 93.0024 353.081 97.4834 353.081 98.3979L332.871 247.732L312.112 400.816C310.557 408.223 305.893 416.179 297.297 416.362C297.206 416.362 296.108 416.362 296.017 416.362H230.723H167.807C166.984 416.362 163.052 416.271 162.229 415.997C159.028 415.448 156.01 413.893 153.633 411.607C154.821 411.973 156.01 412.43 157.29 412.522C157.931 412.796 161.589 412.796 162.32 412.796H225.419H291.719C302.235 412.887 306.899 405.389 308.545 395.787L329.304 242.703L349.697 92.6366C349.697 91.9965 349.971 88.5215 349.788 87.7899V87.6984C349.514 86.3267 349.24 85.1379 348.782 84.0405Z" fill="white"/>
<path opacity="0.6341" d="M348.874 84.1321C351.069 86.3268 352.623 89.1617 353.172 92.4538C353.446 93.094 353.172 97.7578 353.172 98.6723L332.962 247.824L312.203 400.908C310.649 408.315 305.985 416.271 297.389 416.454C297.297 416.454 296.2 416.454 296.109 416.454H230.815H168.081C167.258 416.454 163.143 416.362 162.503 416.088C159.302 415.539 156.285 414.168 153.907 411.79C155.096 412.156 156.285 412.43 157.565 412.704C158.114 412.796 161.954 412.979 162.595 412.979H225.602H291.81C302.327 413.07 306.991 405.663 308.82 395.97L329.578 242.886L349.971 92.8196C349.971 92.1795 350.246 88.5216 350.063 87.9729V87.8814C349.606 86.5097 349.24 85.3209 348.874 84.1321Z" fill="white"/>
<path opacity="0.6585" d="M348.965 84.2236C351.16 86.4184 352.623 89.2533 353.08 92.5454C353.355 93.1855 352.989 98.0323 352.989 98.6724L332.779 247.733L312.02 400.816C310.466 408.224 305.802 416.18 297.206 416.363C297.114 416.363 296.017 416.363 295.926 416.363H230.632H167.99C167.35 416.363 163.052 416.271 162.412 415.997C159.211 415.631 156.102 414.076 153.815 411.699C155.004 412.065 156.285 412.339 157.473 412.522C158.022 412.613 161.863 412.796 162.503 412.796H225.419H291.719C302.327 412.888 306.899 405.48 308.728 395.787L329.487 242.703L349.88 92.7283C349.88 92.1796 350.246 88.4302 349.971 87.8816V87.7901C349.605 86.6927 349.423 85.4125 348.965 84.2236Z" fill="white"/>
<path opacity="0.6829" d="M349.148 84.4065C351.343 86.6012 352.806 89.619 353.172 92.7283C353.446 93.3684 353.081 98.2151 353.081 98.8553L332.871 247.641L312.112 400.725C310.557 408.132 305.893 416.088 297.297 416.271C297.206 416.271 296.108 416.271 296.017 416.271H230.723H168.264C167.624 416.271 163.326 416.18 162.777 415.905C159.577 415.539 156.467 414.076 154.181 411.79C155.37 412.156 156.65 412.43 157.839 412.613C158.388 412.705 162.229 412.887 162.869 412.887H225.602H291.81C302.418 412.979 307.082 405.663 308.82 395.878L329.578 242.794L349.971 93.0026C349.971 92.4539 350.337 88.7045 350.063 88.1559V88.0644C349.788 86.8756 349.514 85.5953 349.148 84.4065Z" fill="white"/>
<path opacity="0.7073" d="M349.148 84.4978C351.343 86.6926 352.806 89.7103 353.172 92.8196C353.446 93.3682 352.898 98.3064 352.898 98.9466L332.688 247.641L311.929 400.542C310.374 407.949 305.711 415.905 297.114 415.996C297.023 415.996 295.926 415.996 295.834 415.996H230.632H168.264C167.624 415.996 163.326 415.905 162.777 415.722C159.577 415.356 156.467 413.893 154.09 411.698C155.279 412.064 156.559 412.339 157.748 412.521C158.296 412.613 162.32 412.796 162.777 412.796H225.419H291.719C302.327 412.887 306.991 405.663 308.728 395.786L329.487 242.703L349.88 93.0025C349.88 92.4538 350.246 88.7044 350.154 88.1557V88.0643C349.788 86.9669 349.514 85.6866 349.148 84.4978Z" fill="white"/>
<path opacity="0.7317" d="M349.24 84.6807C351.343 87.0583 352.715 89.8932 353.172 93.0939C353.446 93.6426 352.898 98.6722 352.898 99.2209L332.688 247.732L311.929 400.633C310.374 408.041 305.71 415.997 297.114 416.088C297.023 416.088 295.926 416.088 295.834 416.088H230.632H168.447C167.898 416.088 163.417 415.997 162.96 415.814C159.76 415.448 156.65 413.985 154.273 411.79C155.462 412.156 156.742 412.43 157.931 412.613C158.296 412.704 162.503 412.887 162.96 412.887H225.419H291.719C302.51 412.979 306.991 405.754 308.82 395.878L329.578 242.794L349.971 93.0939C349.971 92.5452 350.337 88.7044 350.246 88.2471V88.1557C349.88 87.1498 349.605 85.8695 349.24 84.6807Z" fill="white"/>
<path opacity="0.7561" d="M349.423 84.7722C351.526 87.1499 352.898 89.9848 353.172 93.1854C353.446 93.7341 352.898 98.7638 352.898 99.3124L332.779 247.732L312.02 400.633C310.466 407.949 305.802 415.997 297.206 416.088C297.114 416.088 296.017 416.088 295.926 416.088H230.723H168.63C168.081 416.088 163.6 415.997 163.143 415.814C159.942 415.539 156.833 414.168 154.456 411.881C155.644 412.247 156.925 412.522 158.113 412.522C158.479 412.613 162.686 412.796 163.143 412.796H225.511H291.719C302.51 412.887 306.991 405.663 308.82 395.695L329.578 242.611L349.971 93.094C349.971 92.7282 350.337 88.7045 350.246 88.2472V88.1558C350.063 87.2413 349.788 85.961 349.423 84.7722Z" fill="white"/>
<path opacity="0.7805" d="M349.514 84.9551C351.617 87.3327 352.898 90.2591 353.263 93.3683C353.355 93.7341 352.898 99.0381 352.898 99.4953L332.779 247.732L312.02 400.633C310.466 407.949 305.802 415.814 297.206 416.088C297.114 416.088 296.017 416.088 295.926 416.088H230.723H168.63C168.264 416.088 163.6 415.997 163.143 415.814C159.942 415.539 156.833 414.168 154.456 412.064C155.644 412.43 156.925 412.704 158.113 412.704C158.479 412.796 162.777 412.796 163.143 412.796H225.511H291.719C302.51 412.887 306.991 405.754 308.82 395.695L329.578 242.611L349.971 93.1854C349.971 92.8196 350.337 88.7959 350.337 88.3386V88.2472C350.063 87.4242 349.788 86.0525 349.514 84.9551Z" fill="white"/>
<path opacity="0.8049" d="M349.514 85.0466C351.617 87.4243 352.898 90.3506 353.172 93.4598C353.263 93.8256 352.806 99.1296 352.806 99.5869L332.688 247.732L311.929 400.633C310.374 407.949 305.71 415.814 297.114 416.088C297.023 416.088 295.834 416.088 295.834 416.088H230.723H168.904C168.539 416.088 163.875 415.997 163.418 415.814C160.217 415.539 157.108 414.259 154.73 412.064C155.919 412.43 157.199 412.613 158.388 412.705C158.662 412.796 163.052 412.796 163.418 412.796H225.602H291.81C302.693 412.887 307.265 405.755 308.911 395.695L329.67 242.611L349.88 93.2769C349.88 92.9112 350.429 88.8874 350.246 88.4302V88.3388C350.154 87.5157 349.88 86.3269 349.514 85.0466Z" fill="white"/>
<path opacity="0.8293" d="M349.606 85.1379C351.709 87.5156 352.989 90.4419 353.263 93.734C353.355 94.0998 352.715 99.4038 352.715 99.8611L332.596 247.732L311.838 400.633C310.283 407.949 305.619 415.814 297.023 415.997C296.932 415.997 295.743 415.997 295.743 415.997H230.632H168.904C168.539 415.997 163.692 415.997 163.418 415.905C160.217 415.631 157.108 414.35 154.639 412.247C155.827 412.613 157.108 412.796 158.388 412.887C158.662 412.979 163.052 412.979 163.418 412.979H225.511H291.719C302.601 413.07 307.174 406.12 309.003 395.878L329.761 242.794L349.971 93.6426C349.971 93.3683 350.52 89.0702 350.337 88.7959V88.7044C350.154 87.607 350.063 86.5097 349.606 85.1379Z" fill="white"/>
<path opacity="0.8537" d="M349.788 85.4124C351.892 87.79 352.989 90.7163 353.263 94.0085C353.355 94.2828 352.715 99.8611 352.715 100.135L332.596 247.915L311.837 400.816C310.283 408.041 305.619 415.997 297.023 416.18C296.931 416.18 295.743 416.18 295.743 416.18H230.632H169.179C168.904 416.18 163.966 416.18 163.692 416.088C160.491 415.997 157.382 414.625 154.913 412.613C156.102 412.979 157.382 413.162 158.662 413.253C158.937 413.345 163.418 413.345 163.692 413.345H225.694H291.902C302.784 413.436 307.357 406.486 309.185 396.244L329.944 243.16L349.88 94.0085C349.88 93.7341 350.428 89.4361 350.246 89.1617V89.0703C350.246 87.79 350.063 86.6012 349.788 85.4124Z" fill="white"/>
<path opacity="0.878" d="M349.88 85.5952C351.8 87.9729 353.08 91.0821 353.263 94.1913C353.355 94.4657 352.715 100.044 352.715 100.318L332.596 247.915L311.837 400.816C310.283 408.132 305.619 415.997 297.023 416.18H295.743H230.632H169.179C168.904 416.18 163.966 416.18 163.692 416.088C160.491 415.997 157.382 414.625 154.913 412.613C156.102 412.887 157.382 413.162 158.662 413.162C158.754 413.162 163.418 413.253 163.692 413.253H225.511H291.719C302.693 413.345 307.174 406.395 309.003 395.97L329.761 242.886L349.971 94.0084C349.971 93.7341 350.52 89.436 350.52 89.1617V89.0702C350.246 87.8814 350.154 86.6926 349.88 85.5952Z" fill="white"/>
<path opacity="0.9024" d="M349.88 85.6868C351.8 88.1559 352.989 91.1736 353.263 94.3743C353.355 94.4658 352.623 100.227 352.623 100.501L332.505 248.007L311.746 400.908C310.191 408.224 305.528 416.088 296.931 416.271H295.651H230.723H169.453C169.179 416.271 164.24 416.271 163.966 416.18C160.765 416.088 157.656 414.899 155.187 412.796C156.376 413.07 157.656 413.345 158.937 413.345C159.028 413.345 163.692 413.436 163.966 413.436H225.693H291.902C302.876 413.528 307.357 406.669 309.185 396.153L329.944 243.069L350.154 94.2829C350.154 94.1914 350.703 89.619 350.703 89.4361V89.3447C350.428 88.0644 350.337 86.8756 349.88 85.6868Z" fill="white"/>
<path opacity="0.9268" d="M350.063 85.7781C351.983 88.2472 353.172 91.265 353.263 94.4656C353.263 94.5571 352.623 100.41 352.623 100.593L332.688 247.915L311.929 400.816C310.374 408.132 305.711 415.997 297.114 416.179H295.834H230.906H169.727C169.636 416.179 164.423 416.179 164.241 416.088C161.04 415.997 157.931 414.808 155.462 412.887C156.65 413.162 157.931 413.436 159.211 413.436C159.302 413.436 164.149 413.436 164.241 413.436H225.876H292.085C303.059 413.527 307.631 406.669 309.368 396.152L330.127 243.068L350.246 94.2827C350.246 94.1913 350.794 89.6189 350.794 89.436V89.3445C350.52 88.1557 350.246 86.9669 350.063 85.7781Z" fill="white"/>
<path opacity="0.9512" d="M350.154 85.9609C352.075 88.43 353.263 91.4478 353.263 94.6485C353.263 94.7399 352.532 100.593 352.532 100.775L332.596 248.007L311.838 400.908C310.283 408.132 305.619 416.088 297.023 416.088H295.743H230.815H169.727C169.636 416.088 164.423 416.088 164.241 416.088C161.04 416.088 157.931 414.899 155.279 412.887C156.468 413.162 157.748 413.253 159.028 413.436C159.119 413.436 163.966 413.436 164.058 413.436H225.511H291.719C302.876 413.527 307.265 406.669 309.094 396.152L329.853 243.068L350.063 94.3741C350.063 94.2827 350.703 89.7103 350.611 89.5274V89.436C350.52 88.2471 350.429 87.1498 350.154 85.9609Z" fill="white"/>
<path opacity="0.9756" d="M350.337 86.0525C352.257 88.5216 353.355 91.5394 353.446 94.74L352.623 100.867L332.688 247.915L311.929 400.816C310.374 408.132 305.71 415.997 297.114 415.997H295.834H230.906H170.002C170.002 415.997 164.698 415.997 164.515 415.997C161.314 415.997 158.205 414.808 155.553 412.887C156.742 413.162 158.022 413.253 159.302 413.253C159.302 413.253 164.241 413.253 164.332 413.253H225.602H291.81C302.967 413.345 307.357 406.669 309.185 395.969L329.944 242.886L350.154 94.3742C350.154 94.3742 350.794 89.7104 350.794 89.5275V89.619C350.703 88.4301 350.52 87.2413 350.337 86.0525Z" fill="white"/>
<path opacity="0.15" d="M164.515 416.088C161.314 416.088 158.205 415.082 155.553 413.07C156.742 413.345 158.022 413.436 159.302 413.436H225.511H291.719C302.876 413.528 307.265 406.852 309.094 396.061L329.853 242.977L350.611 89.8934V89.802C350.611 88.5217 350.52 87.3329 350.246 86.144C352.166 88.6131 353.263 91.7224 353.263 95.0145L332.505 247.915L311.746 400.816C310.191 408.132 305.528 415.997 296.931 415.997H230.723H164.515V416.088Z" fill="white"/>
</g>
<path d="M287.97 92.1796H245.355C244.44 92.1796 243.892 91.2651 244.349 90.5335C244.623 90.1678 244.898 89.9849 245.355 89.9849H287.97C288.884 89.9849 289.433 90.8993 288.976 91.6309C288.701 92.0882 288.427 92.1796 287.97 92.1796Z" fill="#4575C9"/>
<path d="M338.266 93.1854C337.626 96.8433 334.334 99.3124 331.133 98.7637C327.932 98.1235 325.646 94.74 326.378 91.0821C327.018 87.4241 330.31 84.9551 333.511 85.5037C336.803 86.2353 338.906 89.6189 338.266 93.1854Z" fill="#4575C9"/>
<g opacity="0.24">
<path opacity="0.02439" d="M230.906 487.143C298.943 487.143 354.086 478.456 354.086 467.665C354.086 456.874 298.943 448.186 230.906 448.186C162.869 448.186 107.726 456.874 107.726 467.665C107.817 478.456 162.96 487.143 230.906 487.143Z" fill="#FBFCFE"/>
<path opacity="0.04878" d="M230.906 486.686C297.389 486.686 351.343 478.181 351.343 467.756C351.343 457.331 297.389 448.826 230.906 448.826C164.423 448.826 110.469 457.331 110.469 467.756C110.561 478.181 164.423 486.686 230.906 486.686Z" fill="#F8FAFE"/>
<path opacity="0.073171" d="M230.906 486.32C295.834 486.32 348.508 477.998 348.508 467.756C348.508 457.514 295.834 449.192 230.906 449.192C165.978 449.192 113.396 457.422 113.396 467.756C113.396 477.998 165.978 486.32 230.906 486.32Z" fill="#F4F7FD"/>
<path opacity="0.097561" d="M230.906 485.771C294.279 485.771 345.673 477.724 345.673 467.756C345.673 457.788 294.279 449.741 230.906 449.741C167.533 449.741 116.139 457.788 116.139 467.756C116.23 477.724 167.624 485.771 230.906 485.771Z" fill="#F1F5FC"/>
<path opacity="0.122" d="M230.906 485.406C292.725 485.406 342.747 477.541 342.747 467.756C342.747 457.971 292.633 450.107 230.906 450.107C169.179 450.107 119.065 457.971 119.065 467.756C119.065 477.45 169.179 485.406 230.906 485.406Z" fill="#EDF2FC"/>
<path opacity="0.1463" d="M230.906 484.857C291.079 484.857 339.912 477.175 339.912 467.756C339.912 458.337 291.079 450.655 230.906 450.655C170.733 450.655 121.9 458.337 121.9 467.756C121.9 477.175 170.733 484.857 230.906 484.857Z" fill="#E9F0FB"/>
<path opacity="0.1707" d="M230.906 484.491C289.616 484.491 337.169 476.992 337.169 467.756C337.169 458.52 289.616 451.021 230.906 451.021C172.196 451.021 124.644 458.52 124.644 467.756C124.644 476.992 172.288 484.491 230.906 484.491Z" fill="#E6EDFA"/>
<path opacity="0.1951" d="M230.906 484.034C288.061 484.034 334.334 476.718 334.334 467.665C334.334 458.611 288.061 451.296 230.906 451.296C173.751 451.296 127.478 458.611 127.478 467.665C127.478 476.718 173.842 484.034 230.906 484.034Z" fill="#E2EBFA"/>
<path opacity="0.2195" d="M230.998 483.577C286.598 483.577 331.59 476.444 331.59 467.756C331.59 458.977 286.598 451.936 230.998 451.936C175.397 451.936 130.405 459.068 130.405 467.756C130.313 476.444 175.397 483.577 230.998 483.577Z" fill="#DFE8F9"/>
<path opacity="0.2439" d="M230.998 483.119C284.952 483.119 328.755 476.169 328.755 467.665C328.755 459.16 284.952 452.21 230.998 452.21C177.043 452.21 133.24 459.16 133.24 467.665C133.24 476.261 176.952 483.119 230.998 483.119Z" fill="#DBE6F8"/>
<path opacity="0.2683" d="M230.906 482.662C283.397 482.662 325.92 475.986 325.92 467.756C325.92 459.526 283.397 452.85 230.906 452.85C178.415 452.85 135.892 459.526 135.892 467.756C135.892 475.986 178.506 482.662 230.906 482.662Z" fill="#D8E3F7"/>
<path opacity="0.2927" d="M230.906 482.296C281.843 482.296 323.086 475.803 323.086 467.756C323.086 459.709 281.843 453.216 230.906 453.216C179.97 453.216 138.727 459.709 138.727 467.756C138.727 475.803 180.061 482.296 230.906 482.296Z" fill="#D4E1F7"/>
<path opacity="0.3171" d="M230.906 481.748C280.196 481.748 320.251 475.438 320.251 467.756C320.251 459.983 280.288 453.765 230.906 453.765C181.616 453.765 141.561 460.075 141.561 467.756C141.653 475.438 181.616 481.748 230.906 481.748Z" fill="#D0DEF6"/>
<path opacity="0.3415" d="M230.906 481.382C278.642 481.382 317.324 475.255 317.324 467.756C317.324 460.257 278.642 454.13 230.906 454.13C183.17 454.13 144.396 460.257 144.396 467.756C144.488 475.255 183.17 481.382 230.906 481.382Z" fill="#CDDCF5"/>
<path opacity="0.3659" d="M230.906 480.925C277.087 480.925 314.49 474.981 314.49 467.665C314.49 460.349 277.087 454.405 230.906 454.405C184.725 454.405 147.323 460.349 147.323 467.665C147.323 475.072 184.725 480.925 230.906 480.925Z" fill="#C9D9F5"/>
<path opacity="0.3902" d="M230.906 480.467C275.624 480.467 311.837 474.798 311.837 467.756C311.837 460.715 275.624 455.045 230.906 455.045C186.188 455.045 149.975 460.715 149.975 467.756C150.066 474.706 186.279 480.467 230.906 480.467Z" fill="#C6D7F4"/>
<path opacity="0.4146" d="M230.906 480.01C273.978 480.01 308.911 474.523 308.911 467.665C308.911 460.897 273.978 455.319 230.906 455.319C187.834 455.319 152.901 460.806 152.901 467.665C152.901 474.523 187.834 480.01 230.906 480.01Z" fill="#C2D4F3"/>
<path opacity="0.439" d="M230.906 479.553C272.423 479.553 306.076 474.249 306.076 467.756C306.076 461.263 272.423 455.959 230.906 455.959C189.389 455.959 155.736 461.263 155.736 467.756C155.736 474.249 189.389 479.553 230.906 479.553Z" fill="#BED2F3"/>
<path opacity="0.4634" d="M230.906 479.096C270.869 479.096 303.241 473.975 303.241 467.665C303.241 461.355 270.869 456.234 230.906 456.234C190.943 456.234 158.571 461.355 158.571 467.665C158.571 474.066 191.035 479.096 230.906 479.096Z" fill="#BBCFF2"/>
<path opacity="0.4878" d="M230.998 478.638C269.406 478.638 300.589 473.792 300.589 467.756C300.589 461.721 269.406 456.874 230.998 456.874C192.589 456.874 161.406 461.721 161.406 467.756C161.406 473.792 192.498 478.638 230.998 478.638Z" fill="#B7CDF1"/>
<path opacity="0.5122" d="M230.997 478.273C267.851 478.273 297.754 473.609 297.754 467.756C297.754 461.904 267.851 457.24 230.997 457.24C194.144 457.24 164.24 461.904 164.24 467.756C164.149 473.517 194.052 478.273 230.997 478.273Z" fill="#B4CAF1"/>
<path opacity="0.5366" d="M230.906 477.815C266.205 477.815 294.828 473.243 294.828 467.665C294.828 462.086 266.205 457.514 230.906 457.514C195.607 457.514 166.984 462.086 166.984 467.665C167.075 473.334 195.699 477.815 230.906 477.815Z" fill="#B0C8F0"/>
<path opacity="0.561" d="M230.998 477.358C264.742 477.358 292.085 473.06 292.085 467.756C292.085 462.452 264.742 458.154 230.998 458.154C197.253 458.154 169.91 462.452 169.91 467.756C169.91 473.06 197.253 477.358 230.998 477.358Z" fill="#ADC5EF"/>
<path opacity="0.5854" d="M289.158 467.756C289.158 472.786 263.096 476.992 230.997 476.992C198.899 476.992 172.837 472.877 172.837 467.756C172.837 462.726 198.899 458.52 230.997 458.52C263.096 458.52 289.158 462.635 289.158 467.756Z" fill="#A9C3EF"/>
<path opacity="0.6098" d="M230.906 476.444C261.541 476.444 286.415 472.511 286.415 467.756C286.415 462.909 261.541 459.069 230.906 459.069C200.271 459.069 175.397 463.001 175.397 467.756C175.489 472.511 200.271 476.444 230.906 476.444Z" fill="#A5C0EE"/>
<path opacity="0.6341" d="M230.906 475.987C259.986 475.987 283.58 472.237 283.58 467.665C283.58 463.092 259.986 459.343 230.906 459.343C201.826 459.343 178.232 463.092 178.232 467.665C178.324 472.329 201.917 475.987 230.906 475.987Z" fill="#A2BEED"/>
<path opacity="0.6585" d="M280.745 467.756C280.745 472.054 258.432 475.529 230.998 475.529C203.472 475.529 181.25 472.054 181.25 467.756C181.25 463.458 203.563 459.983 230.998 459.983C258.432 459.892 280.745 463.458 280.745 467.756Z" fill="#9EBBED"/>
<path opacity="0.6829" d="M230.906 475.072C256.786 475.072 277.819 471.78 277.819 467.665C277.819 463.549 256.786 460.257 230.906 460.257C205.026 460.257 183.993 463.549 183.993 467.665C183.993 471.78 205.026 475.072 230.906 475.072Z" fill="#9BB9EC"/>
<path opacity="0.7073" d="M230.906 474.706C255.231 474.706 274.984 471.597 274.984 467.665C274.984 463.824 255.231 460.623 230.906 460.623C206.581 460.623 186.828 463.732 186.828 467.665C186.828 471.597 206.581 474.706 230.906 474.706Z" fill="#97B6EB"/>
<path opacity="0.7317" d="M272.332 467.756C272.332 471.414 253.768 474.249 230.997 474.249C208.227 474.249 189.663 471.414 189.663 467.756C189.663 464.098 208.227 461.263 230.997 461.263C253.768 461.263 272.332 464.19 272.332 467.756Z" fill="#93B4EB"/>
<path opacity="0.7561" d="M230.906 473.792C252.213 473.792 269.406 471.048 269.406 467.665C269.406 464.281 252.213 461.538 230.906 461.538C209.599 461.538 192.406 464.281 192.406 467.665C192.406 471.048 209.69 473.792 230.906 473.792Z" fill="#90B1EA"/>
<path opacity="0.7805" d="M230.906 473.334C250.567 473.334 266.571 470.865 266.571 467.756C266.571 464.647 250.567 462.178 230.906 462.178C211.245 462.178 195.241 464.647 195.241 467.756C195.333 470.774 211.245 473.334 230.906 473.334Z" fill="#8CAFE9"/>
<path opacity="0.8049" d="M263.736 467.756C263.736 470.591 249.104 472.969 230.906 472.969C212.799 472.969 198.076 470.591 198.076 467.756C198.076 464.921 212.708 462.544 230.906 462.544C249.104 462.544 263.736 464.83 263.736 467.756Z" fill="#89ACE8"/>
<path opacity="0.8293" d="M230.997 472.42C247.641 472.42 261.084 470.317 261.084 467.756C261.084 465.196 247.641 463.092 230.997 463.092C214.354 463.092 200.911 465.196 200.911 467.756C200.911 470.317 214.354 472.42 230.997 472.42Z" fill="#85AAE8"/>
<path opacity="0.8537" d="M230.997 471.963C245.995 471.963 258.249 470.042 258.249 467.665C258.249 465.287 246.086 463.367 230.997 463.367C215.909 463.367 203.746 465.287 203.746 467.665C203.746 470.042 215.909 471.963 230.997 471.963Z" fill="#82A7E7"/>
<path opacity="0.878" d="M255.323 467.756C255.323 469.859 244.44 471.688 230.906 471.688C217.463 471.688 206.489 470.042 206.489 467.756C206.489 465.653 217.372 463.824 230.906 463.824C244.44 463.824 255.323 465.653 255.323 467.756Z" fill="#7EA5E6"/>
<path opacity="0.9024" d="M230.997 471.048C242.886 471.048 252.488 469.494 252.488 467.665C252.488 465.836 242.886 464.281 230.997 464.281C219.109 464.281 209.507 465.836 209.507 467.665C209.416 469.585 219.109 471.048 230.997 471.048Z" fill="#7AA2E6"/>
<path opacity="0.9268" d="M230.998 470.683C241.331 470.683 249.653 469.311 249.653 467.665C249.653 466.019 241.331 464.647 230.998 464.647C220.664 464.647 212.342 466.019 212.342 467.665C212.342 469.311 220.664 470.683 230.998 470.683Z" fill="#77A0E5"/>
<path opacity="0.9512" d="M246.909 467.756C246.909 469.219 239.777 470.225 230.998 470.225C222.219 470.225 215.086 469.036 215.086 467.756C215.086 466.293 222.219 465.287 230.998 465.287C239.777 465.287 246.909 466.384 246.909 467.756Z" fill="#739DE4"/>
<path opacity="0.9756" d="M230.906 469.768C238.13 469.768 243.983 468.854 243.983 467.665C243.983 466.476 238.13 465.562 230.906 465.562C223.682 465.562 217.829 466.476 217.829 467.665C217.829 468.854 223.682 469.768 230.906 469.768Z" fill="#709BE4"/>
<path opacity="0.5" d="M230.906 469.311C236.576 469.311 241.148 468.579 241.148 467.756C241.148 466.933 236.576 466.201 230.906 466.201C225.236 466.201 220.664 466.933 220.664 467.756C220.664 468.579 225.328 469.311 230.906 469.311Z" fill="#6C98E3"/>
</g>
<path d="M292.999 211.336C286.689 211.336 281.477 206.124 281.477 199.814L287.055 163.326C287.055 156.925 292.268 151.804 298.578 151.804H409.778C416.088 151.804 421.301 157.016 421.301 163.326L415.722 199.814C414.534 205.392 410.967 211.519 404.2 211.519H292.999V211.336Z" fill="url(#paint4_linear)"/>
<path d="M417.277 154.547C418.923 156.65 420.112 159.211 420.112 162.046L414.533 198.534C413.345 204.112 409.778 210.239 403.011 210.239H291.81C288.976 210.239 286.232 209.233 284.312 207.404C286.415 209.873 289.524 211.428 292.999 211.428H404.2C410.967 211.428 414.534 205.301 415.722 199.722L421.301 163.235C421.301 159.76 419.746 156.65 417.277 154.547Z" fill="#274187"/>
<path d="M331.865 175.854C331.499 175.854 331.042 175.489 331.042 175.031L331.59 171.282C331.59 170.916 331.956 170.459 332.413 170.459H410.235C410.601 170.459 411.058 170.825 411.058 171.282L410.51 175.031C410.418 175.397 410.144 175.854 409.687 175.854H331.865Z" fill="#B3CDFA"/>
<path d="M330.493 186.097C330.127 186.097 329.67 185.731 329.67 185.274L330.218 181.524C330.218 181.158 330.584 180.701 331.042 180.701H408.772C409.138 180.701 409.504 181.067 409.504 181.524L408.955 185.274C408.864 185.639 408.589 186.097 408.224 186.097H330.493Z" fill="#B3CDFA"/>
<path d="M329.304 196.248C328.938 196.248 328.481 195.882 328.481 195.424L329.03 191.675C329.03 191.309 329.395 190.852 329.853 190.852H377.771C378.137 190.852 378.595 191.218 378.595 191.675L378.046 195.424C377.954 195.79 377.68 196.248 377.223 196.248H329.304Z" fill="#B3CDFA"/>
<path d="M315.678 183.536H318.513C319.062 183.536 319.702 182.987 319.794 182.53L320.434 178.872C320.525 178.324 320.159 177.866 319.519 177.866H317.324C316.959 177.866 316.684 177.592 316.501 177.226C316.501 176.952 316.41 176.86 316.41 176.586C316.318 176.22 316.41 175.763 316.776 175.58L318.605 174.026C319.153 173.66 319.245 173.02 318.879 172.562L316.776 170.002C316.41 169.636 315.77 169.636 315.313 170.002L313.392 171.556C313.118 171.831 312.752 171.831 312.386 171.648C312.112 171.556 312.02 171.374 311.746 171.374C311.472 171.282 311.197 171.008 311.38 170.551L311.746 168.356C311.838 167.807 311.472 167.35 310.832 167.35H307.357C306.808 167.35 306.168 167.899 306.076 168.356L305.71 170.551C305.619 170.916 305.345 171.191 304.887 171.374C304.613 171.465 304.339 171.465 304.247 171.648C303.882 171.739 303.424 171.739 303.333 171.556L302.053 170.002C301.687 169.636 301.047 169.636 300.589 170.002L297.572 172.562C297.023 172.928 296.931 173.568 297.297 174.026L298.578 175.58C298.852 175.855 298.852 176.22 298.578 176.495C298.486 176.769 298.303 177.043 298.212 177.135C298.12 177.501 297.663 177.683 297.297 177.683H295.103C294.554 177.683 293.914 178.232 293.822 178.689L293.182 182.347C293.091 182.896 293.456 183.353 294.097 183.353H296.291C296.657 183.353 296.931 183.628 297.114 183.993C297.114 184.268 297.206 184.359 297.206 184.634C297.297 184.999 297.206 185.457 296.84 185.639L295.011 187.194C294.462 187.56 294.371 188.2 294.737 188.657L296.84 191.218C297.206 191.584 297.846 191.584 298.303 191.218L300.224 189.663C300.498 189.389 300.864 189.389 301.23 189.572C301.504 189.663 301.595 189.846 301.87 189.846C302.144 189.937 302.418 190.212 302.235 190.669L301.87 192.864C301.778 193.413 302.144 193.87 302.784 193.87H306.442C306.991 193.87 307.631 193.321 307.722 192.864L308.088 190.669C308.18 190.303 308.454 190.029 308.911 189.846C309.186 189.755 309.277 189.755 309.551 189.572C309.917 189.48 310.283 189.48 310.466 189.663L311.746 191.218C312.112 191.584 312.752 191.584 313.209 191.218L316.227 188.657C316.776 188.291 316.867 187.651 316.501 187.194L315.221 185.639C314.947 185.365 314.947 184.999 315.221 184.725C315.313 184.268 315.678 183.628 315.678 183.536ZM301.778 179.787C302.967 176.586 306.716 174.757 309.46 175.855C311.563 176.769 312.569 179.238 311.655 181.524C310.466 184.725 306.716 186.554 303.973 185.457C301.961 184.725 300.864 182.256 301.778 179.787Z" fill="white"/>
<path d="M168.539 390.3C161.497 390.3 155.919 384.721 155.919 377.68L164.972 317.05V316.958C164.972 309.917 170.642 304.339 177.592 304.339H299.218C306.259 304.339 311.746 309.917 311.746 316.958L302.693 377.497C301.412 383.624 297.389 390.208 290.164 390.208H168.539V390.3Z" fill="url(#paint5_linear)"/>
<path d="M306.716 306.899C308.271 309.002 309.185 311.563 309.185 314.398L300.132 374.936C298.852 381.063 294.828 387.648 287.604 387.648H165.978C163.143 387.648 160.491 386.733 158.479 385.179C160.857 388.288 164.423 390.208 168.63 390.208H290.256C297.663 390.208 301.687 383.624 302.876 377.497L311.929 316.958C311.746 312.752 309.826 309.094 306.716 306.899Z" fill="#274187"/>
<path d="M179.695 350.154C178.141 350.154 176.677 348.874 176.677 347.136L178.781 332.962C178.781 331.316 180.061 329.944 181.798 329.944H197.985C199.539 329.944 201.003 331.224 201.003 332.962L198.899 347.136C198.625 348.6 197.619 350.154 195.881 350.154H179.695Z" fill="#2ACEE0"/>
<path d="M169.453 366.34C168.904 366.34 168.539 365.975 168.539 365.426L169.179 361.311C169.179 360.762 169.544 360.396 170.093 360.396H189.755C190.303 360.396 190.669 360.762 190.669 361.311L190.029 365.426C189.937 365.792 189.663 366.34 189.114 366.34H169.453Z" fill="#B3CDFA"/>
<path d="M195.424 366.34C194.876 366.34 194.51 365.975 194.51 365.426L195.15 361.311C195.15 360.762 195.516 360.396 196.064 360.396H248.19C248.738 360.396 249.104 360.762 249.104 361.311L248.464 365.426C248.373 365.792 248.098 366.34 247.55 366.34H195.424Z" fill="#B3CDFA"/>
<path d="M253.677 366.34C253.128 366.34 252.762 365.975 252.762 365.426L253.402 361.311C253.402 360.762 253.768 360.396 254.317 360.396H286.964C287.512 360.396 287.878 360.762 287.878 361.311L287.238 365.426C287.146 365.792 286.872 366.34 286.323 366.34H253.677Z" fill="#B3CDFA"/>
<path d="M166.618 379.6C166.069 379.6 165.704 379.235 165.704 378.686L166.344 374.571C166.344 374.022 166.71 373.656 167.258 373.656H236.393C236.942 373.656 237.307 374.022 237.307 374.571L236.667 378.686C236.576 379.052 236.301 379.6 235.753 379.6H166.618Z" fill="#B3CDFA"/>
<path d="M209.141 271.966C207.221 279.922 199.448 286.232 191.492 286.232C183.627 286.232 178.781 279.831 180.701 271.966C182.622 264.01 190.395 257.7 198.351 257.7C206.307 257.7 211.062 264.193 209.141 271.966Z" fill="#E3EDFE"/>
<path d="M206.124 260.535C208.501 263.096 209.324 266.937 208.501 271.143C206.581 279.099 198.808 285.409 190.852 285.409C187.743 285.409 184.999 284.403 183.079 282.574C184.999 284.769 188.017 286.049 191.675 286.049C199.539 286.049 207.495 279.648 209.324 271.783C210.239 267.302 208.958 263.187 206.124 260.535Z" fill="white"/>
<path d="M191.583 277.819L187.834 272.88L191.309 270.045L192.955 272.149L200.18 266.296L202.283 269.131L191.583 277.819Z" fill="#3457B4"/>
<path d="M235.844 240.965H152.718C145.859 240.965 141.196 235.387 142.202 228.528L159.119 119.065C160.125 112.207 166.618 106.628 173.477 106.628H256.603C263.462 106.628 268.125 112.207 267.119 119.065L250.293 228.528C249.196 235.387 242.703 240.965 235.844 240.965Z" fill="url(#paint6_linear)"/>
<path d="M262.913 108.64C264.467 110.835 265.108 113.67 264.742 116.779L247.915 226.242C246.909 233.101 240.417 238.679 233.558 238.679H150.432C147.963 238.679 145.768 237.856 144.122 236.759C145.951 239.319 149.06 241.057 152.901 241.057H235.936C242.794 241.057 249.287 235.479 250.293 228.62L267.119 119.157C267.76 114.767 266.022 110.927 262.913 108.64Z" fill="#B3CDFA"/>
<path d="M253.677 123.821C253.036 128.119 249.013 131.502 244.898 131.502C240.6 131.502 237.765 128.119 238.405 123.821C239.045 119.522 243.069 116.139 247.184 116.139C251.482 116.23 254.408 119.705 253.677 123.821Z" fill="url(#paint7_linear)"/>
<path d="M244.349 127.753L241.331 124.278L242.886 122.997L244.532 124.918L249.561 120.528L250.842 121.991L244.349 127.753Z" fill="white"/>
<path d="M174.117 202.009L171.099 200.362C171.099 200.362 171.008 200.362 170.825 200.362L167.35 202.009C167.258 202.1 166.984 202.009 167.075 201.734L168.264 198.076C168.264 197.985 168.264 197.985 168.264 197.985L166.069 195.516C165.978 195.424 166.069 195.15 166.161 195.15L169.819 194.601C169.91 194.601 169.91 194.601 169.91 194.51L172.014 191.309C172.105 191.218 172.379 191.218 172.379 191.309L173.568 194.51L173.66 194.601L177.135 195.15C177.226 195.15 177.409 195.424 177.226 195.516L174.208 198.076L174.117 198.168L174.208 201.826C174.483 201.917 174.208 202.009 174.117 202.009ZM189.297 201.734L189.206 198.076C189.206 197.985 189.206 197.985 189.297 197.985L192.315 195.424C192.407 195.333 192.407 195.058 192.224 195.058L188.749 194.51C188.657 194.51 188.657 194.51 188.657 194.418L187.468 191.218C187.468 191.126 187.194 191.126 187.103 191.218L184.999 194.418L184.908 194.51L181.25 195.058C181.158 195.058 180.976 195.333 181.158 195.424L183.353 197.893V197.985L182.164 201.643C182.164 201.734 182.256 201.917 182.439 201.917L185.914 200.271C186.005 200.271 186.005 200.271 186.188 200.271L189.206 201.917C189.023 202.009 189.297 201.917 189.297 201.734ZM204.02 201.734L203.929 198.076C203.929 197.985 203.929 197.985 204.02 197.985L207.038 195.424C207.13 195.333 207.13 195.058 206.947 195.058L203.472 194.51C203.38 194.51 203.38 194.51 203.38 194.418L202.1 191.126C202.1 191.035 201.826 191.035 201.734 191.126L199.631 194.327L199.539 194.418L195.882 194.967C195.79 194.967 195.607 195.241 195.79 195.333L197.985 197.802V197.893L196.796 201.551C196.796 201.643 196.887 201.826 197.07 201.826L200.545 200.18C200.637 200.18 200.637 200.18 200.82 200.18L203.837 201.826C203.837 202.009 204.02 201.917 204.02 201.734ZM218.835 201.734L218.744 198.076C218.744 197.985 218.744 197.985 218.835 197.985L221.853 195.424C221.944 195.333 221.944 195.058 221.761 195.058L218.286 194.51C218.195 194.51 218.195 194.51 218.195 194.418L217.006 191.218C217.006 191.126 216.732 191.126 216.64 191.218L214.537 194.418L214.445 194.51L210.788 195.058C210.696 195.058 210.513 195.333 210.696 195.424L212.891 197.893V197.985L211.702 201.643C211.702 201.734 211.793 201.917 211.976 201.917L215.451 200.271C215.543 200.271 215.543 200.271 215.726 200.271L218.744 201.917C218.561 202.009 218.835 201.917 218.835 201.734ZM233.65 201.734L233.558 198.076C233.558 197.985 233.558 197.985 233.65 197.985L236.667 195.424C236.759 195.333 236.759 195.058 236.576 195.058L233.101 194.51C233.009 194.51 233.009 194.51 233.009 194.418L231.821 191.218C231.821 191.126 231.546 191.126 231.455 191.218L229.351 194.418L229.26 194.51L225.602 195.058C225.511 195.058 225.328 195.333 225.511 195.424L227.705 197.893V197.985L226.517 201.643C226.517 201.734 226.608 201.917 226.791 201.917L230.266 200.271C230.357 200.271 230.357 200.271 230.54 200.271L233.558 201.917C233.467 202.009 233.65 201.917 233.65 201.734Z" fill="#2ACEE0"/>
<path d="M210.056 229.809H182.164C177.775 229.809 174.757 226.334 175.397 221.853C176.037 217.463 180.152 213.897 184.45 213.897H212.342C216.732 213.897 219.749 217.372 219.109 221.853C218.469 226.334 214.262 229.809 210.056 229.809Z" fill="url(#paint8_linear)"/>
<path d="M228.986 142.11H194.967V141.379C195.058 139.001 193.23 137.263 190.852 137.263H187.468C186.554 137.263 185.731 137.995 185.548 138.909C185.365 139.824 186.005 140.556 186.92 140.556H190.395C191.218 140.556 191.766 141.104 191.766 141.927L191.583 159.76C191.583 159.851 191.583 159.943 191.583 160.125V163.326C191.583 166.161 193.595 168.264 196.43 168.264H219.384C220.298 168.264 221.121 167.533 221.304 166.618C221.487 165.704 220.847 164.972 219.932 164.972H196.979C195.699 164.972 194.784 164.058 194.876 162.869V161.497H221.487C222.219 161.497 222.95 160.948 223.316 160.308L230.357 144.396C230.54 143.939 230.54 143.39 230.357 143.025C229.992 142.385 229.534 142.11 228.986 142.11Z" fill="#1449A8"/>
<path d="M196.705 169.087C193.961 169.087 191.309 171.282 190.76 174.117C190.303 176.86 192.132 179.147 194.876 179.147C197.71 179.147 200.271 176.86 200.728 174.117C201.277 171.282 199.448 169.087 196.705 169.087Z" fill="#1449A8"/>
<path d="M212.617 169.087C209.873 169.087 207.221 171.282 206.672 174.117C206.215 176.86 208.044 179.147 210.788 179.147C213.531 179.147 216.183 176.952 216.732 174.117C217.28 171.282 215.36 169.087 212.617 169.087Z" fill="#1449A8"/>
<path d="M342.93 290.713H233.741C230.906 290.713 228.803 288.335 229.077 285.409L232.461 256.877C232.827 254.042 235.479 251.573 238.313 251.573H347.594C350.429 251.573 352.532 253.951 352.258 256.877L348.874 285.409C348.508 288.335 345.856 290.713 342.93 290.713Z" fill="url(#paint9_linear)"/>
<path d="M349.788 252.122C350.154 252.945 350.429 253.951 350.337 254.865L346.954 283.397C346.588 286.232 343.936 288.701 341.101 288.701H231.912C231.18 288.701 230.357 288.427 229.717 288.152C230.54 289.615 232.095 290.621 233.832 290.621H343.021C345.856 290.621 348.6 288.244 348.874 285.317L352.258 256.786C352.349 254.682 351.343 253.036 349.788 252.122Z" fill="#B3CDFA"/>
<path d="M347.136 251.573H238.679C235.57 251.573 232.735 254.042 232.461 257.152L232.095 260.809H351.709L352.075 257.152C352.532 254.042 350.246 251.573 347.136 251.573Z" fill="url(#paint10_linear)"/>
<path d="M349.788 252.396C350.154 253.219 350.337 254.042 350.154 254.957L349.514 260.901L351.617 261.724L351.892 260.078L352.166 257.334C352.349 255.14 351.434 253.311 349.788 252.396Z" fill="#3457B4"/>
<path d="M340.095 271.417H263.279C262.913 271.417 262.73 271.143 262.73 270.777L262.913 269.405C262.913 269.131 263.187 268.948 263.462 268.948H340.278C340.644 268.948 340.827 269.223 340.827 269.588L340.644 270.96C340.552 271.234 340.369 271.417 340.095 271.417Z" fill="#C2D7FB"/>
<path d="M339.181 278.55H262.364C261.998 278.55 261.816 278.276 261.816 277.91L261.998 276.539C261.998 276.264 262.273 276.081 262.547 276.081H339.272C339.638 276.081 339.821 276.356 339.821 276.721L339.638 278.093C339.638 278.368 339.455 278.55 339.181 278.55Z" fill="#C2D7FB"/>
<path d="M243.434 256.146C243.343 256.786 242.794 257.334 242.154 257.334C241.514 257.334 240.965 256.786 241.148 256.146C241.24 255.505 241.788 254.957 242.428 254.957C243.069 254.957 243.434 255.505 243.434 256.146Z" fill="#E3EDFE"/>
<path d="M248.555 256.146C248.464 256.786 247.915 257.334 247.275 257.334C246.635 257.334 246.086 256.786 246.269 256.146C246.361 255.505 246.909 254.957 247.55 254.957C248.098 254.957 248.555 255.505 248.555 256.146Z" fill="#E3EDFE"/>
<path d="M253.585 256.146C253.494 256.786 252.945 257.334 252.305 257.334C251.665 257.334 251.116 256.786 251.299 256.146C251.482 255.505 251.939 254.957 252.579 254.957C253.219 254.957 253.677 255.505 253.585 256.146Z" fill="#E3EDFE"/>
<path d="M252.762 270.869H250.019L250.202 269.954C250.567 268.034 249.287 266.479 247.458 266.479C245.629 266.479 243.8 268.034 243.435 269.954L243.252 270.869H240.508C240.234 270.869 240.051 271.052 239.959 271.326L238.039 282.208C237.948 282.94 238.405 283.489 239.136 283.489H249.653C250.385 283.489 251.025 282.94 251.208 282.208L253.128 271.326C253.219 271.052 253.037 270.869 252.762 270.869ZM244.532 269.954C244.806 268.674 245.995 267.577 247.275 267.577C248.556 267.577 249.379 268.674 249.104 269.954L248.921 270.869H244.349L244.532 269.954Z" fill="#1449A8"/>
<defs>
<linearGradient id="paint0_linear" x1="349.172" y1="426.865" x2="348.437" y2="103.788" gradientUnits="userSpaceOnUse">
<stop stop-color="#EEF4FE"/>
<stop offset="0.8479" stop-color="#F4F8FF"/>
</linearGradient>
<linearGradient id="paint1_linear" x1="164.896" y1="426.865" x2="164.163" y2="103.789" gradientUnits="userSpaceOnUse">
<stop stop-color="#EEF4FE"/>
<stop offset="0.8479" stop-color="#F4F8FF"/>
</linearGradient>
<linearGradient id="paint2_linear" x1="309.667" y1="271.732" x2="332.041" y2="271.732" gradientUnits="userSpaceOnUse">
<stop stop-color="#E3EDFE"/>
<stop offset="1" stop-color="#BFD5FB"/>
</linearGradient>
<linearGradient id="paint3_linear" x1="178.797" y1="425.003" x2="342.037" y2="45.9928" gradientUnits="userSpaceOnUse">
<stop offset="0.2738" stop-color="#B3CDFA"/>
<stop offset="0.4057" stop-color="#B9D1FA"/>
<stop offset="0.5742" stop-color="#C8DBFC"/>
<stop offset="0.762" stop-color="#E3EDFE"/>
<stop offset="0.7651" stop-color="#E3EDFE"/>
<stop offset="1" stop-color="#B3CDFA"/>
</linearGradient>
<linearGradient id="paint4_linear" x1="281.597" y1="181.567" x2="420.925" y2="181.567" gradientUnits="userSpaceOnUse">
<stop stop-color="#6092E9"/>
<stop offset="0.442" stop-color="#3C6EC6"/>
<stop offset="1" stop-color="#2D60BC"/>
</linearGradient>
<linearGradient id="paint5_linear" x1="156.129" y1="347.29" x2="311.34" y2="347.29" gradientUnits="userSpaceOnUse">
<stop stop-color="#6092E9"/>
<stop offset="0.442" stop-color="#3C6EC6"/>
<stop offset="1" stop-color="#2D60BC"/>
</linearGradient>
<linearGradient id="paint6_linear" x1="246.699" y1="236.455" x2="163.443" y2="112.35" gradientUnits="userSpaceOnUse">
<stop stop-color="#E9F1FE"/>
<stop offset="1" stop-color="white"/>
</linearGradient>
<linearGradient id="paint7_linear" x1="238.575" y1="122.71" x2="253.559" y2="125.019" gradientUnits="userSpaceOnUse">
<stop stop-color="#3457B4"/>
<stop offset="1" stop-color="#6C98E3"/>
</linearGradient>
<linearGradient id="paint8_linear" x1="175.329" y1="221.879" x2="219.191" y2="221.879" gradientUnits="userSpaceOnUse">
<stop stop-color="#6092E9"/>
<stop offset="0.442" stop-color="#3C6EC6"/>
<stop offset="1" stop-color="#2D60BC"/>
</linearGradient>
<linearGradient id="paint9_linear" x1="232.284" y1="257.425" x2="349.041" y2="284.74" gradientUnits="userSpaceOnUse">
<stop stop-color="#E9F1FE"/>
<stop offset="1" stop-color="white"/>
</linearGradient>
<linearGradient id="paint10_linear" x1="233.333" y1="249.617" x2="351.407" y2="263.424" gradientUnits="userSpaceOnUse">
<stop stop-color="#3457B4"/>
<stop offset="0.2224" stop-color="#3A5EB9"/>
<stop offset="0.5521" stop-color="#4C72C8"/>
<stop offset="0.9471" stop-color="#6893DF"/>
<stop offset="1" stop-color="#6C98E3"/>
</linearGradient>
</defs>
</svg>
