<svg width="518" height="540" viewBox="0 0 518 540" fill="none" xmlns="http://www.w3.org/2000/svg">
<path d="M513.023 227.157C513.023 349.971 378.503 496.471 255.689 496.471C132.783 496.471 2.01196 413.802 2.01196 290.896C2.01196 168.081 132.782 51.5767 255.597 51.5767C378.503 51.6681 513.023 104.434 513.023 227.157Z" fill="url(#paint0_linear)"/>
<path d="M290.987 259.255V288.975H338.083V245.172L333.053 249.196L328.024 245.172V259.255H312.112V245.172L307.082 249.196L302.052 245.172V259.255H290.987Z" fill="#D1E1FC"/>
<path d="M256.054 202.466C249.653 202.557 244.44 207.953 244.532 214.354C244.532 220.847 249.836 226.242 256.42 226.242C262.913 226.242 268.308 221.03 268.308 214.354C268.308 211.245 267.028 208.044 264.833 205.849C262.364 203.563 259.255 202.283 256.054 202.466ZM256.328 207.495C256.694 207.495 257.06 207.587 257.334 207.861C257.609 208.136 257.792 208.41 257.792 208.867V213.44L261.724 215.726C262.273 216.183 262.547 217.006 262.181 217.555C261.815 218.103 260.992 218.469 260.352 218.103L255.048 214.994V208.867C254.957 208.227 255.505 207.495 256.328 207.495Z" fill="#D1E1FC"/>
<path d="M235.021 195.698V232.918H277.727V195.698H235.021ZM256.054 199.631C259.986 199.539 263.827 201.002 266.662 203.837C269.497 206.672 271.052 210.33 270.96 214.262C270.96 222.31 264.467 228.894 256.328 228.894C248.19 228.894 241.697 222.401 241.697 214.262C241.697 206.398 248.098 199.722 256.054 199.631Z" fill="#D1E1FC"/>
<path d="M247.732 78.0965C247.275 78.0965 247.184 78.6452 247.458 78.9196L252.579 82.486L250.476 88.3387C250.384 88.7959 250.842 89.1617 251.207 88.8874L256.328 85.3209L261.45 88.8874C261.815 89.1617 262.273 88.7959 262.181 88.3387L260.078 82.3946L265.199 78.8281C265.565 78.5538 265.473 78.0051 264.925 78.0051H258.615L256.786 72.061C256.694 71.6952 256.054 71.6952 255.963 72.061L254.134 78.0051L247.732 78.0965Z" fill="#B3CDFA"/>
<path d="M288.152 235.661V288.884H269.771V270.96C269.771 263.553 263.736 257.517 256.328 257.517C248.921 257.517 242.886 263.553 242.886 270.96V288.884H224.505V235.661H288.152Z" fill="#D1E1FC"/>
<path d="M245.629 288.884H267.028V270.96C267.028 265.016 262.273 260.261 256.329 260.261C250.384 260.261 245.629 265.016 245.629 270.96V288.884Z" fill="#D1E1FC"/>
<path d="M221.761 259.255V288.975H174.666V245.172L179.695 249.196L184.725 245.172V259.255H200.637V245.172L205.666 249.196L210.696 245.172V259.255H221.761Z" fill="#D1E1FC"/>
<path d="M247.732 176.86H240.508V146.957H247.732V176.86Z" fill="#D1E1FC"/>
<path d="M262.09 176.86V146.957H250.476V176.86H262.09Z" fill="#D1E1FC"/>
<path d="M272.149 176.86V146.957H264.925V176.86H272.149Z" fill="#D1E1FC"/>
<path d="M240.599 179.604H272.149V192.955H240.599V179.604Z" fill="#D1E1FC"/>
<path d="M256.328 92.9111L246.178 144.213H266.479L256.328 92.9111Z" fill="#D1E1FC"/>
<path d="M341.192 435.109H171.648C160.583 435.109 151.621 426.147 151.621 414.991L130.588 306.716C130.588 295.56 139.55 286.598 150.615 286.598H320.342C331.407 286.598 340.369 295.56 340.369 306.716L361.402 414.808C361.402 425.873 352.349 435.109 341.192 435.109Z" fill="#1449A8"/>
<path d="M147.231 304.247V324.274C147.231 326.835 149.243 328.847 151.804 328.847H153.907V333.51V339.637C153.907 340.186 154.456 340.369 154.821 339.912L166.344 328.755H179.97C182.53 328.755 184.542 326.743 184.542 324.183V304.156C184.542 301.595 182.53 299.583 179.97 299.583H151.986C149.335 299.766 147.231 301.687 147.231 304.247Z" fill="white"/>
<path d="M176.86 315.038H154.73C153.907 315.038 153.084 314.306 153.084 313.392C153.084 312.569 153.815 311.746 154.73 311.746H176.86C177.683 311.746 178.506 312.477 178.506 313.392C178.506 314.306 177.866 315.038 176.86 315.038Z" fill="url(#paint1_linear)"/>
<path d="M176.86 308.911H154.73C153.907 308.911 153.084 308.179 153.084 307.265C153.084 306.442 153.815 305.619 154.73 305.619H176.86C177.683 305.619 178.506 306.35 178.506 307.265C178.506 308.179 177.866 308.911 176.86 308.911Z" fill="url(#paint2_linear)"/>
<path d="M167.99 321.348H155.096C154.273 321.348 153.45 320.616 153.45 319.702C153.45 318.879 154.181 318.056 155.096 318.056H167.99C168.813 318.056 169.636 318.788 169.636 319.702C169.453 320.708 168.722 321.348 167.99 321.348Z" fill="url(#paint3_linear)"/>
<path d="M171.922 435.201H342.747C354.178 435.201 363.323 425.873 363.323 414.533L384.63 294.645C384.63 283.214 375.485 273.978 364.054 273.978H324.366C317.965 273.978 311.929 277.087 308.088 282.391C303.882 288.244 297.297 291.445 290.164 291.445H193.23C181.799 291.445 175.123 300.772 172.654 312.112L151.346 414.533C151.346 425.964 160.491 435.201 171.922 435.201Z" fill="url(#paint4_linear)"/>
<path d="M365.792 395.878C365.792 407.309 356.647 416.545 345.216 416.545H174.483C164.606 416.545 156.376 409.595 154.364 400.176L151.438 414.442C151.438 425.873 160.583 435.109 172.014 435.109H342.838C354.269 435.109 363.414 425.782 363.414 414.442L384.721 294.554C384.721 293.548 384.63 292.542 384.447 291.445L365.792 395.878Z" fill="url(#paint5_linear)"/>
<path d="M154.09 417.368L175.397 314.947C177.866 303.516 184.542 294.279 195.973 294.279H292.908C300.041 294.279 306.534 290.896 310.832 285.226C314.581 280.013 320.708 276.813 327.109 276.813H366.798C371.645 276.813 376.308 278.55 379.966 281.477C376.217 276.904 370.456 273.886 364.054 273.886H324.366C317.965 273.886 311.929 276.996 308.088 282.3C303.882 288.152 297.297 291.353 290.164 291.353H193.23C181.799 291.353 175.123 300.681 172.654 312.02L151.346 414.442C151.346 420.843 154.273 426.604 158.754 430.354C155.827 427.062 154.09 422.489 154.09 417.368Z" fill="#274187"/>
<path d="M222.585 151.529H143.116C140.83 151.529 138.91 149.517 138.91 147.14V102.97C138.91 100.593 140.922 98.5808 143.116 98.5808H222.585C224.871 98.5808 226.791 100.593 226.791 102.97V147.14C226.791 149.7 225.054 151.529 222.585 151.529Z" fill="#B3CDFA"/>
<path d="M220.573 149.334H142.933C140.647 149.334 138.818 147.506 138.818 145.219V102.97C138.818 100.684 140.647 98.8552 142.933 98.8552H220.573C222.859 98.8552 224.688 100.684 224.688 102.97V145.219C224.779 147.597 222.95 149.334 220.573 149.334Z" fill="url(#paint6_linear)"/>
<path d="M218.195 113.67H180.061V116.962H218.195V113.67Z" fill="#C2D7FB"/>
<path d="M218.195 123.089H180.061V126.381H218.195V123.089Z" fill="#C2D7FB"/>
<path d="M199.265 132.782H180.153V136.075H199.174V132.782H199.265Z" fill="#C2D7FB"/>
<path fill-rule="evenodd" clip-rule="evenodd" d="M163.418 118.882C162.869 118.882 162.503 118.608 162.503 117.968V110.286H151.347C150.706 110.286 150.341 110.835 150.341 111.292V136.806C150.341 137.446 150.889 137.812 151.347 137.812H169.91C170.551 137.812 170.916 137.263 170.916 136.806V118.882H163.418ZM154.456 123.729H164.881V125.009H154.456V123.729ZM157.474 117.511V118.791H154.364V117.511H157.474ZM154.456 126.838H166.71V128.119H154.456V126.838ZM154.456 129.856H161.223V131.136H154.456V129.856ZM171.008 117.511H164.241C163.966 117.511 163.601 117.328 163.601 116.871V110.012L171.008 117.511Z" fill="white"/>
<g opacity="0.32">
<path opacity="0.02439" d="M257.426 486.229C330.31 486.229 389.385 476.901 389.385 465.378C389.385 453.856 330.31 444.528 257.426 444.528C184.542 444.528 125.467 453.856 125.467 465.378C125.467 476.901 184.542 486.229 257.426 486.229Z" fill="#FBFCFE"/>
<path opacity="0.04878" d="M257.426 485.771C328.664 485.771 386.459 476.718 386.459 465.47C386.459 454.313 328.664 445.168 257.426 445.168C186.188 445.168 128.393 454.222 128.393 465.47C128.393 476.535 186.188 485.771 257.426 485.771Z" fill="#F8FAFE"/>
<path opacity="0.073171" d="M257.426 485.314C327.109 485.314 383.441 476.352 383.441 465.47C383.441 454.588 327.018 445.626 257.426 445.626C187.834 445.626 131.411 454.588 131.411 465.47C131.411 476.352 187.925 485.314 257.426 485.314Z" fill="#F4F7FD"/>
<path opacity="0.097561" d="M257.426 484.674C325.28 484.674 380.423 476.078 380.423 465.379C380.423 454.679 325.28 446.083 257.426 446.083C189.572 446.083 134.428 454.679 134.428 465.379C134.428 476.078 189.572 484.674 257.426 484.674Z" fill="#F1F5FC"/>
<path opacity="0.122" d="M257.426 484.4C323.726 484.4 377.314 475.895 377.314 465.47C377.314 455.045 323.634 446.54 257.426 446.54C191.218 446.54 137.538 455.045 137.538 465.47C137.629 475.895 191.309 484.4 257.426 484.4Z" fill="#EDF2FC"/>
<path opacity="0.1463" d="M257.426 483.759C321.988 483.759 374.296 475.529 374.296 465.378C374.296 455.228 321.988 446.997 257.426 446.997C192.864 446.997 140.555 455.228 140.555 465.378C140.555 475.529 192.955 483.759 257.426 483.759Z" fill="#E9F0FB"/>
<path opacity="0.1707" d="M257.426 483.302C320.342 483.302 371.37 475.255 371.37 465.378C371.37 455.502 320.342 447.455 257.426 447.455C194.51 447.455 143.573 455.502 143.573 465.378C143.573 475.255 194.601 483.302 257.426 483.302Z" fill="#E6EDFA"/>
<path opacity="0.1951" d="M257.426 482.937C318.696 482.937 368.352 475.163 368.352 465.379C368.352 455.594 318.696 447.821 257.426 447.821C196.156 447.821 146.5 455.594 146.5 465.379C146.5 475.163 196.156 482.937 257.426 482.937Z" fill="#E2EBFA"/>
<path opacity="0.2195" d="M257.426 482.388C316.958 482.388 365.334 474.798 365.334 465.378C365.334 455.959 317.05 448.369 257.426 448.369C197.893 448.369 149.517 455.959 149.517 465.378C149.7 474.798 197.985 482.388 257.426 482.388Z" fill="#DFE8F9"/>
<path opacity="0.2439" d="M257.426 481.931C315.312 481.931 362.225 474.523 362.225 465.378C362.225 456.234 315.404 448.826 257.426 448.826C199.448 448.826 152.718 456.325 152.718 465.378C152.718 474.615 199.539 481.931 257.426 481.931Z" fill="#DBE6F8"/>
<path opacity="0.2683" d="M257.426 481.473C313.666 481.473 359.299 474.249 359.299 465.47C359.299 456.691 313.758 449.467 257.426 449.467C201.094 449.467 155.553 456.691 155.553 465.47C155.644 474.249 201.185 481.473 257.426 481.473Z" fill="#D8E3F7"/>
<path opacity="0.2927" d="M257.426 481.016C311.929 481.016 356.281 474.066 356.281 465.47C356.281 456.874 312.112 449.924 257.426 449.924C202.923 449.924 158.571 456.874 158.571 465.47C158.571 474.066 202.923 481.016 257.426 481.016Z" fill="#D4E1F7"/>
<path opacity="0.3171" d="M257.426 480.376C310.283 480.376 353.263 473.609 353.263 465.378C353.263 457.148 310.374 450.381 257.426 450.381C204.477 450.381 161.588 457.148 161.588 465.378C161.771 473.7 204.569 480.376 257.426 480.376Z" fill="#D0DEF6"/>
<path opacity="0.3415" d="M257.426 480.101C308.545 480.101 350.063 473.609 350.063 465.47C350.063 457.422 308.545 450.838 257.426 450.838C206.306 450.838 164.789 457.331 164.789 465.47C164.789 473.426 206.306 480.101 257.426 480.101Z" fill="#CDDCF5"/>
<path opacity="0.3659" d="M257.426 479.644C306.991 479.644 347.045 473.243 347.045 465.47C347.045 457.697 306.899 451.295 257.426 451.295C207.953 451.295 167.807 457.697 167.807 465.47C167.807 473.243 207.953 479.644 257.426 479.644Z" fill="#C9D9F5"/>
<path opacity="0.3902" d="M257.426 479.004C305.345 479.004 344.119 472.969 344.119 465.378C344.119 457.788 305.253 451.753 257.426 451.753C209.599 451.753 170.733 457.788 170.733 465.378C170.733 472.969 209.599 479.004 257.426 479.004Z" fill="#C6D7F4"/>
<path opacity="0.4146" d="M257.426 478.638C303.607 478.638 341.101 472.694 341.101 465.378C341.101 458.063 303.698 452.118 257.426 452.118C211.245 452.118 173.751 458.063 173.751 465.378C173.842 472.694 211.336 478.638 257.426 478.638Z" fill="#C2D4F3"/>
<path opacity="0.439" d="M257.426 478.09C301.961 478.09 337.992 472.42 337.992 465.378C337.992 458.428 301.961 452.667 257.426 452.667C212.891 452.667 176.86 458.337 176.86 465.378C176.86 472.42 212.982 478.09 257.426 478.09Z" fill="#BED2F3"/>
<path opacity="0.4634" d="M257.426 477.632C300.224 477.632 334.974 472.146 334.974 465.47C334.974 458.794 300.224 453.307 257.426 453.307C214.628 453.307 179.878 458.794 179.878 465.47C179.878 472.146 214.72 477.632 257.426 477.632Z" fill="#BBCFF2"/>
<path opacity="0.4878" d="M257.426 477.084C298.578 477.084 332.047 471.871 332.047 465.47C332.047 459.069 298.669 453.856 257.426 453.856C216.274 453.856 182.804 459.069 182.804 465.47C182.804 471.78 216.274 477.084 257.426 477.084Z" fill="#B7CDF1"/>
<path opacity="0.5122" d="M257.426 476.718C296.931 476.718 329.03 471.688 329.03 465.47C329.03 459.252 296.931 454.222 257.426 454.222C217.92 454.222 185.822 459.252 185.822 465.47C186.005 471.597 217.92 476.718 257.426 476.718Z" fill="#B4CAF1"/>
<path opacity="0.5366" d="M257.426 476.261C295.194 476.261 325.92 471.414 325.92 465.47C325.92 459.434 295.194 454.679 257.426 454.679C219.658 454.679 188.931 459.526 188.931 465.47C189.023 471.505 219.658 476.261 257.426 476.261Z" fill="#B0C8F0"/>
<path opacity="0.561" d="M257.426 475.621C293.548 475.621 322.903 470.957 322.903 465.287C322.903 459.617 293.639 454.953 257.426 454.953C221.213 454.953 191.949 459.617 191.949 465.287C192.041 471.14 221.304 475.621 257.426 475.621Z" fill="#ADC5EF"/>
<path opacity="0.5854" d="M320.068 465.378C320.068 470.865 292.176 475.255 257.609 475.255C223.042 475.255 195.15 470.865 195.15 465.378C195.15 459.891 223.042 455.502 257.609 455.502C292.176 455.502 320.068 459.983 320.068 465.378Z" fill="#A9C3EF"/>
<path opacity="0.6098" d="M257.426 474.706C290.347 474.706 316.959 470.5 316.959 465.378C316.959 460.257 290.347 456.051 257.426 456.051C224.505 456.051 197.893 460.257 197.893 465.378C197.985 470.5 224.688 474.706 257.426 474.706Z" fill="#A5C0EE"/>
<path opacity="0.6341" d="M257.426 474.34C288.61 474.34 313.849 470.408 313.849 465.378C313.849 460.349 288.61 456.417 257.426 456.417C226.242 456.417 201.003 460.349 201.003 465.378C201.003 470.408 226.334 474.34 257.426 474.34Z" fill="#A2BEED"/>
<path opacity="0.6585" d="M310.923 465.379C310.923 469.951 286.964 473.792 257.517 473.792C228.071 473.792 204.112 470.042 204.112 465.379C204.112 460.806 228.071 456.965 257.517 456.965C287.147 457.057 310.923 460.898 310.923 465.379Z" fill="#9EBBED"/>
<path opacity="0.6829" d="M257.426 473.334C285.226 473.334 307.814 469.768 307.814 465.47C307.814 461.08 285.226 457.605 257.426 457.605C229.626 457.605 207.038 461.172 207.038 465.47C207.221 469.859 229.717 473.334 257.426 473.334Z" fill="#9BB9EC"/>
<path opacity="0.7073" d="M257.426 472.969C283.489 472.969 304.613 469.585 304.613 465.379C304.613 461.172 283.489 457.788 257.426 457.788C231.363 457.788 210.239 461.172 210.239 465.379C210.239 469.585 231.455 472.969 257.426 472.969Z" fill="#97B6EB"/>
<path opacity="0.7317" d="M301.87 465.379C301.87 469.219 282.025 472.329 257.609 472.329C233.192 472.329 213.348 469.311 213.348 465.379C213.348 461.446 233.192 458.428 257.609 458.428C282.025 458.428 301.87 461.538 301.87 465.379Z" fill="#93B4EB"/>
<path opacity="0.7561" d="M257.426 471.963C280.196 471.963 298.669 469.036 298.669 465.47C298.669 461.903 280.196 458.977 257.426 458.977C234.655 458.977 216.183 461.903 216.183 465.47C216.183 469.036 234.655 471.963 257.426 471.963Z" fill="#90B1EA"/>
<path opacity="0.7805" d="M257.426 471.323C278.55 471.323 295.651 468.671 295.651 465.378C295.651 462.086 278.55 459.434 257.426 459.434C236.301 459.434 219.201 462.086 219.201 465.378C219.292 468.671 236.393 471.323 257.426 471.323Z" fill="#8CAFE9"/>
<path opacity="0.8049" d="M292.816 465.378C292.816 468.396 277.087 470.957 257.7 470.957C238.313 470.957 222.584 468.396 222.584 465.378C222.584 462.361 238.313 459.8 257.7 459.8C277.087 459.8 292.816 462.361 292.816 465.378Z" fill="#89ACE8"/>
<path opacity="0.8293" d="M257.426 470.408C275.258 470.408 289.616 468.213 289.616 465.379C289.616 462.544 275.167 460.349 257.426 460.349C239.594 460.349 225.236 462.544 225.236 465.379C225.236 468.213 239.685 470.408 257.426 470.408Z" fill="#85AAE8"/>
<path opacity="0.8537" d="M257.426 469.951C273.612 469.951 286.598 467.847 286.598 465.378C286.598 462.818 273.612 460.806 257.426 460.806C241.24 460.806 228.254 462.909 228.254 465.378C228.254 467.939 241.423 469.951 257.426 469.951Z" fill="#82A7E7"/>
<path opacity="0.878" d="M283.763 465.378C283.763 467.573 272.149 469.585 257.609 469.585C243.16 469.585 231.455 467.756 231.455 465.378C231.455 463.184 243.069 461.172 257.609 461.172C272.149 461.263 283.763 463.184 283.763 465.378Z" fill="#7EA5E6"/>
<path opacity="0.9024" d="M257.426 469.036C270.229 469.036 280.471 467.39 280.471 465.47C280.471 463.458 270.137 461.903 257.426 461.903C244.623 461.903 234.381 463.549 234.381 465.47C234.472 467.39 244.806 469.036 257.426 469.036Z" fill="#7AA2E6"/>
<path opacity="0.9268" d="M257.426 468.579C268.491 468.579 277.453 467.207 277.453 465.287C277.453 463.549 268.491 461.995 257.426 461.995C246.361 461.995 237.399 463.367 237.399 465.287C237.399 467.207 246.452 468.579 257.426 468.579Z" fill="#77A0E5"/>
<path opacity="0.9512" d="M274.527 465.378C274.527 466.933 266.845 468.03 257.426 468.03C248.007 468.03 240.325 466.75 240.325 465.378C240.325 463.824 248.007 462.726 257.426 462.726C266.845 462.726 274.527 463.915 274.527 465.378Z" fill="#739DE4"/>
<path opacity="0.9756" d="M257.426 467.665C265.199 467.665 271.509 466.659 271.509 465.47C271.509 464.19 265.199 463.275 257.426 463.275C249.653 463.275 243.343 464.281 243.343 465.47C243.434 466.659 249.836 467.665 257.426 467.665Z" fill="#709BE4"/>
<path opacity="0.5" d="M257.426 467.025C263.461 467.025 268.4 466.293 268.4 465.378C268.4 464.464 263.553 463.732 257.426 463.732C251.39 463.732 246.452 464.464 246.452 465.378C246.452 466.293 251.39 467.025 257.426 467.025Z" fill="#6C98E3"/>
</g>
<path d="M201.551 245.355H97.4835C96.1118 245.355 95.0144 244.166 95.0144 242.886V180.793C95.0144 179.421 96.2032 178.323 97.4835 178.323H201.551C202.923 178.323 204.02 179.512 204.02 180.793V242.886C204.02 244.257 203.014 245.355 201.551 245.355Z" fill="#B3CDFA"/>
<path d="M201.917 189.114H95.0144V180.335C95.0144 179.238 96.2032 178.232 97.4835 178.232H199.448C200.82 178.232 201.917 179.238 201.917 180.335V189.114Z" fill="url(#paint7_linear)"/>
<path d="M199.448 242.886H97.4835C96.1118 242.886 95.0144 241.697 95.0144 240.325V189.206H202.008V240.325C201.917 241.788 200.82 242.886 199.448 242.886Z" fill="white"/>
<path d="M130.862 215.36H116.139C116.505 223.316 122.906 229.717 130.862 230.083V215.36Z" fill="#6C98E3"/>
<path d="M132.142 214.994V230.174C140.372 229.808 146.865 222.95 146.865 214.72C146.865 210.696 145.311 207.038 142.842 204.294L132.142 214.994Z" fill="#26C6DA"/>
<path d="M131.228 213.988L141.927 203.289C139.184 200.82 135.526 199.265 131.502 199.265C123.272 199.265 116.413 205.849 116.047 213.988H131.228Z" fill="#2A5AB0"/>
<path d="M194.052 210.787H154.181V213.897H194.052V210.787Z" fill="#C2D7FB"/>
<path d="M194.052 219.749H154.181V222.858H194.052V219.749Z" fill="#C2D7FB"/>
<path d="M174.025 228.711H154.09V231.82H174.025V228.711Z" fill="#C2D7FB"/>
<path d="M108.914 210.788H102.604V213.897H108.914V210.788Z" fill="#C2D7FB"/>
<path d="M108.914 201.734H102.604V204.843H108.914V201.734Z" fill="#C2D7FB"/>
<path d="M108.914 219.749H102.604V222.858H108.914V219.749Z" fill="#C2D7FB"/>
<path d="M108.914 228.711H102.604V231.82H108.914V228.711Z" fill="#C2D7FB"/>
<path fill-rule="evenodd" clip-rule="evenodd" d="M164.24 198.259L168.081 205.026H164.881V203.837H166.069L164.24 200.728L162.503 203.837H163.692V205.026H160.4L164.24 198.259Z" fill="#26C6DA"/>
<path fill-rule="evenodd" clip-rule="evenodd" d="M179.604 201.277V205.026H178.141V198.259L181.341 200.82L184.359 198.259V205.026H182.896V201.277L181.341 202.649L179.604 201.277Z" fill="#1E2437"/>
<path fill-rule="evenodd" clip-rule="evenodd" d="M171.282 201.917L168.63 199.356L169.636 198.259L172.014 200.728L174.3 198.259L175.397 199.356L172.654 202.008V205.026H171.282V201.917Z" fill="#1E2437"/>
<path fill-rule="evenodd" clip-rule="evenodd" d="M155.553 199.722V200.911H157.473C157.656 200.911 157.748 200.82 157.839 200.728C157.931 200.637 158.022 200.454 158.022 200.362C158.022 200.179 157.931 200.088 157.839 199.997C157.748 199.905 157.565 199.814 157.473 199.814H155.553V199.722ZM154.09 198.259H157.473C158.022 198.259 158.571 198.442 158.937 198.808C159.302 199.174 159.485 199.631 159.485 200.271C159.485 200.911 159.302 201.368 158.937 201.734C158.571 202.1 158.114 202.283 157.473 202.283H155.553V204.843H154.09V198.259Z" fill="#1E2437"/>
<path fill-rule="evenodd" clip-rule="evenodd" d="M192.498 203.471C192.498 203.289 192.589 203.106 192.589 202.923C192.589 201.825 191.858 200.911 190.852 200.637L191.949 198.625C193.047 198.991 193.778 199.996 193.961 201.002C193.961 201.277 193.961 201.551 193.961 201.734C193.778 202.648 193.23 203.197 192.498 203.471Z" fill="#1E2437"/>
<path fill-rule="evenodd" clip-rule="evenodd" d="M190.578 203.472L189.846 204.843C189.937 204.843 189.937 204.843 190.029 204.843C190.212 204.843 190.395 204.935 190.669 204.935C192.498 204.935 194.053 203.38 194.053 201.551C194.053 201.277 194.053 201.094 193.961 200.82C193.961 201.094 193.961 201.368 193.961 201.551C193.595 203.014 192.132 203.746 190.578 203.472Z" fill="#8C97AE"/>
<path fill-rule="evenodd" clip-rule="evenodd" d="M190.598 202.649C190.141 203.472 189.866 204.02 189.409 204.66C189.135 204.569 188.952 204.478 188.769 204.386C188.586 204.203 188.312 204.112 188.129 203.929C187.854 203.655 187.671 203.38 187.489 203.106C187.397 202.832 187.306 202.374 187.397 201.917V201.826C187.58 201.185 188.037 200.637 188.677 200.271C188.677 200.362 188.677 200.454 188.677 200.545C188.677 201.46 189.5 202.466 190.598 202.649Z" fill="#3DF4F9"/>
<path fill-rule="evenodd" clip-rule="evenodd" d="M191.512 198.351L190.781 199.722C189.226 199.539 187.854 200.271 187.489 201.551C187.397 201.917 187.489 202.649 187.58 202.923C187.397 202.557 187.306 202.1 187.306 201.643C187.306 201.094 187.489 200.545 187.671 199.997C188.312 198.808 189.958 198.076 191.512 198.351Z" fill="#26C6DA"/>
<path d="M411.333 233.101H320.525C319.245 233.101 318.147 232.095 318.147 230.723V124.369C318.147 123.089 319.153 121.991 320.525 121.991H411.333C412.613 121.991 413.711 122.997 413.711 124.369V230.814C413.711 232.095 412.705 233.101 411.333 233.101Z" fill="#B3CDFA"/>
<path d="M408.498 230.083H320.617C319.336 230.083 318.239 229.077 318.239 227.705V124.369C318.239 123.089 319.245 121.991 320.617 121.991H408.498C409.778 121.991 410.876 122.997 410.876 124.369V227.797C410.784 229.077 409.778 230.083 408.498 230.083Z" fill="white"/>
<path d="M370.181 152.535V154.455H374.296C374.937 154.455 375.394 154.913 375.485 155.553C375.394 158.571 370.364 161.223 370.181 161.405V163.051C370.181 163.6 369.724 164.149 369.084 164.149H359.939C359.391 164.149 358.842 163.692 358.842 163.051V161.405C358.567 161.314 353.629 158.662 353.538 155.553C353.629 154.913 354.087 154.455 354.727 154.455H358.842V152.535C358.567 152.352 353.629 149.792 353.538 146.682C353.629 146.042 354.087 145.585 354.727 145.585H358.842V143.665C358.567 143.573 353.629 140.921 353.538 137.812C353.629 137.172 354.087 136.714 354.727 136.714H358.842V135.16C358.842 134.611 359.299 134.062 359.939 134.062H369.084C369.633 134.062 370.181 134.52 370.181 135.16V136.714H374.296C374.937 136.714 375.394 137.172 375.485 137.812C375.394 140.83 370.364 143.482 370.181 143.665V145.585H374.296C374.937 145.585 375.394 146.042 375.485 146.682C375.302 149.792 370.364 152.444 370.181 152.535ZM367.529 140.281C367.529 138.635 366.158 137.263 364.512 137.263C362.866 137.263 361.494 138.635 361.494 140.281C361.494 141.927 362.866 143.299 364.512 143.299C366.158 143.299 367.529 141.927 367.529 140.281ZM367.529 149.151C367.529 147.505 366.158 146.134 364.512 146.134C362.866 146.134 361.494 147.505 361.494 149.151C361.494 150.797 362.866 152.169 364.512 152.169C366.158 152.169 367.529 150.797 367.529 149.151ZM367.529 158.022C367.529 156.376 366.158 155.004 364.512 155.004C362.866 155.004 361.494 156.376 361.494 158.022C361.494 159.668 362.866 161.04 364.512 161.04C366.158 161.04 367.529 159.668 367.529 158.022Z" fill="url(#paint8_linear)"/>
<path d="M376.949 219.658H352.075C349.697 219.658 347.777 217.737 347.777 215.36V212.159C347.777 209.781 349.697 207.861 352.075 207.861H376.949C379.326 207.861 381.247 209.781 381.247 212.159V215.268C381.338 217.737 379.326 219.658 376.949 219.658Z" fill="#26C6DA"/>
<path d="M357.287 212.434C357.562 212.434 357.744 212.434 357.836 212.525C358.019 212.525 358.11 212.616 358.202 212.708C358.293 212.799 358.385 212.891 358.476 212.982C358.567 213.074 358.567 213.257 358.567 213.348C358.567 213.44 358.567 213.531 358.567 213.622C358.567 213.714 358.476 213.805 358.476 213.805C358.385 213.897 358.385 213.897 358.293 213.988C358.202 214.08 358.11 214.08 358.019 214.08C358.476 214.171 358.75 214.445 358.75 214.903C358.75 215.086 358.75 215.177 358.659 215.36C358.567 215.451 358.476 215.634 358.385 215.726C358.293 215.817 358.11 215.909 358.019 215.909C357.836 216 357.653 216 357.47 216H356.098V212.434H357.287ZM356.739 212.891V213.897H357.287C357.47 213.897 357.653 213.897 357.836 213.805C357.927 213.714 358.019 213.622 358.019 213.44C358.019 213.257 357.927 213.165 357.836 213.074C357.744 212.982 357.562 212.982 357.379 212.982H356.739V212.891ZM357.379 215.451C357.47 215.451 357.562 215.451 357.653 215.451C357.744 215.451 357.836 215.36 357.836 215.36C357.927 215.268 357.927 215.268 357.927 215.177C357.927 215.086 357.927 215.086 357.927 214.994C357.927 214.903 357.927 214.811 357.927 214.811C357.927 214.72 357.836 214.72 357.836 214.628C357.744 214.628 357.744 214.537 357.653 214.537C357.562 214.537 357.47 214.537 357.379 214.537H356.739V215.543H357.379V215.451Z" fill="white"/>
<path d="M362.683 214.171C362.683 214.445 362.683 214.628 362.591 214.903C362.5 215.086 362.408 215.36 362.225 215.451C362.043 215.634 361.86 215.726 361.677 215.817C361.494 215.909 361.22 215.909 360.945 215.909C360.671 215.909 360.396 215.909 360.214 215.817C360.031 215.726 359.848 215.634 359.665 215.451C359.482 215.268 359.391 215.086 359.299 214.903C359.208 214.72 359.208 214.445 359.208 214.171C359.208 213.897 359.208 213.714 359.299 213.44C359.391 213.257 359.482 212.982 359.665 212.891C359.848 212.708 360.031 212.616 360.214 212.525C360.396 212.434 360.671 212.434 360.945 212.434C361.128 212.434 361.311 212.434 361.494 212.525C361.677 212.525 361.768 212.616 361.951 212.708C362.043 212.799 362.225 212.891 362.317 212.982C362.408 213.074 362.5 213.257 362.591 213.348C362.683 213.44 362.683 213.622 362.774 213.805C362.683 213.805 362.683 213.988 362.683 214.171ZM361.951 214.171C361.951 213.988 361.951 213.805 361.86 213.622C361.768 213.44 361.768 213.348 361.677 213.257C361.585 213.165 361.494 213.074 361.311 212.982C361.128 212.891 361.037 212.891 360.854 212.891C360.671 212.891 360.488 212.891 360.396 212.982C360.214 213.074 360.122 213.165 360.031 213.257C359.939 213.348 359.848 213.531 359.848 213.622C359.756 213.805 359.756 213.988 359.756 214.171C359.756 214.354 359.756 214.537 359.848 214.72C359.939 214.903 359.939 214.994 360.031 215.086C360.122 215.177 360.214 215.268 360.396 215.36C360.579 215.451 360.671 215.451 360.854 215.451C361.037 215.451 361.22 215.451 361.311 215.36C361.402 215.268 361.585 215.177 361.677 215.086C361.768 214.994 361.86 214.811 361.86 214.72C361.951 214.537 361.951 214.354 361.951 214.171Z" fill="white"/>
<path d="M366.249 212.434V216H365.609V213.805C365.609 213.714 365.609 213.622 365.609 213.531C365.609 213.439 365.609 213.348 365.609 213.257C365.609 213.348 365.518 213.439 365.518 213.531C365.518 213.622 365.426 213.714 365.426 213.714L364.054 215.817C364.054 215.817 364.054 215.909 363.963 215.909C363.963 215.909 363.963 216 363.871 216C363.78 216 363.78 216 363.78 216.091H363.689H363.231V212.525H363.871V214.72C363.871 214.811 363.871 214.903 363.871 214.994C363.871 215.086 363.871 215.177 363.871 215.268C363.871 215.177 363.963 215.086 363.963 214.994C363.963 214.903 364.054 214.811 364.054 214.811L365.426 212.708C365.426 212.708 365.426 212.616 365.518 212.616C365.518 212.616 365.517 212.525 365.609 212.525C365.609 212.525 365.7 212.525 365.7 212.434H365.792H366.249ZM364.786 211.885C364.877 211.885 364.877 211.885 364.969 211.885C364.969 211.885 365.06 211.885 365.06 211.793C365.06 211.793 365.06 211.702 365.152 211.702C365.152 211.61 365.152 211.61 365.152 211.519H365.518C365.518 211.519 365.609 211.519 365.609 211.61V211.702C365.609 211.793 365.609 211.885 365.518 211.885C365.518 211.976 365.426 211.976 365.335 212.068C365.243 212.068 365.152 212.159 365.06 212.159C364.969 212.159 364.877 212.159 364.694 212.159C364.512 212.159 364.42 212.159 364.329 212.159C364.237 212.159 364.146 212.068 364.054 212.068C363.963 212.068 363.963 211.976 363.871 211.885C363.871 211.793 363.78 211.793 363.78 211.702V211.61L363.871 211.519H364.237C364.237 211.61 364.237 211.702 364.237 211.702C364.237 211.793 364.237 211.793 364.329 211.793L364.42 211.885C364.694 211.885 364.694 211.885 364.786 211.885Z" fill="white"/>
<path d="M369.45 212.982H368.352V216H367.712V212.982H366.706V212.434H369.45V212.982Z" fill="white"/>
<path d="M372.925 212.434V216H372.285V213.805C372.285 213.714 372.285 213.622 372.285 213.531C372.285 213.44 372.285 213.348 372.285 213.257C372.285 213.348 372.193 213.44 372.193 213.531C372.193 213.622 372.102 213.714 372.102 213.714L370.73 215.817C370.73 215.817 370.73 215.909 370.639 215.909C370.639 215.909 370.639 216 370.547 216C370.547 216 370.456 216 370.456 216.092H370.364H369.907V212.525H370.547V214.72C370.547 214.811 370.547 214.903 370.547 214.994C370.547 215.086 370.547 215.177 370.547 215.268C370.547 215.177 370.639 215.086 370.639 214.994C370.639 214.903 370.73 214.811 370.73 214.811L372.102 212.708C372.102 212.708 372.102 212.616 372.193 212.616C372.193 212.616 372.193 212.525 372.285 212.525C372.285 212.525 372.376 212.525 372.376 212.434H372.468H372.925Z" fill="white"/>
<path d="M392.952 172.836H340.461C337.992 172.836 336.071 175.214 336.071 178.14C336.071 181.067 338.083 183.444 340.461 183.444H392.952C395.421 183.444 397.341 181.067 397.341 178.14C397.433 175.214 395.421 172.836 392.952 172.836Z" fill="url(#paint9_linear)"/>
<path d="M342.93 179.238C343.485 179.238 343.936 178.746 343.936 178.14C343.936 177.534 343.485 177.043 342.93 177.043C342.374 177.043 341.924 177.534 341.924 178.14C341.924 178.746 342.374 179.238 342.93 179.238Z" fill="#1E2437"/>
<path d="M346.496 179.238C347.052 179.238 347.502 178.746 347.502 178.14C347.502 177.534 347.052 177.043 346.496 177.043C345.941 177.043 345.49 177.534 345.49 178.14C345.49 178.746 345.941 179.238 346.496 179.238Z" fill="#1E2437"/>
<path d="M350.154 179.238C350.71 179.238 351.16 178.746 351.16 178.14C351.16 177.534 350.71 177.043 350.154 177.043C349.599 177.043 349.148 177.534 349.148 178.14C349.148 178.746 349.599 179.238 350.154 179.238Z" fill="#1E2437"/>
<path d="M353.721 179.238C354.276 179.238 354.727 178.746 354.727 178.14C354.727 177.534 354.276 177.043 353.721 177.043C353.165 177.043 352.715 177.534 352.715 178.14C352.715 178.746 353.165 179.238 353.721 179.238Z" fill="#1E2437"/>
<path d="M357.379 179.238C357.934 179.238 358.385 178.746 358.385 178.14C358.385 177.534 357.934 177.043 357.379 177.043C356.823 177.043 356.373 177.534 356.373 178.14C356.373 178.746 356.823 179.238 357.379 179.238Z" fill="#1E2437"/>
<path d="M360.945 179.238C361.501 179.238 361.951 178.746 361.951 178.14C361.951 177.534 361.501 177.043 360.945 177.043C360.39 177.043 359.939 177.534 359.939 178.14C359.939 178.746 360.39 179.238 360.945 179.238Z" fill="#1E2437"/>
<path d="M364.603 179.238C365.159 179.238 365.609 178.746 365.609 178.14C365.609 177.534 365.159 177.043 364.603 177.043C364.048 177.043 363.597 177.534 363.597 178.14C363.597 178.746 364.048 179.238 364.603 179.238Z" fill="#1E2437"/>
<path d="M392.952 190.852H340.461C337.992 190.852 336.071 193.229 336.071 196.156C336.071 199.082 338.083 201.46 340.461 201.46H392.952C395.421 201.46 397.341 199.082 397.341 196.156C397.433 193.138 395.421 190.852 392.952 190.852Z" fill="url(#paint10_linear)"/>
<path d="M342.93 197.162C343.485 197.162 343.936 196.67 343.936 196.064C343.936 195.458 343.485 194.967 342.93 194.967C342.374 194.967 341.924 195.458 341.924 196.064C341.924 196.67 342.374 197.162 342.93 197.162Z" fill="#1E2437"/>
<path d="M346.496 197.162C347.052 197.162 347.502 196.67 347.502 196.064C347.502 195.458 347.052 194.967 346.496 194.967C345.941 194.967 345.49 195.458 345.49 196.064C345.49 196.67 345.941 197.162 346.496 197.162Z" fill="#1E2437"/>
<path d="M350.154 197.162C350.71 197.162 351.16 196.67 351.16 196.064C351.16 195.458 350.71 194.967 350.154 194.967C349.599 194.967 349.148 195.458 349.148 196.064C349.148 196.67 349.599 197.162 350.154 197.162Z" fill="#1E2437"/>
<path d="M353.721 197.162C354.276 197.162 354.727 196.67 354.727 196.064C354.727 195.458 354.276 194.967 353.721 194.967C353.165 194.967 352.715 195.458 352.715 196.064C352.715 196.67 353.165 197.162 353.721 197.162Z" fill="#1E2437"/>
<path d="M357.379 197.162C357.934 197.162 358.385 196.67 358.385 196.064C358.385 195.458 357.934 194.967 357.379 194.967C356.823 194.967 356.373 195.458 356.373 196.064C356.373 196.67 356.823 197.162 357.379 197.162Z" fill="#1E2437"/>
<path d="M360.945 197.162C361.501 197.162 361.951 196.67 361.951 196.064C361.951 195.458 361.501 194.967 360.945 194.967C360.39 194.967 359.939 195.458 359.939 196.064C359.939 196.67 360.39 197.162 360.945 197.162Z" fill="#1E2437"/>
<path d="M364.603 197.162C365.159 197.162 365.609 196.67 365.609 196.064C365.609 195.458 365.159 194.967 364.603 194.967C364.048 194.967 363.597 195.458 363.597 196.064C363.597 196.67 364.048 197.162 364.603 197.162Z" fill="#1E2437"/>
<defs>
<linearGradient id="paint0_linear" x1="19.0439" y1="372.147" x2="498.817" y2="169.682" gradientUnits="userSpaceOnUse">
<stop stop-color="#E3EDFE"/>
<stop offset="0.0467179" stop-color="#E5EEFE"/>
<stop offset="0.5107" stop-color="#F0F5FE"/>
<stop offset="1" stop-color="#F4F8FF"/>
</linearGradient>
<linearGradient id="paint1_linear" x1="153.218" y1="313.456" x2="178.457" y2="313.456" gradientUnits="userSpaceOnUse">
<stop stop-color="#6092E9"/>
<stop offset="0.442" stop-color="#3C6EC6"/>
<stop offset="1" stop-color="#2D60BC"/>
</linearGradient>
<linearGradient id="paint2_linear" x1="153.218" y1="307.294" x2="178.457" y2="307.294" gradientUnits="userSpaceOnUse">
<stop stop-color="#6092E9"/>
<stop offset="0.442" stop-color="#3C6EC6"/>
<stop offset="1" stop-color="#2D60BC"/>
</linearGradient>
<linearGradient id="paint3_linear" x1="153.352" y1="319.734" x2="169.513" y2="319.734" gradientUnits="userSpaceOnUse">
<stop stop-color="#6092E9"/>
<stop offset="0.442" stop-color="#3C6EC6"/>
<stop offset="1" stop-color="#2D60BC"/>
</linearGradient>
<linearGradient id="paint4_linear" x1="151.321" y1="354.556" x2="384.549" y2="354.556" gradientUnits="userSpaceOnUse">
<stop stop-color="#6092E9"/>
<stop offset="0.442" stop-color="#3C6EC6"/>
<stop offset="1" stop-color="#2D60BC"/>
</linearGradient>
<linearGradient id="paint5_linear" x1="151.437" y1="363.334" x2="384.666" y2="363.334" gradientUnits="userSpaceOnUse">
<stop stop-color="#6092E9"/>
<stop offset="0.442" stop-color="#3C6EC6"/>
<stop offset="1" stop-color="#2D60BC"/>
</linearGradient>
<linearGradient id="paint6_linear" x1="138.846" y1="124.062" x2="224.741" y2="124.062" gradientUnits="userSpaceOnUse">
<stop stop-color="#6092E9"/>
<stop offset="0.442" stop-color="#3C6EC6"/>
<stop offset="1" stop-color="#2D60BC"/>
</linearGradient>
<linearGradient id="paint7_linear" x1="95.0309" y1="183.709" x2="202.014" y2="183.709" gradientUnits="userSpaceOnUse">
<stop stop-color="#6092E9"/>
<stop offset="0.442" stop-color="#3C6EC6"/>
<stop offset="1" stop-color="#2D60BC"/>
</linearGradient>
<linearGradient id="paint8_linear" x1="353.536" y1="149.119" x2="375.465" y2="149.119" gradientUnits="userSpaceOnUse">
<stop stop-color="#6092E9"/>
<stop offset="0.442" stop-color="#3C6EC6"/>
<stop offset="1" stop-color="#2D60BC"/>
</linearGradient>
<linearGradient id="paint9_linear" x1="336.09" y1="178.097" x2="397.395" y2="178.097" gradientUnits="userSpaceOnUse">
<stop stop-color="#E3EDFE"/>
<stop offset="0.0467179" stop-color="#E5EEFE"/>
<stop offset="0.5107" stop-color="#F0F5FE"/>
<stop offset="1" stop-color="#F4F8FF"/>
</linearGradient>
<linearGradient id="paint10_linear" x1="336.09" y1="196.086" x2="397.395" y2="196.086" gradientUnits="userSpaceOnUse">
<stop stop-color="#E3EDFE"/>
<stop offset="0.0467179" stop-color="#E5EEFE"/>
<stop offset="0.5107" stop-color="#F0F5FE"/>
<stop offset="1" stop-color="#F4F8FF"/>
</linearGradient>
</defs>
</svg>
