<svg xmlns="http://www.w3.org/2000/svg" width="597" height="450" fill="none" viewBox="0 0 597 450">
    <g opacity=".5">
        <path fill="#FBFCFE" d="M485 412.632c43.238 0 78.289-5.538 78.289-12.369 0-6.831-35.051-12.368-78.289-12.368s-78.29 5.537-78.29 12.368 35.052 12.369 78.29 12.369z" opacity=".024"/>
        <path fill="#F8FAFE" d="M485 412.237c42.221 0 76.447-5.361 76.447-11.974S527.221 388.289 485 388.289c-42.221 0-76.447 5.361-76.447 11.974s34.226 11.974 76.447 11.974z" opacity=".049"/>
        <path fill="#F4F7FD" d="M559.605 400.263c0 6.448-33.421 11.711-74.605 11.711-41.184 0-74.605-5.263-74.605-11.711 0-6.447 33.421-11.71 74.605-11.71 41.184 0 74.605 5.131 74.605 11.71z" opacity=".073"/>
        <path fill="#F1F5FC" d="M485 411.711c40.259 0 72.895-5.126 72.895-11.448S525.259 388.816 485 388.816c-40.259 0-72.895 5.125-72.895 11.447 0 6.322 32.636 11.448 72.895 11.448z" opacity=".098"/>
        <path fill="#EDF2FC" d="M485 411.447c39.241 0 71.053-5.007 71.053-11.184S524.241 389.079 485 389.079s-71.053 5.007-71.053 11.184 31.812 11.184 71.053 11.184z" opacity=".122"/>
        <path fill="#E9F0FB" d="M554.211 400.263c0 6.053-31.053 10.921-69.211 10.921-38.29 0-69.211-4.868-69.211-10.921 0-6.052 31.053-10.921 69.211-10.921s69.211 4.869 69.211 10.921z" opacity=".146"/>
        <path fill="#E6EDFA" d="M485 410.921c37.279 0 67.5-4.772 67.5-10.658 0-5.886-30.221-10.658-67.5-10.658-37.279 0-67.5 4.772-67.5 10.658 0 5.886 30.221 10.658 67.5 10.658z" opacity=".171"/>
        <path fill="#E2EBFA" d="M485 410.658c36.262 0 65.658-4.654 65.658-10.395S521.262 389.868 485 389.868s-65.658 4.654-65.658 10.395 29.396 10.395 65.658 10.395z" opacity=".195"/>
        <path fill="#DFE8F9" d="M485 410.263c35.317 0 63.947-4.477 63.947-10s-28.63-10-63.947-10c-35.317 0-63.947 4.477-63.947 10s28.63 10 63.947 10z" opacity=".22"/>
        <path fill="#DBE6F8" d="M485 410c34.3 0 62.105-4.359 62.105-9.737 0-5.377-27.805-9.737-62.105-9.737s-62.105 4.36-62.105 9.737c0 5.378 27.805 9.737 62.105 9.737z" opacity=".244"/>
        <path fill="#D8E3F7" d="M485 409.737c33.282 0 60.263-4.242 60.263-9.474s-26.981-9.474-60.263-9.474-60.263 4.242-60.263 9.474 26.981 9.474 60.263 9.474z" opacity=".268"/>
        <path fill="#D4E1F7" d="M543.421 400.263c0 5.132-26.184 9.211-58.553 9.211-32.368 0-58.552-4.079-58.552-9.211 0-5.131 26.184-9.21 58.552-9.21 32.369 0 58.553 4.079 58.553 9.21z" opacity=".293"/>
        <path fill="#D0DEF6" d="M541.71 400.263c0 4.869-25.394 8.948-56.71 8.948-31.316 0-56.711-3.948-56.711-8.948 0-4.868 25.395-8.947 56.711-8.947s56.71 3.947 56.71 8.947z" opacity=".317"/>
        <path fill="#CDDCF5" d="M539.868 400.263c0 4.737-24.605 8.684-54.868 8.684-30.395 0-54.869-3.815-54.869-8.684 0-4.737 24.606-8.684 54.869-8.684 30.263 0 54.868 3.816 54.868 8.684z" opacity=".342"/>
        <path fill="#C9D9F5" d="M538.026 400.263c0 4.605-23.816 8.421-53.158 8.421-29.342 0-53.158-3.684-53.158-8.421 0-4.605 23.816-8.421 53.158-8.421 29.342 0 53.158 3.684 53.158 8.421z" opacity=".366"/>
        <path fill="#C6D7F4" d="M485 408.289c28.341 0 51.316-3.593 51.316-8.026s-22.975-8.026-51.316-8.026-51.316 3.593-51.316 8.026 22.975 8.026 51.316 8.026z" opacity=".39"/>
        <path fill="#C2D4F3" d="M534.474 400.263c0 4.342-22.237 7.763-49.606 7.763-27.368 0-49.605-3.552-49.605-7.763 0-4.342 22.237-7.763 49.605-7.763 27.369 0 49.606 3.421 49.606 7.763z" opacity=".415"/>
        <path fill="#BED2F3" d="M532.763 400.263c0 4.211-21.316 7.5-47.763 7.5s-47.763-3.421-47.763-7.5c0-4.21 21.316-7.5 47.763-7.5s47.763 3.29 47.763 7.5z" opacity=".439"/>
        <path fill="#BBCFF2" d="M530.921 400.263c0 3.948-20.526 7.237-45.921 7.237s-45.921-3.289-45.921-7.237c0-3.947 20.526-7.237 45.921-7.237s45.921 3.158 45.921 7.237z" opacity=".463"/>
        <path fill="#B7CDF1" d="M485 407.237c24.417 0 44.211-3.122 44.211-6.974 0-3.851-19.794-6.974-44.211-6.974-24.417 0-44.211 3.123-44.211 6.974 0 3.852 19.794 6.974 44.211 6.974z" opacity=".488"/>
        <path fill="#B4CAF1" d="M527.368 400.263c0 3.684-18.947 6.711-42.368 6.711-23.421 0-42.369-3.027-42.369-6.711s18.948-6.71 42.369-6.71c23.289 0 42.368 3.026 42.368 6.71z" opacity=".512"/>
        <path fill="#B0C8F0" d="M525.526 400.263c0 3.553-18.158 6.448-40.526 6.448-22.369 0-40.526-2.895-40.526-6.448 0-3.552 18.157-6.447 40.526-6.447 22.368 0 40.526 2.895 40.526 6.447z" opacity=".537"/>
        <path fill="#ADC5EF" d="M523.684 400.263c0 3.421-17.368 6.053-38.816 6.053-21.447 0-38.815-2.763-38.815-6.053 0-3.421 17.368-6.052 38.815-6.052 21.448-.132 38.816 2.631 38.816 6.052z" opacity=".561"/>
        <path fill="#A9C3EF" d="M521.974 400.263c0 3.158-16.579 5.79-36.974 5.79-20.395 0-36.974-2.632-36.974-5.79s16.579-5.789 36.974-5.789c20.395 0 36.974 2.5 36.974 5.789z" opacity=".585"/>
        <path fill="#A5C0EE" d="M485 405.789c19.475 0 35.263-2.474 35.263-5.526 0-3.052-15.788-5.526-35.263-5.526-19.475 0-35.263 2.474-35.263 5.526 0 3.052 15.788 5.526 35.263 5.526z" opacity=".61"/>
        <path fill="#A2BEED" d="M518.421 400.263c0 2.895-15 5.263-33.421 5.263s-33.421-2.368-33.421-5.263S466.579 395 485 395s33.421 2.237 33.421 5.263z" opacity=".634"/>
        <path fill="#9EBBED" d="M516.579 400.263c0 2.763-14.211 5-31.579 5-17.5 0-31.579-2.237-31.579-5s14.211-5 31.579-5c17.368 0 31.579 2.237 31.579 5z" opacity=".658"/>
        <path fill="#9BB9EC" d="M514.737 400.263c0 2.632-13.29 4.737-29.869 4.737S455 402.895 455 400.263c0-2.631 13.289-4.737 29.868-4.737s29.869 2.106 29.869 4.737z" opacity=".683"/>
        <path fill="#97B6EB" d="M485 404.737c15.478 0 28.026-2.003 28.026-4.474s-12.548-4.474-28.026-4.474c-15.479 0-28.026 2.003-28.026 4.474s12.547 4.474 28.026 4.474z" opacity=".707"/>
        <path fill="#93B4EB" d="M511.184 400.263c0 2.237-11.71 4.079-26.184 4.079s-26.184-1.842-26.184-4.079c0-2.237 11.71-4.079 26.184-4.079s26.184 1.711 26.184 4.079z" opacity=".732"/>
        <path fill="#90B1EA" d="M509.342 400.263c0 2.105-10.921 3.816-24.474 3.816-13.552 0-24.473-1.711-24.473-3.816 0-2.105 10.921-3.816 24.473-3.816 13.553-.131 24.474 1.579 24.474 3.816z" opacity=".756"/>
        <path fill="#8CAFE9" d="M507.631 400.263c0 1.974-10.131 3.553-22.631 3.553s-22.632-1.579-22.632-3.553 10.132-3.552 22.632-3.552c12.5 0 22.631 1.578 22.631 3.552z" opacity=".78"/>
        <path fill="#89ACE8" d="M505.789 400.263c0 1.842-9.342 3.29-20.921 3.29-11.579 0-20.921-1.448-20.921-3.29s9.342-3.289 20.921-3.289c11.579 0 20.921 1.447 20.921 3.289z" opacity=".805"/>
        <path fill="#85AAE8" d="M504.079 400.263c0 1.711-8.553 3.026-19.079 3.026s-19.079-1.315-19.079-3.026c0-1.71 8.553-3.026 19.079-3.026s19.079 1.316 19.079 3.026z" opacity=".829"/>
        <path fill="#82A7E7" d="M502.237 400.263c0 1.448-7.763 2.763-17.237 2.763-9.474 0-17.237-1.184-17.237-2.763 0-1.447 7.763-2.763 17.237-2.763 9.474 0 17.237 1.184 17.237 2.763z" opacity=".854"/>
        <path fill="#7EA5E6" d="M500.395 400.263c0 1.316-6.974 2.5-15.527 2.5-8.552 0-15.526-1.052-15.526-2.5 0-1.316 6.974-2.5 15.526-2.5 8.553 0 15.527 1.053 15.527 2.5z" opacity=".878"/>
        <path fill="#7AA2E6" d="M498.684 400.263c0 1.184-6.184 2.105-13.684 2.105-7.5 0-13.684-.921-13.684-2.105s6.184-2.105 13.684-2.105c7.5 0 13.684.789 13.684 2.105z" opacity=".902"/>
        <path fill="#77A0E5" d="M485 402.105c6.54 0 11.842-.824 11.842-1.842 0-1.017-5.302-1.842-11.842-1.842-6.54 0-11.842.825-11.842 1.842 0 1.018 5.302 1.842 11.842 1.842z" opacity=".927"/>
        <path fill="#739DE4" d="M495 400.263c0 .921-4.474 1.579-10.132 1.579-5.658 0-10.131-.658-10.131-1.579 0-.921 4.473-1.579 10.131-1.579s10.132.658 10.132 1.579z" opacity=".951"/>
        <path fill="#709BE4" d="M493.289 400.263c0 .658-3.684 1.316-8.289 1.316-4.605 0-8.29-.526-8.29-1.316 0-.658 3.685-1.316 8.29-1.316 4.605 0 8.289.527 8.289 1.316z" opacity=".976"/>
        <path fill="#6C98E3" d="M491.447 400.263c0 .527-2.894 1.053-6.447 1.053s-6.448-.395-6.448-1.053c0-.526 2.895-1.052 6.448-1.052 3.553 0 6.447.394 6.447 1.052z" opacity=".5"/>
    </g>
    <path fill="#E3EDFE" d="M525 323.553H32.105c-10.92 0-19.737-8.816-19.737-19.737V33.158c0-10.921 8.816-19.737 19.737-19.737H525c10.921 0 19.737 8.816 19.737 19.737v270.658c0 10.921-8.816 19.737-19.737 19.737z"/>
    <g opacity=".5">
        <path fill="#B3CDFA" d="M133.684 323.553H125l4.474-20.132h8.552l-4.342 20.132zM304.21 323.553h8.553l-4.342-20.132h-8.684l4.473 20.132z" opacity=".5"/>
        <path fill="url(#a)" d="M319.737 222.763H116.842v89.079h202.895v-89.079z" opacity=".5"/>
        <path fill="#B3CDFA" d="M314.737 227.895h-93.421v80h93.421v-80z" opacity=".5"/>
        <g fill="#E3EDFE" opacity=".34">
            <path d="M314.737 303.289l-75.263-75.394h-16.843l80 80h12.106v-4.606zM284.605 227.895h-38.816l68.948 68.947v-38.816l-30.132-30.131z" opacity=".34"/>
        </g>
        <path fill="#D1E1FC" d="M237.5 263.816h-8.29v8.289h8.29v-8.289z" opacity=".5"/>
        <path fill="#E3EDFE" d="M229.21 263.816v.263h8.027v8.026h.263v-8.289h-8.29z" opacity=".5"/>
        <path fill="#B3CDFA" d="M122.34 307.934h93.421v-80H122.34v80z" opacity=".5"/>
        <g fill="#E3EDFE" opacity=".34">
            <path d="M122.237 303.289l75.395-75.394h16.842l-80 80h-12.237v-4.606zM152.368 227.895h38.816l-68.947 68.947v-38.816l30.131-30.131z" opacity=".34"/>
        </g>
        <path fill="#D1E1FC" d="M199.636 272.013h8.289v-8.29h-8.289v8.29z" opacity=".5"/>
        <path fill="#E3EDFE" d="M207.895 263.816v.263h-8.027v8.026h-.263v-8.289h8.29z" opacity=".5"/>
    </g>
    <g opacity=".5">
        <path fill="url(#b)" d="M185.921 222.5h10.132c3.684 0 6.447-3.026 6.315-6.711l-3.157-57.236h-16.316l-3.158 57.236c-.263 3.685 2.631 6.711 6.184 6.711z" opacity=".5"/>
        <path fill="#B3CDFA" d="M195.132 215.789l-3.158-57.236h4.737l3.157 57.236c.264 3.685-2.631 6.711-6.315 6.711h-4.737c3.684 0 6.579-3.026 6.316-6.711z" opacity=".5"/>
    </g>
    <g opacity=".5">
        <path fill="#B3CDFA" d="M384.079 248.684s.263 0 .789.132c.263.131.527.263.921.263.395.132.79.395 1.185.526.394.263.789.527 1.315.921.395.395.921.79 1.448 1.185.921.921 1.973 1.973 2.763 3.157.921 1.185 1.579 2.632 2.368 4.079.658 1.579 1.316 3.158 1.842 4.869.527 1.71 1.053 3.421 1.448 5.263s.789 3.684.921 5.526c.263 1.842.526 3.684.658 5.527.131 1.842.263 3.684.263 5.394.132 1.711 0 3.421 0 5V295c-.263 5.658-.526 9.342-.526 9.342l-4.869-.395s.526-3.684 1.184-9.21c.132-1.316.264-2.895.395-4.474.132-1.579.263-3.289.395-5 0-1.71.131-3.552.131-5.263 0-1.842-.131-3.684-.131-5.526 0-1.842-.263-3.685-.526-5.527-.132-1.842-.658-3.552-.922-5.263-.394-1.71-.921-3.289-1.447-4.868-.658-1.448-1.184-2.895-1.974-4.079-.657-1.316-1.579-2.369-2.368-3.29-.395-.394-.789-.921-1.316-1.184-.395-.395-.921-.658-1.184-.921-.395-.263-.789-.395-1.053-.658a6.328 6.328 0 0 1-.921-.395c-.526.395-.789.395-.789.395z" opacity=".5"/>
        <path fill="#B3CDFA" d="M395.132 299.211s-.527-2.237-1.316-5.658c-.921-3.421-2.106-7.895-3.684-12.237-.79-2.237-1.579-4.342-2.5-6.448a50.33 50.33 0 0 1-1.316-2.894c-.527-.921-.921-1.842-1.448-2.5-.526-.79-.921-1.448-1.447-2.106-.526-.526-.921-1.052-1.316-1.447-.921-.789-1.447-1.184-1.447-1.184s.526.395 1.579 1.052l1.447 1.448c.658.526 1.053 1.184 1.711 1.974a16.65 16.65 0 0 1 1.71 2.5c.658.921 1.184 1.842 1.842 2.763 1.185 1.973 2.369 4.079 3.421 6.315 4.343 8.685 7.5 17.632 7.5 17.632l-4.736.79z" opacity=".5"/>
        <path fill="#B3CDFA" d="M396.711 300.658s.263-1.711.657-3.947c.527-2.369 1.316-5.527 2.5-8.553.658-1.579 1.316-3.026 2.106-4.474.394-.658.789-1.316 1.316-1.973.526-.527.921-1.185 1.447-1.579.526-.527.921-.921 1.447-1.185.527-.263.921-.658 1.316-.658.79-.263 1.316-.394 1.316-.394s-.395.263-1.184.658c-.395.131-.658.526-1.053.789-.395.263-.789.79-1.053 1.316-.394.526-.658 1.053-.921 1.71-.394.527-.526 1.316-.789 1.974-.395 1.316-.79 2.895-.921 4.342-.395 3.027-.395 6.053-.395 8.421.132 2.369.263 3.816.263 3.816l-6.052-.263z" opacity=".5"/>
        <path fill="url(#c)" d="M383.421 297.368l3.816 23.027c.395 1.973 2.105 3.552 4.21 3.552h12.632c2.105 0 3.816-1.447 4.21-3.552l3.816-23.027h-28.684z" opacity=".5"/>
        <path fill="#B3CDFA" d="M411.053 297.368l-3.816 23.027c-.395 1.973-2.105 3.552-4.211 3.552h.921c2.106 0 3.816-1.447 4.211-3.552l3.816-23.027h-.921z" opacity=".5"/>
        <path fill="url(#d)" d="M415.132 297.763h-34.869c-.263 0-.395-.131-.395-.395v-5.789c0-.263.132-.395.395-.395H415c.263 0 .395.132.395.395v5.789c.131.264 0 .395-.263.395z" opacity=".5"/>
        <path fill="#B3CDFA" d="M380.658 293.158c0-.263.263-.526.526-.526h34.211v-.79c0-.263-.263-.526-.527-.526h-34.473c-.263 0-.527.263-.527.526v5.395c0 .263.264.526.527.526h.131v-4.605h.132z" opacity=".5"/>
    </g>
    <g opacity=".5">
        <path fill="#B3CDFA" d="M197.5 76.579H78.684v80.263H197.5V76.579z" opacity=".5"/>
        <path fill="url(#e)" d="M190.658 82.895H85.526v67.763h105.132V82.895z" opacity=".5"/>
        <path fill="#B3CDFA" d="M167.105 135.263l-43.289-28.552h43.289v28.552zM108.421 102.5l43.289 28.553h-43.289V102.5z" opacity=".5"/>
    </g>
    <g opacity=".5">
        <path fill="#B3CDFA" d="M544.737 46.842h-90V206.58h90V46.842z" opacity=".5"/>
        <path fill="url(#f)" d="M544.605 53.947h-83.421v143.421h83.421V53.948z" opacity=".5"/>
        <path fill="#B3CDFA" d="M544.605 136.316h-83.421v4.21h83.421v-4.21zM544.605 127.5h-83.421v4.211h83.421V127.5zM544.605 118.684h-83.421v4.211h83.421v-4.211zM544.605 109.737h-83.421v4.21h83.421v-4.21zM544.605 100.921h-83.421v4.211h83.421v-4.211zM544.605 92.105h-83.421v4.21h83.421v-4.21zM544.605 83.158h-83.421v4.21h83.421v-4.21zM544.605 74.342h-83.421v4.21h83.421v-4.21zM544.605 65.526h-83.421v4.21h83.421v-4.21zM544.605 56.71h-83.421v4.211h83.421v-4.21z" opacity=".5"/>
        <path fill="#C2D7FB" d="M544.605 140.263h-83.421v.395h83.421v-.395zM544.605 131.316h-83.421v.395h83.421v-.395zM544.605 122.5h-83.421v.395h83.421v-.395zM544.605 113.684h-83.421v.395h83.421v-.395zM544.605 104.737h-83.421v.395h83.421v-.395zM544.605 95.921h-83.421v.395h83.421v-.395zM544.605 87.105h-83.421v.395h83.421v-.395zM544.605 78.158h-83.421v.395h83.421v-.395zM544.605 69.342h-83.421v.395h83.421v-.395zM544.605 60.526h-83.421v.395h83.421v-.395z" opacity=".5"/>
        <path fill="#B3CDFA" d="M544.737 197.105h-97.763v12.632h97.763v-12.632z" opacity=".5"/>
        <path fill="#C2D7FB" d="M544.737 197.237h-97.763v1.184h97.763v-1.184z" opacity=".5"/>
        <path fill="#B3CDFA" d="M468.158 53.947h-.658v119.211h.658V53.948z" opacity=".5"/>
        <path fill="#B3CDFA" d="M468.684 171.974h-1.842v5h1.842v-5z" opacity=".5"/>
        <path fill="#B3CDFA" d="M461.184 184.474v12.763h83.421V162.5h-4.342v9.211h-6.316v-15.132h-2.105v-7.632L530 151.711V170h-2.237v-10.658h-8.421v4.342h-1.579v-7.5l-1.71-2.631-1.711 3.026v5.526l-10.658-.263v-5.263h-4.21v20.132l-10.527.131.132-12.631h-5.79v5.263h-3.684v-5.263h-1.316v-4.474h-.789v4.474h-1.711v16.842h-3.552v-6.842l-4.079 4.342v8.552h-2.632v-2.631h-4.342z" opacity=".5"/>
    </g>
    <g opacity=".5">
        <path fill="#B3CDFA" d="M51.316 259.342s-28.29-6.71-29.342-31.316c0 0 5.394 6.842 13.026 8.421 0 0 17.105 8.158 16.316 22.895zM85.395 249.737s3.552 16.447-19.21 19.21c0 0-3.422-5.131 6.052-11.052 1.447-.921 3.158-1.448 5-1.711 2.237-.395 5.92-1.71 8.158-6.447z" opacity=".5"/>
        <path fill="#C2D7FB" d="M72.368 258.684c1.448-.921 3.158-1.447 5-1.71 2.237-.395 5.922-1.711 8.158-6.448 0 0 .132.79.132 1.974 0-1.711-.132-2.763-.132-2.763-2.236 4.737-5.92 6.052-8.158 6.447-1.71.263-3.42.79-5 1.711-5.92 3.816-6.842 7.105-6.71 9.21.132-2.105 1.447-5.131 6.71-8.421z" opacity=".5"/>
        <path fill="#B3CDFA" d="M53.816 214.079s-18.684 29.079 2.631 45.789c0 0 4.606-3.684 5.79-13.157.79-6.185-.526-12.5-3.421-18.027-1.58-3.026-3.553-7.895-5-14.605z" opacity=".5"/>
        <path fill="#C2D7FB" d="M58.816 228.816c-1.71-3.158-3.684-8.027-5-14.605 0 0 0-.132-.658 1.184 1.316 5.658 2.895 9.473 4.474 12.368 2.894 5.526 5 13.29 4.21 19.474-.921 6.974-3.947 11.447-5.263 12.895.263.263-.263-.264 0 0 0 0 4.605-3.685 5.79-13.158.789-6.316-.527-12.632-3.553-18.158z" opacity=".5"/>
        <path fill="#B3CDFA" d="M26.184 253.553s-10.263-2.237-14.21 11.973c0 0 11.184-8.684 13.42-1.71 0 0 5.132 8.289 13.159 7.895.131 0 .526-17.632-12.369-18.158z" opacity=".5"/>
        <path fill="#C2D7FB" d="M26.184 254.474c11.184.394 12.237 13.815 12.369 17.368 0 0 .394-17.763-12.369-18.158 0 0-10.263-2.237-14.21 11.974l.263-.263c4.21-13.158 13.947-10.921 13.947-10.921z" opacity=".5"/>
        <path fill="#B3CDFA" d="M36.316 269.737c1.71 2.368 4.079 3.552 6.447 5.263 5 3.684 5.263 10.658 5.658 16.316.132 1.184 1.842 1.184 1.842 0 0-4.605-.79-10.79-3.553-14.605-2.5-3.422-6.842-4.606-9.605-7.632-.395-.395-1.184.263-.79.658zM46.184 254.211c7.237 6.052 6.71 12.894 5.658 21.578-.79 5.658-.526 11.843 1.974 17.106.395.789 1.447.263 1.316-.527-.921-4.868-1.974-9.473-1.711-14.342.263-3.947 1.579-7.894 1.184-11.842-.526-5.263-3.42-9.605-7.631-12.631-.658-.527-1.316.263-.79.658z" opacity=".5"/>
        <path fill="#B3CDFA" d="M55.526 252.763c-.526 6.448 1.184 12.763 1.316 19.211.132 6.579-1.579 12.631-2.237 19.079 0 .526.921.789 1.053.263 5.658-11.974 1.842-26.053.79-38.553 0-.526-.79-.526-.922 0z" opacity=".5"/>
        <path fill="#B3CDFA" d="M71.842 264.868c-4.21 3.29-9.868 5.79-11.579 11.053-1.052 3.421-4.737 11.711-1.316 14.474.264.263.79.131.79-.395.131-4.868.92-11.579 3.552-15.789 2.237-3.553 6.58-5.658 9.21-9.079.264-.132-.394-.527-.657-.264z" opacity=".5"/>
        <path fill="url(#g)" d="M65.132 323.684h-19.08c-2.236 0-4.078-1.579-4.342-3.816l-5-34.868h36.711l-3.947 34.737c-.264 2.237-2.106 3.947-4.343 3.947z" opacity=".5"/>
        <path fill="#B3CDFA" d="M70.263 312.763l2.763-24.342h-35.79l.264 2.632 32.763 21.71z" opacity=".57"/>
        <path fill="url(#h)" d="M75.79 283.421H34.341v5.658h41.447v-5.658z" opacity=".5"/>
    </g>
    <g opacity=".5">
        <path fill="url(#i)" d="M230 201.711v-3.422h-2.368v3.422h-6.579v20.921h15.657v-20.921H230z" opacity=".5"/>
        <path fill="#B3CDFA" d="M235.395 201.711h-2.106v20.921h2.106v-20.921z" opacity=".5"/>
    </g>
    <g opacity=".5">
        <path fill="url(#j)" d="M246.974 207.5V205h-1.711v2.5h-4.737v15.132h11.316V207.5h-4.868z" opacity=".5"/>
        <path fill="#B3CDFA" d="M250.921 207.5h-1.579v15.132h1.579V207.5z" opacity=".5"/>
    </g>
    <path fill="url(#k)" d="M63.947 48.816h-29.21v8.947h29.21v-8.947z"/>
    <path fill="url(#l)" d="M80.921 61.579h-29.21v8.947h29.21V61.58z"/>
    <path fill="url(#m)" d="M106.974 155.263h-38.29v11.711h38.29v-11.711z"/>
    <path fill="url(#n)" d="M51.053 190.789h-38.29V202.5h38.29v-11.711z"/>
    <path fill="url(#o)" d="M100 48.816H70.79v8.947H100v-8.947z"/>
    <path fill="url(#p)" d="M179.605 35.395h-29.21v8.947h29.21v-8.947z"/>
    <path fill="url(#q)" d="M198.684 22.632h-29.21v8.947h29.21v-8.947z"/>
    <path fill="url(#r)" d="M418.421 236.579H389.21v8.947h29.211v-8.947z"/>
    <path fill="url(#s)" d="M437.5 223.816h-29.211v8.947H437.5v-8.947z"/>
    <path fill="url(#t)" d="M408.289 78.421h-29.21v8.947h29.21v-8.947z"/>
    <path fill="url(#u)" d="M427.368 65.658h-29.21v8.947h29.21v-8.947z"/>
    <path fill="url(#v)" d="M417.237 157.237h-22.632v6.974h22.632v-6.974z"/>
    <path fill="url(#w)" d="M430.263 167.105h-22.632v6.974h22.632v-6.974z"/>
    <path fill="url(#x)" d="M445.132 157.237H422.5v6.974h22.632v-6.974z"/>
    <path fill="url(#y)" d="M504.342 228.947H472.5v9.737h31.842v-9.737z"/>
    <path fill="url(#z)" d="M522.763 242.895h-31.842v9.737h31.842v-9.737z"/>
    <path fill="url(#A)" d="M543.684 228.947h-31.842v9.737h31.842v-9.737z"/>
    <path fill="url(#B)" d="M379.474 292.237s.394-.395 1.184-1.316c.395-.395.921-.921 1.579-1.447.263-.263.658-.658 1.052-.921.395-.264.79-.658 1.316-.921 1.842-1.316 4.079-2.764 6.974-3.948 2.895-1.184 6.184-2.237 10-2.895.921-.263 1.974-.263 2.895-.394 1.052-.132 1.973-.263 3.026-.263 2.105-.132 4.21-.264 6.447-.132h1.711c.526 0 1.052.132 1.71.132h.79l.921.131c.526 0 1.053.132 1.71.132 2.369.263 4.606.658 6.974 1.052 2.369.527 4.737 1.053 7.105 1.842a79.098 79.098 0 0 1 7.106 2.764c2.368 1.052 4.605 2.368 6.71 3.815l1.579 1.185 1.579 1.184.395.263.395.263.394.263.395.395c.526.395 1.053.921 1.447 1.316 3.816 3.684 6.974 7.763 9.737 11.71a64.4 64.4 0 0 1 4.079 6.316c.263.526.658 1.053.921 1.579s.658 1.053.921 1.579c.527 1.053 1.184 2.105 1.711 3.158 2.237 4.21 3.947 8.421 5.526 12.5 1.579 4.079 2.763 7.895 3.816 11.579.526 1.842.921 3.553 1.316 5.263.131.79.394 1.711.526 2.5l.395 2.368c.263 1.448.526 2.895.789 4.211.132.658.132 1.316.263 1.842.132.658.132 1.184.264 1.711.263 2.105.394 3.815.526 5 .131 1.184.131 1.842.131 1.842s-.131-.658-.526-1.711c-.132-.526-.395-1.316-.526-2.105a38.068 38.068 0 0 1-.79-2.763c-.131-.527-.263-1.053-.526-1.579-.132-.526-.395-1.184-.526-1.842-.264-.658-.395-1.316-.658-1.974-.263-.658-.395-1.316-.658-2.105-.263-.658-.526-1.448-.79-2.237l-.789-2.368c-.526-1.579-1.184-3.29-1.842-5-1.316-3.422-2.895-7.106-4.605-10.922-1.843-3.815-3.816-7.763-6.053-11.71-.526-1.053-1.184-1.974-1.711-2.895-.263-.526-.526-1.052-.921-1.447-.263-.526-.658-.921-.921-1.448-.658-.921-1.315-1.973-1.973-2.894-.395-.527-.658-.921-1.053-1.448-.263-.526-.658-.921-1.053-1.447-2.894-3.947-5.789-7.632-9.21-10.921-.395-.395-.921-.79-1.316-1.184l-.263-.263-.395-.264-.395-.263-.394-.263-1.316-1.053-1.448-1.052a70.346 70.346 0 0 0-5.921-3.553c-4.079-2.105-8.421-3.552-12.763-4.737-2.105-.526-4.342-1.052-6.447-1.315-.526-.132-1.053-.132-1.579-.264l-.789-.131-.79-.132c-.526-.131-1.053-.131-1.579-.263-.526 0-1.053-.131-1.579-.131a68.598 68.598 0 0 0-11.579-.132c-3.552.263-6.842.789-9.737 1.71-2.894.79-5.263 1.843-7.105 2.764-.526.263-.921.526-1.316.658-.394.263-.789.526-1.184.657-.658.395-1.316.79-1.842 1.185-.921.789-1.447 1.184-1.447 1.184z"/>
    <path fill="url(#C)" d="M397.895 277.5s.526-.263 1.579-.658l.789-.395c.263-.131.658-.263 1.053-.394.789-.264 1.579-.658 2.631-.921l1.579-.395c.527-.132 1.184-.263 1.711-.395l1.973-.395c.658-.131 1.316-.263 2.106-.263 2.894-.263 6.184-.395 9.868-.131 3.553.263 7.5.921 11.447 1.842 3.948 1.052 8.158 2.368 12.369 4.079 2.105.789 4.21 1.842 6.316 2.894 1.052.527 2.105 1.185 3.158 1.843l.789.526.79.526.657.526.395.264.395.263c3.947 3.026 7.368 6.71 10.263 10.526.79.921 1.447 1.974 2.105 2.895l.527.789.263.395.263.395.921 1.447a23.16 23.16 0 0 1 1.842 3.026c.526 1.053 1.184 2.106 1.711 3.158l1.579 3.158c.526 1.053.921 2.106 1.447 3.158.263.526.526 1.053.658 1.579.263.526.395 1.053.658 1.579s.395 1.053.658 1.579.394 1.053.526 1.579c1.579 4.21 2.632 8.421 3.421 12.5.395 1.974.789 3.947.921 5.921l.395 2.763c.131.921.131 1.842.263 2.763.132 1.842.132 3.553.132 5.132v2.368c0 .79 0 1.579-.132 2.237-.132 2.895-.395 5.395-.789 7.5-.264 2.105-.658 3.684-.922 4.737a40.35 40.35 0 0 0-.394 1.711V367.5c0-1.053.131-2.763 0-4.737 0-1.974-.132-4.474-.395-7.368-.263-2.763-.526-5.921-1.184-9.342-.132-.79-.263-1.711-.395-2.632s-.395-1.71-.526-2.632c-.395-1.842-.921-3.684-1.316-5.526a111.76 111.76 0 0 0-3.947-11.71c-1.579-3.948-3.553-7.895-5.658-11.842-1.185-1.974-2.237-3.816-3.553-5.79l-.921-1.447-.263-.395-.263-.263-.527-.658-1.973-2.763c-2.764-3.553-5.79-6.842-9.079-9.474l-.263-.263-.395-.263-.658-.527-.658-.394-.658-.395c-.921-.658-1.842-1.184-2.763-1.711-1.842-1.052-3.816-2.105-5.658-2.894-7.763-3.553-15.395-6.185-22.105-7.369-3.421-.658-6.448-.921-9.342-1.052h-3.948c-.658 0-1.184 0-1.71.131-.527 0-1.053.132-1.579.132-1.053.131-1.842.263-2.632.395-.394.131-.789.131-1.052.131-.395.132-.658.132-.921.263l-1.579.395z"/>
    <path fill="url(#D)" d="M437.237 232.237s.526.395 1.316 1.052c.921.658 2.105 1.711 3.815 3.158 1.579 1.448 3.553 3.158 5.527 5.264 1.052 1.052 2.105 2.236 3.289 3.421 1.184 1.184 2.237 2.5 3.421 3.947 4.737 5.526 9.737 12.632 13.948 20.789l.394.79.132.131.132.264.131.394.79 1.579c.526 1.053 1.052 2.106 1.447 3.158.921 2.105 1.842 4.342 2.763 6.579a212.29 212.29 0 0 1 4.737 13.816c1.316 4.605 2.632 9.342 3.816 13.947.658 2.237 1.184 4.606 1.71 6.842.527 2.237 1.053 4.606 1.448 6.843.921 4.605 1.315 9.078 1.447 13.289.132 4.211.132 8.158.132 11.711 0 1.842-.132 3.552-.264 5.263-.131 1.71-.263 3.289-.394 4.737a82.484 82.484 0 0 1-1.053 7.631c-.395 2.105-.789 3.684-1.053 4.869a40.141 40.141 0 0 0-.394 1.71s0-.658.131-1.71c0-.527 0-1.316.132-2.106v-2.763c0-2.105 0-4.605-.132-7.5-.131-2.895-.263-6.184-.658-9.737-.131-1.842-.263-3.684-.526-5.526-.132-1.974-.395-3.947-.658-5.921-.526-4.079-1.053-8.29-2.105-12.5-.526-2.105-1.053-4.342-1.711-6.579-.658-2.237-1.315-4.474-1.842-6.711-1.316-4.605-2.5-9.21-3.947-13.684a200.312 200.312 0 0 0-4.342-13.421c-.79-2.237-1.579-4.342-2.5-6.447-.395-1.053-.79-2.105-1.316-3.158-.263-.526-.526-1.053-.658-1.579l-.132-.395-.131-.131-.132-.132-.394-.789c-3.685-8.027-8.027-15.132-11.974-21.053-3.947-5.921-7.763-10.658-10.395-13.816-1.316-1.579-2.368-2.895-3.158-3.816-.394-1.184-.789-1.71-.789-1.71z"/>
    <path fill="url(#E)" d="M462.237 238.816l.263.263c.263.132.526.395.921.789a47.74 47.74 0 0 1 3.158 3.421c1.316 1.579 2.632 3.553 4.079 6.053 1.447 2.369 2.763 5.263 4.079 8.421.395.79.658 1.579 1.052 2.369.395.789.658 1.71 1.053 2.5.395.789.658 1.71 1.053 2.631.263.921.658 1.842.921 2.763.263.921.658 1.842 1.052 2.763.395.922.658 1.974.921 2.895.658 1.974 1.185 3.948 1.843 6.053 1.184 4.079 2.236 8.421 3.157 12.763.527 2.237.922 4.474 1.316 6.579.263 1.053.395 2.237.658 3.421l.526 3.421.527 3.421c.131 1.184.263 2.237.395 3.421.263 2.237.526 4.474.657 6.711.132 2.237.395 4.473.395 6.71.132 2.237.132 4.342.263 6.448v9.473c0 1.053-.131 1.974-.131 3.027 0 .921-.132 1.973-.132 2.894s-.131 1.842-.263 2.763c-.132 1.843-.263 3.553-.526 5.264-.263 1.71-.395 3.289-.658 4.868-.263 1.579-.395 3.026-.658 4.342-.526 2.763-.921 5.132-1.316 6.974-.395 1.974-.789 3.421-1.053 4.474l-.394 1.578v-1.578c0-1.053.131-2.632.131-4.606 0-.921.132-2.105.132-3.289 0-1.184 0-2.5.131-3.816v-2.105-2.237-4.869c0-1.71 0-3.421-.131-5.263v-2.763c0-.921-.132-1.842-.132-2.895-.131-3.815-.394-7.894-.526-12.105-.132-2.105-.263-4.21-.526-6.316 0-1.052-.263-2.105-.263-3.289-.132-1.053-.264-2.105-.264-3.29-.131-2.236-.526-4.342-.789-6.579-.132-1.052-.263-2.236-.395-3.289l-.526-3.289-.526-3.29c-.132-1.053-.395-2.237-.527-3.289-.395-2.237-.658-4.343-1.184-6.448-.263-1.052-.395-2.105-.658-3.158-.263-1.052-.395-2.105-.658-3.158-.526-2.105-.921-4.21-1.316-6.184a128.76 128.76 0 0 1-1.447-5.921c-.395-1.974-1.053-3.816-1.447-5.658l-.79-2.763c-.263-.921-.526-1.842-.789-2.631-.527-1.711-1.053-3.422-1.448-5-.921-3.158-1.973-6.053-2.894-8.553-1.053-2.5-1.974-4.605-2.895-6.316-.921-1.71-1.842-3.026-2.369-3.816a53.014 53.014 0 0 0-1.052-1.71z"/>
    <path fill="url(#F)" d="M481.447 246.842s.264.395.921.921c.264.263.658.658 1.053 1.184.132.264.395.527.658.79s.395.658.658.921c.921 1.316 1.973 2.895 3.026 4.868a48.203 48.203 0 0 1 3.026 6.842c1.053 2.5 1.974 5.395 2.764 8.29.921 3.026 1.71 6.053 2.5 9.342.789 3.289 1.579 6.711 2.236 10.263a74.995 74.995 0 0 1 1.185 10.921c.131 3.684 0 7.5-.264 11.053-.131 1.842-.394 3.552-.657 5.263-.132.921-.264 1.711-.395 2.632-.132.789-.263 1.71-.395 2.5-.526 3.421-1.184 6.579-1.842 9.605-.658 3.026-1.316 5.921-2.105 8.421-.658 2.631-1.448 5-2.106 7.105a120.021 120.021 0 0 1-1.842 5.395c-.526 1.447-1.052 2.631-1.315 3.421-.264.789-.527 1.184-.527 1.184s0-.395.132-1.316c.131-.789.263-2.105.526-3.684.395-3.158.921-7.5 1.711-12.895.394-2.631.658-5.526 1.052-8.552.395-3.027.658-6.184 1.053-9.474.132-1.71.263-3.289.526-5l.395-5.131c.263-3.422.263-6.843.132-10.264-.132-1.71-.132-3.421-.395-5.131-.132-1.711-.395-3.421-.658-5.132l-.79-5.131c-.263-1.711-.526-3.29-.921-5-.657-3.29-1.184-6.448-1.71-9.474s-1.184-5.79-1.711-8.421c-1.184-5.132-2.631-9.342-3.815-12.105-.264-.658-.527-1.316-.79-1.842-.263-.527-.526-1.053-.658-1.448-.395-.526-.658-.921-.658-.921z"/>
    <path fill="url(#G)" d="M520.658 250s0 .526-.132 1.447c-.131.921-.263 2.369-.395 4.211a174.942 174.942 0 0 0-.789 6.447c-.132 1.184-.395 2.632-.526 3.948l-.79 4.342-.789 4.737c-.263 1.579-.658 3.289-1.053 5.131-.658 3.553-1.579 7.105-2.368 10.921-.395 1.842-.921 3.816-1.448 5.79l-1.579 5.921c-1.052 3.947-2.236 7.894-3.421 11.842-1.184 3.947-2.368 7.895-3.815 11.71-.658 1.974-1.316 3.816-1.974 5.79l-1.974 5.526c-1.316 3.684-2.631 7.105-4.079 10.395-.658 1.579-1.316 3.289-1.973 4.737a149.47 149.47 0 0 1-1.974 4.473c-.658 1.448-1.184 2.764-1.842 4.079-.658 1.316-1.184 2.5-1.711 3.685-1.052 2.236-2.105 4.21-2.894 5.921-.79 1.579-1.448 2.894-1.974 3.684-.395.921-.658 1.316-.658 1.316s.132-.527.395-1.448c.263-.921.658-2.368 1.184-4.079.526-1.71 1.184-3.815 1.842-6.315.658-2.369 1.579-5.132 2.368-8.027 3.553-11.842 8.421-27.5 13.158-43.289 4.737-15.79 9.342-31.579 12.895-43.29.921-2.894 1.711-5.658 2.5-8.026a281.888 281.888 0 0 0 1.974-6.184c.526-1.711 1.052-3.027 1.315-3.948.395-1.052.527-1.447.527-1.447z"/>
    <path fill="url(#H)" d="M485.789 372.237s.132-.526.264-1.579c.263-1.053.526-2.5 1.052-4.474.263-.921.527-1.973.79-3.158.263-1.184.658-2.368 1.052-3.684.395-1.316.79-2.763 1.185-4.21.394-1.448.921-3.027 1.447-4.606.526-1.579 1.184-3.289 1.71-5 .658-1.71 1.316-3.552 2.106-5.263 1.447-3.684 3.158-7.368 5-11.184.921-1.974 1.973-3.816 3.026-5.79 1.053-1.973 2.237-3.815 3.29-5.789 2.368-3.816 4.868-7.632 7.631-11.316l2.105-2.763c.658-.921 1.448-1.842 2.106-2.632 1.447-1.842 3.026-3.421 4.473-5.131 1.579-1.579 3.027-3.29 4.737-4.737.79-.789 1.579-1.579 2.369-2.237.789-.789 1.579-1.447 2.368-2.105 3.289-2.763 6.579-5.395 9.737-7.632 1.579-1.184 3.289-2.105 4.737-3.158.789-.526 1.579-.921 2.368-1.447.79-.395 1.579-.921 2.237-1.316 1.579-.789 3.026-1.579 4.342-2.237 1.447-.657 2.763-1.315 4.079-1.842 1.316-.526 2.5-1.052 3.553-1.447 1.184-.395 2.236-.789 3.158-1.053 1.842-.658 3.421-1.052 4.473-1.315l1.579-.395s-.526.263-1.447.789c-.921.527-2.369 1.185-4.079 2.106-.921.526-1.842.921-2.895 1.579-1.053.657-2.105 1.184-3.289 1.973-1.185.658-2.369 1.448-3.685 2.237-1.315.79-2.631 1.711-3.947 2.632-2.763 1.973-5.658 4.079-8.553 6.447-2.894 2.368-5.921 5.132-8.947 7.895a147.375 147.375 0 0 0-8.816 9.21c-1.447 1.711-2.894 3.29-4.21 5-.658.79-1.316 1.711-2.106 2.632l-1.973 2.631c-2.632 3.553-5.132 7.237-7.5 10.79-2.369 3.684-4.605 7.368-6.579 10.921-1.974 3.684-3.948 7.105-5.658 10.658a600.34 600.34 0 0 0-4.737 9.737 69.59 69.59 0 0 1-1.974 4.342c-.657 1.447-1.184 2.763-1.71 3.947-1.053 2.5-2.105 4.737-2.895 6.448-.789 1.842-1.447 3.289-1.842 4.21.132.79-.132 1.316-.132 1.316z"/>
    <path fill="url(#I)" d="M486.316 371.447s-.263-.394-.527-1.052a42.413 42.413 0 0 1-1.579-2.895c-.394-.658-.657-1.316-1.184-1.974-.394-.789-.921-1.579-1.315-2.368-.922-1.711-2.106-3.553-3.29-5.658-1.316-1.974-2.632-4.211-4.211-6.447-1.447-2.237-3.157-4.606-4.868-6.974-1.842-2.368-3.684-4.737-5.658-7.105-1.974-2.369-3.947-4.737-6.184-7.106l-.395-.394-.395-.395-.789-.921c-.526-.526-1.053-1.053-1.579-1.711-1.053-1.052-2.237-2.236-3.289-3.158a67.689 67.689 0 0 0-6.843-5.657c-1.184-.79-2.368-1.579-3.552-2.237-.526-.395-1.184-.658-1.711-1.053l-.394-.263s.131 0 0 0h-.132l-.263-.132c-.263-.131-.658-.263-.921-.394-1.184-.527-2.369-1.053-3.421-1.448-1.184-.394-2.369-.789-3.421-1.052-4.474-1.185-8.421-1.185-11.185-.79-1.315.132-2.5.395-3.157.526-.79.132-1.185.264-1.185.264s.395-.264 1.053-.527c.395-.263.789-.394 1.316-.658.526-.263 1.052-.526 1.842-.789a20.632 20.632 0 0 1 5.131-1.316c1.974-.263 4.343-.395 6.843-.131 1.315.131 2.631.263 3.947.526a29.29 29.29 0 0 1 4.21 1.184c2.632.921 5.527 2.237 8.29 3.816 1.316.789 2.763 1.71 3.947 2.631a42.859 42.859 0 0 1 3.816 3.027c1.184 1.052 2.5 2.237 3.684 3.289l1.711 1.711.789.921.395.395.395.394c2.237 2.369 4.342 5 6.316 7.5.526.658.921 1.316 1.447 1.974.526.658.921 1.316 1.316 1.974.921 1.315 1.71 2.631 2.631 3.947 1.579 2.632 3.158 5.132 4.342 7.632.658 1.184 1.185 2.5 1.843 3.684l1.579 3.552c.394 1.185.921 2.237 1.315 3.29.395 1.053.79 1.974 1.053 3.026.263.921.658 1.842.789 2.632.264.789.395 1.579.658 2.237.395 1.315.658 2.5.79 3.158-.132.921 0 1.315 0 1.315z"/>
    <g fill="#6C98E3" opacity=".5">
        <path d="M571.579 265.263c.921-.526 1.447-.789 1.447-.789l-1.579.394c-.658.264-1.71.395-2.763.79-2.895 1.316-5.658 2.895-8.552 4.342a126.218 126.218 0 0 0-16.316 10.395c-5.132 3.947-10 8.289-14.342 13.026-4.342 4.868-8.027 10.132-10.79 15.79-.131.263-.263.526-.263.657 0 .132 0 .132-.132.132 0 0 0-.132.132-.132 1.316-2.631 2.763-5.131 4.079-6.842.395-.658-.263.658.132.132.394-.658 1.315-1.711 1.71-2.369.526-.526-.263.658.263.264.527-.527 2.369-2.764 2.895-3.29.789-.789.526-.526 0 .263-.526.658-1.447 1.842-2.237 2.632.526-.526-.921 1.053-.789 1.184 0 0 .131.132.394-.131.264-.264.79-.79 1.842-1.711.527-.526.132.132.132.132.921-1.053 1.974-1.974 2.895-3.027 2.237-2.368 4.473-4.737 6.71-6.973 3.027-2.895 5.921-5.527 8.948-7.895 2.894-2.369 5.789-4.605 8.552-6.448 1.316-.921 2.763-1.842 3.948-2.631 1.315-.79 2.5-1.579 3.684-2.237 1.184-.658 2.237-1.316 3.289-1.974 1.053-.526 1.974-1.052 2.895-1.579 1.447-.921 2.895-1.579 3.816-2.105z" opacity=".5"/>
        <path d="M520.789 299.868a48.585 48.585 0 0 1 5-5.394c1.711-1.711 3.553-3.29 5.395-5 3.027-2.763 6.448-5.527 9.869-8.421 2.763-2.237 5.394-4.474 7.894-6.448-.526.263-1.052.658-1.579.921-1.579 1.053-3.158 1.974-4.736 3.158-3.29 2.237-6.448 4.869-9.737 7.632-.79.658-1.579 1.447-2.369 2.105-.789.79-1.579 1.447-2.368 2.237-1.579 1.447-3.158 3.158-4.737 4.737-1.447 1.71-3.026 3.289-4.474 5.131-.789.921-1.447 1.842-2.105 2.632l-2.105 2.763c-1.711 2.368-3.421 4.868-5.132 7.368l.132-.131c.526-.658 2.237-3.421 2.763-3.947.789-.922.526-.658 0 .263-.526.789-1.447 2.237-2.105 3.158.526-.658-.921 1.315-.79 1.447.132.132.132.132 2.106-2.5.526-.658.131.132.263.132 1.447-1.974 2.894-3.948 4.473-5.922 1.185-1.973 2.763-4.078 4.342-5.921zM506.711 317.632c-.132.263-.264.526-.527.789-.658 1.579-1.184 3.29-1.71 5-.132.395-.132.658-.263.79.789-2.369 1.578-4.737 2.5-6.579z" opacity=".5"/>
    </g>
    <path fill="#6C98E3" d="M512.763 281.053c-1.447 5.789-2.895 11.447-4.474 17.236-1.447 5.79-3.026 11.448-4.605 17.106-.131.263-.131.526-.131.658.394-1.316.789-2.632 1.052-3.816.395-1.184.658-2.369 1.053-3.29.263-.658-.132.658.131 0 .264-.658.658-1.973.79-2.5.263-.658 0 .658.263.132.263-.658 1.053-3.158 1.447-3.816.395-.921.264-.658 0 .132-.263.789-.657 2.105-1.052 3.026.263-.658-.395 1.316-.395 1.316.132 0 .263.131 1.316-2.369.263-.657.131 0 .263.132.789-1.842 1.447-3.816 2.237-5.789l1.974-5.922a109.616 109.616 0 0 0 3.157-12.105v-.131c0-.264.132-.527.132-.658.395-1.711.658-3.421 1.053-5.132.263-1.71.526-3.289.789-4.737.263-1.579.526-3.026.79-4.342.263-1.447.394-2.763.526-3.947.395-2.5.658-4.737.789-6.448.132-1.052.264-1.973.264-2.763-1.053 3.685-2.106 7.237-3.158 10.921-1.316 5.527-2.764 11.316-4.211 17.106zM497.237 285c-.395-1.579-.79-3.158-1.053-4.737-.789-3.289-1.71-6.447-2.5-9.342-.658-2.237-1.316-4.342-2.105-6.316-1.316-3.026-3.026-5.789-4.605-8.158-1.053-1.579-2.632-4.21-3.685-5.658 0 .132.132.264.132.395l.526.79c-.131-.263-.263-.395-.394-.658 0 .131.131.131.131.263.921 2.237 1.974 5.263 3.026 8.816l.79 1.579c1.447 3.158 2.632 6.184 3.553 9.473.921 3.29 1.579 6.711 2.368 10 1.447 6.711 2.632 13.553 3.421 20.395.658 6.842.921 13.684.263 20.526v.921-.131c.395-3.158.527-6.316.658-8.553 0-.789.132.79.132 0 0-.789.131-2.368.131-3.158.132-.789.132.79.263 0 0-.394.132-1.315.132-2.368v-2.368c0-1.185.132-.79.132.131v4.211c0 .526-.132 1.052 0 1.052.131 0 .263 0 .526-3.158.131-.789.131 0 .263 0a90.655 90.655 0 0 0-.395-14.605c-.526-3.158-1.052-6.316-1.71-9.342zM482.5 293.684c1.842 6.579 2.895 13.29 4.21 20 .132.395.132.658.132.79-.526-3.027-1.053-6.185-1.447-8.421-.132-.79.263.789.131 0-.131-.79-.394-2.237-.526-3.027 0-.789.395.79.263 0 0-.789-.526-3.815-.658-4.605-.131-1.184 0-.789.132.132.131.921.395 2.5.526 3.684 0-.79.263 1.579.263 1.579.132 0 .263 0 0-3.158 0-.79.132 0 .263 0-.526-4.605-1.447-9.605-2.763-14.211-1.316-4.736-2.894-9.342-4.473-13.684-1.316-3.684-2.764-7.763-4.474-11.71-1.711-3.948-3.684-7.895-5.658-11.185-.395-.657-.789-1.447-1.316-2.236l1.184 2.763c1.053 2.5 1.974 5.394 2.895 8.552.526 1.579.921 3.29 1.448 5 .263.921.526 1.711.789 2.632l.789 2.763c0 .263.132.526.264.79.526 1.315.921 2.763 1.447 4.079 1.053 3.289 2.237 6.447 3.289 9.736a94.236 94.236 0 0 1 3.29 9.737z" opacity=".5"/>
    <g fill="#6C98E3" opacity=".5">
        <path d="M476.316 301.711c-1.053-2.764-2.237-5.658-2.895-7.764-.263-.658.395.658.132 0a69.075 69.075 0 0 1-1.053-2.894c-.132-.79.395.658.263-.132-.131-.789-1.053-3.684-1.316-4.342-.394-1.053-.131-.79.132.132.395.921.789 2.368 1.184 3.421-.131-.79.395 1.447.526 1.447.132 0 .264-.132-.394-3.026-.132-.79.131 0 .263-.132-.263-1.053-.658-2.237-1.053-3.421-.395-1.184-.921-2.237-1.447-3.289-1.053-2.106-2.237-4.211-3.29-6.316-1.973-4.079-3.552-8.553-5.658-12.763-.789-1.711-1.842-3.553-2.894-5.395-1.053-1.842-2.369-3.553-3.685-5.132a78.327 78.327 0 0 0-8.421-8.947c-.657-.658-1.578-1.579-2.5-2.369 2.237 2.895 4.869 6.316 7.632 10.395 3.947 5.921 8.29 13.027 11.974 21.053l.394.789.132.132.132.131.131.395c.263.527.395 1.053.658 1.579.526 1.053.921 2.105 1.316 3.158.526 1.184.921 2.5 1.447 3.684.132.132.263.395.263.527.79 1.447 1.579 2.763 2.237 4.342.658 1.447 1.184 3.026 1.842 4.605a275.884 275.884 0 0 0 3.685 9.342c.131.395.263.526.263.79z" opacity=".5"/>
        <path d="M442.368 236.447c-.789-.658-1.447-1.315-2.105-1.842 3.421 3.816 6.842 7.5 10.132 11.448 4.342 5 8.552 10.131 12.5 15.394 1.973 2.632 3.815 5.264 5.394 8.158 1.579 2.763 2.895 5.79 4.211 8.816 1.184 3.026 2.5 5.921 3.684 8.947-.526-1.447-1.052-3.026-1.71-4.473-.79-2.237-1.842-4.474-2.764-6.579a62.665 62.665 0 0 1-1.447-3.158l-.789-1.579-.132-.395-.132-.263-.131-.132-.395-.789c-4.342-8.158-9.342-15.132-13.947-20.789-1.184-1.448-2.369-2.764-3.421-3.948-1.184-1.184-2.237-2.368-3.29-3.421-2.105-2.237-4.079-3.947-5.658-5.395z" opacity=".5"/>
    </g>
    <g fill="#6C98E3" opacity=".5">
        <path d="M470.526 304.342s0 .132.132.132c-.132 0-.132 0-.132-.132zM465.658 297.368c-.527-.526.658.527.131-.131-.263-.263-.657-.79-1.052-1.184-.395-.395-.79-.79-1.053-1.185-.395-.657.658.395.263-.263-.263-.263-.921-1.052-1.579-1.71-.658-.658-1.447-1.316-1.71-1.711-.79-.789-.527-.658.263 0 .789.658 1.842 1.711 2.632 2.632-.264-.263 0 0 .394.395.395.394.658.789.79.789.131-.132.263-.263-1.842-2.632-.527-.657.131-.131.131-.131-2.895-3.29-6.316-6.184-10-8.816-.526-.395-1.184-.658-1.842-1.053-2.105-1.184-4.21-2.105-6.316-2.894a96.747 96.747 0 0 0-12.368-4.079c-3.947-1.053-7.895-1.579-11.447-1.842-3.553-.264-6.974-.264-9.869.131-.789.132-1.447.132-2.105.263l-1.974.395a34.46 34.46 0 0 0-1.71.395h-.132c1.184-.263 2.368-.395 3.553-.527 3.289-.263 6.71-.131 10.131.132 1.711.132 3.421.263 5.132.526 1.71.132 3.421.395 5 .658 3.289.658 6.447 1.711 9.474 3.027 3.026 1.315 6.052 3.026 8.947 4.868 2.895 1.842 5.789 3.684 8.421 5.79 5.395 4.078 10.526 8.684 14.079 14.605.263.263.263.526.395.658-1.448-2.895-3.29-5.263-4.737-7.106z" opacity=".5"/>
    </g>
    <g fill="#6C98E3" opacity=".5">
        <path d="M465.263 308.684l.132.132c-.132 0-.132-.132-.132-.132zM379.605 292.105s.132 0 0 0c.132-.131.132-.131 0 0zM458.684 301.316c-.658-.658.658.526 0 0-.526-.79-1.71-1.974-2.368-2.632-.527-.658.789.527.263-.263-.263-.395-1.053-1.184-1.974-1.842-.789-.79-1.71-1.447-1.973-1.711-1.053-.921-.658-.657.263 0 .921.658 2.237 1.843 3.289 2.764-.526-.658 1.316 1.315 1.316 1.184 0 0 .132-.132-.132-.527-.263-.394-.789-1.052-2.105-2.368-.658-.658.132-.132.132-.132-1.974-1.973-4.211-3.684-6.579-5.263-2.369-1.579-5-2.894-7.632-3.947-5.395-2.105-11.052-3.29-16.447-3.947a162.432 162.432 0 0 0-14.474-1.053 58.824 58.824 0 0 0-12.895 1.053c3.29-.921 6.579-1.448 9.869-1.711 5.263-.526 10.658-.263 15.921.526 5.263.79 10.526 1.974 15.789 3.553.264.132.527.132.658.132-2.368-.79-4.737-1.448-6.447-1.974-.658-.132.658 0 0-.132-.526-.131-1.711-.526-2.369-.658-.526-.263.658 0 .132-.263-.131 0-.263-.131-.395-.131-.789-.263-1.71-.395-2.5-.527-2.368-.526-4.736-.921-6.973-1.052-.527 0-1.053-.132-1.711-.132l-.921-.131h-.789c-.527 0-1.185-.132-1.711-.132h-1.71c-2.237 0-4.343 0-6.448.132-1.052.131-2.105.131-3.026.263-1.053.131-1.974.263-2.895.394-3.816.658-7.105 1.711-10 2.895-2.895 1.184-5.131 2.632-6.974 3.948-.394.263-.921.657-1.315.921-.395.263-.79.658-1.053.921a18.683 18.683 0 0 0-1.579 1.447l-.526.526c-.132.132-.263.395-.395.527 0 0 .132-.132.263-.132.263-.395.658-.789 1.053-1.184-.395.395-.658.789-.921 1.184.263-.131.526-.395.921-.658.131-.131.263-.131.395-.263l.263-.263c.658-.526 1.316-1.053 1.842-1.447l-.132.131c-.131 0-.131.132-.263.263-.263.263-.658.527-.921.79l-.132.131c.132 0 .132-.131.264-.131l1.579-1.184c-.527.394-1.053.657-1.448 1.052.132-.131.395-.263.526-.263.395-.263.79-.395 1.185-.658.394-.263.921-.395 1.316-.658a42.307 42.307 0 0 1 7.105-2.763c2.895-.789 6.052-1.316 9.737-1.71a68.49 68.49 0 0 1 11.579.131c.526 0 1.052.132 1.578.132.527.131 1.053.131 1.579.263l.79.131.789.132c.527.132 1.053.132 1.579.263.264 0 .527.132.79.132 1.316.131 2.763.263 4.079.526 7.763 1.053 15.395 3.026 22.237 6.711 3.421 1.842 6.447 4.21 9.342 6.842 2.894 2.631 5.526 5.526 8.158 8.552.263.395.526.527.526.658-2.763-2.895-5.132-5.526-6.974-7.368zm-74.342-12.895c-.395.263-.789.526-1.184.921.526-.395.921-.789 1.447-1.053l1.185-.789a6.169 6.169 0 0 1 1.315-.658v.132c-.789.263-1.842.789-2.763 1.447z" opacity=".5"/>
    </g>
    <g fill="#6C98E3" opacity=".5">
        <path d="M465.526 336.447c.132.264.263.395.395.395-1.447-1.842-3.026-3.552-4.21-4.868-.395-.395.526.394.131-.132-.395-.395-1.184-1.316-1.579-1.71-.263-.527.526.263.263-.264-.263-.526-1.973-2.236-2.368-2.631-.526-.658-.395-.526.131 0 .527.526 1.316 1.447 1.974 2.105-.395-.526.79.921.79.79.131-.132.263-.132-1.185-2.106-.394-.526.132-.131.132-.131-2.237-2.763-4.868-5.527-7.632-8.027-.921-.921-1.973-1.842-3.026-2.763l.79.658a194.803 194.803 0 0 0 6.447 4.605c2.105 1.579 4.342 3.158 6.316 4.869l.263.263c-.526-.526-1.053-1.053-1.447-1.71l-.395-.395-.395-.395-.789-.921c-.527-.658-1.185-1.184-1.711-1.711a43.83 43.83 0 0 0-3.684-3.289 42.668 42.668 0 0 0-3.816-3.026c-1.316-.921-2.632-1.842-3.947-2.632-2.763-1.579-5.527-2.895-8.29-3.816-1.447-.394-2.763-.921-4.21-1.184-1.316-.263-2.632-.526-3.948-.526-2.5-.263-4.868-.132-6.842.131-1.973.263-3.684.79-5.131 1.316-.264.132-.527.132-.658.263 1.184-.263 2.368-.394 3.552-.526 1.974-.132 4.079 0 6.053.263-1.053-.131-1.974-.131-2.895-.131s-2.105-.132-3.289 0c-1.184 0-2.237.263-2.763.526.658-.132 1.184-.263 1.842-.395-.921.132-1.842.395-2.763.658-.79.263-1.448.658-2.106 1.053h.132c.263-.132.526-.395.789-.527.658-.394 1.448-.658 1.974-.789v.131c-.526.132-1.316.395-1.974.658-.263.132-.526.263-.658.395.79-.132 1.711-.395 3.027-.526 2.763-.263 6.71-.263 11.184.789 1.053.263 2.237.658 3.421 1.053 1.184.395 2.368.921 3.421 1.447.263.132.658.263.921.395l.263.132h.132l.395.263c1.315.526 2.5 1.052 3.684 1.71a20.805 20.805 0 0 1 3.158 1.974c1.052.789 1.973 1.579 2.894 2.368l5.922 5.132c4.21 3.421 8.026 6.842 11.315 10.789zm-25.921-24.868s0-.132 0 0c-.658-.526-.394-.395 0 0 .263 0 .395.132.658.263-.263-.131-.395-.263-.658-.263zm3.816 1.579c-.526-.263-.921-.395-1.447-.658l-.527-.526c.79.394 1.579.789 2.369 1.316.263.131.526.263.658.394-.263-.131-.658-.395-1.053-.526zM465.921 336.974s.132.131 0 0c.132.131 0 0 0 0z" opacity=".5"/>
    </g>
    <path fill="url(#J)" d="M502.368 401.184h-30.131c-3.553 0-6.448-2.631-6.974-6.052l-8.026-55.395h58.158l-6.185 55.131c-.263 3.685-3.289 6.316-6.842 6.316z"/>
    <path fill="#B3CDFA" d="M510.658 383.947L515 345.132h-56.842l.526 4.21 51.974 34.605z" opacity=".57"/>
    <path fill="url(#K)" d="M519.342 337.237h-65.789v8.947h65.789v-8.947z"/>
    <g opacity=".5">
        <path fill="#FBFCFE" d="M241.184 429.868c120.34 0 217.895-8.777 217.895-19.605 0-10.828-97.555-19.605-217.895-19.605s-217.895 8.777-217.895 19.605c0 10.828 97.555 19.605 217.895 19.605z" opacity=".024"/>
        <path fill="#F8FAFE" d="M241.184 429.474c117.579 0 212.895-8.601 212.895-19.211 0-10.61-95.316-19.21-212.895-19.21-117.578 0-212.895 8.6-212.895 19.21 0 10.61 95.317 19.211 212.895 19.211z" opacity=".049"/>
        <path fill="#F4F7FD" d="M241.184 429.079c114.817 0 207.895-8.424 207.895-18.816s-93.078-18.816-207.895-18.816c-114.817 0-207.895 8.424-207.895 18.816s93.078 18.816 207.895 18.816z" opacity=".073"/>
        <path fill="#F1F5FC" d="M444.079 410.263c0 10.132-90.79 18.29-202.895 18.29s-202.895-8.158-202.895-18.29c0-10.131 90.79-18.289 202.895-18.289 111.974 0 202.895 8.158 202.895 18.289z" opacity=".098"/>
        <path fill="#EDF2FC" d="M439.079 410.263c0 9.869-88.553 17.895-197.895 17.895-109.342 0-197.895-8.026-197.895-17.895 0-9.868 88.553-17.895 197.895-17.895 109.342 0 197.895 8.027 197.895 17.895z" opacity=".122"/>
        <path fill="#E9F0FB" d="M434.079 410.263c0 9.605-86.316 17.369-192.895 17.369-106.579 0-192.895-7.764-192.895-17.369s86.316-17.368 192.895-17.368c106.579 0 192.895 7.763 192.895 17.368z" opacity=".146"/>
        <path fill="#E6EDFA" d="M429.079 410.263c0 9.342-84.079 16.974-187.895 16.974-103.816 0-187.895-7.632-187.895-16.974s84.079-16.974 187.895-16.974c103.816 0 187.895 7.632 187.895 16.974z" opacity=".171"/>
        <path fill="#E2EBFA" d="M424.079 410.263c0 9.079-81.842 16.447-182.895 16.447-101.052 0-182.895-7.368-182.895-16.447 0-9.079 81.843-16.447 182.895-16.447 101.053-.132 182.895 7.368 182.895 16.447z" opacity=".195"/>
        <path fill="#DFE8F9" d="M419.079 410.263c0 8.816-79.605 16.053-177.895 16.053-98.289 0-177.895-7.237-177.895-16.053s79.606-16.052 177.895-16.052c98.29 0 177.895 7.105 177.895 16.052z" opacity=".22"/>
        <path fill="#DBE6F8" d="M241.184 425.921c95.487 0 172.895-7.01 172.895-15.658 0-8.647-77.408-15.658-172.895-15.658-95.487 0-172.895 7.011-172.895 15.658 0 8.648 77.408 15.658 172.895 15.658z" opacity=".244"/>
        <path fill="#D8E3F7" d="M409.079 410.263c0 8.421-75.132 15.132-167.895 15.132s-167.895-6.842-167.895-15.132c0-8.421 75.132-15.131 167.895-15.131s167.895 6.71 167.895 15.131z" opacity=".268"/>
        <path fill="#D4E1F7" d="M404.079 410.263c0 8.158-72.895 14.737-162.895 14.737-90 0-162.895-6.579-162.895-14.737 0-8.158 72.895-14.737 162.895-14.737 90 0 162.895 6.579 162.895 14.737z" opacity=".293"/>
        <path fill="#D0DEF6" d="M399.079 410.263c0 7.895-70.658 14.211-157.895 14.211-87.237 0-157.895-6.448-157.895-14.211 0-7.895 70.658-14.21 157.895-14.21 87.237 0 157.895 6.315 157.895 14.21z" opacity=".317"/>
        <path fill="#CDDCF5" d="M394.079 410.263c0 7.632-68.421 13.816-152.895 13.816s-152.895-6.184-152.895-13.816c0-7.631 68.421-13.816 152.895-13.816s152.895 6.185 152.895 13.816z" opacity=".342"/>
        <path fill="#C9D9F5" d="M389.079 410.263c0 7.369-66.184 13.421-147.895 13.421-81.71 0-147.895-5.921-147.895-13.421 0-7.368 66.185-13.421 147.895-13.421 81.711 0 147.895 6.053 147.895 13.421z" opacity=".366"/>
        <path fill="#C6D7F4" d="M384.079 410.263c0 7.105-63.947 12.895-142.895 12.895-78.947 0-142.895-5.79-142.895-12.895 0-7.105 63.948-12.895 142.895-12.895 78.948 0 142.895 5.79 142.895 12.895z" opacity=".39"/>
        <path fill="#C2D4F3" d="M241.184 422.763c76.23 0 138.026-5.596 138.026-12.5 0-6.903-61.796-12.5-138.026-12.5-76.23 0-138.026 5.597-138.026 12.5 0 6.904 61.796 12.5 138.026 12.5z" opacity=".415"/>
        <path fill="#BED2F3" d="M241.184 422.237c73.469 0 133.026-5.361 133.026-11.974s-59.557-11.974-133.026-11.974c-73.468 0-133.026 5.361-133.026 11.974s59.558 11.974 133.026 11.974z" opacity=".439"/>
        <path fill="#BBCFF2" d="M369.21 410.263c0 6.316-57.236 11.579-128.026 11.579-70.658 0-128.026-5.131-128.026-11.579 0-6.316 57.237-11.579 128.026-11.579 70.658 0 128.026 5.132 128.026 11.579z" opacity=".463"/>
        <path fill="#B7CDF1" d="M364.21 410.263c0 6.184-55 11.053-123.026 11.053s-123.026-5-123.026-11.053c0-6.184 55-11.052 123.026-11.052s123.026 4.868 123.026 11.052z" opacity=".488"/>
        <path fill="#B4CAF1" d="M359.21 410.263c0 5.921-52.763 10.658-118.026 10.658s-118.026-4.737-118.026-10.658c0-5.921 52.763-10.658 118.026-10.658s118.026 4.737 118.026 10.658z" opacity=".512"/>
        <path fill="#B0C8F0" d="M354.21 410.263c0 5.658-50.526 10.263-113.026 10.263-62.368 0-113.026-4.605-113.026-10.263 0-5.658 50.526-10.263 113.026-10.263 62.369 0 113.026 4.605 113.026 10.263z" opacity=".537"/>
        <path fill="#ADC5EF" d="M349.21 410.263c0 5.395-48.421 9.737-108.026 9.737s-108.026-4.342-108.026-9.737c0-5.395 48.421-9.737 108.026-9.737s108.026 4.342 108.026 9.737z" opacity=".561"/>
        <path fill="#A9C3EF" d="M344.21 410.263c0 5.132-46.184 9.342-103.026 9.342s-103.026-4.21-103.026-9.342c0-5.131 46.184-9.342 103.026-9.342s103.026 4.211 103.026 9.342z" opacity=".585"/>
        <path fill="#A5C0EE" d="M339.21 410.263c0 4.869-43.947 8.816-98.026 8.816-54.079 0-98.026-3.947-98.026-8.816 0-4.868 43.947-8.816 98.026-8.816 54.079 0 98.026 3.948 98.026 8.816z" opacity=".61"/>
        <path fill="#A2BEED" d="M334.21 410.263c0 4.605-41.71 8.421-93.026 8.421-51.316 0-93.026-3.816-93.026-8.421 0-4.605 41.71-8.421 93.026-8.421 51.316 0 93.026 3.816 93.026 8.421z" opacity=".634"/>
        <path fill="#9EBBED" d="M329.21 410.263c0 4.342-39.473 7.895-88.026 7.895-48.684 0-88.026-3.553-88.026-7.895s39.474-7.895 88.026-7.895c48.553-.131 88.026 3.553 88.026 7.895z" opacity=".658"/>
        <path fill="#9BB9EC" d="M324.21 410.263c0 4.079-37.236 7.5-83.026 7.5-45.921 0-83.026-3.421-83.026-7.5 0-4.079 37.237-7.5 83.026-7.5 45.79 0 83.026 3.29 83.026 7.5z" opacity=".683"/>
        <path fill="#97B6EB" d="M319.21 410.263c0 3.948-35 7.105-78.026 7.105-43.026 0-78.026-3.157-78.026-7.105 0-3.947 35-7.105 78.026-7.105 43.026 0 78.026 3.158 78.026 7.105z" opacity=".707"/>
        <path fill="#93B4EB" d="M314.21 410.263c0 3.684-32.763 6.579-73.026 6.579-40.395 0-73.026-2.895-73.026-6.579 0-3.684 32.763-6.579 73.026-6.579 40.395 0 73.026 2.895 73.026 6.579z" opacity=".732"/>
        <path fill="#90B1EA" d="M309.21 410.263c0 3.421-30.526 6.184-68.026 6.184-37.631 0-68.026-2.763-68.026-6.184 0-3.421 30.526-6.184 68.026-6.184 37.632 0 68.026 2.763 68.026 6.184z" opacity=".756"/>
        <path fill="#8CAFE9" d="M304.21 410.263c0 3.158-28.289 5.658-63.026 5.658-34.868 0-63.026-2.5-63.026-5.658 0-3.158 28.289-5.658 63.026-5.658 34.869 0 63.026 2.5 63.026 5.658z" opacity=".78"/>
        <path fill="#89ACE8" d="M299.21 410.263c0 2.895-26.052 5.263-58.026 5.263-32.105 0-58.026-2.368-58.026-5.263S209.21 405 241.184 405c32.105 0 58.026 2.368 58.026 5.263z" opacity=".805"/>
        <path fill="#85AAE8" d="M294.21 410.263c0 2.632-23.815 4.737-53.026 4.737-29.342 0-53.026-2.105-53.026-4.737 0-2.631 23.816-4.737 53.026-4.737 29.342-.131 53.026 2.106 53.026 4.737z" opacity=".829"/>
        <path fill="#82A7E7" d="M289.211 410.263c0 2.369-21.579 4.342-48.158 4.342s-48.158-1.973-48.158-4.342c0-2.368 21.579-4.342 48.158-4.342 26.71 0 48.158 1.974 48.158 4.342z" opacity=".854"/>
        <path fill="#7EA5E6" d="M284.21 410.263c0 2.105-19.342 3.947-43.157 3.947-23.816 0-43.158-1.71-43.158-3.947 0-2.105 19.342-3.947 43.158-3.947 23.947 0 43.157 1.842 43.157 3.947z" opacity=".878"/>
        <path fill="#7AA2E6" d="M279.342 410.263c0 1.842-17.105 3.421-38.158 3.421-21.052 0-38.158-1.579-38.158-3.421 0-1.842 17.106-3.421 38.158-3.421 21.053 0 38.158 1.447 38.158 3.421z" opacity=".902"/>
        <path fill="#77A0E5" d="M274.342 410.263c0 1.711-14.868 3.026-33.158 3.026-18.289 0-33.158-1.315-33.158-3.026 0-1.71 14.869-3.026 33.158-3.026 18.29 0 33.158 1.316 33.158 3.026z" opacity=".927"/>
        <path fill="#739DE4" d="M269.342 410.263c0 1.448-12.632 2.5-28.158 2.5-15.526 0-28.158-1.184-28.158-2.5 0-1.447 12.632-2.5 28.158-2.5 15.526 0 28.158 1.053 28.158 2.5z" opacity=".951"/>
        <path fill="#709BE4" d="M264.342 410.263c0 1.184-10.395 2.105-23.158 2.105-12.763 0-23.158-.921-23.158-2.105s10.395-2.105 23.158-2.105c12.763 0 23.158.921 23.158 2.105z" opacity=".976"/>
        <path fill="#6C98E3" d="M259.342 410.263c0 .921-8.158 1.579-18.158 1.579-10 0-18.158-.789-18.158-1.579 0-.921 8.158-1.579 18.158-1.579 10-.131 18.158.658 18.158 1.579z" opacity=".5"/>
    </g>
    <path fill="#6C98E3" d="M57.895 200.526H105l37.105 119.342h-63.42l-20.79-119.342z"/>
    <path fill="url(#L)" d="M83.684 327.105l-12.368 87.632 4.342.131 22.895-90.526H83.947l-.263 2.763z"/>
    <path fill="url(#M)" d="M174.342 327.105l12.237 87.632-4.342.131-22.763-90.526h14.605l.263 2.763z"/>
    <path fill="#B3CDFA" d="M178.158 314.211h-63.29c-17.5 0-32.763-11.974-36.842-29.079l-20.131-84.606h-9.21l21.71 110.921c1.842 9.079 9.737 15.658 19.079 15.658h95v-6.71c-.132-3.421-2.895-6.184-6.316-6.184z"/>
    <path fill="#FFCEBD" d="M226.579 393.158l-12.763 3.816-1.316-4.342s1.974-6.448-5.132-17.106c-1.842-2.763 12.764-3.815 12.764-3.815s-.395 10.263 7.5 14.079c1.71.789-1.053 7.368-1.053 7.368z"/>
    <path fill="#A58877" d="M213.816 396.974l8.421-2.5a45.49 45.49 0 0 1-2.895-4.079c-3.553-5.527-6.184-11.316-8.289-17.369-2.632.658-4.474 1.448-3.816 2.632 7.105 10.658 5.131 17.105 5.131 17.105l1.448 4.211z" opacity=".4"/>
    <path fill="url(#N)" d="M101.842 302.105L185 316.447s-1.974 16.185 8.158 37.764c3.552 7.5 11.184 18.684 16.974 34.473l16.052-5.131-19.737-94.342c-1.052-4.474-4.868-7.764-9.342-8.027l-64.868-6.447-30.395 27.368z"/>
    <path fill="#6C98E3" d="M199.868 319.605c-1.052-4.473-2.631-9.342-6.315-11.973-3.158-2.237-7.106-2.632-10.921-3.027a181.47 181.47 0 0 1-54.211-14.868l-11.711 15L185 316.579s-1.974 16.184 8.158 37.763c3.552 7.5 11.184 18.684 16.974 34.474l6.842-2.237c-11.185-20-11.711-44.474-17.106-66.974z" opacity=".2"/>
    <path fill="#FFCEBD" d="M170 403.289l-12.763-3.947-1.053-3.947s5.658-3.027 7.632-17.5c.526-3.29 12.763 3.947 12.763 3.947s-4.737 5.921-3.29 13.553c.395 2.105-3.289 7.894-3.289 7.894z"/>
    <path fill="#A58877" d="M163.816 377.895c-2.105 14.473-7.632 17.5-7.632 17.5l1.053 3.947L170 403.289s.263-.394.658-.921c-.395-1.184 0-3.026-1.184-3.552-7.895-3.29-1.579-13.816-.658-20.79-2.632-1.052-4.869-1.447-5-.131z" opacity=".4"/>
    <path fill="url(#O)" d="M79.605 274.737v15.658c0 13.552 10.921 24.473 24.474 24.473h77.5c-7.632 9.079-15.263 19.606-15.79 30.658-1.315 25.132-6.052 40.263-6.052 40.263l16.184 4.737 33.289-83.289c4.869-12.237-4.078-25.658-17.368-25.658H131.71l.395-6.974h-52.5v.132z"/>
    <path fill="#231F20" d="M154.868 395.395l-4.21 10.789v8.553h52.5v-2.369c0-2.105-1.448-3.947-3.553-4.473l-8.421-1.974-17.631-10.526h-1.185l-.394.658c-1.053 1.579-2.764 2.5-4.606 2.5h-5.921c-2.105 0-4.079-1.185-5-3.158h-1.579z"/>
    <path fill="#fff" d="M150.526 410.263v4.605h52.5V412.5c0-.789-.263-1.579-.526-2.237h-51.974z"/>
    <path fill="#231F20" d="M210.789 393.421l.658 11.579 3.553 7.763 48.816-21.184-.921-2.105c-.921-1.974-3.027-3.027-5-2.632l-8.553 1.711-21.447-2.895-1.053.395-.132 1.842c-.131 1.316-.921 2.5-2.236 3.026l-7.237 3.158c-1.711.658-3.684.132-4.605-1.447l-1.843.789z"/>
    <path fill="#fff" d="M213.026 408.684l1.842 4.211 48.816-21.184-.921-2.106a3.63 3.63 0 0 0-1.447-1.71l-48.29 20.789z"/>
    <path fill="#6C98E3" d="M188.553 315.658c-1.711-4.737-6.316-7.763-11.053-9.079-4.737-1.316-9.868-1.184-14.737-1.316-9.868-.131-19.868-1.316-29.474-3.552-7.894-1.711-15.657-4.211-22.236-8.816-6.185-4.342-11.185-10.79-12.5-18.158H79.605v15.658c0 13.552 10.921 24.473 24.474 24.473h77.5c-7.632 9.079-15.263 19.606-15.79 30.658-1.315 25.132-6.052 40.263-6.052 40.263l8.289 2.5c0-5.789.921-11.842 1.842-17.631 1.711-10.395 3.553-21.053 8.948-30 4.868-7.895 12.894-16.184 9.737-25z" opacity=".2"/>
    <path fill="#fff" d="M125 183.947l12.368 3.027c5 1.184 9.474 4.079 12.764 7.894l14.473 18.421-7.894 18.158-12.5-8.947-2.895 8.158-1.842 14.21a138.61 138.61 0 0 0-.79 27.632v5s-49.737 14.211-62.5.526l4.869-65 26.447-29.473 17.5.394z"/>
    <path fill="#6C98E3" d="M100.395 247.632c.394-6.843.526-13.553-2.632-19.869-1.316-2.631-3.026-5-3.816-7.895-.526-2.105-.657-4.21-1.052-6.315-.395-2.106-1.448-4.211-3.29-5.395-2.237-1.316-4.079-.263-5.395 1.316-.526.526-3.026 3.026-3.026 3.684 0 .526-4.868 65-4.868 65 5 5.395 15.526 6.447 26.579 5.789-1.184-10.263-3.421-20.658-2.763-31.052 0-1.711.131-3.553.263-5.263z" opacity=".2"/>
    <path fill="#FFCEBD" d="M72.237 231.579l5.131 18.947c.921 3.29 4.08 5.395 7.5 5.132l56.842-4.342 31.053 5.789c1.184.263 1.974-1.184 1.184-2.105l-1.052-1.184-13.158-9.079c-.658-.526-1.448-.79-2.237-.921l-15.79-2.105-50.263-2.895-.263-8.421-18.947 1.184z"/>
    <path fill="#fff" d="M107.632 181.711l-3.948.263c-8.026.394-15.79 2.763-22.763 6.842-10 5.921-15.132 17.631-12.5 28.947l3.29 14.079 19.342-1.184 15.131-33.553c0-.131 6.448-12.5 1.448-15.394z"/>
    <path fill="#FFCEBD" d="M100 163.553s1.184 14.079.395 25.921c-.395 4.473 2.894 8.421 7.368 9.079 4.737.658 8.948-2.764 9.474-7.369.658-6.184 1.974-13.816 4.342-15.526L100 163.553z"/>
    <path fill="#A58877" d="M100 163.553s1.184 14.079.395 25.921c-.395 4.473 2.894 8.421 7.368 9.079a3.774 3.774 0 0 0 1.711 0c-.263-.527-.527-1.185-.658-1.711-1.316-4.474.658-9.474-.527-13.947-.789-3.158-3.026-5.921-4.078-9.079-.79-2.632-.527-5.263-.132-7.895L100 163.553z" opacity=".4"/>
    <path fill="#FFCEBD" d="M127.5 148.947a10.908 10.908 0 0 0-1.053-3.684c-.263-.658-3.552-6.842-3.815-6.842l-.658.395c-4.342-3.158-10.395-3.421-15.264-1.316-4.868 2.105-8.684 6.447-10.789 11.316-2.895 6.973-2.5 15.263 1.184 21.973 3.684 6.579 10.658 11.316 18.158 12.369 3.026.395 6.448.132 8.421-2.105a12.791 12.791 0 0 0 1.974-3.158c2.763-5.658 5.131-12.369 1.842-18.421-.526-1.053-1.316-1.974-1.316-3.158-.131-1.448.658-2.763 1.053-4.079.395-1.053.395-2.105.263-3.29z"/>
    <path fill="#6C98E3" d="M71.71 231.711l9.211-.527v-.263c-1.053-7.895-5.79-14.868-6.316-22.763-.395-6.579 2.105-12.895 5.395-18.684-9.342 6.052-13.947 17.368-11.447 28.289l3.157 13.948z" opacity=".2"/>
    <path fill="#A58877" d="M141.71 251.316l30.658 5.658c0-.658-.263-1.448-.658-1.974-1.578-2.368-5-2.368-7.763-2.368-3.815-.132-7.631-.658-11.315-1.843-3.816-1.052-7.369-2.631-11.316-3.421-5.263-1.052-10.658-.789-16.053-.394-7.237.526-14.474.921-21.842 1.447-3.947.263-7.895.526-11.71-.395-3.816-.921-7.5-3.158-9.211-6.579-1.579-3.158-1.316-6.842-1.71-10.394l-8.553.526 5.131 18.947c.921 3.29 4.08 5.395 7.5 5.132l56.842-4.342zM126.316 156.316c-.132-1.448.658-2.763 1.052-4.079.264-1.053.264-2.105.132-3.29a10.908 10.908 0 0 0-1.053-3.684c-.263-.658-3.552-6.842-3.815-6.842l-.658.395c-2.237-1.579-4.869-2.5-7.5-2.632l-6.185 9.211c.264 2.368 2.369 3.816 4.474 4.737 2.632 1.184 5.263 2.236 7.895 3.684.658.395 1.316.789 1.842 1.316.526.657.658 1.579.921 2.368.395 1.053.921 1.974 1.579 2.895.789.921 1.974 2.105 1.316 3.289-.263.527-.79.79-1.184 1.184-1.448 1.448-1.448 3.685-1.053 5.658.395 1.842.789 4.737 2.105 6.185 3.29-4.606 4.079-12.369 1.448-17.237-.527-.921-1.185-1.974-1.316-3.158z" opacity=".4"/>
    <path fill="#231F20" d="M134.868 138.684c-2.368-3.947-7.894-6.579-11.579-7.763-1.447-.526-3.026-.789-4.473-1.053-3.027-.657-6.053-.921-9.079-.921-4.079-.131-8.553.132-11.184 3.158-1.185 1.316-1.974.132-3.553.263a5.53 5.53 0 0 0-3.553 1.843c-1.447 1.578-2.105 3.815-2.631 5.921-1.58 6.447-2.237 13.157-1.184 19.736.789 4.606 2.368 9.211 5.131 13.027 1.316 1.973 6.184 8.552 9.079 5.263 1.053-1.184.395-3.026-.395-4.605-1.579-3.421-2.763-7.369-1.842-10.921.132-.658.263-1.185.79-1.711.526-.526 1.447-.658 2.237-.526.789.131 1.447.658 1.973 1.184 1.448 1.316 2.369 3.026 2.632 4.868.789 5.264-6.842 10.921-.132 14.869 3.027 1.71 7.895 2.5 11.316 2.5 3.553-.132 8.553-.527 11.184-3.29 2.763-2.894 2.106-9.473 1.053-13.026-.132-.395-.263-.658-.395-1.053a3.594 3.594 0 0 0-1.579-1.184c-5.526-1.974-7.237 5.79-12.368 5-2.5-.395-3.948-3.552-5.132-5.395-1.71-2.631-3.289-5.394-4.21-8.421-.79-2.5-.921-5.658.921-7.5 3.684-3.684 8.947 1.053 12.894 1.974 2.895.658 6.053.658 8.816-.395 2.763-1.052 5.132-3.421 5.921-6.315.658-2.106.263-3.948-.658-5.527z"/>
    <path fill="url(#P)" d="M79.21 263.026L52.5 414.868h4.605l38.027-152.894-15.922 1.052z"/>
    <path fill="url(#Q)" d="M361.579 263.026l26.842 151.842h-4.737l-38.026-152.894 15.921 1.052z"/>
    <path fill="url(#R)" d="M417.5 271.579H23.684v7.237H417.5v-7.237z"/>
    <path fill="#fff" d="M23.684 271.579l29.474-15.658h375L417.5 271.579H23.684z"/>
    <path fill="url(#S)" d="M417.368 278.816l10.79-15.132v-7.763L417.5 271.579l-.132 7.237z"/>
    <path fill="#FFCEBD" d="M164.737 213.421l8.816 10.658 39.473 24.605L225 250.921l7.368 5.132-16.579.394c-1.579 0-2.763 1.316-2.631 2.895l.131 1.447 1.053.395c1.711.658 2.763 2.237 2.763 4.079v1.448l-5.395-2.237c-1.184-.527-2.105-1.448-2.5-2.763l-1.973-7.237-42.5-15.263-7.895-7.632 7.895-18.158z"/>
    <path fill="#A58877" d="M209.21 258.947c-.394-1.052-.263-2.236-.263-3.421a7.134 7.134 0 0 0-.789-3.289c-.921-1.579-3.158-2.763-4.605-3.684-2.106-1.316-4.343-2.5-6.579-3.421-5.395-1.974-10.658-5-16.316-6.185-1.711-.394-3.29-.658-5-1.052-1.448-.395-3.026-.921-4.474-1.316-1.316-.395-2.5-.921-3.684-1.711-3.158-2.236-3.947-6.71-6.184-10-.263-.526-.658-.921-1.053-1.315l-3.553 8.026 7.895 7.632 42.5 15.263 1.974 7.237c.395 1.315 1.316 2.236 2.5 2.763l5.395 2.237v-1.448-.658c-1.316-.658-2.764-1.184-4.079-1.842-1.579-.789-3.158-1.974-3.685-3.816z" opacity=".4"/>
    <path fill="#6C98E3" d="M142.763 220.789c-1.184 1.053-1.842 2.764-1.974 4.343-.131 1.579.132 3.289.658 4.736 0 .132.132.264.132.395l2.763-7.631 12.5 8.947 3.553-8.026a20.119 20.119 0 0 0-2.369-2.369c-1.184-1.052-2.368-1.973-3.816-2.368-2.236-.79-4.605-.527-6.842 0-1.842.395-3.421.921-4.605 1.973z" opacity=".4"/>
    <path fill="#231F20" d="M122.105 268.947c-2.895 0-3.158-1.184-.658-2.5l15.263-8.026c2.632-1.316 7.106-2.5 10-2.5h39.869c2.895 0 3.158 1.053.658 2.5l-15.395 8.158c-2.632 1.316-7.105 2.5-10 2.5h-39.737v-.132z"/>
    <path fill="#2D2B2B" d="M187.368 255.921c-.263.132-.526.263-.789.526l-15.395 8.158c-2.631 1.316-7.105 2.5-10 2.5h-40.526c-1.711 1.184-1.184 1.974 1.447 1.974h39.737c2.895 0 7.5-1.053 10-2.5l15.395-8.158c2.368-1.316 2.237-2.368.131-2.5z"/>
    <path fill="#3A3C4E" d="M131.579 262.763c-.132 0-.263 0-.263-.131-.132-.132 0-.395.131-.395l3.948-2.105c.131-.132.394 0 .394.131.132.132 0 .395-.131.395l-3.948 2.105h-.131z"/>
    <path fill="url(#T)" d="M54.342 256.842H50.79a5.896 5.896 0 0 1-5.92-5.921 5.897 5.897 0 0 1 5.92-5.921h2.369v2.5h-2.369c-1.842 0-3.42 1.579-3.42 3.421 0 1.842 1.578 3.421 3.42 3.421h3.553v2.5z"/>
    <path fill="url(#U)" d="M73.947 243.026H51.974v6.711c0 4.737 1.842 9.342 5 12.763v3.289h11.973V262.5c3.158-3.421 5-8.026 5-12.763v-6.711z"/>
    <path fill="#fff" d="M69.342 243.026v6.711c0 4.737-1.842 9.342-5 12.763v3.289h2.632V262.5c3.157-3.421 5-8.026 5-12.763v-6.711h-2.632z" opacity=".29"/>
    <path fill="url(#V)" d="M336.053 212.632h-41.842v48.289h41.842v-48.289z"/>
    <path fill="url(#W)" d="M328.684 212.632h-35.921v50.789h35.921v-50.789z"/>
    <path fill="url(#X)" d="M389.868 232.237H235.921c-5.658 0-10.921-2.895-14.079-7.5l-1.974-3.027 23.553-108.026c.921-5.526 5.658-9.737 11.316-9.737L410 100.658l6.053 5.658c2.105 1.973 3.026 4.737 2.5 7.5L401.184 222.5c-.789 5.658-5.658 9.737-11.316 9.737z"/>
    <path fill="#1449A8" d="M383.026 226.184H226.974c-4.869 0-8.685-4.342-7.895-9.21l17.5-109.342c.921-5.527 5.658-9.737 11.316-9.737h156.052c4.869 0 8.685 4.342 7.895 9.21l-17.5 109.342c-.789 5.658-5.658 9.737-11.316 9.737z"/>
    <path fill="url(#Y)" d="M219.079 216.842c-.79 4.869 3.026 9.211 7.895 9.211h156.052c5.658 0 10.527-4.079 11.316-9.737l2.763-17.237H221.974l-2.895 17.763z"/>
    <path fill="url(#Z)" d="M350.263 255.263h-91.579v8.29h91.579v-8.29z"/>
    <path fill="url(#aa)" d="M350.263 263.553h11.184v-8.29h-11.184v8.29z"/>
    <path fill="#26C6DA" d="M254.079 102.5c-1.974 8.026-9.869 14.474-17.895 14.474s-12.895-6.448-10.921-14.474c1.974-8.026 9.869-14.474 17.895-14.474 7.895 0 12.763 6.448 10.921 14.474z"/>
    <path fill="#00B2BF" d="M248.684 89.342c3.026 2.632 4.474 6.974 3.29 11.842-1.974 8.027-9.869 14.474-17.895 14.474-2.105 0-4.079-.526-5.658-1.316 1.974 1.711 4.605 2.632 7.632 2.632 8.026 0 16.052-6.448 17.894-14.474 1.448-5.921-.789-10.921-5.263-13.158z"/>
    <path fill="#fff" d="M236.316 108.289l-3.816-5 3.553-2.894 1.579 2.237L245 96.579l2.237 2.895-10.921 8.815z"/>
    <g fill="#fff" opacity=".1">
        <path d="M253.553 116.842h-5.527l.527-3.421h5.657l-.657 3.421zM252.237 125.789h-5.658l.526-3.421h5.658l-.526 3.421zM250.789 134.605h-5.658l.658-3.421h5.527l-.527 3.421zM249.342 143.553h-5.526l.526-3.421h5.526l-.526 3.421zM247.895 152.368h-5.527l.527-3.421h5.526l-.526 3.421zM246.447 161.316h-5.526l.526-3.421h5.658l-.658 3.421zM245.132 170.132h-5.658l.526-3.421h5.658l-.526 3.421zM243.684 179.079h-5.658l.658-3.421h5.526l-.526 3.421zM242.237 187.895h-5.527l.527-3.421h5.526l-.526 3.421zM397.368 116.842h-5.526l.526-3.421h5.527l-.527 3.421zM395.921 125.789h-5.526l.526-3.421h5.526l-.526 3.421zM394.474 134.605h-5.527l.527-3.421h5.657l-.657 3.421zM393.158 143.553H387.5l.526-3.421h5.658l-.526 3.421zM391.71 152.368h-5.658l.658-3.421h5.527l-.527 3.421zM390.263 161.316h-5.526l.526-3.421h5.526l-.526 3.421zM388.816 170.132h-5.527l.527-3.421h5.526l-.526 3.421zM387.5 179.079h-5.658l.526-3.421h5.658l-.526 3.421zM386.052 187.895h-5.657l.526-3.421h5.658l-.527 3.421zM389.868 116.842h-15.921l.527-3.421h15.921l-.527 3.421zM388.421 125.789H372.5l.526-3.421h15.921l-.526 3.421zM386.974 134.605h-15.922l.527-3.421H387.5l-.526 3.421zM385.526 143.553h-15.921l.527-3.421h16.052l-.658 3.421zM384.21 152.368h-15.921l.527-3.421h15.921l-.527 3.421zM382.763 161.316h-15.921l.526-3.421h15.921l-.526 3.421zM381.316 170.132h-15.921l.526-3.421h15.921l-.526 3.421zM379.868 179.079h-15.921l.527-3.421h15.921l-.527 3.421zM378.421 187.895H362.5l.658-3.421h15.921l-.658 3.421zM361.447 116.842h-59.868l.526-3.421h59.869l-.527 3.421zM356.579 125.789h-73.158l.526-3.421h73.158l-.526 3.421zM355.395 134.605h-67.369l.527-3.421h67.368l-.526 3.421zM346.974 143.553h-76.711l.526-3.421h76.842l-.657 3.421zM354.737 152.368h-64.606l.658-3.421h64.474l-.526 3.421zM343.026 161.316h-67.763l.526-3.421h67.895l-.658 3.421zM336.974 170.132H264.21l.527-3.421H337.5l-.526 3.421zM351.447 179.079h-65l.527-3.421h65l-.527 3.421zM348.026 187.895h-77.5l.527-3.421h77.5l-.527 3.421zM299.868 116.842h-41.579l.527-3.421h41.579l-.527 3.421zM281.71 125.789h-24.868l.526-3.421h24.869l-.527 3.421zM286.053 134.605h-30.527l.527-3.421h30.526l-.526 3.421zM268.158 143.553h-14.079l.526-3.421h14.079l-.526 3.421zM288.158 152.368h-35.527l.527-3.421h35.526l-.526 3.421zM273.553 161.316h-22.369l.526-3.421h22.369l-.526 3.421zM262.105 170.132h-12.368l.658-3.421h12.368l-.658 3.421zM284.737 179.079h-36.316l.526-3.421h36.316l-.526 3.421zM268.421 187.895h-21.447l.526-3.421h21.447l-.526 3.421z" opacity=".1"/>
    </g>
    <path fill="url(#ab)" d="M334.737 182.895h-73.684c-2.5 0-4.211-2.106-3.816-4.606l9.868-63.157c.395-2.5 2.763-4.606 5.263-4.606h73.685c2.5 0 4.21 2.106 3.815 4.606L340 178.289c-.263 2.632-2.632 4.606-5.263 4.606z"/>
    <path fill="#B3CDFA" d="M347.368 110.789c.132.527.264 1.185.132 1.843l-9.868 63.157c-.395 2.5-2.764 4.606-5.264 4.606h-73.684c-.395 0-.921-.132-1.184-.263.526 1.579 1.842 2.631 3.684 2.631h73.684c2.5 0 4.869-2.105 5.264-4.605L350 115c.263-1.842-.79-3.553-2.632-4.211z"/>
    <path fill="url(#ac)" d="M348.421 125.395L350 115.263c.395-2.5-1.316-4.605-3.816-4.605H272.5c-2.5 0-4.868 2.105-5.263 4.605l-1.579 10.132h82.763z"/>
    <path fill="#7CADE3" d="M347.763 111.053l-.263 1.315v.395l-1.974 12.369 2.632 1.71L350 115.263c.263-1.974-.658-3.552-2.237-4.21z"/>
    <path fill="#E3EDFE" d="M277.237 118.026c-.132.658-.79 1.316-1.448 1.316-.657 0-1.184-.526-1.052-1.316.131-.658.789-1.315 1.447-1.315.79 0 1.184.657 1.053 1.315z"/>
    <path fill="#fff" d="M282.763 118.026c-.132.658-.789 1.316-1.447 1.316s-1.184-.526-1.053-1.316c.132-.658.79-1.315 1.447-1.315.658 0 1.185.657 1.053 1.315z"/>
    <path fill="#E3EDFE" d="M282.763 118.026c-.132.658-.789 1.316-1.447 1.316s-1.184-.526-1.053-1.316c.132-.658.79-1.315 1.447-1.315.658 0 1.185.657 1.053 1.315zM288.289 118.026c-.131.658-.789 1.316-1.447 1.316s-1.184-.526-1.053-1.316c.132-.658.79-1.315 1.448-1.315.658 0 1.184.657 1.052 1.315z"/>
    <path fill="#C2D7FB" d="M324.474 163.158H279.21l.395-2.763h45.263l-.394 2.763zM323.158 170.921h-45.132l.395-2.763h45.132l-.395 2.763z"/>
    <path fill="url(#ad)" d="M409.079 184.737l-22.105.263c-3.158 0-5.658-2.763-5.132-5.921l3.816-22.895c.526-2.763 2.895-4.868 5.789-4.868l22.106-.263c3.158 0 5.658 2.763 5.131 5.921l-3.816 22.894c-.526 2.764-2.894 4.869-5.789 4.869z"/>
    <path fill="#B3CDFA" d="M416.053 151.711c.526.921.789 2.105.526 3.289l-3.816 22.895c-.526 2.763-2.895 4.868-5.789 4.868l-22.106.263c-.921 0-1.842-.263-2.5-.658.921 1.579 2.5 2.632 4.474 2.632l22.105-.263c2.895 0 5.263-2.105 5.79-4.869l3.816-22.894c.394-2.237-.658-4.342-2.5-5.263z"/>
    <path fill="url(#ae)" d="M408.158 166.842c-.526-.131-.921-.658-1.053-1.184-.131-.526.132-1.184.527-1.711.394-.526.526-1.315.131-1.71v-.132c-.395-.526-1.052-.658-1.579-.263-.658.263-1.316.263-1.842 0s-.789-.789-.921-1.447c0-.658-.526-1.053-1.184-1.053h-.132c-.658 0-1.316.395-1.579.921-.263.658-.789 1.053-1.447 1.316-.658.263-1.184.132-1.711-.132-.526-.394-1.184-.263-1.71.132l-.132.132c-.526.394-.789 1.184-.658 1.71a2.374 2.374 0 0 1-.263 1.842 3.594 3.594 0 0 1-1.579 1.184 1.69 1.69 0 0 0-1.315 1.316v.132c-.132.658.131 1.184.789 1.447.526.132.921.658 1.053 1.184.131.527-.132 1.184-.527 1.711-.394.526-.526 1.316-.131 1.71v.132c.394.526 1.052.658 1.579.263.658-.263 1.315-.263 1.842 0 .526.263.789.79.921 1.447 0 .658.526 1.053 1.184 1.053h.132c.657 0 1.184-.395 1.579-.921.263-.658.789-1.053 1.447-1.316.658-.263 1.184-.131 1.71.132.527.395 1.185.263 1.711-.132l.132-.131c.526-.395.789-1.185.657-1.711a2.38 2.38 0 0 1 .264-1.842c.394-.658.921-.921 1.579-1.184a1.69 1.69 0 0 0 1.315-1.316v-.132c0-.657-.263-1.184-.789-1.447zm-7.105-3.026c1.184 0 1.973.921 1.71 2.105-.263 1.184-1.316 2.105-2.5 2.105s-1.974-.921-1.71-2.105c.263-1.184 1.315-2.105 2.5-2.105zm1.973 8.026c0 .132-.263.395-.394.395h-6.185c-.131 0-.263-.132-.263-.395l.132-.526c.263-1.448 1.579-2.5 3.026-2.632H401.316c1.447 0 2.368 1.184 2.105 2.632l-.395.526z"/>
    <path fill="url(#af)" d="M238.553 181.184l-22.106.263c-3.158 0-5.658-2.763-5.131-5.921l3.816-22.894c.526-2.764 2.894-4.869 5.789-4.869l22.105-.263c3.158 0 5.658 2.763 5.132 5.921l-3.816 22.895c-.526 2.763-2.895 4.868-5.789 4.868z"/>
    <path fill="#274187" d="M245.658 148.158c.526.921.789 2.105.526 3.289l-3.816 22.895c-.526 2.763-2.894 4.869-5.789 4.869l-22.105.263c-.921 0-1.842-.264-2.5-.658.921 1.579 2.5 2.631 4.473 2.631l22.106-.263c2.894 0 5.263-2.105 5.789-4.868l3.816-22.895c.395-2.237-.79-4.21-2.5-5.263z"/>
    <path fill="url(#ag)" d="M430 136.184h-56.711c-2.5 0-4.342-2.105-3.947-4.605l5.263-36.71c.395-2.5 2.763-4.606 5.263-4.606h56.711c2.5 0 4.342 2.105 3.947 4.605l-5.263 36.711c-.395 2.632-2.763 4.605-5.263 4.605z"/>
    <path fill="#B3CDFA" d="M438.684 91.053c.395.79.658 1.71.526 2.631l-5.263 36.711c-.394 2.5-2.763 4.605-5.263 4.605h-56.71c-.79 0-1.448-.263-2.106-.526.658 1.184 1.842 1.842 3.421 1.842H430c2.5 0 4.868-2.105 5.263-4.605L440.526 95c.263-1.71-.526-3.158-1.842-3.947z"/>
    <path fill="#26C6DA" d="M413.553 107.632l.263-1.185c.658-5.921-3.553-8.684-7.632-8.684-3.158 0-5.921.921-7.895 2.632-1.842 1.579-2.894 3.552-3.421 6.052l-.263 1.185c-.789.131-1.447.789-1.579 1.447l-.658 3.553c-.131.789.395 1.447 1.185 1.447l-.132.921c0 .263.132.526.395.526h7.5c.263 0 .526-.263.658-.526 0-.263-.132-.526-.395-.526h-6.974l.132-.527c.658-.263 1.184-.789 1.316-1.447l.658-3.553c.131-.658-.264-1.315-.922-1.447l.264-1.184c.394-2.237 1.315-3.948 2.894-5.263 1.711-1.448 4.342-2.369 7.106-2.369 3.684 0 7.368 2.369 6.71 7.632l-.263 1.184c-.658.132-1.316.789-1.447 1.447l-.658 3.553c-.132.789.394 1.447 1.315 1.447h.395c.921 0 1.711-.658 1.842-1.447l.658-3.553c.132-.526-.395-1.184-1.052-1.315zM407.5 116.842c-.395.395-.921.921-1.316 1.184-1.447 1.053-2.895 1.711-4.342 1.711-1.447 0-2.631-.526-3.684-1.711-.395-.394-.658-.789-.921-1.184-1.579.79-3.026 2.105-3.684 3.816l-.921 2.631v.395c.131.132.263.263.394.263h16.185c.131 0 .394-.131.394-.263.132-.131.263-.263.132-.395v-2.631c.131-1.579-.79-3.026-2.237-3.816z"/>
    <path fill="#26C6DA" d="M401.184 116.842h-2.5c.132.132.263.395.395.526.789.921 1.842 1.448 3.026 1.448 1.184 0 2.369-.527 3.553-1.448 2.368-1.842 4.342-5.131 4.868-8.026.658-3.947-1.71-7.237-5.394-7.237-3.685 0-7.237 3.158-8.027 7.237-.263 1.316-.131 2.763.132 4.211h4.473c.922 0 1.579.789 1.316 1.579-.131.921-.921 1.71-1.842 1.71zM305.789 130.526c-6.973 0-13.552 5.658-14.736 12.5-1.185 6.974 3.421 12.5 10.263 12.5 6.842 0 13.552-5.658 14.737-12.5 1.315-6.973-3.29-12.5-10.264-12.5zm-3.815 21.053c-1.053 0-1.711-.79-1.448-1.711.132-.921 1.053-1.71 2.106-1.71.921 0 1.71.789 1.447 1.71-.132.921-1.053 1.711-2.105 1.711zm4.473-10.132c-.394.264-.658.527-.921.658-.526.395-.526.395-.658.658l-.526 3.29h-2.763l.526-3.29c.263-1.447.921-1.974 2.5-3.026.658-.395.921-.658.921-1.316.132-.921-.263-1.447-1.052-1.447-1.053 0-1.448.789-1.579 1.315l-.132.658H300l.132-.789c.526-2.237 2.368-3.816 4.736-3.816 2.369 0 3.816 1.579 3.29 3.947 0 1.579-.658 2.5-1.711 3.158z"/>
    <path fill="#fff" d="M229.605 156.316c-3.815 0-7.5 3.158-8.158 6.973-.394 1.974.132 3.685 1.185 4.869l-2.369 1.974H227.105c3.816 0 7.5-3.158 8.158-6.974.79-3.684-1.842-6.842-5.658-6.842zm.527 2.631l-1.185 5.921H227.5l.79-5.921h1.842zm-1.579 8.421c-.264.132-.395.264-.79.264-.263 0-.526-.132-.658-.264-.131-.131-.131-.394-.131-.657 0-.264.131-.527.394-.658.264-.132.395-.264.79-.264.263 0 .526.132.658.264.131.131.131.394.131.658-.131.263-.263.394-.394.657z"/>
    <defs>
        <linearGradient id="a" x1="116.877" x2="319.768" y1="267.38" y2="267.38" gradientUnits="userSpaceOnUse">
            <stop stop-color="#E3EDFE"/>
            <stop offset="1" stop-color="#BFD5FB"/>
        </linearGradient>
        <linearGradient id="b" x1="179.618" x2="202.327" y1="190.515" y2="190.515" gradientUnits="userSpaceOnUse">
            <stop stop-color="#E3EDFE"/>
            <stop offset="1" stop-color="#BFD5FB"/>
        </linearGradient>
        <linearGradient id="c" x1="383.463" x2="411.98" y1="310.603" y2="310.603" gradientUnits="userSpaceOnUse">
            <stop stop-color="#E3EDFE"/>
            <stop offset="1" stop-color="#BFD5FB"/>
        </linearGradient>
        <linearGradient id="d" x1="379.923" x2="415.52" y1="294.512" y2="294.512" gradientUnits="userSpaceOnUse">
            <stop stop-color="#E3EDFE"/>
            <stop offset="1" stop-color="#BFD5FB"/>
        </linearGradient>
        <linearGradient id="e" x1="85.503" x2="190.662" y1="116.756" y2="116.756" gradientUnits="userSpaceOnUse">
            <stop stop-color="#E3EDFE"/>
            <stop offset="1" stop-color="#BFD5FB"/>
        </linearGradient>
        <linearGradient id="f" x1="460.713" x2="545.186" y1="51.988" y2="199.524" gradientUnits="userSpaceOnUse">
            <stop stop-color="#E3EDFE"/>
            <stop offset="1" stop-color="#BFD5FB"/>
        </linearGradient>
        <linearGradient id="g" x1="36.69" x2="73.381" y1="304.363" y2="304.363" gradientUnits="userSpaceOnUse">
            <stop stop-color="#E3EDFE"/>
            <stop offset="1" stop-color="#BFD5FB"/>
        </linearGradient>
        <linearGradient id="h" x1="34.296" x2="75.775" y1="286.239" y2="286.239" gradientUnits="userSpaceOnUse">
            <stop stop-color="#E3EDFE"/>
            <stop offset="1" stop-color="#BFD5FB"/>
        </linearGradient>
        <linearGradient id="i" x1="221.011" x2="236.647" y1="210.518" y2="210.518" gradientUnits="userSpaceOnUse">
            <stop stop-color="#E3EDFE"/>
            <stop offset="1" stop-color="#BFD5FB"/>
        </linearGradient>
        <linearGradient id="j" x1="240.493" x2="251.828" y1="213.863" y2="213.863" gradientUnits="userSpaceOnUse">
            <stop stop-color="#E3EDFE"/>
            <stop offset="1" stop-color="#BFD5FB"/>
        </linearGradient>
        <linearGradient id="k" x1="34.791" x2="63.969" y1="53.274" y2="53.274" gradientUnits="userSpaceOnUse">
            <stop stop-color="#E3EDFE"/>
            <stop offset="1" stop-color="#D9E6FC"/>
        </linearGradient>
        <linearGradient id="l" x1="51.652" x2="80.83" y1="66.028" y2="66.028" gradientUnits="userSpaceOnUse">
            <stop stop-color="#E3EDFE"/>
            <stop offset="1" stop-color="#D9E6FC"/>
        </linearGradient>
        <linearGradient id="m" x1="68.639" x2="106.901" y1="161.086" y2="161.086" gradientUnits="userSpaceOnUse">
            <stop stop-color="#E3EDFE"/>
            <stop offset="1" stop-color="#D9E6FC"/>
        </linearGradient>
        <linearGradient id="n" x1="12.733" x2="50.995" y1="196.621" y2="196.621" gradientUnits="userSpaceOnUse">
            <stop stop-color="#E3EDFE"/>
            <stop offset="1" stop-color="#D9E6FC"/>
        </linearGradient>
        <linearGradient id="o" x1="70.745" x2="99.923" y1="53.274" y2="53.274" gradientUnits="userSpaceOnUse">
            <stop stop-color="#E3EDFE"/>
            <stop offset="1" stop-color="#D9E6FC"/>
        </linearGradient>
        <linearGradient id="p" x1="150.417" x2="179.595" y1="39.906" y2="39.906" gradientUnits="userSpaceOnUse">
            <stop stop-color="#E3EDFE"/>
            <stop offset="1" stop-color="#D9E6FC"/>
        </linearGradient>
        <linearGradient id="q" x1="169.51" x2="198.688" y1="27.152" y2="27.152" gradientUnits="userSpaceOnUse">
            <stop stop-color="#E3EDFE"/>
            <stop offset="1" stop-color="#D9E6FC"/>
        </linearGradient>
        <linearGradient id="r" x1="389.164" x2="418.342" y1="241.043" y2="241.043" gradientUnits="userSpaceOnUse">
            <stop stop-color="#E3EDFE"/>
            <stop offset="1" stop-color="#D9E6FC"/>
        </linearGradient>
        <linearGradient id="s" x1="408.257" x2="437.435" y1="228.289" y2="228.289" gradientUnits="userSpaceOnUse">
            <stop stop-color="#E3EDFE"/>
            <stop offset="1" stop-color="#D9E6FC"/>
        </linearGradient>
        <linearGradient id="t" x1="379.036" x2="408.214" y1="82.873" y2="82.873" gradientUnits="userSpaceOnUse">
            <stop stop-color="#E3EDFE"/>
            <stop offset="1" stop-color="#D9E6FC"/>
        </linearGradient>
        <linearGradient id="u" x1="398.129" x2="427.307" y1="70.118" y2="70.118" gradientUnits="userSpaceOnUse">
            <stop stop-color="#E3EDFE"/>
            <stop offset="1" stop-color="#D9E6FC"/>
        </linearGradient>
        <linearGradient id="v" x1="394.623" x2="417.223" y1="160.696" y2="160.696" gradientUnits="userSpaceOnUse">
            <stop stop-color="#E3EDFE"/>
            <stop offset="1" stop-color="#D9E6FC"/>
        </linearGradient>
        <linearGradient id="w" x1="407.683" x2="430.283" y1="170.575" y2="170.575" gradientUnits="userSpaceOnUse">
            <stop stop-color="#E3EDFE"/>
            <stop offset="1" stop-color="#D9E6FC"/>
        </linearGradient>
        <linearGradient id="x" x1="422.471" x2="445.071" y1="160.696" y2="160.696" gradientUnits="userSpaceOnUse">
            <stop stop-color="#E3EDFE"/>
            <stop offset="1" stop-color="#D9E6FC"/>
        </linearGradient>
        <linearGradient id="y" x1="472.526" x2="504.413" y1="233.801" y2="233.801" gradientUnits="userSpaceOnUse">
            <stop stop-color="#E3EDFE"/>
            <stop offset="1" stop-color="#D9E6FC"/>
        </linearGradient>
        <linearGradient id="z" x1="490.953" x2="522.84" y1="247.739" y2="247.739" gradientUnits="userSpaceOnUse">
            <stop stop-color="#E3EDFE"/>
            <stop offset="1" stop-color="#D9E6FC"/>
        </linearGradient>
        <linearGradient id="A" x1="511.819" x2="543.706" y1="233.801" y2="233.801" gradientUnits="userSpaceOnUse">
            <stop stop-color="#E3EDFE"/>
            <stop offset="1" stop-color="#D9E6FC"/>
        </linearGradient>
        <linearGradient id="B" x1="379.462" x2="485.659" y1="323.904" y2="323.904" gradientUnits="userSpaceOnUse">
            <stop stop-color="#E3EDFE"/>
            <stop offset="1" stop-color="#B3CDFA"/>
        </linearGradient>
        <linearGradient id="C" x1="397.893" x2="486.08" y1="321.359" y2="321.359" gradientUnits="userSpaceOnUse">
            <stop stop-color="#E3EDFE"/>
            <stop offset="1" stop-color="#B3CDFA"/>
        </linearGradient>
        <linearGradient id="D" x1="437.272" x2="487.751" y1="302.762" y2="302.762" gradientUnits="userSpaceOnUse">
            <stop stop-color="#E3EDFE"/>
            <stop offset="1" stop-color="#B3CDFA"/>
        </linearGradient>
        <linearGradient id="E" x1="462.221" x2="490.519" y1="308.388" y2="308.388" gradientUnits="userSpaceOnUse">
            <stop stop-color="#E3EDFE"/>
            <stop offset="1" stop-color="#B3CDFA"/>
        </linearGradient>
        <linearGradient id="F" x1="493.256" x2="489.669" y1="358.458" y2="247.566" gradientUnits="userSpaceOnUse">
            <stop stop-color="#B3CDFA"/>
            <stop offset="1" stop-color="#E3EDFE"/>
        </linearGradient>
        <linearGradient id="G" x1="482.668" x2="520.663" y1="313.037" y2="313.037" gradientUnits="userSpaceOnUse">
            <stop stop-color="#B3CDFA"/>
            <stop offset="1" stop-color="#E3EDFE"/>
        </linearGradient>
        <linearGradient id="H" x1="485.799" x2="573.016" y1="318.362" y2="318.362" gradientUnits="userSpaceOnUse">
            <stop stop-color="#B3CDFA"/>
            <stop offset="1" stop-color="#E3EDFE"/>
        </linearGradient>
        <linearGradient id="I" x1="414.591" x2="486.315" y1="339.493" y2="339.493" gradientUnits="userSpaceOnUse">
            <stop stop-color="#E3EDFE"/>
            <stop offset="1" stop-color="#B3CDFA"/>
        </linearGradient>
        <linearGradient id="J" x1="457.336" x2="515.557" y1="370.496" y2="370.496" gradientUnits="userSpaceOnUse">
            <stop stop-color="#E3EDFE"/>
            <stop offset="1" stop-color="#B3CDFA"/>
        </linearGradient>
        <linearGradient id="K" x1="453.538" x2="519.356" y1="341.738" y2="341.738" gradientUnits="userSpaceOnUse">
            <stop stop-color="#E3EDFE"/>
            <stop offset="1" stop-color="#B3CDFA"/>
        </linearGradient>
        <linearGradient id="L" x1="92.943" x2="70.575" y1="316.581" y2="418.884" gradientUnits="userSpaceOnUse">
            <stop stop-color="#111C3A"/>
            <stop offset="1" stop-color="#3457B4"/>
        </linearGradient>
        <linearGradient id="M" x1="180.417" x2="158.048" y1="335.707" y2="438.01" gradientUnits="userSpaceOnUse">
            <stop stop-color="#111C3A"/>
            <stop offset="1" stop-color="#3457B4"/>
        </linearGradient>
        <linearGradient id="N" x1="101.898" x2="226.253" y1="331.761" y2="331.761" gradientUnits="userSpaceOnUse">
            <stop offset=".369" stop-color="#2842A2"/>
            <stop offset=".71" stop-color="#3051AF"/>
            <stop offset="1" stop-color="#3457B4"/>
        </linearGradient>
        <linearGradient id="O" x1="122.318" x2="202.582" y1="264.586" y2="376.429" gradientUnits="userSpaceOnUse">
            <stop stop-color="#2842A2"/>
            <stop offset="1" stop-color="#6C98E3"/>
        </linearGradient>
        <linearGradient id="P" x1="86.098" x2="58.028" y1="267.654" y2="399.233" gradientUnits="userSpaceOnUse">
            <stop stop-color="#111C3A"/>
            <stop offset="1" stop-color="#3457B4"/>
        </linearGradient>
        <linearGradient id="Q" x1="354.065" x2="390.907" y1="264.39" y2="413.513" gradientUnits="userSpaceOnUse">
            <stop stop-color="#111C3A"/>
            <stop offset="1" stop-color="#3457B4"/>
        </linearGradient>
        <linearGradient id="R" x1="23.62" x2="417.426" y1="275.171" y2="275.171" gradientUnits="userSpaceOnUse">
            <stop stop-color="#E3EDFE"/>
            <stop offset="1" stop-color="#B3CDFA"/>
        </linearGradient>
        <linearGradient id="S" x1="417.426" x2="428.1" y1="267.327" y2="267.327" gradientUnits="userSpaceOnUse">
            <stop stop-color="#E3EDFE"/>
            <stop offset="1" stop-color="#B3CDFA"/>
        </linearGradient>
        <linearGradient id="T" x1="44.87" x2="54.4" y1="250.935" y2="250.935" gradientUnits="userSpaceOnUse">
            <stop offset=".004" stop-color="#2842A2"/>
            <stop offset=".337" stop-color="#3754B0"/>
            <stop offset="1" stop-color="#5175C9"/>
        </linearGradient>
        <linearGradient id="U" x1="52.032" x2="73.901" y1="254.394" y2="254.394" gradientUnits="userSpaceOnUse">
            <stop offset=".004" stop-color="#2842A2"/>
            <stop offset=".337" stop-color="#3754B0"/>
            <stop offset="1" stop-color="#5175C9"/>
        </linearGradient>
        <linearGradient id="V" x1="294.199" x2="336.011" y1="236.837" y2="236.837" gradientUnits="userSpaceOnUse">
            <stop stop-color="#2842A2"/>
            <stop offset="1" stop-color="#6C98E3"/>
        </linearGradient>
        <linearGradient id="W" x1="292.781" x2="328.735" y1="238.107" y2="238.107" gradientUnits="userSpaceOnUse">
            <stop offset=".004" stop-color="#E3EDFE"/>
            <stop offset=".269" stop-color="#F1F6FF"/>
            <stop offset=".604" stop-color="#FCFDFF"/>
            <stop offset="1" stop-color="#fff"/>
        </linearGradient>
        <linearGradient id="X" x1="219.802" x2="418.732" y1="166.427" y2="166.427" gradientUnits="userSpaceOnUse">
            <stop stop-color="#2842A2"/>
            <stop offset="1" stop-color="#6C98E3"/>
        </linearGradient>
        <linearGradient id="Y" x1="219.018" x2="397.179" y1="212.683" y2="212.683" gradientUnits="userSpaceOnUse">
            <stop offset=".004" stop-color="#E3EDFE"/>
            <stop offset=".269" stop-color="#F1F6FF"/>
            <stop offset=".604" stop-color="#FCFDFF"/>
            <stop offset="1" stop-color="#fff"/>
        </linearGradient>
        <linearGradient id="Z" x1="258.651" x2="350.29" y1="259.371" y2="259.371" gradientUnits="userSpaceOnUse">
            <stop offset=".004" stop-color="#E3EDFE"/>
            <stop offset=".524" stop-color="#EFF5FE"/>
            <stop offset="1" stop-color="#fff"/>
        </linearGradient>
        <linearGradient id="aa" x1="350.29" x2="361.419" y1="259.371" y2="259.371" gradientUnits="userSpaceOnUse">
            <stop offset=".004" stop-color="#E3EDFE"/>
            <stop offset=".524" stop-color="#EFF5FE"/>
            <stop offset="1" stop-color="#fff"/>
        </linearGradient>
        <linearGradient id="ab" x1="257.191" x2="341.717" y1="146.781" y2="173.272" gradientUnits="userSpaceOnUse">
            <stop stop-color="#E9F1FE"/>
            <stop offset="1" stop-color="#fff"/>
        </linearGradient>
        <linearGradient id="ac" x1="265.546" x2="350.018" y1="118.02" y2="118.02" gradientUnits="userSpaceOnUse">
            <stop stop-color="#2842A2"/>
            <stop offset="1" stop-color="#6C98E3"/>
        </linearGradient>
        <linearGradient id="ad" x1="381.841" x2="418.71" y1="167.96" y2="167.96" gradientUnits="userSpaceOnUse">
            <stop stop-color="#E9F1FE"/>
            <stop offset="1" stop-color="#fff"/>
        </linearGradient>
        <linearGradient id="ae" x1="391.645" x2="408.905" y1="167.96" y2="167.96" gradientUnits="userSpaceOnUse">
            <stop stop-color="#2842A2"/>
            <stop offset="1" stop-color="#6C98E3"/>
        </linearGradient>
        <linearGradient id="af" x1="211.335" x2="248.205" y1="164.471" y2="164.471" gradientUnits="userSpaceOnUse">
            <stop stop-color="#3457B4"/>
            <stop offset=".222" stop-color="#3A5EB9"/>
            <stop offset=".552" stop-color="#4C72C8"/>
            <stop offset=".947" stop-color="#6893DF"/>
            <stop offset="1" stop-color="#6C98E3"/>
        </linearGradient>
        <linearGradient id="ag" x1="369.312" x2="435.161" y1="113.332" y2="132.158" gradientUnits="userSpaceOnUse">
            <stop stop-color="#EEF4FE"/>
            <stop offset="1" stop-color="#fff"/>
        </linearGradient>
    </defs>
</svg>
