<svg width="32" height="33" viewBox="0 0 32 33" fill="none" xmlns="http://www.w3.org/2000/svg">
<mask id="mask0" mask-type="alpha" maskUnits="userSpaceOnUse" x="0" y="0" width="32" height="33">
<path fill-rule="evenodd" clip-rule="evenodd" d="M0 0.0664062H31.9899V32.7823H0V0.0664062Z" fill="white"/>
</mask>
<g mask="url(#mask0)">
<path fill-rule="evenodd" clip-rule="evenodd" d="M15.995 0.0664062C11.651 0.0664062 11.1063 0.0852391 9.40025 0.164856C7.69778 0.244279 6.53505 0.520861 5.51765 0.925312C4.46584 1.34334 3.57384 1.90273 2.68457 2.81223C1.79537 3.72179 1.24844 4.63414 0.839746 5.70995C0.444317 6.75056 0.173905 7.93982 0.096254 9.68114C0.0184127 11.4261 0 11.9832 0 16.4263C0 20.8694 0.0184127 21.4265 0.096254 23.1715C0.173905 24.9128 0.444317 26.102 0.839746 27.1426C1.24844 28.2185 1.79537 29.1308 2.68457 30.0404C3.57384 30.9499 4.46584 31.5093 5.51765 31.9274C6.53505 32.3317 7.69778 32.6083 9.40025 32.6877C11.1063 32.7674 11.651 32.7862 15.995 32.7862C20.3389 32.7862 20.8836 32.7674 22.5897 32.6877C24.2921 32.6083 25.4549 32.3317 26.4723 31.9274C27.5241 31.5093 28.4161 30.9499 29.3053 30.0404C30.1945 29.1308 30.7415 28.2185 31.1502 27.1426C31.5456 26.102 31.816 24.9128 31.8937 23.1715C31.9715 21.4265 31.9899 20.8694 31.9899 16.4263C31.9899 11.9832 31.9715 11.4261 31.8937 9.68114C31.816 7.93982 31.5456 6.75056 31.1502 5.70995C30.7415 4.63414 30.1945 3.72179 29.3053 2.81223C28.4161 1.90273 27.5241 1.34334 26.4723 0.925312C25.4549 0.520861 24.2921 0.244279 22.5897 0.164856C20.8836 0.0852391 20.3389 0.0664062 15.995 0.0664062ZM15.9949 3.01485C20.2656 3.01485 20.7715 3.03154 22.4582 3.11024C24.0176 3.18298 24.8646 3.4495 25.4282 3.67354C26.1748 3.97032 26.7076 4.32483 27.2673 4.89735C27.827 5.4698 28.1736 6.01478 28.4638 6.77842C28.6829 7.3549 28.9434 8.22114 29.0145 9.81622C29.0915 11.5413 29.1078 12.0587 29.1078 16.427C29.1078 20.7953 29.0915 21.3127 29.0145 23.0378C28.9434 24.6329 28.6829 25.4991 28.4638 26.0756C28.1736 26.8392 27.827 27.3842 27.2673 27.9567C26.7076 28.5292 26.1748 28.8837 25.4282 29.1805C24.8646 29.4045 24.0176 29.6711 22.4582 29.7438C20.7718 29.8225 20.266 29.8392 15.9949 29.8392C11.7237 29.8392 11.2179 29.8225 9.53149 29.7438C7.97199 29.6711 7.12507 29.4045 6.56145 29.1805C5.81485 28.8837 5.28203 28.5292 4.72234 27.9567C4.16266 27.3842 3.81599 26.8392 3.52584 26.0756C3.30679 25.4991 3.04622 24.6329 2.97511 23.0378C2.89815 21.3127 2.88184 20.7953 2.88184 16.427C2.88184 12.0587 2.89815 11.5413 2.97511 9.81622C3.04622 8.22114 3.30679 7.3549 3.52584 6.77842C3.81599 6.01478 4.1626 5.4698 4.72234 4.89735C5.28203 4.32483 5.81485 3.97032 6.56145 3.67354C7.12507 3.4495 7.97199 3.18298 9.53149 3.11024C11.2181 3.03154 11.724 3.01485 15.9949 3.01485Z" fill="white"/>
</g>
<path fill-rule="evenodd" clip-rule="evenodd" d="M15.9948 21.88C13.0501 21.88 10.6631 19.4385 10.6631 16.4268C10.6631 13.415 13.0501 10.9734 15.9948 10.9734C18.9393 10.9734 21.3264 13.415 21.3264 16.4268C21.3264 19.4385 18.9393 21.88 15.9948 21.88ZM15.9949 8.02612C11.4586 8.02612 7.78125 11.7874 7.78125 16.4272C7.78125 21.0669 11.4586 24.8282 15.9949 24.8282C20.5312 24.8282 24.2085 21.0669 24.2085 16.4272C24.2085 11.7874 20.5312 8.02612 15.9949 8.02612Z" fill="white"/>
<path fill-rule="evenodd" clip-rule="evenodd" d="M26.4526 7.69393C26.4526 8.77818 25.5932 9.65709 24.5331 9.65709C23.4731 9.65709 22.6138 8.77818 22.6138 7.69393C22.6138 6.60969 23.4731 5.73071 24.5331 5.73071C25.5932 5.73071 26.4526 6.60969 26.4526 7.69393Z" fill="white"/>
</svg>
