<svg width="32" height="36" viewBox="0 0 32 36" fill="none" xmlns="http://www.w3.org/2000/svg">
<mask id="mask0" mask-type="alpha" maskUnits="userSpaceOnUse" x="0" y="0" width="32" height="36">
<path fill-rule="evenodd" clip-rule="evenodd" d="M0 0.454102H31.9899V35.4868H0V0.454102Z" fill="white"/>
</mask>
<g mask="url(#mask0)">
<path fill-rule="evenodd" clip-rule="evenodd" d="M15.995 0.454102C11.651 0.454102 11.1063 0.474268 9.40025 0.559524C7.69778 0.644571 6.53505 0.94074 5.51765 1.37383C4.46584 1.82146 3.57384 2.42047 2.68457 3.39438C1.79537 4.36835 1.24844 5.34531 0.839746 6.4973C0.444317 7.6116 0.173905 8.88508 0.096254 10.7497C0.0184127 12.6182 0 13.2148 0 17.9726C0 22.7303 0.0184127 23.3269 0.096254 25.1954C0.173905 27.06 0.444317 28.3335 0.839746 29.4478C1.24844 30.5998 1.79537 31.5768 2.68457 32.5507C3.57384 33.5246 4.46584 34.1236 5.51765 34.5713C6.53505 35.0044 7.69778 35.3005 9.40025 35.3856C11.1063 35.4708 11.651 35.491 15.995 35.491C20.3389 35.491 20.8836 35.4708 22.5897 35.3856C24.2921 35.3005 25.4549 35.0044 26.4723 34.5713C27.5241 34.1236 28.4161 33.5246 29.3053 32.5507C30.1945 31.5768 30.7415 30.5998 31.1502 29.4478C31.5456 28.3335 31.816 27.06 31.8937 25.1954C31.9715 23.3269 31.9899 22.7303 31.9899 17.9726C31.9899 13.2148 31.9715 12.6182 31.8937 10.7497C31.816 8.88508 31.5456 7.6116 31.1502 6.4973C30.7415 5.34531 30.1945 4.36835 29.3053 3.39438C28.4161 2.42047 27.5241 1.82146 26.4723 1.37383C25.4549 0.94074 24.2921 0.644571 22.5897 0.559524C20.8836 0.474268 20.3389 0.454102 15.995 0.454102ZM15.995 3.61133C20.2658 3.61133 20.7717 3.6292 22.4583 3.71348C24.0178 3.79137 24.8647 4.07676 25.4283 4.31667C26.1749 4.63446 26.7077 5.01408 27.2674 5.62714C27.8272 6.24013 28.1738 6.82371 28.4639 7.64143C28.683 8.25873 28.9435 9.18632 29.0147 10.8943C29.0916 12.7416 29.1079 13.2957 29.1079 17.9733C29.1079 22.6509 29.0916 23.205 29.0147 25.0523C28.9435 26.7603 28.683 27.6879 28.4639 28.3052C28.1738 29.1229 27.8272 29.7065 27.2674 30.3195C26.7077 30.9325 26.1749 31.3121 25.4283 31.6299C24.8647 31.8699 24.0178 32.1552 22.4583 32.2331C20.7719 32.3174 20.2661 32.3353 15.995 32.3353C11.7238 32.3353 11.218 32.3174 9.53161 32.2331C7.97212 32.1552 7.1252 31.8699 6.56158 31.6299C5.81497 31.3121 5.28215 30.9325 4.72247 30.3195C4.16278 29.7065 3.81612 29.1229 3.52596 28.3052C3.30691 27.6879 3.04634 26.7603 2.97523 25.0523C2.89828 23.205 2.88196 22.6509 2.88196 17.9733C2.88196 13.2957 2.89828 12.7416 2.97523 10.8943C3.04634 9.18632 3.30691 8.25873 3.52596 7.64143C3.81612 6.82371 4.16272 6.24013 4.72247 5.62714C5.28215 5.01408 5.81497 4.63446 6.56158 4.31667C7.1252 4.07676 7.97212 3.79137 9.53161 3.71348C11.2182 3.6292 11.7241 3.61133 15.995 3.61133Z" fill="#49566C"/>
</g>
<path fill-rule="evenodd" clip-rule="evenodd" d="M15.9949 23.8128C13.0503 23.8128 10.6632 21.1983 10.6632 17.9733C10.6632 14.7482 13.0503 12.1338 15.9949 12.1338C18.9395 12.1338 21.3265 14.7482 21.3265 17.9733C21.3265 21.1983 18.9395 23.8128 15.9949 23.8128ZM15.9949 8.97754C11.4586 8.97754 7.78125 13.0051 7.78125 17.9735C7.78125 22.9419 11.4586 26.9694 15.9949 26.9694C20.5312 26.9694 24.2085 22.9419 24.2085 17.9735C24.2085 13.0051 20.5312 8.97754 15.9949 8.97754Z" fill="#49566C"/>
<path fill-rule="evenodd" clip-rule="evenodd" d="M26.4526 8.62178C26.4526 9.78282 25.5932 10.724 24.5331 10.724C23.4731 10.724 22.6138 9.78282 22.6138 8.62178C22.6138 7.46075 23.4731 6.51953 24.5331 6.51953C25.5932 6.51953 26.4526 7.46075 26.4526 8.62178Z" fill="#49566C"/>
</svg>
