<svg xmlns="http://www.w3.org/2000/svg" width="110" height="19" fill="none" viewBox="0 0 110 19">
    <mask id="a" width="111" height="19" x="0" y="0" maskUnits="userSpaceOnUse">
        <path fill="#fff" fill-rule="evenodd" d="M0 18.235h110.558V.005H0v18.23z" clip-rule="evenodd"/>
    </mask>
    <g mask="url(#a)">
        <path fill="#26C6DA" d="M27.99.005l10.651 18.244h-8.868v-3.278h3.129l-4.912-8.41-4.912 8.41h3.345v3.278h-9.077L27.99.005z"/>
    </g>
    <mask id="b" width="111" height="19" x="0" y="0" maskUnits="userSpaceOnUse">
        <path fill="#fff" fill-rule="evenodd" d="M0 18.235h110.558V.005H0v18.23z" clip-rule="evenodd"/>
    </mask>
    <g mask="url(#b)">
        <path fill="#252525" d="M70.359 8.051v10.198h-3.963V.005l8.578 6.655v.047L83.566.05V18.25h-3.963V8.104l-4.629 3.59v-.054L70.36 8.051z"/>
    </g>
    <mask id="c" width="111" height="19" x="0" y="0" maskUnits="userSpaceOnUse">
        <path fill="#fff" fill-rule="evenodd" d="M0 18.235h110.558V.005H0v18.23z" clip-rule="evenodd"/>
    </mask>
    <g mask="url(#c)">
        <path fill="#252525" d="M47.3 9.958l-7.26-7.145L42.84.05l6.472 6.37 6.466-6.37 2.8 2.762-7.314 7.198v8.238H47.3V9.96z"/>
    </g>
    <mask id="d" width="111" height="19" x="0" y="0" maskUnits="userSpaceOnUse">
        <path fill="#fff" fill-rule="evenodd" d="M0 18.235h110.558V.005H0v18.23z" clip-rule="evenodd"/>
    </mask>
    <g mask="url(#d)">
        <path fill="#252525" fill-rule="evenodd" d="M9.245.05H0V18.25h3.963v-7.145h5.282c1.547 0 2.873-.544 3.963-1.616 1.097-1.08 1.648-2.384 1.648-3.908 0-1.523-.551-2.827-1.648-3.907C12.118.593 10.792.051 9.245.051zM3.963 7.204V3.95h5.282c.457 0 .848.16 1.164.477.323.318.484.702.484 1.152 0 .45-.161.835-.484 1.153-.316.311-.707.47-1.164.47H3.963z" clip-rule="evenodd"/>
    </g>
    <mask id="e" width="111" height="19" x="0" y="0" maskUnits="userSpaceOnUse">
        <path fill="#fff" fill-rule="evenodd" d="M0 18.235h110.558V.005H0v18.23z" clip-rule="evenodd"/>
    </mask>
    <g mask="url(#e)">
        <path fill="#252525" d="M106.114 12.524c0-2.995-2.007-5.5-4.7-6.13l2.877-5.6c2.775 1.047 4.897 3.526 5.557 6.574a6.32 6.32 0 0 1-.101 2.18c-.458 2.041-1.9 3.619-3.798 4.46a6.72 6.72 0 0 0 .165-1.484z"/>
    </g>
    <mask id="f" width="111" height="19" x="0" y="0" maskUnits="userSpaceOnUse">
        <path fill="#fff" fill-rule="evenodd" d="M0 18.235h110.558V.005H0v18.23z" clip-rule="evenodd"/>
    </mask>
    <g mask="url(#f)">
        <path fill="#677797" d="M98.609 17.794l.47.1c.593.079 1.172.132 1.737.138 5.08-.04 9.184-4.112 9.184-9.119 0-.695-.074-1.364-.222-2.013.094.715.067 1.45-.108 2.179-.848 3.543-4.817 5.688-9.043 5l-2.018 3.715z"/>
    </g>
    <path fill="#26C6DA" d="M100.717 11.707c-1.328 2.264-2.096 3.623-3.222 5.563a9.545 9.545 0 0 1-1.894-.88c-.636-.4-1.251-.886-1.825-1.423a8.633 8.633 0 0 1-1.754-2.47l-.014-.04.007-.012a.583.583 0 0 1-.035-.104c-.217-.757-.454-2.095-.266-3.124.022-.084.042-.175.063-.265.496-1.785 1.804-3.221 3.558-4.114a5.959 5.959 0 0 0-.042.711c0 3.04 2.328 5.576 5.424 6.158z"/>
    <path fill="#1AAABC" d="M103.038.233l-2.16 3.654c-4.299-.452-8.157 1.676-9.1 5.065-.315 1.12.006 2.769.244 3.545a8.439 8.439 0 0 1-.81-3.474 9.393 9.393 0 0 1 1.132-4.308c2.062-3.57 6.458-5.394 10.694-4.482z"/>
</svg>
