<svg xmlns="http://www.w3.org/2000/svg" width="140" height="24" fill="none" viewBox="0 0 140 24">
    <mask id="a" width="141" height="24" x="0" y="0" maskUnits="userSpaceOnUse">
        <path fill="#fff" fill-rule="evenodd" d="M0 23.43h140.71V.006H0v23.426z" clip-rule="evenodd"/>
    </mask>
    <g mask="url(#a)">
        <path fill="#26C6DA" d="M35.623.006L49.18 23.45H37.892v-4.212h3.983L35.623 8.43l-6.251 10.807h4.256v4.212H22.076L35.623.006z"/>
    </g>
    <mask id="b" width="141" height="24" x="0" y="0" maskUnits="userSpaceOnUse">
        <path fill="#fff" fill-rule="evenodd" d="M0 23.43h140.71V.006H0v23.426z" clip-rule="evenodd"/>
    </mask>
    <g mask="url(#b)">
        <path fill="#252525" d="M89.546 10.345V23.45h-5.044V.006l10.919 8.552v.06L106.356.066V23.45h-5.044V10.413l-5.891 4.613v-.069l-5.875-4.612z"/>
    </g>
    <mask id="c" width="141" height="24" x="0" y="0" maskUnits="userSpaceOnUse">
        <path fill="#fff" fill-rule="evenodd" d="M0 23.43h140.71V.006H0v23.426z" clip-rule="evenodd"/>
    </mask>
    <g mask="url(#c)">
        <path fill="#252525" d="M60.2 12.796l-9.24-9.181L54.523.066l8.237 8.186L70.99.066l3.562 3.549-9.308 9.25V23.45H60.2V12.796z"/>
    </g>
    <mask id="d" width="141" height="24" x="0" y="0" maskUnits="userSpaceOnUse">
        <path fill="#fff" fill-rule="evenodd" d="M0 23.43h140.71V.006H0v23.426z" clip-rule="evenodd"/>
    </mask>
    <g mask="url(#d)">
        <path fill="#252525" fill-rule="evenodd" d="M11.766.066H0V23.45h5.044v-9.182h6.722c1.97 0 3.657-.698 5.044-2.076 1.396-1.387 2.098-3.063 2.098-5.02 0-1.958-.702-3.634-2.098-5.021C15.423.764 13.736.066 11.766.066zm-6.722 9.19V5.078h6.722c.582 0 1.08.204 1.482.613.41.408.616.902.616 1.48 0 .58-.206 1.073-.617 1.481-.402.4-.899.604-1.48.604H5.043z" clip-rule="evenodd"/>
    </g>
    <mask id="e" width="141" height="24" x="0" y="0" maskUnits="userSpaceOnUse">
        <path fill="#fff" fill-rule="evenodd" d="M0 23.43h140.71V.006H0v23.426z" clip-rule="evenodd"/>
    </mask>
    <g mask="url(#e)">
        <path fill="#252525" d="M135.053 16.093c0-3.849-2.555-7.068-5.982-7.877l3.662-7.195c3.532 1.345 6.232 4.53 7.073 8.447.113.92.08 1.865-.13 2.802-.582 2.622-2.417 4.649-4.834 5.73a8.68 8.68 0 0 0 .211-1.907z"/>
    </g>
    <mask id="f" width="141" height="24" x="0" y="0" maskUnits="userSpaceOnUse">
        <path fill="#fff" fill-rule="evenodd" d="M0 23.43h140.71V.006H0v23.426z" clip-rule="evenodd"/>
    </mask>
    <g mask="url(#f)">
        <path fill="#677797" d="M125.502 22.865l.6.128c.753.102 1.49.17 2.209.178 6.465-.05 11.689-5.284 11.689-11.717 0-.893-.094-1.753-.282-2.587a7.75 7.75 0 0 1-.138 2.8c-1.079 4.552-6.131 7.31-11.509 6.424l-2.569 4.774z"/>
    </g>
    <path fill="#26C6DA" d="M128.186 15.044c-1.69 2.91-2.668 4.655-4.1 7.148a12.07 12.07 0 0 1-2.411-1.13 15.56 15.56 0 0 1-2.322-1.829 11.084 11.084 0 0 1-2.233-3.175l-.018-.05.009-.016a.759.759 0 0 1-.045-.133c-.275-.973-.578-2.693-.338-4.014.027-.109.054-.225.08-.341.632-2.294 2.296-4.14 4.529-5.287a7.68 7.68 0 0 0-.054.915c0 3.906 2.963 7.164 6.903 7.912z"/>
    <path fill="#1AAABC" d="M131.14.3l-2.749 4.695c-5.472-.582-10.382 2.153-11.583 6.508-.4 1.438.009 3.558.311 4.555a10.949 10.949 0 0 1-1.032-4.463 12.16 12.16 0 0 1 1.442-5.536c2.624-4.588 8.22-6.932 13.611-5.76z"/>
</svg>
