<svg width="72" height="72" viewBox="0 0 72 72" fill="none" xmlns="http://www.w3.org/2000/svg">
<path d="M50.3363 10.5159L53.589 17.1043L53.7984 17.5284L54.2664 17.5965L61.5366 18.6542L56.2741 23.7827L55.9351 24.113L56.0152 24.5795L57.258 31.8195L50.7548 28.4013L50.3361 28.1812L49.9173 28.4013L43.4141 31.8195L44.6569 24.5795L44.737 24.113L44.398 23.7827L39.1356 18.6543L46.4079 17.5965L46.8761 17.5284L47.0855 17.1041L50.3363 10.5159Z" stroke="white" stroke-width="1.8"/>
<path d="M24.3089 32.6772C17.8558 32.6772 12.6041 27.4256 12.6041 20.9724C12.6041 14.5192 17.8558 9.26758 24.3089 9.26758C30.7621 9.26758 36.0138 14.5192 36.0138 20.9724C36.0138 27.4278 30.7622 32.6772 24.3089 32.6772ZM24.3089 11.2731C18.961 11.2731 14.6074 15.6244 14.6074 20.9747C14.6074 26.3226 18.9587 30.6762 24.3089 30.6762C29.6569 30.6762 34.0105 26.3249 34.0105 20.9747C34.0105 15.6244 29.6592 11.2731 24.3089 11.2731Z" fill="white" stroke="white" stroke-width="0.25"/>
<path d="M12.6987 47.0549C12.6987 53.5058 17.9504 58.7575 24.4036 58.7575C30.8567 58.7575 36.1062 53.5058 36.1084 47.0549H12.6987ZM12.6987 47.0549C12.6987 40.6018 17.9504 35.3501 24.4036 35.3501M12.6987 47.0549L24.4036 35.3501M24.4036 35.3501C30.8567 35.3501 36.1084 40.6017 36.1084 47.0549L24.4036 35.3501ZM34.1051 47.0549V47.0549C34.1028 41.7047 29.7516 37.3534 24.4036 37.3534C19.0556 37.3534 14.702 41.7047 14.702 47.0549C14.702 52.4029 19.0534 56.7542 24.4036 56.7542C29.7515 56.7542 34.1051 52.4029 34.1051 47.0549Z" fill="white" stroke="white" stroke-width="0.25"/>
<path d="M40.3842 47.0549C40.3842 41.7047 44.7355 37.3534 50.0857 37.3534C55.4358 37.3534 59.7871 41.7047 59.7849 47.0549H40.3842ZM40.3842 47.0549C40.3842 52.4029 44.7355 56.7542 50.0857 56.7542M40.3842 47.0549L50.0857 56.7542M50.0857 56.7542C55.4337 56.7542 59.7849 52.4029 59.7849 47.055L50.0857 56.7542ZM61.7882 47.0549V47.055C61.7904 53.5058 56.5388 58.7575 50.0857 58.7575C43.6325 58.7575 38.3809 53.5058 38.3809 47.0549C38.3809 40.6018 43.6325 35.3501 50.0857 35.3501C56.5388 35.3501 61.7882 40.6017 61.7882 47.0549Z" fill="white" stroke="white" stroke-width="0.25"/>
</svg>
