<svg width="72" height="72" viewBox="0 0 72 72" fill="none" xmlns="http://www.w3.org/2000/svg">
<path d="M65.1402 17.1035L65.0518 17.1918L65.1402 17.1035C64.9933 16.9567 64.7944 16.874 64.5864 16.874H7.31841C6.88714 16.874 6.53516 17.2228 6.53516 17.6573V29.8402C6.53516 30.2747 6.88714 30.6235 7.31841 30.6235H64.5864C64.7944 30.6235 64.9933 30.5408 65.1402 30.394C65.287 30.2472 65.3696 30.0483 65.3696 29.8402V17.6573C65.3696 17.4492 65.287 17.2503 65.1402 17.1035ZM63.8031 18.4405V29.057H8.10166V18.4405H63.8031Z" fill="white" stroke="white" stroke-width="0.25"/>
<path d="M62.7054 60.8506C62.852 60.7038 62.9344 60.5051 62.9344 60.2972V29.8399C62.9344 29.6318 62.8518 29.4329 62.705 29.2861C62.5582 29.1393 62.3593 29.0566 62.1512 29.0566H9.75298C9.32139 29.0566 8.96973 29.4083 8.96973 29.8399V60.2972C8.96973 60.7317 9.32171 61.0805 9.75298 61.0805H62.1512C62.3579 61.0805 62.5575 61.0013 62.7054 60.8506ZM62.7054 60.8506C62.7056 60.8504 62.7057 60.8503 62.7059 60.8501L62.6166 60.7626L62.705 60.851C62.7051 60.8509 62.7053 60.8507 62.7054 60.8506ZM61.3679 30.6231V59.514H10.5362V30.6231H61.3679Z" fill="white" stroke="white" stroke-width="0.25"/>
<path d="M35.8941 60.8505C36.0407 60.7037 36.1231 60.505 36.1231 60.2971V8.51372C36.1231 8.08213 35.7715 7.73047 35.3399 7.73047C34.9083 7.73047 34.5566 8.08213 34.5566 8.51372V60.2971C34.5566 60.7316 34.9086 61.0804 35.3399 61.0804C35.5466 61.0804 35.7462 61.0012 35.8941 60.8505ZM35.8941 60.8505C35.8943 60.8503 35.8944 60.8501 35.8946 60.85L35.8053 60.7625L35.8937 60.8509C35.8938 60.8508 35.894 60.8506 35.8941 60.8505Z" fill="white" stroke="white" stroke-width="0.25"/>
<path d="M35.3402 18.4409H35.4316L35.4337 18.4345C35.7103 18.3993 35.9495 18.2195 36.0596 17.9582C36.1822 17.6698 36.1177 17.3332 35.8971 17.1096L29.4072 10.5271L29.4074 10.5268L29.4003 10.5206C29.0912 10.2513 28.6264 10.2665 28.3357 10.554C28.0446 10.8392 28.0236 11.304 28.2866 11.6159L28.2863 11.6162L28.2932 11.6231L34.7829 18.2054C34.7829 18.2054 34.783 18.2054 34.783 18.2055C34.9296 18.3551 35.1313 18.4409 35.3402 18.4409Z" fill="white" stroke="white" stroke-width="0.25"/>
<path d="M34.6176 17.9536C34.7259 18.2203 34.9697 18.4005 35.2497 18.4346L35.2505 18.4368L35.2897 18.4384L35.335 18.4403C35.3353 18.4404 35.3356 18.4404 35.336 18.4404C35.553 18.4493 35.7661 18.3668 35.9215 18.2144L35.9216 18.2144L42.6226 11.6318L42.6226 11.6319L42.6247 11.6297C42.9292 11.316 42.9266 10.8155 42.6122 10.5072L42.6122 10.5072C42.3007 10.2018 41.7979 10.2078 41.4926 10.5183L34.7924 17.1001L34.7922 17.1002C34.5655 17.3238 34.4985 17.6605 34.6176 17.9536ZM35.3403 18.3155L35.3403 18.3155L35.3403 18.3155Z" fill="white" stroke="white" stroke-width="0.25"/>
</svg>
