<svg xmlns="http://www.w3.org/2000/svg" width="24" height="24" fill="none" viewBox="0 0 24 24">
    <mask id="a" width="24" height="24" x="0" y="0" maskUnits="userSpaceOnUse">
        <path fill="#fff" d="M24 0H0v24h24V0z"/>
    </mask>
    <g fill="#47546A" mask="url(#a)">
        <path d="M1.967 11.69a.714.714 0 0 0 .997-.126.709.709 0 0 0-.124-.997L1.27 9.344a.71.71 0 1 0-.873 1.121l1.57 1.225zM5.73 8.896a.709.709 0 0 0 .61-1.073L5.326 6.11a.712.712 0 0 0-1.223.723l1.016 1.712a.712.712 0 0 0 .613.352zM9.72 7.424c.04 0 .08-.006.124-.014a.71.71 0 0 0 .575-.822l-.352-1.962a.708.708 0 0 0-.825-.572.708.708 0 0 0-.572.822l.352 1.959c.06.35.359.589.698.589zM13.93 7.424a.71.71 0 0 0 .7-.59l.349-1.958a.707.707 0 0 0-.572-.822.709.709 0 0 0-.825.572l-.352 1.962a.708.708 0 0 0 .572.822.68.68 0 0 0 .128.014zM17.916 8.896a.713.713 0 0 0 .613-.35l1.016-1.712a.71.71 0 1 0-1.223-.723l-1.013 1.714a.707.707 0 0 0 .607 1.071zM22.379 9.348l-1.57 1.222a.713.713 0 0 0 .435 1.272c.15 0 .303-.049.436-.149l1.572-1.224a.71.71 0 1 0-.873-1.121zM4.082 15.26c1.34-2.393 4.098-5.047 7.742-5.047 3.643 0 6.403 2.654 7.739 5.043l1.255-.663c-1.951-3.534-5.453-5.8-8.994-5.8-3.54 0-7.044 2.266-8.997 5.799l1.255.667z"/>
        <path d="M19.565 13.682c-1.34 2.392-4.098 5.046-7.742 5.046-3.643 0-6.403-2.654-7.739-5.043l-1.255.663c1.951 3.534 5.453 5.8 8.994 5.8 3.54 0 7.044-2.266 8.997-5.799l-1.255-.667z"/>
        <path d="M11.847 17.047a2.2 2.2 0 1 0 0-4.4 2.2 2.2 0 0 0 0 4.4z"/>
    </g>
</svg>
