<svg width="372" height="370" viewBox="0 0 372 370" fill="none" xmlns="http://www.w3.org/2000/svg">
<g clip-path="url(#clip0)">
<path d="M354.606 124.234C354.606 208.676 262.241 309.234 177.798 309.234C93.355 309.234 3.51074 252.338 3.51074 167.985C3.51074 83.6326 93.4451 3.51096 177.798 3.51096C262.151 3.51096 354.606 39.7908 354.606 124.234Z" fill="url(#paint0_linear)"/>
<g opacity="0.5">
<path opacity="0.5" d="M320.667 155.832H297.53V184.19H320.667V155.832Z" fill="#B3CDFA"/>
<path opacity="0.5" d="M297.53 155.832V156.372H320.126V184.19H320.576V155.832H297.53Z" fill="#CADCFB"/>
<path opacity="0.5" d="M315.895 161.594H302.121V178.518H315.895V161.594Z" fill="url(#paint1_linear)"/>
<path opacity="0.5" d="M313.465 164.564H304.643V175.457H313.465V164.564Z" fill="#B3CDFA"/>
<path opacity="0.5" d="M292.669 155.832H269.533V184.19H292.669V155.832Z" fill="#B3CDFA"/>
<path opacity="0.5" d="M269.533 155.832V156.372H292.129V184.19H292.669V155.832H269.533Z" fill="#CADCFB"/>
<path opacity="0.5" d="M287.988 161.594H274.214V178.518H287.988V161.594Z" fill="url(#paint2_linear)"/>
<path opacity="0.5" d="M285.467 164.564H276.645V175.457H285.467V164.564Z" fill="#B3CDFA"/>
<path opacity="0.5" d="M264.671 155.832H241.535V184.19H264.671V155.832Z" fill="#B3CDFA"/>
<path opacity="0.5" d="M241.535 155.832V156.372H264.131V184.19H264.671V155.832H241.535Z" fill="#CADCFB"/>
<path opacity="0.5" d="M259.9 161.594H246.126V178.518H259.9V161.594Z" fill="url(#paint3_linear)"/>
<path opacity="0.5" d="M257.47 164.564H248.647V175.457H257.47V164.564Z" fill="#B3CDFA"/>
</g>
<g opacity="0.5">
<path opacity="0.5" d="M201.834 217.409H128.194V267.192H201.834V217.409Z" fill="#B3CDFA"/>
<path opacity="0.5" d="M197.513 221.28H132.335V263.321H197.513V221.28Z" fill="url(#paint4_linear)"/>
<path opacity="0.5" d="M182.929 253.779L156.102 236.044H182.929V253.779Z" fill="#B3CDFA"/>
<path opacity="0.5" d="M146.56 233.433L173.387 251.078H146.56V233.433Z" fill="#B3CDFA"/>
</g>
<g opacity="0.5">
<path opacity="0.5" d="M223.351 30.8784H197.424V62.6569H223.351V30.8784Z" fill="#B3CDFA"/>
<path opacity="0.5" d="M197.424 30.8784V31.5085H222.721V62.6569H223.351V30.8784H197.424Z" fill="#CADCFB"/>
<path opacity="0.5" d="M218.129 37.2701H202.645V56.2652H218.129V37.2701Z" fill="url(#paint5_linear)"/>
<path opacity="0.5" d="M215.338 40.691H205.436V52.9343H215.338V40.691Z" fill="#B3CDFA"/>
<path opacity="0.5" d="M192.022 30.8784H166.095V62.6569H192.022V30.8784Z" fill="#B3CDFA"/>
<path opacity="0.5" d="M166.095 30.8784V31.5085H191.392V62.6569H191.932V30.8784H166.095Z" fill="#CADCFB"/>
<path opacity="0.5" d="M186.801 37.2701H171.316V56.2652H186.801V37.2701Z" fill="url(#paint6_linear)"/>
<path opacity="0.5" d="M184.01 40.691H174.107V52.9343H184.01V40.691Z" fill="#B3CDFA"/>
<path opacity="0.5" d="M160.694 30.8784H134.767V62.6569H160.694V30.8784Z" fill="#B3CDFA"/>
<path opacity="0.5" d="M134.767 30.8784V31.5085H159.973V62.6569H160.604V30.8784H134.767Z" fill="#CADCFB"/>
<path opacity="0.5" d="M155.472 37.2701H139.988V56.2652H155.472V37.2701Z" fill="url(#paint7_linear)"/>
<path opacity="0.5" d="M152.591 40.691H142.688V52.9343H152.591V40.691Z" fill="#B3CDFA"/>
</g>
<path d="M70.0392 77.511H51.9443V83.0925H70.0392V77.511Z" fill="url(#paint8_linear)"/>
<path d="M80.4816 85.4331H62.3867V91.0146H80.4816V85.4331Z" fill="url(#paint9_linear)"/>
<path d="M239.464 267.642H215.788V274.934H239.464V267.642Z" fill="url(#paint10_linear)"/>
<path d="M204.805 289.608H181.129V296.9H204.805V289.608Z" fill="url(#paint11_linear)"/>
<path d="M326.698 110.55H303.021V117.842H326.698V110.55Z" fill="url(#paint12_linear)"/>
<path d="M325.438 81.292H301.762V88.584H325.438V81.292Z" fill="url(#paint13_linear)"/>
<path d="M92.3644 77.511H74.2695V83.0925H92.3644V77.511Z" fill="url(#paint14_linear)"/>
<path d="M273.944 48.9733H255.849V54.5548H273.944V48.9733Z" fill="url(#paint15_linear)"/>
<path d="M251.708 71.8394H233.613V77.4209H251.708V71.8394Z" fill="url(#paint16_linear)"/>
<path d="M296.18 48.9733H278.085V54.5548H296.18V48.9733Z" fill="url(#paint17_linear)"/>
<path d="M34.9294 252.068C20.0753 252.068 7.92206 240.005 7.83203 225.151L27.2773 95.4258V95.2458C27.2773 80.3017 39.4306 68.1484 54.3746 68.1484H314.905C329.759 68.1484 341.912 80.2117 342.002 95.0657L322.647 224.611C319.946 237.754 311.304 251.978 295.55 251.978H34.9294V252.068Z" fill="url(#paint18_linear)"/>
<path d="M331.019 73.6399C334.35 78.1411 336.331 83.6326 336.421 89.5742L317.065 219.119C314.365 232.263 305.722 246.487 289.968 246.487H29.4376C23.406 246.487 17.8245 244.506 13.3232 241.085C18.1846 247.747 26.1067 252.068 34.9291 252.068H295.46C311.214 252.068 319.766 237.844 322.557 224.701L341.912 95.1557C341.912 86.3333 337.591 78.5012 331.019 73.6399Z" fill="#2A4D8C"/>
<path d="M58.6953 166.185C55.1843 166.185 52.3936 163.394 52.3936 159.883L56.8948 129.635C56.8948 126.124 59.6855 123.333 63.1965 123.333H97.8558C101.367 123.333 104.158 126.124 104.158 129.635L99.6563 159.883C99.0262 162.944 97.0456 166.275 93.3546 166.275H58.6953V166.185Z" fill="url(#paint19_linear)"/>
<path d="M36.7302 201.024C35.7399 201.024 34.9297 200.214 34.9297 199.224L36.2801 190.401C36.2801 189.411 37.0903 188.601 38.0805 188.601H80.3019C81.2922 188.601 82.1024 189.411 82.1024 190.401L80.7521 199.224C80.572 200.124 79.9418 201.114 78.9516 201.114H36.7302V201.024Z" fill="#B3CDFA"/>
<path d="M92.3649 201.024C91.3747 201.024 90.5645 200.214 90.5645 199.224L91.9148 190.401C91.9148 189.411 92.725 188.601 93.7153 188.601H205.346C206.336 188.601 207.146 189.411 207.146 190.401L205.796 199.224C205.616 200.124 204.985 201.114 203.995 201.114H92.3649V201.024Z" fill="#B3CDFA"/>
<path d="M217.319 201.024C216.329 201.024 215.519 200.214 215.519 199.224L216.869 190.401C216.869 189.411 217.679 188.601 218.669 188.601H288.708C289.699 188.601 290.509 189.411 290.509 190.401L289.158 199.224C288.978 200.124 288.348 201.114 287.358 201.114H217.319V201.024Z" fill="#B3CDFA"/>
<path d="M30.6081 229.202C29.6178 229.202 28.8076 228.392 28.8076 227.401L30.158 218.579C30.158 217.589 30.9682 216.779 31.9585 216.779H179.868C180.859 216.779 181.669 217.589 181.669 218.579L180.319 227.401C180.139 228.302 179.508 229.292 178.518 229.292H30.6081V229.202Z" fill="#B3CDFA"/>
<path d="M301.041 155.292C294.109 149.89 263.501 122.253 277.005 65.1776C277.095 64.7275 277.635 64.3674 277.995 64.5474L280.156 65.1776C292.939 68.6886 308.243 65.3577 321.207 56.3552L325.348 53.4745C326.698 52.4842 328.409 52.4842 329.399 53.4745L333.9 57.8856C342.633 66.618 356.496 69.2287 370.72 64.8175C371.44 64.6375 371.981 65.0876 371.8 65.8078C357.757 121.263 313.735 149.71 304.282 155.292C303.112 155.832 301.852 155.922 301.041 155.292Z" fill="#B3CDFA"/>
<path d="M298.431 155.292C291.499 149.89 260.891 122.253 274.395 65.1776C274.485 64.7275 275.025 64.3674 275.385 64.5474L277.545 65.1776C290.329 68.6886 305.633 65.3577 318.596 56.3552L322.738 53.4745C324.088 52.4842 325.798 52.4842 326.789 53.4745L331.29 57.8856C340.022 66.618 353.886 69.2287 368.11 64.8175C368.83 64.6375 369.37 65.0876 369.19 65.8078C355.146 121.263 311.124 149.71 301.672 155.292C300.502 155.832 299.241 155.922 298.431 155.292Z" fill="url(#paint20_linear)"/>
<path d="M300.412 150.701C297.171 148 290.419 141.698 284.748 131.345C275.205 113.881 272.684 93.3552 277.186 70.1289C280.066 70.7591 283.127 71.0292 286.188 71.0292C297.531 71.0292 309.504 67.0681 319.947 59.7762L323.008 57.6156L325.889 60.4063C332.821 67.2482 342.633 71.0292 353.526 71.0292C356.497 71.0292 359.558 70.7591 362.619 70.219C348.575 118.472 310.855 144.399 300.412 150.701Z" fill="url(#paint21_linear)"/>
<path d="M285.108 131.886C275.565 114.421 273.045 93.8954 277.546 70.6691C280.427 71.2993 283.487 71.5693 286.548 71.5693C297.891 71.5693 309.864 67.6083 320.307 60.3163L323.368 58.1557L326.249 60.9465C333.181 67.7883 342.993 71.5693 353.886 71.5693C356.677 71.5693 359.558 71.2993 362.529 70.8491C362.619 70.6691 362.619 70.4891 362.709 70.309C359.648 70.8492 356.587 71.1192 353.616 71.1192C342.633 71.1192 332.821 67.3382 325.979 60.4964L323.098 57.7056L320.037 59.8662C309.594 67.1582 297.621 71.1192 286.278 71.1192C283.217 71.1192 280.156 70.8492 277.276 70.219C272.684 93.4453 275.205 114.061 284.838 131.436C286.728 134.856 288.619 137.737 290.599 140.258C288.709 137.827 286.818 135.037 285.108 131.886Z" fill="#B3CDFA"/>
<path d="M304.373 118.022L295.101 105.779L303.743 98.7567L307.794 104.068L325.889 89.4842L331.2 96.4161L304.373 118.022Z" fill="#2559B6"/>
<path opacity="0.1" d="M323.277 57.8856L323.097 57.7056L320.036 59.8662C312.474 65.1776 304.012 68.6885 295.64 70.2189L327.238 129.275C334.17 122.343 341.282 113.791 347.674 103.528L323.277 57.8856Z" fill="#E3EBFD"/>
<path opacity="0.1" d="M305.723 147.28C309.414 144.759 314.095 141.248 319.226 136.747L284.117 71.0292C281.776 70.9392 279.435 70.6691 277.275 70.219C275.924 77.0608 275.204 83.6326 275.114 89.9343L305.723 147.28Z" fill="#E3EBFD"/>
<g opacity="0.24">
<path opacity="0.02439" d="M178.429 366.428C245.897 366.428 300.592 357.803 300.592 347.163C300.592 336.523 245.897 327.898 178.429 327.898C110.96 327.898 56.2656 336.523 56.2656 347.163C56.2656 357.803 110.96 366.428 178.429 366.428Z" fill="#FBFCFE"/>
<path opacity="0.04878" d="M178.428 365.978C244.355 365.978 297.8 357.554 297.8 347.163C297.8 336.772 244.355 328.348 178.428 328.348C112.5 328.348 59.0557 336.772 59.0557 347.163C59.0557 357.554 112.5 365.978 178.428 365.978Z" fill="#F8FAFE"/>
<path opacity="0.073171" d="M178.428 365.528C242.814 365.528 295.01 357.306 295.01 347.163C295.01 337.02 242.814 328.798 178.428 328.798C114.042 328.798 61.8467 337.02 61.8467 347.163C61.8467 357.306 114.042 365.528 178.428 365.528Z" fill="#F4F7FD"/>
<path opacity="0.097561" d="M178.428 365.078C241.273 365.078 292.219 357.057 292.219 347.163C292.219 337.269 241.273 329.248 178.428 329.248C115.584 329.248 64.6377 337.269 64.6377 347.163C64.6377 357.057 115.584 365.078 178.428 365.078Z" fill="#F1F5FC"/>
<path opacity="0.122" d="M178.429 364.628C239.732 364.628 289.429 356.809 289.429 347.163C289.429 337.518 239.732 329.698 178.429 329.698C117.125 329.698 67.4287 337.518 67.4287 347.163C67.4287 356.809 117.125 364.628 178.429 364.628Z" fill="#EDF2FC"/>
<path opacity="0.1463" d="M178.429 364.178C238.141 364.178 286.548 356.56 286.548 347.163C286.548 337.766 238.141 330.148 178.429 330.148C118.716 330.148 70.3096 337.766 70.3096 347.163C70.3096 356.56 118.716 364.178 178.429 364.178Z" fill="#E9F0FB"/>
<path opacity="0.1707" d="M178.428 363.728C236.599 363.728 283.757 356.311 283.757 347.163C283.757 338.015 236.599 330.599 178.428 330.599C120.257 330.599 73.0996 338.015 73.0996 347.163C73.0996 356.311 120.257 363.728 178.428 363.728Z" fill="#E6EDFA"/>
<path opacity="0.1951" d="M178.428 363.277C235.058 363.277 280.966 356.063 280.966 347.163C280.966 338.263 235.058 331.049 178.428 331.049C121.798 331.049 75.8906 338.263 75.8906 347.163C75.8906 356.063 121.798 363.277 178.428 363.277Z" fill="#E2EBFA"/>
<path opacity="0.2195" d="M178.429 362.827C233.517 362.827 278.176 355.814 278.176 347.163C278.176 338.512 233.517 331.499 178.429 331.499C123.34 331.499 78.6816 338.512 78.6816 347.163C78.6816 355.814 123.34 362.827 178.429 362.827Z" fill="#DFE8F9"/>
<path opacity="0.2439" d="M178.429 362.467C231.976 362.467 275.385 355.615 275.385 347.163C275.385 338.711 231.976 331.859 178.429 331.859C124.881 331.859 81.4727 338.711 81.4727 347.163C81.4727 355.615 124.881 362.467 178.429 362.467Z" fill="#DBE6F8"/>
<path opacity="0.2683" d="M178.428 362.017C230.434 362.017 272.594 355.367 272.594 347.163C272.594 338.959 230.434 332.309 178.428 332.309C126.422 332.309 84.2627 338.959 84.2627 347.163C84.2627 355.367 126.422 362.017 178.428 362.017Z" fill="#D8E3F7"/>
<path opacity="0.2927" d="M178.428 361.567C228.893 361.567 269.803 355.118 269.803 347.163C269.803 339.208 228.893 332.759 178.428 332.759C127.964 332.759 87.0537 339.208 87.0537 347.163C87.0537 355.118 127.964 361.567 178.428 361.567Z" fill="#D4E1F7"/>
<path opacity="0.3171" d="M178.429 361.117C227.352 361.117 267.013 354.869 267.013 347.163C267.013 339.457 227.352 333.209 178.429 333.209C129.505 333.209 89.8447 339.457 89.8447 347.163C89.8447 354.869 129.505 361.117 178.429 361.117Z" fill="#D0DEF6"/>
<path opacity="0.3415" d="M178.428 360.667C225.81 360.667 264.221 354.621 264.221 347.163C264.221 339.705 225.81 333.659 178.428 333.659C131.046 333.659 92.6348 339.705 92.6348 347.163C92.6348 354.621 131.046 360.667 178.428 360.667Z" fill="#CDDCF5"/>
<path opacity="0.3659" d="M178.428 360.217C224.269 360.217 261.431 354.372 261.431 347.163C261.431 339.954 224.269 334.109 178.428 334.109C132.587 334.109 95.4258 339.954 95.4258 347.163C95.4258 354.372 132.587 360.217 178.428 360.217Z" fill="#C9D9F5"/>
<path opacity="0.3902" d="M178.428 359.766C222.678 359.766 258.55 354.124 258.55 347.163C258.55 340.202 222.678 334.56 178.428 334.56C134.178 334.56 98.3066 340.202 98.3066 347.163C98.3066 354.124 134.178 359.766 178.428 359.766Z" fill="#C6D7F4"/>
<path opacity="0.4146" d="M178.429 359.316C221.137 359.316 255.759 353.875 255.759 347.163C255.759 340.451 221.137 335.01 178.429 335.01C135.72 335.01 101.098 340.451 101.098 347.163C101.098 353.875 135.72 359.316 178.429 359.316Z" fill="#C2D4F3"/>
<path opacity="0.439" d="M178.429 358.866C219.596 358.866 252.969 353.627 252.969 347.163C252.969 340.7 219.596 335.46 178.429 335.46C137.261 335.46 103.889 340.7 103.889 347.163C103.889 353.627 137.261 358.866 178.429 358.866Z" fill="#BED2F3"/>
<path opacity="0.4634" d="M178.428 358.416C218.054 358.416 250.177 353.378 250.177 347.163C250.177 340.948 218.054 335.91 178.428 335.91C138.802 335.91 106.679 340.948 106.679 347.163C106.679 353.378 138.802 358.416 178.428 358.416Z" fill="#BBCFF2"/>
<path opacity="0.4878" d="M178.428 358.056C216.513 358.056 247.387 353.179 247.387 347.163C247.387 341.147 216.513 336.27 178.428 336.27C140.344 336.27 109.47 341.147 109.47 347.163C109.47 353.179 140.344 358.056 178.428 358.056Z" fill="#B7CDF1"/>
<path opacity="0.5122" d="M178.429 357.606C214.972 357.606 244.597 352.93 244.597 347.163C244.597 341.396 214.972 336.72 178.429 336.72C141.885 336.72 112.261 341.396 112.261 347.163C112.261 352.93 141.885 357.606 178.429 357.606Z" fill="#B4CAF1"/>
<path opacity="0.5366" d="M178.429 357.156C213.431 357.156 241.806 352.682 241.806 347.163C241.806 341.644 213.431 337.17 178.429 337.17C143.427 337.17 115.052 341.644 115.052 347.163C115.052 352.682 143.427 357.156 178.429 357.156Z" fill="#B0C8F0"/>
<path opacity="0.561" d="M178.428 356.706C211.889 356.706 239.015 352.433 239.015 347.163C239.015 341.893 211.889 337.621 178.428 337.621C144.967 337.621 117.842 341.893 117.842 347.163C117.842 352.433 144.967 356.706 178.428 356.706Z" fill="#ADC5EF"/>
<path opacity="0.5854" d="M236.224 347.163C236.224 352.204 210.387 356.256 178.428 356.256C146.47 356.256 120.633 352.204 120.633 347.163C120.633 342.122 146.47 338.071 178.428 338.071C210.387 338.071 236.224 342.212 236.224 347.163Z" fill="#A9C3EF"/>
<path opacity="0.6098" d="M178.429 355.805C208.807 355.805 233.434 351.936 233.434 347.163C233.434 342.39 208.807 338.521 178.429 338.521C148.05 338.521 123.424 342.39 123.424 347.163C123.424 351.936 148.05 355.805 178.429 355.805Z" fill="#A5C0EE"/>
<path opacity="0.6341" d="M178.429 355.355C207.216 355.355 230.553 351.687 230.553 347.163C230.553 342.639 207.216 338.971 178.429 338.971C149.641 338.971 126.305 342.639 126.305 347.163C126.305 351.687 149.641 355.355 178.429 355.355Z" fill="#A2BEED"/>
<path opacity="0.6585" d="M227.851 347.163C227.851 351.484 205.705 354.905 178.518 354.905C151.331 354.905 129.185 351.394 129.185 347.163C129.185 342.842 151.331 339.421 178.518 339.421C205.705 339.421 227.851 342.932 227.851 347.163Z" fill="#9EBBED"/>
<path opacity="0.6829" d="M178.428 354.455C204.133 354.455 224.971 351.19 224.971 347.163C224.971 343.136 204.133 339.871 178.428 339.871C152.724 339.871 131.886 343.136 131.886 347.163C131.886 351.19 152.724 354.455 178.428 354.455Z" fill="#9BB9EC"/>
<path opacity="0.7073" d="M178.429 354.095C202.592 354.095 222.18 350.991 222.18 347.163C222.18 343.335 202.592 340.231 178.429 340.231C154.265 340.231 134.677 343.335 134.677 347.163C134.677 350.991 154.265 354.095 178.429 354.095Z" fill="#97B6EB"/>
<path opacity="0.7317" d="M219.48 347.163C219.48 350.764 201.115 353.645 178.519 353.645C155.923 353.645 137.558 350.764 137.558 347.163C137.558 343.562 155.923 340.681 178.519 340.681C201.115 340.681 219.48 343.652 219.48 347.163Z" fill="#93B4EB"/>
<path opacity="0.7561" d="M178.428 353.195C199.509 353.195 216.598 350.494 216.598 347.163C216.598 343.832 199.509 341.131 178.428 341.131C157.347 341.131 140.258 343.832 140.258 347.163C140.258 350.494 157.347 353.195 178.428 353.195Z" fill="#90B1EA"/>
<path opacity="0.7805" d="M178.428 352.745C197.968 352.745 213.808 350.246 213.808 347.163C213.808 344.08 197.968 341.582 178.428 341.582C158.889 341.582 143.049 344.08 143.049 347.163C143.049 350.246 158.889 352.745 178.428 352.745Z" fill="#8CAFE9"/>
<path opacity="0.8049" d="M211.017 347.163C211.017 349.954 196.434 352.294 178.429 352.294C160.424 352.294 145.84 350.044 145.84 347.163C145.84 344.372 160.424 342.032 178.429 342.032C196.434 342.032 211.017 344.372 211.017 347.163Z" fill="#89ACE8"/>
<path opacity="0.8293" d="M178.428 351.844C194.885 351.844 208.226 349.748 208.226 347.163C208.226 344.578 194.885 342.482 178.428 342.482C161.971 342.482 148.63 344.578 148.63 347.163C148.63 349.748 161.971 351.844 178.428 351.844Z" fill="#85AAE8"/>
<path opacity="0.8537" d="M178.428 351.394C193.344 351.394 205.435 349.5 205.435 347.163C205.435 344.826 193.344 342.932 178.428 342.932C163.512 342.932 151.421 344.826 151.421 347.163C151.421 349.5 163.512 351.394 178.428 351.394Z" fill="#82A7E7"/>
<path opacity="0.878" d="M202.645 347.163C202.645 349.234 191.842 350.944 178.518 350.944C165.195 350.944 154.392 349.234 154.392 347.163C154.392 345.092 165.195 343.382 178.518 343.382C191.842 343.382 202.645 345.092 202.645 347.163Z" fill="#7EA5E6"/>
<path opacity="0.9024" d="M178.429 350.494C190.212 350.494 199.764 349.003 199.764 347.163C199.764 345.323 190.212 343.832 178.429 343.832C166.645 343.832 157.093 345.323 157.093 347.163C157.093 349.003 166.645 350.494 178.429 350.494Z" fill="#7AA2E6"/>
<path opacity="0.9268" d="M178.429 350.044C188.671 350.044 196.974 348.754 196.974 347.163C196.974 345.572 188.671 344.282 178.429 344.282C168.187 344.282 159.884 345.572 159.884 347.163C159.884 348.754 168.187 350.044 178.429 350.044Z" fill="#77A0E5"/>
<path opacity="0.9512" d="M194.272 347.163C194.272 348.513 187.25 349.684 178.518 349.684C169.786 349.684 162.764 348.603 162.764 347.163C162.764 345.813 169.786 344.642 178.518 344.642C187.25 344.642 194.272 345.813 194.272 347.163Z" fill="#739DE4"/>
<path opacity="0.9756" d="M178.428 349.234C185.588 349.234 191.392 348.307 191.392 347.163C191.392 346.019 185.588 345.092 178.428 345.092C171.269 345.092 165.465 346.019 165.465 347.163C165.465 348.307 171.269 349.234 178.428 349.234Z" fill="#709BE4"/>
<path opacity="0.5" d="M178.429 348.783C184.047 348.783 188.601 348.058 188.601 347.163C188.601 346.268 184.047 345.543 178.429 345.543C172.81 345.543 168.256 346.268 168.256 347.163C168.256 348.058 172.81 348.783 178.429 348.783Z" fill="#6C98E3"/>
</g>
</g>
<defs>
<linearGradient id="paint0_linear" x1="15.2205" y1="223.761" x2="344.819" y2="84.6707" gradientUnits="userSpaceOnUse">
<stop stop-color="#E3EDFE"/>
<stop offset="0.0467179" stop-color="#E5EEFE"/>
<stop offset="0.5107" stop-color="#F0F5FE"/>
<stop offset="1" stop-color="#F4F8FF"/>
</linearGradient>
<linearGradient id="paint1_linear" x1="302.159" y1="170.037" x2="315.981" y2="170.037" gradientUnits="userSpaceOnUse">
<stop stop-color="#E3EDFE"/>
<stop offset="1" stop-color="#BFD5FB"/>
</linearGradient>
<linearGradient id="paint2_linear" x1="274.168" y1="170.037" x2="287.991" y2="170.037" gradientUnits="userSpaceOnUse">
<stop stop-color="#E3EDFE"/>
<stop offset="1" stop-color="#BFD5FB"/>
</linearGradient>
<linearGradient id="paint3_linear" x1="246.18" y1="170.037" x2="260.002" y2="170.037" gradientUnits="userSpaceOnUse">
<stop stop-color="#E3EDFE"/>
<stop offset="1" stop-color="#BFD5FB"/>
</linearGradient>
<linearGradient id="paint4_linear" x1="132.35" y1="242.307" x2="197.487" y2="242.307" gradientUnits="userSpaceOnUse">
<stop stop-color="#E3EDFE"/>
<stop offset="1" stop-color="#BFD5FB"/>
</linearGradient>
<linearGradient id="paint5_linear" x1="202.64" y1="46.7868" x2="218.129" y2="46.7868" gradientUnits="userSpaceOnUse">
<stop stop-color="#E3EDFE"/>
<stop offset="1" stop-color="#BFD5FB"/>
</linearGradient>
<linearGradient id="paint6_linear" x1="171.276" y1="46.7868" x2="186.765" y2="46.7868" gradientUnits="userSpaceOnUse">
<stop stop-color="#E3EDFE"/>
<stop offset="1" stop-color="#BFD5FB"/>
</linearGradient>
<linearGradient id="paint7_linear" x1="139.914" y1="46.7868" x2="155.403" y2="46.7868" gradientUnits="userSpaceOnUse">
<stop stop-color="#E3EDFE"/>
<stop offset="1" stop-color="#BFD5FB"/>
</linearGradient>
<linearGradient id="paint8_linear" x1="51.9557" y1="80.299" x2="70.0337" y2="80.299" gradientUnits="userSpaceOnUse">
<stop stop-color="#E3EDFE"/>
<stop offset="1" stop-color="#D9E6FC"/>
</linearGradient>
<linearGradient id="paint9_linear" x1="62.392" y1="88.2198" x2="80.4701" y2="88.2198" gradientUnits="userSpaceOnUse">
<stop stop-color="#E3EDFE"/>
<stop offset="1" stop-color="#D9E6FC"/>
</linearGradient>
<linearGradient id="paint10_linear" x1="215.758" y1="271.246" x2="239.473" y2="271.246" gradientUnits="userSpaceOnUse">
<stop stop-color="#E3EDFE"/>
<stop offset="1" stop-color="#D9E6FC"/>
</linearGradient>
<linearGradient id="paint11_linear" x1="181.093" y1="293.238" x2="204.808" y2="293.238" gradientUnits="userSpaceOnUse">
<stop stop-color="#E3EDFE"/>
<stop offset="1" stop-color="#D9E6FC"/>
</linearGradient>
<linearGradient id="paint12_linear" x1="302.965" y1="114.219" x2="326.68" y2="114.219" gradientUnits="userSpaceOnUse">
<stop stop-color="#E3EDFE"/>
<stop offset="1" stop-color="#D9E6FC"/>
</linearGradient>
<linearGradient id="paint13_linear" x1="301.752" y1="84.8895" x2="325.467" y2="84.8895" gradientUnits="userSpaceOnUse">
<stop stop-color="#E3EDFE"/>
<stop offset="1" stop-color="#D9E6FC"/>
</linearGradient>
<linearGradient id="paint14_linear" x1="74.2262" y1="80.299" x2="92.3043" y2="80.299" gradientUnits="userSpaceOnUse">
<stop stop-color="#E3EDFE"/>
<stop offset="1" stop-color="#D9E6FC"/>
</linearGradient>
<linearGradient id="paint15_linear" x1="255.776" y1="51.8085" x2="273.854" y2="51.8085" gradientUnits="userSpaceOnUse">
<stop stop-color="#E3EDFE"/>
<stop offset="1" stop-color="#D9E6FC"/>
</linearGradient>
<linearGradient id="paint16_linear" x1="233.613" y1="74.639" x2="251.691" y2="74.639" gradientUnits="userSpaceOnUse">
<stop stop-color="#E3EDFE"/>
<stop offset="1" stop-color="#D9E6FC"/>
</linearGradient>
<linearGradient id="paint17_linear" x1="278.061" y1="51.8085" x2="296.139" y2="51.8085" gradientUnits="userSpaceOnUse">
<stop stop-color="#E3EDFE"/>
<stop offset="1" stop-color="#D9E6FC"/>
</linearGradient>
<linearGradient id="paint18_linear" x1="7.39262" y1="258.39" x2="344.378" y2="60.272" gradientUnits="userSpaceOnUse">
<stop stop-color="#1449A8"/>
<stop offset="0.2224" stop-color="#2257B5"/>
<stop offset="0.5521" stop-color="#3162B9"/>
<stop offset="0.9471" stop-color="#4574C7"/>
<stop offset="1" stop-color="#4574C7"/>
</linearGradient>
<linearGradient id="paint19_linear" x1="52.3533" y1="144.762" x2="104.187" y2="144.762" gradientUnits="userSpaceOnUse">
<stop offset="0.00128141" stop-color="#26C6DA"/>
<stop offset="1" stop-color="#32E0ED"/>
</linearGradient>
<linearGradient id="paint20_linear" x1="264.93" y1="104.178" x2="354.612" y2="125.854" gradientUnits="userSpaceOnUse">
<stop stop-color="#DAE7FC"/>
<stop offset="1" stop-color="#DAE6FC"/>
</linearGradient>
<linearGradient id="paint21_linear" x1="275.566" y1="139.159" x2="334.935" y2="55.2673" gradientUnits="userSpaceOnUse">
<stop stop-color="#F1F6FE"/>
<stop offset="1" stop-color="white"/>
</linearGradient>
<clipPath id="clip0">
<rect width="371.8" height="370" fill="white"/>
</clipPath>
</defs>
</svg>
