<svg xmlns="http://www.w3.org/2000/svg" width="211" height="240" fill="none" viewBox="0 0 211 240">
    <path fill="#0458BD" d="M135.478.594l-33.051 52.703h30.159a3.68 3.68 0 0 1 3.662 3.622v50.989c2.107-.167 4.215-.286 6.359-.286 16.513 0 31.787 4.92 44.228 13.247h23.896L135.478.594zM0 60.54v118.466h128.827V60.54H0zm142.607 54.228c-2.156 0-4.264.107-6.36.286v67.571c-.024 1.989-1.65 3.598-3.661 3.622H75.447c4.662 30.402 32.894 53.752 67.16 53.752 37.543 0 67.93-27.984 67.93-62.615s-30.389-62.616-67.93-62.616z"/>
    <path fill="#76A9E7" d="M134.989 0l-33.051 52.703h30.16a3.679 3.679 0 0 1 3.661 3.622v50.989c2.108-.167 4.216-.286 6.36-.286 16.513 0 31.786 4.92 44.228 13.248h23.896L134.989 0z"/>
    <path fill="#2B78D0" d="M142.607 114.769c-2.156 0-4.263.108-6.359.286v67.571c-.024 1.99-1.65 3.598-3.662 3.622H75.448C80.11 216.65 108.342 240 142.607 240c37.544 0 67.93-27.984 67.93-62.615s-30.388-62.616-67.93-62.616z"/>
</svg>
