<svg width="32" height="36" viewBox="0 0 32 36" fill="none" xmlns="http://www.w3.org/2000/svg">
<mask id="mask0" mask-type="alpha" maskUnits="userSpaceOnUse" x="0" y="0" width="32" height="36">
<path fill-rule="evenodd" clip-rule="evenodd" d="M0 0.447266H31.9968V35.4867H0V0.447266Z" fill="white"/>
</mask>
<g mask="url(#mask0)">
<path fill-rule="evenodd" clip-rule="evenodd" d="M4.93047 0.447266H27.0664C29.7893 0.447266 31.9968 2.86498 31.9968 5.84735V30.0917C31.9968 33.074 29.7893 35.4918 27.0664 35.4918H4.93047C2.20746 35.4918 0 33.074 0 30.0917V5.84735C0 2.86498 2.20746 0.447266 4.93047 0.447266Z" fill="#49566C"/>
</g>
<path fill-rule="evenodd" clip-rule="evenodd" d="M15.7295 24.9794H17.0383C17.0383 24.9794 17.4336 24.9317 17.6357 24.6936C17.8214 24.4747 17.8155 24.0639 17.8155 24.0639C17.8155 24.0639 17.7899 22.1404 18.6048 21.8571C19.4085 21.5779 20.4403 23.7161 21.5339 24.5383C22.3609 25.1603 22.9893 25.0242 22.9893 25.0242L25.9136 24.9794C25.9136 24.9794 27.4433 24.8761 26.718 23.5588C26.6586 23.4512 26.2954 22.5843 24.5436 20.8034C22.7098 18.9394 22.9556 19.2409 25.1644 16.0166C26.5095 14.053 27.0472 12.8543 26.8792 12.3409C26.7191 11.8517 25.7297 11.981 25.7297 11.981L22.4371 12.0032C22.4371 12.0032 22.1928 11.9668 22.0119 12.0854C21.835 12.2014 21.7214 12.4723 21.7214 12.4723C21.7214 12.4723 21.2001 13.9917 20.5053 15.2841C19.0392 18.0107 18.4529 18.155 18.2132 17.9855C17.6556 17.5908 17.795 16.4004 17.795 15.5544C17.795 12.9119 18.1609 11.8101 17.0823 11.5249C16.7245 11.4303 16.4608 11.3677 15.5455 11.3575C14.3706 11.3444 13.3764 11.3615 12.8134 11.6636C12.4388 11.8645 12.1498 12.3121 12.3259 12.3378C12.5436 12.3696 13.0363 12.4835 13.2975 12.8729C13.635 13.3758 13.6232 14.5047 13.6232 14.5047C13.6232 14.5047 13.8172 17.6154 13.1705 18.0017C12.7267 18.2667 12.1179 17.7257 10.8107 15.2519C10.1411 13.9848 9.63535 12.5839 9.63535 12.5839C9.63535 12.5839 9.53796 12.3222 9.36401 12.1821C9.15304 12.0124 8.85825 11.9586 8.85825 11.9586L5.72935 11.981C5.72935 11.981 5.25976 11.9953 5.08719 12.219C4.93366 12.4182 5.07493 12.8295 5.07493 12.8295C5.07493 12.8295 7.52435 19.1062 10.2981 22.2693C12.8417 25.1698 15.7295 24.9794 15.7295 24.9794Z" fill="#FFFFFE"/>
</svg>
