<svg width="52" height="50" viewBox="0 0 52 50" fill="none" xmlns="http://www.w3.org/2000/svg">
<path d="M6.46935 38.5888L6.02615 37.7401L5.58294 38.5888C5.03561 39.6369 4.38226 40.973 3.86434 42.244C3.60543 42.8793 3.37756 43.5052 3.21374 44.075C3.05194 44.6377 2.94354 45.176 2.94354 45.6261C2.94354 47.3285 4.32377 48.7087 6.02615 48.7087C7.72853 48.7087 9.10876 47.3285 9.10876 45.6261C9.10876 45.176 9.00036 44.6377 8.83856 44.075C8.67474 43.5052 8.44687 42.8793 8.18796 42.244C7.67004 40.973 7.01669 39.6369 6.46935 38.5888ZM2.2218 45.6261C2.2218 45.024 2.40108 44.2184 2.70126 43.3077C2.99833 42.4063 3.40067 41.4404 3.8182 40.5307C4.63847 38.7437 5.50334 37.2043 5.70348 36.8516C5.77807 36.7468 5.8982 36.6847 6.02615 36.6847C6.1541 36.6847 6.27423 36.7468 6.34882 36.8516C6.54896 37.2043 7.41383 38.7437 8.2341 40.5307C8.65163 41.4404 9.05397 42.4063 9.35104 43.3077C9.65122 44.2184 9.8305 45.024 9.8305 45.6261C9.8305 47.727 8.12707 49.4304 6.02615 49.4304C3.92523 49.4304 2.2218 47.727 2.2218 45.6261Z" fill="black" stroke="#003E70"/>
<path d="M44.7652 14.2739H45.2652V13.7739V11.1913C45.2652 10.992 45.4268 10.8304 45.6261 10.8304H50.7913C50.9906 10.8304 51.1522 10.992 51.1522 11.1913V28.4087C51.1522 28.608 50.9906 28.7696 50.7913 28.7696H45.6261C45.4268 28.7696 45.2652 28.608 45.2652 28.4087V25.8261V25.3261H44.7652H36.0086H35.5967L35.5178 25.7303C34.8075 29.3706 31.2409 32.213 26.8782 32.213H24.774C20.4128 32.213 16.8446 29.3706 16.1344 25.7303L16.0555 25.3261H15.6436H14.6348C12.9324 25.3261 11.5522 26.7063 11.5522 28.4087V31.8522C11.5522 32.0514 11.3906 32.213 11.1913 32.213H0.86087C0.661599 32.213 0.5 32.0514 0.5 31.8522V24.9655C0.506978 19.0635 5.28983 14.2807 11.1919 14.2739H18.4562H18.8346L18.9374 13.9097L20.2173 9.37201L20.2173 9.37198C20.2612 9.21642 20.4033 9.1087 20.5655 9.1087H23.2435H23.7435V8.6087V5.16522V4.66522H23.2435H17.2174C16.0673 4.66522 15.1348 3.7327 15.1348 2.58261C15.1348 1.43252 16.0673 0.5 17.2174 0.5H34.4348C35.5849 0.5 36.5174 1.43252 36.5174 2.58261C36.5174 3.7327 35.5849 4.66522 34.4348 4.66522H28.4087H27.9087V5.16522V8.6087V9.1087H28.4087H31.0867C31.2489 9.1087 31.391 9.21642 31.4348 9.37198L31.4348 9.37201L32.7148 13.9097L32.8175 14.2739H33.196H44.7652ZM24.9652 4.66522H24.4652V5.16522V8.6087V9.1087H24.9652H26.687H27.187V8.6087V5.16522V4.66522H26.687H24.9652ZM10.3304 31.4913H10.8304V30.9913V28.4093C10.833 26.3088 12.5348 24.6069 14.6354 24.6043H15.5432H15.9217L16.0244 24.24L18.4519 15.6314L18.6311 14.9957H17.9707H11.1913H11.1907C5.6876 15.0023 1.22838 19.4615 1.22174 24.9646V24.9652V30.9913V31.4913H1.72174H10.3304ZM16.737 24.3705L16.7169 24.4419L16.7183 24.516C16.7955 28.4338 20.4421 31.4913 24.774 31.4913H26.8782C31.2101 31.4913 34.8566 28.4338 34.9347 24.5162L34.9362 24.4419L34.916 24.3704L30.9164 10.1947L30.8136 9.83043H30.4352H21.217H20.8385L20.7358 10.1947L16.737 24.3705ZM35.6278 24.24L35.7305 24.6043H36.109H44.7652H45.2652V24.1043V15.4957V14.9957H44.7652H33.6815H33.021L33.2003 15.6314L35.6278 24.24ZM49.9304 28.0478H50.4304V27.5478V12.0522V11.5522H49.9304H46.487H45.987V12.0522V27.5478V28.0478H46.487H49.9304ZM17.2174 1.22174C16.4658 1.22174 15.8565 1.83105 15.8565 2.58261C15.8565 3.33416 16.4658 3.94348 17.2174 3.94348H34.4348C35.1863 3.94348 35.7957 3.33416 35.7957 2.58261C35.7957 1.83105 35.1863 1.22174 34.4348 1.22174H17.2174Z" fill="black" stroke="#003E70"/>
</svg>
