<svg 
 xmlns="http://www.w3.org/2000/svg"
 xmlns:xlink="http://www.w3.org/1999/xlink"
 width="69px" height="66px">
<defs>
<filter id="Filter_0">
    <feFlood flood-color="rgb(1, 161, 221)" flood-opacity="1" result="floodOut" />
    <feComposite operator="atop" in="floodOut" in2="SourceGraphic" result="compOut" />
    <feBlend mode="normal" in="compOut" in2="SourceGraphic" />
</filter>

</defs>
<g filter="url(#Filter_0)">
<path fill-rule="evenodd"  fill="rgb(7, 153, 199)"
 d="M64.399,52.344 L41.455,52.344 C41.728,56.858 43.626,59.172 47.150,59.172 L49.450,59.172 C51.352,59.172 52.900,60.704 52.900,62.586 C52.900,64.468 51.352,66.000 49.450,66.000 L19.550,66.000 C17.648,66.000 16.100,64.468 16.100,62.586 C16.100,60.704 17.648,59.172 19.550,59.172 L21.850,59.172 C25.374,59.172 27.272,56.858 27.545,52.344 L4.601,52.344 C2.064,52.344 -0.000,50.302 -0.000,47.792 L-0.000,42.103 L-0.000,4.553 C-0.000,2.043 2.064,-0.000 4.601,-0.000 L64.399,-0.000 C66.936,-0.000 69.000,2.043 69.000,4.553 L69.000,42.103 C69.000,42.103 69.000,42.103 69.000,42.103 L69.000,47.792 C69.000,50.302 66.936,52.344 64.399,52.344 ZM19.550,61.448 C18.915,61.448 18.400,61.959 18.400,62.586 C18.400,63.213 18.915,63.724 19.550,63.724 L49.450,63.724 C50.085,63.724 50.600,63.213 50.600,62.586 C50.600,61.959 50.085,61.448 49.450,61.448 L19.550,61.448 ZM27.452,59.172 L41.549,59.172 C40.133,57.620 39.299,55.309 39.132,52.345 L29.869,52.345 C29.701,55.309 28.867,57.620 27.452,59.172 ZM66.700,4.553 C66.700,3.296 65.667,2.276 64.399,2.276 L4.601,2.276 C3.333,2.276 2.300,3.296 2.300,4.553 L2.300,40.965 L4.600,40.965 L4.600,5.690 C4.600,5.061 5.115,4.552 5.750,4.552 L63.250,4.552 C63.885,4.552 64.400,5.061 64.400,5.690 L64.400,40.965 L66.700,40.965 L66.700,4.553 ZM6.900,6.827 L6.900,40.965 L62.100,40.965 L62.100,6.827 L6.900,6.827 ZM66.700,43.241 L63.250,43.241 L5.750,43.241 L2.300,43.241 L2.300,47.792 C2.300,49.048 3.333,50.069 4.601,50.069 L64.399,50.069 C65.667,50.069 66.700,49.048 66.700,47.792 L66.700,47.792 L66.700,43.241 ZM37.950,47.793 L31.050,47.793 C30.415,47.793 29.900,47.283 29.900,46.655 C29.900,46.027 30.415,45.517 31.050,45.517 L37.950,45.517 C38.585,45.517 39.100,46.027 39.100,46.655 C39.100,47.283 38.585,47.793 37.950,47.793 ZM51.699,38.356 C51.484,38.570 51.191,38.689 50.886,38.689 C50.581,38.689 50.288,38.570 50.073,38.356 L47.297,35.608 L45.671,37.218 C45.385,37.501 44.967,37.613 44.576,37.517 C44.184,37.419 43.872,37.125 43.756,36.740 L42.622,33.000 L16.100,33.000 C15.465,33.000 14.950,32.490 14.950,31.862 L14.950,15.931 L14.950,10.241 C14.950,9.613 15.465,9.103 16.100,9.103 L48.300,9.103 C48.935,9.103 49.450,9.613 49.450,10.241 L49.450,26.234 L53.238,27.358 C53.626,27.474 53.923,27.781 54.022,28.169 C54.121,28.557 54.006,28.969 53.720,29.253 L52.175,30.781 L54.952,33.528 C55.401,33.973 55.401,34.692 54.951,35.137 L51.699,38.356 ZM47.150,11.379 L17.250,11.379 L17.250,14.793 L47.150,14.793 L47.150,11.379 ZM47.150,17.069 L17.250,17.069 L17.250,30.724 L41.931,30.724 L40.305,25.362 C40.183,24.960 40.294,24.527 40.594,24.230 C40.818,24.008 41.121,23.890 41.430,23.896 C41.533,23.898 41.636,23.914 41.738,23.944 L47.150,25.551 L47.150,17.069 ZM49.844,31.692 C49.598,31.451 49.462,31.126 49.462,30.781 C49.462,30.437 49.597,30.114 49.842,29.870 L50.732,28.990 L47.972,28.170 C47.972,28.170 47.971,28.171 47.970,28.170 L43.369,26.804 L43.123,26.731 L43.861,29.168 L45.405,34.261 L46.236,33.439 C46.528,33.151 46.912,33.005 47.297,33.005 C47.681,33.005 48.065,33.150 48.359,33.440 L50.886,35.942 L52.512,34.332 L49.844,31.692 ZM29.900,28.448 L20.700,28.448 C20.065,28.448 19.550,27.938 19.550,27.310 L19.550,22.758 C19.550,22.130 20.065,21.621 20.700,21.621 L29.900,21.621 C30.535,21.621 31.050,22.130 31.050,22.758 L31.050,27.310 C31.050,27.938 30.535,28.448 29.900,28.448 ZM28.750,23.896 L21.850,23.896 L21.850,26.172 L28.750,26.172 L28.750,23.896 Z"/>
</g>
</svg>