<svg xmlns="http://www.w3.org/2000/svg" xmlns:xlink="http://www.w3.org/1999/xlink" width="64" height="64" viewBox="0 0 64 64">
  <defs>
    <style>
      .cls-1 {
        fill: #0799c7;
        fill-rule: evenodd;
        filter: url(#filter);
      }
    </style>
    <filter id="filter" x="757" y="861" width="64" height="64" filterUnits="userSpaceOnUse">
      <feFlood result="flood" flood-color="#01a1dd"/>
      <feComposite result="composite" operator="in" in2="SourceGraphic"/>
      <feBlend result="blend" in2="SourceGraphic"/>
    </filter>
  </defs>
  <path id="Фигура_1" data-name="Фигура 1" class="cls-1" d="M805.5,925H765.625L757,916.375V862.5a2.758,2.758,0,0,1,1.5-1.5h47a2.462,2.462,0,0,1,1.52,2.577Q806.981,885.9,807,908.222V909h0.748c3.934,0,7.868.012,11.8-.009a1.561,1.561,0,0,1,1.447.637v10.75a1.565,1.565,0,0,1-1.444.636C815.63,920.989,811.7,921,807.779,921H807c0,0.525-.034.98,0.006,1.429A2.324,2.324,0,0,1,805.5,925Zm-0.533-4c-0.8,0-1.549-.028-2.294.008a2.855,2.855,0,0,1-1.757-.494q-3.337-2.137-6.723-4.2a2.158,2.158,0,0,0-1.04-.3c-1.686-.029-3.374,0-5.061-0.013a2,2,0,0,1-2.09-2.082c-0.009-.55,0-1.1,0-1.756-0.226.177-.355,0.272-0.478,0.375q-1.85,1.537-3.7,3.079a1.071,1.071,0,0,1-1.25.276,1.1,1.1,0,0,1-.579-1.147c0.012-.854,0-1.708,0-2.562v-1c-0.342.288-.566,0.474-0.787,0.664q-2.183,1.869-4.363,3.742a1.051,1.051,0,0,1-1.852-.877c0.009-.2-0.015-0.393-0.029-0.684-0.837.624-1.59,1.206-2.367,1.755a0.962,0.962,0,0,1-1.389-.187,0.952,0.952,0,0,1,.189-1.386c1.319-1.016,2.646-2.024,4-3a0.979,0.979,0,0,1,1.6.818c0.014,0.217,0,.435,0,0.762,0.27-.217.447-0.351,0.615-0.5q2.3-1.971,4.6-3.946a1.028,1.028,0,0,1,1.2-.253,1.049,1.049,0,0,1,.59,1.075c-0.008.959,0,1.917,0,2.875v0.81c1.449-1.207,2.778-2.309,4.1-3.419a1.14,1.14,0,0,1,1.3-.348A1.158,1.158,0,0,1,788,910.35c-0.013,1.2,0,2.4,0,3.648,1.9,0,3.73.009,5.559-.012a1.364,1.364,0,0,0,.611-0.271c2.3-1.431,4.578-2.886,6.892-4.287a3.41,3.41,0,0,1,1.454-.41c0.818-.066,1.644-0.018,2.45-0.018V863.039H759.045V915c1.938,0,3.831,0,5.724,0a2.015,2.015,0,0,1,2.23,2.252c0,1.687,0,3.374,0,5.062v0.651h37.967V921Zm14-9.956H803.5c0.343,0.863.688,1.664,0.975,2.485a0.631,0.631,0,0,0,.725.48c3.436-.016,6.871-0.009,10.307-0.009a5.257,5.257,0,0,1,.562.009,0.993,0.993,0,0,1-.02,1.982,5.542,5.542,0,0,1-.562.009q-5.122,0-10.245.006a0.851,0.851,0,0,0-.6.153c-0.41.914-.766,1.854-1.147,2.808h15.47v-7.923Zm-17.457.444L795.892,915l5.621,3.508c0.46-1.144.9-2.235,1.332-3.333a0.629,0.629,0,0,0-.023-0.42C802.406,913.694,801.975,912.637,801.511,911.488Zm-40.891,5.538,4.341,4.345v-4.345H760.62ZM788.032,868q5.343,0,10.686,0A2.034,2.034,0,0,1,801,870.265c0,1.208.006,2.416-.006,3.624A1.994,1.994,0,0,1,798.872,876Q788,876,777.126,876A2,2,0,0,1,775,873.889q-0.014-1.875,0-3.749A2.006,2.006,0,0,1,777.158,868Q782.6,867.993,788.032,868Zm-10.987,2.028v3.924h21.922v-3.924H777.045ZM782.062,887H799.5a3.6,3.6,0,0,1,.624.016,0.992,0.992,0,0,1,0,1.968,3.092,3.092,0,0,1-.562.015H764.437a3.092,3.092,0,0,1-.562-0.015,0.992,0.992,0,0,1,0-1.968A3.6,3.6,0,0,1,764.5,887h17.561Zm5.93-4h11.551a2.8,2.8,0,0,1,.622.024,0.992,0.992,0,0,1-.021,1.959,2.9,2.9,0,0,1-.56.019H776.419a4.361,4.361,0,0,1-.5-0.01,0.995,0.995,0,0,1,.022-1.985A5.538,5.538,0,0,1,776.5,883h11.488Zm-12,8h11.55a2.859,2.859,0,0,1,.622.023,0.994,0.994,0,0,1-.023,1.961,2.179,2.179,0,0,1-.436.015H764.361a2.5,2.5,0,0,1-.5-0.017,0.993,0.993,0,0,1,.024-1.968,3.263,3.263,0,0,1,.56-0.014H776Zm-13-19.011A5,5,0,1,1,768,877,5.009,5.009,0,0,1,763,871.989Zm8,0a3,3,0,1,0-3.021,3A3,3,0,0,0,771,871.993Zm2.033,29c2.9,0,5.792-.009,8.687.014a1.4,1.4,0,0,1,.954.312,1.148,1.148,0,0,1,.22.994,1.287,1.287,0,0,1-.866.65,14.97,14.97,0,0,1-2.12.037l-15.5,0c-0.146,0-.293.007-0.438-0.006a1,1,0,0,1-.963-1.026,0.975,0.975,0,0,1,.964-0.958c0.624-.028,1.249-0.01,1.874-0.01h7.188v0Zm-1.524-2h-7.051a4.367,4.367,0,0,1-.561-0.011,0.981,0.981,0,0,1-.887-1.029,0.956,0.956,0,0,1,.9-0.949,3.305,3.305,0,0,1,.5-0.01h14.164a4.362,4.362,0,0,1,.5.009,0.993,0.993,0,0,1-.013,1.982,4.612,4.612,0,0,1-.5.009h-7.051Zm-3.538-14a1,1,0,1,1,1.025-.966A1.007,1.007,0,0,1,767.969,885Zm4.024,0a1,1,0,1,1,1-.989A1,1,0,0,1,771.993,885Zm20.031,8a1,1,0,1,1,.97-1.007A1.013,1.013,0,0,1,792.024,893ZM782.993,897a1,1,0,1,1-.988.989A1.006,1.006,0,0,1,782.993,897Zm4,4.97a0.995,0.995,0,1,1-1.02-.969A1.008,1.008,0,0,1,786.994,901.974Z" transform="translate(-757 -861)"/>
</svg>
