<svg 
 xmlns="http://www.w3.org/2000/svg"
 xmlns:xlink="http://www.w3.org/1999/xlink"
 width="60px" height="61px">
<defs>
<filter id="Filter_0">
    <feFlood flood-color="rgb(1, 161, 221)" flood-opacity="1" result="floodOut" />
    <feComposite operator="atop" in="floodOut" in2="SourceGraphic" result="compOut" />
    <feBlend mode="normal" in="compOut" in2="SourceGraphic" />
</filter>

</defs>
<g filter="url(#Filter_0)">
<path fill-rule="evenodd"  fill="rgb(7, 153, 199)"
 d="M57.187,5.761 C57.761,5.447 58.319,5.142 58.949,4.797 C59.216,5.498 59.458,6.136 59.730,6.853 C59.034,7.037 58.425,7.198 57.800,7.363 C57.590,6.814 57.397,6.310 57.187,5.761 ZM54.939,3.206 C55.295,2.673 55.643,2.153 56.056,1.536 C56.609,2.019 57.129,2.473 57.710,2.981 C57.142,3.495 56.680,3.914 56.206,4.342 C55.772,3.954 55.371,3.594 54.939,3.206 ZM50.747,12.808 C50.349,13.287 49.779,13.363 49.362,12.953 C48.331,11.940 47.348,10.877 46.327,9.814 C46.770,9.382 47.218,8.946 47.666,8.509 C48.344,9.230 49.044,9.972 49.806,10.782 C51.344,8.910 52.761,7.185 54.213,5.417 C54.738,5.868 55.224,6.286 55.740,6.730 C54.055,8.785 52.411,10.805 50.747,12.808 ZM52.118,2.090 C51.989,2.046 51.843,1.802 51.847,1.654 C51.862,1.151 51.941,0.650 52.010,0.017 C52.722,0.177 53.392,0.328 54.134,0.495 C53.865,1.217 53.647,1.804 53.426,2.401 C52.958,2.296 52.525,2.230 52.118,2.090 ZM47.722,0.548 C48.441,0.361 49.091,0.191 49.827,-0.000 C49.922,0.753 50.001,1.374 50.083,2.022 C49.536,2.161 49.022,2.292 48.447,2.439 C48.213,1.830 47.985,1.235 47.722,0.548 ZM44.180,3.068 C44.736,2.559 45.241,2.097 45.804,1.582 C46.202,2.162 46.565,2.689 46.948,3.246 C46.533,3.629 46.139,3.992 45.693,4.402 C45.220,3.985 44.744,3.565 44.180,3.068 ZM44.136,7.434 C43.486,7.275 42.887,7.130 42.189,6.959 C42.449,6.251 42.688,5.599 42.950,4.885 C43.588,5.222 44.147,5.518 44.727,5.825 C44.528,6.365 44.343,6.868 44.136,7.434 ZM44.137,10.858 C43.528,11.017 42.936,11.171 42.225,11.356 C42.124,10.618 42.030,9.931 41.927,9.187 C42.648,9.187 43.278,9.187 43.941,9.187 C44.008,9.763 44.069,10.282 44.137,10.858 ZM42.939,21.612 C42.778,21.778 42.621,21.948 42.453,22.106 C42.231,22.314 42.066,22.495 42.237,22.856 C42.390,23.177 42.533,23.404 42.918,23.344 C42.958,23.338 43.001,23.346 43.042,23.347 C44.912,23.402 44.970,23.460 44.976,25.339 C44.979,26.313 44.983,27.288 44.973,28.262 C44.965,29.091 44.603,29.449 43.783,29.466 C43.513,29.472 43.241,29.480 42.971,29.468 C42.665,29.455 42.433,29.472 42.296,29.849 C42.170,30.196 42.195,30.405 42.445,30.679 C43.839,32.207 43.832,32.214 42.365,33.707 C41.732,34.351 41.110,35.007 40.459,35.633 C40.243,35.841 39.953,35.969 39.656,36.159 C39.369,35.992 39.102,35.878 38.884,35.701 C38.609,35.478 38.399,35.166 38.113,34.963 C37.952,34.849 37.655,34.787 37.489,34.861 C37.289,34.951 37.073,35.189 37.025,35.401 C36.943,35.765 36.996,36.160 36.973,36.540 C36.933,37.215 36.569,37.590 35.897,37.598 C34.627,37.614 33.356,37.614 32.086,37.600 C31.358,37.591 30.999,37.199 30.979,36.441 C30.972,36.166 30.973,35.890 30.978,35.615 C30.985,35.295 31.006,35.031 30.599,34.866 C30.207,34.707 30.005,34.818 29.741,35.075 C28.346,36.430 28.283,36.426 26.897,35.036 C26.245,34.381 25.597,33.721 24.955,33.057 C24.321,32.402 24.329,31.934 24.972,31.263 C25.147,31.082 25.319,30.896 25.503,30.725 C25.728,30.516 25.885,30.333 25.716,29.974 C25.564,29.652 25.418,29.426 25.034,29.488 C25.014,29.491 24.992,29.487 24.971,29.486 C22.991,29.416 22.981,29.407 22.975,27.363 C22.973,26.431 22.970,25.499 22.980,24.567 C22.989,23.738 23.350,23.381 24.171,23.365 C24.442,23.360 24.713,23.353 24.983,23.364 C25.290,23.378 25.521,23.359 25.657,22.981 C25.782,22.635 25.802,22.386 25.502,22.158 C25.485,22.145 25.473,22.127 25.459,22.112 C24.129,20.646 24.130,20.610 25.501,19.215 C26.149,18.557 26.794,17.894 27.447,17.240 C28.073,16.612 28.541,16.606 29.167,17.209 C29.364,17.399 29.527,17.634 29.749,17.782 C29.939,17.910 30.199,18.024 30.413,17.999 C30.764,17.960 31.025,17.744 30.953,17.309 C30.949,17.289 30.954,17.267 30.954,17.246 C30.904,15.186 31.343,15.194 32.991,15.222 C33.886,15.238 34.782,15.224 35.677,15.229 C36.646,15.233 36.971,15.572 36.976,16.578 C36.977,16.811 36.987,17.045 36.974,17.277 C36.956,17.593 36.990,17.821 37.355,17.959 C37.696,18.089 37.899,18.059 38.168,17.803 C39.657,16.383 39.665,16.390 41.099,17.838 C41.720,18.465 42.339,19.094 42.954,19.726 C43.644,20.436 43.639,20.886 42.939,21.612 ZM40.395,23.668 C39.895,22.473 40.081,21.502 40.969,20.717 C40.491,20.205 40.066,19.748 39.603,19.252 C38.769,20.257 37.808,20.365 36.632,19.866 C35.461,19.368 34.874,18.588 34.965,17.304 C34.272,17.304 33.638,17.304 32.968,17.304 C33.096,18.665 32.428,19.399 31.274,19.892 C30.103,20.392 29.141,20.219 28.378,19.304 C27.871,19.789 27.421,20.219 26.926,20.693 C27.946,21.536 28.021,22.522 27.538,23.713 C27.054,24.907 26.284,25.504 25.018,25.409 C25.018,26.114 25.018,26.759 25.018,27.442 C26.353,27.312 27.071,27.986 27.559,29.163 C28.055,30.360 27.872,31.330 27.006,32.095 C27.484,32.604 27.911,33.059 28.371,33.549 C29.186,32.574 30.152,32.467 31.323,32.963 C32.493,33.458 33.083,34.242 32.985,35.529 C33.682,35.529 34.316,35.529 34.985,35.529 C34.858,34.168 35.524,33.439 36.681,32.945 C37.854,32.444 38.812,32.612 39.578,33.526 C40.083,33.044 40.535,32.614 41.022,32.150 C40.029,31.292 39.927,30.313 40.414,29.119 C40.901,27.925 41.672,27.332 42.936,27.420 C42.936,26.719 42.936,26.074 42.936,25.388 C41.598,25.524 40.884,24.841 40.395,23.668 ZM33.896,31.499 C31.173,31.463 28.966,29.166 28.979,26.382 C28.993,23.583 31.263,21.312 34.025,21.332 C36.779,21.353 39.001,23.665 38.974,26.480 C38.947,29.275 36.660,31.535 33.896,31.499 ZM33.959,23.367 C32.328,23.375 30.986,24.741 30.979,26.400 C30.972,28.081 32.342,29.474 33.994,29.465 C35.625,29.457 36.968,28.090 36.974,26.430 C36.981,24.748 35.613,23.359 33.959,23.367 ZM22.603,18.959 C22.148,19.135 21.786,18.964 21.480,18.636 C21.066,18.190 20.667,17.730 20.256,17.269 C17.819,19.309 16.473,21.723 16.657,24.891 C16.778,26.982 17.357,28.922 18.405,30.719 C18.651,31.141 18.812,31.560 18.533,32.026 C18.260,32.484 17.699,32.687 17.230,32.388 C13.073,29.734 9.964,26.298 9.465,21.071 C9.164,17.927 10.462,15.401 12.693,13.300 C13.286,12.742 13.805,12.103 14.446,11.404 C14.041,11.017 13.542,10.642 13.183,10.160 C12.964,9.866 12.795,9.343 12.907,9.039 C13.019,8.737 13.496,8.418 13.838,8.386 C16.801,8.108 19.770,7.891 22.737,7.660 C23.553,7.597 24.024,8.030 23.965,8.863 C23.747,11.903 23.501,14.942 23.270,17.981 C23.234,18.444 23.046,18.787 22.603,18.959 ZM16.084,10.225 C16.245,10.417 16.307,10.498 16.376,10.573 C17.086,11.346 17.090,11.773 16.362,12.507 C15.550,13.327 14.689,14.100 13.914,14.955 C13.298,15.634 12.678,16.345 12.235,17.143 C10.173,20.857 12.301,25.595 15.122,28.124 C15.048,27.757 14.985,27.454 14.925,27.151 C14.126,23.083 14.961,19.508 17.997,16.594 C18.345,16.260 18.697,15.927 19.014,15.563 C19.867,14.582 20.507,14.625 21.235,15.503 C21.266,15.541 21.339,15.543 21.450,15.582 C21.596,13.642 21.740,11.738 21.888,9.768 C19.938,9.922 18.082,10.068 16.084,10.225 ZM11.340,49.529 C12.841,50.307 14.062,51.388 14.971,52.988 C15.875,51.443 17.065,50.306 18.653,49.537 C17.430,48.297 16.825,46.862 17.013,45.155 C17.160,43.815 17.763,42.697 18.783,41.832 C20.784,40.138 23.711,40.292 25.535,42.175 C27.132,43.822 27.832,46.878 25.323,49.535 C26.873,50.311 28.071,51.419 28.972,52.982 C29.883,51.436 31.065,50.313 32.641,49.538 C31.415,48.265 30.791,46.801 31.028,45.046 C31.203,43.757 31.791,42.680 32.774,41.844 C34.740,40.173 37.594,40.278 39.436,42.077 C41.488,44.082 41.469,46.671 39.380,49.514 C39.882,49.850 40.410,50.151 40.880,50.528 C42.863,52.118 43.885,54.216 43.968,56.778 C43.999,57.751 43.979,58.727 43.975,59.701 C43.971,60.649 43.628,60.996 42.686,60.996 C35.689,60.999 28.692,61.000 21.695,61.000 C14.927,61.000 8.159,60.998 1.391,60.998 C0.280,60.997 -0.038,60.698 -0.015,59.576 C0.015,58.160 -0.069,56.718 0.166,55.334 C0.582,52.887 1.989,51.063 4.108,49.821 C4.252,49.737 4.398,49.656 4.541,49.572 C4.557,49.562 4.564,49.537 4.601,49.480 C3.449,48.311 2.831,46.901 3.008,45.213 C3.148,43.875 3.733,42.747 4.745,41.871 C6.729,40.152 9.648,40.276 11.500,42.134 C13.043,43.682 13.915,46.795 11.340,49.529 ZM35.964,42.692 C34.332,42.697 32.988,44.061 32.979,45.720 C32.970,47.407 34.323,48.787 35.989,48.789 C37.612,48.792 38.973,47.411 38.973,45.760 C38.974,44.063 37.622,42.686 35.964,42.692 ZM30.072,58.948 C34.004,58.948 37.938,58.948 41.965,58.948 C41.965,58.121 41.996,57.342 41.959,56.565 C41.814,53.488 39.257,50.933 36.234,50.836 C32.571,50.718 29.203,53.766 30.072,58.948 ZM21.975,42.692 C20.317,42.693 18.966,44.084 18.980,45.773 C18.995,47.429 20.353,48.797 21.977,48.790 C23.635,48.783 24.987,47.392 24.975,45.704 C24.964,44.051 23.609,42.690 21.975,42.692 ZM16.073,58.948 C20.005,58.948 23.939,58.948 27.963,58.948 C27.963,58.154 27.998,57.359 27.957,56.567 C27.796,53.462 25.261,50.926 22.237,50.840 C18.517,50.734 15.229,53.774 16.073,58.948 ZM3.892,52.487 C1.989,54.228 1.820,56.512 2.030,58.932 C5.996,58.932 9.943,58.932 13.973,58.932 C13.973,58.159 14.011,57.440 13.966,56.726 C13.804,54.171 12.591,52.299 10.263,51.317 C7.933,50.333 5.766,50.771 3.892,52.487 ZM8.040,42.692 C6.373,42.673 5.006,44.024 4.983,45.715 C4.961,47.367 6.294,48.762 7.922,48.790 C9.581,48.818 10.964,47.451 10.977,45.768 C10.989,44.105 9.659,42.711 8.040,42.692 ZM42.996,13.431 C43.625,13.090 44.169,12.794 44.747,12.480 C45.071,12.944 45.379,13.384 45.725,13.878 C45.256,14.308 44.785,14.741 44.230,15.251 C43.797,14.612 43.413,14.047 42.996,13.431 ZM46.992,15.029 C47.489,15.291 47.959,15.539 48.493,15.821 C48.271,16.421 48.048,17.022 47.786,17.729 C47.121,17.377 46.538,17.068 45.864,16.712 C46.260,16.121 46.614,15.592 46.992,15.029 ZM50.132,16.280 C50.690,16.280 51.233,16.280 51.833,16.280 C51.907,16.882 51.983,17.498 52.073,18.224 C51.333,18.224 50.683,18.224 49.934,18.224 C50.001,17.560 50.064,16.945 50.132,16.280 ZM53.482,15.822 C53.969,15.556 54.438,15.301 54.976,15.008 C55.326,15.519 55.688,16.046 56.125,16.684 C55.457,17.044 54.864,17.364 54.199,17.722 C53.943,17.044 53.717,16.445 53.482,15.822 ZM44.718,37.367 C44.797,37.030 45.087,36.600 45.378,36.499 C45.672,36.396 46.159,36.550 46.431,36.764 C46.919,37.148 47.310,37.660 47.736,38.112 C51.006,35.551 52.112,31.728 50.770,27.542 C50.450,26.544 49.968,25.596 49.514,24.648 C49.264,24.126 49.127,23.643 49.579,23.197 C50.030,22.751 50.514,22.866 51.001,23.181 C54.236,25.276 56.786,27.967 57.995,31.751 C59.276,35.762 58.325,39.212 55.289,42.078 C54.755,42.583 54.239,43.107 53.717,43.624 C53.643,43.697 53.579,43.781 53.455,43.923 C53.930,44.389 54.423,44.771 54.776,45.258 C54.993,45.557 55.147,46.064 55.047,46.387 C54.959,46.672 54.495,46.991 54.171,47.023 C51.684,47.269 49.191,47.449 46.701,47.649 C46.223,47.687 45.746,47.735 45.268,47.761 C44.362,47.809 43.928,47.391 43.991,46.482 C44.160,44.074 44.350,41.667 44.534,39.259 C44.583,38.626 44.574,37.977 44.718,37.367 ZM51.851,45.194 C51.724,45.030 51.657,44.931 51.578,44.844 C50.850,44.045 50.853,43.641 51.626,42.866 C52.441,42.049 53.265,41.243 54.089,40.436 C55.175,39.373 56.043,38.158 56.342,36.636 C57.092,32.828 55.361,29.947 52.914,27.348 C52.883,27.522 52.910,27.677 52.943,27.831 C53.444,30.145 53.497,32.442 52.701,34.709 C52.001,36.706 50.632,38.199 49.167,39.631 C47.926,40.844 47.943,40.861 46.617,39.849 C46.606,39.840 46.580,39.852 46.499,39.862 C46.358,41.766 46.216,43.682 46.070,45.650 C48.049,45.494 49.905,45.347 51.851,45.194 ZM56.245,13.864 C56.595,13.353 56.891,12.921 57.213,12.451 C57.778,12.752 58.342,13.053 58.983,13.394 C58.563,14.013 58.180,14.579 57.747,15.218 C57.209,14.733 56.736,14.307 56.245,13.864 ZM58.000,9.161 C58.618,9.161 59.248,9.161 60.000,9.161 C59.920,9.862 59.840,10.571 59.755,11.319 C59.064,11.145 58.484,11.000 57.833,10.837 C57.887,10.296 57.940,9.762 58.000,9.161 Z"/>
</g>
</svg>