<svg xmlns="http://www.w3.org/2000/svg" xmlns:xlink="http://www.w3.org/1999/xlink" width="63" height="63" viewBox="0 0 63 63">
  <defs>
    <style>
      .cls-1 {
        fill: #0799c7;
        fill-rule: evenodd;
        filter: url(#filter);
      }
    </style>
    <filter id="filter" x="1397" y="857" width="63" height="63" filterUnits="userSpaceOnUse">
      <feFlood result="flood" flood-color="#01a1dd"/>
      <feComposite result="composite" operator="in" in2="SourceGraphic"/>
      <feBlend result="blend" in2="SourceGraphic"/>
    </filter>
  </defs>
  <path id="Фигура_4" data-name="Фигура 4" class="cls-1" d="M1460,889.516V863.1h-14.23V857h-34.54v6.1H1397v26.419h6.1V904.9a4.055,4.055,0,1,0,4.93,4.937h9.29v1.748l2.5,0.832-1.18,2.352,3.91,3.91,2.35-1.176,0.83,2.5h5.53l0.84-2.5,2.35,1.176,3.91-3.91-1.18-2.352,2.5-.832v-1.748h9.29a4.054,4.054,0,1,0,4.93-4.937V889.516h6.1Zm-14.23-2.032v-6.1h12.2v6.1h-12.2Zm-31.5,0h-1.01v-8.129h30.48v8.129h-29.47Zm31.5-14.226h12.2v6.1h-12.2v-6.1Zm-2.03,4.064h-30.48v-8.129h30.48v8.129Zm-32.51,2.033h-12.2v-6.1h12.2v6.1Zm46.74-14.226v6.1h-12.2v-6.1h12.2Zm-14.23-6.1v8.129h-30.48v-8.129h30.48Zm-32.51,6.1v6.1h-12.2v-6.1h12.2Zm-12.2,16.258h12.2v6.1h-12.2v-6.1Zm5.08,29.468a2.033,2.033,0,1,1,2.03-2.033A2.033,2.033,0,0,1,1404.11,910.855Zm3.92-3.049a4.058,4.058,0,0,0-2.9-2.9V889.516h22.35v8.129h-1.75l-0.83,2.5-2.35-1.176-3.91,3.91,1.18,2.352-2.5.831v1.749h-9.29Zm29.62,2.316-2.34.778-0.17.453c-0.05.129-.1,0.256-0.16,0.381l-0.19.439,1.1,2.2-1.84,1.839-2.2-1.1-0.44.2c-0.13.057-.26,0.107-0.39,0.158l-0.44.172-0.78,2.331h-2.6l-0.78-2.331-0.45-.172c-0.13-.051-0.26-0.1-0.38-0.158l-0.44-.2-2.2,1.1-1.84-1.839,1.1-2.2-0.19-.439c-0.06-.125-0.11-0.252-0.16-0.381l-0.17-.453-2.34-.778v-2.6l2.34-.779,0.17-.452c0.05-.129.1-0.256,0.16-0.381l0.19-.44-1.1-2.2,1.84-1.838,2.2,1.1,0.44-.2c0.13-.057.26-0.107,0.38-0.158l0.45-.172,0.78-2.33h2.6l0.78,2.331,0.45,0.172c0.13,0.051.26,0.1,0.38,0.158l0.44,0.2,2.2-1.1,1.84,1.838-1.1,2.2,0.19,0.44c0.06,0.125.11,0.252,0.16,0.381l0.17,0.453,2.34,0.778v2.6Zm17.27-1.3a2.035,2.035,0,1,1-2.03-2.032A2.033,2.033,0,0,1,1454.92,908.822Zm-3.05-3.92a4.058,4.058,0,0,0-2.9,2.9h-9.29v-1.749l-2.5-.831,1.18-2.352-3.91-3.91-2.35,1.176-0.84-2.5h-1.74v-8.129h22.35V904.9Zm-36.58-43.838h2.03V863.1h-2.03v-2.033Zm4.06,0h2.04V863.1h-2.04v-2.033Zm20.33,0h2.03v4.065h-2.03v-4.065Zm-4.07,0h2.04v4.065h-2.04v-4.065Zm-4.06,0h2.03v4.065h-2.03v-4.065Zm-16.26,10.162h2.03v2.032h-2.03v-2.032Zm4.06,0h2.04v2.032h-2.04v-2.032Zm20.33,0h2.03v4.064h-2.03v-4.064Zm-4.07,0h2.04v4.064h-2.04v-4.064Zm-4.06,0h2.03v4.064h-2.03v-4.064Zm-16.26,10.161h2.03v2.032h-2.03v-2.032Zm4.06,0h2.04v2.032h-2.04v-2.032Zm20.33,0h2.03v4.064h-2.03v-4.064Zm-4.07,0h2.04v4.064h-2.04v-4.064Zm-4.06,0h2.03v4.064h-2.03v-4.064Zm22.35-14.226h2.04v2.032h-2.04v-2.032Zm-4.06,0h2.03v2.032h-2.03v-2.032Zm4.06,8.129h2.04v2.032h-2.04V875.29Zm-4.06,0h2.03v2.032h-2.03V875.29Zm4.06,8.129h2.04v2.032h-2.04v-2.032Zm-4.06,0h2.03v2.032h-2.03v-2.032Zm-44.71-16.258h2.03v2.032h-2.03v-2.032Zm-4.07,0h2.04v2.032h-2.04v-2.032Zm4.07,8.129h2.03v2.032h-2.03V875.29Zm-4.07,0h2.04v2.032h-2.04V875.29Zm4.07,8.129h2.03v2.032h-2.03v-2.032Zm-4.07,0h2.04v2.032h-2.04v-2.032Zm27.44,20.323a5.081,5.081,0,1,0,5.08,5.08A5.087,5.087,0,0,0,1428.5,903.742Zm0,8.129a3.049,3.049,0,1,1,3.05-3.049A3.054,3.054,0,0,1,1428.5,911.871Z" transform="translate(-1397 -857)"/>
</svg>
