<svg xmlns="http://www.w3.org/2000/svg" xmlns:xlink="http://www.w3.org/1999/xlink" width="41" height="59" viewBox="0 0 41 59">
  <defs>
    <style>
      .cls-1 {
        fill: #0799c7;
        fill-rule: evenodd;
        filter: url(#filter);
      }
    </style>
    <filter id="filter" x="760" y="1254" width="41" height="59" filterUnits="userSpaceOnUse">
      <feFlood result="flood" flood-color="#60c893"/>
      <feComposite result="composite" operator="in" in2="SourceGraphic"/>
      <feBlend result="blend" in2="SourceGraphic"/>
    </filter>
  </defs>
  <path id="Фигура_7" data-name="Фигура 7" class="cls-1" d="M798.505,1254c0.141,0.05.281,0.11,0.424,0.16a3.051,3.051,0,0,1-.945,5.94c-1.021.02-2.041,0-3.121,0v0.74c0,4.05-.023,8.1.01,12.16a5.578,5.578,0,0,1-2.312,4.77c-2.189,1.68-4.33,3.42-6.489,5.13a3.208,3.208,0,0,0,0,5.41c2.218,1.77,4.428,3.55,6.66,5.3a5.293,5.293,0,0,1,2.136,4.44c-0.012,2.69,0,5.38,0,8.07v0.77c0.93,0,1.831,0,2.732.01a4.964,4.964,0,0,1,1.091.1,3.012,3.012,0,0,1,2.3,3.17,3.052,3.052,0,0,1-2.871,2.82c-0.135.01-.271,0.01-0.406,0.01H763.283a3.054,3.054,0,1,1-.27-6.1c1.02-.02,2.041,0,3.129,0v-0.73c0-2.67.014-5.34-.012-8.01a5.457,5.457,0,0,1,2.239-4.63c2.227-1.73,4.414-3.5,6.62-5.25a3.2,3.2,0,0,0,.035-5.31c-2.2-1.76-4.392-3.53-6.624-5.24a5.506,5.506,0,0,1-2.266-4.68c0.026-4.07.008-8.14,0.008-12.21v-0.74c-1.083,0-2.1.02-3.124,0a3.082,3.082,0,0,1-2.927-2.29,3.039,3.039,0,0,1,1.461-3.4,8.116,8.116,0,0,1,.948-0.41h36Zm-5.7,52.87v-0.5c0-2.81-.007-5.61,0-8.42a3.27,3.27,0,0,0-1.334-2.73q-3.369-2.64-6.71-5.33a5.23,5.23,0,0,1,.027-8.58c2.209-1.75,4.4-3.51,6.623-5.25a3.4,3.4,0,0,0,1.4-2.88c-0.021-4.15-.01-8.3-0.011-12.44v-0.6H768.2v0.66c0,4.09.019,8.18-.01,12.27a3.582,3.582,0,0,0,1.5,3.07c2.213,1.72,4.395,3.47,6.582,5.21a5.226,5.226,0,0,1,.009,8.51c-2.249,1.79-4.494,3.59-6.753,5.37a3.261,3.261,0,0,0-1.329,2.74c0.015,2.78.007,5.56,0.008,8.35v0.57c0.281,0,.476-0.01.667,0.01a0.382,0.382,0,0,0,.487-0.4,11.2,11.2,0,0,1,1.72-4.42,25.255,25.255,0,0,1,7.884-7.61,1.009,1.009,0,0,0,.522-0.97c-0.016-4.82-.01-9.64-0.01-14.46v-0.62h-1.781a1.062,1.062,0,0,1-1.273-1.02,1.05,1.05,0,0,1,1.257-1.03c1.259-.01,2.517.01,3.775,0a2.027,2.027,0,1,0,.032-4.05c-0.716-.01-1.433.01-2.149-0.01a4.065,4.065,0,0,1-.91-8,10.071,10.071,0,0,1,1.048-.19c0-.33-0.015-0.64,0-0.94a1.019,1.019,0,0,1,1.03-1.03,1.006,1.006,0,0,1,1.027,1.03c0.02,0.31,0,.63,0,0.98h0.721a1.086,1.086,0,0,1,1.308,1.05,1.065,1.065,0,0,1-1.288,1c-0.909,0-1.819-.01-2.729,0a2.027,2.027,0,1,0-.009,4.05c0.7,0.02,1.394-.01,2.09.02a4.06,4.06,0,0,1,1,7.98c-0.346.09-.707,0.14-1.067,0.2-0.01.11-.023,0.18-0.023,0.26q0,7.515.016,15.03a0.844,0.844,0,0,0,.332.58c0.646,0.49,1.341.91,1.987,1.4a21.553,21.553,0,0,1,6.617,7.38,36.7,36.7,0,0,1,1.417,3.76h0.9Zm-3.077,0a21.493,21.493,0,0,0-.834-2.38c-1.786-3.7-4.806-6.24-8.168-8.44a0.54,0.54,0,0,0-.507.03,24.016,24.016,0,0,0-7.264,6.85,9.349,9.349,0,0,0-1.588,3.94h18.361Zm-9.226-50.82h0c-5.651,0-11.3-.01-16.953,0a5.354,5.354,0,0,0-.7.02,0.985,0.985,0,0,0-.807.99,0.973,0.973,0,0,0,.77.96,2.217,2.217,0,0,0,.577.04h34.2c0.87,0,1.347-.35,1.362-0.99,0.015-.66-0.473-1.02-1.382-1.02H780.506Zm0,54.9H797.4c0.213,0,.427.01,0.638-0.01a1,1,0,0,0-.029-1.99c-0.154-.01-0.31-0.01-0.464-0.01H763.4c-0.868,0-1.346.35-1.357,0.99s0.468,1.01,1.329,1.02H780.5Z" transform="translate(-760 -1254)"/>
</svg>
