<svg xmlns="http://www.w3.org/2000/svg" xmlns:xlink="http://www.w3.org/1999/xlink" width="59" height="59" viewBox="0 0 59 59">
  <defs>
    <style>
      .cls-1 {
        fill: #f3f3f3;
        fill-rule: evenodd;
        filter: url(#filter);
      }
    </style>
    <filter id="filter" x="1395" y="1249" width="59" height="59" filterUnits="userSpaceOnUse">
      <feFlood result="flood" flood-color="#60c893"/>
      <feComposite result="composite" operator="in" in2="SourceGraphic"/>
      <feBlend result="blend" in2="SourceGraphic"/>
    </filter>
  </defs>
  <path id="Фигура_9" data-name="Фигура 9" class="cls-1" d="M1450.19,1258.52h-9.51V1249H1395v51.39a7.627,7.627,0,0,0,7.61,7.61h43.78a7.627,7.627,0,0,0,7.61-7.61v-38.07A3.807,3.807,0,0,0,1450.19,1258.52Zm-3.27,1.9a3.742,3.742,0,0,0-.53,1.9v27.6h-5.71v-29.5h6.24Zm-44.31,45.68a5.715,5.715,0,0,1-5.71-5.71V1250.9h41.87v49.49a7.587,7.587,0,0,0,2.59,5.71h-38.75Zm49.49-5.71a5.71,5.71,0,1,1-11.42,0v-8.57h7.61v-29.5a1.905,1.905,0,0,1,3.81,0v38.07Zm-46.63-45.68h1.9v17.13h5.71v-9.52h1.9v9.52h5.71v-14.28h1.91v14.28h5.71v-6.66h1.9v6.66h4.76v-1.9h-2.86v-6.67h-5.71v6.67h-1.9v-14.28h-5.71v14.28h-1.9v-9.52h-5.71v9.52h-1.91v-17.13h-5.71v17.13h-2.85v1.9h4.76v-17.13Zm-5.71,24.74h8.56v1.9h-8.56v-1.9Zm10.47,0h8.56v1.9h-8.56v-1.9Zm-10.47,15.23h8.56v1.9h-8.56v-1.9Zm10.47,0h8.56v1.9h-8.56v-1.9Zm-10.47-11.42h8.56v1.9h-8.56v-1.9Zm10.47,0h8.56v1.9h-8.56v-1.9Zm-10.47-7.62h19.03v1.91h-19.03v-1.91Zm0,11.42h19.03v1.91h-19.03v-1.91Zm20.93-7.61h6.66v1.9h-6.66v-1.9Zm8.57,0h6.66v1.9h-6.66v-1.9Zm-8.57-3.81h15.23v1.91h-15.23v-1.91Zm0,7.62h15.23v1.9h-15.23v-1.9Zm-20.93,7.61h19.03v1.9h-19.03v-1.9Zm0,7.61h19.03v1.91h-19.03v-1.91Zm29.97-8.56h-0.47v-1.9h-1.91v1.9h-0.47a3.33,3.33,0,0,0,0,6.66h2.85a1.43,1.43,0,1,1,0,2.86h-2.85a1.43,1.43,0,0,1-1.43-1.43v-0.48h-1.9v0.48a3.335,3.335,0,0,0,3.33,3.33h0.47v1.9h1.91v-1.9h0.47a3.33,3.33,0,0,0,0-6.66h-2.85a1.43,1.43,0,0,1,0-2.86h2.85a1.43,1.43,0,0,1,1.43,1.43v0.48h1.9v-0.48A3.329,3.329,0,0,0,1429.73,1289.92Z" transform="translate(-1395 -1249)"/>
</svg>
