<svg version="1.1" id="Layer_1" xmlns="http://www.w3.org/2000/svg" x="0" y="0" viewBox="0 0 205.4 77.9" xml:space="preserve"><style>.st0{fill:#003f70}.st1{fill:#dd1b52}</style><path class="st0" d="M12.4 0c3-.1 5.9 1.1 8.1 3.2 4.4 4.4 4.4 11.5 0 15.9-2.1 2.1-5.1 3.3-8.1 3.2H6.6v10.9H0V0h12.4zm0 16.2c2.8-.1 5-2.4 4.9-5.2-.1-2.6-2.2-4.8-4.9-4.9H6.6v10.1h5.8zM42.3 9.5h6.1v23.8h-6.1v-2.7c-1.5 2.2-3.8 3.3-7.1 3.3-2.4.1-4.8-.9-6.5-2.6-1.8-2-2.7-4.6-2.5-7.2V9.5h6.1v13.8c0 3.2 1.9 4.9 4.7 4.9 3.2 0 5.2-1.9 5.2-5.9l.1-12.8zM51.8 33.3V0h6.1v33.3h-6.1zM75 0c3-.1 5.9 1.1 8.1 3.2 4.4 4.4 4.4 11.5 0 15.9-2.1 2.1-5.1 3.3-8.1 3.2h-5.8v10.9h-6.6V0H75zm0 16.2c2.8-.1 5-2.4 4.9-5.2-.1-2.6-2.2-4.8-4.9-4.9h-5.8v10.1H75zM104.9 9.5h6.1v23.8h-6.1v-2.7c-1.5 2.2-3.8 3.3-7.1 3.3-2.4.1-4.8-.9-6.5-2.6-1.8-2-2.7-4.6-2.5-7.2V9.5H95v13.8c0 3.2 1.9 4.9 4.7 4.9 3.2 0 5.2-1.9 5.2-5.9V9.5zM114.4 33.3V0h6.1v33.3h-6.1z" transform="translate(84.924 44.032)"/><g><path class="st1" d="M33.6 0H0l3.8 19.6C8.9 7.7 20.6 0 33.6 0zM34.3 0h-.6.6zM10.6 55.6l4.1 21.6H49l-2.8-14.7C34 67.7 20 64.9 10.6 55.6z"/><path d="M34.3 0h-.7C20.6 0 8.9 7.7 3.8 19.6l6.9 36c12.7 12.7 33.3 12.7 46 0 12.7-12.7 12.7-33.3 0-46-6-6-14-9.4-22.4-9.6z" fill="#fdd600"/></g></svg>