<svg width="36" height="40" viewBox="0 0 36 40" fill="none" xmlns="http://www.w3.org/2000/svg">
<g clip-path="url(#clip0)">
<path d="M0.0498047 0.097168H27.4241L35.0376 7.75522V39.9503H0.0498047V0.097168ZM27.7179 1.75683V7.56073H33.5239L27.7179 1.75683ZM1.02577 38.9271H34.1114V8.53634H26.7419V1.07244H1.02577V38.9271ZM11.2734 24.9278L11.2734 24.9278C11.7118 24.5371 12.0053 23.9522 12.1521 23.2167L13.3225 23.5101C13.0785 24.4857 12.6401 25.2174 12.0053 25.7052C11.3706 26.193 10.589 26.4369 9.66262 26.4369C8.73624 26.4369 7.95469 26.2426 7.3695 25.8519C6.78431 25.4633 6.29631 24.9259 6.00276 24.1942C5.66155 23.4625 5.51478 22.6812 5.51478 21.8523C5.51478 20.9263 5.71113 20.145 6.05234 19.4629C6.44312 18.7807 6.9311 18.2434 7.56586 17.9023C8.24826 17.5593 8.93065 17.3649 9.7122 17.3649C10.591 17.3649 11.2734 17.6088 11.9081 18.0471C12.5429 18.4853 12.9337 19.1199 13.1777 19.9487L12.0549 20.2422C11.8585 19.6096 11.5669 19.1218 11.1761 18.8283C10.7854 18.5368 10.2974 18.3901 9.7122 18.3901C9.02981 18.3901 8.44269 18.5368 8.00427 18.8779C7.51628 19.2189 7.22273 19.6572 7.0283 20.1945C6.83197 20.7795 6.73475 21.3169 6.73475 21.9019C6.73475 22.6336 6.88153 23.3157 7.07596 23.8531C7.31995 24.44 7.66308 24.8287 8.1015 25.1222C8.58948 25.3661 9.07747 25.5128 9.61503 25.5128C10.2478 25.5128 10.835 25.3184 11.2734 24.9278ZM19.8604 21.7073L19.8604 21.7074C20.3484 21.9018 20.7392 22.2447 20.9374 22.5858C21.1814 22.9765 21.2786 23.3671 21.2786 23.8549C21.2786 24.3427 21.1318 24.781 20.8878 25.1716C20.5962 25.6098 20.2054 25.9033 19.7175 26.1472C19.1799 26.3911 18.6443 26.4883 18.0095 26.4883C17.228 26.4883 16.5456 26.3415 16.008 26.1472C15.4705 25.9509 15.032 25.6098 14.7385 25.122C14.4449 24.6838 14.2505 24.1464 14.2505 23.5614L15.3237 23.4643C15.3713 23.9025 15.4705 24.2436 15.6649 24.537C15.8612 24.8286 16.1052 25.0725 16.5436 25.2192C16.984 25.3659 17.4224 25.4631 17.9104 25.4631C18.3488 25.4631 18.7395 25.4154 19.0808 25.2687C19.4239 25.122 19.7155 24.9257 19.8623 24.7314C20.0091 24.537 20.1063 24.2931 20.1063 23.9996C20.1063 23.7062 20.0091 23.4623 19.8623 23.2679C19.7155 23.024 19.4715 22.8773 19.0808 22.7306C18.8368 22.6334 18.3488 22.4867 17.5196 22.2923C16.6904 22.096 16.1529 21.9493 15.8117 21.7549C15.4228 21.511 15.0797 21.2671 14.8853 20.9261C14.689 20.6346 14.5917 20.2439 14.5917 19.8533C14.5917 19.415 14.7385 19.0244 14.9825 18.6338C15.2761 18.2431 15.6173 17.9497 16.1052 17.7553C16.5932 17.5591 17.1308 17.4619 17.716 17.4619C18.3507 17.4619 18.9359 17.561 19.4239 17.7553C19.9595 17.9497 20.3503 18.2908 20.5943 18.6814C20.8859 19.072 21.0327 19.5103 21.0327 20.0476L19.91 20.1448C19.8623 19.5579 19.666 19.1692 19.3248 18.8757C18.9816 18.5842 18.4936 18.4375 17.8113 18.4375C17.1269 18.4375 16.6389 18.5842 16.2977 18.8281C15.9565 19.072 15.8097 19.4131 15.8097 19.7541C15.8097 20.0971 15.907 20.3411 16.151 20.5354C16.3949 20.7317 16.9821 20.9756 17.9085 21.1699C18.8844 21.3662 19.5192 21.5606 19.8604 21.7073ZM26.5453 23.9024L28.8879 17.5112H30.0583L26.6424 26.2917H25.4721L22.0562 17.5112H23.3257L25.6189 23.9024C25.7637 24.3902 25.9105 24.878 26.0573 25.3163C26.204 24.878 26.3508 24.3902 26.5453 23.9024Z" fill="#161A22" stroke="#161A22" stroke-width="0.2"/>
</g>
<defs>
<clipPath id="clip0">
<rect width="36" height="40" fill="white"/>
</clipPath>
</defs>
</svg>
