<svg width="72" height="72" viewBox="0 0 72 72" fill="none" xmlns="http://www.w3.org/2000/svg">
<g clip-path="url(#clip0)">
<path d="M35.7892 13.7225H5.45346V69.6096H46.3358V24.1596H36.9844C36.3235 24.1596 35.7891 23.6252 35.7891 22.9643L35.7892 13.7225ZM24.0669 20.4078C22.4947 20.4078 22.4947 18.0172 24.0669 18.0172H33.4269C34.9991 18.0172 34.9991 20.4078 33.4269 20.4078H24.0669ZM24.0669 30.6844C22.4947 30.6844 22.4947 28.2938 24.0669 28.2938H39.2013C40.7735 28.2938 40.7735 30.6844 39.2013 30.6844H24.0669ZM10.3754 40.9609C8.80318 40.9609 8.80318 38.5703 10.3754 38.5703H42.7135C44.2856 38.5703 44.2856 40.9609 42.7135 40.9609H10.3754ZM10.3754 51.2404C8.80318 51.2404 8.80318 48.8498 10.3754 48.8498H42.7135C44.2856 48.8498 44.2856 51.2404 42.7135 51.2404H10.3754ZM10.3754 61.5169C8.80318 61.5169 8.80318 59.1263 10.3754 59.1263H42.7135C44.2856 59.1263 44.2856 61.5169 42.7135 61.5169H10.3754ZM61.6977 11.0327C62.0493 11.1565 62.3108 11.3224 62.4823 11.6852L68.7992 24.9742C68.9567 25.2921 68.9736 25.6099 68.8667 25.9221L52.8381 70.9977C52.6187 71.6192 51.9353 71.9455 51.3137 71.7261L48.7261 70.8064C48.7233 71.4645 48.1889 71.9989 47.5308 71.9989H4.25736C3.59642 71.9989 3.06201 71.4617 3.06201 70.8035V12.526C3.06201 11.8651 3.5992 11.3307 4.25736 11.3307H25.596L29.3422 0.797792C29.5616 0.17623 30.2422 -0.150016 30.8638 0.0693679L61.7 11.035L61.6977 11.0327ZM61.498 15.1699L59.3296 21.2674L65.4271 23.4359L61.498 15.1699ZM37.9374 11.6767L48.3746 22.1139C48.5996 22.3614 48.7261 22.6117 48.7261 22.9604V68.2729L50.9874 69.0773L66.2168 26.2517L57.4083 23.1214C56.7868 22.902 56.4605 22.2186 56.6799 21.5998L59.7793 12.8863L31.1931 2.7221L28.1303 11.334H36.987C37.4258 11.334 37.6705 11.4268 37.9405 11.6856L37.9374 11.6767ZM44.6424 21.7625L38.1793 15.2993V21.7625H44.6424Z" fill="black" stroke="white" stroke-width="0.4"/>
<path d="M11 19.5738C11.2277 19.3625 11.4775 19.1621 11.7493 18.9727C12.0285 18.7832 12.3297 18.6157 12.6529 18.4699C12.9835 18.3242 13.3361 18.2113 13.7107 18.1311C14.0927 18.0437 14.5041 18 14.9449 18C15.5253 18 16.0615 18.0838 16.5537 18.2514C17.0533 18.4189 17.483 18.6557 17.843 18.9617C18.2029 19.2678 18.4858 19.6393 18.6915 20.0765C18.8972 20.5137 19 21.0055 19 21.5519C19 22.1056 18.9155 22.5829 18.7466 22.9836C18.5849 23.3843 18.3756 23.7377 18.1185 24.0437C17.8687 24.3424 17.5932 24.6047 17.292 24.8306C16.9982 25.0492 16.719 25.2568 16.4545 25.4536C16.1901 25.6503 15.9624 25.847 15.7713 26.0437C15.5877 26.2404 15.4812 26.459 15.4518 26.6995L15.2534 28.3716H13.9091L13.7769 26.5574C13.7475 26.2295 13.8099 25.9454 13.9642 25.7049C14.1185 25.4572 14.3205 25.2277 14.5702 25.0164C14.82 24.7978 15.0955 24.5865 15.3967 24.3825C15.6979 24.1712 15.977 23.9381 16.2342 23.6831C16.4986 23.4281 16.719 23.1403 16.8953 22.8197C17.0716 22.4918 17.1598 22.102 17.1598 21.6503C17.1598 21.337 17.0973 21.0528 16.9725 20.7978C16.8476 20.5428 16.6786 20.3279 16.4656 20.153C16.2525 19.9709 15.9991 19.8324 15.7052 19.7377C15.4187 19.643 15.1102 19.5956 14.7796 19.5956C14.3315 19.5956 13.9458 19.6503 13.6226 19.7596C13.3067 19.8689 13.0386 19.9891 12.8182 20.1202C12.5978 20.2514 12.4178 20.3716 12.2782 20.4809C12.146 20.5902 12.0358 20.6448 11.9477 20.6448C11.764 20.6448 11.6208 20.561 11.5179 20.3934L11 19.5738ZM13.1488 32.6339C13.1488 32.4444 13.1818 32.2659 13.2479 32.0984C13.3214 31.9308 13.4169 31.7851 13.5344 31.6612C13.6593 31.5373 13.8062 31.439 13.9752 31.3661C14.1442 31.2933 14.3242 31.2568 14.5152 31.2568C14.7062 31.2568 14.8861 31.2933 15.0551 31.3661C15.2241 31.439 15.371 31.5373 15.4959 31.6612C15.6208 31.7851 15.7199 31.9308 15.7934 32.0984C15.8668 32.2659 15.9036 32.4444 15.9036 32.6339C15.9036 32.8306 15.8668 33.0127 15.7934 33.1803C15.7199 33.3406 15.6208 33.4827 15.4959 33.6066C15.371 33.7304 15.2241 33.8251 15.0551 33.8907C14.8861 33.9636 14.7062 34 14.5152 34C14.3242 34 14.1442 33.9636 13.9752 33.8907C13.8062 33.8251 13.6593 33.7304 13.5344 33.6066C13.4169 33.4827 13.3214 33.3406 13.2479 33.1803C13.1818 33.0127 13.1488 32.8306 13.1488 32.6339Z" fill="#3667BD"/>
</g>
<defs>
<clipPath id="clip0">
<rect width="72" height="72" fill="white"/>
</clipPath>
</defs>
</svg>
