<svg width="72" height="72" viewBox="0 0 72 72" fill="none" xmlns="http://www.w3.org/2000/svg">
<path d="M16.8467 34.2734H18.2867V37.7862H16.8467V34.2734Z" fill="#3667BD"/>
<path d="M23.6167 34.2734H25.0567V37.7862H23.6167V34.2734Z" fill="#3667BD"/>
<path d="M30.4565 34.2734H31.8965V37.7862H30.4565V34.2734Z" fill="#3667BD"/>
<path d="M42.4067 35.28H55.2933V36.72H42.4067V35.28Z" fill="#3667BD"/>
<path d="M62.4232 21.6734V5.03999H9.57666V21.6734H14.4001V27.65L9.57666 27.6472V44.3534H14.4001V50.3299L9.57666 50.3271V66.9606H62.4232V50.3271H57.5998V44.3534H62.4232V27.6472H57.5998V21.6734L62.4232 21.6734ZM11.0167 6.47999H60.9832V20.2334H11.0167V6.47999ZM60.9832 65.52H11.0167V51.7666H60.9832V65.52ZM56.1598 50.3266H15.8398V44.3528H56.1598V50.3266ZM60.9832 42.9098L11.0167 42.9126V29.0865H60.9832V42.9098ZM56.1598 27.6466H15.8398V21.6728H56.1598V27.6466Z" fill="black"/>
<path d="M16.8467 11.5934H18.2867V15.1062H16.8467V11.5934Z" fill="#3667BD"/>
<path d="M23.6167 11.5934H25.0567V15.1062H23.6167V11.5934Z" fill="#3667BD"/>
<path d="M30.4565 11.5934H31.8965V15.1062H30.4565V11.5934Z" fill="#3667BD"/>
<path d="M42.4067 12.6734H55.2933V14.1134H42.4067V12.6734Z" fill="#3667BD"/>
<path d="M16.8467 56.88H18.2867V60.3928H16.8467V56.88Z" fill="#3667BD"/>
<path d="M23.6167 56.88H25.0567V60.3928H23.6167V56.88Z" fill="#3667BD"/>
<path d="M30.4565 56.88H31.8965V60.3928H30.4565V56.88Z" fill="#3667BD"/>
<path d="M42.4067 57.8866H55.2933V59.3266H42.4067V57.8866Z" fill="#3667BD"/>
</svg>
