<svg width="72" height="72" viewBox="0 0 72 72" fill="none" xmlns="http://www.w3.org/2000/svg">
<path d="M66.0825 53.7415H5.91786C5.71536 53.7415 5.5213 53.6571 5.3863 53.5081C5.24848 53.359 5.18098 53.1593 5.19786 52.9568L9.07909 18.8864C9.1269 18.5264 9.43628 18.2564 9.79909 18.2593H16.0569C16.4535 18.2593 16.7769 18.5827 16.7769 18.9793C16.7769 19.3786 16.4535 19.6993 16.0569 19.6993H10.4319L6.71094 52.3297H65.2894L61.5685 19.6712H33.9471C33.5505 19.6712 33.2271 19.3477 33.2271 18.9512C33.2271 18.5546 33.5505 18.2312 33.9471 18.2312H62.2013C62.5642 18.2284 62.8735 18.4956 62.9213 18.8584L66.8026 52.9288C66.8194 53.1284 66.7519 53.3309 66.6141 53.48C66.4791 53.6291 66.2851 53.7134 66.0826 53.7134L66.0825 53.7415Z" fill="black"/>
<path d="M58.8517 33.0415H39.2317C38.8352 33.0415 38.5117 32.7181 38.5117 32.3215V23.4929C38.5117 23.0963 38.8352 22.7729 39.2317 22.7729H58.8517C59.043 22.7729 59.2258 22.8488 59.3608 22.9838C59.4958 23.1188 59.5717 23.3016 59.5717 23.4929V32.3352C59.5661 32.7261 59.2455 33.0411 58.8517 33.0411V33.0415ZM39.9373 31.6015H58.1483V24.1992H39.9373V31.6015Z" fill="black"/>
<path d="M43.653 41.6671H39.2317C38.8352 41.6671 38.5117 41.3437 38.5117 40.9471V36.4331C38.5117 36.0337 38.8352 35.7131 39.2317 35.7131H43.653C43.8442 35.7131 44.027 35.789 44.162 35.924C44.297 36.059 44.373 36.2418 44.373 36.4331V40.9612C44.3645 41.3522 44.0467 41.6672 43.653 41.6672V41.6671ZM39.9376 40.2271H42.947V37.1362H39.9376V40.2271Z" fill="black"/>
<path d="M50.7687 41.6671H46.3474C45.9481 41.6671 45.6274 41.3437 45.6274 40.9471V36.4331C45.6274 36.0337 45.9481 35.7131 46.3474 35.7131H50.7687C50.9571 35.7131 51.1427 35.789 51.2777 35.924C51.4127 36.059 51.4887 36.2418 51.4887 36.4331V40.9612C51.4802 41.3522 51.1596 41.6672 50.7687 41.6672V41.6671ZM47.0533 40.2271H50.0627V37.1362H47.0533V40.2271Z" fill="black"/>
<path d="M58.5284 41.6671H54.1072C53.7106 41.6671 53.3872 41.3437 53.3872 40.9471V36.4331C53.3872 36.0337 53.7106 35.7131 54.1072 35.7131H58.5284C58.7197 35.7131 58.9025 35.789 59.0375 35.924C59.1725 36.059 59.2484 36.2418 59.2484 36.4331V40.9612C59.24 41.3522 58.9222 41.6672 58.5284 41.6672V41.6671ZM54.8131 40.2271H57.8225V37.1362H54.8131V40.2271Z" fill="black"/>
<path d="M43.653 49.4266H39.2317C38.8352 49.4266 38.5117 49.1059 38.5117 48.7066V44.1925C38.5117 43.796 38.8352 43.4725 39.2317 43.4725H43.653C43.8442 43.4725 44.027 43.5485 44.162 43.6835C44.297 43.8185 44.373 44.0013 44.373 44.1925V48.7235C44.3645 49.1144 44.0467 49.4266 43.653 49.4266V49.4266ZM39.9376 47.9866H42.947V44.8984H39.9376V47.9866Z" fill="black"/>
<path d="M50.7687 49.4266H46.3474C45.9481 49.4266 45.6274 49.1059 45.6274 48.7066V44.1925C45.6274 43.796 45.9481 43.4725 46.3474 43.4725H50.7687C50.9571 43.4725 51.1427 43.5485 51.2777 43.6835C51.4127 43.8185 51.4887 44.0013 51.4887 44.1925V48.7235C51.4802 49.1144 51.1596 49.4266 50.7687 49.4266V49.4266ZM47.0533 47.9866H50.0627V44.8984H47.0533V47.9866Z" fill="black"/>
<path d="M58.5284 49.4266H54.1072C53.7106 49.4266 53.3872 49.1059 53.3872 48.7066V44.1925C53.3872 43.796 53.7106 43.4725 54.1072 43.4725H58.5284C58.7197 43.4725 58.9025 43.5485 59.0375 43.6835C59.1725 43.8185 59.2484 44.0013 59.2484 44.1925V48.7235C59.24 49.1144 58.9222 49.4266 58.5284 49.4266V49.4266ZM54.8131 47.9866H57.8225V44.8984H54.8131V47.9866Z" fill="black"/>
<path d="M33.9554 35.6256H16.0569C15.6575 35.6256 15.3369 35.3022 15.3369 34.9056V10.6618C15.3369 10.2652 15.6575 9.94177 16.0569 9.94177H33.9554C34.1466 9.94177 34.3295 10.0177 34.4645 10.1527C34.5995 10.2877 34.6754 10.4705 34.6754 10.6618V34.9193C34.667 35.3102 34.3463 35.6252 33.9554 35.6252V35.6256ZM16.7625 34.1856H33.2491V11.3681H16.7625V34.1856Z" fill="black"/>
<path d="M36 63.36C34.799 63.36 33.719 62.6372 33.2606 61.529C32.7993 60.4209 33.0553 59.144 33.9018 58.2946C34.7512 57.4481 36.0281 57.195 37.1362 57.6534C38.2444 58.1118 38.9672 59.1946 38.9672 60.3928C38.9615 62.0296 37.6368 63.3572 36 63.36L36 63.36ZM36 58.8318C35.3671 58.8318 34.799 59.2115 34.5572 59.7965C34.3153 60.3787 34.4475 61.0509 34.8946 61.4981C35.3418 61.9453 36.014 62.0774 36.599 61.8384C37.1812 61.5965 37.5637 61.0256 37.5637 60.3928C37.5693 59.9737 37.409 59.5687 37.1137 59.2706C36.8212 58.9696 36.419 58.8009 35.9999 58.8037L36 58.8318Z" fill="black"/>
<path d="M66.0824 68.4H5.91775C5.52119 68.4 5.19775 68.0766 5.19775 67.68V53.0352C5.19775 52.6386 5.52119 52.3152 5.91775 52.3152C6.31713 52.3152 6.63775 52.6386 6.63775 53.0352V66.96H65.3768V53.0352C65.3768 52.6386 65.6974 52.3152 66.0968 52.3152C66.4934 52.3152 66.8168 52.6386 66.8168 53.0352V67.68C66.8168 67.8741 66.738 68.0597 66.6002 68.1947C66.4624 68.3297 66.274 68.4028 66.0827 68.4H66.0824Z" fill="black"/>
<path d="M58.8517 16.0056H39.2317C38.8352 16.0056 38.5117 15.6822 38.5117 15.2856V4.32001C38.5117 3.92344 38.8352 3.60001 39.2317 3.60001H58.8517C59.043 3.60001 59.2258 3.67594 59.3608 3.81094C59.4958 3.94594 59.5717 4.12876 59.5717 4.32001V15.3C59.5661 15.6909 59.2455 16.0059 58.8517 16.0059V16.0056ZM39.9373 14.5656H58.1483V5.04001H39.9373V14.5656Z" fill="black"/>
<path d="M45.2732 19.6704C44.8767 19.6704 44.5532 19.3469 44.5532 18.9504V15.2998C44.5532 14.9032 44.8767 14.5798 45.2732 14.5798C45.6726 14.5798 45.9932 14.9032 45.9932 15.2998V18.9644C45.9848 19.3554 45.667 19.6704 45.2732 19.6704V19.6704Z" fill="black"/>
<path d="M53.0354 19.6704C52.6389 19.6704 52.3154 19.3469 52.3154 18.9504V15.2998C52.3154 14.9032 52.6389 14.5798 53.0354 14.5798C53.432 14.5798 53.7554 14.9032 53.7554 15.2998V18.9644C53.747 19.3554 53.4264 19.6704 53.0354 19.6704V19.6704Z" fill="black"/>
<path d="M29.5203 18.4839H20.4778C20.0784 18.4839 19.7578 18.1604 19.7578 17.7639C19.7578 17.3645 20.0784 17.0439 20.4778 17.0439H29.5203C29.9169 17.0439 30.2403 17.3645 30.2403 17.7639C30.2403 18.1604 29.9169 18.4839 29.5203 18.4839Z" fill="#3667BD"/>
<path d="M29.5203 23.6585H20.4778C20.0784 23.6585 19.7578 23.3379 19.7578 22.9385C19.7578 22.5419 20.0784 22.2185 20.4778 22.2185H29.5203C29.9169 22.2185 30.2403 22.5419 30.2403 22.9385C30.2403 23.3379 29.9169 23.6585 29.5203 23.6585Z" fill="#3667BD"/>
<path d="M29.5203 28.8H20.4778C20.0784 28.8 19.7578 28.4766 19.7578 28.08C19.7578 27.6834 20.0784 27.36 20.4778 27.36H29.5203C29.9169 27.36 30.2403 27.6834 30.2403 28.08C30.2403 28.4766 29.9169 28.8 29.5203 28.8Z" fill="#3667BD"/>
</svg>
