<svg width="40" height="35" viewBox="0 0 40 35" fill="none" xmlns="http://www.w3.org/2000/svg">
<path d="M18.8771 3.01249L18.4785 2.56404L18.4785 2.56404L18.8771 3.01249ZM21.1773 3.01249L20.7787 3.46093V3.46093L21.1773 3.01249ZM21.1771 5.49568L20.7784 5.04735L20.7784 5.04736L21.1771 5.49568ZM21.0406 5.60334L21.1585 6.19164C21.2394 6.17541 21.3162 6.14265 21.3839 6.09542L21.0406 5.60334ZM20.8562 5.67352L20.5539 5.15524L20.5539 5.15524L20.8562 5.67352ZM20.7294 5.77216L20.9572 6.32725C21.0327 6.29628 21.101 6.25024 21.1581 6.19195L20.7294 5.77216ZM20.0546 5.90731L20.0286 6.50675C20.04 6.50725 20.0515 6.50741 20.063 6.50725L20.0546 5.90731ZM20.0012 5.90733L19.9932 6.50728C20.0047 6.50743 20.0162 6.50725 20.0276 6.50675L20.0012 5.90733ZM19.325 5.77216L18.8963 6.19194C18.9533 6.25023 19.0217 6.29627 19.0972 6.32724L19.325 5.77216ZM19.1982 5.67352L18.8959 6.1918L18.8959 6.1918L19.1982 5.67352ZM19.0139 5.60334L18.6705 6.09541C18.7382 6.14265 18.815 6.17541 18.8959 6.19164L19.0139 5.60334ZM18.8773 5.49568L18.4785 5.94401V5.94401L18.8773 5.49568ZM19.1331 6.97604L19.307 6.40179C19.0411 6.32129 18.7548 6.43379 18.6148 6.67374L19.1331 6.97604ZM19.4281 7.0494H20.0281C20.0281 6.76259 19.8251 6.51589 19.5437 6.46064L19.4281 7.0494ZM6.19652 29.1546L5.67824 28.8523C5.53416 29.0993 5.58443 29.4137 5.79835 29.6035L6.19652 29.1546ZM6.19986 29.1576L6.59847 28.7091L6.59803 28.7087L6.19986 29.1576ZM6.30938 29.2607L5.88586 29.6857C6.08552 29.8846 6.39672 29.9178 6.63381 29.7654L6.30938 29.2607ZM17.3371 22.1719L17.6615 22.6766C17.8939 22.5272 17.9943 22.2384 17.9046 21.9771L17.3371 22.1719ZM18.0799 19.017L18.4785 19.4654L18.0799 19.017ZM19.4281 18.3603L19.5436 18.9491C19.8251 18.8939 20.0281 18.6472 20.0281 18.3603H19.4281ZM21.9745 19.017L21.5759 19.4654L21.9745 19.017ZM20.6281 18.3607H20.0281C20.0281 18.6474 20.2309 18.894 20.5122 18.9494L20.6281 18.3607ZM22.7176 22.1712L22.15 21.9765C22.0604 22.2378 22.1608 22.5265 22.3931 22.6759L22.7176 22.1712ZM33.7454 29.26L33.4209 29.7647C33.658 29.9171 33.9692 29.8839 34.1689 29.685L33.7454 29.26ZM33.8548 29.157L33.4564 28.7083L33.4561 28.7086L33.8548 29.157ZM33.8577 29.1544L34.2561 29.603C34.4699 29.4132 34.52 29.099 34.376 28.8521L33.8577 29.1544ZM20.9213 6.97604L21.4396 6.67374C21.2996 6.43379 21.0133 6.32129 20.7474 6.4018L20.9213 6.97604ZM20.6281 7.04905L20.5122 6.46035C20.2309 6.51574 20.0281 6.76237 20.0281 7.04905H20.6281ZM18.0828 6.39502L18.6011 6.69733C18.7451 6.45041 18.6949 6.13617 18.4812 5.94637L18.0828 6.39502ZM18.0798 6.39234L17.681 6.84067L17.6814 6.84099L18.0798 6.39234ZM5.14594 28.5741L4.97226 29.1484C5.23807 29.2288 5.5243 29.1162 5.66422 28.8764L5.14594 28.5741ZM2.30523 29.1576L2.70385 29.606H2.70385L2.30523 29.1576ZM2.30523 33.4335L2.70385 32.985L2.70385 32.985L2.30523 33.4335ZM6.19986 33.4335L5.80124 32.985L5.80123 32.985L6.19986 33.4335ZM7.05167 31.8956V31.2956C6.76238 31.2956 6.51427 31.502 6.46167 31.7865L7.05167 31.8956ZM33.0026 31.8956L33.5927 31.7866C33.5401 31.5021 33.292 31.2956 33.0026 31.2956V31.8956ZM33.8548 33.4347L34.2534 32.9863L33.8548 33.4347ZM37.7507 33.4347L38.1494 33.8832L37.7507 33.4347ZM37.7507 29.157L38.1494 28.7086L37.7507 29.157ZM34.9081 28.5734L34.3898 28.8757C34.5298 29.1157 34.8161 29.2282 35.082 29.1477L34.9081 28.5734ZM21.9716 6.39502L21.5733 5.94635C21.3595 6.13615 21.3093 6.4504 21.4533 6.69733L21.9716 6.39502ZM21.9746 6.39234L22.373 6.84102L22.3734 6.84067L21.9746 6.39234ZM21.9745 2.1156L22.3731 1.66715L22.3731 1.66715L21.9745 2.1156ZM18.0799 2.1156L17.6813 1.66715L17.6813 1.66715L18.0799 2.1156ZM5.56335 30.2228L6.14586 30.0789C6.12478 29.9936 6.08519 29.9139 6.0299 29.8455L5.56335 30.2228ZM5.6413 30.4034L5.13658 30.7278L5.13659 30.7278L5.6413 30.4034ZM5.40262 30.0545L5.00399 30.5029L5.004 30.5029L5.40262 30.0545ZM5.26339 29.945L5.60553 29.4522C5.53882 29.4059 5.46341 29.3736 5.38386 29.3573L5.26339 29.945ZM5.08151 29.8754L5.38382 29.3571L5.38381 29.3571L5.08151 29.8754ZM4.95704 29.779L5.38344 29.3569C5.32699 29.2999 5.25967 29.2548 5.18547 29.2242L4.95704 29.779ZM3.10247 30.0545L2.70385 29.606L2.70385 29.606L3.10247 30.0545ZM3.10247 32.5366L2.70385 32.985H2.70385L3.10247 32.5366ZM5.40262 32.5366L5.004 32.0881L5.004 32.0881L5.40262 32.5366ZM5.90518 31.3014L6.50519 31.3029L6.50517 31.2986L5.90518 31.3014ZM5.90515 31.2956L5.30513 31.2927L5.30516 31.2984L5.90515 31.2956ZM5.90518 31.2897L6.50519 31.2926L6.50518 31.2882L5.90518 31.2897ZM5.75447 30.5338L6.30114 30.2865C6.26516 30.2069 6.21225 30.1362 6.14611 30.0792L5.75447 30.5338ZM6.94312 30.2798L6.61868 29.7751C6.38635 29.9245 6.28598 30.2131 6.37554 30.4744L6.94312 30.2798ZM17.9714 23.1907L18.3946 22.7655C18.195 22.5668 17.8839 22.5337 17.6469 22.686L17.9714 23.1907ZM7.05169 30.6956L6.46169 30.8046C6.51428 31.0891 6.76238 31.2956 7.05169 31.2956V30.6956ZM33.0027 30.6956V31.2956C33.292 31.2956 33.5402 31.0891 33.5927 30.8046L33.0027 30.6956ZM33.1115 30.2791L33.6791 30.4737C33.7687 30.2124 33.6684 29.9237 33.436 29.7743L33.1115 30.2791ZM22.0836 23.1902L22.4081 22.6855C22.171 22.5331 21.8599 22.5662 21.6602 22.7651L22.0836 23.1902ZM21.9745 23.2928L22.3731 23.7413L22.3731 23.7413L21.9745 23.2928ZM18.0799 23.2928L17.6813 23.7413L17.6813 23.7413L18.0799 23.2928ZM18.7212 22.2336L18.1372 22.371C18.1581 22.4598 18.199 22.5427 18.2567 22.6134L18.7212 22.2336ZM18.8771 22.3959L18.4785 22.8444L18.4785 22.8444L18.8771 22.3959ZM18.6417 22.0466L19.1464 21.7221L19.1464 21.7221L18.6417 22.0466ZM18.5229 21.9113L17.9753 22.1565C18.0123 22.2392 18.0676 22.3125 18.137 22.3708L18.5229 21.9113ZM18.8771 19.9139L18.4785 19.4654V19.4654L18.8771 19.9139ZM21.1773 19.9139L20.7787 20.3623H20.7787L21.1773 19.9139ZM21.5306 21.9133L21.9189 22.3707C21.987 22.313 22.0413 22.2407 22.0779 22.1593L21.5306 21.9133ZM21.4141 22.0466L20.9094 21.7221L20.9094 21.7221L21.4141 22.0466ZM21.3352 22.2311L21.8006 22.6098C21.8574 22.5401 21.8977 22.4584 21.9187 22.371L21.3352 22.2311ZM21.1773 22.3959L21.5759 22.8444L21.1773 22.3959ZM34.4146 30.4034L34.9193 30.7278L34.9193 30.7278L34.4146 30.4034ZM34.299 30.5358L33.9098 30.0792C33.8422 30.1368 33.7883 30.2086 33.7519 30.2895L34.299 30.5358ZM34.4932 30.2198L34.0275 29.8416C33.9711 29.911 33.931 29.9921 33.91 30.079L34.4932 30.2198ZM34.6521 30.0538L35.0508 30.5022L35.0508 30.5022L34.6521 30.0538ZM34.79 29.9452L34.6706 29.3573C34.5904 29.3735 34.5144 29.4061 34.4473 29.4528L34.79 29.9452ZM34.9729 29.8754L35.2752 30.3936L35.2752 30.3936L34.9729 29.8754ZM35.0985 29.7779L34.8702 29.223C34.7954 29.2538 34.7277 29.2993 34.671 29.3569L35.0985 29.7779ZM36.9534 30.0538L37.352 29.6054L37.352 29.6054L36.9534 30.0538ZM36.9534 32.5379L37.352 32.9863L36.9534 32.5379ZM34.6521 32.5379L35.0508 32.0895L35.0508 32.0895L34.6521 32.5379ZM18.4785 2.56404C18.0563 2.93934 17.7746 3.50242 17.7746 4.25353H18.9746C18.9746 3.82851 19.1219 3.59766 19.2758 3.46093L18.4785 2.56404ZM20.0272 2.00088C19.4637 2.00088 18.9007 2.1888 18.4785 2.56404L19.2757 3.46093C19.4517 3.30452 19.7201 3.20088 20.0272 3.20088V2.00088ZM21.5759 2.56404C21.1538 2.1888 20.5907 2.00088 20.0272 2.00088V3.20088C20.3343 3.20088 20.6027 3.30452 20.7787 3.46093L21.5759 2.56404ZM22.2798 4.25353C22.2798 3.50242 21.9981 2.93934 21.5759 2.56404L20.7787 3.46093C20.9325 3.59766 21.0798 3.82851 21.0798 4.25353H22.2798ZM21.5759 5.94401C21.9981 5.5685 22.2798 5.00509 22.2798 4.25353H21.0798C21.0798 4.67924 20.9323 4.91048 20.7784 5.04735L21.5759 5.94401ZM21.3839 6.09542C21.4505 6.04894 21.5147 5.99847 21.5759 5.94401L20.7784 5.04736C20.7532 5.06973 20.7262 5.09108 20.6972 5.11127L21.3839 6.09542ZM21.1585 6.1918L21.1585 6.19164L20.9226 5.01505C20.7954 5.04055 20.6707 5.0871 20.5539 5.15524L21.1585 6.1918ZM21.1581 6.19195L21.1585 6.1918L20.5539 5.15524C20.4594 5.21033 20.3746 5.2769 20.3007 5.35238L21.1581 6.19195ZM20.063 6.50725C20.3718 6.50291 20.6767 6.44236 20.9572 6.32725L20.5017 5.21708C20.366 5.27275 20.2105 5.30506 20.0461 5.30737L20.063 6.50725ZM20.0281 6.50674L20.0286 6.50675L20.0805 5.30788C20.0632 5.30712 20.0457 5.30674 20.0281 5.30674V6.50674ZM20.0276 6.50675L20.0281 6.50674V5.30674C20.0103 5.30674 19.9925 5.30713 19.9748 5.30791L20.0276 6.50675ZM19.0972 6.32724C19.3782 6.44258 19.6838 6.50314 19.9932 6.50728L20.0092 5.30738C19.8445 5.30518 19.6887 5.27286 19.5527 5.21708L19.0972 6.32724ZM18.8959 6.1918L18.8963 6.19194L19.7537 5.35237C19.6797 5.27689 19.595 5.21033 19.5005 5.15524L18.8959 6.1918ZM18.8959 6.19164L18.8959 6.1918L19.5005 5.15524C19.3837 5.0871 19.259 5.04056 19.1318 5.01505L18.8959 6.19164ZM18.4785 5.94401C18.5398 5.99848 18.6039 6.04895 18.6705 6.09541L19.3572 5.11128C19.3282 5.09108 19.3012 5.06973 19.276 5.04735L18.4785 5.94401ZM17.7746 4.25353C17.7746 5.00509 18.0563 5.5685 18.4785 5.94401L19.276 5.04735C19.1221 4.91048 18.9746 4.67924 18.9746 4.25353H17.7746ZM18.9592 7.55029C19.0759 7.58564 19.1939 7.61489 19.3125 7.63817L19.5437 6.46064C19.4638 6.44496 19.3848 6.42535 19.307 6.40179L18.9592 7.55029ZM6.7148 29.4569L19.6514 7.27835L18.6148 6.67374L5.67824 28.8523L6.7148 29.4569ZM6.59803 28.7087L6.59469 28.7058L5.79835 29.6035L5.80168 29.6064L6.59803 28.7087ZM6.73289 28.8356C6.68923 28.7921 6.64441 28.75 6.59847 28.7091L5.80124 29.606C5.83023 29.6318 5.85845 29.6584 5.88586 29.6857L6.73289 28.8356ZM17.0126 21.6672L5.98494 28.7559L6.63381 29.7654L17.6615 22.6766L17.0126 21.6672ZM16.5746 21.1549C16.5746 21.5877 16.6416 21.994 16.7696 22.3668L17.9046 21.9771C17.8221 21.7369 17.7746 21.463 17.7746 21.1549H16.5746ZM17.6813 18.5685C16.9901 19.1829 16.5746 20.0785 16.5746 21.1549H17.7746C17.7746 20.4039 18.0562 19.8408 18.4785 19.4654L17.6813 18.5685ZM19.3126 17.7715C18.7298 17.8859 18.1575 18.1452 17.6813 18.5685L18.4785 19.4654C18.7785 19.1987 19.1493 19.0265 19.5436 18.9491L19.3126 17.7715ZM20.0281 18.3603V7.0494H18.8281V18.3603H20.0281ZM22.3731 18.5685C21.8975 18.1458 21.3261 17.8865 20.744 17.772L20.5122 18.9494C20.906 19.0269 21.2762 19.199 21.5759 19.4654L22.3731 18.5685ZM23.4798 21.1549C23.4798 20.0785 23.0643 19.1829 22.3731 18.5685L21.5759 19.4654C21.9982 19.8408 22.2798 20.4039 22.2798 21.1549H23.4798ZM23.2851 22.3658C23.4129 21.9933 23.4798 21.5873 23.4798 21.1549H22.2798C22.2798 21.4627 22.2324 21.7365 22.15 21.9765L23.2851 22.3658ZM34.0698 28.7552L23.042 21.6664L22.3931 22.6759L33.4209 29.7647L34.0698 28.7552ZM33.4561 28.7086C33.4102 28.7494 33.3655 28.7915 33.3219 28.8349L34.1689 29.685C34.1963 29.6577 34.2245 29.6311 34.2534 29.6054L33.4561 28.7086ZM33.4593 28.7057L33.4564 28.7083L34.2532 29.6056L34.2561 29.603L33.4593 28.7057ZM20.403 7.27835L33.3394 29.4567L34.376 28.8521L21.4396 6.67374L20.403 7.27835ZM20.744 7.63774C20.8619 7.61453 20.9792 7.58543 21.0952 7.55029L20.7474 6.4018C20.6701 6.42521 20.5915 6.44472 20.5122 6.46035L20.744 7.63774ZM20.0281 7.04905V18.3607H21.2281V7.04905H20.0281ZM18.4812 5.94637L18.4781 5.94369L17.6814 6.84099L17.6844 6.84367L18.4812 5.94637ZM5.66422 28.8764L18.6011 6.69733L17.5645 6.09271L4.62767 28.2717L5.66422 28.8764ZM4.25254 29.0429C4.49462 29.0429 4.73878 29.0778 4.97226 29.1484L5.31962 27.9997C4.97011 27.894 4.6087 27.8429 4.25254 27.8429V29.0429ZM2.70385 29.606C3.12609 29.2307 3.68918 29.0429 4.25254 29.0429V27.8429C3.4339 27.8429 2.57575 28.1143 1.90661 28.7091L2.70385 29.606ZM1.9999 31.2955C1.9999 30.5445 2.28158 29.9814 2.70385 29.606L1.90661 28.7091C1.21543 29.3235 0.799902 30.2191 0.799902 31.2955H1.9999ZM2.70385 32.985C2.28158 32.6097 1.9999 32.0465 1.9999 31.2955H0.799902C0.799902 32.3719 1.21543 33.2675 1.90661 33.8819L2.70385 32.985ZM4.25254 33.5482C3.68918 33.5482 3.12609 33.3603 2.70385 32.985L1.90661 33.8819C2.57575 34.4767 3.4339 34.7482 4.25254 34.7482V33.5482ZM5.80123 32.985C5.379 33.3603 4.81591 33.5482 4.25254 33.5482V34.7482C5.07119 34.7482 5.92934 34.4767 6.59848 33.8819L5.80123 32.985ZM6.46167 31.7865C6.36806 32.2928 6.12945 32.6933 5.80124 32.985L6.59847 33.8819C7.12787 33.4113 7.49993 32.7713 7.64167 32.0047L6.46167 31.7865ZM33.0026 31.2956H7.05167V32.4956H33.0026V31.2956ZM34.2534 32.9863C33.925 32.6943 33.6862 32.2935 33.5927 31.7866L32.4126 32.0045C32.5543 32.7717 32.9264 33.4122 33.4561 33.8832L34.2534 32.9863ZM35.8027 33.5498C35.2392 33.5498 34.6758 33.3619 34.2534 32.9863L33.4561 33.8832C34.1254 34.4782 34.9838 34.7498 35.8027 34.7498V33.5498ZM37.352 32.9863C36.9296 33.3619 36.3663 33.5498 35.8027 33.5498V34.7498C36.6217 34.7498 37.4801 34.4782 38.1494 33.8832L37.352 32.9863ZM38.0563 31.2959C38.0563 32.0473 37.7745 32.6108 37.352 32.9863L38.1494 33.8832C38.8407 33.2685 39.2563 32.3726 39.2563 31.2959H38.0563ZM37.352 29.6054C37.7745 29.981 38.0563 30.5444 38.0563 31.2959H39.2563C39.2563 30.2191 38.8407 29.3232 38.1494 28.7086L37.352 29.6054ZM35.8027 29.0419C36.3663 29.0419 36.9296 29.2298 37.352 29.6054L38.1494 28.7086C37.4801 28.1135 36.6217 27.8419 35.8027 27.8419V29.0419ZM35.082 29.1477C35.3158 29.0769 35.5603 29.0419 35.8027 29.0419V27.8419C35.4461 27.8419 35.0842 27.8932 34.7342 27.9992L35.082 29.1477ZM21.4533 6.69733L34.3898 28.8757L35.4264 28.2711L22.4899 6.09272L21.4533 6.69733ZM21.5763 5.94366L21.5733 5.94635L22.37 6.8437L22.373 6.84102L21.5763 5.94366ZM22.2798 4.25353C22.2798 5.00499 21.9982 5.56843 21.5759 5.94401L22.3734 6.84067C23.0645 6.22598 23.4798 5.3301 23.4798 4.25353H22.2798ZM21.5759 2.56404C21.9982 2.9394 22.2798 3.50252 22.2798 4.25353H23.4798C23.4798 3.17715 23.0643 2.28154 22.3731 1.66715L21.5759 2.56404ZM20.0272 2.00088C20.5906 2.00088 21.1537 2.18872 21.5759 2.56404L22.3731 1.66715C21.704 1.07236 20.8458 0.800879 20.0272 0.800879V2.00088ZM18.4785 2.56404C18.9007 2.18872 19.4638 2.00088 20.0272 2.00088V0.800879C19.2086 0.800879 18.3504 1.07236 17.6813 1.66715L18.4785 2.56404ZM17.7746 4.25353C17.7746 3.50252 18.0562 2.9394 18.4785 2.56404L17.6813 1.66715C16.9901 2.28154 16.5746 3.17715 16.5746 4.25353H17.7746ZM18.4785 5.94401C18.0562 5.56843 17.7746 5.00499 17.7746 4.25353H16.5746C16.5746 5.33011 16.9899 6.22598 17.681 6.84067L18.4785 5.94401ZM4.98085 30.3666C5.01187 30.4922 5.06368 30.6144 5.13658 30.7278L6.14602 30.0789L6.14586 30.0789L4.98085 30.3666ZM5.004 30.5029C5.03716 30.5324 5.06822 30.5647 5.0968 30.6L6.0299 29.8455C5.95849 29.7572 5.88167 29.6775 5.80124 29.606L5.004 30.5029ZM4.92124 30.4379C4.95079 30.4584 4.97839 30.4802 5.00399 30.5029L5.80124 29.606C5.73886 29.5506 5.67344 29.4993 5.60553 29.4522L4.92124 30.4379ZM4.7792 30.3936C4.89444 30.4609 5.01738 30.5071 5.14291 30.5328L5.38386 29.3573L5.38382 29.3571L4.7792 30.3936ZM4.53064 30.2012C4.60349 30.2747 4.68672 30.3397 4.7792 30.3936L5.38381 29.3571L5.38344 29.3569L4.53064 30.2012ZM4.25254 30.2429C4.42447 30.2429 4.58732 30.2757 4.72862 30.3339L5.18547 29.2242C4.89339 29.104 4.57475 29.0429 4.25254 29.0429V30.2429ZM3.50109 30.5029C3.67705 30.3465 3.94541 30.2429 4.25254 30.2429V29.0429C3.68904 29.0429 3.126 29.2308 2.70385 29.606L3.50109 30.5029ZM3.1999 31.2955C3.1999 30.8705 3.34728 30.6396 3.50109 30.5029L2.70385 29.606C2.28165 29.9813 1.9999 30.5444 1.9999 31.2955H3.1999ZM3.50109 32.0881C3.34728 31.9514 3.1999 31.7206 3.1999 31.2955H1.9999C1.9999 32.0466 2.28165 32.6097 2.70385 32.985L3.50109 32.0881ZM4.25254 32.3482C3.94541 32.3482 3.67705 32.2445 3.50109 32.0881L2.70385 32.985C3.126 33.3603 3.68904 33.5482 4.25254 33.5482V32.3482ZM5.004 32.0881C4.82803 32.2445 4.55968 32.3482 4.25254 32.3482V33.5482C4.81605 33.5482 5.37909 33.3603 5.80124 32.985L5.004 32.0881ZM5.30518 31.3C5.30415 31.722 5.1574 31.9518 5.004 32.0881L5.80124 32.985C6.22192 32.6111 6.50335 32.0505 6.50518 31.3029L5.30518 31.3ZM5.30516 31.2984L5.30519 31.3043L6.50517 31.2986L6.50514 31.2927L5.30516 31.2984ZM5.30519 31.2868L5.30516 31.2927L6.50514 31.2984L6.50517 31.2926L5.30519 31.2868ZM5.2078 30.7811C5.26292 30.9029 5.30464 31.0677 5.30518 31.2911L6.50518 31.2882C6.50427 30.9127 6.43301 30.578 6.30114 30.2865L5.2078 30.7811ZM5.13659 30.7278C5.20026 30.8269 5.27675 30.9142 5.36284 30.9883L6.14611 30.0792L6.14602 30.0789L5.13659 30.7278ZM7.26756 30.7845L18.2958 23.6955L17.6469 22.686L6.61868 29.7751L7.26756 30.7845ZM7.64169 30.5865C7.60969 30.4134 7.56583 30.2461 7.5107 30.0853L6.37554 30.4744C6.41118 30.5784 6.4402 30.6884 6.46169 30.8046L7.64169 30.5865ZM33.0027 30.0956H7.05169V31.2956H33.0027V30.0956ZM32.544 30.0844C32.4888 30.2455 32.4448 30.4131 32.4127 30.5865L33.5927 30.8046C33.6143 30.6882 33.6434 30.5779 33.6791 30.4737L32.544 30.0844ZM21.7592 23.6949L32.7871 30.7838L33.436 29.7743L22.4081 22.6855L21.7592 23.6949ZM22.3731 23.7413C22.4189 23.7006 22.4635 23.6586 22.507 23.6153L21.6602 22.7651C21.6329 22.7923 21.6048 22.8187 21.5759 22.8444L22.3731 23.7413ZM20.0272 24.6076C20.8458 24.6076 21.704 24.3361 22.3731 23.7413L21.5759 22.8444C21.1537 23.2197 20.5906 23.4076 20.0272 23.4076V24.6076ZM17.6813 23.7413C18.3504 24.3361 19.2086 24.6076 20.0272 24.6076V23.4076C19.4638 23.4076 18.9007 23.2197 18.4785 22.8444L17.6813 23.7413ZM17.5481 23.616C17.5913 23.6591 17.6358 23.7008 17.6813 23.7413L18.4785 22.8444C18.4498 22.8189 18.4218 22.7926 18.3946 22.7655L17.5481 23.616ZM18.2567 22.6134C18.3262 22.6984 18.4007 22.7752 18.4785 22.8444L19.2758 21.9475C19.2437 21.919 19.2135 21.8878 19.1857 21.8538L18.2567 22.6134ZM18.137 22.371L18.1372 22.371L19.3053 22.0962C19.2747 21.9661 19.2218 21.8394 19.1464 21.7221L18.137 22.371ZM18.137 22.3708L18.137 22.371L19.1464 21.7221C19.08 21.6187 18.9995 21.5281 18.9088 21.4519L18.137 22.3708ZM17.7746 21.1549C17.7746 21.5301 17.8446 21.8648 17.9753 22.1565L19.0705 21.6662C19.0158 21.5439 18.9746 21.3787 18.9746 21.1549H17.7746ZM18.4785 19.4654C18.0563 19.8407 17.7746 20.4038 17.7746 21.1549H18.9746C18.9746 20.7299 19.1219 20.499 19.2757 20.3623L18.4785 19.4654ZM20.0272 18.9022C19.4637 18.9022 18.9007 19.0902 18.4785 19.4654L19.2757 20.3623C19.4517 20.2059 19.7201 20.1022 20.0272 20.1022V18.9022ZM21.5759 19.4654C21.1538 19.0902 20.5907 18.9022 20.0272 18.9022V20.1022C20.3343 20.1022 20.6027 20.2059 20.7787 20.3623L21.5759 19.4654ZM22.2798 21.1549C22.2798 20.4038 21.9981 19.8407 21.5759 19.4654L20.7787 20.3623C20.9325 20.499 21.0798 20.7299 21.0798 21.1549H22.2798ZM22.0779 22.1593C22.2093 21.8669 22.2798 21.5313 22.2798 21.1549H21.0798C21.0798 21.3794 21.0384 21.545 20.9834 21.6673L22.0779 22.1593ZM21.9188 22.371L21.9189 22.3707L21.1424 21.4559C21.0535 21.5313 20.9747 21.6205 20.9094 21.7221L21.9188 22.371ZM21.9187 22.371L21.9188 22.371L20.9094 21.7221C20.835 21.8379 20.7825 21.9628 20.7518 22.0912L21.9187 22.371ZM21.5759 22.8444C21.6548 22.7742 21.7303 22.6962 21.8006 22.6098L20.8699 21.8524C20.8417 21.8869 20.8112 21.9186 20.7787 21.9475L21.5759 22.8444ZM20.0272 23.4076C20.5907 23.4076 21.1538 23.2196 21.5759 22.8444L20.7787 21.9475C20.6027 22.1039 20.3343 22.2076 20.0272 22.2076V23.4076ZM18.4785 22.8444C18.9007 23.2196 19.4637 23.4076 20.0272 23.4076V22.2076C19.7201 22.2076 19.4517 22.1039 19.2757 21.9475L18.4785 22.8444ZM33.9098 30.0789L33.9098 30.0792L34.6882 30.9925C34.7762 30.9175 34.8544 30.8288 34.9193 30.7278L33.9098 30.0789ZM33.91 30.079L33.9098 30.0789L34.9193 30.7278C34.9933 30.6126 35.0456 30.4884 35.0765 30.3606L33.91 30.079ZM34.2534 29.6054C34.174 29.676 34.0981 29.7546 34.0275 29.8416L34.959 30.5981C34.9873 30.5632 35.018 30.5313 35.0508 30.5022L34.2534 29.6054ZM34.4473 29.4528C34.38 29.4996 34.3152 29.5504 34.2534 29.6054L35.0508 30.5022C35.0762 30.4796 35.1035 30.4581 35.1328 30.4377L34.4473 29.4528ZM34.6706 29.3571L34.6706 29.3573L34.9095 30.5332C35.0357 30.5076 35.1593 30.4612 35.2752 30.3936L34.6706 29.3571ZM34.671 29.3569L34.6706 29.3571L35.2752 30.3936C35.3686 30.3392 35.4526 30.2734 35.526 30.1989L34.671 29.3569ZM35.8027 29.0419C35.4807 29.0419 35.1622 29.1029 34.8702 29.223L35.3267 30.3328C35.468 30.2747 35.6309 30.2419 35.8027 30.2419V29.0419ZM37.352 29.6054C36.9297 29.2299 36.3665 29.0419 35.8027 29.0419V30.2419C36.11 30.2419 36.3786 30.3456 36.5547 30.5022L37.352 29.6054ZM38.0563 31.2959C38.0563 30.5443 37.7744 29.9809 37.352 29.6054L36.5547 30.5022C36.7087 30.6391 36.8563 30.8703 36.8563 31.2959H38.0563ZM37.352 32.9863C37.7744 32.6108 38.0563 32.0474 38.0563 31.2959H36.8563C36.8563 31.7214 36.7087 31.9526 36.5547 32.0895L37.352 32.9863ZM35.8027 33.5498C36.3665 33.5498 36.9297 33.3618 37.352 32.9863L36.5547 32.0895C36.3786 32.2461 36.11 32.3498 35.8027 32.3498V33.5498ZM34.2534 32.9863C34.6757 33.3618 35.239 33.5498 35.8027 33.5498V32.3498C35.4954 32.3498 35.2269 32.2461 35.0508 32.0895L34.2534 32.9863ZM33.5492 31.2959C33.5492 32.0474 33.8311 32.6108 34.2534 32.9863L35.0508 32.0895C34.8968 31.9526 34.7492 31.7214 34.7492 31.2959H33.5492ZM33.7519 30.2895C33.62 30.5824 33.5492 30.9186 33.5492 31.2959H34.7492C34.7492 31.0708 34.7909 30.9048 34.8461 30.7821L33.7519 30.2895Z" fill="black"/>
</svg>
