<svg width="26" height="32" viewBox="0 0 26 32" fill="none" xmlns="http://www.w3.org/2000/svg">
<path fill-rule="evenodd" clip-rule="evenodd" d="M0 21.5813V6.54957C0 4.79954 1.4506 3.34897 3.2006 3.34897L20.7254 3.35042L18.8272 1.45216C18.5292 1.15418 18.5292 0.707962 18.8272 0.409997C19.1251 0.112032 19.5714 0.112032 19.8693 0.409997L23.0321 3.57279C23.3301 3.87076 23.3301 4.31698 23.0321 4.61495L19.8693 7.77774C19.7211 7.92744 19.535 8.00157 19.349 8.00157C19.163 8.00157 18.9769 7.92599 18.8287 7.77774C18.5307 7.47976 18.5307 7.03354 18.8287 6.73558L20.7269 4.83731H3.2006C2.27036 4.83731 1.48837 5.6193 1.48837 6.54953V21.5813C1.48837 21.9912 1.15407 22.3255 0.744186 22.3255C0.334303 22.3255 0 21.9912 0 21.5813ZM23.814 10.4185C23.814 10.0087 24.1482 9.67435 24.5581 9.67435L24.5581 9.67432C24.968 9.67432 25.3023 10.0086 25.3023 10.4185L25.3038 25.4503C25.3038 27.2003 23.8517 28.6509 22.1032 28.6509H4.7629L6.65972 30.5477C6.95769 30.8457 6.95769 31.2919 6.65972 31.5899C6.51148 31.7396 6.32542 31.8137 6.13939 31.8137C5.95336 31.8137 5.76731 31.7381 5.61905 31.5899L2.45626 28.4271C2.1583 28.1291 2.1583 27.6829 2.45626 27.3849L5.61905 24.2221C5.91702 23.9242 6.36325 23.9242 6.66121 24.2221C6.95918 24.5201 6.95918 24.9663 6.66121 25.2643L4.76294 27.1626H22.1017C23.032 27.1626 23.814 26.3806 23.814 25.4504V10.4185Z" fill="#161A22"/>
</svg>
