<svg width="36" height="40" viewBox="0 0 36 40" fill="none" xmlns="http://www.w3.org/2000/svg">
<g clip-path="url(#clip0)">
<path d="M0.0498047 0.097168H27.4241L35.0376 7.75522V39.9503H0.0498047V0.097168ZM27.7179 1.75683V7.56073H33.5239L27.7179 1.75683ZM1.02577 38.9271H34.1114V8.53634H26.7419V1.07244H1.02577V38.9271ZM13.8577 17.5112L10.7354 21.6576L14.0522 26.2421H12.6378L10.4419 23.121C10.2951 22.9266 10.1979 22.7304 10.0511 22.536C9.85667 22.8771 9.7099 23.121 9.61268 23.2181L7.41677 26.2917H6.0024L9.41827 21.7071L6.4408 17.5112H7.80754L9.4659 19.7559C9.75753 20.1941 10.0015 20.5848 10.1483 20.8287C10.3427 20.5352 10.5867 20.1942 10.8307 19.8531L12.5882 17.5112H13.8577ZM16.2005 17.5112L16.2007 25.2684H20.5448V26.2917H15.0302V17.5112H16.2005ZM27.0332 21.7073L27.0333 21.7074C27.5212 21.9018 27.912 22.2447 28.1102 22.5858C28.3542 22.9765 28.4514 23.3671 28.4514 23.8549C28.4514 24.3427 28.3047 24.781 28.0607 25.1716C27.7691 25.6098 27.3783 25.9033 26.8903 26.1472C26.3527 26.3911 25.8171 26.4883 25.1824 26.4883C24.4008 26.4883 23.7184 26.3415 23.1809 26.1472C22.6433 25.9509 22.2049 25.6098 21.9113 25.122C21.6178 24.6838 21.4234 24.1464 21.4234 23.5614L22.4965 23.4643C22.5442 23.9025 22.6433 24.2436 22.8377 24.537C23.0341 24.8286 23.2781 25.0725 23.7165 25.2192C24.1568 25.3659 24.5952 25.4631 25.0832 25.4631C25.5216 25.4631 25.9124 25.4154 26.2536 25.2687C26.5967 25.122 26.8884 24.9257 27.0351 24.7314C27.1819 24.537 27.2791 24.2931 27.2791 23.9996C27.2791 23.7062 27.1819 23.4623 27.0351 23.2679C26.8884 23.024 26.6444 22.8773 26.2536 22.7306C26.0096 22.6334 25.5216 22.4867 24.6924 22.2923C23.8633 22.096 23.3257 21.9493 22.9845 21.7549C22.5957 21.511 22.2526 21.2671 22.0581 20.9261C21.8618 20.6346 21.7646 20.2439 21.7646 19.8533C21.7646 19.415 21.9114 19.0244 22.1553 18.6338C22.4489 18.2431 22.7901 17.9497 23.2781 17.7553C23.7661 17.5591 24.3036 17.4619 24.8888 17.4619C25.5236 17.4619 26.1088 17.561 26.5968 17.7553C27.1324 17.9497 27.5231 18.2908 27.7671 18.6814C28.0588 19.072 28.2056 19.5103 28.2056 20.0476L27.0828 20.1448C27.0352 19.5579 26.8388 19.1692 26.4976 18.8757C26.1545 18.5842 25.6665 18.4375 24.9841 18.4375C24.2997 18.4375 23.8118 18.5842 23.4706 18.8281C23.1294 19.072 22.9826 19.4131 22.9826 19.7541C22.9826 20.0971 23.0798 20.3411 23.3238 20.5354C23.5678 20.7317 24.1549 20.9756 25.0813 21.1699C26.0573 21.3662 26.692 21.5606 27.0332 21.7073Z" fill="#161A22" stroke="#161A22" stroke-width="0.2"/>
</g>
<defs>
<clipPath id="clip0">
<rect width="36" height="40" fill="white"/>
</clipPath>
</defs>
</svg>
