<svg width="36" height="40" viewBox="0 0 36 40" fill="none" xmlns="http://www.w3.org/2000/svg">
<g clip-path="url(#clip0)">
<path d="M0.0498047 0.097168H27.4241L35.0376 7.75522V39.9503H0.0498047V0.097168ZM27.7179 1.75683V7.56073H33.5239L27.7179 1.75683ZM1.02577 38.9271H34.1114V8.53634H26.7419V1.07244H1.02577V38.9271ZM10.1505 24.6839L9.61346 25.2689H15.1774V26.294H8.24858V25.2213L12.7376 19.6115C13.0788 19.2209 13.3705 18.8798 13.664 18.5863H8.78419V17.5612H15.0801V18.5863L10.1505 24.6839ZM16.6412 17.5112H17.8116V26.2917H16.6412V17.5112ZM25.6191 18.0488C25.9126 18.2431 26.2538 18.487 26.4006 18.8777C26.5474 19.2683 26.6446 19.6589 26.6446 20.0972C26.6446 20.8289 26.4006 21.4615 25.9126 21.9988C25.4247 22.5362 24.5459 22.7801 23.3259 22.7801H21.0804V26.3415H19.9101V17.561H23.2287C23.8139 17.561 24.2523 17.6086 24.5459 17.6582C24.9843 17.7077 25.3255 17.8544 25.6191 18.0488ZM24.8871 21.2691L24.8871 21.2691C25.2283 21.0252 25.3751 20.6346 25.3274 20.1468C25.3274 19.8057 25.2283 19.5142 25.0339 19.2207C24.8395 18.9272 24.5955 18.7805 24.3019 18.6833C24.1075 18.6357 23.7663 18.5862 23.2287 18.5862H20.9832V21.7073H23.2764C24.0579 21.7073 24.5935 21.5625 24.8871 21.2691Z" fill="#161A22" stroke="#161A22" stroke-width="0.2"/>
</g>
<defs>
<clipPath id="clip0">
<rect width="36" height="40" fill="white"/>
</clipPath>
</defs>
</svg>
