<svg xmlns="http://www.w3.org/2000/svg" xmlns:xlink="http://www.w3.org/1999/xlink" width="512" height="512" id="flag-icon-css-af">
  <g stroke-width="1pt" fill-rule="evenodd">
    <path d="M0 0h511.994v512H0z"/>
    <path d="M341.332 0h170.67v512h-170.67z" fill="#090"/>
    <path d="M170.67 0h170.67v512H170.67z" fill="#bf0000"/>
  </g>
  <g transform="translate(2.167 86.78) scale(.84611)" fill="#fff" fill-rule="evenodd" stroke="#bd6b00" stroke-width=".5">
    <path d="M319.5 225.84l8.354.001c.031 3.157 1.881 6.549 4.48 8.493h-16.008c2.505-2.271 3.19-4.963 3.174-8.494z"/>
    <path d="M266.71 178.53l4.574 5.04 56.934.093 4.668-5.04-14.56-.186-7.094-4.947-22.868-.093-6.627 5.133H266.71z" stroke="none"/>
    <path d="M290.02 172.74l19.66-.02c2.662-1.408 3.492-5.902 3.479-8.416-.037-7.429-5.233-10.991-10.447-11.18-.7020FE4EA65"/>
    <path d="M257.66 242.83h84.469l-7.56-6.16H265.22l-7.56 6.16z" stroke="none"/>
    <path d="M296.39 219.69l1.54 4.62h3.499l-2.799-4.621h-2.24zm-1.96 4.62l.887 4.573 4.106.046-1.493-4.62h-3.5zm0485083AAC"/>
    <path fill="none" d="M289.39 211.66h3.313v7.607h-3.313z"/>
    <path d="M284.71 219.8h3.234l-.02-5.597c-.042-2.433 2.142-4.885 3.187-4.967 1.159-.044 2.867 2.297 2.924 4.770BE0847A1B" fill="none"/>
    <path d="M298.08 219.82l4.106.14 7.327 6.487v-3.827l-2.473-1.773v-3.034l-3.594-2.052v-3.268l-3.5-1.166v-4.434l-1.774-1.447-.092 14.374z" fill="none"/>
    <path d="M315.43 210.35h.98v7.047h-.98z"/>
    <g id="a">
      <path d="M257.32 186.53c-1.234-1.982-2.712 2.749-7.788 6.27-2.363 1.609-4.009 5.894-4.025 8.713-.077 1.937.21016E4F1AEA"/>
      <path d="M257.06 201.88a10.09 10.09 0 0 0-1.656-2.594c-.699-.792-1.525-1.457-2.438-1.781-.881-.325-1.779-.7510021D87AD7" fill="#bf0000"/>
      <path d="M249.82 192.39c-.484 3.356 1.385 4.473 3.148 5.123 1.825.648 3.322 2.606 4.093 4.378M245.3 203.44c.77 2.893 2.798 2.531 4.561 3.181 1.826.649 3.745 2.957 4.516 4.729" fill="none"/>
      <path d="M255.61 184.48l.925-.594 17.752 29.898-.924.594-17.753-29.898z"/>
      <path d="M257.52 183.29a2.046 2.046 0 1 1-4.092 0 2.046 2.046 0 1 1 4.092 0zm15.18-24.02h7.194v1.65H272.7zm0 001DD99AF5"/>
      <path d="M292.62 155.76c-1.521.64-2.688 2.377-3.406 4.375-.719 1.998-.992 4.267-.656 6.094v.031c.127.63.3 1.00981A48AEB" fill="#bd6b00" stroke="none"/>
      <path d="M295.19 157.73c-1.52.639-2.501 2.292-3.031 4.188-.53 1.895-.614 4.065-.281 5.874.26 1.284.934 1.962 022D562A10" fill="#bd6b00" stroke="none"/>
      <path d="M272.31 187.39h8.027v11.107h-8.027zm.47 17.46h7.747v2.333h-7.747zm-.19 4.1h7.933v8.68h-7.933zm-.56 10E15153AAD"/>
      <path d="M273.56 196.74c.048 1.299 1.518.72 1.518.066 0-2.004.027-4.17-.053-5.588-.01-1.045 2.49-.783 2.476-.04B85B0A9E" fill="none"/>
      <path d="M277.21 212.92h2.007v1.167h-2.007zm-3.5 0h1.96v1.167h-1.96z"/>
      <path d="M275.67 210.07h1.54v2.893h-1.54zm0 3.97h1.54v3.08h-1.54zm-31.68-75.07c.356 5.567-1.371 8.623-4.32 8.08AE2E4A74"/>
      <path d="M238.45 151.79c4.406 1.533 7.894-3.212 9.073-8.708-3.636 5.019-9.554 5.025-9.073 8.708zm-3.34 5.14c-03AF676A2C"/>
      <path d="M229.52 166.71c-3.265.26-1.804-9.638-1.802-18.857 1.2 8.617 4.467 16.505 1.802 18.857z"/>
      <path d="M230.65 166.26c2.205 1.106 6.156-.662 7.284-4.387-3.984 1.733-6.648.04-7.284 4.387zm25.63-22.13c-.580D3FB50AF1"/>
      <path d="M247.09 155.97c-2.67-3.204-.09-7.228 1.95-10.657-.438 5.102 1.3 7.94-1.95 10.657zm-1.18 5.29c-.301-30DB1BA5A4F"/>
      <path d="M244.79 161.33c-3.691-.418-2.159-6.686.487-10.17-1.114 4.807 1.95 8.15-.487 10.17z"/>
      <path d="M242.01 166.55c-4.202-1.858-1.509-7.127.07-10.238-.673 4.086 2.693 7.196-.07 10.238z"/>
      <path d="M242.84 166.06c2.205 2.879 6.501-.859 7.383-5.224-3.738 3.112-6.5 2.6-7.383 5.224zm-9.6 20.26c-.432-0B9046AAA4"/>
      <path d="M220.6 182.92c-1.215-1.269-.864-1.754.933-1.774 1.425-.09 4.25.873 5.32.093.983-.713.592-3.738 1.0280325C21AE7" stroke="none"/>
      <path d="M235.53 213.44c3.983.02 4.667-5.32 4.667-6.813-1.96.373-5.414 3.64-4.667 6.813zm34.42 51.82c2.833.640E319B9A42"/>
      <path d="M252.76 268.63c1.08 2.701-8.264 2.042-11.545.471 5.301-.046 10.802-2.353 11.545-.471z"/>
      <path d="M257.13 270.6c1.034 2.421-7.61 2.369-11.824 1.03 5.581-.045 10.801-3.426 11.824-1.03zm6.29 1.3c1.53106EC7DDAF1"/>
      <path d="M257.88 268.94c-2.433 2.156-4.379-5.246-6.594-9.399 3.58 3.954 8.84 7.609 6.594 9.399zm6.8 2.06c-2.00B84A6AAC1"/>
      <path d="M245.54 234.87c1.947 1.434 4.096-3.704 1.623-8.588-.078 4.701-3.815 6.28-1.623 8.588z"/>
      <path d="M247.41 239.58c2.693.827 3.536-3.937 1.763-7.747.295 4.093-4.234 6.56-1.763 7.747z"/>
      <path d="M249.46 243.36c2.6 1.295 3.585-3.518 1.716-7.092.204 4.56-3.72 5.904-1.716 7.092z"/>
      <path d="M248.39 243.65c-1.03 3.08-7.007-2.655-8.014-5.775 3.71 3.685 8.757 3.278 8.014 5.775z"/>
      <path d="M245.68 238.94c-1.171 3.08-8.687-4.85-10.348-8.668 3.71 3.685 11.184 6.498 10.348 8.668z"/>
      <path d="M244.19 234.32c-1.17 3.5-9.34-5.829-11.654-9.135 3.897 3.639 12.537 6.592 11.654 9.135zm-.26-3.46c2.0BBD788AF5"/>
      <path d="M239.08 228.53c1.242-1.353-1.19-1.929-4.203-5.31-.444 2.28 2.794 6.454 4.203 5.31zm13.92 15.2c1.574.0FBB018ADB"/>
      <path d="M221.65 228.04c-1.85 2.05-7.671-3.519-9.694-6.341 3.12 2.702 10.512 3.023 9.694 6.341z"/>
      <path d="M224.82 232.22c-.61 2.801-9.106-3.495-11.092-6.476 3.663 3.452 11.649 3.14 11.092 6.476z"/>
      <path d="M223.52 235.25c-1.31 2.522-8.22-3.727-9.88-6.987 4.223 3.685 10.95 4.493 9.88 6.987zm-3.55-12.28c2.1041B7BEA9B"/>
      <path d="M225.38 231.13c2.74-.62 1.95-4.497-.15-9.193.436 5.073-2.321 8.005.15 9.193zm-.93 7.67c-1.03 3.08-8.0F86AA6AE6"/>
      <path d="M229.12 243.61c-1.17 3.082-9.34-3.167-11.839-6.568 4.922 3.872 12.443 3.513 11.839 6.568z"/>
      <path d="M233.88 248.46c-1.31 4.294-9.853-2.56-12.399-5.915 5.436 4.151 13.096 2.86 12.399 5.915zm-8.03-11.030364824A2A"/>
      <path d="M229.81 242.66c2.788.828 1.904-6.27-.478-10.873-.309 4.561-2.366 8.892.478 10.873zm4.95 4.9c3.114.170D8B6EDA2E"/>
      <path d="M227.96 207.34c-2.873.23-4.366-2.594-5.023-6.993 2.725 4.054 5.203 2.79 5.023 6.993zm1.03-.35c3.694.06EED0BA98"/>
      <path d="M223.23 205.17c.295 2.807 2.07 7.634 4.926 6.55 1.181-3.448-2.513-4.137-4.926-6.55z"/>
      <path d="M229.04 212.02c-1.28-2.462 2.905-3.695 3.792-6.895.509 4.58.082 7.584-3.792 6.895zm-11.91-29.18c2.3-0E16D24A3F"/>
      <path d="M217.09 192.75c-4.225.362-6.742-8.739-6.874-12.318 1.313 4.859 7.366 7.5 6.874 12.318zm.81-.14c3.9730EE0563A85"/>
      <path d="M217.04 198c-4.646.788-4.32-6.56-8.009-11.893 3.191 3.96 8.936 8.95 8.009 11.893zm1.05-.25c3.507.1020624069AF8"/>
      <path d="M209.78 192.34c1.742 5.654 4.216 11.32 7.259 10.89 1.46-3.215-2.887-3.624-7.259-10.89z"/>
      <path d="M218.14 202.4c-1.28-2.462 2.905-3.695 3.792-6.895.509 4.58.082 7.584-3.792 6.895zm-7.16-3.6c2.487 5.03C0498AF0"/>
      <path d="M218.71 207.93c-1.467-2.695 2.719-3.648 3.745-7.362.556 4.86.036 8.33-3.745 7.362zm7.16-34.48c2.451.08B60DBAEE"/>
      <path d="M288.97 263.32c.949 1.788 2.038 4.51 4.013 4.013.03-1.37-2.131-2.318-4.013-4.013zm2.94.61c3.835 1.570333BEBA83" stroke="none"/>
    </g>
    <use height="100%" width="100%" x="-600" xlink:href="#a" transform="scale(-1 1)"/>
    <g stroke="none">
      <path d="M328.54 286.65c.047 1.181.188 2.131.888 3.08-4.076-1.633-9.831-.759-13.767 1.074-1.756.838-3.88-.9580260629AEA"/>
      <path d="M326.62 265.54c-.58.058-1.197.238-1.656.406-8.921 3.134-17.117 5.328-25.656 5.313-8.335-.016-17.066-0FD9B2FA96" fill="#bd6b00"/>
      <path d="M269.71 114.56c-.068-1.379 2.07-1.484 1.824.412-.313 2.362 4.459 8.342 4.854 12.029.265 2.473-1.453 06DB52AA6B"/>
      <path d="M318.96 114.6c-1.701-1.038.108-3.736.939-2.788 1.606 1.923 3.224 6.487 4.356 6.864.716.24.683-3.374 0BB772DACE"/>
      <path d="M322.03 131.2c-.474-.054-1.21 1.055 1.152 1.49 3.156.572 6.61-.491 7.67-3.586 1.212-3.687 2.013-7.1709A96CBAE9"/>
      <path d="M328.35 119.07c-.338-.725-1.127-.164-.986.63a1.197 1.197 0 0 0 1.25 1.086c.692-.024 2.155.023 2.159-025A3B3AF0"/>
      <path d="M330.18 133.04c-.219-.788-1.442-1.954-1.304.155.243 3.828 5.503 2.618 7.096 1.257 1.445-1.28.19 4.320103C75AA8"/>
      <path d="M339.57 125.93c.028-.216-1.112-.314-1.056.792.04.819 1.019 1.041 1.188.924 1.54-1.12-.328-.562-.132-0381D35A27"/>
      <path d="M344.61 138.38c.428-1.191 6.114-10.735 6.86-12.835.383-1.013 2.015 1.737.421 3.22-1.4 1.26-5.53 8.034-6.301 10.408-.355 1.072-1.432.562-.98-.793z"/>
      <path d="M354.28 129.28c1.05-3.935 3.593.607 1.353 2.847-3.458 3.387-4.5 9.854-9.987 10.827-1.479.318-4.082-.01B4B56AA6"/>
      <path d="M296.5 140.09c-1.448 1.266-2.79 1.784-4.123 3.384-.544.656-.529 1.57-.854 2.406-.326.888-1.375 1.062038F6B2A6E"/>
      <path d="M299.54 130.19l-1.458 5.594-2.03-3.75v3.844l-4.374-5.188 1.521 5.563-3.93-3.344 2.092 3.781-6.975-4.0D95FF2AC0"/>
    </g>
  </g>
  <path d="M249.08 299.688c0 .501-.076 1.226-.227 2.172h-.35c0-.645-.03-1.14-.09-1.488a7.364 7.364 0 0 0-.34-1.239 5.776 5.776 0 0 0-.459-1.03 11.338 11.338 0 0 0-.797-1.143l.701-1.73c.325.414.555.733.69.955.155.257.3.58.436.968a7.45 7.45 0 0 1 .436 2.535m5.5-3.351c0 .528-.1.924-.3 1.188-.2.264-.542.453-1.024.566.14.49.231.873.277 1.149.049.275.073.583.073.922 0 .219-.013.453-.04.702-.022.249-.065.584-.13 1.007h-.316c0-.377-.021-.702-.063-.973a4.398 4.398 0 0 0-.175-.776 28.8 28.8 0 0 0-.3-.797 8.374 8.374 0 0 0-.532-1.183c-.173-.317-.458-.752-.854-1.307l.543-1.63c.287.412.538.696.753.855.215.155.47.232.763.232.642 0 .962-.347.962-1.041h.328c0 .226.006.415.017.566.012.147.017.32.017.52m5.051 3.825l-.407 1.697c-.256-.072-.465-.273-.628-.605-.135-.276-.234-.625-.294-1.047a9.878 9.878 0 0 1-.085-1.313c-.343.09-.615.136-.814.136-.397 0-.725-.104-.985-.311a.99.99 0 0 1-.385-.798c0-.69.177-1.31.532-1.862.358-.554.762-.831 1.21-.831.348 0 .59.098.725.294.151.215.243.46.277.735.034.276.051.808.051 1.596 0 .705.057 1.203.17 1.494.09.226.302.498.634.815m-1.528-2.818c-.068-.43-.294-.645-.679-.645a.825.825 0 0 0-.458.136c-.14.09-.21.17-.21.237 0 .227.272.34.815.34a2.2 2.2 0 0 0 .532-.068m6.875 2.395l-.203 2.06c-.404-.284-.778-.795-1.12-1.534-.36-.773-.721-1.87-1.087-3.288-.313 1.366-.572 2.367-.775 3.005-.2.634-.398 1.082-.594 1.347-.132.177-.344.356-.634.537l.045-1.969c.374-.51.636-.898.787-1.166a6.07 6.07 0 0 0 .548-1.386c.148-.532.28-1.243.396-2.133h.374c.23.894.453 1.605.668 2.133.2.498.433.938.701 1.318.189.268.487.627.894 1.076" fill="#fff"/>
  <path d="M280.521 319.165c.275.323.468.639.58.949.108.306.186.744.235 1.314l-.614.05c-.261-.512-.516-.913-.763-1.202a15.15 15.15 0 0 0-.913-.943c-.42-.407-.85-.804-1.29-1.19a27.306 27.306 0 0 0-1.689-1.353c-.24-.178-.392-.306-.457-.382-.096-.112-.171-.333-.227-.663a8.923 8.923 0 0 1-.11-1.245l2.142 1.742a35.26 35.26 0 0 1 2.008 1.764c.408.392.774.78 1.098 1.16m-7.6-4.58l-.128 1.576-2.523-.069.19-1.608 2.462.1m6.637 7.054l-6.012 1.832-1.106-1.529 5.197-1.584a6.28 6.28 0 0 0-.547-.683c-.201-.2-.43-.356-.689-.47a1.132 1.132 0 0 1-.358.761 2.06 2.06 0 0 1-.862.49c-.462.14-.924.16-1.385.058-.462-.102-.8-.303-1.018-.603-.32-.442-.492-1.03-.515-1.764-.026-.806.194-1.28.662-1.422.606-.185 1.426-.016 2.46.506 1.033.522 1.826 1.165 2.38 1.93l1.793 2.478m-4.617-3.21a3.091 3.091 0 0 0-.68-.238.903.903 0 0 0-.459.009.542.542 0 0 0-.358.294.392.392 0 0 0 .049.418c.062.086.167.143.314.171.15.023.31.009.477-.042a.888.888 0 0 0 .346-.195c.1-.094.204-.233.31-.417m-6.44-1.23l-.368 1.56-2.5-.23.38-1.576 2.488.246m5.927 6.089l-1.335.306a4.209 4.209 0 0 1-1.357.1 2.832 2.832 0 0 1-1.203-.402c-.221.402-.61.74-1.165 1.012a5.896 5.896 0 0 1-1.283.439l-.947.217-.868-1.592.947-.217c.5-.115.84-.21 1.022-.287.185-.082.417-.221.696-.417a4.673 4.673 0 0 0-.74-.39c-.228-.084-.43-.106-.604-.066a.32.32 0 0 0-.164.09.485.485 0 0 0-.1.208l-.417.056c-.384-.706-.472-1.253-.263-1.639.213-.391.725-.68 1.537-.866.837-.192 1.55-.235 2.143-.13.596.1.995.336 1.197.707.108.2.15.405.123.617-.028.209-.132.51-.31.902.124.054.27.087.438.097.168.01.318 0 .45-.031l1.335-.307.868 1.593m-6.383 1.485l-1.302.204c-.726.114-1.322.002-1.788-.333-.519-.37-.966-1.06-1.342-2.07l-.641-1.72c-.146-.39-.343-.681-.59-.872-.12-.092-.363-.214-.728-.365l.443-1.667c.48.266.849.544 1.109.836.303.34.561.793.772 1.36l.443 1.19c.314.84.618 1.41.913 1.71.234.24.5.336.797.29l1.302-.205.612 1.642m-5.565-5.978l-.841 1.48-2.38-.549.848-1.494 2.373.563m1.384 6.702l-5.933.538-.36-1.673 4.985-.452a1.847 1.847 0 0 0-.531-.673c-.118-.098-.379-.262-.783-.493l.444-1.532c.549.305.95.641 1.202 1.007.259.365.47.923.63 1.673l.346 1.605m-4.763.76a13.04 13.04 0 0 1-1.77-.159 8.346 8.346 0 0 1-1.37-.362 4.466 4.466 0 0 1-1.021.301c-.291.045-.726.057-1.306.038l-1.558-.052c-.427-.014-.759-.098-.996-.25-.237-.154-.441-.4-.612-.742-.378.335-.79.57-1.235.705-.38.116-.827.165-1.343.148l-1.367-.046.133-1.686 1.367.045c.67.022 1.236-.081 1.702-.31.604-.3.933-.773.984-1.422l.626.083c-.023.132-.048.282-.074.451-.026.17-.048.357-.064.564-.017.21.081.39.293.538.212.148.461.227.748.236l1.176.04c.777.025 1.337-.027 1.68-.156.414-.156.64-.466.676-.929.008-.1.063-.186.165-.262a2.61 2.61 0 0 1 .37-.193l.377-.174c.007.08.008.187.004.324-.005.132-.008.22-.011.26-.018.228-.093.528-.225.9.23.083.49.156.778.22.29.063.595.115.918.154.01-.14-.055-.325-.196-.553-.142-.229-.21-.382-.203-.461a.415.415 0 0 1 .086-.246c.014-.02.09-.082.225-.185l.87-.686c.15.266.253.508.306.725.06.213.077.48.052.798l-.185 2.344m-9.007-6.93l-1.499 1.06-1.13-.698-1.112.83-1.487-.897 1.42-1.01 1.2.67 1.158-.847 1.45.891m-2.356 6.46l-5.809-.951.638-1.638 4.88.8a1.296 1.296 0 0 0-.102-.753c-.052-.12-.198-.336-.438-.649l1.3-1.31c.33.416.507.825.53 1.226.027.401-.102.97-.388 1.704l-.611 1.571m-4.89-.758l-1.256-.302c-.7-.168-1.1-.476-1.197-.924-.112-.495.11-1.23.667-2.203l.948-1.66c.215-.376.302-.689.26-.937-.02-.12-.116-.309-.288-.566l1.8-1.223c.17.394.237.76.202 1.095-.04.392-.217.862-.53 1.41l-.655 1.146c-.464.811-.702 1.394-.714 1.749-.013.284.125.46.412.53l1.256.302-.905 1.583m-2.975-6.286l-2.039.86-1.4-1.364 2.056-.868 1.383 1.372m-.867 5.266c-.424.501-.84.877-1.25 1.128-.405.247-.86.402-1.363.463-.498.064-1.129.035-1.892-.086a11.805 11.805 0 0 1-2.199-.55c-1.359-.485-2.27-1.02-2.735-1.606-.462-.58-.443-1.166.058-1.758a5.588 5.588 0 0 1 1.522-1.256c.648-.37 1.658-.789 3.03-1.258l.31.408c-1.072.416-1.812.73-2.219.944a3.322 3.322 0 0 0-.975.765c-.323.381-.274.805.147 1.271.429.465 1.155.88 2.178 1.244 1.007.36 1.96.536 2.86.53.9-.004 1.503-.188 1.81-.551.19-.225.318-.47.382-.735.07-.264.113-.709.127-1.337l1.982-1.206c.001.6-.027 1.003-.085 1.21-.1.375-.355.806-.766 1.292l-.922 1.088" fill="#bf0000"/>
</svg>
