<svg xmlns="http://www.w3.org/2000/svg" height="512" width="512" id="flag-icon-css-bm">
  <path fill="#cf142b" d="M0 0h512v512H0z"/>
  <path fill="#00247d" d="M0 0h256v128H0z"/>
  <path d="M0 0v14.31L227.38 128H256v-14.31L28.62 0H0zm256 0v14.31L28.62 128H0v-14.31L227.38 0H256z" fill="#fff"/>
  <path d="M106.667 0v128h42.666V0h-42.666zM0 42.667v42.666h256V42.667H0z" fill="#fff"/>
  <path d="M0 51.2v25.6h256V51.2H0zM115.2 0v128h25.6V0h-25.6zM0 128l85.333-42.667h19.08L19.083 128H0zM0 0l85.333 42.667h-19.08L0 9.54V0zm151.586 42.667L236.92 0H256l-85.333 42.667h-19.08zM256 128l-85.333-42.667h19.08L256 118.46V128z" fill="#cf142b"/>
  <path d="M443.065 182.61v108.408c0 28.958-57.888 38.366-57.888 38.366s-57.888-9.408-57.888-38.366v-108.41h115.774z" fill="#fff"/>
  <path d="M443.065 291.018c0 28.958-57.888 38.366-57.888 38.366s-57.888-9.408-57.888-38.366c0 0 0-2.332 1.176-0D8B962A2E" fill="#2f8f22"/>
  <path d="M413.255 228.35s-2.01.34-4.595-.447c-2.584-.787-3.628-.467-4.43 0 0 0 1.05-2.076-1.503-3.715 0 0 .830B6117AA1B" fill="#d40000" stroke="#000" stroke-width=".425" stroke-linejoin="round"/>
  <path d="M354.803 234.435s2.807 1.43 3.98-.306c0 0 1.53-2.92-1.83-3.935 0 0 1.83-2.195-.133-4.22 0 0-1.03-1.00DE8B36A98" fill="#d40000" stroke="#000" stroke-width=".425" stroke-linejoin="round"/>
  <path d="M417.464 229.3c3.382-.318 4.576 2.536 4.576 2.536 1.772 4.16-1.992 6.38-1.992 6.38.287.932.32 2.154.0038FF0A25" fill="#64b4d1" stroke="#000" stroke-width=".319"/>
  <path stroke-miterlimit="10" d="M380.063 266.12s-.432-2.606-.887-4.294c0 0-.922-2.65.652-4.51l1.95-2.245s1.214-1.63 2.716-1.85c0 0 1056186EAEF" fill="#fff" stroke="#00247d" stroke-width=".425"/>
  <path d="M366.27 293.238s-2.44.145-3.683.772c-1.244.627-2.2 1.303-3.636 2.22 0 0-.67.892-3.49.35 0 0-4.88-1.10BEBE5CA7B" fill="#d40000" stroke="#000" stroke-width=".425" stroke-linejoin="round"/>
  <path stroke-miterlimit="10" d="M347.836 269.096s-2.328-.16-2.71-1.963m-4.084-1.19s.81-.032 1.545.708c0 0 .56.838 1.358.74" fill="none" stroke="#000" stroke-width=".425"/>
  <path d="M351.28 262.244s-1.21 0-1.88-.58c0 0-.703-.48-1.118.29 0 0-.638 1.094.543 1.577 0 0 1.467.74-.862 2.0C8A92BADB"/>
  <path d="M389.33 268.39L380 236.178l-.34.092 8.242 32.602z" fill="#784421" stroke="#000" stroke-width=".319"/>
  <path d="M356.846 304.527s-2.202-1.236-4.02.21c0 0 .186-.803 1.577-1.157 0 0 .752-2.123 2.857-1.93 0 0-.86 1.03-2.01 1.898 0 0 1.213.125 1.596.98z"/>
  <path stroke-miterlimit="2.613" d="M349.094 309.643s-3.492-2.195-1.603-5.886c0 0 .553-1.062 1.605-.845 0 0 2.177.676.48 3.692 0 0-.863 0B4FBDFA5F" fill="#64b4d1" stroke="#00247d" stroke-width=".319"/>
  <path d="M355.123 298.712s-1.495 1.104-2.103 1.844c0 0-.608-.756-1.406-1.214 0 0 .918-.12 1.406.292 0 0 .763-.74 2.103-.922z"/>
  <path stroke-miterlimit="2.613" d="M359.55 312.153s3.898-.99 3.18-5.018c0 0-.382-1.762-2.033-1.52 0 0-1.99.507-.693 3.068 0 0 .765 1.83-.455 3.47z" fill="#64b4d1" stroke="#00247d" stroke-width=".319"/>
  <path stroke-miterlimit="2.613" d="M377.168 226.916s2.512.77 3.876 1.326c0 0 3.636 1.64 8.254 0 0 0 3.122-1.236 3.54-1.326l-2.392 3.64206CC006A42" fill="#f5ce00" stroke="#000" stroke-width=".425"/>
  <path d="M361.056 307.34s.144-.194-.024-.278c0 0-.167-.072-.287.163 0 0-.407.645-.063 1.53 0 0 .326.61.168 1.0633132A22" fill="#fff"/>
  <path d="M415.072 234.435s-2.808 1.43-3.98-.306c0 0-1.53-2.92 1.83-3.935 0 0-1.83-2.195.132-4.22 0 0 1.03-1.00D9221FA8C" fill="#d40000" stroke="#000" stroke-width=".425" stroke-linejoin="round"/>
  <path stroke-miterlimit="2.613" d="M392.838 232.167s-.07.58-.645.644c0 0-.6.195-.948-.55 0 0-.04-.17-.05-.253-.04-.348-.16-1.35.925-2.10FF6305A9D" fill="#f5ce00" stroke="#000" stroke-width=".425"/>
  <path stroke-miterlimit="2.613" d="M354.652 248.75v-6.032c0-.474.003-.868.72-1.447.718-.58 1.484-1.495 2.585 1.11 0 0 2.153-2.266 2.87-09BD5BDA89" fill="#e4cb5e" stroke="#000" stroke-width=".319"/>
  <path d="M397.368 256.357l.734-1.094 1.754-1.35s2.68 7.03 2.807 8.566v2.18s4.02 1.025 4.722 7.202l-3.318 6.11-5.2-2.894-1.498-1.095v-17.628z" fill="#784421" stroke="#000" stroke-width=".319"/>
  <path d="M348.125 304.638s.192-.254.06-.362c0 0-.084-.12-.31.17 0 0-1.057 1.18-.216 2.996 0 0 .093.26.26.175 0 0 .144-.072.013-.29 0 0-.753-1.495.19-2.69z" fill="#fff"/>
  <path stroke-miterlimit="10" d="M363.8 303.45s.16-.545-.224-1.125c0 0-.255-.418-.16-.965" fill="none" stroke="#000" stroke-width=".425"/>
  <path stroke-miterlimit="10" d="M367.24 240.884s.014 1.51.445 2.62c.43 1.11 1.884 3.028 1.98 4.066" fill="none" stroke="#000" stroke-width=".319"/>
  <path d="M403.7 293.238s2.44.145 3.684.772c1.244.627 2.2 1.303 3.636 2.22 0 0 .67.892 3.493.35 0 0 4.88-1.17 015DA02A06" fill="#d40000" stroke="#000" stroke-width=".425" stroke-linejoin="round"/>
  <path d="M365.315 247.568l3.982 32.143m-3.062-32.212l4.466 29.962m-3.628-30.1l5.144 29.714" stroke-miterlimit="10" fill="none" stroke="#000" stroke-width=".319"/>
  <path d="M376.634 274.033l-9.328-32.21-.342.09 8.243 32.603z" fill="#784421" stroke="#000" stroke-width=".319"/>
  <path d="M369.926 246.18l9.42 23.8m-10.05-23.416l9.09 24.864" stroke-miterlimit="10" fill="none" stroke="#000" stroke-width=".319"/>
  <path d="M354.374 310.834s-1.093-1.048-.94-2.927c0 0 .063-.402-.138-.458 0 0-.214-.09-.246.375 0 0-.303 1.9630CDF84DAFF" fill="#fff"/>
  <path d="M370.35 245.855l9.713 21.713m-12.37-20.363l5.958 29.24" stroke-miterlimit="10" fill="none" stroke="#000" stroke-width=".319"/>
  <path stroke-miterlimit="2.613" d="M416.423 268.872c-4.254-2.414-5.187-7.77-5.187-7.77-1.03-5.332 1.053-9.554 1.053-9.554 2.75-5.814 7.02BCBAEA1F" fill="#f5ce00" stroke="#000" stroke-width=".425"/>
  <path d="M398.1 255.263l-17.876 5.645-.975 7.964c-4.244 6.145-12.865 7.236-12.865 7.236l6.707 7.14 12.887 2.704D68E6AAF" fill="#784421" stroke="#000" stroke-width=".195"/>
  <path stroke-miterlimit="10" d="M379.494 266.87s11.775-3.676 18.796-6.628m-24.448 13.34s14.69-2.653 25.025-8.54l3.796-2.563" fill="none" stroke="#000" stroke-width=".319"/>
  <path stroke-miterlimit="10" d="M402.663 264.66l-4.083 2.908s-16.428 7.575-28.936 7.778m28.933-2.396s-12.63 6.504-19.87 6.6" fill="none" stroke="#000" stroke-width=".319"/>
  <path d="M413.636 254.752s3.764-1.734 5.55 0c0 0 2.49-1.54 5.104 0 0 0 2.49 1.626 4.21 3.417 0 0 1.213 1.036.09B1418A0B" fill="#d40000" stroke="#000" stroke-width=".425" stroke-linejoin="round"/>
  <path stroke-miterlimit="10" d="M349.68 275.095s.526-2.493 2.92-1.512c0 0 .812-4.085 5.166-4.23 4.354-.145 4.593 4.246 4.593 4.536 00966AAFA0C" fill="#fff" stroke="#00247d" stroke-width=".425"/>
  <path stroke-miterlimit="2.613" d="M395.007 227.905s-3.972-.177-3.828 3.94" fill="none" stroke="#000" stroke-width=".425"/>
  <path stroke-miterlimit="2.613" d="M421.14 271.645c-6.914-2.123-8.803-9.554-8.803-9.554-1.412-5.57.86-10.444.86-10.444 3.16-7.417 8.5020ADEA7FAE8" fill="#f5ce00" stroke="#000" stroke-width=".425"/>
  <path stroke-miterlimit="2.613" d="M401.63 290.536s1.292-.175 1.292.977c0 0-.08 1.682-2.13 1.314 0 0-2.02-.442-1.303-2.702 0 0 .476-1.503E81F9ADD" fill="#f5ce00" stroke="#000" stroke-width=".425"/>
  <path stroke-miterlimit="2.613" d="M401.738 290.527s1.428-.257 2.32 1.44c0 0 .527 1.094.612 1.727m.465-6.068s-1.43.248-.693 2.27c.693 1.907 1.982 2.532 2.365 2.797" fill="none" stroke="#000" stroke-width=".425"/>
  <path stroke-miterlimit="2.613" d="M377.166 232.167s.07.58.645.643c0 0 .6.193.95-.553 0 0 .04-.17.05-.25.04-.35.16-1.352-.925-2.173 0 006DDC55ACB" fill="#f5ce00" stroke="#000" stroke-width=".425"/>
  <path stroke-miterlimit="2.613" d="M374.997 227.905s3.973-.177 3.83 3.94" fill="none" stroke="#000" stroke-width=".425"/>
  <path stroke-miterlimit="2.613" d="M348.864 271.645c6.914-2.123 8.804-9.554 8.804-9.554 1.41-5.57-.86-10.444-.86-10.444-3.16-7.417-8.5000A5901A09" fill="#f5ce00" stroke="#000" stroke-width=".425"/>
  <path stroke-miterlimit="2.613" d="M368.374 290.536s-1.29-.175-1.29.977c0 0 .077 1.682 2.128 1.314 0 0 2.02-.442 1.304-2.702 0 0-.48-1.0A76762A45" fill="#f5ce00" stroke="#000" stroke-width=".425"/>
  <path stroke-miterlimit="2.613" d="M368.266 290.527s-1.427-.257-2.32 1.44c0 0-.526 1.094-.61 1.727m-.466-6.068s1.43.248.693 2.27c-.694 1.906-1.983 2.53-2.365 2.797m18.348-61.08s3.456-2.164 6.986.233" fill="none" stroke="#000" stroke-width=".425"/>
  <path stroke-miterlimit="2.613" d="M361.88 252.755s.48-1.93-1.722-5.308c0 0-1.435-3.088-2.2-5.066m4.975-2.123s1.246 3.036 1.675 4.395c0 0 1.546 3.808 1.873 4.58" fill="none" stroke="#000" stroke-width=".319"/>
  <path stroke-miterlimit="10" d="M363.555 254.877s1.3 1.4 1.152 3.764m-5.457-5.258s1.435.692 1.34 4.503c0 0-.145 2.783 2.008 4.182m-3.544.98s4.493-.49 4.74 2.277c0 0 .096 2.654 1.627 2.944 0 0 2.295.217 2.75 2.34m-7.7-4.488s.788 1.183 1.554 1.69m4.21-4.61s1.14 1.73 1.357 2.743m3.59-23.563s1.052 1.432 2.073 2.107m2.137 6.37s2.233 1.093 1.85 6.723c0 0-.287 3.3.638 5.103" fill="none" stroke="#000" stroke-width=".319"/>
  <path d="M364.87 247.037l.145.53s4.003.17 6.164-2.557l-.233-.523s-3.493-.177-6.077 2.55z" fill="#784421" stroke="#000" stroke-width=".319"/>
  <path stroke-miterlimit="10" d="M379.293 268.514s13.846-4.128 19.182-6.534" fill="none" stroke="#000" stroke-width=".319"/>
  <path d="M377.647 242.525l6.848-2.606.16.457-6.848 2.6z" fill="#784421" stroke="#000" stroke-width=".195"/>
  <path d="M378.388 242.758l4.545 22.285m-3.756-22.583l5.206 22.18m-4.32-22.518l5.694 22.02m-3.462-22.867l7.762 16.53m-6.735-16.92l8.278 16.432m-7.518-16.72l8.954 16.266m-10.41 8.357l3.514-1.158m-6.174-1.047s10.3-3.008 18.093-6.152m-18.232 7.28s13.052-3.454 18.23-5.974m-14.247 16.588l.685 2.09 1.868-.597-.638-2.072m3.358-.923l.683 2.09 1.87-.597-.64-2.072m-10.772-11.768l-.16-2.83 17.112-5.195.926 2.38m-10.782.613l.933 2.497m5.05-4.313l1.09 2.374m.33-2.804l1.02 2.246m.334-2.66l1.07 2.35m.029-2.683l1.882-1.06.798 2.09m-1.756-1.553l.96 2.166" stroke-miterlimit="10" fill="none" stroke="#000" stroke-width=".319"/>
  <path stroke-miterlimit="10" d="M355.66 284.938s-3.35-3.392 0-6.714c0 0-3.636-1.778-3.062-4.64m9.042 14.042s-3.467.473-2.44-6.282c0 0-1.434 2.677-1.93 4.054-.37 1.03-.124 2.693 1.344 3.592.587.36 3.697 1.17 4.702-.89m-5.55-10.81s-1.412 1.304-.407 3.692m1.865-3.378s.167 2.316 1.316 3.62m-.323-4.536s-.01 2.726 1.95 4.415m-.975-5.356s.02 3.063 2.292 4.945m8.996-.458s1.147-2.51 3.564-2.39c0 0-1.173.532-1.15 1.706 0 0-.142 1.938 1.94 2.13 0 0 1.674.218 2.51-.7" fill="none" stroke="#00247d" stroke-width=".425"/>
  <path stroke-miterlimit="10" d="M378.197 291.694s-5.957-2.8-5.335-6.828c0 0 .24-2.46 2.645-3.62m-1.257 2.558s-.527 1.738.646 2.944m.694-4.126s-.72 1.906.478 3.33m.955-4.255s-.86 1.576.17 3m-5.6 7.406s3.254 2.824 5.79 2.848m-6.818-1.954s3.04 2.46 4.94 2.823m-6.088-2.127s3.758 3.308 6.09 3.55m9.197 3.04s-3.695 1.99-.83 4.095m-1.514-6.29s4.186-2.196 6.004-3.017m-4.497 4.15s6.053-3.69 7.847-4.486m-4.737 4.728s5.167-3.45 7.942-4.946m-4.522 4.826s3.564-2.8 7.01-4.826m1.22-3.498s-1.747-2.557-7.488 0c0 0 2.105-1.91 6.268-3.392m5.796-10.986s.47 2.074-.032 3.328" fill="none" stroke="#00247d" stroke-width=".425"/>
  <path stroke-miterlimit="10" d="M393.89 286.7s1.197-1.762 4.236-2.63c0 0 .82 2.05 3.182 1.592 0 0 3.564-.7 2.488-4.608 0 0-.74-2.92-4.813-3.208m12.11-4.896s4.14.746 4.067 4.124c0 0 .335 5.066-5 6.055m4.412-8.1s1.137-2.468 3.673-3.482m-3.082-1.448s1.13 1.814 1.903 2.077m-2.494-.627s1.065 1.3 1.424 1.518m-1.77-.265s.562.83 1.06 1.09m-22.352-20.676s.805-1.307 2.807-.752m8.175 10.55s1.268-5.29 5.694-3.337m-1.795-.433s.454-2.438-.646-3.68m-2.37 3.51s.564 1.01.08 1.833" fill="none" stroke="#00247d" stroke-width=".425"/>
  <path stroke-miterlimit="2.613" d="M413.796 313.117s4.976-2.267 3.445-6.128c0 0-.47-1.305-1.574-1.208 0 0-1.92.096-1.535 2.654 0 0 .576 2.51-.333 4.68z" fill="#64b4d1" stroke="#00247d" stroke-width=".319"/>
  <path d="M415.598 310.834s1.094-1.048.94-2.927c0 0-.063-.402.138-.458 0 0 .214-.09.246.375 0 0 .303 1.962-1.00BCC5A2AC4" fill="#fff"/>
  <path stroke-miterlimit="2.613" d="M420.877 309.643s3.493-2.195 1.603-5.886c0 0-.55-1.062-1.603-.845 0 0-2.177.676-.478 3.692 0 0 .86 1.954.476 3.04z" fill="#64b4d1" stroke="#00247d" stroke-width=".319"/>
  <path d="M421.75 304.637s-.19-.253-.06-.362c0 0 .084-.12.31.17 0 0 1.058 1.18.217 2.997 0 0-.096.26-.263.174 0 0-.144-.072-.012-.29 0 0 .753-1.494-.192-2.69z" fill="#fff"/>
  <path stroke-miterlimit="2.613" d="M410.422 312.153s-3.9-.99-3.182-5.018c0 0 .383-1.762 2.034-1.52 0 0 1.99.507.694 3.068 0 0-.766 1.83.454 3.47z" fill="#64b4d1" stroke="#00247d" stroke-width=".319"/>
  <path d="M408.915 307.34s-.143-.194.024-.278c0 0 .165-.072.285.163 0 0 .407.645.063 1.53 0 0-.327.61-.17 1.2502C1500AAE" fill="#fff"/>
  <path d="M413.22 304.527s2.202-1.236 4.02.21c0 0-.185-.803-1.576-1.157 0 0-.752-2.123-2.857-1.93 0 0 .86 1.030350385A3D"/>
  <path stroke-miterlimit="10" d="M406.172 303.45s-.16-.545.223-1.125c0 0 .255-.418.16-.965m15.662-32.264s2.328-.16 2.71-1.963m4.083-1.19s-.81-.032-1.544.708c0 0-.56.838-1.358.74" fill="none" stroke="#000" stroke-width=".425"/>
  <path d="M418.772 262.244s1.212 0 1.882-.58c0 0 .702-.48 1.117.29 0 0 .64 1.094-.54 1.577 0 0-1.47.74.86 2.220AEEFDDAD7"/>
  <path stroke-miterlimit="2.613" d="M420.42 232.95s.548-.744.324-2.98c-.224-2.235 1.717-2.492 2.464-1.85 0 0 .772.668.062 2.086-.41.818-1.064 1.878-2.85 2.745z" fill="#64b4d1" stroke="#00247d" stroke-width=".319"/>
  <path d="M421.15 231.28s.728-.78.38-2.48c0 0 0-.167.094-.178 0 0 .177-.045.207.123 0 0 .39 1.81-.43 2.794 0 0-.15.143-.25 0 0-.003-.11-.107 0-.26z" fill="#fff"/>
  <path stroke-miterlimit="2.613" d="M419.8 232.137s-.057-.9-1.614-2.432c-1.558-1.53-.277-2.943.677-2.93 0 0 .988.015 1.344 1.52.205.87.38 2.073-.406 3.842z" fill="#64b4d1" stroke="#00247d" stroke-width=".319"/>
  <path d="M419.558 230.178s.028-1.104-1.382-2.256c0 0-.115-.134-.05-.205 0 0 .105-.15.242-.034 0 0 1.518 1.2150304CCAAD4" fill="#fff"/>
  <path stroke-miterlimit="2.613" d="M417.685 231.46s-.407-.734-2.33-1.417c-1.924-.682-1.404-2.363-.595-2.722 0 0 .84-.37 1.74.758.52.652 1.145 1.594 1.185 3.383z" fill="#64b4d1" stroke="#00247d" stroke-width=".319"/>
  <path d="M416.843 230.11s-.437-1.012-2.2-1.455c0 0-.16-.073-.13-.166 0 0 .032-.18.204-.135 0 0 1.886.454 2.4709CFEBAAAD" fill="#fff"/>
  <path stroke-miterlimit="2.613" d="M418.89 232.195s-.896.252-2.956-.742c-2.06-.993-2.962.736-2.6 1.66 0 0 .376.96 1.97.79.92-.096 2.154-.338 3.587-1.708z" fill="#64b4d1" stroke="#00247d" stroke-width=".319"/>
  <path d="M414.1 232.852s.935.576 2.63-.08c0 0 .172-.033.2.06 0 0 .077.167-.09.227 0 0-1.804.717-2.962.086 0 0-.176-.122-.043-.248 0 0 .09-.13.266-.048z" fill="#fff"/>
  <path stroke-miterlimit="2.613" d="M415.877 225.685s1.03.5.79 1.705" fill="none" stroke="#000" stroke-width=".425"/>
  <path stroke-miterlimit="10" d="M420.423 225.854s.402 1.274-.042 1.96" fill="none" stroke="#000" stroke-width=".425"/>
  <path stroke-miterlimit="2.613" d="M349.454 232.95s-.547-.744-.323-2.98c.225-2.235-1.716-2.492-2.462-1.85 0 0-.772.668-.062 2.086.41.818 1.063 1.878 2.85 2.745z" fill="#64b4d1" stroke="#00247d" stroke-width=".319"/>
  <path d="M348.724 231.28s-.727-.78-.38-2.48c0 0 .002-.167-.094-.178 0 0-.177-.045-.206.123 0 0-.39 1.81.43 2.794 0 0 .15.143.25 0 0-.003.11-.107 0-.26z" fill="#fff"/>
  <path stroke-miterlimit="2.613" d="M350.074 232.137s.057-.9 1.615-2.432c1.555-1.53.275-2.943-.68-2.93 0 0-.987.015-1.343 1.52-.205.87-.38 2.073.406 3.842z" fill="#64b4d1" stroke="#00247d" stroke-width=".319"/>
  <path d="M350.317 230.178s-.028-1.104 1.382-2.256c0 0 .113-.134.047-.205 0 0-.104-.15-.24-.034 0 0-1.52 1.2150E0858DA70" fill="#fff"/>
  <path stroke-miterlimit="2.613" d="M352.19 231.46s.406-.734 2.33-1.417c1.923-.682 1.403-2.363.594-2.722 0 0-.84-.37-1.74.758-.52.652-1.144 1.594-1.185 3.383z" fill="#64b4d1" stroke="#00247d" stroke-width=".319"/>
  <path d="M353.032 230.11s.437-1.012 2.198-1.455c0 0 .16-.073.13-.166 0 0-.03-.18-.203-.135 0 0-1.886.454-2.470BB9262A55" fill="#fff"/>
  <path stroke-miterlimit="2.613" d="M350.984 232.195s.897.252 2.956-.742c2.06-.993 2.962.736 2.6 1.66 0 0-.376.96-1.97.79-.92-.096-2.154-.338-3.586-1.708z" fill="#64b4d1" stroke="#00247d" stroke-width=".319"/>
  <path d="M355.773 232.852s-.933.576-2.628-.08c0 0-.173-.033-.2.06 0 0-.078.167.09.227 0 0 1.803.717 2.96.086 0 0 .177-.122.045-.248 0 0-.09-.13-.267-.048z" fill="#fff"/>
  <path stroke-miterlimit="2.613" d="M353.997 225.685s-1.028.5-.79 1.705" fill="none" stroke="#000" stroke-width=".425"/>
  <path stroke-miterlimit="10" d="M349.452 225.854s-.403 1.274.042 1.96" fill="none" stroke="#000" stroke-width=".425"/>
  <path d="M394.106 214.153s.652 1.86.37 3.547c-.25 1.507.093 1.897.637 2.196.472.258 1.565-.194 1.696-1.376 0 0 1.29 2.52-1.22 4.222 0 0-1.808 1.11-3.34-.374-.54-.523-.777-1.966-.514-3.306 0 0 .396-1.815-.263-3.68 0 0 1.03 1.1.766 3.288 0 0-.528 3.927 2.38 3.734 0 0 2.01-.024 2.07-2.46 0 0-.755.867-1.688.578-.66-.205-1.268-.844-1.16-1.852.113-1.057.407-2.9.263-4.517zm-3.293 6.45s-.16 3.104-3 3.86c0 0 .4-.563-.238-2.107 0 0-.622-.9-.574-2.3 0 0-.9.707.13 2.573.62 1.124.08 2.475-.112 2.523-.192.048 4.69-.643 3.796-4.55zm-3.685-3.09s-.685-.77-.733-2.556c-.048-1.786-.383-2.22-.622-2.43 0 0 .35 1.545.255 2.494-.096.95.064 1.498.19 1.948 0 0-1.546.24-2.52-2.01-.93-2.153-1.865-1.98-2.328-1.963 0 0 .54.06 1.627 2.026 1.086 1.966 1.388 2.367 4.13 2.495zm-7.24-4.663s.893 2.14.925 3.265c0 0-2.074-.692-2.632-2.493 0 0-2.215.756-1.4 3.313 0 0-1.915-.675-2.776-2.236 0 0 1.068.803 2.057 1.156 0 0-.11-2.058 2.473-2.83 0 0 .384 1.844 1.675 2.284 0 0-.096-1.157-.32-2.46zm3.412-3.667s.718 1.045 2.186 1.094c.7.023 1.456-.136 2.185-1.094 0 0-.094 1.818-2.183 1.833 0 0-2.185.08-2.185-1.833zm-9.04 12.425s1.09.99 1.317 1.314c0 0 .766.75 1.423-.22 0 0 .838-1.545 1.867-1.504 0 0-.73.506-1.55 1.97 0 0-.22.538-.83.6-.287.027-.647.12-1.193-.45 0 0-.47-.576-1.033-1.71zm11.226-19.71c-2.185 0-.343 1.687-.343 1.687.047 2.678-2.1 3.502-3.565 2.727-1.463-.777-.32-2.727-.32-2.727s-1.65 1.086-.597 2.654c1.055 1.566 3.814.866 4.827-.58 1.013 1.446 3.772 2.146 4.824.58 1.054-1.57-.597-2.656-.597-2.656s1.145 1.95-.32 2.727c-1.462.776-3.61-.05-3.563-2.726-.002 0 1.84-1.69-.344-1.688zM386.81 199s.765 1.303.597 3.28c0 0 .694-1.978-.598-3.28zm-6.7 3.064s-.167-1.424-1.554-1.545c0 0 1.172.847 1.555 1.547zm10.767 0s.167-1.424 1.555-1.545c0 0-1.173.847-1.555 1.547zm-12.967 2.17s1.1.34 1.77-.48c0 0-1.268.336-1.77.48zm-3.565-8.733s1.28-.145 2.56 1.762c0 0-1.268.675-1.58 1.085 0 0 0-.627.623-1.182 0 0-.24-.965-1.603-1.665zm21.435 0s-1.28-.145-2.56 1.762c0 0 1.27.675 1.58 1.085 0 0 0-.627-.622-1.182 0 0 .24-.965 1.603-1.665zm-9.88 1.423s1.15.315 2.584-.482c0 0 1.77-.94 2.895 0 0 0-.983-.436-2.873.482 0 0-1.89 1.036-2.607 0z"/>
  <path d="M387.097 198.085s.98-1.72 3.97-1.38c0 0-.812 2.393-3.97 1.38z" fill="#fff"/>
  <ellipse cx="389.159" cy="197.551" rx=".591" ry=".75" fill="#784421"/>
  <ellipse cx="389.159" cy="197.551" rx=".351" ry=".46"/>
  <path d="M380.685 194.418s1.89.12 3.038.844c0 0 1.22.724 2.608-.314 0 0 1.51-.868 2.48-2.074 0 0-2.31 1.592-3.17 1.833 0 0-.79-.603-1.1-1.47 0 0 .117-.653 1.36-1.86 0 0-1.674.508-2.01 1.93 0 0 .31.87.958 1.546 0 0-.31.144-1.124-.362 0 0-1.77-.602-3.038-.07zm4.8 11.352c-1.634 1.41 0 1.266 0 1.266s1.636.145 0-1.267zm-.945-8.844s-1.15.315-2.584-.482c0 0-1.77-.94-2.895 0 0 0 .983-.436 2.873.482 0 0 1.89 1.036 2.608 0z"/>
  <path d="M383.344 198.085s-.98-1.72-3.972-1.38c0 0 .814 2.393 3.972 1.38z" fill="#fff"/>
  <ellipse cx="381.281" cy="197.551" rx=".591" ry=".75" fill="#784421"/>
  <ellipse cx="381.281" cy="197.551" rx=".351" ry=".46"/>
  <path d="M443.25 182.61v108.408c0 28.958-57.888 38.366-57.888 38.366s-57.887-9.408-57.887-38.366v-108.41H443.25z" fill="none" stroke="#000" stroke-width="1.024"/>
</svg>
