<svg xmlns="http://www.w3.org/2000/svg" xmlns:xlink="http://www.w3.org/1999/xlink" height="512" width="512" id="flag-icon-css-bn">
  <path fill="#f7e017" d="M0 0h512v512H0z"/>
  <path d="M0 35.556V263.11l512 106.667v-120.89z" fill="#fff"/>
  <path d="M0 156.444v106.667l512 213.333V369.778z"/>
  <g transform="translate(-256) scale(.71111)" fill="#cf1126">
    <path d="M695.74 569.72c-19.36-2.57-37.11-8.73-49.44-17.17-2.39-1.64-4.64-2.98-4.99-2.98-.36 0-.65 1.82-.65 401D63B1A68"/>
    <path d="M706.34 525.17c-38.58-3.703-75.494-23.798-97.939-55.657-24.37-33.235-32.05-77.117-24.611-117.24 3.950B45592A98"/>
    <g id="a">
      <path d="M512.02 469.9c-2.528-.396-5.316 2.092-4.363 4.697 1.823 2.633 4.964 3.92 7.798 5.18 6.792 2.722 14.10458F0FA43"/>
      <path d="M514.83 459.52c-2.556-.38-4.758 2.56-3.692 4.908 1.965 2.848 5.267 4.365 8.356 5.699 5.37 2.148 11.20432B07A8C"/>
      <path d="M518.28 449.57c-2.19-.263-3.698 2.209-3.329 4.182.327 1.733 1.883 2.898 3.17 3.96 5.328 3.898 12.0820755EA7AEE"/>
      <path d="M481.53 302.7c-3.257 3.26-.77 9.271-.946 13.543 1.688 13.158 3.785 26.484 8.697 38.87 6.015 12.102 10277C9DA48"/>
      <path d="M491.44 304.19c-2.963.478-2.862 4.254-1.491 6.239 1.458 4.288 1.855 8.945 1.066 13.409 5.267 6.166 90168495A9F"/>
      <path d="M499.73 306.62c-2.064.613-1.67 3.159-1.016 4.716.989 4.316 1.144 8.774 1.063 13.184 3.791 3 6.163 7.090D3A1AD6"/>
      <path d="M509.16 307.97c-1.122.198-1.805 1.266-2.406 2.137-.233.873.837 1.812 1.008 2.76a21.771 21.771 0 0 1 0B04AD2A5E"/>
    </g>
    <use height="100%" width="100%" xlink:href="#a" transform="matrix(-1 0 0 1 1440 0)"/>
    <path d="M715.67 475.98c-13.493-1.285-25.667-11.12-29.829-24 .224-2.219 2.987 1.241 4.292 1.474 2.45 1.36 5.10A1057EA5B"/>
    <path d="M731.53 460.22c.297-2.708-.32-5.473-1.703-7.935-2.123-4.326-5.121-8.166-8.046-11.96-2.757-1.616-4.2800B062BA2F"/>
    <path d="M726.73 389.63c-1.456-2.624-3.224-5.21-5.673-6.995-2.381-.005-3.85 2.999-5.468 4.573-1.134 2.11-2.5101C9FCCAE8"/>
    <path d="M711.61 326.89c-3.36-2.46-4.47-4.81-4.47-9.46 0-2.38.44-3.67 2.01-5.83 2.31-3.2 1.89-4.21-1.38-3.27-00662E0A3D"/>
    <path d="M726.67 233.03l-5.13 4.06-4.6-3.47v27.74l9.73.12z"/>
    <path d="M694.89 204.25c-1.02 13.11-4.35 22.26-8.98 32.35l11.1-10.29 7.72 9.17 8.36-9.33 8.53 7.88 8.2-8.2 8.0FB073AADB"/>
    <path d="M716.95 197.56c-4.46.08-9.16.14-13.39.97-2.93.58-5.59 1.53-7.81 3.1.36 8.53 41 12.09 51.9.16-2.29-1.019BDE7A09"/>
    <path d="M724.9 153.97l-6.31.05v49.38l6.44.03z"/>
    <path d="M724.89 155.24l-2.41 23.64 24.32 11.88-12.31-16.46 16.81-5.45zm-2.71-6.16c-3.69 0-6.42 1.38-6.42 3.00993EA3AC7"/>
  </g>
  <g fill="#f7e017">
    <path d="M249.636 400.939c2.837-.939 4.451-2.66 5.61-5.974.576-1.65.967-3.363.868-3.811-.242-1.06-1.465-1.0030AD6286A47"/>
    <path d="M248.1 393.55c.256-1.173.583-3.577.732-5.333.15-1.757.512-3.975.796-4.935.726-2.46-.007-3.108-1.948-02903B5A3B"/>
    <path d="M194.93 373.739c.79-1.003 1.97-3.03 2.624-4.509.647-1.486 1.621-3.171 2.154-3.747 1.252-1.351.555-2.04B3FE3A5C"/>
    <path d="M230.357 346.468c-.647-.015-1.372.227-2.09.732-3.776 2.645-4.743 5.774-2.176 6.997 1.884.903 1.408 10AF2FFEA3B"/>
    <path d="M221.938 352.427c2.51-1.593 2.453-1.472 2.816-5.895.249-3.122.206-3.357-.64-3.357-1.23 0-1.87 1.351-037F565A67"/>
    <path d="M223.396 339.015c0-1.003-1.8-.86-1.999.157-.128.654.079.81.918.69.597-.086 1.08-.463 1.08-.847zm79.68-7.055c.184-.96-1.152-1.6-1.856-.895-.704.704-.057 2.04.896 1.856.44-.085.874-.52.96-.96zm-124.004-9.763c1.252-1.073 1.266-1.145.725-3.505-.768-3.307-.718-3.663.54-3.976 1.594-.405 5.64 1.764 6.536 3.5.697 1.343.675 1.436-.505 2.53-1.273 1.174-1.266 2.546.007 2.546 1.053 0 3.961-2.752 3.961-3.74 0-1.372-3.228-4.615-5.781-5.803-1.579-.74-3.158-1.08-4.985-1.088-3.271 0-3.712.704-2.83 4.509 1.038 4.458-.37 5.063-3.961 1.7-2.667-2.497-3.72-5.092-3.705-9.181.007-4.388 1.685-6.557 5.468-7.069 2.51-.334 2.446-.924-.135-1.308-3.769-.569-6.955 1.948-8.163 6.443-1.344 4.985 1.735 11.057 7.182 14.186 2.851 1.636 3.99 1.686 5.646.256zm148.508-5.468c.306-.306.555-.996.555-1.529 0-.533.52-1.678 1.152-2.539.64-.86 1.16-1.742 1.16-1.955 0-.875-1.444-.846-2.582.057-1.166.91-2.041.931-2.041.042 0-.22.555-.675 1.237-1.01 1.693-.824 1.835-1.642.406-2.296-1.835-.832-3.677.69-3.869 3.2-.12 1.678.014 1.97 1.309 2.73 1.18.697 1.4 1.067 1.201 2.063-.34 1.728.377 2.332 1.472 1.237zm13.96-1.579c1.024-.917 1.856-1.962 1.856-2.31 0-.35.881-1.274 1.962-2.049 3.065-2.204 3.74-4.43 2.368-7.85-.533-1.345-2.211-3.2-5.86-6.486-2.801-2.531-5.382-4.6-5.717-4.6-.995 0-.817 3.661.192 3.981 1.82.584 2.923 1.33 5.789 3.912 3.328 3.008 4.864 5.816 4.025 7.38-.804 1.516-1.87 1.046-4.807-2.104-1.544-1.657-3.072-3.008-3.385-3.008-.342.007-.583.604-.583 1.444 0 1.052.561 2.055 2.083 3.747 2.482 2.76 2.724 4.416.86 5.881-.668.526-1.358.96-1.528.96-.164 0-.711-.825-1.21-1.828-1.037-2.104-7.388-8.81-8.34-8.81-.434 0-.648.54-.648 1.607 0 1.287.256 1.742 1.28 2.268 1.259.655 4.374 3.79 7.503 7.574.896 1.08 1.777 1.955 1.97 1.962.184 0 1.173-.753 2.19-1.67zm6.229-17.827c-.413-1.33-8.932-10.098-9.806-10.098-.455 0-.598.54-.491 1.934.12 1.693.306 1.984 1.472 2.29.725.192 2.972 1.955 4.985 3.911 2.005 1.956 3.769 3.442 3.911 3.292.142-.142.114-.74-.071-1.33zm-50.88 98.687a1.266 1.16 0 1 1-2.533 0 1.266 1.16 0 1 1 2.533 0zm4.473-1.493a1.266 1.16 0 1 1-2.533 0 1.266 1.16 0 1 1 2.533 0z"/>
  </g>
</svg>
