<svg xmlns="http://www.w3.org/2000/svg" height="512" width="512" id="flag-icon-css-br">
  <g stroke-width="1pt">
    <path fill-rule="evenodd" fill="#229e45" d="M0 0h512v512H0z"/>
    <path d="M261.358 405.394L491.23 256.2 259.967 106.605 29.34 256.56l232.018 148.834z" fill-rule="evenodd" fill="#f8e509"/>
    <path d="M361.52 256.004c0 53.622-43.54 97.093-97.25 97.093s-97.248-43.47-97.248-97.093 43.54-97.093 97.25-97.093 97.248 43.47 97.248 97.094z" fill-rule="evenodd" fill="#2b49a3"/>
    <path fill-rule="evenodd" fill="#ffffef" d="M232.302 314.156l-3.004-1.734-3.12 1.544.698-3.468-2.41-2.542 3.446-.403 1.62-3.11 1.443 3.216 3.4.617-2.55 2.387m65.648 19.995l-3.005-1.734-3.12 1.544.698-3.468-2.41-2.54 3.446-.405 1.62-3.11 1.443 3.217 3.4.617-2.55 2.387m-27.613-22.869l-2.595-1.498-2.696 1.333.604-2.996-2.082-2.196 2.978-.348 1.398-2.687 1.248 2.78 2.937.533-2.203 2.062m66.231-6.462l-2.55-1.47-2.646 1.31.593-2.943-2.046-2.156 2.924-.343 1.373-2.638 1.226 2.728 2.884.523-2.163 2.026m-66.604-16.77l-3.005-1.734-3.12 1.545.698-3.468-2.41-2.542 3.447-.404 1.618-3.11 1.445 3.218 3.4.618-2.55 2.387M187.95 244.96l-3.005-1.735-3.12 1.544.698-3.47-2.41-2.54 3.447-.404 1.618-3.11 1.444 3.216 3.4.618-2.55 2.387m10.128 43.568l-3.005-1.734-3.12 1.544.698-3.468-2.41-2.542 3.447-.403 1.618-3.11 1.444 3.218 3.4.617-2.55 2.387m100.612-51.337l-2.654-1.53-2.757 1.363.617-3.065-2.13-2.245 3.046-.357 1.43-2.748 1.275 2.843 3.005.545-2.253 2.11m-5.083 29.158l-2.09-1.208-2.17 1.074.485-2.412-1.677-1.77 2.398-.28 1.126-2.164 1.005 2.24 2.366.428-1.775 1.66m-108.421 38.448l-2.006-1.158-2.083 1.03.467-2.314-1.61-1.697 2.302-.27 1.08-2.077.964 2.148 2.27.413-1.702 1.595m152.599 11.561l-1.634-.866-1.698.772.38-1.732-1.31-1.27 1.874-.2.88-1.555.786 1.607 1.85.31-1.387 1.19"/>
    <path fill-rule="evenodd" fill="#ffffef" d="M183.477 292.296l-2.006-1.158-2.083 1.03.467-2.314-1.61-1.697 2.302-.27 1.08-2.077.964 2.148 2.27.413-1.702 1.595"/>
    <path fill-rule="evenodd" fill="#ffffef" d="M183.477 292.296l-2.006-1.158-2.083 1.03.467-2.314-1.61-1.697 2.302-.27 1.08-2.077.964 2.148 2.27.413-1.702 1.595m32.251 2.322l-2.007-1.157-2.083 1.03.466-2.314-1.61-1.697 2.302-.27 1.08-2.077.965 2.148 2.27.413-1.703 1.594m-3.65 12.952l-2.004-1.157-2.084 1.03.466-2.314-1.61-1.698 2.302-.27 1.08-2.077.965 2.148 2.27.413-1.702 1.594m66.625-17.006l-2.006-1.157-2.083 1.03.465-2.315-1.61-1.696 2.302-.27 1.08-2.076.965 2.148 2.27.412-1.703 1.594m-19.138 2.323l-2.005-1.158-2.083 1.03.466-2.314-1.61-1.697 2.302-.27 1.08-2.077.965 2.15 2.27.41-1.703 1.595m-52.457-4.452l-1.257-.726-1.305.646.292-1.45-1.008-1.064 1.442-.17.676-1.3.604 1.345 1.423.258-1.067 1m127.97 34.606l-2.005-1.158-2.084 1.03.466-2.315-1.61-1.697 2.302-.27 1.08-2.076.965 2.148 2.27.413-1.703 1.593m-15.883 4.454l-1.662-.96-1.724.855.386-1.923-1.333-1.41 1.905-.223.895-1.725.8 1.783 1.88.343-1.41 1.324m7.907 1.752l-1.548-.894-1.608.796.36-1.788-1.242-1.31 1.775-.21.834-1.603.743 1.66 1.75.318-1.312 1.23m22.197-17.353l-1.49-.86-1.55.766.347-1.72-1.196-1.262 1.71-.2.804-1.543.717 1.596 1.687.305-1.265 1.185m-29.55 31.881l-1.946-1.063-2.022.947.453-2.126-1.562-1.557 2.233-.246 1.05-1.906.935 1.97 2.204.38-1.653 1.462m.418 10.861l-1.775-1.062-1.844.946.414-2.125-1.425-1.557 2.036-.247.957-1.906.853 1.97 2.01.38-1.508 1.463m-14.432-17.581l-1.49-.86-1.55.765.347-1.72-1.195-1.26 1.71-.202.803-1.543.717 1.596 1.687.306-1.265 1.184m-13.56 1.734l-1.49-.86-1.547.765.346-1.72-1.197-1.26 1.71-.202.803-1.543.717 1.596 1.687.306-1.265 1.184M265.07 291.38l-1.492-.86-1.548.766.347-1.72-1.196-1.26 1.71-.2.804-1.545.716 1.598 1.687.306-1.265 1.184m2.847 43.477l-1.264-.73-1.31.65.293-1.457-1.014-1.07 1.448-.17.68-1.306.607 1.352 1.43.26-1.072 1.002m-35.176-66.052l-3.004-1.734-3.12 1.545.698-3.468-2.41-2.542 3.446-.404 1.62-3.11 1.443 3.218 3.4.618-2.55 2.387"/>
    <path d="M355.113 290.934c1.482-3.876 3.394-9.72 4.41-15.086-51.653-45.375-109.233-68.618-181.99-63.836-2.60709A1D00AA0" fill-rule="evenodd" fill="#fff"/>
    <path d="M331.893 265.425l1.845 1.008c-.29.654-.367 1.226-.236 1.714.137.493.476.922 1.017 1.288.573.392 1.08082B3DEA61" fill="#309e3a"/>
    <g stroke-opacity=".502">
      <path d="M181.37 218.85c.03-1.087.216-1.997.56-2.726.257-.538.6-1.017 1.027-1.438.432-.42.9-.73 1.407-.924.670D33FF5AAF" fill="#309e3a"/>
      <path d="M183.592 218.83c-.033 1.21.22 2.137.76 2.778.54.638 1.238.968 2.095.99.856.025 1.567-.265 2.13-.866.035DA42AD4" fill="#f7ffff"/>
    </g>
    <g stroke-opacity=".502">
      <path d="M193.99 224.365l.125-10.688 4.524.054c1.137.015 1.96.12 2.472.322.516.195.926.54 1.23 1.035s.452 1.004E3668A8A" fill="#309e3a"/>
      <path d="M196.22 218.223l1.59.02c1.032.012 1.676-.025 1.934-.11.257-.084.46-.232.607-.444s.224-.48.23-.8c.00304525C0A83" fill="#fff"/>
    </g>
    <g stroke-opacity=".502">
      <path d="M206.153 214.207l3.924.2c.885.045 1.555.147 2.012.307.613.216 1.132.57 1.552 1.065.422.492.73 1.086.0EE64BEA80" fill="#309e3a"/>
      <path d="M208.213 216.11l-.356 7.072 1.603.08c.6.033 1.034.02 1.303-.034.352-.07.648-.204.886-.4.242-.198.4470E2B3E6A97" fill="#fff"/>
    </g>
    <g stroke-opacity=".502">
      <path d="M258.478 233.293l2.486-10.393 3.355.81c1.27.305 2.086.557 2.447.755.556.298.97.758 1.246 1.38.275.610FE19A6A0F" fill="#309e3a"/>
      <path d="M262.64 225.16l-.707 2.95 1.144.275c.825.198 1.388.277 1.69.234.306-.043.562-.16.773-.354.215-.193.306FF9DFA7A" fill="#fff"/>
    </g>
    <g stroke-opacity=".502">
      <path d="M268.373 236.257l3.538-10.08 4.27 1.51c1.072.38 1.82.746 2.238 1.1.426.353.703.81.833 1.378s.09 1.140665D4FA31" fill="#309e3a"/>
      <path d="M272.438 231.163l1.5.53c.973.344 1.593.518 1.864.52.27.003.51-.07.72-.225.207-.152.363-.38.47-.683.1041E115AE2" fill="#fff"/>
    </g>
    <g stroke-opacity=".502">
      <path d="M280.88 235.87c.323-1.04.75-1.863 1.276-2.47.394-.45.85-.817 1.378-1.105a4.166 4.166 0 0 1 1.602-.50040628EA0E" fill="#309e3a"/>
      <path d="M283.027 236.47c-.36 1.154-.366 2.114-.02 2.88.348.76.93 1.267 1.75 1.524.817.255 1.578.17 2.283-.2509E37A9A94" fill="#fff"/>
    </g>
    <g stroke-opacity=".502">
      <path d="M301.692 250.754l4.89-9.494 4.02 2.087c1.01.526 1.7.992 2.067 1.402.37.406.584.9.634 1.48s-.07 1.14706EBCC8ACA" fill="#309e3a"/>
      <path d="M306.418 246.26l1.412.733c.916.477 1.508.734 1.776.775.267.04.516 0 .743-.123.226-.123.41-.327.56-.604BF871A1A" fill="#fff"/>
    </g>
    <g stroke-opacity=".502">
      <path d="M341.19 270.26c.607-.9 1.25-1.567 1.933-1.996a5.027 5.027 0 0 1 1.636-.658 4.17 4.17 0 0 1 1.678-.02028227BA1D" fill="#309e3a"/>
      <path d="M343.073 271.443c-.675 1.003-.958 1.92-.847 2.752.115.83.526 1.483 1.235 1.966.712.483 1.465.622 2.20A9CAECACE" fill="#fff"/>
    </g>
    <path d="M246.427 228.95l1.714-7.504 5.543 1.278-.288 1.267-4.032-.927-.384 1.663 3.754.866-.29 1.262-3.75-.863-.47 2.042 4.176.962-.288 1.265-5.685-1.31z" fill="#309e3a"/>
  </g>
</svg>
