<svg xmlns="http://www.w3.org/2000/svg" height="512" width="512" id="flag-icon-css-dm">
  <defs>
    <clipPath id="a">
      <path fill-opacity=".67" d="M0 0h512v512H0z"/>
    </clipPath>
  </defs>
  <g fill-rule="evenodd" clip-path="url(#a)">
    <path fill="#108c00" d="M-258.27 0h1027.5v512h-1027.5z"/>
    <path fill="#ffd600" d="M-260 178.16H772.6v50.162H-260z"/>
    <path fill="#ffd600" d="M181.08 0h48.432v512H181.08z"/>
    <path d="M227.78 0h48.432v512H227.78z"/>
    <path d="M-260 226.59H772.6v50.162H-260z"/>
    <path fill="#fff" d="M-260 276.76H772.6v50.162H-260z"/>
    <path fill="#fff" d="M276.22 0h48.432v512H276.22z"/>
    <rect transform="scale(-1)" ry="137.51" width="273.75" y="-393.87" x="-394.56" height="275.03" fill="#e72910"/>
    <g stroke-width="1pt">
      <path d="M250.51 136.92c0-.258 5.61-15.997 5.61-15.997l5.098 15.74s17.08.515 17.08.257-13.51 10.32-13.51 10.3079BB4FA89"/>
      <path d="M251.274 137.72c0-.224 4.857-13.855 4.857-13.855l4.417 13.63s14.794.448 14.794.225-11.7 8.938-11.7 802488F3ACB" fill="#ffe700"/>
      <path d="M253.328 139.987c0-.13 2.8-7.99 2.8-7.99l2.547 7.86s8.53.26 8.53.13-6.747 5.154-6.747 5.154 3.182 9.0232F13AFD" fill="#108c00"/>
    </g>
    <g stroke-width="1pt">
      <path d="M356.875 211.8c0-.258 5.608-15.997 5.608-15.997l5.1 15.74s17.08.515 17.08.257-13.512 10.32-13.512 1009DBB03A80"/>
      <path d="M357.638 212.6c0-.224 4.857-13.855 4.857-13.855l4.416 13.63s14.795.448 14.795.225-11.702 8.938-11.700078D5EA1B" fill="#ffe700"/>
      <path d="M359.692 214.867c0-.13 2.8-7.99 2.8-7.99l2.547 7.86s8.53.26 8.53.13-6.748 5.154-6.748 5.154 3.182 9.0232F1DAFB" fill="#108c00"/>
    </g>
    <g stroke-width="1pt">
      <path d="M325.875 330.65c0-.258 5.608-15.997 5.608-15.997l5.1 15.74s17.08.515 17.08.257-13.512 10.32-13.512 10CA28A0AC5"/>
      <path d="M326.638 331.45c0-.224 4.857-13.855 4.857-13.855l4.416 13.63s14.795.448 14.795.225-11.702 8.938-11.70CF8E82A4B" fill="#ffe700"/>
      <path d="M328.692 333.717c0-.13 2.8-7.99 2.8-7.99l2.547 7.86s8.53.26 8.53.13-6.748 5.154-6.748 5.154 3.182 9.0232F1DAFB" fill="#108c00"/>
    </g>
    <g stroke-width="1pt">
      <path d="M177.167 330.65c0-.258 5.608-15.997 5.608-15.997l5.1 15.74s17.08.515 17.08.257-13.512 10.32-13.512 1009FD8FA96"/>
      <path d="M177.93 331.45c0-.224 4.857-13.855 4.857-13.855l4.416 13.63s14.794.448 14.794.225-11.702 8.938-11.70011C885A7F" fill="#ffe700"/>
      <path d="M179.984 333.717c0-.13 2.8-7.99 2.8-7.99l2.547 7.86s8.53.26 8.53.13-6.746 5.154-6.746 5.154 3.182 9.0592F16AFD" fill="#108c00"/>
    </g>
    <g stroke-width="1pt">
      <path d="M150.01 208.74c0-.258 5.608-15.997 5.608-15.997l5.1 15.74s17.08.515 17.08.257-13.512 10.32-13.512 100AE6EF8A82"/>
      <path d="M150.773 209.54c0-.224 4.857-13.855 4.857-13.855l4.416 13.63s14.794.448 14.794.225-11.702 8.938-11.70CF8E82A4B" fill="#ffe700"/>
      <path d="M152.827 211.807c0-.13 2.8-7.99 2.8-7.99l2.547 7.86s8.53.26 8.53.13-6.747 5.154-6.747 5.154 3.182 9.0232F1DAFB" fill="#108c00"/>
    </g>
    <g stroke-width="1pt">
      <path d="M324.615 174.14c0 .258-5.608 15.997-5.608 15.997l-5.1-15.74s-17.08-.515-17.08-.257 13.512-10.32 13.506E191CA9D"/>
      <path d="M323.852 173.34c0 .224-4.857 13.855-4.857 13.855l-4.416-13.63s-14.795-.448-14.795-.225 11.702-8.938 0770245A4B" fill="#ffe700"/>
      <path d="M321.798 171.073c0 .13-2.8 7.99-2.8 7.99l-2.547-7.86s-8.53-.26-8.53-.13 6.748-5.154 6.748-5.154-3.18031BE5FAD3" fill="#108c00"/>
    </g>
    <g stroke-width="1pt">
      <path d="M367.315 290.28c0 .258-5.608 15.997-5.608 15.997l-5.1-15.74s-17.08-.515-17.08-.257 13.512-10.32 13.506E191CA9D"/>
      <path d="M366.552 289.48c0 .224-4.857 13.855-4.857 13.855l-4.416-13.63s-14.795-.448-14.795-.225 11.702-8.938 0770245A4B" fill="#ffe700"/>
      <path d="M364.498 287.213c0 .13-2.8 7.99-2.8 7.99l-2.547-7.86s-8.53-.26-8.53-.13 6.748-5.154 6.748-5.154-3.18031BE5FAD3" fill="#108c00"/>
    </g>
    <g stroke-width="1pt">
      <path d="M261.425 375.25c0 .258-5.608 15.997-5.608 15.997l-5.1-15.74s-17.08-.515-17.08-.257 13.512-10.32 13.506E191CA9D"/>
      <path d="M260.662 374.45c0 .224-4.857 13.855-4.857 13.855l-4.416-13.63s-14.795-.448-14.795-.225 11.702-8.938 0770245A4B" fill="#ffe700"/>
      <path d="M258.608 372.183c0 .13-2.8 7.99-2.8 7.99l-2.547-7.86s-8.53-.26-8.53-.13 6.748-5.154 6.748-5.154-3.18031BE5FAD3" fill="#108c00"/>
    </g>
    <g stroke-width="1pt">
      <path d="M161.935 290.28c0 .258-5.608 15.997-5.608 15.997l-5.1-15.74s-17.08-.515-17.08-.257 13.512-10.32 13.506E191CA9D"/>
      <path d="M161.172 289.48c0 .224-4.857 13.855-4.857 13.855l-4.416-13.63s-14.795-.448-14.795-.225 11.702-8.938 0770245A4B" fill="#ffe700"/>
      <path d="M159.118 287.213c0 .13-2.8 7.99-2.8 7.99l-2.547-7.86s-8.53-.26-8.53-.13 6.748-5.154 6.748-5.154-3.18031BE5FAD3" fill="#108c00"/>
    </g>
    <g stroke-width="1pt">
      <path d="M198.655 175.85c0 .258-5.608 15.997-5.608 15.997l-5.1-15.74s-17.08-.515-17.08-.257 13.512-10.32 13.506E191CA9D"/>
      <path d="M197.892 175.05c0 .224-4.857 13.855-4.857 13.855l-4.416-13.63s-14.795-.448-14.795-.225 11.702-8.938 0770245A4B" fill="#ffe700"/>
      <path d="M195.838 172.783c0 .13-2.8 7.99-2.8 7.99l-2.547-7.86s-8.53-.26-8.53-.13 6.748-5.154 6.748-5.154-3.18031BE5FAD3" fill="#108c00"/>
    </g>
    <g transform="translate(-250.6 359.43) scale(1.036)">
      <g transform="matrix(.164 -.016 .012 .184 429.84 -215.63)" stroke="#000" stroke-width="2.5" fill="#009200">
        <ellipse rx="30.805" ry="189.82" transform="matrix(1.405 -.006 .008 1 -534.29 263.72)" cy="586.13" cx="680.21"/>
        <ellipse rx="30.805" ry="189.82" transform="matrix(1.486 -.006 .01 1 -547.22 267.05)" cy="586.13" cx="680.21"/>
        <ellipse rx="30.805" ry="189.82" transform="matrix(1.19 -.006 .007 1.105 -364.93 214.1)" cy="586.13" cx="680.21"/>
      </g>
      <g stroke="#000" transform="translate(72.865 -9.797)">
        <path d="M238.34 971.79c29.972-1.665 16.65-16.652 31.637-24.977 14.986-8.326 36.633-3.33 43.293 6.66 6.66 9.90064B66A4D" transform="matrix(.202 .003 -.004 .214 340.86 -247.31)" stroke-width="2.505" fill="#a95600"/>
        <path d="M529.59 405.46c0 39.983 45.562 27.88 46.81 61.25-.724 35.407-76.706 3.466-78.635-61.25 1.93-64.716 7028D3EFA5B" transform="matrix(.148 .002 -.003 .115 340.42 -81.69)" stroke-width="3.853" fill="#ff0"/>
        <path d="M529.59 405.46c0 39.983 45.562 27.88 46.81 61.25-.724 35.407-76.706 3.466-78.635-61.25 1.93-64.716 7028D3EFA5B" transform="matrix(.148 .002 -.003 .115 344.42 -81.638)" stroke-width="3.853" fill="#ff0"/>
        <path d="M529.59 405.46c0 39.983 45.562 27.88 46.81 61.25-.724 35.407-76.706 3.466-78.635-61.25 1.93-64.716 7028D3EFA5B" transform="matrix(.148 .002 -.003 .115 348.71 -81.8)" stroke-width="3.853" fill="#ff0"/>
        <path d="M529.59 405.46c0 39.983 45.562 27.88 46.81 61.25-.724 35.407-76.706 3.466-78.635-61.25 1.93-64.716 7028D3EFA5B" transform="matrix(.148 .002 -.003 .115 352.71 -81.747)" stroke-width="3.853" fill="#ff0"/>
        <ellipse rx="3.534" ry="3.403" transform="matrix(1.095 .016 -.024 1.154 -75.57 4.678)" cy="-41.086" cx="478.38" stroke-width=".399" fill="#a95600"/>
      </g>
      <g transform="rotate(-5.8 688.37 -625.218)" stroke="#000" stroke-width="2.5" fill="#009200">
        <ellipse rx="20.814" ry="24.144" transform="matrix(.166 -.008 .002 .315 369.8 -361.65)" cy="905" cx="427.11"/>
        <ellipse rx="20.814" ry="24.144" transform="matrix(.166 -.008 .002 .315 364.04 -362.7)" cy="905" cx="427.11"/>
        <ellipse rx="20.814" ry="24.144" transform="matrix(.166 -.008 .002 .315 360.64 -370.55)" cy="905" cx="427.11"/>
        <ellipse rx="20.814" ry="24.144" transform="matrix(.16 -.01 .002 .348 369.3 -399.35)" cy="905" cx="427.11"/>
        <ellipse rx="20.814" ry="24.144" transform="matrix(.16 -.008 .002 .326 377.41 -379.07)" cy="905" cx="427.11"/>
        <ellipse rx="20.814" ry="24.144" transform="matrix(.16 -.008 .002 .326 373.22 -382.21)" cy="905" cx="427.11"/>
        <ellipse rx="20.814" ry="24.144" transform="matrix(.16 -.008 .002 .326 367.99 -386.66)" cy="905" cx="427.11"/>
        <ellipse rx="20.814" ry="24.144" transform="matrix(.16 -.008 .002 .326 363.01 -389.54)" cy="905" cx="427.11"/>
      </g>
      <path d="M173.17 346.35s-54.198 64.893-21.252 208.82c33.958 144.59 178.96 189.78 178.96 189.78s26.496-47.423 03DA38EADA" transform="matrix(.177 .032 -.03 .182 461.79 -208.61)" stroke="#000" stroke-width="2.5" fill="#804bff"/>
      <g transform="rotate(4.47 180.984 769.886)" stroke="#000" stroke-width="2.5" fill="#009200">
        <ellipse rx="20.814" ry="24.144" transform="matrix(.166 -.008 .002 .315 369.8 -361.65)" cy="905" cx="427.11"/>
        <ellipse rx="20.814" ry="24.144" transform="matrix(.166 -.008 .002 .315 364.04 -362.7)" cy="905" cx="427.11"/>
        <ellipse rx="20.814" ry="24.144" transform="matrix(.166 -.008 .002 .315 360.64 -370.55)" cy="905" cx="427.11"/>
        <ellipse rx="20.814" ry="24.144" transform="matrix(.16 -.01 .002 .348 369.3 -399.35)" cy="905" cx="427.11"/>
        <ellipse rx="20.814" ry="24.144" transform="matrix(.16 -.008 .002 .326 377.41 -379.07)" cy="905" cx="427.11"/>
        <ellipse rx="20.814" ry="24.144" transform="matrix(.16 -.008 .002 .326 373.22 -382.21)" cy="905" cx="427.11"/>
        <ellipse rx="20.814" ry="24.144" transform="matrix(.16 -.008 .002 .326 367.99 -386.66)" cy="905" cx="427.11"/>
        <ellipse rx="20.814" ry="24.144" transform="matrix(.16 -.008 .002 .326 363.01 -389.54)" cy="905" cx="427.11"/>
      </g>
      <ellipse rx="58.28" ry="186.49" stroke="#000" transform="matrix(.157 -.06 .064 .148 369.61 -145.05)" cy="606.11" cx="624.42" stroke-width="1pt" fill="#c90000"/>
      <g stroke="#000" fill="#009200" transform="rotate(1.025 242.403 -1957.802)">
        <ellipse rx="10.823" ry="12.905" transform="matrix(.395 0 0 .293 445.07 -230.53)" cy="356.75" cx="218.13" stroke-width="1.464"/>
        <ellipse rx="10.823" ry="12.905" transform="matrix(.354 0 0 .293 457.17 -235.92)" cy="356.75" cx="218.13" stroke-width="1.546"/>
        <ellipse rx="10.823" ry="12.905" transform="matrix(.354 0 0 .293 452 -235.92)" cy="356.75" cx="218.13" stroke-width="1.546"/>
        <ellipse rx="10.823" ry="12.905" transform="matrix(.37 0 0 .275 449.48 -233.46)" cy="356.75" cx="218.13" stroke-width="1.56"/>
        <ellipse rx="10.823" ry="12.905" transform="matrix(.37 0 0 .275 448.95 -237.93)" cy="356.75" cx="218.13" stroke-width="1.56"/>
        <ellipse rx="10.823" ry="12.905" transform="matrix(.354 0 0 .293 447.01 -238.85)" cy="356.75" cx="218.13" stroke-width="1.546"/>
        <ellipse rx="10.823" ry="12.905" transform="matrix(.354 0 0 .287 448.08 -241.58)" cy="356.75" cx="218.13" stroke-width="1.562"/>
        <ellipse rx="10.823" ry="12.905" transform="matrix(.395 0 0 .293 432.77 -243.48)" cy="356.75" cx="218.13" stroke-width="1.464"/>
        <ellipse rx="10.823" ry="12.905" transform="matrix(.37 0 0 .275 445.92 -243.48)" cy="356.75" cx="218.13" stroke-width="1.56"/>
        <ellipse rx="10.823" ry="12.905" transform="matrix(.354 0 0 .287 444.16 -246.97)" cy="356.75" cx="218.13" stroke-width="1.562"/>
        <ellipse rx="10.823" ry="12.905" transform="matrix(.354 0 0 .293 436.14 -243.17)" cy="356.75" cx="218.13" stroke-width="1.546"/>
        <ellipse rx="10.823" ry="12.905" transform="matrix(.354 0 0 .287 437.42 -243.88)" cy="356.75" cx="218.13" stroke-width="1.562"/>
        <ellipse rx="10.823" ry="12.905" transform="matrix(.354 0 0 .287 438.99 -247.02)" cy="356.75" cx="218.13" stroke-width="1.562"/>
      </g>
      <g stroke="#000" fill="#009200" transform="matrix(.18 -.005 .004 .185 420.99 -216.8)">
        <ellipse rx="67.438" ry="205.64" transform="matrix(.976 -.308 .363 .874 -245.81 324.4)" cy="564.48" cx="528.68" stroke-width="2.545"/>
        <ellipse rx="13.321" ry="40.796" transform="rotate(-23.382 630.518 660.85)" cy="646.07" cx="528.68" stroke-width="2.5"/>
        <path d="M139.87 643.99c0 57.677-18.755 86.17-34.55 110.32 7.516-32.47 12.904-52.637 12.904-110.31 0-57.677 20B18196A12" transform="matrix(1.883 -.456 .953 1.182 -352.26 -10.02)" stroke-width="1.533"/>
        <path d="M139.87 643.99c0 57.677-18.755 86.17-34.55 110.32 7.516-32.47 12.904-52.637 12.904-110.31 0-57.677 20B18196A12" transform="matrix(1.883 -.456 .953 1.182 -348.42 44.058)" stroke-width="1.533"/>
        <path d="M139.87 643.99c0 57.677-18.755 86.17-34.55 110.32 7.516-32.47 12.904-52.637 12.904-110.31 0-57.677 20B18196A12" transform="matrix(1.873 -.495 .978 1.162 -361.92 105.78)" stroke-width="1.533"/>
        <ellipse rx="13.321" ry="40.796" transform="matrix(1.81 -.4 .7 1.635 -915.63 -221.01)" cy="646.07" cx="528.68" stroke-width="1.389"/>
        <ellipse rx="13.321" ry="40.796" transform="matrix(1.626 -.23 .542 1.353 -739.49 -91.775)" cy="646.07" cx="528.68" stroke-width="1.64"/>
        <ellipse rx="13.321" ry="40.796" transform="matrix(1.63 -.197 .513 1.363 -750.62 -91.826)" cy="646.07" cx="528.68" stroke-width="1.64"/>
        <ellipse rx="13.321" ry="40.796" transform="matrix(1.314 -.2 .47 1.01 -531.06 47.568)" cy="646.07" cx="528.68" stroke-width="2.097"/>
        <ellipse rx="13.321" ry="40.796" transform="matrix(1.326 -.13 .403 1.033 -517.87 12.21)" cy="646.07" cx="528.68" stroke-width="2.097"/>
        <path d="M145.7 569.47c0 34.006-6.712 61.61-14.985 61.61-8.272 0-14.986-27.604-14.986-61.61" transform="matrix(1.025 -.493 .464 1.177 12.767 -14.52)" stroke-width="2.086"/>
        <ellipse rx="13.321" ry="40.796" transform="matrix(1.326 -.13 .403 1.033 -519.53 -34.412)" cy="646.07" cx="528.68" stroke-width="2.097"/>
        <ellipse rx="13.321" ry="40.796" transform="matrix(1.33 -.105 .38 1.04 -533.98 -40.12)" cy="646.07" cx="528.68" stroke-width="2.097"/>
        <path d="M145.7 569.47c0 34.006-6.712 61.61-14.985 61.61-8.272 0-14.986-27.604-14.986-61.61" transform="matrix(.672 -.472 .46 .8 39.486 143.28)" stroke-width="2.88"/>
        <path d="M145.7 569.47c0 34.006-6.712 61.61-14.985 61.61-8.272 0-14.986-27.604-14.986-61.61" transform="matrix(.672 -.472 .46 .8 51.142 125.79)" stroke-width="2.88"/>
        <path d="M145.7 569.47c0 34.006-6.712 61.61-14.985 61.61-8.272 0-14.986-27.604-14.986-61.61" transform="matrix(.937 -.645 .64 1.092 -40.198 -10.744)" stroke-width="2.086"/>
        <path d="M145.7 569.47c0 34.006-6.712 61.61-14.985 61.61-8.272 0-14.986-27.604-14.986-61.61" transform="matrix(.672 -.52 .46 .88 68.626 71.18)" stroke-width="2.742"/>
      </g>
      <g stroke="#000" stroke-width="2.5" fill="#804bff">
        <path d="M276.27 345.41c-12.278 9.174.41 25.144 12.022 30.68 13.06 7.67 86.603 58.184 136.32 11.998-40.795.833-118.66-63.183-148.34-42.678z" transform="matrix(.156 .007 -.004 .225 457.948 -214.274)"/>
        <path d="M276.27 345.41c-12.278 9.174.41 25.144 12.022 30.68 13.06 7.67 86.603 58.184 136.32 11.998-40.795.833-118.66-63.183-148.34-42.678z" transform="matrix(.156 .007 -.004 .225 456.55 -220.15)"/>
        <path d="M276.27 345.41c-12.278 9.174.41 25.144 12.022 30.68 13.06 7.67 86.603 58.184 136.32 11.998-40.795.833-118.66-63.183-148.34-42.678z" transform="matrix(.156 .007 -.004 .225 454.775 -225.77)"/>
        <path d="M276.27 345.41c-12.278 9.174.41 25.144 12.022 30.68 13.06 7.67 86.603 58.184 136.32 11.998-40.795.833-118.66-63.183-148.34-42.678z" transform="matrix(.156 .007 -.004 .225 450.905 -232.203)"/>
      </g>
      <g transform="rotate(1.025 -589.593 681.628)">
        <path d="M211.17 247.3c21.773-12.065 56.618-9.75 79.734 11.165 19.36 16.943 45.307 75.194 70.322 92.834-20.2208266F6A1C" transform="matrix(.21 -.04 .047 .18 407.8 -213.64)" stroke="#000" stroke-width="2.5" fill="#804bff"/>
        <ellipse rx="14.154" ry="14.986" stroke="#000" transform="matrix(.245 0 0 .134 401.82 -215.18)" cy="323.04" cx="287.23" stroke-width="2.5" fill="red"/>
        <ellipse rx="23.254" ry="15.895" stroke="#000" transform="matrix(.194 -.076 .068 .173 398.66 -208.06)" cy="348.26" cx="204.58" stroke-width="2.5" fill="#ff0"/>
        <ellipse rx="5.828" ry="5.828" transform="matrix(.214 0 0 .185 411.29 -233.74)" cy="333.86" cx="283.9"/>
        <path d="M516.8 260.29c4.425 18.107-6.674 43.083-33.133 52.61-26.775 13.172-46.08 41.83-55.64 88.016-47.245-1002815FADE" transform="matrix(.092 0 -.003 .085 417.85 -191.49)" stroke="#000" stroke-width="6.56" fill="#ff0"/>
        <ellipse rx="4.71" ry="4.71" transform="matrix(.187 -.013 .014 .19 418.69 -234.98)" cy="362.39" cx="198.98"/>
      </g>
    </g>
  </g>
</svg>
