<svg xmlns="http://www.w3.org/2000/svg" height="512" width="512" id="flag-icon-css-fj">
  <path d="M0 0v512.078h511.99v-85.197h.012V.084H321.955V0H0z" fill="#68bfe5"/>
  <g stroke-miterlimit="4.8">
    <path d="M310.243 254.06v136.357c0 44.599 80.581 71.08 80.581 71.08s80.582-26.483 80.582-71.08V254.06z" fill="#fff"/>
    <path d="M379.655 301.97v61.396h-69.412v22.34h69.412v71.538l11.17 4.253 11.17-4.253v-71.539h69.41v-22.339h-69.41V301.97z" fill="#d21034"/>
    <path d="M310.243 254.06h161.163v52.657H310.243z" fill="#d21034"/>
    <g stroke-miterlimit="3">
      <g fill="#fff" stroke="#000" stroke-width=".805" transform="translate(-207.55 158.36) scale(.66486)">
        <ellipse ry="10.962" rx="13.623" cy="192.212" cx="798.23" stroke-width=".803"/>
        <ellipse ry="6.123" rx="12.114" cy="186.525" cx="798.23"/>
        <ellipse ry="6.123" rx="12.114" cy="198.769" cx="798.23"/>
        <ellipse ry="6.123" rx="12.114" cy="192.213" cx="798.23"/>
      </g>
      <path d="M467.416 296.272l-1.32-3.64s-3.612-1.474-3.887-3.393c-.643-5.115-2.47-7.033-5.206-7.764-2.742-.73-4.031B282ABF" fill="#ffd100" stroke="#000" stroke-width=".798"/>
      <path d="M318.989 277.566c.003-.004.24-.564.69-.63.349-.053.77.205 1.217.747l.244-.184c-.01-.018-1.206-1.759-0611335A14"/>
      <path d="M397.473 298.66c.067 1.84 1.367 3.549 3.856 5.073l.28-.456c-2.33-1.425-3.54-2.985-3.602-4.636-.092-20F49C2AACB"/>
      <path d="M322.497 275.362c-.162.657-.051 1.302.324 1.917.358.583.71.893 1.078.942.449.062.807-.27 1.123-.562.03B7035A7E"/>
      <path d="M323.261 292.197c-.39.35-.312.876-.307.899.003.144.177 4.034 2.024 4.838l.121-.28c-1.671-.729-1.84-40BF1E67AC2"/>
      <path d="M321.799 292.516c-.817.569-.784 2.192-.783 2.26l.305-.005c0-.017-.03-1.531.652-2.004.255-.176.59-.1807D4254A39"/>
      <g transform="translate(-207.55 158.36) scale(.66486)">
        <path d="M862.33 169.49c.022.038 1.31 2.945 1.31 5.305 0 .419-.198.717-.291 1.081-.052-.135-.5-1.366-.5-1.36601D311BA3D"/>
        <path d="M836.8 167.86c-.017.08-.608 3.119-3.196 4.543-1.947 1.07-4.52.982-7.639-.266l-.351-.14.037.376c.008.035DC78A86"/>
        <path d="M843.45 158.07l-.194.007-2.364 3.24.702.07c12.829 1.248 19.613 8.988 19.679 9.068l.296.344 2.326-2.502D2C5BA4B"/>
        <path d="M841.6 164.84c-1.096 1.495-2.114 3.707-2.114 4.742 0 .198.038.354.122.453.007.01.046.013.059.029-1.30CD712FA5B"/>
        <path d="M839.16 178.65c.9.624 2.166.58 3.692 0 .007.544.129 1.7 1.078 2.538 1.116.988 2.965 1.178 5.5.574l-.0B40890AE0"/>
        <path d="M842.07 174.99c-.656.156-.827.706-.827 1.13 0 .102.011.197.024.279.115 1.182 1.398 1.969 2.563 2.306019AFCDA1A"/>
        <path d="M838.53 178.2c.017.031 1.484 2.9 1.745 3.947.167.665 1.015 1.422 2.027 1.797 1.008.38 1.953.318 2.650380738A62"/>
        <circle r=".27" cy="177.825" cx="848.01"/>
        <path d="M848.75 179.45a.27.27 0 1 1-.539 0c0-.151.123-.275.268-.275.149 0 .271.123.271.275zm-7.1-7.32a.273.20154264A7E"/>
        <circle r=".27" cy="173.22" cx="841.65"/>
        <circle r=".27" cy="172.68" cx="840.09"/>
        <path d="M840.83 174.3a.276.276 0 0 1-.275.271.273.273 0 0 1 0-.546.278.278 0 0 1 .275.275zm4.74-9.55s3.518 20352960A01"/>
        <path d="M858.78 170.86c-.463.348-1.312.64-2.212-.09-.9-.727-1.658-1.715-2.792-1.134-1.138.584-3.293 2.212-3.00FB713A34"/>
        <path d="M856.1 172.34c-1.105-.844-2.212.989-3.143.76-.931-.237-1.69-1.779-1.69-1.779s.877 1.631 2.097 1.252c0837D15AEA"/>
        <path d="M854.37 172.57c-2.183.226-2.399-1.813-2.399-1.834 0 0 .689 1.78 2.619 1.457l-.22.377z"/>
        <path d="M854.3 171.18c.143.552.112.803-.473.803-.588 0-.987-.196-.987-.766 0-.571 1.374-.392 1.46-.037zm-7.802A5D97A10"/>
        <path d="M844.05 165.71s3.74.04 1.888 4.72c0 0 1.425-2.33.531-4.006-.897-1.674-2.305-1.252-2.305-1.252s-.343.317-.114.538z"/>
        <path d="M843.94 167.58c-.01.938.616 1.907 1.856 2.876l.286-.36c-1.123-.876-1.69-1.72-1.682-2.506.007-.786.610241CF3A48"/>
        <path d="M844.77 168.37c.16.539.577.946 1.244 1.212l.17-.425c-.527-.21-.855-.518-.972-.913-.237-.796.403-1.7205AA30EA58"/>
      </g>
      <g fill="#fff" stroke="#000" stroke-width=".36">
        <path d="M318.926 277.124s.155 1.702 1.47 2.712c0 0-.154-1.861.234-2.633 0 0-.696-.774-1.704-.079zm2.627 1.080D0B046AFC" stroke-width=".239"/>
        <path d="M323.88 278.128l1.006 1.549 1.16-.62-.232-1.856s-.695-.157-1.934.927z" stroke-width=".239"/>
        <path d="M328.6 278.44l-1.316 1.085s-.696-.543-1.24-.465l.234-1.704s.929-.696 2.322 1.085zm-9.368 16.024s-.23068C818A31" stroke-width=".239"/>
        <path d="M323.108 292.37s.386-2.09.775-2.167c0 0 1.006.308 1.316-.08l-.077 2.557s.077-1.085-2.014-.31zm-2.247076C2F4A6F" stroke-width=".233"/>
      </g>
    </g>
    <g fill="#00a651" stroke="#000" stroke-width=".78">
      <path d="M351.04 331.224s5.26 4.887 3.885 9.147c0 0 3.382-7.268-.25-9.399-3.636-2.13-3.76-.497-3.636.252z" stroke-width=".519"/>
      <path d="M344.397 335.978s-1.376 1.883.125 3.261c0 0-1.627 2.377-.372 4.385 0 0-1.005 2.13-.753 4.386 0 0-.870FE0256AFA" fill="#964b36" stroke-width=".519"/>
      <path d="M345.9 329.841s-6.265-12.027-10.651-12.531c-4.387-.502-4.636-4.76-4.636-4.76s.5 2.004 4.01 2.004c3.50122A66A8D" stroke-width=".519"/>
      <path d="M345.9 328.964s2.256-15.163 12.157-15.415c9.897-.252 6.642.752 9.02-.878 0 0-6.638 3.511-10.776 4.01088A9BDAD3" stroke-width=".519"/>
      <path d="M348.154 334.608s2.254-6.015 6.14-4.008c0 0-3.01-5.767-8.397-.754 0 0 2.382 3.257 2.256 4.762zm-7.5203BEC19AA8" stroke-width=".519"/>
      <path d="M341.013 330.971s5.891 5.641 6.268 7.52c.376 1.88 1.753-5.638-1.003-7.767-2.757-2.133-5.764-2.508-5.764-2.508l.499 2.755z" stroke-width=".519"/>
      <path d="M330.15 345.751s.533 2.367 1.986 2.825c0 0 .075 1.76 1.374 2.293 0 0-.689 1.452.46 2.368 0 0-.231 2.0700A2BA6B" fill="#964b36" stroke-width=".519"/>
      <path d="M333.048 342.846s-7.716-2.827-11.995 1.223c0 0 6.569.917 7.41 2.216.84 1.297 4.89-2.138 4.585-3.44z" stroke-width=".519"/>
      <path d="M330.681 347.66s-.61-.534-1.374-1.07c-.764-.534-7.257-2.292-8.177 3.973 0 0-2.37-6.188 1.07-7.03 3.401C0724AD3" stroke-width=".519"/>
      <path d="M329.238 340.619s0 1.253.878 1.627c.878.377 2.506 1 2.506.252 0-.751-1.252-3.634-1.756-3.257-.502.377-1.376.372-1.628 1.378z" fill="#964b36" stroke-width=".519"/>
      <path d="M327.736 332.853s-.25-5.763 3.506-7.896c0 0 .754.13 1.13-.998 0 0-3.01 7.265-2.132 10.899l-.124.502" stroke-width=".519"/>
      <path d="M328.487 325.832s6.766-14.037 15.038-9.15c0 0-8.646 1.755-11.778 7.896l-3.134 4.632-.125-3.379z" stroke-width=".519"/>
      <path d="M324.85 330.971s-2.006-9.397-3.258-10.648c-1.254-1.254-3.385-2.632-5.891-.503 0 0 4.387-3.886 9.023-.626 4.635 3.258 3.633 8.396 3.633 8.396l-.5 6.517-3.133-2.883" stroke-width=".519"/>
      <path d="M332.117 342.121s-8.27-15.659-13.657-4.508c0 0-1.006 2.88.122 4.006 0 0-3.008-2.254-1.629-7.767 1.3705FB868A86" stroke-width=".519"/>
      <path d="M364.443 343.75s3.257 1.752 2.133 5.26c0 0 4.383-8.393-1.63-9.146 0 0 1.13 2.633-.503 3.886zm.379-8.0FD440EA1D" stroke-width=".519"/>
      <path d="M368.332 324.828c3.385-6.641 7.645 2.13 7.645 2.13s1.502-6.89-2.756-8.146c-4.263-1.252-7.018 14.66-7.018 14.66l-5.014 1.129s1.38-13.907 8.897-15.162l.876.126" stroke-width=".519"/>
      <path d="M362.315 328.837s-4.76-9.773-8.019-10.775c-3.259-1.002 1.757-2.506 3.761-.627 2.002 1.878 5.761 4.260F22EDFA3A" stroke-width=".519"/>
      <path d="M355.427 346.636s-2.13 4.01-1.63 4.635c0 0-2.254 3.257-1.378 4.887 0 0 2.257 1.754 3.26 1 0 0 2.628-0325882A44" fill="#964b36" stroke-width=".519"/>
      <path d="M344.404 339.475c.141.072 1.406.686 2.258.402l.608-.52-.478-.238c-.312.62-1.69.109-2.15-.12l-.238.470B15F7DA81" fill="#000" stroke="none"/>
    </g>
    <g fill="#964b36" stroke="#000" stroke-width=".279">
      <path d="M431.42 360.624a1.104 1.104 0 0 0-.404.268l.405-.268zm9.216-2.307c-.09-.229-.148-.132-.266-.234-.1680591015A6F"/>
      <path d="M433.887 360.511c.202 0 .386-.046.555.102l.079.154a.173.173 0 0 0 .167.023c.113.077.136.12.26.149.116.025.243-.005.359-.003.146.005.217.055.353.111.238.097.395.005.601-.144.239-.175.326-.041.555.18.171.163.136.148.29.036a1.72 1.72 0 0 1 .077-.149c.077-.031.155-.052.233-.067.128-.06.255-.052.375-.098.127-.05.22-.19.354-.165.115.023.248.117.358.153a.747.747 0 0 1 .24.122c.16-.328.511-.426.736-.584.233-.162.45.034.707.036.137 0 .192-.079.29-.11.108-.04.232.017.337-.026.11-.042.131-.149.253-.162.227-.028.48.341.706.41.127.043.715.175.628-.258-.083-.411-.452-.127-.531-.415-.042-.165.044-.398-.007-.583-.044-.168-.23-.363-.34-.4-.139-.043-.22.102-.338-.011-.097-.09-.134-.428-.219-.562-.114.083-.185.16-.335.13-.172-.042-.155-.1-.282-.263-.278-.347-.438.209-.694.12-.194-.061-.375-.551-.527-.75-.082-.107-.31-.451-.428-.375-.198.13-.018.504-.122.67-.074.116-.337-.002-.432.016-.15.033-.178.072-.287.252-.22.363-.347.652-.688.61-.162-.018-.284-.182-.442-.122-.169.064-.264.245-.449.266a.977.977 0 0 1-.42-.035c-.13-.058-.275-.3-.393-.368a.153.153 0 0 0-.16-.03c-.014-.007-.191-.11-.194-.11-.206-.06-.189-.053-.273.219-.048.168-.067.342-.129.501-.06.134-.191.3-.268.39-.144.155-.213.114-.4.17-.15.048-.35.282-.43-.019-.12-.453.333-1.13-.171-1.012-.132.03-.211.055-.292.25-.089.224-.017.37-.057.615-.053.31-.643.83-.527 1.11.08.197.343-.107.415-.058.12.083.085.28.17.412.179.273.708-.423.738-.046m-2.141-2.709c-.002-.039-.01-.076-.012-.117-.14-.025-.3-.175-.43-.178-.122-.007-.36.291-.444.434-.258.428-.187 1.01-.622 1.002-.106-.003-.355-.075-.449-.01-.163.116-.06.458-.06.69 0 .22.1 0-.017.286-.035.078-.141.103-.17.208-.087.372.223.254.359.25.351-.003.7-.003 1.048 0 .21.004.337-.07.533-.146.13-.044.405-.042.514-.158a2.21 2.21 0 0 0 .184-.406c.028-.144-.027-.317.008-.437.055-.21.243-.13.277-.414.09-.696-.653-.175-.536-.86"/>
    </g>
    <g stroke="#000" stroke-width=".519">
      <path d="M440.164 338.724c0 .901-.617 1.627-1.382 1.627-.756 0-1.378-.726-1.378-1.627 0-.9.622-1.63 1.378-1.60660267ACF"/>
      <path d="M438.036 337.34c0 .902-.617 1.628-1.378 1.628-.762 0-1.378-.726-1.378-1.627 0-.902.616-1.63 1.378-1.63.76 0 1.378.729 1.378 1.63z"/>
      <path d="M435.73 338.83c0 .902-.62 1.632-1.381 1.632-.76 0-1.378-.731-1.378-1.632 0-.9.617-1.628 1.378-1.628.761 0 1.38.728 1.38 1.628z"/>
      <path d="M437.87 340.073c0 .9-.622 1.632-1.38 1.632-.76 0-1.38-.733-1.38-1.632 0-.899.62-1.627 1.38-1.627.758 0 1.38.728 1.38 1.627z"/>
    </g>
    <path d="M438.535 322.302s13.907-19.42 28.82.754c0 0 .125 2.006-1.253 4.135l-.377-1.628-.877.25-.25-1.003-1.603C0CBDA26" fill="#00a651" stroke="#000" stroke-width=".519"/>
    <path d="M436.474 330.473l.395.356c.053-.055 1.292-1.376 3.373.38l.345-.408c-2.488-2.104-4.102-.347-4.113-.32067BEBBAE8"/>
    <path d="M433.216 323.804s.351.777.615 1.356c-.114-.047-.98-.394-.98-.394l2.89 5.115.371-.474c-.291.747-.582 0016DB2A09"/>
    <path d="M331.924 401.061s-2.35-1.067-3.42-.286c-1.068.785-.922 1.923-1.85 1.851 0 0 3.56.784 4.343-.143.783-084CC82A1B" stroke-width=".519" fill="#00a651" stroke="#000"/>
    <path d="M332.31 402.092c0 .062.283 2.27.283 2.27l.38-.05-.286-2.208c.01.003.925-4.854.925-4.854l-.377-.07-.925 4.912z"/>
    <path d="M329.85 401.374l-.126.36c1.293.455 3.099-.967 3.174-1.027l-.24-.297c-.016.01-1.713 1.352-2.808.964zm3.39-2.85l-6.052-3.062.24-.477 6.053 3.062z"/>
    <path d="M328.852 397.836l-.377-.377 1.211-1.21.377.378zm2.118-.588l-1.281-2.779.485-.223 1.281 2.779zm1.792 034E64CADA"/>
    <path d="M360.527 401.879c2.017-1.13 2.422-5.091 2.422-5.091-.483 1.457-4.196 2.909-4.196 2.909 2.744-1.7 6.052-9.364 6.052-9.364-.888 2.745-8.07 5.004-12.673 7.587-4.603 2.581-2.18 10.011-2.18 10.011-1.29-.889-3.794-4.842-4.276-8.317-.488-3.47-1.86-4.84-5.008-5.245-3.15-.404-5.005 3.146-5.005 3.146l-4.681 2.425 4.76.16s3.395 1.132 3.395 3.795c0 2.666-2.987 13.321 1.934 19.296 3.426 4.152 16.067 6.538 16.067 6.538" fill="#fff" stroke="#000" stroke-width=".665"/>
    <path d="M351.245 410.11s.969-4.764 4.117-4.602c3.148.161 4.036-3.55 5.893-4.117 1.856-.564 11.463-3.146 12.513-7.75 0 0-.888 7.59-9.686 11.384 0 0 7.102-2.342 7.911-3.876 0 0-3.15 6.781-10.819 7.83 0 0 7.185-.564 8.235-2.5 0 0-3.23 4.277-8.556 4.844 0 0 4.923 2.017 6.216.321 0 0-2.665 3.148-5.976 3.388l.89.244s-3.148 3.714-6.62 1.21c-3.47-2.503-3.553.649-3.553.649" fill="#fff" stroke="#000" stroke-width=".665"/>
    <path d="M358.412 417.29s4.055 6.783 4.46 10.415c0 0 7.75 8.558 10.656 9.04 0 0-1.373.563-3.877-1.533 0 0 2.1 2.18 2.504 2.26.402.084-1.696-.161-2.02-.728 0 0 .89 1.295 1.453 1.456l-.564-.161s-1.051-.162-1.535-.566c-.485-.403-.162 1.047-.162 1.047s-1.21-.323-1.613-.726c-.404-.402.162.89.162.89l-1.05-.243-.725.483s-.082.485-.569.081c-.481-.4-1.37 0-1.37 0s-.649.567-.97.162c-.32-.403-1.544 1.553-1.544 1.553l-5.083-12.27" fill="#fff" stroke="#000" stroke-width=".665"/>
    <path d="M363.236 439.548l-6.424-12.228.674-.354 6.425 12.228zm5.613-.824l-10.991-12.306.57-.51 10.992 12.306016F681AAD"/>
    <g transform="translate(-207.55 158.36) scale(.66486)">
      <path d="M823.44 360.84s-1.231-2.204-2.303-1.376c-1.069.825-1.685.976-1.87.919 0 0 1.076.059 1.687-.522.613-.0C59296AD1"/>
      <path d="M823.16 360.5s-.918 1.075-2.176.766l-1.252-.306s1.066.06 1.776.093c.7.029 1.618-.337 1.652-.553z"/>
      <path d="M822.86 360.72s-1.132-1.195-1.9-.858c0 0 1.35-.43 2.116.73l-.216.128z"/>
      <path d="M822.67 360.5s-1.286.887-2.699-.09l-.086-.066.183-.059c.001.001 1.778.735 2.602.215z"/>
      <circle r=".383" cy="360.284" cx="821.573"/>
    </g>
    <path d="M339.37 420.448s-.661 1.22-.315 1.954c.35.734 1.922 1.114 2.13 2.092.211.98.736.978 1.469.842.735-.10316E8BAC5"/>
    <g fill="#964b36" stroke="#000" stroke-width=".48">
      <path d="M438.754 395.616s5.597-7.38 10.56-5.441c4.963 1.94 8.188 2.873 8.188 2.873s.094 4.97-2.545 4.97c-2.60E2CE93A4B" stroke-width=".319"/>
      <path d="M417.512 431.2s-1.548 1.624-.85 2.015c.7.386 2.092-.082 2.092-.622 0-.546-.928-1.549-1.242-1.394z" stroke-width=".519"/>
      <path d="M416.275 432.748s-2.866-1.632-5.115 2.245c-2.252 3.876-4.11 10.157-5.428 11.01-1.317.852 12.793-6.200EA7033AB5" stroke-width=".519"/>
      <path d="M416.66 433.214s-2.944.693-3.564 4.878c-.62 4.19-4.73 6.36-4.962 6.513m49.376-51.555s-4.48 1.558-3.706 4.66" stroke-width=".319"/>
    </g>
    <path d="M423.097 402.125s.154-10.622 8.832-10.157c1.644.152.86 2.092.86 2.092s1.877-1.315 2.735.774c0 0 2.737-1.239 3.048 1.476 0 0 2.971-.387 2.58 2.015 0 0 2.032-.464 1.956 1.241 0 0 2.344-.93 2.108 1.473 0 0 2.58-1.706 2.192 1.394 0 0 2.658-1.858 3.592 1.242.938 3.1-2.656 9.69-6.174 11.395" fill="#fff200" stroke="#000" stroke-width=".319"/>
    <path d="M447.211 402.77c.012.083 1.17 8.31-3.495 11.32l.164.259c4.834-3.119 3.645-11.54 3.634-11.624l-.303.00E1420FA37"/>
    <path d="M417.977 414.997s-1.47-9.849 4.42-12.947c0 0 1.089-.233 1.706 1.163 0 0 3.103-1.317 3.181 1.315 0 0 1.549-1.24 1.937.465 0 0 3.334-.696 2.714 1.784 0 0 2.79-.775 2.557 1.626 0 0 2.792-1.007 2.325 1.086 0 0 2.944-.695 2.249 1.707 0 0 3.645-.386 2.56 2.17 0 0 2.713-.696 2.091 1.397 0 0 3.567.622 1.937 2.869-1.627 2.246-5.737 5.657-9.764 7.13" fill="#00a651" stroke="#000" stroke-width=".319"/>
    <path d="M414.8 424.916s-2.405-8.214 2.173-10.311c0 0 .848-.234 1.003.621 0 0 1.01-1.32 1.787-.154 0 0 2.323-1.086 2.869.619 0 0 1.548-1.32 2.325.617 0 0 1.473-.617 1.473.931 0 0 2.015-.853 2.015 1.009 0 0 1.935-.775 1.549 1.317 0 0 2.947.464 2.094 1.86 0 0 2.64.696 1.628 1.784 0 0 2.867-.31 1.317 1.627 0 0 2.171-.695.932 1.71-1.242 2.4-5.116 5.036-7.83 5.346" fill="#00a651" stroke="#000" stroke-width=".319"/>
    <path d="M417.665 431.425s-5.116-4.96-2.71-6.433c0 0 1.081.307 1.47 1.394 0 0 1.24-1.782 1.94.077 0 0 1.862-.02D155AA59" fill="#00a651" stroke="#000" stroke-width=".319"/>
    <path d="M435.21 423.228l.11.284c3.03-1.168 8.296-8.354 8.52-8.66l-.247-.182c-.055.077-5.434 7.422-8.382 8.5503F6F76A9C"/>
    <path d="M424.247 428.899l.179.247c4.493-3.25 5.711-9.49 5.72-9.55l-.297-.058c-.012.06-1.208 6.18-5.602 9.3610A1622FA54"/>
    <path d="M428.33 418.148c-.045.155-1.083 7.724-5.165 10.517l.173.252c4.198-2.872 5.218-10.335 5.26-10.65 1.81094D1C7A45"/>
    <path d="M418.383 431.83l.278.125c1.31-2.852 1.714-4.82 1.719-4.838l-.3-.06c-.005.016-.4 1.956-1.697 4.774z"/>
    <path d="M418.675 431.917l.155.264c2.432-1.413 2.996-3.87 3.016-3.974l-.298-.067c-.007.025-.559 2.435-2.873 3.777z"/>
    <path d="M419.128 432.13l.03.302c2.383-.237 4.006-3.132 4.075-3.254l-.269-.148c-.015.03-1.614 2.877-3.836 3.1z"/>
    <path d="M419.367 432.283l.018.305c3.826-.236 5.548-2.522 5.617-2.619l-.247-.18c-.016.02-1.713 2.27-5.388 2.494z"/>
    <path d="M419.64 432.363l-.063.298c.206.047 5.08 1.08 6.75-1.46l-.256-.167c-1.552 2.365-6.384 1.338-6.432 1.329z"/>
    <path d="M310.243 254.06v136.357c0 44.599 80.581 71.08 80.581 71.08s80.582-26.483 80.582-71.08V254.06z" fill="none" stroke="#000" stroke-width="2.792"/>
  </g>
  <path d="M0 0v209.756h312.477V0H0z" fill="#002868"/>
  <path style="line-height:normal;text-indent:0;text-align:start;text-decoration-line:none;text-decoration-style:solid;text-decoration-color:#000;text-transform:none;block-progression:tb;isolation:auto;mix-blend-mode:normal" d="M0 0v23.452l121.304 81.425L0 186.304v23.452h34.936l121.303-81.425 121.304 81.425h34.934v-23.452l-121.302-81.427 121.302-81.425V0h-34.934L156.24 81.427 34.936 0H0z" color="#000" font-weight="400" font-family="sans-serif" white-space="normal" overflow="visible" fill="#fff"/>
  <path d="M0 0v14.867L169.725 99.73 0 184.592v14.867h29.732l169.725-84.863 169.727 84.863h29.732V184.59L229.191 99.729l169.725-84.862V0h-29.732L199.457 84.861 29.732 0H0z" style="line-height:normal;text-indent:0;text-align:start;text-decoration-line:none;text-decoration-style:solid;text-decoration-color:#000;text-transform:none;block-progression:tb;isolation:auto;mix-blend-mode:normal" color="#000" font-weight="400" font-family="sans-serif" white-space="normal" overflow="visible" fill="#ce1126" transform="scale(.78332 1.05163)"/>
  <path style="line-height:normal;text-indent:0;text-align:start;text-decoration-line:none;text-decoration-style:solid;text-decoration-color:#000;text-transform:none;block-progression:tb;isolation:auto;mix-blend-mode:normal" d="M130.199 0v69.919H0v69.918h130.199v69.92h52.08v-69.92h130.198V69.92H182.278V0h-52.08z" color="#000" font-weight="400" font-family="sans-serif" white-space="normal" overflow="visible" fill="#fff"/>
  <path style="line-height:normal;text-indent:0;text-align:start;text-decoration-line:none;text-decoration-style:solid;text-decoration-color:#000;text-transform:none;block-progression:tb;isolation:auto;mix-blend-mode:normal" d="M140.614 0v83.902H0v41.952h140.614v83.902h31.249v-83.902h140.614V83.902H171.863V0h-31.249z" color="#000" font-weight="400" font-family="sans-serif" white-space="normal" overflow="visible" fill="#ce1126"/>
</svg>
