<svg xmlns="http://www.w3.org/2000/svg" height="512" width="512" id="flag-icon-css-hk">
  <defs>
    <clipPath id="a">
      <path fill-opacity=".67" d="M164.85 0h744.09v744.09H164.85z"/>
    </clipPath>
  </defs>
  <g clip-path="url(#a)" transform="matrix(.7 0 0 .7 -113.43 0)">
    <path fill-rule="evenodd" fill="#ba0000" d="M1063 744.094H0V.004h1063z"/>
    <path d="M516.372 360.137s-75.02-32.3-64.255-116c10.42-40.29 28.828-67.727 62.17-82.66 15.63-4.864 31.607-6.9024BEC9ABC" fill-rule="evenodd" fill="#fff"/>
    <path d="M502.132 239.037v-.347" fill-rule="evenodd" stroke="#000" stroke-width="3.127" fill="#ba0000"/>
    <path d="M506.872 351.447c-29.18-25.82-26.63-90.76-4.4-112.41" stroke="#ba0000" stroke-width="3.127" fill="none"/>
    <path fill-rule="evenodd" fill="#ba0000" d="M501.898 223.064l9.61-2.165 1.144-9.37 4.78 8.03 9.608-2.18-6.657 7.127 4.794 8.02-8.894-3.622-6.646 7.136 1.16-9.365"/>
    <path d="M522.747 354.6s8.9-81.194 92.08-95.426c41.576-1.843 73.203 7.717 97.25 35.22 9.23 13.518 15.905 28.10F801DDA9C" fill-rule="evenodd" fill="#fff"/>
    <path d="M634.36 305.5l.33-.103" fill-rule="evenodd" stroke="#000" stroke-width="3.127" fill="#ba0000"/>
    <path d="M528.272 342.97c16.137-35.466 78.974-52.056 106.187-37.146" stroke="#ba0000" stroke-width="3.127" fill="none"/>
    <path fill-rule="evenodd" fill="#ba0000" d="M649.563 300.594l4.886 8.556 9.29-1.652-6.275 6.923 4.9 8.548-8.765-4.276-6.264 6.933.857-9.565-8.77-4.263 9.295-1.635"/>
    <path d="M528.353 360.463s79.814-17.346 119.728 57.006c14.95 38.836 15.93 71.86-2.51 103.4-9.887 13.043-21.6703B94D7A44" fill-rule="evenodd" fill="#fff"/>
    <path d="M610.357 450.702l.202.282" fill-rule="evenodd" stroke="#000" stroke-width="3.127" fill="#ba0000"/>
    <path d="M541.134 362.008c38.754 4.038 74.442 58.352 68.946 88.892" stroke="#ba0000" stroke-width="3.127" fill="none"/>
    <path fill-rule="evenodd" fill="#ba0000" d="M619.836 463.56l-6.56 7.35 4.517 8.286-8.557-3.752-6.55 7.36 1.272-9.668-8.564-3.738 9.343-2.225 1.256-9.67 4.502 8.295"/>
    <path d="M526.556 368.693s39.062 71.732-21.09 130.92c-33.075 25.256-64.496 35.47-99.943 26.628-15.297-5.825-20FFC198ACD" fill-rule="evenodd" fill="#fff"/>
    <path d="M462.977 472.74l-.214.273" fill-rule="evenodd" stroke="#000" stroke-width="3.127" fill="#ba0000"/>
    <path d="M528.662 381.395c7.008 38.327-35.098 87.833-65.952 91.135" stroke="#ba0000" stroke-width="3.127" fill="none"/>
    <path fill-rule="evenodd" fill="#ba0000" d="M453.298 485.45l-8.896-4.234-6.684 6.662 1.197-9.266-8.903-4.22 9.637-1.494 1.18-9.27 4.76 8.343 9.634-1.508-6.697 6.65"/>
    <g>
      <path d="M517.706 367.138s-54.677 60.677-130.488 23.61c-34.81-22.806-54.885-49.048-58.323-85.42.412-16.362 3.06D29F6A14" fill-rule="evenodd" fill="#fff"/>
      <path d="M398.446 341.743l-.328-.112" fill-rule="evenodd" stroke="#000" stroke-width="3.127" fill="#ba0000"/>
      <path d="M506.426 373.345c-33.82 19.345-94.504-3.92-107.87-31.924" stroke="#ba0000" stroke-width="3.127" fill="none"/>
      <path fill-rule="evenodd" fill="#ba0000" d="M383.244 336.836l1.036-9.797-8.505-4.092 9.138-1.95 1.02-9.798 4.613 8.593 9.135-1.965-6.286 7.26 4.625 8.585-8.5-4.107"/>
    </g>
  </g>
</svg>
