<svg xmlns="http://www.w3.org/2000/svg" height="512" width="512" id="flag-icon-css-kg">
  <defs>
    <clipPath id="a">
      <path fill-opacity=".67" d="M104.06 0h416.25v416.25H104.06z"/>
    </clipPath>
  </defs>
  <g clip-path="url(#a)" fill-rule="evenodd" transform="translate(-128) scale(1.23)">
    <path fill="#be0027" d="M0 0h625v416.25H0z"/>
    <path d="M189.795 212.303c11.104-13.504 34.105-.324 52.88-10.048-22.241 1.223-34.364-10.674-51.936-9.006 18.20D356D1A80" fill="#ff0"/>
    <path d="M393.427 208.211c0 44.552-36.115 80.666-80.665 80.666-44.551 0-80.666-36.116-80.666-80.666s36.116-80.665 80.666-80.665 80.665 36.116 80.665 80.665z" fill="#ff0"/>
    <path d="M383.049 208.37c0 38.732-31.399 70.13-70.13 70.13-38.733 0-70.13-31.4-70.13-70.13 0-38.733 31.398-70.13 70.13-70.13s70.13 31.398 70.13 70.13z" fill="#be0027"/>
    <path d="M373.3 208.527c0 33.261-26.964 60.224-60.224 60.224-33.262 0-60.224-26.963-60.224-60.224 0-33.261 2602D31AFA22" fill="#ff0"/>
    <path d="M261.815 169.063c16.667-.367 37.424 1.153 51.104 12.108 14.519-9.068 31.71-13.261 49.218-11.636l8.960AC4C48A20" fill="#be0027"/>
  </g>
</svg>
