<svg xmlns="http://www.w3.org/2000/svg" height="512" width="512" id="flag-icon-css-ki">
  <defs>
    <clipPath id="a">
      <path fill-opacity=".67" d="M161.78 5.753h491.68v491.68H161.78z"/>
    </clipPath>
  </defs>
  <g clip-path="url(#a)" transform="translate(-168.47 -5.991) scale(1.0413)">
    <path fill-rule="evenodd" fill="#e73e2d" d="M4.023 5.753h802.62v294.33H4.023z"/>
    <path d="M357.969 276.643c-18.664-14.57-53.425-9.642-59.15-49.249 26.616 20.617 21.784-1.178 61.537 18.466l-2.387 30.783z" fill-rule="evenodd" stroke="#d8aa3f" stroke-width="1.599" fill="#fec74a"/>
    <path d="M362.933 258.643c-13.302-19.589-47.902-25.547-41.218-65.003 19.02 27.78 21.098 5.552 52.921 36.43l-11.703 28.573z" fill-rule="evenodd" stroke="#d8aa3f" stroke-width="1.599" fill="#fec74a"/>
    <path d="M368.987 245.845c-4.802-23.186-34.496-41.92-13.234-75.824 6.954 32.941 17.373 13.197 34.973 53.896l-21.739 21.928z" fill-rule="evenodd" stroke="#d8aa3f" stroke-width="1.599" fill="#fec74a"/>
    <path d="M382.935 233.945c2.548-23.542-19.96-50.488 10.684-76.228-3.495 33.487 12.482 17.894 16.738 62.032l-27.422 14.196z" fill-rule="evenodd" stroke="#d8aa3f" stroke-width="1.599" fill="#fec74a"/>
    <path d="M395.348 224.39c11.963-20.434 2.458-54.233 40.954-65.171-16.898 29.12 4.063 21.435-10.125 63.447l-30.83 1.725z" fill-rule="evenodd" stroke="#d8aa3f" stroke-width="1.599" fill="#fec74a"/>
    <path d="M413.472 226.904c17.822-15.59 19.52-50.658 59.498-48.832-25.256 22.264-2.94 21.618-29.712 56.967l-29.786-8.135z" fill-rule="evenodd" stroke="#d8aa3f" stroke-width="1.599" fill="#fec74a"/>
    <path d="M429.357 236.085c21.613-9.672 33.529-42.697 71.208-29.217-30.677 13.87-9.156 19.802-45.122 45.736l-26.086-16.52z" fill-rule="evenodd" stroke="#d8aa3f" stroke-width="1.599" fill="#fec74a"/>
    <path d="M442.632 250.571c23.461-3.198 44.191-31.534 76.555-7.993-33.343 4.675-14.36 16.425-56.173 31.187l-20.382-23.194z" fill-rule="evenodd" stroke="#d8aa3f" stroke-width="1.599" fill="#fec74a"/>
    <path d="M526.207 255.065l-107.62 2.362 4.519 28.996 103.1-31.358z" fill-rule="evenodd" stroke="#d8aa3f" stroke-width="1.599" fill="#fec74a"/>
    <path d="M510.382 215.489l-99.722 38.278 16.696 32.048 83.026-70.326z" fill-rule="evenodd" stroke="#d8aa3f" stroke-width="1.599" fill="#fec74a"/>
    <path d="M431.215 275.257l51.591-93.666-79.136 73.658 27.545 20.008z" fill-rule="evenodd" stroke="#d8aa3f" stroke-width="1.599" fill="#fec74a"/>
    <path d="M381.86 573.24l-13.513-82.602-15.405 82.535 28.918.067z" fill-rule="evenodd" transform="matrix(1.2145 .40191 -.39943 1.207 195.37 -577.79)" stroke="#d8aa3f" stroke-width="1.254" fill="#fec74a"/>
    <path d="M423.95 259.003l-17.32-105.871-19.195 106.334 36.515-.463z" fill-rule="evenodd" stroke="#d8aa3f" stroke-width="1.599" fill="#fec74a"/>
    <path d="M378.51 569.67l-10.159-79.033-17.918 83.552 28.077-4.519z" fill-rule="evenodd" transform="matrix(1.1791 -.4886 .48383 1.1816 -306.93 -238.21)" stroke="#d8aa3f" stroke-width="1.253" fill="#fec74a"/>
    <path d="M407.21 249.288l-77.884-65.762 55.379 94.114 22.504-28.352z" fill-rule="evenodd" stroke="#d8aa3f" stroke-width="1.599" fill="#fec74a"/>
    <path d="M301.936 215.962L385.549 285l12.856-36.114-96.47-32.924z" fill-rule="evenodd" stroke="#d8aa3f" stroke-width="1.599" fill="#fec74a"/>
    <path d="M384.658 256.275l-98.247-1.38 97.835 32.66.412-31.28z" fill-rule="evenodd" stroke="#d8aa3f" stroke-width="1.599" fill="#fec74a"/>
    <path d="M464.426 273.939c0 32.552-26.389 58.941-58.941 58.941s-58.942-26.389-58.942-58.941 26.39-58.942 58.942-58.942 58.941 26.39 58.941 58.942z" fill-rule="evenodd" stroke="#d8aa3f" stroke-width="1.599" fill="#fec74a"/>
    <path fill-rule="evenodd" fill="#005989" d="M3.215 297.11h806.58v200.33H3.215z"/>
    <path d="M2.755 441.711c14.997 6.941 36.483 24.314 59.464 24.299 38.453-.25 39.477-26.336 78.428-25.096 39.0509450C1A45" fill-rule="evenodd" fill="#fff"/>
    <path d="M2.754 302.391c14.984 6.941 36.45 24.314 59.41 24.299 38.416-.25 39.439-26.336 78.354-25.096 39.016.04482CFA24" fill-rule="evenodd" fill="#fff"/>
    <path d="M293.164 78.674c58.625-4.014 47.94-9.02 71.536-12.786 29.735 4.088 33.135 22.09 49.703 33.135 0 0-6.0655DBBA5E" fill-rule="evenodd" stroke="#d8aa3f" stroke-width="1.706" fill="#ffc84b"/>
    <path stroke-linejoin="round" d="M329.685 109.516c7.361-3.765 11.022-2.228 17.399-2.477 4.389 7.95 8.53 8.695 18.135 9.69 14.657 20.607DAE1AA96" fill-rule="evenodd" stroke="#d8aa3f" stroke-width="1.599" fill="#ffc84b"/>
    <path d="M358.735 100.737a3.048 3.048 0 1 1-6.096 0 3.048 3.048 0 0 1 6.096 0z" fill-rule="evenodd" stroke="#d8aa3f" stroke-width="1.599" fill="#ffc84b"/>
    <path d="M378.385 109.273c43.143-52.003 80.82-45.628 129.928-49.188 1.656 6.046 1.077 15.072-22.358 23.104-32025256BA7F" fill-rule="evenodd" stroke="#d8aa3f" stroke-width="1.706" fill="#ffc84b"/>
    <path d="M467.02 75.387l31.82 1.379m-35.273 3.814l23.193 1.892" stroke="#d9a43e" stroke-linecap="round" stroke-width="1.706" fill="none"/>
  </g>
</svg>
