<svg xmlns="http://www.w3.org/2000/svg" height="512" width="512" id="flag-icon-css-ls">
  <path d="M0 0h512v512H0z" fill="#fff"/>
  <path d="M0 358.4h512V512H0z" fill="#009543"/>
  <path d="M0 0h512v153.6H0z" fill="#00209f"/>
  <path d="M257.597 163.104c-2.918.064-5.765 3.294-5.765 3.294l.253 34.533-10.903 11.421h8.824l-.074 19.8-52.20064DAB5A68" stroke="#000" stroke-width="1.708"/>
  <path d="M275.8 245.777h-36.1s-13.105-27.609-10.98-46.91c2.163-19.653 13.394-28.95 28.328-29.115 17.655-.196 009B04DA3C" fill="none" stroke="#000" stroke-width="8.534"/>
  <path d="M194.491 311.586c-.59.785-4.918 9.441-4.918 9.441l7.475-1.573-2.557-7.868zm4.328 11.213l-7.867 2.5570451801A1F" fill="#fff"/>
</svg>
