<svg xmlns="http://www.w3.org/2000/svg" height="512" width="512" id="flag-icon-css-me">
  <path fill="#d3ae3b" d="M0 0h512v512H0z"/>
  <path fill="#c40308" d="M25.6 25.6h460.8v460.8H25.6z"/>
  <path d="M367.424 251.84c2.998-.846 13.424-3.893 20.77-9.853 7.345-5.961 8.779-10.737 9.372-13.317.59-2.579.803AAFE2A98" fill="#b96b29"/>
  <path d="M299.952 253.6c0-10.856 4.995-17.722 4.995-17.722l-13.589-15.568c-12.942 5.004-24.8 5.308-35.356-.060938376A9A" fill="#d4af3a"/>
  <path d="M295.68 258.08c-1.704-10.37 4.274-19.502 4.274-19.502l-11.634-13.602c-8.963 5.035-21.437 4.358-32.27000E9C5A7B" fill="#b96b29"/>
  <path d="M294.56 259.312c-1.685-11.197 3.366-20.216 3.366-20.216l-10.5-11.693c-8.876 4.559-19.663 3.381-31.410BF6F9FA06" fill="#1d5e91"/>
  <path d="M215.072 297.152c2 5.714 6.122 11.5 12.397 15.278 8.72 5.252 12.486 4.559 20.71 9.91 8.226 5.35 7.730906C14AB0" fill="#6d8c3e"/>
  <path d="M222.208 253.008c.936.984 1.627 1.283 3.056 1.136 1.43-.152 1.774.888 2.02 2.02.247 1.135.247 3.796 0513FA6AE1" fill="#d4af3a"/>
  <path d="M252.512 239.104c.363-.23 1.022-.494 1.022-.494s.824-.197 1.581-.298c.757-.1.626-.528.46-.888-.164-.366-.46-.496-1.445-.496-.99 0-1.618.496-2.176.723-.562.232-1.22.397-1.22.397s.133.165.495.693c.352.56.912.624 1.264.384zm4.032 4c.395 0 .824-.232.824-.232s.722-.363 1.384-.592c.658-.232.922-.331 1.315-1.122.395-.79-.429-.79-1.579-1.084-1.154-.301-1.714.096-1.843.524-.135.43-.101.922-.562 1.748-.464.816.064.752.464.752zm-.368 1.008c-1.118 0-2.37 1.68-2.832 1.976-.462.296-.198.592-.198.592s.33.693.459 1.35c.134.661.166 1.781.166 1.781s.165.067.823.067c.66 0 1.054-.33 1.681-.792.627-.46 1.12-.627 2.01-.792.891-.163 1.317-.328 2.304-.854.99-.526-.527-1.45-1.58-2.306-1.055-.816-1.711-.992-2.831-.992zm-14.896 3.872c.886-.1 1.282-.54 1.282-1.034 0-.492-.448-1.035-1.578-.936-2.776.247-5.467-.748-5.963-3.499 0 0-.936 1.722.789 3.647 1.744 1.92 4.592 1.92 5.488 1.824zm-9.456 43.712c.14.245.314.397.49.488h4.252c.725-.203.73-.87.765-1.331.042-.549.463-2.107 1.051-4.935.59-2.824 1.599-4.844 2.018-5.984.42-1.139-.42-1.516-.715-2.235-.295-.715-.757-1.979-.883-2.611-.127-.634-1.135-.549-1.682-.507-.547.041-.632.928-.715 1.771-.083.84-.463 3.33-.882 5.48-.42 2.15-2.859 5.018-3.531 5.648-.674.634-1.22.886-1.682.886-.462 0-1.47 0-1.976.296-.502.296-1.006 1.098-1.05 1.727-.04.633.969.971.969.971s.798-.464 1.093-.843c.294-.38.966-.464 1.638-.589.672-.126.757.125.504.46-.256.32-.176.4.336 1.297zm-6.512-.224c-.322.114-.557.434-.702.7h2.779c-.034-.228-.109-.498-.269-.7-.336-.416-1.232-.208-1.808 0z" fill="#d4af3a"/>
  <path d="M229.088 291.392c-.34.184-.749.485-.957.782h2.992c.106-.278.14-.65-.227-.95-.672-.56-1.344-.096-1.80027A7E7A16" fill="#d4af3a"/>
  <path d="M269.088 277.728c.9-.653.758-.834.792-1.522.035-.69.035-.905-.325-1.158-.361-.256-1.696-.834-2.96-.808B815EAD1" fill="#d4af3a"/>
  <path d="M259.984 263.92c.554.9.278 1.07-.517 1.242-.792.172-1.653.31-2.897.208-1.24-.104-1.208.068-1.24.69-.04990A7A94" fill="#d4af3a"/>
  <path d="M274.48 291.632c-.262.17-.437.371-.554.547h2.608a1.017 1.017 0 0 0-.256-.755c-.384-.48-1.152-.208-1.0C106A6A6B" fill="#d4af3a"/>
  <ellipse rx="1.563" ry="1.539" cy="241.024" cx="248.064" fill="#b96b29"/>
  <path d="M281.632 243.648c-2.069-.182-4.778.366-4.778.366s.504.415 1.194.368c.688-.046 1.93-.092 3.949.274 2.0E727FBA0D" fill="#b96b29"/>
  <path d="M261.984 282.208c-.506-.797-.651-.723-1.232-.216-.578.506-1.16-1.234-1.232-2.318-.072-1.084.434-4.41018346EA98" fill="#1d5e91"/>
  <path d="M230.64 351.632c1.166.389 3.346-.466 4.435-1.789 1.088-1.323 1.479-3.349 2.256-4.513.778-1.168 1.3430BD2BD8A00" fill="#d4af3a"/>
  <path d="M230.496 364.816c1.507-1.326 2.283-2.058 2.283-2.058s1.096-.912.823.824c-.276 1.735-.87 5.298-.503 60AFF71FACC" fill="#d4af3a"/>
  <path d="M255.312 405.968c.133 1.034.045 3.646.674 3.646.628 0 .537-2.614.673-3.646.133-1.034.178-3.512.178-3.512h-1.707c.016-.016.064 2.464.192 3.504z" fill="#b96b29"/>
  <path d="M255.968 161.392c-6.026.102-13.094-.73-16.984-2.178-1.382.306-2.765.61-4.147.914 6.411 2.414 11.768 0B4CCDCA14" fill="#d4af3a"/>
  <path d="M270.832 158.997c-4.254-.504-6.955-1.055-14.832-.984-7.875.069-10.574.48-14.832.984 2.68 1.075 7.01409D0B16AFD" fill="#d4af3a"/>
  <path d="M256.128 112.051c2.594 0 4.795-1.526 5.576-3.641h-11.155c.784 2.116 2.992 3.641 5.584 3.641zm2.4-10.00D75CDA27" fill="#1d5e91"/>
  <path d="M259.472 149.3c-1.1-.52-3.5-1.546-3.5-1.546s-2.282 1.124-3.522 1.747c-1.24.62-1.08.44-1.461 1.344-.301A4FE4AF8" fill="#b96b29"/>
  <path fill="#d4af3a" d="M259.856 150.443l-3.888-1.82-3.744 1.82 3.84 1.955zm-3.888-15.006s-.323 1.355-.757 1.93c-.433.575-.70830736AC3"/>
  <circle cy="141.696" cx="256" r=".722" fill="#d4af3a"/>
  <path d="M253.424 137.984s1.248-1.386 1.709-2.264c.462-.877.838-1.662.838-1.662s.375.785.837 1.662c.462.877 1010BF61AA4" fill="#d4af3a"/>
  <ellipse rx="3.03" ry="2.925" cy="130.41" cx="255.968" fill="#b96b29"/>
  <ellipse rx="2.915" ry="2.814" cy="123.552" cx="255.968" fill="#b96b29"/>
  <ellipse rx="2.781" ry="2.683" cy="116.994" cx="255.968" fill="#b96b29"/>
  <ellipse rx="1.606" ry="1.549" cy="129.885" cx="255.968" fill="#d4af3a"/>
  <ellipse rx="1.546" ry="1.49" cy="123.048" cx="255.968" fill="#d4af3a"/>
  <ellipse rx="1.355" ry="1.307" cy="116.512" cx="255.968" fill="#d4af3a"/>
  <path d="M255.888 358.464c.187.038.224-.443.26-1.336.036-.89.151-3.04.37-4.3.223-1.263-.334-1.188-.668-1.113-0E1EFE5AA5" fill="#b96b29"/>
  <path d="M224.448 383.056c1.346-.854 2.514-1.802 5.565-3.827 3.051-2.027 4.173-4.277 4.173-4.277h-1.077c-.584037EDB1A95" fill="#d4af3a"/>
  <path d="M241.872 381.12c-1.78-.187-2.843-.86-3.187-2.792-.226-1.26.091-6.077.091-6.077s-.584.495-1.258 1.307019951DA09" fill="#d4af3a"/>
  <path d="M250.704 384.032s-1.347-1.707-1.84-3.646c-.494-1.935-1.435-5.76-1.435-5.76s-.45 1.216-1.527 3.507c-10BEA450AD8" fill="#d4af3a"/>
  <path d="M253.312 397.504c1.66-2.475 1.931-8.504 1.931-8.504s-.582-.405-1.392-1.083c-.806-.675-2.377-3.06-2.30930E06A22" fill="#d4af3a"/>
  <path d="M233.568 347.024c.883-1.805 1.882-3.994 2.688-5.104a15.91 15.91 0 0 0 1.38-2.382s-2.15 1.958-2.994 30E3D10EAD9" fill="#b96b29"/>
  <path d="M207.984 181.248c-1.357-.797-5.005-2.357-8.89-2.686-3.881-.328-6.883.256-10.105 1.126-2.309.624-4.180A08C5EA5E" fill="#c52126"/>
  <path d="M192.32 338.656s-.534-.053-1.283-.162c-.749-.107-2.354-.643-2.835-.859-.482-.213-1.23-.267-1.712.2690F0947FA8B" fill="#d4af3a"/>
  <path d="M210.544 337.552v-.646l-.862-1.858s-1.007.632-1.988 1.646c-1.262 1.31-2.62 3.152-3.227 3.93-1.078 1.0CCEA2CA16" fill="#d4af3a"/>
  <path d="M229.968 322.096c-.307-.138-.624-.28-.944-.429a1.117 1.117 0 0 0-.234.083c-.596.3-3.699 2.388-4.952 04D8D08AD7" fill="#d4af3a"/>
  <path d="M209.632 257.472c-1.84-.093-4.229-1.102-6.067-3.773-1.837-2.67-4.597-3.317-9.378-3.225-4.78.092-6.980B7F793A1D" fill="#d4af3a"/>
  <ellipse rx="1.907" ry="1.747" cy="169.2" cx="206.944" fill="#d4af3a"/>
  <path d="M202.928 165.904c1.74-.042 2.677-.866 4.598-.68 2.268.22 5.34 1.542 9.07 3.523 2.918 1.319 6.769 1.9007C8A7AFA" fill="#d4af3a"/>
  <path d="M227.2 214.464s-1.155 2.555-1.786 3.466c-.63.91-.91 1.052-.91 1.052s1.155.98 2.837 1.504c1.681.527 30AA84F1A6E" fill="#d4af3a"/>
  <path d="M240 199.424c-1.702-1.957-1.872-2.426-1.872-2.426s-.595.596-.086 1.448c.51.85 2.936 2.976 4.595 3.9106EE631AFD" fill="#b96b29"/>
  <path fill="#d4af3a" d="M232.288 150.898l-2.72 2.17 3.36 1.473 3.6-2.557z"/>
  <ellipse rx="3.434" ry="3.31" cy="151.546" cx="244.448" fill="#b96b29"/>
  <ellipse cx="244.448" rx="2.072" cy="150.845" ry="1.979" fill="#d4af3a"/>
  <path d="M237.28 140.173c.883.328 2.032.184 2.032.184s.347-1.523-.493-2.266c-.84-.739-1.6-1.273-2.093-1.768-.011960AACB" fill="#d4af3a"/>
  <ellipse cx="239.104" rx=".63" cy="141.84" ry=".597" fill="#d4af3a"/>
  <path d="M234.416 141.2c-.267.371-.84.966-.84.966s.698.021 1.272.432c.574.413 1.314.762 1.99.68.677-.084.965-04A73E7A09" fill="#d4af3a"/>
  <path d="M236.816 145.21c-2.157.193-5.006-2.19-5.006-2.19-.266 1.914-1.45 2.908-3.264 3.271l.166.085s1.686.860D3E2EDA67" fill="#d4af3a"/>
  <ellipse cx="222.544" rx=".746" cy="144.066" ry=".538" fill="#d4af3a"/>
  <path d="M224.608 135.784c-.598-2.838-.498-5.926 2.192-9.86 2.691-3.937 7.371-5.53 7.371-5.53s.149-.3 1.643-10DF1CF7A2F" fill="#d4af3a"/>
  <path d="M233.184 117.61c.509-.413.598-1.045.194-1.407-.4-.363-1.138-.32-1.647.096-.507.416-.597 1.048-.193 10E86C38A7C" fill="#d4af3a"/>
  <ellipse cx="218.784" rx="1.394" cy="131.374" ry="1.37" fill="#d4af3a"/>
  <path d="M248.864 112.027c-.723.159-2.06.594-4.062 1.642h.036c1.392 0 2.474.89 2.474 2.041 0 1.154-1.266 2.4008FE476A7B" fill="#d4af3a"/>
  <path d="M244.464 116.757c.784 0 1.498-.706 1.498-1.352 0-.648-.61-1.147-1.396-1.147-.784 0-1.42.526-1.42 1.10C17E80A91" fill="#d4af3a"/>
  <path d="M254.48 143.998c-.386.596-.67.957-1.858 1.008-1.187.052-2.475-.025-3.25-.801-.774-.775-1.314-1.863-10370709A2B" fill="#d4af3a"/>
  <path d="M241.536 142.557c1.277.709 1.982.277 2.446-.295.468-.57.552-.828.552-.828s-1.206-.434-1.792-.78c-.580066FDEA2C" fill="#d4af3a"/>
  <ellipse cx="235.376" rx="2.84" cy="129.984" ry="2.814" fill="#b96b29"/>
  <path d="M240.304 120.23c-1.136-.764-2.805-.459-3.73.682-.921 1.144-.747 2.693.392 3.456 1.136.766 2.808.46 3.732-.682.921-1.139.745-2.688-.394-3.456z" fill="#b96b29"/>
  <ellipse cx="235.264" rx="1.65" cy="129.619" ry="1.573" fill="#d4af3a"/>
  <path d="M239.12 120.54c-.731-.2-1.635.16-2.016.804-.38.645.022 1.331.997 1.53 1.793.366 2.648-1.887 1.019-2.03AFC8AA7F" fill="#d4af3a"/>
  <path d="M155.712 373.328c.534-.808 1.018-1.02 2.3-1.61 1.284-.588 3.638-.912 4.44-.966.802-.054 2.622-1.61 207445A7A19" fill="#d4af3a"/>
  <path d="M169.824 386.144c-.55-.093-.78-.14-1.056.226-.274.37-.504 1.06-.642 1.425-.137.368-.092.691.23.967s.060499AAA8" fill="#d4af3a"/>
  <path d="M378.592 345.776c-1.342-.318-1.912-.829-1.912-.829s-.574-.064-1.026.767c-.441.827-2.166 1.912-2.166 0928465A74" fill="#1d5e91"/>
  <path d="M348.08 336.512c1.66.382 15.315 2.998 16.464 3.254 1.15.253 2.106.51 2.426.19.321-.318.51-.51 1.723-0CADA90A05" fill="#d4af3a"/>
  <path d="M384.32 344.816c-1.408-.92-2.443-1.163-3.176.55-.734 1.714-.794 4.224-2.627 5.997-1.834 1.775-4.4 3.08B7113A46" fill="#d4af3a"/>
  <circle cy="331.92" cx="350.832" r="2.49" fill="#b96b29"/>
  <circle cy="333.648" cx="357.84" r="2.552" fill="#b96b29"/>
  <circle cy="337.984" cx="378.272" r="2.554" fill="#b96b29"/>
  <circle cy="335.312" cx="364.864" r="2.554" fill="#b96b29"/>
  <circle cy="329.184" cx="366.72" r="2.554" fill="#b96b29"/>
  <circle cy="323.056" cx="368.512" r="2.554" fill="#b96b29"/>
  <circle cy="331.68" cx="351.008" r="1.243" fill="#d4af3a"/>
  <circle cy="333.392" cx="358.032" r="1.277" fill="#d4af3a"/>
  <circle cy="337.728" cx="378.464" r="1.275" fill="#d4af3a"/>
  <circle cy="335.056" cx="365.056" r="1.275" fill="#d4af3a"/>
  <circle cy="328.928" cx="366.912" r="1.275" fill="#d4af3a"/>
  <circle cy="322.8" cx="368.704" r="1.277" fill="#d4af3a"/>
  <path d="M287.497 383.056c-1.346-.854-2.514-1.802-5.565-3.827-3.05-2.027-4.173-4.277-4.173-4.277h1.077c.584 00061554AC2" fill="#d4af3a"/>
  <path d="M270.073 381.12c1.78-.187 2.843-.86 3.187-2.792.226-1.26-.09-6.077-.09-6.077s.583.495 1.257 1.307c.6067E614A0D" fill="#d4af3a"/>
  <path d="M261.241 384.032s1.347-1.707 1.84-3.646c.494-1.935 1.435-5.76 1.435-5.76s.45 1.216 1.527 3.507c1.0780FF3153A97" fill="#d4af3a"/>
  <path d="M258.633 397.504c-1.66-2.475-1.931-8.504-1.931-8.504s.582-.405 1.392-1.083c.806-.675 2.377-3.06 2.3700CD547ACB" fill="#d4af3a"/>
  <path d="M278.377 347.024c-.883-1.805-1.882-3.994-2.688-5.104a15.91 15.91 0 0 1-1.38-2.382s2.15 1.958 2.994 300DCABFA53" fill="#b96b29"/>
  <path d="M303.961 181.248c1.357-.797 5.005-2.357 8.89-2.686 3.881-.328 6.883.256 10.105 1.126 2.31.624 4.18.701AA71AAF8" fill="#c52126"/>
  <path d="M319.625 338.656s.534-.053 1.283-.162c.75-.107 2.354-.643 2.835-.859.482-.213 1.23-.267 1.712.269.4803E8382A1E" fill="#d4af3a"/>
  <path d="M301.401 337.552v-.646l.862-1.858s1.007.632 1.988 1.646c1.262 1.31 2.62 3.152 3.227 3.93 1.078 1.38 004FB76A3A" fill="#d4af3a"/>
  <path d="M281.977 322.096c.307-.138.624-.28.944-.429.085.023.163.047.234.083.596.3 3.699 2.388 4.952 4.418 1.0F1A2B2A5C" fill="#d4af3a"/>
  <path d="M302.313 257.472c1.84-.093 4.229-1.102 6.067-3.773 1.837-2.67 4.597-3.317 9.378-3.225 4.78.092 6.9870EF4EA2ACD" fill="#d4af3a"/>
  <ellipse cx="-305.001" cy="169.2" ry="1.747" rx="1.907" transform="scale(-1 1)" fill="#d4af3a"/>
  <path d="M309.017 165.904c-1.74-.042-2.677-.866-4.598-.68-2.268.22-5.34 1.542-9.07 3.523-2.918 1.319-6.769 1.0D33A23A23" fill="#d4af3a"/>
  <path d="M284.745 214.464s1.155 2.555 1.786 3.466c.63.91.91 1.052.91 1.052s-1.155.98-2.837 1.504c-1.681.527-3007DFC4AEC" fill="#d4af3a"/>
  <path d="M271.945 199.424c1.702-1.957 1.872-2.426 1.872-2.426s.595.596.086 1.448c-.51.85-2.936 2.976-4.595 3.075C209A32" fill="#b96b29"/>
  <path fill="#d4af3a" d="M279.017 154.54l-3.6-2.556 4.24-1.086 2.72 2.17z"/>
  <ellipse cx="-267.497" cy="151.546" transform="scale(-1 1)" ry="3.31" rx="3.434" fill="#b96b29"/>
  <ellipse ry="1.979" cy="150.845" rx="2.072" cx="-267.497" transform="scale(-1 1)" fill="#d4af3a"/>
  <path d="M274.665 140.173c-.883.328-2.032.184-2.032.184s-.347-1.523.493-2.266c.84-.739 1.6-1.273 2.093-1.768.00A9E1EA51" fill="#d4af3a"/>
  <ellipse ry=".597" cy="141.84" rx=".63" cx="-272.841" transform="scale(-1 1)" fill="#d4af3a"/>
  <path d="M277.53 141.2c.266.371.84.966.84.966s-.699.021-1.273.432c-.574.413-1.314.762-1.99.68-.677-.084-.965-04BD97CA6D" fill="#d4af3a"/>
  <path d="M275.13 145.21c2.156.193 5.005-2.19 5.005-2.19.266 1.914 1.45 2.908 3.264 3.271l-.166.085s-1.686.8620506641AFA" fill="#d4af3a"/>
  <ellipse ry=".538" cy="144.066" rx=".746" cx="-289.401" transform="scale(-1 1)" fill="#d4af3a"/>
  <path d="M287.337 135.784c.598-2.838.498-5.926-2.192-9.86-2.691-3.937-7.371-5.53-7.371-5.53s-.149-.3-1.643-1.0138758A2E" fill="#d4af3a"/>
  <path d="M278.761 117.61c-.509-.413-.598-1.045-.194-1.407.4-.363 1.138-.32 1.647.096.507.416.597 1.048.193 1.0221604A68" fill="#d4af3a"/>
  <ellipse ry="1.37" cy="131.374" rx="1.394" cx="-293.161" transform="scale(-1 1)" fill="#d4af3a"/>
  <path d="M263.081 112.027c.723.159 2.06.594 4.062 1.642h-.036c-1.392 0-2.474.89-2.474 2.041 0 1.154 1.266 2.40FB1093A86" fill="#d4af3a"/>
  <path d="M267.481 116.757c-.784 0-1.498-.706-1.498-1.352 0-.648.61-1.147 1.396-1.147.784 0 1.42.526 1.42 1.170DB7F7AA04" fill="#d4af3a"/>
  <path d="M257.465 143.998c.386.596.67.957 1.858 1.008 1.187.052 2.475-.025 3.25-.801.774-.775 1.314-1.863 1.30F15539A52" fill="#d4af3a"/>
  <path d="M270.41 142.557c-1.278.709-1.983.277-2.447-.295-.468-.57-.552-.828-.552-.828s1.206-.434 1.792-.78c.50DB0450A83" fill="#d4af3a"/>
  <ellipse ry="2.814" cy="129.984" rx="2.84" cx="-276.569" transform="scale(-1 1)" fill="#b96b29"/>
  <path d="M271.641 120.23c1.136-.764 2.805-.459 3.73.682.921 1.144.747 2.693-.392 3.456-1.136.766-2.808.46-3.732-.682-.921-1.139-.745-2.688.394-3.456z" fill="#b96b29"/>
  <ellipse ry="1.573" cy="129.619" rx="1.65" cx="-276.681" transform="scale(-1 1)" fill="#d4af3a"/>
  <path d="M272.825 120.54c.731-.2 1.635.16 2.016.804.38.645-.022 1.331-.997 1.53-1.793.366-2.648-1.887-1.019-2.333z" fill="#d4af3a"/>
</svg>
