<svg xmlns="http://www.w3.org/2000/svg" height="512" width="512" id="flag-icon-css-mp">
  <defs>
    <clipPath id="a">
      <path fill-opacity=".67" d="M248.03 0h496.06v496.06H248.03z"/>
    </clipPath>
  </defs>
  <g clip-path="url(#a)" transform="translate(-256) scale(1.0321)">
    <path fill-rule="evenodd" fill="#0071bc" d="M0 0h992.13v496.06H0z"/>
    <path d="M553.43 392.43s17.493-18.502 34.313-14.97c5.046-19.511 24.053-21.025 24.053-21.025s-1.85-21.53 22.5303EB20CA19" fill-rule="evenodd" stroke="#000" stroke-width="1.92" fill="#fff"/>
    <path stroke-linejoin="round" d="M340.86 114.83c.086 0 7.418 6.36 6.048 15.944-1.369 9.585-6.904 22.908-5.791 32.834.68 3.98.422 11.1071E553AA1" fill-rule="evenodd" stroke="#000" stroke-width="1.92" fill="#217900"/>
    <g fill-rule="evenodd" stroke="#ef8a10" fill="#ffd200">
      <path d="M548.877 87.677s12.475-5.755 16.041-16.472-10.796-10.82-12.694-7.414c-1.897 3.407 1.619 11.888.713 14.13-.905 2.243-5.98 7.656-4.06 9.756z" stroke-width="1.92"/>
      <path d="M438.31 91.587s8.099-11.098 5.999-22.197c-2.1-11.097-14.697-4.199-14.697-.3 0 3.9 7.198 9.599 7.498 09C993FA49" stroke-width="2.559"/>
      <path d="M398.406 43.176s-10.785 8.511-11.747 19.765c-.962 11.253 13.026 7.997 14.075 4.24 1.048-3.755-4.352-019283DAB6" stroke-width="1.92"/>
    </g>
    <path d="M522.23 103.74s21.288 1.34 22.33 13.547-5.061 19.651-5.061 19.651 2.68 26.35-18.162 34.091c-22.33 2.0D734A4AFE" fill-rule="evenodd" stroke="#000" stroke-width="1.92" fill="#8c8a8c"/>
    <path d="M539.35 136.79s-11.463 14.291-10.272 20.097" stroke="#000" stroke-linecap="round" stroke-width="1.92" fill="none"/>
    <path d="M524.02 170.28c2.829 2.382 5.508 5.061 6.104 13.845l1.19 17.567 14.887 133.98 13.1 96.914.894 15.0360FCF7F5AE8" fill-rule="evenodd" stroke="#000" stroke-width="1.92" fill="#8c8a8c"/>
    <path d="M443.63 364.26l-3.126 99.147m99.446-86.047l8.783 81.729" stroke="#000" stroke-width="1.92" fill="none"/>
    <path fill="none" stroke="#000" d="M285.28 312.74l-.327 1.144m412.167-4.734l.327 1.144"/>
    <path stroke-linejoin="round" d="M274.24 178.89s6.522 9.03 7.693 14.215c1.17 5.184 3.344 15.386 6.187 19.566 2.843 4.18 19.065 27.4270E6D826AE2" stroke="#6b18b5" stroke-width="1.92" fill="none"/>
    <path stroke-linejoin="round" d="M386.28 55.917s-6.753.482-11.951 3.3c-4.028 2.484-10.851 6.057-15.619 12.668-12.127 9.454-30.371 13.03A7DE9AE6" stroke="#6b18b5" fill="none"/>
    <path d="M594.29 416.76s-2.596 4.992 7.787 9.385m12.983-21.165s11.581-2.795 19.368 0m15.172-29.16c0 .2-1.597 5.192 7.588 12.38m-.998-25.35s6.789 4.992 18.17 4.792m-86.66 9.778s.4 13.178-6.39 19.368m29.15-39.738s11.182 2.795 20.367-1.797m51.323-17.563s2.396 3.394 14.776 2.796M633.83 329.9c.4.2 14.576 4.792 23.562.6m4.788-54.91s.599-.799 4.992 14.576m5.988-57.906s-.6 8.187-7.188 11.781m49.318-45.331s-9.584 7.787-7.787 10.982M667.57 193.12s4.992 8.386-3.195 14.177M643.41 157.18s8.586-.4 12.38 6.989m-28.55-31.349h6.59m27.55-29.95c0 .2 1.797 1.797-1.597 5.191m-59.703-4.391s4.593 7.188 3.794 15.974m22.766-40.336c1.997-.2 8.786-3.195 8.786-3.195M597.09 50.754c-.2 0-2.596 8.985 1.797 12.18M586.1 91.688c0 9.584 7.588 7.188 2.396 16.373M567.53 83.7c-.2 0-11.98 9.185-11.98 10.782m-18.77-15.773s4.992 4.992 3.794 11.781M522.21 74.715s-2.596 7.588-5.99 9.584m-20.57-11.581c-.2.4-4.193 8.985-6.989 10.583M459.31 72.918c.2 0 3.993 7.987-.998 13.778m-7.392-55.111c.2.2.799 6.19-2.995 11.381m-32.945 2.197c0 .2 1.597 6.79-8.985 8.985M394.62 106.06c.2.4 10.183 1.997 10.183 1.997M369.66 129.23c.2-.2 12.18-3.794 12.18-3.794M350.29 144.2c.4 0 8.386 1.398 10.383.4m-15.973 6.99s2.596 1.398.4 14.776m-39.34-49.916l4.792 7.188M289.39 153.39c0-.2 4.792 7.188 11.182 8.586m26.558 28.954c.2 0 7.787-1.598 8.985-2.396M323.73 218.08c.2 0-.2-4.992 5.99-8.386m-14.18 20.766c0 .2 5.79 7.388 9.784 8.386m-13.174 5.394c.599-.2 6.789-5.591 13.977-5.192M310.15 262.81s.2 6.19 18.57 4.593m-16.77 17.167c0-.2 5.391-12.38 16.373-16.972m-1.593 32.552s1.597-5.192 10.782-8.786m-.602 29.346s6.59-5.391 8.985-6.19m-.795 22.17s3.994 4.193 13.977-2.995m-62.107 6.385c1.198-.2 15.774-3.594 20.766 3.994m-14.966 7.986s15.375-1.997 17.372-.4m37.538 3.6s-1.997 4.193 16.972-2.795m6.588 10.385c-3.394 5.79.799 10.383-3.594 12.979m-54.116-4.999c.599-.4 6.989-2.596 5.99-11.781m-.2 25.561c.799-.2 11.381-4.792 13.578-2.396m7.192 15.776s1.398-9.385 4.393-10.383m11.577 24.553s8.786-.2 12.58-2.995m4.39-28.745c.2.2 8.187 4.393 25.159.2m-18.769 37.93s2.396 12.18 2.196 14.976" stroke="#000" stroke-width="1.92" fill="none"/>
    <g fill-rule="evenodd" stroke="#000" stroke-width="1pt" fill="#de2010">
      <path d="M232.84 119.03c.002-2.109-.794-4.058-2.087-5.114-1.294-1.055-2.888-1.055-4.18 0s-2.09 3.005-2.088 5.0340378AF9" transform="matrix(1.84875 -.23108 .23809 1.90478 237.273 58.345)"/>
      <path d="M232.84 119.03c.002-2.109-.794-4.058-2.087-5.114-1.294-1.055-2.888-1.055-4.18 0s-2.09 3.005-2.088 5.0340378AF9" transform="matrix(1.84875 -.23108 .23809 1.90478 235.622 38.06)"/>
      <path d="M232.84 119.03c.002-2.109-.794-4.058-2.087-5.114-1.294-1.055-2.888-1.055-4.18 0s-2.09 3.005-2.088 5.0340378AF9" transform="matrix(1.8213 -.39265 .40456 1.87649 218.076 57.381)"/>
      <path d="M232.84 119.03c.002-2.109-.794-4.058-2.087-5.114-1.294-1.055-2.888-1.055-4.18 0s-2.09 3.005-2.088 5.0340378AF9" transform="matrix(1.66103 -.84397 .86954 1.71136 192.536 159.48)"/>
      <path d="M232.84 119.03c.002-2.109-.794-4.058-2.087-5.114-1.294-1.055-2.888-1.055-4.18 0s-2.09 3.005-2.088 5.0340378AF9" transform="matrix(1.66103 -.84397 .86954 1.71136 184.518 141.318)"/>
      <path d="M232.84 119.03c.002-2.109-.794-4.058-2.087-5.114-1.294-1.055-2.888-1.055-4.18 0s-2.09 3.005-2.088 5.0340378AF9" transform="matrix(1.5836 -.9816 1.01134 1.63158 174.26 164.595)"/>
      <path d="M232.84 119.03c.002-2.109-.794-4.058-2.087-5.114-1.294-1.055-2.888-1.055-4.18 0s-2.09 3.005-2.088 5.0340378AF9" transform="matrix(1.48128 -1.1301 1.16435 1.52616 167.178 194.116)"/>
      <path d="M232.84 119.03c.002-2.109-.794-4.058-2.087-5.114-1.294-1.055-2.888-1.055-4.18 0s-2.09 3.005-2.088 5.0340378AF9" transform="matrix(1.30182 -1.3329 1.37328 1.34126 168.96 246.932)"/>
      <path d="M232.84 119.03c.002-2.109-.794-4.058-2.087-5.114-1.294-1.055-2.888-1.055-4.18 0s-2.09 3.005-2.088 5.0340378AF9" transform="matrix(1.17368 -1.44698 1.49084 1.20925 167.752 274.114)"/>
      <path d="M232.84 119.03c.002-2.109-.794-4.058-2.087-5.114-1.294-1.055-2.888-1.055-4.18 0s-2.09 3.005-2.088 5.0340378AF9" transform="matrix(.91718 -1.62175 1.6709 .94498 187.99 334.216)"/>
      <path d="M232.84 119.03c.002-2.109-.794-4.058-2.087-5.114-1.294-1.055-2.888-1.055-4.18 0s-2.09 3.005-2.088 5.0340378AF9" transform="matrix(.76579 -1.6985 1.74996 .78897 193.623 359.94)"/>
      <path d="M232.84 119.03c.002-2.109-.794-4.058-2.087-5.114-1.294-1.055-2.888-1.055-4.18 0s-2.09 3.005-2.088 5.0340378AF9" transform="matrix(.65019 -1.74601 1.79893 .66988 194.886 377.196)"/>
      <path d="M232.84 119.03c.002-2.109-.794-4.058-2.087-5.114-1.294-1.055-2.888-1.055-4.18 0s-2.09 3.005-2.088 5.0340378AF9" transform="matrix(.51503 -1.79055 1.84481 .53064 200.752 397.832)"/>
      <path d="M232.84 119.03c.002-2.109-.794-4.058-2.087-5.114-1.294-1.055-2.888-1.055-4.18 0s-2.09 3.005-2.088 5.0340378AF9" transform="matrix(.23314 -1.8485 1.90451 .2402 237.114 442.117)"/>
      <path d="M232.84 119.03c.002-2.109-.794-4.058-2.087-5.114-1.294-1.055-2.888-1.055-4.18 0s-2.09 3.005-2.088 5.0340378AF9" transform="matrix(.07476 -1.86165 1.91806 .07702 250.489 463.367)"/>
      <path d="M232.84 119.03c.002-2.109-.794-4.058-2.087-5.114-1.294-1.055-2.888-1.055-4.18 0s-2.09 3.005-2.088 5.0340378AF9" transform="matrix(.07476 -1.86165 1.91806 .07702 230.44 464.077)"/>
      <path d="M232.84 119.03c.002-2.109-.794-4.058-2.087-5.114-1.294-1.055-2.888-1.055-4.18 0s-2.09 3.005-2.088 5.0340378AF9" transform="matrix(-.41519 -1.81629 1.87134 -.42776 326.57 516.386)"/>
      <path d="M232.84 119.03c.002-2.109-.794-4.058-2.087-5.114-1.294-1.055-2.888-1.055-4.18 0s-2.09 3.005-2.088 5.0340378AF9" transform="matrix(-.56358 -1.77586 1.82969 -.58066 344.705 530.515)"/>
      <path d="M232.84 119.03c.002-2.109-.794-4.058-2.087-5.114-1.294-1.055-2.888-1.055-4.18 0s-2.09 3.005-2.088 5.0340378AF9" transform="matrix(-.77108 -1.69608 1.74749 -.79446 383.304 545.756)"/>
      <path d="M232.84 119.03c.002-2.109-.794-4.058-2.087-5.114-1.294-1.055-2.888-1.055-4.18 0s-2.09 3.005-2.088 5.0340378AF9" transform="matrix(-.91296 -1.62412 1.67333 -.94064 405.706 556.372)"/>
      <path d="M232.84 119.03c.002-2.109-.794-4.058-2.087-5.114-1.294-1.055-2.888-1.055-4.18 0s-2.09 3.005-2.088 5.0340378AF9" transform="matrix(-1.08406 -1.5153 1.56121 -1.1169 440.483 564.492)"/>
      <path d="M232.84 119.03c.002-2.109-.794-4.058-2.087-5.114-1.294-1.055-2.888-1.055-4.18 0s-2.09 3.005-2.088 5.0340378AF9" transform="matrix(-1.20839 -1.41812 1.4611 -1.245 464.319 570.02)"/>
      <path d="M232.84 119.03c.002-2.109-.794-4.058-2.087-5.114-1.294-1.055-2.888-1.055-4.18 0s-2.09 3.005-2.088 5.0340378AF9" transform="matrix(-1.30696 -1.32783 1.36808 -1.34656 483.304 576.796)"/>
      <path d="M232.84 119.03c.002-2.109-.794-4.058-2.087-5.114-1.294-1.055-2.888-1.055-4.18 0s-2.09 3.005-2.088 5.0340378AF9" transform="matrix(-1.41352 -1.21378 1.25056 -1.45636 509.16 580.77)"/>
      <path d="M232.84 119.03c.002-2.109-.794-4.058-2.087-5.114-1.294-1.055-2.888-1.055-4.18 0s-2.09 3.005-2.088 5.0340378AF9" transform="matrix(-1.5349 -1.05613 1.08813 -1.5814 544.923 576.815)"/>
      <path d="M232.84 119.03c.002-2.109-.794-4.058-2.087-5.114-1.294-1.055-2.888-1.055-4.18 0s-2.09 3.005-2.088 5.0340378AF9" transform="matrix(-1.69349 -.77677 .8003 -1.74482 606.254 551.496)"/>
      <path d="M232.84 119.03c.002-2.109-.794-4.058-2.087-5.114-1.294-1.055-2.888-1.055-4.18 0s-2.09 3.005-2.088 5.0340378AF9" transform="matrix(-1.75693 -.62003 .63882 -1.81018 632.437 543.952)"/>
      <path d="M232.84 119.03c.002-2.109-.794-4.058-2.087-5.114-1.294-1.055-2.888-1.055-4.18 0s-2.09 3.005-2.088 5.0340378AF9" transform="matrix(-1.85518 -.13795 .1773 -1.53226 703.463 438.739)"/>
      <path d="M232.84 119.03c.002-2.109-.794-4.058-2.087-5.114-1.294-1.055-2.888-1.055-4.18 0s-2.09 3.005-2.088 5.0340378AF9" transform="matrix(-1.81654 -.41408 .42661 -1.8716 666.606 524.698)"/>
    </g>
    <path d="M679.93 195.92c2.466-2.64 4.76-3.386 7.663-2.424-1.024-6.963-3.227-9.326-5.912-8.488-2.684.839-3.9 4008916DA0F" fill-rule="evenodd" fill="#ffe300"/>
    <path stroke-linejoin="round" d="M658.45 123.94c-.086 0-7.958 7.873-6.59 17.457 1.37 9.585 7.446 21.394 6.333 31.321-1.112 9.927-2.910049B95AC5" fill-rule="evenodd" stroke="#000" stroke-width="1.92" fill="#217900"/>
    <path d="M487.93 26.748c0-2.16-2.43-3.913-5.428-3.913s-5.43 1.752-5.428 3.913c-.001 2.16 2.43 3.913 5.428 3.90D59666AA4" fill-rule="evenodd" fill="#6b18b5"/>
    <path d="M279.2 242.07c0-1.915-1.478-3.467-3.302-3.467s-3.301 1.552-3.301 3.467 1.478 3.467 3.301 3.467 3.3020D27406A8F" fill-rule="evenodd" fill="#6b18b5"/>
    <path d="M345.5 96.89c1.61-2.487 1.717-5.167.241-5.987-1.475-.82-3.976.53-5.585 3.017s-1.717 5.168-.242 5.9880F88CA8A6C" fill-rule="evenodd" fill="#6b18b5"/>
    <path d="M641.8 148.49s7.338-11.615 4.501-22.547c-2.837-10.933-14.945-3.207-14.685.684.26 3.89 7.824 9.095 8.284 11.47.46 2.374-.854 9.677 1.9 10.394z" fill-rule="evenodd" stroke="#ef8a10" fill="#ffd200"/>
    <path stroke-linejoin="round" d="M501.67 51.882s26.443 1.027 26.614 18.142c-.086 2.653 0 5.819-.941 13.435 5.22-2.824 8.728-10.697 8.05B5D49AE9" fill-rule="evenodd" stroke="#000" stroke-width="2.4" fill="#217900"/>
    <path stroke-linejoin="round" d="M484.9 51.112s21.308-4.45 21.479 12.665c.171 17.115-6.76 19.853-6.76 19.853s16.345-3.509 16.43-20.88c.085-17.372-21.051-25.073-31.15-11.638z" fill-rule="evenodd" stroke="#000" stroke-width="2.4" fill="#217900"/>
    <path stroke-linejoin="round" d="M557.285 420.343s99.739-28.174 129.855-150.581c-17.487 125.645-126.617 165.477-126.617 165.477l-3.238-14.896z" fill-rule="evenodd" stroke="#000" stroke-width="2.559" fill="#f7df73"/>
    <path d="M567.517 427.964c3.082 0 10.709-8.438 15.09-9.411 4.38-.974 4.867-5.355-.163-5.517-5.03-.162-9.41 5.0122CF5AF7" fill-rule="evenodd" fill="#8c1800"/>
    <path d="M624.951 385.118s-10.384 6.004-8.924 7.464c1.46 1.46 10.709-5.679 10.871-5.841.162-.162 3.894-4.706-1.947-1.623z" fill-rule="evenodd" stroke="#8c1800" stroke-width="2.559" fill="#8c1800"/>
    <path d="M588.767 412.396s-3.084-1.136 4.867-4.219c7.95-3.083 7.464-6.652 10.06-8.113 2.596-1.46 8.113-5.354 0D4EAB2AD3" fill-rule="evenodd" fill="#8c1800"/>
    <path d="M640.365 369.877c-6.814 7.626-6.814 7.464-6.814 7.464" stroke="#8c1800" stroke-linecap="round" stroke-width="3.119" fill="none"/>
    <path d="M650.597 357.38l-6.49 7.95" stroke="#8c1800" stroke-linecap="round" stroke-width="2.879" fill="none"/>
    <path d="M660.81 341.16l-7.303 11.682" stroke="#8c1800" stroke-linecap="round" stroke-width="2.639" fill="none"/>
    <path d="M669.409 324.613l-6.004 12.007m9.901-20.78l-1.947 4.219" stroke="#8c1800" stroke-linecap="round" stroke-width="2.399" fill="none"/>
    <path d="M677.682 304.322l-1.622 5.03" stroke="#8c1800" stroke-linecap="round" stroke-width="1.44" fill="none"/>
    <path stroke-linejoin="round" d="M160.26 215.97s51.958-14.677 67.647-78.444c-9.11 65.454-65.96 86.204-65.96 86.204l-1.687-7.76z" fill-rule="evenodd" stroke="#000" stroke-width="1pt" fill="#f7df73" transform="matrix(-1.9021 0 0 1.9542 731.39 -4.333)"/>
    <path d="M416.421 425.474c-3.055 0-10.611-8.59-14.952-9.58-4.341-.992-4.823-5.452.16-5.617 4.985-.165 9.326 5062B443A4A" fill-rule="evenodd" fill="#8c1800"/>
    <path d="M195.51 197.62s-5.41 3.127-4.649 3.888c.76.761 5.579-2.958 5.663-3.043.085-.084 2.029-2.451-1.014-.845z" fill-rule="evenodd" stroke="#8c1800" stroke-width="1pt" fill="#8c1800" transform="matrix(-1.9021 0 0 1.9542 731.39 -4.333)"/>
    <path d="M395.365 409.625s3.055-1.156-4.823-4.295c-7.878-3.138-7.396-6.772-9.969-8.259-2.572-1.486-8.039-5.45023E8E5AA1" fill-rule="evenodd" fill="#8c1800"/>
    <path d="M203.54 189.68c-3.55 3.973-3.55 3.888-3.55 3.888" stroke="#8c1800" stroke-linecap="round" stroke-width="1.625" fill="none" transform="matrix(-1.9021 0 0 1.9542 731.39 -4.333)"/>
    <path d="M208.87 183.17l-3.381 4.142" stroke="#8c1800" stroke-linecap="round" stroke-width="1.5" fill="none" transform="matrix(-1.9021 0 0 1.9542 731.39 -4.333)"/>
    <path d="M214.19 174.72l-3.804 6.086" stroke="#8c1800" stroke-linecap="round" stroke-width="1.375" fill="none" transform="matrix(-1.9021 0 0 1.9542 731.39 -4.333)"/>
    <path d="M218.67 166.1l-3.127 6.255m5.157-10.825l-1.014 2.198" stroke="#8c1800" stroke-linecap="round" stroke-width="1.25" fill="none" transform="matrix(-1.9021 0 0 1.9542 731.39 -4.333)"/>
    <path d="M222.98 155.53l-.845 2.62" stroke="#8c1800" stroke-linecap="round" stroke-width=".75" fill="none" transform="matrix(-1.9021 0 0 1.9542 731.39 -4.333)"/>
    <path stroke-linejoin="round" d="M691.89 247.23c.49 7.678 8.005 15.029 5.065 28.426-3.758 15.193-16.99 51.298-14.703 57.669-3.921-5.30C84210AB1" fill-rule="evenodd" stroke="#000" stroke-width="2.4" fill="#217900"/>
    <path stroke-linejoin="round" d="M691.89 247.39s12.253 15.52 11.599 27.773c-.653 12.253-7.515 26.629-5.228 33-3.92-5.391-4.9-8.822-5.06294A7A18" fill-rule="evenodd" stroke="#000" stroke-width="2.4" fill="#217900"/>
    <path stroke-linejoin="round" d="M290.51 250.99s-11.926 15.03-11.273 27.283c.163 8.168 15.193 42.312 12.906 48.684 3.92-5.391 5.064-40DE73EDA63" fill-rule="evenodd" stroke="#000" stroke-width="2.4" fill="#217900"/>
    <path stroke-linejoin="round" d="M99.959 125.78l22.172 68.231 71.743.003-58.04 42.172 22.167 68.233-58.041-42.15-58.044 42.16 22.168-68.23-58.04-42.17h71.743z" transform="matrix(1.3389 0 0 1.3391 360.43 -54.894)" stroke-dashoffset="1" stroke="#000" stroke-linecap="square" stroke-width="1.494" fill="#fff"/>
  </g>
</svg>
