<svg xmlns="http://www.w3.org/2000/svg" height="512" width="512" id="flag-icon-css-mt">
  <g fill-rule="evenodd" stroke-width="1pt">
    <path fill="#ce0000" d="M256 0h256v511.984H256z"/>
    <path fill="#fff" d="M0 0h256v511.984H0z"/>
  </g>
  <g transform="matrix(.35005 0 0 .35003 40.728 -25.527)">
    <path d="M183.107 381.66c0 2.314-2.62 4.19-5.853 4.19-3.232 0-5.852-1.876-5.852-4.19 0-2.313 2.62-4.188 5.852-4.188s5.853 1.875 5.853 4.189z" fill-rule="evenodd" fill="#f1eeee"/>
    <path d="M.06 361.429v106.303h106.302c0 17.713 17.718 35.43 35.436 35.43v106.299h106.296V503.163c17.718 0 35.0D05FCDA08" fill-rule="evenodd" fill="#c00"/>
    <path d="M3.6 364.969v99.211h106.302c0 17.713 17.712 35.437 35.43 35.437v106.298h99.216V499.617c17.718 0 35.405970BDA7C" fill-rule="evenodd" fill="#ffe600"/>
    <path d="M7.04 368.509v92.131h106.296c0 17.712 17.718 35.43 35.436 35.43v106.3h92.124v-106.3c17.718 0 35.436-02A8A26A6D" fill-rule="evenodd" fill="#707070"/>
    <path d="M10.58 372.049v85.04h106.296c0 17.711 17.718 35.436 35.436 35.436v106.297h85.038V492.525c17.718 0 3506B02B3A9B" fill-rule="evenodd" fill="#a0a0a0"/>
    <g fill-rule="evenodd">
      <path d="M153.244 327.833c6.226 6.226 1.179 21.37-11.275 33.824s-27.597 17.5-33.824 11.274c-6.227-6.227-1.179040610CA03" fill="#d0d0d0"/>
      <path d="M145.732 335.344c6.227 6.227 4.544 18.006-3.758 26.308s-20.081 9.985-26.308 3.758c-6.227-6.226-4.544-18.005 3.758-26.308s20.08-9.985 26.308-3.758z" fill="gray"/>
      <path d="M114.406 354.133l2.505-2.505 10.022 5.011-5.011-10.022 2.505-2.506 10.022 20.044-20.043-10.022zm15.035-15.033l2.506-2.505 15.033 15.033-2.505 2.505z" fill="#d0d0d0"/>
    </g>
    <g fill-rule="evenodd">
      <path d="M281.617 372.927c-6.226 6.226-21.37 1.179-33.824-11.275s-17.5-27.597-11.274-33.824c6.227-6.227 21.37068D939AE1" fill="#d0d0d0"/>
      <path d="M274.106 365.415c-6.227 6.227-18.006 4.544-26.308-3.758s-9.985-20.081-3.758-26.308c6.226-6.227 18.005-4.544 26.308 3.758s9.985 20.08 3.758 26.308z" fill="gray"/>
      <path d="M255.317 334.089l2.505 2.505-5.011 10.022 10.022-5.011 2.506 2.505-20.044 10.022 10.022-20.043zm15.033 15.035l2.505 2.506-15.033 15.033-2.505-2.505z" fill="#d0d0d0"/>
    </g>
    <g fill-rule="evenodd">
      <path d="M236.526 501.297c-6.226-6.226-1.179-21.37 11.275-33.824s27.597-17.5 33.824-11.274c6.227 6.227 1.179 048354CAF6" fill="#d0d0d0"/>
      <path d="M244.038 493.786c-6.227-6.227-4.544-18.006 3.758-26.308s20.081-9.985 26.308-3.758c6.227 6.226 4.544 18.005-3.758 26.308s-20.08 9.985-26.308 3.758z" fill="gray"/>
      <path d="M275.364 474.997l-2.505 2.505-10.022-5.011 5.011 10.022-2.505 2.506-10.022-20.044 20.043 10.022zm-1501740AAA27" fill="#d0d0d0"/>
    </g>
    <g fill-rule="evenodd">
      <path d="M108.153 456.206c6.226-6.226 21.37-1.179 33.824 11.275s17.5 27.597 11.274 33.824c-6.227 6.227-21.37 0D6AEE3A22" fill="#d0d0d0"/>
      <path d="M115.664 463.718c6.227-6.227 18.006-4.544 26.308 3.758s9.985 20.081 3.758 26.308c-6.226 6.227-18.005 4.544-26.308-3.758s-9.985-20.08-3.758-26.308z" fill="gray"/>
      <path d="M134.453 495.044l-2.505-2.505 5.011-10.022-10.022 5.011-2.506-2.505L144.475 475l-10.022 20.043zm-15.066ABB0AF9" fill="#d0d0d0"/>
    </g>
    <path d="M269.29 414.57c0 41.095-34.107 74.409-76.181 74.409s-76.181-33.314-76.181-74.409 34.107-74.409 76.181-74.409 76.181 33.314 76.181 74.409z" transform="matrix(.97674 0 0 1 6.263 0)" stroke="#707070" stroke-width="1pt" fill="none"/>
    <path d="M269.29 414.57c0 41.095-34.107 74.409-76.181 74.409s-76.181-33.314-76.181-74.409 34.107-74.409 76.181-74.409 76.181 33.314 76.181 74.409z" transform="matrix(.74419 0 0 .7619 51.172 98.707)" stroke="#707070" stroke-width="1pt" fill="none"/>
    <path d="M170.08 474.8a3.543 3.543 0 1 1-7.087 0 3.543 3.543 0 0 1 7.087 0zm56.693 0a3.543 3.543 0 1 1-7.087 0 3.543 3.543 0 0 1 7.087 0zm-34.251.001v3.695h-4.725c-4.724 0-4.724 3.695 0 3.695h4.725v3.694c.016 3.83 4.123 4.291 4.424.299l.3-3.993h4.725c4.724 0 4.724-3.695 0-3.695h-4.725v-3.695c0-3.694-4.724-3.694-4.724 0z" fill-rule="evenodd" fill="#d0d0d0"/>
    <path d="M180.71 162.99v7.087s-3.362 5.423-24.803 7.086-24.803 0-24.803 0c.559 6.181 4.732 17.896 3.543 31.8901115D4AD5" fill-rule="evenodd" transform="matrix(.33032 0 0 .29556 117.56 374.28)" stroke="#707070" stroke-width="1pt" fill="#d0d0d0"/>
    <path d="M272.84 162.26c20.858-1.077 55.859-.843 55.859-.843s8.253 18.502 7.91 28.723-3.181 18.919-7.077 14.5083AA33AB8" fill-rule="evenodd" transform="matrix(.33032 0 0 .29556 115.22 366.9)" stroke="#707070" stroke-width="1pt" fill="#d0d0d0"/>
    <path d="M312.21 273.91c20.858-1.077 34.551 2.498 34.551 2.498s8.253 18.502 7.91 28.723-3.181 18.919-7.077 1408192B8AEC" fill-rule="evenodd" transform="matrix(.33032 0 0 .29556 104.56 339.3)" stroke="#707070" stroke-width="1pt" fill="#d0d0d0"/>
    <path d="M209.06 131.1c.294 7.062-27.384 22.895-29.637 29.164s7.036 9.744 4.163 13.321c-2.872 3.578-5.24 2.250499406ADD" fill-rule="evenodd" transform="matrix(.33032 0 0 .29556 116.1 372.43)" stroke="#707070" stroke-width="1pt" fill="#d0d0d0"/>
    <path fill-rule="evenodd" fill="#a7a7a7" d="M170.23 386.9h14.045v14.662H170.23z"/>
    <rect transform="matrix(.5544 .83225 -.88236 .47057 0 0)" fill-rule="evenodd" rx="1.27" ry=".57" height="1.139" width="87.553" y="64.582" x="405.61" fill="gray"/>
    <path d="M180.71 42.52a7.087 7.087 0 1 1-14.173 0 7.087 7.087 0 0 1 14.173 0z" fill-rule="evenodd" transform="matrix(.33032 0 0 .29556 114.05 362.81)" stroke="#707070" stroke-width="1pt" fill="#d0d0d0"/>
    <path d="M214.7 394.443c0 .867-5.434 1.886-11.705 1.886s-11.704-1.019-11.704-1.886c0-.868 5.433 1.257 11.704 1.257s11.705-2.125 11.705-1.257z" fill-rule="evenodd" fill="gray"/>
    <path fill-rule="evenodd" fill="#a7a7a7" d="M171.4 401.56h11.704v4.189H171.4z"/>
    <path d="M209.453 391.243c-1.135 2.126-2.212 3.643-2.405 3.388-.194-.254.57-2.184 1.704-4.31 1.135-2.125 2.2109AC99BA51" fill-rule="evenodd" fill="gray"/>
    <path d="M210.927 394.09c.953 1.733 1.581 3.2 1.403 3.276-.178.076-1.095-1.267-2.048-3-.953-1.734-1.581-3.20104B68F4A0A" fill-rule="evenodd" fill="gray"/>
    <path d="M375.49 171.92s8.938 36.133 47.04 36.633 51.215-10.838 35.8-29.972-44.084-13.182-40.379 3.33-10.752 023A656ADF" fill-rule="evenodd" transform="matrix(.21598 0 0 .12989 76.265 416.17)" stroke="gray" stroke-width="1pt" fill="#d0d0d0"/>
    <path d="M209.473 431.552a.94.94 0 1 1-1.879 0 .94.94 0 0 1 1.879 0z" fill-rule="evenodd"/>
    <path d="M253.616 417.966l4.558.982 7.612-5.21-.59 2.736-3.965 2.649c-.74.486-1.471.931-2.192 1.334.452.632.907E4ABDA49" fill="#d0d0d0"/>
  </g>
</svg>
