<svg xmlns="http://www.w3.org/2000/svg" xmlns:xlink="http://www.w3.org/1999/xlink" height="512" width="512" id="flag-icon-css-mx">
  <defs>
    <linearGradient id="a">
      <stop offset="0" stop-color="#fff"/>
      <stop offset="1" stop-color="#f15770"/>
    </linearGradient>
    <radialGradient gradientTransform="matrix(.11321 .02876 -.02762 .11359 180.16 193.225)" r="25.859" cy="103.66" cx="842.31" gradientUnits="userSpaceOnUse" xlink:href="#a" id="b"/>
    <radialGradient gradientTransform="matrix(-.10753 -.04307 .03971 -.09991 375.28 9.752)" r="25.859" cy="550.46" cx="651.52" gradientUnits="userSpaceOnUse" xlink:href="#a" id="c"/>
    <radialGradient gradientTransform="matrix(.06029 .00225 -.00274 .11843 377.373 -119.958)" r="25.859" cy="740.37" cx="380.84" gradientUnits="userSpaceOnUse" xlink:href="#a" id="d"/>
  </defs>
  <path fill="#ce1126" d="M341.333 0H512v512H341.333z"/>
  <path fill="#fff" d="M170.667 0h170.667v512H170.667z"/>
  <path fill="#006847" d="M0 0h170.667v512H0z"/>
  <path d="M284.622 295.548l.18 3.583 1.352-.894-1.037-2.95z" fill="#fcca3e" stroke="#aa8c30" stroke-width=".213"/>
  <circle r="1.153" cy="294.573" cx="284.466" fill="#fcca3e" stroke="#aa8c30" stroke-width=".183"/>
  <path d="M288.913 301.131l-2.62-2.51-1.178.946 3.561 2.075z" fill="#fcca3e" stroke="#aa8c30" stroke-width=".213"/>
  <path d="M288.688 302.545c-.37-.496-.246-1.22.271-1.62.52-.399 1.242-.32 1.613.176.367.496.246 1.223-.273 1.622-.52.398-1.242.317-1.611-.178z" fill="#fcca3e" stroke="#aa8c30" stroke-width=".183"/>
  <path d="M309.052 263.664l2.686 2.672.313-1.353-2.456-1.646z" fill="#fcca3e" stroke="#aa8c30" stroke-width=".213"/>
  <circle r="1.125" cy="262.975" cx="308.693" fill="#fcca3e" stroke="#aa8c30" stroke-width=".183"/>
  <path d="M316.129 265.248l-4.104 1.172.338-1.356 3.528-.343z" fill="#fcca3e" stroke="#aa8c30" stroke-width=".213"/>
  <circle r="1.099" cy="264.682" cx="316.794" fill="#fcca3e" stroke="#aa8c30" stroke-width=".183"/>
  <path d="M302.341 285.472l-2.504-3.9.403-.2 2.833 3.345z" fill="#fcca3e" stroke="#aa8c30" stroke-width=".213"/>
  <circle r="1.164" cy="280.666" cx="299.591" fill="#fcca3e" stroke="#aa8c30" stroke-width=".183"/>
  <path d="M302.5 285.576l3.18.58.117-.435-2.663-1.055z" fill="#fcca3e" stroke="#aa8c30" stroke-width=".213"/>
  <circle r="1.151" cy="286.192" cx="306.652" fill="#fcca3e" stroke="#aa8c30" stroke-width=".183"/>
  <path d="M227.711 294.445c0 .555-.435.948-.848.948-.41 0-.743-.448-.743-1 0-.553.334-1.002.743-1.002.413 0 .848.503.848 1.054z" fill="#fcca3e" stroke="#aa8c30" stroke-width=".183"/>
  <path d="M227.693 296.23l.728 4.002-.969-.382-.348-3.478z" fill="#fcca3e" stroke="#aa8c30" stroke-width=".213"/>
  <path d="M228.577 294.871c.467.606-.324 1.531-1.164 1.761-.84.229-1.888-.159-1.878-.928.011-.872 1.225-.418 1.551-.52.503-.158.988-.965 1.49-.313z" fill="#fcca3e" stroke="#aa8c30" stroke-width=".183"/>
  <ellipse ry=".904" rx="1.246" cy="301.009" cx="221.601" fill="#fcca3e" stroke="#aa8c30" stroke-width=".183"/>
  <path d="M223.713 300.796l3.844-.191-.65-.766-3.159.343z" fill="#fcca3e" stroke="#aa8c30" stroke-width=".213"/>
  <path d="M224.036 300.35c.32.974.347 2.301-.743 2.162-1.091-.142-.885-1.118-.97-1.494-.156-.683-.796-1.298-.138-1.964.658-.669 1.528.322 1.85 1.297z" fill="#fcca3e" stroke="#aa8c30" stroke-width=".183"/>
  <ellipse ry="1.147" rx=".753" cy="279.35" cx="211.508" fill="#fcca3e" stroke="#aa8c30" stroke-width=".183"/>
  <path d="M211.522 281.888l.088 3.725-.97-.88.07-2.967z" fill="#fcca3e" stroke="#aa8c30" stroke-width=".213"/>
  <path d="M212.96 280.755c.197.859-1.063 1.343-1.92 1.183-.858-.157-1.506-.605-1.376-1.395.13-.791 1.194-.613 1.557-.394.364.216 1.467-.6 1.74.606z" fill="#fcca3e" stroke="#aa8c30" stroke-width=".183"/>
  <ellipse ry=".593" rx="1.298" cy="285.168" cx="204.939" fill="#fcca3e" stroke="#aa8c30" stroke-width=".183"/>
  <path d="M207.274 285.168l2.923-.198 1.246.963-4.215-.158z" fill="#fcca3e" stroke="#aa8c30" stroke-width=".213"/>
  <path d="M206.201 283.601c.789.025 1.333.895 1.22 1.817-.111.923-.822 1.669-1.548 1.556-.728-.117-.676-.73-.6032AC8EA2E" fill="#fcca3e" stroke="#aa8c30" stroke-width=".183"/>
  <path d="M200.581 266.79l1.633-3.846-.244-.211-1.85 2.702z" fill="#fcca3e" stroke="#aa8c30" stroke-width=".213"/>
  <path d="M201.916 262.95c-.808-.59-.987-1.196-.726-1.794.258-.596.864-.209.864-.209s.399.44.692.596c.295.16.703AF9DBAF5" fill="#fcca3e" stroke="#aa8c30" stroke-width=".183"/>
  <path d="M196.827 264.133l3.014 1.808-.088 1.422-3.271-2.811z" fill="#fcca3e" stroke="#aa8c30" stroke-width=".213"/>
  <path d="M196.802 264.474c-.668.747-1.282.86-1.836.53-.556-.331-.108-.898-.108-.898s.475-.35.664-.628c.189-.20D5D3B6A42" fill="#fcca3e" stroke="#aa8c30" stroke-width=".183"/>
  <path d="M285.275 295.816s-.22.146-.34.382c-.115.236-.247.71-.247.71l.014-1.157.39-.226.183.291z" fill="#aa8c30"/>
  <path d="M285.445 295.09s-.27.458-.91.422c-.637-.035-.95-.332-1.027-.658-.079-.324-.079-.561.127-.94.209-.37804114D3A5C" fill="#aa8c30"/>
  <path d="M315.044 264.858s.02.277-.343.475a42.81 42.81 0 0 0-1.051.607l2.258-.659-.187-.547-.677.124zm-13.6780AFA5E8AD6" fill="#aa8c30"/>
  <path d="M307.717 285.972c.189.702-.435 1.378-1.24 1.142-.804-.24-1.02-1.038-.768-1.468l-.199.501.147.668.4930955C9BAEF" fill="#aa8c30"/>
  <path d="M227.711 296.889s-.155.051-.294.282c-.137.227-.19.63-.19.63l-.07-1.07.468-.247.086.405zm-3.029 3.2180E56B2FAE8" fill="#aa8c30"/>
  <path d="M220.421 300.93s.174.685.935.702c.762.02.953-.212.953-.212l.086.264-.277.14-.661.076-.582-.116-.271-0D56065A26" fill="#aa8c30"/>
  <path d="M201.605 263.28s.017.09 0 .44c-.017.351-.156.932-.156.932l.693-1.548-.277-.246-.26.422zm-4.291 1.2130E0E9C2A8B" fill="#aa8c30"/>
  <path d="M319.883 256.124c-.246 3.067-3.271 4.634-4.854 5.78-1.586 1.148-2.352 2.57-2.352 2.57l-.532 1.79-.260913B74A55" fill="#9ca168"/>
  <path d="M284.293 300.497c.247-.328 2.405-2.25 3.506-2.818 1.105-.567 2.57-.671 2.57-.671 1.52-.279 1.766-.050D67C6FAB5" fill="#717732"/>
  <path d="M245.363 307.872s.325-.907 2.505-1.973c2.181-1.067 5.465-2.504 5.777-2.32.312.186-.17 1.372-.17 1.372l-2.114.644-1.688.989-1.973 1.277-2.337.011z" fill="#9ca168"/>
  <path d="M250.922 302.137c-2.787.105-4.307.79-4.843.897-.184.036-.586.32-.928.151-.654-.324-1.222-1.222-1.2220B3D8B5AB8" fill="#9ca168"/>
  <path d="M246.698 307.306c.779.013.883.434.987.422.104-.015 1.415-1.133 2.661-1.818 1.247-.686 3.141-1.093 3.072E499A78" fill="#717732"/>
  <path d="M251.55 312.67s-.507-.545-1.182-.901c-.675-.355-.901-.25-.901-.25l-.313-.11.592-1.543 4.446-4.247.68069166BA11" fill="#fff"/>
  <path d="M255.048 301.344s-.073.226-.105.882c-.034.656.044 4.098-.125 4.569-.167.47-2.56 1.458-3.928 2.65-1.30E7F51AA22" fill="#016848"/>
  <path d="M257.218 301.32s1.312-.078 1.494.125c.181.203.155.428.162.495.006.063.069 3.182-.162 4.207-.244 1.070B12454A18" fill="#cd202a"/>
  <path d="M265.983 311.975s-.315-.318-1.424-.336c-1.114-.02-1.205.148-1.205.148s-.611-.77-1.592-1.409c-.982-.60C68F71A9E" fill="#cd202a"/>
  <path d="M275.949 293.08s-2.856-1.108-2.65-2.11c.208-1 6.598-2.685 6.598-2.685l.102-1.686s-.935-.052-2.546.470DD79FFAC1" fill="#30c2dc" stroke="#0872a7" stroke-width=".427"/>
  <circle cx="227.605" cy="288.551" r="1.673" fill="#fff" stroke="#0872a7" stroke-width=".835"/>
  <circle cx="237.162" cy="280.755" r="1.674" fill="#fff" stroke="#0872a7" stroke-width=".835"/>
  <circle cx="277.224" cy="293.238" r="1.717" fill="#fff" stroke="#0872a7" stroke-width=".835"/>
  <path d="M220.104 278.25c-.545 1.263 1.608 3.66 3.115 3.923 1.506.263 2.336-.104 2.596-.842.26-.74.058-1.541-.285-2-.96-1.293-4.882-2.346-5.426-1.081z" fill="#f8c83c"/>
  <path d="M224.852 280.176c-.04-.763-1.297-1.503-2.102-1.503-.805 0-1.61-.025-1.48.397.13.42 2.207.976 2.258 1015AFD6AE0" fill="#fff"/>
  <path d="M238.146 294.61c.346 1.112-.519 1.656-1.636 2.158-1.116.5-3.4.21-3.92-.684-.52-.896.831-2.345 2.207-2.688 1.376-.342 3.037.211 3.349 1.213z" fill="#f8c83c"/>
  <path d="M235.836 295.267c.437-.075.442.66.831.605.39-.05.727-.683.623-1.105-.104-.422-.831-1.001-1.454-.948-08B98EFA58" fill="#fff"/>
  <path d="M279.374 288.843c1.013 1.347 2.839.105 3.322-.42.485-.527 1.973-1.387 1.368-2.266-.607-.877-1.644-.800016D1A5A" fill="#f8c83c"/>
  <path d="M279.704 287.953s.088-1.467 1.456-1.528c.778-.035.812.212 1.402.546.586.332.812-.44.812-.44s.036 1.0047438DAB5" fill="#fff"/>
  <path d="M257.48 285.107l-.675-.438s-1.351-.07-2.268-.053c-.918.018-2.734.106-2.734.106l2.715 7.883 3.256 4.6049D859AC1" fill="#f9aa51" stroke="#953220" stroke-width=".427" stroke-linecap="round" stroke-linejoin="round"/>
  <path d="M248.508 285.6l.13-.895s.615-.078 1.471-.104c.857-.029 1.606.056 1.698.122.088.066 1.895 2.275 2.517072AEBBA19" fill="#f9aa51" stroke="#953220" stroke-width=".427" stroke-linecap="round" stroke-linejoin="round"/>
  <path d="M246.594 284.631s1.87-.034 2.043.07c.173.106 2.25 1.951 3.08 4.232.832 2.283.416 2.6 1.49 4.953 1.070321D7FABD" fill="#f9aa51" stroke="#953220" stroke-width=".427" stroke-linecap="round" stroke-linejoin="round"/>
  <path d="M245.692 286.125c0 .703.745.738.935.703.19-.036.831-.281.831-1.23 0-.948-.588-1.685-1.749-1.755-1.16-.07-2.041 1.388-2.041 2.37 0 .982.985 1.492.985 1.862 0 0-.985.913-.934 2.51.051 1.598 1.35 2.827 1.35 2.827s-1.385 1.106-1.385 2.213 1.057 1.842 2.043 1.842c.987 0 2.25-.63 2.25-1.472 0-.844-.744-1.352-1.367-1.352-.624 0-.883.367-.883.649m20.513-8.722c0 .685-.443.713-.833.713-.39 0-.908-.212-.908-1.082 0-.869 1.143-1.343 1.87-1.343.725 0 1.973 1 1.973 2.213 0 1.211-.884 2.028-.884 2.028s.545.262.545 1.79c0 1.529-.985 2.633-.985 2.633s1.287.503 1.287 2.083c0 1.578-1.092 2.095-1.846 2.095s-2.066-.45-2.066-1.529c0-1.082.677-1.461 1.195-1.461.52 0 1.026.606 1.026 1.198" fill="#f9aa51" stroke="#953220" stroke-width=".427" stroke-linecap="round" stroke-linejoin="round"/>
  <path d="M247.6 294.92s.193.127.338.436c.15.313.255.812.597 1.117.675.606 5.815.792 7.374.792 1.557 0 6.23.210CF238FA84" fill="#953220"/>
  <path d="M277.144 284.863s-.728-.263-1.064-.87c-.34-.606-.625-1.37-.366-1.528.263-.158.806.368.756.844-.054.40C66A5EA81" fill="#231f20"/>
  <path d="M287.975 283.333s-.701.42-1.297.184c-.597-.237-1.063-.58-.833-.842.236-.265.389-.159.701.183.313.3440B65076A2E" fill="#231f20"/>
  <path d="M274.218 278.695l-2.292 2.426s5.27 2.95 9.32 2.819c4.052-.13 8.674-3.292 8.983-3.952.313-.656.054-3.027E8A8A07" fill="#8cbebf" stroke="#04534e" stroke-width=".427"/>
  <path d="M273.633 279.664s5.642.844 7.267-.597c1.63-1.438 3.394-4.249 4.537-4.882 1.143-.633 1.66-.633 1.66-.005C840A8E" fill="#0c8489"/>
  <path d="M282.233 276.415c0-.481.315-.457.745-.457s.9.082.9.562c0 .48-.47 1.176-.9 1.176-.43 0-.745-.8-.745-1.281zm2.267 1.42c0-.432.333-.667.847-.667.517 0 .987.578.987 1.009 0 .432-.418.782-.931.782-.517 0-.903-.692-.903-1.124zm-.78 3.377c0-.54.331-.652.848-.652.515 0 .832.243.832.782 0 .537-.42.975-.936.975-.517 0-.744-.569-.744-1.105zm-2.974-1.036c0-.576.547-.756 1.011-.756.464 0 .84.468.84 1.047 0 .577-.376 1.043-.84 1.043-.464 0-1.011-.758-1.011-1.334zm-4.712.573a1.152 1.152 0 1 1 2.303 0 1.151 1.151 0 0 1-2.303 0z" fill="#04534e"/>
  <path d="M284.5 277.835c0-.39.533-.667.847-.667.317 0 .573.313.573.703 0 .386-.256.702-.573.702-.314 0-.847-.0A96C6DA04" fill="#8cbebf"/>
  <path d="M278.18 279.487s-.78.133-1.195.528c-.414.395-.468.844-.233.975.233.13.52-.29.597-.475.077-.185.83-1.032CFC5A8E" fill="#231f20"/>
  <path d="M282.544 279.463s-.493.025-.83.341c-.336.318-.648.712-.414.739.231.025.598-.158.62-.37.027-.21.624-.0FE60B2A94" fill="#231f20"/>
  <path d="M290.254 278.012s.314 1.554-1.036 2.316c-1.35.765-5.142 3.451-8.724 3.135-3.584-.317-7.66-2.37-7.66-0CE9D13A7B" fill="#04534e"/>
  <path d="M219.903 257.763s.831.712.753 1.317c-.078.606-.286.845-.518.739-.235-.106-.235-.74-.183-1 .052-.267-0A0E51BA17" fill="#231f20"/>
  <path d="M226.102 269.722s.728-4.882-3.22-8.324c-3.946-3.441-6.508-2.6-7.86-1.333-1.349 1.263-2.526 5.409 1.6081E92DA02" fill="#8cbebf" stroke="#04534e" stroke-width=".427"/>
  <path d="M214.064 264.554s-.075-2.683 1.192-3.48c1.267-.803 5.44-1.498 7.498 2.465 2.056 3.96 2.097 5.94 1.570C760FDA55" fill="#0c8489"/>
  <path d="M225.578 270.423s-.692.773-2.112.704c-1.419-.072-8.03-1.792-9.693-7.727l.104 1.299.069.422.436 1.1960E898B4ADC" fill="#04534e"/>
  <path d="M222.134 268.71c0-.529.271-.545.692-.545.42 0 .744-.186.744.342s-.288 1.291-.709 1.291c-.42 0-.727-.08E8F48A4B" fill="#04534e"/>
  <path d="M216.856 262.597c.068-.282.264-.475.622-.475s.675.067.675.475c0 .406-.29.739-.649.739-.358 0-.746-.3040CFD4AED" fill="#8cbebf"/>
  <path d="M222.932 263.554s.44.552.519.973c.077.42.077.896-.078.95-.156.052-.415-.265-.493-.659-.078-.397.052-0BAA9F3A16" fill="#231f20"/>
  <path d="M216.417 261.817s.389.105.726.368c.338.263.468.578.338.737-.13.158-.441-.077-.519-.263-.079-.185-.540D3ACBEA44" fill="#231f20"/>
  <path d="M221.817 267.924s.468.184.675.368c.208.186.26.475.104.528-.155.052-.26-.29-.39-.421-.129-.132-.389-.0C4900AAF2" fill="#231f20"/>
  <path d="M217.709 259.074s-2.616.567-3.093 2.253c-.479 1.687-.5 3.561-.5 3.561l-.374-2.148.52-1.39.76-1.279 10FAC2EBA53" fill="#04534e"/>
  <path d="M228.516 265.736s.908.595.999.923c.091.33.129.436-.103.527-.235.095-.611-.275-.715-.527-.104-.25-.180DC1D5EA06" fill="#231f20"/>
  <path d="M241.194 272.99s-4.014-5.805-10.247-6.112c-4.985-.246-6.56 4.206-6.379 5.549.179 1.322 2.052 4.223 80C74B2FA68" fill="#8cbebf" stroke="#04534e" stroke-width=".427"/>
  <path d="M236.458 269.003s1.662 1.267 2.363 2.266c.7 1 .857 1.74.442 1.872-.417.128-4.025-3.216-6.985-3.926-20B112E9AA2" fill="#0c8489"/>
  <path d="M231.368 269.82c0 .372-.39.556-.778.556s-.714-.196-.714-.567c0-.372.313-.672.7-.672.388 0 .792.312.702C37E7A97" fill="#04534e"/>
  <path d="M228.668 274.166c0-.414.426-.5.792-.5.365 0 .83.39.83.803 0 .414-.465.698-.83.698-.366 0-.792-.586-.792-1.001z" fill="#8cbebf"/>
  <path d="M233.99 275.61c0-.337.2-.638.545-.638.344 0 .765.202.765.539 0 .34-.342.711-.687.711a.618.618 0 0 1-081A578AC3" fill="#04534e"/>
  <path d="M231.137 269.479c0 .332-.139.51-.468.51-.33 0-.727-.178-.727-.51 0-.336.152-.438.48-.438.33 0 .715.10FFF4F8A95" fill="#8cbebf"/>
  <path d="M235.55 273.538s.648-.211 1.14-.16c.494.053.521.238.521.316 0 .08-.39.24-.571.184-.183-.05-1.09-.34-03F6971A2B" fill="#231f20"/>
  <path d="M230.826 273.245s.857-.236 1.246-.236c.39 0 .494.027.546.211.052.183-.087.263-.407.245-.32-.018-1.380C4BECCA29" fill="#231f20"/>
  <path d="M227.955 274.647c.043-.043.363-.527.7-.64.338-.114.727-.096.796.077.07.176-.293.44-.535.493-.243.052077BC77AD6" fill="#231f20"/>
  <path d="M240.066 274.983s-1.92 1.634-6.256 1.476c-4.337-.159-8.258-2.003-9.243-4.031l.389 1 .96 1.291 3.039 078997CA00" fill="#04534e"/>
  <path d="M240.822 269.082s1.09.422 1.273.686c.182.262.415.5.415.5s-.285.71-.545.422c-.26-.291-.312-.291-.598-0CC5392A00" fill="#231f20"/>
  <path d="M245.083 267.138s.959.713 1.115 1.027c.156.317.468.737.156.842-.312.106-.753-.367-.882-.656-.13-.292038F969A09" fill="#231f20"/>
  <path d="M253.39 282.492s.586-.712.721-1.109c.13-.393.208-.841-.058-.816-.265.025-.588.396-.604.687a68.318 68.318 0 0 0-.059 1.238z" fill="#231f20"/>
  <path d="M239.883 275.3c.038-1.952 2.804-6.454 5.997-6.402 1.33.023 3.936.715 6.05 1.66 1.763.79 2.337 1.662 04AB906AD7" fill="#8cbebf" stroke="#04534e" stroke-width=".427"/>
  <path d="M239.883 275.3l.208.003c.006-.438.176-1.062.48-1.734.454-1.01 1.209-2.139 2.132-3.003.924-.864 2.00809915A3ADD" fill="#04534e"/>
  <path d="M259.175 275.909c-.337.264-.7.264-1.116.264-.418 0-9.27-5.4-12.022-5.164-2.75.236-5.373 1.423-5.451 02EBE26AE2" fill="#0c8489"/>
  <path d="M245.186 274.47c0 .553-.213.94-.752.94-.537 0-.938-.244-.938-.797 0-.55.305-.757.843-.757s.847.062.80F09122AD8" fill="#04534e"/>
  <path d="M245.156 274.355c0 .434-.373.79-.832.79-.46 0-.83-.356-.83-.79 0-.437.368-.61.826-.61.46 0 .836.173.06B2A40AD9" fill="#8cbebf"/>
  <path d="M250.142 275.39c0 .557-.214.943-.752.943s-.94-.245-.94-.798c0-.552.306-.756.844-.756s.848.062.848.612z" fill="#04534e"/>
  <path d="M246.43 277.75c0 .438-.373.79-.832.79-.458 0-.83-.352-.83-.79 0-.433.527-.656.987-.656.458 0 .675.220366B59A56" fill="#8cbebf"/>
  <path d="M251.806 275.958s1.32-.133 1.555.105c.236.237.209.578.104.684-.104.106-.624.132-.752-.05-.13-.187-.909EDE03AA7" fill="#231f20"/>
  <path d="M246.978 274.653s1.324.172 1.649.421c.325.252.558.265.532.461-.025.199-.168.345-.376.317-.208-.027-.001FC29A0E" fill="#231f20"/>
  <path d="M242.267 274.434s.795-.176 1.177-.176c.38 0 .928-.132.934.176.006.309-.466.367-.748.278-.277-.094-1.01EC608AE3" fill="#231f20"/>
  <path d="M258.09 277.293s-1.323 1.592-3.168 2.384c-1.843.79-3.245 1.052-5.816.894-2.57-.158-3.816-.553-5.556-0A99ED1AF7" fill="#04534e"/>
  <path d="M256.554 288.337c.144.383.477.731.895.74.42.013 1.3-.015 1.3-.015l2.843-.17 1-1.147.61-2.569s.768-.902A03DBA30" fill="#0c8489" stroke="#04534e" stroke-width=".427"/>
  <path d="M257.742 287.356c.84 0 .192-1.39 1.144-3.04.953-1.648 2.112-3.653 2.406-3.653.294 0 .343.3.69.196.340460D6BABC" fill="#8cbebf"/>
  <path d="M260.632 283.552c-.227.018-.555.247-.658.377-.105.133-.25.415-.156.721.095.307.544.606.58.641l.36-.00A141B6A25" fill="#8cbebf"/>
  <path d="M261.802 284.406s.06.508-.307.772c-.367.263-.6.236-.813.236-.21 0-.44-.043-.594-.254-.155-.212-.27-.00BD139A66" fill="#04534e"/>
  <path d="M257.377 288.88s4.213-.072 4.552-.652c.336-.578-.365-2.844 2.18-4.634 2.543-1.79 4.519-1.766 5.868-1012A91BAB3" fill="#04534e"/>
  <path d="M259.15 280.675c-.214.172-.53.162-.599-.08-.194-.69.217-1.71.217-1.71s-.01 1.069.07 1.245c.079.176.2012A3DCABA" fill="#231f20"/>
  <path d="M262.722 283.23s-.376.435-.806.672c-.426.235-.892.59-1.155.513-.258-.08.166-.64.312-.699.728-.289 1.02EC1DDA44" fill="#231f20"/>
  <path d="M267.653 279.883s-.336-.314-.935-.46c-.595-.146-.869-.012-.933.159-.066.17-.507.441-.286.572.22.13.405EE1A6ABD" fill="#231f20"/>
  <ellipse cx="272.657" cy="229.222" rx="2.297" ry="3.432" transform="rotate(8.667)" fill="url(#b)"/>
  <path d="M236.287 261.536l-1.366 3.415 1.116-.155.644-3.006z" fill="#fcca3e" stroke="#aa8c30" stroke-width=".213"/>
  <path d="M236.921 260.086c-.486-.062-.933.309-.996.83-.063.517.28.985.766 1.048.487.06.932-.311.996-.828.063-.519-.278-.987-.766-1.05z" fill="#fcca3e" stroke="#aa8c30" stroke-width=".183"/>
  <path d="M295.752 268.62l-3.366 3.156 1.389.353 2.31-3.041z" fill="#fcca3e" stroke="#aa8c30" stroke-width=".213"/>
  <path d="M297.252 267.315c-.54-.298-1.252-.095-1.595.453-.345.545-.185 1.23.353 1.526.539.298 1.252.095 1.596-.452.343-.546.185-1.23-.354-1.527z" fill="#fcca3e" stroke="#aa8c30" stroke-width=".183"/>
  <path d="M210.212 250.394l1.775 3.913.765-1.089-2.01-2.962z" fill="#fcca3e" stroke="#aa8c30" stroke-width=".213"/>
  <path d="M209.499 248.688c-.441.373-.487 1.055-.102 1.523.384.474 1.054.552 1.495.18.44-.37.487-1.055.102-1.524-.385-.47-1.053-.551-1.495-.18z" fill="#fcca3e" stroke="#aa8c30" stroke-width=".183"/>
  <path d="M237.256 260.214s.275.148-.042.05c-.319-.096-1.072.27-1.073.802 0 .532.394.828.793.832.399.004-.148.0971B36A58" fill="#aa8c30"/>
  <path d="M236.488 262.512s-.217-.045-.414.248c-.195.292-.593.844-.593.844l.763-1.878.416.217-.172.569zm61.09203CA2EDAFE" fill="#aa8c30"/>
  <path d="M295.484 269.808s-.233-.155-.615.08c-.38.234-1.132.66-1.132.66l1.866-1.731.375.438-.494.553zm-85.6080F92E70A4F" fill="#aa8c30"/>
  <path d="M211.193 251.004s-.212.154-.124.555c.091.406.236 1.19.236 1.19l-.969-2.162.516-.188.341.605z" fill="#aa8c30"/>
  <ellipse cx="327.082" cy="-73.307" rx="3.694" ry="2.486" transform="rotate(62.907)" fill="url(#c)"/>
  <path d="M210.072 256.971s.76.176 1.175-.035c.416-.211.486-.528.589-.63.104-.106.209-.492.174-.739-.035-.246-0CD496EADD" fill="#e92736"/>
  <path d="M211.2 254.509c.09.182.518.753.692.824.173.071.692.09.866.02.173-.07.726-.598.744-.827.017-.228 0-.4002E190AAE" fill="#e92736"/>
  <path d="M215.387 254.04c.103-.28.069-1.195-.121-1.389-.19-.193-.503-.209-.52-.333-.017-.122.225-.176.225-.3802584B6A42" fill="#e92736"/>
  <path d="M235.068 263.597c-.06.163-.16.77-.102.921.06.149.352.488.496.555.145.07.792.112.942-.01a.962.962 0 006D3844ADE" fill="#e92736"/>
  <path d="M237.81 265.968c.235-.099.776-.655.783-.889.007-.233-.164-.44-.1-.522.065-.084.24.038.37-.086.129-.107D6761A32" fill="#e92736"/>
  <path d="M292.729 270.813c-.13.096-.513.502-.543.64-.03.139.032.525.112.641.08.117.57.442.752.42a.977.977 0 00149818AAA" fill="#e92736"/>
  <path d="M293.156 273.788c.222.085.949.082 1.11-.057.158-.137.18-.371.278-.38.098-.01.133.174.302.18.168.004 011FB10A2B" fill="#e92736"/>
  <path d="M211.333 255.27c.17.255-.055.867-.193 1.04-.138.173-1.06-.079-1.074-.25-.015-.173-.081-.462.04-.624.08689EBAD5" fill="#f7e204"/>
  <ellipse cx="398.299" cy="-31.416" rx="1.791" ry="3.573" transform="rotate(47.855)" fill="url(#d)"/>
  <path d="M228.644 223.435s-3.064.263-5.193-.105c-2.129-.37-1.662-5.795-1.714-5.953-.051-.158-1.298-1.475-1.090BF00AAADE" fill="#a8ac71"/>
  <path d="M227.76 214.091c1.35-.315.571-3.834.571-3.834l-.934.778s.578.751.578 1.56c0 .808-.215 1.496-.215 1.496z" fill="#f1a720"/>
  <path d="M230.222 249.187s-.626-.514-.688-.556c-.482-.321-2.594-2.029-2.256-7.105.381-5.743 8.731-8.763 9.2760BF20BBAAC" fill="#a8ac71"/>
  <path d="M226.15 252.4l.468 2.16-1.324.486-.57-.025-.416.183-1.025.99-.26-.082s-.156.055-.208-.578a16.67 16.6042DC7DAA7" fill="#78732e"/>
  <path d="M221.268 213.658c-.139.51-.329 1.44.381 1.616.385.095 1.907-.031 3.635-2.002.831-.948.847-1.88.847-10EFEF2AAF2" fill="#c6c7a6"/>
  <ellipse ry=".324" rx=".306" cy="210.89" cx="225.993" fill="#1c242f"/>
  <path d="M223.792 211.214c-.738.576-1.428 1.318-1.428 1.318s1.167-.33 2.096-1.174c.527-.478 1.555-.665 2.096-07C417EA37" fill="#a8ac71"/>
  <path d="M227.303 243.598s-.051-.243-.084-.85c-.033-.605.036-.909.036-.909l-.692.601-.662.922 1.025.367.377-.0B6543EAA2" fill="#78732e"/>
  <path d="M229.85 236.93l1.545-1.567-2.569-.736.469 1.805zm1.08-4.145l.155-2.66s-.523.245-1.186.798c-.661.552-0DF7A87ABA" fill="#78732e"/>
  <path d="M233.435 227.811s.584-.706.622-1.114c.04-.408.035-.281.035-.281l1.559.026.934.078.116.094-.7.829-.960BFC823A33" fill="#78732e"/>
  <path d="M217.313 241.757l-.298.63s1.038-.538 1.843-.51c.804.025 1.7 1.027 1.7 1.027l.195-.728s-1.064-1.039-104F52C6AB6" fill="#fff"/>
  <path d="M228.162 219.589l-1.993.053.572 1.491zm-2.346-.079s-.29-.184-.429-.343a1.193 1.193 0 0 0-.246-.224l-041E1DBA68" fill="#78732e"/>
  <path d="M229.735 255.362l-.016.012c-.085.05-.484.273-1 .273-.412-.002-.899-.136-1.391-.621-.602-.594-.778-1.022A63EA29" fill="#78732e"/>
  <path d="M237.086 249.26s1.395.33 1.344 1.462c-.052 1.133-.675 2.711-.675 2.711l-1.922-1.738 1.082-.957.398-.569-.227-.908z" fill="#a8ac71"/>
  <path d="M213.095 235.632s-1.376.473-1.661-.132c-.286-.606-.156-1.08-.182-1.211-.027-.132-.832-.185-.753-.9750B9785CA4B" fill="#f8c83c" stroke="#977c2e" stroke-width=".213"/>
  <path d="M214.625 236.003s-1.168.608-1.532.027c-.364-.58 0-1.318-.13-1.45-.13-.13-.83-.368-.701-1.052.13-.685046897AA14" fill="#f8c83c" stroke="#977c2e" stroke-width=".213"/>
  <path d="M216.6 236.266s-.339.738-1.169.577c-.831-.155-.571-1.368-.702-1.58-.129-.209-.726-.368-.623-1.131.100A26BE1A67" fill="#f8c83c" stroke="#977c2e" stroke-width=".213"/>
  <path d="M234.977 248.986s-1.038-1.14-1.766-2.14c-.727-1.003-1.852-2.146-1.852-2.146l-1.782-.894-1.125-1.88-.0DE95E8A7B" fill="#af7029"/>
  <path d="M233.27 225.367c.35.011.525.128.63.275.106.149.14.348.138.518a1.6 1.6 0 0 1-.018.236l-.012.068-.005.00635ABA1B" fill="#816c2a"/>
  <path d="M238.25 250.144s-.875 1.604-1.098 1.62c-.222.017.758.254.98.632l-.21.391s-.968-.689-1.576-.718l-.05407BBF52AF7" fill="#fff"/>
  <path d="M241.663 251.199l-2.181.598-1.112-.696s.091-.908-.403-1.297c-.508-.403-.81-.52-1.252-.706-.442-.184-0F721B9A01" fill="#fcca3d"/>
  <path d="M241.748 251.059s-.78.23-1.765.21c-.988-.014-1.615-.167-1.615-.167s.056.062-.152.713c-.207.65-.398 1090FD14A88" fill="#af7029"/>
  <path d="M241.17 249.974l.094.993.406.119-.01-.894zm-1.957-23.948l-.243-1.747-.683-1.159-.866-1.186-.926-1.0104513FEA5E" fill="#fcca3d"/>
  <path d="M237.006 227.952c-.032 1.78-.338 2.626-.574 3.02l1.38-1.581.992-1.786c-.446-.436-1.23-1.072-2.236-1.375.278.572.448 1.154.438 1.722z" fill="#af7029"/>
  <path d="M240.219 254.307c-.002-.002-.642-.8-1.119-1.267-.486-.473-1.049-.733-1.056-.737l-.103.23.088.046c.170D0961BABF" fill="#816c2a"/>
  <path d="M241.56 252.394s-.209.77-.987 1.472c-.78.703-1.766 1.178-1.766 1.178l2.232.825 1.49-1.386-.97-2.09z" fill="#6f5b24"/>
  <path d="M241.889 254.247l-.137.263-.42.406-.328.35.556-2.316.397.683.052.37z" fill="#404118"/>
  <path d="M228.644 223.435s-3.064.263-5.193-.105c-2.129-.37-1.662-5.795-1.714-5.953-.051-.158-1.298-1.475-1.090663F72A37" fill="none" stroke="#78732e" stroke-width=".183"/>
  <path d="M254.926 200.48s-5.611-1.059-5.519 3.613c.03 1.474.357 1.985 1.543 2.318 1.187.33 3.563.451 5.58 2.20BB756DAC7" fill="#ab6d29" stroke="#4d2a15" stroke-width=".311"/>
  <path d="M260.497 223.965s1.955-.738 2.458-2.318c.138-.434-1.974-2.335-2.025-2.335-.05 0 1.073.544 1.593 1.010792211AE5" fill="#4d2a15"/>
  <path d="M254.762 202.68s-.209-.605-.209-1.369.13-.738.13-.738-2.102-.29-3.635.922c-1.53 1.212-.65 3.318-.65 08573CCA76" fill="#d2a567"/>
  <path d="M261.339 224.703l-1.421.492.866 5.97 5.676 9.728 2.978-.525 1.004-1.792.797.352c.343.351 1.454 2.2470D545F6A25" fill="#8f4620"/>
  <path d="M267.038 238.557s.95 1.616 2.3.37c1.353-1.247-.589-4.795-.569-5.006.017-.21.622-.28.622-.28l.988 1.807D4463A01" fill="#ab6d29"/>
  <path d="M300.196 259.39l-1.22-3.61s-.362-2.317-.362-2.791c0-.475-.235-6.349-.34-7.454-.103-1.105-.05-2.372-.0AE0022A95" fill="#4d2a15"/>
  <path d="M300.208 248.95s.682-.812.98-1.928c.298-1.113.415-9.872-.621-10.956-1.04-1.084-3.16-1.938-3.266-1.860EB8CECA5D" fill="#8f4620"/>
  <path d="M295.423 254.448s.446-4.144.238-7.18c-.206-3.033-.458-3.412-.746-3.961a25.801 25.801 0 0 1-2.038-5.00C1BF8FAEF" fill="#4d2a15"/>
  <path d="M290.925 252.814s.659-1.454.555-3.299c-.105-1.844-.986-6.287-1.263-6.85-.278-.563-1.591-1.403-2.77-3096ED9DA1B" fill="#4d2a15"/>
  <path d="M263.594 232.157s2.18 1.95 3.376.053c1.195-1.897.26-4.082.26-4.082s3.078 4.54 3.946.289c.156-.764-1.0644468AC6" fill="#4d2a15"/>
  <path d="M279.051 240.715s-.55-1.368-1.727-2.282c-1.18-.915-3.049-.984-3.049-.984l3.201 3.39 1.575-.124zm4.48082EE71A3C" fill="#ab6d29"/>
  <path d="M272.286 237.479s1.584-.343 1.584-.896c0-.553-1.893-1.66-1.738-2.555.075-.448 1.609.079 1.714-.238.10011469A1F" fill="#d2a567"/>
  <path d="M279.557 231.523s3.713.923 3.869.66c.156-.264-2.96-3.163-2.96-3.163s-.208-.525-.156-.71c.052-.183 1.02DC2E7A23" fill="#d2a567"/>
  <path d="M274.736 217.133s3.109.877 3.011-1.09c-.053-1.106-3.045-3.652-3.235-4.073-.19-.422-.139-1.001-.139-104FAABDA08" fill="#d2a567"/>
  <path d="M278.582 235.077s.017 1.88.985 3.021c.971 1.143 3.255 3.231 3.707 3.653.45.42.83 2.739 1.506 4.671.60C9D0D6A4A" fill="#202020"/>
  <path d="M283.72 247.456c-.675-1.387-.796-2.616-1.004-3.442-.208-.825-2.891-3.07-3.533-3.371-.485-.227-1.496.0FD0310A81" fill="#202020"/>
  <path d="M284.537 230.81s1.177.914 1.834 1.194c.658.28 1.61.333 1.61.333s-.24 3.32 1.058 5.48c1.298 2.16 2.6409D9AAAA46" fill="#202020"/>
  <path d="M288.084 228.988s1.04 1.158 2.49 2.019c1.457.86 2.183.598 2.409.773.225.176-.295 3.125 1.23 5.847 1.0B81160ADC" fill="#202020"/>
  <path d="M293.796 230.432c.07-.24.792 1.35 3.05 2.247 2.26.895 4.415.737 4.701.973.286.238 1.715 3.637 1.765 02644E2A30" fill="#202020"/>
  <path d="M301.555 233.657s1.27-.078 1.427-.342c.156-.264-.468-.08-1.61-1.316-1.142-1.24-4.058-9.686-7.244-13.0C808E0AA7" fill="#202020"/>
  <path d="M283.988 208.002s.131-.513.379-.777c.246-.264 1.248-1.37.87-1.594-.377-.223-1.649.186-2.453.118-.80609C743FA39" fill="#202020"/>
  <path d="M263.947 217.779s-.307-.507-1.291-1.14a7.89 7.89 0 0 0-1.976-.895l2.285.58c.675.578.982 1.455.982 1.0B6FF93A61" fill="#d2a567"/>
  <path d="M243.583 254.728s.71 1.247 2.112 1.3c1.402.052 2.492 2.054 2.492 2.054l-1.54 1.51-3.704.175-1.193-1.04A8E7CAC5" fill="#f8c83c" stroke="#977c2e" stroke-width=".213"/>
  <path d="M243.004 257.093s.659.329 1.178.177c.52-.153.98-.68.98-.68m-2.828-.423s2.078-1.51 1.905-2.317c-.174-0D44F28A93" fill="#f8c83c" stroke="#977c2e" stroke-width=".213"/>
  <path d="M240.865 257.203s.38 1.002 1.055 1.002c.675 0 1.645-.545 1.661-.947.018-.407-.675-1.144-1.125-1.353-.45-.21-1.488.333-1.488.333l-.103.965z" fill="#f8c83c" stroke="#977c2e" stroke-width=".213"/>
  <path d="M242.754 255.837c-.103.314-1.42.93-1.852.965-.432.035-1.315-1.071-.953-1.23.365-.158.816-.142 1.143-06FF749AA1" fill="#f8c83c" stroke="#977c2e" stroke-width=".213"/>
  <path d="M241.401 256.709s-2.04 2.759-2.89 2.619c-.848-.14.347-3.917.347-3.917s.33.212 1.004.424c.675.209 1.35.455 1.54.874z" fill="#f8c83c" stroke="#977c2e" stroke-width=".213"/>
  <path d="M237.768 254.746s2.632.456 2.753.879c.121.42-1.264.983-2.008.983-.745 0-.745-1.862-.745-1.862z" fill="#f8c83c" stroke="#977c2e" stroke-width=".213"/>
  <path d="M231.222 258.733s.348 1.265 1.49 1.335c1.142.07 2.215-1.195 2.215-1.195l-2.7-1.053-1.005.913z" fill="#202220"/>
  <path d="M231.222 258.733l-.059.017c0 .006.09.326.326.662.234.333.624.684 1.22.719l.095.004c1.151-.007 2.164-03BDC20A81" fill="#4b4139"/>
  <path d="M231.984 258.38s.449.95 1.938.985c1.489.034 2.666-1.195 2.666-1.195l-2.354-1.861-2.25 2.07z" fill="#202220"/>
  <path d="M231.984 258.38l-.055.027c.002.011.474.985 1.992 1.02h.065c1.493-.001 2.642-1.21 2.647-1.212l.049-.0072E96BAF2" fill="#4b4139"/>
  <path d="M232.185 258.599s.658.544 1.437.587c.779.044 1.748-.201 1.748-.201l-.892.323-.64.071-.605-.096-.545-.203-.425-.316-.078-.165z" fill="#4b4139"/>
  <path d="M233.922 257.288s.658 1.617 2.043 1.441c1.384-.177 1.418-.983 1.418-.983l-1.557-2.249-1.904 1.791z" fill="#202220"/>
  <path d="M233.922 257.288l-.057.026c.002.004.15.372.46.742.31.372.785.75 1.43.75.071 0 .144-.006.217-.015.7040121800A66" fill="#4b4139"/>
  <path d="M234.117 257.605s.83 1.01 1.559.994c.725-.018 1.185-.293 1.185-.293l.034.116-.381.193-.658.134-.675-03DA738AE3" fill="#4b4139"/>
  <path d="M237.61 254.606c.623-.087 1.92 1.687 1.92 2.564 0 .878-.38 2.196-1.02 2.16-.642-.035-2.095-1.335-2.40C0B2DFAB9" fill="#f8c83c" stroke="#977c2e" stroke-width=".213"/>
  <path d="M231.015 255.746s-1.385.142-1.385.774c0 .633.658 1.3.796 1.44.137.14 1.384-.563 1.384-.563l-.795-1.651z" fill="#f8c83c" stroke="#977c2e" stroke-width=".213"/>
  <path d="M231.57 256.904s-1.42.422-1.42.913c0 .489.622 1.405 1.071 1.405.452 0 .799-.88.97-1.054.175-.176-.620F4ECBDABE" fill="#f8c83c" stroke="#977c2e" stroke-width=".213"/>
  <path d="M232.435 254.448s-1.834.597-1.903 1.298c-.07.704.415 1.407.9 1.545.485.142 2.042-1.369 2.042-1.369l-1.039-1.474z" fill="#f8c83c" stroke="#977c2e" stroke-width=".213"/>
  <path d="M234.026 257.367s-1.8 1.191-2.043 1.191c-.242 0-.9-.948-.763-1.579.14-.632 1.351-1.088 1.836-1.265.40303ECFADD" fill="#f8c83c" stroke="#977c2e" stroke-width=".213"/>
  <path d="M233.398 256.227c-.753-.08-1.428-1.16-1.299-1.816.13-.66 1.61-1.794 2.39-1.66.777.13.621 2.081.621 2.081s-.96 1.474-1.712 1.396z" fill="#f8c83c" stroke="#977c2e" stroke-width=".213"/>
  <path d="M235.793 256.063s-.38.88-1.142 1.266c-.762.385-1.211.068-1.662-.563-.45-.633.208-.914.555-1.23.345-.314 1.35-.562 1.35-.562l.9 1.089z" fill="#f8c83c" stroke="#977c2e" stroke-width=".213"/>
  <path d="M234.58 253.747s-.848.683-.362 1.475c.484.791.865 1.07 1.47 1.175.607.107 1.003-.14 1.49-.72.484-.580B776B8A22" fill="#f8c83c" stroke="#977c2e" stroke-width=".213"/>
  <path d="M236.994 250.358s-.875-.336-1.551.06c-.675.395-1.142 1.2-1.167 1.935-.027.739.131 1.772.131 1.772s.90B7D48FAAE" fill="#202220"/>
  <path d="M236.994 250.358s-1.011-.171-1.517.158c-.506.328-.935.817-1.117 1.475-.183.66-.052.83-.052.83s-.095-0E93D06A78" fill="#4b4139"/>
  <path d="M263.057 269.552s.731-.308 1.237-.585c.507-.278 1.598-.99 1.598-.99l.35 1.82-1.402 1.08-1.221.012-.738-.538.176-.8z" fill="#f8c83c" stroke="#977c2e" stroke-width=".213"/>
  <path d="M261.1 269.735s.02.023.874.042c.85.022.933-.297 1.084-.223.15.073.39.982.39.982l-.311.57-1.228.695-10C6E48AAD3" fill="#f8c83c" stroke="#977c2e" stroke-width=".213"/>
  <path d="M261.1 269.735s-.27-.4-1.04-.315c-.765.084-1.577.71-1.659 1.241-.085.53 0 2.067.415 2.362.414.295.93077C33EAF3" fill="#f8c83c" stroke="#977c2e" stroke-width=".213"/>
  <path d="M263.929 271.1s-.624.238-.86.41c-.232.17-1.07.465-1.07.465l.32 1.285 1.803.461 1.13-.934.013-1.293-107C555BA87" fill="#f8c83c" stroke="#977c2e" stroke-width=".213"/>
  <path d="M266.123 269.558s-.805.367-1.195.697c-.39.33-.999.698-.999.843 0 .143.91 1.086.91 1.086l.92.075 2-1.030C88CA87" fill="#f8c83c" stroke="#977c2e" stroke-width=".213"/>
  <path d="M270.422 272.613l.909.156s-.027.239.235.45c.258.21.285.05.285.05s.13.871 1.09 1.607c0 0 1.117.37 1.687.054.573-.317.493.097.493.097l1.61-1.993s0-.397-.389-.422c0 0 .284-1.238-.754-1.502-1.036-.264-1.87.105-1.87.105s-.796 1.461-1.27 1.264a1.889 1.889 0 0 1-.572-.394c-.439-.476-.572-.71-.572-.71s-.336.104-.725-.16c-.392-.263-.726-.896-.726-.896s-.598-.106-.805-.315c-.208-.21-.424-.627-.424-.627l-1.486 1.068s-.047.472-.913 1.104c-.865.635-1.384.635-1.384.635s-.241 1.297-1.212 1.085c-.969-.21-1.627-1.297-1.627-1.297s-.693-.105-1.143.49c-.45.598-.66.81-.66 1.406 0 .597.382 1.439.694 1.72.313.28 1.283 1.053 2.423.456 1.144-.596.763-1.58.763-1.58s-.035.071.657-.386c.692-.458 1.453-1.159 1.974-1.369" fill="#f8c83c" stroke="#977c2e" stroke-width=".213" stroke-linecap="round" stroke-linejoin="round"/>
  <path d="M268.647 264.67l.008 2.547s.31 2.265-.184 2.976c-.492.712-2.285.553-2.542-.053-.26-.605-.13-2.58-.13-2.58l2.848-2.89z" fill="#f8c83c" stroke="#977c2e" stroke-width=".213"/>
  <path d="M266.635 272.392s-.381.675.798.772c.334.03.558-.09.708-.262.304-.352.238-.644.238-.644s-.104.941.956.976c1.179.043 1.074-1.088 1.074-1.088" fill="#f8c83c" stroke="#977c2e" stroke-width=".213" stroke-linecap="round" stroke-linejoin="round"/>
  <path d="M256.944 274.483s-.656-1.109.123-1.511c.778-.404 1.194.018 1.66.035.467.019.315-1.198.212-1.444-.10507B2B89A66" fill="#202220"/>
  <path d="M260.979 278.61s-2.181-.482-2.162-2.614c.01-1.422 1.594-2.055 1.594-2.055s-1.465.778-1.49 2.028c-.0402E2ED2A61" fill="#4b4139"/>
  <path d="M242.102 217.888l-.527-.108.38-.881 1.474-.538 1.47-.06 1.548-.062.712.491.794 1.835-2.934 1.748-.475.159-.182-.723-.449-1.184z" fill="#904720"/>
  <path d="M269.537 260.384l-.182-4.4-11.867 3.661 4.699 4.398z" fill="#202020"/>
  <path d="M247.563 252.723l-.998-.783s-.716-.506-1.115-.628c-.397-.124-.908-.026-.908-.026l-.163.234.155.407 10547C66A20" fill="#d2a567"/>
  <path d="M249.782 257.751l.634-.053.43-.366-.202-1.438.234-4.609-3.122-3.692-.638 2.128.918 3.731.676 2.237z" fill="#d2a567"/>
  <path d="M247.545 249.322s-.206.385.052 1.595c.26 1.211.71 3.918 1.783 5.762 1.073 1.841-1.037-1.457-1.037-1.0E5471CA99" fill="#ab6d29"/>
  <path d="M249.812 251.656s-.674.88-.778 1.529c-.104.648.052 1.755.052 1.755s-.104-.84.588-1.037c.692-.191.605003DCA8A9F" fill="#ab6d29"/>
  <path d="M243.364 257.788c.13-.211.234.492 1.445.65 1.213.157 1.766-.211 1.766-.211l.536.352.64.14-.588.878-2.215-.652-1.194-.665-.39-.492z" fill="#d2a567"/>
  <path d="M251.257 256.197l.624.894.387-1.946-.026-2.03-1.271-.84z" fill="#ab6d29"/>
  <path d="M247.752 252.912l-1.038-1.74-1.35-2.474.83-1.423 1.013 1.473s-.286 1.002-.104 1.95c.182.95.65 2.214.65 2.214z" fill="#4d2a15"/>
  <path d="M240.64 259.232s.449-.748 1.506-.833c1.055-.09 1.903.141 1.903.141l2.146 1.12.433.705-4.05-.543-1.939-.59z" fill="#d2a567"/>
  <path d="M251.178 252.07s.077 2.422.154 3.187c.078.763.547 1.5.47 1.816-.08.317-.235.475-.755.659-.52.184-1.5015A7FCA4C" fill="#8f4620"/>
  <path d="M243.772 258.434s-.414-.387-.406-.65c.009-.265.485 1.271 2.708 1.186 2.225-.088 2.095-.126 2.095-.120C1CD67A76" fill="#ab6d29"/>
  <path d="M247.752 252.912s-2.57-2.662-3.426-4.425c-.858-1.767-.338-4.19-.338-4.19l2.415 3.161s-.312.607-.21 1.607c.105 1.002 1.56 3.846 1.56 3.846z" fill="#8f4620"/>
  <path d="M246.107 262.603c-.086-.184-.183-.769.311-1.387 1.527-1.905 5.392-3.274 5.392-3.274l.004 2.33-4.96 2.384-.748-.053z" fill="#ab6d29"/>
  <path d="M246.4 260.842c.215-.155 1.08-.796 1.11-1.073.035-.314-.588-.368-1.713-.596a8.025 8.025 0 0 1-2.042-099EDFBA92" fill="#8f4620"/>
  <path d="M253.037 261.384s-.855-.299-1.464-3.869c-.61-3.566-.431-4.528-.431-4.528l1.444 1.008 1.294 2.352-.843 5.037z" fill="#ab6d29"/>
  <path d="M253.5 255.447s-.674 2.001-.674 3.162c0 1.157-.12 1.945.212 2.77.331.82 1.467 1.843 1.467 1.843l.518-.542.233-1.618.131-2.688-1.887-2.927z" fill="#8f4620"/>
  <path d="M255.53 258.166s.327 5.038-.948 5.176c-.61.067-1.533-1.897-1.544-1.961-.014-.066 1.11 1.828 1.53 1.601390BFA87" fill="#202020"/>
  <path d="M248.039 254.966s.423.362.908 1.344c.485.981.83 1.669.83 1.669l.122-.125s-.33-.946-.779-1.685c-.45-.739-1.749-2.529-1.749-2.529l.668 1.326z" fill="#ab6d29"/>
  <path d="M246.405 261.22s.277-.943 0-1.118c-.277-.175-.538.015-2.37-.211a27.245 27.245 0 0 1-3.394-.66s1.245.0C110B5AB9" fill="#8f4620"/>
  <path d="M246.405 261.22s.038-.223-.17-.449c-.207-.224-.584.107-2.804-.514-2.22-.616-2.79-1.025-2.79-1.025s.791.698 2.751 1.199c1.961.5 3.013.788 3.013.788z" fill="#202020"/>
  <path d="M247.405 254.582s-1.68.091-2.22.524c-.538.436-1.28 1.588-1.28 1.588l1.091.126s-.136-1.014.384-1.521c.52-.507 1.305-.553 2.025-.717z" fill="#ab6d29"/>
  <path d="M244.223 251.388s.675.894 1.376 1.21c.702.317 1.402.58 1.74.922.337.342.702 1.448.702 1.448s-2.416-10D0C74DA4F" fill="#8f4620"/>
  <path d="M246.564 251.943s-.22-.361-.883-.665c-.661-.303-1.149-.255-1.337-.118-.188.138-.123.225-.123.225l.880FA8CECA2E" fill="#8f4620"/>
  <path d="M253.073 248.901l13.516-6.98 6.397 8.904-11.682 3.13-6.182.528-3.011-2.184z" fill="#202020"/>
  <path d="M271.195 252.717l16.849 14.592-1.867 1.283-3.948-1.125-8.205-8.11-3.037-3.057z" fill="#4d2a15"/>
  <path d="M292.772 264.42s-4.185-3.3-9.623-7.338c-5.437-4.04-12.16-9.132-12.16-9.132l.311 4.355 13.908 12.783 4.588 2.211 2.32-.701 1.177-1.23-.521-.95z" fill="#4d2a15"/>
  <path d="M271.146 254.1s4.853 5.477 8.543 8.27c3.685 2.791 7.217 5.846 7.943 5.424.727-.422.467-.894.467-.894l-17.057-13.908.103 1.108z" fill="#803f1d"/>
  <path d="M283.062 268.101l-1.714 1.333-1.97-.805-10.362-10.59.52-1.95 1.45.211z" fill="#4d2a15"/>
  <path d="M292.772 264.42s-1.27 2.995-3.97 2.294c-2.701-.704-17.571-14.83-17.571-14.83l-.035 1.474s15.07 13.80004198EA54" fill="#202020"/>
  <path d="M269.482 256.313s4.804 6.163 7.349 8.428c2.546 2.266 4.726 4.055 5.765 3.847 1.037-.212-.623-1.37-.623-1.37l-7.271-7.165-3.713-3.74s-1.453-.58-1.507 0z" fill="#803f1d"/>
  <path d="M270.676 256.313s12.198 12.432 13.163 12.714c2.045.597 4.952-1.512 4.952-1.512l-1.073-.63-.14.384s-.0D53E05AD0" fill="#202020"/>
  <path d="M275.272 268.21l-4.439-5.11-.985-1.685-.264-2.161 8.856 8.904-1.245.841-1.093-.366z" fill="#4d2a15"/>
  <path d="M283.294 268.387s-1.075 1.581-2.53 1.265a4.294 4.294 0 0 1-2.283-1.369l-8.49-8.314-.208-1.267s9.314 030D41FAF7" fill="#202020"/>
  <path d="M278.582 268.107s-.416 1.23-1.66 1.055c-1.249-.176-1.629-.668-1.629-.668l-5.2-6.18-.104-1.65s5.407 70A6FFCFABD" fill="#202020"/>
  <path d="M273.023 251.9s5.037 4.32 5.454 4.53c.415.212 2.18.265 2.282.526.104.265-1.139 0-1.244.265-.103.263 0A055A0AD1" fill="#b07229"/>
  <path d="M264.386 265.882s.04 1.909-.818 2.187c-.856.278-2.478-3.505-2.478-3.505l-.377-3.528 2.519 2.344 1.150F837A8ABC" fill="#4d2a15"/>
  <path d="M269.403 268.247c.297-.09-.277-2.703-.277-2.703l-1.556-3.865-.416-1.368-1.263-.477-.832.951.19 1.5280943331AAE" fill="#4d2a15"/>
  <path d="M268.007 260.05c.452.314.97 1.35 1.09 2.052 0 0 1.04 2.844.901 3.126-.139.282-.763.317-.763.317s1.380EC08D5ABF" fill="#202020"/>
  <path d="M268.007 259.434s-.208 1.914.502 3.88c.71 1.968.899 2.039 1.038 2.319.138.28.124 2.353-.14 2.615 0 0006CD73AA0" fill="#202020"/>
  <path d="M267.495 269.625c.155-.032.06-.813.06-.813l-.224-1.843-1.896-3.893-2.079-1.87-1.09-1.685-.155 3.215s0F67356A12" fill="#4d2a15"/>
  <path d="M259.736 260.854s.325.862.325 1.426v1.088s.76 1.545 1.454 2.776c.693 1.226 1.35 2.493 1.937 2.212.5908D3E19AFC" fill="#202020"/>
  <path d="M261.93 262.646s.362 1.104 1.072 2.158c.71 1.055 1.874 2.32 1.874 2.32s-1.286-1.265-1.96-2.249c-.675-.984-1.125-2.267-1.125-2.267l.139.038z" fill="#5c3a1d"/>
  <path d="M265.63 261.335s.342-.955.64-1.002c.296-.044.921-.232.921-.232s-.535-.132-.964-.633c-.45-.531-.554-.0A6CA45A02" fill="#202020"/>
  <path d="M267.385 259.5l.364-4.849-.364-1.711-2.182-4.846s-.104.712-.65.684c-.544-.028-1.998-.79-2.494-1.45 008044A7A30" fill="#4d2a15"/>
  <path d="M259.022 262.682s.657.792 1.038.687c.38-.105.241-1.617-.242-2.458-.486-.843-5.61-7.692-6.37-8.114-.762-.42 5.575 9.885 5.575 9.885z" fill="#8b441f"/>
  <path d="M262.521 259.854c.103.317.472 2.5-.414 2.705-1.222.281-6.853-7.496-7.723-8.563 0 0-3.534-2.21-3.603-0504832AA5" fill="#8b441f" stroke="#5c3a1d" stroke-width=".043"/>
  <path d="M259.022 262.682s-.623-1.105-.678-1.894c-.05-.79-.31-1.212-.36-1.477-.053-.262-4.155-6.213-4.57-6.580927631A41" fill="#202020"/>
  <path d="M265.288 261.646c.553-.316.31-2.212.104-2.81-.21-.597-3.566-7.582-3.566-7.582l-1.007.384-1.902-1.4920BD9E40A9C" fill="#4d2a15"/>
  <path d="M262.137 259.208s-2.23-2.424-2.96-3.635c-.728-1.212-1.35-2.371-1.35-2.371s-.621.264-1.402-.051c-.78-01A7297A05" fill="#202020"/>
  <path d="M267.513 260.025c.94-.377.91-4.32.028-6.981-.886-2.661-2.339-4.95-2.339-4.95s1.82 4.266 2.207 6.005c07F08EDAE5" fill="#8b441f"/>
  <path d="M269.598 241.032l1.577 3.35.498 3.541.124 2.986s.103 5.892-.622 6.033c-.727.14-1.074-.563-1.107-.70404A3DD9A37" fill="#4d2a15"/>
  <path d="M265.288 261.646c.627-.086 0-1.684 0-1.684s-.52.772-.936.246c-.416-.527-1.075-2.477-1.075-2.477l-.4106FCB4AA81" fill="#8b441f"/>
  <path d="M263.277 257.733s.52-1.264.312-2.422c-.208-1.16-1.763-4.055-1.763-4.055s-.469.106-1.091-.106c-.623-.0F80556A55" fill="#202020"/>
  <path d="M269.756 258.312c.847.025.104-4.774-.242-6.003-.347-1.229-2.323-7-2.323-7s2.376 8.206 2.183 8.617c-.0A5919AA67" fill="#904720"/>
  <path d="M270.792 255.886c.578 0-.162-4.528-.575-6.532-.414-2.002-1.571-6.005-1.571-6.005s1.174 2.775 1.834 505E1B66A1B" fill="#904720"/>
  <path d="M262.996 261.207c.09.323.072 1.877-.752 1.765-.824-.111-2.331-1.502-2.641-2.417 0 0 1.79 1.981 2.4070F76D52AC2" fill="#312317"/>
  <path d="M267.306 239.636s1.066.683 1.922.183c.857-.5 1.428-1.712 1.402-2.37-.028-.658-.052-1.239-.573-1.923-0AF6D8FA95" fill="#d2a567"/>
  <path d="M265.703 235.766s1.278 2.094 1.77 3.978c.494 1.883.402 2.607.091 2.645-.312.041-.429-.222-.506-.696-.077-.476-1.355-5.927-1.355-5.927z" fill="#8f4620"/>
  <path d="M243.284 238.338l8.462 12.276 10.596-11.96-6.7-6.901z" fill="#1e2121"/>
  <path d="M253.982 230.804l-.491 1.924 1.037 3.266 1.766 1.818 2.049 1.365.468-1.527.494-1.788.517-.185 1.298.0E2ADF7A2A" fill="#4d2a15"/>
  <path d="M258.346 239.185s.367-.261.521-1.236c.158-.975.183-3.951-.077-5.138-.26-1.183-1.04-3.528-1.195-3.34406C144BA9C" fill="#5c3818"/>
  <path d="M258.84 234.26s1.401 2.001 2.078 1.29c.673-.71.337-3.267-.103-4.267-.444-1.002-.91-2.45-.91-2.45l.410F0AFF1A6D" fill="#5c3818"/>
  <path d="M254.31 235.638s.468-.684 1.109-.755c.64-.07.763.21.763.21l.57 1.65.952 1.705.847.841-.501.475-.674.0574F5FAA9" fill="#8f4620"/>
  <path d="M257.639 253.07c-.66.343-2.18-.415-3.035-1.17-.858-.754-5.374-5.364-5.374-5.364l-.632-2.556 1.747.470797B17A7D" fill="#d2a567"/>
  <path d="M256.761 247.67s.72 1.055.943 1.387c.225.332-.039 2.305-.174 2.67-.278.755-1.298-.895-1.853-2.354 0 051518AAF5" fill="#8f4620"/>
  <path d="M254.31 249.846c-.35.226-1.02-.843-1.332-1.124-.312-.28-1.367-1.58-2.406-2.634-1.037-1.052-1.8-1.8260C90E77AEA" fill="#8f4620"/>
  <path d="M254.61 251.9c.026.247-.014.497-.935.405-.92-.092-5.738-2.661-7.907-6.203a1711.973 1711.973 0 0 1-2.453-4.017l.962-1.093 7.646 8.717 2.687 2.19z" fill="#ab6d29"/>
  <path d="M254.61 251.9c.103.405-.38.51-.865.387-.486-.123-2.408-.808-5.471-4.215-3.062-3.406-4.257-5.846-4.250FC43AEAC2" fill="#8f4620"/>
  <path d="M259.723 248.456s-1.586-1.134-2.598-2.345c-1.01-1.212-3.064-4.029-3.012-4.584.052-.552.91-.552.91-.503D811DAEE" fill="#4d2a15"/>
  <path d="M250.885 252.723s-2.7-2.386-4.847-5.09c-2.146-2.704-3.497-5.303-3.497-5.303l.936-.88s1.782 4.162 3.00BEF100A19" fill="#202020"/>
  <path d="M261.619 242.275s-.883-2.122-1.387-3.421c-.502-1.302-1.288-4.119-1.288-4.119s.06 1.29-.01 2.24c-.07.0E3B68DAB0" fill="#202020"/>
  <path d="M258.93 234.711s1.648 1.845 2.36 1.014c.716-.829.3-3.173.3-3.173s1 .382 1.311.132c.313-.25.168-1.1720D8EB60A9A" fill="#202020"/>
  <path d="M253.415 242.61s.908 1.82 1.634 2.767c.728.948 1.715 2.292 1.715 2.292s-1.557-1.422-2.181-2.318c-.624-.896-1.168-2.74-1.168-2.74z" fill="#171717"/>
  <path d="M264.136 243.086c-.234.093-.988-.183-1.067.093-.076.275.43 1.357.989 1.924.556.565.792.59.922.526.120198C6AADB" fill="#8f4620"/>
  <path d="M244.735 231.493l-.945.62-1.142 2.319.31 4.25s1.057 1.492 1.705 2.432c.65.94 2.797 3.362 3.35 3.222.024CF21AD9" fill="#d2a567"/>
  <path d="M251.806 237.923s.543 1.974.881 2.951c.338.973-.009 1.817.174 1.843.181.024 1.825-2.186 1.85-3.186.007AA9B9AC9" fill="#ab6d29"/>
  <path d="M242.004 230.036s-2.491 3.617-2.44 5.602c.052 1.984.38 1.545.953 3.334.57 1.795.883 4.446.916 4.674.05087F7A21" fill="#45392d"/>
  <path d="M241.992 230.463s-2.18 3.37-2.024 5.233c.155 1.859.449 1.809 1.072 3.477.623 1.669.675 4.388.675 4.30554E72A59" fill="#ab6d29"/>
  <path d="M253.774 236.266s-1.09-.238-1.532-.5c-.44-.264-.622-.896-.622-.896l.26-.632 1.894 2.028z" fill="#dbad6c"/>
  <path d="M242.437 230.829s-1.574 3.39-1.384 5.724c.19 2.337 1.471 5.321 1.593 5.357.12.035.068-.228.103-.756.0CEFC27A47" fill="#d2a567"/>
  <path d="M246.247 231.584s.208 1.02.07 1.442c-.14.42-.97.947-1.316 1.615-.347.667-.83 2.212-.83 2.212s.38-.870148D1DA61" fill="#8f4620"/>
  <path d="M253.598 238.478s-.756-.131-1.17-.211a.581.581 0 0 1-.468-.473l.132-.5.959.527.547.657z" fill="#dbad6c"/>
  <path d="M243.559 238.862c-.02.348-.279.704-.446 1.19-.202.588-.32 1.287-.32 1.287s-.234-1.555-.311-2.649c-.00B07AC4A21" fill="#8f4620"/>
  <path d="M259.711 228.884s.07 1.667.295 2.634c.224.966.866 3.073.866 3.073s-.866-1.563-1.247-2.915c-.382-1.35076C6E3A94" fill="#1e2121"/>
  <path d="M241.706 229.573s.64.08 1.033.057c.396-.02.655-.18.655-.18l.655-.977s-.334 1.157-.104 1.98c.229.822.0AA8021A02" fill="#dbad6c"/>
  <path d="M251.105 225.178s.156 1.08-.389 2.898-1.298 3.108-1.298 3.108 1.947-1.186 2.883-3.318c.932-2.135.71609DCD33A2D" fill="#8f4620"/>
  <path d="M257.395 220.272s.64 1.37.678 2.845c.033 1.475-.296 3.02-.296 3.02s.138-1.843-.069-2.95c-.208-1.106-02E244BAD8" fill="#ab6d29"/>
  <path d="M260.473 226.038s.129 1.273 0 1.877c-.13.607-1.014-.394-1.557-2.396-.547-2.002-.443-2.45-.858-3.424-.418-.976-.668-1.818-.668-1.818l1.135-.157 1.948 5.918zm-5.553 3.718s2.166-1.228 2.44-4.927c.131-1.737-.986-4.556-.986-4.556s0 3.002-.805 4.938c-.805 1.937-1.468 3.228-1.468 3.228s.52-.225.78-.54c.26-.316.623-.858.623-.858s.117.555-.077 1.279c-.195.724-.507 1.436-.507 1.436zm-1.908-6.479s-.069.817-.978 1.554c-.909.738-2.543 1.555-2.543 1.555s1.194-1.107 1.634-2.082c.443-.975.104-1.606.104-1.606s-.154.526-.674.922c-.519.396-1.272.473-1.272.473s.063-.5.53-1.026c.096-.107.079-.356.144-.56.255-.79.935-1.89.935-1.89s.52 1.16 1.039 1.66c.519.5 1.082 1 1.082 1z" fill="#4d2a15"/>
  <path d="M259.784 218.906s.518 1.336.726 3.161c.208 1.827-.034 3.97-.034 3.97s-1.107-1.722-1.384-2.424c-.277-01BCF8FA00" fill="#1e2121"/>
  <path d="M240.95 229.518c-.25-.035.78-1.634 1.48-2.74l1.688-2.66s.182.184.597.158c.415-.027 1.48-.5 1.922-1.30929127A09" fill="#8f4620"/>
  <path d="M260.528 217.712c-.015.127.07.917-.744 1.194-.814.277-1.8-.052-1.905-.144-.103-.093-.103-1.134-.103-1.134l2.752.084z" fill="#874f20"/>
  <path d="M244.778 220.29s-.148.753-.593 1.685c-.446.933-1.184 1.71-1.093 1.828.09.119.507.554 1.155.541.65-.013.883-3.886.883-3.886l-.114-.14-.238-.028z" fill="#b27129"/>
  <path d="M254.75 218.157s-.294 5.132-1.735 5.123c-1.44-.007-2.092-2.595-2.092-2.595s-.12 3.462-1.96 3.462c-.807BC0F9AE2" fill="#dbad6c"/>
  <path d="M249.13 213.28s1.292 1.956 2.155 3.044c.05.063.474-.41.474-.41.285.391.443.731.356.936-.337.791-1.03078BC93A5C" fill="#b27129"/>
  <path d="M256.06 212.823s.285.264.755 1.476c.466 1.211.518 5.136-.104 5.109-.625-.026-1.872-.737-2.078-1.264-0FE9A2BACD" fill="#8f4620"/>
  <path d="M255.713 211.604l2.077 3.09 1.836 2.653s.924.306.9.368c-.025.062-1.065 1.194-2.506.39-.716-.4-.35-1.031400DA71" fill="#4d2a15"/>
  <path d="M254.567 209.916s1.856 1.226 2.513 2.56c.658 1.335 1.04 2.144 1.837 3.443.794 1.3 1.646 1.703 1.609 0B5DC9AAB9" fill="#1e2121"/>
  <path d="M249.843 213.335s1.195.276 1.842.196c.65-.078.87-.052.87-.052s.39.528.39 1.133c0 .606-.417 1.738-.590FD2F5FA3B" fill="#8f4620"/>
  <path d="M250.477 216.468s.386 1.296.09 3.1c-.298 1.808-1.336 3.674-1.603 3.674-.267 0-.179-2.048-.297-3.13a3035AB32A54" fill="#b27129"/>
  <path d="M248.203 217.815c-.363.449-.92.327-1.435.488-.483.15-.657.886-.657.886s.39-.289.572-.21c.18.079.397.02051C4A7A" fill="#8f4620"/>
  <path d="M254.61 208.636s.492 1.225-.52 2.081c-.3.253-.59.421-1.126.449-.538.025-1.393-.435-1.393-.435l-3.1040972D7FA48" fill="#dbad6c"/>
  <path d="M254.61 208.636c.102.211-.184.895-.417 1-.235.106-.65.29-1.585.08-.933-.21-1.894-.817-2.933-1.106-1.02305F3AC7" fill="#ab6d29"/>
  <path d="M246.119 207.66s.362.08.675.027c.312-.053.546-.238.546-.238s.052.422-.156.554c-.208.132-.83.079-.935.079-.105 0-.13-.421-.13-.421z" fill="#4d2a15"/>
  <path d="M252.22 211.495s1.087 1.063.796 1.983l-2.094-.962-3.414-1.422-1.85-.552-.227-.29s.35-.33.519-.645c.10F8A9FAA79" fill="#dbad6c"/>
  <path d="M249.898 213.018s1.947 2.516 1.493 3.345l-4.545-2.87-1.601 2.638-3.738-1.843s3.015-2.324 3.366-2.7580DB5A11A27" fill="#dbad6c"/>
  <path d="M248.843 209.3s1.592.387 2.615.913c1.02.526 2.45.645 2.45.645s-.575.606-1.69.637c-.33.01-1.125-.632-05BE5BCA0A" fill="#ab6d29"/>
  <path d="M246.04 208.447s1.143.237 1.844.553c.701.316.753.237.935.158.181-.08.207-.158.207-.158s.144.686-.4020366FA6A61" fill="#4d2a15"/>
  <path d="M252.354 212.866s.815.51.657.614c-.154.106-.562.299-1.27.343-.709.044-1.048-.043-1.551-.273-.5-.228-0E5FF80A29" fill="#ab6d29"/>
  <path d="M245.418 210.215s.415.35 1.265.439c.36.038 1.034.159 1.727.377.234.073.803-.243.851-.23l-.493.296c.706D01B5A15" fill="#4d2a15"/>
  <path d="M251.233 215.853s.494.526-.026.71c-.519.185-1.934.152-2.609-.56 0 0-.169-.677-.429-.993-.259-.316-1.07B01BDAC2" fill="#ab6d29"/>
  <path d="M251.263 215.901s-1.049-1.449-3.963-2.598c-.08-.03.992-.184.908-.214-.125-.048-1.405.025-1.538-.02a2092AA37A64" fill="#4d2a15"/>
  <path d="M246.509 213.622s2.234.632 2.13 3.003c-.104 2.37-1.836 1.931-1.992 1.071-.154-.861.208.412.831.298.603C403FA76" fill="#dbad6c"/>
  <path d="M236.848 207.91s.234.18-.403 1.854c-.636 1.672-.98 2.268-1.946 3.332-1.806 1.988-2.597 2.001-2.402 20AC6463A67" fill="#6c3f18"/>
  <path d="M244.9 204.491s.935 1.403.64 4.055c-.295 2.652-3.79 4.97-3.79 4.97l-5.106 3.53-2.134-.128s-.33.047-.03CBA6FA3D" fill="#dbad6c"/>
  <path d="M245.467 217.76s.35.29.22 1.251c-.13.963-.921 1.49-1.31 1.502l.038-1.343-1.129-.896-1.208-.368s.078-0E8BF1CAF2" fill="#904720"/>
  <path d="M244.583 217.773s.35.341.909.197c.558-.144.793-1.042.493-1.396-.298-.356-.168.856-.531.988-.365.131-0641023A55" fill="#ab6d29"/>
  <path d="M237.208 214.091s.663.2 1.382.103c.719-.098 2.485-.834 2.485-.834s.813-.458 1.41-1.037c.596-.579 2.403830DEA2D" fill="#904720"/>
  <path d="M243.01 207.776s1.091-1.07 1.454-1.86c.364-.79.433-1.423.433-1.423s.122.86-.518 1.825a10.319 10.319 0 0 1-1.35 1.634l-.019-.176z" fill="#ab6d29"/>
  <path d="M242.712 205.387s.891 3.46-.061 4.881c-.953 1.423-5.095 3.264-5.095 3.264s3.14-1.7 4.126-3.659c.986-1.958.917-3.59.917-3.59l.113-.896z" fill="#904720"/>
  <path d="M238.591 214.189s1.325-.028 2.078-.475c.753-.447 1.817-1.396 1.817-1.396s-.986.87-1.272.87c-.286 0-.04B747DA55" fill="#1e2121"/>
  <path d="M236.988 212.665a2.112 2.151 67.762 0 1-2.423 3.485" fill="#fff"/>
  <path d="M236.878 212.903a1.86 1.895 67.771 0 1-2.178 3.03" fill="#f16e16"/>
  <path d="M236.056 213.927a.747.747 0 1 1-.728 1.13"/>
  <path d="M236.16 214.877a.239.239 0 1 1-.471-.081.238.238 0 0 1 .275-.198c.13.022.216.148.195.28z" fill="#d5d3ca"/>
  <path d="M237.457 211.354s1.23-1.21 1.506-2.81c.278-1.598.11-2.506.11-2.506l.67.697.258 1.214-.433 2.018 1.350154D91A4E" fill="#ab6d29"/>
  <path d="M236.884 212.323s.536-1.615.536-2.493c0-.878-.57-1.915-.57-1.915s.778-.105.848 1.808c.069 1.916-.347 2.021-.814 2.6z" fill="#904720"/>
  <path d="M239.353 210.263s.57-1.422.533-2.37c-.04-.949-.817-1.858-.817-1.858s.96.185 1.038 1.911c.077 1.724-.222 1.739-.754 2.317z" fill="#4d2a15"/>
  <path d="M233.684 216.749s-.443-.571-.392-1.019c.052-.447.017-.548 1.12-1.708 1.103-1.159 1.714-1.87 1.986-2.083EEA7AE6" fill="#ab6d29"/>
  <path d="M244.382 220.51s.246.025.402-.264c.155-.29.155-.777-.234-1.264-.39-.487-.831-.777-1.377-.936-.545-.1052BE25A45" fill="#6c4119"/>
  <path d="M244.382 220.51s1.226-.399 1.31-1.58c.052-.732-.104-.989-.104-.989s.182.382.676.527l.44-.171s-.726 2.292-2.322 2.212z" fill="#6c4119"/>
  <path d="M235.824 220.284s.24.1.694.626c.455.527.669.699.669.699l2.973-.764.962-.949-.806-1.276h-2.129l-2.363 1.664z" fill="#bf802d"/>
  <path d="M243.028 219.272l-.572-.772s-.122-.298-.554-.526c-.433-.228-2.233-.211-2.233-.211l-1.298.263s-.363.303BADF0AF2" fill="#f9c83a" stroke="#8f4620" stroke-width=".293"/>
  <path d="M231.527 224.52s-2.492-.606-2.286-2.897c.209-2.29 2.286-3.134 2.65-3.24.363-.106.285-1.265.7-1.395.40E45470A6F" fill="#fcf3d8"/>
  <path d="M243.016 219.028s-.302.184-.383.033c-.467-.869-1.558-1.1-2.441-1.086-1.125.017-1.888.436-2.65.436-.7012CCC7AE5" fill="#fdeaaf"/>
  <path d="M236.16 220.656s1-.198 1.751-.527c.754-.328 1.757-.592 1.757-.592s-.92.61-1.557.914c-.636.301-1.666.468-1.666.468l-.286-.263z" fill="#513625"/>
  <path d="M232.63 225.837c-.181.07-1.056.035-2.449-.896-1.393-.93-1.756-2.51-1.756-2.51s-.32-1.512 1.124-3.04700F0529A70" fill="#f9c83a"/>
  <path d="M231.868 217.163l-.08-.19v.207c.064-.004.072-.016.08-.017l-.08-.19v.207-.21l-.144.15c.052.05.112.06.0E004C2A54" fill="#8b5122"/>
  <path d="M236.104 219.303s-2.98.834-3.056.888c-.219.158.955-.025 1.876-.053a3.484 3.484 0 0 1 1.072.136s.358-07FB310A5D" fill="#f9c83a"/>
  <path d="M231.746 223.612c.22.619.719 1.52 1.28 1.808 0 0 .096.01.062.07-.035.061-.45.318-1.403.07-.952-.245-02A3FE9A9A" fill="#8f4620"/>
  <path d="M241.675 250.114l-.045.967-.534-.053.095-1.211zm-3.736-27.557l-.985-1.108-.641.096.975 1.389z" fill="#fcca3d"/>
  <path d="M241.627 252.375c-.002 0-.596-.39-1.367-.746-.787-.362-1.892-.526-1.898-.528l-.036.25s.067.01.18.0310558263A77" fill="#816c2a"/>
  <path d="M235.568 220.308l.151.122a13.829 13.829 0 0 1 1.967 1.98c.77.964 1.443 2.152 1.44 3.312 0 .111-.006.0B93C06A87" fill="#78732e"/>
  <path d="M233.678 222.759l-.299-.258-.257.093.485.396zm.805.761l-.224-.23-.118.066.186.244z" fill="#a8ac71"/>
  <path d="M235.604 224.758l-.191-.244-.117.151.195.225zm.842 1.255l-.14-.25-.225.04.293.316zm.475 1.183l-.11-.05D6395AF2" fill="#78732e"/>
  <path d="M227.132 241.709l-.143.065.052.355.079-.112s.012-.199.012-.308z" fill="#fff"/>
  <path d="M227.156 243.117l-.019-.347-.104-.04v.565z" fill="#78732e"/>
  <path d="M227.248 243.903l-.033-.314-.11.017-.006.297zm.213 1.134l-.065-.304-.071.073.058.303zm.299 1.163l-.124-.408-.09.04.123.392z" fill="#fff"/>
  <path d="M228.516 247.761l-.17-.254-.159-.026.205.31zm1.152 1.14s-.156-.092-.384-.277c-.226-.184-.09.172-.09.006A2A8AAA" fill="#a8ac71"/>
  <path d="M238.158 250.029s-.15-.19-.248-.256c-.097-.065-.063.197-.063.197l.2.086.111-.027z" fill="#fff"/>
  <path d="M238.292 250.34c-.083-.112-.174.164-.174.164l.24.225s.02-.276-.066-.39zm.037 1.078s.052-.23.039-.376c-.013-.144-.13.052-.13.052l.013.324h.078z" fill="#a8ac71"/>
  <path d="M237.951 252.558l.091-.284-.117.003-.071.294zm-11.904-41.661s.448-.092.11.415.226-.454.226-.454l-.181-.053-.155.092z" fill="#fff"/>
  <path d="M235.696 219.991l.272.278s-.254-.067-.363-.08c-.11-.014.09-.198.09-.198z" fill="#f9c83a"/>
  <path d="M235.964 220.272s-.383.052-.519.072c-.137.019.156-.152.156-.152l.363.08z" fill="#8f4620"/>
  <path d="M240.743 255.277s.326-.035.471-.235c.145-.199-.092.313-.092.313l-.209.078-.17-.156z" fill="#977c2e"/>
</svg>
