<svg xmlns="http://www.w3.org/2000/svg" height="512" width="512" id="flag-icon-css-mz">
  <defs>
    <clipPath id="a">
      <path fill-opacity=".67" d="M0 0h496.06v496.06H0z"/>
    </clipPath>
  </defs>
  <g clip-path="url(#a)" transform="scale(1.0321)">
    <path fill-rule="evenodd" fill="#009a00" d="M0 0h744.09v155.02H0z"/>
    <path fill-rule="evenodd" fill="#fff" d="M0 154.98h744.09v15.52H0z"/>
    <path fill-rule="evenodd" d="M0 170.5h744.09v155.02H0z"/>
    <path fill-rule="evenodd" fill="#fff" d="M0 325.52h744.09v15.52H0z"/>
    <path fill-rule="evenodd" fill="#ffca00" d="M0 341.04h744.09v155.02H0z"/>
    <path d="M0 0v496.06l325.56-248.03L0 0z" fill-rule="evenodd" fill="red"/>
    <path fill="#ffca00" fill-rule="evenodd" d="M192.351 322.606l-49.634-36.338-49.57 36.347 19.223-58.433-49.888-35.912 61.517.227 18.734-58.542 18.793 58.577 61.467-.28-49.903 35.974z"/>
    <path stroke-linejoin="round" d="M99.635 281.854h35.756c2.877 3.228 9.296 4.544 15.41-.038 11.207-6.137 32.888.038 32.888.038l4.27-4.0A04EBDA21" fill-rule="evenodd" stroke="#000" stroke-linecap="round" stroke-width="1.068" fill="#fff"/>
    <path stroke-linejoin="round" d="M106.84 273.05s34.155-4.268 44.028 8.806c-5.576 3.815-10.485 4.13-15.743.268.837-1.396 12.274-13.342 41.36-9.34" stroke="#000" stroke-linecap="round" stroke-width="1.068" fill="none"/>
    <path d="M143.395 238.897l-.265 37.624m30.684-37.094l6.404 29.885" stroke="#000" stroke-width="1.14" fill="none"/>
    <path stroke-linejoin="round" d="M113.33 238.956l-3.555 15.413" stroke="#000" stroke-linecap="round" stroke-width="1.068" fill="none"/>
    <path stroke-linejoin="round" d="M76.413 285.957l8.409 9.859c.987.589 1.864.551 2.741 0l12.462-14.954 5.234-6.48c.81-.96 1.07-2.031.907AF961A2E" fill-rule="evenodd" stroke="#000" stroke-linecap="round" stroke-width="1.068"/>
  </g>
</svg>
