<svg xmlns="http://www.w3.org/2000/svg" xmlns:xlink="http://www.w3.org/1999/xlink" height="512" width="512" id="flag-icon-css-pe">
  <path fill="#d91023" d="M0 0h512v512H0z"/>
  <path fill="#fff" d="M170.667 0h170.667v512H170.667z"/>
  <g transform="translate(196.267 187.271) scale(.14222)" stroke="#d4af37" stroke-width="2" fill="#00a854">
    <g transform="matrix(.44722 -.20656 .2582 .35777 89.404 -67.294)" id="g" stroke-width="4.33">
      <path d="M480.212 566.87c31.28 33.04 62.37 68.152 78.925 111.21 25.21 69.711 18.346 151.527-22.518 213.983-3405829C8AF6"/>
      <path d="M170.57 983.29c-8.079-.843-12.167 11.815-5.077 13.643 4.182-1.01 10.665-12.011 5.076-13.642zm304.26500F3A54A34"/>
      <path d="M478.146 564.793c-5.561-26.182-26.97-56.915-52.595-79.474 15.222 11.956 44.848 40.53 54.361 79.28l-1.766.194z"/>
      <path d="M460.18 524.426c-4.162-2.885-7.254-2.85-10.507-3.257 2.963-.163 5.873-.472 9.492 1.156l1.014 2.101zm0D3D452A40"/>
      <path d="M563.504 691.584c-22.904-25.577-58.656-41.392-101.83-49.728 25.052 3.433 76.71 14.954 105.234 49.976l-3.404-.248z"/>
      <path d="M524.282 661.447c-6.69-.536-10.766 1.355-15.236 2.88 3.851-1.95 7.573-4.02 13.029-4.48l2.207 1.6zm-208515BEA76"/>
      <path d="M542.691 887.43c32.645-5.369 64.277-27.486 93.849-60.328-16.034 19.857-52.657 58.27-95.853 63.151l2.004-2.822z"/>
      <path d="M587.643 870.452c3.977-5.52 4.621-10.146 5.77-14.907-.48 4.464-.794 8.885-3.317 13.897l-2.453 1.01zm00975E6AAD"/>
      <path d="M574.984 794.051c31.13-11.555 58.291-39.374 81.522-77.336-12.232 22.597-41.404 67.391-82.99 80.496l1.468-3.16z"/>
      <path d="M616.148 768.72c2.928-6.189 2.74-10.86 3.023-15.759.322 4.48.798 8.884-.792 14.296l-2.23 1.463zm19.809AB9A4A31"/>
      <path d="M573.434 753.467c-17.083-33.105-50.623-59.625-94.197-80.421 25.684 10.602 77.379 37.099 97.75 81.634l-3.553-1.213z"/>
      <path d="M540.285 711.031c-6.968-2.434-11.845-1.602-17.038-1.264 4.656-.955 9.207-2.073 15.145-1.024l1.893 2.0E71693A1C"/>
      <path d="M577.541 756.813c28.24-17.872 49.428-50.836 64.795-92.905-7.584 24.705-27.44 74.716-65.618 96.309l.823-3.404z"/>
      <path d="M612.927 723.337c1.664-6.678.572-11.212-.104-16.07 1.186 4.32 2.51 8.532 2.005 14.166l-1.9 1.904zm150E7E777A48"/>
      <path d="M547.331 647.1c27.05-22.572 44.8-59.846 55.309-105.768-4.672 26.765-18.816 81.581-55.722 109.423l.413-3.656z"/>
      <path d="M579.785 607.29c.86-7.18-.866-11.741-2.202-16.699 1.796 4.326 3.722 8.52 3.931 14.452l-1.73 2.247zm101F1390A1E"/>
      <path d="M533.383 605.314c4.26-6.586-1.069-18.724 2.254-24.109 3.541-5.739 7.22 2.947 9.785-1.556 2.564-4.5040FED2C5A6A"/>
      <path d="M522.094 611.2c24.26-10.566 48.596-42.396 63.7-78.703-7.548 21.385-27.469 63.674-63.017 80.985l-.683-2.282z"/>
      <path d="M556.883 582.647c1.686-5.797.792-9.83.287-14.13.986 3.85 2.1 7.61 1.503 12.54l-1.79 1.59zm14.455-22.0430272A7F"/>
      <path d="M375.216 1016.418c26.447-22.698 40.67-57.455 51.163-105.87-4.703 28.292-15.521 81.925-51.587 109.746l.424-3.876z"/>
      <path d="M403.757 979.697c.88-7.61-.773-12.557-2.044-17.907 1.722 4.7 3.57 9.266 3.739 15.598l-1.695 2.309zm108D699FAD4"/>
      <path d="M540.258 797.04c-7.147-4.36-12.989-5.181-19.028-6.537 5.63.643 11.196 1.109 17.626 3.922l1.402 2.6140FA85F6AA1"/>
      <path d="M561.704 840.054c-8.529-34.554-35.695-63.696-78.54-95.86 25.804 17.503 73.699 52.404 82.193 98.058l-3.653-2.198z"/>
      <g id="d">
        <path d="M527.296 890.544c-3.353-8.85-19.798-13.112-22.673-20.186-3.064-7.54 9.126-5.225 6.542-10.926-2.584-50505999AF2"/>
        <path d="M520.011 853.111c-4.675-5.713-13.031-8.939-17.965-11.41 4.862 1.675 13.116 4.49 17.792 8.508l.173 2.0EDDA93A8E"/>
        <path d="M525.2 906.633c6.813-36.538-12.825-78.385-38.311-118.74 16.138 22.413 52.245 73.859 40.713 121.63l-2.402-2.89z"/>
        <path d="M505.403 821.845c-6.213-4.382-11.66-5.071-17.225-6.319 5.271.507 10.504.83 16.244 3.602l.98 2.717z"/>
      </g>
      <path d="M493.56 566.123c-1.927-7.016-11.717-8.589-13.368-14.187-1.76-5.967 5.18-4.726 3.698-9.223-1.483-4.49052C76FA13"/>
      <path d="M491.743 578.842c5.153-26.274-2.39-63.414-16.983-94.87 9.233 17.366 25.128 56.012 18.673 95.44l-1.69-.57z"/>
      <path d="M491.108 534.358c-2.673-4.397-5.511-5.675-8.324-7.424 2.77 1.106 5.55 2.055 8.219 5.074l.105 2.35zm-020BB2AAED"/>
      <path d="M499.22 585.584c24.422-21.57 36.501-63.212 18.317-93.996 8.18 15.13 12.468 31.125 8.112 50.275-3.15 13.846-10.823 30.446-24.8 44.286l-1.63-.565z"/>
      <path d="M522.267 550.763c-1.672-4.322-6.172-9.786-8.678-11.51 2.628 1.093 7.152 6.235 9.177 9.205l-.499 2.300CC1C5BAEC"/>
      <path d="M492.596 578.547c-28.791-4.023-64.127-25.614-91.088-52.699 14.459 16.215 48.316 47.311 91.062 54.718l.026-2.02z"/>
      <path d="M447.235 561.697c-3.54-4.466-3.822-7.974-4.597-11.627.13 3.374.099 6.7 2.227 10.66l2.37.967zm-21.992096923AA3F"/>
      <path d="M516.976 605.581c-34.484 1.658-78.077-13.661-112.15-36.407 18.4 13.96 60.967 39.483 112.273 38.517l-.123-2.11z"/>
      <path d="M461.843 597.24c-4.542-3.935-5.146-7.533-6.345-11.182.413 3.488.63 6.96 3.458 10.655l2.887.527zm-27.070B99FA0D"/>
      <path d="M517.502 629.672c-8.279-2.962-7.618-14.951-14.193-17.452-7.009-2.666-7.318 5.846-12.559 3.648-5.24-20CA7B4DA6D"/>
      <path d="M533.937 628.613c-34.327 3.88-78.864-8.58-114.381-29.062 19.291 12.731 63.471 35.434 114.642 31.158l-.261-2.096z"/>
      <path d="M478.335 623.855c-4.795-3.63-5.633-7.179-7.07-10.74.641 3.452 1.085 6.9 4.152 10.402l2.918.338zm-28.0CDAB8AA87"/>
      <g id="a">
        <path d="M207.197 997.382c6.594-4.258 15.187-3.229 20.577-6.552 5.746-3.542-2.93-7.124 1.577-9.691 4.508-2.560303B81AD5"/>
        <path d="M201.964 1007.083c14.53-26.156 42.618-46.357 78.95-61.542-21.397 7.61-64.522 27.103-81.906 62.39l2.956-.848z"/>
        <path d="M229.91 973.981c5.8-1.706 9.83-.848 14.128-.377-3.846-.95-7.603-2.027-12.534-1.404l-1.594 1.781zm22.0CF7A99AD0"/>
      </g>
      <g id="b">
        <path d="M210.31 1024.483c9.07 3.59 19.283 0 26.659 2.74 7.86 2.916-1.833 9.73 4.283 11.752 6.117 2.023 11.8300124E1A9F"/>
        <path d="M201.572 1013.693c24.073 28.978 63.205 46.859 111.156 56.24-27.914-3.851-85.188-16.83-114.963-56.515l3.807.275z"/>
        <path d="M243.677 1047.816c7.48.597 12.179-1.557 17.298-3.294-4.452 2.218-8.765 4.574-14.923 5.107l-2.375-1.80970872AE0"/>
      </g>
      <use transform="translate(43.941 17.372)" width="744.094" height="1052.362" xlink:href="#a"/>
      <use transform="translate(59.27 11.24)" width="744.094" height="1052.362" xlink:href="#b"/>
      <g id="e">
        <path d="M353.525 1034.119c9.75.938 18.788-5.287 26.67-4.699 8.403.627.695 9.792 7.17 10.044 6.474.252 9.888-065D26BA67"/>
        <path d="M342.262 1026.217c30.838 21.058 73.521 27.39 122.63 23.187-28.178 3.984-87.287 7.308-126.41-22.406l3.78-.781z"/>
        <path d="M391.98 1047.238c7.44-1.483 11.469-4.828 16.014-7.891-3.772 3.34-7.374 6.772-13.238 8.97l-2.776-1.070FEB6ADA9C"/>
      </g>
      <g>
        <path d="M292.72 1024.547c4.983-5.068 13.172-6.262 17.286-10.274 4.385-4.277-4.539-5.162-1.043-8.344 3.495-3.0D3E20CA81"/>
        <path d="M292.089 1030.323c6.657-24.958 25.657-44.795 55.246-65.91-17.769 11.34-50.817 34.166-57.754 67.31l2.508-1.4z"/>
        <path d="M307.634 999.911c4.908-2.78 8.845-3.032 12.929-3.665-3.79.132-7.533.139-11.919 1.822l-1.01 1.843zm160BBB67AA5D"/>
      </g>
      <g>
        <path d="M345.42 1017.313c4.024-6.249 12.081-9.145 15.439-14.127 3.579-5.31-5.644-4.413-2.745-8.41 2.898-3.99013AC23A55"/>
        <path d="M345.948 1023.41c1.698-27.142 16.94-51.5 42.655-79.326-15.714 15.325-44.589 45.623-44.914 81.28l2.259-1.954z"/>
        <path d="M355.549 988.827c4.412-3.87 8.351-4.929 12.362-6.413-3.815.907-7.606 1.673-11.71 4.304l-.652 2.109zm0C8FA7DAD9"/>
      </g>
      <g id="f">
        <path d="M505.882 948.746c7.671-4.14 11.335-13.195 17.453-16.668 6.522-3.7 5.27 6.858 10.184 3.836 4.913-3.020B1A423ADE" transform="translate(9.389 -7.87)"/>
        <path d="M493.71 948.513c33.048.211 67.707-16.276 102.004-43.693-18.915 16.888-61.038 48.614-104.421 46.14l2.417-2.447z" transform="translate(9.389 -7.87)"/>
        <path d="M540.711 939.345c4.784-4.776 6.14-9.232 8.016-13.736-1.17 4.324-2.167 8.633-5.438 13.154l-2.578.582z0E2F032AEF" transform="translate(9.389 -7.87)"/>
      </g>
      <g>
        <path d="M582.995 716.21c3.617-8.648.845-18.541 3.621-25.579 2.96-7.501 8.651 1.956 10.732-3.885 2.082-5.841-02E1BBEAB6"/>
        <path d="M572.933 724.398c27.051-22.571 44.801-59.844 55.31-105.767-4.673 26.766-18.817 81.581-55.723 109.423l.413-3.656z"/>
        <path d="M605.387 684.59c.861-7.18-.866-11.742-2.202-16.7 1.797 4.326 3.722 8.52 3.931 14.452l-1.729 2.248zm10F4C795AE5"/>
      </g>
      <g>
        <path d="M572.265 672.078c4.442-7.713 2.993-17.421 6.45-23.719 3.686-6.712 7.945 2.958 10.604-2.298 2.658-5.20C44612A69"/>
        <path d="M561.786 678.53c28.239-17.873 49.427-50.837 64.795-92.906-7.584 24.705-27.44 74.716-65.619 96.309l.824-3.404z"/>
        <path d="M597.172 645.053c1.664-6.678.571-11.212-.105-16.07 1.186 4.32 2.51 8.532 2.005 14.166l-1.9 1.904zm150E99258A97"/>
      </g>
      <g>
        <path d="M566.742 775.935c-7.882-5.63-18.266-4.844-24.713-9.25-6.871-4.697 3.658-8.628-1.737-12.051-5.395-3.403C81F7A04"/>
        <path d="M572.89 788.204c-17.083-33.105-50.624-59.625-94.197-80.421 25.684 10.602 77.378 37.099 97.749 81.634l-3.552-1.213z"/>
        <path d="M539.74 745.768c-6.968-2.434-11.845-1.602-17.037-1.264 4.655-.955 9.207-2.073 15.145-1.024l1.892 2.20DDF2A6AD3"/>
      </g>
      <g>
        <path d="M574.693 843.39c5.85-6.617 6.32-16.43 10.93-21.87 4.915-5.796 7.205 4.571 10.83-.016 3.626-4.587-1.20A26D32ACB"/>
        <path d="M563.176 847.501c31.13-11.554 58.29-39.374 81.522-77.336-12.232 22.598-41.404 67.392-82.99 80.496l1.468-3.16z"/>
        <path d="M604.34 822.17c2.928-6.189 2.74-10.859 3.023-15.759.322 4.48.798 8.884-.792 14.296l-2.23 1.464zm19.8094C66FAE4"/>
      </g>
      <use transform="rotate(15 310.012 758.36)" width="744.094" height="1052.362" xlink:href="#c"/>
      <use transform="rotate(5 93.23 577.125)" id="c" width="744.094" height="1052.362" xlink:href="#d"/>
      <use transform="rotate(-10 274.952 690.264)" width="744.094" height="1052.362" xlink:href="#e"/>
      <use transform="rotate(10 225.439 653.89)" width="744.094" height="1052.362" xlink:href="#f"/>
    </g>
    <use transform="matrix(-1 0 0 1 840 .113)" width="1" height="1" xlink:href="#g"/>
  </g>
  <g stroke="#d4af37" stroke-width=".427">
    <path d="M232.813 220.48l-11.244 14c3.725 3.548 5.837 9.482 5.844 14.307.01 6.034-.98 10.214-2.2 14.026l-.04.0906BE4A13" fill="#007ea8"/>
    <path d="M279.187 220.48c-7.07 6.178-16.397 4.5-23.187.284v42.17h30.827l-.04-.12c-1.22-3.813-2.21-7.993-2.2-14.027.007-4.825 2.119-10.759 5.844-14.307l-11.244-14z" fill="#fff"/>
    <path d="M225.173 262.933c-1.679 5.217-3.787 9.757-4.444 17.303-.97 11.14 7.99 17.24 11.693 18.986 5.709 2.690CACFCEAA5" fill="#d91023"/>
  </g>
  <g stroke="#d4af37" stroke-width="3">
    <g transform="matrix(.06756 0 0 .07111 186.261 262.009)" fill="#00a854" stroke-width="6.156">
      <g id="j" stroke-width="3.078">
        <g stroke-width="3.078">
          <path d="M1074.733-201.404s5.849-20.366 17.932-29.304c12.084-8.938 25.212-5.671 33.195-8.854-5.322 6.748-5.925 20.263-17.932 29.305-12.006 9.041-33.195 8.853-33.195 8.853zm48.699-36.346c-8.333 2.219-13.523-.31-24.954 3.897m17.285 1.827c-8.333 2.219-14.117-1.33-25.335 3.386m16.132 3.483c-7.912 2.781-11.632-1.2-22.466 4.03m13.263 2.838c-7.912 2.782-9.57-1.713-17.49 4.297m9.31 1.808c-5.168 1.667-7.531-.17-12.134 5.076m46.389-30.642c-4.497 7.358-3.55 13.053-10.835 22.815m3.166-17.091c-4.497 7.358-2.742 13.912-10.454 23.325m1.251-16.456c-4.918 6.794-2.159 11.492-10.256 20.39m1.053-13.522c-4.918 6.794-1.08 9.663-9.096 15.545m.916-9.44c-3.068 4.48-1.98 7.268-8.318 10.188"/>
          <path d="M1130.782-243.633s-13.538 10.037-24.157 18.03c-10.62 7.992-31.636 24.008-31.636 24.008s21.334-15.59 32.017-23.497c10.684-7.907 24.158-18.03 24.158-18.03"/>
        </g>
        <g stroke-width="3.078">
          <path d="M1108.115-316.994s16.753 12.975 20.58 27.51c3.828 14.534-4.068 25.52-4.068 34.113-4.297-7.442-16.628-13.007-20.58-27.509-3.953-14.501 4.068-34.114 4.068-34.114zm15.728 58.696c1.025-8.562 5.296-12.446 5.62-24.622m-8.097 15.379c1.025-8.562 6.463-12.621 6.237-24.788m-9.209 13.696c.346-8.38 5.422-10.36 4.576-22.362m-7.548 11.27c.346-8.38 5.135-8.257 2.485-17.839m-5.127 7.979c.366-5.418 2.946-6.933-.222-13.15m11.285 54.437c-5.17-6.902-10.81-8.13-17.18-18.513m14.703 9.27c-5.17-6.902-11.908-7.699-17.796-18.348m14.824 7.256c-4.49-7.084-9.877-6.262-15.144-17.078m12.172 5.986c-4.49-7.084-8.576-4.583-11.072-14.206m8.43 4.346c-3.026-4.509-6.019-4.53-6.384-11.499"/>
          <path d="M1126.586-249.291s-4.31-16.293-7.802-29.117c-3.491-12.824-10.586-38.277-10.586-38.277s6.581 25.59 9.97 38.442a5074.411 5074.411 0 0 0 7.802 29.117"/>
        </g>
        <g id="h" stroke-width="3.078">
          <path d="M1206.423-261.845s16.752 12.975 20.58 27.51c3.828 14.534-4.069 25.519-4.069 34.113-4.297-7.443-16.628-13.008-20.58-27.509-3.952-14.501 4.069-34.114 4.069-34.114zm15.727 58.695c1.025-8.56 5.296-12.445 5.621-24.622m-8.098 15.379c1.026-8.561 6.464-12.62 6.238-24.787m-9.21 13.695c.347-8.38 5.423-10.36 4.576-22.36m-7.547 11.268c.345-8.38 5.135-8.256 2.485-17.838m-5.128 7.979c.366-5.418 2.947-6.933-.221-13.15m11.284 54.436c-5.169-6.901-10.81-8.13-17.18-18.512m14.703 9.269c-5.168-6.902-11.907-7.698-17.795-18.348m14.823 7.256c-4.49-7.084-9.876-6.26-15.143-17.077m12.172 5.985c-4.49-7.084-8.576-4.582-11.072-14.205m8.429 4.346c-3.025-4.51-6.018-4.53-6.383-11.5"/>
          <path d="M1224.894-194.142s-4.31-16.293-7.802-29.117c-3.491-12.825-10.587-38.278-10.587-38.278s6.582 25.59 9.97 38.443a5154.98 5154.98 0 0 0 7.803 29.117M1170.504-136.72s2.86-20.996 13.533-31.579c10.673-10.582 24.135-9.236 31.578-13.533-4.297 7.443-2.951 20.904-13.534 31.578-10.582 10.673-31.577 13.533-31.577 13.533zm42.968-42.97c-7.928 3.394-13.427 1.637-24.135 7.444m17.368-.677c-7.927 3.393-14.161.714-24.585 6.993m16.465 1.127c-7.43 3.89-11.684.485-21.653 7.218m13.533.902c-7.43 3.89-9.718-.319-16.69 6.767m9.472.451c-4.874 2.392-7.477.915-11.277 6.767m41.502-36.992c-3.393 7.928-1.637 13.428-7.444 24.135m.677-17.368c-3.393 7.928-.713 14.162-6.992 24.586m-1.128-16.466c-3.89 7.43-.484 11.684-7.218 21.654m-.902-13.534c-3.89 7.43.32 9.718-6.767 16.692m-.451-9.474c-2.391 4.875-.914 7.477-6.766 11.278"/>
          <path d="M1219.9-186.569s-11.954 11.88-21.315 21.315c-9.36 9.436-27.856 28.308-27.856 28.308s18.871-18.496 28.307-27.857a5074.411 5074.411 0 0 0 21.315-21.315"/>
        </g>
        <g stroke-width="3.078">
          <path d="M1057.073-278.588s20.562-5.119 34.344.877c13.783 5.996 17.517 18.999 24.265 24.321-8.505-1.235-20.511 5-34.344-.877-13.834-5.878-24.265-24.321-24.265-24.321zm55.825 24.001c-6.087-6.107-6.492-11.866-15.851-19.662m7.06 15.883c-6.088-6.108-5.907-12.891-15.6-20.249m5.05 15.713c-6.365-5.462-4.777-10.674-14.723-17.441m4.173 12.905c-6.365-5.462-3.302-9.145-12.466-12.999m3.089 8.967c-4.027-3.642-3.619-6.607-10.462-7.97m49.73 24.853c-8.62-.216-13.078 3.452-25.175 2.024m16.384-5.803c-8.62-.217-13.42 4.581-25.427 2.609m14.877-7.145c-8.343-.862-11.032 3.877-22.787 1.314m12.237-5.85c-8.342-.862-8.908 3.895-18.01-.105m8.633-3.927c-5.414-.416-7.284 1.92-12.982-2.109"/>
          <path d="M1121.669-251.163s-15.462-6.705-27.693-11.906c-12.232-5.201-36.61-15.393-36.61-15.393s24.168 10.68 36.358 15.979a5135.657 5135.657 0 0 0 27.693 11.906"/>
        </g>
        <g stroke-width="3.078">
          <path d="M1072.283-383.91s14.687-15.274 29.546-17.531c14.86-2.257 24.941 6.766 33.486 7.682-7.858 3.479-14.706 15.147-29.546 17.53-14.84 2.385-33.486-7.681-33.486-7.681zm60.038-9.381c-8.404-1.933-11.81-6.593-23.883-8.214m14.428 9.691c-8.403-1.932-11.86-7.772-23.981-8.844m12.635 10.617c-8.295-1.238-9.723-6.496-21.745-6.934m10.4 8.707c-8.295-1.238-7.662-5.987-17.472-4.373m7.387 5.949c-5.348-.942-6.58-3.67-13.099-1.182m55.33-5.417c-7.414 4.403-9.237 9.881-20.239 15.108m10.784-13.631c-7.413 4.404-8.923 11.02-20.14 15.738m8.794-13.965c-7.522 3.709-7.278 9.152-18.594 13.237m7.249-11.464c-7.522 3.709-5.47 8.038-15.305 9.494m5.22-7.918c-4.806 2.527-5.146 5.5-12.114 5.121"/>
          <path d="M1141.57-395.06s-16.66 2.55-29.783 4.654c-13.124 2.105-39.188 6.447-39.188 6.447s26.146-3.817 39.286-5.816c13.14-2 29.783-4.654 29.783-4.654"/>
        </g>
        <g stroke-width="3.078">
          <path d="M1102.133-454.901s19.984 7.045 28.19 19.637c8.207 12.592 4.168 25.504 6.872 33.661-6.42-5.713-19.876-7.115-28.19-19.637-8.314-12.52-6.872-33.661-6.872-33.661zm33.397 50.766c-1.721-8.45 1.11-13.48-2.412-25.14m-2.848 17.145c-1.72-8.449 2.164-14.013-1.878-25.49m-4.432 15.897c-2.309-8.063 1.887-11.54-2.693-22.665m-3.619 13.071c-2.308-8.063 2.277-9.452-3.253-17.714m-2.357 9.187c-1.357-5.258.616-7.508-4.347-12.413m27.839 48.122c-7.078-4.925-12.82-4.316-22.132-12.167m16.872 4.172c-7.078-4.925-13.725-3.56-22.664-11.817m16.354 2.224c-6.491-5.312-11.345-2.836-19.748-11.445m13.436 1.851c-6.49-5.311-9.582-1.651-14.979-10m9.369 1.473c-4.29-3.328-7.138-2.407-9.677-8.907"/>
          <path d="M1140.968-396.448s-9.218-14.11-16.567-25.184c-7.349-11.075-22.092-33.003-22.092-33.003s14.299 22.22 21.56 33.354a5079.768 5079.768 0 0 0 16.566 25.183"/>
        </g>
        <g id="i" stroke-width="3.078">
          <path d="M1213.668-401.795s16.753 12.975 20.58 27.51c3.828 14.534-4.068 25.519-4.068 34.113-4.297-7.443-16.628-13.008-20.58-27.51-3.953-14.5 4.068-34.113 4.068-34.113zm15.727 58.695c1.026-8.561 5.297-12.446 5.622-24.622m-8.098 15.379c1.025-8.561 6.463-12.62 6.237-24.787m-9.209 13.695c.346-8.38 5.422-10.36 4.575-22.36m-7.548 11.268c.347-8.38 5.136-8.256 2.486-17.838m-5.127 7.979c.365-5.418 2.946-6.933-.222-13.15m11.284 54.436c-5.168-6.901-10.81-8.13-17.179-18.512m14.703 9.269c-5.17-6.902-11.908-7.698-17.796-18.348m14.824 7.256c-4.49-7.084-9.877-6.26-15.144-17.077m12.171 5.985c-4.49-7.084-8.575-4.582-11.071-14.205m8.43 4.346c-3.026-4.51-6.019-4.531-6.384-11.5"/>
          <path d="M1232.139-334.092s-4.31-16.293-7.802-29.117c-3.491-12.825-10.587-38.278-10.587-38.278s6.582 25.59 9.971 38.443a5074.411 5074.411 0 0 0 7.802 29.117M1167.114-294.907s8.197-19.54 21.245-27c13.05-7.458 25.704-2.674 34.005-4.899-6.077 6.077-8.261 19.429-21.245 27-12.984 7.57-34.005 4.899-34.005 4.899zm52.626-30.383c-8.536 1.225-13.393-1.895-25.239.943m16.951 3.841c-8.535 1.226-13.863-2.976-25.557.391m15.612 5.351c-8.184 1.834-11.41-2.556-22.783 1.368m12.838 4.374c-8.184 1.834-9.304-2.824-17.873 2.216m9.033 2.888c-5.327 1.048-7.459-1.052-12.644 3.617m49.662-24.989c-5.33 6.779-5.056 12.546-13.437 21.385m5.149-16.601c-5.329 6.78-4.354 13.495-13.117 21.938m3.172-16.196c-5.68 6.17-3.492 11.16-12.576 19.047m2.631-13.305c-5.68 6.17-2.206 9.47-10.856 14.37m2.016-9.266c-3.572 4.089-2.818 6.985-9.455 9.142"/>
          <path d="M1227.73-330.272s-14.622 8.38-26.106 15.072c-11.484 6.692-34.233 20.133-34.233 20.133s23.015-12.98 34.552-19.58a5074.411 5074.411 0 0 0 26.105-15.072"/>
        </g>
        <g stroke-width="3.078">
          <path d="M1182.237-442.008s19.633-7.97 34.124-3.98c14.49 3.991 20.024 16.337 27.455 20.653-8.594-.022-19.6 7.845-34.124 3.98-14.525-3.867-27.455-20.653-27.455-20.653zm58.653 15.881c-6.888-5.187-8.102-10.83-18.467-17.228m9.231 14.727c-6.888-5.187-7.667-11.928-18.301-17.843m7.217 14.842c-7.072-4.508-6.236-9.893-17.038-15.188m5.953 12.187c-7.072-4.509-4.56-8.588-14.176-11.11m4.324 8.442c-4.5-3.037-4.515-6.03-11.482-6.414m52.739 17.585c-8.564 1.003-12.46 5.264-24.636 5.557m15.4-8.058c-8.564 1.003-12.638 6.43-24.804 6.172m13.72-9.173c-8.381.324-10.375 5.395-22.373 4.517m11.288-7.518c-8.38.324-8.27 5.113-17.844 2.438m7.992-5.106c-5.419.352-6.94 2.928-13.15-.256"/>
          <path d="M1250.057-423.975s-16.253-4.456-29.096-7.879c-12.843-3.422-38.416-10.07-38.416-10.07s25.434 7.161 38.25 10.686a5074.41 5074.41 0 0 0 29.095 7.878"/>
        </g>
        <g stroke-width="3.078">
          <path d="M1215.135-497.138s19.518 8.248 26.943 21.316c7.425 13.068 2.608 25.71 4.81 34.017-6.06-6.093-19.406-8.312-26.943-21.316-7.537-13.004-4.81-34.017-4.81-34.017zm30.245 52.705c-1.203-8.539 1.93-13.388-.877-25.241m-3.886 16.941c-1.203-8.539 3.013-13.856-.324-25.558m-5.391 15.598c-1.813-8.189 2.586-11.404-1.308-22.787m-4.408 12.827c-1.813-8.189 2.848-9.297-2.17-17.88m-2.911 9.027c-1.034-5.33 1.072-7.456-3.584-12.654m24.859 49.727c-6.765-5.347-12.532-5.089-21.35-13.492m16.587 5.192c-6.765-5.347-13.483-4.39-21.903-13.175m16.188 3.215c-6.156-5.697-11.151-3.521-19.015-12.626m13.299 2.666c-6.155-5.697-9.464-2.232-14.342-10.894m9.261 2.041c-4.08-3.583-6.978-2.837-9.117-9.48"/>
          <path d="M1250.34-436.43s-8.342-14.644-15.003-26.145c-6.662-11.502-20.043-34.286-20.043-34.286s12.92 23.049 19.49 34.603a5040.778 5040.778 0 0 0 15.003 26.145"/>
        </g>
        <use transform="translate(-32 -18)" width="744.094" height="1052.362" xlink:href="#h"/>
        <g stroke-width="3.078">
          <path d="M1142.423-297.845s16.752 12.975 20.58 27.51c3.828 14.534-4.069 25.519-4.069 34.113-4.297-7.443-16.628-13.008-20.58-27.509-3.952-14.501 4.069-34.114 4.069-34.114zm15.727 58.695c1.025-8.56 5.296-12.445 5.621-24.622m-8.098 15.379c1.026-8.561 6.464-12.62 6.238-24.787m-9.21 13.695c.347-8.38 5.423-10.36 4.576-22.36m-7.547 11.268c.345-8.38 5.135-8.256 2.485-17.838m-5.128 7.979c.366-5.418 2.947-6.933-.221-13.15m11.284 54.436c-5.169-6.901-10.81-8.13-17.18-18.512m14.703 9.269c-5.168-6.902-11.907-7.698-17.795-18.348m14.823 7.256c-4.49-7.084-9.876-6.26-15.143-17.077m12.172 5.985c-4.49-7.084-8.576-4.582-11.072-14.205m8.429 4.346c-3.025-4.51-6.018-4.53-6.383-11.5"/>
          <path d="M1160.894-230.142s-4.31-16.293-7.802-29.117c-3.491-12.825-10.587-38.278-10.587-38.278s6.582 25.59 9.97 38.443a5154.98 5154.98 0 0 0 7.803 29.117M1106.504-172.72s2.86-20.996 13.533-31.579c10.673-10.582 24.135-9.236 31.578-13.533-4.297 7.443-2.951 20.904-13.534 31.578-10.582 10.673-31.577 13.533-31.577 13.533zm42.968-42.97c-7.928 3.394-13.427 1.637-24.135 7.444m17.368-.677c-7.927 3.393-14.161.714-24.585 6.993m16.465 1.127c-7.43 3.89-11.684.485-21.653 7.218m13.533.902c-7.43 3.89-9.718-.319-16.69 6.767m9.472.451c-4.874 2.392-7.477.915-11.277 6.767m41.502-36.992c-3.393 7.928-1.637 13.428-7.444 24.135m.677-17.368c-3.393 7.928-.713 14.162-6.992 24.586m-1.128-16.466c-3.89 7.43-.484 11.684-7.218 21.654m-.902-13.534c-3.89 7.43.32 9.718-6.767 16.692m-.451-9.474c-2.391 4.875-.914 7.477-6.766 11.278"/>
          <path d="M1155.9-222.569s-11.954 11.88-21.315 21.315c-9.36 9.436-27.856 28.308-27.856 28.308s18.871-18.496 28.307-27.857a5074.411 5074.411 0 0 0 21.315-21.315"/>
        </g>
        <use transform="translate(-62 -40)" width="744.094" height="1052.362" xlink:href="#i"/>
        <use transform="translate(-31 -20)" width="744.094" height="1052.362" xlink:href="#i"/>
      </g>
      <use transform="matrix(-1 0 0 1 2501 0)" width="744.094" height="1052.362" xlink:href="#j"/>
      <path d="M1250.5-437.125c-8.62 41.666-8.594 79.156-8.594 79.156-.505 13.948-7.41 23.678-13.781 20-54.887-31.60BEC9CFA51" fill="#947245"/>
    </g>
    <g stroke-width="2.727">
      <path d="M264.452 424.637c-.25.946 1.503 12.373.546 15.66-.508 4.54-.635 5.238-1.704 11.12-1.069 5.881-2.364 17.308-4.391 24.163-.17.576-.408 1.358-.452 2.042-.567 3.502-.584 5.981-.211 10.35l3.512 19.415s1.634 1.918 1.881 2.722c.247.804-.172 2.006-.006 2.25.927 1.362 1.074 2.702 2.177 3.848.173.18.92.107 1.118.356.171.216 1.485.3 1.74.466.784.74.646 1.276 1.049 2.404l-6.321.026c.162-2.822-2.057-3.938-2.057-3.938-.244-.308-2.823-1.017-3.121-2.683-.413-2.392-.068-2.869-.068-2.869s-2.115-9.062-2.996-11.33c-.504-1.758-.605-2.592-.855-4.127-.76-4.24-1.017-6.075-3.32-12.405-.547-1.097-1.987-1.453-1.869-2.898.154-.557.427-.979.701-1.462l.072-1.11c.336-5.183.625-10.384 1.056-15.547a1.85 1.85 0 0 0 .236-.741c.602-8.797-4.079-17.02-7.1-24.897-.548-1.43-.075-2.995-.696-4.423-3.214-1.108-5.415-6.475-6.563-9.854-1.122-3.303-1.617-8.284-.764-11.589.278-1.077.434-1.814.964-2.522m63.313 36.682c1.026-.24 1.416-.319 2.51-.308 0 0 .74 1.02.959 1.499 1.529 2.753 3.371 15.341 4.434 21.193.33 1.814 1.094 5.943 1.434 7.866 0 0-.377 2.066.288 4.345.203.695.426 1.387.609 2.085.803 3.062 1.716 3.813 1.716 3.813.214.733 1.468 6.751 1.681 7.484 1.842 8.241 2.741 13.212 2.623 16.652-.115 4.714-.09 4.254.284 4.639 1.037 1.068 1.567.406 3.787 6.085.133.454.265-.217.505.234.287.538.78.477 1.18.53.73.096.59.23 1.181.307a6.248 6.248 0 0 0 1.58.015l5.461.037c-.67-1.992-2.887-3.369-4.828-3.386-.857-.528-1.85-1.282-2.155-2.287-1.251-2.003-1.608-2.427-2.262-3.335.108-.722-.414-1.692-.64-2.47l-1.958-23.232s.403-2.328.372-4.745c-.164-12.768.578-25.616 1.05-38.434.16-1.074 4.04-4.71 4.04-4.71" fill="#e3e4e5" stroke-linecap="square" transform="matrix(.15595 0 0 .15696 193.886 177.564)"/>
      <path d="M356.761 323.788a7.326 7.326 0 0 0-5.446 2.507c-1.794 2.469-2.968 7.56-3.099 10.618-.034.807.3 1.426029C71DA43" fill="#fff" stroke-linecap="square" transform="matrix(.15595 0 0 .15696 193.886 177.564)"/>
      <path d="M249.524 228.385a1.14 1.14 0 0 0-.85.393c-.279.388-.462 1.187-.483 1.667-.005.127.047.224.007.337-.10A175B9A40" fill="#d18219" stroke="none"/>
      <path d="M356.761 323.788a7.326 7.326 0 0 0-5.446 2.507c-1.794 2.469-2.968 7.56-3.099 10.618-.034.807.3 1.426029C71DA43" fill="none" stroke-linecap="square" transform="matrix(.15595 0 0 .15696 193.886 177.564)"/>
      <path d="M382.265 343.818c0 .332-.169.795-.268 1.19-.015.064-.007.106-.017.165.083-.398.294-.837.294-1.22 0-.048-.009-.088-.009-.135z" fill="#d39044" stroke-linecap="square" transform="matrix(.15595 0 0 .15696 193.886 177.564)"/>
      <path d="M334.948 432.87c-2.059 8.327-7.182 10.024-3.42 17.087 0 0-1.618-.118-2.592-2.837-.487-1.36-.813-3.37-.696-6.343.059-1.486.228-3.212.544-5.218.158-1.002.352-2.075.587-3.222" fill="#fff" fill-rule="evenodd" transform="matrix(.15595 0 0 .15696 193.886 177.564)"/>
      <path d="M338.745 429.429c-2.058 8.327-7.182 10.024-3.42 17.087 0 0-2.025-.03-2.999-2.75-.487-1.359-.838-3.642-.858-5.371-.02-1.73.45-4.684.788-5.924.337-1.24 1.238-3.31 1.238-3.31" fill="#fff" fill-rule="evenodd" transform="matrix(.15595 0 0 .15696 193.886 177.564)"/>
      <path d="M345.773 418.39c-2.934 5.509-5.297 10.213-6.52 14.3-1.225 4.089-1.996 6.272.31 10.602 0 0-1.567-.817-3.628-4.632-.65-1.204-1.086-3.867-.789-6.592a30.55 30.55 0 0 1 .776-4.396 30.07 30.07 0 0 1 .79-2.58" fill="#fff" fill-rule="evenodd" transform="matrix(.15595 0 0 .15696 193.886 177.564)"/>
      <path d="M348.502 414.884c-1.818 2.792-2.406 5.465-3.414 7.733-2.016 4.537-3.085 7.944-3.085 10.44 0 2.029-.357 3.709 1.905 7.156 0 0-1.061-.124-1.753-.543-.692-.419-1.56-1.194-2.269-2.62-.708-1.427-1.255-3.504-1.303-6.527-.024-1.511.478-3.745.89-5.217.413-1.473 1.807-4.55 1.807-4.55" fill="#fff" fill-rule="evenodd" transform="matrix(.15595 0 0 .15696 193.886 177.564)"/>
      <path d="M353.27 334.537c.119-.233-11.574-3.636-13.242-13.858 2.275-2.15 14.25 5.702 14.438 12.987" fill="#d18219" fill-rule="evenodd" stroke-width="1.364" transform="matrix(.15595 0 0 .15696 193.886 177.564)"/>
      <path d="M340.423 320.825c.093.205 6.265.184 11.133 10.596-1.095-1.244-6.04 1.675-11.092-10.204" fill-opacity=".502" fill-rule="evenodd" stroke-width="1.364" transform="matrix(.15595 0 0 .15696 193.886 177.564)"/>
      <path d="M368.707 335.545c.165-.134.396-.452.122-.75-5.102-3.192-4.857.706-8.443.706 1.71 0 1.706.234 2.345.926 2.32 2.515 3.917 2.265 5.976-.176" fill-rule="evenodd" stroke-width="1.364" transform="matrix(.15595 0 0 .15696 193.886 177.564)"/>
      <path d="M381.193 349.763c-.565.67-2.538-.793-3.984-.967" fill="none" stroke-linecap="square" transform="matrix(.15595 0 0 .15696 193.886 177.564)"/>
      <path d="M382.326 345.923s-.54-.438-4.32-.932c.004.07 2.605-2.673 2.835.29" fill-rule="evenodd" stroke-linecap="square" transform="matrix(.15595 0 0 .15696 193.886 177.564)"/>
      <path d="M302.663 436.88a33.59 33.59 0 0 0-.914 1.815c-1.068 2.348-1.409 4.538.472 8.069 0 0-1.617-.117-2.591-2.837-.487-1.36-.813-3.37-.696-6.343.03-.743.086-1.546.175-2.414" fill="#fff" fill-rule="evenodd" transform="matrix(.15595 0 0 .15696 193.886 177.564)"/>
      <path d="M230.708 419.108s-1.55-6.161 2.09-13.014" fill="none" transform="matrix(.15595 0 0 .15696 193.886 177.564)"/>
    </g>
    <g fill="#e7ca00" stroke-width="2.294">
      <path d="M401.415 879.458c-2.045-1.515-4.023-6.243-3.27-8.842-2.694-2.22-9.659 2.184-6.276 8.588 3.354 6.388 0589891A33" transform="matrix(.01517 -.19478 .17623 .01677 116.11 336.644)"/>
      <path d="M407.416 882.052c1.063-4.786 5.835-6.083 10.57-5.594-2.96-3.38-6.044-8.823-10.264-5.651-3.317 2.504-5.617 6.151-.299 11.225l-.008.02z" transform="matrix(.01517 -.19478 .17623 .01677 116.11 336.644)"/>
      <path d="M404.77 879.344c.56-3.612 2.025-8.456 5.93-10.433-3.367-3.054-11.69-2.136-12.302 4.1-.632 6.231 3.040907B64AA8" transform="matrix(.01517 -.19478 .17623 .01677 116.11 336.644)"/>
      <path d="M396.765 918.122c5.294.946 13.706-2.13 9.908-13.822-3.71-11.462-12.224-10.052-12.808-7.164 4.779 1.845 6.512 13.045 2.871 21.008l.03-.022z" transform="matrix(.01517 -.19478 .17623 .01677 116.11 336.644)"/>
      <path d="M376.728 918.168c3.859 3.455 13.822 4.688 17.015-6.829 3.011-10.905.276-14.41-3.62-16.18 1.943 5.67203656F2ABA" transform="matrix(.01517 -.19478 .17623 .01677 116.11 336.644)"/>
      <path d="M409.224 914.63c3.051-2.059 10.717-7.101 4.569-17.83-6.09-10.543-14.194-3.537-14.215-.648 3.563.888 9.641 9.955 9.673 18.46l-.027.017z" transform="matrix(.01517 -.19478 .17623 .01677 116.11 336.644)"/>
      <path d="M416.718 907.263c2.017-2.81 7.176-9.719-.7-16.792-7.758-6.967-12.759 1.783-12.047 4.285 3.199-.447 10.595 5.25 12.77 12.52l-.023-.013z" transform="matrix(.01517 -.19478 .17623 .01677 116.11 336.644)"/>
      <path d="M421.176 896.276c.56-3.612 2.045-12.624-7.034-14.705-8.902-2.034-9.573 8.603-8.069 10.431 2.395-2.1809CEA13A3E" transform="matrix(.01517 -.19478 .17623 .01677 116.11 336.644)"/>
      <path d="M360.848 906.698c3.225 6.56 19.288 14.058 25.522 1.927 5.916-11.504 1.012-22.081-3.9-26.14 2.33 11.768-12.11 29.737-21.626 24.184l.004.029z" transform="matrix(.01517 -.19478 .17623 .01677 116.11 336.644)"/>
      <path d="M352.366 898.402c7.864 17.16 24.132 14.152 29.643 1.691 5.229-11.823 3.75-18.756-2.177-24.424-4.094 15.2-12.2 23.738-27.49 22.705l.024.028z" transform="matrix(.01517 -.19478 .17623 .01677 116.11 336.644)"/>
      <path d="M341.921 884.056c5.964 21.484 27.137 18.887 36.131 6.547 6.355-8.705 4.117-15.146.905-18.94-6.961 8.212-18.98 15.534-37.069 12.368l.033.025z" transform="matrix(.01517 -.19478 .17623 .01677 116.11 336.644)"/>
      <path d="M337.98 870.931c.633 21.914 26.07 24.33 37.372 11.791 7.983-8.845 7.368-15.426 5.227-19.305-8.432 8.338-25.238 18.384-42.626 7.488l.026.026z" transform="matrix(.01517 -.19478 .17623 .01677 116.11 336.644)"/>
      <path d="M332.703 850.203c-3.87 28.348 29.128 37.617 43.467 20.689 7.698-9.07 7.333-15.432 5.2-19.31-14.3 10.02-39.159 11.185-48.688-1.376l.021-.003z" transform="matrix(.01517 -.19478 .17623 .01677 116.11 336.644)"/>
      <path d="M329.46 823.53c-9.486 30.632 19.29 41.583 38.047 38.528 14.855-2.403 23.204-19.886 21.094-23.738-18.552 13.087-55.366 1.82-59.157-14.759l.016-.032z" transform="matrix(.01517 -.19478 .17623 .01677 116.11 336.644)"/>
      <path d="M329.06 799.67c-12.676 29.897 15.364 47.446 38.583 45.69 15.216-1.153 27.753-7.06 27.202-19.552-22.745 8.013-58.219-5.432-65.807-26.134l.021-.004z" transform="matrix(.01517 -.19478 .17623 .01677 116.11 336.644)"/>
      <path d="M329.966 774.93c-12.693 30.576 14.747 55.711 43.465 56.342 14.648.316 21.34-3.593 27.196-13.299-20.73 3.532-64.889-27.938-70.661-43.044z" transform="matrix(.01517 -.19478 .17623 .01677 116.11 336.644)"/>
      <path d="M329.57 765.272c-11.333 35.923 80.312 80.423 84.993 33.705-21.913 11.482-81.753-20.668-84.992-33.705z" transform="matrix(.01517 -.19478 .17623 .01677 116.11 336.644)"/>
      <path d="M327.523 755.606c-15.379 19.757 93.055 78.167 95.506 28.363-9.762 5.009-29.87.684-49.265-8.106-19.38-8.787-33.155-22.855-46.237-20.233l-.005-.024z" transform="matrix(.01517 -.19478 .17623 .01677 116.11 336.644)"/>
      <path d="M310.962 751.12c19.613.483 61.382 30.938 89.302 36.03 17.874 3.25 32.459-4.197 24.146-35.544-28.487 096D1F6A82" transform="matrix(.01517 -.19478 .17623 .01677 116.11 336.644)"/>
      <path d="M314.738 755.54c19.01-11.796 58.328 10.083 86.15 11.273 17.08.697 38.39-18.62 24.406-47.052-21.874 30F56431AA5" transform="matrix(.01517 -.19478 .17623 .01677 116.11 336.644)"/>
      <path d="M307.104 756.761c20.232-14.78 61.569-6.196 88.05-8.343 17.572-1.444 43.746-32.009 19.805-57.475-14.80F3E414A24" transform="matrix(.01517 -.19478 .17623 .01677 116.11 336.644)"/>
      <path d="M314.385 751.966c16.663-15.72 57.604-14.669 81.93-27.066 16.32-8.304 32.874-43.645 4.386-61.42-2.96201361B5A5C" transform="matrix(.01517 -.19478 .17623 .01677 116.11 336.644)"/>
      <path d="M316.126 744.463c12.345-22.09 50.302-27.61 70.82-45.993 18.351-16.443 23.318-46.355-7.626-55.908-2.60C889B7AA3" transform="matrix(.01517 -.19478 .17623 .01677 116.11 336.644)"/>
      <path d="M325.504 721.914c12.654-20.094 22.161-13.181 42.356-33.822 17.383-17.772 22.62-60.366-7.793-61.346 4053DF3FAA5" transform="matrix(.01517 -.19478 .17623 .01677 116.11 336.644)"/>
      <g stroke-width="3.041">
        <path d="M310.424 602.663l-10.497 5.67-49.929 153.76 18.14 40.066 17.139 2.478 20.712-1.52 30.737-138.479 8.666-56.418-21.061-12.406-13.907 6.85z" fill-rule="evenodd" transform="matrix(.01033 -.15961 .1223 .0163 152.47 322.348)"/>
        <path d="M309.263 597.474c.415 2.04.853 4.105 1.293 6.14 9.833-6.845 20.436-.176 23.345 15.636 2.902 15.806-3083EBC7A78" transform="matrix(.01033 -.15961 .1223 .0163 152.47 322.348)"/>
      </g>
      <path d="M-325.656 629.664c.001-3.088 2.01-5.59 4.489-5.59 2.478 0 4.487 2.502 4.488 5.59h-8.977z" transform="matrix(.80795 .2725 .34088 -.78636 295.431 874.635)" fill-rule="evenodd" stroke-width=".5"/>
      <path d="M295.504 723.041c-3.802 7.233-11.304 10.594-16.734 7.42-5.396-3.156-6.684-11.681-2.921-18.968 3.798-0703160ADB" transform="matrix(.01517 -.19526 .17623 .01113 117 337.655)"/>
      <path d="M300.305 632.437c-2.852-3.625-6.749-5.866-11.004-5.267-4.033.568-7.999 3.659-10.677 7.768a18.765 18.0677DF4ABF" transform="matrix(.01517 -.19526 .17623 .01113 117 337.655)"/>
      <path d="M258.333 689.203c-2.006.599-4.083.405-5.87-.778-4.37-2.896-5.54-10.496-2.61-16.944 2.96-6.423 8.955-0A3D49FA78" transform="matrix(.01517 -.19526 .17623 .01113 117 337.655)"/>
      <path d="M262.393 693.964c-3.06-.953-5.817-3.465-7.408-7.237-2.952-6.974-.85-15.61 4.763-19.248 2.876-1.84 6.00B1AA6A6B" transform="matrix(.01517 -.19526 .17623 .01113 117 337.655)"/>
      <path d="M251.674 769.938a12.338 12.338 0 0 1-.917-.99c-5.64-6.455-7.08-16.8-3.218-22.981 3.619-5.802 10.678-06628FFA06" transform="matrix(.01517 -.19526 .17623 .01113 117 337.655)"/>
      <path d="M268.083 783.814c-5.381-.309-10.723-6.313-12.475-14.487-1.953-9.153 1.305-17.664 7.28-18.91l.266-.030AACD50ADB" transform="matrix(.01517 -.19526 .17623 .01113 117 337.655)"/>
      <path d="M269.946 727.884c-7.013-4.51-11.361-13.99-9.673-21.123 1.673-7.11 8.767-9.257 15.78-4.754 2.025 1.2908D52D6A0B" transform="matrix(.01517 -.19526 .17623 .01113 117 337.655)"/>
      <path d="M284.7 750.888c-3.681 7.63-11.189 10.503-16.705 6.352-5.491-4.115-6.942-13.723-3.283-21.381 3.681-7.027C951AAC" transform="matrix(.01517 -.19526 .17623 .01113 117 337.655)"/>
      <path d="M284.18 666.044c1.218 7.903-4.118 15.27-10.446 16.162-6.308.888-12.472-4.831-13.693-12.763-.864-5.600D46767A3A" transform="matrix(.01517 -.19526 .17623 .01113 117 337.655)"/>
      <path d="M287.201 705.726c-5.672 2.926-12.188-1.39-14.474-9.664-2.285-8.275.45-17.434 6.142-20.392 1.763-.9030645687A1E" transform="matrix(.01517 -.19526 .17623 .01113 117 337.655)"/>
      <path d="M304.5 667.948c.426 2.76-.017 5.464-1.083 7.859-5.203-3.176-12.142.017-15.889 7.242-4.182-1.796-7.530E0A36CA8A" transform="matrix(.01517 -.19526 .17623 .01113 117 337.655)"/>
      <path d="M303.513 696.658c-4.26 9.226-12.873 13.369-19.195 9.203-6.288-4.15-7.974-15.092-3.725-24.346 4.26-9.05C43ECA7B" transform="matrix(.01517 -.19526 .17623 .01113 117 337.655)"/>
      <path d="M322.452 630.627c1.01 6.556-3.192 12.756-8.577 14.633-2.38-3.426-5.837-5.648-9.628-5.114a9.624 9.62409B3DA3AE7" transform="matrix(.01517 -.19526 .17623 .01113 117 337.655)"/>
      <path d="M293.229 654.4c-3.093 1.87-6.583 2.104-9.461.235-5.117-3.394-6.486-12.284-3.047-19.782 3.457-7.501 1027D860AB4" transform="matrix(.01517 -.19526 .17623 .01113 117 337.655)"/>
      <path d="M270.605 803.782c-6.263 2.781-13.224-1.096-15.517-8.766-2.294-7.67.943-16.318 7.258-19.217 5.442-2.4015D696A1A" transform="matrix(.01517 -.19526 .17623 .01113 117 337.655)"/>
      <path d="M267.557 817.92c-5.657 2.577-11.968-.899-14.041-7.797-1.382-4.663-.507-9.733 1.976-13.306 3.978 3.3804ED2C5A7D" transform="matrix(.01517 -.19526 .17623 .01113 117 337.655)"/>
      <path d="M285.171 848.437c-6.135 2.792-12.96-.987-15.2-8.466a17.692 17.692 0 0 1-.001-9.943c4.011 3.6 9.243 401EC84EA6F" transform="matrix(.01517 -.19526 .17623 .01113 117 337.655)"/>
      <path d="M293.142 863.357c-6.142 2.793-12.968-.993-15.207-8.472-.611-2.041-.808-4.14-.683-6.197 2.383.415 4.8065BA9DA0E" transform="matrix(.01517 -.19526 .17623 .01113 117 337.655)"/>
      <path d="M285.163 808.599c-6.136 2.785-12.968-.993-15.207-8.472-2.231-7.473.92-15.851 7.052-18.673 6.135-2.7902F5189A5D" transform="matrix(.01517 -.19526 .17623 .01113 117 337.655)"/>
      <path d="M283.132 834.193c-6.042 2.742-12.815-.985-15.011-8.352-2.197-7.368.9-15.657 6.962-18.432 6.043-2.77908BB0F4A8F" transform="matrix(.01517 -.19526 .17623 .01113 117 337.655)"/>
    </g>
  </g>
  <path d="M232.76 219.867l-.28.346-11.244 14-.245.307.285.271c3.611 3.44 5.704 9.295 5.71 13.996.01 5.987-.96501B31E9A4A" fill="#e7ca00" stroke="#d4af37" stroke-width=".427"/>
  <g fill="#008f4c">
    <path d="M298.644 201.135c-.062.007-.102.03-.12.075-.081.28-.327 1.81-.489 3.376-.122 1.566-.324 2.85-.364 2.0587357A73" fill="#00a854"/>
    <path d="M305.982 255.267c-.387 1.518-.7 1.792.111 2.956.366.563 1.056.884 1.747.884 1.096 0 1.706.803 2.64 3097342AA66"/>
  </g>
  <path d="M230.916 321.135c-.853.687-1.074 1.781-.443 2.406.916.906 4.107.094 4.455-1.156.442-1.75-2.275-2.593-4.012-1.25z" fill="#9eab05"/>
  <path d="M299.595 204.47c.325 2.007 2.275 6.104 3.737 7.791.609.723 1.177 1.246 1.3 1.165.08-.12-1.057-2.53-2086D348A65" fill="#75b52b"/>
  <path d="M300.123 228.127c-1.543 1.085.081 3.816 1.706 2.852.975-.643 1.137-2.21.244-2.852-.407-.281-.853-.520C67CDBABE" fill="#d91023"/>
  <path d="M295.757 212.463c.164.26.949 1.18 1.734 2.054 1.504 1.633 2.73 3.331 5.003 6.873 1.603 2.506 3.63 5.07C02ADA48" fill="#75b52b"/>
  <path d="M306.142 263.236c-.049.275-.467 2.979-.647 6.149-.425 7.341-.801 11.29-1.635 16.028-.36 2.086-.703 40ACF87FA2E" fill="#eac102" fill-opacity=".502"/>
  <path d="M298.144 203.846l-.49 3.628-1.467-.726c-1.548-.726-5.542-1.572-7.458-1.572-1.06 0-1.1.08-.897 1.29.202DA785A80" fill="#cab313" fill-opacity=".502"/>
  <path d="M306.295 231.174c.57 1.21 1.63 2.46 1.671 2.016 0-.242-.489-.968-1.06-1.612-.57-.686-.855-.847-.61-.404z" fill="#005000"/>
  <path d="M295.535 252.215c-.163.847-.448 2.217-.693 3.104l-.366 1.531-1.182-1.088-1.141-1.088-.327 1.894c-.360B906DCA10" fill="#cab313" fill-opacity=".502"/>
  <path d="M295.495 288.371c-4.402 2.942-8.115 9.073-9.249 13.987-.081 1.25-1.413 2.297-1.21 2.176.164.604 1.410628C63AA2" fill="#cab313" fill-opacity=".502"/>
  <path d="M257.428 315.095c-2.364.202-7.133.927-15.08 2.217-4.158.645-7.744 1.21-8.03 1.25-.285 0-.407.16-.32605A82D5A6D" fill="#cab313" fill-opacity=".502"/>
  <path d="M250.703 319.005c-7.337 1.41-11.901 2.58-14.102 3.708-2.853 1.41-2.446 1.532.611.161 1.427-.645 3.870A9AE32ADF" fill="#cab313" fill-opacity=".502"/>
  <path d="M282.841 308.307c-1.274.767-2.59 2.282-1.163 2.053 1.08-.095 5.13-1.326 5.446-2.125-1.55.137-2.823-.237-4.283.072z" fill="#fff"/>
  <g stroke="#d4af37" stroke-width=".904">
    <path d="M367.709 432.44c-1.503.459-2.482.902-9.093.441-4.507-.307-10.173-1.117-13.102-1.194-5.56-.077-5.603.064B506ADC" fill="#fff" transform="matrix(.47638 0 0 .46773 113.086 114.322)"/>
    <path d="M354.025 429.835c-4.883-.768-8.23-1.435-11.29-1.092-3.41.38-5.839 2.075-9.895 4.61-4.057 2.613-7.70808A5CC7A1D" fill="#d91023" transform="matrix(.47638 0 0 .46773 113.086 114.322)"/>
    <path d="M341.028 435.395c-1.052.461-4.207 2.306-7.137 3.996-6.16 3.765-11.96 5.57-18.748 5.647-3.08.463-13.00A31431A65" fill="#d91023" transform="matrix(.47638 0 0 .46773 113.086 114.322)"/>
  </g>
  <path d="M221.132 205.076c-5.17 1.705-10.625 5.802-14.03 10.509-.739 1.014-1.395 1.785-1.477 1.704-.041-.082.0C51355AED" fill="#00a854"/>
  <path d="M280.202 320.387c-.984.933-.82 2.474.287 2.758 1.723.447 3.98.284 3.98-.324 0-.609-2.626-3.084-3.282-3.084-.205 0-.657.284-.985.65z" fill="#9eab05"/>
  <path d="M223.268 204.373c-4.34.757-8.123 3.338-11.445 6.099-.463.427-.716.67-.733.732-.245.277-2.446 2.237-30CA98F5AF2" fill="#cab313" fill-opacity=".502"/>
  <path d="M217.762 251.359c-.9.312-2.28 1.63-3.181 2.297-1.801 1.336-2.043 1.821-.332.62 1.26-.891 3.397-2.4930A1F7E9A88" fill="#cab313" fill-opacity=".502"/>
  <g stroke="#d4af37" stroke-width=".904">
    <path d="M246.162 432.318c-5.483 1.69-12.845 1.998-16.376.691-1.277-.46-5.204-.206-6.18-.052 3.564 2.386 2.1103F05D8AA8" fill="#fff" transform="matrix(.47638 0 0 .46773 113.086 114.322)"/>
    <path d="M219.856 429.486c1.465 1.23 1.25 1.471 3.79 3.53 3.558.349 10.643 1.11 13.273 1.11 2.328 0 6.826-.400AD1215AB6" fill="#d91023" transform="matrix(.47638 0 0 .46773 113.086 114.322)"/>
    <path d="M244.35 436.83c-6.46 1.921-14.34 2.016-17.27.94-1.532.62-.008-.018-3.84 1.365-5.033 1.69-5.108 1.7680EFEA42A2D" fill="#d91023" transform="matrix(.47638 0 0 .46773 113.086 114.322)"/>
    <g stroke-width=".807">
      <path d="M293.47 417.689c1.216-1.4.855-1.915-2.49-2.381-8.288-1.323-18.856-6.3-23.113-10.888-2.129-2.334-3.110648D8DA21" fill="#fff" transform="matrix(-.16796 -.34478 -.72366 .17969 593.548 332.202)"/>
      <path d="M290.67 421.403c.238-.407-.408-2.4-3.112-2.97-6.682-1.384-14.159-5.289-18.931-9.845-3.58-3.5-5.332-30F3C3CAADF" fill="#d91023" transform="matrix(-.16796 -.34478 -.72366 .17969 593.548 332.202)"/>
      <path d="M295.457 415.365l.827-1.39-4.033-2.547c-4.601-.588-12.942-3.604-18.55-6.766-2.517-1.398-5.249-2.575-0317D9AA27" fill="#ed1c24" transform="matrix(-.16796 -.34478 -.72366 .17969 593.548 332.202)"/>
      <path d="M293.47 417.689c1.216-1.4.855-1.915-2.49-2.381-8.288-1.323-18.856-6.3-23.113-10.888-2.129-2.334-3.110648D8DA21" fill="#fff" transform="matrix(.18999 -.33346 .71052 .22504 -81.494 310.673)"/>
      <path d="M288.923 420.615c.146-.251 1.314-1.57-1.365-2.182-6.682-1.384-14.159-5.289-18.931-9.845-4.24-4.604-6029E3E4A38" fill="#d91023" transform="matrix(.18999 -.33346 .71052 .22504 -81.494 310.673)"/>
      <path d="M295.457 415.365l.827-1.39-4.033-2.547c-4.601-.588-12.942-3.604-18.55-6.766-2.517-1.398-5.249-2.575-0317D9AA27" fill="#ed1c24" transform="matrix(.18999 -.33346 .71052 .22504 -81.494 310.673)"/>
    </g>
    <path d="M319.677 402.697c-6.356 1.817-11.424 5.84-16.665 13.131-2.07 2.879-4.032 4.339-2.635 5.038 1.538.77 0343D22A32" fill="#fff" transform="matrix(.47614 .01506 -.01519 .46749 119.964 112.211)"/>
    <path d="M318.582 399.536c-1.706.578-4.108 1.651-5.426 2.312-3.566 1.982-9.02 8.373-9.834 9.58-.87 1.29-2.14 0DC9C66A0C" fill="#d91023" transform="matrix(.47614 .01506 -.01519 .46749 119.964 112.211)"/>
    <path d="M271.987 403.32c-.238.406 1.83 1.139 4.534 1.708 6.682 1.383 14.159 5.289 18.931 9.845 3.58 3.499 5.089C681A02" fill="#d91023" transform="matrix(.47614 .01506 -.01519 .46749 119.964 112.211)"/>
    <path d="M304.493 422.389c-1.651 5.417-1.432 10.396-.97 14.138 1.605-.193 2.662-.24 5.27-.725.273-2.198.686-409B70A0AFF" fill="#d91023" transform="matrix(.47638 0 0 .46773 112.598 115.725)"/>
    <path d="M296.203 428.628c-.084 4.215.317 5.13.27 7.137 2.355.385 7.422 1.07 7.121.225.02.922-.076-4.911-.002-7.985l.854-5.533-3.587-.549-3.23.405-1.426 6.3z" fill="#fff" transform="matrix(.47638 0 0 .46773 112.598 115.725)"/>
    <path d="M291.002 428.828c.15 3.343-.53 4.487-.13 6.445 1.05.318 5.047.184 6.286.568-.176-4.355-.176-.547-.590985840AD7" fill="#d91023" transform="matrix(.47638 0 0 .46773 112.598 115.725)"/>
  </g>
</svg>
