<svg xmlns="http://www.w3.org/2000/svg" height="512" width="512" id="flag-icon-css-pg">
  <defs>
    <clipPath id="a">
      <path fill-opacity=".67" d="M81.385 0h496.06v496.06H81.385z"/>
    </clipPath>
  </defs>
  <g clip-path="url(#a)" transform="translate(-84) scale(1.0321)">
    <g fill-rule="evenodd">
      <path d="M.514 0L0 496.06h659.05L.51 0z"/>
      <path d="M658.536 496.06L659.05 0H0l658.54 496.06z" fill="red"/>
    </g>
    <path d="M406.908 123.444l-8.778-.457c-2.698-6.355-10.317-8.74-15.003-6.066-4.252.366-26.518-.336-26.518-.336015575FA46" stroke="#fc0" fill="#fc0" stroke-width="2.286"/>
    <path d="M493.273 161.021c1.191 1.965 14.166 8.215 23.93 13.752-2.62-10.537-21.67-12.859-23.93-13.752z" fill-rule="evenodd" stroke="red" stroke-width="3.048" fill="red"/>
    <path fill="#fff" fill-rule="evenodd" d="M178.98 412.394l-14.539-9.28-19.515 9.349 4.327-16.688-14.918-15.682 17.215-1.051 10.294-19.02 6.31 0A11FF3ADE"/>
  </g>
</svg>
