<svg xmlns="http://www.w3.org/2000/svg" height="512" width="512" id="flag-icon-css-pn">
  <defs>
    <clipPath id="b">
      <path d="M-15-7.5h30v15h-30z"/>
    </clipPath>
    <clipPath id="a">
      <path fill-opacity=".67" d="M-15-15h30v30h-30z"/>
    </clipPath>
  </defs>
  <g clip-path="url(#a)" transform="translate(256 256) scale(17.06667)">
    <path d="M-15-15h60v30h-60z" fill="#00247d"/>
    <g clip-path="url(#b)" transform="translate(0 -7.5)">
      <circle r="20" fill="#00247d"/>
      <path d="M-20-10l40 20m-40 0l40-20" stroke="#fff" stroke-width="3"/>
      <path d="M-20-10l40 20m-40 0l40-20" stroke="#cf142b" stroke-width="2"/>
      <path d="M0 0l20 10h-3L-3 0m3 0l20-10h3L3 0M0 0l-20 10h-3L-3 0m3 0l-20-10h3L3 0" fill="#fff"/>
      <path d="M-20 0h40M0-10v20" stroke="#fff" stroke-width="5"/>
      <path d="M-20 0h40M0-10v20" stroke="#cf142b" stroke-width="3"/>
    </g>
    <path d="M-.267 3.844c-.64.543-1.25 1.334-1.4 2.05-.421 2.013-.98 2.46-1.846 2.029 0 1.08.948 1.164 1.364.532076C27BAAE" fill="#f7e017" stroke="#000" stroke-width=".03"/>
    <path d="M.729 1.62c-.882.465-2.495.265-2.645-.882C-2.066-.41-.95-.926-.652-1.075c.467-.234.832.183.682.665a.0DE79EAA3C" fill="#337321" stroke="#000" stroke-width=".03"/>
    <path d="M2.924.605C2.425 1.985 1.061 2.966.446 3.116c-1.047.255-3.183 1.291-3.757 1.825" fill="#f7e017" stroke="#000" stroke-width=".03"/>
    <path d="M-.267 3.844c-.79.67-1.2 2.316-1.117 3.43.023.31.11.52.242.649.058-.632.498-2.265 1.62-2.994.949-.610E1FE44ADF" fill="#337321" stroke="#000" stroke-width=".03"/>
    <path d="M2.418-.036C2.135.388 1.495.971.879 1.204a.806.806 0 0 0 .183-.5c-.782.3-2.345.267-2.977.034A4.06 4.06 0 0 0 2.11-.46c.133.15.25.283.308.424z" fill="#316d3a" stroke="#000" stroke-width=".03"/>
    <path d="M-3.562 3.449c-1.271 1.19-.432 2.228.067 2.461-.133.832.648.732.632 1.43.316-.183.399-.665.349-1.0480ED986CA17" fill="#337321" stroke="#000" stroke-width=".03"/>
    <path d="M-.809 11.015c-.138.08-.128.258-.041.374.174.233-.123.76.44.873.167.034.295-.068.358-.258.175-.524-.382-.582-.432-.831-.05-.25-.208-.225-.325-.158z" fill="#f7e017" stroke="#000" stroke-width=".03"/>
    <path d="M-.336 11.997c-.186.086-.349.208-.274.806.03.248.017.848-.2.857.133.066.416.137.533-.017.112.187.3660345C55A6B" fill="#f7e017" stroke="#000" stroke-width=".03"/>
    <path d="M-3.217-4.824a2.17 2.17 0 0 1 .282-.341m2.883 2.543c.147-.084.37-.093.618-.077m-.842 16.342c-.059-.083-.08-.432-.038-.645m.504.546" stroke-width=".03" fill="none" stroke="#000"/>
    <path d="M8.464 3.465c2.046 1.713 2.179 3.077 1.863 3.876-.167-.749-1.015-1.913-1.897-2.212l.034-1.664z" fill="#f7e017" stroke="#000" stroke-width=".03"/>
    <path d="M4.804 2.5h3.793v4.491c0 3.826-2.13 6.087-4.291 7.285C2.143 13.078.015 10.816.015 6.99V2.5h2.66c.0050879927AB5" fill="#337321" stroke="#000" stroke-width=".03"/>
    <path d="M8.596 2.5v4.491c0 1.155-.194 2.167-.524 3.05l-3.766-6.91-3.766 6.91C.21 9.159.016 8.147.016 6.992v-4.49h8.582z" fill="#006ec7" stroke="#000" stroke-width=".03"/>
    <g fill="#f7e017" stroke="#000" stroke-width=".03">
      <path d="M6.018 12.172c.1.05.284.142.367.175.2-.4.233-.964.166-1.464-.216.55-.948.533-1.147.865.122.062.236.103A6999ADF"/>
      <path d="M4.305 9.203c.283 0 1.181-.092 1.505-.092.085 0 .154-.126.154-.282 0-.156-.07-.282-.154-.282-.324 0-1.222-.092-1.505-.092-.283 0-1.18.092-1.505.092-.084 0-.153.126-.153.282 0 .156.069.282.153.282.325 0 1.223.092 1.505.092zm-.182-1.462"/>
      <path d="M2.801 9.111c.084 0 .153-.126.153-.282 0-.156-.069-.282-.153-.282"/>
      <path d="M2.926 9.111c.085 0 .153-.126.153-.282 0-.156-.068-.282-.153-.282m.821.623c.102 0 .184-.153.184-.341 0-.188-.082-.34-.184-.34m.192.696c.106 0 .193-.16.193-.356 0-.196-.087-.356-.193-.356m.638.716c.108 0 .195-.161.195-.36 0-.199-.087-.36-.195-.36m.201.708c.107 0 .193-.156.193-.348 0-.192-.086-.348-.193-.348m.892.636c.086 0 .156-.13.156-.288 0-.158-.07-.288-.156-.288m-3.22 3.456c.104-.063.226-.117.357-.15m3.029.183l-.098-.07m.28.212c.233-.25.427-.533.533-.856"/>
    </g>
    <g stroke="#000" stroke-width=".03">
      <path d="M3.544 5.675c0-.08.066-.116.144-.174.094-.071.131-.104.216-.104h1.092c.08 0 .1.02.1.095v1.485c0 .075-.02.095-.1.095H3.544V5.661" fill="#fff"/>
      <path d="M4.726 7.201c.144 0 .118-.003.219-.104.105-.105.095-.095.095-.192V5.548c0-.07-.017-.09-.093-.09h-1.00057FCFA02" fill="#e5e5e5"/>
      <path d="M4.833 7.17c0 .075-.019.096-.1.096H3.642c-.081 0-.099-.021-.099-.096V5.686c0-.075.018-.096.099-.096h1.091c.081 0 .1.02.1.096V7.17z" fill="#fff"/>
    </g>
    <path d="M6.95 1.631a.837.837 0 0 1 .167.868H6.8c.133-.399.05-.78-.516-.83-.846-.074-1.83 1.564-3.31 1.763-.432-.515-.409-1.498.14-1.963C2.83.65 2.232-.25 1.817-.638" fill="#96877d" stroke="#000" stroke-width=".03"/>
    <path d="M3.26 2.067C3.188.96 2.74.046 2.11-.576c.299.083.914.083 1.33-.216.549-.366 1.98-1.007 2.503-.732.040ABDDDCAEF"/>
    <path d="M6.8 2.5c.134-.4.05-.781-.515-.831-.438-.039-.914.387-1.476.83H6.8zM3.125-1.084c-.25.034-.807-.016-10F3E163A93" stroke-width=".03" fill="#96877d" stroke="#000"/>
    <path d="M3.116 1.469c.091.265.151.521.16.749m-.915-4.066c-.15.22-.282.456-.325.656.283.092.84.142 1.09.108" fill="none" stroke="#000" stroke-width=".03"/>
    <path d="M1.817-.638c.108.017.208.038.293.062.3.083.915.083 1.33-.217.415-.3 1.548-1.23 2.828-1.33" fill="none" stroke="#000" stroke-width=".03"/>
    <path d="M1.486-.926c.4.084 1.223.125 1.638-.158.965-.657 1.896-1.039 2.827-1.089" fill="none" stroke="#000" stroke-width=".03"/>
    <path d="M8.464 3.465c1.397.965 2.428 1.896 2.727 3.393.3 1.497.865 1.896 1.564 1.497-.166.865-1.031.965-1.760D0626EAA8" fill="#337321" stroke="#000" stroke-width=".03"/>
    <path d="M8.946 1.652c.965.632 2.056.632 3.06-.532.317-.366.816-.682 1.165-.715.349-.033.332-.366.599-.432-.1053074CABA" fill="#f7e017" stroke="#000" stroke-width=".03"/>
    <path d="M9.143 13.778c.068-.09.107-.48.07-.718m-.586.588a1.1 1.1 0 0 0 .352-.572m-.695.297c.132-.055.464-.451.544-.713m-.852.264c.155-.027.636-.315.843-.632" stroke-width=".03" fill="none" stroke="#000"/>
    <path d="M6.45-.327c-.027 1.705.682 2.568 1.663 3.13-.365-.22-.207-.968-.698-1.209.117-.008.3.158.591.092-.1409CCD5DAD9" fill="#f7e017" stroke="#000" stroke-width=".03"/>
    <path d="M4.814-5.325c-.416-.382-.607-1.022-.59-1.388.016-.366.166-.765.698-.599-.166 0-.05.333-.225.366.142.05A3E5CA7E" fill="#337321" stroke="#000" stroke-width=".03"/>
    <path d="M5.112-7.304c-.005-.15.254-.344.603-.34.42.004.744.386 1.08.349.336-.037.171.15.1.2-.07.05-.111.124-04F737EA20" fill="#cf142b" stroke="#000" stroke-width=".03"/>
    <path d="M3.4-3.379c-.167-.524-.799-1.097-1.107-1.23l-.016-.283c.166-.067.565-.383.748-.557 1.248.598 2.944-.033FD6AA8A" fill="#96877d" stroke="#000" stroke-width=".03"/>
    <path d="M3.466-3.562c-.112-.62.066-1.305.382-1.513.69.457 1.871.457 2.57-.042" fill="none" stroke="#000" stroke-width=".03"/>
    <path d="M3.466-3.886c.532-.017 1.688.075 1.97.117.283.041.757.158.69.299m-2.414-.504l.153-.153-.153-.153-.153.153.153.153z" fill="none" stroke="#000" stroke-width=".03"/>
    <path d="M4.074-7.07c-.192-.267-.719-.351-.832.007-.05.158-.125.325-.25.4-.124.074-.095.301-.041.399.133.24.0074F903A13" fill="#337321" stroke="#000" stroke-width=".03"/>
    <path d="M2.874-4.676h.067l.001.455a.117.117 0 0 1 .04.02l.391-.225.034.057-.394.229a.12.12 0 0 1 .002.045l.392.226-.034.058-.394-.227" fill="#96877d" stroke="#000" stroke-width=".03"/>
    <path d="M3.468-3.564a.788.788 0 1 1 .068-1.033c-.041.1-.088.322-.092.423" fill="#96877d" stroke="#000" stroke-width=".03"/>
    <path d="M2.576-2.813c-.05-.058-.14-.216-.133-.333a.432.432 0 0 1 .283.108c-.008-.083-.041-.266-.025-.349.09206E83AFAC5" fill="#337321" stroke="#000" stroke-width=".03"/>
    <path d="M5.36-7.219c-.004-.061.133-.2.378-.198.294.001.565.217.801.202.236-.015.12.06.07.081-.05.02-.079.0510D6DE6BAD5" fill="#f7e017"/>
    <g stroke="#000" stroke-width=".03">
      <path d="M2.834-2.314c-.25.3-.499.25-.549.058-.05-.191.134-.283.067-.45-.067-.165.108-.24.191-.165.083.074.35092EFE7AED" fill="#f7e017"/>
      <path d="M2.995-2.792c-.037-.083.212-.25.382-.125.171.125.407-.108.508.116.203.454.216.487.154.574-.063.087-.329.054-.395-.066-.013.083-.242.07-.362.004-.137-.075-.233-.354-.287-.503zm1.75.02c-.058-.128.333-.24.503-.016.088-.08.28-.083.387.162.108.245.125.383.046.445-.056.044-.258.079-.324-.033-.092.058-.375.008-.437-.15a4.365 4.365 0 0 0-.175-.408zm1.656.246c-.008-.117.204-.17.283 0 .079.17.332.017.353.3.004.053-.029.261-.108.36-.079.099-.465 0-.49-.211" fill="#337321"/>
      <path d="M2.834-2.314c-.091-.125-.216-.325-.374-.108m1.185.129" fill="none"/>
    </g>
  </g>
</svg>
