<svg xmlns="http://www.w3.org/2000/svg" height="512" width="512" id="flag-icon-css-sh">
  <defs>
    <clipPath id="a">
      <path fill-opacity=".67" d="M0 0h512v512H0z"/>
    </clipPath>
  </defs>
  <g clip-path="url(#a)">
    <path fill="#006" d="M1023.99 511.951V-.034H-.008V511.95H1023.99z"/>
    <path d="M-.008 85.267h107.986L-.008 31.078V-.03h61.784l151.058 75.303V-.03h85.06v75.303L448.953-.03h62.317v30CCA1D6AD1" fill="#fff"/>
    <path fill="#ce1126" d="M471.07-.034L300.415 85.324h40.85L511.26-.034h-40.19zm40.21 255.974l-170.174-85.31h41.031l129.143 64015B18AA91"/>
    <path fill="#ce1126" d="M-.008 102.975h230.96V-.035h49.984v103.01h230.333v49.986H280.936v102.976h-49.984V152.961H-.008v-49.986z"/>
    <path d="M399.67 640.77c-.046 16.332-2.623 33.927-23.764 42.308-21.142-8.381-23.719-25.976-23.765-42.308h47.529z" stroke-width="1.009" fill="#8fc5ff" transform="matrix(4.9436 0 0 4.9441 -1482.9 -2891.1)" stroke="#fff"/>
    <path fill="#366cc9" d="M375.9 683.08c9.584-3.799 15.353-9.493 18.8-16.104-.516.02-1.597-.011-2.064-.043-.52-.034-20.271-2.0031A073A2F" transform="matrix(4.9436 0 0 4.9441 -1482.9 -2891.1)" stroke="#000"/>
    <path fill="#5d3100" d="M361.13 672.95c.323-.105.94-.08 1.183-.036.286.052.338.078.442-.234s.338-.234.52-.078.649.078.831-.1010936AA53" transform="matrix(4.9436 0 0 4.9441 -1482.9 -2891.1)" stroke-width=".125" stroke="#000"/>
    <path d="M399.67 640.77c.018-6.152-.324-12.125-.168-17.359-7.9-3.535-18.295-4.262-23.596-4.262-5.302 0-15.6970A0B936AE3" stroke-width=".98" transform="matrix(4.9436 0 0 4.9441 -1482.9 -2891.1)" stroke="#fff" fill="#ff0"/>
    <path d="M264.267 312.133c1.285 2.057 3.6 5.592 3.856 7.515.9-1.864 1.607-2.695 1.8-3.851s1.542-3.407 1.028-40849F9BA8B" fill="#cf6200"/>
    <path d="M273.561 349.807c1.028.643 2.012 1.073 3.555.302s3.386-2.997 5.442-.811c2.052 2.18 3.209 5.78 3.209 01E1E1FA70" fill="#cf6200"/>
    <path d="M273.957 356.926c-.094 1.395.217 2.927.326 4.158.128 1.414.514 4.371-.514 6.556-1.029 2.18-.771 3.3307A4C7BA73" fill="#00b800"/>
    <path fill="#5d3100" d="M322.849 346.148c-.188 2.057-.173 3.085-.687 3.768-.51.687-.168 1.715.346 2.744s.855 2.398.34 4.281.0A830D4AE8"/>
    <path d="M313.753 438.06c3.08-.258 11.434-2.7 12.329-3.472 2.056 1.414 5.655 3.343 7.198 3.343-2.957.642-4.880ED2733AFC" fill="#00d860"/>
    <path d="M329.67 449.628c2.636-.45 10.086 1.35 12.72-.257-.899 2.378-5.59 2.7-7.197 2.186-1.602-.515-3.144-1.157-4.237-1.093.579-.321-.385-.386-1.285-.836z"/>
    <path d="M332.39 453.287c1.992.316 9.12-.578 11.306-1.414 2.309.771 6.872 1.988 7.9 1.859-2.185 1.35-6.363.578-7.707 0-3.856 1.285-7.005 1.671-11.5-.445z" fill="#00d860"/>
    <path d="M335.801 454.474c2.852.642 5.285.183 8.093-.757.875.376 2.936.836 4.874.742 1.29.736 3.026 1.765 4.60442F94A7F" fill="#00d860"/>
    <path d="M332.39 439.987c2.225.742 10.278.386 14.386-1.542 1.621-.762 2.625.514.771 1.157-6.679 2.314-11.949 3.213-15.8 1.157-1.522-.811-1.67-1.543.643-.772z"/>
    <path d="M371.84 429.06c-9.892 4.624-16.448 6.038-30.19 1.8-1.281-.395-2.186 0-.772.9 1.414.895 8.992 2.952 10EDD1D5AE9" fill="#00d860"/>
    <path d="M355.378 430.247c5.655.401 16.061-2.185 21.588-7.579 1.923 1.152 4.623 2.438 6.036 2.695s2.7 1.542.50FF5252A3C"/>
    <path d="M338.668 399.396c1.928 1.35 5.334 3.595 9.764 3.273 2.185 1.736 5.591 3.214 7.134 3.535-2.957 1.222-014D0E9A6D" fill="#00d860"/>
    <path d="M340.2 407.653c-1.072.267-4.112 1.928-5.2 2.057-1.092.128-3.02 1.67-1.028 1.735 1.987.064 4.558-2.1209CAD7FA1E" fill="#00d860"/>
    <path d="M341.832 418.134c1.404.91 8.35 3.278 10.856 3.086s2.037 1.003.129 1.414c-3.92.83-8.706-.876-11.949-3.471-1.606-1.286-.128-1.736.964-1.029z"/>
    <path d="M374.707 421.546c-5.314 1.696-10.727 1.093-12.913.514s-4.177-.707-2.699.707c1.478 1.41 6.234 2.373 801664BDA5D" fill="#00d860"/>
    <path d="M362.299 416.206c-1.093.065-3.02-.642-4.05-1.092s-2.5-.515-1.408.964c1.088 1.478 5.843 2.314 7.514 10F6EBD7A68" fill="#00d860"/>
    <path d="M379.058 413.883l-.386.964c2.378-.065 8.162.514 10.02 1.67 1.8-1.413 1.479-1.863 2.764-1.606s2.892.70903256ADA" fill="#00d860"/>
    <path d="M408.818 412.745c-3.851 2.828-8.478 3.471-14 3.857-1.607.113-1.113.568.257.707 5.779.578 12.463-1.543 14.643-3.857.632-.667.563-1.775-.9-.707z"/>
    <path d="M382.567 419.321c1.671.064 7.45 1.543 9.314 2.185 1.414-.128 1.8-.45 1.543-.964s-.45-1.092 2.12-.9640F0D047A4C" fill="#00d860"/>
    <path d="M405.11 419.618c.9-.386 2.887-1.929 3.787-1.993 1.671-.128 3.599.579 4.499.707s1.863-.064 1.22-.771-0BC2D17A7B" fill="#00d860"/>
    <path d="M395.223 425.254c-1.028 1.414-4.563 3.856-6.17 3.985-1.601.128-6.421-.321-7.642-.771s-2.7-.322-.964.0DF578EA11" fill="#00d860"/>
    <path d="M427.604 438.207c1.092-.128 2.116-.9 2.951-1.414-2.116.707-11.37-.77-14.129-3.213-2.763-2.438-2.763-0EE896FA3C" fill="#00d860"/>
    <path d="M365.512 444.882c.643-.386 2.437-1.285 3.208-2.052-1.413.38-4.879-.385-5.779-1.157 1.286 0 3.337-.64088BCB1AEC" fill="#00d860"/>
    <path d="M357.553 453.238c6.15-.515 14.386-.623 20.94-6.17 1.672-1.415 2.794-.94 1.158.514-3.466 3.085-12.0770A0AFEFA2B"/>
    <path d="M403.627 443.053c-1.542.578-5.848 1.285-7.128 1.092-1.286-.192-3.15-.257-4.178.386s-1.092 1.028.322 06C4FB0ABA" fill="#00d860"/>
    <path d="M362.645 461c-2.507.064-7.262 1.285-8.864 2.12.321.644.514 1.667.578 2.374 4.623-1.671 15.222-2.695 0863AD0AFF" fill="#00d860"/>
    <path d="M378.365 470.048c2.057.064 6.299-.193 8.227-2.057-.772-.836-2.764-.514-3.342-1.093 1.35-.45 2.892-1.07ACD22AC5" fill="#00d860"/>
    <path d="M383.457 457.934c2.121 2.379 4.623 3.728 8.607 3.857.836.025 2.393 1.147.386 1.221-5.399.193-8.093-10610492A47"/>
    <path d="M418.507 412.943c4.366-.128 7.643-.064 8.993 1.221 2.501-.77 7-1.22 8.028-1.028s2.185-.257-.193-.8360A063E8A08" fill="#00d860"/>
    <path d="M454.052 414.278c-4.687 1.221-10.085 1.093-8.8-.45-1.8.771-7.707-.257-9.763.836 2.12-1.286 3.727-.2508849FCA68" fill="#00d860"/>
    <path d="M373.36 664.19c-.017-1.966-.207-18.422-.207-22.226 0-.91-.468-.728-.468 0v22.122c.215.039.505.078.670C64B19A62" transform="matrix(4.9436 0 0 4.9441 -1482.9 -2891.1)" stroke-width=".125" stroke="#000" fill="#ff0"/>
    <path fill="#fff" d="M376.6 644.67l-6.913-.104c-.389 1.403 1.352 1.377 2.002 1.013.753.572 1.325.52 1.741.052.598.494 1.3070697DAB7" transform="matrix(4.9436 0 0 4.9441 -1482.9 -2891.1)" stroke-width=".125" stroke="#000"/>
    <path d="M381.26 664.42c-3.014.052-6.081.052-8.16-.26s-2.734-.604-4.158-1.455c-2.131-1.273-2.651-1.585-5.665-08F948CAC4" transform="matrix(4.9436 0 0 4.9441 -1482.9 -2891.1)" stroke-width=".125" stroke="#000"/>
    <path d="M391.78 660.45c.159-.551.584-2.035 1.354-4.84.129-.468-.325-.653-.493-.052-.916 3.275-1.262 4.503-1.378 4.912.176-.003.428-.022.517-.02z" transform="matrix(4.9436 0 0 4.9441 -1482.9 -2891.1)" stroke-width=".125" stroke="#000"/>
    <path d="M396.85 654.96c-1.105.571-1.638.792-2.144.597-.466-.179-1.151-.28-1.552-.083a.523.523 0 0 1-.021.13509B987FAB8" transform="matrix(4.9436 0 0 4.9441 -1482.9 -2891.1)" stroke-width=".125" stroke="#000" fill="#fff"/>
    <path d="M371.69 645.58c-1.222 3.534-5.458 11.461-8.014 14.014m1.964 1.156c2.901-2.244 10.236-9.528 11.483-12.594m-7.013 4.364c-.337 2.677-1.11 7.452-1.526 9.973m2.656-4.013c-.987.962-2.387 2.641-3.427 3.551m12.727-8.891c-.831.805-1.78 1.744-2.611 1.978m3.091-1.848c.731.779 1.77 1.659 2.628 1.893m-3.198-6.203c-.753.649-1.871 1.413-2.884 1.699m3.314-1.549c.65.546 1.342 1.342 2.173 1.706m-5.333-4.876c.805-.234 2.004-.858 2.628-1.507m.362-.123c.705.805 2.056 1.455 2.732 1.637m-5.562-3.247c.831-.182 1.861-.624 2.407-1.404m.313-.216c.701.598 1.933 1.462 2.738 1.54m3.192.79c-.451.468-1.556 1.309-2.257 1.296m2.717-1.336c.325.52 1.144 1.316 1.612 1.381m-4.802 5.919c.909-.312 2.183-1.056 2.82-1.823m.5.063c.266.48 1.28 1.565 1.852 1.786m-4.092 5.254c.416-.09 1.547-.652 1.858-1.315m.522-.365c.429.533 1.481 1.507 2.131 1.741m-18.811.859c1.273-.403 3.846-1.965 5.12-3.447m-2.44 1.877c1.065.753 2.303 1.507 3.251 1.676m-6.171-4.456c.702-.299 1.624-.809 2.339-1.549m.541-.101c.286.402 2.388 1.686 3.284 1.699m-3.824-5.849c-.546.441-1.858 1.234-2.495 1.403m2.995-1.373c.728.506 2.167 1.4 3.154 1.4m-3.654-5.49c-.585.662-1.572 1.685-2.391 1.919m2.861-1.769c.455.728 1.673 1.712 2.466 1.842m8.054 2.528c1.822 3.359 5.201 7.465 8.618 9.622M378.2 643.46c2.767 3.976 8.199 12.695 13.367 15.914m.953-3.404a18.428 18.428 0 0 1-4.795 4.607m4.485-3.507c-1.741-2.78-2.641-6.295-3.943-10.924M374.15 658.51l2.144 5.899m-2.544-6.039l1.896 6.017m-2.306-6.297l1.76 6.262m-1.94-6.162l1.359 6.128m-.049-.218h1.699m-.219-.64h-1.602m1.422-.5h-1.546m1.366-.5h-1.475m1.275-.54h-1.404m-.096-.48h1.332m-1.432-.44h1.264m-1.374-.48h1.202m-1.292-.43h1.134m-1.234-.44h1.078m-1.168-.41h1.02m-1.12-.38h.991m-1.051-.32h.923m-2.593.01l-1.208 4.932m1.558-5.022l-1.037 5.21m1.317-5.4l-.839 5.549m1.199-5.659l-.609 5.803m.729-.333h-1.923m1.923-.53h-2.225m2.225-.55h-2.095m2.095-.52h-1.965m1.965-.53h-1.838m1.838-.59h-1.692m1.692-.51h-1.569m1.569-.52h-1.436m1.436-.5h-1.316m1.316-.44h-1.212m1.212-.35h-1.121m1.121 5.5v-5.88m6.47-1.94l-4.029 8.08m4.279-8.21l-3.43 8.254m3.68-8.344l-2.721 8.383m2.891-8.233l-2.116 8.238m.096-.378h-2.534m2.734-.74h-2.359m2.469-.6h-2.17m2.38-.65h-2.053m2.153-.52h-1.897m2.077-.6h-1.787m1.967-.7h-1.618m1.758-.53h-1.488m1.638-.61h-1.348m1.458-.41h-1.247m1.347-.39h-1.143m1.243-.4h-1.053m1.143-.35h-.968m1.058-.35h-.887m.987-.36h-.8m.88-.33h-.721m3.341-.12l1.763 5.58m-1.423-5.46l2.139 5.355M383 656.53l2.505 5.237m.605-.447l-2.763-4.888m2.763 4.878h-2.192m1.812-.66h-2.019m1.649-.66h-1.851m1.471-.67h-1.688m1.318-.66h-1.529m1.149-.66h-1.36m.99-.66h-1.194m.814-.67h-1.032m3.292.16l-1.725 5.173m2.245-5.403l-1.6 5.303m.74-.123l1.174-4.992m.306.172l-.988 4.75m-1.672-.3h1.731m-1.511-.65h1.65m-1.44-.64h1.572m-1.362-.64h1.491m-1.271-.65h1.41m-1.19-.64h1.329m-1.119-.64h1.248m-1.038-.65h1.027m.923.11l.846 3.547m-.536-3.717l1.169 3.697m-.769-3.707l1.275 3.702m-.755-3.502l1.277 3.477m-.117-.307h-1.638m1.448-.52h-1.556m1.366-.52h-1.491m1.301-.52h-1.43m1.23-.52h-1.358m1.168-.52h-1.284m1.094-.52h-1.218" transform="matrix(4.9436 0 0 4.9441 -1482.9 -2891.1)" stroke-width=".125" stroke="#000" fill="none"/>
    <path d="M357.948 402.956c3.985-2.566 10.792-2.052 14.263.514 4.113-2.309 11.563-1.67 15.033 1.414 5.265-3.59057BC00AAA" fill="#00b800"/>
    <path d="M428.147 397.468c-20.427 3.53-64.944 1.028-74.707-1.414-3.357-.84-2.442-2.057.385-1.414 11.252 2.55602ECDADA23" fill="#cf6200"/>
    <path d="M461.616 398.457c.736-.02 2.274-.054 2.699-.064.835-.02 2.007-.594 2.521-1.88s2.106-6.036 2.684-8.020B61C2BACE" fill="#cf6200"/>
    <path d="M432.448 397.419c-.707-1.414-2.892-6.442-3.084-10.101 1.863-.035 6.525-.124 8.774-.173.332 2.759 1.100179BAA19"/>
    <path d="M377.29 656.93c.091.001.103.079-.001.078l-7.678-.095c-.104-.001-.09-.079.001-.078l7.678.095zm6.04-6.0AAFF04AF3" transform="matrix(4.9436 0 0 4.9441 -1482.9 -2891.1)" stroke-width=".125" stroke="#000"/>
    <path fill="#fff" d="M383.78 642.59c.091-.001.105.077.001.078l-5.938.057c-.104.001-.092-.077-.001-.078l5.938-.057z" transform="matrix(4.9436 0 0 4.9441 -1482.9 -2891.1)" stroke-width=".125" stroke="#000"/>
    <path d="M384.15 645.91c.091 0 .104.078 0 .078h-6.562c-.104 0-.091-.078 0-.078h6.562zm6.44 4.73c.091 0 .104.007D4F59AC6" transform="matrix(4.9436 0 0 4.9441 -1482.9 -2891.1)" stroke-width=".125" stroke="#000"/>
    <path d="M395.26 657.05c.157-.349.179-1.151.089-1.455a1.106 1.106 0 0 1-.647-.04 2.973 2.973 0 0 0-.341-.106c037741CA58" transform="matrix(4.9436 0 0 4.9441 -1482.9 -2891.1)" stroke-width=".125" stroke="#000" fill="#ef072d"/>
    <path d="M370.46 623.2c-.791.023-2.513.039-2.875.242-.361.204-.52.294.113.407s1.704.414 2.291.776c.587.361 1.0B98741A49" transform="matrix(4.9436 0 0 4.9441 -1482.9 -2891.1)" stroke-width=".125" stroke="#000"/>
    <path d="M370.55 623.56c-.351-.013-1.04-.096-1.611-.039-.13.013-.286.078.026.117s1.156.246 1.455.35.169.26-.0094469DA0D" transform="matrix(4.9436 0 0 4.9441 -1482.9 -2891.1)" stroke-width=".125" stroke="#000" fill="#fff"/>
    <path d="M374.92 623.33c-.262-.284-.728-.546-.961-.624-.234-.078-.26.156-.13.273-.104.156-.143.533.039.637s.1053CFF4AA0" transform="matrix(4.9436 0 0 4.9441 -1482.9 -2891.1)" stroke-width=".125" stroke="#000" fill="#fff"/>
    <path d="M371.197 191.497c-.336.504-.46.484-1.082.9-.767.509-.94 1.967.346 1.794.89-.118 1.409-.647 1.76-1.070710D13AAB" fill="#cf6200"/>
    <path d="M373.422 214.833c-.42.95-.43.855-1.8.94-1.369.088-3.094.32-3.85 1.117-.411.425-2.779.539-2.784 1.5820ECBF49AA1" fill="#ff0"/>
    <path d="M365.117 228.775c1.473.129 2.758.579 1.542.9-1.221.322-1.864 1.029-.326 1.157 1.542.129 2.827.707 1.07CB665AAA" fill="#cf6200"/>
    <path d="M380.738 236.735c-7.02 2.848-12.082 1.583-15.893-.944 1.577-.539 3.351-.079 3.945-.02.642.065 2.635.09135B3A1C" fill="#ff0"/>
    <path d="M363.238 204.45c-1.216-.81-2.398-.34-2.398 1.202s-.77 1.968-1.8 2.482c-1.022.514-1.967 1.8-2.14 3-.10A5A4D2A99" fill="#cf6200"/>
    <path d="M363.238 203.214c-.8-.311-1.28 1.37-.168 1.627s1.285-1.201.168-1.627zm-.198 2.176c-.85.104-1.8 1.2210DA73B3A65"/>
    <path d="M358.196 210.087c-.876.44-.322 1.607.964.771s1.22-1.864-.964-.771zm1.087 1.087c-.875.44-.321 1.607.964.772s1.221-1.864-.964-.772z"/>
    <path d="M357.75 211.62c-.874.44-.32 1.606.965.77s1.22-1.863-.964-.77zm.99 1.235c-.88.44-.322 1.607.958.772 1.286-.836 1.221-1.864-.959-.772z"/>
    <path d="M357.256 213.597c-.875.435-.321 1.602.964.766s1.221-1.859-.964-.766z"/>
    <path d="M357.355 214.734c-.875.44-.321 1.607.964.771s1.221-1.863-.964-.77z"/>
    <path d="M356.663 225.562c-.885.113-1.453 1.374-.341 1.631s1.37.341 1.37 1.197.345 2.057 1.542 2.14c1.201.09 051CD2AA33" fill="#cf6200"/>
    <path d="M388.203 218.195c.158.198.356.415.584.608.835.707 2.442 0 2.249-.578s-1.093-2.443.964-.9 9.442 6.4270E793E9A5D" fill="#ff0"/>
    <path d="M451.926 428.665c-1.602 1.093-3.722 3.021-2.313 5.716.168-.09.326-.193.489-.287 6.283-7.604 11.662-1094F651A63" fill="#00d860"/>
    <path d="M375.97 628.41c-.384-.335-.481-.13-.325.078s.039.312-.299.364-.845.117-1.053.117-.454.286.039.26c.490B6DD52A60" transform="matrix(4.9436 0 0 4.9441 -1482.9 -2891.1)" stroke-width=".125" stroke="#000"/>
    <path d="M360.618 190.508c-3.14-2.062-6.723 2.26-3.253 4.628 3.04 2.076 6.254-2.655 3.253-4.628z"/>
    <path d="M356.712 192.387l.93.064c-.193.96.771 2.408 2.25 2.052-1.187.9-3.5-.129-3.18-2.116zm12.162 46.82c.940C704F5A83" fill="#fff"/>
    <path d="M399.67 640.77c-.046 16.332-2.623 33.927-23.764 42.308-21.142-8.381-23.719-25.976-23.765-42.308h47.50D91112A9C" transform="matrix(4.9436 0 0 4.9441 -1482.9 -2891.1)" stroke="#000" stroke-width=".25" fill="none"/>
  </g>
</svg>
