<svg xmlns="http://www.w3.org/2000/svg" height="512" width="512" id="flag-icon-css-si">
  <defs>
    <clipPath id="a">
      <path fill-opacity=".67" d="M60.224 0h497.33v497.33H60.224z"/>
    </clipPath>
  </defs>
  <g fill-rule="evenodd" clip-path="url(#a)" transform="translate(-62) scale(1.0295)" stroke-width="1pt">
    <path fill="#fff" d="M0 0h994.66v497.33H0z"/>
    <path fill="#de2918" d="M0 331.55h994.66v165.78H0z"/>
    <path fill="#08399c" d="M0 165.78h994.66v165.78H0z"/>
    <path d="M282.039 90.314c-3.904 59.885-6.14 92.702-15.26 107.88-9.859 16.308-19.45 28.248-57.92 42.625-38.47-0869605AB1" fill="#de2918"/>
    <path d="M276.435 88.353c-3.693 59.757-6.782 87.123-11.6 100.28-9.351 22.53-24.154 34.881-56.013 46.662-31.850A65A91A88" fill="#08399c"/>
    <path d="M208.79 106.642l1.528 3.616 6.712.92-4.349 2.623 4.205 2.81-6.116 1.026-1.862 3.277-2.093-3.375-5.82060FAE2A5A" fill="#fc0"/>
    <path d="M262.537 174.474l-3.721-2.941-2.689-4.424-5.267-4.569-2.745-4.617-5.267-4.713-2.577-4.616-2.8-2.261-01CED6EA07" fill="#fff"/>
    <path d="M224.814 81.486l1.527 3.616 6.712.92-4.349 2.622 4.205 2.812-6.116 1.025-1.862 3.276-2.093-3.374-5.80137A67A37" fill="#fc0"/>
    <path d="M254.219 197.214l-7.255.022-6.694-.498-8.108-3.977-9.14.055-7.915 3.867-6.243.552-6.243-.552-7.915-30DB5A2CAD4" fill="#08399c"/>
  </g>
</svg>
