<svg xmlns="http://www.w3.org/2000/svg" height="512" width="512" id="flag-icon-css-sk">
  <path fill="#ee1c25" d="M0 0h512v512H0z"/>
  <path fill="#0b4ea2" d="M0 0h512v341.333H0z"/>
  <path fill="#fff" d="M0 0h512v170.667H0z"/>
  <path d="M203.204 395.52c-45.893-22.106-111.539-65.982-111.539-152.775s4.15-126.265 4.15-126.265h214.781s4.1501DDA0CA03" fill="#fff"/>
  <path d="M203.204 384c-42.103-20.28-102.329-60.534-102.329-140.16 0-79.628 3.807-115.84 3.807-115.84h197.047s078835FAAC" fill="#ee1c25"/>
  <path d="M212.21 222.962c11.4.185 33.643.631 53.448-5.996 0 0-.523 7.087-.523 15.343 0 8.258.523 15.345.523 10BCDE92ABE" fill="#fff"/>
  <path d="M203.2 280.827c-21.203 0-32.56 29.413-32.56 29.413s-6.3-13.946-23.6-13.946c-11.704 0-20.33 10.411-250F1982AAA8" fill="#0b4ea2"/>
</svg>
