<svg xmlns="http://www.w3.org/2000/svg" xmlns:xlink="http://www.w3.org/1999/xlink" height="512" width="512" id="flag-icon-css-sv">
  <path fill="#0f47af" d="M0 0h512v512H0z"/>
  <path fill="#fff" d="M0 170.667h512v170.667H0z"/>
  <g transform="translate(-184.212) scale(.85333)">
    <g fill="#fff" fill-rule="evenodd" stroke="#000" stroke-width=".304">
      <path d="M515.01 353.35c1.52 0 3.167 0 10.11-1.692 6.943-1.65 12.67-5.858 14.015-6.466 1.345-.607 3.297-.434 0411FDFAE2"/>
      <path d="M488.37 347.44c.737-.433-.174-1.648-.174-1.648l2.734-.608c-1.345-.607-3.34-.434-3.34-.434-.522.434-.0075560A6F"/>
      <path d="M490.92 345.19l-2.734.608s.91 1.215.174 1.648l4.816-.91s-.737-.522-2.256-1.346zm50.77 2.25c-.737-.430A73116A73"/>
      <path d="M539.13 345.19l2.69.608s-.867 1.215-.13 1.648l-4.816-.91s.737-.522 2.256-1.346z"/>
    </g>
    <path d="M495.843 343.31l-1.22 3.03.564.22c.91.39 1.817.185 2.25-.813.39-1.042-.133-1.808-1-2.156l-.594-.28zm0B0512FA5B"/>
    <path fill-rule="evenodd" d="M497.563 347.618l-.348-.135 1.346-2.988.348.135-1.345 2.988z"/>
    <path d="M500.213 345.28c-.634.016-1.238.443-1.53 1.094-.392.868-.013 1.796.81 2.187.825.35 1.8-.025 2.19-.930EBBE89A98"/>
    <path d="M503.81 347.36c-.043-.216-.13-.39-.346-.477-.216-.087-.564 0-.65.26-.088.26.086.48.216.608l.218.175c075EA7EAEE" fill-rule="evenodd"/>
    <path d="M514.183 348.88c-.91-.043-1.644.683-1.687 1.594-.044 1 .65 1.738 1.562 1.78.868.044 1.644-.625 1.6880DD8021A00"/>
    <path d="M519.083 352.136l-2.517-2.347.174 2.43h-.39l-.26-3.382 2.516 2.336-.174-2.388.39-.04zm2.04-.486l-.60067207FA2C" fill-rule="evenodd"/>
    <path d="M523.873 347.72c-.136.007-.265.03-.406.063l-.344.125.875 3.125.688-.157c.52-.173.954-.567.78-1.22-.00B1F00AA8A"/>
    <path d="M527.24 347.97l.13.34-1.172.393.39 1.17 1.216-.436.13.393-1.562.528-1.085-3.08 1.606-.57.087.34-1.215.435.303.87z" fill-rule="evenodd"/>
    <path d="M528.623 346.19c-.304-.043-.552.026-.812.156l-.437.188 1.22 3.03.343-.124-.47-1.313.126-.03 1.344.900A46A19AA8"/>
    <path d="M529.237 345.757l1.696-.745.165.31-.693.3 1.22 2.647-.35.175-1.21-2.647-.652.3z" fill-rule="evenodd"/>
    <path d="M532.213 344.19l.22 3.72.405-.22-.062-.844 1.28-.656.688.563.344-.22-2.875-2.343zm.438.875l1 .813-.90EAA260AD5"/>
    <g id="a" stroke-miterlimit="2.613" stroke="#000">
      <path d="M485.07 355.17c.52 0 .91-.39.91-.912 0-.478-.39-.867-.91-.867-.477 0-.91.39-.91.868 0 .52.433.912.910907F2FA6C" fill="#e60000" fill-rule="evenodd" stroke-width=".13"/>
      <path d="M485.93 358.9s-.737-3.167-.608-3.904l.782-.608m-1.384 5.722s-2.82.13-3.73.434c0 0 0 .174-.304.782M467.28 345.8s-.174-3.775.608-4.08c0 0 .737-.302 1.17-.91m-4.648 3.77s-2.126-.305-2.734 0c0 0-.13.607-.608.78m-.728-22.91l-.737.434c-.78.303-2.256 3.948-2.256 3.948s-2.43-1.823-3.47-1.997h-1.086m-4.821-20.175s.608.608 1.215.304c0 0 2.994 1.953 3.167 2.734 0 0 3.168-3.167 3.775-2.864 0 0 .303.434.91-.174m-5.727-18.52s.304.433.867.737c0 0 1.39 1.996 1.39 3.47 0 0 2.56-2.255 3.296-2.08 0 0 .91.302 1.518 0m.309-19.437s.607.737 1.04.13c0 0 1.823 2.256.738 3.95 0 0 2.56-.608 3.34-.175 0 0 .304 1.04 1.216.434" fill="none" stroke-width=".26"/>
      <g fill="#1f601a" fill-rule="evenodd" stroke-width=".26">
        <path d="M532.79 378.34s-3.904-.303-4.512-.303c-.608 0-1.953-2.69-2.56-3.167-.608-.434-10.848-5.424-17.486-6.0AE50F3A1E"/>
        <path d="M464.11 343.41c.304-1.39.433-2.43.91-2.864.434-.478 1.954-2.3 2.257-3.47.304-1.216 0-2.127 0-2.735 002D8BC7A67"/>
        <path d="M463.63 341.89s-3.427-4.382-3.427-6.205c0-1.78-.303-2.864-.607-3.297-.304-.433-2.256-2.733-.477-5.5507D125FA2B"/>
        <path d="M506.24 367.53s-7.29-3.254-8.027-3.862c-.78-.564-1.996-1.736-2.778-2.56-.737-.825-3.818-2.387-4.338-03D1EA3AFC"/>
        <path d="M510.19 368.45s-6.03-1.562-8.765-5.294c-1.953-2.56-1.953-1.778-2.777-2.647-.997-1.085-2.56-2.256-3.80E43EF3AB9"/>
        <path d="M504.03 366.45s-5.728-1.432-6.682-1.432c-.955 0-3.688.174-4.816.39-1.085.175-4.512-.173-5.51.348-1.0056D28DAF7"/>
        <path d="M508.71 368.84s-5.727-2.387-10.197-1.173c-3.08.87-2.994.74-4.208.956-1.432.217-2.647-.52-4.99.433-1.0A17DECA84"/>
        <path d="M481.25 357.21s-5.598-3.947-6.465-4.382c-.868-.39-2.473-.954-3.514-1.3-1.084-.305-3.904-2.345-5.032-07CA165A56"/>
        <path d="M482.59 358.25s-2.3-1.52-6.855-2.3c-3.123-.565-2.994-.695-4.165-.998-1.388-.434-1.692-.434-4.252-.560FCA7E0A4E"/>
        <path d="M482.59 358.25c.347.173-1.91-1.736-2.994-2.214-1.04-.434-5.25-1.65-5.554-2.69-.303-1.085-3.775-4.68607EBD59AC8"/>
        <path d="M464.11 343.41s-3.905-2.734-4.816-2.603c-.91.173-5.163-2.995-5.423-4.947-.173-1.04-2.21-2.516-2.56-305BF998A70"/>
        <path d="M456.86 323.49s-.304-1.953.477-2.69c.737-.782 1.475-.782 1.78-1.215.302-.478.172-1.042.476-1.65.304-099FE65AB1"/>
        <path d="M452.48 302.84s0-3.123.91-4.034c.912-.91 1.39-1.39 1.824-1.954.433-.606.91-2.125 1.952-2.733 1.04-.606B3915A21"/>
        <path d="M455.65 322.15s-2.082-2.56-3.167-2.56c-1.04 0-3.73-2.735-3.905-3.905-.13-1.215-1.04-3.47-1.65-3.948-0F9E629A45"/>
        <path d="M452.57 304.32s-1.215-2.908-2.17-3.167c-.954-.304-2.516-2.777-2.603-3.905-.13-1.302-.303-3.47-.737-40E4ED3BAC2"/>
        <path d="M454.78 284.79s-.173-1.78-.173-2.56c0-.91-.564-3.34.738-5.294.91-1.345 4.252-3.905 5.12-4.035 0 0 .600AD5E1A11"/>
        <path d="M454 286.14c-.39.65-.13-2.256-1.04-2.994-.912-.78-1.042-1.822-1.042-3.038 0-1.215.26-2.082.433-2.863086DBECAE6"/>
        <path d="M462.46 270.3c.347 1.04 2.864-1.04 3.427-1.778l1.52-1.953s1.432-1.736 1.823-2.43c.91-1.65.694-4.643.0F076C8AEF"/>
        <path d="M461.55 270.3s2.083-1.475 2.864-2.256c.91-.867.433-2.082.91-2.69.39-.565 1.476-1.953 1.172-2.864-.300F079B9AAD"/>
      </g>
      <g fill="none" stroke-width=".13">
        <path d="M494.83 365.23s-9.936-.13-10.848-1.345m16.578 2.565s-6.465 1.78-9.936 1.345c-3.47-.433-5.12.304-5.902.304-.737 0-4.512-1.52-4.512-1.52m26.98 2.261s-4.99.91-6.03 1.215c-1.042.303-6.162 2.256-7.68 2.256-1.216 0-4.167-.13-4.99 0-1.476.305-5.425 0-6.334-.432m6.214-14.929s3.775 2.257 4.382 2.994c.563.782 3.905 3.47 4.512 3.47m-8.894-11.154s6.465 5.598 7.506 6.335c1.085.78 7.42 6.943 8.158 7.853M493.61 349.87s5.12 4.078 5.728 5.727c.607 1.65 2.126 3.6 2.126 3.6s2.125 4.21 2.864 4.817c.737.607 2.256 2.213 4.078 3.34M464.41 346.1s5.38 4.556 6.855 5.424m-9.105-2.564s5.424 3.774 7.81 4.685c2.43.868 4.382 1.65 9.632 2.387m2.128 2.128s-6.03-.304-7.072 0c-1.04.303-5.728-.782-6.943-1.086-1.215-.26-6.03-1.17-6.638-1.345m11.453-17.919s-.303 3.297.174 4.686c.434 1.345 2.56 5.25 2.386 6.16-.13.912 1.215 4.99 2.43 5.728m1.21-15.964s-1.085 3.297-.607 4.383c.433 1.04 1.17 2.994 1.17 4.208 0 1.215.782 2.995 1.086 3.775.303.738-.175 3.297.606 4.035.737.78 1.65 2.126 1.65 2.126M446.49 330.74s4.816 1.823 5.424 2.994c.565 1.216 1.475 1.52 1.953 2.127m10.373-9.631s1.215 4.816.91 6.03c-.303 1.173-.303 3.602-.303 4.513 0 .912-1.345 4.512-1.215 5.12m-1.342-19.743s-.434 2.864-.607 4.078c-.13 1.172 0 3.167-.304 3.905-.305.737-.74 4.816 0 6.638M449.06 326.23s3.905 3.297 4.816 4.21c.91.91 4.946 5.248 5.12 6.333.13 1.042 2.994 4.34 3.905 5.12M442.42 309.35s3.905 3.905 4.21 4.816c.302.912 1.952 2.386 2.733 2.864M460.77 311s-1.475 2.257-1.475 2.994c0 .782-.607 2.735-1.215 3.47-.39.522-1.65 2.735-1.52 4.08m3.04-16.884s-.607 2.127-.91 3.6c-.305 1.52-1.085 3.04-1.346 3.95-.304.91-1.52 5.25-1.085 7.983M445.89 304.53s.434 2.083 1.475 3.167c1.085 1.042 2.734 2.56 2.864 3.427.173.91 1.518 5.423 3.037 6.943 1.52 1.52 1.65 3.038 1.65 3.038M444.37 289.18s.433 2.56.737 3.297c.304.738 1.52 4.08 2.734 5.12m9.499-7.687s-.78 2.082-.91 2.994c-.175.91-1.085 1.953-1.216 2.43-.173.433-.737 1.952-.737 1.952m5.553-5.296c-.13.91-1.823 3.645-1.953 4.08-.174.475-1.04 2.56-1.952 3.166-.91.607-3.6 2.56-3.47 3.34m-4.385-16.436s-.13 3.297.477 4.512a37.224 37.224 0 0 1 1.65 3.949c.303.868.303 2.387.432 3.428.173 1.084.607 3.037 1.214 3.774M463.81 275.9s-2.17 2.473-3.168 3.47c-.998 1-4.816 5.12-4.99 5.858m4.558-11.588s-2.126 4.642-2.603 5.38c-.435.78-.868 1.996-.868 1.996m-1.959-7.546s.13 3.645 0 4.555c-.173.868-.173 2.387 0 2.864.13.433-.477 3.73-.607 4.51m18.047-21.259s-4.816 2.864-5.554 3.6m2.694-7.375l-3.297 4.816-.738 1.39m.305-6.641s-1.085 2.56-1.215 3.6c-.174 1.086-1.65 4.384-2.256 5.6"/>
        <path d="M469.23 257.98s-.478 1.04 1.345.738" stroke-width=".26"/>
      </g>
    </g>
    <use height="100%" width="100%" xlink:href="#a" transform="matrix(-1 0 0 1 1030.05 0)"/>
    <path d="M514.57 366.14s.737-1.822 2.256-.174c0 0 1.822 4.253.433 4.382-1.346.175-2.69.434-2.82-.303-.174-.737.13-3.905.13-3.905z" fill="#00209f" fill-rule="evenodd"/>
    <path d="M516.52 365.54s.477-6.465 1.345-6.77c.91-.303 3.644-1.822 5.293-.477 1.65 1.39.13 8.07-.477 8.68-.56027DBB1A25" fill="#00209f" fill-rule="evenodd"/>
    <path d="M514.44 370.05s-6.205 3.6-3.038 9.025l-2.125-1.345s-1.172 2.127-.13 3.34c0 0-4.21-3.774-.912-8.287 3.34-4.556 6.03-4.252 6.03-4.252l.175 1.52z" stroke-miterlimit="2.613" fill="#00209f" fill-rule="evenodd" stroke="#000" stroke-width=".174"/>
    <path d="M514.44 367.06s-2.734-1.823-6.64-.782c0 0-1.735-5.596-1.083-7.376.303-.824.91-.91.91-.91s-1.953-1.1709A8DD7A48" stroke-miterlimit="2.613" fill="#00209f" fill-rule="evenodd" stroke="#000" stroke-width=".174"/>
    <path d="M514.44 367.06s-5.424-9.069-6.811-9.069c0 0-1.564-.216 1.95-.606 1.215-.13 3.167 0 4.08 1.692.91 1.65 1.647 5.553 1.95 6.16 0 0-1.04.305-1.17 1.824z" stroke-miterlimit="2.613" fill="#00209f" fill-rule="evenodd" stroke="#000" stroke-width=".174"/>
    <path d="M514.44 367.06s-3.645-1.692-4.08-2.127c-.475-.434-1.214-5.553-.78-5.25 0 0-1.475-1.692-1.95-1.692-.30264D93AEE" stroke-miterlimit="2.613" fill="#011322" fill-rule="evenodd" stroke="#000" stroke-width=".174"/>
    <path d="M517.74 370.05s1.953 1.215 1.953 3.47c0 2.257.91 6.336 2.734 7.247 0 0 .433-1.693 1.04-1.997 0 0 1.80AD27FDA4C" stroke-miterlimit="2.613" fill="#00209f" fill-rule="evenodd" stroke="#000" stroke-width=".174"/>
    <path d="M518.48 359.51l-1.648 6.464.433 1.39s.608-.174.91-.912c.305-.78 1.217-6.335 1.694-6.51l-1.39-.432z" stroke-miterlimit="2.613" fill="#011322" fill-rule="evenodd" stroke="#000" stroke-width=".174"/>
    <path d="M514.35 369.31s-2.95.912-4.078 3.21c0 0-.39-1.475 3.99-3.6l.088.39zm3.48 0s2.04.825 2.56 2.04c0 0-1.0692386AF1" fill="#011d33" fill-rule="evenodd"/>
    <path d="M516.83 365.97s1.865 4.166.433 4.382c-1.388.218.608.175-.347-2.69-.39-1.085-.998-2.43-1.302-2.43 0 0 1.086.392 1.216.738z" fill="#011d33" fill-rule="evenodd"/>
    <path d="M514.57 366.14s.737-1.822 2.256-.174c0 0 1.822 4.253.433 4.382-1.346.175-2.69.434-2.82-.303-.174-.737.13-3.905.13-3.905z" stroke-miterlimit="2.613" fill="none" stroke="#000" stroke-width=".174"/>
    <path d="M516.52 365.54s.477-6.465 1.345-6.77c.91-.303 3.644-1.822 5.293-.477 1.65 1.39.13 8.07-.477 8.68-.56027DBB1A25" stroke-miterlimit="2.613" fill="none" stroke="#000" stroke-width=".174"/>
  </g>
  <g transform="translate(-184.212) scale(.85333)">
    <path d="M509.84 255.9c-.39-.954-.477-7.376-.39-8.374.13-1.736 3.123-10.24 3.73-11.238.652-.997.478-1.215.73807655B5AE5" fill="#00209f" fill-rule="evenodd"/>
    <path d="M515.01 247.35l.478.52c1.345-1.432 1.43-4.425 1.43-4.425l-.867-6.03s-.562 4.078-1.04 5.9c-.433 1.82206EB172A12" fill="#fff" fill-rule="evenodd"/>
    <path d="M515.48 247.87c1.345-1.432 1.43-4.425 1.43-4.425s.956 4.903.435 5.945c-.52 1.04-.52.737-.434 1.258l-1.43-2.778z" fill="#00209f" fill-rule="evenodd"/>
    <path d="M516.91 250.65c-.086-.52-.086-.217.434-1.258.52-1.04-.434-5.945-.434-5.945l-.867-6.03c-.13-1.346-.607-3.04-1.26-4.123l-.866 1.17c-.26.608-.086.825-.737 1.824-.607.998-3.602 9.502-3.732 11.238-.086.998 0 7.42.39 8.374" stroke-miterlimit="2.613" fill="none" stroke="#000" stroke-width=".26"/>
    <path d="M515.01 234.11s-.087-.954-.174-1.302c-.043-.173.52.868.998.737.868.26 1.823 1.432 2.083 1.736-.39.560DFF4BFA45" stroke-miterlimit="2.613" fill="#fc0" fill-rule="evenodd" stroke="#000" stroke-width=".13"/>
    <path d="M515.05 233.33c.043.043.303.347.347.39.216.13.434 0 .694.175.65.433.87.824 1.563 1.518" stroke-miterlimit="2.613" fill="none" stroke="#000" stroke-width=".13"/>
    <path d="M515.66 233.99c.824.39 1.258 1.04 1.823 1.735 0 0 .043-.087 0-.087" stroke-miterlimit="2.613" fill="none" stroke="#000" stroke-width=".13"/>
    <path d="M514.09 233.42s.867-.433 1.17-.607c.175-.087-.65.78-.345 1.17.043.912-.694 2.214-.954 2.56-.65-.172-095CAE8AAA" stroke-miterlimit="2.613" fill="#fc0" fill-rule="evenodd" stroke="#000" stroke-width=".13"/>
    <path d="M514.87 233.16c-.043.087-.26.39-.26.52-.043.217.13.39.087.694-.173.737-.477 1.084-.867 1.995" stroke-miterlimit="2.613" fill="none" stroke="#000" stroke-width=".13"/>
    <path d="M514.44 233.99c-.087.91-.52 1.518-.998 2.3 0-.044.13 0 .13 0" stroke-miterlimit="2.613" fill="none" stroke="#000" stroke-width=".13"/>
    <path d="M515.44 232.81c.607-.737 1.692-1.39 2.213-.954.043.043.476.303.607.563.26.303.217.433.086.78-.39.78-017F533A0D" stroke-miterlimit="2.613" fill="#fc0" fill-rule="evenodd" stroke="#000" stroke-width=".13"/>
    <path d="M514.87 232.81c-.563-.737-1.65-1.39-2.17-.954-.043.043-.477.303-.606.563-.26.26-.26.433-.087.78.347.0C5B73FA49" stroke-miterlimit="2.613" fill="#fc0" fill-rule="evenodd" stroke="#000" stroke-width=".13"/>
    <path d="M515.09 232.38c-.26-.087-.563.173-.65.346-.087.217.086.564.346.607.347.13.824.044.91-.346.088-.347-.302-.434-.606-.607z" stroke-miterlimit="2.613" fill="#fc0" fill-rule="evenodd" stroke="#000" stroke-width=".13"/>
    <path d="M515.05 226.35s.39 2.344 1.562 4.035c1.172 1.692-1.432 1.476-1.606 2.083 0 0-.78-1.692-1.605-2.126 0 0 1.303-2.04 1.65-3.949v-.043z" fill="#fc0" fill-rule="evenodd"/>
    <path d="M515.05 226.35s.39 2.344 1.562 4.035c0 0-1.432 1.476-1.606 2.083 0 0-.78-1.692-1.605-2.126 0 0 1.303-2.04 1.65-3.949" stroke-miterlimit="2.613" fill="none" stroke="#000" stroke-width=".13"/>
    <path d="M515.01 228.82s.303 1.04.65 1.736c0 0-.563.434-.65.694 0 0-.303-.694-.607-.868 0 0 .564-.91.607-1.562z" stroke-miterlimit="2.613" fill="none" stroke="#000" stroke-width=".13"/>
    <path d="M515.01 344.54c-.087 0-.217-.175-.346-.218-.39-.26-1.128-.26-1.302-.477-1.04-1.17-.347-3.427.086-4.80E9CB84AC9" fill="#fff" fill-rule="evenodd"/>
    <path d="M515.01 331.48c.565 2.473.737 4.99 1.562 7.593.434 1.302 1.085 3.384.304 4.556v-.045c.39 0 .737-.13 0675EA2AC0" fill="#00209f" fill-rule="evenodd"/>
    <g id="b" stroke-miterlimit="2.613" fill="none" stroke-width=".174">
      <path d="M514.27 331.57s-.998 4.078-1.562 5.12c-.607 1.04-2.95 2.95-1.432 5.9" stroke="#011322"/>
      <path d="M514.35 331.57s-.954 4.12-1.562 5.162c-.608 1.086-2.908 3.038-1.345 5.99" stroke="#011d33"/>
      <path d="M514.48 331.57s-.998 4.165-1.606 5.25c-.563 1.04-2.864 3.08-1.258 6.03" stroke="#022743"/>
      <path d="M514.57 331.57s-.954 4.252-1.562 5.293c-.607 1.042-2.864 3.123-1.26 6.16" stroke="#033054"/>
      <path d="M514.7 331.57s-.998 4.295-1.606 5.38c-.607 1.042-2.82 3.166-1.17 6.204" stroke="#053a65"/>
      <path d="M514.18 331.57s-.954 3.947-1.606 5.077c-.607 1.084-2.95 2.994-1.388 5.9" stroke="#011d33"/>
      <path d="M514.05 331.61s-.91 3.774-1.605 5.033c-.608 1.04-2.95 2.95-1.388 5.857" stroke="#022743"/>
      <path d="M513.96 331.61s-.91 3.645-1.648 4.99c-.565 1.04-2.95 2.95-1.39 5.9" stroke="#033054"/>
      <path d="M513.83 331.61s-.824 3.557-1.65 4.946c-.563 1.085-2.905 2.95-1.387 5.9" stroke="#053a65"/>
      <path d="M513.75 331.65s-.824 3.383-1.65 4.903c-.606 1.04-2.95 2.95-1.388 5.857" stroke="#00209f"/>
      <path d="M514.79 331.57s-.954 4.382-1.562 5.423c-.607 1.042-2.777 3.254-1.172 6.335" stroke="#00209f"/>
    </g>
    <use height="100%" width="100%" xlink:href="#b" transform="matrix(-1 0 0 1 1030.05 0)"/>
    <path d="M518.65 335.17c.13.174.347.304.434.478.087.173.217.347.304.52.13.174.217.348.304.564.173.39.433.738.607 1.13l.52 1.17c.087.26.217.478.26.78a2.46 2.46 0 0 1-.086 1.26c-.217.564-.738.868-1.258 1.13-.044 0-.087.085-.174.172-.26.174-.565.044-.825.217a1.86 1.86 0 0 0-.478.52c-.044.132-.174.175-.304.22-.347.13-.695.26-1.084.26v.043-.044c-.044.086-.13.173-.174.26-.217.217-.91.217-1.302.476-.13.044-.26.218-.39.218-.088 0-.218-.174-.347-.218-.392-.26-1.13-.26-1.303-.476-.087-.087-.13-.174-.173-.26v.043l-.044-.044h.044c-.39 0-.738-.13-1.128-.26-.087-.045-.218-.088-.304-.22-.13-.215-.26-.388-.477-.52-.217-.172-.52-.042-.78-.216-.088-.087-.13-.173-.217-.173-.52-.26-.997-.564-1.215-1.127a2.46 2.46 0 0 1-.087-1.26c.044-.303.173-.52.26-.78.175-.39.347-.782.52-1.172.175-.39.39-.737.608-1.128.087-.216.174-.39.304-.563.087-.175.173-.35.303-.522.088-.174.305-.304.435-.478" stroke-miterlimit="2.613" fill="none" stroke="#000" stroke-width=".174"/>
    <g id="c">
      <g fill-rule="evenodd">
        <path d="M487.37 293.56c-1.475-3.688-3.038-11.238-2.95-12.973.302-7.115.216-9.24.867-16.53l7.332 8.374c-.174 0BAD2DAA96" fill="#fff"/>
        <path d="M493.61 283.01c-.52-1.258-.91-4.47-.998-5.12-.217-1.778-.173-2.647 0-5.466l4.512 4.99-3.514 5.596zm-067C438A9A" fill="#00209f"/>
        <path d="M497.74 331.48h13.885c-.043.695-.304 1.04-.608 1.475-.824 1.128-2.17 1.476-3.514 1.78-1.432.346-2.900E29049A62" fill="#00209f"/>
        <path d="M497.74 331.48c1.258.65 1.866 1.736 5.337 2.82 1.345 0 2.82.608 4.08.565-1.52.347-1.563.564-2.822.8606A7098AB6" fill="#fff"/>
      </g>
      <g stroke-miterlimit="2.613" fill="none" stroke-width=".174">
        <path d="M476.65 259.71s1.692 14.97 7.506 14.406" stroke="#022743"/>
        <path d="M484.16 274.03c-2.907.13-4.816-3.558-5.9-7.03-1.13-3.556-1.606-7.288-1.606-7.33" stroke="#022847"/>
        <path d="M484.16 273.99c-2.907-.087-4.816-3.817-5.814-7.072-1.17-3.427-1.692-7.246-1.692-7.29" stroke="#032b4c"/>
        <path d="M484.2 273.95c-2.907-.26-4.86-4.078-5.814-7.115-1.128-3.34-1.692-7.16-1.736-7.246" stroke="#032d4f"/>
        <path d="M484.2 273.9c-2.907-.477-4.86-4.382-5.77-7.16-1.128-3.253-1.736-7.114-1.78-7.245" stroke="#032f53"/>
        <path d="M484.24 273.82c-2.95-.607-4.903-4.6-5.727-7.16-1.128-3.166-1.823-7.07-1.866-7.2" stroke="#043258"/>
        <path d="M484.24 273.77c-2.907-.824-4.903-4.86-5.684-7.202-1.128-3.08-1.866-6.985-1.866-7.16" stroke="#04345b"/>
        <path d="M484.29 273.73c-2.95-.998-4.946-5.12-5.684-7.29-1.085-2.906-1.91-6.897-1.91-7.07" stroke="#04365e"/>
        <path d="M484.29 273.69c-2.95-1.215-4.946-5.38-5.598-7.333-1.128-2.82-1.952-6.81-1.995-7.072" stroke="#043862"/>
        <path d="M484.29 273.6c-2.907-1.345-4.946-5.64-5.554-7.333-1.128-2.733-1.996-6.77-2.04-7.028" stroke="#053b67"/>
        <path d="M484.33 273.55c-2.95-1.52-4.99-5.9-5.554-7.376-1.085-2.647-2.04-6.682-2.083-6.985" stroke="#053d6a"/>
        <path d="M484.33 273.51c-2.95-1.736-4.99-6.16-5.467-7.42-1.128-2.56-2.126-6.638-2.17-6.94" stroke="#053f6e"/>
        <path d="M484.37 273.47c-2.95-1.91-5.033-6.42-5.467-7.506-1.085-2.387-2.126-6.552-2.213-6.9" stroke="#064172"/>
        <path d="M476.69 259.02c.087.39 1.17 4.555 2.256 6.855.39.824 2.473 5.424 5.424 7.506" stroke="#00209f"/>
        <path d="M476.87 256.33s4.86 11.89 7.94 10.544" stroke="#022743"/>
        <path d="M484.81 266.87c-1.345.563-3.34-1.823-4.946-4.6a65.147 65.147 0 0 1-2.994-5.987" stroke="#022a49"/>
        <path d="M484.81 266.83c-1.17.52-3.254-1.78-4.903-4.642a85.93 85.93 0 0 1-3.037-5.944" stroke="#032d4f"/>
        <path d="M484.81 266.79c-.998.433-3.167-1.736-4.86-4.686-1.866-3.34-3.037-5.9-3.037-5.9" stroke="#033054"/>
        <path d="M484.81 266.79c-.824.347-3.123-1.736-4.773-4.773-1.952-3.47-3.123-5.857-3.123-5.857" stroke="#043359"/>
        <path d="M484.85 266.74c-.694.304-3.08-1.692-4.773-4.816-1.995-3.645-3.123-5.857-3.123-5.857" stroke="#043760"/>
        <path d="M484.85 266.74c-.52.217-2.994-1.692-4.73-4.903a749.464 749.464 0 0 0-3.166-5.815" stroke="#053a65"/>
        <path d="M484.85 266.7c-.346.174-2.907-1.65-4.686-4.946-2.125-3.95-3.167-5.772-3.167-5.772" stroke="#053d6a"/>
        <path d="M484.85 266.7c-.173.043-2.82-1.65-4.642-4.99-2.17-4.122-3.212-5.77-3.212-5.77" stroke="#064171"/>
        <path d="M477 255.9s1.04 1.432 3.254 5.727c1.823 3.427 4.6 5.033 4.6 5.033m8.026 12.06l3.77-.7m-4.03-3.16l4.08 2.21" stroke="#00209f"/>
        <path d="M492.53 275.03l4.17 2.04" stroke="#064171"/>
        <path d="M492.53 275.2l4.21 1.91" stroke="#053e6c"/>
        <path d="M492.53 275.42l4.21 1.74" stroke="#053b67"/>
        <path d="M492.57 275.59l4.21 1.61" stroke="#043862"/>
        <path d="M492.57 275.77l4.26 1.43" stroke="#04355c"/>
        <path d="M492.57 275.94l4.3 1.3" stroke="#043258"/>
        <path d="M492.57 276.11l4.34 1.18" stroke="#032f53"/>
        <path d="M492.57 276.33l4.39 1" stroke="#032c4d"/>
        <path d="M492.57 276.51l4.43.86" stroke="#022a49"/>
        <path d="M492.83 278.54l3.87-.56" stroke="#064171"/>
        <path d="M492.83 278.33l3.91-.44" stroke="#053e6c"/>
        <path d="M492.79 278.11l3.99-.26" stroke="#053b67"/>
        <path d="M492.79 277.94l4.04-.13" stroke="#043862"/>
        <path d="M492.75 277.72h4.12" stroke="#04355c"/>
        <path d="M492.75 277.5l4.16.18" stroke="#043258"/>
        <path d="M492.75 277.33l4.21.26" stroke="#032f53"/>
        <path d="M492.7 277.11l4.34.44" stroke="#032c4d"/>
        <path d="M492.7 276.9l4.39.6" stroke="#022a49"/>
        <path d="M492.66 276.72l4.47.7M474.96 277.81s.217 3.167.91 4.512c1 1.866 3.906 4.73 7.247 6.813" stroke="#022743"/>
        <path d="M483.2 289.13c-2.17-1.39-4.12-3.123-5.466-4.642a13.738 13.738 0 0 1-1.736-2.256c-.694-1.39-.998-4.512-.998-4.512" stroke="#022847"/>
        <path d="M483.29 289.13c-2.17-1.39-4.122-3.254-5.424-4.73-.737-.78-1.345-1.56-1.69-2.3-.782-1.387-1.173-4.467-1.173-4.467" stroke="#032b4c"/>
        <path d="M483.33 289.13c-2.126-1.432-4.078-3.384-5.337-4.773-.694-.78-1.302-1.605-1.692-2.343-.824-1.475-1.3-4.468-1.3-4.468" stroke="#032d4f"/>
        <path d="M483.42 289.09c-2.126-1.432-4.078-3.427-5.337-4.816a13.6 13.6 0 0 1-1.65-2.343c-.867-1.518-1.43-4.467-1.43-4.467" stroke="#032f53"/>
        <path d="M483.5 289.09c-2.126-1.432-4.035-3.558-5.294-4.903-.607-.694-1.215-1.52-1.65-2.343-.91-1.562-1.518-4.468-1.518-4.468" stroke="#043258"/>
        <path d="M483.59 289.09c-2.126-1.475-4.035-3.688-5.25-4.99a15.13 15.13 0 0 1-1.65-2.343c-.954-1.65-1.648-4.468-1.648-4.468" stroke="#04345b"/>
        <path d="M483.63 289.09c-2.04-1.52-3.992-3.818-5.163-5.077a13.94 13.94 0 0 1-1.65-2.342c-.997-1.692-1.78-4.47-1.78-4.47" stroke="#04365e"/>
        <path d="M483.72 289.05c-2.04-1.475-3.992-3.862-5.12-5.12-.563-.608-1.128-1.475-1.65-2.343-1.04-1.736-1.908-4.47-1.908-4.47" stroke="#043862"/>
        <path d="M483.81 289.05c-2.04-1.52-3.992-3.992-5.077-5.207-.52-.564-1.128-1.432-1.65-2.343-1.083-1.822-1.994-4.47-1.994-4.47" stroke="#053b67"/>
        <path d="M483.85 289.05c-1.996-1.52-3.905-4.122-4.99-5.294-.52-.564-1.084-1.432-1.65-2.343-1.083-1.865-2.124-4.468-2.124-4.468" stroke="#053d6a"/>
        <path d="M483.94 289.05c-1.996-1.562-3.905-4.21-4.946-5.337-.477-.565-1.085-1.432-1.65-2.386-1.127-1.91-2.255-4.47-2.255-4.47" stroke="#053f6e"/>
        <path d="M484.03 289c-1.996-1.562-3.905-4.295-4.903-5.38-.478-.52-1.04-1.432-1.606-2.387-1.214-1.996-2.428-4.468-2.428-4.468" stroke="#064172"/>
        <path d="M475.09 276.68s2.82 5.337 4.166 6.855c.954 1.04 2.864 3.905 4.86 5.467" stroke="#00209f"/>
        <g>
          <path d="M475.17 289.91c3.08 2.04 3.862 2.56 10.24 6.638l1.952-2.994s-.737-1.78-1.04-2.604" stroke="#011d33"/>
          <path d="M475.22 289.87c2.95 1.996 3.947 2.647 10.195 6.55l.087-.085c0-.043 1.735-2.907 1.735-2.907s-.087-.347-.303-.78c-.217-.564-.478-1.216-.608-1.692" stroke="#011e34"/>
          <path d="M475.22 289.87c2.864 1.91 4.122 2.734 10.195 6.465l.087-.13c0-.087 1.648-2.908 1.648-2.908s-.087-.303-.26-.737a18.13 18.13 0 0 1-.564-1.604" stroke="#022037"/>
          <path d="M475.22 289.87c2.777 1.822 4.295 2.777 10.195 6.335l.087-.13c0-.087 1.56-2.864 1.518-2.864 0 0-.044-.303-.216-.694-.174-.52-.39-1.128-.52-1.56" stroke="#022139"/>
          <path d="M475.22 289.83c2.69 1.778 4.47 2.864 10.195 6.248l.087-.13c0-.13 1.432-2.864 1.432-2.864s0-.26-.174-.652a8.23 8.23 0 0 1-.477-1.474" stroke="#02223b"/>
          <path d="M475.26 289.83c2.56 1.692 4.6 2.95 10.152 6.118.043 0 .087-.13.087-.13 0-.174 1.344-2.82 1.344-2.865-.043 0 0-.217-.174-.606a9.618 9.618 0 0 1-.39-1.39" stroke="#02233d"/>
          <path d="M475.26 289.78c2.473 1.65 4.773 3.038 10.197 6.03 0 0 .043-.13.087-.13 0-.215 1.215-2.82 1.17-2.82 0 0 .045-.217-.086-.607-.173-.433-.304-.867-.347-1.3" stroke="#022540"/>
          <path d="M475.26 289.78c2.386 1.606 4.946 3.08 10.197 5.9l.087-.13c0-.216 1.085-2.777 1.085-2.82 0 0 .085-.174-.088-.52a4.8 4.8 0 0 1-.304-1.26" stroke="#022541"/>
          <path d="M475.26 289.78c2.3 1.52 5.12 3.167 10.197 5.814 0-.044.087-.173.087-.173 0-.26.998-2.776.954-2.82 0 0 .13-.13 0-.476-.173-.434-.217-.78-.26-1.17" stroke="#022743"/>
          <path d="M475.3 289.74c2.17 1.475 5.25 3.254 10.153 5.728 0-.044.087-.13.087-.174 0-.304.867-2.777.867-2.777s.13-.13 0-.477c-.173-.39-.173-.693-.173-1.084" stroke="#022847"/>
          <path d="M475.3 289.74c2.082 1.39 5.38 3.34 10.153 5.598a.33.33 0 0 0 .087-.174c0-.346.78-2.734.737-2.777 0 0 .217-.13.087-.433-.174-.39-.13-.607-.13-.998" stroke="#022a49"/>
          <path d="M475.3 289.74c1.996 1.302 5.553 3.384 10.153 5.467.043-.043.087-.13.13-.173-.043-.348.65-2.734.607-2.734 0-.043.217-.13.087-.433-.13-.348-.087-.52-.087-.91" stroke="#032a4a"/>
          <path d="M475.35 289.7c1.865 1.258 5.684 3.47 10.11 5.38.043-.043.087-.13.13-.172 0-.39.52-2.69.477-2.734 0 0 .26-.087.173-.346-.173-.348-.087-.478-.044-.868" stroke="#032b4c"/>
          <path d="M475.35 289.7c1.778 1.17 5.857 3.558 10.11 5.25.043 0 .13-.13.13-.173 0-.434.433-2.69.39-2.734 0 0 .303-.044.173-.303-.13-.348 0-.39.043-.78" stroke="#032d4f"/>
          <path d="M475.35 289.7c1.692 1.085 6.03 3.6 10.153 5.163 0-.043.087-.173.087-.217 0-.433.346-2.647.303-2.69h-.044s.346-.043.26-.304c-.13-.303 0-.303.086-.694" stroke="#032e50"/>
          <path d="M475.35 289.65c1.605 1.085 6.205 3.688 10.153 5.077a.455.455 0 0 0 .087-.216c0-.476.216-2.646.173-2.69l.26-.26c-.13-.26.044-.26.173-.607" stroke="#032f53"/>
          <path d="M475.39 289.65c1.475.998 6.334 3.775 10.11 4.946a.46.46 0 0 0 .087-.217c0-.52.13-2.648.086-2.69 0 0 .39.042.304-.174-.13-.304.086-.217.172-.563" stroke="#033156"/>
          <path d="M475.39 289.61c1.39.954 6.508 3.862 10.11 4.86.043-.044.087-.174.13-.218 0-.563-.044-2.603-.087-2.647 0 0 .434.044.347-.172-.087-.26.13-.13.26-.477" stroke="#043258"/>
          <path d="M475.39 289.61c1.302.867 6.68 3.905 10.11 4.73.043-.044.087-.174.13-.218 0-.563-.13-2.603-.173-2.647 0 0 .433.086.39-.13-.13-.217.13-.043.302-.39" stroke="#043359"/>
          <path d="M475.39 289.61c1.215.78 6.811 3.992 10.11 4.6.043-.044.13-.13.13-.217 0-.608-.218-2.56-.305-2.647 0 0 .52.13.435-.087-.087-.218.217.043.39-.304" stroke="#04355c"/>
          <path d="M475.43 289.57c1.085.737 6.942 4.08 10.066 4.555.043-.085.13-.172.13-.26 0-.65-.347-2.56-.39-2.603 0 0 .52.087.433-.043-.045-.218.26.086.433-.26" stroke="#04365e"/>
          <path d="M475.43 289.57c.998.65 7.115 4.166 10.066 4.426.087-.087.13-.173.13-.26 0-.65-.434-2.517-.52-2.604 0 0 .563.13.52 0-.087-.172.303.13.477-.172" stroke="#043760"/>
          <path d="M475.43 289.57c.91.565 7.29 4.208 10.11 4.296l.13-.26c-.044-.694-.564-2.517-.65-2.604 0 0 .606.174.52.043-.043-.172.346.217.563-.085" stroke="#043862"/>
          <path d="M475.48 289.52c.782.52 7.42 4.296 10.066 4.21.043-.044.086-.175.13-.26 0-.74-.695-2.518-.738-2.56h-.043s.65.17.608.042c-.044-.13.346.303.607 0" stroke="#053a65"/>
          <path d="M475.48 289.52c.695.478 7.593 4.383 10.066 4.08.043-.045.13-.175.13-.262 0-.78-.78-2.473-.868-2.56 0 0 .65.216.607.13-.044-.13.434.347.694.044" stroke="#053b67"/>
          <path d="M475.48 289.52c.607.39 7.767 4.426 10.066 3.949.043-.045.13-.175.13-.26 0-.783-.868-2.474-.955-2.518v-.043s.695.26.65.173c-.042-.13.436.433.696.13" stroke="#053c68"/>
          <path d="M475.48 289.48c.52.347 7.94 4.513 10.066 3.905a.47.47 0 0 0 .13-.303c0-.824-.998-2.43-1.085-2.516 0 0 .738.26.694.173-.043-.088.477.52.78.216" stroke="#053e6c"/>
          <path d="M475.52 289.48c.39.26 8.07 4.6 10.023 3.775.086-.087.13-.217.173-.304-.044-.867-1.128-2.43-1.215-2.516 0 0 .738.304.738.217-.043-.042.52.608.824.305" stroke="#053f6e"/>
          <path d="M475.52 289.48c.304.174 8.2 4.642 10.023 3.645.086-.087.13-.218.173-.304 0-.867-1.26-2.43-1.345-2.472 0 0 .825.303.78.26 0-.087.565.607.912.347" stroke="#053f6f"/>
          <path d="M475.52 289.43c.217.13 8.375 4.73 10.023 3.558a.71.71 0 0 0 .173-.304c0-.91-1.345-2.387-1.432-2.473 0 0 .824.348.824.305-.044-.044.607.693.91.434" stroke="#064171"/>
          <path d="M475.52 289.43c.13.043 8.547 4.816 10.066 3.427.043-.086.13-.173.13-.304 0-.954-1.433-2.386-1.563-2.473l.867.347s.65.78.998.52" stroke="#064374"/>
          <path d="M475.57 289.39s9.72 5.467 10.153 3.038c0-.998-1.65-2.43-1.65-2.43l.912.346s.65.868 1.04.608" stroke="#00209f"/>
        </g>
        <g>
          <path d="M474.44 315.12l-7.55 12.582c-.564-.346-1.518-1.345-1.822-2.213-.565-1.737-.478-1.737-.91-3.602-.217-1.084-.26-2.3-.478-3.427-.26-1.127-1.866-4.728-1.91-6.204" stroke="#011d33"/>
          <path d="M461.77 312.26c.043 1.475 1.65 4.99 1.91 6.118.217 1.13.26 2.344.476 3.427.433 1.866.347 1.823.955 3.558.26.867 1.26 1.866 1.78 2.212.043 0 7.506-12.452 7.55-12.452" stroke="#011d33"/>
          <path d="M461.77 312.26c.043 1.433 1.65 4.946 1.866 6.074.26 1.13.304 2.3.564 3.384.433 1.823.303 1.823.91 3.558.305.824 1.26 1.823 1.78 2.17.043 0 7.463-12.28 7.55-12.322" stroke="#011e34"/>
          <path d="M461.77 312.26c.043 1.433 1.606 4.903 1.866 6.03.26 1.086.304 2.258.564 3.34.433 1.824.303 1.78.91 3.516.305.825 1.26 1.78 1.78 2.126.087.044 7.463-12.106 7.55-12.15" stroke="#011e34"/>
          <path d="M461.77 312.26c.043 1.39 1.606 4.86 1.866 5.944.26 1.13.304 2.257.564 3.34.433 1.78.346 1.78.91 3.472.305.824 1.26 1.78 1.78 2.126.13.044 7.42-11.976 7.55-12.018" stroke="#011f36"/>
          <path d="M461.77 312.26c.043 1.39 1.606 4.816 1.866 5.902.26 1.084.304 2.256.564 3.296.433 1.78.346 1.736.954 3.427.303.825 1.215 1.78 1.78 2.127.086.043 7.332-11.846 7.506-11.888" stroke="#011f36"/>
          <path d="M461.77 312.26c.043 1.39 1.562 4.73 1.866 5.815.26 1.084.304 2.256.564 3.296.433 1.737.346 1.737.954 3.385.303.825 1.215 1.78 1.78 2.127.13.043 7.332-11.715 7.506-11.758" stroke="#022037"/>
          <path d="M461.77 312.26c.043 1.346 1.562 4.686 1.866 5.77.26 1.086.304 2.214.564 3.255.433 1.735.39 1.735.954 3.34.303.825 1.215 1.78 1.78 2.083.172.087 7.288-11.498 7.506-11.584" stroke="#022037"/>
          <path d="M461.77 312.26c.043 1.346 1.562 4.642 1.866 5.728.26 1.04.304 2.17.564 3.21.433 1.693.39 1.693.997 3.34.303.78 1.215 1.692 1.736 2.04.173.043 7.29-11.368 7.507-11.454" stroke="#022139"/>
          <path d="M461.77 312.26c.043 1.303 1.562 4.6 1.866 5.64.26 1.086.304 2.17.564 3.21.433 1.694.39 1.694.997 3.297.303.782 1.215 1.693 1.736 2.04.216.044 7.246-11.238 7.507-11.323" stroke="#022139"/>
          <path d="M461.77 312.26c.043 1.303 1.52 4.555 1.866 5.598.26 1.04.304 2.125.607 3.166.433 1.692.346 1.65.954 3.254.303.78 1.215 1.693 1.736 2.04.26.043 7.203-11.108 7.507-11.194" stroke="#022139"/>
          <path d="M461.77 312.26c.043 1.303 1.52 4.47 1.866 5.554.26.998.304 2.126.607 3.08.433 1.693.39 1.693.954 3.254.303.78 1.215 1.69 1.736 1.995.26.087 7.203-10.934 7.507-11.02" stroke="#02223b"/>
          <path d="M461.77 312.26c.043 1.26 1.52 4.426 1.866 5.467.26 1.042.304 2.127.607 3.08.433 1.693.39 1.693.998 3.21.304.78 1.172 1.65 1.693 1.997.303.086 7.16-10.76 7.507-10.89" stroke="#02223b"/>
          <path d="M461.77 312.26c.043 1.26 1.52 4.383 1.866 5.424.26.998.304 2.083.607 3.038.433 1.65.39 1.65.998 3.21.304.737 1.172 1.606 1.737 1.953.303.087 7.072-10.63 7.463-10.76" stroke="#02233d"/>
          <path d="M461.77 312.26c.043 1.216 1.475 4.34 1.866 5.38.26.998.304 2.04.607 2.995.433 1.65.433 1.65.998 3.167.304.737 1.216 1.605 1.737 1.953.303.085 7.072-10.5 7.463-10.63" stroke="#02233d"/>
          <path d="M461.77 312.26c.043 1.216 1.475 4.295 1.866 5.294.26.997.348 2.04.607 2.994.433 1.606.433 1.606.998 3.123.347.74 1.216 1.607 1.737 1.91.346.13 7.028-10.326 7.463-10.455" stroke="#02233e"/>
          <path d="M461.77 312.26c.043 1.173 1.475 4.21 1.866 5.25.26.998.348 1.997.607 2.95.433 1.607.433 1.607 1.04 3.08.304.74 1.173 1.607 1.694 1.91.39.13 7.028-10.196 7.463-10.325" stroke="#02233e"/>
          <path d="M461.77 312.21c.043 1.216 1.475 4.21 1.823 5.25.304.955.39 1.997.65 2.908.433 1.562.433 1.605 1.04 3.037.304.74 1.173 1.563 1.694 1.91.39.13 6.985-10.023 7.463-10.195" stroke="#022540"/>
          <path d="M461.77 312.21c.043 1.216 1.432 4.166 1.823 5.163.304.955.39 1.997.65 2.908.477 1.563.477 1.563 1.04 3.04.304.693 1.173 1.517 1.694 1.82.433.132 6.942-9.848 7.463-10.02" stroke="#022540"/>
          <path d="M461.77 312.21c.043 1.173 1.432 4.122 1.823 5.12.26.954.39 1.953.694 2.864.433 1.52.433 1.562 1.04 2.994.304.695 1.13 1.52 1.65 1.823.476.13 6.942-9.718 7.463-9.89" stroke="#022540"/>
          <path d="M461.77 312.21c.043 1.173 1.432 4.035 1.823 5.077.26.91.39 1.91.694 2.82.433 1.52.433 1.52 1.04 2.95.304.696 1.172 1.52 1.65 1.824.476.13 6.898-9.588 7.463-9.76" stroke="#022541"/>
          <path d="M461.77 312.21c.043 1.13 1.432 3.992 1.823 4.99.26.955.39 1.91.694 2.82.433 1.476.476 1.52 1.04 2.91.304.692 1.172 1.516 1.693 1.82.477.13 6.855-9.458 7.42-9.63" stroke="#022541"/>
          <path d="M461.77 312.21c.043 1.13 1.39 3.949 1.823 4.946.26.912.39 1.866.694 2.777.433 1.476.476 1.476 1.04 2.865.347.694 1.172 1.476 1.693 1.78.52.172 6.812-9.242 7.42-9.46" stroke="#022743"/>
          <path d="M461.77 312.21c.043 1.13 1.39 3.905 1.823 4.903.26.868.39 1.866.694 2.734.433 1.432.476 1.475 1.084 2.863.304.652 1.13 1.433 1.65 1.736.52.174 6.768-9.112 7.42-9.327" stroke="#022743"/>
          <path d="M461.77 312.21c.043 1.086 1.39 3.862 1.823 4.816.26.912.39 1.866.694 2.735.433 1.433.476 1.476 1.084 2.82.304.652 1.13 1.433 1.65 1.737.564.173 6.768-8.983 7.42-9.198" stroke="#022845"/>
          <path d="M461.77 312.21c.043 1.086 1.39 3.775 1.823 4.773.26.868.39 1.822.694 2.69.433 1.39.52 1.433 1.084 2.778.348.65 1.13 1.433 1.65 1.737.607.173 6.725-8.852 7.42-9.069" stroke="#022845"/>
          <path d="M461.77 312.21c.043 1.042 1.345 3.73 1.823 4.73.26.868.39 1.78.694 2.647.476 1.39.52 1.432 1.084 2.734.348.65 1.13 1.433 1.65 1.693.607.217 6.68-8.678 7.42-8.895" stroke="#022847"/>
          <path d="M461.77 312.21c.043 1.042 1.345 3.688 1.823 4.642.26.87.39 1.78.737 2.648.433 1.345.478 1.39 1.085 2.69.303.652 1.128 1.39 1.605 1.693.65.217 6.68-8.548 7.42-8.808" stroke="#022847"/>
          <path d="M461.77 312.21c.043 1.042 1.345 3.645 1.823 4.6.26.867.39 1.735.737 2.56.433 1.388.52 1.432 1.085 2.69.303.65 1.128 1.39 1.605 1.693.694.173 6.638-8.375 7.42-8.678" stroke="#022847"/>
          <path d="M461.77 312.21c.043 1 1.345 3.6 1.823 4.556.26.825.39 1.735.737 2.517.433 1.345.52 1.432 1.085 2.69.346.608 1.128 1.345 1.65 1.65.65.173 6.593-8.245 7.375-8.548" stroke="#022a49"/>
          <path d="M461.77 312.21c.043 1 1.302 3.514 1.823 4.47.26.824.39 1.734.737 2.516.433 1.345.52 1.39 1.085 2.647.346.608 1.128 1.345 1.65 1.606.692.216 6.55-8.072 7.375-8.375" stroke="#022a49"/>
          <path d="M461.77 312.21c.043.955 1.302 3.47 1.823 4.426.26.824.433 1.692.737 2.473.433 1.3.52 1.388 1.128 2.603.304.608 1.085 1.345 1.606 1.605.737.218 6.507-7.94 7.376-8.243" stroke="#032a4a"/>
          <path d="M461.77 312.21c.043.955 1.302 3.427 1.78 4.383.303.78.476 1.648.78 2.43.433 1.3.564 1.345 1.128 2.56.347.607 1.085 1.302 1.606 1.605.737.217 6.507-7.81 7.376-8.113" stroke="#032a4a"/>
          <path d="M461.81 312.21c0 .955 1.215 3.384 1.736 4.295.304.825.477 1.65.78 2.43.434 1.26.564 1.346 1.13 2.517.346.608 1.127 1.302 1.604 1.562.78.26 6.464-7.593 7.376-7.94" stroke="#032b4c"/>
          <path d="M461.81 312.21c0 .912 1.215 3.34 1.736 4.253.304.78.477 1.605.78 2.386.478 1.257.564 1.344 1.172 2.515.304.565 1.085 1.26 1.562 1.52.824.26 6.42-7.464 7.376-7.81" stroke="#032b4c"/>
          <path d="M461.81 312.21c0 .912 1.215 3.254 1.736 4.166.304.78.477 1.65.78 2.386.478 1.258.564 1.302 1.172 2.474.304.564 1.085 1.26 1.562 1.518.824.26 6.42-7.333 7.376-7.68" stroke="#032c4d"/>
          <path d="M461.81 312.21c0 .87 1.215 3.21 1.736 4.122.304.78.477 1.606.824 2.343.434 1.215.564 1.302 1.128 2.43.347.564 1.085 1.26 1.562 1.52.868.26 6.377-7.204 7.376-7.55" stroke="#032c4d"/>
          <path d="M461.81 312.21c0 .87 1.17 3.167 1.736 4.08.304.736.477 1.56.824 2.298.434 1.216.564 1.26 1.128 2.387.347.564 1.085 1.215 1.606 1.476.867.304 6.335-7.03 7.332-7.375" stroke="#032c4d"/>
          <path d="M461.81 312.21c0 .87 1.17 3.123 1.736 3.992.304.78.477 1.562.824 2.3.434 1.172.564 1.26 1.17 2.343.305.564 1.043 1.215 1.564 1.476.867.26 6.29-6.855 7.332-7.245" stroke="#032d4f"/>
          <path d="M461.81 312.21c0 .825 1.17 3.08 1.736 3.949.304.736.477 1.517.824 2.254.434 1.173.607 1.215 1.17 2.344.35.52 1.043 1.172 1.564 1.432.91.26 6.248-6.725 7.332-7.115" stroke="#032d4f"/>
          <path d="M461.81 312.21c0 .825 1.17 2.994 1.736 3.905.304.737.477 1.475.824 2.213.434 1.13.607 1.216 1.17 2.3.35.52 1.086 1.172 1.564 1.432.954.26 6.248-6.595 7.332-6.985" stroke="#032e50"/>
          <path d="M461.81 312.21c0 .782 1.128 2.95 1.736 3.818.304.737.477 1.52.824 2.213.434 1.13.607 1.217 1.17 2.258.35.52 1.086 1.17 1.564 1.39.954.302 6.204-6.423 7.332-6.813" stroke="#032e50"/>
          <path d="M461.81 312.21c0 .782 1.128 2.908 1.736 3.775.304.695.477 1.475.824 2.17.434 1.085.607 1.17 1.215 2.213.347.52 1.04 1.128 1.52 1.388.996.304 6.203-6.29 7.33-6.68" stroke="#032f53"/>
          <path d="M461.81 312.21c0 .738 1.128 2.865 1.736 3.73.304.696.477 1.433.824 2.128.477 1.085.65 1.172 1.215 2.17.347.52 1.04 1.127 1.52 1.388 1.04.304 6.16-6.118 7.33-6.55" stroke="#032f53"/>
          <path d="M461.81 312.21c0 .738 1.128 2.822 1.736 3.645.304.693.477 1.432.824 2.126.477 1.043.65 1.13 1.215 2.17.347.478 1.04 1.086 1.562 1.346.998.304 6.074-5.988 7.29-6.42" stroke="#033054"/>
          <path d="M461.81 312.21c0 .738 1.085 2.735 1.736 3.6.304.695.477 1.39.867 2.085.434 1.04.607 1.128 1.172 2.125.347.478 1.04 1.086 1.562 1.302 1.04.347 6.074-5.814 7.29-6.247" stroke="#033054"/>
          <path d="M461.81 312.21c0 .695 1.085 2.69 1.736 3.558.26.65.52 1.345.867 1.996.434 1.04.65 1.172 1.215 2.126.348.478 1.042 1.042 1.52 1.303 1.084.346 6.03-5.685 7.288-6.118" stroke="#033054"/>
          <path d="M461.81 312.21c0 .695 1.085 2.648 1.692 3.47.304.652.564 1.39.91 1.997.435 1.042.652 1.128 1.216 2.084.348.477 1.04 1.042 1.52 1.302 1.084.347 5.988-5.554 7.288-5.987" stroke="#033156"/>
          <path d="M461.81 312.21c0 .65 1.085 2.604 1.692 3.427.304.652.564 1.345.91 1.953.435.998.652 1.128 1.216 2.04.348.477 1.04 1.042 1.52 1.302 1.127.304 5.988-5.38 7.288-5.857" stroke="#033156"/>
          <path d="M461.81 312.21c0 .65 1.04 2.56 1.692 3.384.304.608.564 1.302.91 1.91.435.997.652 1.084 1.26 2.04.347.476.997.997 1.475 1.214 1.17.348 5.945-5.206 7.29-5.683" stroke="#043258"/>
          <path d="M461.81 312.21c0 .65 1.04 2.474 1.692 3.297.304.652.564 1.302.91 1.91.435.954.695 1.084 1.26 1.996.347.477.997.998 1.475 1.215 1.17.348 5.945-5.076 7.29-5.553" stroke="#043258"/>
          <path d="M461.81 312.17c0 .65 1.04 2.474 1.692 3.297.304.608.564 1.26.91 1.866.478.955.695 1.085 1.26 1.953.347.478.997.955 1.475 1.215 1.215.35 5.902-4.945 7.29-5.422" stroke="#043359"/>
          <path d="M461.81 312.17c0 .65 1.04 2.43 1.692 3.254.304.608.564 1.216.91 1.823.478.91.695 1.04 1.26 1.91.39.476.997.953 1.518 1.17 1.215.39 5.814-4.772 7.246-5.25" stroke="#043359"/>
          <path d="M461.81 312.17c0 .608.998 2.387 1.692 3.167.304.608.564 1.26.955 1.823.433.912.694 1.04 1.258 1.866.348.478.998.954 1.476 1.17 1.215.392 5.814-4.598 7.246-5.118" stroke="#04345b"/>
          <path d="M461.81 312.17c0 .608.998 2.3 1.692 3.123.304.565.564 1.215.955 1.78.433.868.694 1 1.258 1.823.348.477.998.955 1.476 1.17 1.26.392 5.772-4.467 7.246-4.988" stroke="#04345b"/>
          <path d="M461.81 312.17c0 .608.998 2.257 1.692 3.08.304.565.564 1.173.955 1.736.433.868.694 1 1.258 1.823.348.433.998.91 1.476 1.127 1.302.39 5.772-4.34 7.246-4.86" stroke="#04345b"/>
          <path d="M461.81 312.17c0 .565.954 2.214 1.692 2.994.304.565.564 1.173.955 1.736.433.825.694.956 1.258 1.78.39.434.998.868 1.476 1.085 1.302.433 5.728-4.165 7.246-4.685" stroke="#04355c"/>
          <path d="M461.81 312.17c0 .565.954 2.17 1.692 2.95.304.564.564 1.13.955 1.692.433.825.737.956 1.302 1.736.346.435.953.87 1.43 1.085 1.346.434 5.685-4.034 7.246-4.554" stroke="#04355c"/>
          <path d="M461.81 312.17c0 .52.954 2.127 1.692 2.908.304.52.564 1.085.955 1.65.433.824.737.954 1.302 1.69.346.435.953.87 1.43 1.087 1.39.433 5.685-3.906 7.246-4.426" stroke="#04365e"/>
          <path d="M461.81 312.17c0 .52.954 2.04 1.692 2.822.304.52.564 1.128.955 1.65.476.78.737.91 1.302 1.647.39.433.996.867 1.43 1.084 1.39.39 5.642-3.73 7.246-4.295" stroke="#04365e"/>
          <path d="M461.81 312.17c0 .52.91 1.996 1.692 2.778.304.52.564 1.085.955 1.605.476.78.78.912 1.302 1.65.39.39.996.824 1.474.998 1.39.434 5.554-3.557 7.202-4.12" stroke="#043760"/>
          <path d="M461.81 312.17c0 .478.91 1.953 1.692 2.735.304.476.564 1.04.955 1.562.476.737.78.867 1.345 1.606.347.39.954.78 1.432.997 1.432.435 5.554-3.427 7.202-3.99" stroke="#043760"/>
          <path d="M461.81 312.17c0 .478.91 1.91 1.65 2.648.346.52.65 1.04 1.04 1.562.435.737.74.868 1.302 1.562.347.39.954.78 1.432.998 1.432.434 5.51-3.297 7.202-3.904" stroke="#043862"/>
          <path d="M461.81 312.17c0 .434.91 1.866 1.65 2.604.346.477.65.998 1.04 1.476.435.737.74.91 1.302 1.562.39.39.954.78 1.432.998 1.475.434 5.51-3.167 7.202-3.774" stroke="#043862"/>
          <path d="M461.81 312.17c0 .434.867 1.78 1.65 2.518.346.52.65.997 1.04 1.475.435.737.782.867 1.345 1.52.348.39.91.78 1.39.953 1.518.478 5.466-2.95 7.2-3.6" stroke="#043862"/>
          <path d="M461.81 312.17c0 .434.867 1.736 1.65 2.474.346.478.65.998 1.04 1.432.435.694.782.868 1.345 1.52.348.346.91.736 1.39.91 1.518.478 5.423-2.82 7.2-3.47" stroke="#043963"/>
          <path d="M461.81 312.17c0 .39.867 1.692 1.65 2.43.346.435.65.955 1.04 1.39.435.694.782.823 1.345 1.475.39.347.955.695 1.39.91 1.56.478 5.423-2.69 7.2-3.34" stroke="#043963"/>
          <path d="M461.81 312.17c0 .39.867 1.65 1.65 2.344.346.478.65.954 1.04 1.39.478.65.825.824 1.345 1.43.39.348.955.695 1.39.91 1.605.48 5.38-2.56 7.2-3.208" stroke="#053a65"/>
          <path d="M461.81 312.17c0 .347.824 1.606 1.65 2.3.346.435.65.91 1.04 1.346.478.65.825.825 1.39 1.388.345.348.91.695 1.387.87 1.606.52 5.294-2.39 7.16-3.04" stroke="#053a65"/>
          <path d="M461.81 312.17c0 .347.824 1.52 1.65 2.257.346.434.65.867 1.04 1.302.478.607.825.78 1.39 1.344.39.347.91.695 1.387.868 1.606.477 5.294-2.213 7.16-2.907" stroke="#053b67"/>
          <path d="M461.81 312.17c0 .347.824 1.476 1.65 2.17.346.434.65.868 1.084 1.302.434.608.78.782 1.345 1.345.39.304.91.65 1.387.825 1.65.477 5.25-2.083 7.16-2.777" stroke="#053b67"/>
          <path d="M461.81 312.17c0 .304.824 1.433 1.65 2.127.346.39.65.867 1.084 1.258.434.565.825.738 1.345 1.302.39.304.91.608 1.387.78 1.693.523 5.25-1.908 7.16-2.602" stroke="#053c68"/>
          <path d="M461.81 312.17c0 .304.78 1.39 1.65 2.083.346.39.65.825 1.084 1.215.434.565.825.738 1.388 1.26.347.302.91.606 1.345.78 1.693.52 5.207-1.78 7.16-2.473" stroke="#053c68"/>
          <path d="M461.81 312.17c0 .26.78 1.346 1.65 1.996.303.39.65.826 1.084 1.215.434.522.825.696 1.388 1.217.39.303.91.607 1.345.78 1.736.522 5.164-1.648 7.16-2.342" stroke="#053c68"/>
          <path d="M461.81 312.17c0 .26.78 1.26 1.65 1.953.303.39.65.782 1.084 1.172.434.52.868.694 1.388 1.172.39.303.91.607 1.345.78 1.78.522 5.164-1.475 7.16-2.212" stroke="#053d6a"/>
          <path d="M461.81 312.17c0 .217.78 1.216 1.65 1.91.303.347.65.738 1.084 1.128.477.477.868.694 1.388 1.13.39.303.91.606 1.345.736 1.78.564 5.12-1.302 7.16-2.04" stroke="#053d6a"/>
          <path d="M461.81 312.17c0 .217.737 1.173 1.65 1.823.303.39.65.738 1.084 1.13.477.475.868.65 1.432 1.127.39.26.867.52 1.345.694 1.78.564 5.077-1.172 7.116-1.91" stroke="#053e6c"/>
          <path d="M461.81 312.17c0 .217.737 1.13 1.606 1.78.347.347.737.694 1.128 1.085.477.433.868.65 1.432 1.085.39.26.867.52 1.345.693 1.824.565 5.034-1.04 7.116-1.778" stroke="#053e6c"/>
          <path d="M461.81 312.17c0 .174.737 1.086 1.606 1.736.347.304.737.695 1.128 1.042.477.433.91.607 1.432 1.04.39.262.867.52 1.345.696 1.824.564 4.99-.912 7.116-1.65" stroke="#053f6e"/>
          <path d="M461.81 312.17c0 .174.737 1 1.606 1.65a14.2 14.2 0 0 0 1.17 1.04c.435.39.87.608 1.433 1 .345.26.867.52 1.3.65 1.867.564 4.99-.694 7.116-1.475" stroke="#053f6e"/>
          <path d="M461.81 312.17c0 .13.694.955 1.606 1.606.347.304.737.65 1.17.955.435.434.87.65 1.433 1 .39.26.867.476 1.3.65 1.91.564 4.947-.564 7.116-1.345" stroke="#053f6f"/>
          <path d="M461.81 312.17c0 .13.694.912 1.606 1.562.347.304.737.608 1.17.912.435.39.87.607 1.433.998.39.217.867.434 1.3.608 1.91.563 4.904-.434 7.116-1.215" stroke="#053f6f"/>
          <path d="M461.81 312.17c0 .13.694.868 1.606 1.476.347.303.737.607 1.17.91.435.392.912.608 1.433.956.39.217.867.434 1.3.608 1.954.564 4.904-.304 7.116-1.085" stroke="#053f6f"/>
          <path d="M461.81 312.17c0 .087.65.782 1.606 1.433.347.26.737.563 1.17.867.48.39.912.565 1.477.91.39.218.824.436 1.258.566 1.996.607 4.86-.13 7.116-.91" stroke="#064171"/>
          <path d="M461.81 312.17c0 .087.65.738 1.606 1.39.347.26.737.563 1.17.824.48.347.912.564 1.477.867.39.218.824.435 1.3.566 1.953.608 4.817 0 7.073-.78" stroke="#064171"/>
          <path d="M461.81 312.17c0 .043.65.695 1.606 1.303.347.26.737.563 1.17.824.48.347.955.564 1.477.825.39.216.867.39 1.3.563 1.997.608 4.774.174 7.073-.65" stroke="#064172"/>
          <path d="M461.81 312.13c0 .087.65.695 1.606 1.303.347.26.737.52 1.17.78.48.304.955.52 1.477.825l1.3.52c2.04.608 4.73.304 7.073-.52" stroke="#064172"/>
          <path d="M461.81 312.13c0 .087.607.65 1.606 1.26.347.216.737.476 1.17.736.48.304.955.522 1.52.782.39.174.824.346 1.258.477 2.04.65 4.73.477 7.072-.347" stroke="#064374"/>
          <path d="M461.81 312.13c0 .043.607.565 1.606 1.173.347.26.737.476 1.215.737.435.26.91.477 1.476.738.39.174.824.347 1.258.477 2.083.65 4.686.607 7.072-.217" stroke="#064374"/>
          <path d="M461.81 312.13c0 .043.607.52 1.606 1.13.347.216.737.433 1.215.693.435.26.955.477 1.476.695.39.173.824.347 1.258.477 2.126.607 4.643.737 7.072-.087m-12.627-2.908s6.465 5.077 12.626 2.908" stroke="#00209f"/>
        </g>
        <g>
          <path d="M461.55 292.17s1.258 8.113 1.736 9.285c.433 1.042 2.994 5.684 6.898 6.77" stroke="#022743"/>
          <path d="M461.55 292.17s1.345 8.027 1.866 9.2c.434 1.04 2.82 5.465 6.812 6.81" stroke="#022a49"/>
          <path d="M461.59 292.13s1.39 7.984 1.91 9.2c.434 1.04 2.69 5.205 6.724 6.854" stroke="#032b4c"/>
          <path d="M461.59 292.13s1.475 7.94 1.996 9.112c.477 1.04 2.517 4.99 6.638 6.898" stroke="#032e50"/>
          <path d="M461.64 292.13s1.52 7.853 2.04 9.025c.52 1.085 2.386 4.772 6.594 6.942" stroke="#033054"/>
          <path d="M461.64 292.13s1.606 7.81 2.17 8.982c.477 1.084 2.213 4.468 6.464 6.985" stroke="#043359"/>
          <path d="M461.64 292.08s1.692 7.767 2.257 8.938c.52 1.085 2.04 4.253 6.377 7.03" stroke="#04355c"/>
          <path d="M461.68 292.08s1.735 7.723 2.3 8.895c.52 1.084 1.908 3.992 6.29 7.072" stroke="#043760"/>
          <path d="M461.68 292.08s1.822 7.636 2.386 8.808c.564 1.085 1.78 3.775 6.248 7.115" stroke="#053a65"/>
          <path d="M461.72 292.04s1.865 7.636 2.473 8.765c.564 1.128 1.562 3.515 6.118 7.202" stroke="#053c68"/>
          <path d="M461.72 292.04s1.996 7.55 2.56 8.72c.563 1.086 1.432 3.255 6.03 7.203" stroke="#053f6e"/>
          <path d="M461.77 292.04s2.04 7.506 2.603 8.634c.607 1.128 1.302 3.038 5.988 7.246" stroke="#064172"/>
          <path d="M461.77 291.99s2.127 7.463 2.69 8.59c.607 1.13 1.172 2.82 5.9 7.333" stroke="#00209f"/>
        </g>
        <g>
          <path d="M462.07 287.18s1.04 11.455 9.198 14.622" stroke="#022743"/>
          <path d="M462.07 287.18c.043.043.477 3.688 2.126 7.246 1.3 2.733 3.47 5.857 7.072 7.332" stroke="#022a49"/>
          <path d="M462.11 287.18c0 .043.52 3.775 2.17 7.202 1.214 2.517 3.383 5.772 6.984 7.376" stroke="#032b4c"/>
          <path d="M462.11 287.18c.043.087.65 3.905 2.256 7.115 1.17 2.343 3.297 5.728 6.898 7.42" stroke="#032e50"/>
          <path d="M462.16 287.18c0 .087.737 3.992 2.343 7.072 1.04 2.17 3.167 5.64 6.77 7.42" stroke="#033054"/>
          <path d="M462.16 287.18c.043.13.867 4.08 2.43 6.985.954 1.997 3.123 5.598 6.682 7.507" stroke="#043359"/>
          <path d="M462.2 287.18c0 .13.954 4.166 2.473 6.942.91 1.78 3.038 5.51 6.595 7.506" stroke="#04355c"/>
          <path d="M462.2 287.14c.043.217 1.085 4.34 2.56 6.943.824 1.56 2.95 5.423 6.508 7.505" stroke="#043760"/>
          <path d="M462.2 287.14c.087.217 1.215 4.425 2.647 6.856.78 1.432 2.864 5.38 6.42 7.55" stroke="#053a65"/>
          <path d="M462.25 287.14c.043.26 1.302 4.512 2.69 6.813.694 1.214 2.777 5.293 6.335 7.592" stroke="#053c68"/>
          <path d="M462.25 287.14c.086.26 1.432 4.6 2.82 6.726.607 1.04 2.647 5.25 6.205 7.635" stroke="#053f6e"/>
          <path d="M462.29 287.14c.043.304 1.52 4.73 2.864 6.682.52.824 2.56 5.164 6.118 7.636" stroke="#064172"/>
          <path d="M462.29 287.14c.086.304 1.65 4.816 2.95 6.595.477.65 2.474 5.12 6.032 7.723" stroke="#00209f"/>
        </g>
        <g>
          <path d="M462.16 284.01s2.386 9.2 9.025 11.455" stroke="#022743"/>
          <path d="M462.16 284.01s.91 3.254 3.08 6.422c1.432 2.125 3.514 4.208 5.944 5.033" stroke="#022847"/>
          <path d="M462.16 283.97s.954 3.21 3.123 6.377c1.52 2.17 3.645 4.34 5.9 5.12" stroke="#032a4a"/>
          <path d="M462.16 283.93s.998 3.167 3.21 6.334c1.563 2.212 3.732 4.468 5.814 5.163" stroke="#032c4d"/>
          <path d="M462.2 283.88s.998 3.123 3.254 6.334c1.605 2.212 3.86 4.555 5.728 5.207" stroke="#032f53"/>
          <path d="M462.2 283.88s1.04 3.038 3.34 6.248c1.65 2.256 3.95 4.686 5.685 5.25" stroke="#033156"/>
          <path d="M462.2 283.84s1.085 3.038 3.384 6.205c1.736 2.342 4.122 4.816 5.64 5.337" stroke="#043359"/>
          <path d="M462.2 283.79s1.128 2.994 3.47 6.16c1.78 2.387 4.21 4.947 5.555 5.425" stroke="#04355c"/>
          <path d="M462.25 283.79s1.085 2.907 3.514 6.118c1.823 2.386 4.34 5.033 5.468 5.424" stroke="#043760"/>
          <path d="M462.25 283.75s1.128 2.864 3.6 6.074c1.866 2.43 4.426 5.207 5.382 5.51" stroke="#043963"/>
          <path d="M462.25 283.71s1.17 2.82 3.645 6.03c1.908 2.474 4.6 5.338 5.337 5.598" stroke="#053b67"/>
          <path d="M462.25 283.66s1.215 2.777 3.73 6.03c1.954 2.518 4.687 5.425 5.252 5.6" stroke="#053e6c"/>
          <path d="M462.29 283.66s1.215 2.69 3.775 5.944c1.995 2.56 4.816 5.554 5.163 5.685" stroke="#053f6f"/>
          <path d="M462.29 283.62s1.258 2.647 3.862 5.9c2.04 2.604 4.903 5.685 5.12 5.772" stroke="#064172"/>
          <path d="M462.29 283.58s1.302 2.603 3.905 5.857c2.126 2.647 5.077 5.815 5.077 5.815" stroke="#00209f"/>
        </g>
        <g>
          <path d="M479.9 296.55l4.56.83m-4.08 2.64l4.08-1.73" stroke="#00209f"/>
          <path d="M479.86 296.68l4.56.7" stroke="#064171"/>
          <path d="M479.86 296.85l4.6.57" stroke="#053e6c"/>
          <path d="M479.9 297.03l4.6.39" stroke="#053b67"/>
          <path d="M479.9 297.2l4.65.26" stroke="#043862"/>
          <path d="M479.9 297.38l4.69.08" stroke="#04355c"/>
          <path d="M479.95 297.55l4.68-.04" stroke="#043258"/>
          <path d="M479.95 297.68l4.73-.17" stroke="#032f53"/>
          <path d="M479.95 297.85l4.77-.3" stroke="#032c4d"/>
          <path d="M479.99 298.03l4.77-.48" stroke="#022a49"/>
          <path d="M480.34 299.81l4.16-1.61" stroke="#064171"/>
          <path d="M480.29 299.63l4.26-1.52" stroke="#053e6c"/>
          <path d="M480.29 299.46l4.3-1.39" stroke="#053b67"/>
          <path d="M480.25 299.28l4.38-1.3" stroke="#043862"/>
          <path d="M480.21 299.11l4.47-1.17" stroke="#04355c"/>
          <path d="M480.21 298.94l4.51-1.09" stroke="#043258"/>
          <path d="M480.16 298.72l4.6-.91" stroke="#032f53"/>
          <path d="M480.12 298.55l4.69-.83" stroke="#032c4d"/>
          <path d="M480.12 298.37l4.73-.69" stroke="#022a49"/>
          <path d="M480.08 298.2l4.81-.61" stroke="#022743"/>
        </g>
        <g>
          <path d="M484.24 331.57s-2.43.13-2.647.217c-.26.044-9.892-.174-9.892-.174" stroke="#032b4c"/>
          <path d="M484.29 331.61s-2.386.217-2.734.304c-.39.042-9.762-.26-9.762-.26" stroke="#032e50"/>
          <path d="M484.29 331.65s-2.3.303-2.777.39c-.52.088-9.632-.347-9.632-.347" stroke="#033054"/>
          <path d="M484.33 331.7s-2.256.346-2.864.478c-.65.13-9.545-.435-9.545-.435" stroke="#043359"/>
          <path d="M484.33 331.7s-2.17.478-2.95.607c-.738.174-9.372-.52-9.372-.52" stroke="#04355c"/>
          <path d="M484.33 331.74s-2.083.52-2.994.694c-.868.217-9.24-.607-9.24-.607" stroke="#043760"/>
          <path d="M484.37 331.78s-2.04.607-3.08.824c-.998.174-9.112-.737-9.112-.737" stroke="#053a65"/>
          <path d="M484.37 331.83s-1.996.694-3.123.91c-1.128.218-9.026-.78-9.026-.78" stroke="#053c68"/>
          <path d="M484.42 331.87s-1.952.737-3.21.998c-1.26.26-8.895-.87-8.895-.87" stroke="#053f6e"/>
          <path d="M484.42 331.91s-1.866.824-3.254 1.085c-1.388.304-8.764-.956-8.764-.956" stroke="#064172"/>
          <path d="M472.48 332.09s7.115 1.345 8.634 1.04c1.52-.303 3.34-1.17 3.34-1.17" stroke="#00209f"/>
        </g>
        <g>
          <path d="M486.06 337.07s4.555.695 4.73.65c.085 0 2.646-.172 2.733-.172.043 0 2.212-.52 2.212-.52" stroke="#022a49"/>
          <path d="M485.8 336.99s4.686.738 5.033.65c.173-.042 2.517-.172 2.647-.172.13 0 2.082-.478 2.082-.478" stroke="#032d4f"/>
          <path d="M485.54 336.86s4.816.825 5.294.695c.26-.044 2.386-.174 2.603-.174.174 0 1.91-.433 1.91-.433" stroke="#033054"/>
          <path d="M485.28 336.73s4.903.87 5.597.738a56.906 56.906 0 0 1 2.516-.173l1.736-.348" stroke="#043359"/>
          <path d="M485.02 336.64s5.033.91 5.857.737c.434-.087 2.17-.174 2.473-.217.304 0 1.563-.26 1.563-.26" stroke="#043760"/>
          <path d="M484.76 336.51s5.163.998 6.16.78c.522-.086 1.998-.173 2.387-.217.348 0 1.39-.217 1.39-.217" stroke="#053a65"/>
          <path d="M484.5 336.38s5.25 1.085 6.42.867c.65-.13 1.91-.217 2.343-.26a24.422 24.422 0 0 0 1.215-.174" stroke="#053d6a"/>
          <path d="M484.24 336.29s5.38 1.128 6.725.867c.694-.173 1.736-.26 2.256-.26.478-.043 1.085-.087 1.085-.087" stroke="#064171"/>
          <path d="M486.325 337.206l4.426.61 2.82-.134 2.387-.61" stroke="#022743"/>
          <path d="M483.98 336.16s5.51 1.215 7.03.91c1.474-.303 3.08-.303 3.08-.303" stroke="#00209f"/>
        </g>
        <g>
          <path d="M505.76 336.81l4.295-1.56c2.69-1 2.994-3.69 2.994-3.69" stroke="#00209f"/>
          <path d="M505.46 335.95s1.736-.694 3.167-1.215c3.818-1.432 3.384-3.254 3.384-3.254" stroke="#00209f"/>
          <path d="M505.2 336.12s2.256-.867 3.427-1.302c.608-.217 1.39-.564 1.78-.825.52-.304 1.17-.91 1.345-1.215.347-.52.347-1.258.347-1.258" stroke="#053e6c"/>
          <path d="M504.94 336.34s2.82-1.085 3.688-1.39c.434-.172 1.475-.607 1.736-.78.39-.26 1.302-.998 1.432-1.215.26-.434.433-1.432.433-1.432" stroke="#043862"/>
          <path d="M504.68 336.51s3.384-1.258 3.949-1.476c.302-.086 1.517-.607 1.69-.694.262-.174 1.433-1.128 1.52-1.258.174-.26.477-1.563.477-1.563" stroke="#043258"/>
          <path d="M504.42 336.73s3.905-1.474 4.208-1.562c.13-.087 1.606-.607 1.693-.694.13-.043 1.52-1.17 1.563-1.258.087-.13.564-1.65.564-1.65" stroke="#032c4d"/>
          <path d="M505.46 336.86s3.47-1.302 4.642-1.736c.824-.303 1.693-1.04 2.083-1.56.564-.826.78-1.998.78-1.998" stroke="#053e6c"/>
          <path d="M505.11 336.86s4.166-1.52 5.033-1.866c.608-.216 1.693-1.085 1.953-1.475.433-.61.737-1.954.737-1.954" stroke="#043862"/>
          <path d="M504.81 336.9s4.816-1.823 5.38-1.996c.435-.173 1.693-1.172 1.867-1.432.304-.434.693-1.91.693-1.91" stroke="#043258"/>
          <path d="M504.5 336.9s5.424-2.04 5.728-2.126c.216-.087 1.648-1.215 1.778-1.345.13-.218.65-1.867.65-1.867" stroke="#032c4d"/>
          <path d="M504.157 336.896l6.12-2.254 1.647-1.25.608-1.83" stroke="#022743" stroke-width=".18"/>
        </g>
        <g>
          <path d="M511.27 331.57s-2.517.13-2.777.217c-.26.044-10.283-.174-10.283-.174" stroke="#032b4c"/>
          <path d="M511.32 331.61s-2.473.217-2.864.304c-.39.042-10.153-.26-10.153-.26" stroke="#032e50"/>
          <path d="M511.32 331.65s-2.386.303-2.907.39c-.52.088-10.023-.347-10.023-.347" stroke="#033054"/>
          <path d="M511.32 331.7s-2.3.346-2.95.478c-.652.13-9.893-.435-9.893-.435" stroke="#043359"/>
          <path d="M511.36 331.7s-2.257.478-3.038.607c-.78.174-9.762-.52-9.762-.52" stroke="#04355c"/>
          <path d="M511.36 331.74s-2.17.52-3.08.694c-.91.217-9.675-.607-9.675-.607" stroke="#043760"/>
          <path d="M511.4 331.78s-2.126.607-3.167.824c-1.085.174-9.545-.737-9.545-.737" stroke="#053a65"/>
          <path d="M511.4 331.83s-2.04.694-3.254.91c-1.17.218-9.37-.78-9.37-.78" stroke="#053c68"/>
          <path d="M511.45 331.87s-2.04.737-3.34.998c-1.302.26-9.242-.87-9.242-.87" stroke="#053f6e"/>
          <path d="M511.45 331.91s-1.953.824-3.384 1.085c-1.432.304-9.112-.956-9.112-.956" stroke="#064172"/>
          <path d="M498.99 332.09s7.463 1.345 9.025 1.04c1.562-.303 3.47-1.17 3.47-1.17" stroke="#00209f"/>
        </g>
      </g>
      <path d="M474.96 289.91a34.007 34.007 0 0 1-.174-3.21c.044-5.164-.65-9.07-.087-14.49.434-4.253 1.475-9.85 1.258-14.45-.087-1.3.172-2.603.217-3.86l20.957 23.516M466.97 327.7c-.565-.346-1.52-1.345-1.823-2.213-.608-1.736-.477-1.692-.91-3.6-.26-1.085-.26-2.3-.522-3.428-.216-1.13-1.822-4.73-1.865-6.206-.173-4.728-1.736-7.94-1.345-13.103.26-3.99 1.17-9.414.737-13.58-.13-1.128.044-2.43.087-3.558l23.56 15.576m28.551 33.892c.174.52-.347 1.52-.52 1.866-.13.174-.347.477-.477.65-.26.565-.217.435-.694.87-.13.086-.695.563-.87.65-.345.26-.693.607-1.084.65-1.78.305-2.516.694-4.21 1.172-1.604.478-.736.39-1.95.695-.608.13-1.823.607-2.43.694-1.085.173-1.26.347-2.387.608-2.908.65-5.728.476-8.59.304-1.173-.088-4.037-.696-5.035-1.39-1.78-1.26-5.684-1.736-7.42-2.95-.258-.176-1.344-.696-1.56-.913-1.693-1.388-3.038-1.78-4.816-2.907" stroke-miterlimit="2.613" fill="none" stroke="#000" stroke-width=".174"/>
      <g stroke-miterlimit="2.613" stroke="#000" stroke-width=".13">
        <path fill="#fc0" fill-rule="evenodd" d="M484.893 297.593l.565-.826-23.908-15.62-.433.65zM461.16 280.89c-.174-.91.087-2.127.737-2.257.044 0 .0251328A90"/>
        <path d="M460.77 281.32c-.91-.043-2.083.347-2.126.998 0 .087-.087.608 0 .867.044.39.173.478.52.565.868.26 1.20EB127CAF8" fill="#fc0" fill-rule="evenodd"/>
        <path d="M460.6 280.93c-.26.13-.26.478-.13.695.087.216.476.26.65.172.346-.216.565-.606.346-.954-.215-.304-.562-.043-.866.087z" fill="#fc0" fill-rule="evenodd"/>
        <path d="M455.56 277.76s2.517.998 4.555 1.04c0 0 .087 1.78.52 2.3 0 0-1.82-.346-2.646.087 0 0-1.085-2.473-2.43-3.427z" fill="#fc0" fill-rule="evenodd"/>
        <path d="M457.6 279.02s.998.434 1.822.434c0 0 .043.694.217.91 0 0-.738-.13-1.042.045 0-.002-.435-1-.998-1.39z" fill="none"/>
        <path d="M460.77 282.88s.477-.824.607-1.128c.086-.173-.043.998.39 1.128.563.737.693 2.256.693 2.647-.65.216-10E13CBEA54" fill="#fc0" fill-rule="evenodd"/>
        <path d="M461.25 282.23c0 .13.087.65.043.563 0-.216.26.218.303.304.348.65.478 1.128.608 2.387m-.744-2.164c.217.998.39.954.39 2.344l.088-.087m-.518-1.347c.173.694.13 1.04.173 1.39-.044 0-.26.17-.303.17" fill="none"/>
        <path fill="#fc0" fill-rule="evenodd" d="M497.13 277.417l.65-.607-21.347-23.734-.434.52z"/>
        <path d="M476.61 253.08c.043-.954.565-2.083 1.215-2.04.043 0 .564-.043.824.087.39.087.433.26.52.608.173.867-.080678EA9C" fill="#fc0" fill-rule="evenodd"/>
        <path d="M476.13 253.38c-.91-.26-2.126-.13-2.343.478 0 .043-.216.563-.173.824-.043.39.044.52.39.693.737.435 104EEBD2A19" fill="#fc0" fill-rule="evenodd"/>
        <path d="M476.04 252.95c-.304.043-.347.433-.304.65.043.217.39.39.607.304.347-.13.694-.433.563-.824-.13-.347-.563-.173-.866-.13z" fill="#fc0" fill-rule="evenodd"/>
        <path d="M471.92 248.69s2.17 1.562 4.122 2.083c0 0-.304 1.78 0 2.343 0 0-1.736-.737-2.603-.52 0 0-.435-2.648-1.52-3.906z" fill="#fc0" fill-rule="evenodd"/>
        <path d="M473.57 250.43s.867.607 1.65.824c0 0-.13.694 0 .91 0 0-.695-.26-1.042-.173 0 .002-.174-1.083-.608-1.56z" fill="none"/>
        <path d="M475.74 254.9s.65-.694.867-.954c.13-.174-.302.954.087 1.215.39.825.13 2.3.044 2.734-.694.044-1.302.200A2755A18" fill="#fc0" fill-rule="evenodd"/>
        <path d="M476.35 254.42c0 .087-.043.433-.043.52.043.26.26.347.303.65.13.74-.044 1.216-.087 2.17m-.263-2.47c.216.91.043 1.65-.087 2.517-.043 0 .087 0 .087-.044m-.13-.953c-.13.346-.13.563-.173.954-.043-.043-.217.13-.26.087" fill="none"/>
      </g>
    </g>
    <use height="100%" width="100%" xlink:href="#c" transform="matrix(-1 0 0 1 1030.05 0)"/>
  </g>
  <path d="M255.26 211.07l-42.913 71.79h85.857z" stroke-miterlimit="2.613" fill="#fc0" stroke="#000" stroke-width=".371"/>
  <path d="M255.26 215.736l-38.728 64.796h77.49z" stroke-miterlimit="2.613" fill="#fff" stroke="#fff" stroke-width=".111"/>
  <path d="M228.008 261.276l-11.476 19.256h77.49l-11.514-19.256z" stroke-miterlimit="2.613" fill="#007e93" stroke="#007e93" stroke-width=".222"/>
  <g stroke-miterlimit="2.613" fill="none" stroke-width=".148">
    <path d="M248.52 227.063c1.815-1.63 4.036-2.296 6.628-2.333h.185c2.518.037 5.073.63 6.7 2.333" stroke="#086aad"/>
    <path d="M248.478 227.14c1.776-1.667 4.072-2.296 6.664-2.333h.185c2.592 0 5.147.63 6.775 2.37" stroke="#0863aa"/>
    <path d="M248.443 227.25c1.777-1.74 4.11-2.37 6.74-2.407h.184c2.592.038 5.184.667 6.813 2.444" stroke="#095fa8"/>
    <path d="M248.367 227.327c1.777-1.74 4.183-2.407 6.812-2.407h.222c2.628 0 5.22.666 6.85 2.518" stroke="#0a58a5"/>
    <path d="M248.332 227.395c1.74-1.777 4.22-2.406 6.887-2.444h.185c2.702.038 5.293.705 6.923 2.594" stroke="#0a52a2"/>
    <path d="M248.264 227.472c1.74-1.814 4.258-2.444 6.96-2.444h.223c2.74.037 5.33.703 6.997 2.628" stroke="#0b4d9f"/>
    <path d="M248.222 227.583c1.74-1.85 4.294-2.518 7.034-2.518h.185c2.815.037 5.37.74 7.073 2.703" stroke="#0c479d"/>
    <path d="M247.744 228.36c2.036-2.148 4.554-2.777 7.553-2.777h.184c3.297.037 6.11 1.148 7.74 3.444" stroke="#270a7f"/>
    <path d="M247.778 228.25c2-2.075 4.517-2.704 7.516-2.74h.184c3.22.036 6 1.11 7.666 3.37" stroke="#241183"/>
    <path d="M247.855 228.172c1.962-2.073 4.443-2.703 7.405-2.703h.185c3.184.037 5.96 1.036 7.627 3.295" stroke="#221786"/>
    <path d="M247.89 228.104c1.924-2.037 4.442-2.666 7.33-2.703h.185c3.147.038 5.886 1 7.59 3.222" stroke="#1f1f8a"/>
    <path d="M247.966 227.993c1.85-1.962 4.37-2.63 7.256-2.63h.148c3.11 0 5.85.89 7.554 3.11" stroke="#1a258d"/>
    <path d="M248 227.916c1.814-1.963 4.37-2.592 7.182-2.628h.185c3.036.037 5.776.85 7.442 3.036" stroke="#172d91"/>
    <path d="M248.034 227.84c1.777-1.927 4.332-2.593 7.108-2.593h.186c2.998 0 5.7.777 7.404 2.925" stroke="#143393"/>
    <path d="M248.11 227.728c1.74-1.89 4.295-2.518 7.035-2.555h.148c2.962 0 5.664.74 7.368 2.888" stroke="#113b97"/>
    <path d="M250.995 222.847c1.26-.888 2.592-1.148 4.258-1.148 1.592 0 3 .26 4.22 1.073" stroke="#ff0a00"/>
    <path d="M250.96 222.915c1.26-.888 2.63-1.147 4.296-1.147 1.592 0 3.035.258 4.257 1.073" stroke="#f10"/>
    <path d="M250.927 222.992c1.296-.888 2.665-1.185 4.332-1.185 1.59 0 3.072.296 4.33 1.11" stroke="#ff1500"/>
    <path d="M250.892 223.103c1.296-.925 2.666-1.222 4.37-1.222 1.628 0 3.11.297 4.37 1.112" stroke="#ff1a00"/>
    <path d="M250.85 223.18c1.296-.926 2.702-1.22 4.406-1.22 1.63 0 3.147.294 4.406 1.11" stroke="#ff2000"/>
    <path d="M250.816 223.248c1.296-.925 2.74-1.26 4.443-1.26 1.627 0 3.183.335 4.442 1.186" stroke="#ff2700"/>
    <path d="M250.773 223.325c1.296-.926 2.74-1.26 4.48-1.26 1.63 0 3.22.334 4.48 1.186" stroke="#ff2f00"/>
    <path d="M250.74 223.402c1.295-.963 2.775-1.26 4.516-1.26 1.666 0 3.258.334 4.554 1.186" stroke="#f30"/>
    <path d="M250.705 223.47c1.296-.962 2.813-1.296 4.554-1.296 1.665 0 3.294.37 4.59 1.222" stroke="#ff3c00"/>
    <path d="M250.662 223.547c1.333-.963 2.85-1.296 4.59-1.296 1.667 0 3.334.37 4.63 1.223" stroke="#ff4100"/>
    <path d="M250.628 223.624c1.333-.963 2.85-1.296 4.628-1.296 1.703 0 3.37.37 4.666 1.222" stroke="#ff4600"/>
    <path d="M249.63 225.288c1.443-1.11 3.74-1.667 5.664-1.667 2.036 0 4.258.556 5.7 1.705" stroke="#fff500"/>
    <path d="M249.706 225.177c1.407-1.11 3.665-1.63 5.59-1.63 2 0 4.184.518 5.628 1.704" stroke="#ffeb00"/>
    <path d="M249.74 225.1c1.445-1.11 3.628-1.63 5.553-1.63 1.963 0 4.147.518 5.59 1.667" stroke="#ffe000"/>
    <path d="M249.817 224.99c1.407-1.075 3.555-1.593 5.48-1.593 1.962 0 4.11.518 5.516 1.63" stroke="#ffd600"/>
    <path d="M249.85 224.92c1.41-1.073 3.52-1.59 5.444-1.59 1.925 0 4.037.517 5.48 1.59" stroke="#ffcf00"/>
    <path d="M249.928 224.81c1.407-1.074 3.48-1.556 5.37-1.556 1.924 0 3.998.482 5.404 1.593" stroke="#ffc400"/>
    <path d="M249.962 224.733c1.408-1.074 3.444-1.555 5.332-1.555s3.925.48 5.33 1.555" stroke="#ffba00"/>
    <path d="M250.04 224.622c1.37-1.037 3.368-1.517 5.257-1.517 1.888 0 3.888.48 5.293 1.517" stroke="#ffb000"/>
    <path d="M250.073 224.545c1.407-1.073 3.333-1.518 5.22-1.518 1.852 0 3.852.48 5.22 1.518" stroke="#ffa600"/>
    <path d="M250.15 224.434c1.37-1.036 3.258-1.48 5.146-1.48 1.814 0 3.777.444 5.147 1.48" stroke="#ff9c00"/>
    <path d="M250.184 224.366c1.37-1.037 3.258-1.48 5.11-1.48 1.813 0 3.74.443 5.11 1.443" stroke="#ff9100"/>
    <path d="M250.26 224.247c1.37-1 3.185-1.445 5.037-1.445 1.777 0 3.703.444 5.036 1.408" stroke="#ff8700"/>
    <path d="M250.295 224.178c1.37-1.036 3.147-1.444 4.998-1.444 1.777 0 3.63.444 5 1.407" stroke="#ff7d00"/>
    <path d="M250.372 224.067c1.332-1 3.073-1.406 4.924-1.406 1.74 0 3.592.445 4.925 1.37" stroke="#ff7500"/>
    <path d="M250.406 223.99c1.37-1 3.036-1.406 4.887-1.406 1.74 0 3.518.407 4.85 1.333" stroke="#ff6b00"/>
    <path d="M250.483 223.88c1.332-1 3-1.37 4.813-1.37 1.702 0 3.48.406 4.813 1.333" stroke="#ff6100"/>
    <path d="M250.517 223.803c1.37-1 2.962-1.37 4.777-1.37 1.665 0 3.443.406 4.74 1.296" stroke="#ff5700"/>
    <path d="M249.442 225.475c1.517-1.185 3.85-1.74 5.85-1.74 2.073 0 4.33.593 5.812 1.777" stroke="#ebf605"/>
    <path d="M249.408 225.586c1.59-1.26 3.85-1.777 5.886-1.777 2.074 0 4.406.59 5.887 1.813" stroke="#d6ec09"/>
    <path d="M249.33 225.697c1.667-1.333 3.85-1.85 5.962-1.85 2.11 0 4.443.628 5.923 1.85" stroke="#c2e30e"/>
    <path d="M249.263 225.808c1.776-1.407 3.887-1.888 6.034-1.888 2.11 0 4.48.63 5.96 1.888" stroke="#add912"/>
    <path d="M249.22 225.92c1.814-1.444 3.888-1.926 6.035-1.926 2.184 0 4.554.63 6.07 1.888" stroke="#99cf16"/>
    <path d="M249.152 226.03c1.925-1.518 3.888-2 6.11-2 2.22 0 4.627.666 6.107 1.963" stroke="#85c61a"/>
    <path d="M249.11 226.14c1.96-1.59 3.887-2.035 6.145-2.035 2.22 0 4.665.666 6.183 1.963" stroke="#70bc1f"/>
    <path d="M249.032 226.252c2.074-1.666 3.925-2.11 6.22-2.11 2.26 0 4.703.703 6.22 2.036" stroke="#5cb323"/>
    <path d="M248.964 226.32c2.147-1.703 3.924-2.11 6.294-2.11 2.26 0 4.74.703 6.294 2.036" stroke="#47a928"/>
    <path d="M248.63 226.918c1.89-1.666 4.074-2.26 6.666-2.26 2.444 0 5 .63 6.627 2.222" stroke="#0d74a4"/>
    <path d="M248.665 226.875c1.925-1.703 4.036-2.296 6.628-2.296 2.444 0 4.962.665 6.59 2.22" stroke="#127a97"/>
    <path d="M248.708 226.807c1.962-1.703 4.035-2.26 6.59-2.26 2.407 0 4.962.667 6.554 2.186" stroke="#17808b"/>
    <path d="M248.742 226.73c2-1.703 3.998-2.222 6.554-2.222 2.37 0 4.924.666 6.48 2.148" stroke="#1a847d"/>
    <path d="M248.776 226.696c2.036-1.74 4-2.26 6.48-2.26 2.406 0 4.925.704 6.478 2.15" stroke="#1e8a6d"/>
    <path d="M248.82 226.62c2.072-1.74 3.96-2.223 6.44-2.223 2.37 0 4.89.703 6.444 2.148" stroke="#238f5e"/>
    <path d="M248.853 226.585c2.11-1.777 3.96-2.222 6.405-2.222 2.333 0 4.85.703 6.406 2.11" stroke="#2b944e"/>
    <path d="M248.887 226.508c2.148-1.778 3.924-2.185 6.368-2.185 2.296 0 4.85.704 6.37 2.074" stroke="#2f9b3e"/>
    <path d="M259.443 222.694c-1.222-.815-2.628-1.074-4.184-1.074-1.668 0-2.963.296-4.222 1.148" stroke="red"/>
    <path d="M263.325 229.18c-1.702-2.408-4.59-3.556-7.997-3.556-3.072 0-5.553.666-7.664 2.814" stroke="#2a007c"/>
    <path d="M261.96 226.918c-1.63-1.592-4.183-2.222-6.664-2.222-2.628 0-4.85.63-6.7 2.296" stroke="#0671b0"/>
    <path d="M262.592 227.916c-1.74-2.11-4.406-2.777-7.33-2.777-2.74 0-5.37.628-7.11 2.517" stroke="#0c419a"/>
    <path d="M261.073 225.433c-1.482-1.185-3.74-1.74-5.776-1.74-1.962 0-4.332.554-5.775 1.665" stroke="#ff0"/>
    <path d="M259.955 223.624c-1.296-.852-3-1.26-4.703-1.26-1.777 0-3.332.37-4.665 1.37" stroke="#ff4d00"/>
    <path d="M261.585 226.32c-1.52-1.333-4.036-2.073-6.332-2.073-2.406 0-4.146.407-6.33 2.184" stroke="#33a02c"/>
  </g>
  <g stroke-miterlimit="2.613" fill="none" stroke-width=".148">
    <path d="M247.41 228.803c2.408-1.185 4.926-1.925 7.85-1.925 2.776 0 5.738 1.037 8.07 2.296l8.22 13.736c0 8.990D91A5DA51" stroke="#fef2ec"/>
    <path d="M255.26 227.063c2.74 0 5.666 1.073 7.96 2.295.038 0 8.11 13.514 8.11 13.55 0 8.85-7.22 16.217-16.07 004EA7BA03" stroke="#fef2ea"/>
    <path d="M255.22 227.506c2.7 0 5.552 1 7.774 2.222.074.037 7.886 13.07 7.886 13.18 0 8.627-7.035 15.81-15.66 0DF9564AB3" stroke="#fef0e6"/>
    <path d="M255.22 227.95c2.628 0 5.404.963 7.552 2.148.148.074 7.7 12.662 7.7 12.847 0 8.368-6.85 15.33-15.2530337F55A17" stroke="#feede3"/>
    <path d="M255.22 228.582c2.517 0 5.182.925 7.256 2.073.222.148 7.33 11.996 7.33 12.293 0 7.997-6.553 14.662-10B8FED6A6C" stroke="#fee8dc"/>
    <path d="M255.22 229.025c2.443 0 5.035.89 7.033 2 .297.184 7.11 11.55 7.11 11.92 0 7.777-6.37 14.255-14.144 10B90A7DA50" stroke="#fee6d5"/>
    <path d="M255.22 229.657c2.332 0 4.813.888 6.7 1.925.407.222 6.776 10.884 6.776 11.366 0 7.442-6.035 13.588-10333AB6ACA" stroke="#fee3cf"/>
    <path d="M255.22 230.1c2.295 0 4.627.815 6.514 1.85.445.26 6.555 10.442 6.555 10.998 0 7.183-5.89 13.143-13.006E9EC3A83" stroke="#fee0cc"/>
    <path d="M255.22 230.544c2.22 0 4.48.777 6.293 1.777.482.297 6.33 10.035 6.33 10.664 0 6.924-5.664 12.7-12.620B00CA1AF0" stroke="#fedec6"/>
    <path d="M255.22 233.36c1.74 0 3.48.593 4.887 1.37.888.518 4.887 7.183 4.887 8.294 0 5.367-4.37 9.81-9.775 9.022C6C5A78" stroke="#fdcdaa"/>
    <path d="M255.22 233.548c1.702 0 3.405.592 4.775 1.37.926.555 4.776 6.96 4.776 8.108 0 5.258-4.293 9.59-9.55 0D95DA8A8B" stroke="#fdcdaa"/>
    <path d="M255.22 234.615c1.517 0 3.035.517 4.257 1.222 1.074.63 4.22 5.85 4.22 7.182 0 4.664-3.813 8.514-8.470672700A63" stroke="#fdc59e"/>
    <path d="M255.22 234.836c1.48 0 2.96.48 4.145 1.185 1.112.667 4.11 5.628 4.11 7 0 4.554-3.702 8.293-8.256 8.20BE562AA0C" stroke="#fdc59e"/>
    <path d="M255.26 227.284c2.704 0 5.592 1.037 7.85 2.26.038.036 7.997 13.29 7.997 13.365 0 8.737-7.145 16.03-10A41AB5A00" stroke="#fef0e9"/>
    <path d="M255.22 227.728c2.665 0 5.478 1 7.663 2.185.11.074 7.812 12.884 7.812 13.033 0 8.477-6.96 15.55-15.4033A26DA25" stroke="#feede3"/>
    <path d="M255.22 228.172c2.59 0 5.33.962 7.44 2.11.186.11 7.59 12.44 7.59 12.663 0 8.256-6.775 15.106-15.03 105C3B9FA9C" stroke="#feebdf"/>
    <path d="M255.22 228.36c2.554 0 5.256.962 7.367 2.11.185.11 7.442 12.218 7.442 12.477 0 8.146-6.666 14.884-1406C3C65A91" stroke="#feebdd"/>
    <path d="M255.22 228.803c2.48 0 5.11.926 7.144 2.037.26.148 7.22 11.774 7.22 12.107 0 7.886-6.442 14.44-14.360B048EAA73" stroke="#fee8d9"/>
    <path d="M255.22 229.247c2.406 0 4.96.89 6.922 1.962.334.185 6.998 11.33 6.998 11.736 0 7.664-6.257 14.032-13028BC43A0A" stroke="#fee6d3"/>
    <path d="M255.22 229.47c2.37 0 4.887.85 6.81 1.924.37.222 6.888 11.107 6.888 11.552 0 7.553-6.146 13.81-13.7 0478578A75" stroke="#fee3d2"/>
    <path d="M255.22 229.88c2.332 0 4.7.85 6.59 1.887.443.26 6.7 10.663 6.7 11.182 0 7.33-5.997 13.364-13.29 13.309EAEFCA65" stroke="#fee0cc"/>
    <path d="M255.22 230.322c2.257 0 4.553.815 6.404 1.814.444.297 6.443 10.256 6.443 10.85 0 7.033-5.777 12.883-00CC362A52" stroke="#fedec8"/>
    <path d="M255.22 230.766c2.183 0 4.405.777 6.182 1.74.52.333 6.22 9.81 6.22 10.478 0 6.812-5.59 12.477-12.40304BF375A0F" stroke="#fddbc5"/>
    <path d="M255.22 230.954c2.146 0 4.33.777 6.07 1.74.556.333 6.11 9.59 6.11 10.293 0 6.7-5.48 12.255-12.18 12.0C43100A5C" stroke="#fddbc2"/>
    <path d="M255.22 231.176c2.11 0 4.257.74 5.96 1.703.592.37 5.998 9.366 5.998 10.108 0 6.59-5.37 12.033-11.96 079900AA68" stroke="#fdd9bf"/>
    <path d="M255.22 231.397c2.072 0 4.183.74 5.848 1.667.63.37 5.888 9.145 5.888 9.923 0 6.48-5.258 11.81-11.7370C4D3E5A0C" stroke="#fdd9bf"/>
    <path d="M255.22 231.62c2.035 0 4.11.703 5.737 1.628.667.408 5.776 8.923 5.776 9.737 0 6.332-5.183 11.59-11.50928B17AC1" stroke="#fdd6bc"/>
    <path d="M255.22 231.84c1.998 0 4.035.704 5.626 1.594.704.406 5.665 8.7 5.665 9.552 0 6.22-5.07 11.366-11.29 0690DF0A7F" stroke="#fdd6b9"/>
    <path d="M255.22 232.063c1.96 0 3.96.666 5.552 1.556.704.442 5.554 8.477 5.554 9.366 0 6.108-4.998 11.18-11.10E649D7ACC" stroke="#fdd4b8"/>
    <path d="M255.22 232.25c1.924 0 3.887.704 5.44 1.555.742.445 5.443 8.257 5.443 9.183 0 5.998-4.887 10.96-10.80B50AB4A34" stroke="#fdd4b6"/>
    <path d="M255.22 232.473c1.887 0 3.813.666 5.33 1.517.778.445 5.33 8.034 5.33 8.998 0 5.886-4.812 10.736-10.60FD5B3DA60" stroke="#fdd2b2"/>
    <path d="M255.22 232.695c1.85 0 3.74.63 5.22 1.48.814.482 5.22 7.813 5.22 8.85 0 5.738-4.703 10.478-10.44 10.0B3AE6FA2A" stroke="#fdd1b0"/>
    <path d="M255.22 232.916c1.813 0 3.628.63 5.11 1.445.85.482 5.108 7.59 5.108 8.665 0 5.627-4.59 10.255-10.22 099CAC2A54" stroke="#fdd0b0"/>
    <path d="M255.22 233.138c1.776 0 3.554.592 4.998 1.407.888.518 4.998 7.405 4.998 8.478 0 5.48-4.48 10.034-9.909605CFABB" stroke="#fdd0ad"/>
    <path d="M255.22 233.77c1.665 0 3.33.556 4.7 1.333.927.555 4.63 6.738 4.63 7.923 0 5.146-4.184 9.404-9.33 9.40D2AC81A5E" stroke="#fdcaa6"/>
    <path d="M255.22 233.992c1.628 0 3.257.555 4.59 1.296.963.593 4.517 6.516 4.517 7.738 0 5.035-4.072 9.182-9.10AC29CAA00" stroke="#fdcaa4"/>
    <path d="M255.22 234.213c1.59 0 3.183.518 4.48 1.26 1 .59 4.442 6.294 4.442 7.553 0 4.924-3.998 8.96-8.923 8.0349181AAB" stroke="#fdc8a4"/>
    <path d="M255.22 234.435c1.554 0 3.11.518 4.368 1.22 1.037.63 4.332 6.073 4.332 7.37 0 4.813-3.924 8.737-8.7004D5D9BA6D" stroke="#fdc8a1"/>
    <path d="M255.22 235.058c1.443 0 2.886.48 4.035 1.148 1.148.666 3.998 5.405 3.998 6.813 0 4.442-3.59 8.07-8.00B97462ADB" stroke="#fdc39b"/>
    <path d="M255.22 235.28c1.406 0 2.812.445 3.924 1.11 1.185.704 3.887 5.184 3.887 6.666 0 4.295-3.516 7.85-7.80BC843BABB" stroke="#fdc398"/>
    <path d="M255.22 235.502c1.37 0 2.738.444 3.85 1.074 1.185.703 3.74 4.96 3.74 6.478 0 4.184-3.407 7.628-7.59 0B24A70A9B" stroke="#fdc097"/>
    <path d="M255.22 235.732c1.332 0 2.665.407 3.74 1.037 1.22.74 3.627 4.776 3.627 6.293 0 4.073-3.295 7.405-7.306B58E7A2E" stroke="#fdc095"/>
    <path d="M255.22 235.912c1.295 0 2.554.443 3.628 1.036 1.26.74 3.516 4.555 3.516 6.11 0 3.96-3.183 7.183-7.140EF2976A1E" stroke="#fdbe92"/>
    <path d="M255.22 236.133c1.258 0 2.48.407 3.516 1 1.26.777 3.406 4.332 3.406 5.924 0 3.813-3.11 6.96-6.923 6.0337EA4A94" stroke="#fdbe90"/>
    <path d="M255.22 236.355c1.22 0 2.406.37 3.405.963 1.296.777 3.332 4.11 3.332 5.738 0 3.703-3.035 6.74-6.738 04D35DBA03" stroke="#fdbb8f"/>
    <path d="M255.22 236.577c1.184 0 2.332.37 3.294.926 1.333.814 3.22 3.887 3.22 5.553a6.525 6.525 0 0 1-6.515 60BFF5DCA10" stroke="#fdbb8d"/>
    <path d="M255.22 236.8a6.23 6.23 0 0 1 3.183.888c1.37.814 3.11 3.665 3.11 5.367 0 3.48-2.814 6.332-6.294 6.3303F89B4AAF" stroke="#fdb98a"/>
    <path d="M255.22 237.02c1.11 0 2.183.334 3.072.852 1.407.852 3 3.444 3 5.184 0 3.37-2.74 6.11-6.073 6.11-3.3705CDB76AFA" stroke="#fdb98a"/>
    <path d="M255.22 237.21c1.073 0 2.11.332 2.998.85 1.407.85 2.85 3.22 2.85 4.998 0 3.258-2.628 5.888-5.85 5.880536868A2F" stroke="#fcb687"/>
    <path d="M255.22 237.43a5.57 5.57 0 0 1 2.886.815c1.445.888 2.74 3 2.74 4.813 0 3.147-2.518 5.665-5.627 5.6650750C84A47" stroke="#fcb685"/>
    <path d="M255.22 237.652c.998 0 1.96.296 2.775.778 1.482.888 2.63 2.776 2.63 4.627 0 3-2.408 5.443-5.406 5.440B9070AA6B" stroke="#fcb485"/>
    <path d="M255.22 248.276c2.85 0 5.182-2.332 5.182-5.183 0-2.888-2.333-5.22-5.183-5.22a5.215 5.215 0 0 0-5.222 5.22c0 2.85 2.333 5.183 5.22 5.183z" stroke="#fcb482"/>
  </g>
  <path d="M255.26 248.32c2.852 0 5.185-2.334 5.185-5.22 0-2.852-2.334-5.185-5.184-5.185-2.886 0-5.22 2.333-5.22 5.184a5.215 5.215 0 0 0 5.22 5.22z" stroke-miterlimit="2.613" fill="#fff" fill-rule="evenodd" stroke="#fff" stroke-width=".111"/>
  <g stroke="#000" stroke-width=".111">
    <path d="M256.37 237.985l.59-2.773m-1.144 2.705l.29-2.816m-.846 2.773v-2.816m-.52 2.859l-.298-2.816m-.256 2.884l-.597-2.773m.077 2.928l-.888-2.706m.367 2.884l-1.143-2.586m.665 2.808l-1.442-2.44m.955 2.74l-1.663-2.263m1.263 2.628l-1.93-2.107m1.52 2.482l-2.107-1.893m1.774 2.338l-2.295-1.664m1.963 2.107l-2.44-1.408m2.218 1.886l-2.594-1.143m2.371 1.664l-2.67-.888m2.517 1.408l-2.74-.597m2.673 1.152l-2.817-.3m2.773.855h-2.807m2.851.52l-2.817.29m2.884.265l-2.773.59m2.926-.078l-2.704.896m2.894-.376l-2.595 1.152m2.85-.666l-3.004 1.852m3.294-1.372l-6.144 4.368m6.485-3.96l-6.553 5.81m6.92-5.408l-5.41 6.04m5.854-5.7l-4.113 5.513m4.556-5.18l-4.292 7.44m4.779-7.218l-2.372 5.402m2.885-5.18l-2.407 7.44m2.927-7.295l-1.033 5m1.587-4.922l-.742 7.696m1.818-7.696l.298 2.806m.256-2.884l1.664 7.254m-1.143-7.399l1.408 4.292m-.896-4.479l3.302 7.142m-2.782-7.399l3.516 6.068m-3.073-6.366l5.078 6.664m-4.633-6.997l4.445 5.146m-4.07-5.513l6.588 5.99m-6.255-6.442l3.592 2.594m-3.259-3.037l2.44 1.407m-2.219-1.887l2.595 1.145m-2.372-1.665l2.662.888m-2.518-1.408l2.74.597m-2.664-1.152l2.817.3m-2.782-.855h2.816m-2.851-.52l2.817-.29m-2.893-.264l2.782-.59m-2.926.078l2.704-.888m-2.892.367l2.594-1.152m-2.816.632l2.45-1.408m-2.75.965l2.262-1.665m-2.628 1.22l2.108-1.886m-2.475 1.519l1.886-2.116m-2.33 1.741l1.664-2.253m-2.107 1.963l1.4-2.45m-1.887 2.227l1.152-2.593m-1.672 2.373l.896-2.672m-2.519-4.224v-2.185m-2.448 2.449l-.443-2.15m-1.919 2.892l-.897-1.962m-1.255 3.217L247 231.73m-.553 3.405l-1.63-1.442m.187 3.482l-1.928-1.11m.887 3.362l-2.073-.7m1.553 3.107l-2.185-.222m2.185 2.705l-2.185.222m2.705 2.227l-2.107.666m23.654 1.628l1.894 1.11m-.896-3.37l2.074.666m-1.552-3.072l2.183.222m-2.183-2.706l2.183-.22m-2.705-2.22l2.117-.666m-3.115-1.594l1.894-1.11m-3.336-.888l1.63-1.485m-3.438-.179l1.253-1.784m-3.405.521l.888-1.997m-3.26 1.22l.444-2.107" fill="none"/>
    <path d="M258.29 245.537s-.74-.407-1.184-.407c-.444 0-2.407-.112-3.184.11-.444.15-.815.52-.815.52s.518.517 1.009B044AE4" stroke-miterlimit="2.613" fill="#e60000" fill-rule="evenodd"/>
    <path d="M253.256 244.76s.074-1.444 1.074-3.258c0 0-.333.518-.518.963 0 0-.556.296-.89-.11-.332-.334-.147-.4807F1C54A1E" stroke-miterlimit="2.613" fill="#e60000" fill-rule="evenodd"/>
    <path d="M253.256 244.76s.556-.333 2.444-.296c2.185.037 2.258.185 2.406.334" stroke-miterlimit="2.613" fill="none"/>
    <path d="M255.142 252.91v-7.664s.26-.223.85 0v7.59s.187 5.812-.443 5.775c-.74.002-.408-1.33-.408-5.7z" stroke-miterlimit="2.613" fill="#fc0" fill-rule="evenodd"/>
  </g>
  <g fill="#e60000">
    <path d="M247.223 246.467l.148.297-1.48.63.222.517-.22.075c-.15-.334-.26-.444-.63-.37l-.11-.222 2.07-.926zm-10604F4AA14" fill-rule="evenodd"/>
    <path d="M246.45 236.826a.762.762 0 0 0-.452.346l-.507.88 1.948 1.227.186-.24-.853-.534.374-.614c.26-.444.0830BE76F0A87"/>
    <path d="M249.15 236.95l-.185.223-1.48-1.407-.556.556-.186-.185 1.296-1.37.222.185-.556.592zm.778-.665l-1.37-0EA4347A94" fill-rule="evenodd"/>
    <path d="M254.96 232.107l-.108 2.32.987.026c.517.037.826-.242.826-.613.037-.407-.252-.513-.4-.587.26-.11.32-.0B83770A02"/>
    <path d="M260.294 233.656l-.37.592 1.11.667-.148.22-1.11-.628-.37.666 1.184.704-.11.223-1.482-.853 1.148-2 1.482.853-.15.26z" fill-rule="evenodd"/>
    <path d="M263.09 235.358l-1.76 1.467.588.746c.518.556 1.14.307 1.547-.025.518-.408.647-1.013.24-1.494l-.614-.066DA4FAEB"/>
    <path d="M264.7 237.95l-.666.333.592 1.11-.26.15-.554-1.148-.703.333.628 1.26-.26.11-.777-1.518 2.074-1.037.70F3255FA42" fill-rule="evenodd"/>
    <path d="M264.61 242.8c-.11 0-.31-.01-.533.212a.917.917 0 0 0-.187.56c-.037.52.333.774.667.774.184.037.438-.004E22E4ADB"/>
    <path d="M265.288 244.837c.74.185.666.74.63.963-.11.37-.445.63-.852.52-.37-.075-.48-.372-.592-.78l-.074-.258c0719448AEF" fill-rule="evenodd"/>
  </g>
  <path d="M255.26 215.736l-38.728 64.796h77.49z" stroke-miterlimit="2.613" fill="none" stroke="#000" stroke-width=".259"/>
  <g stroke-miterlimit="2.613" fill="none">
    <path d="M257.327 272.528c1 .26 2.22.408 3.442.074 1.666-.408 3.22-1.37 5.183-1.185 1.407.147 3.332 1.37 5.665 1.37 2.295 0 3.073-.815 5.072-1.222 1.407-.296 2.11-.148 3.63.185 1.74.333 2.627 1.333 5.552 1.11" stroke="#000" stroke-width=".111"/>
    <path d="M227.45 275.31c1.297-1 3.592-1.407 5.333-1 2.296.48 3.295 1.073 5.738 1.036 1.816-.036 3.37-1.258 5.222-1.258 3.073 0 3.184.63 5.886 1.148a6.017 6.017 0 0 0 2.296 0c1-.186 1.89-.52 2.702-.927.852-.445 3-.37 4.073-.26 1.924.185 2.7.926 3.11 1.037 1.036.26 2.22.408 3.442.075 1.666-.482 3.22-1.556 5.22-1.334 1.407.15 3.332 1.518 5.628 1.518 2.296 0 3.11-.926 5.072-1.37 1.445-.333 2.148-.148 3.665.186 1.704.407 2.63 1.517 5.554 1.258" stroke="#fff" stroke-width=".407"/>
    <path d="M223.082 273.125c1.296-.85 3.592-1.222 5.332-.888 2.296.445 3.295 1 5.738.962 1.814-.038 3.37-1.148 5.22-1.148 3.074 0 3.185.592 5.887 1.036.703.11 1.592.11 2.295 0 1-.147 1.888-.48 2.702-.85.815-.372 3-.298 4.073-.223 1.925.185 2.702.815 3.11.926 1.037.222 2.222.37 3.443.074 1.666-.444 3.22-1.37 5.22-1.185 1.407.147 3.332 1.37 5.628 1.332 2.297 0 3.11-.814 5.073-1.222 1.445-.296 2.148-.11 3.665.186 1.704.37 2.63 1.37 5.554 1.11" stroke="#fff" stroke-width=".296"/>
    <path d="M219.08 279.457c1.296-1.074 3.592-1.517 5.37-1.11 2.258.555 3.257 1.22 5.7 1.184 1.815-.036 3.407-1.405 5.22-1.405 3.112 0 3.185.703 5.888 1.296a6.21 6.21 0 0 0 2.333 0 8.94 8.94 0 0 0 2.666-1.074c.852-.444 3-.37 4.11-.258 1.888.22 2.665 1 3.073 1.148 1.035.258 2.22.443 3.478.074 1.667-.556 3.222-1.704 5.184-1.482 1.407.185 3.332 1.703 5.665 1.703 2.26 0 3.073-1.036 5.035-1.554 1.444-.37 2.148-.148 3.665.223 1.74.443 2.628 1.702 5.554 1.405" stroke="#fff" stroke-width=".518"/>
    <path d="M220.12 275.822c1.335-.89 3.63-1.222 5.37-.89 2.296.445 3.295.964 5.74.927.813 0 1.555-.223 2.332-.483" stroke="#fff" stroke-width=".296"/>
    <path d="M231.855 272.05c.37-.11 1.443-.63 2.998-.63 3.11 0 1.148.038 3.85.52.704.11 2.666.147 3.222-.41m27.109 8.78c1-.185 1.852-.48 2.703-.852.814-.37 2.96-.333 4.072-.22 1.925.184 2.665.813 3.11.887 1.036.26 2.22.408 3.442.074 1.667-.408 3.22-1.37 5.22-1.186 1.408.15 3.333 1.37 5.628 1.37" stroke="#000" stroke-width=".259"/>
    <path d="M273.804 271.75c2.297 0 3.073-.813 5.073-1.22 1.408-.296 2.11-.112 3.628.185 1.74.333 2.63 1.37 5.553 1.11" stroke="#fff" stroke-width=".296"/>
    <path d="M219.19 279.68c1.334-.852 3.63-1.223 5.37-.89 2.296.445 3.295 1 5.738.963 1.814-.037 3.37-1.148 5.22-1.148 3.074 0 3.185.593 5.887 1.037.703.11 1.593.11 2.296 0 1-.148 1.852-.48 2.703-.852.815-.37 2.962-.296 4.073-.185 1.925.148 2.665.778 3.11.89" stroke="#000" stroke-width=".111"/>
    <path d="M224.08 276.863c1.333-.89 3.63-1.222 5.37-.89 2.294.446 3.294.964 5.7.927 1.852-.037 3.406-1.148 5.22-1.11 3.11 0 3.222.555 5.925 1.036.703.11 1.59.11 2.295 0 1-.185 1.852-.48 2.703-.852.814-.37 2.962-.333 4.073-.222 1.888.185 2.665.815 3.11.89 1 .258 2.22.406 3.443.074 1.665-.408 3.22-1.37 5.22-1.185 1.517.148 3.442 1.37 5.627 1.37 2.296 0 3.11-.814 5.072-1.222 1.406-.296 2.11-.147 3.665.185 1.702.334 2.628 1.333 5.516 1.074" stroke="#000" stroke-width=".518"/>
  </g>
  <g fill="#fc0" fill-rule="evenodd" stroke="#000" stroke-width=".222">
    <path d="M225.122 266.085c.37.074 1.26-.63 1.518-.815.37-.222.555-.777.852-1.074.295-.333 1.185-.74 1.59-1 1.05FEA2BA18"/>
    <path d="M263.812 270.608c-.814-.52-1.63-1.074-2.518-1.518-1.037-.48-1.852-1.334-2.703-2.148-.184-.148-.258-.06C0BACA39"/>
    <path d="M255.03 258.61c.297.074.63.185.964.297 1.37.407 1.703 1.296 2.776 2.22.52.483 1.074.89 1.74 1.187.0302FD174AAD"/>
    <path d="M264.068 260.718c.26.295.52.592.888.925.482.445 1 .78 1.593 1.074.036.037.184.26.258.297.555.407 1.10E569E4AE8"/>
    <path d="M280.844 269.31a7.85 7.85 0 0 0-1.333-.776c-.628-.334-1.11-.852-1.665-1.333-.11-.11-.148-.296-.26-.40DF5D48A50"/>
  </g>
  <path d="M238.04 254.907c.482-.074.26-.185.704.11m-1.59.479c.518-.075.703-.408 1.074.037m-1.561.304c.223 0 .37-.26 1.074.147m-1.586.442c.445-.11.704-.074 1.148.074m-1.745.37c.518-.15.74.222 1.296.11m-1.927.52c.332 0 .444-.11.74 0 .37.112.295.038.666.075m-2.106.591c.37 0 .48-.074.814-.037.445.073.335.11.78.036m-2.004.555c.74-.073.963-.036 1.48.15m-2.477 1.216c.628-.185.924-.185 1.48.037m-11.772 10.553c2.036-.333 4.443.037 6.48-.26m4.11-10.996c.517-.184.406-.11.925-.073.52.074.74.148.89.074m-2.635 1.186c.518-.26 1.148-.11 1.667.037m-.327.518c-.555-.15-1.148-.037-1.74 0m1.296.598c-.593-.186-1.222-.26-1.814-.075m-.822.518c.74 0 1.444-.186 2.184.074m-2.807.515c.777-.26 1.555-.038 2.37.037m-3.113.406c.815-.037 1.592-.037 2.407-.074.11 0 .37-.11.517.075m-.261.444c-1.222.258-2.444.073-3.666.11m3.001.52c-.41.037-1.038.186-1.593.15-.112-.038-.222-.113-.333-.113-.63-.037-1.26-.037-1.85.186m-.261.443c.26-.148.555-.185.814-.11.777.11 1.518 0 2.26.183.184.073.37.185.59.185m-4.107.041c.554 0 1.11-.074 1.665.037.703.185 1.37.333 2.11.37h-.074m-4.221.002c.59 0 1.146.11 1.74.223.777.148 1.554-.074 2.295.148m-4.735-.005c.776.334 1.59.038 2.406.187.777.147 1.48.11 2.22.258m-5.148.145c1.185.037 2.37 0 3.592.222.333.074.85.223 1.296.15m-5.289.148c1.148.223 2.333.038 3.48.334.52.11 1.074.222 1.63.222h-.075m-5.522.332c.11-.037.26-.11.37-.11.926 0 1.814.147 2.777.036.74-.037 1.555-.11 2.296.148h-.074m-5.779.523c1.852-.185 3.74.074 5.592 0m-5.924.555c1.963.222 3.925.037 5.85.185m-6.14.405c.852.184 1.704-.075 2.555.11.63.11 1.185.22 1.815.11.555-.147 1.074.038 1.592-.036m7.922-8.104h.185m-.373.222c.074.037.185-.11.223.037m-.445.261h.407m-.594.256h.518m-.851.334c.296.036.556.073.85.073h-.073m-1.067.37c.332-.11.703 0 1.036-.11h-.074m-1.406.631h1.407-.073m-1.564.332c.517 0 1-.074 1.48.037h-.036m-1.735.441c.555-.074 1.148 0 1.74.074m-2.072.447c.37-.037.666.185 1.036.26.298.073.556 0 .816-.038m-1.963.187c.555.186 1.148.223 1.703.26m-2.037.184c.482-.037.926.074 1.408.22.222.076.444.04.63.04h-.038m-2.63.44c.592-.26 1.295-.074 1.925.11.222.075.444-.036.703-.036h-.074m-2.631.368c.704-.22 1.444-.22 2.11.076.11.037.26 0 .37 0m-2.923.446c.924.185 1.887-.11 2.813.148m-3.07.262c.74.296 1.555 0 2.37.222.258.074.518.074.777-.037m-3.668.369c.334-.11.667-.185 1-.11.888.22 1.703.147 2.518.26m-3.927.439c.185-.037.37.11.518.074 1.148-.186 2.296 0 3.407-.075m-4.215.446c.888.33 1.814 0 2.776.258.37.11.85.148 1.258 0m-4.367.372c1.37.037 2.665-.037 4.258.15m3.516-8c.148-.037.26.11.407.074m-.595.336c.185-.038.333-.112.52-.075m-.666.441c.26.037.482-.037.74.074m-.927.447c.296 0 .63 0 .926.074m-1.182.446c.407-.11.777.037 1.185-.074m-1.228.441c.37.148.74.037 1.148.074v-.074m-1.369.589c.37-.037.703-.074 1.036.074.11.037.26 0 .407-.074m-1.478.52c.48-.185.963.112 1.482 0m-1.703.632c.555-.037 1.073.074 1.63 0m-1.817.478c.22-.074.48-.223.702-.11.333.147.74.073 1.11.11m-1.924.563c.63-.222 1.296.148 1.925-.185m-2.003.774a1.59 1.59 0 0 1 .927.037c.332.074.74.037 1.147-.037m-2.252.555c.74-.15 1.518 0 2.296-.038l-.037.037m-2.703.521c.963-.074 1.962-.185 2.925-.185m-2.813.775c1.073-.186 2.184-.112 3.294-.15m-3.484.746c1.075.148 1.297-.074 2.37-.11.186 0 1.112-.186 1.297-.222.148-.038.48 0 .63 0m-4.297.622c1.63-.148 3.296.148 4.962-.26m-12.035.081h1.296m5.002.179c.148.074.333-.074.444.074m5.743-.185c1.332-.148 2.702.26 4.035 0m-4.71-.443c.852-.26 1.63-.074 2.444.075.075 0 .075.184.15.22.74.112 1.444 0 2.184-.036m-9.515-.328h-.85m-4.44-.187c-.59.037-1.184.037-1.776.11m12.921-12.586h.26m-.149.367c.11.037.222 0 .333-.037m-.265.634c.038-.037.038-.11.075-.11.11-.038.257-.038.368-.038m-.289.514c.185-.11.408-.036.63-.036m.07.37c-.223-.037-.408.037-.593.11m.26.521a.821.821 0 0 1 .592-.11m.261.443h-.85m.252.444c.297 0 .593.074.815-.11m.227.63c-.333 0-.63 0-.925.074m.217.549c.332.037.666-.037 1-.185m.076.34c-.297.147-.63.184-.964.258m.186.552c.408-.222.89-.037 1.296-.185m.112.517c-.332 0-.666-.074-1 .037-.11.037-.184.11-.333.11m.258.818c.26-.11.518-.296.815-.26.037-.184.222 0 .295-.11.074-.037.222 0 .37 0m.185.557c-.482-.037-1 .075-1.48.15m.148.626c.555-.22 1.11-.22 1.703-.295m-1.661.995c.63-.148 1.297-.11 1.89-.37m.44.447c-.703.112-1.407 0-2.073.334m.145.631c.11.037.185.11.296.074.667-.26 1.333-.48 2-.407m.187.478c-.666.37-1.444.222-2.185.26-.073 0-.147.073-.258.11m.258.449c.815-.11 1.593-.148 2.407-.26m.52.516c-.666.11-1.296-.037-1.925.11-.295.038-.556.15-.85.224m.104.519c.112 0 .26.037.333-.037.813-.48 1.74-.333 2.627-.37m.266.518c-.74 0-1.518-.185-2.26.074-.257.11-.516.26-.813.26m.257.554c.407-.074.777-.26 1.148-.334.85-.11 1.703-.037 2.555-.037m.001.447c-.482-.11-1-.148-1.445 0-.74.186-1.407.37-2.147.407m.409.37c.592-.074 1.147-.258 1.74-.408.48-.11.963-.037 1.445-.037m-3.152.778c.89-.148 1.78 0 2.666-.297.297-.11.63.075.963.037m-.002-.337c1.482.11 2.962-.186 4.406.147m-4.107.296c.184.037.333-.11.444-.11 1.222 0 2.444.036 3.665.11m-.44-3.14h.186m-.117.401c.148.074.295-.185.443 0m-.332.443h.777m-.556.632c.26-.295.63 0 .89-.184m-.702.782c.334-.297.814.037 1.148-.26m-1.072.703c.482-.148 1 .037 1.48-.26m-1.3.704c.74-.333 1.592.148 2.296-.37m-2.219.737c.925-.296 1.888 0 2.814-.037m.591.003c1.63-.074 3.295-.11 4.924 0m-5.624-.597c1.444.147 3.628 0 5.443.147m-13.439-11.292c.11 0 1.11-.185 1.185-.185m-.851.45c.296.037 1 .037 1.258-.186m-.781.663c0-.037.85-.184.888-.184.112-.037.26 0 .407-.037m-.92.477c.148-.11 1.334-.037 1.555-.074m.289.338c-.223 0-1.185.038-1.333.15m.821.517c.148-.11.85-.222 1.11-.222m.554.409c-.297 0-.926.074-1.26.074m.628.482c.333-.038.926-.112 1.11-.26m.597.55c-.334 0-.777.036-1.222.073m.556.447c.407 0 1 0 1.296-.112m.445.257c-.26.148-.777.185-1.11.26m.547.525c.333-.223.925-.074 1.333-.223m.45.479c-.406 0-.814-.037-1.11.037-.112.037-.15.11-.334.11m2.776.851c-.593-.037-1.074.074-1.593.148m.517.56c.518-.222 1.148-.185 1.74-.296m-.444 1.849c.113.038.667-.074.78-.11.888-.112 1.035-.297 1.85-.223m.486.368c-1.075.185-1.48.222-2.297.296-.112 0-.37.074-.444.11m.48.336c.815-.147 2-.11 2.813-.22m.89.442c-.666.11-1.443 0-2.073.148-.297.037-.852.074-1.148.148m.773.515c.11 0 .258 0 .333-.037.667-.445 1.74-.37 2.702-.37m.599.449c-.926 0-1.297.037-2 .11-.26.038-.63.186-.962.186m.778.481c.85-.148 2.48-.334 1.518-.26.89-.074 1.037-.074 2-.074m.252.368c-.59-.074-1.22-.074-1.627.037-.37.11-.26.222-1.52.26m.52.258c.593-.075.667-.037 1.222-.186.445-.11 1.038-.074 1.593-.074m-2.516.481c.925-.11 1.036-.074 2-.037.258 0 .48 0 .814-.037m-17.218-11.66c.222-.11.37-.184.777-.147-.11-.148.185 0 .26-.074 0-.075.22-.038.37-.038m-1.851-.184c.22-.11.444-.11.814-.074-.11-.185.222 0 .26-.11.036-.038.258 0 .406 0m5.884 6.405c.26-.11.222-.185.592-.11-.11-.186.408 0 .445-.112.037-.074.444-.037.592-.037m-.067 1.735c.592-.148 1.333-.148 1.85-.407m.89.673c-.704.11-1.74.035-2.297.332m-8.447-8.926c-.667-.037-.778.185-1.26.185m8.554 1.667c.113 0 .853-.15.964-.15m-.664.448c.444-.11.777 0 1.037-.184m-.67.551c0-.037.703-.11.74-.11.11-.038.26-.038.37-.038m-.734.481c.148-.11 1.11-.074 1.333-.11m.254.332c-.223-.037-1.11.11-1.26.185m.483.412c.148-.11 1.11-.222 1.333-.185m.519.364c-.297 0-1.11.075-1.407.112m.477.374c.296 0 1.222-.073 1.37-.22m.525.51c-.297 0-.816.038-1.224.075m.37.412c.37 0 1.185 0 1.444-.148m.408.259c-.223.15-.926.223-1.222.297m.667.403c.296-.185.888-.074 1.26-.185m.404.45c-.334 0-.74-.037-1 .037-.11.037-.148.11-.296.074m2.516.81c-.52-.037-.962.074-1.444.148m.48.518c.48-.223 1.074-.223 1.63-.297m-.333 1.739c.148.037.518-.11.592-.11.852-.112.963-.298 1.74-.26m.408.37c-.964.185-1.334.222-2.075.26-.11 0-.37.073-.444.11m.445.304c.74-.11 1.85-.11 2.592-.185m.822.407c-.594.074-1.297 0-1.89.11-.26.075-.814.075-1.074.15m.736.474c.11 0 .222 0 .296-.037.593-.408 1.593-.334 2.518-.334m.522.413c-.85 0-1.222.037-1.852.112-.407.037-.888.185-1 .185m.624.403c.78-.148 2.483-.296 1.594-.222.815-.074.963-.074 1.85-.074m.226.372c-.555-.073-1.073-.11-1.48 0-.297.075-.41.223-1.63.26m.448.26c.555-.073.888-.073 1.37-.184.407-.11.963-.074 1.482-.074m-2.297.55c.778-.11.89-.185 1.814-.148.26 0 .444-.037.74-.074m-15.849-10.7c.22-.112.147-.186.48-.15.26-.073.445.038.482-.073 0-.037.222-.037.333-.037m-1.816-.03c.223-.112.26-.223.593-.186.333-.037.48 0 .518-.112.037-.037.222 0 .37 0m5.517 5.886c.222-.11.11-.148.444-.11-.075-.15.37 0 .407-.075.037-.074.407-.037.555-.037m-.067 1.587c.555-.148 1.222-.148 1.703-.333m.815.598c-.63.11-1.445-.037-1.926.22m-7.93-8.148c-.63-.036-1.148.26-1.518.518m9.112 2.742c.074 0 .964-.148 1-.148m-.7.37c.332-.074.813-.037 1-.185m-.668.441c-.037 0 .703-.11.74-.11.074-.038.185 0 .296 0m-.746.375c.11-.074 1.037-.074 1.185-.11m.223.255c-.185-.037-.89.074-1 .147m.522.297c.11-.075.703-.15.888-.15m.366.303c-.185 0-.85.074-1.073.074m.407.293c.222 0 .89-.074 1.037-.185m.406.407c-.26 0-.666.037-.963.037m.297.329c.297 0 .89 0 1.11-.11m.341.222c-.185.11-.74.148-.963.185m.331.335c.223-.148.89-.037 1.148-.11m.329.298c-.297 0-.592-.037-.815.037-.074.037-.148.037-.26.037m2.005.668c-.407-.037-.926.112-1.26.15m.407.294c.333-.148.925-.11 1.333-.185m-.413 1.294c.075.038.557-.037.63-.037.63-.074.74-.222 1.334-.185m.341.291c-.74.11-1.037.148-1.63.185-.074 0-.333.036-.407.036m.296.265c.592-.11 1.556-.074 2.148-.148m.592.336c-.445.074-1 0-1.445.074-.37.074-.89.11-.927.11m.478.405c.073 0 .592-.15.63-.15.74-.073 1-.147 1.703-.184m.405.334c-.666 0-.925.037-1.407.074-.332.038-.887.223-.96.223m.559.291c.48-.11 1.924-.258 1.332-.22.63-.038.74-.038 1.407-.075m.187.295c-.407-.036-.814-.073-1.148 0-.185.075-.406.15-1.333.223m.365.187c.444-.074.74-.037 1.11-.148.334-.11.778-.037 1.15-.074m-1.885.444c.592-.074.815-.148 1.518-.11.185 0 .333 0 .593-.038m-12.333-8.215c.185-.074.26-.185.518-.148.187-.037.335.037.335-.037.037-.037.185-.037.296-.037m-1.448-.042c.185-.074.222-.148.48-.148.26 0 .37 0 .408-.037 0-.075.186-.038.26-.038m4.118 4.515c.184-.074.22-.11.517-.074-.11-.11.26 0 .296-.073 0-.038.297 0 .408 0m-.045 1.222c.407-.11.926-.11 1.297-.295m.632.483c-.48.074-1.185-.037-1.592.185m-5.993-6.26c-.483-.038-.593.147-.89.37m7.51.97c.075 0 .852-.112.926-.112m-.661.367c.296-.074.778-.074.926-.185m-.636.407l.704-.11c.074-.038.185 0 .26 0m-.631.477c.11-.074.89-.222 1.038-.222m.224.222c-.184-.037-.924.11-1.035.185m.405.267c.074-.074.814-.185 1-.148m.374.259c-.223 0-.816.037-1.11.11m.366.223c.223 0 .928-.074 1.038-.186m.405.366c-.22 0-.777.073-1.073.11m.442.264c.258 0 .85 0 1.037-.11m.303.179c-.186.11-.816.11-1.037.185m.473.335c.186-.148.778-.074 1.037-.148m.303.302c-.26 0-.518 0-.74.037-.037.037-.222.037-.297.037m1.889.591c-.37-.037-.814.112-1.147.15m.295.328c.334-.148.926-.148 1.333-.222m-.411 1.222c.073 0 .518-.075.592-.075.593-.075.703-.186 1.222-.15m.293.258a13.4 13.4 0 0 1-1.48.185c-.075 0-.334 0-.372.037m.231.298a40.19 40.19 0 0 1 2-.185m.586.296c-.444.037-.963 0-1.37.074-.334.074-.815.074-.852.11m.447.337c.074 0 .556-.11.593-.11.667-.075.925-.15 1.592-.187m.366.297c-.63.037-.852.037-1.296.074-.333.036-.815.22-.926.22m.524.261c.482-.075 1.814-.26 1.26-.186.554-.074.665-.074 1.295-.074m.185.26c-.408-.038-.816-.075-1.075 0-.185.074-.37.148-1.22.185m.332.181c.37-.037.667-.037 1.036-.147.297-.075.667-.038 1.038-.038m-1.776.407c.593-.074.778-.11 1.445-.11.185 0 .296 0 .518-.038m-11.332-7.583c.148-.074.185-.148.444-.11.186-.038.297 0 .334-.038 0-.038.148-.038.258-.038m-1.335-.036c.185-.074.185-.148.445-.11.222-.038.333 0 .37-.075 0-.037.148-.037.26-.037m3.78 4.182c.15-.074.222-.074.444-.074-.074-.11.26 0 .297-.036.037-.037.296-.037.37-.037m-.078 1.112c.37-.075.926-.075 1.26-.223m.592.401c-.48.074-1.222-.037-1.592.148m-5.405-5.736c-.445-.038-.593.147-.853.33" stroke-width=".111" fill="none" stroke="#00633b"/>
  <g fill="#fc0">
    <path d="M221.466 318.507l.64 4.744c-1.255-.408-2.407.325-2.96 1.367-.89 1.774-.104 3.114 1.603 3.968l2.294 10D02757A3C"/>
    <path fill-rule="evenodd" d="M214.717 325.22l-4.147-2.78.89-1.297 2.59 1.703 1.15-1.703-2.52-1.667.89-1.297 2.48 1.667 1.406-2.074-2.59-1.738.888-1.332 4.146 2.814z"/>
    <path d="M212.343 311.996l-2.26 2.62-.726-.59c-1.476-1.296-2.97-1.237-4.267.24-1.365 1.63-.862 3.055.7 4.352l00F2AEBA81"/>
    <path d="M200.904 314.256l-1.26-1.407 3.852-3.518c.85-.74 2-1.926.925-3.11-1.073-1.185-2.37-.185-3.22.593l-3.0D04F0EA95" fill-rule="evenodd"/>
    <path d="M197.495 296.67c-.53-.043-1.083.085-1.655.478-.81.59-1.442 1.647-.956 2.722-.674-.3-1.425-.094-1.98.0926D80A38"/>
    <path fill-rule="evenodd" d="M194.612 292.787l-1.258-2.373 1.37-.74 2.184 3.995-8.18 4.446-.928-1.667zm-9.922-2.85l8.516-3.74.74 0D06F21AE1"/>
    <path d="M188.11 267.307l-8.748 5.307.265 1.443 10.052 2.022-.377-1.947-2.048-.452-.614-3.31 1.844-1.092-.3750BAAD87A1C"/>
    <path fill-rule="evenodd" d="M179.618 246.318l1-4.887 1.554.334-.63 3.036 2 .408.63-2.925 1.518.332-.592 2.926 2.48.52.63-3.037 1008DBCCA25"/>
    <path d="M200.695 205.065l-1.04 1.04 4.24 9.362 1.383-1.442-.853-1.92 2.32-2.398 1.946.802 1.392-1.443-9.387-04D5ED6AB5"/>
    <path fill-rule="evenodd" d="M211.977 205.554l2.074-1.666 1 1.222-3.554 2.888-5.85-7.257 1.48-1.183zm6.073-13.514l1.924 10.07-.920E11B4DA30"/>
    <path d="M224.64 188.587l-1.33.64.477 10.265 1.817-.827-.085-2.16 3.037-1.356 1.493 1.492 1.843-.828-7.253-7.02766ACA93"/>
    <path fill-rule="evenodd" d="M272.22 183.97l4.845 1.22-.37 1.556-3.036-.778-.477 2 2.885.703-.37 1.556-2.93-.74-.59 2.443 3.034.701BD441A69"/>
    <path d="M304.4 199.04l-8.96 5.043 1.546 1.246 1.843-1.033 2.584 2.158-.64 1.997 1.57 1.255 3.2-9.737-1.143-.0ED909AA99"/>
    <path fill-rule="evenodd" d="M322.943 228.658l-6.264.666-.292-.555 4.297-4.555v-.037l-5.56 1.85-.846-1.702 9.254-2.852.627 1.186-0BC9F2DAFD"/>
    <path d="M330.93 240.777l-9.06 1.92.366 1.834 3.66-.767h.052l-3.2 3.115.503 2.22 3.252-3.475c.487 1.23 1.767 0814A77A78"/>
    <path fill-rule="evenodd" d="M332.86 251.76l-9.255 1.075-.22-1.852 9.255-1.074zm-2.036 10.067c.63-.52.962-1.333.962-2.147-.037-1.03F74EBAD9"/>
    <path d="M323.977 263.578l-.214 1.97 1.835 1.016-.4 3.328-2.075.478-.213 2.005 9.916-2.432.187-1.493-9.036-4.03D107EAC2"/>
    <path d="M324.304 290.27c.778-.298 1.408-.89 1.704-1.63.666-1.704-.445-3.258-1.926-3.85-1.444-.556-3.294-.1480DF189AA4B" fill-rule="evenodd"/>
    <path d="M301.68 310.11l-1.47 1.17 2.4 2.91v.024l-4.208-1.365-1.766 1.44 4.616 1.256c-.853.998-.64 2.33.137 30245397A1E"/>
    <path fill-rule="evenodd" d="M285.658 322.626l-2.444 1.11-.67-1.41 4.11-1.96 3.998 8.444-1.703.777z"/>
  </g>
</svg>
