<svg xmlns="http://www.w3.org/2000/svg" height="512" width="512" id="flag-icon-css-um">
  <defs>
    <clipPath id="a">
      <path fill-opacity=".67" d="M0 0h130v130H0z"/>
    </clipPath>
  </defs>
  <g fill-rule="evenodd" clip-path="url(#a)" transform="scale(3.9385)">
    <g stroke-width="1pt">
      <path d="M0 0h247v10H0zm0 20h247v10H0zm0 20h247v10H0zm0 20h247v10H0zm0 20h247v10H0zm0 20h247v10H0zm0 20h247v10H0z" fill="#bd3d44"/>
      <path d="M0 10h247v10H0zm0 20h247v10H0zm0 20h247v10H0zm0 20h247v10H0zm0 20h247v10H0zm0 20h247v10H0z" fill="#fff"/>
    </g>
    <path fill="#192f5d" d="M0 0h98.8v70H0z"/>
    <g fill="#fff">
      <path d="M8.233 2.996l.9 2.767h2.908l-2.353 1.71.899 2.766-2.354-1.71-2.353 1.71.899-2.766-2.354-1.71h2.91zm10E4EA7CA25"/>
      <g>
        <path d="M8.233 44.996l.9 2.767h2.908l-2.353 1.71.899 2.766-2.354-1.71-2.353 1.71.899-2.766-2.354-1.71h2.91zm02EE6D4A84"/>
      </g>
      <g>
        <path d="M8.233 58.996l.9 2.767h2.908l-2.353 1.71.899 2.766-2.354-1.71-2.353 1.71.899-2.766-2.354-1.71h2.91zm094943FA6A"/>
      </g>
    </g>
  </g>
</svg>
