<svg xmlns="http://www.w3.org/2000/svg" xmlns:xlink="http://www.w3.org/1999/xlink" height="512" width="512" id="flag-icon-css-un">
  <path fill="#4b92db" fill-rule="evenodd" d="M0 0h512v512H0z"/>
  <g transform="translate(-128.692) scale(.64)">
    <path d="M663.853 587.03c-2.694 3.08-6.18 5.956-9.466 8.608-21.233-21.943-46.16-46.262-69.854-46.262-14.69 0-0A30BC4A1B" fill="#fff" id="a"/>
    <use height="100%" width="100%" xlink:href="#a" transform="matrix(-1 0 0 1 1202.2 0)"/>
  </g>
  <path d="M350.946 279.475l-2.296-1.253a103.363 103.363 0 0 1-19.024 27.078l-13.414-13.414c6.572-6.772 11.87-10879BE5ADB" fill="#fff"/>
  <path fill="#fff" d="M261.4 209.086l.03.763.643-.032-.035-.758zm-.933-1.041h.85v.648h-.85zm-.787-.115l.09-.64-.746-.108-.0511548A2F"/>
  <path d="M209.83 237.408l-1.915-.216.107.755h.53c.852 1.513.108 5.183.108 5.183s-1.275.107-1.49-.54c-.21-.64703947FCA5A" fill="#fff"/>
  <path fill="#fff" d="M210.253 249.5l.216-.972-.75-.32.107-1.62.642-.11.104-.76-1.6 1.085-1.063-.646v2.59l1.706 2.264zm.4204EBA63A9C"/>
  <ellipse cy="257.062" cx="211.717" rx=".451" ry=".458" fill="#fff"/>
  <ellipse cy="244.727" cx="211.742" rx=".451" ry=".458" fill="#fff"/>
  <path fill="#fff" d="M241.53 241.404l.216-1.08.637-.325.11-1.08.42-.758.643-.753.21-.866 1.064-.646 1.278-.22.532-.645.210DA96C5A0B"/>
  <path d="M285.363 176.62c-.106-.432-.32-1.944.32-1.836.637.11.213 0 .957.324.745.325.85-.54.85-.54h1.172l1.49007295FA00" fill="#fff"/>
  <path d="M256 258.195c.16-.16.32.487.64.406.316-.08.477.568.16.568-.32 0-.32.406-.32.568 0 .162 0 .565-.24.810F044D3AB2" fill="#fff"/>
</svg>
