<svg xmlns="http://www.w3.org/2000/svg" xmlns:xlink="http://www.w3.org/1999/xlink" height="512" width="512" id="flag-icon-css-vi">
  <path fill="#fff" d="M0 0h512v512H0z"/>
  <path d="M163.478 315.945s-.414-2.806 4.915-4.864c5.33-2.057 5.744-9.728 4.678-14.84 0 0-2.782 4.863-6.157 6.040C968A13" stroke-miterlimit="10" fill="#369443" stroke="#010002" stroke-width="1.204"/>
  <g stroke-miterlimit="10" fill="#f4c53d" stroke="#010002" stroke-width="1.204">
    <path d="M225.77 146.942s-1.3-11.606 7.973-12.722c9.672-1.164 14.449.873 14.449.873l4.342 8.523-1.5 5.737-6 209E8404A1C"/>
    <path d="M291.023 175.67c-1.382 1.787-6.908 2.41-6.908 2.41s5.684 4.366 8.132 10.602c2.447 6.236-65.886.042-60E86F52A29"/>
    <path d="M248.744 137.775c-7.875-.374-4.855-7.88-4.855-7.88" fill="none"/>
    <path d="M262.423 138.804s-1.392-.655-2.57-2.214c-1.65-2.188-5.336-3.243-7.32-1.185 0 0-2.013 2.245-3.79 2.370218684A92"/>
  </g>
  <path d="M162.25 333.164s-.177-5.05 6.218-5.425l18.83 26.19s-.71 1.684-9.238 1.497c0 0-.903-.006-1.376.992-.728 1.53-14.433-23.256-14.433-23.256z" stroke-miterlimit="10" fill="#369443" stroke="#010002" stroke-width="1.204"/>
  <g id="a" transform="translate(2.878 84.937) scale(.12044)" fill="#f4c53d" stroke="#010002" stroke-width="10">
    <path d="M1494.918 1807.886s-49.82 85.606-110.13 86.987c0 0-103.74-12.628-133.073 14.498-20.454 18.916-41.3 3071C6F1AB6"/>
    <path d="M1689.878 923.866s-38.857-29.17-108.163 5.178c0 0-23.333 16.068-41.687-1.536-15.336-14.71-16.775-41.04C707BA6D"/>
    <path d="M2056.524 2282.172s-17.87 78.856-79.975 72.49c0 0-43.922-4.143-40.644-77.323 0 0-64.898 34.518-75.380ED53C5A4B" stroke-miterlimit="10"/>
    <path d="M2085.368 1928.287s-43.265 38.385-74.075-18.915c0 0-41.954-2.07-48.51-33.828 0 0-34.087-3.452-40.642-35.9 0 0-46.542-4.832-45.23-44.183 0 0-84.62-6.53-.028-102.333 84.59-95.802 228.153 158.945 228.153 158.945l-19.667 76.215zm48.275-23.747c41.94 0 89.463 261.995 77.13 419.84-4.48 57.328-35.19 104.152-77.13 104.152s-72.65-46.824-77.13-104.15c-12.333-157.846 35.19-419.843 77.13-419.843"/>
    <ellipse ry="85.951" rx="58.032" cy="1902.468" cx="2133.643"/>
    <path d="M1935.906 2277.34s6.555-138.765 126.824-337.594m-202.21 286.506s-18.683-80.083 150.773-316.88c0 0-19.666-56.612 40.643-92.856m-249.76 343.46s-5.243-86.642 160.607-284.433c0 0-14.65-51.088 45.445-91.82m-254.56 314.81s6.228-87.677 168.472-258.89c0 0-8.117-52.468 50.023-84.916m-278.15 292.72s11.8-100.105 182.895-251.987c0 0-5.9-39.35 51.132-79.393" stroke-miterlimit="10" fill="none"/>
    <path d="M372.257 431.976s134.384 77.806 552.895 155.612M431.91 538.984S795.627 657.63 965.01 672.21m-389.86 0s213.37 66.98 463.238 109.247m-281.17 30.31s241.072 57.905 356.164 67.515m-194.41 46.31s203.908 42.526 255.572 47.64m-125.777 57.297s148.806 22.61 208.03 21.4m-23.17 69.038s60.166-2.826 89.08-7.626m-33.36 104.278s51.132-13.807 81.286-33.138m-5.9 133.242s39.333-15.188 58.343-56.61m37.693 93.545s30.48-27.27 32.448-57.647m81.614 81.464s-11.413-9.845-3.605-52.64m-11.145-62.825s-5.9-12.254-3.933-31.585m-211.082-581.293s68.83 27.615 91.775 65.585c22.944 37.97 7.833 74.873 0 96.047-3.936 10.64-52.443 104.16 4.59 171.816m-95.382 73.525s.33-.345 24.584-7.94m-169.784-91.473s41.026 8.26 81.286 8.63m-137.99-109.77s48.183 4.833 93.414 4.142m-165.194-109.77s69.486 13.808 106.852 14.5m-164.54-132.553s85.7 24.46 149.463 33.138m141.596 50.397s-61.62 57.3 12.455 110.46c0 0-30.81 48.325 30.81 98.722m-16.388 23.82s-9.177 92.154 103.574 92.16c0 0-21.633 82.157 87.186 79.396 0 0 12.455 65.585 91.12 52.468m-173.327 721.441s-17.84 3.97-56.54 0m-108.818 48.326s-54.41-8.286-51.787 109.768m84.565-82.845s-49.165-6.213-45.887 108.388m520.654-384.536s-23.6 4.833-39.988 23.473c-16.39 18.64-47.854 15.188-47.854 15.188s17.044-13.807 22.944-48.326c5.9-34.52 24.91-44.875 24.91-44.875m-56.3-32.688s-23.598 4.833-39.986 23.473c-16.388 18.64-47.854 15.188-47.854 15.188s17.044-13.807 22.944-48.326c5.9-34.52 24.91-44.874 24.91-44.874m23.76 188.537s-20.604 4.22-34.913 20.495c-14.31 16.275-41.783 13.26-41.783 13.26s14.882-12.055 20.033-42.194c5.15-30.14 21.75-39.18 21.75-39.18" fill="none"/>
  </g>
  <use transform="matrix(-1 0 0 1 517.756 0)" xlink:href="#a" width="100%" height="100%" stroke="#010002" stroke-width="10"/>
  <path fill="#0081c6" stroke="#010002" stroke-width="1.204" stroke-miterlimit="10" d="M379.721 272.736l-6.88-3.992-11.456 49.453-4.727-3.396 11.151-47.378-7.775.143 18.457-33.799 1.23 38094E2EAAF9"/>
  <path fill="#0081c6" stroke="#010002" stroke-width="1.204" stroke-miterlimit="10" d="M399.754 263.368l-5.665-5.73-30.774 59.17-4.742-2.767 30.98-59.05-7.545-1.982 26.135-27.617-8.389 37065F067AE5"/>
  <path d="M357.813 328.642l-4.543 8.475 4.55 7.793-17.873 33.96-5.044-12.456-12.703 2.095 17.874-33.96 8.554.027 4.386-8.502s3.19-.006 4.8 2.567z" fill="#0081c6" stroke="#010002" stroke-width="1.204" stroke-miterlimit="10"/>
  <path d="M358.58 331.107l-12.083 15.35 2.77 8.67-24.67 28.855-2.254-13.33-12.825-.968 24.67-28.855 8.33 2.05209E7C7DA93" fill="#0081c6" stroke="#010002" stroke-width="1.204" stroke-miterlimit="10"/>
  <path d="M259.86 311.813s59.28-26.27 59.428-87.042h-118.86c.15 60.773 59.43 87.043 59.43 87.043z" fill="#fff" stroke="#010002" stroke-width="1.204"/>
  <g fill="#a60032" stroke="#010002" stroke-width="1.204">
    <path d="M209.568 224.769v38.83s4.54 9.005 9.143 14.653v-53.483h-9.143zM227.854 224.77v64.007s5.718 5.606 9.10AAA789A80"/>
  </g>
  <path d="M319.288 180.62s-29.09 15.215-59.43-1.25c-30.34 16.465-59.43 1.25-59.43 1.25v44.15h118.86v-44.15z" stroke-miterlimit="10" fill="#162667" stroke="#010002" stroke-width="1.204"/>
</svg>
