<svg xmlns="http://www.w3.org/2000/svg" height="512" width="512" id="flag-icon-css-vu">
  <defs>
    <clipPath id="a">
      <path fill-opacity=".67" d="M0 0h496.06v496.06H0z"/>
    </clipPath>
  </defs>
  <g clip-path="url(#a)" transform="scale(1.0321)">
    <g fill-rule="evenodd">
      <path d="M0 0l336.61 212.6h407.48v70.867H336.61L0 496.057V-.003z"/>
      <path d="M0 478.35l343.7-219.68h400.39v-21.259H343.7L0 17.721v31.886l322.44 198.42L0 446.457v31.889z" fill="#ff0"/>
      <path d="M0 496.06l343.7-219.68h400.39v219.68H0z" fill="#40aa40"/>
      <path d="M0 0l343.7 219.68h400.39V0H0z" fill="#ce0000"/>
      <path d="M92.826 258.33c1.189.262 1.502.602 2.68-1.126.253-.868.991-2.084 1.634-3.162.859-1.41 1.236-1.977 2.09C4F94AB2" fill="#ff0"/>
      <path d="M117.158 259.518c.712-1.158 1.15-1.354.032-3.296-.697-.616-1.519-1.886-2.253-2.999-.953-1.476-1.323-08DC9C1AFD" fill="#ff0"/>
      <path d="M94.96 304.722c0-5.154-.8-10.307 0-10.307 45.353 0 56.69-30.924 56.69-51.541 0-20.616-15.754-41.23-40FFF457A46" fill="#ff0"/>
    </g>
  </g>
</svg>
