<svg xmlns="http://www.w3.org/2000/svg" height="512" width="512" id="flag-icon-css-zm">
  <defs>
    <clipPath id="a">
      <path fill-opacity=".67" d="M248.03 0h496.06v496.06H248.03z"/>
    </clipPath>
  </defs>
  <g fill-rule="evenodd" clip-path="url(#a)" transform="translate(-256) scale(1.0321)">
    <path fill="#198a00" d="M0 0h744.09v496.06H0z"/>
    <path fill="#ef7d00" d="M656.77 178.21h87.321v317.82H656.77z"/>
    <path d="M569.56 178.06h87.227v317.89H569.56z"/>
    <path fill="#de2010" d="M480.51 178.26h89.074v317.81H480.51z"/>
    <g stroke="#000" fill="#ef7d00">
      <path stroke-linejoin="round" d="M685.586 63.548s32.861-14.042 36.045-16.937c1.448 1.737-13.173 19.398-41.546 25.912 25.767-6.08 47.70394026A6A" stroke-width=".902"/>
      <path stroke-linejoin="round" d="M629.998 116.528c.144.145 4.922 5.501 9.554 5.211 1.737-1.447-3.619-4.632-3.619-5.356 1.882 1.738 9.077ABF5AB7" stroke-width=".902"/>
      <path stroke-linejoin="round" d="M612.19 72.523s5.357-3.185 26.781-1.592c2.316.29 14.62-4.198 18.53-5.501 6.224-1.158 26.056-5.501 310272427AE5" stroke-linecap="round" stroke-width=".902"/>
      <path stroke-linejoin="round" d="M620.78 119.53l.787 14.157s-.424.726-.787 1.15c-.363.423-10.042-1.513-8.711 5.868 0 3.025.06 3.81 2.06C9B9AA88" stroke-width=".902"/>
      <path stroke-linejoin="round" d="M634.25 131.592c.047-.649-6.605-9.606-4.917-10.764 1.686.348 4.453 4.422 6.695 3.1-.68-1.589-2.682-.0869F9CA6E" stroke-linecap="round" stroke-width=".962"/>
      <path stroke-linejoin="round" d="M543.884 65.612s-3.693 2.79-8.288 2.625c1.148 4.596 10.667 1.067 10.667 1.067s-4.595 5.088-7.878 5.908c1.97 1.642 10.258 1.067 11.653.247 1.394-.821 3.857-4.021 3.857-4.021s-8.535 9.847-9.766 9.765c-.164 1.148 8.945.738 10.832-.985 1.887-1.723 6.647-4.267 6.647-4.267s-12.473 8.698-13.048 8.698c4.678 1.23 14.033-1.477 20.023-5.17-8.863 5.908-9.683 6.975-14.196 8.944 4.021.903 6.072 3.611 19.694-2.297 7.796-3.693 12.226-10.422 12.226-10.422-4.84 6.483-12.473 11.98-20.924 17.397-.493.984 9.026 5.005 21.17-7.632" stroke-linecap="round" stroke-width=".962"/>
      <path d="M609.86 93.018s.82 3.857 4.102 6.811c3.283 2.954 3.529 5.826 3.529 5.826M608.22 67.91s1.149 3.446 4.513 5.661c3.447 2.216 8.618 9.19 9.028 10.422.397 1.49 2.379 12.227 2.215 13.375m-36.681-24.125c.246 1.313-4.842 7.96 2.133 15.755-6.319 7.713-6.318 8.698-6.318 8.698s3.528 1.97 9.847-3.447c10.42 12.802 6.948 18.66 6.948 18.66" stroke-linecap="round" stroke-width=".962"/>
      <path stroke-linejoin="round" d="M599.075 103.874s-.96-1.375.751-6.51c1.542 1.856 3.255 2.253 4.007 3.004.75.752 8.619 1.89 9.12 7.15" stroke-linecap="round" stroke-width=".962"/>
      <path d="M608.322 55.673c0-.386-1.585-3.786-7.496.464 3.168.193 6.297 2.009 7.496-.464z" stroke-width=".962"/>
      <path stroke-linejoin="round" d="M664.74 71.22c.29.145 17.66 3.909 23.451 2.027-7.383 9.843-22.149 3.184-22.149 3.184 7.238 2.172 7.528 2.027 9.844 4.054.724 1.882-13.318 1.013-17.95-1.593 12.884 4.054 13.173 3.764 13.608 5.356.58 2.172-21.136-.579-23.017-3.474 5.79 4.488 8.975 5.356 12.16 7.383-3.91 1.737-11.147 3.474-24.465-5.935 17.516 15.923 33.295 14.91 35.756 17.805-6.08 8.975-29.676-5.356-40.533-12.594-10.857-7.238 23.74 17.516 26.926 17.081-1.593 2.46-13.029.29-13.753-.868" stroke-width=".962"/>
      <path d="M669.23 87.868c-2.027.29-8.107.29-8.975.144" stroke-linecap="round" stroke-width=".962"/>
      <path stroke-linejoin="round" d="M538.796 62.986s13.212 6.975 18.791 6.482c-1.476 1.395-3.692 1.97-3.692 1.97 1.395.574 5.252 2.626 11.078 1.313-1.395 1.395-3.2 2.954-3.2 2.954s5.005 1.887 10.667-1.067c-1.723 2.133-2.708 3.693-2.708 3.693l3.94.246" stroke-linecap="round" stroke-width=".962"/>
    </g>
  </g>
</svg>
