<svg width="41" height="32" viewBox="0 0 41 32" fill="none" xmlns="http://www.w3.org/2000/svg">
<path fill-rule="evenodd" clip-rule="evenodd" d="M5.13494 0.432246C4.9069 0.44407 4.69408 0.547108 4.54035 0.71603L0.648456 5.04035C0.327509 5.39846 0.357914 5.94915 0.716024 6.27011C1.07413 6.59106 1.62482 6.56065 1.94578 6.20254L4.32415 3.55389V26.8105C4.32415 27.2886 4.71098 27.6754 5.18902 27.6754H37.0943L34.4457 30.0538C34.0876 30.3747 34.0572 30.9254 34.3781 31.2835C34.699 31.6417 35.2497 31.672 35.6078 31.3511L39.9322 27.4592C40.118 27.2954 40.2244 27.0589 40.2244 26.8106C40.2244 26.5622 40.118 26.3258 39.9322 26.1619L35.6078 22.27C35.4356 22.1112 35.2075 22.0285 34.9727 22.0403C34.6146 22.0521 34.3004 22.2835 34.1838 22.6231C34.0673 22.9609 34.172 23.3376 34.4457 23.5673L37.0943 25.9457H6.05389V3.55393L8.43227 6.20258C8.75322 6.56069 9.30388 6.5911 9.66202 6.27015C10.0202 5.9492 10.0505 5.39854 9.72959 5.0404L5.8377 0.716073C5.66033 0.518438 5.40021 0.413707 5.13499 0.432289L5.13494 0.432246ZM12.0404 4.75664C11.5894 4.79211 11.2414 5.1688 11.2431 5.6215V19.8918C11.2431 20.3698 11.6299 20.7566 12.108 20.7566H35.0269C35.5049 20.7566 35.8918 20.3698 35.8918 19.8918V5.6215C35.8934 5.17385 35.5539 4.79889 35.108 4.75664C35.0809 4.75495 35.0539 4.75495 35.0269 4.75664H12.108C12.086 4.75495 12.0624 4.75495 12.0404 4.75664H12.0404ZM34.162 6.48633H12.9728V19.0269H34.162V6.48633Z" fill="#161A22"/>
<path d="M4.54035 0.71603L4.42941 0.615068L4.42885 0.615685L4.54035 0.71603ZM5.13494 0.432246L5.2314 0.317373L5.18617 0.279388L5.12718 0.282447L5.13494 0.432246ZM0.648456 5.04035L0.536962 4.94001L0.536753 4.94024L0.648456 5.04035ZM0.716024 6.27011L0.816136 6.1584L0.716024 6.27011ZM1.94578 6.20254L1.83417 6.10232L1.83407 6.10243L1.94578 6.20254ZM4.32415 3.55389H4.47415V3.16233L4.21255 3.45367L4.32415 3.55389ZM37.0943 27.6754L37.1945 27.787L37.4859 27.5254H37.0943V27.6754ZM34.4457 30.0538L34.5458 30.1655L34.5459 30.1654L34.4457 30.0538ZM35.6078 31.3511L35.708 31.4628L35.7082 31.4626L35.6078 31.3511ZM39.9322 27.4592L39.833 27.3467L39.8318 27.3477L39.9322 27.4592ZM39.9322 26.1619L39.8318 26.2734L39.833 26.2744L39.9322 26.1619ZM35.6078 22.27L35.5062 22.3803L35.5075 22.3815L35.6078 22.27ZM34.9727 22.0403L34.9776 22.1902L34.9802 22.1901L34.9727 22.0403ZM34.1838 22.6231L34.3256 22.672L34.3257 22.6718L34.1838 22.6231ZM34.4457 23.5673L34.5459 23.4557L34.5421 23.4525L34.4457 23.5673ZM37.0943 25.9457V26.0957H37.4859L37.1945 25.8341L37.0943 25.9457ZM6.05389 25.9457H5.90389V26.0957H6.05389V25.9457ZM6.05389 3.55393L6.1655 3.45371L5.90389 3.16238V3.55393H6.05389ZM8.43227 6.20258L8.54397 6.10247L8.54388 6.10236L8.43227 6.20258ZM9.72959 5.0404L9.8413 4.94029L9.84108 4.94005L9.72959 5.0404ZM5.8377 0.716073L5.72606 0.81626L5.7262 0.816417L5.8377 0.716073ZM5.13499 0.432289L5.03854 0.547162L5.08498 0.586161L5.14548 0.581922L5.13499 0.432289ZM11.2431 5.6215H11.3931L11.3931 5.62094L11.2431 5.6215ZM12.0404 4.75664L12.0522 4.90618L12.0404 4.60664V4.75664ZM35.8918 5.6215L35.7418 5.62094V5.6215H35.8918ZM35.108 4.75664L35.1221 4.60723L35.1173 4.60693L35.108 4.75664ZM35.0269 4.75664V4.90693L35.0363 4.90635L35.0269 4.75664ZM12.108 4.75664L12.0964 4.90664H12.108V4.75664ZM12.0404 4.75664L12.0289 4.60708L12.0404 4.90664V4.75664ZM12.9728 6.48633V6.33633H12.8228V6.48633H12.9728ZM34.162 6.48633H34.312V6.33633H34.162V6.48633ZM12.9728 19.0269H12.8228V19.1769H12.9728V19.0269ZM34.162 19.0269V19.1769H34.312V19.0269H34.162ZM4.65129 0.81699C4.77909 0.67656 4.95515 0.59177 5.14271 0.582044L5.12718 0.282447C4.85866 0.29637 4.60907 0.417656 4.42941 0.615069L4.65129 0.81699ZM0.75995 5.1407L4.65184 0.816374L4.42885 0.615685L0.536962 4.94001L0.75995 5.1407ZM0.816136 6.1584C0.519653 5.89268 0.49456 5.43682 0.760159 5.14047L0.536753 4.94024C0.160458 5.3601 0.196174 6.00562 0.615912 6.38181L0.816136 6.1584ZM1.83407 6.10243C1.56835 6.39891 1.11249 6.42401 0.816136 6.1584L0.615912 6.38181C1.03578 6.75811 1.68129 6.72239 2.05748 6.30265L1.83407 6.10243ZM4.21255 3.45367L1.83417 6.10232L2.05738 6.30276L4.43576 3.65411L4.21255 3.45367ZM4.47415 26.8105V3.55389H4.17415V26.8105H4.47415ZM5.18902 27.5254C4.79382 27.5254 4.47415 27.2057 4.47415 26.8105H4.17415C4.17415 27.3714 4.62814 27.8254 5.18902 27.8254V27.5254ZM37.0943 27.5254H5.18902V27.8254H37.0943V27.5254ZM34.5459 30.1654L37.1945 27.787L36.9941 27.5638L34.3454 29.9422L34.5459 30.1654ZM34.4898 31.1834C34.2242 30.887 34.2493 30.4312 34.5458 30.1655L34.3456 29.9421C33.9258 30.3183 33.8901 30.9637 34.2664 31.3836L34.4898 31.1834ZM35.5077 31.2394C35.2113 31.505 34.7555 31.4799 34.4898 31.1834L34.2664 31.3836C34.6426 31.8034 35.2881 31.8391 35.708 31.4628L35.5077 31.2394ZM39.8318 27.3477L35.5075 31.2396L35.7082 31.4626L40.0325 27.5707L39.8318 27.3477ZM40.0744 26.8106C40.0744 27.016 39.9863 27.2115 39.833 27.3467L40.0314 27.5717C40.2496 27.3793 40.3744 27.1017 40.3744 26.8106H40.0744ZM39.833 26.2744C39.9863 26.4097 40.0744 26.6051 40.0744 26.8106H40.3744C40.3744 26.5194 40.2496 26.2419 40.0314 26.0494L39.833 26.2744ZM35.5075 22.3815L39.8318 26.2734L40.0325 26.0504L35.7082 22.1585L35.5075 22.3815ZM34.9802 22.1901C35.1748 22.1803 35.3635 22.2488 35.5062 22.3803L35.7095 22.1597C35.5076 21.9737 35.2402 21.8766 34.9652 21.8905L34.9802 22.1901ZM34.3257 22.6718C34.422 22.3913 34.6816 22.2 34.9776 22.1902L34.9677 21.8904C34.5476 21.9042 34.1788 22.1758 34.042 22.5744L34.3257 22.6718ZM34.5421 23.4525C34.3159 23.2626 34.2294 22.951 34.3256 22.672L34.042 22.5742C33.9052 22.9709 34.0281 23.4126 34.3492 23.6822L34.5421 23.4525ZM37.1945 25.8341L34.5459 23.4557L34.3455 23.6789L36.9941 26.0573L37.1945 25.8341ZM6.05389 26.0957H37.0943V25.7957H6.05389V26.0957ZM5.90389 3.55393V25.9457H6.20389V3.55393H5.90389ZM8.54388 6.10236L6.1655 3.45371L5.94228 3.65415L8.32066 6.3028L8.54388 6.10236ZM9.56191 6.15844C9.26553 6.42405 8.80968 6.39894 8.54397 6.10247L8.32057 6.30269C8.69675 6.72243 9.34224 6.75814 9.76213 6.38186L9.56191 6.15844ZM9.61788 5.1405C9.8835 5.4369 9.85841 5.89274 9.56191 6.15844L9.76213 6.38186C10.1819 6.00567 10.2176 5.36018 9.8413 4.94029L9.61788 5.1405ZM5.7262 0.816417L9.6181 5.14074L9.84108 4.94005L5.94919 0.615728L5.7262 0.816417ZM5.14548 0.581922C5.3648 0.566556 5.57977 0.653256 5.72606 0.81626L5.94933 0.615886C5.74089 0.38362 5.43561 0.260859 5.12451 0.282656L5.14548 0.581922ZM5.03848 0.547118L5.03854 0.547162L5.23145 0.317416L5.2314 0.317373L5.03848 0.547118ZM11.3931 5.62094C11.3917 5.24695 11.6792 4.93551 12.0522 4.90618L12.0287 4.6071C11.4996 4.64871 11.0911 5.09064 11.0931 5.62206L11.3931 5.62094ZM11.3931 19.8918V5.6215H11.0931V19.8918H11.3931ZM12.108 20.6066C11.7128 20.6066 11.3931 20.287 11.3931 19.8918H11.0931C11.0931 20.4527 11.5471 20.9066 12.108 20.9066V20.6066ZM35.0269 20.6066H12.108V20.9066H35.0269V20.6066ZM35.7418 19.8918C35.7418 20.287 35.4221 20.6066 35.0269 20.6066V20.9066C35.5878 20.9066 36.0418 20.4527 36.0418 19.8918H35.7418ZM35.7418 5.6215V19.8918H36.0418V5.6215H35.7418ZM35.0938 4.90597C35.4625 4.9409 35.7432 5.25082 35.7418 5.62094L36.0418 5.62207C36.0437 5.09688 35.6453 4.65688 35.1221 4.60731L35.0938 4.90597ZM35.0363 4.90635C35.057 4.90505 35.0778 4.90505 35.0986 4.90635L35.1173 4.60693C35.0841 4.60485 35.0508 4.60485 35.0175 4.60693L35.0363 4.90635ZM12.108 4.90664H35.0269V4.60664H12.108V4.90664ZM12.0519 4.9062C12.0662 4.9051 12.0822 4.9051 12.0965 4.9062L12.1195 4.60708C12.0899 4.6048 12.0585 4.6048 12.0289 4.60708L12.0519 4.9062ZM12.0404 4.60664H12.0404V4.90664H12.0404V4.60664ZM12.9728 6.63633H34.162V6.33633H12.9728V6.63633ZM13.1228 19.0269V6.48633H12.8228V19.0269H13.1228ZM34.162 18.8769H12.9728V19.1769H34.162V18.8769ZM34.012 6.48633V19.0269H34.312V6.48633H34.012Z" fill="white"/>
</svg>
