<svg width="72" height="72" viewBox="0 0 72 72" fill="none" xmlns="http://www.w3.org/2000/svg">
<g clip-path="url(#clip0)">
<path d="M35.7272 13.7215H5.39144V69.6086H46.2738V24.1586H36.9224C36.2615 24.1586 35.7271 23.6242 35.7271 22.9632L35.7272 13.7215ZM9.2816 24.6424C8.60942 23.4808 10.3222 21.6808 11.5991 23.883L13.7057 27.514L20.0648 21.183C21.1785 20.0777 22.8576 21.768 21.7466 22.8734L14.3133 30.2699C13.7705 30.8409 12.8199 30.7368 12.4177 30.0449L9.28175 24.6365L9.2816 24.6424ZM24.0049 20.4068C22.4327 20.4068 22.4327 18.0162 24.0049 18.0162H33.3649C34.9371 18.0162 34.9371 20.4068 33.3649 20.4068H24.0049ZM24.0049 30.6834C22.4327 30.6834 22.4327 28.2927 24.0049 28.2927H39.1393C40.7115 28.2927 40.7115 30.6834 39.1393 30.6834H24.0049ZM10.3134 40.9599C8.74117 40.9599 8.74117 38.5693 10.3134 38.5693H42.6514C44.2236 38.5693 44.2236 40.9599 42.6514 40.9599H10.3134ZM10.3134 51.2394C8.74117 51.2394 8.74117 48.8487 10.3134 48.8487H42.6514C44.2236 48.8487 44.2236 51.2394 42.6514 51.2394H10.3134ZM10.3134 61.5159C8.74117 61.5159 8.74117 59.1253 10.3134 59.1253H42.6514C44.2236 59.1253 44.2236 61.5159 42.6514 61.5159H10.3134ZM61.6357 11.0317C61.9872 11.1554 62.2488 11.3214 62.4203 11.6842L68.7372 24.9732C68.8947 25.291 68.9116 25.6088 68.8047 25.921L52.776 70.9966C52.5567 71.6182 51.8732 71.9444 51.2517 71.7251L48.6641 70.8054C48.6613 71.4635 48.1269 71.9979 47.4688 71.9979H4.19534C3.53441 71.9979 3 71.4607 3 70.8025V12.525C3 11.8641 3.53718 11.3297 4.19534 11.3297H25.534L29.2802 0.79677C29.4996 0.175208 30.1802 -0.151038 30.8018 0.0683456L61.6379 11.0339L61.6357 11.0317ZM61.436 15.1689L59.2676 21.2664L65.3651 23.4348L61.436 15.1689ZM37.8754 11.6757L48.3126 22.1128C48.5376 22.3603 48.6641 22.6107 48.6641 22.9594V68.2719L50.9253 69.0763L66.1548 26.2507L57.3463 23.1203C56.7247 22.901 56.3985 22.2175 56.6179 21.5988L59.7173 12.8853L31.1311 2.72108L28.0683 11.333H36.925C37.3638 11.333 37.6085 11.4258 37.8784 11.6846L37.8754 11.6757ZM44.5804 21.7615L38.1173 15.2983V21.7615H44.5804Z" fill="black" stroke="white" stroke-width="0.4"/>
</g>
<defs>
<clipPath id="clip0">
<rect width="72" height="72" fill="white"/>
</clipPath>
</defs>
</svg>
