<svg width="36" height="40" viewBox="0 0 36 40" fill="none" xmlns="http://www.w3.org/2000/svg">
<g clip-path="url(#clip0)">
<path d="M0.0498047 0.097168H27.4241L35.0376 7.75522V39.9503H0.0498047V0.097168ZM27.7179 1.75683V7.56073H33.5239L27.7179 1.75683ZM1.02577 38.9271H34.1114V8.53634H26.7419V1.07244H1.02577V38.9271ZM10.8327 22.7327L10.8327 22.7327C11.1739 23.0738 11.4675 23.4644 11.8087 23.9027L13.3222 26.296L11.8583 26.296L10.6879 24.4915C10.3467 23.9541 10.0531 23.5654 9.85871 23.272C9.66429 22.9804 9.46796 22.7842 9.27353 22.687C9.07717 22.5403 8.9304 22.4926 8.73597 22.4431C8.63876 22.3935 8.39475 22.3935 8.1012 22.3935H6.73446V26.296H5.56409V17.5155H9.46794C10.2475 17.5155 10.8823 17.6127 11.2731 17.7594C11.6639 17.9061 12.0546 18.1976 12.249 18.5883C12.4435 18.9789 12.5902 19.4172 12.5902 19.905C12.5902 20.4899 12.3958 21.0273 12.0051 21.4655C11.6143 21.9038 10.9795 22.1972 10.1503 22.2944C10.442 22.4392 10.686 22.586 10.8327 22.7327ZM9.222 21.4141L9.22198 21.4142C9.75954 21.4142 10.1979 21.3665 10.44 21.2217C10.7317 21.1226 10.9756 20.9282 11.1224 20.6843C11.2692 20.4404 11.3664 20.1965 11.3664 19.9031C11.3664 19.4629 11.2215 19.1218 10.928 18.8779C10.6364 18.634 10.1484 18.4873 9.51362 18.4873H6.73252V21.4141H9.222ZM16.8354 17.5112H18.0573L21.6676 26.2917H20.3504L19.3249 23.6088H15.665L14.6891 26.2917H13.4691L16.8354 17.5112ZM16.0062 22.7322H19.0313L18.1049 20.2932C17.8114 19.5615 17.6169 18.9765 17.4702 18.4887C17.3234 19.0241 17.1766 19.6091 16.9822 20.1464L16.0062 22.7322ZM27.8648 22.7327L27.8647 22.7327C28.2059 23.0738 28.5472 23.4644 28.8407 23.9027L30.3542 26.296L28.8903 26.296L27.7199 24.4915C27.3787 23.9541 27.0852 23.5654 26.8907 23.272C26.6963 22.9804 26.5 22.7842 26.3055 22.687C26.1092 22.5403 25.9624 22.4926 25.768 22.4431C25.6708 22.3935 25.4268 22.3935 25.1332 22.3935H23.7665V26.296H22.5961V17.5155H26.5C27.2796 17.5155 27.9143 17.6127 28.3051 17.7594C28.6959 17.9061 29.0866 18.1976 29.2811 18.5883C29.4755 18.9789 29.6223 19.4172 29.6223 19.905C29.6223 20.4899 29.4279 21.0273 29.0371 21.4655C28.6463 21.9038 28.0115 22.1972 27.1824 22.2944C27.474 22.4392 27.718 22.586 27.8648 22.7327ZM26.3017 21.4141L26.3017 21.4142C26.8392 21.4142 27.23 21.3665 27.5197 21.2217C27.8114 21.1226 28.0553 20.9282 28.2021 20.6843C28.3489 20.4404 28.4461 20.1965 28.4461 19.9031C28.4461 19.4629 28.3012 19.1218 28.0077 18.8779C27.7161 18.634 27.2281 18.4873 26.5933 18.4873H23.8122V21.4141H26.3017Z" fill="#161A22" stroke="#161A22" stroke-width="0.2"/>
</g>
<defs>
<clipPath id="clip0">
<rect width="36" height="40" fill="white"/>
</clipPath>
</defs>
</svg>
