<svg width="43" height="43" fill="none" xmlns="http://www.w3.org/2000/svg"><path d="M11.986 24.62L4.09 15.583l7.895-9.037a1.758 1.758 0 00-2.647-2.312L.434 14.427a1.757 1.757 0 000 2.312L9.34 26.933a1.756 1.756 0 002.48.167 1.757 1.757 0 00.167-2.48z" fill="#fff"/><path d="M30.229 13.825H1.756a1.757 1.757 0 100 3.515H30.23c5.104 0 9.256 4.153 9.256 9.256 0 5.104-4.152 9.256-9.256 9.256H4.1a1.757 1.757 0 100 3.515h26.128c7.041 0 12.771-5.73 12.771-12.77 0-7.042-5.73-12.772-12.771-12.772z" fill="#fff"/></svg>