<svg width="36" height="52" viewBox="0 0 36 52" fill="none" xmlns="http://www.w3.org/2000/svg">
<path fill-rule="evenodd" clip-rule="evenodd" d="M16.447 5.9711C3.50526 9.03738 12.6667 17.966 10.2816 24.2366C9.14277 27.227 8.13594 29.0995 7.4534 32.1036C3.56182 29.9745 4.54414 28.2653 0.712891 28.4306C1.814 30.8144 3.98982 32.7491 5.91864 34.5204C4.43101 40.5655 1.11072 45.5237 3.03012 51.349C8.31883 49.076 10.5531 41.9304 12.0388 37.192L23.6778 37.3534C24.3773 39.6205 25.3747 42.6732 26.7115 45.3953C28.2462 48.5199 29.781 48.8058 32.1473 51.5746C35.46 45.9242 30.5729 37.7442 29.683 34.5204C35.1583 27.7326 36.0916 30.865 34.7379 27.3204C32.6676 26.8557 31.8927 29.7781 28.7214 31.5222C27.4091 29.712 26.768 27.3787 25.8574 25.0805C23.9926 20.3751 24.1586 22.0569 25.3917 17.8746C27.3959 11.0712 24.4074 7.46827 18.8906 5.80388C18.6417 2.54316 19.3733 2.53538 17.5877 0.427673C15.8757 2.55482 16.5111 2.82509 16.4489 5.97304L16.447 5.9711Z" fill="black"/>
<path fill-rule="evenodd" clip-rule="evenodd" d="M15.623 8.487C7.85681 10.9408 11.1752 23.3401 19.673 20.7774C27.0263 18.5608 24.4451 5.69876 15.623 8.487Z" fill="#FFCC00"/>
<path fill-rule="evenodd" clip-rule="evenodd" d="M5.60079 46.4043L6.89421 44.7263C6.98471 44.5611 7.10915 44.2986 7.20154 44.1119L14.6095 25.195C15.6126 20.7268 15.3807 24.4309 14.1966 22.3504C11.5023 24.4114 10.2824 30.1921 9.00404 33.6161C8.25363 35.6266 7.33918 37.8102 6.50581 39.8693C6.07404 40.9367 5.40847 42.045 5.1709 43.0367C3.7191 49.109 4.71651 44.7399 5.60267 46.4043H5.60079Z" fill="#FFCC00"/>
<path fill-rule="evenodd" clip-rule="evenodd" d="M13.123 34.9503L22.2392 35.1661L18.1101 23.4376L13.123 34.9503Z" fill="#FFCC00"/>
<path fill-rule="evenodd" clip-rule="evenodd" d="M30.3956 46.5579C31.1762 45.4535 32.6506 48.3176 29.6094 40.6781L21.8658 22.294C19.7484 24.0556 20.6025 23.8106 22.0034 27.258C22.8877 29.4338 23.821 31.8565 24.7392 34.1644C26.4211 38.3935 28.0162 44.0866 30.3956 46.5579Z" fill="#FFCC00"/>
<path fill-rule="evenodd" clip-rule="evenodd" d="M15.9034 17.5384C22.9701 18.0264 21.0771 12.4946 19.0917 11.6624C14.6363 9.79194 13.5466 14.1649 15.9034 17.5384Z" fill="black"/>
</svg>
