<svg width="46" height="48" fill="none" xmlns="http://www.w3.org/2000/svg"><path d="M23 47.312c-6.143 0-11.92-2.424-16.263-6.826C2.392 36.084 0 30.23 0 24.006c0-6.226 2.392-12.079 6.737-16.48C11.08 3.124 16.857.699 23 .699c6.143 0 11.92 2.425 16.264 6.827C43.608 11.928 46 17.78 46 24.006c0 6.225-2.392 12.078-6.736 16.48-4.345 4.402-10.12 6.826-16.264 6.826zm0-42.971c-10.7 0-19.406 8.822-19.406 19.665S12.3 43.67 23 43.67s19.406-8.821 19.406-19.664C42.406 13.163 33.7 4.34 23 4.34zm12.424 16.57l-2.541-2.576L23 28.35l-9.883-10.015-2.541 2.575L23 33.5l12.424-12.59z" fill="#fff"/></svg>