<svg width="32" height="24" viewBox="0 0 32 24" fill="none" xmlns="http://www.w3.org/2000/svg">
<path d="M28.7386 0H2.76941C2.34313 0 1.94405 0.1048 1.58301 0.277539L15.6925 14.387L18.8549 11.3478C18.8549 11.3478 18.8551 11.3475 18.8552 11.3474C18.8553 11.3473 18.8555 11.3471 18.8555 11.3471L29.9255 0.277785C29.5644 0.104923 29.165 0 28.7386 0Z" fill="#1b4e9b"/>
<path d="M31.2309 1.58326L20.8135 12.0001L31.2305 22.4172C31.4033 22.0561 31.5081 21.657 31.5081 21.2308V2.76923C31.5081 2.3432 31.4035 1.94418 31.2309 1.58326Z" fill="#1b4e9b"/>
<path d="M0.277538 1.58283C0.1048 1.94387 0 2.34295 0 2.76923V21.2308C0 21.6568 0.104677 22.0559 0.277292 22.4169L10.6947 12L0.277538 1.58283Z" fill="#1b4e9b"/>
<path d="M19.5084 13.3054L16.3456 16.345C16.1653 16.5253 15.9291 16.6154 15.693 16.6154C15.4569 16.6154 15.2206 16.5253 15.0404 16.345L12.0006 13.3053L1.58301 23.7222C1.94412 23.8951 2.34344 24 2.76984 24H28.7391C29.1653 24 29.5644 23.8952 29.9255 23.7225L19.5084 13.3054Z" fill="#1b4e9b"/>
</svg>
