<svg width="259" height="47" fill="none" xmlns="http://www.w3.org/2000/svg"><path fill-rule="evenodd" clip-rule="evenodd" d="M29.065 37.44V25.765h4.356a10.754 10.754 0 01-1.98 4.162v6.608a15.727 15.727 0 007.167-13.23 15.729 15.729 0 00-7.168-13.229v6.608a10.735 10.735 0 012.007 4.28h-4.382V8.817h-.003a15.334 15.334 0 00-4.748-1.163v31.307a15.34 15.34 0 004.75-1.163v-.358zM7.518 23.306c0 .797.06 1.58.172 2.345h9.5v6.62a10.78 10.78 0 01-2.903-2.896H8.722c2.211 5.337 7.251 9.18 13.226 9.615V20.96h-9.262a10.762 10.762 0 014.504-6.618v3.012h4.758V7.622c-8.066.585-14.43 7.384-14.43 15.684z" fill="#848787"/><path d="M23.062 5.473c-9.73 0-17.646 8-17.646 17.834 0 9.833 7.916 17.833 17.646 17.833 9.731 0 17.647-8 17.647-17.834 0-9.833-7.916-17.833-17.647-17.833zm0 36.884c-10.394 0-18.851-8.546-18.851-19.05 0-10.505 8.457-19.051 18.851-19.051 10.395 0 18.851 8.546 18.851 19.05 0 10.505-8.456 19.051-18.85 19.051z" fill="#848787"/><path d="M23.063 3.33c-10.9 0-19.767 8.962-19.767 19.976 0 11.015 8.867 19.975 19.767 19.975 10.899 0 19.766-8.96 19.766-19.975 0-11.014-8.867-19.976-19.766-19.976zm0 41.17C11.499 44.5 2.09 34.992 2.09 23.305S11.5 2.113 23.063 2.113c11.563 0 20.971 9.507 20.971 21.193 0 11.686-9.408 21.193-20.971 21.193z" fill="#848787"/><path d="M23.062 1.218c-12.052 0-21.858 9.908-21.858 22.088 0 12.18 9.806 22.09 21.858 22.09 12.053 0 21.858-9.91 21.858-22.09S35.115 1.218 23.062 1.218zm0 45.395C10.346 46.612 0 36.157 0 23.305 0 10.456 10.346 0 23.062 0c12.717 0 23.062 10.456 23.062 23.306 0 12.852-10.345 23.306-23.062 23.306zM60.023 28.786l2.243-2.715c1.552 1.296 3.179 2.118 5.15 2.118 1.553 0 2.489-.624 2.489-1.694 0-.972-.592-1.47-3.475-2.217-3.475-.896-5.717-1.867-5.717-5.379 0-3.163 2.514-5.255 6.038-5.255 2.513 0 4.657.796 6.407 2.217l-1.972 2.889c-1.527-1.07-3.03-1.72-4.485-1.72-1.454 0-2.217.673-2.217 1.57 0 1.146.74 1.52 3.72 2.291 3.5.921 5.471 2.192 5.471 5.28 0 3.461-2.612 5.404-6.333 5.404-2.612 0-5.249-.921-7.32-2.79zM86.514 24.03l-2.293-5.653-2.29 5.652h4.583zm-3.992-10.262h3.499l7.392 17.559h-3.967l-1.576-3.91h-7.296l-1.577 3.91h-3.869l7.394-17.559zM100.288 22.46l-5.767-8.566h4.436l3.622 5.652 3.648-5.652h4.312l-5.766 8.517 6.013 8.916h-4.437l-3.868-5.978-3.893 5.978h-4.313l6.013-8.866zM113.791 31.327h3.794V13.894h-3.794v17.433zM126.752 24.452l-6.629-10.558h4.436l4.115 6.997 4.19-6.997h4.313l-6.63 10.485v6.948h-3.795v-6.875zM146.933 13.894h3.795v6.898h6.998v-6.898h3.796v17.433h-3.796v-6.998h-6.998v6.998h-3.795V13.894zM175.566 24.03l-2.291-5.653-2.292 5.652h4.583zm-3.992-10.262h3.499l7.393 17.559h-3.967l-1.577-3.91h-7.294l-1.578 3.91h-3.869l7.393-17.559zM185.125 13.894h4.091l4.535 7.37 4.534-7.37h4.091v17.433h-3.77V19.945l-4.855 7.447h-.099l-4.805-7.372v11.307h-3.722V13.894zM206.514 13.894h3.796v7.62l6.998-7.62h4.584l-7.023 7.395 7.343 10.038h-4.558l-5.348-7.422-1.996 2.092v5.33h-3.796V13.894zM236.751 22.61c0-2.988-2.169-5.48-5.225-5.48-3.055 0-5.175 2.441-5.175 5.48 0 2.988 2.168 5.48 5.224 5.48 3.057 0 5.176-2.442 5.176-5.48zm-14.368 0c0-4.956 3.869-9.015 9.192-9.015s9.143 4.009 9.143 9.015c0 4.955-3.869 9.016-9.192 9.016s-9.143-4.01-9.143-9.016zM259 31.327v-.003l-4.213-6.224c2.193-.822 3.697-2.59 3.697-5.404 0-1.693-.518-3.063-1.479-4.034-1.134-1.146-2.834-1.768-5.027-1.768h-7.886v17.433h3.795v-5.579h2.932l3.746 5.579H259zm-7.343-13.972c1.849 0 2.982.847 2.982 2.49 0 1.52-1.059 2.516-2.907 2.516h-3.845v-5.006c0-.01 3.452 0 3.77 0z" fill="#848787"/></svg>