<svg width="259" height="47" viewBox="0 0 259 47" fill="none" xmlns="http://www.w3.org/2000/svg">
<path fill-rule="evenodd" clip-rule="evenodd" d="M29.0647 37.4393V25.7658H33.4213C33.0617 27.3074 32.3779 28.7223 31.4404 29.9278V36.5362C35.7502 33.7466 38.6079 28.8643 38.6079 23.3067C38.6079 17.7492 35.7499 12.8677 31.4404 10.0773V16.685C32.3997 17.922 33.0993 19.378 33.4469 20.9647H29.0647V8.8172H29.0625C27.5811 8.19059 25.9854 7.78915 24.3145 7.6543V38.9607C25.9857 38.8262 27.5836 38.4238 29.0644 37.7975V37.44L29.0647 37.4393Z" fill="#848787"/>
<path fill-rule="evenodd" clip-rule="evenodd" d="M7.51758 23.3061C7.51758 24.103 7.57706 24.8869 7.69046 25.6515H17.1897V32.2717C16.0482 31.5037 15.0608 30.5174 14.287 29.375H8.72162C10.9331 34.7115 15.973 38.5559 21.9482 38.9897V20.9603H12.6863C13.2916 18.2078 14.9394 15.8537 17.19 14.3423V17.3539H21.9485V7.62207C13.882 8.20695 7.51819 15.0059 7.51819 23.3058L7.51758 23.3061Z" fill="#848787"/>
<path d="M23.0623 5.47302C13.3317 5.47302 5.4156 13.4729 5.4156 23.3065C5.4156 33.1399 13.3317 41.1398 23.0623 41.1398C32.793 41.1398 40.7091 33.1399 40.7091 23.3065C40.7091 13.4729 32.793 5.47302 23.0623 5.47302ZM23.0623 42.3572C12.6676 42.3572 4.21094 33.8107 4.21094 23.3065C4.21094 12.8015 12.6679 4.25562 23.0623 4.25562C33.4571 4.25562 41.9135 12.8015 41.9135 23.3065C41.9135 33.8107 33.4571 42.3572 23.0623 42.3572Z" fill="#848787"/>
<path d="M23.0626 3.33044C12.1634 3.33044 3.29597 12.2917 3.29597 23.3063C3.29597 34.3208 12.1634 43.2812 23.0626 43.2812C33.9619 43.2812 42.8293 34.3205 42.8293 23.3063C42.8293 12.2917 33.9619 3.33044 23.0626 3.33044ZM23.0626 44.4995C11.499 44.4995 2.09131 34.9923 2.09131 23.3063C2.09131 11.6199 11.499 2.11304 23.0626 2.11304C34.6263 2.11304 44.034 11.6199 44.034 23.3063C44.034 34.9923 34.6263 44.4995 23.0626 44.4995Z" fill="#848787"/>
<path d="M23.062 1.21803C11.0099 1.21803 1.20373 11.1264 1.20373 23.3064C1.20373 35.4864 11.0099 45.3958 23.062 45.3958C35.1147 45.3958 44.9199 35.4864 44.9199 23.3064C44.9199 11.1264 35.115 1.21803 23.062 1.21803ZM23.062 46.6125C10.3458 46.6125 0 36.1579 0 23.3064C0 10.4556 10.3458 0 23.062 0C35.7789 0 46.124 10.4556 46.124 23.3064C46.124 36.1579 35.7789 46.6125 23.062 46.6125Z" fill="#848787"/>
<path d="M60.0229 28.7856L62.2658 26.0711C63.8181 27.367 65.4447 28.1886 67.4161 28.1886C68.9687 28.1886 69.9049 27.5654 69.9049 26.495C69.9049 25.5233 69.3132 25.0256 66.4302 24.2779C62.9552 23.3819 60.7126 22.4108 60.7126 18.8993C60.7126 15.7364 63.2267 13.6438 66.7507 13.6438C69.2642 13.6438 71.4082 14.4405 73.1577 15.8609L71.1863 18.7495C69.6587 17.6791 68.1551 17.0304 66.7014 17.0304C65.2471 17.0304 64.4835 17.7031 64.4835 18.6003C64.4835 19.7461 65.2231 20.1195 68.2041 20.891C71.704 21.8122 73.6751 23.0829 73.6751 26.1705C73.6751 29.6324 71.0633 31.5752 67.3418 31.5752C64.73 31.5752 62.093 30.654 60.0229 28.7856Z" fill="#848787"/>
<path d="M86.5137 24.0293L84.2214 18.3767L81.9302 24.0293H86.514H86.5137ZM82.5215 13.7683H86.0209L93.4134 31.3269H89.4459L87.8696 27.4165H80.5745L78.9973 31.3269H75.1284L82.5215 13.7683Z" fill="#848787"/>
<path d="M100.288 22.4609L94.5208 13.894H98.957L102.579 19.5464L106.227 13.894H110.539L104.773 22.4107L110.786 31.3267H106.349L102.481 25.3495L98.5875 31.3267H94.2749L100.288 22.4609Z" fill="#848787"/>
<path d="M113.791 31.3267H117.585V13.894H113.791V31.3267Z" fill="#848787"/>
<path d="M126.752 24.4522L120.123 13.894H124.559L128.674 20.8912L132.864 13.894H137.177L130.547 24.3787V31.3267H126.752V24.4522Z" fill="#848787"/>
<path d="M146.933 13.894H150.728V20.7922H157.726V13.894H161.522V31.3267H157.726V24.3286H150.728V31.3267H146.933V13.894Z" fill="#848787"/>
<path d="M175.566 24.0293L173.275 18.3767L170.983 24.0293H175.566ZM171.574 13.7683H175.073L182.466 31.3269H178.499L176.922 27.4165H169.628L168.05 31.3269H164.181L171.574 13.7683Z" fill="#848787"/>
<path d="M185.125 13.894H189.216L193.751 21.2643L198.285 13.894H202.376V31.3267H198.606V19.9453L193.751 27.3922H193.652L188.847 20.0201V31.3267H185.125V13.894Z" fill="#848787"/>
<path d="M206.514 13.894H210.31V21.5144L217.308 13.894H221.892L214.869 21.2892L222.212 31.3267H217.654L212.306 23.9047L210.31 25.997V31.3267H206.514V13.894Z" fill="#848787"/>
<path d="M236.751 22.6101C236.751 19.6218 234.582 17.1309 231.526 17.1309C228.471 17.1309 226.351 19.5713 226.351 22.6101C226.351 25.5983 228.519 28.0893 231.575 28.0893C234.632 28.0893 236.751 25.6479 236.751 22.6101ZM222.383 22.6101C222.383 17.6541 226.252 13.5945 231.575 13.5945C236.898 13.5945 240.718 17.6037 240.718 22.6101C240.718 27.5654 236.849 31.626 231.526 31.626C226.203 31.626 222.383 27.6156 222.383 22.6101H222.383Z" fill="#848787"/>
<path d="M259 31.3267V31.3242L254.787 25.0997C256.98 24.2778 258.484 22.5101 258.484 19.6962C258.484 18.0026 257.966 16.6335 257.005 15.6621C255.871 14.516 254.171 13.894 251.978 13.894C249.349 13.894 246.721 13.894 244.092 13.894V31.3267H247.887V25.7481H250.819L254.565 31.3267H259ZM251.657 17.3551C253.506 17.3551 254.639 18.2019 254.639 19.8457C254.639 21.3649 253.58 22.3609 251.732 22.3609H247.887V17.3548C247.887 17.3445 251.339 17.3548 251.657 17.3548V17.3551Z" fill="#848787"/>
</svg>
