<svg width="46" height="46" viewBox="0 0 46 46" fill="none" xmlns="http://www.w3.org/2000/svg">
<path d="M27.4023 23C27.4023 25.4314 25.4314 27.4023 23 27.4023C20.5686 27.4023 18.5977 25.4314 18.5977 23C18.5977 20.5686 20.5686 18.5977 23 18.5977C25.4314 18.5977 27.4023 20.5686 27.4023 23Z" fill="#49566C"/>
<path d="M33.2955 15.211C33.0838 14.6376 32.7462 14.1185 32.3075 13.6925C31.8815 13.2538 31.3628 12.9162 30.789 12.7045C30.3236 12.5238 29.6245 12.3087 28.3369 12.2501C26.9439 12.1865 26.5263 12.1729 22.9999 12.1729C19.4732 12.1729 19.0556 12.1862 17.663 12.2497C16.3754 12.3087 15.6759 12.5238 15.2109 12.7045C14.6371 12.9162 14.118 13.2538 13.6923 13.6925C13.2536 14.1185 12.916 14.6372 12.7041 15.211C12.5233 15.6764 12.3082 16.3759 12.2496 17.6635C12.1861 19.0561 12.1724 19.4737 12.1724 23.0004C12.1724 26.5268 12.1861 26.9444 12.2496 28.3374C12.3082 29.625 12.5233 30.3241 12.7041 30.7895C12.916 31.3633 13.2533 31.882 13.692 32.308C14.118 32.7467 14.6367 33.0843 15.2106 33.296C15.6759 33.4771 16.3754 33.6922 17.663 33.7508C19.0556 33.8143 19.4729 33.8277 22.9996 33.8277C26.5267 33.8277 26.9443 33.8143 28.3365 33.7508C29.6242 33.6922 30.3236 33.4771 30.789 33.296C31.9408 32.8517 32.8512 31.9413 33.2955 30.7895C33.4762 30.3241 33.6913 29.625 33.7503 28.3374C33.8138 26.9444 33.8272 26.5268 33.8272 23.0004C33.8272 19.4737 33.8138 19.0561 33.7503 17.6635C33.6917 16.3759 33.4766 15.6764 33.2955 15.211V15.211ZM22.9999 29.7819C19.2542 29.7819 16.2178 26.7458 16.2178 23.0001C16.2178 19.2544 19.2542 16.2183 22.9999 16.2183C26.7453 16.2183 29.7817 19.2544 29.7817 23.0001C29.7817 26.7458 26.7453 29.7819 22.9999 29.7819ZM30.0499 17.535C29.1746 17.535 28.465 16.8254 28.465 15.9501C28.465 15.0749 29.1746 14.3652 30.0499 14.3652C30.9251 14.3652 31.6348 15.0749 31.6348 15.9501C31.6344 16.8254 30.9251 17.535 30.0499 17.535Z" fill="#49566C"/>
<path d="M23 0C10.2994 0 0 10.2994 0 23C0 35.7006 10.2994 46 23 46C35.7006 46 46 35.7006 46 23C46 10.2994 35.7006 0 23 0ZM36.1274 28.445C36.0635 29.8509 35.8399 30.8108 35.5135 31.651C34.8274 33.425 33.425 34.8274 31.651 35.5135C30.8111 35.8399 29.8509 36.0631 28.4454 36.1274C27.037 36.1916 26.5871 36.207 23.0004 36.207C19.4133 36.207 18.9637 36.1916 17.555 36.1274C16.1494 36.0631 15.1892 35.8399 14.3494 35.5135C13.4678 35.1819 12.6697 34.6621 12.0099 33.9901C11.3382 33.3306 10.8185 32.5322 10.4868 31.651C10.1604 30.8111 9.93686 29.8509 9.87299 28.4454C9.80806 27.0367 9.79297 26.5867 9.79297 23C9.79297 19.4133 9.80806 18.9633 9.87263 17.555C9.93651 16.1491 10.1597 15.1892 10.4861 14.349C10.8177 13.4678 11.3379 12.6694 12.0099 12.0099C12.6694 11.3379 13.4678 10.8181 14.349 10.4865C15.1892 10.1601 16.1491 9.93686 17.555 9.87263C18.9633 9.80841 19.4133 9.79297 23 9.79297C26.5867 9.79297 27.0367 9.80841 28.445 9.87299C29.8509 9.93686 30.8108 10.1601 31.651 10.4861C32.5322 10.8177 33.3306 11.3379 33.9904 12.0099C34.6621 12.6697 35.1823 13.4678 35.5135 14.349C35.8403 15.1892 36.0635 16.1491 36.1277 17.555C36.1919 18.9633 36.207 19.4133 36.207 23C36.207 26.5867 36.1919 27.0367 36.1274 28.445V28.445Z" fill="#49566C"/>
</svg>
