<svg width="502" height="511" viewBox="0 0 502 511" fill="none" xmlns="http://www.w3.org/2000/svg">
<g opacity="0.41">
<path fill-rule="evenodd" clip-rule="evenodd" d="M8.8247 66.5723L4.37723 38.0841L-0.0703749 9.5978L-22.4615 28.4993L-44.8526 47.4009L-18.0139 56.9857L8.8247 66.5723Z" fill="#FEFEFE"/>
<path fill-rule="evenodd" clip-rule="evenodd" d="M-38.869 199.785L-33.8982 231.623L-28.9264 263.462L-3.90195 242.338L21.1235 221.212L-8.87366 210.499L-38.869 199.785Z" fill="#FEFEFE"/>
<path fill-rule="evenodd" clip-rule="evenodd" d="M55.4763 314.582L49.8625 278.628L44.2496 242.675L15.99 266.53L-12.2695 290.385L21.603 302.483L55.4763 314.582Z" fill="#FEFEFE"/>
<path fill-rule="evenodd" clip-rule="evenodd" d="M150.603 239.069L144.493 199.937L138.385 160.805L107.626 186.77L76.869 212.734L113.736 225.901L150.603 239.069Z" fill="#FECC00"/>
<path fill-rule="evenodd" clip-rule="evenodd" d="M74.1605 433.22L68.8983 399.511L63.6351 365.802L37.1393 388.168L10.6435 410.535L42.4025 421.877L74.1605 433.22Z" fill="#FEFEFE"/>
<path fill-rule="evenodd" clip-rule="evenodd" d="M114.052 482.686L119.496 515.316L124.941 547.945L150.405 525.984L175.871 504.022L144.961 493.354L114.052 482.686Z" fill="#FEFEFE"/>
<path fill-rule="evenodd" clip-rule="evenodd" d="M173.7 362.925L167.02 320.131L160.337 277.338L126.702 305.731L93.0658 334.125L133.383 348.525L173.7 362.925Z" fill="#FEFEFE"/>
<path fill-rule="evenodd" clip-rule="evenodd" d="M179.399 274.093L219.717 288.493L260.034 302.892L226.397 331.287L192.762 359.68L186.082 316.887L179.399 274.093Z" fill="#FEFEFE"/>
<path fill-rule="evenodd" clip-rule="evenodd" d="M86.5883 352.423L126.906 366.823L167.222 381.223L133.586 409.616L99.9511 438.01L93.2696 395.217L86.5883 352.423Z" fill="#FECC00"/>
<path fill-rule="evenodd" clip-rule="evenodd" d="M6.56032 446.207L30.8221 454.873L55.083 463.538L34.8424 480.624L14.6017 497.71L10.5814 471.959L6.56032 446.207Z" fill="#FEFEFE"/>
<path fill-rule="evenodd" clip-rule="evenodd" d="M191.916 480.583L154.506 467.221L117.097 453.86L148.307 427.514L179.518 401.167L185.716 440.875L191.916 480.583Z" fill="#FEFEFE"/>
<path fill-rule="evenodd" clip-rule="evenodd" d="M202.014 397.361L239.424 410.723L276.833 424.084L245.623 450.43L214.412 476.777L208.214 437.069L202.014 397.361Z" fill="#FEFEFE"/>
<path fill-rule="evenodd" clip-rule="evenodd" d="M284.725 402.251L244.913 388.031L205.099 373.811L238.314 345.772L271.53 317.733L278.128 359.992L284.725 402.251Z" fill="#FEFEFE"/>
<path fill-rule="evenodd" clip-rule="evenodd" d="M89.29 546.869L64.7763 538.115L40.2619 529.358L60.7136 512.093L81.1652 494.829L85.228 520.85L89.29 546.869Z" fill="#FEFEFE"/>
<path fill-rule="evenodd" clip-rule="evenodd" d="M411.32 556.273L382.035 545.813L352.748 535.353L377.181 514.728L401.615 494.102L406.467 525.188L411.32 556.273Z" fill="#FEFEFE"/>
<path fill-rule="evenodd" clip-rule="evenodd" d="M303.291 520.592L267.872 507.941L232.453 495.291L262.003 470.347L291.552 445.403L297.421 482.997L303.291 520.592Z" fill="#FECC00"/>
<path fill-rule="evenodd" clip-rule="evenodd" d="M228.504 525.088L258.685 535.868L288.869 546.648L263.688 567.904L238.508 589.161L233.505 557.124L228.504 525.088Z" fill="#FEFEFE"/>
<path fill-rule="evenodd" clip-rule="evenodd" d="M313.996 437.852L350.453 450.872L386.91 463.893L356.494 489.569L326.079 515.244L320.037 476.547L313.996 437.852Z" fill="#FEFEFE"/>
<path fill-rule="evenodd" clip-rule="evenodd" d="M50.7754 117.602L56.464 154.038L62.1534 190.474L90.7918 166.299L119.431 142.123L85.1034 129.862L50.7754 117.602Z" fill="#FEFEFE"/>
<path fill-rule="evenodd" clip-rule="evenodd" d="M-19.8218 318.866L12.5126 330.415L44.8472 341.962L17.8705 364.735L-9.10527 387.506L-14.4632 353.187L-19.8218 318.866Z" fill="#FEFEFE"/>
<path fill-rule="evenodd" clip-rule="evenodd" d="M67.7178 233.968L106.178 247.706L144.638 261.442L112.552 288.528L80.4653 315.613L74.0915 274.792L67.7178 233.968Z" fill="#FEFEFE"/>
<path fill-rule="evenodd" clip-rule="evenodd" d="M31.1966 189.544L2.1093 179.155L-26.978 168.766L-2.71119 148.281L21.5556 127.796L26.3761 158.67L31.1966 189.544Z" fill="#FEFEFE"/>
</g>
</svg>
