<svg width="281" height="50" viewBox="0 0 281 50" fill="none" xmlns="http://www.w3.org/2000/svg">
<path fill-rule="evenodd" clip-rule="evenodd" d="M31.5331 40.16V27.6382H36.2598C35.8697 29.2918 35.1277 30.8095 34.1106 32.1026V39.1912C38.7865 36.199 41.887 30.9618 41.887 25.0004C41.887 19.0389 38.7862 13.8027 34.1106 10.8095V17.8974C35.1515 19.2243 35.9104 20.7861 36.2876 22.4882H31.5331V9.45783H31.5308C29.9235 8.78568 28.1923 8.35507 26.3794 8.21042V41.792C28.1926 41.6476 29.9262 41.216 31.5328 40.5442V40.1607L31.5331 40.16Z" fill="#1B4E9B"/>
<path fill-rule="evenodd" clip-rule="evenodd" d="M8.15576 24.9996C8.15576 25.8545 8.22029 26.6954 8.34333 27.5155H18.6494V34.6168C17.411 33.793 16.3397 32.735 15.5001 31.5096H9.46208C11.8614 37.2339 17.3294 41.3576 23.8121 41.823V22.4834H13.7635C14.4202 19.5309 16.208 17.0057 18.6497 15.3845V18.6149H23.8125V8.17596C15.0608 8.80334 8.15643 16.0964 8.15643 24.9993L8.15576 24.9996Z" fill="#1B4E9B"/>
<path d="M25.0215 5.87057C14.4643 5.87057 5.87583 14.4518 5.87583 25C5.87583 35.5479 14.4643 44.1291 25.0215 44.1291C35.5787 44.1291 44.1672 35.5479 44.1672 25C44.1672 14.4518 35.5787 5.87057 25.0215 5.87057ZM25.0215 45.4349C13.7438 45.4349 4.56885 36.2674 4.56885 25C4.56885 13.7315 13.7441 4.5647 25.0215 4.5647C36.2992 4.5647 45.4739 13.7315 45.4739 25C45.4739 36.2674 36.2992 45.4349 25.0215 45.4349Z" fill="#1B4E9B"/>
<path d="M25.0212 3.5725C13.1962 3.5725 3.57554 13.185 3.57554 25C3.57554 36.815 13.1962 46.4264 25.0212 46.4264C36.8463 46.4264 46.4669 36.8146 46.4669 25C46.4669 13.185 36.8463 3.5725 25.0212 3.5725ZM25.0212 47.7333C12.4753 47.7333 2.26855 37.5352 2.26855 25C2.26855 12.4644 12.4753 2.26663 25.0212 2.26663C37.5671 2.26663 47.7739 12.4644 47.7739 25C47.7739 37.5352 37.5671 47.7333 25.0212 47.7333Z" fill="#1B4E9B"/>
<path d="M25.0209 1.30654C11.9451 1.30654 1.30598 11.9349 1.30598 25C1.30598 38.0651 11.9451 48.6945 25.0209 48.6945C38.0975 48.6945 48.7355 38.0651 48.7355 25C48.7355 11.9349 38.0978 1.30654 25.0209 1.30654ZM25.0209 49.9997C11.2245 49.9997 0 38.7853 0 25C0 11.2153 11.2245 0 25.0209 0C38.818 0 50.0419 11.2153 50.0419 25C50.0419 38.7853 38.818 49.9997 25.0209 49.9997Z" fill="#1B4E9B"/>
<path d="M65.1216 30.8773L67.555 27.9655C69.2391 29.3556 71.0038 30.2368 73.1427 30.2368C74.8272 30.2368 75.8429 29.5684 75.8429 28.4202C75.8429 27.3779 75.201 26.844 72.0731 26.042C68.3029 25.0808 65.8699 24.0392 65.8699 20.2726C65.8699 16.8798 68.5975 14.6352 72.4208 14.6352C75.1478 14.6352 77.4739 15.4897 79.372 17.0134L77.2332 20.1119C75.5758 18.9637 73.9445 18.2679 72.3673 18.2679C70.7895 18.2679 69.961 18.9894 69.961 19.9519C69.961 21.1809 70.7634 21.5815 73.9976 22.409C77.7949 23.3971 79.9334 24.7601 79.9334 28.0721C79.9334 31.7856 77.0998 33.8695 73.0621 33.8695C70.2285 33.8695 67.3674 32.8813 65.1216 30.8773Z" fill="#1B4E9B"/>
<path d="M93.8621 25.7754L91.3752 19.712L88.8893 25.7754H93.8624H93.8621ZM89.5309 14.7688H93.3275L101.348 33.6033H97.0434L95.3332 29.4087H87.4184L85.7072 33.6033H81.5098L89.5309 14.7688Z" fill="#1B4E9B"/>
<path d="M108.806 24.093L102.55 14.9038H107.363L111.293 20.9668L115.25 14.9038H119.928L113.673 24.0392L120.196 33.6029H115.383L111.186 27.1915L106.962 33.6029H102.283L108.806 24.093Z" fill="#1B4E9B"/>
<path d="M123.456 33.6029H127.573V14.9038H123.456V33.6029Z" fill="#1B4E9B"/>
<path d="M137.519 26.229L130.327 14.9038H135.139L139.604 22.4093L144.15 14.9038H148.829L141.636 26.1502V33.6029H137.519V26.229Z" fill="#1B4E9B"/>
<path d="M159.413 14.9038H163.531V22.3031H171.123V14.9038H175.241V33.6029H171.123V26.0964H163.531V33.6029H159.413V14.9038Z" fill="#1B4E9B"/>
<path d="M190.479 25.7754L187.993 19.712L185.506 25.7754H190.479ZM186.147 14.7688H189.944L197.965 33.6033H193.661L191.95 29.4087H184.036L182.324 33.6033H178.127L186.147 14.7688Z" fill="#1B4E9B"/>
<path d="M200.85 14.9038H205.289L210.209 22.8095L215.128 14.9038H219.566V33.6029H215.476V21.3947L210.209 29.3826H210.102L204.888 21.4749V33.6029H200.85V14.9038Z" fill="#1B4E9B"/>
<path d="M224.056 14.9038H228.174V23.0778L235.767 14.9038H240.74L233.12 22.8362L241.087 33.6029H236.142L230.339 25.6417L228.174 27.886V33.6029H224.056V14.9038Z" fill="#1B4E9B"/>
<path d="M256.861 24.253C256.861 21.0477 254.507 18.3758 251.192 18.3758C247.878 18.3758 245.578 20.9935 245.578 24.253C245.578 27.4584 247.93 30.1303 251.246 30.1303C254.562 30.1303 256.861 27.5115 256.861 24.253ZM241.272 24.253C241.272 18.937 245.471 14.5824 251.246 14.5824C257.021 14.5824 261.165 18.8829 261.165 24.253C261.165 29.5684 256.967 33.924 251.192 33.924C245.417 33.924 241.273 29.6222 241.273 24.253H241.272Z" fill="#1B4E9B"/>
<path d="M281 33.6029V33.6002L276.429 26.9236C278.808 26.0419 280.44 24.1458 280.44 21.1275C280.44 19.3108 279.878 17.8422 278.836 16.8003C277.605 15.5709 275.76 14.9038 273.381 14.9038C270.529 14.9038 267.678 14.9038 264.825 14.9038V33.6029H268.943V27.6191H272.124L276.188 33.6029H281ZM273.033 18.6163C275.039 18.6163 276.269 19.5246 276.269 21.2878C276.269 22.9174 275.119 23.9858 273.114 23.9858H268.943V18.6159C268.943 18.6049 272.688 18.6159 273.033 18.6159V18.6163Z" fill="#1B4E9B"/>
</svg>
