<svg width="26" height="39" viewBox="0 0 26 39" fill="none" xmlns="http://www.w3.org/2000/svg">
<path d="M13 0C5.83195 0 0 5.83195 0 13C0 15.1519 0.538002 17.2855 1.56076 19.1779L12.2891 38.5811C12.4319 38.8397 12.7041 39 13 39C13.296 39 13.5681 38.8397 13.7109 38.5811L24.4433 19.1715C25.4621 17.2855 26.0001 15.1518 26.0001 12.9999C26.0001 5.83195 20.1681 0 13 0ZM13 19.5C9.41599 19.5 6.50005 16.5841 6.50005 13C6.50005 9.41599 9.41599 6.50005 13 6.50005C16.5841 6.50005 19.5 9.41599 19.5 13C19.5 16.5841 16.5841 19.5 13 19.5Z" fill="#1b4e9b"/>
</svg>
