<svg width="36" height="50" viewBox="0 0 36 50" fill="none" xmlns="http://www.w3.org/2000/svg">
<path fill-rule="evenodd" clip-rule="evenodd" d="M17.7616 12.3286C18.5668 11.8214 17.8618 11.9221 19.2982 11.6336C25.8129 10.3287 26.8694 13.8504 27.1207 10.0789L17.7087 9.96663V3.0607L33.677 3.2698V46.8002L17.6974 46.8447L17.7616 39.9117L25.7675 39.7452C27.7255 39.3812 26.8316 39.5477 27.6707 39.1043L26.4271 38.4751C23.9135 37.602 25.7996 37.9853 18.0546 38.0182C17.2646 35.3716 18.7425 35.755 19.8217 35.1257C22.29 33.6872 19.3794 36.5952 21.6701 34.1655C20.6986 33.7995 20.1846 33.4162 17.7087 33.4007V30.6167C20.9198 30.5876 20.2205 31.3407 21.4225 29.395C18.6518 27.941 17.2457 29.273 17.9695 25.9101C28.5212 25.9101 26.3402 26.8897 27.9958 24.0128H17.8618C17.4611 20.5182 18.8502 21.9818 21.4924 20.433C21.3393 20.2897 21.0672 20.2123 20.9349 20.1484C16.7713 18.069 18.0187 20.2065 17.7087 16.617C21.1182 16.5957 20.0674 17.1959 21.6701 15.496C20.4699 14.9926 20.6136 14.741 17.6993 14.7313L17.7616 12.3267V12.3286ZM16.1816 48.2677C18.6272 48.8563 33.6354 50.0566 34.7505 47.5572C36.3022 44.08 35.5726 4.51275 35.2362 3.41694C33.9492 -0.770761 19.4399 0.809064 15.8887 1.61253L16.1835 48.2677H16.1816Z" fill="black"/>
<path fill-rule="evenodd" clip-rule="evenodd" d="M6.52701 43.9482C4.92432 43.0809 5.59903 44.0044 3.82247 41.4294C2.58643 39.6386 2.93796 40.3704 2.16875 38.3724L9.43944 38.5118C7.95582 41.0054 7.55137 41.594 6.52701 43.9502V43.9482ZM9.04255 15.9721C10.237 17.9392 9.7494 22.6283 9.7494 26.4095C9.7494 29.7472 10.0442 33.2612 9.42054 36.506C6.23595 36.9958 7.5457 36.4692 6.80105 36.0104L6.72734 15.9663L9.04066 15.9721H9.04255ZM2.40688 15.9121L4.59546 16.0438C5.18135 17.0621 4.94889 15.0912 5.2664 18.1734L5.23805 26.4114C5.23805 29.7298 5.48941 33.1895 4.98479 36.4441L2.67337 36.6744C2.58454 36.477 2.32561 36.5099 2.14985 36.4344C1.23321 33.8149 1.65468 28.8702 1.65468 25.6641C1.65468 22.851 0.925152 18.2857 2.40499 15.9121H2.40688ZM2.56375 10.7409C3.55598 9.30242 1.08958 10.404 4.1362 9.51925C6.04317 8.9636 8.05221 9.25595 9.03121 10.6654C10.1142 12.6208 9.67569 12.7389 9.42243 14.1038C7.20928 14.433 4.47072 14.8667 2.50894 13.6973C2.22545 13.2249 2.07614 13.5037 2.02322 12.2317C1.90793 9.4786 1.73784 11.5463 2.56375 10.7409ZM2.05913 8.10206C-0.996942 12.5221 0.284453 22.6767 0.282563 29.3968C0.278783 42.0974 0.00473847 38.4769 4.97345 46.68C12.5428 43.4797 11.337 33.4509 11.3351 29.3968C11.3313 20.1269 12.5976 12.5995 9.45834 7.74969L2.05913 8.10012V8.10206Z" fill="black"/>
<path fill-rule="evenodd" clip-rule="evenodd" d="M2.1543 36.4327L4.59613 36.2255L4.59991 16.0421L2.40944 15.9105L2.1543 36.4327Z" fill="#FFCC00"/>
<path fill-rule="evenodd" clip-rule="evenodd" d="M6.80613 36.0106H9.04574V15.9724L6.73242 15.9666L6.80613 36.0106Z" fill="#FFCC00"/>
<path fill-rule="evenodd" clip-rule="evenodd" d="M2.15427 36.4327C2.33004 36.5082 2.58708 36.4753 2.67779 36.6728L4.98922 36.4424C5.49573 33.1879 5.24436 29.7281 5.24247 26.4097L5.27082 18.1718C4.95331 15.0896 5.18578 17.0605 4.59989 16.0421L4.598 36.2255L2.15427 36.4327L2.41131 15.9105C0.931467 18.2841 1.6591 22.8493 1.66099 25.6624C1.66099 28.8685 1.23764 33.8132 2.15616 36.4327H2.15427Z" fill="black"/>
<path fill-rule="evenodd" clip-rule="evenodd" d="M2.56457 10.7412L2.50977 13.6956L9.04337 13.593L9.03203 10.6657C8.05303 9.25622 6.044 8.96581 4.13702 9.51952C1.0904 10.4043 3.55681 9.30268 2.56457 10.7412Z" fill="#FFCC00"/>
<path fill-rule="evenodd" clip-rule="evenodd" d="M6.52623 43.9485C7.55059 41.5923 7.95504 41.0037 9.43866 38.5101L2.16797 38.3707C2.93907 40.3687 2.58754 39.6369 3.82169 41.4277C5.59825 44.0027 4.92354 43.0811 6.52623 43.9465V43.9485Z" fill="#FFCC00"/>
<path fill-rule="evenodd" clip-rule="evenodd" d="M6.79883 36.0103C7.54158 36.4711 6.23184 36.9958 9.41832 36.506C10.042 33.2611 9.74717 29.7472 9.74717 26.4094C9.74717 22.6283 10.2348 17.9372 9.04033 15.9721V36.0103H6.80072H6.79883Z" fill="black"/>
<path fill-rule="evenodd" clip-rule="evenodd" d="M17.7617 12.3288C20.9274 12.3288 24.9549 12.716 27.5461 11.7983L27.5479 10.5225C27.5045 10.4392 27.2474 10.2417 27.1208 10.0791C26.8695 13.8505 25.813 10.3289 19.2983 11.6338C17.8619 11.9222 18.5668 11.8196 17.7617 12.3288Z" fill="black"/>
<path fill-rule="evenodd" clip-rule="evenodd" d="M2.50712 13.6953C4.4689 14.8646 7.20746 14.4329 9.42061 14.1018C9.67386 12.7369 10.1123 12.6188 9.02939 10.6634L9.04073 13.5907L2.50712 13.6933L2.56193 10.7389C1.73601 11.5424 1.90611 9.47658 2.0214 12.2297C2.07432 13.5017 2.22362 13.2229 2.50712 13.6953Z" fill="black"/>
</svg>
