<svg width="46" height="38" viewBox="0 0 46 38" fill="none" xmlns="http://www.w3.org/2000/svg">
<path fill-rule="evenodd" clip-rule="evenodd" d="M23.9571 17.1316C20.9258 15.7725 13.6674 11.0087 18.7695 6.27418C19.2614 5.81725 20.3133 5.23589 20.7139 4.82562C22.2538 3.25067 21.4488 4.94228 22.1488 2.6382C11.2311 2.08794 10.0275 5.40505 5.1316 11.0807L4.32468 11.944C2.57085 13.6025 2.35891 12.8987 0.519531 15.4361C1.85726 18.1232 3.6597 20.3145 7.05653 21.0865C8.54982 19.2199 8.91536 18.0299 10.1811 16.3636C13.0919 17.2366 15.8082 20.6179 17.4434 22.8092C14.8379 26.2468 6.05907 31.6444 8.23872 36.2818C12.7438 40.6955 19.6425 30.9406 22.7107 28.0318C26.4323 30.8434 30.4882 38.267 36.8172 37.5845C41.6412 30.505 31.4624 27.709 28.2522 21.5045C29.9496 20.3495 31.4721 18.2729 32.6309 17.5866C33.8812 16.8458 49.6132 16.2527 44.4353 5.97864C40.6204 7.49914 41.6568 10.1104 37.7058 7.7558C35.5456 3.96815 38.3085 5.22616 39.8485 1.38213C36.16 -0.776133 29.5997 0.0502276 28.8122 8.64244L28.2269 12.3115C27.7447 13.4178 24.9701 15.8269 23.9571 17.1316Z" fill="black"/>
<path fill-rule="evenodd" clip-rule="evenodd" d="M9.66406 34.9598C13.4634 35.8562 20.2104 27.0287 25.3513 22.0433C26.6249 20.8086 31.6336 15.5763 32.6019 15.1233C37.7506 12.7025 39.9828 17.3262 42.806 9.91038C37.0798 12.5003 32.2889 7.35158 35.7012 2.9184C30.6672 3.79142 31.7794 6.96465 30.7275 11.6292C29.7164 16.1188 10.6051 29.3678 9.66406 34.9598Z" fill="#FFCC00"/>
<path fill-rule="evenodd" clip-rule="evenodd" d="M3.50195 15.2301L5.92659 18.2925C7.72126 16.3656 6.98434 17.7559 7.24488 14.7499C14.4799 12.718 13.2394 11.2889 16.3349 5.00269C11.5672 6.09348 12.0942 5.99237 9.37592 9.42031C4.33026 15.7804 9.73563 11.493 3.50195 15.2301Z" fill="#FFCC00"/>
<path fill-rule="evenodd" clip-rule="evenodd" d="M35.6072 35.6403C36.5405 32.4496 34.1061 31.5046 31.9498 29.3892C29.7935 27.2756 28.7999 25.6423 25.65 24.1121C24.2326 27.6042 26.3714 27.8551 29.0935 30.5752C30.8065 32.2882 33.0931 35.4809 35.6072 35.6423V35.6403Z" fill="#FFCC00"/>
<path fill-rule="evenodd" clip-rule="evenodd" d="M13.0723 14.9131C14.2681 15.9455 18.674 21.7981 20.3092 20.2951C22.5006 18.2788 16.5663 14.0381 15.1975 12.9531L13.0723 14.915V14.9131Z" fill="#FFCC00"/>
</svg>
