<svg width="46" height="46" viewBox="0 0 46 46" fill="none" xmlns="http://www.w3.org/2000/svg">
<path d="M23.0057 0H22.9943C10.3126 0 0 10.3155 0 23C0 28.0312 1.6215 32.6945 4.37862 36.4809L1.51225 45.0254L10.3529 42.1993C13.9897 44.6085 18.3281 46 23.0057 46C35.6874 46 46 35.6816 46 23C46 10.3184 35.6874 0 23.0057 0ZM36.3889 32.4789C35.834 34.0457 33.6317 35.3452 31.8751 35.7248C30.6734 35.9806 29.1036 36.1847 23.8194 33.994C17.0602 31.1938 12.7075 24.3254 12.3682 23.8797C12.0434 23.4341 9.637 20.2429 9.637 16.9424C9.637 13.6419 11.3131 12.0347 11.9888 11.3448C12.5436 10.7784 13.4607 10.5196 14.3405 10.5196C14.6251 10.5196 14.881 10.534 15.111 10.5455C15.7866 10.5743 16.1259 10.6145 16.5715 11.6811C17.1264 13.018 18.4776 16.3185 18.6386 16.6578C18.8025 16.997 18.9664 17.457 18.7364 17.9026C18.5208 18.3626 18.331 18.5667 17.9917 18.9578C17.6525 19.3487 17.3305 19.6478 16.9912 20.0675C16.6807 20.4326 16.33 20.8236 16.721 21.4993C17.112 22.1605 18.4632 24.3656 20.4527 26.1366C23.0201 28.4222 25.1016 29.1525 25.8462 29.463C26.4011 29.693 27.0624 29.6384 27.4678 29.2071C27.9824 28.6523 28.6178 27.7323 29.2646 26.8266C29.7246 26.1769 30.3054 26.0964 30.9149 26.3264C31.5359 26.542 34.822 28.1664 35.4976 28.5027C36.1733 28.842 36.6189 29.003 36.7827 29.2876C36.9437 29.5723 36.9437 30.9091 36.3889 32.4789Z" fill="#49566C"/>
</svg>
