<svg version="1" xmlns="http://www.w3.org/2000/svg" viewBox="0 0 512 512">
  <path d="M273 337h137c5 0 8-3 8-8v-77c0-5-3-9-8-9H273c-5 0-8 4-8 9v77c0 5 3 8 8 8zm9-77h119v60H282v-60zM43 226h68c5 0 8-3 8-8s-3-9-8-9H43c-5 0-9 4-9 9s4 8 9 8zM145 226h68c5 0 9-3 9-8s-4-9-9-9h-68c-5 0-8 4-8 9s3 8 8 8zM43 260h111c5 0 8-3 8-8s-3-9-8-9H43c-5 0-9 4-9 9s4 8 9 8zM213 243h-25c-5 0-9 4-9 9s4 8 9 8h25c5 0 9-3 9-8s-4-9-9-9z"/>
  <path d="M504 137c-6-7-13-11-23-12l-20-3V81c0-19-16-34-34-34H34C15 47 0 62 0 81v273c0 16 10 29 24 33 0 17 13 32 31 34l394 44h3c17 0 33-13 34-29l26-274c1-8-2-18-8-25zM17 107h427v51H17v-51zm17-43h393c9 0 17 8 17 17v9H17v-9c0-9 8-17 17-17zM17 354V175h427v179c0 10-8 17-17 17H34c-9 0-17-7-17-17zm478-195l-26 274c-1 9-9 16-18 15L57 404c-8-1-14-8-15-16h385c18 0 34-15 34-34V138l19 2c5 0 9 3 12 6 2 3 4 9 3 13z"/>
</svg>
