<?xml version="1.0" encoding="utf-8"?>
<!-- Generator: Adobe Illustrator 21.0.0, SVG Export Plug-In . SVG Version: 6.00 Build 0)  -->
<svg version="1.1" id="Слой_1" xmlns="http://www.w3.org/2000/svg" xmlns:xlink="http://www.w3.org/1999/xlink" x="0px" y="0px"
	 viewBox="0 0 54 50" style="enable-background:new 0 0 54 50;" xml:space="preserve">
<style type="text/css">
	.st0{fill:#FFFFFF;}
</style>
<path class="st0" d="M1,7h3v4l1,1h12l1-1V7h35c0.6,0,1-0.4,1-1s-0.4-1-1-1H18V1l-1-1H5L4,1v4H1C0.4,5,0,5.4,0,6S0.4,7,1,7z M6,2h10
	v8H6V2z M53,24H34v-4l-1-1H21l-1,1v4H1c-0.6,0-1,0.4-1,1s0.4,1,1,1h19v4l1,1h12l1-1v-4h19c0.6,0,1-0.4,1-1S53.6,24,53,24z M32,29H22
	v-8h10V29z M53,43h-3v-4l-1-1H37l-1,1v4H1c-0.6,0-1,0.4-1,1s0.4,1,1,1h35v4l1,1h12l1-1v-4h3c0.6,0,1-0.4,1-1S53.6,43,53,43z M48,48
	H38v-8h10V48z"/>
</svg>
