<?xml version="1.0" encoding="utf-8"?>
<!-- Generator: Adobe Illustrator 21.0.0, SVG Export Plug-In . SVG Version: 6.00 Build 0)  -->
<svg version="1.1" id="Слой_1" xmlns="http://www.w3.org/2000/svg" xmlns:xlink="http://www.w3.org/1999/xlink" x="0px" y="0px"
	 viewBox="0 0 455 354.6" style="enable-background:new 0 0 455 354.6;" xml:space="preserve">
<style type="text/css">
	.st0{fill:#FFFFFF;}
</style>
<path class="st0" d="M454,182.5l-3-3h1L158,1.5c-2-2-6-2-8,0L4,78.5c-3.9,2.1-5.3,7-3.1,10.9c0.7,1.3,1.8,2.4,3.1,3.1l294,183
	c2.5,1.4,5.5,1.4,8,0l145-82C455,190.5,456,185.5,454,182.5z M303,259.5L24,86.5l130-69l277,168L303,259.5z"/>
<path class="st0" d="M454,221.5c-2-4-7-6-11-3h1l-141,80l-291-181c-3.9-2.2-8.8-0.9-11,3s-0.9,8.8,3,11l294,183c2.5,1.4,5.5,1.4,8,0
	l145-82C455,229.5,456,224.5,454,221.5z"/>
<path class="st0" d="M453,259.5c-3-2-6-3-9-2l-142,80l-290-181c-3.9-2.2-8.8-0.9-11,3s-0.9,8.8,3,11l294,183c2.5,1.4,5.5,1.4,8,0
	l145-83C455,268.5,455,263.5,453,259.5z M274,95.5c-2.6-3.6-7.6-4.3-11.2-1.7c-0.3,0.2-0.6,0.4-0.8,0.7l-9,8l-9-6c-4-2-9-3-13-2
	c-5,0-8,2-12,5c-3,3-5,6-6,11c0,4,0,8,2,13l4,10l-16,14v-2c-1-4-1-8,1-11l1-6l-2-4l-6-3c-2,0-4,0-6,2c-3,2-4,6-5,9c-1,5,0,10,1,15
	l5,9l-9,8c-3.3,2.9-3.6,8-0.7,11.3c1.5,1.7,3.5,2.6,5.7,2.7c2,0,4,0,6-2l9-8l10,8c9,5,21,3,28-4c3-2,5-5,6-9l-1-12l-6-15v-1l13-11
	v13c0,2,0,4,2,6c1,2,4,3,6,3s4,0,6-2l3-6v-9c-0.8-5.4-2.9-10.5-6-15l8-8C276,103.5,276,98.5,274,95.5z M225,160.5c-3,1-5,2-8,1l-4-2
	l13-12l2,5C228,155.5,227,158.5,225,160.5z M232,121.5v-4c-1-2,0-5,2-6c2-2,4-2,7-1l2,1L232,121.5z"/>
</svg>
