<svg version="1" xmlns="http://www.w3.org/2000/svg" viewBox="0 0 96 120">
  <path d="M74 49V11h-8v6h-3c-2-3-8-12-14-12h-2c-9-1-15-1-16 1v3l3 3h-4s-4 1-4 6l3 4c-1 1-2 3-1 5l1 2-2 4 2 5v6c0 1 1 2 4 2l-4 4c-10 8-8 21-6 30l1 6v5l3-1h2a77 77 0 0 0 36 0h3l2 1 1-5 1-6c1-9 3-22-7-30l-4-4v-1h5v4h8zm-5-35h2v32h-2V14zm-6 38c9 7 7 19 6 27l-1 8h-4a75 75 0 0 1-34 0h-3l-1-8c-2-8-3-20 5-27l6-5 13 1 8-1 5 5zm-3-10l-1 1c-4 4-15 2-21 1l-5-1h-2l1-4h2v-3c-3 0-4-2-4-3l1-2h2v-2l-3-3 1-3 2 1 1-3-5-3 1-3h8l4 2 1-3c-2-1-9-4-10-6 2-2 11-1 14-1l2 1c3 0 9 7 11 11l1 1h5v21l-6 1z"/>
  <path d="M56 56v-3h-7v-3h-3v3h-3l-3 1a5 5 0 0 0-2 3l-1 2v2l1 2v2l2 1h6v8h-7v3h7v3h3v-3h3c3 0 5-2 5-5v-3c0-3-2-5-5-5h-3v-8h7zm-4 11c1 0 2 0 2 2v3l-2 2h-3v-8h3zm-6-3h-3l-1-1h-1v-1l-1-1v-2l1-1v-1l2-1h3v8z"/>
</svg>
