<?xml version="1.0" encoding="utf-8"?>
<!-- Generator: Adobe Illustrator 21.0.0, SVG Export Plug-In . SVG Version: 6.00 Build 0)  -->
<svg version="1.1" id="Слой_1" xmlns="http://www.w3.org/2000/svg" xmlns:xlink="http://www.w3.org/1999/xlink" x="0px" y="0px"
	 viewBox="0 0 439 497" style="enable-background:new 0 0 439 497;" xml:space="preserve">
<style type="text/css">
	.st0{fill:#FFFFFF;}
</style>
<path class="st0" d="M435,142L301,2l-6-2H8C3,0,0,3,0,8v481c0,5,3,8,8,8h421c5,0,8-3,8-8V147L435,142z M303,26l109,113H303V26z
	 M422,482H15V15h273v132c0,4,3,7,7,7h127V482z"/>
<path class="st0" d="M143,38H47c-5,0-8,3-8,8v96c0,5,3,8,8,8h96c5,0,8-3,8-8V46C151,41,148,38,143,38z M136,135H54V53h82V135z
	 M115,191H53c-5,0-8,3-8,8v59c0,5,3,8,8,8h62c4,0,7-3,7-8v-59C122,194,119,191,115,191z M107,251H60v-45h47V251z M115,285H53
	c-5,0-8,3-8,8v59c0,5,3,8,8,8h62c4,0,7-3,7-8v-59C122,289,119,285,115,285z M107,345H60v-45h47V345z M115,380H53c-5,0-8,3-8,8v59
	c0,5,3,8,8,8h62c4,0,7-3,7-8v-59C122,383,119,380,115,380z M107,440H60v-45h47V440z M184,62h70c4,0,7-3,7-7s-3-8-7-8h-70
	c-5,0-8,3-8,8C176,59,179,62,184,62z M184,102h70c4,0,7-3,7-8c0-4-3-7-7-7h-70c-5,0-8,3-8,7C176,99,179,102,184,102z M184,141h70
	c4,0,7-3,7-8s-3-7-7-7h-70c-5,0-8,3-8,7C176,138,179,141,184,141z M152,258c0,5,3,8,8,8h202c5,0,8-3,8-8c0-5-4-7-8-7H160
	C155,251,152,254,152,258z M362,345H160c-5,0-8,3-8,7s3,8,8,8h202c5,0,8-3,8-8C370,349,366,345,362,345z M362,440H160c-5,0-8,3-8,7
	s3,8,8,8h202c5,0,8-3,8-8S366,440,362,440z M288,182l-54,41l-9-23c-1-4-6-6-10-5c-3,2-6,6-4,10l12,33c1,2,3,4,5,4c3,1,5,0,7-1l63-47
	c3-2,3-7,1-10S292,180,288,182z M228,339c3,1,5,0,7-2l63-46c3-3,3-8,1-11s-7-4-11-1l-54,40l-9-24c-1-4-6-6-10-4c-3,1-6,6-4,9l12,34
	C224,337,226,338,228,339z M228,431c3,1,5,0,7-1l63-47c3-2,3-7,1-10s-7-4-11-2l-54,42l-9-24c-1-4-6-7-10-5c-3,2-6,6-4,10l12,33
	C224,429,226,431,228,431z"/>
</svg>
