<svg version="1" xmlns="http://www.w3.org/2000/svg" viewBox="0 0 91 114">
  <path d="M21 67a118 118 0 0 0 50 15l1 1 12 2c4 0 5-5 1-6a837 837 0 0 0-11-3v-4l2-16 13-2v-2l-15-1-3 2v4l-5-2-6-4c-4-2-9-1-14-1h-8l-5 1-1 3-2-2-3-4c-2-2-4-5-7-6-2 0-6 0-6 3v3l-6-2c-4-1-7 1-7 5 1 4 5 6 8 8l12 8zm4-15l1 1h-2l-6-3-1-4c3-1 7 4 8 6zM6 51c0-2 1-1 2-1l3 2 15 6c4 2 9 3 14 3h17c3 0 3-4 0-4H40l-4-1v-2h21c3 0 5 3 8 5l5 2a63 63 0 0 0-1 16l-14-2a148 148 0 0 1-45-21l-4-3zM21 29l1 8c3 5 11 4 16 5h10c2-1 5-1 6-3 2-2 1-5 2-8v-9l3-1c2 0 2-4 0-4h-7c1-3 1-6-1-8-2-3-8-2-12-2-3 0-9-1-11 2-3 2-3 6-3 9h-8v2l4 1v8zm10 7c-2-1-4-1-4-3l-1-2h5v5zm3-14h8v5h-8v-5zm5 14h-4v-5h1l6 1v4h-3zm11-3l-1 3h-3v-4h5l-1 1zm1-11v6l-6-1v-5h6zM31 12l5-1h3l8 1c2 0 2 3 2 5l-11 1h-8l1-6zm0 10v5l-5 1-2-7 7 1z"/>
</svg>
