<?xml version="1.0" encoding="utf-8"?>
<!-- Generator: Adobe Illustrator 21.0.0, SVG Export Plug-In . SVG Version: 6.00 Build 0)  -->
<svg version="1.1" id="Слой_1" xmlns="http://www.w3.org/2000/svg" xmlns:xlink="http://www.w3.org/1999/xlink" x="0px" y="0px"
	 viewBox="0 0 497 497" style="enable-background:new 0 0 497 497;" xml:space="preserve">
<style type="text/css">
	.st0{fill:#FFFFFF;}
</style>
<path class="st0" d="M475,107l-12-4l-10-1c-13,0-25,9-30,21l-6,21v-16l-3-6L290,2l-5-2H43c-4,0-7,3-7,8v23H8c-5,0-8,3-8,7v451
	c0,5,3,8,8,8h366c4,0,7-3,7-8v-23h28c5,0,8-3,8-7V357l21-29v-2l57-180C501,130,492,112,475,107z M292,26l99,94h-99V26z M366,482H15
	V46h21v413c0,4,3,7,7,7h323V482z M402,451H51V15h226v113c0,5,3,8,8,8h117v56l-35,111v3l1,95c0,3,3,6,6,7s6,0,8-3l20-27V451z
	 M383,378l-2-63l38,13L383,378z M481,142l-54,172l-44-14l55-172c3-8,12-14,20-11l12,4C479,123,484,133,481,142z"/>
<path class="st0" d="M102,136h108c5,0,8-3,8-8V51c0-4-3-7-8-7H102c-5,0-8,3-8,7v77C94,132,98,136,102,136z M109,59h94v61h-94V59z
	 M87,206h229c4,0,7-3,7-7c0-5-3-8-7-8H87c-5,0-8,3-8,8C79,203,82,206,87,206z M87,261h229c4,0,7-3,7-7c0-4-3-8-7-8H87c-5,0-8,3-8,8
	C79,259,82,261,87,261z M87,316h229c4,0,7-3,7-7s-3-8-7-8H87c-5,0-8,3-8,8S82,316,87,316z M322,364c0-5-3-8-7-8H87c-5,0-8,3-8,8
	s3,7,8,7h229C319,371,322,367,322,364z M347,411H234c-5,0-8,3-8,8s3,7,8,7h113c4,0,7-3,7-7S351,411,347,411z"/>
</svg>
