<svg xmlns="http://www.w3.org/2000/svg" version="1" viewBox="1 -172 576 575" >
  <path d="M240 87h38v19h-38zm0 0"/>
  <path d="M568 58l-65-9A329 329 0 0 0 332 0h-11c-55 1-108 14-156 40l-33 18C93 59 55 69 22 88 8 96 0 110 0 126v57c0 5 4 9 10 9h32a57 57 0 0 0 108 0h257a57 57 0 0 0 108 0h7l31-13c14-5 23-19 23-34V68c0-5-4-9-8-10zM134 181a38 38 0 1 1-76-15 38 38 0 0 1 76 15zm173-8H154a58 58 0 1 0-116 0H19v-47c0-9 5-17 13-21 31-18 66-28 102-28h173zm0-115H172l2-1c41-22 87-35 133-37zm19-38h6c39 0 77 7 113 21l-17 17H326zm172 161a38 38 0 1 1-75-15 38 38 0 0 1 75 15zm59-94h-29v19h29v39c0 8-4 14-11 16l-28 12v-3-3-3l-1-3-1-2v-3l-1-3-1-2-1-3-2-2-1-3-2-2-1-2-2-3-2-1-2-3-2-1-2-2-2-2-2-2-3-1-2-1-2-2-3-1-3-1-2-1-3-1h-3l-3-1h-8c-32 0-58 25-58 57h-77V77h106c3 0 5-1 7-3l25-24a308 308 0 0 1 34 18l59 8zm0 0"/>
</svg>
