<?xml version="1.0" encoding="utf-8"?>
<!-- Generator: Adobe Illustrator 21.0.0, SVG Export Plug-In . SVG Version: 6.00 Build 0)  -->
<svg version="1.1" id="Слой_1" xmlns="http://www.w3.org/2000/svg" xmlns:xlink="http://www.w3.org/1999/xlink" x="0px" y="0px"
	 viewBox="0 0 56 58.1" style="enable-background:new 0 0 56 58.1;" xml:space="preserve">
<style type="text/css">
	.st0{fill:#FFFFFF;}
</style>
<path class="st0" d="M10,16l2,3l3,1h1l2,2c0,2-1,3-3,3l-3-2h-1l-1,1c1,1,2,3,4,3v2l1,1l1-1v-2c2,0,4-2,4-4c0-3-2-5-4-5h-1l-2-1l-1-1
	c0-2,2-3,3-3l3,2l1,1l1-1l-4-4V9l-1-1l-1,1v2C12,12,10,14,10,16z"/>
<path class="st0" d="M1,58h40l1-1v-7h13l1-1v-6l-1-1l-10-2v-4h1l1-1l1-8l-1-1h-5V1l-1-1H9H8L0,8v49L1,58z M54,48H28v-4l10-2h6l10,2
	V48z M43,40h-4v-4h4V40z M45,34h-8l-1-6h10L45,34z M40,26h-5l-1,1l2,8l1,1v4l-10,2l-1,1v6l1,1h13v6H2V10h7l1-1V2h30V26z M8,3v5H3
	L8,3z"/>
<path class="st0" d="M27,14h8l1-1l-1-1h-8l-1,1L27,14z M27,18h8l1-1l-1-1h-8l-1,1L27,18z M27,22h8l1-1l-1-1h-8l-1,1L27,22z M27,32H7
	l-1,1l1,1h20l1-1L27,32z M27,36H7l-1,1l1,1h20l1-1L27,36z M22,40H7l-1,1l1,1h15l1-1L22,40z"/>
</svg>
