<?xml version="1.0" encoding="utf-8"?>
<!-- Generator: Adobe Illustrator 21.0.0, SVG Export Plug-In . SVG Version: 6.00 Build 0)  -->
<svg version="1.1" id="Слой_1" xmlns="http://www.w3.org/2000/svg" xmlns:xlink="http://www.w3.org/1999/xlink" x="0px" y="0px"
	 viewBox="0 0 511 512" style="enable-background:new 0 0 511 512;" xml:space="preserve">
<style type="text/css">
	.st0{fill:#FFFFFF;}
</style>
<path class="st0" d="M236,347c4.4-3.3,5.3-9.6,2-14s-9.6-5.3-14-2c-0.8,0.6-1.4,1.2-2,2c-3.3,4.4-2.4,10.7,2,14
	C227.6,349.7,232.4,349.7,236,347z M188,110c0,61,49.5,110.5,110.5,110.5S409,171,409,110S359.5-0.5,298.5-0.5S188,49,188,110z
	 M388,110c0,49.7-40.3,90-90,90s-90-40.3-90-90s40.3-90,90-90S388,60.3,388,110z"/>
<path class="st0" d="M116,509c4,4,10,4,14,0l48-48c8-8,11-20,7-31l11-10c5-5,13-8,21-8h132c24,0,46-9,63-26l91-108
	c14.4-16.8,12.3-42.1-4.5-56.5c-16.8-14.4-42.1-12.3-56.5,4.5l0,0l-59,61c-7-9-19-15-31-15H241c-16-7-33-10-51-10
	c-48,0-90,22-112,64c-10-2-20,1-27,8L3,382c-3,4-3,10,0,14L116,509z M190,282c16,0,31,3,44,9l4,1h114c11,0,20,9,20,20s-9,20-20,20
	h-82c-5.5,0-10,4.5-10,10s4.5,10,10,10h82c22.1,0.2,40.1-17.6,40.3-39.7c0-1.8-0.1-3.6-0.3-5.3l65-68c7.2-8.6,19.9-9.7,28.5-2.5
	s9.7,19.9,2.5,28.5l0,0l-90,107c-13.1,12.8-30.7,20-49,20H217c-13,0-26,5-35,14l-9,8l-78-78C113,301,148,282,190,282z M65,348
	c3-3,8-4,13-1l86,86c4,4,4,10,0,14l-41,41l-98-99L65,348z M286,50v12c-15.5,5.9-23.2,23.3-17.3,38.8c4.4,11.3,15.1,18.9,27.3,19.2
	c5.5,0,10,4.5,10,10c0,5.5-4.5,10-10,10c-4,0-8-3-13-8c-4.1-3.7-10.4-3.4-14.1,0.7c-3.1,3.4-3.4,8.5-0.9,12.3c5,7,12,11,18,13v12
	c0,5.5,4.5,10,10,10s10-4.5,10-10v-12c15.5-5.9,23.2-23.3,17.3-38.8c-4.4-11.3-15.1-18.9-27.3-19.2c-5.5,0-10-4.5-10-10
	s4.5-10,10-10c4,0,8,2,11,5c4.4,3.3,10.7,2.4,14-2c2.7-3.6,2.7-8.4,0-12c-5-5-10-8-15-9V50c0-5.5-4.5-10-10-10S286,44.5,286,50z"/>
</svg>
