<svg version="1" xmlns="http://www.w3.org/2000/svg" viewBox="0 0 512 512">
  <circle cx="303" cy="93" r="12"/>
  <path d="M509 329a77 77 0 0 0-92-13l-48 23c-14 6-29 9-43 10 7-10 11-22 11-35s-10-23-23-23H194c-31 0-59 13-79 36l-41 47c-7-8-17-13-27-13H12a12 12 0 1 0 0 23h35c6 0 11 5 11 12v69c0 7-5 12-11 12H12a12 12 0 1 0 0 23h35c19 0 34-15 34-35v-65l51-58c16-18 38-28 62-28h120c0 19-15 35-35 35h-70a12 12 0 1 0 0 23h113c19 0 39-4 56-12l50-23c17-10 37-9 53 0l-97 73c-18 14-40 22-62 25l-164 18-14 1h-28a12 12 0 1 0 0 23h28l16-1 164-18c27-3 53-13 74-29l109-82a12 12 0 0 0 2-18zM460 100l-18-12V23c0-6-5-11-11-11h-47c-6 0-12 5-12 11v22l-42-26a54 54 0 0 0-55 0l-130 81c-11 6-17 17-17 29v11c0 6 5 11 12 11h23v105a12 12 0 1 0 23 0V140c0-7-5-12-11-12h-24c1-4 3-7 6-9l130-80c9-5 22-5 31 0l130 80c3 2 5 5 6 9h-23c-7 0-12 5-12 12v139a12 12 0 1 0 23 0V151h23c7 0 12-5 12-11v-11c0-12-6-23-17-29zm-41-26l-24-14 1-2V35h23v39z"/>
  <path d="M291 151h-70c-6 0-12 5-12 12v93a12 12 0 1 0 24 0v-81h46v46a12 12 0 1 0 0 23v12a12 12 0 1 0 24 0v-93c0-7-6-12-12-12zM384 151h-58c-7 0-12 5-12 12v70c0 6 5 11 12 11h58c6 0 12-5 12-11v-70c0-7-6-12-12-12zm-12 70h-35v-46h35v46z"/>
</svg>
