<?xml version="1.0" encoding="utf-8"?>
<!-- Generator: Adobe Illustrator 21.0.0, SVG Export Plug-In . SVG Version: 6.00 Build 0)  -->
<svg version="1.1" id="Слой_1" xmlns="http://www.w3.org/2000/svg" xmlns:xlink="http://www.w3.org/1999/xlink" x="0px" y="0px"
	 viewBox="0 0 380 512" style="enable-background:new 0 0 380 512;" xml:space="preserve">
<style type="text/css">
	.st0{fill:#FFFFFF;}
	.st1{fill:none;stroke:#FFFFFF;stroke-width:14;stroke-miterlimit:10;}
</style>
<path class="st0" d="M329,0H29C13,0-1,14-1,30v452c0,16,14,30,30,30h300c28,0,50-22,50-50V50C379,22,357,0,329,0z M45,492H29
	c-5,0-10-5-10-10V30c0-5,5-10,10-10h16V492z M359,462c0,17-13,30-30,30H65V20h264c17,0,30,14,30,30V462z"/>
<circle class="st1" cx="208" cy="189" r="84"/>
<path class="st0" d="M177,388c-5,0-10,4-10,10s5,10,10,10c6,0,10-5,10-10S183,388,177,388z M247,388h-41c-5,0-10,4-10,10s5,10,10,10
	h41c6,0,10-5,10-10S253,388,247,388z M264,430H161c-6,0-10,4-10,10s4,10,10,10h103c5,0,10-5,10-10S269,430,264,430z M134,36H93
	c-5,0-10,5-10,10s5,10,10,10h41c6,0,10-4,10-10S140,36,134,36z M163,36c-6,0-10,5-10,10s4,10,10,10s10-4,10-10S169,36,163,36z"/>
</svg>
