<?xml version="1.0" encoding="utf-8"?>
<!-- Generator: Adobe Illustrator 21.0.0, SVG Export Plug-In . SVG Version: 6.00 Build 0)  -->
<svg version="1.1" id="Слой_1" xmlns="http://www.w3.org/2000/svg" xmlns:xlink="http://www.w3.org/1999/xlink" x="0px" y="0px"
	 viewBox="0 0 456.6 91.1" style="enable-background:new 0 0 456.6 91.1;" xml:space="preserve">
<style type="text/css">
	.st0{fill:#5D21D2;}
	.st1{fill:#353635;}
	.st2{fill:#888686;}
</style>
<title>logo</title>
<path class="st0" d="M0,0h91.1v91.1H0V0z M87.4,87.4V49.2L49.2,87.4H87.4z M87.4,41.9V3.7H49.2L87.4,41.9z M3.7,87.4h38.1L3.7,49.3
	V87.4z M3.7,3.7v37.8L41.5,3.7H3.7z M28.2,45l16.9,17L62,45.2l-17-17L28.2,45z M67.4,27.5v35.7l17.9-17.9L67.4,27.5z M45.4,85.3
	l17.9-17.9H27.6L45.4,85.3z M45.6,5.7l-17,17h34.1L45.6,5.7z M22.8,62.7V28.2L5.6,45.5L22.8,62.7z M41.2,26.5H26.5v14.6L41.2,26.5z
	 M63.7,26.5H49.1l14.6,14.6L63.7,26.5z M26.5,49.1v14.6h14.6L26.5,49.1z M63.7,49.1L49.1,63.7h14.6V49.1z"/>
<path class="st1" d="M118,23l-0.1,6.9h3.6l4.3-0.1l0.4,0.4l-0.4,4l-4.7-0.1h-3.2v2l0.2,8.1h-5.4l0.3-7.7l-0.3-18h15.2l0.3,0.4
	l-0.4,4.1l-6.1-0.2L118,23z"/>
<path class="st1" d="M135.8,17.5c0.5,0.5,0.7,1.3,0.7,2c0,0.8-0.2,1.6-0.8,2.1c-0.5,0.5-1.3,0.8-2.1,0.8c-0.7,0-1.5-0.2-2-0.7
	c-0.5-0.5-0.7-1.3-0.7-2c0-0.8,0.2-1.5,0.8-2.1c0.6-0.6,1.3-0.8,2.1-0.8C134.6,16.8,135.3,17,135.8,17.5z M131.4,36.7l-0.2-10.5
	l5.2-0.4l-0.2,10.5l0.2,8.2h-5.3L131.4,36.7z"/>
<path class="st1" d="M153.8,32.8c0.1-0.8-0.1-1.5-0.6-2.2c-0.5-0.5-1.2-0.8-1.9-0.8c-1.4,0.1-2.8,0.7-3.8,1.7v4.6l0.2,8.2h-5.3
	l0.3-7.7l-0.2-10.5l5-0.4v2.7h0.3c1.4-1.3,3-2.3,4.8-2.9c1.7-0.1,3.3,0.4,4.6,1.4c1.1,1,1.7,2.5,1.5,4l-0.1,5.3l0.2,8.1h-5.3
	L153.8,32.8z"/>
<path class="st1" d="M176.7,26.9c1.2,0.9,1.8,2.4,1.7,3.8c0,0.5-0.1,2-0.2,4.5c0,0.7,0,1.5-0.1,2.3c-0.1,0.8-0.1,1.4-0.1,2
	c0,0.3,0,0.7,0.2,0.9c0.2,0.2,0.5,0.3,0.7,0.3c0.3,0,0.7-0.1,1-0.2l0.4,0.3l-0.5,2.8c-0.9,0.6-1.9,0.9-2.9,1c-0.7-0.1-1.4-0.4-2-0.9
	c-0.6-0.6-0.9-1.3-1.1-2h-0.3c-1.1,1.3-2.5,2.3-4.1,3c-1.6,0.1-3.2-0.5-4.5-1.5c-1.1-1-1.7-2.5-1.6-4c-0.1-1.1,0.3-2.2,1-3.1
	c0.8-0.8,1.9-1.4,3.1-1.5l6.1-1.2v-1.6c0.2-1.2-0.7-2.4-1.9-2.6c-0.2,0-0.4,0-0.6,0c-0.9,0-1.8,0.2-2.6,0.6
	c-1.1,0.5-2.1,1.1-3.1,1.7l-0.4-0.3l-0.6-3.5c1.1-0.7,2.4-1.3,3.7-1.7c1.3-0.4,2.6-0.6,3.9-0.6C173.5,25.4,175.3,25.9,176.7,26.9z
	 M169.3,37c-0.4,0.1-0.7,0.3-0.9,0.5c-0.2,0.3-0.3,0.7-0.3,1.1c0,0.6,0.2,1.2,0.6,1.6c0.4,0.4,1,0.6,1.6,0.6
	c1.3-0.1,2.5-0.8,3.3-1.8l0.1-3L169.3,37z"/>
<path class="st1" d="M195.9,32.8c0.1-0.8-0.1-1.5-0.6-2.2c-0.5-0.5-1.2-0.8-1.9-0.8c-1.4,0.1-2.8,0.7-3.8,1.7v4.6l0.2,8.2h-5.3
	l0.3-7.7l-0.2-10.5l5-0.4v2.7h0.2c1.4-1.3,3-2.3,4.8-2.9c1.7-0.1,3.3,0.4,4.6,1.4c1.1,1,1.7,2.5,1.5,4l-0.1,5.3l0.2,8.1h-5.3
	L195.9,32.8z"/>
<path class="st1" d="M216.8,25.8c0.8,0.2,1.6,0.4,2.3,0.7l-0.9,4.2l-0.4,0.2c-1.1-0.7-2.3-1.1-3.6-1.1c-1.1-0.1-2.2,0.4-2.8,1.3
	c-0.7,1.1-1.1,2.4-1,3.7c-0.1,1.5,0.3,3,1.1,4.3c0.7,1,1.9,1.5,3.1,1.5c1.4,0,2.8-0.4,4-1l0.4,0.3l-0.5,4.1
	c-1.6,0.5-3.2,0.8-4.9,0.8c-2.3,0.1-4.5-0.8-6-2.5c-1.5-2-2.3-4.5-2.1-7c-0.2-2.6,0.7-5.2,2.3-7.2c1.7-1.8,4.1-2.7,6.5-2.6
	C215.1,25.5,216,25.6,216.8,25.8z"/>
<path class="st1" d="M237.3,35.8l-10.8,0.1c0.2,3.3,1.9,5,5.1,5c1.9-0.1,3.8-0.5,5.5-1.4l0.4,0.3l-0.8,3.9c-1.8,0.7-3.7,1.1-5.7,1.1
	c-2.5,0.1-5-0.8-6.9-2.5c-1.7-1.9-2.6-4.5-2.5-7.1c-0.1-2.6,0.7-5.1,2.4-7.1c1.7-1.8,4.1-2.7,6.6-2.6c2-0.1,4,0.6,5.5,1.9
	c1.4,1.5,2,3.4,1.9,5.4c0,0.8-0.1,1.5-0.2,2.3L237.3,35.8z M233.5,32.2c0.1-0.9-0.2-1.7-0.7-2.4c-0.5-0.6-1.3-0.9-2.1-0.8
	c-1,0-1.9,0.3-2.6,1c-0.8,0.8-1.2,1.8-1.4,2.9l6.7-0.2L233.5,32.2z"/>
<path class="st1" d="M277.2,44.4h-4.8l-0.4-7.8l-0.9-9.9h-0.4l-5.7,15h-4.1l-5.2-15h-0.4l-1,9.4l-0.6,8.3h-4.5l2.6-25.7h6.2l1,3.8
	l4.1,12.2h0.4l4.3-12.2l1.2-3.8h6.1L277.2,44.4z"/>
<path class="st1" d="M294.3,26.9c1.2,0.9,1.8,2.4,1.7,3.8c0,0.5-0.1,2-0.2,4.5c0,0.7,0,1.5-0.1,2.3c-0.1,0.8-0.1,1.4-0.1,2
	c0,0.3,0,0.7,0.2,0.9c0.2,0.2,0.5,0.3,0.7,0.3c0.3,0,0.7-0.1,1-0.2l0.4,0.3l-0.5,2.8c-0.9,0.6-1.9,0.9-2.9,1c-0.7-0.1-1.4-0.4-2-0.9
	c-0.6-0.6-0.9-1.3-1.1-2h-0.3c-1.1,1.3-2.5,2.3-4.1,3c-1.6,0.1-3.2-0.5-4.5-1.5c-1.1-1-1.7-2.5-1.6-4c-0.1-1.1,0.3-2.2,1-3.1
	c0.8-0.8,1.9-1.4,3.1-1.5l6.1-1.2v-1.6c0.2-1.2-0.7-2.4-1.9-2.6c-0.2,0-0.4,0-0.6,0c-0.9,0-1.8,0.2-2.6,0.6
	c-1.1,0.5-2.1,1.1-3.1,1.7l-0.4-0.2l-0.6-3.5c1.1-0.7,2.4-1.3,3.7-1.7c1.3-0.4,2.6-0.6,3.9-0.6C291.1,25.4,292.8,25.9,294.3,26.9z
	 M286.8,37c-0.4,0.1-0.7,0.3-0.9,0.5c-0.2,0.3-0.3,0.7-0.3,1.1c0,0.6,0.2,1.2,0.6,1.6c0.4,0.4,1,0.6,1.6,0.6
	c1.3-0.1,2.5-0.8,3.3-1.8l0.1-3L286.8,37z"/>
<path class="st1" d="M313.3,25.9v4.9l-0.6,0.2c-0.5-0.2-1-0.3-1.5-0.3c-1.5,0-2.9,1-4.2,3v2.5l0.3,8.2h-5.3l0.3-7.7l-0.2-10.5l5-0.4
	v3.6h0.3c1.3-2.4,3-3.6,4.9-3.6C312.7,25.8,313,25.9,313.3,25.9z"/>
<path class="st1" d="M321.8,36.2l0.3,8.2h-5.3l0.3-7.7l-0.2-19.9l5.3-0.4L321.8,36.2z M327.2,34.2c1.4,2.3,3.6,5.4,6.5,9.3v0.6
	c-1,0.2-2,0.4-3,0.5l-1.9,0.2l-0.6-0.2c-2.2-3.1-4.3-6.4-6.1-9.8v-0.4l4.6-6.6l1-1.9h5.6L327.2,34.2z"/>
<path class="st1" d="M351.1,35.8l-10.8,0.1c0.2,3.3,1.9,5,5.1,5c1.9-0.1,3.8-0.5,5.5-1.4l0.4,0.3l-0.8,3.9c-1.8,0.7-3.7,1.1-5.7,1.1
	c-2.5,0.1-5-0.8-6.9-2.6c-1.7-1.9-2.6-4.5-2.5-7.1c-0.1-2.6,0.7-5.1,2.4-7.1c1.7-1.8,4.1-2.7,6.6-2.6c2-0.1,4,0.6,5.5,1.9
	c1.4,1.5,2,3.4,1.9,5.4c0,0.8-0.1,1.5-0.2,2.3L351.1,35.8z M347.2,32.2c0.1-0.9-0.2-1.7-0.7-2.4c-0.5-0.6-1.3-0.9-2.1-0.8
	c-1,0-1.9,0.3-2.6,1c-0.8,0.8-1.2,1.8-1.4,2.9l6.7-0.2L347.2,32.2z"/>
<path class="st1" d="M366.7,39.8l0.4,0.4l-0.5,3.1c-1.3,0.7-2.7,1.1-4.1,1.3c-3.6-0.4-5.4-2.1-5.4-5.3l0.2-3.3v-6.9h-2.5l-0.2-0.3
	l0.3-2.9h2.3v-3.1l4.8-1.6l0.4,0.3l-0.1,4.3h4.7l0.2,0.3l-0.2,2.9h-4.7l-0.2,8.9c-0.1,0.6,0.1,1.3,0.5,1.8c0.4,0.4,1,0.6,1.6,0.5
	C365,40.5,365.9,40.2,366.7,39.8z"/>
<path class="st1" d="M387.1,20.7c1.5,1.5,2.3,3.7,2.2,5.8c0,1.8-0.4,3.5-1.3,5.1c-0.9,1.5-2.1,2.6-3.6,3.4c-1.7,0.8-3.6,1.2-5.6,1.2
	h-2.5v0.1l0.2,8.1H371l0.3-7.7l-0.3-18h9.8C383.1,18.6,385.4,19.3,387.1,20.7z M383.6,27c0.1-1.2-0.3-2.3-1.1-3.2
	c-0.9-0.8-2.1-1.2-3.4-1.1l-2.7,0.2l-0.2,9.2l3.7,0.2C382.4,31.6,383.6,29.8,383.6,27z"/>
<path class="st1" d="M398.6,36.2l0.3,8.2h-5.3l0.3-7.7l-0.2-19.9l5.3-0.4L398.6,36.2z"/>
<path class="st1" d="M417,26.9c1.2,0.9,1.8,2.4,1.7,3.8c0,0.5-0.1,2-0.2,4.5c0,0.7,0,1.5-0.1,2.3c-0.1,0.8-0.1,1.4-0.1,2
	c0,0.3,0,0.7,0.2,0.9c0.2,0.2,0.5,0.3,0.7,0.3c0.3,0,0.7-0.1,1-0.2l0.4,0.3l-0.5,2.8c-0.9,0.6-1.9,0.9-2.9,1c-0.7-0.1-1.4-0.4-2-0.9
	c-0.6-0.6-0.9-1.3-1.1-2h-0.3c-1.1,1.3-2.5,2.3-4.1,3c-1.6,0.1-3.2-0.5-4.5-1.5c-1.1-1-1.7-2.5-1.6-4c-0.1-1.1,0.3-2.2,1-3.1
	c0.8-0.8,1.9-1.4,3.1-1.5l6.1-1.2v-1.6c0.2-1.2-0.7-2.4-1.9-2.6c-0.2,0-0.4,0-0.6,0c-0.9,0-1.8,0.2-2.6,0.6
	c-1.1,0.5-2.1,1.1-3.1,1.7l-0.4-0.2l-0.6-3.5c1.1-0.7,2.4-1.3,3.7-1.7c1.3-0.4,2.6-0.6,3.9-0.6C413.8,25.4,415.6,25.9,417,26.9z
	 M409.6,37c-0.4,0.1-0.7,0.3-0.9,0.5c-0.2,0.3-0.3,0.7-0.3,1.1c0,0.6,0.2,1.2,0.6,1.6c0.4,0.4,1,0.6,1.6,0.6
	c1.3-0.1,2.5-0.8,3.3-1.8l0.1-3L409.6,37z"/>
<path class="st1" d="M435.3,25.8c0.8,0.2,1.6,0.4,2.3,0.7l-0.9,4.2l-0.4,0.2c-1.1-0.7-2.3-1.1-3.6-1.1c-1.1-0.1-2.2,0.4-2.8,1.3
	c-0.7,1.1-1.1,2.4-1,3.7c-0.1,1.5,0.3,3,1.1,4.3c0.7,1,1.9,1.5,3.1,1.5c1.4,0,2.8-0.4,4-1l0.4,0.3l-0.5,4.1
	c-1.6,0.5-3.2,0.8-4.9,0.8c-2.3,0.1-4.5-0.8-6-2.5c-1.5-2-2.3-4.5-2.1-7c-0.2-2.6,0.7-5.2,2.3-7.2c1.7-1.8,4.1-2.7,6.5-2.6
	C433.5,25.5,434.4,25.6,435.3,25.8z"/>
<path class="st1" d="M455.8,35.8L445,35.9c0.2,3.3,1.9,5,5.1,5c1.9-0.1,3.8-0.5,5.5-1.4l0.4,0.3l-0.8,3.9c-1.8,0.7-3.7,1.1-5.7,1.1
	c-2.5,0.1-5-0.8-6.9-2.5c-1.7-1.9-2.6-4.5-2.5-7.1c-0.1-2.6,0.7-5.1,2.4-7.1c1.7-1.8,4.1-2.7,6.6-2.6c2-0.1,4,0.6,5.5,1.9
	c1.4,1.5,2,3.4,1.9,5.4c0,0.8-0.1,1.5-0.2,2.3L455.8,35.8z M451.9,32.2c0.1-0.9-0.2-1.7-0.7-2.4c-0.5-0.6-1.3-0.9-2.1-0.8
	c-1,0-1.9,0.3-2.6,1c-0.8,0.8-1.2,1.8-1.4,2.9l6.7-0.2L451.9,32.2z"/>
<path class="st2" d="M123.1,72.3l0.1,4.9h-1.9l0.1-4.7l-0.1-9.4h-7l-0.1,9.2l0.1,4.9h-1.9l0.1-4.7l-0.1-10.9h10.9L123.1,72.3z"/>
<path class="st2" d="M139.4,63.4c1.2,1.6,1.9,3.6,1.7,5.7c0.1,2.2-0.5,4.4-1.8,6.2c-1.3,1.5-3.2,2.3-5.2,2.2c-1.9,0.1-3.7-0.6-4.9-2
	c-2.3-3.6-2.3-8.3,0.1-11.8c1.3-1.4,3.2-2.2,5.2-2.1C136.3,61.3,138.1,62,139.4,63.4z M129.4,69.2c-0.1,1.7,0.3,3.5,1.2,5
	c0.8,1.1,2.2,1.7,3.6,1.6c3.3,0,4.9-2.1,4.9-6.4c0.1-1.7-0.3-3.4-1.2-4.9c-0.9-1.1-2.2-1.7-3.6-1.6C131,63,129.4,65.1,129.4,69.2z"
	/>
<path class="st2" d="M157.4,80.1l-1.5,0.2l-0.3-3.1h-10.8l-0.2,2.9l-1.5,0.2v-4.7h1.3c0.7-0.4,1.2-1.1,1.6-1.8
	c0.5-1.1,0.8-2.3,1-3.4c0.2-1.5,0.5-3.5,0.7-6.2l0.2-2.6h7.5l-0.1,10.8v3.3h2.1L157.4,80.1z M153.5,72.5l-0.1-9.4h-4l-0.1,1.4
	c-0.2,2.3-0.4,4.1-0.7,5.6c-0.2,1.2-0.5,2.3-0.9,3.5c-0.3,0.8-0.8,1.5-1.4,2.1h7L153.5,72.5z"/>
<path class="st2" d="M170.6,69.2c0.8,0.8,1.3,1.9,1.2,3c0.1,1.4-0.5,2.8-1.6,3.6c-1.4,0.9-3,1.4-4.7,1.3h-3.8l0.1-4.7l-0.1-10.9h9.4
	l0.1,0.2l-0.1,1.4h-3.8h-3.6v5h3.4C168.4,68.1,169.6,68.5,170.6,69.2z M168.9,74.8c0.6-0.6,0.9-1.4,0.9-2.3c0.1-0.8-0.3-1.6-0.8-2.2
	c-0.7-0.5-1.6-0.8-2.4-0.8h-2.9v2.7v3.4l2.7,0.1C167.3,75.8,168.2,75.4,168.9,74.8L168.9,74.8z"/>
<path class="st2" d="M187,63.4c1.2,1.6,1.9,3.6,1.7,5.7c0.1,2.2-0.5,4.4-1.8,6.2c-1.3,1.5-3.2,2.3-5.2,2.2c-1.9,0.1-3.7-0.6-4.9-2
	c-2.3-3.6-2.3-8.3,0.1-11.8c1.3-1.4,3.2-2.2,5.2-2.1C183.9,61.3,185.8,62,187,63.4z M177.1,69.2c-0.1,1.7,0.3,3.5,1.2,5
	c0.8,1.1,2.2,1.7,3.6,1.6c3.3,0,4.9-2.1,4.9-6.4c0.1-1.7-0.3-3.4-1.2-4.9c-0.9-1.1-2.2-1.7-3.6-1.6C178.7,63,177.1,65.1,177.1,69.2z
	"/>
<path class="st2" d="M201.7,62.7c0.9,0.9,1.3,2.1,1.2,3.4c0.1,1.5-0.5,3-1.5,4.1c-1.2,1-2.7,1.6-4.3,1.5h-1.9v0.6l0.1,4.9h-2
	l0.1-4.7l-0.1-10.9h4.8C199.4,61.4,200.7,61.8,201.7,62.7z M200.1,68.9c0.6-0.8,0.8-1.7,0.8-2.6c0-2-1.1-3-3.2-3.1l-2.4,0.1
	l-0.1,6.9h2.6C198.7,70,199.5,69.5,200.1,68.9L200.1,68.9z"/>
<path class="st2" d="M213.5,72.3l0.1,4.9h-1.9l0.1-4.7l-0.1-10.9h2L213.5,72.3z M216,68.9c2.1,2.7,4.4,5.4,6.8,7.9V77
	c-0.6,0.2-1.2,0.3-1.8,0.4l-0.2-0.1c-2.6-2.9-4.8-5.7-6.7-8.3v-0.1l5.2-5.9l1-1.4h2.2L216,68.9z"/>
<path class="st2" d="M234.8,62.7c0.9,0.9,1.3,2.1,1.2,3.4c0.1,1.5-0.5,3-1.5,4.1c-1.2,1-2.7,1.6-4.3,1.5h-1.8v0.6l0.1,4.9h-2
	l0.1-4.7l-0.1-10.9h4.8C232.6,61.4,233.8,61.9,234.8,62.7z M233.3,68.9c0.6-0.8,0.8-1.7,0.8-2.6c0-2-1.1-3-3.2-3.1l-2.4,0.1
	l-0.1,6.9h2.6C231.8,70,232.7,69.5,233.3,68.9L233.3,68.9z"/>
<path class="st2" d="M249.1,75.7l-0.1,1.5h-8.8l0.1-4.7l-0.1-10.9h8.8l0.1,0.2l-0.1,1.5l-3.7-0.1h-3.1v5.1h2.9l2.6-0.1l0.1,0.2
	l-0.2,1.5h-2.7h-2.8v2.3l0.1,3.2h3.1l3.8-0.1L249.1,75.7z"/>
<path class="st2" d="M265.7,80.1l-1.5,0.2l-0.3-3.1h-10.9l-0.2,2.9l-1.5,0.2v-4.7h1.3c0.7-0.4,1.2-1.1,1.6-1.8
	c0.5-1.1,0.8-2.3,1-3.4c0.2-1.5,0.5-3.5,0.7-6.2l0.2-2.6h7.5l-0.1,10.8v3.3h2.1L265.7,80.1z M261.8,72.5l-0.1-9.4h-4l-0.1,1.4
	c-0.2,2.3-0.4,4.1-0.7,5.6c-0.2,1.2-0.5,2.3-0.9,3.5c-0.3,0.8-0.8,1.5-1.4,2.1h7L261.8,72.5z"/>
<path class="st2" d="M270.1,72.5L270,61.6l2-0.1l-0.2,12.6h0.2l8-12.5h2l-0.1,10.8l0.1,4.9h-2l0.1-4.7v-7.8h-0.2l-8,12.5h-2
	L270.1,72.5z"/>
<path class="st2" d="M296.2,61.7l-0.1,1.5l-2.7-0.1h-1.6l-0.1,9.2l0.1,4.9h-2l0.1-4.7l-0.1-9.4h-1.6l-2.8,0.1l-0.1-0.2l0.1-1.5H296
	L296.2,61.7z"/>
<path class="st2" d="M309.5,77.2h-2l-0.4-1.6l-0.9-2.7l-3.5-0.1l-3.2,0.1l-1,2.6l-0.4,1.7h-2l5.7-15.6h2.3L309.5,77.2z M305.7,71.2
	l-2.5-7.7H303l-2.8,7.7h2.7H305.7z"/>
</svg>
