<svg xmlns="http://www.w3.org/2000/svg" width="23" height="23">
  <g data-name="Group 15" fill="#b5b5b5">
    <path data-name="Path 11" d="M14 21h-1a1 1 0 0 0 1 2 1 1 0 0 0 0-2z"/>
    <path data-name="Path 12" d="M21 8a1 1 0 0 0 1 0V7a1 1 0 1 0-2 1h1z"/>
    <path data-name="Path 13" d="M17 20h-1a1 1 0 1 0 1 1h1a1 1 0 0 0-1-1z"/>
    <path data-name="Path 14" d="M23 11a1 1 0 1 0-2 0v1a1 1 0 1 0 2 0v-1z"/>
    <path data-name="Path 15" d="M21 17a1 1 0 0 0-2 0v1a1 1 0 0 0 0 1 1 1 0 0 0 1 0l1-1a1 1 0 0 0 0-1z"/>
    <path data-name="Path 16" d="M22 14a1 1 0 0 0-1 0v1a1 1 0 0 0 1 1l1-1a1 1 0 0 0-1-1z"/>
    <path data-name="Path 17" d="M10 21a10 10 0 0 1-3-1 10 10 0 0 1-1-1A10 10 0 0 1 6 4a10 10 0 0 1 11-1l-1 2h4a1 1 0 0 0 0-1l-1-3-1 1a11 11 0 0 0-8-2H9a11 11 0 0 0-7 5 11 11 0 0 0-2 7 11 11 0 0 0 0 1 11 11 0 0 0 3 7 12 12 0 0 0 2 1 11 11 0 0 0 4 2 1 1 0 0 0 1-2z"/>
    <path data-name="Path 18" d="M11 4a1 1 0 0 0-1 1v7l7 4a1 1 0 0 0 1-2l-6-3V5a1 1 0 0 0-1-1z"/>
  </g>
</svg>
