<svg xmlns="http://www.w3.org/2000/svg" viewBox="0 0 112.09 45.81"><defs><style>.cls-1{fill:#00b7f4;}.cls-1,.cls-2,.cls-3{fill-rule:evenodd;}.cls-2{fill:#4b453e;}.cls-3{fill:#42b978;}</style></defs><title>Asset 1</title><g id="Layer_2" data-name="Layer 2"><g id="Слой_1" data-name="Слой 1"><path class="cls-1" d="M0,22.72v8a.49.49,0,0,0,0,.12v3.65a11.27,11.27,0,0,0,22.54,0V17.59a1.76,1.76,0,1,0-3.52,0V34.53A7.74,7.74,0,0,1,5.81,40a7.67,7.67,0,0,1-2.28-5.47V23a.49.49,0,0,0,0-.12V17.59a1.76,1.76,0,1,0-3.52,0v5.13Z"/><path class="cls-2" d="M39.71,34.74a8,8,0,0,1-3.06-.52,5.16,5.16,0,0,1-2-1.47,6.06,6.06,0,0,1-1.15-2.33,12.09,12.09,0,0,1-.36-3.07V14.06h2.69v13a9.83,9.83,0,0,0,.28,2.57,4.23,4.23,0,0,0,.78,1.65,2.83,2.83,0,0,0,1.23.89,4.85,4.85,0,0,0,1.63.26,4.91,4.91,0,0,0,1.64-.26,2.83,2.83,0,0,0,1.23-.89,4.37,4.37,0,0,0,.78-1.65,9.83,9.83,0,0,0,.28-2.57v-13h2.68V27.35A12.09,12.09,0,0,1,46,30.42a6,6,0,0,1-1.14,2.33,5.27,5.27,0,0,1-2,1.47,8,8,0,0,1-3.06.52Zm12.76-10h7.2v2.55h-7.2V24.73Zm23.1-2.39a5.17,5.17,0,0,0-3.17-1.18,3.8,3.8,0,0,0-1.85.43,3.59,3.59,0,0,0-1.26,1.16,5.06,5.06,0,0,0-.72,1.77,10.27,10.27,0,0,0-.23,2.21,6.08,6.08,0,0,0,1.25,4.09,4.05,4.05,0,0,0,3.24,1.44,13.58,13.58,0,0,0,1.71-.1,7.17,7.17,0,0,0,1-.2V22.34Zm0-10.24,2.72-.46V33.89a21.19,21.19,0,0,1-2.26.52,16.69,16.69,0,0,1-3.2.27,7.68,7.68,0,0,1-3-.56,6.29,6.29,0,0,1-2.29-1.59A6.9,6.9,0,0,1,66.09,30a9.76,9.76,0,0,1-.53-3.3A11.26,11.26,0,0,1,66,23.5,7.33,7.33,0,0,1,67.3,21a6,6,0,0,1,2-1.64,6.15,6.15,0,0,1,2.73-.58,6.86,6.86,0,0,1,2.13.29,5.09,5.09,0,0,1,1.37.62V12.1ZM95.66,26.73a10,10,0,0,1-.5,3.25,7.47,7.47,0,0,1-1.43,2.5,6.26,6.26,0,0,1-2.19,1.62,6.59,6.59,0,0,1-2.78.58A6.4,6.4,0,0,1,86,34.1a6.31,6.31,0,0,1-2.18-1.62A7.45,7.45,0,0,1,82.43,30a9.76,9.76,0,0,1-.51-3.25,10,10,0,0,1,.51-3.28A7.35,7.35,0,0,1,83.85,21,6.39,6.39,0,0,1,86,19.35a6.55,6.55,0,0,1,2.73-.57,6.74,6.74,0,0,1,2.78.57A6.33,6.33,0,0,1,93.73,21a7.37,7.37,0,0,1,1.43,2.5,10.31,10.31,0,0,1,.5,3.28Zm-2.78,0a6.7,6.7,0,0,0-1.11-4.08,3.57,3.57,0,0,0-3-1.49,3.5,3.5,0,0,0-3,1.49,6.77,6.77,0,0,0-1.1,4.08,6.7,6.7,0,0,0,1.1,4,3.5,3.5,0,0,0,3,1.49,3.57,3.57,0,0,0,3-1.49,6.63,6.63,0,0,0,1.11-4Zm5.69,0a8.85,8.85,0,0,1,.66-3.57,6.82,6.82,0,0,1,1.8-2.48,7.37,7.37,0,0,1,2.67-1.46,10.69,10.69,0,0,1,3.25-.47,16.29,16.29,0,0,1,2.21.14,14.41,14.41,0,0,1,2.34.54l-.62,2.33a8.51,8.51,0,0,0-2-.51,13.79,13.79,0,0,0-1.82-.12,8,8,0,0,0-2.22.31,4.65,4.65,0,0,0-3,2.72,6.6,6.6,0,0,0-.45,2.57,6.55,6.55,0,0,0,.42,2.47,4.38,4.38,0,0,0,1.2,1.7,4.89,4.89,0,0,0,1.84,1,8.17,8.17,0,0,0,2.39.33,16.21,16.21,0,0,0,2-.12,9.89,9.89,0,0,0,2.11-.51l.4,2.26a11.44,11.44,0,0,1-2.33.61,16.81,16.81,0,0,1-2.55.18,10.47,10.47,0,0,1-3.35-.51,7.26,7.26,0,0,1-2.62-1.49,6.53,6.53,0,0,1-1.7-2.47A9.16,9.16,0,0,1,98.57,26.76Z"/><path class="cls-3" d="M3.52,8.41V11A1.76,1.76,0,1,1,0,11V8H0a8.41,8.41,0,0,1,16.81.38V24.63h0v9.64a5.57,5.57,0,0,1-5.54,5.55,5.56,5.56,0,0,1-5.55-5.55V14.1a1.77,1.77,0,0,1,3.53,0V34.27a2,2,0,1,0,4,0V14.1h0V8.41a4.88,4.88,0,1,0-9.76,0Z"/><path class="cls-2" d="M34.92,36.58a2,2,0,0,1,.79.15,1.62,1.62,0,0,1,.61.46,2.15,2.15,0,0,1,.39.77,3.66,3.66,0,0,1,.14,1,3.43,3.43,0,0,1-.15,1.06,2.11,2.11,0,0,1-.4.76,1.73,1.73,0,0,1-.62.46,2.09,2.09,0,0,1-.79.15,3,3,0,0,1-.45,0,1.72,1.72,0,0,1-.36-.09l-.26-.1-.16-.09.16-.49.17.09.25.08.28.07.3,0a1.24,1.24,0,0,0,1-.44,2,2,0,0,0,.42-1.24H34.51V38.7h1.72a3.13,3.13,0,0,0-.12-.65,1.83,1.83,0,0,0-.27-.5,1.21,1.21,0,0,0-.42-.32,1.26,1.26,0,0,0-.57-.12,2,2,0,0,0-.63.09,2.76,2.76,0,0,0-.39.16l-.16-.48a2.42,2.42,0,0,1,.46-.2,2.53,2.53,0,0,1,.79-.1Zm3.94,1.79c0,.15,0,.31,0,.48s0,.33,0,.5,0,.34-.07.5a3.47,3.47,0,0,1-.13.46,1.85,1.85,0,0,1-.46.73,1.35,1.35,0,0,1-.88.37l-.09-.52a1.05,1.05,0,0,0,.53-.25,1.31,1.31,0,0,0,.3-.45,1.9,1.9,0,0,0,.15-.51,5.48,5.48,0,0,0,.07-.6c0-.21,0-.42,0-.64v-.59h2.07v3.49h-.63v-3Zm3.94-.6a1.36,1.36,0,0,1,1.1.44,2,2,0,0,1,.38,1.33v.22h-2.5a1.13,1.13,0,0,0,.36.83,1.29,1.29,0,0,0,.9.28,2.9,2.9,0,0,0,.56,0A1.86,1.86,0,0,0,44,40.7l.08.53a2.22,2.22,0,0,1-.41.13,2.62,2.62,0,0,1-.66.07,2.2,2.2,0,0,1-.8-.14,1.59,1.59,0,0,1-.56-.38,1.35,1.35,0,0,1-.34-.58,2.11,2.11,0,0,1-.12-.73,2,2,0,0,1,.15-.81,1.65,1.65,0,0,1,.37-.57,1.6,1.6,0,0,1,1.13-.45Zm.85,1.49a1,1,0,0,0-.24-.71.79.79,0,0,0-.61-.26.87.87,0,0,0-.4.09.81.81,0,0,0-.3.21,1.21,1.21,0,0,0-.21.31,1.61,1.61,0,0,0-.1.36Zm2.76.16c.14.1.29.23.46.38s.34.32.51.5a6.17,6.17,0,0,1,.48.54,4,4,0,0,1,.36.5h-.74a3.35,3.35,0,0,0-.35-.47,5,5,0,0,0-.45-.47c-.16-.16-.32-.29-.47-.42l-.43-.32v1.68h-.63V37.85h.63v1.46l.83-.72a7.38,7.38,0,0,0,.74-.74h.74a8.23,8.23,0,0,1-.78.79l-.9.78Zm5.31-1.57v.52H50.58v3H50v-3H48.82v-.52ZM55,39.6a1.41,1.41,0,0,0-.29-.94,1,1,0,0,0-.74-.34,2.22,2.22,0,0,0-.41,0l-.23,0v2.21a1.41,1.41,0,0,0,.31.18,1.26,1.26,0,0,0,.43.08.82.82,0,0,0,.42-.1.69.69,0,0,0,.29-.27,1.15,1.15,0,0,0,.17-.39,2.67,2.67,0,0,0,0-.51Zm.64,0a2.45,2.45,0,0,1-.1.74,1.88,1.88,0,0,1-.3.58,1.23,1.23,0,0,1-.47.37,1.39,1.39,0,0,1-.63.14,1.45,1.45,0,0,1-.49-.07,1.38,1.38,0,0,1-.32-.15v1.38h-.62V38a5.22,5.22,0,0,1,.52-.12,4.1,4.1,0,0,1,.74-.06,1.83,1.83,0,0,1,.68.13,1.54,1.54,0,0,1,.53.37,1.63,1.63,0,0,1,.34.57,2.29,2.29,0,0,1,.12.76Zm3.77,0a2.27,2.27,0,0,1-.12.75,1.78,1.78,0,0,1-.33.57,1.55,1.55,0,0,1-.5.38,1.7,1.7,0,0,1-.64.13,1.61,1.61,0,0,1-.63-.13,1.45,1.45,0,0,1-.5-.38,1.78,1.78,0,0,1-.33-.57,2.44,2.44,0,0,1,0-1.51,1.78,1.78,0,0,1,.33-.57,1.42,1.42,0,0,1,.5-.37,1.45,1.45,0,0,1,.63-.13,1.47,1.47,0,0,1,1.14.5,1.78,1.78,0,0,1,.33.57,2.29,2.29,0,0,1,.12.76Zm-.64,0a1.54,1.54,0,0,0-.26-.94.81.81,0,0,0-.69-.34.78.78,0,0,0-.68.34,1.81,1.81,0,0,0,0,1.87.78.78,0,0,0,.68.34.81.81,0,0,0,.69-.34,1.53,1.53,0,0,0,.26-.93Zm4.17,1.74H62.3V39.8H60.85v1.54h-.63V37.85h.63v1.42H62.3V37.85h.62v3.49Zm3.77,0h-.63V39.8H64.62v1.54H64V37.85h.63v1.42h1.44V37.85h.63v3.49Zm1.89-1.73h-.23l-.2.05v1.2l.19,0h.22a.54.54,0,0,0,.41-.16.7.7,0,0,0,.15-.5.65.65,0,0,0-.17-.49.57.57,0,0,0-.37-.15Zm-1-1.76h.59v1.33l.22,0,.29,0a1.4,1.4,0,0,1,.41.06.86.86,0,0,1,.33.2,1,1,0,0,1,.24.35,1.39,1.39,0,0,1,.08.52,1.11,1.11,0,0,1-.32.91,1.29,1.29,0,0,1-.85.27,4,4,0,0,1-.5,0l-.49-.12V37.85Zm3.09,3.49h-.59V37.85h.59v3.49Zm2.29-3.57a1.34,1.34,0,0,1,1.09.44,2,2,0,0,1,.39,1.33v.22h-2.5a1.16,1.16,0,0,0,.35.83,1.34,1.34,0,0,0,.91.28,3,3,0,0,0,.56,0,1.72,1.72,0,0,0,.35-.12l.09.53a2.22,2.22,0,0,1-.41.13,2.73,2.73,0,0,1-.66.07,2.2,2.2,0,0,1-.8-.14,1.54,1.54,0,0,1-.57-.38,1.59,1.59,0,0,1-.34-.58,2.38,2.38,0,0,1-.11-.73,2.21,2.21,0,0,1,.14-.81,1.83,1.83,0,0,1,.38-.57,1.5,1.5,0,0,1,.53-.34,1.56,1.56,0,0,1,.6-.11Zm.85,1.49a1,1,0,0,0-.24-.71.79.79,0,0,0-.62-.26.86.86,0,0,0-.39.09,1,1,0,0,0-.31.21,1.49,1.49,0,0,0-.2.31,1.61,1.61,0,0,0-.1.36Zm4.94,1.56H79a2.87,2.87,0,0,0,.35-.67,4,4,0,0,0,.2-.7,6.1,6.1,0,0,0,.08-.76q0-.39,0-.84h2.07v3H82v1.5h-.59v-1H79.32v1h-.59v-1.5Zm2.38,0V38.37h-.85c0,.2,0,.41,0,.64s-.06.44-.1.65a4.21,4.21,0,0,1-.2.63,2.47,2.47,0,0,1-.29.53Zm4.65-1.22a2.27,2.27,0,0,1-.12.75,1.78,1.78,0,0,1-.33.57,1.55,1.55,0,0,1-.5.38,1.7,1.7,0,0,1-.64.13,1.61,1.61,0,0,1-.63-.13,1.55,1.55,0,0,1-.5-.38,1.78,1.78,0,0,1-.33-.57,2.44,2.44,0,0,1,0-1.51,1.78,1.78,0,0,1,.33-.57,1.52,1.52,0,0,1,.5-.37,1.45,1.45,0,0,1,.63-.13,1.47,1.47,0,0,1,1.14.5,1.78,1.78,0,0,1,.33.57,2.29,2.29,0,0,1,.12.76Zm-.64,0a1.54,1.54,0,0,0-.26-.94.81.81,0,0,0-.69-.34.78.78,0,0,0-.68.34,1.81,1.81,0,0,0,0,1.87.78.78,0,0,0,.68.34.81.81,0,0,0,.69-.34,1.53,1.53,0,0,0,.26-.93Zm2.73-.18c.14.1.29.23.46.38s.34.32.51.5a6.17,6.17,0,0,1,.48.54,4,4,0,0,1,.36.5h-.74a3.35,3.35,0,0,0-.35-.47,5,5,0,0,0-.45-.47c-.16-.16-.32-.29-.47-.42l-.43-.32v1.68h-.63V37.85h.63v1.46l.83-.72a7.38,7.38,0,0,0,.74-.74h.74a8.23,8.23,0,0,1-.78.79l-.9.78ZM90.21,42a.47.47,0,0,0,.19.06,1,1,0,0,0,.23,0,.91.91,0,0,0,.58-.16,1.45,1.45,0,0,0,.38-.53,16.93,16.93,0,0,1-.79-1.71,14.54,14.54,0,0,1-.61-1.83h.68l.17.65c.07.23.15.47.23.72s.18.49.28.74.2.49.31.71c.08-.23.16-.46.23-.68s.13-.45.19-.68l.18-.7c.06-.24.13-.49.19-.76h.65c-.16.65-.34,1.28-.54,1.9s-.41,1.18-.64,1.7a2.81,2.81,0,0,1-.27.52,1.64,1.64,0,0,1-.32.36,1.06,1.06,0,0,1-.39.21,1.55,1.55,0,0,1-.5.07,1.15,1.15,0,0,1-.31,0,.88.88,0,0,1-.23-.06l.11-.51Zm4.28-3.23c0,.46-.06.9-.06,1.34s0,.84,0,1.23h-.6c0-.27,0-.56,0-.85l.06-.9c0-.3,0-.6.08-.9s0-.57.08-.84h.58c.1.24.21.54.34.9s.3.8.5,1.3c.21-.5.38-.94.51-1.3s.25-.66.35-.9h.57q0,.4.09.84c0,.3.05.6.07.9s0,.6.06.9,0,.58,0,.85h-.61q0-.59,0-1.26c0-.45,0-.89-.06-1.31-.07.15-.13.3-.18.43l-.15.41-.16.45c0,.16-.12.34-.19.55h-.62c-.07-.21-.13-.39-.19-.55s-.1-.31-.15-.45l-.15-.41c-.06-.13-.11-.28-.18-.43Zm4.82-1a1.34,1.34,0,0,1,1.09.44,2,2,0,0,1,.39,1.33v.22h-2.5a1.13,1.13,0,0,0,.36.83,1.29,1.29,0,0,0,.9.28,2.9,2.9,0,0,0,.56,0,2.14,2.14,0,0,0,.36-.12l.08.53a2.22,2.22,0,0,1-.41.13,2.67,2.67,0,0,1-.66.07,2.2,2.2,0,0,1-.8-.14,1.63,1.63,0,0,1-.57-.38,1.44,1.44,0,0,1-.33-.58,2.11,2.11,0,0,1-.12-.73,2,2,0,0,1,.15-.81,1.65,1.65,0,0,1,.37-.57,1.5,1.5,0,0,1,.53-.34,1.59,1.59,0,0,1,.6-.11Zm.85,1.49a1,1,0,0,0-.24-.71.79.79,0,0,0-.62-.26.86.86,0,0,0-.39.09,1,1,0,0,0-.31.21,1.49,1.49,0,0,0-.2.31,1.61,1.61,0,0,0-.1.36Zm4.2,2.08h-.62V39.8h-1.45v1.54h-.63V37.85h.63v1.42h1.45V37.85h.62v3.49Zm3.87-3.49v.52h-1.14v3h-.62v-3h-1.14v-.52ZM110,39.61h-.23l-.2.05v1.2l.19,0H110a.54.54,0,0,0,.41-.16.7.7,0,0,0,.15-.5.65.65,0,0,0-.17-.49.57.57,0,0,0-.37-.15Zm-1-1.76h.59v1.33l.22,0,.29,0a1.29,1.29,0,0,1,.4.06.83.83,0,0,1,.34.2,1,1,0,0,1,.24.35,1.39,1.39,0,0,1,.08.52,1.14,1.14,0,0,1-.32.91,1.29,1.29,0,0,1-.85.27,4,4,0,0,1-.5,0l-.49-.12V37.85Zm3.09,3.49h-.59V37.85h.59Z"/></g></g></svg>